<?xml version="1.0" encoding="UTF-8" standalone="no"?>
<!DOCTYPE svg PUBLIC "-//W3C//DTD SVG 1.1//EN"
 "http://www.w3.org/Graphics/SVG/1.1/DTD/svg11.dtd">
<!-- Generated by graphviz version 2.44.0 (0)
 -->
<!-- Title: /home/ec2&#45;user/workspace/vsomeip/implementation/configuration/include/application_configuration.hpp Pages: 1 -->
<svg width="475pt" height="240pt"
 viewBox="0.00 0.00 474.87 240.00" xmlns="http://www.w3.org/2000/svg" xmlns:xlink="http://www.w3.org/1999/xlink">
<g id="graph0" class="graph" transform="scale(1 1) rotate(0) translate(4 236)">
<title>/home/ec2&#45;user/workspace/vsomeip/implementation/configuration/include/application_configuration.hpp</title>
<polygon fill="white" stroke="transparent" points="-4,4 -4,-236 470.87,-236 470.87,4 -4,4"/>
<!-- Node1 -->
<g id="node1" class="node">
<title>Node1</title>
<g id="a_node1"><a xlink:title=" ">
<polygon fill="#bfbfbf" stroke="black" points="55.37,-179.5 55.37,-231.5 213.37,-231.5 213.37,-179.5 55.37,-179.5"/>
<text text-anchor="start" x="63.37" y="-219.5" font-family="Helvetica" font-size="10.00">/home/ec2&#45;user/workspace</text>
<text text-anchor="start" x="63.37" y="-208.5" font-family="Helvetica" font-size="10.00">/vsomeip/implementation</text>
<text text-anchor="start" x="63.37" y="-197.5" font-family="Helvetica" font-size="10.00">/configuration/include/application</text>
<text text-anchor="middle" x="134.37" y="-186.5" font-family="Helvetica" font-size="10.00">_configuration.hpp</text>
</a>
</g>
</g>
<!-- Node2 -->
<g id="node2" class="node">
<title>Node2</title>
<g id="a_node2"><a xlink:title=" ">
<polygon fill="white" stroke="#bfbfbf" points="64.87,-0.5 64.87,-19.5 99.87,-19.5 99.87,-0.5 64.87,-0.5"/>
<text text-anchor="middle" x="82.37" y="-7.5" font-family="Helvetica" font-size="10.00">map</text>
</a>
</g>
</g>
<!-- Node1&#45;&gt;Node2 -->
<g id="edge1" class="edge">
<title>Node1&#45;&gt;Node2</title>
<path fill="none" stroke="midnightblue" d="M55.21,-182.61C36.35,-173.5 18.49,-160.75 7.37,-143 -18.61,-101.56 32.48,-50.85 62.56,-26.07"/>
<polygon fill="midnightblue" stroke="midnightblue" points="64.77,-28.78 70.4,-19.8 60.4,-23.31 64.77,-28.78"/>
</g>
<!-- Node3 -->
<g id="node3" class="node">
<title>Node3</title>
<g id="a_node3"><a xlink:title=" ">
<polygon fill="white" stroke="#bfbfbf" points="16.37,-123.5 16.37,-142.5 46.37,-142.5 46.37,-123.5 16.37,-123.5"/>
<text text-anchor="middle" x="31.37" y="-130.5" font-family="Helvetica" font-size="10.00">set</text>
</a>
</g>
</g>
<!-- Node1&#45;&gt;Node3 -->
<g id="edge2" class="edge">
<title>Node1&#45;&gt;Node3</title>
<path fill="none" stroke="midnightblue" d="M97.76,-179.45C82.54,-169.03 65.42,-157.31 52.38,-148.38"/>
<polygon fill="midnightblue" stroke="midnightblue" points="54.3,-145.46 44.07,-142.7 50.35,-151.23 54.3,-145.46"/>
</g>
<!-- Node4 -->
<g id="node4" class="node">
<title>Node4</title>
<g id="a_node4"><a xlink:title=" ">
<polygon fill="white" stroke="#bfbfbf" points="64.37,-123.5 64.37,-142.5 204.37,-142.5 204.37,-123.5 64.37,-123.5"/>
<text text-anchor="middle" x="134.37" y="-130.5" font-family="Helvetica" font-size="10.00">vsomeip/primitive_types.hpp</text>
</a>
</g>
</g>
<!-- Node1&#45;&gt;Node4 -->
<g id="edge3" class="edge">
<title>Node1&#45;&gt;Node4</title>
<path fill="none" stroke="midnightblue" d="M134.37,-179.45C134.37,-170.73 134.37,-161.1 134.37,-152.96"/>
<polygon fill="midnightblue" stroke="midnightblue" points="137.87,-152.7 134.37,-142.7 130.87,-152.7 137.87,-152.7"/>
</g>
<!-- Node5 -->
<g id="node5" class="node">
<title>Node5</title>
<g id="a_node5"><a xlink:title=" ">
<polygon fill="white" stroke="#bfbfbf" points="222.87,-123.5 222.87,-142.5 323.87,-142.5 323.87,-123.5 222.87,-123.5"/>
<text text-anchor="middle" x="273.37" y="-130.5" font-family="Helvetica" font-size="10.00">vsomeip/plugin.hpp</text>
</a>
</g>
</g>
<!-- Node1&#45;&gt;Node5 -->
<g id="edge4" class="edge">
<title>Node1&#45;&gt;Node5</title>
<path fill="none" stroke="midnightblue" d="M183.77,-179.45C205.23,-168.56 229.49,-156.25 247.35,-147.2"/>
<polygon fill="midnightblue" stroke="midnightblue" points="249.22,-150.17 256.56,-142.53 246.05,-143.93 249.22,-150.17"/>
</g>
<!-- Node6 -->
<g id="node6" class="node">
<title>Node6</title>
<g id="a_node6"><a xlink:href="debounce__filter__impl_8hpp.html" target="_top" xlink:title=" ">
<polygon fill="white" stroke="black" points="341.87,-123.5 341.87,-142.5 466.87,-142.5 466.87,-123.5 341.87,-123.5"/>
<text text-anchor="middle" x="404.37" y="-130.5" font-family="Helvetica" font-size="10.00">debounce_filter_impl.hpp</text>
</a>
</g>
</g>
<!-- Node1&#45;&gt;Node6 -->
<g id="edge5" class="edge">
<title>Node1&#45;&gt;Node6</title>
<path fill="none" stroke="midnightblue" d="M213.55,-183.82C262.08,-171.15 322.28,-155.43 361.93,-145.08"/>
<polygon fill="midnightblue" stroke="midnightblue" points="363.01,-148.42 371.8,-142.5 361.24,-141.64 363.01,-148.42"/>
</g>
<!-- Node7 -->
<g id="node7" class="node">
<title>Node7</title>
<g id="a_node7"><a xlink:href="structured__types_8hpp.html" target="_top" xlink:title=" ">
<polygon fill="white" stroke="black" points="185.37,-56.5 185.37,-86.5 285.37,-86.5 285.37,-56.5 185.37,-56.5"/>
<text text-anchor="start" x="193.37" y="-74.5" font-family="Helvetica" font-size="10.00">vsomeip/structured</text>
<text text-anchor="middle" x="235.37" y="-63.5" font-family="Helvetica" font-size="10.00">_types.hpp</text>
</a>
</g>
</g>
<!-- Node6&#45;&gt;Node7 -->
<g id="edge6" class="edge">
<title>Node6&#45;&gt;Node7</title>
<path fill="none" stroke="midnightblue" d="M380.15,-123.48C355.34,-114.74 316.05,-100.91 284.66,-89.86"/>
<polygon fill="midnightblue" stroke="midnightblue" points="285.79,-86.54 275.2,-86.52 283.47,-93.15 285.79,-86.54"/>
</g>
<!-- Node7&#45;&gt;Node2 -->
<g id="edge8" class="edge">
<title>Node7&#45;&gt;Node2</title>
<path fill="none" stroke="midnightblue" d="M199.11,-56.4C171.62,-45.71 134.43,-31.24 109.48,-21.54"/>
<polygon fill="midnightblue" stroke="midnightblue" points="110.51,-18.19 99.92,-17.83 107.97,-24.71 110.51,-18.19"/>
</g>
<!-- Node8 -->
<g id="node8" class="node">
<title>Node8</title>
<g id="a_node8"><a xlink:title=" ">
<polygon fill="white" stroke="#bfbfbf" points="212.37,-0.5 212.37,-19.5 258.37,-19.5 258.37,-0.5 212.37,-0.5"/>
<text text-anchor="middle" x="235.37" y="-7.5" font-family="Helvetica" font-size="10.00">chrono</text>
</a>
</g>
</g>
<!-- Node7&#45;&gt;Node8 -->
<g id="edge7" class="edge">
<title>Node7&#45;&gt;Node8</title>
<path fill="none" stroke="midnightblue" d="M235.37,-56.4C235.37,-48.47 235.37,-38.46 235.37,-29.86"/>
<polygon fill="midnightblue" stroke="midnightblue" points="238.87,-29.66 235.37,-19.66 231.87,-29.66 238.87,-29.66"/>
</g>
</g>
</svg>
