<?xml version="1.0" encoding="UTF-8" standalone="no"?>
<!DOCTYPE svg PUBLIC "-//W3C//DTD SVG 1.1//EN"
 "http://www.w3.org/Graphics/SVG/1.1/DTD/svg11.dtd">
<!-- Generated by graphviz version 2.44.0 (0)
 -->
<!-- Title: /home/ec2&#45;user/workspace/vsomeip/implementation/protocol/src/assign_client_command.cpp Pages: 1 -->
<svg width="866pt" height="296pt"
 viewBox="0.00 0.00 866.00 296.00" xmlns="http://www.w3.org/2000/svg" xmlns:xlink="http://www.w3.org/1999/xlink">
<g id="graph0" class="graph" transform="scale(1 1) rotate(0) translate(4 292)">
<title>/home/ec2&#45;user/workspace/vsomeip/implementation/protocol/src/assign_client_command.cpp</title>
<polygon fill="white" stroke="transparent" points="-4,4 -4,-292 862,-292 862,4 -4,4"/>
<!-- Node1 -->
<g id="node1" class="node">
<title>Node1</title>
<g id="a_node1"><a xlink:title=" ">
<polygon fill="#bfbfbf" stroke="black" points="184,-235.5 184,-287.5 318,-287.5 318,-235.5 184,-235.5"/>
<text text-anchor="start" x="192" y="-275.5" font-family="Helvetica" font-size="10.00">/home/ec2&#45;user/workspace</text>
<text text-anchor="start" x="192" y="-264.5" font-family="Helvetica" font-size="10.00">/vsomeip/implementation</text>
<text text-anchor="start" x="192" y="-253.5" font-family="Helvetica" font-size="10.00">/protocol/src/assign_client</text>
<text text-anchor="middle" x="251" y="-242.5" font-family="Helvetica" font-size="10.00">_command.cpp</text>
</a>
</g>
</g>
<!-- Node2 -->
<g id="node2" class="node">
<title>Node2</title>
<g id="a_node2"><a xlink:title=" ">
<polygon fill="white" stroke="#bfbfbf" points="125,-174 125,-193 165,-193 165,-174 125,-174"/>
<text text-anchor="middle" x="145" y="-181" font-family="Helvetica" font-size="10.00">limits</text>
</a>
</g>
</g>
<!-- Node1&#45;&gt;Node2 -->
<g id="edge1" class="edge">
<title>Node1&#45;&gt;Node2</title>
<path fill="none" stroke="midnightblue" d="M216,-235.4C199.22,-223.37 179.71,-209.38 165.39,-199.12"/>
<polygon fill="midnightblue" stroke="midnightblue" points="167.38,-196.24 157.22,-193.26 163.31,-201.93 167.38,-196.24"/>
</g>
<!-- Node3 -->
<g id="node3" class="node">
<title>Node3</title>
<g id="a_node3"><a xlink:href="logger_8hpp.html" target="_top" xlink:title=" ">
<polygon fill="white" stroke="black" points="183,-174 183,-193 319,-193 319,-174 183,-174"/>
<text text-anchor="middle" x="251" y="-181" font-family="Helvetica" font-size="10.00">vsomeip/internal/logger.hpp</text>
</a>
</g>
</g>
<!-- Node1&#45;&gt;Node3 -->
<g id="edge2" class="edge">
<title>Node1&#45;&gt;Node3</title>
<path fill="none" stroke="midnightblue" d="M251,-235.19C251,-224.76 251,-212.9 251,-203.27"/>
<polygon fill="midnightblue" stroke="midnightblue" points="254.5,-203.21 251,-193.21 247.5,-203.21 254.5,-203.21"/>
</g>
<!-- Node11 -->
<g id="node11" class="node">
<title>Node11</title>
<g id="a_node11"><a xlink:href="assign__client__command_8hpp.html" target="_top" xlink:title=" ">
<polygon fill="white" stroke="black" points="491,-168.5 491,-198.5 607,-198.5 607,-168.5 491,-168.5"/>
<text text-anchor="start" x="499" y="-186.5" font-family="Helvetica" font-size="10.00">../include/assign_client</text>
<text text-anchor="middle" x="549" y="-175.5" font-family="Helvetica" font-size="10.00">_command.hpp</text>
</a>
</g>
</g>
<!-- Node1&#45;&gt;Node11 -->
<g id="edge10" class="edge">
<title>Node1&#45;&gt;Node11</title>
<path fill="none" stroke="midnightblue" d="M318.25,-243.35C367.87,-230.69 435.02,-213.57 484.09,-201.06"/>
<polygon fill="midnightblue" stroke="midnightblue" points="485.13,-204.4 493.96,-198.54 483.4,-197.62 485.13,-204.4"/>
</g>
<!-- Node4 -->
<g id="node4" class="node">
<title>Node4</title>
<g id="a_node4"><a xlink:title=" ">
<polygon fill="white" stroke="#bfbfbf" points="0,-112.5 0,-131.5 46,-131.5 46,-112.5 0,-112.5"/>
<text text-anchor="middle" x="23" y="-119.5" font-family="Helvetica" font-size="10.00">chrono</text>
</a>
</g>
</g>
<!-- Node3&#45;&gt;Node4 -->
<g id="edge3" class="edge">
<title>Node3&#45;&gt;Node4</title>
<path fill="none" stroke="midnightblue" d="M216.95,-173.97C179.79,-164.61 118.31,-148.96 56.05,-132.24"/>
<polygon fill="midnightblue" stroke="midnightblue" points="56.62,-128.77 46.06,-129.55 54.8,-135.53 56.62,-128.77"/>
</g>
<!-- Node5 -->
<g id="node5" class="node">
<title>Node5</title>
<g id="a_node5"><a xlink:title=" ">
<polygon fill="white" stroke="#bfbfbf" points="64,-112.5 64,-131.5 110,-131.5 110,-112.5 64,-112.5"/>
<text text-anchor="middle" x="87" y="-119.5" font-family="Helvetica" font-size="10.00">cstdint</text>
</a>
</g>
</g>
<!-- Node3&#45;&gt;Node5 -->
<g id="edge4" class="edge">
<title>Node3&#45;&gt;Node5</title>
<path fill="none" stroke="midnightblue" d="M227.5,-173.98C199.29,-163.74 151.8,-146.51 119.94,-134.95"/>
<polygon fill="midnightblue" stroke="midnightblue" points="120.78,-131.53 110.19,-131.41 118.4,-138.11 120.78,-131.53"/>
</g>
<!-- Node6 -->
<g id="node6" class="node">
<title>Node6</title>
<g id="a_node6"><a xlink:title=" ">
<polygon fill="white" stroke="#bfbfbf" points="128,-112.5 128,-131.5 172,-131.5 172,-112.5 128,-112.5"/>
<text text-anchor="middle" x="150" y="-119.5" font-family="Helvetica" font-size="10.00">mutex</text>
</a>
</g>
</g>
<!-- Node3&#45;&gt;Node6 -->
<g id="edge5" class="edge">
<title>Node3&#45;&gt;Node6</title>
<path fill="none" stroke="midnightblue" d="M236.53,-173.98C220.03,-164.25 192.82,-148.23 173.32,-136.74"/>
<polygon fill="midnightblue" stroke="midnightblue" points="174.84,-133.57 164.44,-131.51 171.28,-139.6 174.84,-133.57"/>
</g>
<!-- Node7 -->
<g id="node7" class="node">
<title>Node7</title>
<g id="a_node7"><a xlink:title=" ">
<polygon fill="white" stroke="#bfbfbf" points="190,-112.5 190,-131.5 242,-131.5 242,-112.5 190,-112.5"/>
<text text-anchor="middle" x="216" y="-119.5" font-family="Helvetica" font-size="10.00">ostream</text>
</a>
</g>
</g>
<!-- Node3&#45;&gt;Node7 -->
<g id="edge6" class="edge">
<title>Node3&#45;&gt;Node7</title>
<path fill="none" stroke="midnightblue" d="M245.99,-173.98C240.84,-165.23 232.69,-151.37 226.18,-140.31"/>
<polygon fill="midnightblue" stroke="midnightblue" points="229.09,-138.35 221.01,-131.51 223.06,-141.9 229.09,-138.35"/>
</g>
<!-- Node8 -->
<g id="node8" class="node">
<title>Node8</title>
<g id="a_node8"><a xlink:title=" ">
<polygon fill="white" stroke="#bfbfbf" points="260,-112.5 260,-131.5 312,-131.5 312,-112.5 260,-112.5"/>
<text text-anchor="middle" x="286" y="-119.5" font-family="Helvetica" font-size="10.00">sstream</text>
</a>
</g>
</g>
<!-- Node3&#45;&gt;Node8 -->
<g id="edge7" class="edge">
<title>Node3&#45;&gt;Node8</title>
<path fill="none" stroke="midnightblue" d="M256.01,-173.98C261.16,-165.23 269.31,-151.37 275.82,-140.31"/>
<polygon fill="midnightblue" stroke="midnightblue" points="278.94,-141.9 280.99,-131.51 272.91,-138.35 278.94,-141.9"/>
</g>
<!-- Node9 -->
<g id="node9" class="node">
<title>Node9</title>
<g id="a_node9"><a xlink:title=" ">
<polygon fill="white" stroke="#bfbfbf" points="330,-112.5 330,-131.5 390,-131.5 390,-112.5 330,-112.5"/>
<text text-anchor="middle" x="360" y="-119.5" font-family="Helvetica" font-size="10.00">streambuf</text>
</a>
</g>
</g>
<!-- Node3&#45;&gt;Node9 -->
<g id="edge8" class="edge">
<title>Node3&#45;&gt;Node9</title>
<path fill="none" stroke="midnightblue" d="M266.62,-173.98C284.59,-164.17 314.32,-147.93 335.41,-136.42"/>
<polygon fill="midnightblue" stroke="midnightblue" points="337.31,-139.37 344.41,-131.51 333.96,-133.23 337.31,-139.37"/>
</g>
<!-- Node10 -->
<g id="node10" class="node">
<title>Node10</title>
<g id="a_node10"><a xlink:title=" ">
<polygon fill="white" stroke="#bfbfbf" points="408,-112.5 408,-131.5 510,-131.5 510,-112.5 408,-112.5"/>
<text text-anchor="middle" x="459" y="-119.5" font-family="Helvetica" font-size="10.00">vsomeip/export.hpp</text>
</a>
</g>
</g>
<!-- Node3&#45;&gt;Node10 -->
<g id="edge9" class="edge">
<title>Node3&#45;&gt;Node10</title>
<path fill="none" stroke="midnightblue" d="M280.8,-173.98C317.25,-163.55 379.08,-145.86 419.47,-134.31"/>
<polygon fill="midnightblue" stroke="midnightblue" points="420.6,-137.62 429.25,-131.51 418.68,-130.89 420.6,-137.62"/>
</g>
<!-- Node12 -->
<g id="node12" class="node">
<title>Node12</title>
<g id="a_node12"><a xlink:title=" ">
<polygon fill="white" stroke="#bfbfbf" points="528.5,-112.5 528.5,-131.5 569.5,-131.5 569.5,-112.5 528.5,-112.5"/>
<text text-anchor="middle" x="549" y="-119.5" font-family="Helvetica" font-size="10.00">string</text>
</a>
</g>
</g>
<!-- Node11&#45;&gt;Node12 -->
<g id="edge11" class="edge">
<title>Node11&#45;&gt;Node12</title>
<path fill="none" stroke="midnightblue" d="M549,-168.4C549,-160.47 549,-150.46 549,-141.86"/>
<polygon fill="midnightblue" stroke="midnightblue" points="552.5,-141.66 549,-131.66 545.5,-141.66 552.5,-141.66"/>
</g>
<!-- Node13 -->
<g id="node13" class="node">
<title>Node13</title>
<g id="a_node13"><a xlink:href="command_8hpp.html" target="_top" xlink:title=" ">
<polygon fill="white" stroke="black" points="588,-112.5 588,-131.5 666,-131.5 666,-112.5 588,-112.5"/>
<text text-anchor="middle" x="627" y="-119.5" font-family="Helvetica" font-size="10.00">command.hpp</text>
</a>
</g>
</g>
<!-- Node11&#45;&gt;Node13 -->
<g id="edge12" class="edge">
<title>Node11&#45;&gt;Node13</title>
<path fill="none" stroke="midnightblue" d="M567.48,-168.4C579.52,-159.22 595.2,-147.26 607.44,-137.92"/>
<polygon fill="midnightblue" stroke="midnightblue" points="609.82,-140.51 615.65,-131.66 605.58,-134.94 609.82,-140.51"/>
</g>
<!-- Node14 -->
<g id="node14" class="node">
<title>Node14</title>
<g id="a_node14"><a xlink:title=" ">
<polygon fill="white" stroke="#bfbfbf" points="516,-56.5 516,-75.5 562,-75.5 562,-56.5 516,-56.5"/>
<text text-anchor="middle" x="539" y="-63.5" font-family="Helvetica" font-size="10.00">cstring</text>
</a>
</g>
</g>
<!-- Node13&#45;&gt;Node14 -->
<g id="edge13" class="edge">
<title>Node13&#45;&gt;Node14</title>
<path fill="none" stroke="midnightblue" d="M612.86,-112.32C599.13,-103.9 578.06,-90.97 561.94,-81.07"/>
<polygon fill="midnightblue" stroke="midnightblue" points="563.46,-77.9 553.1,-75.65 559.8,-83.87 563.46,-77.9"/>
</g>
<!-- Node15 -->
<g id="node15" class="node">
<title>Node15</title>
<g id="a_node15"><a xlink:title=" ">
<polygon fill="white" stroke="#bfbfbf" points="580.5,-56.5 580.5,-75.5 623.5,-75.5 623.5,-56.5 580.5,-56.5"/>
<text text-anchor="middle" x="602" y="-63.5" font-family="Helvetica" font-size="10.00">vector</text>
</a>
</g>
</g>
<!-- Node13&#45;&gt;Node15 -->
<g id="edge14" class="edge">
<title>Node13&#45;&gt;Node15</title>
<path fill="none" stroke="midnightblue" d="M622.87,-112.08C619.49,-104.77 614.58,-94.18 610.38,-85.1"/>
<polygon fill="midnightblue" stroke="midnightblue" points="613.43,-83.36 606.05,-75.75 607.08,-86.3 613.43,-83.36"/>
</g>
<!-- Node16 -->
<g id="node16" class="node">
<title>Node16</title>
<g id="a_node16"><a xlink:title=" ">
<polygon fill="white" stroke="#bfbfbf" points="582,-0.5 582,-19.5 722,-19.5 722,-0.5 582,-0.5"/>
<text text-anchor="middle" x="652" y="-7.5" font-family="Helvetica" font-size="10.00">vsomeip/primitive_types.hpp</text>
</a>
</g>
</g>
<!-- Node13&#45;&gt;Node16 -->
<g id="edge15" class="edge">
<title>Node13&#45;&gt;Node16</title>
<path fill="none" stroke="midnightblue" d="M628.96,-112.37C633,-94.62 642.3,-53.67 647.77,-29.6"/>
<polygon fill="midnightblue" stroke="midnightblue" points="651.24,-30.12 650.05,-19.59 644.42,-28.57 651.24,-30.12"/>
</g>
<!-- Node17 -->
<g id="node17" class="node">
<title>Node17</title>
<g id="a_node17"><a xlink:href="protocol_8hpp.html" target="_top" xlink:title=" ">
<polygon fill="white" stroke="black" points="680,-56.5 680,-75.5 750,-75.5 750,-56.5 680,-56.5"/>
<text text-anchor="middle" x="715" y="-63.5" font-family="Helvetica" font-size="10.00">protocol.hpp</text>
</a>
</g>
</g>
<!-- Node13&#45;&gt;Node17 -->
<g id="edge16" class="edge">
<title>Node13&#45;&gt;Node17</title>
<path fill="none" stroke="midnightblue" d="M641.14,-112.32C654.87,-103.9 675.94,-90.97 692.06,-81.07"/>
<polygon fill="midnightblue" stroke="midnightblue" points="694.2,-83.87 700.9,-75.65 690.54,-77.9 694.2,-83.87"/>
</g>
<!-- Node17&#45;&gt;Node16 -->
<g id="edge18" class="edge">
<title>Node17&#45;&gt;Node16</title>
<path fill="none" stroke="midnightblue" d="M704.88,-56.32C695.47,-48.26 681.26,-36.08 669.93,-26.37"/>
<polygon fill="midnightblue" stroke="midnightblue" points="672.18,-23.68 662.31,-19.83 667.62,-29 672.18,-23.68"/>
</g>
<!-- Node18 -->
<g id="node18" class="node">
<title>Node18</title>
<g id="a_node18"><a xlink:title=" ">
<polygon fill="white" stroke="#bfbfbf" points="740,-0.5 740,-19.5 858,-19.5 858,-0.5 740,-0.5"/>
<text text-anchor="middle" x="799" y="-7.5" font-family="Helvetica" font-size="10.00">vsomeip/constants.hpp</text>
</a>
</g>
</g>
<!-- Node17&#45;&gt;Node18 -->
<g id="edge17" class="edge">
<title>Node17&#45;&gt;Node18</title>
<path fill="none" stroke="midnightblue" d="M728.5,-56.32C741.6,-47.9 761.71,-34.97 777.11,-25.07"/>
<polygon fill="midnightblue" stroke="midnightblue" points="779.02,-28.01 785.54,-19.65 775.23,-22.12 779.02,-28.01"/>
</g>
</g>
</svg>
