<?xml version="1.0" encoding="UTF-8" standalone="no"?>
<!DOCTYPE svg PUBLIC "-//W3C//DTD SVG 1.1//EN"
 "http://www.w3.org/Graphics/SVG/1.1/DTD/svg11.dtd">
<!-- Generated by graphviz version 2.44.0 (0)
 -->
<!-- Title: /home/ec2&#45;user/workspace/vsomeip/implementation/protocol/src/assign_client_ack_command.cpp Pages: 1 -->
<svg width="355pt" height="296pt"
 viewBox="0.00 0.00 355.00 296.00" xmlns="http://www.w3.org/2000/svg" xmlns:xlink="http://www.w3.org/1999/xlink">
<g id="graph0" class="graph" transform="scale(1 1) rotate(0) translate(4 292)">
<title>/home/ec2&#45;user/workspace/vsomeip/implementation/protocol/src/assign_client_ack_command.cpp</title>
<polygon fill="white" stroke="transparent" points="-4,4 -4,-292 351,-292 351,4 -4,4"/>
<!-- Node1 -->
<g id="node1" class="node">
<title>Node1</title>
<g id="a_node1"><a xlink:title=" ">
<polygon fill="#bfbfbf" stroke="black" points="1,-235.5 1,-287.5 135,-287.5 135,-235.5 1,-235.5"/>
<text text-anchor="start" x="9" y="-275.5" font-family="Helvetica" font-size="10.00">/home/ec2&#45;user/workspace</text>
<text text-anchor="start" x="9" y="-264.5" font-family="Helvetica" font-size="10.00">/vsomeip/implementation</text>
<text text-anchor="start" x="9" y="-253.5" font-family="Helvetica" font-size="10.00">/protocol/src/assign_client</text>
<text text-anchor="middle" x="68" y="-242.5" font-family="Helvetica" font-size="10.00">_ack_command.cpp</text>
</a>
</g>
</g>
<!-- Node2 -->
<g id="node2" class="node">
<title>Node2</title>
<g id="a_node2"><a xlink:title=" ">
<polygon fill="white" stroke="#bfbfbf" points="0,-174 0,-193 40,-193 40,-174 0,-174"/>
<text text-anchor="middle" x="20" y="-181" font-family="Helvetica" font-size="10.00">limits</text>
</a>
</g>
</g>
<!-- Node1&#45;&gt;Node2 -->
<g id="edge1" class="edge">
<title>Node1&#45;&gt;Node2</title>
<path fill="none" stroke="midnightblue" d="M52.02,-235.19C45.07,-224.2 37.12,-211.6 30.87,-201.72"/>
<polygon fill="midnightblue" stroke="midnightblue" points="33.8,-199.79 25.5,-193.21 27.88,-203.53 33.8,-199.79"/>
</g>
<!-- Node3 -->
<g id="node3" class="node">
<title>Node3</title>
<g id="a_node3"><a xlink:href="assign__client__ack__command_8hpp.html" target="_top" xlink:title=" ">
<polygon fill="white" stroke="black" points="58,-168.5 58,-198.5 174,-198.5 174,-168.5 58,-168.5"/>
<text text-anchor="start" x="66" y="-186.5" font-family="Helvetica" font-size="10.00">../include/assign_client</text>
<text text-anchor="middle" x="116" y="-175.5" font-family="Helvetica" font-size="10.00">_ack_command.hpp</text>
</a>
</g>
</g>
<!-- Node1&#45;&gt;Node3 -->
<g id="edge2" class="edge">
<title>Node1&#45;&gt;Node3</title>
<path fill="none" stroke="midnightblue" d="M83.98,-235.19C89.65,-226.22 95.99,-216.18 101.53,-207.42"/>
<polygon fill="midnightblue" stroke="midnightblue" points="104.56,-209.17 106.94,-198.85 98.64,-205.43 104.56,-209.17"/>
</g>
<!-- Node4 -->
<g id="node4" class="node">
<title>Node4</title>
<g id="a_node4"><a xlink:href="command_8hpp.html" target="_top" xlink:title=" ">
<polygon fill="white" stroke="black" points="77,-112.5 77,-131.5 155,-131.5 155,-112.5 77,-112.5"/>
<text text-anchor="middle" x="116" y="-119.5" font-family="Helvetica" font-size="10.00">command.hpp</text>
</a>
</g>
</g>
<!-- Node3&#45;&gt;Node4 -->
<g id="edge3" class="edge">
<title>Node3&#45;&gt;Node4</title>
<path fill="none" stroke="midnightblue" d="M116,-168.4C116,-160.47 116,-150.46 116,-141.86"/>
<polygon fill="midnightblue" stroke="midnightblue" points="119.5,-141.66 116,-131.66 112.5,-141.66 119.5,-141.66"/>
</g>
<!-- Node5 -->
<g id="node5" class="node">
<title>Node5</title>
<g id="a_node5"><a xlink:title=" ">
<polygon fill="white" stroke="#bfbfbf" points="5,-56.5 5,-75.5 51,-75.5 51,-56.5 5,-56.5"/>
<text text-anchor="middle" x="28" y="-63.5" font-family="Helvetica" font-size="10.00">cstring</text>
</a>
</g>
</g>
<!-- Node4&#45;&gt;Node5 -->
<g id="edge4" class="edge">
<title>Node4&#45;&gt;Node5</title>
<path fill="none" stroke="midnightblue" d="M101.86,-112.32C88.13,-103.9 67.06,-90.97 50.94,-81.07"/>
<polygon fill="midnightblue" stroke="midnightblue" points="52.46,-77.9 42.1,-75.65 48.8,-83.87 52.46,-77.9"/>
</g>
<!-- Node6 -->
<g id="node6" class="node">
<title>Node6</title>
<g id="a_node6"><a xlink:title=" ">
<polygon fill="white" stroke="#bfbfbf" points="69.5,-56.5 69.5,-75.5 112.5,-75.5 112.5,-56.5 69.5,-56.5"/>
<text text-anchor="middle" x="91" y="-63.5" font-family="Helvetica" font-size="10.00">vector</text>
</a>
</g>
</g>
<!-- Node4&#45;&gt;Node6 -->
<g id="edge5" class="edge">
<title>Node4&#45;&gt;Node6</title>
<path fill="none" stroke="midnightblue" d="M111.87,-112.08C108.49,-104.77 103.58,-94.18 99.38,-85.1"/>
<polygon fill="midnightblue" stroke="midnightblue" points="102.43,-83.36 95.05,-75.75 96.08,-86.3 102.43,-83.36"/>
</g>
<!-- Node7 -->
<g id="node7" class="node">
<title>Node7</title>
<g id="a_node7"><a xlink:title=" ">
<polygon fill="white" stroke="#bfbfbf" points="71,-0.5 71,-19.5 211,-19.5 211,-0.5 71,-0.5"/>
<text text-anchor="middle" x="141" y="-7.5" font-family="Helvetica" font-size="10.00">vsomeip/primitive_types.hpp</text>
</a>
</g>
</g>
<!-- Node4&#45;&gt;Node7 -->
<g id="edge6" class="edge">
<title>Node4&#45;&gt;Node7</title>
<path fill="none" stroke="midnightblue" d="M117.96,-112.37C122,-94.62 131.3,-53.67 136.77,-29.6"/>
<polygon fill="midnightblue" stroke="midnightblue" points="140.24,-30.12 139.05,-19.59 133.42,-28.57 140.24,-30.12"/>
</g>
<!-- Node8 -->
<g id="node8" class="node">
<title>Node8</title>
<g id="a_node8"><a xlink:href="protocol_8hpp.html" target="_top" xlink:title=" ">
<polygon fill="white" stroke="black" points="169,-56.5 169,-75.5 239,-75.5 239,-56.5 169,-56.5"/>
<text text-anchor="middle" x="204" y="-63.5" font-family="Helvetica" font-size="10.00">protocol.hpp</text>
</a>
</g>
</g>
<!-- Node4&#45;&gt;Node8 -->
<g id="edge7" class="edge">
<title>Node4&#45;&gt;Node8</title>
<path fill="none" stroke="midnightblue" d="M130.14,-112.32C143.87,-103.9 164.94,-90.97 181.06,-81.07"/>
<polygon fill="midnightblue" stroke="midnightblue" points="183.2,-83.87 189.9,-75.65 179.54,-77.9 183.2,-83.87"/>
</g>
<!-- Node8&#45;&gt;Node7 -->
<g id="edge9" class="edge">
<title>Node8&#45;&gt;Node7</title>
<path fill="none" stroke="midnightblue" d="M193.88,-56.32C184.47,-48.26 170.26,-36.08 158.93,-26.37"/>
<polygon fill="midnightblue" stroke="midnightblue" points="161.18,-23.68 151.31,-19.83 156.62,-29 161.18,-23.68"/>
</g>
<!-- Node9 -->
<g id="node9" class="node">
<title>Node9</title>
<g id="a_node9"><a xlink:title=" ">
<polygon fill="white" stroke="#bfbfbf" points="229,-0.5 229,-19.5 347,-19.5 347,-0.5 229,-0.5"/>
<text text-anchor="middle" x="288" y="-7.5" font-family="Helvetica" font-size="10.00">vsomeip/constants.hpp</text>
</a>
</g>
</g>
<!-- Node8&#45;&gt;Node9 -->
<g id="edge8" class="edge">
<title>Node8&#45;&gt;Node9</title>
<path fill="none" stroke="midnightblue" d="M217.5,-56.32C230.6,-47.9 250.71,-34.97 266.11,-25.07"/>
<polygon fill="midnightblue" stroke="midnightblue" points="268.02,-28.01 274.54,-19.65 264.23,-22.12 268.02,-28.01"/>
</g>
</g>
</svg>
