<?xml version="1.0" encoding="UTF-8" standalone="no"?>
<!DOCTYPE svg PUBLIC "-//W3C//DTD SVG 1.1//EN"
 "http://www.w3.org/Graphics/SVG/1.1/DTD/svg11.dtd">
<!-- Generated by graphviz version 2.44.0 (0)
 -->
<!-- Title: /home/ec2&#45;user/workspace/vsomeip/implementation/e2e_protection/src/buffer/buffer.cpp Pages: 1 -->
<svg width="272pt" height="184pt"
 viewBox="0.00 0.00 271.50 184.00" xmlns="http://www.w3.org/2000/svg" xmlns:xlink="http://www.w3.org/1999/xlink">
<g id="graph0" class="graph" transform="scale(1 1) rotate(0) translate(4 180)">
<title>/home/ec2&#45;user/workspace/vsomeip/implementation/e2e_protection/src/buffer/buffer.cpp</title>
<polygon fill="white" stroke="transparent" points="-4,4 -4,-180 267.5,-180 267.5,4 -4,4"/>
<!-- Node1 -->
<g id="node1" class="node">
<title>Node1</title>
<g id="a_node1"><a xlink:title=" ">
<polygon fill="#bfbfbf" stroke="black" points="118.5,-123.5 118.5,-175.5 252.5,-175.5 252.5,-123.5 118.5,-123.5"/>
<text text-anchor="start" x="126.5" y="-163.5" font-family="Helvetica" font-size="10.00">/home/ec2&#45;user/workspace</text>
<text text-anchor="start" x="126.5" y="-152.5" font-family="Helvetica" font-size="10.00">/vsomeip/implementation</text>
<text text-anchor="start" x="126.5" y="-141.5" font-family="Helvetica" font-size="10.00">/e2e_protection/src/buffer</text>
<text text-anchor="middle" x="185.5" y="-130.5" font-family="Helvetica" font-size="10.00">/buffer.cpp</text>
</a>
</g>
</g>
<!-- Node2 -->
<g id="node2" class="node">
<title>Node2</title>
<g id="a_node2"><a xlink:href="e2e__protection_2include_2buffer_2buffer_8hpp.html" target="_top" xlink:title=" ">
<polygon fill="white" stroke="black" points="72,-56.5 72,-86.5 195,-86.5 195,-56.5 72,-56.5"/>
<text text-anchor="start" x="80" y="-74.5" font-family="Helvetica" font-size="10.00">../../../e2e_protection</text>
<text text-anchor="middle" x="133.5" y="-63.5" font-family="Helvetica" font-size="10.00">/include/buffer/buffer.hpp</text>
</a>
</g>
</g>
<!-- Node1&#45;&gt;Node2 -->
<g id="edge1" class="edge">
<title>Node1&#45;&gt;Node2</title>
<path fill="none" stroke="midnightblue" d="M168.18,-123.19C161.98,-114.13 155.03,-103.97 148.99,-95.14"/>
<polygon fill="midnightblue" stroke="midnightblue" points="151.85,-93.12 143.32,-86.85 146.07,-97.07 151.85,-93.12"/>
</g>
<!-- Node7 -->
<g id="node7" class="node">
<title>Node7</title>
<g id="a_node7"><a xlink:title=" ">
<polygon fill="white" stroke="#bfbfbf" points="213.5,-62 213.5,-81 263.5,-81 263.5,-62 213.5,-62"/>
<text text-anchor="middle" x="238.5" y="-69" font-family="Helvetica" font-size="10.00">iomanip</text>
</a>
</g>
</g>
<!-- Node1&#45;&gt;Node7 -->
<g id="edge6" class="edge">
<title>Node1&#45;&gt;Node7</title>
<path fill="none" stroke="midnightblue" d="M203.15,-123.19C210.82,-112.2 219.6,-99.6 226.49,-89.72"/>
<polygon fill="midnightblue" stroke="midnightblue" points="229.58,-91.41 232.43,-81.21 223.84,-87.41 229.58,-91.41"/>
</g>
<!-- Node3 -->
<g id="node3" class="node">
<title>Node3</title>
<g id="a_node3"><a xlink:title=" ">
<polygon fill="white" stroke="#bfbfbf" points="0,-0.5 0,-19.5 59,-19.5 59,-0.5 0,-0.5"/>
<text text-anchor="middle" x="29.5" y="-7.5" font-family="Helvetica" font-size="10.00">stdexcept</text>
</a>
</g>
</g>
<!-- Node2&#45;&gt;Node3 -->
<g id="edge2" class="edge">
<title>Node2&#45;&gt;Node3</title>
<path fill="none" stroke="midnightblue" d="M108.85,-56.4C92.18,-46.86 70.27,-34.32 53.69,-24.84"/>
<polygon fill="midnightblue" stroke="midnightblue" points="55.05,-21.59 44.63,-19.66 51.57,-27.66 55.05,-21.59"/>
</g>
<!-- Node4 -->
<g id="node4" class="node">
<title>Node4</title>
<g id="a_node4"><a xlink:title=" ">
<polygon fill="white" stroke="#bfbfbf" points="77.5,-0.5 77.5,-19.5 123.5,-19.5 123.5,-0.5 77.5,-0.5"/>
<text text-anchor="middle" x="100.5" y="-7.5" font-family="Helvetica" font-size="10.00">cstdint</text>
</a>
</g>
</g>
<!-- Node2&#45;&gt;Node4 -->
<g id="edge3" class="edge">
<title>Node2&#45;&gt;Node4</title>
<path fill="none" stroke="midnightblue" d="M125.68,-56.4C121.03,-48.02 115.1,-37.33 110.16,-28.42"/>
<polygon fill="midnightblue" stroke="midnightblue" points="113.21,-26.71 105.3,-19.66 107.09,-30.1 113.21,-26.71"/>
</g>
<!-- Node5 -->
<g id="node5" class="node">
<title>Node5</title>
<g id="a_node5"><a xlink:title=" ">
<polygon fill="white" stroke="#bfbfbf" points="141.5,-0.5 141.5,-19.5 193.5,-19.5 193.5,-0.5 141.5,-0.5"/>
<text text-anchor="middle" x="167.5" y="-7.5" font-family="Helvetica" font-size="10.00">ostream</text>
</a>
</g>
</g>
<!-- Node2&#45;&gt;Node5 -->
<g id="edge4" class="edge">
<title>Node2&#45;&gt;Node5</title>
<path fill="none" stroke="midnightblue" d="M141.56,-56.4C146.35,-48.02 152.46,-37.33 157.54,-28.42"/>
<polygon fill="midnightblue" stroke="midnightblue" points="160.63,-30.08 162.55,-19.66 154.55,-26.6 160.63,-30.08"/>
</g>
<!-- Node6 -->
<g id="node6" class="node">
<title>Node6</title>
<g id="a_node6"><a xlink:title=" ">
<polygon fill="white" stroke="#bfbfbf" points="212,-0.5 212,-19.5 255,-19.5 255,-0.5 212,-0.5"/>
<text text-anchor="middle" x="233.5" y="-7.5" font-family="Helvetica" font-size="10.00">vector</text>
</a>
</g>
</g>
<!-- Node2&#45;&gt;Node6 -->
<g id="edge5" class="edge">
<title>Node2&#45;&gt;Node6</title>
<path fill="none" stroke="midnightblue" d="M157.2,-56.4C173.23,-46.86 194.3,-34.32 210.24,-24.84"/>
<polygon fill="midnightblue" stroke="midnightblue" points="212.14,-27.78 218.95,-19.66 208.57,-21.76 212.14,-27.78"/>
</g>
</g>
</svg>
