<?xml version="1.0" encoding="UTF-8" standalone="no"?>
<!DOCTYPE svg PUBLIC "-//W3C//DTD SVG 1.1//EN"
 "http://www.w3.org/Graphics/SVG/1.1/DTD/svg11.dtd">
<!-- Generated by graphviz version 2.44.0 (0)
 -->
<!-- Title: /home/ec2&#45;user/workspace/vsomeip/implementation/utility/include/byteorder.hpp Pages: 1 -->
<svg width="4957pt" height="139pt"
 viewBox="0.00 0.00 4956.50 139.00" xmlns="http://www.w3.org/2000/svg" xmlns:xlink="http://www.w3.org/1999/xlink">
<g id="graph0" class="graph" transform="scale(1 1) rotate(0) translate(4 135)">
<title>/home/ec2&#45;user/workspace/vsomeip/implementation/utility/include/byteorder.hpp</title>
<polygon fill="white" stroke="transparent" points="-4,4 -4,-135 4952.5,-135 4952.5,4 -4,4"/>
<!-- Node1 -->
<g id="node1" class="node">
<title>Node1</title>
<g id="a_node1"><a xlink:title=" ">
<polygon fill="#bfbfbf" stroke="black" points="2401,-89.5 2401,-130.5 2540,-130.5 2540,-89.5 2401,-89.5"/>
<text text-anchor="start" x="2409" y="-118.5" font-family="Helvetica" font-size="10.00">/home/ec2&#45;user/workspace</text>
<text text-anchor="start" x="2409" y="-107.5" font-family="Helvetica" font-size="10.00">/vsomeip/implementation</text>
<text text-anchor="middle" x="2470.5" y="-96.5" font-family="Helvetica" font-size="10.00">/utility/include/byteorder.hpp</text>
</a>
</g>
</g>
<!-- Node2 -->
<g id="node2" class="node">
<title>Node2</title>
<g id="a_node2"><a xlink:href="profile04_2checker_8cpp.html" target="_top" xlink:title=" ">
<polygon fill="white" stroke="black" points="0,-0.5 0,-52.5 141,-52.5 141,-0.5 0,-0.5"/>
<text text-anchor="start" x="8" y="-40.5" font-family="Helvetica" font-size="10.00">/home/ec2&#45;user/workspace</text>
<text text-anchor="start" x="8" y="-29.5" font-family="Helvetica" font-size="10.00">/vsomeip/implementation</text>
<text text-anchor="start" x="8" y="-18.5" font-family="Helvetica" font-size="10.00">/e2e_protection/src/e2e</text>
<text text-anchor="middle" x="70.5" y="-7.5" font-family="Helvetica" font-size="10.00">/profile/profile04/checker.cpp</text>
</a>
</g>
</g>
<!-- Node1&#45;&gt;Node2 -->
<g id="edge1" class="edge">
<title>Node1&#45;&gt;Node2</title>
<path fill="none" stroke="midnightblue" d="M2390.71,-108.42C2008.57,-105.45 374.81,-90.66 150.5,-53 147.48,-52.49 144.42,-51.9 141.34,-51.23"/>
<polygon fill="midnightblue" stroke="midnightblue" points="2390.82,-111.92 2400.84,-108.5 2390.87,-104.92 2390.82,-111.92"/>
</g>
<!-- Node3 -->
<g id="node3" class="node">
<title>Node3</title>
<g id="a_node3"><a xlink:href="profile04_2protector_8cpp.html" target="_top" xlink:title=" ">
<polygon fill="white" stroke="black" points="159.5,-0.5 159.5,-52.5 305.5,-52.5 305.5,-0.5 159.5,-0.5"/>
<text text-anchor="start" x="167.5" y="-40.5" font-family="Helvetica" font-size="10.00">/home/ec2&#45;user/workspace</text>
<text text-anchor="start" x="167.5" y="-29.5" font-family="Helvetica" font-size="10.00">/vsomeip/implementation</text>
<text text-anchor="start" x="167.5" y="-18.5" font-family="Helvetica" font-size="10.00">/e2e_protection/src/e2e</text>
<text text-anchor="middle" x="232.5" y="-7.5" font-family="Helvetica" font-size="10.00">/profile/profile04/protector.cpp</text>
</a>
</g>
</g>
<!-- Node1&#45;&gt;Node3 -->
<g id="edge2" class="edge">
<title>Node1&#45;&gt;Node3</title>
<path fill="none" stroke="midnightblue" d="M2390.77,-108.23C2025.64,-104.52 521.98,-87.28 314.5,-53 311.56,-52.51 308.58,-51.95 305.58,-51.32"/>
<polygon fill="midnightblue" stroke="midnightblue" points="2390.95,-111.73 2400.98,-108.33 2391.02,-104.73 2390.95,-111.73"/>
</g>
<!-- Node4 -->
<g id="node4" class="node">
<title>Node4</title>
<g id="a_node4"><a xlink:href="profile05_2checker_8cpp.html" target="_top" xlink:title=" ">
<polygon fill="white" stroke="black" points="324,-0.5 324,-52.5 465,-52.5 465,-0.5 324,-0.5"/>
<text text-anchor="start" x="332" y="-40.5" font-family="Helvetica" font-size="10.00">/home/ec2&#45;user/workspace</text>
<text text-anchor="start" x="332" y="-29.5" font-family="Helvetica" font-size="10.00">/vsomeip/implementation</text>
<text text-anchor="start" x="332" y="-18.5" font-family="Helvetica" font-size="10.00">/e2e_protection/src/e2e</text>
<text text-anchor="middle" x="394.5" y="-7.5" font-family="Helvetica" font-size="10.00">/profile/profile05/checker.cpp</text>
</a>
</g>
</g>
<!-- Node1&#45;&gt;Node4 -->
<g id="edge3" class="edge">
<title>Node1&#45;&gt;Node4</title>
<path fill="none" stroke="midnightblue" d="M2390.48,-108.08C2041.95,-103.89 665.29,-85.42 474.5,-53 471.48,-52.49 468.42,-51.89 465.34,-51.22"/>
<polygon fill="midnightblue" stroke="midnightblue" points="2390.69,-111.58 2400.73,-108.2 2390.78,-104.58 2390.69,-111.58"/>
</g>
<!-- Node5 -->
<g id="node5" class="node">
<title>Node5</title>
<g id="a_node5"><a xlink:href="profile05_2protector_8cpp.html" target="_top" xlink:title=" ">
<polygon fill="white" stroke="black" points="483.5,-0.5 483.5,-52.5 629.5,-52.5 629.5,-0.5 483.5,-0.5"/>
<text text-anchor="start" x="491.5" y="-40.5" font-family="Helvetica" font-size="10.00">/home/ec2&#45;user/workspace</text>
<text text-anchor="start" x="491.5" y="-29.5" font-family="Helvetica" font-size="10.00">/vsomeip/implementation</text>
<text text-anchor="start" x="491.5" y="-18.5" font-family="Helvetica" font-size="10.00">/e2e_protection/src/e2e</text>
<text text-anchor="middle" x="556.5" y="-7.5" font-family="Helvetica" font-size="10.00">/profile/profile05/protector.cpp</text>
</a>
</g>
</g>
<!-- Node1&#45;&gt;Node5 -->
<g id="edge4" class="edge">
<title>Node1&#45;&gt;Node5</title>
<path fill="none" stroke="midnightblue" d="M2390.43,-109.43C2083.62,-110.63 982.94,-110.72 638.5,-53 635.56,-52.51 632.58,-51.94 629.58,-51.3"/>
<polygon fill="midnightblue" stroke="midnightblue" points="2390.59,-112.93 2400.57,-109.39 2390.56,-105.93 2390.59,-112.93"/>
</g>
<!-- Node6 -->
<g id="node6" class="node">
<title>Node6</title>
<g id="a_node6"><a xlink:href="profile07_2checker_8cpp.html" target="_top" xlink:title=" ">
<polygon fill="white" stroke="black" points="648,-0.5 648,-52.5 789,-52.5 789,-0.5 648,-0.5"/>
<text text-anchor="start" x="656" y="-40.5" font-family="Helvetica" font-size="10.00">/home/ec2&#45;user/workspace</text>
<text text-anchor="start" x="656" y="-29.5" font-family="Helvetica" font-size="10.00">/vsomeip/implementation</text>
<text text-anchor="start" x="656" y="-18.5" font-family="Helvetica" font-size="10.00">/e2e_protection/src/e2e</text>
<text text-anchor="middle" x="718.5" y="-7.5" font-family="Helvetica" font-size="10.00">/profile/profile07/checker.cpp</text>
</a>
</g>
</g>
<!-- Node1&#45;&gt;Node6 -->
<g id="edge5" class="edge">
<title>Node1&#45;&gt;Node6</title>
<path fill="none" stroke="midnightblue" d="M2390.28,-109.23C2100.71,-109.6 1110.01,-106.8 798.5,-53 795.48,-52.48 792.42,-51.87 789.35,-51.2"/>
<polygon fill="midnightblue" stroke="midnightblue" points="2390.7,-112.73 2400.7,-109.21 2390.69,-105.73 2390.7,-112.73"/>
</g>
<!-- Node7 -->
<g id="node7" class="node">
<title>Node7</title>
<g id="a_node7"><a xlink:href="profile07_2protector_8cpp.html" target="_top" xlink:title=" ">
<polygon fill="white" stroke="black" points="807.5,-0.5 807.5,-52.5 953.5,-52.5 953.5,-0.5 807.5,-0.5"/>
<text text-anchor="start" x="815.5" y="-40.5" font-family="Helvetica" font-size="10.00">/home/ec2&#45;user/workspace</text>
<text text-anchor="start" x="815.5" y="-29.5" font-family="Helvetica" font-size="10.00">/vsomeip/implementation</text>
<text text-anchor="start" x="815.5" y="-18.5" font-family="Helvetica" font-size="10.00">/e2e_protection/src/e2e</text>
<text text-anchor="middle" x="880.5" y="-7.5" font-family="Helvetica" font-size="10.00">/profile/profile07/protector.cpp</text>
</a>
</g>
</g>
<!-- Node1&#45;&gt;Node7 -->
<g id="edge6" class="edge">
<title>Node1&#45;&gt;Node7</title>
<path fill="none" stroke="midnightblue" d="M2390.49,-108.81C2119.98,-107.74 1240.89,-100.59 962.5,-53 959.56,-52.5 956.58,-51.92 953.58,-51.28"/>
<polygon fill="midnightblue" stroke="midnightblue" points="2390.61,-112.31 2400.62,-108.85 2390.64,-105.31 2390.61,-112.31"/>
</g>
<!-- Node8 -->
<g id="node8" class="node">
<title>Node8</title>
<g id="a_node8"><a xlink:href="client__endpoint__impl_8cpp.html" target="_top" xlink:title=" ">
<polygon fill="white" stroke="black" points="971.5,-0.5 971.5,-52.5 1117.5,-52.5 1117.5,-0.5 971.5,-0.5"/>
<text text-anchor="start" x="979.5" y="-40.5" font-family="Helvetica" font-size="10.00">/home/ec2&#45;user/workspace</text>
<text text-anchor="start" x="979.5" y="-29.5" font-family="Helvetica" font-size="10.00">/vsomeip/implementation</text>
<text text-anchor="start" x="979.5" y="-18.5" font-family="Helvetica" font-size="10.00">/endpoints/src/client_endpoint</text>
<text text-anchor="middle" x="1044.5" y="-7.5" font-family="Helvetica" font-size="10.00">_impl.cpp</text>
</a>
</g>
</g>
<!-- Node1&#45;&gt;Node8 -->
<g id="edge7" class="edge">
<title>Node1&#45;&gt;Node8</title>
<path fill="none" stroke="midnightblue" d="M2390.82,-108.39C2140.47,-106.05 1371.76,-95.5 1126.5,-53 1123.56,-52.49 1120.58,-51.91 1117.59,-51.26"/>
<polygon fill="midnightblue" stroke="midnightblue" points="2390.9,-111.89 2400.93,-108.48 2390.97,-104.89 2390.9,-111.89"/>
</g>
<!-- Node9 -->
<g id="node9" class="node">
<title>Node9</title>
<g id="a_node9"><a xlink:href="endpoint__manager__impl_8cpp.html" target="_top" xlink:title=" ">
<polygon fill="white" stroke="black" points="1135.5,-0.5 1135.5,-52.5 1269.5,-52.5 1269.5,-0.5 1135.5,-0.5"/>
<text text-anchor="start" x="1143.5" y="-40.5" font-family="Helvetica" font-size="10.00">/home/ec2&#45;user/workspace</text>
<text text-anchor="start" x="1143.5" y="-29.5" font-family="Helvetica" font-size="10.00">/vsomeip/implementation</text>
<text text-anchor="start" x="1143.5" y="-18.5" font-family="Helvetica" font-size="10.00">/endpoints/src/endpoint</text>
<text text-anchor="middle" x="1202.5" y="-7.5" font-family="Helvetica" font-size="10.00">_manager_impl.cpp</text>
</a>
</g>
</g>
<!-- Node1&#45;&gt;Node9 -->
<g id="edge8" class="edge">
<title>Node1&#45;&gt;Node9</title>
<path fill="none" stroke="midnightblue" d="M2390.81,-108.12C2159.81,-105.13 1492.69,-93.16 1278.5,-53 1275.63,-52.46 1272.71,-51.84 1269.79,-51.15"/>
<polygon fill="midnightblue" stroke="midnightblue" points="2390.78,-111.62 2400.82,-108.25 2390.87,-104.62 2390.78,-111.62"/>
</g>
<!-- Node10 -->
<g id="node10" class="node">
<title>Node10</title>
<g id="a_node10"><a xlink:href="local__tcp__server__endpoint__impl_8cpp.html" target="_top" xlink:title=" ">
<polygon fill="white" stroke="black" points="1287.5,-0.5 1287.5,-52.5 1421.5,-52.5 1421.5,-0.5 1287.5,-0.5"/>
<text text-anchor="start" x="1295.5" y="-40.5" font-family="Helvetica" font-size="10.00">/home/ec2&#45;user/workspace</text>
<text text-anchor="start" x="1295.5" y="-29.5" font-family="Helvetica" font-size="10.00">/vsomeip/implementation</text>
<text text-anchor="start" x="1295.5" y="-18.5" font-family="Helvetica" font-size="10.00">/endpoints/src/local_tcp</text>
<text text-anchor="middle" x="1354.5" y="-7.5" font-family="Helvetica" font-size="10.00">_server_endpoint_impl.cpp</text>
</a>
</g>
</g>
<!-- Node1&#45;&gt;Node10 -->
<g id="edge9" class="edge">
<title>Node1&#45;&gt;Node10</title>
<path fill="none" stroke="midnightblue" d="M2390.94,-107.49C2180.76,-103.05 1614.31,-88.11 1430.5,-53 1427.63,-52.45 1424.72,-51.82 1421.79,-51.13"/>
<polygon fill="midnightblue" stroke="midnightblue" points="2390.9,-110.99 2400.98,-107.7 2391.05,-103.99 2390.9,-110.99"/>
</g>
<!-- Node11 -->
<g id="node11" class="node">
<title>Node11</title>
<g id="a_node11"><a xlink:href="local__uds__server__endpoint__impl_8cpp.html" target="_top" xlink:title=" ">
<polygon fill="white" stroke="black" points="1439.5,-0.5 1439.5,-52.5 1573.5,-52.5 1573.5,-0.5 1439.5,-0.5"/>
<text text-anchor="start" x="1447.5" y="-40.5" font-family="Helvetica" font-size="10.00">/home/ec2&#45;user/workspace</text>
<text text-anchor="start" x="1447.5" y="-29.5" font-family="Helvetica" font-size="10.00">/vsomeip/implementation</text>
<text text-anchor="start" x="1447.5" y="-18.5" font-family="Helvetica" font-size="10.00">/endpoints/src/local_uds</text>
<text text-anchor="middle" x="1506.5" y="-7.5" font-family="Helvetica" font-size="10.00">_server_endpoint_impl.cpp</text>
</a>
</g>
</g>
<!-- Node1&#45;&gt;Node11 -->
<g id="edge10" class="edge">
<title>Node1&#45;&gt;Node11</title>
<path fill="none" stroke="midnightblue" d="M2390.88,-106.64C2202.96,-100.63 1736.1,-83.07 1582.5,-53 1579.63,-52.44 1576.72,-51.8 1573.8,-51.09"/>
<polygon fill="midnightblue" stroke="midnightblue" points="2390.86,-110.14 2400.97,-106.96 2391.08,-103.14 2390.86,-110.14"/>
</g>
<!-- Node12 -->
<g id="node12" class="node">
<title>Node12</title>
<g id="a_node12"><a xlink:href="server__endpoint__impl_8cpp.html" target="_top" xlink:title=" ">
<polygon fill="white" stroke="black" points="1591.5,-0.5 1591.5,-52.5 1741.5,-52.5 1741.5,-0.5 1591.5,-0.5"/>
<text text-anchor="start" x="1599.5" y="-40.5" font-family="Helvetica" font-size="10.00">/home/ec2&#45;user/workspace</text>
<text text-anchor="start" x="1599.5" y="-29.5" font-family="Helvetica" font-size="10.00">/vsomeip/implementation</text>
<text text-anchor="start" x="1599.5" y="-18.5" font-family="Helvetica" font-size="10.00">/endpoints/src/server_endpoint</text>
<text text-anchor="middle" x="1666.5" y="-7.5" font-family="Helvetica" font-size="10.00">_impl.cpp</text>
</a>
</g>
</g>
<!-- Node1&#45;&gt;Node12 -->
<g id="edge11" class="edge">
<title>Node1&#45;&gt;Node12</title>
<path fill="none" stroke="midnightblue" d="M2390.69,-108.43C2257.08,-106.21 1980.16,-96.26 1750.5,-53 1747.65,-52.46 1744.77,-51.87 1741.86,-51.22"/>
<polygon fill="midnightblue" stroke="midnightblue" points="2390.79,-111.93 2400.84,-108.58 2390.9,-104.93 2390.79,-111.93"/>
</g>
<!-- Node13 -->
<g id="node13" class="node">
<title>Node13</title>
<g id="a_node13"><a xlink:href="tcp__client__endpoint__impl_8cpp.html" target="_top" xlink:title=" ">
<polygon fill="white" stroke="black" points="1759.5,-0.5 1759.5,-52.5 1893.5,-52.5 1893.5,-0.5 1759.5,-0.5"/>
<text text-anchor="start" x="1767.5" y="-40.5" font-family="Helvetica" font-size="10.00">/home/ec2&#45;user/workspace</text>
<text text-anchor="start" x="1767.5" y="-29.5" font-family="Helvetica" font-size="10.00">/vsomeip/implementation</text>
<text text-anchor="start" x="1767.5" y="-18.5" font-family="Helvetica" font-size="10.00">/endpoints/src/tcp_client</text>
<text text-anchor="middle" x="1826.5" y="-7.5" font-family="Helvetica" font-size="10.00">_endpoint_impl.cpp</text>
</a>
</g>
</g>
<!-- Node1&#45;&gt;Node13 -->
<g id="edge12" class="edge">
<title>Node1&#45;&gt;Node13</title>
<path fill="none" stroke="midnightblue" d="M2390.56,-106.79C2279.82,-102.44 2073.97,-89.73 1902.5,-53 1899.64,-52.39 1896.74,-51.7 1893.83,-50.97"/>
<polygon fill="midnightblue" stroke="midnightblue" points="2390.52,-110.29 2400.65,-107.17 2390.79,-103.29 2390.52,-110.29"/>
</g>
<!-- Node14 -->
<g id="node14" class="node">
<title>Node14</title>
<g id="a_node14"><a xlink:href="tcp__server__endpoint__impl_8cpp.html" target="_top" xlink:title=" ">
<polygon fill="white" stroke="black" points="1911.5,-0.5 1911.5,-52.5 2045.5,-52.5 2045.5,-0.5 1911.5,-0.5"/>
<text text-anchor="start" x="1919.5" y="-40.5" font-family="Helvetica" font-size="10.00">/home/ec2&#45;user/workspace</text>
<text text-anchor="start" x="1919.5" y="-29.5" font-family="Helvetica" font-size="10.00">/vsomeip/implementation</text>
<text text-anchor="start" x="1919.5" y="-18.5" font-family="Helvetica" font-size="10.00">/endpoints/src/tcp_server</text>
<text text-anchor="middle" x="1978.5" y="-7.5" font-family="Helvetica" font-size="10.00">_endpoint_impl.cpp</text>
</a>
</g>
</g>
<!-- Node1&#45;&gt;Node14 -->
<g id="edge13" class="edge">
<title>Node1&#45;&gt;Node14</title>
<path fill="none" stroke="midnightblue" d="M2390.93,-102.81C2306.6,-95.21 2169.93,-79.88 2054.5,-53 2051.65,-52.34 2048.76,-51.61 2045.85,-50.84"/>
<polygon fill="midnightblue" stroke="midnightblue" points="2390.68,-106.3 2400.95,-103.7 2391.3,-99.33 2390.68,-106.3"/>
</g>
<!-- Node15 -->
<g id="node15" class="node">
<title>Node15</title>
<g id="a_node15"><a xlink:href="tp_8cpp.html" target="_top" xlink:title=" ">
<polygon fill="white" stroke="black" points="2063.5,-6 2063.5,-47 2197.5,-47 2197.5,-6 2063.5,-6"/>
<text text-anchor="start" x="2071.5" y="-35" font-family="Helvetica" font-size="10.00">/home/ec2&#45;user/workspace</text>
<text text-anchor="start" x="2071.5" y="-24" font-family="Helvetica" font-size="10.00">/vsomeip/implementation</text>
<text text-anchor="middle" x="2130.5" y="-13" font-family="Helvetica" font-size="10.00">/endpoints/src/tp.cpp</text>
</a>
</g>
</g>
<!-- Node1&#45;&gt;Node15 -->
<g id="edge14" class="edge">
<title>Node1&#45;&gt;Node15</title>
<path fill="none" stroke="midnightblue" d="M2390.82,-94.57C2338.14,-84.42 2267.75,-69.71 2206.5,-53 2199.92,-51.2 2193.08,-49.16 2186.31,-47.03"/>
<polygon fill="midnightblue" stroke="midnightblue" points="2390.3,-98.03 2400.77,-96.47 2391.61,-91.16 2390.3,-98.03"/>
</g>
<!-- Node16 -->
<g id="node16" class="node">
<title>Node16</title>
<g id="a_node16"><a xlink:href="tp__message_8cpp.html" target="_top" xlink:title=" ">
<polygon fill="white" stroke="black" points="2216,-6 2216,-47 2369,-47 2369,-6 2216,-6"/>
<text text-anchor="start" x="2224" y="-35" font-family="Helvetica" font-size="10.00">/home/ec2&#45;user/workspace</text>
<text text-anchor="start" x="2224" y="-24" font-family="Helvetica" font-size="10.00">/vsomeip/implementation</text>
<text text-anchor="middle" x="2292.5" y="-13" font-family="Helvetica" font-size="10.00">/endpoints/src/tp_message.cpp</text>
</a>
</g>
</g>
<!-- Node1&#45;&gt;Node16 -->
<g id="edge15" class="edge">
<title>Node1&#45;&gt;Node16</title>
<path fill="none" stroke="midnightblue" d="M2418.72,-85.29C2392.16,-73.13 2360.21,-58.5 2335.1,-47"/>
<polygon fill="midnightblue" stroke="midnightblue" points="2417.32,-88.5 2427.86,-89.48 2420.23,-82.13 2417.32,-88.5"/>
</g>
<!-- Node17 -->
<g id="node17" class="node">
<title>Node17</title>
<g id="a_node17"><a xlink:href="tp__reassembler_8cpp.html" target="_top" xlink:title=" ">
<polygon fill="white" stroke="black" points="2387,-6 2387,-47 2554,-47 2554,-6 2387,-6"/>
<text text-anchor="start" x="2395" y="-35" font-family="Helvetica" font-size="10.00">/home/ec2&#45;user/workspace</text>
<text text-anchor="start" x="2395" y="-24" font-family="Helvetica" font-size="10.00">/vsomeip/implementation</text>
<text text-anchor="middle" x="2470.5" y="-13" font-family="Helvetica" font-size="10.00">/endpoints/src/tp_reassembler.cpp</text>
</a>
</g>
</g>
<!-- Node1&#45;&gt;Node17 -->
<g id="edge16" class="edge">
<title>Node1&#45;&gt;Node17</title>
<path fill="none" stroke="midnightblue" d="M2470.5,-79.06C2470.5,-68.38 2470.5,-56.63 2470.5,-47.05"/>
<polygon fill="midnightblue" stroke="midnightblue" points="2467,-79.27 2470.5,-89.27 2474,-79.27 2467,-79.27"/>
</g>
<!-- Node18 -->
<g id="node18" class="node">
<title>Node18</title>
<g id="a_node18"><a xlink:href="udp__client__endpoint__impl_8cpp.html" target="_top" xlink:title=" ">
<polygon fill="white" stroke="black" points="2572.5,-0.5 2572.5,-52.5 2706.5,-52.5 2706.5,-0.5 2572.5,-0.5"/>
<text text-anchor="start" x="2580.5" y="-40.5" font-family="Helvetica" font-size="10.00">/home/ec2&#45;user/workspace</text>
<text text-anchor="start" x="2580.5" y="-29.5" font-family="Helvetica" font-size="10.00">/vsomeip/implementation</text>
<text text-anchor="start" x="2580.5" y="-18.5" font-family="Helvetica" font-size="10.00">/endpoints/src/udp_client</text>
<text text-anchor="middle" x="2639.5" y="-7.5" font-family="Helvetica" font-size="10.00">_endpoint_impl.cpp</text>
</a>
</g>
</g>
<!-- Node1&#45;&gt;Node18 -->
<g id="edge17" class="edge">
<title>Node1&#45;&gt;Node18</title>
<path fill="none" stroke="midnightblue" d="M2520.13,-85.07C2541.32,-74.85 2566.06,-62.92 2587.5,-52.58"/>
<polygon fill="midnightblue" stroke="midnightblue" points="2518.47,-81.98 2510.98,-89.48 2521.51,-88.29 2518.47,-81.98"/>
</g>
<!-- Node19 -->
<g id="node19" class="node">
<title>Node19</title>
<g id="a_node19"><a xlink:href="udp__server__endpoint__impl_8cpp.html" target="_top" xlink:title=" ">
<polygon fill="white" stroke="black" points="2724.5,-0.5 2724.5,-52.5 2858.5,-52.5 2858.5,-0.5 2724.5,-0.5"/>
<text text-anchor="start" x="2732.5" y="-40.5" font-family="Helvetica" font-size="10.00">/home/ec2&#45;user/workspace</text>
<text text-anchor="start" x="2732.5" y="-29.5" font-family="Helvetica" font-size="10.00">/vsomeip/implementation</text>
<text text-anchor="start" x="2732.5" y="-18.5" font-family="Helvetica" font-size="10.00">/endpoints/src/udp_server</text>
<text text-anchor="middle" x="2791.5" y="-7.5" font-family="Helvetica" font-size="10.00">_endpoint_impl.cpp</text>
</a>
</g>
</g>
<!-- Node1&#45;&gt;Node19 -->
<g id="edge18" class="edge">
<title>Node1&#45;&gt;Node19</title>
<path fill="none" stroke="midnightblue" d="M2550.19,-92.87C2598.35,-82.61 2660.8,-68.39 2715.5,-53 2718.45,-52.17 2721.45,-51.3 2724.48,-50.39"/>
<polygon fill="midnightblue" stroke="midnightblue" points="2549.19,-89.51 2540.13,-95 2550.64,-96.36 2549.19,-89.51"/>
</g>
<!-- Node20 -->
<g id="node20" class="node">
<title>Node20</title>
<g id="a_node20"><a xlink:href="message_2src_2deserializer_8cpp.html" target="_top" xlink:title=" ">
<polygon fill="white" stroke="black" points="2876.5,-6 2876.5,-47 3022.5,-47 3022.5,-6 2876.5,-6"/>
<text text-anchor="start" x="2884.5" y="-35" font-family="Helvetica" font-size="10.00">/home/ec2&#45;user/workspace</text>
<text text-anchor="start" x="2884.5" y="-24" font-family="Helvetica" font-size="10.00">/vsomeip/implementation</text>
<text text-anchor="middle" x="2949.5" y="-13" font-family="Helvetica" font-size="10.00">/message/src/deserializer.cpp</text>
</a>
</g>
</g>
<!-- Node1&#45;&gt;Node20 -->
<g id="edge19" class="edge">
<title>Node1&#45;&gt;Node20</title>
<path fill="none" stroke="midnightblue" d="M2550.41,-101.56C2631.07,-93.15 2758.9,-77.38 2867.5,-53 2875.06,-51.3 2882.94,-49.24 2890.69,-47.04"/>
<polygon fill="midnightblue" stroke="midnightblue" points="2549.91,-98.09 2540.32,-102.6 2550.63,-105.05 2549.91,-98.09"/>
</g>
<!-- Node21 -->
<g id="node21" class="node">
<title>Node21</title>
<g id="a_node21"><a xlink:href="message_2src_2message__base__impl_8cpp.html" target="_top" xlink:title=" ">
<polygon fill="white" stroke="black" points="3041,-0.5 3041,-52.5 3186,-52.5 3186,-0.5 3041,-0.5"/>
<text text-anchor="start" x="3049" y="-40.5" font-family="Helvetica" font-size="10.00">/home/ec2&#45;user/workspace</text>
<text text-anchor="start" x="3049" y="-29.5" font-family="Helvetica" font-size="10.00">/vsomeip/implementation</text>
<text text-anchor="start" x="3049" y="-18.5" font-family="Helvetica" font-size="10.00">/message/src/message_base</text>
<text text-anchor="middle" x="3113.5" y="-7.5" font-family="Helvetica" font-size="10.00">_impl.cpp</text>
</a>
</g>
</g>
<!-- Node1&#45;&gt;Node21 -->
<g id="edge20" class="edge">
<title>Node1&#45;&gt;Node21</title>
<path fill="none" stroke="midnightblue" d="M2550.57,-106.09C2660.11,-100.96 2862.38,-87.37 3031.5,-53 3034.57,-52.38 3037.68,-51.68 3040.82,-50.94"/>
<polygon fill="midnightblue" stroke="midnightblue" points="2550.1,-102.61 2540.27,-106.56 2550.42,-109.6 2550.1,-102.61"/>
</g>
<!-- Node22 -->
<g id="node22" class="node">
<title>Node22</title>
<g id="a_node22"><a xlink:href="message_2src_2message__impl_8cpp.html" target="_top" xlink:title=" ">
<polygon fill="white" stroke="black" points="3204,-6 3204,-47 3365,-47 3365,-6 3204,-6"/>
<text text-anchor="start" x="3212" y="-35" font-family="Helvetica" font-size="10.00">/home/ec2&#45;user/workspace</text>
<text text-anchor="start" x="3212" y="-24" font-family="Helvetica" font-size="10.00">/vsomeip/implementation</text>
<text text-anchor="middle" x="3284.5" y="-13" font-family="Helvetica" font-size="10.00">/message/src/message_impl.cpp</text>
</a>
</g>
</g>
<!-- Node1&#45;&gt;Node22 -->
<g id="edge21" class="edge">
<title>Node1&#45;&gt;Node22</title>
<path fill="none" stroke="midnightblue" d="M2550.26,-108.09C2684.49,-105.38 2963.61,-94.73 3195.5,-53 3204.2,-51.43 3213.27,-49.36 3222.15,-47.08"/>
<polygon fill="midnightblue" stroke="midnightblue" points="2550,-104.59 2540.07,-108.28 2550.13,-111.59 2550,-104.59"/>
</g>
<!-- Node23 -->
<g id="node23" class="node">
<title>Node23</title>
<g id="a_node23"><a xlink:href="serializer_8cpp.html" target="_top" xlink:title=" ">
<polygon fill="white" stroke="black" points="3383.5,-6 3383.5,-47 3519.5,-47 3519.5,-6 3383.5,-6"/>
<text text-anchor="start" x="3391.5" y="-35" font-family="Helvetica" font-size="10.00">/home/ec2&#45;user/workspace</text>
<text text-anchor="start" x="3391.5" y="-24" font-family="Helvetica" font-size="10.00">/vsomeip/implementation</text>
<text text-anchor="middle" x="3451.5" y="-13" font-family="Helvetica" font-size="10.00">/message/src/serializer.cpp</text>
</a>
</g>
</g>
<!-- Node1&#45;&gt;Node23 -->
<g id="edge22" class="edge">
<title>Node1&#45;&gt;Node23</title>
<path fill="none" stroke="midnightblue" d="M2550.51,-106.69C2741.11,-100.75 3217.78,-83.28 3374.5,-53 3382.38,-51.48 3390.57,-49.37 3398.54,-47.01"/>
<polygon fill="midnightblue" stroke="midnightblue" points="2550.17,-103.2 2540.28,-107 2550.38,-110.19 2550.17,-103.2"/>
</g>
<!-- Node24 -->
<g id="node24" class="node">
<title>Node24</title>
<g id="a_node24"><a xlink:href="routing__manager__base_8cpp.html" target="_top" xlink:title=" ">
<polygon fill="white" stroke="black" points="3537.5,-0.5 3537.5,-52.5 3677.5,-52.5 3677.5,-0.5 3537.5,-0.5"/>
<text text-anchor="start" x="3545.5" y="-40.5" font-family="Helvetica" font-size="10.00">/home/ec2&#45;user/workspace</text>
<text text-anchor="start" x="3545.5" y="-29.5" font-family="Helvetica" font-size="10.00">/vsomeip/implementation</text>
<text text-anchor="start" x="3545.5" y="-18.5" font-family="Helvetica" font-size="10.00">/routing/src/routing_manager</text>
<text text-anchor="middle" x="3607.5" y="-7.5" font-family="Helvetica" font-size="10.00">_base.cpp</text>
</a>
</g>
</g>
<!-- Node1&#45;&gt;Node24 -->
<g id="edge23" class="edge">
<title>Node1&#45;&gt;Node24</title>
<path fill="none" stroke="midnightblue" d="M2550.28,-107.45C2763.11,-102.9 3340.97,-87.62 3528.5,-53 3531.33,-52.48 3534.21,-51.88 3537.1,-51.22"/>
<polygon fill="midnightblue" stroke="midnightblue" points="2550.04,-103.96 2540.12,-107.67 2550.19,-110.96 2550.04,-103.96"/>
</g>
<!-- Node25 -->
<g id="node25" class="node">
<title>Node25</title>
<g id="a_node25"><a xlink:href="routing__manager__client_8cpp.html" target="_top" xlink:title=" ">
<polygon fill="white" stroke="black" points="3695.5,-0.5 3695.5,-52.5 3835.5,-52.5 3835.5,-0.5 3695.5,-0.5"/>
<text text-anchor="start" x="3703.5" y="-40.5" font-family="Helvetica" font-size="10.00">/home/ec2&#45;user/workspace</text>
<text text-anchor="start" x="3703.5" y="-29.5" font-family="Helvetica" font-size="10.00">/vsomeip/implementation</text>
<text text-anchor="start" x="3703.5" y="-18.5" font-family="Helvetica" font-size="10.00">/routing/src/routing_manager</text>
<text text-anchor="middle" x="3765.5" y="-7.5" font-family="Helvetica" font-size="10.00">_client.cpp</text>
</a>
</g>
</g>
<!-- Node1&#45;&gt;Node25 -->
<g id="edge24" class="edge">
<title>Node1&#45;&gt;Node25</title>
<path fill="none" stroke="midnightblue" d="M2550.53,-108.09C2784.97,-104.98 3467.38,-92.68 3686.5,-53 3689.34,-52.49 3692.21,-51.9 3695.1,-51.25"/>
<polygon fill="midnightblue" stroke="midnightblue" points="2550.33,-104.59 2540.38,-108.22 2550.42,-111.59 2550.33,-104.59"/>
</g>
<!-- Node26 -->
<g id="node26" class="node">
<title>Node26</title>
<g id="a_node26"><a xlink:href="routing__manager__impl_8cpp.html" target="_top" xlink:title=" ">
<polygon fill="white" stroke="black" points="3853.5,-0.5 3853.5,-52.5 3993.5,-52.5 3993.5,-0.5 3853.5,-0.5"/>
<text text-anchor="start" x="3861.5" y="-40.5" font-family="Helvetica" font-size="10.00">/home/ec2&#45;user/workspace</text>
<text text-anchor="start" x="3861.5" y="-29.5" font-family="Helvetica" font-size="10.00">/vsomeip/implementation</text>
<text text-anchor="start" x="3861.5" y="-18.5" font-family="Helvetica" font-size="10.00">/routing/src/routing_manager</text>
<text text-anchor="middle" x="3923.5" y="-7.5" font-family="Helvetica" font-size="10.00">_impl.cpp</text>
</a>
</g>
</g>
<!-- Node1&#45;&gt;Node26 -->
<g id="edge25" class="edge">
<title>Node1&#45;&gt;Node26</title>
<path fill="none" stroke="midnightblue" d="M2550.65,-108.58C2805.24,-106.81 3593.56,-97.75 3844.5,-53 3847.34,-52.49 3850.21,-51.91 3853.11,-51.27"/>
<polygon fill="midnightblue" stroke="midnightblue" points="2550.34,-105.08 2540.37,-108.65 2550.39,-112.08 2550.34,-105.08"/>
</g>
<!-- Node27 -->
<g id="node27" class="node">
<title>Node27</title>
<g id="a_node27"><a xlink:href="routing__manager__stub_8cpp.html" target="_top" xlink:title=" ">
<polygon fill="white" stroke="black" points="4011.5,-0.5 4011.5,-52.5 4151.5,-52.5 4151.5,-0.5 4011.5,-0.5"/>
<text text-anchor="start" x="4019.5" y="-40.5" font-family="Helvetica" font-size="10.00">/home/ec2&#45;user/workspace</text>
<text text-anchor="start" x="4019.5" y="-29.5" font-family="Helvetica" font-size="10.00">/vsomeip/implementation</text>
<text text-anchor="start" x="4019.5" y="-18.5" font-family="Helvetica" font-size="10.00">/routing/src/routing_manager</text>
<text text-anchor="middle" x="4081.5" y="-7.5" font-family="Helvetica" font-size="10.00">_stub.cpp</text>
</a>
</g>
</g>
<!-- Node1&#45;&gt;Node27 -->
<g id="edge26" class="edge">
<title>Node1&#45;&gt;Node27</title>
<path fill="none" stroke="midnightblue" d="M2550.39,-108.98C2823.61,-108.45 3719.45,-102.86 4002.5,-53 4005.34,-52.5 4008.22,-51.92 4011.11,-51.28"/>
<polygon fill="midnightblue" stroke="midnightblue" points="2550.15,-105.48 2540.16,-109 2550.17,-112.48 2550.15,-105.48"/>
</g>
<!-- Node28 -->
<g id="node28" class="node">
<title>Node28</title>
<g id="a_node28"><a xlink:href="policy_8cpp.html" target="_top" xlink:title=" ">
<polygon fill="white" stroke="black" points="4169.5,-6 4169.5,-47 4303.5,-47 4303.5,-6 4169.5,-6"/>
<text text-anchor="start" x="4177.5" y="-35" font-family="Helvetica" font-size="10.00">/home/ec2&#45;user/workspace</text>
<text text-anchor="start" x="4177.5" y="-24" font-family="Helvetica" font-size="10.00">/vsomeip/implementation</text>
<text text-anchor="middle" x="4236.5" y="-13" font-family="Helvetica" font-size="10.00">/security/src/policy.cpp</text>
</a>
</g>
</g>
<!-- Node1&#45;&gt;Node28 -->
<g id="edge27" class="edge">
<title>Node1&#45;&gt;Node28</title>
<path fill="none" stroke="midnightblue" d="M2550.18,-109.42C2841.13,-110.47 3845.54,-109.8 4160.5,-53 4168.44,-51.57 4176.69,-49.47 4184.69,-47.1"/>
<polygon fill="midnightblue" stroke="midnightblue" points="2550.15,-105.92 2540.14,-109.38 2550.12,-112.92 2550.15,-105.92"/>
</g>
<!-- Node29 -->
<g id="node29" class="node">
<title>Node29</title>
<g id="a_node29"><a xlink:href="service__discovery__impl_8cpp.html" target="_top" xlink:title=" ">
<polygon fill="white" stroke="black" points="4322,-0.5 4322,-52.5 4473,-52.5 4473,-0.5 4322,-0.5"/>
<text text-anchor="start" x="4330" y="-40.5" font-family="Helvetica" font-size="10.00">/home/ec2&#45;user/workspace</text>
<text text-anchor="start" x="4330" y="-29.5" font-family="Helvetica" font-size="10.00">/vsomeip/implementation</text>
<text text-anchor="start" x="4330" y="-18.5" font-family="Helvetica" font-size="10.00">/service_discovery/src/service</text>
<text text-anchor="middle" x="4397.5" y="-7.5" font-family="Helvetica" font-size="10.00">_discovery_impl.cpp</text>
</a>
</g>
</g>
<!-- Node1&#45;&gt;Node29 -->
<g id="edge28" class="edge">
<title>Node1&#45;&gt;Node29</title>
<path fill="none" stroke="midnightblue" d="M2550.47,-109.34C2858.16,-110.21 3965.7,-109.3 4312.5,-53 4315.54,-52.51 4318.63,-51.93 4321.73,-51.3"/>
<polygon fill="midnightblue" stroke="midnightblue" points="2550.31,-105.84 2540.3,-109.31 2550.29,-112.84 2550.31,-105.84"/>
</g>
<!-- Node30 -->
<g id="node30" class="node">
<title>Node30</title>
<g id="a_node30"><a xlink:href="connector__impl_8cpp.html" target="_top" xlink:title=" ">
<polygon fill="white" stroke="black" points="4491,-6 4491,-47 4644,-47 4644,-6 4491,-6"/>
<text text-anchor="start" x="4499" y="-35" font-family="Helvetica" font-size="10.00">/home/ec2&#45;user/workspace</text>
<text text-anchor="start" x="4499" y="-24" font-family="Helvetica" font-size="10.00">/vsomeip/implementation</text>
<text text-anchor="middle" x="4567.5" y="-13" font-family="Helvetica" font-size="10.00">/tracing/src/connector_impl.cpp</text>
</a>
</g>
</g>
<!-- Node1&#45;&gt;Node30 -->
<g id="edge29" class="edge">
<title>Node1&#45;&gt;Node30</title>
<path fill="none" stroke="midnightblue" d="M2550.31,-108.02C2900.19,-103.56 4289.75,-84.04 4482.5,-53 4491.32,-51.58 4500.51,-49.49 4509.44,-47.12"/>
<polygon fill="midnightblue" stroke="midnightblue" points="2550.21,-104.52 2540.26,-108.15 2550.3,-111.52 2550.21,-104.52"/>
</g>
<!-- Node31 -->
<g id="node31" class="node">
<title>Node31</title>
<g id="a_node31"><a xlink:href="header_8cpp.html" target="_top" xlink:title=" ">
<polygon fill="white" stroke="black" points="4662.5,-6 4662.5,-47 4796.5,-47 4796.5,-6 4662.5,-6"/>
<text text-anchor="start" x="4670.5" y="-35" font-family="Helvetica" font-size="10.00">/home/ec2&#45;user/workspace</text>
<text text-anchor="start" x="4670.5" y="-24" font-family="Helvetica" font-size="10.00">/vsomeip/implementation</text>
<text text-anchor="middle" x="4729.5" y="-13" font-family="Helvetica" font-size="10.00">/tracing/src/header.cpp</text>
</a>
</g>
</g>
<!-- Node1&#45;&gt;Node31 -->
<g id="edge30" class="edge">
<title>Node1&#45;&gt;Node31</title>
<path fill="none" stroke="midnightblue" d="M2550.06,-108.36C2917.76,-105.22 4443.59,-90.05 4653.5,-53 4661.59,-51.57 4669.98,-49.45 4678.12,-47.03"/>
<polygon fill="midnightblue" stroke="midnightblue" points="2550.01,-104.86 2540.04,-108.45 2550.07,-111.86 2550.01,-104.86"/>
</g>
<!-- Node32 -->
<g id="node32" class="node">
<title>Node32</title>
<g id="a_node32"><a xlink:href="utility_8cpp.html" target="_top" xlink:title=" ">
<polygon fill="white" stroke="black" points="4814.5,-6 4814.5,-47 4948.5,-47 4948.5,-6 4814.5,-6"/>
<text text-anchor="start" x="4822.5" y="-35" font-family="Helvetica" font-size="10.00">/home/ec2&#45;user/workspace</text>
<text text-anchor="start" x="4822.5" y="-24" font-family="Helvetica" font-size="10.00">/vsomeip/implementation</text>
<text text-anchor="middle" x="4881.5" y="-13" font-family="Helvetica" font-size="10.00">/utility/src/utility.cpp</text>
</a>
</g>
</g>
<!-- Node1&#45;&gt;Node32 -->
<g id="edge31" class="edge">
<title>Node1&#45;&gt;Node32</title>
<path fill="none" stroke="midnightblue" d="M2550.19,-108.5C2933.68,-105.93 4579.91,-92.62 4805.5,-53 4813.59,-51.58 4821.98,-49.46 4830.12,-47.04"/>
<polygon fill="midnightblue" stroke="midnightblue" points="2550,-105 2540.02,-108.57 2550.04,-112 2550,-105"/>
</g>
</g>
</svg>
