<?xml version="1.0" encoding="UTF-8" standalone="no"?>
<!DOCTYPE svg PUBLIC "-//W3C//DTD SVG 1.1//EN"
 "http://www.w3.org/Graphics/SVG/1.1/DTD/svg11.dtd">
<!-- Generated by graphviz version 2.44.0 (0)
 -->
<!-- Title: /home/ec2&#45;user/workspace/vsomeip/implementation/tracing/src/channel_impl.cpp Pages: 1 -->
<svg width="1024pt" height="173pt"
 viewBox="0.00 0.00 1024.00 173.00" xmlns="http://www.w3.org/2000/svg" xmlns:xlink="http://www.w3.org/1999/xlink">
<g id="graph0" class="graph" transform="scale(1 1) rotate(0) translate(4 169)">
<title>/home/ec2&#45;user/workspace/vsomeip/implementation/tracing/src/channel_impl.cpp</title>
<polygon fill="white" stroke="transparent" points="-4,4 -4,-169 1020,-169 1020,4 -4,4"/>
<!-- Node1 -->
<g id="node1" class="node">
<title>Node1</title>
<g id="a_node1"><a xlink:title=" ">
<polygon fill="#bfbfbf" stroke="black" points="363,-123.5 363,-164.5 507,-164.5 507,-123.5 363,-123.5"/>
<text text-anchor="start" x="371" y="-152.5" font-family="Helvetica" font-size="10.00">/home/ec2&#45;user/workspace</text>
<text text-anchor="start" x="371" y="-141.5" font-family="Helvetica" font-size="10.00">/vsomeip/implementation</text>
<text text-anchor="middle" x="435" y="-130.5" font-family="Helvetica" font-size="10.00">/tracing/src/channel_impl.cpp</text>
</a>
</g>
</g>
<!-- Node2 -->
<g id="node2" class="node">
<title>Node2</title>
<g id="a_node2"><a xlink:href="channel__impl_8hpp.html" target="_top" xlink:title=" ">
<polygon fill="white" stroke="black" points="217.5,-56.5 217.5,-86.5 310.5,-86.5 310.5,-56.5 217.5,-56.5"/>
<text text-anchor="start" x="225.5" y="-74.5" font-family="Helvetica" font-size="10.00">../include/channel</text>
<text text-anchor="middle" x="264" y="-63.5" font-family="Helvetica" font-size="10.00">_impl.hpp</text>
</a>
</g>
</g>
<!-- Node1&#45;&gt;Node2 -->
<g id="edge1" class="edge">
<title>Node1&#45;&gt;Node2</title>
<path fill="none" stroke="midnightblue" d="M387.37,-123.36C362.33,-113.04 331.86,-100.48 307.47,-90.42"/>
<polygon fill="midnightblue" stroke="midnightblue" points="308.68,-87.14 298.1,-86.56 306.01,-93.61 308.68,-87.14"/>
</g>
<!-- Node10 -->
<g id="node10" class="node">
<title>Node10</title>
<g id="a_node10"><a xlink:href="logger_8hpp.html" target="_top" xlink:title=" ">
<polygon fill="white" stroke="black" points="620,-62 620,-81 756,-81 756,-62 620,-62"/>
<text text-anchor="middle" x="688" y="-69" font-family="Helvetica" font-size="10.00">vsomeip/internal/logger.hpp</text>
</a>
</g>
</g>
<!-- Node1&#45;&gt;Node10 -->
<g id="edge9" class="edge">
<title>Node1&#45;&gt;Node10</title>
<path fill="none" stroke="midnightblue" d="M505.14,-123.46C551.05,-110.66 609.41,-94.4 647.69,-83.73"/>
<polygon fill="midnightblue" stroke="midnightblue" points="648.76,-87.07 657.45,-81.01 646.88,-80.33 648.76,-87.07"/>
</g>
<!-- Node3 -->
<g id="node3" class="node">
<title>Node3</title>
<g id="a_node3"><a xlink:title=" ">
<polygon fill="white" stroke="#bfbfbf" points="0,-0.5 0,-19.5 46,-19.5 46,-0.5 0,-0.5"/>
<text text-anchor="middle" x="23" y="-7.5" font-family="Helvetica" font-size="10.00">atomic</text>
</a>
</g>
</g>
<!-- Node2&#45;&gt;Node3 -->
<g id="edge2" class="edge">
<title>Node2&#45;&gt;Node3</title>
<path fill="none" stroke="midnightblue" d="M217.39,-59.76C177.11,-50.36 117.1,-36.08 55.88,-20.16"/>
<polygon fill="midnightblue" stroke="midnightblue" points="56.6,-16.73 46.04,-17.59 54.84,-23.5 56.6,-16.73"/>
</g>
<!-- Node4 -->
<g id="node4" class="node">
<title>Node4</title>
<g id="a_node4"><a xlink:title=" ">
<polygon fill="white" stroke="#bfbfbf" points="64.5,-0.5 64.5,-19.5 123.5,-19.5 123.5,-0.5 64.5,-0.5"/>
<text text-anchor="middle" x="94" y="-7.5" font-family="Helvetica" font-size="10.00">functional</text>
</a>
</g>
</g>
<!-- Node2&#45;&gt;Node4 -->
<g id="edge3" class="edge">
<title>Node2&#45;&gt;Node4</title>
<path fill="none" stroke="midnightblue" d="M223.71,-56.4C194.68,-46.24 155.92,-32.67 128.35,-23.02"/>
<polygon fill="midnightblue" stroke="midnightblue" points="129.33,-19.66 118.74,-19.66 127.02,-26.26 129.33,-19.66"/>
</g>
<!-- Node5 -->
<g id="node5" class="node">
<title>Node5</title>
<g id="a_node5"><a xlink:title=" ">
<polygon fill="white" stroke="#bfbfbf" points="141.5,-0.5 141.5,-19.5 176.5,-19.5 176.5,-0.5 141.5,-0.5"/>
<text text-anchor="middle" x="159" y="-7.5" font-family="Helvetica" font-size="10.00">map</text>
</a>
</g>
</g>
<!-- Node2&#45;&gt;Node5 -->
<g id="edge4" class="edge">
<title>Node2&#45;&gt;Node5</title>
<path fill="none" stroke="midnightblue" d="M239.12,-56.4C222.29,-46.86 200.16,-34.32 183.43,-24.84"/>
<polygon fill="midnightblue" stroke="midnightblue" points="184.7,-21.54 174.28,-19.66 181.25,-27.63 184.7,-21.54"/>
</g>
<!-- Node6 -->
<g id="node6" class="node">
<title>Node6</title>
<g id="a_node6"><a xlink:title=" ">
<polygon fill="white" stroke="#bfbfbf" points="506,-0.5 506,-19.5 550,-19.5 550,-0.5 506,-0.5"/>
<text text-anchor="middle" x="528" y="-7.5" font-family="Helvetica" font-size="10.00">mutex</text>
</a>
</g>
</g>
<!-- Node2&#45;&gt;Node6 -->
<g id="edge5" class="edge">
<title>Node2&#45;&gt;Node6</title>
<path fill="none" stroke="midnightblue" d="M310.85,-61.16C355.73,-52.02 425.58,-37.3 495.76,-19.93"/>
<polygon fill="midnightblue" stroke="midnightblue" points="496.81,-23.28 505.67,-17.47 495.12,-16.49 496.81,-23.28"/>
</g>
<!-- Node7 -->
<g id="node7" class="node">
<title>Node7</title>
<g id="a_node7"><a xlink:title=" ">
<polygon fill="white" stroke="#bfbfbf" points="194.5,-0.5 194.5,-19.5 235.5,-19.5 235.5,-0.5 194.5,-0.5"/>
<text text-anchor="middle" x="215" y="-7.5" font-family="Helvetica" font-size="10.00">string</text>
</a>
</g>
</g>
<!-- Node2&#45;&gt;Node7 -->
<g id="edge6" class="edge">
<title>Node2&#45;&gt;Node7</title>
<path fill="none" stroke="midnightblue" d="M252.39,-56.4C245.27,-47.75 236.12,-36.64 228.65,-27.58"/>
<polygon fill="midnightblue" stroke="midnightblue" points="231.19,-25.15 222.13,-19.66 225.79,-29.6 231.19,-25.15"/>
</g>
<!-- Node8 -->
<g id="node8" class="node">
<title>Node8</title>
<g id="a_node8"><a xlink:href="implementation_2tracing_2include_2enumeration__types_8hpp.html" target="_top" xlink:title=" ">
<polygon fill="white" stroke="black" points="254,-0.5 254,-19.5 372,-19.5 372,-0.5 254,-0.5"/>
<text text-anchor="middle" x="313" y="-7.5" font-family="Helvetica" font-size="10.00">enumeration_types.hpp</text>
</a>
</g>
</g>
<!-- Node2&#45;&gt;Node8 -->
<g id="edge7" class="edge">
<title>Node2&#45;&gt;Node8</title>
<path fill="none" stroke="midnightblue" d="M275.61,-56.4C282.73,-47.75 291.88,-36.64 299.35,-27.58"/>
<polygon fill="midnightblue" stroke="midnightblue" points="302.21,-29.6 305.87,-19.66 296.81,-25.15 302.21,-29.6"/>
</g>
<!-- Node9 -->
<g id="node9" class="node">
<title>Node9</title>
<g id="a_node9"><a xlink:title=" ">
<polygon fill="white" stroke="#bfbfbf" points="390.5,-0.5 390.5,-19.5 487.5,-19.5 487.5,-0.5 390.5,-0.5"/>
<text text-anchor="middle" x="439" y="-7.5" font-family="Helvetica" font-size="10.00">vsomeip/trace.hpp</text>
</a>
</g>
</g>
<!-- Node2&#45;&gt;Node9 -->
<g id="edge8" class="edge">
<title>Node2&#45;&gt;Node9</title>
<path fill="none" stroke="midnightblue" d="M305.47,-56.4C335.58,-46.16 375.85,-32.47 404.27,-22.81"/>
<polygon fill="midnightblue" stroke="midnightblue" points="405.45,-26.1 413.79,-19.57 403.2,-19.48 405.45,-26.1"/>
</g>
<!-- Node10&#45;&gt;Node6 -->
<g id="edge12" class="edge">
<title>Node10&#45;&gt;Node6</title>
<path fill="none" stroke="midnightblue" d="M665.08,-61.98C637.4,-51.68 590.7,-34.31 559.61,-22.75"/>
<polygon fill="midnightblue" stroke="midnightblue" points="560.7,-19.43 550.11,-19.22 558.26,-25.99 560.7,-19.43"/>
</g>
<!-- Node11 -->
<g id="node11" class="node">
<title>Node11</title>
<g id="a_node11"><a xlink:title=" ">
<polygon fill="white" stroke="#bfbfbf" points="568,-0.5 568,-19.5 614,-19.5 614,-0.5 568,-0.5"/>
<text text-anchor="middle" x="591" y="-7.5" font-family="Helvetica" font-size="10.00">chrono</text>
</a>
</g>
</g>
<!-- Node10&#45;&gt;Node11 -->
<g id="edge10" class="edge">
<title>Node10&#45;&gt;Node11</title>
<path fill="none" stroke="midnightblue" d="M674.1,-61.98C658.33,-52.3 632.36,-36.37 613.65,-24.89"/>
<polygon fill="midnightblue" stroke="midnightblue" points="615.23,-21.75 604.87,-19.51 611.57,-27.72 615.23,-21.75"/>
</g>
<!-- Node12 -->
<g id="node12" class="node">
<title>Node12</title>
<g id="a_node12"><a xlink:title=" ">
<polygon fill="white" stroke="#bfbfbf" points="632,-0.5 632,-19.5 678,-19.5 678,-0.5 632,-0.5"/>
<text text-anchor="middle" x="655" y="-7.5" font-family="Helvetica" font-size="10.00">cstdint</text>
</a>
</g>
</g>
<!-- Node10&#45;&gt;Node12 -->
<g id="edge11" class="edge">
<title>Node10&#45;&gt;Node12</title>
<path fill="none" stroke="midnightblue" d="M683.27,-61.98C678.42,-53.23 670.73,-39.37 664.6,-28.31"/>
<polygon fill="midnightblue" stroke="midnightblue" points="667.63,-26.56 659.72,-19.51 661.51,-29.95 667.63,-26.56"/>
</g>
<!-- Node13 -->
<g id="node13" class="node">
<title>Node13</title>
<g id="a_node13"><a xlink:title=" ">
<polygon fill="white" stroke="#bfbfbf" points="696,-0.5 696,-19.5 748,-19.5 748,-0.5 696,-0.5"/>
<text text-anchor="middle" x="722" y="-7.5" font-family="Helvetica" font-size="10.00">ostream</text>
</a>
</g>
</g>
<!-- Node10&#45;&gt;Node13 -->
<g id="edge13" class="edge">
<title>Node10&#45;&gt;Node13</title>
<path fill="none" stroke="midnightblue" d="M692.87,-61.98C697.87,-53.23 705.79,-39.37 712.11,-28.31"/>
<polygon fill="midnightblue" stroke="midnightblue" points="715.22,-29.93 717.14,-19.51 709.14,-26.46 715.22,-29.93"/>
</g>
<!-- Node14 -->
<g id="node14" class="node">
<title>Node14</title>
<g id="a_node14"><a xlink:title=" ">
<polygon fill="white" stroke="#bfbfbf" points="766,-0.5 766,-19.5 818,-19.5 818,-0.5 766,-0.5"/>
<text text-anchor="middle" x="792" y="-7.5" font-family="Helvetica" font-size="10.00">sstream</text>
</a>
</g>
</g>
<!-- Node10&#45;&gt;Node14 -->
<g id="edge14" class="edge">
<title>Node10&#45;&gt;Node14</title>
<path fill="none" stroke="midnightblue" d="M702.9,-61.98C719.97,-52.21 748.16,-36.08 768.26,-24.58"/>
<polygon fill="midnightblue" stroke="midnightblue" points="770.19,-27.51 777.13,-19.51 766.71,-21.44 770.19,-27.51"/>
</g>
<!-- Node15 -->
<g id="node15" class="node">
<title>Node15</title>
<g id="a_node15"><a xlink:title=" ">
<polygon fill="white" stroke="#bfbfbf" points="836,-0.5 836,-19.5 896,-19.5 896,-0.5 836,-0.5"/>
<text text-anchor="middle" x="866" y="-7.5" font-family="Helvetica" font-size="10.00">streambuf</text>
</a>
</g>
</g>
<!-- Node10&#45;&gt;Node15 -->
<g id="edge15" class="edge">
<title>Node10&#45;&gt;Node15</title>
<path fill="none" stroke="midnightblue" d="M713.5,-61.98C744.3,-51.68 796.27,-34.31 830.85,-22.75"/>
<polygon fill="midnightblue" stroke="midnightblue" points="832.17,-26 840.54,-19.51 829.95,-19.36 832.17,-26"/>
</g>
<!-- Node16 -->
<g id="node16" class="node">
<title>Node16</title>
<g id="a_node16"><a xlink:title=" ">
<polygon fill="white" stroke="#bfbfbf" points="914,-0.5 914,-19.5 1016,-19.5 1016,-0.5 914,-0.5"/>
<text text-anchor="middle" x="965" y="-7.5" font-family="Helvetica" font-size="10.00">vsomeip/export.hpp</text>
</a>
</g>
</g>
<!-- Node10&#45;&gt;Node16 -->
<g id="edge16" class="edge">
<title>Node10&#45;&gt;Node16</title>
<path fill="none" stroke="midnightblue" d="M727.69,-61.98C777.16,-51.35 861.72,-33.18 915.41,-21.65"/>
<polygon fill="midnightblue" stroke="midnightblue" points="916.34,-25.03 925.39,-19.51 914.87,-18.19 916.34,-25.03"/>
</g>
</g>
</svg>
