<?xml version="1.0" encoding="UTF-8" standalone="no"?>
<!DOCTYPE svg PUBLIC "-//W3C//DTD SVG 1.1//EN"
 "http://www.w3.org/Graphics/SVG/1.1/DTD/svg11.dtd">
<!-- Generated by graphviz version 2.44.0 (0)
 -->
<!-- Title: /home/ec2&#45;user/workspace/vsomeip/implementation/tracing/include/channel_impl.hpp Pages: 1 -->
<svg width="559pt" height="117pt"
 viewBox="0.00 0.00 558.50 117.00" xmlns="http://www.w3.org/2000/svg" xmlns:xlink="http://www.w3.org/1999/xlink">
<g id="graph0" class="graph" transform="scale(1 1) rotate(0) translate(4 113)">
<title>/home/ec2&#45;user/workspace/vsomeip/implementation/tracing/include/channel_impl.hpp</title>
<polygon fill="white" stroke="transparent" points="-4,4 -4,-113 554.5,-113 554.5,4 -4,4"/>
<!-- Node1 -->
<g id="node1" class="node">
<title>Node1</title>
<g id="a_node1"><a xlink:title=" ">
<polygon fill="#bfbfbf" stroke="black" points="150,-56.5 150,-108.5 284,-108.5 284,-56.5 150,-56.5"/>
<text text-anchor="start" x="158" y="-96.5" font-family="Helvetica" font-size="10.00">/home/ec2&#45;user/workspace</text>
<text text-anchor="start" x="158" y="-85.5" font-family="Helvetica" font-size="10.00">/vsomeip/implementation</text>
<text text-anchor="start" x="158" y="-74.5" font-family="Helvetica" font-size="10.00">/tracing/include/channel</text>
<text text-anchor="middle" x="217" y="-63.5" font-family="Helvetica" font-size="10.00">_impl.hpp</text>
</a>
</g>
</g>
<!-- Node2 -->
<g id="node2" class="node">
<title>Node2</title>
<g id="a_node2"><a xlink:title=" ">
<polygon fill="white" stroke="#bfbfbf" points="0,-0.5 0,-19.5 46,-19.5 46,-0.5 0,-0.5"/>
<text text-anchor="middle" x="23" y="-7.5" font-family="Helvetica" font-size="10.00">atomic</text>
</a>
</g>
</g>
<!-- Node1&#45;&gt;Node2 -->
<g id="edge1" class="edge">
<title>Node1&#45;&gt;Node2</title>
<path fill="none" stroke="midnightblue" d="M149.96,-57.14C118.06,-45.54 81.35,-32.21 55.64,-22.86"/>
<polygon fill="midnightblue" stroke="midnightblue" points="56.62,-19.49 46.02,-19.37 54.23,-26.07 56.62,-19.49"/>
</g>
<!-- Node3 -->
<g id="node3" class="node">
<title>Node3</title>
<g id="a_node3"><a xlink:title=" ">
<polygon fill="white" stroke="#bfbfbf" points="64.5,-0.5 64.5,-19.5 123.5,-19.5 123.5,-0.5 64.5,-0.5"/>
<text text-anchor="middle" x="94" y="-7.5" font-family="Helvetica" font-size="10.00">functional</text>
</a>
</g>
</g>
<!-- Node1&#45;&gt;Node3 -->
<g id="edge2" class="edge">
<title>Node1&#45;&gt;Node3</title>
<path fill="none" stroke="midnightblue" d="M173.29,-56.45C154.65,-45.76 133.62,-33.71 117.91,-24.7"/>
<polygon fill="midnightblue" stroke="midnightblue" points="119.29,-21.46 108.88,-19.53 115.81,-27.54 119.29,-21.46"/>
</g>
<!-- Node4 -->
<g id="node4" class="node">
<title>Node4</title>
<g id="a_node4"><a xlink:title=" ">
<polygon fill="white" stroke="#bfbfbf" points="141.5,-0.5 141.5,-19.5 176.5,-19.5 176.5,-0.5 141.5,-0.5"/>
<text text-anchor="middle" x="159" y="-7.5" font-family="Helvetica" font-size="10.00">map</text>
</a>
</g>
</g>
<!-- Node1&#45;&gt;Node4 -->
<g id="edge3" class="edge">
<title>Node1&#45;&gt;Node4</title>
<path fill="none" stroke="midnightblue" d="M196.39,-56.45C188.48,-46.83 179.65,-36.1 172.56,-27.49"/>
<polygon fill="midnightblue" stroke="midnightblue" points="175.21,-25.19 166.15,-19.7 169.8,-29.64 175.21,-25.19"/>
</g>
<!-- Node5 -->
<g id="node5" class="node">
<title>Node5</title>
<g id="a_node5"><a xlink:title=" ">
<polygon fill="white" stroke="#bfbfbf" points="195,-0.5 195,-19.5 239,-19.5 239,-0.5 195,-0.5"/>
<text text-anchor="middle" x="217" y="-7.5" font-family="Helvetica" font-size="10.00">mutex</text>
</a>
</g>
</g>
<!-- Node1&#45;&gt;Node5 -->
<g id="edge4" class="edge">
<title>Node1&#45;&gt;Node5</title>
<path fill="none" stroke="midnightblue" d="M217,-56.45C217,-47.73 217,-38.1 217,-29.96"/>
<polygon fill="midnightblue" stroke="midnightblue" points="220.5,-29.7 217,-19.7 213.5,-29.7 220.5,-29.7"/>
</g>
<!-- Node6 -->
<g id="node6" class="node">
<title>Node6</title>
<g id="a_node6"><a xlink:title=" ">
<polygon fill="white" stroke="#bfbfbf" points="257.5,-0.5 257.5,-19.5 298.5,-19.5 298.5,-0.5 257.5,-0.5"/>
<text text-anchor="middle" x="278" y="-7.5" font-family="Helvetica" font-size="10.00">string</text>
</a>
</g>
</g>
<!-- Node1&#45;&gt;Node6 -->
<g id="edge5" class="edge">
<title>Node1&#45;&gt;Node6</title>
<path fill="none" stroke="midnightblue" d="M238.68,-56.45C247,-46.83 256.28,-36.1 263.73,-27.49"/>
<polygon fill="midnightblue" stroke="midnightblue" points="266.58,-29.55 270.48,-19.7 261.29,-24.97 266.58,-29.55"/>
</g>
<!-- Node7 -->
<g id="node7" class="node">
<title>Node7</title>
<g id="a_node7"><a xlink:href="implementation_2tracing_2include_2enumeration__types_8hpp.html" target="_top" xlink:title=" ">
<polygon fill="white" stroke="black" points="317,-0.5 317,-19.5 435,-19.5 435,-0.5 317,-0.5"/>
<text text-anchor="middle" x="376" y="-7.5" font-family="Helvetica" font-size="10.00">enumeration_types.hpp</text>
</a>
</g>
</g>
<!-- Node1&#45;&gt;Node7 -->
<g id="edge6" class="edge">
<title>Node1&#45;&gt;Node7</title>
<path fill="none" stroke="midnightblue" d="M273.51,-56.45C298.51,-45.36 326.84,-32.8 347.37,-23.7"/>
<polygon fill="midnightblue" stroke="midnightblue" points="349.05,-26.78 356.77,-19.53 346.21,-20.38 349.05,-26.78"/>
</g>
<!-- Node8 -->
<g id="node8" class="node">
<title>Node8</title>
<g id="a_node8"><a xlink:title=" ">
<polygon fill="white" stroke="#bfbfbf" points="453.5,-0.5 453.5,-19.5 550.5,-19.5 550.5,-0.5 453.5,-0.5"/>
<text text-anchor="middle" x="502" y="-7.5" font-family="Helvetica" font-size="10.00">vsomeip/trace.hpp</text>
</a>
</g>
</g>
<!-- Node1&#45;&gt;Node8 -->
<g id="edge7" class="edge">
<title>Node1&#45;&gt;Node8</title>
<path fill="none" stroke="midnightblue" d="M284.18,-64.88C337.69,-51.65 411.08,-33.49 457.52,-22"/>
<polygon fill="midnightblue" stroke="midnightblue" points="458.42,-25.39 467.29,-19.59 456.74,-18.59 458.42,-25.39"/>
</g>
</g>
</svg>
