<?xml version="1.0" encoding="UTF-8" standalone="no"?>
<!DOCTYPE svg PUBLIC "-//W3C//DTD SVG 1.1//EN"
 "http://www.w3.org/Graphics/SVG/1.1/DTD/svg11.dtd">
<!-- Generated by graphviz version 2.44.0 (0)
 -->
<!-- Title: /home/ec2&#45;user/workspace/vsomeip/implementation/tracing/include/channel_impl.hpp Pages: 1 -->
<svg width="324pt" height="139pt"
 viewBox="0.00 0.00 323.50 139.00" xmlns="http://www.w3.org/2000/svg" xmlns:xlink="http://www.w3.org/1999/xlink">
<g id="graph0" class="graph" transform="scale(1 1) rotate(0) translate(4 135)">
<title>/home/ec2&#45;user/workspace/vsomeip/implementation/tracing/include/channel_impl.hpp</title>
<polygon fill="white" stroke="transparent" points="-4,4 -4,-135 319.5,-135 319.5,4 -4,4"/>
<!-- Node1 -->
<g id="node1" class="node">
<title>Node1</title>
<g id="a_node1"><a xlink:title=" ">
<polygon fill="#bfbfbf" stroke="black" points="88,-78.5 88,-130.5 222,-130.5 222,-78.5 88,-78.5"/>
<text text-anchor="start" x="96" y="-118.5" font-family="Helvetica" font-size="10.00">/home/ec2&#45;user/workspace</text>
<text text-anchor="start" x="96" y="-107.5" font-family="Helvetica" font-size="10.00">/vsomeip/implementation</text>
<text text-anchor="start" x="96" y="-96.5" font-family="Helvetica" font-size="10.00">/tracing/include/channel</text>
<text text-anchor="middle" x="155" y="-85.5" font-family="Helvetica" font-size="10.00">_impl.hpp</text>
</a>
</g>
</g>
<!-- Node2 -->
<g id="node2" class="node">
<title>Node2</title>
<g id="a_node2"><a xlink:href="channel__impl_8cpp.html" target="_top" xlink:title=" ">
<polygon fill="white" stroke="black" points="0,-0.5 0,-41.5 144,-41.5 144,-0.5 0,-0.5"/>
<text text-anchor="start" x="8" y="-29.5" font-family="Helvetica" font-size="10.00">/home/ec2&#45;user/workspace</text>
<text text-anchor="start" x="8" y="-18.5" font-family="Helvetica" font-size="10.00">/vsomeip/implementation</text>
<text text-anchor="middle" x="72" y="-7.5" font-family="Helvetica" font-size="10.00">/tracing/src/channel_impl.cpp</text>
</a>
</g>
</g>
<!-- Node1&#45;&gt;Node2 -->
<g id="edge1" class="edge">
<title>Node1&#45;&gt;Node2</title>
<path fill="none" stroke="midnightblue" d="M121.97,-71.07C111.83,-61.11 100.98,-50.45 91.99,-41.63"/>
<polygon fill="midnightblue" stroke="midnightblue" points="119.61,-73.65 129.19,-78.16 124.51,-68.66 119.61,-73.65"/>
</g>
<!-- Node3 -->
<g id="node3" class="node">
<title>Node3</title>
<g id="a_node3"><a xlink:href="connector__impl_8cpp.html" target="_top" xlink:title=" ">
<polygon fill="white" stroke="black" points="162.5,-0.5 162.5,-41.5 315.5,-41.5 315.5,-0.5 162.5,-0.5"/>
<text text-anchor="start" x="170.5" y="-29.5" font-family="Helvetica" font-size="10.00">/home/ec2&#45;user/workspace</text>
<text text-anchor="start" x="170.5" y="-18.5" font-family="Helvetica" font-size="10.00">/vsomeip/implementation</text>
<text text-anchor="middle" x="239" y="-7.5" font-family="Helvetica" font-size="10.00">/tracing/src/connector_impl.cpp</text>
</a>
</g>
</g>
<!-- Node1&#45;&gt;Node3 -->
<g id="edge2" class="edge">
<title>Node1&#45;&gt;Node3</title>
<path fill="none" stroke="midnightblue" d="M188.43,-71.07C198.69,-61.11 209.67,-50.45 218.77,-41.63"/>
<polygon fill="midnightblue" stroke="midnightblue" points="185.86,-68.68 181.12,-78.16 190.73,-73.71 185.86,-68.68"/>
</g>
</g>
</svg>
