<?xml version="1.0" encoding="UTF-8" standalone="no"?>
<!DOCTYPE svg PUBLIC "-//W3C//DTD SVG 1.1//EN"
 "http://www.w3.org/Graphics/SVG/1.1/DTD/svg11.dtd">
<!-- Generated by graphviz version 2.44.0 (0)
 -->
<!-- Title: vsomeip_v3::message_base Pages: 1 -->
<svg width="695pt" height="164pt"
 viewBox="0.00 0.00 695.00 164.00" xmlns="http://www.w3.org/2000/svg" xmlns:xlink="http://www.w3.org/1999/xlink">
<g id="graph0" class="graph" transform="scale(1 1) rotate(0) translate(4 160)">
<title>vsomeip_v3::message_base</title>
<polygon fill="white" stroke="transparent" points="-4,4 -4,-160 691,-160 691,4 -4,4"/>
<!-- Node1 -->
<g id="node1" class="node">
<title>Node1</title>
<g id="a_node1"><a xlink:title="Base class to implement SOME/IP messages.">
<polygon fill="#bfbfbf" stroke="black" points="170,-79.5 170,-98.5 311,-98.5 311,-79.5 170,-79.5"/>
<text text-anchor="middle" x="240.5" y="-86.5" font-family="Helvetica" font-size="10.00">vsomeip_v3::message_base</text>
</a>
</g>
</g>
<!-- Node4 -->
<g id="node4" class="node">
<title>Node4</title>
<g id="a_node4"><a xlink:href="classvsomeip_1_1message.html" target="_top" xlink:title="Implements regular SOME/IP messages.">
<polygon fill="white" stroke="black" points="372,-136.5 372,-155.5 471,-155.5 471,-136.5 372,-136.5"/>
<text text-anchor="middle" x="421.5" y="-143.5" font-family="Helvetica" font-size="10.00">vsomeip::message</text>
</a>
</g>
</g>
<!-- Node1&#45;&gt;Node4 -->
<g id="edge3" class="edge">
<title>Node1&#45;&gt;Node4</title>
<path fill="none" stroke="midnightblue" d="M275.55,-102.17C296.09,-109.89 322.86,-119.55 347,-127 357.83,-130.34 369.68,-133.58 380.64,-136.41"/>
<polygon fill="midnightblue" stroke="midnightblue" points="276.6,-98.83 266.01,-98.56 274.12,-105.37 276.6,-98.83"/>
</g>
<!-- Node5 -->
<g id="node5" class="node">
<title>Node5</title>
<g id="a_node5"><a xlink:href="classvsomeip_1_1message__base__impl.html" target="_top" xlink:title=" ">
<polygon fill="white" stroke="black" points="347,-98.5 347,-117.5 496,-117.5 496,-98.5 347,-98.5"/>
<text text-anchor="middle" x="421.5" y="-105.5" font-family="Helvetica" font-size="10.00">vsomeip::message_base_impl</text>
</a>
</g>
</g>
<!-- Node1&#45;&gt;Node5 -->
<g id="edge4" class="edge">
<title>Node1&#45;&gt;Node5</title>
<path fill="none" stroke="midnightblue" d="M321.17,-97.46C329.71,-98.36 338.37,-99.28 346.83,-100.18"/>
<polygon fill="midnightblue" stroke="midnightblue" points="321.53,-93.98 311.22,-96.4 320.79,-100.94 321.53,-93.98"/>
</g>
<!-- Node6 -->
<g id="node6" class="node">
<title>Node6</title>
<g id="a_node6"><a xlink:href="classvsomeip__v3_1_1message.html" target="_top" xlink:title="Implements regular SOME/IP messages.">
<polygon fill="white" stroke="black" points="364,-60.5 364,-79.5 479,-79.5 479,-60.5 364,-60.5"/>
<text text-anchor="middle" x="421.5" y="-67.5" font-family="Helvetica" font-size="10.00">vsomeip_v3::message</text>
</a>
</g>
</g>
<!-- Node1&#45;&gt;Node6 -->
<g id="edge5" class="edge">
<title>Node1&#45;&gt;Node6</title>
<path fill="none" stroke="midnightblue" d="M321.56,-80.5C335.86,-78.98 350.49,-77.43 363.97,-76"/>
<polygon fill="midnightblue" stroke="midnightblue" points="320.79,-77.06 311.22,-81.6 321.53,-84.02 320.79,-77.06"/>
</g>
<!-- Node10 -->
<g id="node10" class="node">
<title>Node10</title>
<g id="a_node10"><a xlink:href="classvsomeip__v3_1_1message__base__impl.html" target="_top" xlink:title=" ">
<polygon fill="white" stroke="black" points="364,-11 364,-41 479,-41 479,-11 364,-11"/>
<text text-anchor="start" x="372" y="-29" font-family="Helvetica" font-size="10.00">vsomeip_v3::message</text>
<text text-anchor="middle" x="421.5" y="-18" font-family="Helvetica" font-size="10.00">_base_impl</text>
</a>
</g>
</g>
<!-- Node1&#45;&gt;Node10 -->
<g id="edge9" class="edge">
<title>Node1&#45;&gt;Node10</title>
<path fill="none" stroke="midnightblue" d="M277.42,-75.88C297.79,-68.49 323.79,-59.13 347,-51 356.29,-47.75 366.25,-44.32 375.76,-41.08"/>
<polygon fill="midnightblue" stroke="midnightblue" points="276.1,-72.64 267.9,-79.34 278.5,-79.22 276.1,-72.64"/>
</g>
<!-- Node2 -->
<g id="node2" class="node">
<title>Node2</title>
<g id="a_node2"><a xlink:href="classvsomeip__v3_1_1serializable.html" target="_top" xlink:title=" ">
<polygon fill="white" stroke="black" points="5,-98.5 5,-117.5 129,-117.5 129,-98.5 5,-98.5"/>
<text text-anchor="middle" x="67" y="-105.5" font-family="Helvetica" font-size="10.00">vsomeip_v3::serializable</text>
</a>
</g>
</g>
<!-- Node2&#45;&gt;Node1 -->
<g id="edge1" class="edge">
<title>Node2&#45;&gt;Node1</title>
<path fill="none" stroke="midnightblue" d="M139.68,-100.06C149.63,-98.96 159.84,-97.83 169.75,-96.73"/>
<polygon fill="midnightblue" stroke="midnightblue" points="138.98,-96.61 129.43,-101.19 139.76,-103.57 138.98,-96.61"/>
</g>
<!-- Node3 -->
<g id="node3" class="node">
<title>Node3</title>
<g id="a_node3"><a xlink:href="classvsomeip__v3_1_1deserializable.html" target="_top" xlink:title=" ">
<polygon fill="white" stroke="black" points="0,-60.5 0,-79.5 134,-79.5 134,-60.5 0,-60.5"/>
<text text-anchor="middle" x="67" y="-67.5" font-family="Helvetica" font-size="10.00">vsomeip_v3::deserializable</text>
</a>
</g>
</g>
<!-- Node3&#45;&gt;Node1 -->
<g id="edge2" class="edge">
<title>Node3&#45;&gt;Node1</title>
<path fill="none" stroke="midnightblue" d="M144.27,-78.45C152.82,-79.4 161.5,-80.36 169.96,-81.3"/>
<polygon fill="midnightblue" stroke="midnightblue" points="144.63,-74.97 134.31,-77.35 143.86,-81.93 144.63,-74.97"/>
</g>
<!-- Node7 -->
<g id="node7" class="node">
<title>Node7</title>
<g id="a_node7"><a xlink:href="classvsomeip_1_1message__impl.html" target="_top" xlink:title=" ">
<polygon fill="white" stroke="black" points="548.5,-76.5 548.5,-95.5 670.5,-95.5 670.5,-76.5 548.5,-76.5"/>
<text text-anchor="middle" x="609.5" y="-83.5" font-family="Helvetica" font-size="10.00">vsomeip::message_impl</text>
</a>
</g>
</g>
<!-- Node6&#45;&gt;Node7 -->
<g id="edge6" class="edge">
<title>Node6&#45;&gt;Node7</title>
<path fill="none" stroke="midnightblue" d="M489.28,-75.74C508.56,-77.4 529.48,-79.2 548.33,-80.82"/>
<polygon fill="midnightblue" stroke="midnightblue" points="489.33,-72.24 479.06,-74.87 488.73,-79.21 489.33,-72.24"/>
</g>
<!-- Node8 -->
<g id="node8" class="node">
<title>Node8</title>
<g id="a_node8"><a xlink:href="classvsomeip__v3_1_1message__impl.html" target="_top" xlink:title=" ">
<polygon fill="white" stroke="black" points="540.5,-38.5 540.5,-57.5 678.5,-57.5 678.5,-38.5 540.5,-38.5"/>
<text text-anchor="middle" x="609.5" y="-45.5" font-family="Helvetica" font-size="10.00">vsomeip_v3::message_impl</text>
</a>
</g>
</g>
<!-- Node6&#45;&gt;Node8 -->
<g id="edge7" class="edge">
<title>Node6&#45;&gt;Node8</title>
<path fill="none" stroke="midnightblue" d="M489.24,-62.11C505.87,-60.14 523.72,-58.03 540.41,-56.05"/>
<polygon fill="midnightblue" stroke="midnightblue" points="488.58,-58.66 479.06,-63.31 489.41,-65.61 488.58,-58.66"/>
</g>
<!-- Node9 -->
<g id="node9" class="node">
<title>Node9</title>
<g id="a_node9"><a xlink:href="classvsomeip__v3_1_1sd_1_1message__impl.html" target="_top" xlink:title=" ">
<polygon fill="white" stroke="black" points="532,-0.5 532,-19.5 687,-19.5 687,-0.5 532,-0.5"/>
<text text-anchor="middle" x="609.5" y="-7.5" font-family="Helvetica" font-size="10.00">vsomeip_v3::sd::message_impl</text>
</a>
</g>
</g>
<!-- Node6&#45;&gt;Node9 -->
<g id="edge8" class="edge">
<title>Node6&#45;&gt;Node9</title>
<path fill="none" stroke="midnightblue" d="M474.87,-57.57C482.07,-55.34 489.29,-52.81 496,-50 513.08,-42.84 514.84,-35.97 532,-29 541.13,-25.29 551.17,-22.17 560.9,-19.59"/>
<polygon fill="midnightblue" stroke="midnightblue" points="473.73,-54.26 465.12,-60.44 475.7,-60.98 473.73,-54.26"/>
</g>
<!-- Node10&#45;&gt;Node7 -->
<g id="edge10" class="edge">
<title>Node10&#45;&gt;Node7</title>
<path fill="none" stroke="midnightblue" d="M478.79,-44.56C484.63,-46.66 490.45,-48.83 496,-51 512.3,-57.38 515.44,-61.31 532,-67 542.35,-70.56 553.71,-73.75 564.42,-76.45"/>
<polygon fill="midnightblue" stroke="midnightblue" points="479.59,-41.13 469,-41.1 477.26,-47.73 479.59,-41.13"/>
</g>
<!-- Node10&#45;&gt;Node8 -->
<g id="edge11" class="edge">
<title>Node10&#45;&gt;Node8</title>
<path fill="none" stroke="midnightblue" d="M489.24,-33.89C505.87,-35.86 523.72,-37.97 540.41,-39.95"/>
<polygon fill="midnightblue" stroke="midnightblue" points="489.41,-30.39 479.06,-32.69 488.58,-37.34 489.41,-30.39"/>
</g>
<!-- Node10&#45;&gt;Node9 -->
<g id="edge12" class="edge">
<title>Node10&#45;&gt;Node9</title>
<path fill="none" stroke="midnightblue" d="M489.43,-20.24C503.23,-19.06 517.86,-17.8 531.97,-16.58"/>
<polygon fill="midnightblue" stroke="midnightblue" points="488.73,-16.79 479.06,-21.13 489.33,-23.76 488.73,-16.79"/>
</g>
</g>
</svg>
