<?xml version="1.0" encoding="UTF-8" standalone="no"?>
<!DOCTYPE svg PUBLIC "-//W3C//DTD SVG 1.1//EN"
 "http://www.w3.org/Graphics/SVG/1.1/DTD/svg11.dtd">
<!-- Generated by graphviz version 2.44.0 (0)
 -->
<!-- Title: vsomeip_v3::routing_manager_base Pages: 1 -->
<svg width="416pt" height="138pt"
 viewBox="0.00 0.00 416.00 137.50" xmlns="http://www.w3.org/2000/svg" xmlns:xlink="http://www.w3.org/1999/xlink">
<g id="graph0" class="graph" transform="scale(1 1) rotate(0) translate(4 133.5)">
<title>vsomeip_v3::routing_manager_base</title>
<polygon fill="white" stroke="transparent" points="-4,4 -4,-133.5 412,-133.5 412,4 -4,4"/>
<!-- Node1 -->
<g id="node1" class="node">
<title>Node1</title>
<g id="a_node1"><a xlink:title=" ">
<polygon fill="#bfbfbf" stroke="black" points="164,-55 164,-85 268,-85 268,-55 164,-55"/>
<text text-anchor="start" x="172" y="-73" font-family="Helvetica" font-size="10.00">vsomeip_v3::routing</text>
<text text-anchor="middle" x="216" y="-62" font-family="Helvetica" font-size="10.00">_manager_base</text>
</a>
</g>
</g>
<!-- Node5 -->
<g id="node5" class="node">
<title>Node5</title>
<g id="a_node5"><a xlink:href="classvsomeip__v3_1_1routing__manager__client.html" target="_top" xlink:title=" ">
<polygon fill="white" stroke="black" points="304,-80 304,-110 408,-110 408,-80 304,-80"/>
<text text-anchor="start" x="312" y="-98" font-family="Helvetica" font-size="10.00">vsomeip_v3::routing</text>
<text text-anchor="middle" x="356" y="-87" font-family="Helvetica" font-size="10.00">_manager_client</text>
</a>
</g>
</g>
<!-- Node1&#45;&gt;Node5 -->
<g id="edge4" class="edge">
<title>Node1&#45;&gt;Node5</title>
<path fill="none" stroke="midnightblue" d="M278.5,-81.14C286.87,-82.66 295.4,-84.2 303.57,-85.68"/>
<polygon fill="midnightblue" stroke="midnightblue" points="278.85,-77.65 268.39,-79.31 277.6,-84.54 278.85,-77.65"/>
</g>
<!-- Node6 -->
<g id="node6" class="node">
<title>Node6</title>
<g id="a_node6"><a xlink:href="classvsomeip__v3_1_1routing__manager__impl.html" target="_top" xlink:title=" ">
<polygon fill="white" stroke="black" points="304,-31 304,-61 408,-61 408,-31 304,-31"/>
<text text-anchor="start" x="312" y="-49" font-family="Helvetica" font-size="10.00">vsomeip_v3::routing</text>
<text text-anchor="middle" x="356" y="-38" font-family="Helvetica" font-size="10.00">_manager_impl</text>
</a>
</g>
</g>
<!-- Node1&#45;&gt;Node6 -->
<g id="edge5" class="edge">
<title>Node1&#45;&gt;Node6</title>
<path fill="none" stroke="midnightblue" d="M278.5,-59.31C286.87,-57.85 295.4,-56.37 303.57,-54.94"/>
<polygon fill="midnightblue" stroke="midnightblue" points="277.64,-55.9 268.39,-61.06 278.84,-62.8 277.64,-55.9"/>
</g>
<!-- Node2 -->
<g id="node2" class="node">
<title>Node2</title>
<g id="a_node2"><a xlink:href="classvsomeip__v3_1_1routing__manager.html" target="_top" xlink:title=" ">
<polygon fill="white" stroke="black" points="12,-99 12,-129 116,-129 116,-99 12,-99"/>
<text text-anchor="start" x="20" y="-117" font-family="Helvetica" font-size="10.00">vsomeip_v3::routing</text>
<text text-anchor="middle" x="64" y="-106" font-family="Helvetica" font-size="10.00">_manager</text>
</a>
</g>
</g>
<!-- Node2&#45;&gt;Node1 -->
<g id="edge1" class="edge">
<title>Node2&#45;&gt;Node1</title>
<path fill="none" stroke="midnightblue" d="M126.09,-96.08C138.61,-92.41 151.65,-88.58 163.77,-85.03"/>
<polygon fill="midnightblue" stroke="midnightblue" points="124.81,-92.81 116.2,-98.98 126.78,-99.52 124.81,-92.81"/>
</g>
<!-- Node3 -->
<g id="node3" class="node">
<title>Node3</title>
<g id="a_node3"><a xlink:href="classvsomeip__v3_1_1routing__host.html" target="_top" xlink:title=" ">
<polygon fill="white" stroke="black" points="0,-60.5 0,-79.5 128,-79.5 128,-60.5 0,-60.5"/>
<text text-anchor="middle" x="64" y="-67.5" font-family="Helvetica" font-size="10.00">vsomeip_v3::routing_host</text>
</a>
</g>
</g>
<!-- Node3&#45;&gt;Node1 -->
<g id="edge2" class="edge">
<title>Node3&#45;&gt;Node1</title>
<path fill="none" stroke="midnightblue" d="M138.25,-70C146.86,-70 155.5,-70 163.72,-70"/>
<polygon fill="midnightblue" stroke="midnightblue" points="138.18,-66.5 128.18,-70 138.18,-73.5 138.18,-66.5"/>
</g>
<!-- Node4 -->
<g id="node4" class="node">
<title>Node4</title>
<g id="a_node4"><a xlink:title=" ">
<polygon fill="white" stroke="black" points="13.5,-0.5 13.5,-41.5 114.5,-41.5 114.5,-0.5 13.5,-0.5"/>
<text text-anchor="start" x="21.5" y="-29.5" font-family="Helvetica" font-size="10.00">std::enable_shared</text>
<text text-anchor="start" x="21.5" y="-18.5" font-family="Helvetica" font-size="10.00">_from_this&lt; routing</text>
<text text-anchor="middle" x="64" y="-7.5" font-family="Helvetica" font-size="10.00">_manager_base &gt;</text>
</a>
</g>
</g>
<!-- Node4&#45;&gt;Node1 -->
<g id="edge3" class="edge">
<title>Node4&#45;&gt;Node1</title>
<path fill="none" stroke="midnightblue" d="M124.19,-40.33C139.11,-45.21 154.91,-50.37 169.07,-55"/>
<polygon fill="midnightblue" stroke="midnightblue" points="125.12,-36.96 114.53,-37.18 122.95,-43.61 125.12,-36.96"/>
</g>
</g>
</svg>
