<?xml version="1.0" encoding="UTF-8" standalone="no"?>
<!DOCTYPE svg PUBLIC "-//W3C//DTD SVG 1.1//EN"
 "http://www.w3.org/Graphics/SVG/1.1/DTD/svg11.dtd">
<!-- Generated by graphviz version 2.44.0 (0)
 -->
<!-- Title: vsomeip_v3::runtime Pages: 1 -->
<svg width="272pt" height="84pt"
 viewBox="0.00 0.00 272.00 84.00" xmlns="http://www.w3.org/2000/svg" xmlns:xlink="http://www.w3.org/1999/xlink">
<g id="graph0" class="graph" transform="scale(1 1) rotate(0) translate(4 80)">
<title>vsomeip_v3::runtime</title>
<polygon fill="white" stroke="transparent" points="-4,4 -4,-80 268,-80 268,4 -4,4"/>
<!-- Node1 -->
<g id="node1" class="node">
<title>Node1</title>
<g id="a_node1"><a xlink:title="Singleton class containing all public resource management facilities of vsomeip.">
<polygon fill="#bfbfbf" stroke="black" points="74,-56.5 74,-75.5 181,-75.5 181,-56.5 74,-56.5"/>
<text text-anchor="middle" x="127.5" y="-63.5" font-family="Helvetica" font-size="10.00">vsomeip_v3::runtime</text>
</a>
</g>
</g>
<!-- Node2 -->
<g id="node2" class="node">
<title>Node2</title>
<g id="a_node2"><a xlink:href="classvsomeip_1_1runtime__impl.html" target="_top" xlink:title=" ">
<polygon fill="white" stroke="black" points="0,-0.5 0,-19.5 115,-19.5 115,-0.5 0,-0.5"/>
<text text-anchor="middle" x="57.5" y="-7.5" font-family="Helvetica" font-size="10.00">vsomeip::runtime_impl</text>
</a>
</g>
</g>
<!-- Node1&#45;&gt;Node2 -->
<g id="edge1" class="edge">
<title>Node1&#45;&gt;Node2</title>
<path fill="none" stroke="midnightblue" d="M108.19,-50.1C95.59,-40.38 79.57,-28.03 68.95,-19.83"/>
<polygon fill="midnightblue" stroke="midnightblue" points="106.2,-52.99 116.25,-56.32 110.47,-47.44 106.2,-52.99"/>
</g>
<!-- Node3 -->
<g id="node3" class="node">
<title>Node3</title>
<g id="a_node3"><a xlink:href="classvsomeip__v3_1_1runtime__impl.html" target="_top" xlink:title=" ">
<polygon fill="white" stroke="black" points="133,-0.5 133,-19.5 264,-19.5 264,-0.5 133,-0.5"/>
<text text-anchor="middle" x="198.5" y="-7.5" font-family="Helvetica" font-size="10.00">vsomeip_v3::runtime_impl</text>
</a>
</g>
</g>
<!-- Node1&#45;&gt;Node3 -->
<g id="edge2" class="edge">
<title>Node1&#45;&gt;Node3</title>
<path fill="none" stroke="midnightblue" d="M147.09,-50.1C159.87,-40.38 176.11,-28.03 186.89,-19.83"/>
<polygon fill="midnightblue" stroke="midnightblue" points="144.75,-47.48 138.91,-56.32 148.99,-53.06 144.75,-47.48"/>
</g>
</g>
</svg>
