<?xml version="1.0" encoding="UTF-8" standalone="no"?>
<!DOCTYPE svg PUBLIC "-//W3C//DTD SVG 1.1//EN"
 "http://www.w3.org/Graphics/SVG/1.1/DTD/svg11.dtd">
<!-- Generated by graphviz version 2.44.0 (0)
 -->
<!-- Title: vsomeip_v3::protocol::subscribe_command_base Pages: 1 -->
<svg width="452pt" height="137pt"
 viewBox="0.00 0.00 452.00 137.00" xmlns="http://www.w3.org/2000/svg" xmlns:xlink="http://www.w3.org/1999/xlink">
<g id="graph0" class="graph" transform="scale(1 1) rotate(0) translate(4 133)">
<title>vsomeip_v3::protocol::subscribe_command_base</title>
<polygon fill="white" stroke="transparent" points="-4,4 -4,-133 448,-133 448,4 -4,4"/>
<!-- Node1 -->
<g id="node1" class="node">
<title>Node1</title>
<g id="a_node1"><a xlink:title=" ">
<polygon fill="#bfbfbf" stroke="black" points="146,-49.5 146,-79.5 285,-79.5 285,-49.5 146,-49.5"/>
<text text-anchor="start" x="154" y="-67.5" font-family="Helvetica" font-size="10.00">vsomeip_v3::protocol</text>
<text text-anchor="middle" x="215.5" y="-56.5" font-family="Helvetica" font-size="10.00">::subscribe_command_base</text>
</a>
</g>
</g>
<!-- Node3 -->
<g id="node3" class="node">
<title>Node3</title>
<g id="a_node3"><a xlink:href="classvsomeip__v3_1_1protocol_1_1expire__command.html" target="_top" xlink:title=" ">
<polygon fill="white" stroke="black" points="327.5,-98.5 327.5,-128.5 437.5,-128.5 437.5,-98.5 327.5,-98.5"/>
<text text-anchor="start" x="335.5" y="-116.5" font-family="Helvetica" font-size="10.00">vsomeip_v3::protocol</text>
<text text-anchor="middle" x="382.5" y="-105.5" font-family="Helvetica" font-size="10.00">::expire_command</text>
</a>
</g>
</g>
<!-- Node1&#45;&gt;Node3 -->
<g id="edge2" class="edge">
<title>Node1&#45;&gt;Node3</title>
<path fill="none" stroke="midnightblue" d="M277,-82.47C294.68,-87.72 313.81,-93.4 330.82,-98.45"/>
<polygon fill="midnightblue" stroke="midnightblue" points="277.93,-79.09 267.35,-79.6 275.94,-85.8 277.93,-79.09"/>
</g>
<!-- Node4 -->
<g id="node4" class="node">
<title>Node4</title>
<g id="a_node4"><a xlink:href="classvsomeip__v3_1_1protocol_1_1subscribe__command.html" target="_top" xlink:title=" ">
<polygon fill="white" stroke="black" points="326,-49.5 326,-79.5 439,-79.5 439,-49.5 326,-49.5"/>
<text text-anchor="start" x="334" y="-67.5" font-family="Helvetica" font-size="10.00">vsomeip_v3::protocol</text>
<text text-anchor="middle" x="382.5" y="-56.5" font-family="Helvetica" font-size="10.00">::subscribe_command</text>
</a>
</g>
</g>
<!-- Node1&#45;&gt;Node4 -->
<g id="edge3" class="edge">
<title>Node1&#45;&gt;Node4</title>
<path fill="none" stroke="midnightblue" d="M295.34,-64.5C305.69,-64.5 316.12,-64.5 325.97,-64.5"/>
<polygon fill="midnightblue" stroke="midnightblue" points="295.04,-61 285.04,-64.5 295.04,-68 295.04,-61"/>
</g>
<!-- Node5 -->
<g id="node5" class="node">
<title>Node5</title>
<g id="a_node5"><a xlink:href="classvsomeip__v3_1_1protocol_1_1unsubscribe__command.html" target="_top" xlink:title=" ">
<polygon fill="white" stroke="black" points="321,-0.5 321,-30.5 444,-30.5 444,-0.5 321,-0.5"/>
<text text-anchor="start" x="329" y="-18.5" font-family="Helvetica" font-size="10.00">vsomeip_v3::protocol</text>
<text text-anchor="middle" x="382.5" y="-7.5" font-family="Helvetica" font-size="10.00">::unsubscribe_command</text>
</a>
</g>
</g>
<!-- Node1&#45;&gt;Node5 -->
<g id="edge4" class="edge">
<title>Node1&#45;&gt;Node5</title>
<path fill="none" stroke="midnightblue" d="M277,-46.53C294.68,-41.28 313.81,-35.6 330.82,-30.55"/>
<polygon fill="midnightblue" stroke="midnightblue" points="275.94,-43.2 267.35,-49.4 277.93,-49.91 275.94,-43.2"/>
</g>
<!-- Node2 -->
<g id="node2" class="node">
<title>Node2</title>
<g id="a_node2"><a xlink:href="classvsomeip__v3_1_1protocol_1_1command.html" target="_top" xlink:title=" ">
<polygon fill="white" stroke="black" points="0,-49.5 0,-79.5 110,-79.5 110,-49.5 0,-49.5"/>
<text text-anchor="start" x="8" y="-67.5" font-family="Helvetica" font-size="10.00">vsomeip_v3::protocol</text>
<text text-anchor="middle" x="55" y="-56.5" font-family="Helvetica" font-size="10.00">::command</text>
</a>
</g>
</g>
<!-- Node2&#45;&gt;Node1 -->
<g id="edge1" class="edge">
<title>Node2&#45;&gt;Node1</title>
<path fill="none" stroke="midnightblue" d="M120.23,-64.5C128.65,-64.5 137.3,-64.5 145.79,-64.5"/>
<polygon fill="midnightblue" stroke="midnightblue" points="120.1,-61 110.1,-64.5 120.1,-68 120.1,-61"/>
</g>
</g>
</svg>
