<?xml version="1.0" encoding="UTF-8" standalone="no"?>
<!DOCTYPE svg PUBLIC "-//W3C//DTD SVG 1.1//EN"
 "http://www.w3.org/Graphics/SVG/1.1/DTD/svg11.dtd">
<!-- Generated by graphviz version 2.44.0 (0)
 -->
<!-- Title: vsomeip_v3::protocol::security_policy_response_command_base Pages: 1 -->
<svg width="448pt" height="110pt"
 viewBox="0.00 0.00 448.00 110.00" xmlns="http://www.w3.org/2000/svg" xmlns:xlink="http://www.w3.org/1999/xlink">
<g id="graph0" class="graph" transform="scale(1 1) rotate(0) translate(4 106)">
<title>vsomeip_v3::protocol::security_policy_response_command_base</title>
<polygon fill="white" stroke="transparent" points="-4,4 -4,-106 444,-106 444,4 -4,4"/>
<!-- Node1 -->
<g id="node1" class="node">
<title>Node1</title>
<g id="a_node1"><a xlink:title=" ">
<polygon fill="#bfbfbf" stroke="black" points="146,-30.5 146,-71.5 279,-71.5 279,-30.5 146,-30.5"/>
<text text-anchor="start" x="154" y="-59.5" font-family="Helvetica" font-size="10.00">vsomeip_v3::protocol</text>
<text text-anchor="start" x="154" y="-48.5" font-family="Helvetica" font-size="10.00">::security_policy_response</text>
<text text-anchor="middle" x="212.5" y="-37.5" font-family="Helvetica" font-size="10.00">_command_base</text>
</a>
</g>
</g>
<!-- Node3 -->
<g id="node3" class="node">
<title>Node3</title>
<g id="a_node3"><a xlink:href="classvsomeip__v3_1_1protocol_1_1remove__security__policy__response__command.html" target="_top" xlink:title=" ">
<polygon fill="white" stroke="black" points="315,-60.5 315,-101.5 440,-101.5 440,-60.5 315,-60.5"/>
<text text-anchor="start" x="323" y="-89.5" font-family="Helvetica" font-size="10.00">vsomeip_v3::protocol</text>
<text text-anchor="start" x="323" y="-78.5" font-family="Helvetica" font-size="10.00">::remove_security_policy</text>
<text text-anchor="middle" x="377.5" y="-67.5" font-family="Helvetica" font-size="10.00">_response_command</text>
</a>
</g>
</g>
<!-- Node1&#45;&gt;Node3 -->
<g id="edge2" class="edge">
<title>Node1&#45;&gt;Node3</title>
<path fill="none" stroke="midnightblue" d="M289.33,-64.96C297.9,-66.53 306.55,-68.13 314.91,-69.66"/>
<polygon fill="midnightblue" stroke="midnightblue" points="289.8,-61.48 279.33,-63.12 288.53,-68.37 289.8,-61.48"/>
</g>
<!-- Node4 -->
<g id="node4" class="node">
<title>Node4</title>
<g id="a_node4"><a xlink:href="classvsomeip__v3_1_1protocol_1_1update__security__policy__response__command.html" target="_top" xlink:title=" ">
<polygon fill="white" stroke="black" points="316.5,-0.5 316.5,-41.5 438.5,-41.5 438.5,-0.5 316.5,-0.5"/>
<text text-anchor="start" x="324.5" y="-29.5" font-family="Helvetica" font-size="10.00">vsomeip_v3::protocol</text>
<text text-anchor="start" x="324.5" y="-18.5" font-family="Helvetica" font-size="10.00">::update_security_policy</text>
<text text-anchor="middle" x="377.5" y="-7.5" font-family="Helvetica" font-size="10.00">_response_command</text>
</a>
</g>
</g>
<!-- Node1&#45;&gt;Node4 -->
<g id="edge3" class="edge">
<title>Node1&#45;&gt;Node4</title>
<path fill="none" stroke="midnightblue" d="M289.2,-37.07C298.35,-35.38 307.6,-33.68 316.48,-32.05"/>
<polygon fill="midnightblue" stroke="midnightblue" points="288.53,-33.63 279.33,-38.88 289.8,-40.52 288.53,-33.63"/>
</g>
<!-- Node2 -->
<g id="node2" class="node">
<title>Node2</title>
<g id="a_node2"><a xlink:href="classvsomeip__v3_1_1protocol_1_1command.html" target="_top" xlink:title=" ">
<polygon fill="white" stroke="black" points="0,-36 0,-66 110,-66 110,-36 0,-36"/>
<text text-anchor="start" x="8" y="-54" font-family="Helvetica" font-size="10.00">vsomeip_v3::protocol</text>
<text text-anchor="middle" x="55" y="-43" font-family="Helvetica" font-size="10.00">::command</text>
</a>
</g>
</g>
<!-- Node2&#45;&gt;Node1 -->
<g id="edge1" class="edge">
<title>Node2&#45;&gt;Node1</title>
<path fill="none" stroke="midnightblue" d="M120.5,-51C128.89,-51 137.5,-51 145.92,-51"/>
<polygon fill="midnightblue" stroke="midnightblue" points="120.39,-47.5 110.39,-51 120.39,-54.5 120.39,-47.5"/>
</g>
</g>
</svg>
