<?xml version="1.0" encoding="UTF-8" standalone="no"?>
<!DOCTYPE svg PUBLIC "-//W3C//DTD SVG 1.1//EN"
 "http://www.w3.org/Graphics/SVG/1.1/DTD/svg11.dtd">
<!-- Generated by graphviz version 2.44.0 (0)
 -->
<!-- Title: vsomeip_v3::protocol::distribute_security_policies_command Pages: 1 -->
<svg width="118pt" height="117pt"
 viewBox="0.00 0.00 118.00 117.00" xmlns="http://www.w3.org/2000/svg" xmlns:xlink="http://www.w3.org/1999/xlink">
<g id="graph0" class="graph" transform="scale(1 1) rotate(0) translate(4 113)">
<title>vsomeip_v3::protocol::distribute_security_policies_command</title>
<polygon fill="white" stroke="transparent" points="-4,4 -4,-113 114,-113 114,4 -4,4"/>
<!-- Node1 -->
<g id="node1" class="node">
<title>Node1</title>
<g id="a_node1"><a xlink:title=" ">
<polygon fill="#bfbfbf" stroke="black" points="0,-0.5 0,-41.5 110,-41.5 110,-0.5 0,-0.5"/>
<text text-anchor="start" x="8" y="-29.5" font-family="Helvetica" font-size="10.00">vsomeip_v3::protocol</text>
<text text-anchor="start" x="8" y="-18.5" font-family="Helvetica" font-size="10.00">::distribute_security</text>
<text text-anchor="middle" x="55" y="-7.5" font-family="Helvetica" font-size="10.00">_policies_command</text>
</a>
</g>
</g>
<!-- Node2 -->
<g id="node2" class="node">
<title>Node2</title>
<g id="a_node2"><a xlink:href="classvsomeip__v3_1_1protocol_1_1command.html" target="_top" xlink:title=" ">
<polygon fill="white" stroke="black" points="0,-78.5 0,-108.5 110,-108.5 110,-78.5 0,-78.5"/>
<text text-anchor="start" x="8" y="-96.5" font-family="Helvetica" font-size="10.00">vsomeip_v3::protocol</text>
<text text-anchor="middle" x="55" y="-85.5" font-family="Helvetica" font-size="10.00">::command</text>
</a>
</g>
</g>
<!-- Node2&#45;&gt;Node1 -->
<g id="edge1" class="edge">
<title>Node2&#45;&gt;Node1</title>
<path fill="none" stroke="midnightblue" d="M55,-67.98C55,-59.35 55,-49.76 55,-41.59"/>
<polygon fill="midnightblue" stroke="midnightblue" points="51.5,-68.23 55,-78.23 58.5,-68.23 51.5,-68.23"/>
</g>
</g>
</svg>
