<?xml version="1.0" encoding="UTF-8" standalone="no"?>
<!DOCTYPE svg PUBLIC "-//W3C//DTD SVG 1.1//EN"
 "http://www.w3.org/Graphics/SVG/1.1/DTD/svg11.dtd">
<!-- Generated by graphviz version 2.44.0 (0)
 -->
<!-- Title: vsomeip_v3::protocol::unsubscribe_command Pages: 1 -->
<svg width="147pt" height="173pt"
 viewBox="0.00 0.00 147.00 173.00" xmlns="http://www.w3.org/2000/svg" xmlns:xlink="http://www.w3.org/1999/xlink">
<g id="graph0" class="graph" transform="scale(1 1) rotate(0) translate(4 169)">
<title>vsomeip_v3::protocol::unsubscribe_command</title>
<polygon fill="white" stroke="transparent" points="-4,4 -4,-169 143,-169 143,4 -4,4"/>
<!-- Node1 -->
<g id="node1" class="node">
<title>Node1</title>
<g id="a_node1"><a xlink:title=" ">
<polygon fill="#bfbfbf" stroke="black" points="8,-0.5 8,-30.5 131,-30.5 131,-0.5 8,-0.5"/>
<text text-anchor="start" x="16" y="-18.5" font-family="Helvetica" font-size="10.00">vsomeip_v3::protocol</text>
<text text-anchor="middle" x="69.5" y="-7.5" font-family="Helvetica" font-size="10.00">::unsubscribe_command</text>
</a>
</g>
</g>
<!-- Node2 -->
<g id="node2" class="node">
<title>Node2</title>
<g id="a_node2"><a xlink:href="classvsomeip__v3_1_1protocol_1_1subscribe__command__base.html" target="_top" xlink:title=" ">
<polygon fill="white" stroke="black" points="0,-67.5 0,-97.5 139,-97.5 139,-67.5 0,-67.5"/>
<text text-anchor="start" x="8" y="-85.5" font-family="Helvetica" font-size="10.00">vsomeip_v3::protocol</text>
<text text-anchor="middle" x="69.5" y="-74.5" font-family="Helvetica" font-size="10.00">::subscribe_command_base</text>
</a>
</g>
</g>
<!-- Node2&#45;&gt;Node1 -->
<g id="edge1" class="edge">
<title>Node2&#45;&gt;Node1</title>
<path fill="none" stroke="midnightblue" d="M69.5,-57.11C69.5,-48.15 69.5,-38.32 69.5,-30.58"/>
<polygon fill="midnightblue" stroke="midnightblue" points="66,-57.4 69.5,-67.4 73,-57.4 66,-57.4"/>
</g>
<!-- Node3 -->
<g id="node3" class="node">
<title>Node3</title>
<g id="a_node3"><a xlink:href="classvsomeip__v3_1_1protocol_1_1command.html" target="_top" xlink:title=" ">
<polygon fill="white" stroke="black" points="14.5,-134.5 14.5,-164.5 124.5,-164.5 124.5,-134.5 14.5,-134.5"/>
<text text-anchor="start" x="22.5" y="-152.5" font-family="Helvetica" font-size="10.00">vsomeip_v3::protocol</text>
<text text-anchor="middle" x="69.5" y="-141.5" font-family="Helvetica" font-size="10.00">::command</text>
</a>
</g>
</g>
<!-- Node3&#45;&gt;Node2 -->
<g id="edge2" class="edge">
<title>Node3&#45;&gt;Node2</title>
<path fill="none" stroke="midnightblue" d="M69.5,-124.11C69.5,-115.15 69.5,-105.32 69.5,-97.58"/>
<polygon fill="midnightblue" stroke="midnightblue" points="66,-124.4 69.5,-134.4 73,-124.4 66,-124.4"/>
</g>
</g>
</svg>
