<?xml version="1.0" encoding="UTF-8" standalone="no"?>
<!DOCTYPE svg PUBLIC "-//W3C//DTD SVG 1.1//EN"
 "http://www.w3.org/Graphics/SVG/1.1/DTD/svg11.dtd">
<!-- Generated by graphviz version 2.44.0 (0)
 -->
<!-- Title: vsomeip_v3::routing_manager_impl Pages: 1 -->
<svg width="436pt" height="181pt"
 viewBox="0.00 0.00 436.00 181.00" xmlns="http://www.w3.org/2000/svg" xmlns:xlink="http://www.w3.org/1999/xlink">
<g id="graph0" class="graph" transform="scale(1 1) rotate(0) translate(4 177)">
<title>vsomeip_v3::routing_manager_impl</title>
<polygon fill="white" stroke="transparent" points="-4,4 -4,-177 432,-177 432,4 -4,4"/>
<!-- Node1 -->
<g id="node1" class="node">
<title>Node1</title>
<g id="a_node1"><a xlink:title=" ">
<polygon fill="#bfbfbf" stroke="black" points="324,-49.5 324,-79.5 428,-79.5 428,-49.5 324,-49.5"/>
<text text-anchor="start" x="332" y="-67.5" font-family="Helvetica" font-size="10.00">vsomeip_v3::routing</text>
<text text-anchor="middle" x="376" y="-56.5" font-family="Helvetica" font-size="10.00">_manager_impl</text>
</a>
</g>
</g>
<!-- Node2 -->
<g id="node2" class="node">
<title>Node2</title>
<g id="a_node2"><a xlink:href="classvsomeip__v3_1_1routing__manager__base.html" target="_top" xlink:title=" ">
<polygon fill="white" stroke="black" points="174,-98.5 174,-128.5 278,-128.5 278,-98.5 174,-98.5"/>
<text text-anchor="start" x="182" y="-116.5" font-family="Helvetica" font-size="10.00">vsomeip_v3::routing</text>
<text text-anchor="middle" x="226" y="-105.5" font-family="Helvetica" font-size="10.00">_manager_base</text>
</a>
</g>
</g>
<!-- Node2&#45;&gt;Node1 -->
<g id="edge1" class="edge">
<title>Node2&#45;&gt;Node1</title>
<path fill="none" stroke="midnightblue" d="M282.15,-95.24C297.76,-90.07 314.57,-84.51 329.54,-79.55"/>
<polygon fill="midnightblue" stroke="midnightblue" points="281.01,-91.93 272.61,-98.4 283.21,-98.58 281.01,-91.93"/>
</g>
<!-- Node3 -->
<g id="node3" class="node">
<title>Node3</title>
<g id="a_node3"><a xlink:href="classvsomeip__v3_1_1routing__manager.html" target="_top" xlink:title=" ">
<polygon fill="white" stroke="black" points="12,-142.5 12,-172.5 116,-172.5 116,-142.5 12,-142.5"/>
<text text-anchor="start" x="20" y="-160.5" font-family="Helvetica" font-size="10.00">vsomeip_v3::routing</text>
<text text-anchor="middle" x="64" y="-149.5" font-family="Helvetica" font-size="10.00">_manager</text>
</a>
</g>
</g>
<!-- Node3&#45;&gt;Node2 -->
<g id="edge2" class="edge">
<title>Node3&#45;&gt;Node2</title>
<path fill="none" stroke="midnightblue" d="M125.78,-140.79C141.64,-136.42 158.57,-131.77 173.87,-127.56"/>
<polygon fill="midnightblue" stroke="midnightblue" points="124.78,-137.43 116.06,-143.46 126.64,-144.18 124.78,-137.43"/>
</g>
<!-- Node4 -->
<g id="node4" class="node">
<title>Node4</title>
<g id="a_node4"><a xlink:href="classvsomeip__v3_1_1routing__host.html" target="_top" xlink:title=" ">
<polygon fill="white" stroke="black" points="0,-104 0,-123 128,-123 128,-104 0,-104"/>
<text text-anchor="middle" x="64" y="-111" font-family="Helvetica" font-size="10.00">vsomeip_v3::routing_host</text>
</a>
</g>
</g>
<!-- Node4&#45;&gt;Node2 -->
<g id="edge3" class="edge">
<title>Node4&#45;&gt;Node2</title>
<path fill="none" stroke="midnightblue" d="M138.25,-113.5C150.25,-113.5 162.46,-113.5 173.79,-113.5"/>
<polygon fill="midnightblue" stroke="midnightblue" points="138.24,-110 128.24,-113.5 138.24,-117 138.24,-110"/>
</g>
<!-- Node5 -->
<g id="node5" class="node">
<title>Node5</title>
<g id="a_node5"><a xlink:title=" ">
<polygon fill="white" stroke="black" points="13.5,-44 13.5,-85 114.5,-85 114.5,-44 13.5,-44"/>
<text text-anchor="start" x="21.5" y="-73" font-family="Helvetica" font-size="10.00">std::enable_shared</text>
<text text-anchor="start" x="21.5" y="-62" font-family="Helvetica" font-size="10.00">_from_this&lt; routing</text>
<text text-anchor="middle" x="64" y="-51" font-family="Helvetica" font-size="10.00">_manager_base &gt;</text>
</a>
</g>
</g>
<!-- Node5&#45;&gt;Node2 -->
<g id="edge4" class="edge">
<title>Node5&#45;&gt;Node2</title>
<path fill="none" stroke="midnightblue" d="M124.52,-82.73C141.42,-87.9 159.62,-93.48 175.83,-98.44"/>
<polygon fill="midnightblue" stroke="midnightblue" points="125.33,-79.32 114.75,-79.74 123.28,-86.01 125.33,-79.32"/>
</g>
<!-- Node6 -->
<g id="node6" class="node">
<title>Node6</title>
<g id="a_node6"><a xlink:href="classvsomeip__v3_1_1routing__manager__stub__host.html" target="_top" xlink:title=" ">
<polygon fill="white" stroke="black" points="172.5,-49.5 172.5,-79.5 279.5,-79.5 279.5,-49.5 172.5,-49.5"/>
<text text-anchor="start" x="180.5" y="-67.5" font-family="Helvetica" font-size="10.00">vsomeip_v3::routing</text>
<text text-anchor="middle" x="226" y="-56.5" font-family="Helvetica" font-size="10.00">_manager_stub_host</text>
</a>
</g>
</g>
<!-- Node6&#45;&gt;Node1 -->
<g id="edge5" class="edge">
<title>Node6&#45;&gt;Node1</title>
<path fill="none" stroke="midnightblue" d="M289.81,-64.5C301.06,-64.5 312.68,-64.5 323.57,-64.5"/>
<polygon fill="midnightblue" stroke="midnightblue" points="289.6,-61 279.6,-64.5 289.6,-68 289.6,-61"/>
</g>
<!-- Node7 -->
<g id="node7" class="node">
<title>Node7</title>
<g id="a_node7"><a xlink:href="classvsomeip__v3_1_1sd_1_1service__discovery__host.html" target="_top" xlink:title=" ">
<polygon fill="white" stroke="black" points="164,-0.5 164,-30.5 288,-30.5 288,-0.5 164,-0.5"/>
<text text-anchor="start" x="172" y="-18.5" font-family="Helvetica" font-size="10.00">vsomeip_v3::sd::service</text>
<text text-anchor="middle" x="226" y="-7.5" font-family="Helvetica" font-size="10.00">_discovery_host</text>
</a>
</g>
</g>
<!-- Node7&#45;&gt;Node1 -->
<g id="edge6" class="edge">
<title>Node7&#45;&gt;Node1</title>
<path fill="none" stroke="midnightblue" d="M282.15,-33.76C297.76,-38.93 314.57,-44.49 329.54,-49.45"/>
<polygon fill="midnightblue" stroke="midnightblue" points="283.21,-30.42 272.61,-30.6 281.01,-37.07 283.21,-30.42"/>
</g>
</g>
</svg>
