<?xml version="1.0" encoding="UTF-8" standalone="no"?>
<!DOCTYPE svg PUBLIC "-//W3C//DTD SVG 1.1//EN"
 "http://www.w3.org/Graphics/SVG/1.1/DTD/svg11.dtd">
<!-- Generated by graphviz version 2.44.0 (0)
 -->
<!-- Title: vsomeip_v3::sd::serviceentry_impl Pages: 1 -->
<svg width="293pt" height="499pt"
 viewBox="0.00 0.00 292.50 499.00" xmlns="http://www.w3.org/2000/svg" xmlns:xlink="http://www.w3.org/1999/xlink">
<g id="graph0" class="graph" transform="scale(1 1) rotate(0) translate(4 495)">
<title>vsomeip_v3::sd::serviceentry_impl</title>
<polygon fill="white" stroke="transparent" points="-4,4 -4,-495 288.5,-495 288.5,4 -4,4"/>
<!-- Node1 -->
<g id="node1" class="node">
<title>Node1</title>
<g id="a_node1"><a xlink:title=" ">
<polygon fill="#bfbfbf" stroke="black" points="99,-0.5 99,-19.5 269,-19.5 269,-0.5 99,-0.5"/>
<text text-anchor="middle" x="184" y="-7.5" font-family="Helvetica" font-size="10.00">vsomeip_v3::sd::serviceentry_impl</text>
</a>
</g>
</g>
<!-- Node2 -->
<g id="node2" class="node">
<title>Node2</title>
<g id="a_node2"><a xlink:href="classvsomeip__v3_1_1sd_1_1entry__impl.html" target="_top" xlink:title=" ">
<polygon fill="white" stroke="black" points="115.5,-57.5 115.5,-76.5 252.5,-76.5 252.5,-57.5 115.5,-57.5"/>
<text text-anchor="middle" x="184" y="-64.5" font-family="Helvetica" font-size="10.00">vsomeip_v3::sd::entry_impl</text>
</a>
</g>
</g>
<!-- Node2&#45;&gt;Node1 -->
<g id="edge1" class="edge">
<title>Node2&#45;&gt;Node1</title>
<path fill="none" stroke="midnightblue" d="M184,-47.12C184,-37.82 184,-27.06 184,-19.71"/>
<polygon fill="midnightblue" stroke="midnightblue" points="180.5,-47.41 184,-57.41 187.5,-47.41 180.5,-47.41"/>
</g>
<!-- Node3 -->
<g id="node3" class="node">
<title>Node3</title>
<g id="a_node3"><a xlink:href="classvsomeip__v3_1_1sd_1_1message__element__impl.html" target="_top" xlink:title=" ">
<polygon fill="white" stroke="black" points="118.5,-114.5 118.5,-144.5 249.5,-144.5 249.5,-114.5 118.5,-114.5"/>
<text text-anchor="start" x="126.5" y="-132.5" font-family="Helvetica" font-size="10.00">vsomeip_v3::sd::message</text>
<text text-anchor="middle" x="184" y="-121.5" font-family="Helvetica" font-size="10.00">_element_impl</text>
</a>
</g>
</g>
<!-- Node3&#45;&gt;Node2 -->
<g id="edge2" class="edge">
<title>Node3&#45;&gt;Node2</title>
<path fill="none" stroke="midnightblue" d="M184,-104.35C184,-94.51 184,-83.78 184,-76.54"/>
<polygon fill="midnightblue" stroke="midnightblue" points="180.5,-104.47 184,-114.47 187.5,-104.47 180.5,-104.47"/>
</g>
<!-- Node4 -->
<g id="node4" class="node">
<title>Node4</title>
<g id="a_node4"><a xlink:href="classvsomeip__v3_1_1sd_1_1message__impl.html" target="_top" xlink:title=" ">
<polygon fill="white" stroke="black" points="106.5,-192.5 106.5,-211.5 261.5,-211.5 261.5,-192.5 106.5,-192.5"/>
<text text-anchor="middle" x="184" y="-199.5" font-family="Helvetica" font-size="10.00">vsomeip_v3::sd::message_impl</text>
</a>
</g>
</g>
<!-- Node4&#45;&gt;Node3 -->
<g id="edge3" class="edge">
<title>Node4&#45;&gt;Node3</title>
<path fill="none" stroke="#9a32cd" stroke-dasharray="5,2" d="M184,-182.24C184,-170.41 184,-155.38 184,-144.58"/>
<polygon fill="#9a32cd" stroke="#9a32cd" points="180.5,-182.36 184,-192.36 187.5,-182.36 180.5,-182.36"/>
<text text-anchor="middle" x="201.5" y="-166" font-family="Helvetica" font-size="10.00"> owner_</text>
</g>
<!-- Node5 -->
<g id="node5" class="node">
<title>Node5</title>
<g id="a_node5"><a xlink:href="classvsomeip__v3_1_1message.html" target="_top" xlink:title="Implements regular SOME/IP messages.">
<polygon fill="white" stroke="black" points="169.5,-298.5 169.5,-317.5 284.5,-317.5 284.5,-298.5 169.5,-298.5"/>
<text text-anchor="middle" x="227" y="-305.5" font-family="Helvetica" font-size="10.00">vsomeip_v3::message</text>
</a>
</g>
</g>
<!-- Node5&#45;&gt;Node4 -->
<g id="edge4" class="edge">
<title>Node5&#45;&gt;Node4</title>
<path fill="none" stroke="midnightblue" d="M221.29,-288.45C217.58,-276.94 212.44,-261.95 207,-249 201.4,-235.67 193.67,-220.79 188.76,-211.66"/>
<polygon fill="midnightblue" stroke="midnightblue" points="218.03,-289.73 224.37,-298.22 224.7,-287.63 218.03,-289.73"/>
</g>
<!-- Node6 -->
<g id="node6" class="node">
<title>Node6</title>
<g id="a_node6"><a xlink:href="classvsomeip__v3_1_1message__base.html" target="_top" xlink:title="Base class to implement SOME/IP messages.">
<polygon fill="white" stroke="black" points="90.5,-414.5 90.5,-433.5 231.5,-433.5 231.5,-414.5 90.5,-414.5"/>
<text text-anchor="middle" x="161" y="-421.5" font-family="Helvetica" font-size="10.00">vsomeip_v3::message_base</text>
</a>
</g>
</g>
<!-- Node6&#45;&gt;Node5 -->
<g id="edge5" class="edge">
<title>Node6&#45;&gt;Node5</title>
<path fill="none" stroke="midnightblue" d="M170.99,-405.74C185.31,-381.01 211.13,-336.41 221.98,-317.67"/>
<polygon fill="midnightblue" stroke="midnightblue" points="167.94,-404.02 165.96,-414.43 174,-407.53 167.94,-404.02"/>
</g>
<!-- Node9 -->
<g id="node9" class="node">
<title>Node9</title>
<g id="a_node9"><a xlink:href="classvsomeip__v3_1_1message__base__impl.html" target="_top" xlink:title=" ">
<polygon fill="white" stroke="black" points="83.5,-249.5 83.5,-279.5 198.5,-279.5 198.5,-249.5 83.5,-249.5"/>
<text text-anchor="start" x="91.5" y="-267.5" font-family="Helvetica" font-size="10.00">vsomeip_v3::message</text>
<text text-anchor="middle" x="141" y="-256.5" font-family="Helvetica" font-size="10.00">_base_impl</text>
</a>
</g>
</g>
<!-- Node6&#45;&gt;Node9 -->
<g id="edge9" class="edge">
<title>Node6&#45;&gt;Node9</title>
<path fill="none" stroke="midnightblue" d="M158.56,-403.81C154.48,-371.69 146.37,-307.77 142.78,-279.51"/>
<polygon fill="midnightblue" stroke="midnightblue" points="155.14,-404.6 159.87,-414.08 162.08,-403.72 155.14,-404.6"/>
</g>
<!-- Node10 -->
<g id="node10" class="node">
<title>Node10</title>
<g id="a_node10"><a xlink:href="classvsomeip__v3_1_1message__header__impl.html" target="_top" xlink:title=" ">
<polygon fill="white" stroke="black" points="10.5,-336.5 10.5,-366.5 125.5,-366.5 125.5,-336.5 10.5,-336.5"/>
<text text-anchor="start" x="18.5" y="-354.5" font-family="Helvetica" font-size="10.00">vsomeip_v3::message</text>
<text text-anchor="middle" x="68" y="-343.5" font-family="Helvetica" font-size="10.00">_header_impl</text>
</a>
</g>
</g>
<!-- Node6&#45;&gt;Node10 -->
<g id="edge12" class="edge">
<title>Node6&#45;&gt;Node10</title>
<path fill="none" stroke="#9a32cd" stroke-dasharray="5,2" d="M128.67,-410.23C120.55,-406.28 112.12,-401.5 105,-396 94.33,-387.76 84.55,-376 77.73,-366.78"/>
<polygon fill="#9a32cd" stroke="#9a32cd" points="127.41,-413.51 137.96,-414.47 130.32,-407.14 127.41,-413.51"/>
<text text-anchor="middle" x="122.5" y="-388" font-family="Helvetica" font-size="10.00"> owner_</text>
</g>
<!-- Node7 -->
<g id="node7" class="node">
<title>Node7</title>
<g id="a_node7"><a xlink:href="classvsomeip__v3_1_1serializable.html" target="_top" xlink:title=" ">
<polygon fill="white" stroke="black" points="0,-471.5 0,-490.5 124,-490.5 124,-471.5 0,-471.5"/>
<text text-anchor="middle" x="62" y="-478.5" font-family="Helvetica" font-size="10.00">vsomeip_v3::serializable</text>
</a>
</g>
</g>
<!-- Node7&#45;&gt;Node6 -->
<g id="edge6" class="edge">
<title>Node7&#45;&gt;Node6</title>
<path fill="none" stroke="midnightblue" d="M86.24,-466.54C104.77,-456.24 129.77,-442.35 145.64,-433.53"/>
<polygon fill="midnightblue" stroke="midnightblue" points="84.51,-463.49 77.47,-471.41 87.91,-469.61 84.51,-463.49"/>
</g>
<!-- Node7&#45;&gt;Node10 -->
<g id="edge11" class="edge">
<title>Node7&#45;&gt;Node10</title>
<path fill="none" stroke="midnightblue" d="M62.88,-461.24C64.1,-435.46 66.25,-389.65 67.34,-366.59"/>
<polygon fill="midnightblue" stroke="midnightblue" points="59.39,-461.08 62.41,-471.24 66.38,-461.41 59.39,-461.08"/>
</g>
<!-- Node8 -->
<g id="node8" class="node">
<title>Node8</title>
<g id="a_node8"><a xlink:href="classvsomeip__v3_1_1deserializable.html" target="_top" xlink:title=" ">
<polygon fill="white" stroke="black" points="142,-471.5 142,-490.5 276,-490.5 276,-471.5 142,-471.5"/>
<text text-anchor="middle" x="209" y="-478.5" font-family="Helvetica" font-size="10.00">vsomeip_v3::deserializable</text>
</a>
</g>
</g>
<!-- Node8&#45;&gt;Node6 -->
<g id="edge7" class="edge">
<title>Node8&#45;&gt;Node6</title>
<path fill="none" stroke="midnightblue" d="M194.89,-463.83C186.29,-453.98 175.65,-441.78 168.61,-433.71"/>
<polygon fill="midnightblue" stroke="midnightblue" points="192.29,-466.17 201.5,-471.41 197.56,-461.57 192.29,-466.17"/>
</g>
<!-- Node9&#45;&gt;Node4 -->
<g id="edge8" class="edge">
<title>Node9&#45;&gt;Node4</title>
<path fill="none" stroke="midnightblue" d="M156.83,-241.22C164.17,-230.9 172.46,-219.24 177.93,-211.54"/>
<polygon fill="midnightblue" stroke="midnightblue" points="153.91,-239.29 150.97,-249.47 159.62,-243.34 153.91,-239.29"/>
</g>
<!-- Node10&#45;&gt;Node9 -->
<g id="edge10" class="edge">
<title>Node10&#45;&gt;Node9</title>
<path fill="none" stroke="#9a32cd" stroke-dasharray="5,2" d="M80.73,-327.64C86.6,-318.02 94.03,-306.99 102,-298 107.85,-291.41 115.08,-285 121.72,-279.65"/>
<polygon fill="#9a32cd" stroke="#9a32cd" points="77.67,-325.93 75.61,-336.32 83.7,-329.48 77.67,-325.93"/>
<text text-anchor="middle" x="121" y="-305.5" font-family="Helvetica" font-size="10.00"> header_</text>
</g>
</g>
</svg>
