<?xml version="1.0" encoding="UTF-8" standalone="no"?>
<!DOCTYPE svg PUBLIC "-//W3C//DTD SVG 1.1//EN"
 "http://www.w3.org/Graphics/SVG/1.1/DTD/svg11.dtd">
<!-- Generated by graphviz version 2.44.0 (0)
 -->
<!-- Title: vsomeip_v3::protocol::subscribe_ack_command_base Pages: 1 -->
<svg width="489pt" height="88pt"
 viewBox="0.00 0.00 489.00 88.00" xmlns="http://www.w3.org/2000/svg" xmlns:xlink="http://www.w3.org/1999/xlink">
<g id="graph0" class="graph" transform="scale(1 1) rotate(0) translate(4 84)">
<title>vsomeip_v3::protocol::subscribe_ack_command_base</title>
<polygon fill="white" stroke="transparent" points="-4,4 -4,-84 485,-84 485,4 -4,4"/>
<!-- Node1 -->
<g id="node1" class="node">
<title>Node1</title>
<g id="a_node1"><a xlink:title=" ">
<polygon fill="#bfbfbf" stroke="black" points="146,-24.5 146,-54.5 306,-54.5 306,-24.5 146,-24.5"/>
<text text-anchor="start" x="154" y="-42.5" font-family="Helvetica" font-size="10.00">vsomeip_v3::protocol</text>
<text text-anchor="middle" x="226" y="-31.5" font-family="Helvetica" font-size="10.00">::subscribe_ack_command_base</text>
</a>
</g>
</g>
<!-- Node3 -->
<g id="node3" class="node">
<title>Node3</title>
<g id="a_node3"><a xlink:href="classvsomeip__v3_1_1protocol_1_1subscribe__ack__command.html" target="_top" xlink:title=" ">
<polygon fill="white" stroke="black" points="344.5,-49.5 344.5,-79.5 478.5,-79.5 478.5,-49.5 344.5,-49.5"/>
<text text-anchor="start" x="352.5" y="-67.5" font-family="Helvetica" font-size="10.00">vsomeip_v3::protocol</text>
<text text-anchor="middle" x="411.5" y="-56.5" font-family="Helvetica" font-size="10.00">::subscribe_ack_command</text>
</a>
</g>
</g>
<!-- Node1&#45;&gt;Node3 -->
<g id="edge2" class="edge">
<title>Node1&#45;&gt;Node3</title>
<path fill="none" stroke="midnightblue" d="M316.33,-51.67C325.74,-52.95 335.18,-54.24 344.26,-55.48"/>
<polygon fill="midnightblue" stroke="midnightblue" points="316.53,-48.17 306.15,-50.28 315.59,-55.1 316.53,-48.17"/>
</g>
<!-- Node4 -->
<g id="node4" class="node">
<title>Node4</title>
<g id="a_node4"><a xlink:href="classvsomeip__v3_1_1protocol_1_1subscribe__nack__command.html" target="_top" xlink:title=" ">
<polygon fill="white" stroke="black" points="342,-0.5 342,-30.5 481,-30.5 481,-0.5 342,-0.5"/>
<text text-anchor="start" x="350" y="-18.5" font-family="Helvetica" font-size="10.00">vsomeip_v3::protocol</text>
<text text-anchor="middle" x="411.5" y="-7.5" font-family="Helvetica" font-size="10.00">::subscribe_nack_command</text>
</a>
</g>
</g>
<!-- Node1&#45;&gt;Node4 -->
<g id="edge3" class="edge">
<title>Node1&#45;&gt;Node4</title>
<path fill="none" stroke="midnightblue" d="M316.27,-27.82C324.91,-26.69 333.59,-25.56 341.99,-24.46"/>
<polygon fill="midnightblue" stroke="midnightblue" points="315.61,-24.38 306.15,-29.15 316.52,-31.32 315.61,-24.38"/>
</g>
<!-- Node2 -->
<g id="node2" class="node">
<title>Node2</title>
<g id="a_node2"><a xlink:href="classvsomeip__v3_1_1protocol_1_1command.html" target="_top" xlink:title=" ">
<polygon fill="white" stroke="black" points="0,-24.5 0,-54.5 110,-54.5 110,-24.5 0,-24.5"/>
<text text-anchor="start" x="8" y="-42.5" font-family="Helvetica" font-size="10.00">vsomeip_v3::protocol</text>
<text text-anchor="middle" x="55" y="-31.5" font-family="Helvetica" font-size="10.00">::command</text>
</a>
</g>
</g>
<!-- Node2&#45;&gt;Node1 -->
<g id="edge1" class="edge">
<title>Node2&#45;&gt;Node1</title>
<path fill="none" stroke="midnightblue" d="M120.65,-39.5C128.87,-39.5 137.36,-39.5 145.78,-39.5"/>
<polygon fill="midnightblue" stroke="midnightblue" points="120.4,-36 110.4,-39.5 120.4,-43 120.4,-36"/>
</g>
</g>
</svg>
