<?xml version="1.0" encoding="UTF-8" standalone="no"?>
<!DOCTYPE svg PUBLIC "-//W3C//DTD SVG 1.1//EN"
 "http://www.w3.org/Graphics/SVG/1.1/DTD/svg11.dtd">
<!-- Generated by graphviz version 2.44.0 (0)
 -->
<!-- Title: boost::asio::basic_stream_socket_ext&lt; Protocol, StreamSocketService &gt; Pages: 1 -->
<svg width="174pt" height="128pt"
 viewBox="0.00 0.00 174.00 128.00" xmlns="http://www.w3.org/2000/svg" xmlns:xlink="http://www.w3.org/1999/xlink">
<g id="graph0" class="graph" transform="scale(1 1) rotate(0) translate(4 124)">
<title>boost::asio::basic_stream_socket_ext&lt; Protocol, StreamSocketService &gt;</title>
<polygon fill="white" stroke="transparent" points="-4,4 -4,-124 170,-124 170,4 -4,4"/>
<!-- Node1 -->
<g id="node1" class="node">
<title>Node1</title>
<g id="a_node1"><a xlink:title="Provides stream&#45;oriented socket functionality.">
<polygon fill="#bfbfbf" stroke="black" points="0,-0.5 0,-41.5 166,-41.5 166,-0.5 0,-0.5"/>
<text text-anchor="start" x="8" y="-29.5" font-family="Helvetica" font-size="10.00">boost::asio::basic</text>
<text text-anchor="start" x="8" y="-18.5" font-family="Helvetica" font-size="10.00">_stream_socket_ext&lt;</text>
<text text-anchor="middle" x="83" y="-7.5" font-family="Helvetica" font-size="10.00"> Protocol, StreamSocketService &gt;</text>
</a>
</g>
</g>
<!-- Node2 -->
<g id="node2" class="node">
<title>Node2</title>
<g id="a_node2"><a xlink:title=" ">
<polygon fill="white" stroke="black" points="22,-78.5 22,-119.5 144,-119.5 144,-78.5 22,-78.5"/>
<text text-anchor="start" x="30" y="-107.5" font-family="Helvetica" font-size="10.00">basic_socket&lt; Protocol,</text>
<text text-anchor="start" x="30" y="-96.5" font-family="Helvetica" font-size="10.00"> stream_socket_service</text>
<text text-anchor="middle" x="83" y="-85.5" font-family="Helvetica" font-size="10.00">_ext&lt; Protocol &gt; &gt;</text>
</a>
</g>
</g>
<!-- Node2&#45;&gt;Node1 -->
<g id="edge1" class="edge">
<title>Node2&#45;&gt;Node1</title>
<path fill="none" stroke="midnightblue" d="M83,-68.3C83,-59.3 83,-49.65 83,-41.51"/>
<polygon fill="midnightblue" stroke="midnightblue" points="79.5,-68.43 83,-78.43 86.5,-68.43 79.5,-68.43"/>
</g>
</g>
</svg>
