<?xml version="1.0" encoding="UTF-8" standalone="no"?>
<!DOCTYPE svg PUBLIC "-//W3C//DTD SVG 1.1//EN"
 "http://www.w3.org/Graphics/SVG/1.1/DTD/svg11.dtd">
<!-- Generated by graphviz version 2.44.0 (0)
 -->
<!-- Title: vsomeip_v3::e2e::profile_interface::profile_interface Pages: 1 -->
<svg width="473pt" height="492pt"
 viewBox="0.00 0.00 473.00 492.00" xmlns="http://www.w3.org/2000/svg" xmlns:xlink="http://www.w3.org/1999/xlink">
<g id="graph0" class="graph" transform="scale(1 1) rotate(0) translate(4 488)">
<title>vsomeip_v3::e2e::profile_interface::profile_interface</title>
<polygon fill="white" stroke="transparent" points="-4,4 -4,-488 469,-488 469,4 -4,4"/>
<!-- Node1 -->
<g id="node1" class="node">
<title>Node1</title>
<g id="a_node1"><a xlink:title=" ">
<polygon fill="#bfbfbf" stroke="black" points="0,-202.5 0,-232.5 136,-232.5 136,-202.5 0,-202.5"/>
<text text-anchor="start" x="8" y="-220.5" font-family="Helvetica" font-size="10.00">vsomeip_v3::e2e::profile</text>
<text text-anchor="middle" x="68" y="-209.5" font-family="Helvetica" font-size="10.00">_interface::profile_interface</text>
</a>
</g>
</g>
<!-- Node2 -->
<g id="node2" class="node">
<title>Node2</title>
<g id="a_node2"><a xlink:href="classvsomeip__v3_1_1e2e_1_1profile__interface_1_1checker.html" target="_top" xlink:title=" ">
<polygon fill="white" stroke="black" points="172,-330.5 172,-360.5 295,-360.5 295,-330.5 172,-330.5"/>
<text text-anchor="start" x="180" y="-348.5" font-family="Helvetica" font-size="10.00">vsomeip_v3::e2e::profile</text>
<text text-anchor="middle" x="233.5" y="-337.5" font-family="Helvetica" font-size="10.00">_interface::checker</text>
</a>
</g>
</g>
<!-- Node1&#45;&gt;Node2 -->
<g id="edge1" class="edge">
<title>Node1&#45;&gt;Node2</title>
<path fill="none" stroke="midnightblue" d="M96.3,-238.87C129.34,-264.74 184.13,-307.64 213.13,-330.33"/>
<polygon fill="midnightblue" stroke="midnightblue" points="98.43,-236.09 88.4,-232.69 94.11,-241.61 98.43,-236.09"/>
</g>
<!-- Node8 -->
<g id="node8" class="node">
<title>Node8</title>
<g id="a_node8"><a xlink:href="classvsomeip__v3_1_1e2e_1_1profile__interface_1_1protector.html" target="_top" xlink:title=" ">
<polygon fill="white" stroke="black" points="172,-123.5 172,-153.5 295,-153.5 295,-123.5 172,-123.5"/>
<text text-anchor="start" x="180" y="-141.5" font-family="Helvetica" font-size="10.00">vsomeip_v3::e2e::profile</text>
<text text-anchor="middle" x="233.5" y="-130.5" font-family="Helvetica" font-size="10.00">_interface::protector</text>
</a>
</g>
</g>
<!-- Node1&#45;&gt;Node8 -->
<g id="edge7" class="edge">
<title>Node1&#45;&gt;Node8</title>
<path fill="none" stroke="midnightblue" d="M109.38,-197.99C137.73,-184.29 175.1,-166.24 201.2,-153.62"/>
<polygon fill="midnightblue" stroke="midnightblue" points="107.62,-194.95 100.14,-202.45 110.66,-201.26 107.62,-194.95"/>
</g>
<!-- Node3 -->
<g id="node3" class="node">
<title>Node3</title>
<g id="a_node3"><a xlink:href="classvsomeip__v3_1_1e2e_1_1profile01_1_1profile__01__checker.html" target="_top" xlink:title=" ">
<polygon fill="white" stroke="black" points="331,-453.5 331,-483.5 465,-483.5 465,-453.5 331,-453.5"/>
<text text-anchor="start" x="339" y="-471.5" font-family="Helvetica" font-size="10.00">vsomeip_v3::e2e::profile01</text>
<text text-anchor="middle" x="398" y="-460.5" font-family="Helvetica" font-size="10.00">::profile_01_checker</text>
</a>
</g>
</g>
<!-- Node2&#45;&gt;Node3 -->
<g id="edge2" class="edge">
<title>Node2&#45;&gt;Node3</title>
<path fill="none" stroke="midnightblue" d="M251.85,-368.57C269.58,-390.73 299,-423.83 331,-444.5 336.22,-447.87 341.98,-450.86 347.86,-453.47"/>
<polygon fill="midnightblue" stroke="midnightblue" points="254.57,-366.36 245.64,-360.65 249.06,-370.68 254.57,-366.36"/>
</g>
<!-- Node4 -->
<g id="node4" class="node">
<title>Node4</title>
<g id="a_node4"><a xlink:href="classvsomeip__v3_1_1e2e_1_1profile04_1_1profile__04__checker.html" target="_top" xlink:title=" ">
<polygon fill="white" stroke="black" points="331,-404.5 331,-434.5 465,-434.5 465,-404.5 331,-404.5"/>
<text text-anchor="start" x="339" y="-422.5" font-family="Helvetica" font-size="10.00">vsomeip_v3::e2e::profile04</text>
<text text-anchor="middle" x="398" y="-411.5" font-family="Helvetica" font-size="10.00">::profile_04_checker</text>
</a>
</g>
</g>
<!-- Node2&#45;&gt;Node4 -->
<g id="edge3" class="edge">
<title>Node2&#45;&gt;Node4</title>
<path fill="none" stroke="midnightblue" d="M270.45,-365.54C288.38,-375.16 310.55,-386.53 331,-395.5 338.03,-398.59 345.6,-401.61 353.02,-404.41"/>
<polygon fill="midnightblue" stroke="midnightblue" points="271.95,-362.37 261.5,-360.68 268.62,-368.52 271.95,-362.37"/>
</g>
<!-- Node5 -->
<g id="node5" class="node">
<title>Node5</title>
<g id="a_node5"><a xlink:href="classvsomeip__v3_1_1e2e_1_1profile05_1_1profile__05__checker.html" target="_top" xlink:title=" ">
<polygon fill="white" stroke="black" points="331,-355.5 331,-385.5 465,-385.5 465,-355.5 331,-355.5"/>
<text text-anchor="start" x="339" y="-373.5" font-family="Helvetica" font-size="10.00">vsomeip_v3::e2e::profile05</text>
<text text-anchor="middle" x="398" y="-362.5" font-family="Helvetica" font-size="10.00">::profile_05_checker</text>
</a>
</g>
</g>
<!-- Node2&#45;&gt;Node5 -->
<g id="edge4" class="edge">
<title>Node2&#45;&gt;Node5</title>
<path fill="none" stroke="midnightblue" d="M305.03,-356.35C313.65,-357.68 322.43,-359.03 330.99,-360.34"/>
<polygon fill="midnightblue" stroke="midnightblue" points="305.42,-352.87 295.01,-354.81 304.36,-359.79 305.42,-352.87"/>
</g>
<!-- Node6 -->
<g id="node6" class="node">
<title>Node6</title>
<g id="a_node6"><a xlink:href="classvsomeip__v3_1_1e2e_1_1profile07_1_1profile__07__checker.html" target="_top" xlink:title=" ">
<polygon fill="white" stroke="black" points="331,-306.5 331,-336.5 465,-336.5 465,-306.5 331,-306.5"/>
<text text-anchor="start" x="339" y="-324.5" font-family="Helvetica" font-size="10.00">vsomeip_v3::e2e::profile07</text>
<text text-anchor="middle" x="398" y="-313.5" font-family="Helvetica" font-size="10.00">::profile_07_checker</text>
</a>
</g>
</g>
<!-- Node2&#45;&gt;Node6 -->
<g id="edge5" class="edge">
<title>Node2&#45;&gt;Node6</title>
<path fill="none" stroke="midnightblue" d="M305.03,-335.08C313.65,-333.81 322.43,-332.51 330.99,-331.25"/>
<polygon fill="midnightblue" stroke="midnightblue" points="304.39,-331.64 295.01,-336.56 305.41,-338.56 304.39,-331.64"/>
</g>
<!-- Node7 -->
<g id="node7" class="node">
<title>Node7</title>
<g id="a_node7"><a xlink:href="classvsomeip__v3_1_1e2e_1_1profile__custom_1_1profile__custom__checker.html" target="_top" xlink:title=" ">
<polygon fill="white" stroke="black" points="336,-246 336,-287 460,-287 460,-246 336,-246"/>
<text text-anchor="start" x="344" y="-275" font-family="Helvetica" font-size="10.00">vsomeip_v3::e2e::profile</text>
<text text-anchor="start" x="344" y="-264" font-family="Helvetica" font-size="10.00">_custom::profile_custom</text>
<text text-anchor="middle" x="398" y="-253" font-family="Helvetica" font-size="10.00">_checker</text>
</a>
</g>
</g>
<!-- Node2&#45;&gt;Node7 -->
<g id="edge6" class="edge">
<title>Node2&#45;&gt;Node7</title>
<path fill="none" stroke="midnightblue" d="M273.74,-325.73C291.22,-316.99 312.1,-306.64 331,-297.5 338.07,-294.08 345.58,-290.5 352.91,-287.04"/>
<polygon fill="midnightblue" stroke="midnightblue" points="271.78,-322.8 264.41,-330.41 274.92,-329.06 271.78,-322.8"/>
</g>
<!-- Node9 -->
<g id="node9" class="node">
<title>Node9</title>
<g id="a_node9"><a xlink:href="classvsomeip__v3_1_1e2e_1_1profile01_1_1protector.html" target="_top" xlink:title=" ">
<polygon fill="white" stroke="black" points="331,-196.5 331,-226.5 465,-226.5 465,-196.5 331,-196.5"/>
<text text-anchor="start" x="339" y="-214.5" font-family="Helvetica" font-size="10.00">vsomeip_v3::e2e::profile01</text>
<text text-anchor="middle" x="398" y="-203.5" font-family="Helvetica" font-size="10.00">::protector</text>
</a>
</g>
</g>
<!-- Node8&#45;&gt;Node9 -->
<g id="edge8" class="edge">
<title>Node8&#45;&gt;Node9</title>
<path fill="none" stroke="midnightblue" d="M270.88,-158.29C288.75,-167.67 310.74,-178.71 331,-187.5 338.16,-190.61 345.86,-193.66 353.39,-196.49"/>
<polygon fill="midnightblue" stroke="midnightblue" points="272.42,-155.14 261.95,-153.56 269.15,-161.33 272.42,-155.14"/>
</g>
<!-- Node10 -->
<g id="node10" class="node">
<title>Node10</title>
<g id="a_node10"><a xlink:href="classvsomeip__v3_1_1e2e_1_1profile04_1_1protector.html" target="_top" xlink:title=" ">
<polygon fill="white" stroke="black" points="331,-147.5 331,-177.5 465,-177.5 465,-147.5 331,-147.5"/>
<text text-anchor="start" x="339" y="-165.5" font-family="Helvetica" font-size="10.00">vsomeip_v3::e2e::profile04</text>
<text text-anchor="middle" x="398" y="-154.5" font-family="Helvetica" font-size="10.00">::protector</text>
</a>
</g>
</g>
<!-- Node8&#45;&gt;Node10 -->
<g id="edge9" class="edge">
<title>Node8&#45;&gt;Node10</title>
<path fill="none" stroke="midnightblue" d="M305.03,-148.92C313.65,-150.19 322.43,-151.49 330.99,-152.75"/>
<polygon fill="midnightblue" stroke="midnightblue" points="305.41,-145.44 295.01,-147.44 304.39,-152.36 305.41,-145.44"/>
</g>
<!-- Node11 -->
<g id="node11" class="node">
<title>Node11</title>
<g id="a_node11"><a xlink:href="classvsomeip__v3_1_1e2e_1_1profile05_1_1protector.html" target="_top" xlink:title=" ">
<polygon fill="white" stroke="black" points="331,-98.5 331,-128.5 465,-128.5 465,-98.5 331,-98.5"/>
<text text-anchor="start" x="339" y="-116.5" font-family="Helvetica" font-size="10.00">vsomeip_v3::e2e::profile05</text>
<text text-anchor="middle" x="398" y="-105.5" font-family="Helvetica" font-size="10.00">::protector</text>
</a>
</g>
</g>
<!-- Node8&#45;&gt;Node11 -->
<g id="edge10" class="edge">
<title>Node8&#45;&gt;Node11</title>
<path fill="none" stroke="midnightblue" d="M305.03,-127.65C313.65,-126.32 322.43,-124.97 330.99,-123.66"/>
<polygon fill="midnightblue" stroke="midnightblue" points="304.36,-124.21 295.01,-129.19 305.42,-131.13 304.36,-124.21"/>
</g>
<!-- Node12 -->
<g id="node12" class="node">
<title>Node12</title>
<g id="a_node12"><a xlink:href="classvsomeip__v3_1_1e2e_1_1profile07_1_1protector.html" target="_top" xlink:title=" ">
<polygon fill="white" stroke="black" points="331,-49.5 331,-79.5 465,-79.5 465,-49.5 331,-49.5"/>
<text text-anchor="start" x="339" y="-67.5" font-family="Helvetica" font-size="10.00">vsomeip_v3::e2e::profile07</text>
<text text-anchor="middle" x="398" y="-56.5" font-family="Helvetica" font-size="10.00">::protector</text>
</a>
</g>
</g>
<!-- Node8&#45;&gt;Node12 -->
<g id="edge11" class="edge">
<title>Node8&#45;&gt;Node12</title>
<path fill="none" stroke="midnightblue" d="M271.32,-118.63C289.13,-109.32 310.95,-98.36 331,-89.5 338.73,-86.08 347.09,-82.69 355.18,-79.56"/>
<polygon fill="midnightblue" stroke="midnightblue" points="269.62,-115.57 262.41,-123.32 272.88,-121.76 269.62,-115.57"/>
</g>
<!-- Node13 -->
<g id="node13" class="node">
<title>Node13</title>
<g id="a_node13"><a xlink:href="classvsomeip__v3_1_1e2e_1_1profile__custom_1_1protector.html" target="_top" xlink:title=" ">
<polygon fill="white" stroke="black" points="336.5,-0.5 336.5,-30.5 459.5,-30.5 459.5,-0.5 336.5,-0.5"/>
<text text-anchor="start" x="344.5" y="-18.5" font-family="Helvetica" font-size="10.00">vsomeip_v3::e2e::profile</text>
<text text-anchor="middle" x="398" y="-7.5" font-family="Helvetica" font-size="10.00">_custom::protector</text>
</a>
</g>
</g>
<!-- Node8&#45;&gt;Node13 -->
<g id="edge12" class="edge">
<title>Node8&#45;&gt;Node13</title>
<path fill="none" stroke="midnightblue" d="M251.85,-115.43C269.58,-93.27 299,-60.17 331,-39.5 336.22,-36.13 341.98,-33.14 347.86,-30.53"/>
<polygon fill="midnightblue" stroke="midnightblue" points="249.06,-113.32 245.64,-123.35 254.57,-117.64 249.06,-113.32"/>
</g>
</g>
</svg>
