<?xml version="1.0" encoding="UTF-8" standalone="no"?>
<!DOCTYPE svg PUBLIC "-//W3C//DTD SVG 1.1//EN"
 "http://www.w3.org/Graphics/SVG/1.1/DTD/svg11.dtd">
<!-- Generated by graphviz version 2.44.0 (0)
 -->
<!-- Title: vsomeip_v3::message_header_impl Pages: 1 -->
<svg width="284pt" height="163pt"
 viewBox="0.00 0.00 284.00 163.00" xmlns="http://www.w3.org/2000/svg" xmlns:xlink="http://www.w3.org/1999/xlink">
<g id="graph0" class="graph" transform="scale(1 1) rotate(0) translate(4 159)">
<title>vsomeip_v3::message_header_impl</title>
<polygon fill="white" stroke="transparent" points="-4,4 -4,-159 280,-159 280,4 -4,4"/>
<!-- Node1 -->
<g id="node1" class="node">
<title>Node1</title>
<g id="a_node1"><a xlink:title=" ">
<polygon fill="#bfbfbf" stroke="black" points="20.5,-0.5 20.5,-30.5 135.5,-30.5 135.5,-0.5 20.5,-0.5"/>
<text text-anchor="start" x="28.5" y="-18.5" font-family="Helvetica" font-size="10.00">vsomeip_v3::message</text>
<text text-anchor="middle" x="78" y="-7.5" font-family="Helvetica" font-size="10.00">_header_impl</text>
</a>
</g>
</g>
<!-- Node2 -->
<g id="node2" class="node">
<title>Node2</title>
<g id="a_node2"><a xlink:href="classvsomeip__v3_1_1serializable.html" target="_top" xlink:title=" ">
<polygon fill="white" stroke="black" points="0,-135.5 0,-154.5 124,-154.5 124,-135.5 0,-135.5"/>
<text text-anchor="middle" x="62" y="-142.5" font-family="Helvetica" font-size="10.00">vsomeip_v3::serializable</text>
</a>
</g>
</g>
<!-- Node2&#45;&gt;Node1 -->
<g id="edge1" class="edge">
<title>Node2&#45;&gt;Node1</title>
<path fill="none" stroke="midnightblue" d="M64.35,-125.24C67.59,-99.46 73.34,-53.65 76.23,-30.59"/>
<polygon fill="midnightblue" stroke="midnightblue" points="60.87,-124.88 63.1,-135.24 67.82,-125.75 60.87,-124.88"/>
</g>
<!-- Node3 -->
<g id="node3" class="node">
<title>Node3</title>
<g id="a_node3"><a xlink:href="classvsomeip__v3_1_1message__base.html" target="_top" xlink:title="Base class to implement SOME/IP messages.">
<polygon fill="white" stroke="black" points="90.5,-78.5 90.5,-97.5 231.5,-97.5 231.5,-78.5 90.5,-78.5"/>
<text text-anchor="middle" x="161" y="-85.5" font-family="Helvetica" font-size="10.00">vsomeip_v3::message_base</text>
</a>
</g>
</g>
<!-- Node2&#45;&gt;Node3 -->
<g id="edge3" class="edge">
<title>Node2&#45;&gt;Node3</title>
<path fill="none" stroke="midnightblue" d="M86.24,-130.54C104.77,-120.24 129.77,-106.35 145.64,-97.53"/>
<polygon fill="midnightblue" stroke="midnightblue" points="84.51,-127.49 77.47,-135.41 87.91,-133.61 84.51,-127.49"/>
</g>
<!-- Node3&#45;&gt;Node1 -->
<g id="edge2" class="edge">
<title>Node3&#45;&gt;Node1</title>
<path fill="none" stroke="#9a32cd" stroke-dasharray="5,2" d="M143.09,-71.78C128.68,-59.55 108.61,-42.5 94.57,-30.58"/>
<polygon fill="#9a32cd" stroke="#9a32cd" points="140.94,-74.55 150.82,-78.36 145.47,-69.21 140.94,-74.55"/>
<text text-anchor="middle" x="144.5" y="-52" font-family="Helvetica" font-size="10.00"> owner_</text>
</g>
<!-- Node4 -->
<g id="node4" class="node">
<title>Node4</title>
<g id="a_node4"><a xlink:href="classvsomeip__v3_1_1deserializable.html" target="_top" xlink:title=" ">
<polygon fill="white" stroke="black" points="142,-135.5 142,-154.5 276,-154.5 276,-135.5 142,-135.5"/>
<text text-anchor="middle" x="209" y="-142.5" font-family="Helvetica" font-size="10.00">vsomeip_v3::deserializable</text>
</a>
</g>
</g>
<!-- Node4&#45;&gt;Node3 -->
<g id="edge4" class="edge">
<title>Node4&#45;&gt;Node3</title>
<path fill="none" stroke="midnightblue" d="M194.89,-127.83C186.29,-117.98 175.65,-105.78 168.61,-97.71"/>
<polygon fill="midnightblue" stroke="midnightblue" points="192.29,-130.17 201.5,-135.41 197.56,-125.57 192.29,-130.17"/>
</g>
</g>
</svg>
