<?xml version="1.0" encoding="UTF-8" standalone="no"?>
<!DOCTYPE svg PUBLIC "-//W3C//DTD SVG 1.1//EN"
 "http://www.w3.org/Graphics/SVG/1.1/DTD/svg11.dtd">
<!-- Generated by graphviz version 2.44.0 (0)
 -->
<!-- Title: vsomeip_v3::sd::message_element_impl Pages: 1 -->
<svg width="683pt" height="361pt"
 viewBox="0.00 0.00 683.00 360.50" xmlns="http://www.w3.org/2000/svg" xmlns:xlink="http://www.w3.org/1999/xlink">
<g id="graph0" class="graph" transform="scale(1 1) rotate(0) translate(4 356.5)">
<title>vsomeip_v3::sd::message_element_impl</title>
<polygon fill="white" stroke="transparent" points="-4,4 -4,-356.5 679,-356.5 679,4 -4,4"/>
<!-- Node1 -->
<g id="node1" class="node">
<title>Node1</title>
<g id="a_node1"><a xlink:title=" ">
<polygon fill="#bfbfbf" stroke="black" points="0,-218.5 0,-248.5 131,-248.5 131,-218.5 0,-218.5"/>
<text text-anchor="start" x="8" y="-236.5" font-family="Helvetica" font-size="10.00">vsomeip_v3::sd::message</text>
<text text-anchor="middle" x="65.5" y="-225.5" font-family="Helvetica" font-size="10.00">_element_impl</text>
</a>
</g>
</g>
<!-- Node2 -->
<g id="node2" class="node">
<title>Node2</title>
<g id="a_node2"><a xlink:href="classvsomeip__v3_1_1sd_1_1entry__impl.html" target="_top" xlink:title=" ">
<polygon fill="white" stroke="black" points="169,-295 169,-314 306,-314 306,-295 169,-295"/>
<text text-anchor="middle" x="237.5" y="-302" font-family="Helvetica" font-size="10.00">vsomeip_v3::sd::entry_impl</text>
</a>
</g>
</g>
<!-- Node1&#45;&gt;Node2 -->
<g id="edge1" class="edge">
<title>Node1&#45;&gt;Node2</title>
<path fill="none" stroke="midnightblue" d="M111.94,-252.48C144.71,-266.16 187.58,-284.07 213.53,-294.91"/>
<polygon fill="midnightblue" stroke="midnightblue" points="113.13,-249.18 102.55,-248.56 110.43,-255.64 113.13,-249.18"/>
</g>
<!-- Node5 -->
<g id="node5" class="node">
<title>Node5</title>
<g id="a_node5"><a xlink:href="classvsomeip__v3_1_1sd_1_1option__impl.html" target="_top" xlink:title=" ">
<polygon fill="white" stroke="black" points="167,-153 167,-172 308,-172 308,-153 167,-153"/>
<text text-anchor="middle" x="237.5" y="-160" font-family="Helvetica" font-size="10.00">vsomeip_v3::sd::option_impl</text>
</a>
</g>
</g>
<!-- Node1&#45;&gt;Node5 -->
<g id="edge4" class="edge">
<title>Node1&#45;&gt;Node5</title>
<path fill="none" stroke="midnightblue" d="M111.94,-214.52C144.71,-200.84 187.58,-182.93 213.53,-172.09"/>
<polygon fill="midnightblue" stroke="midnightblue" points="110.43,-211.36 102.55,-218.44 113.13,-217.82 110.43,-211.36"/>
</g>
<!-- Node3 -->
<g id="node3" class="node">
<title>Node3</title>
<g id="a_node3"><a xlink:href="classvsomeip__v3_1_1sd_1_1eventgroupentry__impl.html" target="_top" xlink:title=" ">
<polygon fill="white" stroke="black" points="344,-333 344,-352 529,-352 529,-333 344,-333"/>
<text text-anchor="middle" x="436.5" y="-340" font-family="Helvetica" font-size="10.00">vsomeip_v3::sd::eventgroupentry_impl</text>
</a>
</g>
</g>
<!-- Node2&#45;&gt;Node3 -->
<g id="edge2" class="edge">
<title>Node2&#45;&gt;Node3</title>
<path fill="none" stroke="midnightblue" d="M298.06,-315.99C326.17,-321.41 359.32,-327.81 386.02,-332.96"/>
<polygon fill="midnightblue" stroke="midnightblue" points="298.44,-312.5 287.96,-314.04 297.11,-319.37 298.44,-312.5"/>
</g>
<!-- Node4 -->
<g id="node4" class="node">
<title>Node4</title>
<g id="a_node4"><a xlink:href="classvsomeip__v3_1_1sd_1_1serviceentry__impl.html" target="_top" xlink:title=" ">
<polygon fill="white" stroke="black" points="351.5,-295 351.5,-314 521.5,-314 521.5,-295 351.5,-295"/>
<text text-anchor="middle" x="436.5" y="-302" font-family="Helvetica" font-size="10.00">vsomeip_v3::sd::serviceentry_impl</text>
</a>
</g>
</g>
<!-- Node2&#45;&gt;Node4 -->
<g id="edge3" class="edge">
<title>Node2&#45;&gt;Node4</title>
<path fill="none" stroke="midnightblue" d="M316.08,-304.5C327.66,-304.5 339.64,-304.5 351.35,-304.5"/>
<polygon fill="midnightblue" stroke="midnightblue" points="316.02,-301 306.02,-304.5 316.02,-308 316.02,-301"/>
</g>
<!-- Node6 -->
<g id="node6" class="node">
<title>Node6</title>
<g id="a_node6"><a xlink:href="classvsomeip__v3_1_1sd_1_1configuration__option__impl.html" target="_top" xlink:title=" ">
<polygon fill="white" stroke="black" points="363,-245.5 363,-275.5 510,-275.5 510,-245.5 363,-245.5"/>
<text text-anchor="start" x="371" y="-263.5" font-family="Helvetica" font-size="10.00">vsomeip_v3::sd::configuration</text>
<text text-anchor="middle" x="436.5" y="-252.5" font-family="Helvetica" font-size="10.00">_option_impl</text>
</a>
</g>
</g>
<!-- Node5&#45;&gt;Node6 -->
<g id="edge5" class="edge">
<title>Node5&#45;&gt;Node6</title>
<path fill="none" stroke="midnightblue" d="M257.15,-178.71C277.29,-195.43 310.97,-221.19 344,-236.5 351.3,-239.88 359.16,-242.85 367.09,-245.44"/>
<polygon fill="midnightblue" stroke="midnightblue" points="259.28,-175.93 249.38,-172.15 254.76,-181.27 259.28,-175.93"/>
</g>
<!-- Node7 -->
<g id="node7" class="node">
<title>Node7</title>
<g id="a_node7"><a xlink:href="classvsomeip__v3_1_1sd_1_1ip__option__impl.html" target="_top" xlink:title=" ">
<polygon fill="white" stroke="black" points="387,-196.5 387,-226.5 486,-226.5 486,-196.5 387,-196.5"/>
<text text-anchor="start" x="395" y="-214.5" font-family="Helvetica" font-size="10.00">vsomeip_v3::sd::ip</text>
<text text-anchor="middle" x="436.5" y="-203.5" font-family="Helvetica" font-size="10.00">_option_impl</text>
</a>
</g>
</g>
<!-- Node5&#45;&gt;Node7 -->
<g id="edge6" class="edge">
<title>Node5&#45;&gt;Node7</title>
<path fill="none" stroke="midnightblue" d="M286.89,-174.53C317.23,-182.08 356.22,-191.78 386.65,-199.35"/>
<polygon fill="midnightblue" stroke="midnightblue" points="287.5,-171.08 276.95,-172.06 285.81,-177.87 287.5,-171.08"/>
</g>
<!-- Node10 -->
<g id="node10" class="node">
<title>Node10</title>
<g id="a_node10"><a xlink:href="classvsomeip__v3_1_1sd_1_1load__balancing__option__impl.html" target="_top" xlink:title=" ">
<polygon fill="white" stroke="black" points="377.5,-147.5 377.5,-177.5 495.5,-177.5 495.5,-147.5 377.5,-147.5"/>
<text text-anchor="start" x="385.5" y="-165.5" font-family="Helvetica" font-size="10.00">vsomeip_v3::sd::load</text>
<text text-anchor="middle" x="436.5" y="-154.5" font-family="Helvetica" font-size="10.00">_balancing_option_impl</text>
</a>
</g>
</g>
<!-- Node5&#45;&gt;Node10 -->
<g id="edge9" class="edge">
<title>Node5&#45;&gt;Node10</title>
<path fill="none" stroke="midnightblue" d="M318.42,-162.5C338.1,-162.5 358.82,-162.5 377.26,-162.5"/>
<polygon fill="midnightblue" stroke="midnightblue" points="318.23,-159 308.23,-162.5 318.23,-166 318.23,-159"/>
</g>
<!-- Node11 -->
<g id="node11" class="node">
<title>Node11</title>
<g id="a_node11"><a xlink:href="classvsomeip__v3_1_1sd_1_1protection__option__impl.html" target="_top" xlink:title=" ">
<polygon fill="white" stroke="black" points="369.5,-98.5 369.5,-128.5 503.5,-128.5 503.5,-98.5 369.5,-98.5"/>
<text text-anchor="start" x="377.5" y="-116.5" font-family="Helvetica" font-size="10.00">vsomeip_v3::sd::protection</text>
<text text-anchor="middle" x="436.5" y="-105.5" font-family="Helvetica" font-size="10.00">_option_impl</text>
</a>
</g>
</g>
<!-- Node5&#45;&gt;Node11 -->
<g id="edge10" class="edge">
<title>Node5&#45;&gt;Node11</title>
<path fill="none" stroke="midnightblue" d="M286.8,-150.49C313.42,-143.86 346.71,-135.58 375.05,-128.54"/>
<polygon fill="midnightblue" stroke="midnightblue" points="285.81,-147.13 276.95,-152.94 287.5,-153.92 285.81,-147.13"/>
</g>
<!-- Node12 -->
<g id="node12" class="node">
<title>Node12</title>
<g id="a_node12"><a xlink:href="classvsomeip__v3_1_1sd_1_1selective__option__impl.html" target="_top" xlink:title=" ">
<polygon fill="white" stroke="black" points="371.5,-49.5 371.5,-79.5 501.5,-79.5 501.5,-49.5 371.5,-49.5"/>
<text text-anchor="start" x="379.5" y="-67.5" font-family="Helvetica" font-size="10.00">vsomeip_v3::sd::selective</text>
<text text-anchor="middle" x="436.5" y="-56.5" font-family="Helvetica" font-size="10.00">_option_impl</text>
</a>
</g>
</g>
<!-- Node5&#45;&gt;Node12 -->
<g id="edge11" class="edge">
<title>Node5&#45;&gt;Node12</title>
<path fill="none" stroke="midnightblue" d="M257.15,-146.29C277.29,-129.57 310.97,-103.81 344,-88.5 352.64,-84.49 362.06,-81.07 371.47,-78.17"/>
<polygon fill="midnightblue" stroke="midnightblue" points="254.76,-143.73 249.38,-152.85 259.28,-149.07 254.76,-143.73"/>
</g>
<!-- Node13 -->
<g id="node13" class="node">
<title>Node13</title>
<g id="a_node13"><a xlink:href="classvsomeip__v3_1_1sd_1_1unknown__option__impl.html" target="_top" xlink:title="An SD Endpoint Option of unknown type.">
<polygon fill="white" stroke="black" points="371,-0.5 371,-30.5 502,-30.5 502,-0.5 371,-0.5"/>
<text text-anchor="start" x="379" y="-18.5" font-family="Helvetica" font-size="10.00">vsomeip_v3::sd::unknown</text>
<text text-anchor="middle" x="436.5" y="-7.5" font-family="Helvetica" font-size="10.00">_option_impl</text>
</a>
</g>
</g>
<!-- Node5&#45;&gt;Node13 -->
<g id="edge12" class="edge">
<title>Node5&#45;&gt;Node13</title>
<path fill="none" stroke="midnightblue" d="M249.3,-143.88C266.05,-116.7 300.88,-66.48 344,-39.5 352.21,-34.36 361.5,-30.31 370.93,-27.13"/>
<polygon fill="midnightblue" stroke="midnightblue" points="246.11,-142.39 243.97,-152.76 252.12,-145.99 246.11,-142.39"/>
</g>
<!-- Node8 -->
<g id="node8" class="node">
<title>Node8</title>
<g id="a_node8"><a xlink:href="classvsomeip__v3_1_1sd_1_1ipv4__option__impl.html" target="_top" xlink:title=" ">
<polygon fill="white" stroke="black" points="565,-220.5 565,-250.5 675,-250.5 675,-220.5 565,-220.5"/>
<text text-anchor="start" x="573" y="-238.5" font-family="Helvetica" font-size="10.00">vsomeip_v3::sd::ipv4</text>
<text text-anchor="middle" x="620" y="-227.5" font-family="Helvetica" font-size="10.00">_option_impl</text>
</a>
</g>
</g>
<!-- Node7&#45;&gt;Node8 -->
<g id="edge7" class="edge">
<title>Node7&#45;&gt;Node8</title>
<path fill="none" stroke="midnightblue" d="M496.05,-219.24C518.13,-222.16 543.13,-225.47 564.79,-228.33"/>
<polygon fill="midnightblue" stroke="midnightblue" points="496.51,-215.77 486.14,-217.93 495.59,-222.71 496.51,-215.77"/>
</g>
<!-- Node9 -->
<g id="node9" class="node">
<title>Node9</title>
<g id="a_node9"><a xlink:href="classvsomeip__v3_1_1sd_1_1ipv6__option__impl.html" target="_top" xlink:title=" ">
<polygon fill="white" stroke="black" points="565,-171.5 565,-201.5 675,-201.5 675,-171.5 565,-171.5"/>
<text text-anchor="start" x="573" y="-189.5" font-family="Helvetica" font-size="10.00">vsomeip_v3::sd::ipv6</text>
<text text-anchor="middle" x="620" y="-178.5" font-family="Helvetica" font-size="10.00">_option_impl</text>
</a>
</g>
</g>
<!-- Node7&#45;&gt;Node9 -->
<g id="edge8" class="edge">
<title>Node7&#45;&gt;Node9</title>
<path fill="none" stroke="midnightblue" d="M496.05,-203.43C518.13,-200.39 543.13,-196.95 564.79,-193.97"/>
<polygon fill="midnightblue" stroke="midnightblue" points="495.57,-199.97 486.14,-204.8 496.52,-206.9 495.57,-199.97"/>
</g>
</g>
</svg>
