<?xml version="1.0" encoding="UTF-8" standalone="no"?>
<!DOCTYPE svg PUBLIC "-//W3C//DTD SVG 1.1//EN"
 "http://www.w3.org/Graphics/SVG/1.1/DTD/svg11.dtd">
<!-- Generated by graphviz version 2.44.0 (0)
 -->
<!-- Title: vsomeip_v3::e2e::profile_interface::protector Pages: 1 -->
<svg width="473pt" height="235pt"
 viewBox="0.00 0.00 473.00 235.00" xmlns="http://www.w3.org/2000/svg" xmlns:xlink="http://www.w3.org/1999/xlink">
<g id="graph0" class="graph" transform="scale(1 1) rotate(0) translate(4 231)">
<title>vsomeip_v3::e2e::profile_interface::protector</title>
<polygon fill="white" stroke="transparent" points="-4,4 -4,-231 469,-231 469,4 -4,4"/>
<!-- Node1 -->
<g id="node1" class="node">
<title>Node1</title>
<g id="a_node1"><a xlink:title=" ">
<polygon fill="#bfbfbf" stroke="black" points="172,-98.5 172,-128.5 295,-128.5 295,-98.5 172,-98.5"/>
<text text-anchor="start" x="180" y="-116.5" font-family="Helvetica" font-size="10.00">vsomeip_v3::e2e::profile</text>
<text text-anchor="middle" x="233.5" y="-105.5" font-family="Helvetica" font-size="10.00">_interface::protector</text>
</a>
</g>
</g>
<!-- Node3 -->
<g id="node3" class="node">
<title>Node3</title>
<g id="a_node3"><a xlink:href="classvsomeip__v3_1_1e2e_1_1profile01_1_1protector.html" target="_top" xlink:title=" ">
<polygon fill="white" stroke="black" points="331,-196.5 331,-226.5 465,-226.5 465,-196.5 331,-196.5"/>
<text text-anchor="start" x="339" y="-214.5" font-family="Helvetica" font-size="10.00">vsomeip_v3::e2e::profile01</text>
<text text-anchor="middle" x="398" y="-203.5" font-family="Helvetica" font-size="10.00">::protector</text>
</a>
</g>
</g>
<!-- Node1&#45;&gt;Node3 -->
<g id="edge2" class="edge">
<title>Node1&#45;&gt;Node3</title>
<path fill="none" stroke="midnightblue" d="M258.55,-135.3C277.24,-151.38 304.39,-172.91 331,-187.5 336.99,-190.78 343.51,-193.78 350.06,-196.45"/>
<polygon fill="midnightblue" stroke="midnightblue" points="260.67,-132.5 250.83,-128.56 256.06,-137.77 260.67,-132.5"/>
</g>
<!-- Node4 -->
<g id="node4" class="node">
<title>Node4</title>
<g id="a_node4"><a xlink:href="classvsomeip__v3_1_1e2e_1_1profile04_1_1protector.html" target="_top" xlink:title=" ">
<polygon fill="white" stroke="black" points="331,-147.5 331,-177.5 465,-177.5 465,-147.5 331,-147.5"/>
<text text-anchor="start" x="339" y="-165.5" font-family="Helvetica" font-size="10.00">vsomeip_v3::e2e::profile04</text>
<text text-anchor="middle" x="398" y="-154.5" font-family="Helvetica" font-size="10.00">::protector</text>
</a>
</g>
</g>
<!-- Node1&#45;&gt;Node4 -->
<g id="edge3" class="edge">
<title>Node1&#45;&gt;Node4</title>
<path fill="none" stroke="midnightblue" d="M294.57,-131.61C311.84,-136.82 330.49,-142.45 347.08,-147.45"/>
<polygon fill="midnightblue" stroke="midnightblue" points="295.17,-128.14 284.58,-128.6 293.15,-134.84 295.17,-128.14"/>
</g>
<!-- Node5 -->
<g id="node5" class="node">
<title>Node5</title>
<g id="a_node5"><a xlink:href="classvsomeip__v3_1_1e2e_1_1profile05_1_1protector.html" target="_top" xlink:title=" ">
<polygon fill="white" stroke="black" points="331,-98.5 331,-128.5 465,-128.5 465,-98.5 331,-98.5"/>
<text text-anchor="start" x="339" y="-116.5" font-family="Helvetica" font-size="10.00">vsomeip_v3::e2e::profile05</text>
<text text-anchor="middle" x="398" y="-105.5" font-family="Helvetica" font-size="10.00">::protector</text>
</a>
</g>
</g>
<!-- Node1&#45;&gt;Node5 -->
<g id="edge4" class="edge">
<title>Node1&#45;&gt;Node5</title>
<path fill="none" stroke="midnightblue" d="M305.03,-113.5C313.65,-113.5 322.43,-113.5 330.99,-113.5"/>
<polygon fill="midnightblue" stroke="midnightblue" points="305.01,-110 295.01,-113.5 305.01,-117 305.01,-110"/>
</g>
<!-- Node6 -->
<g id="node6" class="node">
<title>Node6</title>
<g id="a_node6"><a xlink:href="classvsomeip__v3_1_1e2e_1_1profile07_1_1protector.html" target="_top" xlink:title=" ">
<polygon fill="white" stroke="black" points="331,-49.5 331,-79.5 465,-79.5 465,-49.5 331,-49.5"/>
<text text-anchor="start" x="339" y="-67.5" font-family="Helvetica" font-size="10.00">vsomeip_v3::e2e::profile07</text>
<text text-anchor="middle" x="398" y="-56.5" font-family="Helvetica" font-size="10.00">::protector</text>
</a>
</g>
</g>
<!-- Node1&#45;&gt;Node6 -->
<g id="edge5" class="edge">
<title>Node1&#45;&gt;Node6</title>
<path fill="none" stroke="midnightblue" d="M294.57,-95.39C311.84,-90.18 330.49,-84.55 347.08,-79.55"/>
<polygon fill="midnightblue" stroke="midnightblue" points="293.15,-92.16 284.58,-98.4 295.17,-98.86 293.15,-92.16"/>
</g>
<!-- Node7 -->
<g id="node7" class="node">
<title>Node7</title>
<g id="a_node7"><a xlink:href="classvsomeip__v3_1_1e2e_1_1profile__custom_1_1protector.html" target="_top" xlink:title=" ">
<polygon fill="white" stroke="black" points="336.5,-0.5 336.5,-30.5 459.5,-30.5 459.5,-0.5 336.5,-0.5"/>
<text text-anchor="start" x="344.5" y="-18.5" font-family="Helvetica" font-size="10.00">vsomeip_v3::e2e::profile</text>
<text text-anchor="middle" x="398" y="-7.5" font-family="Helvetica" font-size="10.00">_custom::protector</text>
</a>
</g>
</g>
<!-- Node1&#45;&gt;Node7 -->
<g id="edge6" class="edge">
<title>Node1&#45;&gt;Node7</title>
<path fill="none" stroke="midnightblue" d="M258.55,-91.7C277.24,-75.62 304.39,-54.09 331,-39.5 336.99,-36.22 343.51,-33.22 350.06,-30.55"/>
<polygon fill="midnightblue" stroke="midnightblue" points="256.06,-89.23 250.83,-98.44 260.67,-94.5 256.06,-89.23"/>
</g>
<!-- Node2 -->
<g id="node2" class="node">
<title>Node2</title>
<g id="a_node2"><a xlink:href="classvsomeip__v3_1_1e2e_1_1profile__interface_1_1profile__interface.html" target="_top" xlink:title=" ">
<polygon fill="white" stroke="black" points="0,-98.5 0,-128.5 136,-128.5 136,-98.5 0,-98.5"/>
<text text-anchor="start" x="8" y="-116.5" font-family="Helvetica" font-size="10.00">vsomeip_v3::e2e::profile</text>
<text text-anchor="middle" x="68" y="-105.5" font-family="Helvetica" font-size="10.00">_interface::profile_interface</text>
</a>
</g>
</g>
<!-- Node2&#45;&gt;Node1 -->
<g id="edge1" class="edge">
<title>Node2&#45;&gt;Node1</title>
<path fill="none" stroke="midnightblue" d="M146.67,-113.5C155.09,-113.5 163.57,-113.5 171.75,-113.5"/>
<polygon fill="midnightblue" stroke="midnightblue" points="146.45,-110 136.45,-113.5 146.45,-117 146.45,-110"/>
</g>
</g>
</svg>
