<?xml version="1.0" encoding="UTF-8" standalone="no"?>
<!DOCTYPE svg PUBLIC "-//W3C//DTD SVG 1.1//EN"
 "http://www.w3.org/Graphics/SVG/1.1/DTD/svg11.dtd">
<!-- Generated by graphviz version 2.44.0 (0)
 -->
<!-- Title: boost::asio::detail::reactive_socket_recvfrom_op_ext_local&lt; MutableBufferSequence, Endpoint, Handler &gt; Pages: 1 -->
<svg width="655pt" height="61pt"
 viewBox="0.00 0.00 655.00 61.00" xmlns="http://www.w3.org/2000/svg" xmlns:xlink="http://www.w3.org/1999/xlink">
<g id="graph0" class="graph" transform="scale(1 1) rotate(0) translate(4 57)">
<title>boost::asio::detail::reactive_socket_recvfrom_op_ext_local&lt; MutableBufferSequence, Endpoint, Handler &gt;</title>
<polygon fill="white" stroke="transparent" points="-4,4 -4,-57 651,-57 651,4 -4,4"/>
<!-- Node1 -->
<g id="node1" class="node">
<title>Node1</title>
<g id="a_node1"><a xlink:title=" ">
<polygon fill="#bfbfbf" stroke="black" points="455,-0.5 455,-52.5 647,-52.5 647,-0.5 455,-0.5"/>
<text text-anchor="start" x="463" y="-40.5" font-family="Helvetica" font-size="10.00">boost::asio::detail</text>
<text text-anchor="start" x="463" y="-29.5" font-family="Helvetica" font-size="10.00">::reactive_socket_recvfrom</text>
<text text-anchor="start" x="463" y="-18.5" font-family="Helvetica" font-size="10.00">_op_ext_local&lt; MutableBufferSequence,</text>
<text text-anchor="middle" x="551" y="-7.5" font-family="Helvetica" font-size="10.00"> Endpoint, Handler &gt;</text>
</a>
</g>
</g>
<!-- Node2 -->
<g id="node2" class="node">
<title>Node2</title>
<g id="a_node2"><a xlink:href="classboost_1_1asio_1_1detail_1_1reactive__socket__recvfrom__op__base__ext__local.html" target="_top" xlink:title=" ">
<polygon fill="white" stroke="black" points="247,-0.5 247,-52.5 419,-52.5 419,-0.5 247,-0.5"/>
<text text-anchor="start" x="255" y="-40.5" font-family="Helvetica" font-size="10.00">boost::asio::detail</text>
<text text-anchor="start" x="255" y="-29.5" font-family="Helvetica" font-size="10.00">::reactive_socket_recvfrom</text>
<text text-anchor="start" x="255" y="-18.5" font-family="Helvetica" font-size="10.00">_op_base_ext_local&lt; MutableBuffer</text>
<text text-anchor="middle" x="333" y="-7.5" font-family="Helvetica" font-size="10.00">Sequence, Endpoint &gt;</text>
</a>
</g>
</g>
<!-- Node2&#45;&gt;Node1 -->
<g id="edge1" class="edge">
<title>Node2&#45;&gt;Node1</title>
<path fill="none" stroke="midnightblue" d="M429.27,-26.5C437.7,-26.5 446.24,-26.5 454.67,-26.5"/>
<polygon fill="midnightblue" stroke="midnightblue" points="429.06,-23 419.06,-26.5 429.06,-30 429.06,-23"/>
</g>
<!-- Node3 -->
<g id="node3" class="node">
<title>Node3</title>
<g id="a_node3"><a xlink:href="classboost_1_1asio_1_1detail_1_1reactor__op__ext__local.html" target="_top" xlink:title=" ">
<polygon fill="white" stroke="black" points="98,-11.5 98,-41.5 211,-41.5 211,-11.5 98,-11.5"/>
<text text-anchor="start" x="106" y="-29.5" font-family="Helvetica" font-size="10.00">boost::asio::detail</text>
<text text-anchor="middle" x="154.5" y="-18.5" font-family="Helvetica" font-size="10.00">::reactor_op_ext_local</text>
</a>
</g>
</g>
<!-- Node3&#45;&gt;Node2 -->
<g id="edge2" class="edge">
<title>Node3&#45;&gt;Node2</title>
<path fill="none" stroke="midnightblue" d="M221.61,-26.5C229.86,-26.5 238.37,-26.5 246.85,-26.5"/>
<polygon fill="midnightblue" stroke="midnightblue" points="221.35,-23 211.35,-26.5 221.35,-30 221.35,-23"/>
</g>
<!-- Node4 -->
<g id="node4" class="node">
<title>Node4</title>
<g id="a_node4"><a xlink:title=" ">
<polygon fill="white" stroke="black" points="0,-17 0,-36 62,-36 62,-17 0,-17"/>
<text text-anchor="middle" x="31" y="-24" font-family="Helvetica" font-size="10.00">reactor_op</text>
</a>
</g>
</g>
<!-- Node4&#45;&gt;Node3 -->
<g id="edge3" class="edge">
<title>Node4&#45;&gt;Node3</title>
<path fill="none" stroke="midnightblue" d="M72.09,-26.5C80.3,-26.5 89.1,-26.5 97.75,-26.5"/>
<polygon fill="midnightblue" stroke="midnightblue" points="72.03,-23 62.03,-26.5 72.03,-30 72.03,-23"/>
</g>
</g>
</svg>
