<?xml version="1.0" encoding="UTF-8" standalone="no"?>
<!DOCTYPE svg PUBLIC "-//W3C//DTD SVG 1.1//EN"
 "http://www.w3.org/Graphics/SVG/1.1/DTD/svg11.dtd">
<!-- Generated by graphviz version 2.44.0 (0)
 -->
<!-- Title: boost::asio::detail::reactor_op_ext Pages: 1 -->
<svg width="638pt" height="203pt"
 viewBox="0.00 0.00 638.00 203.00" xmlns="http://www.w3.org/2000/svg" xmlns:xlink="http://www.w3.org/1999/xlink">
<g id="graph0" class="graph" transform="scale(1 1) rotate(0) translate(4 199)">
<title>boost::asio::detail::reactor_op_ext</title>
<polygon fill="white" stroke="transparent" points="-4,4 -4,-199 634,-199 634,4 -4,4"/>
<!-- Node1 -->
<g id="node1" class="node">
<title>Node1</title>
<g id="a_node1"><a xlink:title=" ">
<polygon fill="#bfbfbf" stroke="black" points="98,-82.5 98,-112.5 192,-112.5 192,-82.5 98,-82.5"/>
<text text-anchor="start" x="106" y="-100.5" font-family="Helvetica" font-size="10.00">boost::asio::detail</text>
<text text-anchor="middle" x="145" y="-89.5" font-family="Helvetica" font-size="10.00">::reactor_op_ext</text>
</a>
</g>
</g>
<!-- Node3 -->
<g id="node3" class="node">
<title>Node3</title>
<g id="a_node3"><a xlink:href="classboost_1_1asio_1_1detail_1_1reactive__socket__recv__op__base__ext.html" target="_top" xlink:title=" ">
<polygon fill="white" stroke="black" points="228,-145 228,-186 427,-186 427,-145 228,-145"/>
<text text-anchor="start" x="236" y="-174" font-family="Helvetica" font-size="10.00">boost::asio::detail</text>
<text text-anchor="start" x="236" y="-163" font-family="Helvetica" font-size="10.00">::reactive_socket_recv</text>
<text text-anchor="middle" x="327.5" y="-152" font-family="Helvetica" font-size="10.00">_op_base_ext&lt; MutableBufferSequence &gt;</text>
</a>
</g>
</g>
<!-- Node1&#45;&gt;Node3 -->
<g id="edge2" class="edge">
<title>Node1&#45;&gt;Node3</title>
<path fill="none" stroke="midnightblue" d="M188.95,-116.6C201.46,-121.95 215.2,-127.63 228,-132.5 239.13,-136.73 251.06,-140.97 262.65,-144.94"/>
<polygon fill="midnightblue" stroke="midnightblue" points="190.23,-113.34 179.66,-112.59 187.46,-119.77 190.23,-113.34"/>
</g>
<!-- Node5 -->
<g id="node5" class="node">
<title>Node5</title>
<g id="a_node5"><a xlink:href="classboost_1_1asio_1_1detail_1_1reactive__socket__recvfrom__op__base__ext.html" target="_top" xlink:title=" ">
<polygon fill="white" stroke="black" points="231,-71.5 231,-123.5 424,-123.5 424,-71.5 231,-71.5"/>
<text text-anchor="start" x="239" y="-111.5" font-family="Helvetica" font-size="10.00">boost::asio::detail</text>
<text text-anchor="start" x="239" y="-100.5" font-family="Helvetica" font-size="10.00">::reactive_socket_recvfrom</text>
<text text-anchor="start" x="239" y="-89.5" font-family="Helvetica" font-size="10.00">_op_base_ext&lt; MutableBufferSequence,</text>
<text text-anchor="middle" x="327.5" y="-78.5" font-family="Helvetica" font-size="10.00"> Endpoint &gt;</text>
</a>
</g>
</g>
<!-- Node1&#45;&gt;Node5 -->
<g id="edge4" class="edge">
<title>Node1&#45;&gt;Node5</title>
<path fill="none" stroke="midnightblue" d="M202.15,-97.5C211.37,-97.5 221.13,-97.5 230.99,-97.5"/>
<polygon fill="midnightblue" stroke="midnightblue" points="202.01,-94 192.01,-97.5 202.01,-101 202.01,-94"/>
</g>
<!-- Node7 -->
<g id="node7" class="node">
<title>Node7</title>
<g id="a_node7"><a xlink:href="classboost_1_1asio_1_1detail_1_1reactive__socket__recvmsg__op__base__ext.html" target="_top" xlink:title=" ">
<polygon fill="white" stroke="black" points="228,-9 228,-50 427,-50 427,-9 228,-9"/>
<text text-anchor="start" x="236" y="-38" font-family="Helvetica" font-size="10.00">boost::asio::detail</text>
<text text-anchor="start" x="236" y="-27" font-family="Helvetica" font-size="10.00">::reactive_socket_recvmsg</text>
<text text-anchor="middle" x="327.5" y="-16" font-family="Helvetica" font-size="10.00">_op_base_ext&lt; MutableBufferSequence &gt;</text>
</a>
</g>
</g>
<!-- Node1&#45;&gt;Node7 -->
<g id="edge6" class="edge">
<title>Node1&#45;&gt;Node7</title>
<path fill="none" stroke="midnightblue" d="M187.87,-78.16C200.64,-72.52 214.8,-66.53 228,-61.5 238.33,-57.56 249.39,-53.67 260.22,-50.03"/>
<polygon fill="midnightblue" stroke="midnightblue" points="186.12,-75.11 178.41,-82.38 188.97,-81.5 186.12,-75.11"/>
</g>
<!-- Node2 -->
<g id="node2" class="node">
<title>Node2</title>
<g id="a_node2"><a xlink:title=" ">
<polygon fill="white" stroke="black" points="0,-88 0,-107 62,-107 62,-88 0,-88"/>
<text text-anchor="middle" x="31" y="-95" font-family="Helvetica" font-size="10.00">reactor_op</text>
</a>
</g>
</g>
<!-- Node2&#45;&gt;Node1 -->
<g id="edge1" class="edge">
<title>Node2&#45;&gt;Node1</title>
<path fill="none" stroke="midnightblue" d="M72.22,-97.5C80.54,-97.5 89.36,-97.5 97.87,-97.5"/>
<polygon fill="midnightblue" stroke="midnightblue" points="72.01,-94 62.01,-97.5 72.01,-101 72.01,-94"/>
</g>
<!-- Node4 -->
<g id="node4" class="node">
<title>Node4</title>
<g id="a_node4"><a xlink:href="classboost_1_1asio_1_1detail_1_1reactive__socket__recv__op__ext.html" target="_top" xlink:title=" ">
<polygon fill="white" stroke="black" points="463,-142.5 463,-194.5 630,-194.5 630,-142.5 463,-142.5"/>
<text text-anchor="start" x="471" y="-182.5" font-family="Helvetica" font-size="10.00">boost::asio::detail</text>
<text text-anchor="start" x="471" y="-171.5" font-family="Helvetica" font-size="10.00">::reactive_socket_recv</text>
<text text-anchor="start" x="471" y="-160.5" font-family="Helvetica" font-size="10.00">_op_ext&lt; MutableBufferSequence,</text>
<text text-anchor="middle" x="546.5" y="-149.5" font-family="Helvetica" font-size="10.00"> Handler &gt;</text>
</a>
</g>
</g>
<!-- Node3&#45;&gt;Node4 -->
<g id="edge3" class="edge">
<title>Node3&#45;&gt;Node4</title>
<path fill="none" stroke="midnightblue" d="M437.29,-167C445.93,-167.12 454.57,-167.24 462.99,-167.36"/>
<polygon fill="midnightblue" stroke="midnightblue" points="437.21,-163.5 427.16,-166.86 437.11,-170.5 437.21,-163.5"/>
</g>
<!-- Node6 -->
<g id="node6" class="node">
<title>Node6</title>
<g id="a_node6"><a xlink:href="classboost_1_1asio_1_1detail_1_1reactive__socket__recvfrom__op__ext.html" target="_top" xlink:title=" ">
<polygon fill="white" stroke="black" points="463,-71.5 463,-123.5 630,-123.5 630,-71.5 463,-71.5"/>
<text text-anchor="start" x="471" y="-111.5" font-family="Helvetica" font-size="10.00">boost::asio::detail</text>
<text text-anchor="start" x="471" y="-100.5" font-family="Helvetica" font-size="10.00">::reactive_socket_recvfrom</text>
<text text-anchor="start" x="471" y="-89.5" font-family="Helvetica" font-size="10.00">_op_ext&lt; MutableBufferSequence,</text>
<text text-anchor="middle" x="546.5" y="-78.5" font-family="Helvetica" font-size="10.00"> Endpoint, Handler &gt;</text>
</a>
</g>
</g>
<!-- Node5&#45;&gt;Node6 -->
<g id="edge5" class="edge">
<title>Node5&#45;&gt;Node6</title>
<path fill="none" stroke="midnightblue" d="M434.57,-97.5C444.05,-97.5 453.55,-97.5 462.79,-97.5"/>
<polygon fill="midnightblue" stroke="midnightblue" points="434.31,-94 424.31,-97.5 434.31,-101 434.31,-94"/>
</g>
<!-- Node8 -->
<g id="node8" class="node">
<title>Node8</title>
<g id="a_node8"><a xlink:href="classboost_1_1asio_1_1detail_1_1reactive__socket__recvmsg__op__ext.html" target="_top" xlink:title=" ">
<polygon fill="white" stroke="black" points="463,-0.5 463,-52.5 630,-52.5 630,-0.5 463,-0.5"/>
<text text-anchor="start" x="471" y="-40.5" font-family="Helvetica" font-size="10.00">boost::asio::detail</text>
<text text-anchor="start" x="471" y="-29.5" font-family="Helvetica" font-size="10.00">::reactive_socket_recvmsg</text>
<text text-anchor="start" x="471" y="-18.5" font-family="Helvetica" font-size="10.00">_op_ext&lt; MutableBufferSequence,</text>
<text text-anchor="middle" x="546.5" y="-7.5" font-family="Helvetica" font-size="10.00"> Handler &gt;</text>
</a>
</g>
</g>
<!-- Node7&#45;&gt;Node8 -->
<g id="edge7" class="edge">
<title>Node7&#45;&gt;Node8</title>
<path fill="none" stroke="midnightblue" d="M437.29,-28C445.93,-27.88 454.57,-27.76 462.99,-27.64"/>
<polygon fill="midnightblue" stroke="midnightblue" points="437.11,-24.5 427.16,-28.14 437.21,-31.5 437.11,-24.5"/>
</g>
</g>
</svg>
