<?xml version="1.0" encoding="UTF-8" standalone="no"?>
<!DOCTYPE svg PUBLIC "-//W3C//DTD SVG 1.1//EN"
 "http://www.w3.org/Graphics/SVG/1.1/DTD/svg11.dtd">
<!-- Generated by graphviz version 2.44.0 (0)
 -->
<!-- Title: vsomeip_v3::routing_manager_client Pages: 1 -->
<svg width="445pt" height="187pt"
 viewBox="0.00 0.00 445.00 187.00" xmlns="http://www.w3.org/2000/svg" xmlns:xlink="http://www.w3.org/1999/xlink">
<g id="graph0" class="graph" transform="scale(1 1) rotate(0) translate(4 183)">
<title>vsomeip_v3::routing_manager_client</title>
<polygon fill="white" stroke="transparent" points="-4,4 -4,-183 441,-183 441,4 -4,4"/>
<!-- Node1 -->
<g id="node1" class="node">
<title>Node1</title>
<g id="a_node1"><a xlink:title=" ">
<polygon fill="#bfbfbf" stroke="black" points="333,-79.5 333,-109.5 437,-109.5 437,-79.5 333,-79.5"/>
<text text-anchor="start" x="341" y="-97.5" font-family="Helvetica" font-size="10.00">vsomeip_v3::routing</text>
<text text-anchor="middle" x="385" y="-86.5" font-family="Helvetica" font-size="10.00">_manager_client</text>
</a>
</g>
</g>
<!-- Node2 -->
<g id="node2" class="node">
<title>Node2</title>
<g id="a_node2"><a xlink:href="classvsomeip__v3_1_1routing__manager__base.html" target="_top" xlink:title=" ">
<polygon fill="white" stroke="black" points="192,-79.5 192,-109.5 296,-109.5 296,-79.5 192,-79.5"/>
<text text-anchor="start" x="200" y="-97.5" font-family="Helvetica" font-size="10.00">vsomeip_v3::routing</text>
<text text-anchor="middle" x="244" y="-86.5" font-family="Helvetica" font-size="10.00">_manager_base</text>
</a>
</g>
</g>
<!-- Node2&#45;&gt;Node1 -->
<g id="edge1" class="edge">
<title>Node2&#45;&gt;Node1</title>
<path fill="none" stroke="midnightblue" d="M306.56,-94.5C315.34,-94.5 324.29,-94.5 332.85,-94.5"/>
<polygon fill="midnightblue" stroke="midnightblue" points="306.36,-91 296.36,-94.5 306.36,-98 306.36,-91"/>
</g>
<!-- Node3 -->
<g id="node3" class="node">
<title>Node3</title>
<g id="a_node3"><a xlink:href="classvsomeip__v3_1_1routing__manager.html" target="_top" xlink:title=" ">
<polygon fill="white" stroke="black" points="12,-148.5 12,-178.5 116,-178.5 116,-148.5 12,-148.5"/>
<text text-anchor="start" x="20" y="-166.5" font-family="Helvetica" font-size="10.00">vsomeip_v3::routing</text>
<text text-anchor="middle" x="64" y="-155.5" font-family="Helvetica" font-size="10.00">_manager</text>
</a>
</g>
</g>
<!-- Node3&#45;&gt;Node2 -->
<g id="edge2" class="edge">
<title>Node3&#45;&gt;Node2</title>
<path fill="none" stroke="midnightblue" d="M113.42,-144.73C141.88,-133.7 177.38,-119.94 204.03,-109.61"/>
<polygon fill="midnightblue" stroke="midnightblue" points="112.12,-141.48 104.06,-148.36 114.65,-148.01 112.12,-141.48"/>
</g>
<!-- Node4 -->
<g id="node4" class="node">
<title>Node4</title>
<g id="a_node4"><a xlink:href="classvsomeip__v3_1_1routing__host.html" target="_top" xlink:title=" ">
<polygon fill="white" stroke="black" points="0,-110 0,-129 128,-129 128,-110 0,-110"/>
<text text-anchor="middle" x="64" y="-117" font-family="Helvetica" font-size="10.00">vsomeip_v3::routing_host</text>
</a>
</g>
</g>
<!-- Node4&#45;&gt;Node2 -->
<g id="edge3" class="edge">
<title>Node4&#45;&gt;Node2</title>
<path fill="none" stroke="midnightblue" d="M137.94,-109.26C156.02,-106.72 175.02,-104.05 191.81,-101.69"/>
<polygon fill="midnightblue" stroke="midnightblue" points="137.42,-105.79 128.01,-110.65 138.4,-112.73 137.42,-105.79"/>
</g>
<!-- Node5 -->
<g id="node5" class="node">
<title>Node5</title>
<g id="a_node5"><a xlink:title=" ">
<polygon fill="white" stroke="black" points="13.5,-50 13.5,-91 114.5,-91 114.5,-50 13.5,-50"/>
<text text-anchor="start" x="21.5" y="-79" font-family="Helvetica" font-size="10.00">std::enable_shared</text>
<text text-anchor="start" x="21.5" y="-68" font-family="Helvetica" font-size="10.00">_from_this&lt; routing</text>
<text text-anchor="middle" x="64" y="-57" font-family="Helvetica" font-size="10.00">_manager_base &gt;</text>
</a>
</g>
</g>
<!-- Node5&#45;&gt;Node2 -->
<g id="edge4" class="edge">
<title>Node5&#45;&gt;Node2</title>
<path fill="none" stroke="midnightblue" d="M124.7,-78.55C146.47,-81.48 170.87,-84.77 191.82,-87.6"/>
<polygon fill="midnightblue" stroke="midnightblue" points="124.96,-75.05 114.58,-77.19 124.03,-81.99 124.96,-75.05"/>
</g>
<!-- Node6 -->
<g id="node6" class="node">
<title>Node6</title>
<g id="a_node6"><a xlink:href="classvsomeip__v3_1_1routing__manager__host.html" target="_top" xlink:title=" ">
<polygon fill="white" stroke="black" points="12,-0.5 12,-30.5 116,-30.5 116,-0.5 12,-0.5"/>
<text text-anchor="start" x="20" y="-18.5" font-family="Helvetica" font-size="10.00">vsomeip_v3::routing</text>
<text text-anchor="middle" x="64" y="-7.5" font-family="Helvetica" font-size="10.00">_manager_host</text>
</a>
</g>
</g>
<!-- Node6&#45;&gt;Node2 -->
<g id="edge5" class="edge">
<title>Node6&#45;&gt;Node2</title>
<path fill="none" stroke="#9a32cd" stroke-dasharray="5,2" d="M113.53,-34.41C118.43,-36.43 123.33,-38.48 128,-40.5 156.74,-52.94 188.98,-68.19 212,-79.31"/>
<polygon fill="#9a32cd" stroke="#9a32cd" points="114.72,-31.12 104.14,-30.6 112.09,-37.6 114.72,-31.12"/>
<text text-anchor="middle" x="160" y="-63.5" font-family="Helvetica" font-size="10.00"> host_</text>
</g>
</g>
</svg>
