<?xml version="1.0" encoding="UTF-8" standalone="no"?>
<!DOCTYPE svg PUBLIC "-//W3C//DTD SVG 1.1//EN"
 "http://www.w3.org/Graphics/SVG/1.1/DTD/svg11.dtd">
<!-- Generated by graphviz version 2.44.0 (0)
 -->
<!-- Title: vsomeip_v3::message Pages: 1 -->
<svg width="284pt" height="140pt"
 viewBox="0.00 0.00 284.00 140.00" xmlns="http://www.w3.org/2000/svg" xmlns:xlink="http://www.w3.org/1999/xlink">
<g id="graph0" class="graph" transform="scale(1 1) rotate(0) translate(4 136)">
<title>vsomeip_v3::message</title>
<polygon fill="white" stroke="transparent" points="-4,4 -4,-136 280,-136 280,4 -4,4"/>
<!-- Node1 -->
<g id="node1" class="node">
<title>Node1</title>
<g id="a_node1"><a xlink:title="Implements regular SOME/IP messages.">
<polygon fill="#bfbfbf" stroke="black" points="77.5,-0.5 77.5,-19.5 192.5,-19.5 192.5,-0.5 77.5,-0.5"/>
<text text-anchor="middle" x="135" y="-7.5" font-family="Helvetica" font-size="10.00">vsomeip_v3::message</text>
</a>
</g>
</g>
<!-- Node2 -->
<g id="node2" class="node">
<title>Node2</title>
<g id="a_node2"><a xlink:href="classvsomeip__v3_1_1message__base.html" target="_top" xlink:title="Base class to implement SOME/IP messages.">
<polygon fill="white" stroke="black" points="64.5,-56.5 64.5,-75.5 205.5,-75.5 205.5,-56.5 64.5,-56.5"/>
<text text-anchor="middle" x="135" y="-63.5" font-family="Helvetica" font-size="10.00">vsomeip_v3::message_base</text>
</a>
</g>
</g>
<!-- Node2&#45;&gt;Node1 -->
<g id="edge1" class="edge">
<title>Node2&#45;&gt;Node1</title>
<path fill="none" stroke="midnightblue" d="M135,-45.8C135,-36.91 135,-26.78 135,-19.75"/>
<polygon fill="midnightblue" stroke="midnightblue" points="131.5,-46.08 135,-56.08 138.5,-46.08 131.5,-46.08"/>
</g>
<!-- Node3 -->
<g id="node3" class="node">
<title>Node3</title>
<g id="a_node3"><a xlink:href="classvsomeip__v3_1_1serializable.html" target="_top" xlink:title=" ">
<polygon fill="white" stroke="black" points="0,-112.5 0,-131.5 124,-131.5 124,-112.5 0,-112.5"/>
<text text-anchor="middle" x="62" y="-119.5" font-family="Helvetica" font-size="10.00">vsomeip_v3::serializable</text>
</a>
</g>
</g>
<!-- Node3&#45;&gt;Node2 -->
<g id="edge2" class="edge">
<title>Node3&#45;&gt;Node2</title>
<path fill="none" stroke="midnightblue" d="M82.14,-106.1C95.28,-96.38 111.98,-84.03 123.06,-75.83"/>
<polygon fill="midnightblue" stroke="midnightblue" points="79.69,-103.56 73.73,-112.32 83.85,-109.19 79.69,-103.56"/>
</g>
<!-- Node4 -->
<g id="node4" class="node">
<title>Node4</title>
<g id="a_node4"><a xlink:href="classvsomeip__v3_1_1deserializable.html" target="_top" xlink:title=" ">
<polygon fill="white" stroke="black" points="142,-112.5 142,-131.5 276,-131.5 276,-112.5 142,-112.5"/>
<text text-anchor="middle" x="209" y="-119.5" font-family="Helvetica" font-size="10.00">vsomeip_v3::deserializable</text>
</a>
</g>
</g>
<!-- Node4&#45;&gt;Node2 -->
<g id="edge3" class="edge">
<title>Node4&#45;&gt;Node2</title>
<path fill="none" stroke="midnightblue" d="M188.97,-106.38C175.59,-96.62 158.44,-84.11 147.11,-75.83"/>
<polygon fill="midnightblue" stroke="midnightblue" points="186.97,-109.26 197.11,-112.32 191.1,-103.6 186.97,-109.26"/>
</g>
</g>
</svg>
