<?xml version="1.0" encoding="UTF-8" standalone="no"?>
<!DOCTYPE svg PUBLIC "-//W3C//DTD SVG 1.1//EN"
 "http://www.w3.org/Graphics/SVG/1.1/DTD/svg11.dtd">
<!-- Generated by graphviz version 2.44.0 (0)
 -->
<!-- Title: vsomeip_v3::routing_host Pages: 1 -->
<svg width="295pt" height="162pt"
 viewBox="0.00 0.00 295.00 162.00" xmlns="http://www.w3.org/2000/svg" xmlns:xlink="http://www.w3.org/1999/xlink">
<g id="graph0" class="graph" transform="scale(1 1) rotate(0) translate(4 158)">
<title>vsomeip_v3::routing_host</title>
<polygon fill="white" stroke="transparent" points="-4,4 -4,-158 291,-158 291,4 -4,4"/>
<!-- Node1 -->
<g id="node1" class="node">
<title>Node1</title>
<g id="a_node1"><a xlink:title=" ">
<polygon fill="#bfbfbf" stroke="black" points="110,-134.5 110,-153.5 238,-153.5 238,-134.5 110,-134.5"/>
<text text-anchor="middle" x="174" y="-141.5" font-family="Helvetica" font-size="10.00">vsomeip_v3::routing_host</text>
</a>
</g>
</g>
<!-- Node2 -->
<g id="node2" class="node">
<title>Node2</title>
<g id="a_node2"><a xlink:href="classvsomeip__v3_1_1routing__manager__base.html" target="_top" xlink:title=" ">
<polygon fill="white" stroke="black" points="61,-67.5 61,-97.5 165,-97.5 165,-67.5 61,-67.5"/>
<text text-anchor="start" x="69" y="-85.5" font-family="Helvetica" font-size="10.00">vsomeip_v3::routing</text>
<text text-anchor="middle" x="113" y="-74.5" font-family="Helvetica" font-size="10.00">_manager_base</text>
</a>
</g>
</g>
<!-- Node1&#45;&gt;Node2 -->
<g id="edge1" class="edge">
<title>Node1&#45;&gt;Node2</title>
<path fill="none" stroke="midnightblue" d="M157.97,-127.37C148.49,-118.11 136.56,-106.48 127.38,-97.52"/>
<polygon fill="midnightblue" stroke="midnightblue" points="155.66,-130 165.26,-134.48 160.55,-124.99 155.66,-130"/>
</g>
<!-- Node5 -->
<g id="node5" class="node">
<title>Node5</title>
<g id="a_node5"><a xlink:href="classvsomeip__v3_1_1routing__manager__stub.html" target="_top" xlink:title=" ">
<polygon fill="white" stroke="black" points="183,-67.5 183,-97.5 287,-97.5 287,-67.5 183,-67.5"/>
<text text-anchor="start" x="191" y="-85.5" font-family="Helvetica" font-size="10.00">vsomeip_v3::routing</text>
<text text-anchor="middle" x="235" y="-74.5" font-family="Helvetica" font-size="10.00">_manager_stub</text>
</a>
</g>
</g>
<!-- Node1&#45;&gt;Node5 -->
<g id="edge4" class="edge">
<title>Node1&#45;&gt;Node5</title>
<path fill="none" stroke="midnightblue" d="M190.03,-127.37C199.51,-118.11 211.44,-106.48 220.62,-97.52"/>
<polygon fill="midnightblue" stroke="midnightblue" points="187.45,-124.99 182.74,-134.48 192.34,-130 187.45,-124.99"/>
</g>
<!-- Node3 -->
<g id="node3" class="node">
<title>Node3</title>
<g id="a_node3"><a xlink:href="classvsomeip__v3_1_1routing__manager__client.html" target="_top" xlink:title=" ">
<polygon fill="white" stroke="black" points="0,-0.5 0,-30.5 104,-30.5 104,-0.5 0,-0.5"/>
<text text-anchor="start" x="8" y="-18.5" font-family="Helvetica" font-size="10.00">vsomeip_v3::routing</text>
<text text-anchor="middle" x="52" y="-7.5" font-family="Helvetica" font-size="10.00">_manager_client</text>
</a>
</g>
</g>
<!-- Node2&#45;&gt;Node3 -->
<g id="edge2" class="edge">
<title>Node2&#45;&gt;Node3</title>
<path fill="none" stroke="midnightblue" d="M92.85,-60.02C83.76,-50.34 73.28,-39.17 65.21,-30.58"/>
<polygon fill="midnightblue" stroke="midnightblue" points="90.37,-62.5 99.76,-67.4 95.47,-57.71 90.37,-62.5"/>
</g>
<!-- Node4 -->
<g id="node4" class="node">
<title>Node4</title>
<g id="a_node4"><a xlink:href="classvsomeip__v3_1_1routing__manager__impl.html" target="_top" xlink:title=" ">
<polygon fill="white" stroke="black" points="122,-0.5 122,-30.5 226,-30.5 226,-0.5 122,-0.5"/>
<text text-anchor="start" x="130" y="-18.5" font-family="Helvetica" font-size="10.00">vsomeip_v3::routing</text>
<text text-anchor="middle" x="174" y="-7.5" font-family="Helvetica" font-size="10.00">_manager_impl</text>
</a>
</g>
</g>
<!-- Node2&#45;&gt;Node4 -->
<g id="edge3" class="edge">
<title>Node2&#45;&gt;Node4</title>
<path fill="none" stroke="midnightblue" d="M133.15,-60.02C142.24,-50.34 152.72,-39.17 160.79,-30.58"/>
<polygon fill="midnightblue" stroke="midnightblue" points="130.53,-57.71 126.24,-67.4 135.63,-62.5 130.53,-57.71"/>
</g>
</g>
</svg>
