<?xml version="1.0" encoding="UTF-8" standalone="no"?>
<!DOCTYPE svg PUBLIC "-//W3C//DTD SVG 1.1//EN"
 "http://www.w3.org/Graphics/SVG/1.1/DTD/svg11.dtd">
<!-- Generated by graphviz version 2.44.0 (0)
 -->
<!-- Title: boost::asio::detail::reactive_socket_recv_op_ext&lt; MutableBufferSequence, Handler &gt; Pages: 1 -->
<svg width="207pt" height="262pt"
 viewBox="0.00 0.00 207.00 262.00" xmlns="http://www.w3.org/2000/svg" xmlns:xlink="http://www.w3.org/1999/xlink">
<g id="graph0" class="graph" transform="scale(1 1) rotate(0) translate(4 258)">
<title>boost::asio::detail::reactive_socket_recv_op_ext&lt; MutableBufferSequence, Handler &gt;</title>
<polygon fill="white" stroke="transparent" points="-4,4 -4,-258 203,-258 203,4 -4,4"/>
<!-- Node1 -->
<g id="node1" class="node">
<title>Node1</title>
<g id="a_node1"><a xlink:title=" ">
<polygon fill="#bfbfbf" stroke="black" points="16,-0.5 16,-52.5 183,-52.5 183,-0.5 16,-0.5"/>
<text text-anchor="start" x="24" y="-40.5" font-family="Helvetica" font-size="10.00">boost::asio::detail</text>
<text text-anchor="start" x="24" y="-29.5" font-family="Helvetica" font-size="10.00">::reactive_socket_recv</text>
<text text-anchor="start" x="24" y="-18.5" font-family="Helvetica" font-size="10.00">_op_ext&lt; MutableBufferSequence,</text>
<text text-anchor="middle" x="99.5" y="-7.5" font-family="Helvetica" font-size="10.00"> Handler &gt;</text>
</a>
</g>
</g>
<!-- Node2 -->
<g id="node2" class="node">
<title>Node2</title>
<g id="a_node2"><a xlink:href="classboost_1_1asio_1_1detail_1_1reactive__socket__recv__op__base__ext.html" target="_top" xlink:title=" ">
<polygon fill="white" stroke="black" points="0,-89.5 0,-130.5 199,-130.5 199,-89.5 0,-89.5"/>
<text text-anchor="start" x="8" y="-118.5" font-family="Helvetica" font-size="10.00">boost::asio::detail</text>
<text text-anchor="start" x="8" y="-107.5" font-family="Helvetica" font-size="10.00">::reactive_socket_recv</text>
<text text-anchor="middle" x="99.5" y="-96.5" font-family="Helvetica" font-size="10.00">_op_base_ext&lt; MutableBufferSequence &gt;</text>
</a>
</g>
</g>
<!-- Node2&#45;&gt;Node1 -->
<g id="edge1" class="edge">
<title>Node2&#45;&gt;Node1</title>
<path fill="none" stroke="midnightblue" d="M99.5,-79.12C99.5,-70.41 99.5,-60.99 99.5,-52.61"/>
<polygon fill="midnightblue" stroke="midnightblue" points="96,-79.27 99.5,-89.27 103,-79.27 96,-79.27"/>
</g>
<!-- Node3 -->
<g id="node3" class="node">
<title>Node3</title>
<g id="a_node3"><a xlink:href="classboost_1_1asio_1_1detail_1_1reactor__op__ext.html" target="_top" xlink:title=" ">
<polygon fill="white" stroke="black" points="52.5,-167.5 52.5,-197.5 146.5,-197.5 146.5,-167.5 52.5,-167.5"/>
<text text-anchor="start" x="60.5" y="-185.5" font-family="Helvetica" font-size="10.00">boost::asio::detail</text>
<text text-anchor="middle" x="99.5" y="-174.5" font-family="Helvetica" font-size="10.00">::reactor_op_ext</text>
</a>
</g>
</g>
<!-- Node3&#45;&gt;Node2 -->
<g id="edge2" class="edge">
<title>Node3&#45;&gt;Node2</title>
<path fill="none" stroke="midnightblue" d="M99.5,-156.98C99.5,-148.35 99.5,-138.76 99.5,-130.59"/>
<polygon fill="midnightblue" stroke="midnightblue" points="96,-157.23 99.5,-167.23 103,-157.23 96,-157.23"/>
</g>
<!-- Node4 -->
<g id="node4" class="node">
<title>Node4</title>
<g id="a_node4"><a xlink:title=" ">
<polygon fill="white" stroke="black" points="68.5,-234.5 68.5,-253.5 130.5,-253.5 130.5,-234.5 68.5,-234.5"/>
<text text-anchor="middle" x="99.5" y="-241.5" font-family="Helvetica" font-size="10.00">reactor_op</text>
</a>
</g>
</g>
<!-- Node4&#45;&gt;Node3 -->
<g id="edge3" class="edge">
<title>Node4&#45;&gt;Node3</title>
<path fill="none" stroke="midnightblue" d="M99.5,-224.23C99.5,-215.59 99.5,-205.5 99.5,-197.52"/>
<polygon fill="midnightblue" stroke="midnightblue" points="96,-224.48 99.5,-234.48 103,-224.48 96,-224.48"/>
</g>
</g>
</svg>
