<?xml version="1.0" encoding="UTF-8" standalone="no"?>
<!DOCTYPE svg PUBLIC "-//W3C//DTD SVG 1.1//EN"
 "http://www.w3.org/Graphics/SVG/1.1/DTD/svg11.dtd">
<!-- Generated by graphviz version 2.44.0 (0)
 -->
<!-- Title: vsomeip_v3::protocol::deregister_application_command Pages: 1 -->
<svg width="125pt" height="184pt"
 viewBox="0.00 0.00 125.00 184.00" xmlns="http://www.w3.org/2000/svg" xmlns:xlink="http://www.w3.org/1999/xlink">
<g id="graph0" class="graph" transform="scale(1 1) rotate(0) translate(4 180)">
<title>vsomeip_v3::protocol::deregister_application_command</title>
<polygon fill="white" stroke="transparent" points="-4,4 -4,-180 121,-180 121,4 -4,4"/>
<!-- Node1 -->
<g id="node1" class="node">
<title>Node1</title>
<g id="a_node1"><a xlink:title=" ">
<polygon fill="#bfbfbf" stroke="black" points="0,-0.5 0,-41.5 117,-41.5 117,-0.5 0,-0.5"/>
<text text-anchor="start" x="8" y="-29.5" font-family="Helvetica" font-size="10.00">vsomeip_v3::protocol</text>
<text text-anchor="start" x="8" y="-18.5" font-family="Helvetica" font-size="10.00">::deregister_application</text>
<text text-anchor="middle" x="58.5" y="-7.5" font-family="Helvetica" font-size="10.00">_command</text>
</a>
</g>
</g>
<!-- Node2 -->
<g id="node2" class="node">
<title>Node2</title>
<g id="a_node2"><a xlink:href="classvsomeip__v3_1_1protocol_1_1simple__command.html" target="_top" xlink:title=" ">
<polygon fill="white" stroke="black" points="3.5,-78.5 3.5,-108.5 113.5,-108.5 113.5,-78.5 3.5,-78.5"/>
<text text-anchor="start" x="11.5" y="-96.5" font-family="Helvetica" font-size="10.00">vsomeip_v3::protocol</text>
<text text-anchor="middle" x="58.5" y="-85.5" font-family="Helvetica" font-size="10.00">::simple_command</text>
</a>
</g>
</g>
<!-- Node2&#45;&gt;Node1 -->
<g id="edge1" class="edge">
<title>Node2&#45;&gt;Node1</title>
<path fill="none" stroke="midnightblue" d="M58.5,-67.98C58.5,-59.35 58.5,-49.76 58.5,-41.59"/>
<polygon fill="midnightblue" stroke="midnightblue" points="55,-68.23 58.5,-78.23 62,-68.23 55,-68.23"/>
</g>
<!-- Node3 -->
<g id="node3" class="node">
<title>Node3</title>
<g id="a_node3"><a xlink:href="classvsomeip__v3_1_1protocol_1_1command.html" target="_top" xlink:title=" ">
<polygon fill="white" stroke="black" points="3.5,-145.5 3.5,-175.5 113.5,-175.5 113.5,-145.5 3.5,-145.5"/>
<text text-anchor="start" x="11.5" y="-163.5" font-family="Helvetica" font-size="10.00">vsomeip_v3::protocol</text>
<text text-anchor="middle" x="58.5" y="-152.5" font-family="Helvetica" font-size="10.00">::command</text>
</a>
</g>
</g>
<!-- Node3&#45;&gt;Node2 -->
<g id="edge2" class="edge">
<title>Node3&#45;&gt;Node2</title>
<path fill="none" stroke="midnightblue" d="M58.5,-135.11C58.5,-126.15 58.5,-116.32 58.5,-108.58"/>
<polygon fill="midnightblue" stroke="midnightblue" points="55,-135.4 58.5,-145.4 62,-135.4 55,-135.4"/>
</g>
</g>
</svg>
