<?xml version="1.0" encoding="UTF-8" standalone="no"?>
<!DOCTYPE svg PUBLIC "-//W3C//DTD SVG 1.1//EN"
 "http://www.w3.org/Graphics/SVG/1.1/DTD/svg11.dtd">
<!-- Generated by graphviz version 2.44.0 (0)
 -->
<!-- Title: vsomeip_v3::client_endpoint_impl&lt; Protocol &gt; Pages: 1 -->
<svg width="620pt" height="186pt"
 viewBox="0.00 0.00 620.00 186.00" xmlns="http://www.w3.org/2000/svg" xmlns:xlink="http://www.w3.org/1999/xlink">
<g id="graph0" class="graph" transform="scale(1 1) rotate(0) translate(4 182)">
<title>vsomeip_v3::client_endpoint_impl&lt; Protocol &gt;</title>
<polygon fill="white" stroke="transparent" points="-4,4 -4,-182 616,-182 616,4 -4,4"/>
<!-- Node1 -->
<g id="node1" class="node">
<title>Node1</title>
<g id="a_node1"><a xlink:title=" ">
<polygon fill="#bfbfbf" stroke="black" points="321,-73.5 321,-103.5 457,-103.5 457,-73.5 321,-73.5"/>
<text text-anchor="start" x="329" y="-91.5" font-family="Helvetica" font-size="10.00">vsomeip_v3::client</text>
<text text-anchor="middle" x="389" y="-80.5" font-family="Helvetica" font-size="10.00">_endpoint_impl&lt; Protocol &gt;</text>
</a>
</g>
</g>
<!-- Node6 -->
<g id="node6" class="node">
<title>Node6</title>
<g id="a_node6"><a xlink:href="classvsomeip__v3_1_1local__tcp__client__endpoint__impl.html" target="_top" xlink:title=" ">
<polygon fill="white" stroke="black" points="495.5,-147.5 495.5,-177.5 609.5,-177.5 609.5,-147.5 495.5,-147.5"/>
<text text-anchor="start" x="503.5" y="-165.5" font-family="Helvetica" font-size="10.00">vsomeip_v3::local_tcp</text>
<text text-anchor="middle" x="552.5" y="-154.5" font-family="Helvetica" font-size="10.00">_client_endpoint_impl</text>
</a>
</g>
</g>
<!-- Node1&#45;&gt;Node6 -->
<g id="edge6" class="edge">
<title>Node1&#45;&gt;Node6</title>
<path fill="none" stroke="midnightblue" d="M428.99,-108.14C448.14,-117.6 471.64,-128.94 493,-138.5 499.71,-141.5 506.92,-144.58 513.9,-147.48"/>
<polygon fill="midnightblue" stroke="midnightblue" points="430.48,-104.97 419.96,-103.66 427.36,-111.24 430.48,-104.97"/>
</g>
<!-- Node7 -->
<g id="node7" class="node">
<title>Node7</title>
<g id="a_node7"><a xlink:href="classvsomeip__v3_1_1local__uds__client__endpoint__impl.html" target="_top" xlink:title=" ">
<polygon fill="white" stroke="black" points="494.5,-98.5 494.5,-128.5 610.5,-128.5 610.5,-98.5 494.5,-98.5"/>
<text text-anchor="start" x="502.5" y="-116.5" font-family="Helvetica" font-size="10.00">vsomeip_v3::local_uds</text>
<text text-anchor="middle" x="552.5" y="-105.5" font-family="Helvetica" font-size="10.00">_client_endpoint_impl</text>
</a>
</g>
</g>
<!-- Node1&#45;&gt;Node7 -->
<g id="edge7" class="edge">
<title>Node1&#45;&gt;Node7</title>
<path fill="none" stroke="midnightblue" d="M467.03,-100.42C476.24,-101.85 485.52,-103.29 494.38,-104.66"/>
<polygon fill="midnightblue" stroke="midnightblue" points="467.51,-96.96 457.09,-98.89 466.43,-103.87 467.51,-96.96"/>
</g>
<!-- Node8 -->
<g id="node8" class="node">
<title>Node8</title>
<g id="a_node8"><a xlink:href="classvsomeip__v3_1_1tcp__client__endpoint__impl.html" target="_top" xlink:title=" ">
<polygon fill="white" stroke="black" points="494,-49.5 494,-79.5 611,-79.5 611,-49.5 494,-49.5"/>
<text text-anchor="start" x="502" y="-67.5" font-family="Helvetica" font-size="10.00">vsomeip_v3::tcp_client</text>
<text text-anchor="middle" x="552.5" y="-56.5" font-family="Helvetica" font-size="10.00">_endpoint_impl</text>
</a>
</g>
</g>
<!-- Node1&#45;&gt;Node8 -->
<g id="edge8" class="edge">
<title>Node1&#45;&gt;Node8</title>
<path fill="none" stroke="midnightblue" d="M467.18,-77.03C476.17,-75.69 485.21,-74.35 493.87,-73.06"/>
<polygon fill="midnightblue" stroke="midnightblue" points="466.46,-73.6 457.09,-78.53 467.49,-80.52 466.46,-73.6"/>
</g>
<!-- Node9 -->
<g id="node9" class="node">
<title>Node9</title>
<g id="a_node9"><a xlink:href="classvsomeip__v3_1_1udp__client__endpoint__impl.html" target="_top" xlink:title=" ">
<polygon fill="white" stroke="black" points="493,-0.5 493,-30.5 612,-30.5 612,-0.5 493,-0.5"/>
<text text-anchor="start" x="501" y="-18.5" font-family="Helvetica" font-size="10.00">vsomeip_v3::udp_client</text>
<text text-anchor="middle" x="552.5" y="-7.5" font-family="Helvetica" font-size="10.00">_endpoint_impl</text>
</a>
</g>
</g>
<!-- Node1&#45;&gt;Node9 -->
<g id="edge9" class="edge">
<title>Node1&#45;&gt;Node9</title>
<path fill="none" stroke="midnightblue" d="M429.45,-69.11C448.53,-59.89 471.84,-48.87 493,-39.5 499.73,-36.52 506.94,-33.46 513.92,-30.56"/>
<polygon fill="midnightblue" stroke="midnightblue" points="427.91,-65.97 420.44,-73.48 430.97,-72.26 427.91,-65.97"/>
</g>
<!-- Node2 -->
<g id="node2" class="node">
<title>Node2</title>
<g id="a_node2"><a xlink:href="classvsomeip__v3_1_1endpoint__impl.html" target="_top" xlink:title=" ">
<polygon fill="white" stroke="black" points="160.5,-122.5 160.5,-152.5 272.5,-152.5 272.5,-122.5 160.5,-122.5"/>
<text text-anchor="start" x="168.5" y="-140.5" font-family="Helvetica" font-size="10.00">vsomeip_v3::endpoint</text>
<text text-anchor="middle" x="216.5" y="-129.5" font-family="Helvetica" font-size="10.00">_impl&lt; Protocol &gt;</text>
</a>
</g>
</g>
<!-- Node2&#45;&gt;Node1 -->
<g id="edge1" class="edge">
<title>Node2&#45;&gt;Node1</title>
<path fill="none" stroke="midnightblue" d="M279.76,-119.61C298.1,-114.34 317.98,-108.62 335.63,-103.55"/>
<polygon fill="midnightblue" stroke="midnightblue" points="278.69,-116.27 270.05,-122.4 280.62,-123 278.69,-116.27"/>
</g>
<!-- Node3 -->
<g id="node3" class="node">
<title>Node3</title>
<g id="a_node3"><a xlink:href="classvsomeip__v3_1_1endpoint.html" target="_top" xlink:title=" ">
<polygon fill="white" stroke="black" points="0,-103 0,-122 112,-122 112,-103 0,-103"/>
<text text-anchor="middle" x="56" y="-110" font-family="Helvetica" font-size="10.00">vsomeip_v3::endpoint</text>
</a>
</g>
</g>
<!-- Node3&#45;&gt;Node2 -->
<g id="edge2" class="edge">
<title>Node3&#45;&gt;Node2</title>
<path fill="none" stroke="midnightblue" d="M122.42,-122.82C135.03,-124.81 148.12,-126.87 160.36,-128.8"/>
<polygon fill="midnightblue" stroke="midnightblue" points="122.86,-119.34 112.44,-121.24 121.77,-126.26 122.86,-119.34"/>
</g>
<!-- Node4 -->
<g id="node4" class="node">
<title>Node4</title>
<g id="a_node4"><a xlink:href="classvsomeip__v3_1_1client__endpoint.html" target="_top" xlink:title=" ">
<polygon fill="white" stroke="black" points="167.5,-73.5 167.5,-103.5 265.5,-103.5 265.5,-73.5 167.5,-73.5"/>
<text text-anchor="start" x="175.5" y="-91.5" font-family="Helvetica" font-size="10.00">vsomeip_v3::client</text>
<text text-anchor="middle" x="216.5" y="-80.5" font-family="Helvetica" font-size="10.00">_endpoint</text>
</a>
</g>
</g>
<!-- Node3&#45;&gt;Node4 -->
<g id="edge4" class="edge">
<title>Node3&#45;&gt;Node4</title>
<path fill="none" stroke="midnightblue" d="M122.69,-102.55C137.7,-100.28 153.37,-97.91 167.48,-95.77"/>
<polygon fill="midnightblue" stroke="midnightblue" points="121.8,-99.15 112.44,-104.11 122.85,-106.07 121.8,-99.15"/>
</g>
<!-- Node4&#45;&gt;Node1 -->
<g id="edge3" class="edge">
<title>Node4&#45;&gt;Node1</title>
<path fill="none" stroke="midnightblue" d="M276.13,-88.5C290.49,-88.5 305.97,-88.5 320.7,-88.5"/>
<polygon fill="midnightblue" stroke="midnightblue" points="275.9,-85 265.9,-88.5 275.9,-92 275.9,-85"/>
</g>
<!-- Node5 -->
<g id="node5" class="node">
<title>Node5</title>
<g id="a_node5"><a xlink:title=" ">
<polygon fill="white" stroke="black" points="148,-13 148,-54 285,-54 285,-13 148,-13"/>
<text text-anchor="start" x="156" y="-42" font-family="Helvetica" font-size="10.00">std::enable_shared</text>
<text text-anchor="start" x="156" y="-31" font-family="Helvetica" font-size="10.00">_from_this&lt; client_endpoint</text>
<text text-anchor="middle" x="216.5" y="-20" font-family="Helvetica" font-size="10.00">_impl&lt; Protocol &gt; &gt;</text>
</a>
</g>
</g>
<!-- Node5&#45;&gt;Node1 -->
<g id="edge5" class="edge">
<title>Node5&#45;&gt;Node1</title>
<path fill="none" stroke="midnightblue" d="M291.35,-57.32C308.28,-62.79 325.83,-68.44 341.25,-73.42"/>
<polygon fill="midnightblue" stroke="midnightblue" points="292.06,-53.88 281.47,-54.14 289.92,-60.54 292.06,-53.88"/>
</g>
</g>
</svg>
