<?xml version="1.0" encoding="UTF-8" standalone="no"?>
<!DOCTYPE svg PUBLIC "-//W3C//DTD SVG 1.1//EN"
 "http://www.w3.org/Graphics/SVG/1.1/DTD/svg11.dtd">
<!-- Generated by graphviz version 2.44.0 (0)
 -->
<!-- Title: vsomeip_v3::server_endpoint_impl&lt; Protocol &gt; Pages: 1 -->
<svg width="468pt" height="100pt"
 viewBox="0.00 0.00 468.00 99.50" xmlns="http://www.w3.org/2000/svg" xmlns:xlink="http://www.w3.org/1999/xlink">
<g id="graph0" class="graph" transform="scale(1 1) rotate(0) translate(4 95.5)">
<title>vsomeip_v3::server_endpoint_impl&lt; Protocol &gt;</title>
<polygon fill="white" stroke="transparent" points="-4,4 -4,-95.5 464,-95.5 464,4 -4,4"/>
<!-- Node1 -->
<g id="node1" class="node">
<title>Node1</title>
<g id="a_node1"><a xlink:title=" ">
<polygon fill="#bfbfbf" stroke="black" points="324,-33 324,-63 460,-63 460,-33 324,-33"/>
<text text-anchor="start" x="332" y="-51" font-family="Helvetica" font-size="10.00">vsomeip_v3::server</text>
<text text-anchor="middle" x="392" y="-40" font-family="Helvetica" font-size="10.00">_endpoint_impl&lt; Protocol &gt;</text>
</a>
</g>
</g>
<!-- Node2 -->
<g id="node2" class="node">
<title>Node2</title>
<g id="a_node2"><a xlink:href="classvsomeip__v3_1_1endpoint__impl.html" target="_top" xlink:title=" ">
<polygon fill="white" stroke="black" points="162,-61 162,-91 274,-91 274,-61 162,-61"/>
<text text-anchor="start" x="170" y="-79" font-family="Helvetica" font-size="10.00">vsomeip_v3::endpoint</text>
<text text-anchor="middle" x="218" y="-68" font-family="Helvetica" font-size="10.00">_impl&lt; Protocol &gt;</text>
</a>
</g>
</g>
<!-- Node2&#45;&gt;Node1 -->
<g id="edge1" class="edge">
<title>Node2&#45;&gt;Node1</title>
<path fill="none" stroke="midnightblue" d="M284.5,-65.34C297.33,-63.25 310.81,-61.05 323.7,-58.96"/>
<polygon fill="midnightblue" stroke="midnightblue" points="283.68,-61.93 274.37,-66.99 284.8,-68.83 283.68,-61.93"/>
</g>
<!-- Node3 -->
<g id="node3" class="node">
<title>Node3</title>
<g id="a_node3"><a xlink:href="classvsomeip__v3_1_1endpoint.html" target="_top" xlink:title=" ">
<polygon fill="white" stroke="black" points="0,-66.5 0,-85.5 112,-85.5 112,-66.5 0,-66.5"/>
<text text-anchor="middle" x="56" y="-73.5" font-family="Helvetica" font-size="10.00">vsomeip_v3::endpoint</text>
</a>
</g>
</g>
<!-- Node3&#45;&gt;Node2 -->
<g id="edge2" class="edge">
<title>Node3&#45;&gt;Node2</title>
<path fill="none" stroke="midnightblue" d="M122.42,-76C135.51,-76 149.13,-76 161.84,-76"/>
<polygon fill="midnightblue" stroke="midnightblue" points="122.06,-72.5 112.06,-76 122.06,-79.5 122.06,-72.5"/>
</g>
<!-- Node4 -->
<g id="node4" class="node">
<title>Node4</title>
<g id="a_node4"><a xlink:title=" ">
<polygon fill="white" stroke="black" points="148,-0.5 148,-41.5 288,-41.5 288,-0.5 148,-0.5"/>
<text text-anchor="start" x="156" y="-29.5" font-family="Helvetica" font-size="10.00">std::enable_shared</text>
<text text-anchor="start" x="156" y="-18.5" font-family="Helvetica" font-size="10.00">_from_this&lt; server_endpoint</text>
<text text-anchor="middle" x="218" y="-7.5" font-family="Helvetica" font-size="10.00">_impl&lt; Protocol &gt; &gt;</text>
</a>
</g>
</g>
<!-- Node4&#45;&gt;Node1 -->
<g id="edge3" class="edge">
<title>Node4&#45;&gt;Node1</title>
<path fill="none" stroke="midnightblue" d="M298.38,-33.46C306.87,-34.79 315.45,-36.14 323.79,-37.45"/>
<polygon fill="midnightblue" stroke="midnightblue" points="298.89,-30 288.46,-31.9 297.8,-36.91 298.89,-30"/>
</g>
</g>
</svg>
