<?xml version="1.0" encoding="UTF-8" standalone="no"?>
<!DOCTYPE svg PUBLIC "-//W3C//DTD SVG 1.1//EN"
 "http://www.w3.org/Graphics/SVG/1.1/DTD/svg11.dtd">
<!-- Generated by graphviz version 2.44.0 (0)
 -->
<!-- Title: vsomeip_v3::message_impl Pages: 1 -->
<svg width="375pt" height="317pt"
 viewBox="0.00 0.00 374.50 317.00" xmlns="http://www.w3.org/2000/svg" xmlns:xlink="http://www.w3.org/1999/xlink">
<g id="graph0" class="graph" transform="scale(1 1) rotate(0) translate(4 313)">
<title>vsomeip_v3::message_impl</title>
<polygon fill="white" stroke="transparent" points="-4,4 -4,-313 370.5,-313 370.5,4 -4,4"/>
<!-- Node1 -->
<g id="node1" class="node">
<title>Node1</title>
<g id="a_node1"><a xlink:title=" ">
<polygon fill="#bfbfbf" stroke="black" points="158,-0.5 158,-19.5 296,-19.5 296,-0.5 158,-0.5"/>
<text text-anchor="middle" x="227" y="-7.5" font-family="Helvetica" font-size="10.00">vsomeip_v3::message_impl</text>
</a>
</g>
</g>
<!-- Node2 -->
<g id="node2" class="node">
<title>Node2</title>
<g id="a_node2"><a xlink:href="classvsomeip__v3_1_1message.html" target="_top" xlink:title="Implements regular SOME/IP messages.">
<polygon fill="white" stroke="black" points="169.5,-116.5 169.5,-135.5 284.5,-135.5 284.5,-116.5 169.5,-116.5"/>
<text text-anchor="middle" x="227" y="-123.5" font-family="Helvetica" font-size="10.00">vsomeip_v3::message</text>
</a>
</g>
</g>
<!-- Node2&#45;&gt;Node1 -->
<g id="edge1" class="edge">
<title>Node2&#45;&gt;Node1</title>
<path fill="none" stroke="midnightblue" d="M227,-106.41C227,-81.44 227,-38.08 227,-19.67"/>
<polygon fill="midnightblue" stroke="midnightblue" points="223.5,-106.43 227,-116.43 230.5,-106.43 223.5,-106.43"/>
</g>
<!-- Node3 -->
<g id="node3" class="node">
<title>Node3</title>
<g id="a_node3"><a xlink:href="classvsomeip__v3_1_1message__base.html" target="_top" xlink:title="Base class to implement SOME/IP messages.">
<polygon fill="white" stroke="black" points="90.5,-232.5 90.5,-251.5 231.5,-251.5 231.5,-232.5 90.5,-232.5"/>
<text text-anchor="middle" x="161" y="-239.5" font-family="Helvetica" font-size="10.00">vsomeip_v3::message_base</text>
</a>
</g>
</g>
<!-- Node3&#45;&gt;Node2 -->
<g id="edge2" class="edge">
<title>Node3&#45;&gt;Node2</title>
<path fill="none" stroke="midnightblue" d="M170.99,-223.74C185.31,-199.01 211.13,-154.41 221.98,-135.67"/>
<polygon fill="midnightblue" stroke="midnightblue" points="167.94,-222.02 165.96,-232.43 174,-225.53 167.94,-222.02"/>
</g>
<!-- Node6 -->
<g id="node6" class="node">
<title>Node6</title>
<g id="a_node6"><a xlink:href="classvsomeip__v3_1_1message__base__impl.html" target="_top" xlink:title=" ">
<polygon fill="white" stroke="black" points="83.5,-67.5 83.5,-97.5 198.5,-97.5 198.5,-67.5 83.5,-67.5"/>
<text text-anchor="start" x="91.5" y="-85.5" font-family="Helvetica" font-size="10.00">vsomeip_v3::message</text>
<text text-anchor="middle" x="141" y="-74.5" font-family="Helvetica" font-size="10.00">_base_impl</text>
</a>
</g>
</g>
<!-- Node3&#45;&gt;Node6 -->
<g id="edge6" class="edge">
<title>Node3&#45;&gt;Node6</title>
<path fill="none" stroke="midnightblue" d="M158.56,-221.81C154.48,-189.69 146.37,-125.77 142.78,-97.51"/>
<polygon fill="midnightblue" stroke="midnightblue" points="155.14,-222.6 159.87,-232.08 162.08,-221.72 155.14,-222.6"/>
</g>
<!-- Node7 -->
<g id="node7" class="node">
<title>Node7</title>
<g id="a_node7"><a xlink:href="classvsomeip__v3_1_1message__header__impl.html" target="_top" xlink:title=" ">
<polygon fill="white" stroke="black" points="10.5,-154.5 10.5,-184.5 125.5,-184.5 125.5,-154.5 10.5,-154.5"/>
<text text-anchor="start" x="18.5" y="-172.5" font-family="Helvetica" font-size="10.00">vsomeip_v3::message</text>
<text text-anchor="middle" x="68" y="-161.5" font-family="Helvetica" font-size="10.00">_header_impl</text>
</a>
</g>
</g>
<!-- Node3&#45;&gt;Node7 -->
<g id="edge9" class="edge">
<title>Node3&#45;&gt;Node7</title>
<path fill="none" stroke="#9a32cd" stroke-dasharray="5,2" d="M128.67,-228.23C120.55,-224.28 112.12,-219.5 105,-214 94.33,-205.76 84.55,-194 77.73,-184.78"/>
<polygon fill="#9a32cd" stroke="#9a32cd" points="127.41,-231.51 137.96,-232.47 130.32,-225.14 127.41,-231.51"/>
<text text-anchor="middle" x="122.5" y="-206" font-family="Helvetica" font-size="10.00"> owner_</text>
</g>
<!-- Node4 -->
<g id="node4" class="node">
<title>Node4</title>
<g id="a_node4"><a xlink:href="classvsomeip__v3_1_1serializable.html" target="_top" xlink:title=" ">
<polygon fill="white" stroke="black" points="0,-289.5 0,-308.5 124,-308.5 124,-289.5 0,-289.5"/>
<text text-anchor="middle" x="62" y="-296.5" font-family="Helvetica" font-size="10.00">vsomeip_v3::serializable</text>
</a>
</g>
</g>
<!-- Node4&#45;&gt;Node3 -->
<g id="edge3" class="edge">
<title>Node4&#45;&gt;Node3</title>
<path fill="none" stroke="midnightblue" d="M86.24,-284.54C104.77,-274.24 129.77,-260.35 145.64,-251.53"/>
<polygon fill="midnightblue" stroke="midnightblue" points="84.51,-281.49 77.47,-289.41 87.91,-287.61 84.51,-281.49"/>
</g>
<!-- Node4&#45;&gt;Node7 -->
<g id="edge8" class="edge">
<title>Node4&#45;&gt;Node7</title>
<path fill="none" stroke="midnightblue" d="M62.88,-279.24C64.1,-253.46 66.25,-207.65 67.34,-184.59"/>
<polygon fill="midnightblue" stroke="midnightblue" points="59.39,-279.08 62.41,-289.24 66.38,-279.41 59.39,-279.08"/>
</g>
<!-- Node5 -->
<g id="node5" class="node">
<title>Node5</title>
<g id="a_node5"><a xlink:href="classvsomeip__v3_1_1deserializable.html" target="_top" xlink:title=" ">
<polygon fill="white" stroke="black" points="142,-289.5 142,-308.5 276,-308.5 276,-289.5 142,-289.5"/>
<text text-anchor="middle" x="209" y="-296.5" font-family="Helvetica" font-size="10.00">vsomeip_v3::deserializable</text>
</a>
</g>
</g>
<!-- Node5&#45;&gt;Node3 -->
<g id="edge4" class="edge">
<title>Node5&#45;&gt;Node3</title>
<path fill="none" stroke="midnightblue" d="M194.89,-281.83C186.29,-271.98 175.65,-259.78 168.61,-251.71"/>
<polygon fill="midnightblue" stroke="midnightblue" points="192.29,-284.17 201.5,-289.41 197.56,-279.57 192.29,-284.17"/>
</g>
<!-- Node6&#45;&gt;Node1 -->
<g id="edge5" class="edge">
<title>Node6&#45;&gt;Node1</title>
<path fill="none" stroke="midnightblue" d="M166.15,-60.88C182.75,-47.27 203.67,-30.13 216.15,-19.89"/>
<polygon fill="midnightblue" stroke="midnightblue" points="163.92,-58.19 158.4,-67.23 168.36,-63.6 163.92,-58.19"/>
</g>
<!-- Node7&#45;&gt;Node6 -->
<g id="edge7" class="edge">
<title>Node7&#45;&gt;Node6</title>
<path fill="none" stroke="#9a32cd" stroke-dasharray="5,2" d="M80.73,-145.64C86.6,-136.02 94.03,-124.99 102,-116 107.85,-109.41 115.08,-103 121.72,-97.65"/>
<polygon fill="#9a32cd" stroke="#9a32cd" points="77.67,-143.93 75.61,-154.32 83.7,-147.48 77.67,-143.93"/>
<text text-anchor="middle" x="121" y="-123.5" font-family="Helvetica" font-size="10.00"> header_</text>
</g>
<!-- Node8 -->
<g id="node8" class="node">
<title>Node8</title>
<g id="a_node8"><a xlink:href="structvsomeip__sec__client__t.html" target="_top" xlink:title=" ">
<polygon fill="white" stroke="black" points="255.5,-73 255.5,-92 366.5,-92 366.5,-73 255.5,-73"/>
<text text-anchor="middle" x="311" y="-80" font-family="Helvetica" font-size="10.00">vsomeip_sec_client_t</text>
</a>
</g>
</g>
<!-- Node8&#45;&gt;Node1 -->
<g id="edge10" class="edge">
<title>Node8&#45;&gt;Node1</title>
<path fill="none" stroke="#9a32cd" stroke-dasharray="5,2" d="M292.63,-66.08C275.7,-51.87 251.16,-31.27 237.38,-19.72"/>
<polygon fill="#9a32cd" stroke="#9a32cd" points="290.79,-69.11 300.7,-72.86 295.29,-63.75 290.79,-69.11"/>
<text text-anchor="middle" x="297.5" y="-41" font-family="Helvetica" font-size="10.00"> sec_client_</text>
</g>
</g>
</svg>
