<?xml version="1.0" encoding="UTF-8" standalone="no"?>
<!DOCTYPE svg PUBLIC "-//W3C//DTD SVG 1.1//EN"
 "http://www.w3.org/Graphics/SVG/1.1/DTD/svg11.dtd">
<!-- Generated by graphviz version 2.44.0 (0)
 -->
<!-- Title: vsomeip_v3::routing_manager_impl Pages: 1 -->
<svg width="465pt" height="205pt"
 viewBox="0.00 0.00 465.00 205.00" xmlns="http://www.w3.org/2000/svg" xmlns:xlink="http://www.w3.org/1999/xlink">
<g id="graph0" class="graph" transform="scale(1 1) rotate(0) translate(4 201)">
<title>vsomeip_v3::routing_manager_impl</title>
<polygon fill="white" stroke="transparent" points="-4,4 -4,-201 461,-201 461,4 -4,4"/>
<!-- Node1 -->
<g id="node1" class="node">
<title>Node1</title>
<g id="a_node1"><a xlink:title=" ">
<polygon fill="#bfbfbf" stroke="black" points="353,-49.5 353,-79.5 457,-79.5 457,-49.5 353,-49.5"/>
<text text-anchor="start" x="361" y="-67.5" font-family="Helvetica" font-size="10.00">vsomeip_v3::routing</text>
<text text-anchor="middle" x="405" y="-56.5" font-family="Helvetica" font-size="10.00">_manager_impl</text>
</a>
</g>
</g>
<!-- Node2 -->
<g id="node2" class="node">
<title>Node2</title>
<g id="a_node2"><a xlink:href="classvsomeip__v3_1_1routing__manager__base.html" target="_top" xlink:title=" ">
<polygon fill="white" stroke="black" points="202,-98.5 202,-128.5 306,-128.5 306,-98.5 202,-98.5"/>
<text text-anchor="start" x="210" y="-116.5" font-family="Helvetica" font-size="10.00">vsomeip_v3::routing</text>
<text text-anchor="middle" x="254" y="-105.5" font-family="Helvetica" font-size="10.00">_manager_base</text>
</a>
</g>
</g>
<!-- Node2&#45;&gt;Node1 -->
<g id="edge1" class="edge">
<title>Node2&#45;&gt;Node1</title>
<path fill="none" stroke="midnightblue" d="M310.52,-95.24C326.24,-90.07 343.16,-84.51 358.23,-79.55"/>
<polygon fill="midnightblue" stroke="midnightblue" points="309.33,-91.95 300.92,-98.4 311.51,-98.6 309.33,-91.95"/>
</g>
<!-- Node3 -->
<g id="node3" class="node">
<title>Node3</title>
<g id="a_node3"><a xlink:href="classvsomeip__v3_1_1routing__manager.html" target="_top" xlink:title=" ">
<polygon fill="white" stroke="black" points="12,-166.5 12,-196.5 116,-196.5 116,-166.5 12,-166.5"/>
<text text-anchor="start" x="20" y="-184.5" font-family="Helvetica" font-size="10.00">vsomeip_v3::routing</text>
<text text-anchor="middle" x="64" y="-173.5" font-family="Helvetica" font-size="10.00">_manager</text>
</a>
</g>
</g>
<!-- Node3&#45;&gt;Node2 -->
<g id="edge2" class="edge">
<title>Node3&#45;&gt;Node2</title>
<path fill="none" stroke="midnightblue" d="M116.15,-163C146.05,-152.18 183.31,-138.71 211.39,-128.55"/>
<polygon fill="midnightblue" stroke="midnightblue" points="114.94,-159.72 106.72,-166.41 117.32,-166.3 114.94,-159.72"/>
</g>
<!-- Node4 -->
<g id="node4" class="node">
<title>Node4</title>
<g id="a_node4"><a xlink:href="classvsomeip__v3_1_1routing__host.html" target="_top" xlink:title=" ">
<polygon fill="white" stroke="black" points="0,-128 0,-147 128,-147 128,-128 0,-128"/>
<text text-anchor="middle" x="64" y="-135" font-family="Helvetica" font-size="10.00">vsomeip_v3::routing_host</text>
</a>
</g>
</g>
<!-- Node4&#45;&gt;Node2 -->
<g id="edge3" class="edge">
<title>Node4&#45;&gt;Node2</title>
<path fill="none" stroke="midnightblue" d="M138.12,-128.17C159.43,-125.44 182.26,-122.53 201.9,-120.02"/>
<polygon fill="midnightblue" stroke="midnightblue" points="137.6,-124.7 128.12,-129.44 138.49,-131.65 137.6,-124.7"/>
</g>
<!-- Node5 -->
<g id="node5" class="node">
<title>Node5</title>
<g id="a_node5"><a xlink:title=" ">
<polygon fill="white" stroke="black" points="13.5,-68 13.5,-109 114.5,-109 114.5,-68 13.5,-68"/>
<text text-anchor="start" x="21.5" y="-97" font-family="Helvetica" font-size="10.00">std::enable_shared</text>
<text text-anchor="start" x="21.5" y="-86" font-family="Helvetica" font-size="10.00">_from_this&lt; routing</text>
<text text-anchor="middle" x="64" y="-75" font-family="Helvetica" font-size="10.00">_manager_base &gt;</text>
</a>
</g>
</g>
<!-- Node5&#45;&gt;Node2 -->
<g id="edge4" class="edge">
<title>Node5&#45;&gt;Node2</title>
<path fill="none" stroke="midnightblue" d="M124.9,-96.47C149.68,-99.76 178.12,-103.54 201.9,-106.7"/>
<polygon fill="midnightblue" stroke="midnightblue" points="125.26,-92.98 114.89,-95.13 124.34,-99.92 125.26,-92.98"/>
</g>
<!-- Node6 -->
<g id="node6" class="node">
<title>Node6</title>
<g id="a_node6"><a xlink:href="classvsomeip__v3_1_1routing__manager__host.html" target="_top" xlink:title=" ">
<polygon fill="white" stroke="black" points="12,-18.5 12,-48.5 116,-48.5 116,-18.5 12,-18.5"/>
<text text-anchor="start" x="20" y="-36.5" font-family="Helvetica" font-size="10.00">vsomeip_v3::routing</text>
<text text-anchor="middle" x="64" y="-25.5" font-family="Helvetica" font-size="10.00">_manager_host</text>
</a>
</g>
</g>
<!-- Node6&#45;&gt;Node2 -->
<g id="edge5" class="edge">
<title>Node6&#45;&gt;Node2</title>
<path fill="none" stroke="#9a32cd" stroke-dasharray="5,2" d="M113.56,-52.35C118.46,-54.38 123.34,-56.45 128,-58.5 156.93,-71.23 163.05,-76.82 192,-89.5 198.88,-92.51 206.27,-95.57 213.44,-98.44"/>
<polygon fill="#9a32cd" stroke="#9a32cd" points="114.75,-49.06 104.17,-48.53 112.11,-55.54 114.75,-49.06"/>
<text text-anchor="middle" x="160" y="-83.5" font-family="Helvetica" font-size="10.00"> host_</text>
</g>
<!-- Node7 -->
<g id="node7" class="node">
<title>Node7</title>
<g id="a_node7"><a xlink:href="classvsomeip__v3_1_1routing__manager__stub__host.html" target="_top" xlink:title=" ">
<polygon fill="white" stroke="black" points="200.5,-49.5 200.5,-79.5 307.5,-79.5 307.5,-49.5 200.5,-49.5"/>
<text text-anchor="start" x="208.5" y="-67.5" font-family="Helvetica" font-size="10.00">vsomeip_v3::routing</text>
<text text-anchor="middle" x="254" y="-56.5" font-family="Helvetica" font-size="10.00">_manager_stub_host</text>
</a>
</g>
</g>
<!-- Node7&#45;&gt;Node1 -->
<g id="edge6" class="edge">
<title>Node7&#45;&gt;Node1</title>
<path fill="none" stroke="midnightblue" d="M317.72,-64.5C329.46,-64.5 341.61,-64.5 352.94,-64.5"/>
<polygon fill="midnightblue" stroke="midnightblue" points="317.53,-61 307.53,-64.5 317.53,-68 317.53,-61"/>
</g>
<!-- Node8 -->
<g id="node8" class="node">
<title>Node8</title>
<g id="a_node8"><a xlink:href="classvsomeip__v3_1_1sd_1_1service__discovery__host.html" target="_top" xlink:title=" ">
<polygon fill="white" stroke="black" points="192,-0.5 192,-30.5 316,-30.5 316,-0.5 192,-0.5"/>
<text text-anchor="start" x="200" y="-18.5" font-family="Helvetica" font-size="10.00">vsomeip_v3::sd::service</text>
<text text-anchor="middle" x="254" y="-7.5" font-family="Helvetica" font-size="10.00">_discovery_host</text>
</a>
</g>
</g>
<!-- Node8&#45;&gt;Node1 -->
<g id="edge7" class="edge">
<title>Node8&#45;&gt;Node1</title>
<path fill="none" stroke="midnightblue" d="M310.52,-33.76C326.24,-38.93 343.16,-44.49 358.23,-49.45"/>
<polygon fill="midnightblue" stroke="midnightblue" points="311.51,-30.4 300.92,-30.6 309.33,-37.05 311.51,-30.4"/>
</g>
</g>
</svg>
