<?xml version="1.0" encoding="UTF-8" standalone="no"?>
<!DOCTYPE svg PUBLIC "-//W3C//DTD SVG 1.1//EN"
 "http://www.w3.org/Graphics/SVG/1.1/DTD/svg11.dtd">
<!-- Generated by graphviz version 2.44.0 (0)
 -->
<!-- Title: vsomeip_v3::sd::message_impl Pages: 1 -->
<svg width="284pt" height="207pt"
 viewBox="0.00 0.00 284.00 207.00" xmlns="http://www.w3.org/2000/svg" xmlns:xlink="http://www.w3.org/1999/xlink">
<g id="graph0" class="graph" transform="scale(1 1) rotate(0) translate(4 203)">
<title>vsomeip_v3::sd::message_impl</title>
<polygon fill="white" stroke="transparent" points="-4,4 -4,-203 280,-203 280,4 -4,4"/>
<!-- Node1 -->
<g id="node1" class="node">
<title>Node1</title>
<g id="a_node1"><a xlink:title=" ">
<polygon fill="#bfbfbf" stroke="black" points="57.5,-0.5 57.5,-19.5 212.5,-19.5 212.5,-0.5 57.5,-0.5"/>
<text text-anchor="middle" x="135" y="-7.5" font-family="Helvetica" font-size="10.00">vsomeip_v3::sd::message_impl</text>
</a>
</g>
</g>
<!-- Node2 -->
<g id="node2" class="node">
<title>Node2</title>
<g id="a_node2"><a xlink:href="classvsomeip__v3_1_1message.html" target="_top" xlink:title="Implements regular SOME/IP messages.">
<polygon fill="white" stroke="black" points="11.5,-62 11.5,-81 126.5,-81 126.5,-62 11.5,-62"/>
<text text-anchor="middle" x="69" y="-69" font-family="Helvetica" font-size="10.00">vsomeip_v3::message</text>
</a>
</g>
</g>
<!-- Node2&#45;&gt;Node1 -->
<g id="edge1" class="edge">
<title>Node2&#45;&gt;Node1</title>
<path fill="none" stroke="midnightblue" d="M86.03,-55.15C98.61,-43.81 115.28,-28.78 125.56,-19.51"/>
<polygon fill="midnightblue" stroke="midnightblue" points="83.54,-52.68 78.46,-61.98 88.23,-57.88 83.54,-52.68"/>
</g>
<!-- Node3 -->
<g id="node3" class="node">
<title>Node3</title>
<g id="a_node3"><a xlink:href="classvsomeip__v3_1_1message__base.html" target="_top" xlink:title="Base class to implement SOME/IP messages.">
<polygon fill="white" stroke="black" points="64.5,-123.5 64.5,-142.5 205.5,-142.5 205.5,-123.5 64.5,-123.5"/>
<text text-anchor="middle" x="135" y="-130.5" font-family="Helvetica" font-size="10.00">vsomeip_v3::message_base</text>
</a>
</g>
</g>
<!-- Node3&#45;&gt;Node2 -->
<g id="edge2" class="edge">
<title>Node3&#45;&gt;Node2</title>
<path fill="none" stroke="midnightblue" d="M117.97,-116.65C105.39,-105.31 88.72,-90.28 78.44,-81.01"/>
<polygon fill="midnightblue" stroke="midnightblue" points="115.77,-119.38 125.54,-123.48 120.46,-114.18 115.77,-119.38"/>
</g>
<!-- Node6 -->
<g id="node6" class="node">
<title>Node6</title>
<g id="a_node6"><a xlink:href="classvsomeip__v3_1_1message__base__impl.html" target="_top" xlink:title=" ">
<polygon fill="white" stroke="black" points="144.5,-56.5 144.5,-86.5 259.5,-86.5 259.5,-56.5 144.5,-56.5"/>
<text text-anchor="start" x="152.5" y="-74.5" font-family="Helvetica" font-size="10.00">vsomeip_v3::message</text>
<text text-anchor="middle" x="202" y="-63.5" font-family="Helvetica" font-size="10.00">_base_impl</text>
</a>
</g>
</g>
<!-- Node3&#45;&gt;Node6 -->
<g id="edge6" class="edge">
<title>Node3&#45;&gt;Node6</title>
<path fill="none" stroke="midnightblue" d="M152.29,-116.65C162.76,-107.35 176.02,-95.57 186.21,-86.52"/>
<polygon fill="midnightblue" stroke="midnightblue" points="149.75,-114.22 144.6,-123.48 154.4,-119.45 149.75,-114.22"/>
</g>
<!-- Node4 -->
<g id="node4" class="node">
<title>Node4</title>
<g id="a_node4"><a xlink:href="classvsomeip__v3_1_1serializable.html" target="_top" xlink:title=" ">
<polygon fill="white" stroke="black" points="0,-179.5 0,-198.5 124,-198.5 124,-179.5 0,-179.5"/>
<text text-anchor="middle" x="62" y="-186.5" font-family="Helvetica" font-size="10.00">vsomeip_v3::serializable</text>
</a>
</g>
</g>
<!-- Node4&#45;&gt;Node3 -->
<g id="edge3" class="edge">
<title>Node4&#45;&gt;Node3</title>
<path fill="none" stroke="midnightblue" d="M82.14,-173.1C95.28,-163.38 111.98,-151.03 123.06,-142.83"/>
<polygon fill="midnightblue" stroke="midnightblue" points="79.69,-170.56 73.73,-179.32 83.85,-176.19 79.69,-170.56"/>
</g>
<!-- Node5 -->
<g id="node5" class="node">
<title>Node5</title>
<g id="a_node5"><a xlink:href="classvsomeip__v3_1_1deserializable.html" target="_top" xlink:title=" ">
<polygon fill="white" stroke="black" points="142,-179.5 142,-198.5 276,-198.5 276,-179.5 142,-179.5"/>
<text text-anchor="middle" x="209" y="-186.5" font-family="Helvetica" font-size="10.00">vsomeip_v3::deserializable</text>
</a>
</g>
</g>
<!-- Node5&#45;&gt;Node3 -->
<g id="edge4" class="edge">
<title>Node5&#45;&gt;Node3</title>
<path fill="none" stroke="midnightblue" d="M188.97,-173.38C175.59,-163.62 158.44,-151.11 147.11,-142.83"/>
<polygon fill="midnightblue" stroke="midnightblue" points="186.97,-176.26 197.11,-179.32 191.1,-170.6 186.97,-176.26"/>
</g>
<!-- Node6&#45;&gt;Node1 -->
<g id="edge5" class="edge">
<title>Node6&#45;&gt;Node1</title>
<path fill="none" stroke="midnightblue" d="M178.46,-49.6C166.88,-39.32 153.56,-27.48 144.75,-19.66"/>
<polygon fill="midnightblue" stroke="midnightblue" points="176.32,-52.38 186.12,-56.4 180.97,-47.14 176.32,-52.38"/>
</g>
</g>
</svg>
