<?xml version="1.0" encoding="UTF-8" standalone="no"?>
<!DOCTYPE svg PUBLIC "-//W3C//DTD SVG 1.1//EN"
 "http://www.w3.org/Graphics/SVG/1.1/DTD/svg11.dtd">
<!-- Generated by graphviz version 2.44.0 (0)
 -->
<!-- Title: vsomeip_v3::deserializable Pages: 1 -->
<svg width="695pt" height="246pt"
 viewBox="0.00 0.00 695.00 246.00" xmlns="http://www.w3.org/2000/svg" xmlns:xlink="http://www.w3.org/1999/xlink">
<g id="graph0" class="graph" transform="scale(1 1) rotate(0) translate(4 242)">
<title>vsomeip_v3::deserializable</title>
<polygon fill="white" stroke="transparent" points="-4,4 -4,-242 691,-242 691,4 -4,4"/>
<!-- Node1 -->
<g id="node1" class="node">
<title>Node1</title>
<g id="a_node1"><a xlink:title=" ">
<polygon fill="#bfbfbf" stroke="black" points="0,-133.5 0,-152.5 134,-152.5 134,-133.5 0,-133.5"/>
<text text-anchor="middle" x="67" y="-140.5" font-family="Helvetica" font-size="10.00">vsomeip_v3::deserializable</text>
</a>
</g>
</g>
<!-- Node2 -->
<g id="node2" class="node">
<title>Node2</title>
<g id="a_node2"><a xlink:href="classvsomeip_1_1message__base.html" target="_top" xlink:title="Base class to implement SOME/IP messages.">
<polygon fill="white" stroke="black" points="178,-190.5 178,-209.5 303,-209.5 303,-190.5 178,-190.5"/>
<text text-anchor="middle" x="240.5" y="-197.5" font-family="Helvetica" font-size="10.00">vsomeip::message_base</text>
</a>
</g>
</g>
<!-- Node1&#45;&gt;Node2 -->
<g id="edge1" class="edge">
<title>Node1&#45;&gt;Node2</title>
<path fill="none" stroke="midnightblue" d="M101.19,-156.23C121.01,-163.91 146.77,-173.51 170,-181 180.36,-184.34 191.7,-187.6 202.17,-190.46"/>
<polygon fill="midnightblue" stroke="midnightblue" points="102.28,-152.89 91.69,-152.52 99.74,-159.42 102.28,-152.89"/>
</g>
<!-- Node3 -->
<g id="node3" class="node">
<title>Node3</title>
<g id="a_node3"><a xlink:href="classvsomeip_1_1payload.html" target="_top" xlink:title="This class implements an array of bytes to be used as payload for SOME/IP messages.">
<polygon fill="white" stroke="black" points="194,-152.5 194,-171.5 287,-171.5 287,-152.5 194,-152.5"/>
<text text-anchor="middle" x="240.5" y="-159.5" font-family="Helvetica" font-size="10.00">vsomeip::payload</text>
</a>
</g>
</g>
<!-- Node1&#45;&gt;Node3 -->
<g id="edge2" class="edge">
<title>Node1&#45;&gt;Node3</title>
<path fill="none" stroke="midnightblue" d="M144.67,-151.49C161.45,-153.35 178.69,-155.26 193.8,-156.94"/>
<polygon fill="midnightblue" stroke="midnightblue" points="144.63,-147.97 134.31,-150.35 143.86,-154.93 144.63,-147.97"/>
</g>
<!-- Node4 -->
<g id="node4" class="node">
<title>Node4</title>
<g id="a_node4"><a xlink:href="classvsomeip__v3_1_1message__base.html" target="_top" xlink:title="Base class to implement SOME/IP messages.">
<polygon fill="white" stroke="black" points="170,-114.5 170,-133.5 311,-133.5 311,-114.5 170,-114.5"/>
<text text-anchor="middle" x="240.5" y="-121.5" font-family="Helvetica" font-size="10.00">vsomeip_v3::message_base</text>
</a>
</g>
</g>
<!-- Node1&#45;&gt;Node4 -->
<g id="edge3" class="edge">
<title>Node1&#45;&gt;Node4</title>
<path fill="none" stroke="midnightblue" d="M144.27,-134.55C152.82,-133.6 161.5,-132.64 169.96,-131.7"/>
<polygon fill="midnightblue" stroke="midnightblue" points="143.86,-131.07 134.31,-135.65 144.63,-138.03 143.86,-131.07"/>
</g>
<!-- Node12 -->
<g id="node12" class="node">
<title>Node12</title>
<g id="a_node12"><a xlink:href="classvsomeip__v3_1_1payload.html" target="_top" xlink:title="This class implements an array of bytes to be used as payload for SOME/IP messages.">
<polygon fill="white" stroke="black" points="186,-38.5 186,-57.5 295,-57.5 295,-38.5 186,-38.5"/>
<text text-anchor="middle" x="240.5" y="-45.5" font-family="Helvetica" font-size="10.00">vsomeip_v3::payload</text>
</a>
</g>
</g>
<!-- Node1&#45;&gt;Node12 -->
<g id="edge14" class="edge">
<title>Node1&#45;&gt;Node12</title>
<path fill="none" stroke="midnightblue" d="M94.23,-128.47C129.76,-108.79 192.22,-74.19 222.32,-57.52"/>
<polygon fill="midnightblue" stroke="midnightblue" points="92.44,-125.46 85.39,-133.37 95.83,-131.58 92.44,-125.46"/>
</g>
<!-- Node5 -->
<g id="node5" class="node">
<title>Node5</title>
<g id="a_node5"><a xlink:href="classvsomeip_1_1message.html" target="_top" xlink:title="Implements regular SOME/IP messages.">
<polygon fill="white" stroke="black" points="372,-114.5 372,-133.5 471,-133.5 471,-114.5 372,-114.5"/>
<text text-anchor="middle" x="421.5" y="-121.5" font-family="Helvetica" font-size="10.00">vsomeip::message</text>
</a>
</g>
</g>
<!-- Node4&#45;&gt;Node5 -->
<g id="edge4" class="edge">
<title>Node4&#45;&gt;Node5</title>
<path fill="none" stroke="midnightblue" d="M321.32,-124C338.59,-124 356.36,-124 372,-124"/>
<polygon fill="midnightblue" stroke="midnightblue" points="321.22,-120.5 311.22,-124 321.22,-127.5 321.22,-120.5"/>
</g>
<!-- Node6 -->
<g id="node6" class="node">
<title>Node6</title>
<g id="a_node6"><a xlink:href="classvsomeip_1_1message__base__impl.html" target="_top" xlink:title=" ">
<polygon fill="white" stroke="black" points="347,-76.5 347,-95.5 496,-95.5 496,-76.5 347,-76.5"/>
<text text-anchor="middle" x="421.5" y="-83.5" font-family="Helvetica" font-size="10.00">vsomeip::message_base_impl</text>
</a>
</g>
</g>
<!-- Node4&#45;&gt;Node6 -->
<g id="edge5" class="edge">
<title>Node4&#45;&gt;Node6</title>
<path fill="none" stroke="midnightblue" d="M296.52,-112.32C321.91,-106.93 351.66,-100.61 375.66,-95.52"/>
<polygon fill="midnightblue" stroke="midnightblue" points="295.72,-108.91 286.67,-114.41 297.18,-115.76 295.72,-108.91"/>
</g>
<!-- Node7 -->
<g id="node7" class="node">
<title>Node7</title>
<g id="a_node7"><a xlink:href="classvsomeip__v3_1_1message.html" target="_top" xlink:title="Implements regular SOME/IP messages.">
<polygon fill="white" stroke="black" points="364,-202.5 364,-221.5 479,-221.5 479,-202.5 364,-202.5"/>
<text text-anchor="middle" x="421.5" y="-209.5" font-family="Helvetica" font-size="10.00">vsomeip_v3::message</text>
</a>
</g>
</g>
<!-- Node4&#45;&gt;Node7 -->
<g id="edge6" class="edge">
<title>Node4&#45;&gt;Node7</title>
<path fill="none" stroke="midnightblue" d="M301.89,-137.64C305.08,-139.23 308.14,-141.01 311,-143 333.49,-158.62 324.4,-177.54 347,-193 352.66,-196.87 359.05,-199.95 365.64,-202.4"/>
<polygon fill="midnightblue" stroke="midnightblue" points="303.23,-134.41 292.66,-133.63 300.44,-140.82 303.23,-134.41"/>
</g>
<!-- Node11 -->
<g id="node11" class="node">
<title>Node11</title>
<g id="a_node11"><a xlink:href="classvsomeip__v3_1_1message__base__impl.html" target="_top" xlink:title=" ">
<polygon fill="white" stroke="black" points="364,-153 364,-183 479,-183 479,-153 364,-153"/>
<text text-anchor="start" x="372" y="-171" font-family="Helvetica" font-size="10.00">vsomeip_v3::message</text>
<text text-anchor="middle" x="421.5" y="-160" font-family="Helvetica" font-size="10.00">_base_impl</text>
</a>
</g>
</g>
<!-- Node4&#45;&gt;Node11 -->
<g id="edge10" class="edge">
<title>Node4&#45;&gt;Node11</title>
<path fill="none" stroke="midnightblue" d="M290.11,-135.95C312.84,-141.54 340.05,-148.23 363.72,-154.04"/>
<polygon fill="midnightblue" stroke="midnightblue" points="290.89,-132.54 280.34,-133.55 289.22,-139.33 290.89,-132.54"/>
</g>
<!-- Node8 -->
<g id="node8" class="node">
<title>Node8</title>
<g id="a_node8"><a xlink:href="classvsomeip_1_1message__impl.html" target="_top" xlink:title=" ">
<polygon fill="white" stroke="black" points="548.5,-218.5 548.5,-237.5 670.5,-237.5 670.5,-218.5 548.5,-218.5"/>
<text text-anchor="middle" x="609.5" y="-225.5" font-family="Helvetica" font-size="10.00">vsomeip::message_impl</text>
</a>
</g>
</g>
<!-- Node7&#45;&gt;Node8 -->
<g id="edge7" class="edge">
<title>Node7&#45;&gt;Node8</title>
<path fill="none" stroke="midnightblue" d="M489.28,-217.74C508.56,-219.4 529.48,-221.2 548.33,-222.82"/>
<polygon fill="midnightblue" stroke="midnightblue" points="489.33,-214.24 479.06,-216.87 488.73,-221.21 489.33,-214.24"/>
</g>
<!-- Node9 -->
<g id="node9" class="node">
<title>Node9</title>
<g id="a_node9"><a xlink:href="classvsomeip__v3_1_1message__impl.html" target="_top" xlink:title=" ">
<polygon fill="white" stroke="black" points="540.5,-180.5 540.5,-199.5 678.5,-199.5 678.5,-180.5 540.5,-180.5"/>
<text text-anchor="middle" x="609.5" y="-187.5" font-family="Helvetica" font-size="10.00">vsomeip_v3::message_impl</text>
</a>
</g>
</g>
<!-- Node7&#45;&gt;Node9 -->
<g id="edge8" class="edge">
<title>Node7&#45;&gt;Node9</title>
<path fill="none" stroke="midnightblue" d="M489.24,-204.11C505.87,-202.14 523.72,-200.03 540.41,-198.05"/>
<polygon fill="midnightblue" stroke="midnightblue" points="488.58,-200.66 479.06,-205.31 489.41,-207.61 488.58,-200.66"/>
</g>
<!-- Node10 -->
<g id="node10" class="node">
<title>Node10</title>
<g id="a_node10"><a xlink:href="classvsomeip__v3_1_1sd_1_1message__impl.html" target="_top" xlink:title=" ">
<polygon fill="white" stroke="black" points="532,-142.5 532,-161.5 687,-161.5 687,-142.5 532,-142.5"/>
<text text-anchor="middle" x="609.5" y="-149.5" font-family="Helvetica" font-size="10.00">vsomeip_v3::sd::message_impl</text>
</a>
</g>
</g>
<!-- Node7&#45;&gt;Node10 -->
<g id="edge9" class="edge">
<title>Node7&#45;&gt;Node10</title>
<path fill="none" stroke="midnightblue" d="M477.97,-199.55C484.14,-197.61 490.27,-195.43 496,-193 513.27,-185.68 514.7,-178.23 532,-171 540.96,-167.25 550.84,-164.12 560.43,-161.55"/>
<polygon fill="midnightblue" stroke="midnightblue" points="476.89,-196.22 468.29,-202.4 478.87,-202.93 476.89,-196.22"/>
</g>
<!-- Node11&#45;&gt;Node8 -->
<g id="edge11" class="edge">
<title>Node11&#45;&gt;Node8</title>
<path fill="none" stroke="midnightblue" d="M478.79,-186.56C484.63,-188.66 490.45,-190.83 496,-193 512.3,-199.38 515.44,-203.31 532,-209 542.35,-212.56 553.71,-215.75 564.42,-218.45"/>
<polygon fill="midnightblue" stroke="midnightblue" points="479.59,-183.13 469,-183.1 477.26,-189.73 479.59,-183.13"/>
</g>
<!-- Node11&#45;&gt;Node9 -->
<g id="edge12" class="edge">
<title>Node11&#45;&gt;Node9</title>
<path fill="none" stroke="midnightblue" d="M489.24,-175.89C505.87,-177.86 523.72,-179.97 540.41,-181.95"/>
<polygon fill="midnightblue" stroke="midnightblue" points="489.41,-172.39 479.06,-174.69 488.58,-179.34 489.41,-172.39"/>
</g>
<!-- Node11&#45;&gt;Node10 -->
<g id="edge13" class="edge">
<title>Node11&#45;&gt;Node10</title>
<path fill="none" stroke="midnightblue" d="M489.43,-162.24C503.23,-161.06 517.86,-159.8 531.97,-158.58"/>
<polygon fill="midnightblue" stroke="midnightblue" points="488.73,-158.79 479.06,-163.13 489.33,-165.76 488.73,-158.79"/>
</g>
<!-- Node13 -->
<g id="node13" class="node">
<title>Node13</title>
<g id="a_node13"><a xlink:href="classvsomeip_1_1payload__impl.html" target="_top" xlink:title=" ">
<polygon fill="white" stroke="black" points="363.5,-38.5 363.5,-57.5 479.5,-57.5 479.5,-38.5 363.5,-38.5"/>
<text text-anchor="middle" x="421.5" y="-45.5" font-family="Helvetica" font-size="10.00">vsomeip::payload_impl</text>
</a>
</g>
</g>
<!-- Node12&#45;&gt;Node13 -->
<g id="edge15" class="edge">
<title>Node12&#45;&gt;Node13</title>
<path fill="none" stroke="midnightblue" d="M305.25,-48C324.22,-48 344.89,-48 363.41,-48"/>
<polygon fill="midnightblue" stroke="midnightblue" points="305.21,-44.5 295.21,-48 305.21,-51.5 305.21,-44.5"/>
</g>
<!-- Node14 -->
<g id="node14" class="node">
<title>Node14</title>
<g id="a_node14"><a xlink:href="classvsomeip__v3_1_1payload__impl.html" target="_top" xlink:title=" ">
<polygon fill="white" stroke="black" points="355.5,-0.5 355.5,-19.5 487.5,-19.5 487.5,-0.5 355.5,-0.5"/>
<text text-anchor="middle" x="421.5" y="-7.5" font-family="Helvetica" font-size="10.00">vsomeip_v3::payload_impl</text>
</a>
</g>
</g>
<!-- Node12&#45;&gt;Node14 -->
<g id="edge16" class="edge">
<title>Node12&#45;&gt;Node14</title>
<path fill="none" stroke="midnightblue" d="M296.52,-36.32C321.91,-30.93 351.66,-24.61 375.66,-19.52"/>
<polygon fill="midnightblue" stroke="midnightblue" points="295.72,-32.91 286.67,-38.41 297.18,-39.76 295.72,-32.91"/>
</g>
</g>
</svg>
