<?xml version="1.0" encoding="UTF-8" standalone="no"?>
<!DOCTYPE svg PUBLIC "-//W3C//DTD SVG 1.1//EN"
 "http://www.w3.org/Graphics/SVG/1.1/DTD/svg11.dtd">
<!-- Generated by graphviz version 2.44.0 (0)
 -->
<!-- Title: vsomeip::message_impl Pages: 1 -->
<svg width="293pt" height="307pt"
 viewBox="0.00 0.00 292.50 307.00" xmlns="http://www.w3.org/2000/svg" xmlns:xlink="http://www.w3.org/1999/xlink">
<g id="graph0" class="graph" transform="scale(1 1) rotate(0) translate(4 303)">
<title>vsomeip::message_impl</title>
<polygon fill="white" stroke="transparent" points="-4,4 -4,-303 288.5,-303 288.5,4 -4,4"/>
<!-- Node1 -->
<g id="node1" class="node">
<title>Node1</title>
<g id="a_node1"><a xlink:title=" ">
<polygon fill="#bfbfbf" stroke="black" points="123,-0.5 123,-19.5 245,-19.5 245,-0.5 123,-0.5"/>
<text text-anchor="middle" x="184" y="-7.5" font-family="Helvetica" font-size="10.00">vsomeip::message_impl</text>
</a>
</g>
</g>
<!-- Node2 -->
<g id="node2" class="node">
<title>Node2</title>
<g id="a_node2"><a xlink:href="classvsomeip__v3_1_1message__base__impl.html" target="_top" xlink:title=" ">
<polygon fill="white" stroke="black" points="83.5,-57.5 83.5,-87.5 198.5,-87.5 198.5,-57.5 83.5,-57.5"/>
<text text-anchor="start" x="91.5" y="-75.5" font-family="Helvetica" font-size="10.00">vsomeip_v3::message</text>
<text text-anchor="middle" x="141" y="-64.5" font-family="Helvetica" font-size="10.00">_base_impl</text>
</a>
</g>
</g>
<!-- Node2&#45;&gt;Node1 -->
<g id="edge1" class="edge">
<title>Node2&#45;&gt;Node1</title>
<path fill="none" stroke="midnightblue" d="M156.83,-49.22C164.17,-38.9 172.46,-27.24 177.93,-19.54"/>
<polygon fill="midnightblue" stroke="midnightblue" points="153.91,-47.29 150.97,-57.47 159.62,-51.34 153.91,-47.29"/>
</g>
<!-- Node3 -->
<g id="node3" class="node">
<title>Node3</title>
<g id="a_node3"><a xlink:href="classvsomeip__v3_1_1message__base.html" target="_top" xlink:title="Base class to implement SOME/IP messages.">
<polygon fill="white" stroke="black" points="90.5,-222.5 90.5,-241.5 231.5,-241.5 231.5,-222.5 90.5,-222.5"/>
<text text-anchor="middle" x="161" y="-229.5" font-family="Helvetica" font-size="10.00">vsomeip_v3::message_base</text>
</a>
</g>
</g>
<!-- Node3&#45;&gt;Node2 -->
<g id="edge2" class="edge">
<title>Node3&#45;&gt;Node2</title>
<path fill="none" stroke="midnightblue" d="M158.56,-211.81C154.48,-179.69 146.37,-115.77 142.78,-87.51"/>
<polygon fill="midnightblue" stroke="midnightblue" points="155.14,-212.6 159.87,-222.08 162.08,-211.72 155.14,-212.6"/>
</g>
<!-- Node6 -->
<g id="node6" class="node">
<title>Node6</title>
<g id="a_node6"><a xlink:href="classvsomeip__v3_1_1message__header__impl.html" target="_top" xlink:title=" ">
<polygon fill="white" stroke="black" points="10.5,-144.5 10.5,-174.5 125.5,-174.5 125.5,-144.5 10.5,-144.5"/>
<text text-anchor="start" x="18.5" y="-162.5" font-family="Helvetica" font-size="10.00">vsomeip_v3::message</text>
<text text-anchor="middle" x="68" y="-151.5" font-family="Helvetica" font-size="10.00">_header_impl</text>
</a>
</g>
</g>
<!-- Node3&#45;&gt;Node6 -->
<g id="edge7" class="edge">
<title>Node3&#45;&gt;Node6</title>
<path fill="none" stroke="#9a32cd" stroke-dasharray="5,2" d="M128.67,-218.23C120.55,-214.28 112.12,-209.5 105,-204 94.33,-195.76 84.55,-184 77.73,-174.78"/>
<polygon fill="#9a32cd" stroke="#9a32cd" points="127.41,-221.51 137.96,-222.47 130.32,-215.14 127.41,-221.51"/>
<text text-anchor="middle" x="122.5" y="-196" font-family="Helvetica" font-size="10.00"> owner_</text>
</g>
<!-- Node7 -->
<g id="node7" class="node">
<title>Node7</title>
<g id="a_node7"><a xlink:href="classvsomeip__v3_1_1message.html" target="_top" xlink:title="Implements regular SOME/IP messages.">
<polygon fill="white" stroke="black" points="169.5,-106.5 169.5,-125.5 284.5,-125.5 284.5,-106.5 169.5,-106.5"/>
<text text-anchor="middle" x="227" y="-113.5" font-family="Helvetica" font-size="10.00">vsomeip_v3::message</text>
</a>
</g>
</g>
<!-- Node3&#45;&gt;Node7 -->
<g id="edge9" class="edge">
<title>Node3&#45;&gt;Node7</title>
<path fill="none" stroke="midnightblue" d="M170.99,-213.74C185.31,-189.01 211.13,-144.41 221.98,-125.67"/>
<polygon fill="midnightblue" stroke="midnightblue" points="167.94,-212.02 165.96,-222.43 174,-215.53 167.94,-212.02"/>
</g>
<!-- Node4 -->
<g id="node4" class="node">
<title>Node4</title>
<g id="a_node4"><a xlink:href="classvsomeip__v3_1_1serializable.html" target="_top" xlink:title=" ">
<polygon fill="white" stroke="black" points="0,-279.5 0,-298.5 124,-298.5 124,-279.5 0,-279.5"/>
<text text-anchor="middle" x="62" y="-286.5" font-family="Helvetica" font-size="10.00">vsomeip_v3::serializable</text>
</a>
</g>
</g>
<!-- Node4&#45;&gt;Node3 -->
<g id="edge3" class="edge">
<title>Node4&#45;&gt;Node3</title>
<path fill="none" stroke="midnightblue" d="M86.24,-274.54C104.77,-264.24 129.77,-250.35 145.64,-241.53"/>
<polygon fill="midnightblue" stroke="midnightblue" points="84.51,-271.49 77.47,-279.41 87.91,-277.61 84.51,-271.49"/>
</g>
<!-- Node4&#45;&gt;Node6 -->
<g id="edge6" class="edge">
<title>Node4&#45;&gt;Node6</title>
<path fill="none" stroke="midnightblue" d="M62.88,-269.24C64.1,-243.46 66.25,-197.65 67.34,-174.59"/>
<polygon fill="midnightblue" stroke="midnightblue" points="59.39,-269.08 62.41,-279.24 66.38,-269.41 59.39,-269.08"/>
</g>
<!-- Node5 -->
<g id="node5" class="node">
<title>Node5</title>
<g id="a_node5"><a xlink:href="classvsomeip__v3_1_1deserializable.html" target="_top" xlink:title=" ">
<polygon fill="white" stroke="black" points="142,-279.5 142,-298.5 276,-298.5 276,-279.5 142,-279.5"/>
<text text-anchor="middle" x="209" y="-286.5" font-family="Helvetica" font-size="10.00">vsomeip_v3::deserializable</text>
</a>
</g>
</g>
<!-- Node5&#45;&gt;Node3 -->
<g id="edge4" class="edge">
<title>Node5&#45;&gt;Node3</title>
<path fill="none" stroke="midnightblue" d="M194.89,-271.83C186.29,-261.98 175.65,-249.78 168.61,-241.71"/>
<polygon fill="midnightblue" stroke="midnightblue" points="192.29,-274.17 201.5,-279.41 197.56,-269.57 192.29,-274.17"/>
</g>
<!-- Node6&#45;&gt;Node2 -->
<g id="edge5" class="edge">
<title>Node6&#45;&gt;Node2</title>
<path fill="none" stroke="#9a32cd" stroke-dasharray="5,2" d="M80.73,-135.64C86.6,-126.02 94.03,-114.99 102,-106 107.85,-99.41 115.08,-93 121.72,-87.65"/>
<polygon fill="#9a32cd" stroke="#9a32cd" points="77.67,-133.93 75.61,-144.32 83.7,-137.48 77.67,-133.93"/>
<text text-anchor="middle" x="121" y="-113.5" font-family="Helvetica" font-size="10.00"> header_</text>
</g>
<!-- Node7&#45;&gt;Node1 -->
<g id="edge8" class="edge">
<title>Node7&#45;&gt;Node1</title>
<path fill="none" stroke="midnightblue" d="M221.29,-96.45C217.58,-84.94 212.44,-69.95 207,-57 201.4,-43.67 193.67,-28.79 188.76,-19.66"/>
<polygon fill="midnightblue" stroke="midnightblue" points="218.03,-97.73 224.37,-106.22 224.7,-95.63 218.03,-97.73"/>
</g>
</g>
</svg>
