<?xml version="1.0" encoding="UTF-8" standalone="no"?>
<!DOCTYPE svg PUBLIC "-//W3C//DTD SVG 1.1//EN"
 "http://www.w3.org/Graphics/SVG/1.1/DTD/svg11.dtd">
<!-- Generated by graphviz version 2.44.0 (0)
 -->
<!-- Title: vsomeip_v3::tcp_client_endpoint_impl Pages: 1 -->
<svg width="583pt" height="149pt"
 viewBox="0.00 0.00 583.00 148.50" xmlns="http://www.w3.org/2000/svg" xmlns:xlink="http://www.w3.org/1999/xlink">
<g id="graph0" class="graph" transform="scale(1 1) rotate(0) translate(4 144.5)">
<title>vsomeip_v3::tcp_client_endpoint_impl</title>
<polygon fill="white" stroke="transparent" points="-4,4 -4,-144.5 579,-144.5 579,4 -4,4"/>
<!-- Node1 -->
<g id="node1" class="node">
<title>Node1</title>
<g id="a_node1"><a xlink:title=" ">
<polygon fill="#bfbfbf" stroke="black" points="458,-61 458,-91 575,-91 575,-61 458,-61"/>
<text text-anchor="start" x="466" y="-79" font-family="Helvetica" font-size="10.00">vsomeip_v3::tcp_client</text>
<text text-anchor="middle" x="516.5" y="-68" font-family="Helvetica" font-size="10.00">_endpoint_impl</text>
</a>
</g>
</g>
<!-- Node2 -->
<g id="node2" class="node">
<title>Node2</title>
<g id="a_node2"><a xlink:href="classvsomeip__v3_1_1client__endpoint__impl.html" target="_top" xlink:title=" ">
<polygon fill="white" stroke="black" points="321,-61 321,-91 422,-91 422,-61 321,-61"/>
<text text-anchor="start" x="329" y="-79" font-family="Helvetica" font-size="10.00">tcp_client_endpoint</text>
<text text-anchor="middle" x="371.5" y="-68" font-family="Helvetica" font-size="10.00">_base_impl</text>
</a>
</g>
</g>
<!-- Node2&#45;&gt;Node1 -->
<g id="edge1" class="edge">
<title>Node2&#45;&gt;Node1</title>
<path fill="none" stroke="midnightblue" d="M432.22,-76C440.63,-76 449.26,-76 457.62,-76"/>
<polygon fill="midnightblue" stroke="midnightblue" points="432.11,-72.5 422.11,-76 432.11,-79.5 432.11,-72.5"/>
</g>
<!-- Node3 -->
<g id="node3" class="node">
<title>Node3</title>
<g id="a_node3"><a xlink:href="classvsomeip__v3_1_1endpoint__impl.html" target="_top" xlink:title=" ">
<polygon fill="white" stroke="black" points="160.5,-110 160.5,-140 272.5,-140 272.5,-110 160.5,-110"/>
<text text-anchor="start" x="168.5" y="-128" font-family="Helvetica" font-size="10.00">vsomeip_v3::endpoint</text>
<text text-anchor="middle" x="216.5" y="-117" font-family="Helvetica" font-size="10.00">_impl&lt; Protocol &gt;</text>
</a>
</g>
</g>
<!-- Node3&#45;&gt;Node2 -->
<g id="edge2" class="edge">
<title>Node3&#45;&gt;Node2</title>
<path fill="none" stroke="midnightblue" d="M274.51,-106.74C290.65,-101.57 308.03,-96.01 323.5,-91.05"/>
<polygon fill="midnightblue" stroke="midnightblue" points="273.11,-103.52 264.65,-109.9 275.24,-110.18 273.11,-103.52"/>
</g>
<!-- Node4 -->
<g id="node4" class="node">
<title>Node4</title>
<g id="a_node4"><a xlink:href="classvsomeip__v3_1_1endpoint.html" target="_top" xlink:title=" ">
<polygon fill="white" stroke="black" points="0,-90.5 0,-109.5 112,-109.5 112,-90.5 0,-90.5"/>
<text text-anchor="middle" x="56" y="-97.5" font-family="Helvetica" font-size="10.00">vsomeip_v3::endpoint</text>
</a>
</g>
</g>
<!-- Node4&#45;&gt;Node3 -->
<g id="edge3" class="edge">
<title>Node4&#45;&gt;Node3</title>
<path fill="none" stroke="midnightblue" d="M122.42,-110.32C135.03,-112.31 148.12,-114.37 160.36,-116.3"/>
<polygon fill="midnightblue" stroke="midnightblue" points="122.86,-106.84 112.44,-108.74 121.77,-113.76 122.86,-106.84"/>
</g>
<!-- Node5 -->
<g id="node5" class="node">
<title>Node5</title>
<g id="a_node5"><a xlink:href="classvsomeip__v3_1_1client__endpoint.html" target="_top" xlink:title=" ">
<polygon fill="white" stroke="black" points="167.5,-61 167.5,-91 265.5,-91 265.5,-61 167.5,-61"/>
<text text-anchor="start" x="175.5" y="-79" font-family="Helvetica" font-size="10.00">vsomeip_v3::client</text>
<text text-anchor="middle" x="216.5" y="-68" font-family="Helvetica" font-size="10.00">_endpoint</text>
</a>
</g>
</g>
<!-- Node4&#45;&gt;Node5 -->
<g id="edge5" class="edge">
<title>Node4&#45;&gt;Node5</title>
<path fill="none" stroke="midnightblue" d="M122.69,-90.05C137.7,-87.78 153.37,-85.41 167.48,-83.27"/>
<polygon fill="midnightblue" stroke="midnightblue" points="121.8,-86.65 112.44,-91.61 122.85,-93.57 121.8,-86.65"/>
</g>
<!-- Node5&#45;&gt;Node2 -->
<g id="edge4" class="edge">
<title>Node5&#45;&gt;Node2</title>
<path fill="none" stroke="midnightblue" d="M275.97,-76C290.76,-76 306.51,-76 320.83,-76"/>
<polygon fill="midnightblue" stroke="midnightblue" points="275.91,-72.5 265.91,-76 275.91,-79.5 275.91,-72.5"/>
</g>
<!-- Node6 -->
<g id="node6" class="node">
<title>Node6</title>
<g id="a_node6"><a xlink:title=" ">
<polygon fill="white" stroke="black" points="148,-0.5 148,-41.5 285,-41.5 285,-0.5 148,-0.5"/>
<text text-anchor="start" x="156" y="-29.5" font-family="Helvetica" font-size="10.00">std::enable_shared</text>
<text text-anchor="start" x="156" y="-18.5" font-family="Helvetica" font-size="10.00">_from_this&lt; client_endpoint</text>
<text text-anchor="middle" x="216.5" y="-7.5" font-family="Helvetica" font-size="10.00">_impl&lt; Protocol &gt; &gt;</text>
</a>
</g>
</g>
<!-- Node6&#45;&gt;Node2 -->
<g id="edge6" class="edge">
<title>Node6&#45;&gt;Node2</title>
<path fill="none" stroke="midnightblue" d="M284.62,-45.13C299.55,-50.5 314.97,-56.04 328.55,-60.92"/>
<polygon fill="midnightblue" stroke="midnightblue" points="285.5,-41.73 274.91,-41.64 283.13,-48.31 285.5,-41.73"/>
</g>
</g>
</svg>
