<?xml version="1.0" encoding="UTF-8" standalone="no"?>
<!DOCTYPE svg PUBLIC "-//W3C//DTD SVG 1.1//EN"
 "http://www.w3.org/Graphics/SVG/1.1/DTD/svg11.dtd">
<!-- Generated by graphviz version 2.44.0 (0)
 -->
<!-- Title: vsomeip_v3::cfg::configuration_impl Pages: 1 -->
<svg width="284pt" height="106pt"
 viewBox="0.00 0.00 284.00 106.00" xmlns="http://www.w3.org/2000/svg" xmlns:xlink="http://www.w3.org/1999/xlink">
<g id="graph0" class="graph" transform="scale(1 1) rotate(0) translate(4 102)">
<title>vsomeip_v3::cfg::configuration_impl</title>
<polygon fill="white" stroke="transparent" points="-4,4 -4,-102 280,-102 280,4 -4,4"/>
<!-- Node1 -->
<g id="node1" class="node">
<title>Node1</title>
<g id="a_node1"><a xlink:title=" ">
<polygon fill="#bfbfbf" stroke="black" points="52,-0.5 52,-19.5 225,-19.5 225,-0.5 52,-0.5"/>
<text text-anchor="middle" x="138.5" y="-7.5" font-family="Helvetica" font-size="10.00">vsomeip_v3::cfg::configuration_impl</text>
</a>
</g>
</g>
<!-- Node2 -->
<g id="node2" class="node">
<title>Node2</title>
<g id="a_node2"><a xlink:href="classvsomeip__v3_1_1configuration.html" target="_top" xlink:title=" ">
<polygon fill="white" stroke="black" points="0,-67.5 0,-86.5 131,-86.5 131,-67.5 0,-67.5"/>
<text text-anchor="middle" x="65.5" y="-74.5" font-family="Helvetica" font-size="10.00">vsomeip_v3::configuration</text>
</a>
</g>
</g>
<!-- Node2&#45;&gt;Node1 -->
<g id="edge1" class="edge">
<title>Node2&#45;&gt;Node1</title>
<path fill="none" stroke="midnightblue" d="M83.07,-60.36C97.42,-47.58 117.17,-29.99 128.81,-19.63"/>
<polygon fill="midnightblue" stroke="midnightblue" points="80.49,-57.97 75.35,-67.23 85.14,-63.2 80.49,-57.97"/>
</g>
<!-- Node3 -->
<g id="node3" class="node">
<title>Node3</title>
<g id="a_node3"><a xlink:title=" ">
<polygon fill="white" stroke="black" points="149,-56.5 149,-97.5 276,-97.5 276,-56.5 149,-56.5"/>
<text text-anchor="start" x="157" y="-85.5" font-family="Helvetica" font-size="10.00">std::enable_shared</text>
<text text-anchor="start" x="157" y="-74.5" font-family="Helvetica" font-size="10.00">_from_this&lt; configuration</text>
<text text-anchor="middle" x="212.5" y="-63.5" font-family="Helvetica" font-size="10.00">_impl &gt;</text>
</a>
</g>
</g>
<!-- Node3&#45;&gt;Node1 -->
<g id="edge2" class="edge">
<title>Node3&#45;&gt;Node1</title>
<path fill="none" stroke="midnightblue" d="M182.5,-49.65C170.32,-38.95 157.09,-27.33 148.35,-19.65"/>
<polygon fill="midnightblue" stroke="midnightblue" points="180.47,-52.53 190.3,-56.5 185.09,-47.27 180.47,-52.53"/>
</g>
</g>
</svg>
