<?xml version="1.0" encoding="UTF-8" standalone="no"?>
<!DOCTYPE svg PUBLIC "-//W3C//DTD SVG 1.1//EN"
 "http://www.w3.org/Graphics/SVG/1.1/DTD/svg11.dtd">
<!-- Generated by graphviz version 2.44.0 (0)
 -->
<!-- Title: vsomeip_v3::endpoint_manager_impl Pages: 1 -->
<svg width="653pt" height="217pt"
 viewBox="0.00 0.00 653.00 216.50" xmlns="http://www.w3.org/2000/svg" xmlns:xlink="http://www.w3.org/1999/xlink">
<g id="graph0" class="graph" transform="scale(1 1) rotate(0) translate(4 212.5)">
<title>vsomeip_v3::endpoint_manager_impl</title>
<polygon fill="white" stroke="transparent" points="-4,4 -4,-212.5 649,-212.5 649,4 -4,4"/>
<!-- Node1 -->
<g id="node1" class="node">
<title>Node1</title>
<g id="a_node1"><a xlink:title=" ">
<polygon fill="#bfbfbf" stroke="black" points="533,-123.5 533,-153.5 645,-153.5 645,-123.5 533,-123.5"/>
<text text-anchor="start" x="541" y="-141.5" font-family="Helvetica" font-size="10.00">vsomeip_v3::endpoint</text>
<text text-anchor="middle" x="589" y="-130.5" font-family="Helvetica" font-size="10.00">_manager_impl</text>
</a>
</g>
</g>
<!-- Node2 -->
<g id="node2" class="node">
<title>Node2</title>
<g id="a_node2"><a xlink:href="classvsomeip__v3_1_1endpoint__manager__base.html" target="_top" xlink:title=" ">
<polygon fill="white" stroke="black" points="384,-123.5 384,-153.5 496,-153.5 496,-123.5 384,-123.5"/>
<text text-anchor="start" x="392" y="-141.5" font-family="Helvetica" font-size="10.00">vsomeip_v3::endpoint</text>
<text text-anchor="middle" x="440" y="-130.5" font-family="Helvetica" font-size="10.00">_manager_base</text>
</a>
</g>
</g>
<!-- Node2&#45;&gt;Node1 -->
<g id="edge1" class="edge">
<title>Node2&#45;&gt;Node1</title>
<path fill="none" stroke="midnightblue" d="M506.32,-138.5C515.07,-138.5 523.98,-138.5 532.54,-138.5"/>
<polygon fill="midnightblue" stroke="midnightblue" points="506.16,-135 496.16,-138.5 506.16,-142 506.16,-135"/>
</g>
<!-- Node3 -->
<g id="node3" class="node">
<title>Node3</title>
<g id="a_node3"><a xlink:title=" ">
<polygon fill="white" stroke="black" points="206,-167 206,-208 314,-208 314,-167 206,-167"/>
<text text-anchor="start" x="214" y="-196" font-family="Helvetica" font-size="10.00">std::enable_shared</text>
<text text-anchor="start" x="214" y="-185" font-family="Helvetica" font-size="10.00">_from_this&lt; endpoint</text>
<text text-anchor="middle" x="260" y="-174" font-family="Helvetica" font-size="10.00">_manager_base &gt;</text>
</a>
</g>
</g>
<!-- Node3&#45;&gt;Node2 -->
<g id="edge2" class="edge">
<title>Node3&#45;&gt;Node2</title>
<path fill="none" stroke="midnightblue" d="M324.2,-170.1C343.86,-164.69 365.37,-158.77 384.4,-153.53"/>
<polygon fill="midnightblue" stroke="midnightblue" points="323.12,-166.77 314.41,-172.8 324.98,-173.52 323.12,-166.77"/>
</g>
<!-- Node4 -->
<g id="node4" class="node">
<title>Node4</title>
<g id="a_node4"><a xlink:href="classvsomeip__v3_1_1endpoint__host.html" target="_top" xlink:title=" ">
<polygon fill="white" stroke="black" points="192,-129 192,-148 328,-148 328,-129 192,-129"/>
<text text-anchor="middle" x="260" y="-136" font-family="Helvetica" font-size="10.00">vsomeip_v3::endpoint_host</text>
</a>
</g>
</g>
<!-- Node4&#45;&gt;Node2 -->
<g id="edge3" class="edge">
<title>Node4&#45;&gt;Node2</title>
<path fill="none" stroke="midnightblue" d="M338.08,-138.5C353.51,-138.5 369.41,-138.5 383.91,-138.5"/>
<polygon fill="midnightblue" stroke="midnightblue" points="338.04,-135 328.04,-138.5 338.04,-142 338.04,-135"/>
</g>
<!-- Node5 -->
<g id="node5" class="node">
<title>Node5</title>
<g id="a_node5"><a xlink:href="classvsomeip__v3_1_1routing__manager__base.html" target="_top" xlink:title=" ">
<polygon fill="white" stroke="black" points="208,-79.5 208,-109.5 312,-109.5 312,-79.5 208,-79.5"/>
<text text-anchor="start" x="216" y="-97.5" font-family="Helvetica" font-size="10.00">vsomeip_v3::routing</text>
<text text-anchor="middle" x="260" y="-86.5" font-family="Helvetica" font-size="10.00">_manager_base</text>
</a>
</g>
</g>
<!-- Node5&#45;&gt;Node2 -->
<g id="edge4" class="edge">
<title>Node5&#45;&gt;Node2</title>
<path fill="none" stroke="#9a32cd" stroke-dasharray="5,2" d="M321.99,-109.58C342.09,-114.54 364.31,-120.04 383.94,-124.89"/>
<polygon fill="#9a32cd" stroke="#9a32cd" points="322.56,-106.11 312.01,-107.11 320.88,-112.91 322.56,-106.11"/>
<text text-anchor="middle" x="356" y="-122.5" font-family="Helvetica" font-size="10.00"> rm_</text>
</g>
<!-- Node6 -->
<g id="node6" class="node">
<title>Node6</title>
<g id="a_node6"><a xlink:href="classvsomeip__v3_1_1routing__manager.html" target="_top" xlink:title=" ">
<polygon fill="white" stroke="black" points="12,-148.5 12,-178.5 116,-178.5 116,-148.5 12,-148.5"/>
<text text-anchor="start" x="20" y="-166.5" font-family="Helvetica" font-size="10.00">vsomeip_v3::routing</text>
<text text-anchor="middle" x="64" y="-155.5" font-family="Helvetica" font-size="10.00">_manager</text>
</a>
</g>
</g>
<!-- Node6&#45;&gt;Node5 -->
<g id="edge5" class="edge">
<title>Node6&#45;&gt;Node5</title>
<path fill="none" stroke="midnightblue" d="M117.37,-144.87C148.46,-133.82 187.36,-119.98 216.53,-109.61"/>
<polygon fill="midnightblue" stroke="midnightblue" points="115.82,-141.71 107.57,-148.36 118.17,-148.3 115.82,-141.71"/>
</g>
<!-- Node7 -->
<g id="node7" class="node">
<title>Node7</title>
<g id="a_node7"><a xlink:href="classvsomeip__v3_1_1routing__host.html" target="_top" xlink:title=" ">
<polygon fill="white" stroke="black" points="0,-110 0,-129 128,-129 128,-110 0,-110"/>
<text text-anchor="middle" x="64" y="-117" font-family="Helvetica" font-size="10.00">vsomeip_v3::routing_host</text>
</a>
</g>
</g>
<!-- Node7&#45;&gt;Node5 -->
<g id="edge6" class="edge">
<title>Node7&#45;&gt;Node5</title>
<path fill="none" stroke="midnightblue" d="M138.38,-110.04C161.51,-107.06 186.55,-103.84 207.79,-101.1"/>
<polygon fill="midnightblue" stroke="midnightblue" points="137.73,-106.6 128.25,-111.35 138.62,-113.54 137.73,-106.6"/>
</g>
<!-- Node8 -->
<g id="node8" class="node">
<title>Node8</title>
<g id="a_node8"><a xlink:title=" ">
<polygon fill="white" stroke="black" points="13.5,-50 13.5,-91 114.5,-91 114.5,-50 13.5,-50"/>
<text text-anchor="start" x="21.5" y="-79" font-family="Helvetica" font-size="10.00">std::enable_shared</text>
<text text-anchor="start" x="21.5" y="-68" font-family="Helvetica" font-size="10.00">_from_this&lt; routing</text>
<text text-anchor="middle" x="64" y="-57" font-family="Helvetica" font-size="10.00">_manager_base &gt;</text>
</a>
</g>
</g>
<!-- Node8&#45;&gt;Node5 -->
<g id="edge7" class="edge">
<title>Node8&#45;&gt;Node5</title>
<path fill="none" stroke="midnightblue" d="M124.66,-77.88C151.23,-81.17 182.22,-85 207.73,-88.16"/>
<polygon fill="midnightblue" stroke="midnightblue" points="125.06,-74.4 114.71,-76.65 124.2,-81.35 125.06,-74.4"/>
</g>
<!-- Node9 -->
<g id="node9" class="node">
<title>Node9</title>
<g id="a_node9"><a xlink:href="classvsomeip__v3_1_1routing__manager__host.html" target="_top" xlink:title=" ">
<polygon fill="white" stroke="black" points="12,-0.5 12,-30.5 116,-30.5 116,-0.5 12,-0.5"/>
<text text-anchor="start" x="20" y="-18.5" font-family="Helvetica" font-size="10.00">vsomeip_v3::routing</text>
<text text-anchor="middle" x="64" y="-7.5" font-family="Helvetica" font-size="10.00">_manager_host</text>
</a>
</g>
</g>
<!-- Node9&#45;&gt;Node5 -->
<g id="edge8" class="edge">
<title>Node9&#45;&gt;Node5</title>
<path fill="none" stroke="#9a32cd" stroke-dasharray="5,2" d="M113.02,-34.48C118.08,-36.5 123.15,-38.54 128,-40.5 160.15,-53.51 196.63,-68.57 222.91,-79.47"/>
<polygon fill="#9a32cd" stroke="#9a32cd" points="113.93,-31.07 103.35,-30.62 111.34,-37.58 113.93,-31.07"/>
<text text-anchor="middle" x="160" y="-60.5" font-family="Helvetica" font-size="10.00"> host_</text>
</g>
</g>
</svg>
