<?xml version="1.0" encoding="UTF-8" standalone="no"?>
<!DOCTYPE svg PUBLIC "-//W3C//DTD SVG 1.1//EN"
 "http://www.w3.org/Graphics/SVG/1.1/DTD/svg11.dtd">
<!-- Generated by graphviz version 2.44.0 (0)
 -->
<!-- Title: vsomeip_v3::server_endpoint_impl&lt; Protocol &gt; Pages: 1 -->
<svg width="627pt" height="186pt"
 viewBox="0.00 0.00 627.00 186.00" xmlns="http://www.w3.org/2000/svg" xmlns:xlink="http://www.w3.org/1999/xlink">
<g id="graph0" class="graph" transform="scale(1 1) rotate(0) translate(4 182)">
<title>vsomeip_v3::server_endpoint_impl&lt; Protocol &gt;</title>
<polygon fill="white" stroke="transparent" points="-4,4 -4,-182 623,-182 623,4 -4,4"/>
<!-- Node1 -->
<g id="node1" class="node">
<title>Node1</title>
<g id="a_node1"><a xlink:title=" ">
<polygon fill="#bfbfbf" stroke="black" points="324,-73.5 324,-103.5 460,-103.5 460,-73.5 324,-73.5"/>
<text text-anchor="start" x="332" y="-91.5" font-family="Helvetica" font-size="10.00">vsomeip_v3::server</text>
<text text-anchor="middle" x="392" y="-80.5" font-family="Helvetica" font-size="10.00">_endpoint_impl&lt; Protocol &gt;</text>
</a>
</g>
</g>
<!-- Node5 -->
<g id="node5" class="node">
<title>Node5</title>
<g id="a_node5"><a xlink:href="classvsomeip__v3_1_1local__tcp__server__endpoint__impl.html" target="_top" xlink:title=" ">
<polygon fill="white" stroke="black" points="500.5,-147.5 500.5,-177.5 614.5,-177.5 614.5,-147.5 500.5,-147.5"/>
<text text-anchor="start" x="508.5" y="-165.5" font-family="Helvetica" font-size="10.00">vsomeip_v3::local_tcp</text>
<text text-anchor="middle" x="557.5" y="-154.5" font-family="Helvetica" font-size="10.00">_server_endpoint_impl</text>
</a>
</g>
</g>
<!-- Node1&#45;&gt;Node5 -->
<g id="edge4" class="edge">
<title>Node1&#45;&gt;Node5</title>
<path fill="none" stroke="midnightblue" d="M431.52,-108.04C450.74,-117.57 474.43,-129 496,-138.5 502.83,-141.51 510.15,-144.56 517.27,-147.43"/>
<polygon fill="midnightblue" stroke="midnightblue" points="432.99,-104.86 422.48,-103.53 429.86,-111.12 432.99,-104.86"/>
</g>
<!-- Node6 -->
<g id="node6" class="node">
<title>Node6</title>
<g id="a_node6"><a xlink:href="classvsomeip__v3_1_1local__uds__server__endpoint__impl.html" target="_top" xlink:title=" ">
<polygon fill="white" stroke="black" points="499.5,-98.5 499.5,-128.5 615.5,-128.5 615.5,-98.5 499.5,-98.5"/>
<text text-anchor="start" x="507.5" y="-116.5" font-family="Helvetica" font-size="10.00">vsomeip_v3::local_uds</text>
<text text-anchor="middle" x="557.5" y="-105.5" font-family="Helvetica" font-size="10.00">_server_endpoint_impl</text>
</a>
</g>
</g>
<!-- Node1&#45;&gt;Node6 -->
<g id="edge5" class="edge">
<title>Node1&#45;&gt;Node6</title>
<path fill="none" stroke="midnightblue" d="M470.52,-100.35C480.24,-101.84 490.04,-103.34 499.37,-104.76"/>
<polygon fill="midnightblue" stroke="midnightblue" points="470.86,-96.86 460.45,-98.81 469.8,-103.78 470.86,-96.86"/>
</g>
<!-- Node7 -->
<g id="node7" class="node">
<title>Node7</title>
<g id="a_node7"><a xlink:href="classvsomeip__v3_1_1tcp__server__endpoint__impl.html" target="_top" xlink:title=" ">
<polygon fill="white" stroke="black" points="497,-49.5 497,-79.5 618,-79.5 618,-49.5 497,-49.5"/>
<text text-anchor="start" x="505" y="-67.5" font-family="Helvetica" font-size="10.00">vsomeip_v3::tcp_server</text>
<text text-anchor="middle" x="557.5" y="-56.5" font-family="Helvetica" font-size="10.00">_endpoint_impl</text>
</a>
</g>
</g>
<!-- Node1&#45;&gt;Node7 -->
<g id="edge6" class="edge">
<title>Node1&#45;&gt;Node7</title>
<path fill="none" stroke="midnightblue" d="M470.41,-77.14C479.27,-75.84 488.21,-74.52 496.79,-73.26"/>
<polygon fill="midnightblue" stroke="midnightblue" points="469.83,-73.68 460.45,-78.6 470.85,-80.61 469.83,-73.68"/>
</g>
<!-- Node8 -->
<g id="node8" class="node">
<title>Node8</title>
<g id="a_node8"><a xlink:href="classvsomeip__v3_1_1udp__server__endpoint__impl.html" target="_top" xlink:title=" ">
<polygon fill="white" stroke="black" points="496,-0.5 496,-30.5 619,-30.5 619,-0.5 496,-0.5"/>
<text text-anchor="start" x="504" y="-18.5" font-family="Helvetica" font-size="10.00">vsomeip_v3::udp_server</text>
<text text-anchor="middle" x="557.5" y="-7.5" font-family="Helvetica" font-size="10.00">_endpoint_impl</text>
</a>
</g>
</g>
<!-- Node1&#45;&gt;Node8 -->
<g id="edge7" class="edge">
<title>Node1&#45;&gt;Node8</title>
<path fill="none" stroke="midnightblue" d="M432.4,-69C451.47,-59.76 474.78,-48.74 496,-39.5 502.84,-36.52 510.17,-33.48 517.29,-30.61"/>
<polygon fill="midnightblue" stroke="midnightblue" points="430.86,-65.86 423.4,-73.38 433.93,-72.15 430.86,-65.86"/>
</g>
<!-- Node2 -->
<g id="node2" class="node">
<title>Node2</title>
<g id="a_node2"><a xlink:href="classvsomeip__v3_1_1endpoint__impl.html" target="_top" xlink:title=" ">
<polygon fill="white" stroke="black" points="162,-101.5 162,-131.5 274,-131.5 274,-101.5 162,-101.5"/>
<text text-anchor="start" x="170" y="-119.5" font-family="Helvetica" font-size="10.00">vsomeip_v3::endpoint</text>
<text text-anchor="middle" x="218" y="-108.5" font-family="Helvetica" font-size="10.00">_impl&lt; Protocol &gt;</text>
</a>
</g>
</g>
<!-- Node2&#45;&gt;Node1 -->
<g id="edge1" class="edge">
<title>Node2&#45;&gt;Node1</title>
<path fill="none" stroke="midnightblue" d="M284.5,-105.84C297.33,-103.75 310.81,-101.55 323.7,-99.46"/>
<polygon fill="midnightblue" stroke="midnightblue" points="283.68,-102.43 274.37,-107.49 284.8,-109.33 283.68,-102.43"/>
</g>
<!-- Node3 -->
<g id="node3" class="node">
<title>Node3</title>
<g id="a_node3"><a xlink:href="classvsomeip__v3_1_1endpoint.html" target="_top" xlink:title=" ">
<polygon fill="white" stroke="black" points="0,-107 0,-126 112,-126 112,-107 0,-107"/>
<text text-anchor="middle" x="56" y="-114" font-family="Helvetica" font-size="10.00">vsomeip_v3::endpoint</text>
</a>
</g>
</g>
<!-- Node3&#45;&gt;Node2 -->
<g id="edge2" class="edge">
<title>Node3&#45;&gt;Node2</title>
<path fill="none" stroke="midnightblue" d="M122.42,-116.5C135.51,-116.5 149.13,-116.5 161.84,-116.5"/>
<polygon fill="midnightblue" stroke="midnightblue" points="122.06,-113 112.06,-116.5 122.06,-120 122.06,-113"/>
</g>
<!-- Node4 -->
<g id="node4" class="node">
<title>Node4</title>
<g id="a_node4"><a xlink:title=" ">
<polygon fill="white" stroke="black" points="148,-41 148,-82 288,-82 288,-41 148,-41"/>
<text text-anchor="start" x="156" y="-70" font-family="Helvetica" font-size="10.00">std::enable_shared</text>
<text text-anchor="start" x="156" y="-59" font-family="Helvetica" font-size="10.00">_from_this&lt; server_endpoint</text>
<text text-anchor="middle" x="218" y="-48" font-family="Helvetica" font-size="10.00">_impl&lt; Protocol &gt; &gt;</text>
</a>
</g>
</g>
<!-- Node4&#45;&gt;Node1 -->
<g id="edge3" class="edge">
<title>Node4&#45;&gt;Node1</title>
<path fill="none" stroke="midnightblue" d="M298.38,-73.96C306.87,-75.29 315.45,-76.64 323.79,-77.95"/>
<polygon fill="midnightblue" stroke="midnightblue" points="298.89,-70.5 288.46,-72.4 297.8,-77.41 298.89,-70.5"/>
</g>
</g>
</svg>
