<?xml version="1.0" encoding="UTF-8" standalone="no"?>
<!DOCTYPE svg PUBLIC "-//W3C//DTD SVG 1.1//EN"
 "http://www.w3.org/Graphics/SVG/1.1/DTD/svg11.dtd">
<!-- Generated by graphviz version 2.44.0 (0)
 -->
<!-- Title: vsomeip_v3::sd::ipv6_option_impl Pages: 1 -->
<svg width="293pt" height="578pt"
 viewBox="0.00 0.00 292.50 578.00" xmlns="http://www.w3.org/2000/svg" xmlns:xlink="http://www.w3.org/1999/xlink">
<g id="graph0" class="graph" transform="scale(1 1) rotate(0) translate(4 574)">
<title>vsomeip_v3::sd::ipv6_option_impl</title>
<polygon fill="white" stroke="transparent" points="-4,4 -4,-574 288.5,-574 288.5,4 -4,4"/>
<!-- Node1 -->
<g id="node1" class="node">
<title>Node1</title>
<g id="a_node1"><a xlink:title=" ">
<polygon fill="#bfbfbf" stroke="black" points="129,-0.5 129,-30.5 239,-30.5 239,-0.5 129,-0.5"/>
<text text-anchor="start" x="137" y="-18.5" font-family="Helvetica" font-size="10.00">vsomeip_v3::sd::ipv6</text>
<text text-anchor="middle" x="184" y="-7.5" font-family="Helvetica" font-size="10.00">_option_impl</text>
</a>
</g>
</g>
<!-- Node2 -->
<g id="node2" class="node">
<title>Node2</title>
<g id="a_node2"><a xlink:href="classvsomeip__v3_1_1sd_1_1ip__option__impl.html" target="_top" xlink:title=" ">
<polygon fill="white" stroke="black" points="134.5,-68.5 134.5,-98.5 233.5,-98.5 233.5,-68.5 134.5,-68.5"/>
<text text-anchor="start" x="142.5" y="-86.5" font-family="Helvetica" font-size="10.00">vsomeip_v3::sd::ip</text>
<text text-anchor="middle" x="184" y="-75.5" font-family="Helvetica" font-size="10.00">_option_impl</text>
</a>
</g>
</g>
<!-- Node2&#45;&gt;Node1 -->
<g id="edge1" class="edge">
<title>Node2&#45;&gt;Node1</title>
<path fill="none" stroke="midnightblue" d="M184,-58.03C184,-48.86 184,-38.74 184,-30.79"/>
<polygon fill="midnightblue" stroke="midnightblue" points="180.5,-58.18 184,-68.18 187.5,-58.18 180.5,-58.18"/>
</g>
<!-- Node3 -->
<g id="node3" class="node">
<title>Node3</title>
<g id="a_node3"><a xlink:href="classvsomeip__v3_1_1sd_1_1option__impl.html" target="_top" xlink:title=" ">
<polygon fill="white" stroke="black" points="113.5,-136.5 113.5,-155.5 254.5,-155.5 254.5,-136.5 113.5,-136.5"/>
<text text-anchor="middle" x="184" y="-143.5" font-family="Helvetica" font-size="10.00">vsomeip_v3::sd::option_impl</text>
</a>
</g>
</g>
<!-- Node3&#45;&gt;Node2 -->
<g id="edge2" class="edge">
<title>Node3&#45;&gt;Node2</title>
<path fill="none" stroke="midnightblue" d="M184,-126.22C184,-117.36 184,-106.96 184,-98.76"/>
<polygon fill="midnightblue" stroke="midnightblue" points="180.5,-126.33 184,-136.33 187.5,-126.33 180.5,-126.33"/>
</g>
<!-- Node4 -->
<g id="node4" class="node">
<title>Node4</title>
<g id="a_node4"><a xlink:href="classvsomeip__v3_1_1sd_1_1message__element__impl.html" target="_top" xlink:title=" ">
<polygon fill="white" stroke="black" points="118.5,-193.5 118.5,-223.5 249.5,-223.5 249.5,-193.5 118.5,-193.5"/>
<text text-anchor="start" x="126.5" y="-211.5" font-family="Helvetica" font-size="10.00">vsomeip_v3::sd::message</text>
<text text-anchor="middle" x="184" y="-200.5" font-family="Helvetica" font-size="10.00">_element_impl</text>
</a>
</g>
</g>
<!-- Node4&#45;&gt;Node3 -->
<g id="edge3" class="edge">
<title>Node4&#45;&gt;Node3</title>
<path fill="none" stroke="midnightblue" d="M184,-183.35C184,-173.51 184,-162.78 184,-155.54"/>
<polygon fill="midnightblue" stroke="midnightblue" points="180.5,-183.47 184,-193.47 187.5,-183.47 180.5,-183.47"/>
</g>
<!-- Node5 -->
<g id="node5" class="node">
<title>Node5</title>
<g id="a_node5"><a xlink:href="classvsomeip__v3_1_1sd_1_1message__impl.html" target="_top" xlink:title=" ">
<polygon fill="white" stroke="black" points="106.5,-271.5 106.5,-290.5 261.5,-290.5 261.5,-271.5 106.5,-271.5"/>
<text text-anchor="middle" x="184" y="-278.5" font-family="Helvetica" font-size="10.00">vsomeip_v3::sd::message_impl</text>
</a>
</g>
</g>
<!-- Node5&#45;&gt;Node4 -->
<g id="edge4" class="edge">
<title>Node5&#45;&gt;Node4</title>
<path fill="none" stroke="#9a32cd" stroke-dasharray="5,2" d="M184,-261.24C184,-249.41 184,-234.38 184,-223.58"/>
<polygon fill="#9a32cd" stroke="#9a32cd" points="180.5,-261.36 184,-271.36 187.5,-261.36 180.5,-261.36"/>
<text text-anchor="middle" x="201.5" y="-245" font-family="Helvetica" font-size="10.00"> owner_</text>
</g>
<!-- Node6 -->
<g id="node6" class="node">
<title>Node6</title>
<g id="a_node6"><a xlink:href="classvsomeip__v3_1_1message.html" target="_top" xlink:title="Implements regular SOME/IP messages.">
<polygon fill="white" stroke="black" points="169.5,-377.5 169.5,-396.5 284.5,-396.5 284.5,-377.5 169.5,-377.5"/>
<text text-anchor="middle" x="227" y="-384.5" font-family="Helvetica" font-size="10.00">vsomeip_v3::message</text>
</a>
</g>
</g>
<!-- Node6&#45;&gt;Node5 -->
<g id="edge5" class="edge">
<title>Node6&#45;&gt;Node5</title>
<path fill="none" stroke="midnightblue" d="M221.29,-367.45C217.58,-355.94 212.44,-340.95 207,-328 201.4,-314.67 193.67,-299.79 188.76,-290.66"/>
<polygon fill="midnightblue" stroke="midnightblue" points="218.03,-368.73 224.37,-377.22 224.7,-366.63 218.03,-368.73"/>
</g>
<!-- Node7 -->
<g id="node7" class="node">
<title>Node7</title>
<g id="a_node7"><a xlink:href="classvsomeip__v3_1_1message__base.html" target="_top" xlink:title="Base class to implement SOME/IP messages.">
<polygon fill="white" stroke="black" points="90.5,-493.5 90.5,-512.5 231.5,-512.5 231.5,-493.5 90.5,-493.5"/>
<text text-anchor="middle" x="161" y="-500.5" font-family="Helvetica" font-size="10.00">vsomeip_v3::message_base</text>
</a>
</g>
</g>
<!-- Node7&#45;&gt;Node6 -->
<g id="edge6" class="edge">
<title>Node7&#45;&gt;Node6</title>
<path fill="none" stroke="midnightblue" d="M170.99,-484.74C185.31,-460.01 211.13,-415.41 221.98,-396.67"/>
<polygon fill="midnightblue" stroke="midnightblue" points="167.94,-483.02 165.96,-493.43 174,-486.53 167.94,-483.02"/>
</g>
<!-- Node10 -->
<g id="node10" class="node">
<title>Node10</title>
<g id="a_node10"><a xlink:href="classvsomeip__v3_1_1message__base__impl.html" target="_top" xlink:title=" ">
<polygon fill="white" stroke="black" points="83.5,-328.5 83.5,-358.5 198.5,-358.5 198.5,-328.5 83.5,-328.5"/>
<text text-anchor="start" x="91.5" y="-346.5" font-family="Helvetica" font-size="10.00">vsomeip_v3::message</text>
<text text-anchor="middle" x="141" y="-335.5" font-family="Helvetica" font-size="10.00">_base_impl</text>
</a>
</g>
</g>
<!-- Node7&#45;&gt;Node10 -->
<g id="edge10" class="edge">
<title>Node7&#45;&gt;Node10</title>
<path fill="none" stroke="midnightblue" d="M158.56,-482.81C154.48,-450.69 146.37,-386.77 142.78,-358.51"/>
<polygon fill="midnightblue" stroke="midnightblue" points="155.14,-483.6 159.87,-493.08 162.08,-482.72 155.14,-483.6"/>
</g>
<!-- Node11 -->
<g id="node11" class="node">
<title>Node11</title>
<g id="a_node11"><a xlink:href="classvsomeip__v3_1_1message__header__impl.html" target="_top" xlink:title=" ">
<polygon fill="white" stroke="black" points="10.5,-415.5 10.5,-445.5 125.5,-445.5 125.5,-415.5 10.5,-415.5"/>
<text text-anchor="start" x="18.5" y="-433.5" font-family="Helvetica" font-size="10.00">vsomeip_v3::message</text>
<text text-anchor="middle" x="68" y="-422.5" font-family="Helvetica" font-size="10.00">_header_impl</text>
</a>
</g>
</g>
<!-- Node7&#45;&gt;Node11 -->
<g id="edge13" class="edge">
<title>Node7&#45;&gt;Node11</title>
<path fill="none" stroke="#9a32cd" stroke-dasharray="5,2" d="M128.67,-489.23C120.55,-485.28 112.12,-480.5 105,-475 94.33,-466.76 84.55,-455 77.73,-445.78"/>
<polygon fill="#9a32cd" stroke="#9a32cd" points="127.41,-492.51 137.96,-493.47 130.32,-486.14 127.41,-492.51"/>
<text text-anchor="middle" x="122.5" y="-467" font-family="Helvetica" font-size="10.00"> owner_</text>
</g>
<!-- Node8 -->
<g id="node8" class="node">
<title>Node8</title>
<g id="a_node8"><a xlink:href="classvsomeip__v3_1_1serializable.html" target="_top" xlink:title=" ">
<polygon fill="white" stroke="black" points="0,-550.5 0,-569.5 124,-569.5 124,-550.5 0,-550.5"/>
<text text-anchor="middle" x="62" y="-557.5" font-family="Helvetica" font-size="10.00">vsomeip_v3::serializable</text>
</a>
</g>
</g>
<!-- Node8&#45;&gt;Node7 -->
<g id="edge7" class="edge">
<title>Node8&#45;&gt;Node7</title>
<path fill="none" stroke="midnightblue" d="M86.24,-545.54C104.77,-535.24 129.77,-521.35 145.64,-512.53"/>
<polygon fill="midnightblue" stroke="midnightblue" points="84.51,-542.49 77.47,-550.41 87.91,-548.61 84.51,-542.49"/>
</g>
<!-- Node8&#45;&gt;Node11 -->
<g id="edge12" class="edge">
<title>Node8&#45;&gt;Node11</title>
<path fill="none" stroke="midnightblue" d="M62.88,-540.24C64.1,-514.46 66.25,-468.65 67.34,-445.59"/>
<polygon fill="midnightblue" stroke="midnightblue" points="59.39,-540.08 62.41,-550.24 66.38,-540.41 59.39,-540.08"/>
</g>
<!-- Node9 -->
<g id="node9" class="node">
<title>Node9</title>
<g id="a_node9"><a xlink:href="classvsomeip__v3_1_1deserializable.html" target="_top" xlink:title=" ">
<polygon fill="white" stroke="black" points="142,-550.5 142,-569.5 276,-569.5 276,-550.5 142,-550.5"/>
<text text-anchor="middle" x="209" y="-557.5" font-family="Helvetica" font-size="10.00">vsomeip_v3::deserializable</text>
</a>
</g>
</g>
<!-- Node9&#45;&gt;Node7 -->
<g id="edge8" class="edge">
<title>Node9&#45;&gt;Node7</title>
<path fill="none" stroke="midnightblue" d="M194.89,-542.83C186.29,-532.98 175.65,-520.78 168.61,-512.71"/>
<polygon fill="midnightblue" stroke="midnightblue" points="192.29,-545.17 201.5,-550.41 197.56,-540.57 192.29,-545.17"/>
</g>
<!-- Node10&#45;&gt;Node5 -->
<g id="edge9" class="edge">
<title>Node10&#45;&gt;Node5</title>
<path fill="none" stroke="midnightblue" d="M156.83,-320.22C164.17,-309.9 172.46,-298.24 177.93,-290.54"/>
<polygon fill="midnightblue" stroke="midnightblue" points="153.91,-318.29 150.97,-328.47 159.62,-322.34 153.91,-318.29"/>
</g>
<!-- Node11&#45;&gt;Node10 -->
<g id="edge11" class="edge">
<title>Node11&#45;&gt;Node10</title>
<path fill="none" stroke="#9a32cd" stroke-dasharray="5,2" d="M80.73,-406.64C86.6,-397.02 94.03,-385.99 102,-377 107.85,-370.41 115.08,-364 121.72,-358.65"/>
<polygon fill="#9a32cd" stroke="#9a32cd" points="77.67,-404.93 75.61,-415.32 83.7,-408.48 77.67,-404.93"/>
<text text-anchor="middle" x="121" y="-384.5" font-family="Helvetica" font-size="10.00"> header_</text>
</g>
</g>
</svg>
