<?xml version="1.0" encoding="UTF-8" standalone="no"?>
<!DOCTYPE svg PUBLIC "-//W3C//DTD SVG 1.1//EN"
 "http://www.w3.org/Graphics/SVG/1.1/DTD/svg11.dtd">
<!-- Generated by graphviz version 2.44.0 (0)
 -->
<!-- Title: vsomeip_v3::e2e::profile_custom::profile_custom_checker Pages: 1 -->
<svg width="144pt" height="184pt"
 viewBox="0.00 0.00 144.00 184.00" xmlns="http://www.w3.org/2000/svg" xmlns:xlink="http://www.w3.org/1999/xlink">
<g id="graph0" class="graph" transform="scale(1 1) rotate(0) translate(4 180)">
<title>vsomeip_v3::e2e::profile_custom::profile_custom_checker</title>
<polygon fill="white" stroke="transparent" points="-4,4 -4,-180 140,-180 140,4 -4,4"/>
<!-- Node1 -->
<g id="node1" class="node">
<title>Node1</title>
<g id="a_node1"><a xlink:title=" ">
<polygon fill="#bfbfbf" stroke="black" points="6,-0.5 6,-41.5 130,-41.5 130,-0.5 6,-0.5"/>
<text text-anchor="start" x="14" y="-29.5" font-family="Helvetica" font-size="10.00">vsomeip_v3::e2e::profile</text>
<text text-anchor="start" x="14" y="-18.5" font-family="Helvetica" font-size="10.00">_custom::profile_custom</text>
<text text-anchor="middle" x="68" y="-7.5" font-family="Helvetica" font-size="10.00">_checker</text>
</a>
</g>
</g>
<!-- Node2 -->
<g id="node2" class="node">
<title>Node2</title>
<g id="a_node2"><a xlink:href="classvsomeip__v3_1_1e2e_1_1profile__interface_1_1checker.html" target="_top" xlink:title=" ">
<polygon fill="white" stroke="black" points="6.5,-78.5 6.5,-108.5 129.5,-108.5 129.5,-78.5 6.5,-78.5"/>
<text text-anchor="start" x="14.5" y="-96.5" font-family="Helvetica" font-size="10.00">vsomeip_v3::e2e::profile</text>
<text text-anchor="middle" x="68" y="-85.5" font-family="Helvetica" font-size="10.00">_interface::checker</text>
</a>
</g>
</g>
<!-- Node2&#45;&gt;Node1 -->
<g id="edge1" class="edge">
<title>Node2&#45;&gt;Node1</title>
<path fill="none" stroke="midnightblue" d="M68,-67.98C68,-59.35 68,-49.76 68,-41.59"/>
<polygon fill="midnightblue" stroke="midnightblue" points="64.5,-68.23 68,-78.23 71.5,-68.23 64.5,-68.23"/>
</g>
<!-- Node3 -->
<g id="node3" class="node">
<title>Node3</title>
<g id="a_node3"><a xlink:href="classvsomeip__v3_1_1e2e_1_1profile__interface_1_1profile__interface.html" target="_top" xlink:title=" ">
<polygon fill="white" stroke="black" points="0,-145.5 0,-175.5 136,-175.5 136,-145.5 0,-145.5"/>
<text text-anchor="start" x="8" y="-163.5" font-family="Helvetica" font-size="10.00">vsomeip_v3::e2e::profile</text>
<text text-anchor="middle" x="68" y="-152.5" font-family="Helvetica" font-size="10.00">_interface::profile_interface</text>
</a>
</g>
</g>
<!-- Node3&#45;&gt;Node2 -->
<g id="edge2" class="edge">
<title>Node3&#45;&gt;Node2</title>
<path fill="none" stroke="midnightblue" d="M68,-135.11C68,-126.15 68,-116.32 68,-108.58"/>
<polygon fill="midnightblue" stroke="midnightblue" points="64.5,-135.4 68,-145.4 71.5,-135.4 64.5,-135.4"/>
</g>
</g>
</svg>
