<?xml version="1.0" encoding="UTF-8" standalone="no"?>
<!DOCTYPE svg PUBLIC "-//W3C//DTD SVG 1.1//EN"
 "http://www.w3.org/Graphics/SVG/1.1/DTD/svg11.dtd">
<!-- Generated by graphviz version 2.44.0 (0)
 -->
<!-- Title: vsomeip_v3::protocol::stop_offer_service_command Pages: 1 -->
<svg width="137pt" height="184pt"
 viewBox="0.00 0.00 137.00 184.00" xmlns="http://www.w3.org/2000/svg" xmlns:xlink="http://www.w3.org/1999/xlink">
<g id="graph0" class="graph" transform="scale(1 1) rotate(0) translate(4 180)">
<title>vsomeip_v3::protocol::stop_offer_service_command</title>
<polygon fill="white" stroke="transparent" points="-4,4 -4,-180 133,-180 133,4 -4,4"/>
<!-- Node1 -->
<g id="node1" class="node">
<title>Node1</title>
<g id="a_node1"><a xlink:title=" ">
<polygon fill="#bfbfbf" stroke="black" points="9.5,-0.5 9.5,-41.5 119.5,-41.5 119.5,-0.5 9.5,-0.5"/>
<text text-anchor="start" x="17.5" y="-29.5" font-family="Helvetica" font-size="10.00">vsomeip_v3::protocol</text>
<text text-anchor="start" x="17.5" y="-18.5" font-family="Helvetica" font-size="10.00">::stop_offer_service</text>
<text text-anchor="middle" x="64.5" y="-7.5" font-family="Helvetica" font-size="10.00">_command</text>
</a>
</g>
</g>
<!-- Node2 -->
<g id="node2" class="node">
<title>Node2</title>
<g id="a_node2"><a xlink:href="classvsomeip__v3_1_1protocol_1_1service__command__base.html" target="_top" xlink:title=" ">
<polygon fill="white" stroke="black" points="0,-78.5 0,-108.5 129,-108.5 129,-78.5 0,-78.5"/>
<text text-anchor="start" x="8" y="-96.5" font-family="Helvetica" font-size="10.00">vsomeip_v3::protocol</text>
<text text-anchor="middle" x="64.5" y="-85.5" font-family="Helvetica" font-size="10.00">::service_command_base</text>
</a>
</g>
</g>
<!-- Node2&#45;&gt;Node1 -->
<g id="edge1" class="edge">
<title>Node2&#45;&gt;Node1</title>
<path fill="none" stroke="midnightblue" d="M64.5,-67.98C64.5,-59.35 64.5,-49.76 64.5,-41.59"/>
<polygon fill="midnightblue" stroke="midnightblue" points="61,-68.23 64.5,-78.23 68,-68.23 61,-68.23"/>
</g>
<!-- Node3 -->
<g id="node3" class="node">
<title>Node3</title>
<g id="a_node3"><a xlink:href="classvsomeip__v3_1_1protocol_1_1command.html" target="_top" xlink:title=" ">
<polygon fill="white" stroke="black" points="9.5,-145.5 9.5,-175.5 119.5,-175.5 119.5,-145.5 9.5,-145.5"/>
<text text-anchor="start" x="17.5" y="-163.5" font-family="Helvetica" font-size="10.00">vsomeip_v3::protocol</text>
<text text-anchor="middle" x="64.5" y="-152.5" font-family="Helvetica" font-size="10.00">::command</text>
</a>
</g>
</g>
<!-- Node3&#45;&gt;Node2 -->
<g id="edge2" class="edge">
<title>Node3&#45;&gt;Node2</title>
<path fill="none" stroke="midnightblue" d="M64.5,-135.11C64.5,-126.15 64.5,-116.32 64.5,-108.58"/>
<polygon fill="midnightblue" stroke="midnightblue" points="61,-135.4 64.5,-145.4 68,-135.4 61,-135.4"/>
</g>
</g>
</svg>
