<?xml version="1.0" encoding="UTF-8" standalone="no"?>
<!DOCTYPE svg PUBLIC "-//W3C//DTD SVG 1.1//EN"
 "http://www.w3.org/Graphics/SVG/1.1/DTD/svg11.dtd">
<!-- Generated by graphviz version 2.44.0 (0)
 -->
<!-- Title: vsomeip_v3::payload Pages: 1 -->
<svg width="284pt" height="140pt"
 viewBox="0.00 0.00 284.00 140.00" xmlns="http://www.w3.org/2000/svg" xmlns:xlink="http://www.w3.org/1999/xlink">
<g id="graph0" class="graph" transform="scale(1 1) rotate(0) translate(4 136)">
<title>vsomeip_v3::payload</title>
<polygon fill="white" stroke="transparent" points="-4,4 -4,-136 280,-136 280,4 -4,4"/>
<!-- Node1 -->
<g id="node1" class="node">
<title>Node1</title>
<g id="a_node1"><a xlink:title="This class implements an array of bytes to be used as payload for SOME/IP messages.">
<polygon fill="#bfbfbf" stroke="black" points="80.5,-56.5 80.5,-75.5 189.5,-75.5 189.5,-56.5 80.5,-56.5"/>
<text text-anchor="middle" x="135" y="-63.5" font-family="Helvetica" font-size="10.00">vsomeip_v3::payload</text>
</a>
</g>
</g>
<!-- Node4 -->
<g id="node4" class="node">
<title>Node4</title>
<g id="a_node4"><a xlink:href="classvsomeip_1_1payload__impl.html" target="_top" xlink:title=" ">
<polygon fill="white" stroke="black" points="6,-0.5 6,-19.5 122,-19.5 122,-0.5 6,-0.5"/>
<text text-anchor="middle" x="64" y="-7.5" font-family="Helvetica" font-size="10.00">vsomeip::payload_impl</text>
</a>
</g>
</g>
<!-- Node1&#45;&gt;Node4 -->
<g id="edge3" class="edge">
<title>Node1&#45;&gt;Node4</title>
<path fill="none" stroke="midnightblue" d="M115.41,-50.1C102.63,-40.38 86.39,-28.03 75.61,-19.83"/>
<polygon fill="midnightblue" stroke="midnightblue" points="113.51,-53.06 123.59,-56.32 117.75,-47.48 113.51,-53.06"/>
</g>
<!-- Node5 -->
<g id="node5" class="node">
<title>Node5</title>
<g id="a_node5"><a xlink:href="classvsomeip__v3_1_1payload__impl.html" target="_top" xlink:title=" ">
<polygon fill="white" stroke="black" points="140,-0.5 140,-19.5 272,-19.5 272,-0.5 140,-0.5"/>
<text text-anchor="middle" x="206" y="-7.5" font-family="Helvetica" font-size="10.00">vsomeip_v3::payload_impl</text>
</a>
</g>
</g>
<!-- Node1&#45;&gt;Node5 -->
<g id="edge4" class="edge">
<title>Node1&#45;&gt;Node5</title>
<path fill="none" stroke="midnightblue" d="M154.59,-50.1C167.37,-40.38 183.61,-28.03 194.39,-19.83"/>
<polygon fill="midnightblue" stroke="midnightblue" points="152.25,-47.48 146.41,-56.32 156.49,-53.06 152.25,-47.48"/>
</g>
<!-- Node2 -->
<g id="node2" class="node">
<title>Node2</title>
<g id="a_node2"><a xlink:href="classvsomeip__v3_1_1serializable.html" target="_top" xlink:title=" ">
<polygon fill="white" stroke="black" points="0,-112.5 0,-131.5 124,-131.5 124,-112.5 0,-112.5"/>
<text text-anchor="middle" x="62" y="-119.5" font-family="Helvetica" font-size="10.00">vsomeip_v3::serializable</text>
</a>
</g>
</g>
<!-- Node2&#45;&gt;Node1 -->
<g id="edge1" class="edge">
<title>Node2&#45;&gt;Node1</title>
<path fill="none" stroke="midnightblue" d="M82.14,-106.1C95.28,-96.38 111.98,-84.03 123.06,-75.83"/>
<polygon fill="midnightblue" stroke="midnightblue" points="79.69,-103.56 73.73,-112.32 83.85,-109.19 79.69,-103.56"/>
</g>
<!-- Node3 -->
<g id="node3" class="node">
<title>Node3</title>
<g id="a_node3"><a xlink:href="classvsomeip__v3_1_1deserializable.html" target="_top" xlink:title=" ">
<polygon fill="white" stroke="black" points="142,-112.5 142,-131.5 276,-131.5 276,-112.5 142,-112.5"/>
<text text-anchor="middle" x="209" y="-119.5" font-family="Helvetica" font-size="10.00">vsomeip_v3::deserializable</text>
</a>
</g>
</g>
<!-- Node3&#45;&gt;Node1 -->
<g id="edge2" class="edge">
<title>Node3&#45;&gt;Node1</title>
<path fill="none" stroke="midnightblue" d="M188.97,-106.38C175.59,-96.62 158.44,-84.11 147.11,-75.83"/>
<polygon fill="midnightblue" stroke="midnightblue" points="186.97,-109.26 197.11,-112.32 191.1,-103.6 186.97,-109.26"/>
</g>
</g>
</svg>
