<?xml version="1.0" encoding="UTF-8" standalone="no"?>
<!DOCTYPE svg PUBLIC "-//W3C//DTD SVG 1.1//EN"
 "http://www.w3.org/Graphics/SVG/1.1/DTD/svg11.dtd">
<!-- Generated by graphviz version 2.44.0 (0)
 -->
<!-- Title: vsomeip_v3::routing_manager_stub Pages: 1 -->
<svg width="256pt" height="117pt"
 viewBox="0.00 0.00 255.50 117.00" xmlns="http://www.w3.org/2000/svg" xmlns:xlink="http://www.w3.org/1999/xlink">
<g id="graph0" class="graph" transform="scale(1 1) rotate(0) translate(4 113)">
<title>vsomeip_v3::routing_manager_stub</title>
<polygon fill="white" stroke="transparent" points="-4,4 -4,-113 251.5,-113 251.5,4 -4,4"/>
<!-- Node1 -->
<g id="node1" class="node">
<title>Node1</title>
<g id="a_node1"><a xlink:title=" ">
<polygon fill="#bfbfbf" stroke="black" points="78,-0.5 78,-30.5 182,-30.5 182,-0.5 78,-0.5"/>
<text text-anchor="start" x="86" y="-18.5" font-family="Helvetica" font-size="10.00">vsomeip_v3::routing</text>
<text text-anchor="middle" x="130" y="-7.5" font-family="Helvetica" font-size="10.00">_manager_stub</text>
</a>
</g>
</g>
<!-- Node2 -->
<g id="node2" class="node">
<title>Node2</title>
<g id="a_node2"><a xlink:href="classvsomeip__v3_1_1routing__host.html" target="_top" xlink:title=" ">
<polygon fill="white" stroke="black" points="0,-78.5 0,-97.5 128,-97.5 128,-78.5 0,-78.5"/>
<text text-anchor="middle" x="64" y="-85.5" font-family="Helvetica" font-size="10.00">vsomeip_v3::routing_host</text>
</a>
</g>
</g>
<!-- Node2&#45;&gt;Node1 -->
<g id="edge1" class="edge">
<title>Node2&#45;&gt;Node1</title>
<path fill="none" stroke="midnightblue" d="M79.22,-70.74C90.59,-58.6 105.98,-42.16 116.82,-30.58"/>
<polygon fill="midnightblue" stroke="midnightblue" points="76.37,-68.66 72.09,-78.36 81.48,-73.45 76.37,-68.66"/>
</g>
<!-- Node3 -->
<g id="node3" class="node">
<title>Node3</title>
<g id="a_node3"><a xlink:title=" ">
<polygon fill="white" stroke="black" points="146.5,-67.5 146.5,-108.5 247.5,-108.5 247.5,-67.5 146.5,-67.5"/>
<text text-anchor="start" x="154.5" y="-96.5" font-family="Helvetica" font-size="10.00">std::enable_shared</text>
<text text-anchor="start" x="154.5" y="-85.5" font-family="Helvetica" font-size="10.00">_from_this&lt; routing</text>
<text text-anchor="middle" x="197" y="-74.5" font-family="Helvetica" font-size="10.00">_manager_stub &gt;</text>
</a>
</g>
</g>
<!-- Node3&#45;&gt;Node1 -->
<g id="edge2" class="edge">
<title>Node3&#45;&gt;Node1</title>
<path fill="none" stroke="midnightblue" d="M171.36,-60.02C161.94,-50.11 151.64,-39.27 143.68,-30.89"/>
<polygon fill="midnightblue" stroke="midnightblue" points="168.91,-62.52 178.34,-67.36 173.98,-57.7 168.91,-62.52"/>
</g>
</g>
</svg>
