<?xml version="1.0" encoding="UTF-8" standalone="no"?>
<!DOCTYPE svg PUBLIC "-//W3C//DTD SVG 1.1//EN"
 "http://www.w3.org/Graphics/SVG/1.1/DTD/svg11.dtd">
<!-- Generated by graphviz version 2.44.0 (0)
 -->
<!-- Title: boost::asio::detail::reactive_socket_recvfrom_op_base_ext&lt; MutableBufferSequence, Endpoint &gt; Pages: 1 -->
<svg width="201pt" height="184pt"
 viewBox="0.00 0.00 201.00 184.00" xmlns="http://www.w3.org/2000/svg" xmlns:xlink="http://www.w3.org/1999/xlink">
<g id="graph0" class="graph" transform="scale(1 1) rotate(0) translate(4 180)">
<title>boost::asio::detail::reactive_socket_recvfrom_op_base_ext&lt; MutableBufferSequence, Endpoint &gt;</title>
<polygon fill="white" stroke="transparent" points="-4,4 -4,-180 197,-180 197,4 -4,4"/>
<!-- Node1 -->
<g id="node1" class="node">
<title>Node1</title>
<g id="a_node1"><a xlink:title=" ">
<polygon fill="#bfbfbf" stroke="black" points="0,-0.5 0,-52.5 193,-52.5 193,-0.5 0,-0.5"/>
<text text-anchor="start" x="8" y="-40.5" font-family="Helvetica" font-size="10.00">boost::asio::detail</text>
<text text-anchor="start" x="8" y="-29.5" font-family="Helvetica" font-size="10.00">::reactive_socket_recvfrom</text>
<text text-anchor="start" x="8" y="-18.5" font-family="Helvetica" font-size="10.00">_op_base_ext&lt; MutableBufferSequence,</text>
<text text-anchor="middle" x="96.5" y="-7.5" font-family="Helvetica" font-size="10.00"> Endpoint &gt;</text>
</a>
</g>
</g>
<!-- Node2 -->
<g id="node2" class="node">
<title>Node2</title>
<g id="a_node2"><a xlink:href="classboost_1_1asio_1_1detail_1_1reactor__op__ext.html" target="_top" xlink:title=" ">
<polygon fill="white" stroke="black" points="49.5,-89.5 49.5,-119.5 143.5,-119.5 143.5,-89.5 49.5,-89.5"/>
<text text-anchor="start" x="57.5" y="-107.5" font-family="Helvetica" font-size="10.00">boost::asio::detail</text>
<text text-anchor="middle" x="96.5" y="-96.5" font-family="Helvetica" font-size="10.00">::reactor_op_ext</text>
</a>
</g>
</g>
<!-- Node2&#45;&gt;Node1 -->
<g id="edge1" class="edge">
<title>Node2&#45;&gt;Node1</title>
<path fill="none" stroke="midnightblue" d="M96.5,-79.14C96.5,-70.63 96.5,-61.07 96.5,-52.5"/>
<polygon fill="midnightblue" stroke="midnightblue" points="93,-79.2 96.5,-89.2 100,-79.21 93,-79.2"/>
</g>
<!-- Node3 -->
<g id="node3" class="node">
<title>Node3</title>
<g id="a_node3"><a xlink:title=" ">
<polygon fill="white" stroke="black" points="65.5,-156.5 65.5,-175.5 127.5,-175.5 127.5,-156.5 65.5,-156.5"/>
<text text-anchor="middle" x="96.5" y="-163.5" font-family="Helvetica" font-size="10.00">reactor_op</text>
</a>
</g>
</g>
<!-- Node3&#45;&gt;Node2 -->
<g id="edge2" class="edge">
<title>Node3&#45;&gt;Node2</title>
<path fill="none" stroke="midnightblue" d="M96.5,-146.23C96.5,-137.59 96.5,-127.5 96.5,-119.52"/>
<polygon fill="midnightblue" stroke="midnightblue" points="93,-146.48 96.5,-156.48 100,-146.48 93,-146.48"/>
</g>
</g>
</svg>
