<?xml version="1.0" encoding="UTF-8" standalone="no"?>
<!DOCTYPE svg PUBLIC "-//W3C//DTD SVG 1.1//EN"
 "http://www.w3.org/Graphics/SVG/1.1/DTD/svg11.dtd">
<!-- Generated by graphviz version 2.44.0 (0)
 -->
<!-- Title: vsomeip_v3::plugin Pages: 1 -->
<svg width="441pt" height="258pt"
 viewBox="0.00 0.00 441.00 257.50" xmlns="http://www.w3.org/2000/svg" xmlns:xlink="http://www.w3.org/1999/xlink">
<g id="graph0" class="graph" transform="scale(1 1) rotate(0) translate(4 253.5)">
<title>vsomeip_v3::plugin</title>
<polygon fill="white" stroke="transparent" points="-4,4 -4,-253.5 437,-253.5 437,4 -4,4"/>
<!-- Node1 -->
<g id="node1" class="node">
<title>Node1</title>
<g id="a_node1"><a xlink:title=" ">
<polygon fill="#bfbfbf" stroke="black" points="0,-104 0,-123 101,-123 101,-104 0,-104"/>
<text text-anchor="middle" x="50.5" y="-111" font-family="Helvetica" font-size="10.00">vsomeip_v3::plugin</text>
</a>
</g>
</g>
<!-- Node2 -->
<g id="node2" class="node">
<title>Node2</title>
<g id="a_node2"><a xlink:href="classvsomeip__v3_1_1plugin__impl.html" target="_top" xlink:title=" ">
<polygon fill="white" stroke="black" points="141.5,-208 141.5,-249 245.5,-249 245.5,-208 141.5,-208"/>
<text text-anchor="start" x="149.5" y="-237" font-family="Helvetica" font-size="10.00">vsomeip_v3::plugin</text>
<text text-anchor="start" x="149.5" y="-226" font-family="Helvetica" font-size="10.00">_impl&lt; configuration</text>
<text text-anchor="middle" x="193.5" y="-215" font-family="Helvetica" font-size="10.00">_plugin_impl &gt;</text>
</a>
</g>
</g>
<!-- Node1&#45;&gt;Node2 -->
<g id="edge1" class="edge">
<title>Node1&#45;&gt;Node2</title>
<path fill="none" stroke="midnightblue" d="M66.04,-130.64C82.14,-148.94 109.46,-178.04 137,-198.5 141.4,-201.77 146.19,-204.9 151.06,-207.83"/>
<polygon fill="midnightblue" stroke="midnightblue" points="68.67,-128.33 59.48,-123.07 63.38,-132.92 68.67,-128.33"/>
</g>
<!-- Node4 -->
<g id="node4" class="node">
<title>Node4</title>
<g id="a_node4"><a xlink:href="classvsomeip__v3_1_1plugin__impl.html" target="_top" xlink:title=" ">
<polygon fill="white" stroke="black" points="141.5,-148 141.5,-189 245.5,-189 245.5,-148 141.5,-148"/>
<text text-anchor="start" x="149.5" y="-177" font-family="Helvetica" font-size="10.00">vsomeip_v3::plugin</text>
<text text-anchor="start" x="149.5" y="-166" font-family="Helvetica" font-size="10.00">_impl&lt; e2e_provider</text>
<text text-anchor="middle" x="193.5" y="-155" font-family="Helvetica" font-size="10.00">_impl &gt;</text>
</a>
</g>
</g>
<!-- Node1&#45;&gt;Node4 -->
<g id="edge3" class="edge">
<title>Node1&#45;&gt;Node4</title>
<path fill="none" stroke="midnightblue" d="M85.44,-126.74C102.2,-133.28 122.76,-141.3 141.37,-148.56"/>
<polygon fill="midnightblue" stroke="midnightblue" points="86.65,-123.45 76.06,-123.08 84.1,-129.98 86.65,-123.45"/>
</g>
<!-- Node6 -->
<g id="node6" class="node">
<title>Node6</title>
<g id="a_node6"><a xlink:href="classvsomeip__v3_1_1plugin__impl.html" target="_top" xlink:title=" ">
<polygon fill="white" stroke="black" points="137,-98.5 137,-128.5 250,-128.5 250,-98.5 137,-98.5"/>
<text text-anchor="start" x="145" y="-116.5" font-family="Helvetica" font-size="10.00">vsomeip_v3::plugin</text>
<text text-anchor="middle" x="193.5" y="-105.5" font-family="Helvetica" font-size="10.00">_impl&lt; runtime_impl &gt;</text>
</a>
</g>
</g>
<!-- Node1&#45;&gt;Node6 -->
<g id="edge5" class="edge">
<title>Node1&#45;&gt;Node6</title>
<path fill="none" stroke="midnightblue" d="M111.42,-113.5C119.91,-113.5 128.6,-113.5 136.99,-113.5"/>
<polygon fill="midnightblue" stroke="midnightblue" points="111.21,-110 101.21,-113.5 111.21,-117 111.21,-110"/>
</g>
<!-- Node8 -->
<g id="node8" class="node">
<title>Node8</title>
<g id="a_node8"><a xlink:href="classvsomeip_1_1plugin__impl.html" target="_top" xlink:title=" ">
<polygon fill="white" stroke="black" points="139.5,-49.5 139.5,-79.5 247.5,-79.5 247.5,-49.5 139.5,-49.5"/>
<text text-anchor="start" x="147.5" y="-67.5" font-family="Helvetica" font-size="10.00">vsomeip::plugin_impl</text>
<text text-anchor="middle" x="193.5" y="-56.5" font-family="Helvetica" font-size="10.00">&lt; Plugin_ &gt;</text>
</a>
</g>
</g>
<!-- Node1&#45;&gt;Node8 -->
<g id="edge7" class="edge">
<title>Node1&#45;&gt;Node8</title>
<path fill="none" stroke="midnightblue" d="M88.62,-100.6C107.22,-94.14 129.85,-86.27 149.23,-79.54"/>
<polygon fill="midnightblue" stroke="midnightblue" points="87.32,-97.35 79.02,-103.94 89.62,-103.96 87.32,-97.35"/>
</g>
<!-- Node9 -->
<g id="node9" class="node">
<title>Node9</title>
<g id="a_node9"><a xlink:href="classvsomeip__v3_1_1plugin__impl.html" target="_top" xlink:title=" ">
<polygon fill="white" stroke="black" points="143,-0.5 143,-30.5 244,-30.5 244,-0.5 143,-0.5"/>
<text text-anchor="start" x="151" y="-18.5" font-family="Helvetica" font-size="10.00">vsomeip_v3::plugin</text>
<text text-anchor="middle" x="193.5" y="-7.5" font-family="Helvetica" font-size="10.00">_impl&lt; Plugin_ &gt;</text>
</a>
</g>
</g>
<!-- Node1&#45;&gt;Node9 -->
<g id="edge8" class="edge">
<title>Node1&#45;&gt;Node9</title>
<path fill="none" stroke="midnightblue" d="M67.91,-96.56C84.28,-80.36 110.71,-56.01 137,-39.5 142.16,-36.26 147.82,-33.26 153.51,-30.55"/>
<polygon fill="midnightblue" stroke="midnightblue" points="65.29,-94.23 60.73,-103.79 70.26,-99.16 65.29,-94.23"/>
</g>
<!-- Node3 -->
<g id="node3" class="node">
<title>Node3</title>
<g id="a_node3"><a xlink:href="classvsomeip__v3_1_1configuration__plugin__impl.html" target="_top" xlink:title=" ">
<polygon fill="white" stroke="black" points="294,-213.5 294,-243.5 425,-243.5 425,-213.5 294,-213.5"/>
<text text-anchor="start" x="302" y="-231.5" font-family="Helvetica" font-size="10.00">vsomeip_v3::configuration</text>
<text text-anchor="middle" x="359.5" y="-220.5" font-family="Helvetica" font-size="10.00">_plugin_impl</text>
</a>
</g>
</g>
<!-- Node2&#45;&gt;Node3 -->
<g id="edge2" class="edge">
<title>Node2&#45;&gt;Node3</title>
<path fill="none" stroke="midnightblue" d="M256.14,-228.5C268.49,-228.5 281.5,-228.5 293.95,-228.5"/>
<polygon fill="midnightblue" stroke="midnightblue" points="255.94,-225 245.94,-228.5 255.94,-232 255.94,-225"/>
</g>
<!-- Node5 -->
<g id="node5" class="node">
<title>Node5</title>
<g id="a_node5"><a xlink:href="classvsomeip__v3_1_1e2e_1_1e2e__provider__impl.html" target="_top" xlink:title=" ">
<polygon fill="white" stroke="black" points="303,-153.5 303,-183.5 416,-183.5 416,-153.5 303,-153.5"/>
<text text-anchor="start" x="311" y="-171.5" font-family="Helvetica" font-size="10.00">vsomeip_v3::e2e::e2e</text>
<text text-anchor="middle" x="359.5" y="-160.5" font-family="Helvetica" font-size="10.00">_provider_impl</text>
</a>
</g>
</g>
<!-- Node4&#45;&gt;Node5 -->
<g id="edge4" class="edge">
<title>Node4&#45;&gt;Node5</title>
<path fill="none" stroke="midnightblue" d="M256.36,-168.5C271.67,-168.5 287.99,-168.5 302.98,-168.5"/>
<polygon fill="midnightblue" stroke="midnightblue" points="255.94,-165 245.94,-168.5 255.94,-172 255.94,-165"/>
</g>
<!-- Node7 -->
<g id="node7" class="node">
<title>Node7</title>
<g id="a_node7"><a xlink:href="classvsomeip__v3_1_1sd_1_1runtime__impl.html" target="_top" xlink:title=" ">
<polygon fill="white" stroke="black" points="286,-104 286,-123 433,-123 433,-104 286,-104"/>
<text text-anchor="middle" x="359.5" y="-111" font-family="Helvetica" font-size="10.00">vsomeip_v3::sd::runtime_impl</text>
</a>
</g>
</g>
<!-- Node6&#45;&gt;Node7 -->
<g id="edge6" class="edge">
<title>Node6&#45;&gt;Node7</title>
<path fill="none" stroke="midnightblue" d="M260.19,-113.5C268.64,-113.5 277.33,-113.5 285.88,-113.5"/>
<polygon fill="midnightblue" stroke="midnightblue" points="260.02,-110 250.02,-113.5 260.02,-117 260.02,-110"/>
</g>
</g>
</svg>
