<?xml version="1.0" encoding="UTF-8" standalone="no"?>
<!DOCTYPE svg PUBLIC "-//W3C//DTD SVG 1.1//EN"
 "http://www.w3.org/Graphics/SVG/1.1/DTD/svg11.dtd">
<!-- Generated by graphviz version 2.44.0 (0)
 -->
<!-- Title: vsomeip_v3::sd::message_element_impl Pages: 1 -->
<svg width="293pt" height="385pt"
 viewBox="0.00 0.00 292.50 385.00" xmlns="http://www.w3.org/2000/svg" xmlns:xlink="http://www.w3.org/1999/xlink">
<g id="graph0" class="graph" transform="scale(1 1) rotate(0) translate(4 381)">
<title>vsomeip_v3::sd::message_element_impl</title>
<polygon fill="white" stroke="transparent" points="-4,4 -4,-381 288.5,-381 288.5,4 -4,4"/>
<!-- Node1 -->
<g id="node1" class="node">
<title>Node1</title>
<g id="a_node1"><a xlink:title=" ">
<polygon fill="#bfbfbf" stroke="black" points="118.5,-0.5 118.5,-30.5 249.5,-30.5 249.5,-0.5 118.5,-0.5"/>
<text text-anchor="start" x="126.5" y="-18.5" font-family="Helvetica" font-size="10.00">vsomeip_v3::sd::message</text>
<text text-anchor="middle" x="184" y="-7.5" font-family="Helvetica" font-size="10.00">_element_impl</text>
</a>
</g>
</g>
<!-- Node2 -->
<g id="node2" class="node">
<title>Node2</title>
<g id="a_node2"><a xlink:href="classvsomeip__v3_1_1sd_1_1message__impl.html" target="_top" xlink:title=" ">
<polygon fill="white" stroke="black" points="106.5,-78.5 106.5,-97.5 261.5,-97.5 261.5,-78.5 106.5,-78.5"/>
<text text-anchor="middle" x="184" y="-85.5" font-family="Helvetica" font-size="10.00">vsomeip_v3::sd::message_impl</text>
</a>
</g>
</g>
<!-- Node2&#45;&gt;Node1 -->
<g id="edge1" class="edge">
<title>Node2&#45;&gt;Node1</title>
<path fill="none" stroke="#9a32cd" stroke-dasharray="5,2" d="M184,-68.24C184,-56.41 184,-41.38 184,-30.58"/>
<polygon fill="#9a32cd" stroke="#9a32cd" points="180.5,-68.36 184,-78.36 187.5,-68.36 180.5,-68.36"/>
<text text-anchor="middle" x="201.5" y="-52" font-family="Helvetica" font-size="10.00"> owner_</text>
</g>
<!-- Node3 -->
<g id="node3" class="node">
<title>Node3</title>
<g id="a_node3"><a xlink:href="classvsomeip__v3_1_1message.html" target="_top" xlink:title="Implements regular SOME/IP messages.">
<polygon fill="white" stroke="black" points="169.5,-184.5 169.5,-203.5 284.5,-203.5 284.5,-184.5 169.5,-184.5"/>
<text text-anchor="middle" x="227" y="-191.5" font-family="Helvetica" font-size="10.00">vsomeip_v3::message</text>
</a>
</g>
</g>
<!-- Node3&#45;&gt;Node2 -->
<g id="edge2" class="edge">
<title>Node3&#45;&gt;Node2</title>
<path fill="none" stroke="midnightblue" d="M221.29,-174.45C217.58,-162.94 212.44,-147.95 207,-135 201.4,-121.67 193.67,-106.79 188.76,-97.66"/>
<polygon fill="midnightblue" stroke="midnightblue" points="218.03,-175.73 224.37,-184.22 224.7,-173.63 218.03,-175.73"/>
</g>
<!-- Node4 -->
<g id="node4" class="node">
<title>Node4</title>
<g id="a_node4"><a xlink:href="classvsomeip__v3_1_1message__base.html" target="_top" xlink:title="Base class to implement SOME/IP messages.">
<polygon fill="white" stroke="black" points="90.5,-300.5 90.5,-319.5 231.5,-319.5 231.5,-300.5 90.5,-300.5"/>
<text text-anchor="middle" x="161" y="-307.5" font-family="Helvetica" font-size="10.00">vsomeip_v3::message_base</text>
</a>
</g>
</g>
<!-- Node4&#45;&gt;Node3 -->
<g id="edge3" class="edge">
<title>Node4&#45;&gt;Node3</title>
<path fill="none" stroke="midnightblue" d="M170.99,-291.74C185.31,-267.01 211.13,-222.41 221.98,-203.67"/>
<polygon fill="midnightblue" stroke="midnightblue" points="167.94,-290.02 165.96,-300.43 174,-293.53 167.94,-290.02"/>
</g>
<!-- Node7 -->
<g id="node7" class="node">
<title>Node7</title>
<g id="a_node7"><a xlink:href="classvsomeip__v3_1_1message__base__impl.html" target="_top" xlink:title=" ">
<polygon fill="white" stroke="black" points="83.5,-135.5 83.5,-165.5 198.5,-165.5 198.5,-135.5 83.5,-135.5"/>
<text text-anchor="start" x="91.5" y="-153.5" font-family="Helvetica" font-size="10.00">vsomeip_v3::message</text>
<text text-anchor="middle" x="141" y="-142.5" font-family="Helvetica" font-size="10.00">_base_impl</text>
</a>
</g>
</g>
<!-- Node4&#45;&gt;Node7 -->
<g id="edge7" class="edge">
<title>Node4&#45;&gt;Node7</title>
<path fill="none" stroke="midnightblue" d="M158.56,-289.81C154.48,-257.69 146.37,-193.77 142.78,-165.51"/>
<polygon fill="midnightblue" stroke="midnightblue" points="155.14,-290.6 159.87,-300.08 162.08,-289.72 155.14,-290.6"/>
</g>
<!-- Node8 -->
<g id="node8" class="node">
<title>Node8</title>
<g id="a_node8"><a xlink:href="classvsomeip__v3_1_1message__header__impl.html" target="_top" xlink:title=" ">
<polygon fill="white" stroke="black" points="10.5,-222.5 10.5,-252.5 125.5,-252.5 125.5,-222.5 10.5,-222.5"/>
<text text-anchor="start" x="18.5" y="-240.5" font-family="Helvetica" font-size="10.00">vsomeip_v3::message</text>
<text text-anchor="middle" x="68" y="-229.5" font-family="Helvetica" font-size="10.00">_header_impl</text>
</a>
</g>
</g>
<!-- Node4&#45;&gt;Node8 -->
<g id="edge10" class="edge">
<title>Node4&#45;&gt;Node8</title>
<path fill="none" stroke="#9a32cd" stroke-dasharray="5,2" d="M128.67,-296.23C120.55,-292.28 112.12,-287.5 105,-282 94.33,-273.76 84.55,-262 77.73,-252.78"/>
<polygon fill="#9a32cd" stroke="#9a32cd" points="127.41,-299.51 137.96,-300.47 130.32,-293.14 127.41,-299.51"/>
<text text-anchor="middle" x="122.5" y="-274" font-family="Helvetica" font-size="10.00"> owner_</text>
</g>
<!-- Node5 -->
<g id="node5" class="node">
<title>Node5</title>
<g id="a_node5"><a xlink:href="classvsomeip__v3_1_1serializable.html" target="_top" xlink:title=" ">
<polygon fill="white" stroke="black" points="0,-357.5 0,-376.5 124,-376.5 124,-357.5 0,-357.5"/>
<text text-anchor="middle" x="62" y="-364.5" font-family="Helvetica" font-size="10.00">vsomeip_v3::serializable</text>
</a>
</g>
</g>
<!-- Node5&#45;&gt;Node4 -->
<g id="edge4" class="edge">
<title>Node5&#45;&gt;Node4</title>
<path fill="none" stroke="midnightblue" d="M86.24,-352.54C104.77,-342.24 129.77,-328.35 145.64,-319.53"/>
<polygon fill="midnightblue" stroke="midnightblue" points="84.51,-349.49 77.47,-357.41 87.91,-355.61 84.51,-349.49"/>
</g>
<!-- Node5&#45;&gt;Node8 -->
<g id="edge9" class="edge">
<title>Node5&#45;&gt;Node8</title>
<path fill="none" stroke="midnightblue" d="M62.88,-347.24C64.1,-321.46 66.25,-275.65 67.34,-252.59"/>
<polygon fill="midnightblue" stroke="midnightblue" points="59.39,-347.08 62.41,-357.24 66.38,-347.41 59.39,-347.08"/>
</g>
<!-- Node6 -->
<g id="node6" class="node">
<title>Node6</title>
<g id="a_node6"><a xlink:href="classvsomeip__v3_1_1deserializable.html" target="_top" xlink:title=" ">
<polygon fill="white" stroke="black" points="142,-357.5 142,-376.5 276,-376.5 276,-357.5 142,-357.5"/>
<text text-anchor="middle" x="209" y="-364.5" font-family="Helvetica" font-size="10.00">vsomeip_v3::deserializable</text>
</a>
</g>
</g>
<!-- Node6&#45;&gt;Node4 -->
<g id="edge5" class="edge">
<title>Node6&#45;&gt;Node4</title>
<path fill="none" stroke="midnightblue" d="M194.89,-349.83C186.29,-339.98 175.65,-327.78 168.61,-319.71"/>
<polygon fill="midnightblue" stroke="midnightblue" points="192.29,-352.17 201.5,-357.41 197.56,-347.57 192.29,-352.17"/>
</g>
<!-- Node7&#45;&gt;Node2 -->
<g id="edge6" class="edge">
<title>Node7&#45;&gt;Node2</title>
<path fill="none" stroke="midnightblue" d="M156.83,-127.22C164.17,-116.9 172.46,-105.24 177.93,-97.54"/>
<polygon fill="midnightblue" stroke="midnightblue" points="153.91,-125.29 150.97,-135.47 159.62,-129.34 153.91,-125.29"/>
</g>
<!-- Node8&#45;&gt;Node7 -->
<g id="edge8" class="edge">
<title>Node8&#45;&gt;Node7</title>
<path fill="none" stroke="#9a32cd" stroke-dasharray="5,2" d="M80.73,-213.64C86.6,-204.02 94.03,-192.99 102,-184 107.85,-177.41 115.08,-171 121.72,-165.65"/>
<polygon fill="#9a32cd" stroke="#9a32cd" points="77.67,-211.93 75.61,-222.32 83.7,-215.48 77.67,-211.93"/>
<text text-anchor="middle" x="121" y="-191.5" font-family="Helvetica" font-size="10.00"> header_</text>
</g>
</g>
</svg>
