<?xml version="1.0" encoding="UTF-8" standalone="no"?>
<!DOCTYPE svg PUBLIC "-//W3C//DTD SVG 1.1//EN"
 "http://www.w3.org/Graphics/SVG/1.1/DTD/svg11.dtd">
<!-- Generated by graphviz version 2.44.0 (0)
 -->
<!-- Title: vsomeip_v3::e2e::e2e_provider_impl Pages: 1 -->
<svg width="421pt" height="160pt"
 viewBox="0.00 0.00 421.00 159.50" xmlns="http://www.w3.org/2000/svg" xmlns:xlink="http://www.w3.org/1999/xlink">
<g id="graph0" class="graph" transform="scale(1 1) rotate(0) translate(4 155.5)">
<title>vsomeip_v3::e2e::e2e_provider_impl</title>
<polygon fill="white" stroke="transparent" points="-4,4 -4,-155.5 417,-155.5 417,4 -4,4"/>
<!-- Node1 -->
<g id="node1" class="node">
<title>Node1</title>
<g id="a_node1"><a xlink:title=" ">
<polygon fill="#bfbfbf" stroke="black" points="300,-66 300,-96 413,-96 413,-66 300,-66"/>
<text text-anchor="start" x="308" y="-84" font-family="Helvetica" font-size="10.00">vsomeip_v3::e2e::e2e</text>
<text text-anchor="middle" x="356.5" y="-73" font-family="Helvetica" font-size="10.00">_provider_impl</text>
</a>
</g>
</g>
<!-- Node2 -->
<g id="node2" class="node">
<title>Node2</title>
<g id="a_node2"><a xlink:href="classvsomeip__v3_1_1e2e_1_1e2e__provider.html" target="_top" xlink:title=" ">
<polygon fill="white" stroke="black" points="144,-121 144,-151 257,-151 257,-121 144,-121"/>
<text text-anchor="start" x="152" y="-139" font-family="Helvetica" font-size="10.00">vsomeip_v3::e2e::e2e</text>
<text text-anchor="middle" x="200.5" y="-128" font-family="Helvetica" font-size="10.00">_provider</text>
</a>
</g>
</g>
<!-- Node2&#45;&gt;Node1 -->
<g id="edge1" class="edge">
<title>Node2&#45;&gt;Node1</title>
<path fill="none" stroke="midnightblue" d="M253,-117.61C272.65,-110.59 294.8,-102.68 313.47,-96.01"/>
<polygon fill="midnightblue" stroke="midnightblue" points="251.82,-114.31 243.58,-120.97 254.18,-120.9 251.82,-114.31"/>
</g>
<!-- Node3 -->
<g id="node3" class="node">
<title>Node3</title>
<g id="a_node3"><a xlink:href="classvsomeip__v3_1_1plugin__impl.html" target="_top" xlink:title=" ">
<polygon fill="white" stroke="black" points="148.5,-60.5 148.5,-101.5 252.5,-101.5 252.5,-60.5 148.5,-60.5"/>
<text text-anchor="start" x="156.5" y="-89.5" font-family="Helvetica" font-size="10.00">vsomeip_v3::plugin</text>
<text text-anchor="start" x="156.5" y="-78.5" font-family="Helvetica" font-size="10.00">_impl&lt; e2e_provider</text>
<text text-anchor="middle" x="200.5" y="-67.5" font-family="Helvetica" font-size="10.00">_impl &gt;</text>
</a>
</g>
</g>
<!-- Node3&#45;&gt;Node1 -->
<g id="edge2" class="edge">
<title>Node3&#45;&gt;Node1</title>
<path fill="none" stroke="midnightblue" d="M262.9,-81C275.14,-81 287.92,-81 299.94,-81"/>
<polygon fill="midnightblue" stroke="midnightblue" points="262.78,-77.5 252.78,-81 262.78,-84.5 262.78,-77.5"/>
</g>
<!-- Node4 -->
<g id="node4" class="node">
<title>Node4</title>
<g id="a_node4"><a xlink:href="classvsomeip__v3_1_1plugin.html" target="_top" xlink:title=" ">
<polygon fill="white" stroke="black" points="0,-71.5 0,-90.5 101,-90.5 101,-71.5 0,-71.5"/>
<text text-anchor="middle" x="50.5" y="-78.5" font-family="Helvetica" font-size="10.00">vsomeip_v3::plugin</text>
</a>
</g>
</g>
<!-- Node4&#45;&gt;Node3 -->
<g id="edge3" class="edge">
<title>Node4&#45;&gt;Node3</title>
<path fill="none" stroke="midnightblue" d="M111.36,-81C123.65,-81 136.48,-81 148.42,-81"/>
<polygon fill="midnightblue" stroke="midnightblue" points="111.19,-77.5 101.19,-81 111.19,-84.5 111.19,-77.5"/>
</g>
<!-- Node5 -->
<g id="node5" class="node">
<title>Node5</title>
<g id="a_node5"><a xlink:title=" ">
<polygon fill="white" stroke="black" points="137,-0.5 137,-41.5 264,-41.5 264,-0.5 137,-0.5"/>
<text text-anchor="start" x="145" y="-29.5" font-family="Helvetica" font-size="10.00">std::enable_shared</text>
<text text-anchor="start" x="145" y="-18.5" font-family="Helvetica" font-size="10.00">_from_this&lt; e2e_provider</text>
<text text-anchor="middle" x="200.5" y="-7.5" font-family="Helvetica" font-size="10.00">_impl &gt;</text>
</a>
</g>
</g>
<!-- Node5&#45;&gt;Node1 -->
<g id="edge4" class="edge">
<title>Node5&#45;&gt;Node1</title>
<path fill="none" stroke="midnightblue" d="M264.28,-45.46C282.14,-52.42 301.05,-59.78 316.99,-66"/>
<polygon fill="midnightblue" stroke="midnightblue" points="265.09,-42.02 254.5,-41.65 262.55,-48.54 265.09,-42.02"/>
</g>
</g>
</svg>
