<?xml version="1.0" encoding="UTF-8" standalone="no"?>
<!DOCTYPE svg PUBLIC "-//W3C//DTD SVG 1.1//EN"
 "http://www.w3.org/Graphics/SVG/1.1/DTD/svg11.dtd">
<!-- Generated by graphviz version 2.44.0 (0)
 -->
<!-- Title: vsomeip_v3::endpoint_manager_base Pages: 1 -->
<svg width="270pt" height="184pt"
 viewBox="0.00 0.00 270.00 184.00" xmlns="http://www.w3.org/2000/svg" xmlns:xlink="http://www.w3.org/1999/xlink">
<g id="graph0" class="graph" transform="scale(1 1) rotate(0) translate(4 180)">
<title>vsomeip_v3::endpoint_manager_base</title>
<polygon fill="white" stroke="transparent" points="-4,4 -4,-180 266,-180 266,4 -4,4"/>
<!-- Node1 -->
<g id="node1" class="node">
<title>Node1</title>
<g id="a_node1"><a xlink:title=" ">
<polygon fill="#bfbfbf" stroke="black" points="68,-67.5 68,-97.5 180,-97.5 180,-67.5 68,-67.5"/>
<text text-anchor="start" x="76" y="-85.5" font-family="Helvetica" font-size="10.00">vsomeip_v3::endpoint</text>
<text text-anchor="middle" x="124" y="-74.5" font-family="Helvetica" font-size="10.00">_manager_base</text>
</a>
</g>
</g>
<!-- Node4 -->
<g id="node4" class="node">
<title>Node4</title>
<g id="a_node4"><a xlink:href="classvsomeip__v3_1_1endpoint__manager__impl.html" target="_top" xlink:title=" ">
<polygon fill="white" stroke="black" points="68,-0.5 68,-30.5 180,-30.5 180,-0.5 68,-0.5"/>
<text text-anchor="start" x="76" y="-18.5" font-family="Helvetica" font-size="10.00">vsomeip_v3::endpoint</text>
<text text-anchor="middle" x="124" y="-7.5" font-family="Helvetica" font-size="10.00">_manager_impl</text>
</a>
</g>
</g>
<!-- Node1&#45;&gt;Node4 -->
<g id="edge3" class="edge">
<title>Node1&#45;&gt;Node4</title>
<path fill="none" stroke="midnightblue" d="M124,-57.11C124,-48.15 124,-38.32 124,-30.58"/>
<polygon fill="midnightblue" stroke="midnightblue" points="120.5,-57.4 124,-67.4 127.5,-57.4 120.5,-57.4"/>
</g>
<!-- Node2 -->
<g id="node2" class="node">
<title>Node2</title>
<g id="a_node2"><a xlink:title=" ">
<polygon fill="white" stroke="black" points="0,-134.5 0,-175.5 108,-175.5 108,-134.5 0,-134.5"/>
<text text-anchor="start" x="8" y="-163.5" font-family="Helvetica" font-size="10.00">std::enable_shared</text>
<text text-anchor="start" x="8" y="-152.5" font-family="Helvetica" font-size="10.00">_from_this&lt; endpoint</text>
<text text-anchor="middle" x="54" y="-141.5" font-family="Helvetica" font-size="10.00">_manager_base &gt;</text>
</a>
</g>
</g>
<!-- Node2&#45;&gt;Node1 -->
<g id="edge1" class="edge">
<title>Node2&#45;&gt;Node1</title>
<path fill="none" stroke="midnightblue" d="M80.79,-127.02C90.63,-117.11 101.39,-106.27 109.71,-97.89"/>
<polygon fill="midnightblue" stroke="midnightblue" points="78.06,-124.8 73.5,-134.36 83.03,-129.73 78.06,-124.8"/>
</g>
<!-- Node3 -->
<g id="node3" class="node">
<title>Node3</title>
<g id="a_node3"><a xlink:href="classvsomeip__v3_1_1endpoint__host.html" target="_top" xlink:title=" ">
<polygon fill="white" stroke="black" points="126,-145.5 126,-164.5 262,-164.5 262,-145.5 126,-145.5"/>
<text text-anchor="middle" x="194" y="-152.5" font-family="Helvetica" font-size="10.00">vsomeip_v3::endpoint_host</text>
</a>
</g>
</g>
<!-- Node3&#45;&gt;Node1 -->
<g id="edge2" class="edge">
<title>Node3&#45;&gt;Node1</title>
<path fill="none" stroke="midnightblue" d="M178.21,-138.09C166.11,-125.91 149.59,-109.27 137.98,-97.58"/>
<polygon fill="midnightblue" stroke="midnightblue" points="175.89,-140.73 185.42,-145.36 180.85,-135.79 175.89,-140.73"/>
</g>
</g>
</svg>
