<?xml version="1.0" encoding="UTF-8" standalone="no"?>
<!DOCTYPE svg PUBLIC "-//W3C//DTD SVG 1.1//EN"
 "http://www.w3.org/Graphics/SVG/1.1/DTD/svg11.dtd">
<!-- Generated by graphviz version 2.44.0 (0)
 -->
<!-- Title: vsomeip_v3::sd::load_balancing_option_impl Pages: 1 -->
<svg width="149pt" height="162pt"
 viewBox="0.00 0.00 149.00 162.00" xmlns="http://www.w3.org/2000/svg" xmlns:xlink="http://www.w3.org/1999/xlink">
<g id="graph0" class="graph" transform="scale(1 1) rotate(0) translate(4 158)">
<title>vsomeip_v3::sd::load_balancing_option_impl</title>
<polygon fill="white" stroke="transparent" points="-4,4 -4,-158 145,-158 145,4 -4,4"/>
<!-- Node1 -->
<g id="node1" class="node">
<title>Node1</title>
<g id="a_node1"><a xlink:title=" ">
<polygon fill="#bfbfbf" stroke="black" points="11.5,-0.5 11.5,-30.5 129.5,-30.5 129.5,-0.5 11.5,-0.5"/>
<text text-anchor="start" x="19.5" y="-18.5" font-family="Helvetica" font-size="10.00">vsomeip_v3::sd::load</text>
<text text-anchor="middle" x="70.5" y="-7.5" font-family="Helvetica" font-size="10.00">_balancing_option_impl</text>
</a>
</g>
</g>
<!-- Node2 -->
<g id="node2" class="node">
<title>Node2</title>
<g id="a_node2"><a xlink:href="classvsomeip__v3_1_1sd_1_1option__impl.html" target="_top" xlink:title=" ">
<polygon fill="white" stroke="black" points="0,-67.5 0,-86.5 141,-86.5 141,-67.5 0,-67.5"/>
<text text-anchor="middle" x="70.5" y="-74.5" font-family="Helvetica" font-size="10.00">vsomeip_v3::sd::option_impl</text>
</a>
</g>
</g>
<!-- Node2&#45;&gt;Node1 -->
<g id="edge1" class="edge">
<title>Node2&#45;&gt;Node1</title>
<path fill="none" stroke="midnightblue" d="M70.5,-57.23C70.5,-48.59 70.5,-38.5 70.5,-30.52"/>
<polygon fill="midnightblue" stroke="midnightblue" points="67,-57.48 70.5,-67.48 74,-57.48 67,-57.48"/>
</g>
<!-- Node3 -->
<g id="node3" class="node">
<title>Node3</title>
<g id="a_node3"><a xlink:href="classvsomeip__v3_1_1sd_1_1message__element__impl.html" target="_top" xlink:title=" ">
<polygon fill="white" stroke="black" points="5,-123.5 5,-153.5 136,-153.5 136,-123.5 5,-123.5"/>
<text text-anchor="start" x="13" y="-141.5" font-family="Helvetica" font-size="10.00">vsomeip_v3::sd::message</text>
<text text-anchor="middle" x="70.5" y="-130.5" font-family="Helvetica" font-size="10.00">_element_impl</text>
</a>
</g>
</g>
<!-- Node3&#45;&gt;Node2 -->
<g id="edge2" class="edge">
<title>Node3&#45;&gt;Node2</title>
<path fill="none" stroke="midnightblue" d="M70.5,-113.29C70.5,-103.86 70.5,-93.65 70.5,-86.66"/>
<polygon fill="midnightblue" stroke="midnightblue" points="67,-113.4 70.5,-123.4 74,-113.4 67,-113.4"/>
</g>
</g>
</svg>
