<?xml version="1.0" encoding="UTF-8" standalone="no"?>
<!DOCTYPE svg PUBLIC "-//W3C//DTD SVG 1.1//EN"
 "http://www.w3.org/Graphics/SVG/1.1/DTD/svg11.dtd">
<!-- Generated by graphviz version 2.44.0 (0)
 -->
<!-- Title: vsomeip_v3::endpoint_impl&lt; Protocol &gt; Pages: 1 -->
<svg width="599pt" height="382pt"
 viewBox="0.00 0.00 599.00 382.00" xmlns="http://www.w3.org/2000/svg" xmlns:xlink="http://www.w3.org/1999/xlink">
<g id="graph0" class="graph" transform="scale(1 1) rotate(0) translate(4 378)">
<title>vsomeip_v3::endpoint_impl&lt; Protocol &gt;</title>
<polygon fill="white" stroke="transparent" points="-4,4 -4,-378 595,-378 595,4 -4,4"/>
<!-- Node1 -->
<g id="node1" class="node">
<title>Node1</title>
<g id="a_node1"><a xlink:title=" ">
<polygon fill="#bfbfbf" stroke="black" points="148,-171.5 148,-201.5 260,-201.5 260,-171.5 148,-171.5"/>
<text text-anchor="start" x="156" y="-189.5" font-family="Helvetica" font-size="10.00">vsomeip_v3::endpoint</text>
<text text-anchor="middle" x="204" y="-178.5" font-family="Helvetica" font-size="10.00">_impl&lt; Protocol &gt;</text>
</a>
</g>
</g>
<!-- Node3 -->
<g id="node3" class="node">
<title>Node3</title>
<g id="a_node3"><a xlink:href="classvsomeip__v3_1_1client__endpoint__impl.html" target="_top" xlink:title=" ">
<polygon fill="white" stroke="black" points="296,-245.5 296,-275.5 432,-275.5 432,-245.5 296,-245.5"/>
<text text-anchor="start" x="304" y="-263.5" font-family="Helvetica" font-size="10.00">vsomeip_v3::client</text>
<text text-anchor="middle" x="364" y="-252.5" font-family="Helvetica" font-size="10.00">_endpoint_impl&lt; Protocol &gt;</text>
</a>
</g>
</g>
<!-- Node1&#45;&gt;Node3 -->
<g id="edge2" class="edge">
<title>Node1&#45;&gt;Node3</title>
<path fill="none" stroke="midnightblue" d="M246.72,-206.04C273.1,-218.39 306.67,-234.12 330.96,-245.49"/>
<polygon fill="midnightblue" stroke="midnightblue" points="247.9,-202.73 237.35,-201.65 244.93,-209.06 247.9,-202.73"/>
</g>
<!-- Node8 -->
<g id="node8" class="node">
<title>Node8</title>
<g id="a_node8"><a xlink:href="classvsomeip__v3_1_1server__endpoint__impl.html" target="_top" xlink:title=" ">
<polygon fill="white" stroke="black" points="296,-98.5 296,-128.5 432,-128.5 432,-98.5 296,-98.5"/>
<text text-anchor="start" x="304" y="-116.5" font-family="Helvetica" font-size="10.00">vsomeip_v3::server</text>
<text text-anchor="middle" x="364" y="-105.5" font-family="Helvetica" font-size="10.00">_endpoint_impl&lt; Protocol &gt;</text>
</a>
</g>
</g>
<!-- Node1&#45;&gt;Node8 -->
<g id="edge7" class="edge">
<title>Node1&#45;&gt;Node8</title>
<path fill="none" stroke="midnightblue" d="M247.01,-167.09C273.11,-155.03 306.16,-139.76 330.3,-128.61"/>
<polygon fill="midnightblue" stroke="midnightblue" points="245.35,-164 237.74,-171.37 248.28,-170.36 245.35,-164"/>
</g>
<!-- Node2 -->
<g id="node2" class="node">
<title>Node2</title>
<g id="a_node2"><a xlink:href="classvsomeip__v3_1_1endpoint.html" target="_top" xlink:title=" ">
<polygon fill="white" stroke="black" points="0,-177 0,-196 112,-196 112,-177 0,-177"/>
<text text-anchor="middle" x="56" y="-184" font-family="Helvetica" font-size="10.00">vsomeip_v3::endpoint</text>
</a>
</g>
</g>
<!-- Node2&#45;&gt;Node1 -->
<g id="edge1" class="edge">
<title>Node2&#45;&gt;Node1</title>
<path fill="none" stroke="midnightblue" d="M122.41,-186.5C130.86,-186.5 139.46,-186.5 147.73,-186.5"/>
<polygon fill="midnightblue" stroke="midnightblue" points="122.2,-183 112.2,-186.5 122.2,-190 122.2,-183"/>
</g>
<!-- Node4 -->
<g id="node4" class="node">
<title>Node4</title>
<g id="a_node4"><a xlink:href="classvsomeip__v3_1_1local__tcp__client__endpoint__impl.html" target="_top" xlink:title=" ">
<polygon fill="white" stroke="black" points="472.5,-343.5 472.5,-373.5 586.5,-373.5 586.5,-343.5 472.5,-343.5"/>
<text text-anchor="start" x="480.5" y="-361.5" font-family="Helvetica" font-size="10.00">vsomeip_v3::local_tcp</text>
<text text-anchor="middle" x="529.5" y="-350.5" font-family="Helvetica" font-size="10.00">_client_endpoint_impl</text>
</a>
</g>
</g>
<!-- Node3&#45;&gt;Node4 -->
<g id="edge3" class="edge">
<title>Node3&#45;&gt;Node4</title>
<path fill="none" stroke="midnightblue" d="M391.13,-282.03C411.27,-297.93 440.28,-319.34 468,-334.5 473.85,-337.7 480.22,-340.7 486.55,-343.42"/>
<polygon fill="midnightblue" stroke="midnightblue" points="393.07,-279.1 383.07,-275.59 388.7,-284.57 393.07,-279.1"/>
</g>
<!-- Node5 -->
<g id="node5" class="node">
<title>Node5</title>
<g id="a_node5"><a xlink:href="classvsomeip__v3_1_1local__uds__client__endpoint__impl.html" target="_top" xlink:title=" ">
<polygon fill="white" stroke="black" points="471.5,-294.5 471.5,-324.5 587.5,-324.5 587.5,-294.5 471.5,-294.5"/>
<text text-anchor="start" x="479.5" y="-312.5" font-family="Helvetica" font-size="10.00">vsomeip_v3::local_uds</text>
<text text-anchor="middle" x="529.5" y="-301.5" font-family="Helvetica" font-size="10.00">_client_endpoint_impl</text>
</a>
</g>
</g>
<!-- Node3&#45;&gt;Node5 -->
<g id="edge4" class="edge">
<title>Node3&#45;&gt;Node5</title>
<path fill="none" stroke="midnightblue" d="M425.44,-278.61C442.82,-283.82 461.58,-289.45 478.28,-294.45"/>
<polygon fill="midnightblue" stroke="midnightblue" points="425.97,-275.12 415.39,-275.6 423.96,-281.82 425.97,-275.12"/>
</g>
<!-- Node6 -->
<g id="node6" class="node">
<title>Node6</title>
<g id="a_node6"><a xlink:href="classvsomeip__v3_1_1tcp__client__endpoint__impl.html" target="_top" xlink:title=" ">
<polygon fill="white" stroke="black" points="471,-245.5 471,-275.5 588,-275.5 588,-245.5 471,-245.5"/>
<text text-anchor="start" x="479" y="-263.5" font-family="Helvetica" font-size="10.00">vsomeip_v3::tcp_client</text>
<text text-anchor="middle" x="529.5" y="-252.5" font-family="Helvetica" font-size="10.00">_endpoint_impl</text>
</a>
</g>
</g>
<!-- Node3&#45;&gt;Node6 -->
<g id="edge5" class="edge">
<title>Node3&#45;&gt;Node6</title>
<path fill="none" stroke="midnightblue" d="M442.69,-260.5C452.17,-260.5 461.73,-260.5 470.85,-260.5"/>
<polygon fill="midnightblue" stroke="midnightblue" points="442.45,-257 432.45,-260.5 442.45,-264 442.45,-257"/>
</g>
<!-- Node7 -->
<g id="node7" class="node">
<title>Node7</title>
<g id="a_node7"><a xlink:href="classvsomeip__v3_1_1udp__client__endpoint__impl.html" target="_top" xlink:title=" ">
<polygon fill="white" stroke="black" points="470,-196.5 470,-226.5 589,-226.5 589,-196.5 470,-196.5"/>
<text text-anchor="start" x="478" y="-214.5" font-family="Helvetica" font-size="10.00">vsomeip_v3::udp_client</text>
<text text-anchor="middle" x="529.5" y="-203.5" font-family="Helvetica" font-size="10.00">_endpoint_impl</text>
</a>
</g>
</g>
<!-- Node3&#45;&gt;Node7 -->
<g id="edge6" class="edge">
<title>Node3&#45;&gt;Node7</title>
<path fill="none" stroke="midnightblue" d="M425.44,-242.39C442.82,-237.18 461.58,-231.55 478.28,-226.55"/>
<polygon fill="midnightblue" stroke="midnightblue" points="423.96,-239.18 415.39,-245.4 425.97,-245.88 423.96,-239.18"/>
</g>
<!-- Node9 -->
<g id="node9" class="node">
<title>Node9</title>
<g id="a_node9"><a xlink:href="classvsomeip__v3_1_1local__tcp__server__endpoint__impl.html" target="_top" xlink:title=" ">
<polygon fill="white" stroke="black" points="472.5,-147.5 472.5,-177.5 586.5,-177.5 586.5,-147.5 472.5,-147.5"/>
<text text-anchor="start" x="480.5" y="-165.5" font-family="Helvetica" font-size="10.00">vsomeip_v3::local_tcp</text>
<text text-anchor="middle" x="529.5" y="-154.5" font-family="Helvetica" font-size="10.00">_server_endpoint_impl</text>
</a>
</g>
</g>
<!-- Node8&#45;&gt;Node9 -->
<g id="edge8" class="edge">
<title>Node8&#45;&gt;Node9</title>
<path fill="none" stroke="midnightblue" d="M425.44,-131.61C442.82,-136.82 461.58,-142.45 478.28,-147.45"/>
<polygon fill="midnightblue" stroke="midnightblue" points="425.97,-128.12 415.39,-128.6 423.96,-134.82 425.97,-128.12"/>
</g>
<!-- Node10 -->
<g id="node10" class="node">
<title>Node10</title>
<g id="a_node10"><a xlink:href="classvsomeip__v3_1_1local__uds__server__endpoint__impl.html" target="_top" xlink:title=" ">
<polygon fill="white" stroke="black" points="471.5,-98.5 471.5,-128.5 587.5,-128.5 587.5,-98.5 471.5,-98.5"/>
<text text-anchor="start" x="479.5" y="-116.5" font-family="Helvetica" font-size="10.00">vsomeip_v3::local_uds</text>
<text text-anchor="middle" x="529.5" y="-105.5" font-family="Helvetica" font-size="10.00">_server_endpoint_impl</text>
</a>
</g>
</g>
<!-- Node8&#45;&gt;Node10 -->
<g id="edge9" class="edge">
<title>Node8&#45;&gt;Node10</title>
<path fill="none" stroke="midnightblue" d="M442.52,-113.5C452.24,-113.5 462.04,-113.5 471.37,-113.5"/>
<polygon fill="midnightblue" stroke="midnightblue" points="442.45,-110 432.45,-113.5 442.45,-117 442.45,-110"/>
</g>
<!-- Node11 -->
<g id="node11" class="node">
<title>Node11</title>
<g id="a_node11"><a xlink:href="classvsomeip__v3_1_1tcp__server__endpoint__impl.html" target="_top" xlink:title=" ">
<polygon fill="white" stroke="black" points="469,-49.5 469,-79.5 590,-79.5 590,-49.5 469,-49.5"/>
<text text-anchor="start" x="477" y="-67.5" font-family="Helvetica" font-size="10.00">vsomeip_v3::tcp_server</text>
<text text-anchor="middle" x="529.5" y="-56.5" font-family="Helvetica" font-size="10.00">_endpoint_impl</text>
</a>
</g>
</g>
<!-- Node8&#45;&gt;Node11 -->
<g id="edge10" class="edge">
<title>Node8&#45;&gt;Node11</title>
<path fill="none" stroke="midnightblue" d="M425.44,-95.39C442.82,-90.18 461.58,-84.55 478.28,-79.55"/>
<polygon fill="midnightblue" stroke="midnightblue" points="423.96,-92.18 415.39,-98.4 425.97,-98.88 423.96,-92.18"/>
</g>
<!-- Node12 -->
<g id="node12" class="node">
<title>Node12</title>
<g id="a_node12"><a xlink:href="classvsomeip__v3_1_1udp__server__endpoint__impl.html" target="_top" xlink:title=" ">
<polygon fill="white" stroke="black" points="468,-0.5 468,-30.5 591,-30.5 591,-0.5 468,-0.5"/>
<text text-anchor="start" x="476" y="-18.5" font-family="Helvetica" font-size="10.00">vsomeip_v3::udp_server</text>
<text text-anchor="middle" x="529.5" y="-7.5" font-family="Helvetica" font-size="10.00">_endpoint_impl</text>
</a>
</g>
</g>
<!-- Node8&#45;&gt;Node12 -->
<g id="edge11" class="edge">
<title>Node8&#45;&gt;Node12</title>
<path fill="none" stroke="midnightblue" d="M391.13,-91.97C411.27,-76.07 440.28,-54.66 468,-39.5 473.85,-36.3 480.22,-33.3 486.55,-30.58"/>
<polygon fill="midnightblue" stroke="midnightblue" points="388.7,-89.43 383.07,-98.41 393.07,-94.9 388.7,-89.43"/>
</g>
</g>
</svg>
