<?xml version="1.0" encoding="UTF-8" standalone="no"?>
<!DOCTYPE svg PUBLIC "-//W3C//DTD SVG 1.1//EN"
 "http://www.w3.org/Graphics/SVG/1.1/DTD/svg11.dtd">
<!-- Generated by graphviz version 2.44.0 (0)
 -->
<!-- Title: vsomeip_v3::sd::service_discovery_impl Pages: 1 -->
<svg width="292pt" height="100pt"
 viewBox="0.00 0.00 292.00 99.50" xmlns="http://www.w3.org/2000/svg" xmlns:xlink="http://www.w3.org/1999/xlink">
<g id="graph0" class="graph" transform="scale(1 1) rotate(0) translate(4 95.5)">
<title>vsomeip_v3::sd::service_discovery_impl</title>
<polygon fill="white" stroke="transparent" points="-4,4 -4,-95.5 288,-95.5 288,4 -4,4"/>
<!-- Node1 -->
<g id="node1" class="node">
<title>Node1</title>
<g id="a_node1"><a xlink:title=" ">
<polygon fill="#bfbfbf" stroke="black" points="160,-33 160,-63 284,-63 284,-33 160,-33"/>
<text text-anchor="start" x="168" y="-51" font-family="Helvetica" font-size="10.00">vsomeip_v3::sd::service</text>
<text text-anchor="middle" x="222" y="-40" font-family="Helvetica" font-size="10.00">_discovery_impl</text>
</a>
</g>
</g>
<!-- Node2 -->
<g id="node2" class="node">
<title>Node2</title>
<g id="a_node2"><a xlink:href="classvsomeip__v3_1_1sd_1_1service__discovery.html" target="_top" xlink:title=" ">
<polygon fill="white" stroke="black" points="0,-61 0,-91 124,-91 124,-61 0,-61"/>
<text text-anchor="start" x="8" y="-79" font-family="Helvetica" font-size="10.00">vsomeip_v3::sd::service</text>
<text text-anchor="middle" x="62" y="-68" font-family="Helvetica" font-size="10.00">_discovery</text>
</a>
</g>
</g>
<!-- Node2&#45;&gt;Node1 -->
<g id="edge1" class="edge">
<title>Node2&#45;&gt;Node1</title>
<path fill="none" stroke="midnightblue" d="M134.09,-63.4C142.67,-61.88 151.39,-60.34 159.82,-58.84"/>
<polygon fill="midnightblue" stroke="midnightblue" points="133.32,-59.98 124.09,-65.17 134.54,-66.88 133.32,-59.98"/>
</g>
<!-- Node3 -->
<g id="node3" class="node">
<title>Node3</title>
<g id="a_node3"><a xlink:title=" ">
<polygon fill="white" stroke="black" points="10,-0.5 10,-41.5 114,-41.5 114,-0.5 10,-0.5"/>
<text text-anchor="start" x="18" y="-29.5" font-family="Helvetica" font-size="10.00">std::enable_shared</text>
<text text-anchor="start" x="18" y="-18.5" font-family="Helvetica" font-size="10.00">_from_this&lt; service</text>
<text text-anchor="middle" x="62" y="-7.5" font-family="Helvetica" font-size="10.00">_discovery_impl &gt;</text>
</a>
</g>
</g>
<!-- Node3&#45;&gt;Node1 -->
<g id="edge2" class="edge">
<title>Node3&#45;&gt;Node1</title>
<path fill="none" stroke="midnightblue" d="M124.35,-31.48C135.98,-33.47 148.14,-35.55 159.77,-37.54"/>
<polygon fill="midnightblue" stroke="midnightblue" points="124.74,-28 114.3,-29.77 123.57,-34.9 124.74,-28"/>
</g>
</g>
</svg>
