<?xml version="1.0" encoding="UTF-8" standalone="no"?>
<!DOCTYPE svg PUBLIC "-//W3C//DTD SVG 1.1//EN"
 "http://www.w3.org/Graphics/SVG/1.1/DTD/svg11.dtd">
<!-- Generated by graphviz version 2.44.0 (0)
 -->
<!-- Title: vsomeip_v3::message_base_impl Pages: 1 -->
<svg width="460pt" height="207pt"
 viewBox="0.00 0.00 459.50 207.00" xmlns="http://www.w3.org/2000/svg" xmlns:xlink="http://www.w3.org/1999/xlink">
<g id="graph0" class="graph" transform="scale(1 1) rotate(0) translate(4 203)">
<title>vsomeip_v3::message_base_impl</title>
<polygon fill="white" stroke="transparent" points="-4,4 -4,-203 455.5,-203 455.5,4 -4,4"/>
<!-- Node1 -->
<g id="node1" class="node">
<title>Node1</title>
<g id="a_node1"><a xlink:title=" ">
<polygon fill="#bfbfbf" stroke="black" points="151.5,-56.5 151.5,-86.5 266.5,-86.5 266.5,-56.5 151.5,-56.5"/>
<text text-anchor="start" x="159.5" y="-74.5" font-family="Helvetica" font-size="10.00">vsomeip_v3::message</text>
<text text-anchor="middle" x="209" y="-63.5" font-family="Helvetica" font-size="10.00">_base_impl</text>
</a>
</g>
</g>
<!-- Node5 -->
<g id="node5" class="node">
<title>Node5</title>
<g id="a_node5"><a xlink:href="classvsomeip_1_1message__impl.html" target="_top" xlink:title=" ">
<polygon fill="white" stroke="black" points="0,-0.5 0,-19.5 122,-19.5 122,-0.5 0,-0.5"/>
<text text-anchor="middle" x="61" y="-7.5" font-family="Helvetica" font-size="10.00">vsomeip::message_impl</text>
</a>
</g>
</g>
<!-- Node1&#45;&gt;Node5 -->
<g id="edge4" class="edge">
<title>Node1&#45;&gt;Node5</title>
<path fill="none" stroke="midnightblue" d="M164.62,-52.66C137.48,-41.75 103.96,-28.27 82.54,-19.66"/>
<polygon fill="midnightblue" stroke="midnightblue" points="163.34,-55.92 173.93,-56.4 165.95,-49.42 163.34,-55.92"/>
</g>
<!-- Node6 -->
<g id="node6" class="node">
<title>Node6</title>
<g id="a_node6"><a xlink:href="classvsomeip__v3_1_1message__impl.html" target="_top" xlink:title=" ">
<polygon fill="white" stroke="black" points="140,-0.5 140,-19.5 278,-19.5 278,-0.5 140,-0.5"/>
<text text-anchor="middle" x="209" y="-7.5" font-family="Helvetica" font-size="10.00">vsomeip_v3::message_impl</text>
</a>
</g>
</g>
<!-- Node1&#45;&gt;Node6 -->
<g id="edge5" class="edge">
<title>Node1&#45;&gt;Node6</title>
<path fill="none" stroke="midnightblue" d="M209,-46.29C209,-36.86 209,-26.65 209,-19.66"/>
<polygon fill="midnightblue" stroke="midnightblue" points="205.5,-46.4 209,-56.4 212.5,-46.4 205.5,-46.4"/>
</g>
<!-- Node7 -->
<g id="node7" class="node">
<title>Node7</title>
<g id="a_node7"><a xlink:href="classvsomeip__v3_1_1sd_1_1message__impl.html" target="_top" xlink:title=" ">
<polygon fill="white" stroke="black" points="296.5,-0.5 296.5,-19.5 451.5,-19.5 451.5,-0.5 296.5,-0.5"/>
<text text-anchor="middle" x="374" y="-7.5" font-family="Helvetica" font-size="10.00">vsomeip_v3::sd::message_impl</text>
</a>
</g>
</g>
<!-- Node1&#45;&gt;Node7 -->
<g id="edge6" class="edge">
<title>Node1&#45;&gt;Node7</title>
<path fill="none" stroke="midnightblue" d="M257.69,-52.94C288.09,-41.98 325.89,-28.35 349.99,-19.66"/>
<polygon fill="midnightblue" stroke="midnightblue" points="256.32,-49.71 248.1,-56.4 258.7,-56.3 256.32,-49.71"/>
</g>
<!-- Node2 -->
<g id="node2" class="node">
<title>Node2</title>
<g id="a_node2"><a xlink:href="classvsomeip__v3_1_1message__base.html" target="_top" xlink:title="Base class to implement SOME/IP messages.">
<polygon fill="white" stroke="black" points="138.5,-123.5 138.5,-142.5 279.5,-142.5 279.5,-123.5 138.5,-123.5"/>
<text text-anchor="middle" x="209" y="-130.5" font-family="Helvetica" font-size="10.00">vsomeip_v3::message_base</text>
</a>
</g>
</g>
<!-- Node2&#45;&gt;Node1 -->
<g id="edge1" class="edge">
<title>Node2&#45;&gt;Node1</title>
<path fill="none" stroke="midnightblue" d="M209,-113.23C209,-104.59 209,-94.5 209,-86.52"/>
<polygon fill="midnightblue" stroke="midnightblue" points="205.5,-113.48 209,-123.48 212.5,-113.48 205.5,-113.48"/>
</g>
<!-- Node3 -->
<g id="node3" class="node">
<title>Node3</title>
<g id="a_node3"><a xlink:href="classvsomeip__v3_1_1serializable.html" target="_top" xlink:title=" ">
<polygon fill="white" stroke="black" points="74,-179.5 74,-198.5 198,-198.5 198,-179.5 74,-179.5"/>
<text text-anchor="middle" x="136" y="-186.5" font-family="Helvetica" font-size="10.00">vsomeip_v3::serializable</text>
</a>
</g>
</g>
<!-- Node3&#45;&gt;Node2 -->
<g id="edge2" class="edge">
<title>Node3&#45;&gt;Node2</title>
<path fill="none" stroke="midnightblue" d="M156.14,-173.1C169.28,-163.38 185.98,-151.03 197.06,-142.83"/>
<polygon fill="midnightblue" stroke="midnightblue" points="153.69,-170.56 147.73,-179.32 157.85,-176.19 153.69,-170.56"/>
</g>
<!-- Node4 -->
<g id="node4" class="node">
<title>Node4</title>
<g id="a_node4"><a xlink:href="classvsomeip__v3_1_1deserializable.html" target="_top" xlink:title=" ">
<polygon fill="white" stroke="black" points="216,-179.5 216,-198.5 350,-198.5 350,-179.5 216,-179.5"/>
<text text-anchor="middle" x="283" y="-186.5" font-family="Helvetica" font-size="10.00">vsomeip_v3::deserializable</text>
</a>
</g>
</g>
<!-- Node4&#45;&gt;Node2 -->
<g id="edge3" class="edge">
<title>Node4&#45;&gt;Node2</title>
<path fill="none" stroke="midnightblue" d="M262.97,-173.38C249.59,-163.62 232.44,-151.11 221.11,-142.83"/>
<polygon fill="midnightblue" stroke="midnightblue" points="260.97,-176.26 271.11,-179.32 265.1,-170.6 260.97,-176.26"/>
</g>
</g>
</svg>
