<?xml version="1.0" encoding="UTF-8" standalone="no"?>
<!DOCTYPE svg PUBLIC "-//W3C//DTD SVG 1.1//EN"
 "http://www.w3.org/Graphics/SVG/1.1/DTD/svg11.dtd">
<!-- Generated by graphviz version 2.44.0 (0)
 -->
<!-- Title: vsomeip_v3::protocol::remove_security_policy_response_command Pages: 1 -->
<svg width="141pt" height="195pt"
 viewBox="0.00 0.00 141.00 195.00" xmlns="http://www.w3.org/2000/svg" xmlns:xlink="http://www.w3.org/1999/xlink">
<g id="graph0" class="graph" transform="scale(1 1) rotate(0) translate(4 191)">
<title>vsomeip_v3::protocol::remove_security_policy_response_command</title>
<polygon fill="white" stroke="transparent" points="-4,4 -4,-191 137,-191 137,4 -4,4"/>
<!-- Node1 -->
<g id="node1" class="node">
<title>Node1</title>
<g id="a_node1"><a xlink:title=" ">
<polygon fill="#bfbfbf" stroke="black" points="4,-0.5 4,-41.5 129,-41.5 129,-0.5 4,-0.5"/>
<text text-anchor="start" x="12" y="-29.5" font-family="Helvetica" font-size="10.00">vsomeip_v3::protocol</text>
<text text-anchor="start" x="12" y="-18.5" font-family="Helvetica" font-size="10.00">::remove_security_policy</text>
<text text-anchor="middle" x="66.5" y="-7.5" font-family="Helvetica" font-size="10.00">_response_command</text>
</a>
</g>
</g>
<!-- Node2 -->
<g id="node2" class="node">
<title>Node2</title>
<g id="a_node2"><a xlink:href="classvsomeip__v3_1_1protocol_1_1security__policy__response__command__base.html" target="_top" xlink:title=" ">
<polygon fill="white" stroke="black" points="0,-78.5 0,-119.5 133,-119.5 133,-78.5 0,-78.5"/>
<text text-anchor="start" x="8" y="-107.5" font-family="Helvetica" font-size="10.00">vsomeip_v3::protocol</text>
<text text-anchor="start" x="8" y="-96.5" font-family="Helvetica" font-size="10.00">::security_policy_response</text>
<text text-anchor="middle" x="66.5" y="-85.5" font-family="Helvetica" font-size="10.00">_command_base</text>
</a>
</g>
</g>
<!-- Node2&#45;&gt;Node1 -->
<g id="edge1" class="edge">
<title>Node2&#45;&gt;Node1</title>
<path fill="none" stroke="midnightblue" d="M66.5,-68.3C66.5,-59.3 66.5,-49.65 66.5,-41.51"/>
<polygon fill="midnightblue" stroke="midnightblue" points="63,-68.43 66.5,-78.43 70,-68.43 63,-68.43"/>
</g>
<!-- Node3 -->
<g id="node3" class="node">
<title>Node3</title>
<g id="a_node3"><a xlink:href="classvsomeip__v3_1_1protocol_1_1command.html" target="_top" xlink:title=" ">
<polygon fill="white" stroke="black" points="11.5,-156.5 11.5,-186.5 121.5,-186.5 121.5,-156.5 11.5,-156.5"/>
<text text-anchor="start" x="19.5" y="-174.5" font-family="Helvetica" font-size="10.00">vsomeip_v3::protocol</text>
<text text-anchor="middle" x="66.5" y="-163.5" font-family="Helvetica" font-size="10.00">::command</text>
</a>
</g>
</g>
<!-- Node3&#45;&gt;Node2 -->
<g id="edge2" class="edge">
<title>Node3&#45;&gt;Node2</title>
<path fill="none" stroke="midnightblue" d="M66.5,-145.98C66.5,-137.35 66.5,-127.76 66.5,-119.59"/>
<polygon fill="midnightblue" stroke="midnightblue" points="63,-146.23 66.5,-156.23 70,-146.23 63,-146.23"/>
</g>
</g>
</svg>
