<?xml version="1.0" encoding="UTF-8" standalone="no"?>
<!DOCTYPE svg PUBLIC "-//W3C//DTD SVG 1.1//EN"
 "http://www.w3.org/Graphics/SVG/1.1/DTD/svg11.dtd">
<!-- Generated by graphviz version 2.44.0 (0)
 -->
<!-- Title: boost::asio::detail::reactor_op_ext_local Pages: 1 -->
<svg width="655pt" height="203pt"
 viewBox="0.00 0.00 655.00 203.00" xmlns="http://www.w3.org/2000/svg" xmlns:xlink="http://www.w3.org/1999/xlink">
<g id="graph0" class="graph" transform="scale(1 1) rotate(0) translate(4 199)">
<title>boost::asio::detail::reactor_op_ext_local</title>
<polygon fill="white" stroke="transparent" points="-4,4 -4,-199 651,-199 651,4 -4,4"/>
<!-- Node1 -->
<g id="node1" class="node">
<title>Node1</title>
<g id="a_node1"><a xlink:title=" ">
<polygon fill="#bfbfbf" stroke="black" points="98,-82.5 98,-112.5 211,-112.5 211,-82.5 98,-82.5"/>
<text text-anchor="start" x="106" y="-100.5" font-family="Helvetica" font-size="10.00">boost::asio::detail</text>
<text text-anchor="middle" x="154.5" y="-89.5" font-family="Helvetica" font-size="10.00">::reactor_op_ext_local</text>
</a>
</g>
</g>
<!-- Node3 -->
<g id="node3" class="node">
<title>Node3</title>
<g id="a_node3"><a xlink:href="classboost_1_1asio_1_1detail_1_1reactive__socket__recv__op__base__ext__local.html" target="_top" xlink:title=" ">
<polygon fill="white" stroke="black" points="247,-142.5 247,-194.5 419,-194.5 419,-142.5 247,-142.5"/>
<text text-anchor="start" x="255" y="-182.5" font-family="Helvetica" font-size="10.00">boost::asio::detail</text>
<text text-anchor="start" x="255" y="-171.5" font-family="Helvetica" font-size="10.00">::reactive_socket_recv</text>
<text text-anchor="start" x="255" y="-160.5" font-family="Helvetica" font-size="10.00">_op_base_ext_local&lt; MutableBuffer</text>
<text text-anchor="middle" x="333" y="-149.5" font-family="Helvetica" font-size="10.00">Sequence &gt;</text>
</a>
</g>
</g>
<!-- Node1&#45;&gt;Node3 -->
<g id="edge2" class="edge">
<title>Node1&#45;&gt;Node3</title>
<path fill="none" stroke="midnightblue" d="M202.36,-116.35C222.22,-124.34 245.69,-133.78 267.16,-142.42"/>
<polygon fill="midnightblue" stroke="midnightblue" points="203.51,-113.04 192.93,-112.56 200.9,-119.54 203.51,-113.04"/>
</g>
<!-- Node5 -->
<g id="node5" class="node">
<title>Node5</title>
<g id="a_node5"><a xlink:href="classboost_1_1asio_1_1detail_1_1reactive__socket__recvfrom__op__base__ext__local.html" target="_top" xlink:title=" ">
<polygon fill="white" stroke="black" points="247,-71.5 247,-123.5 419,-123.5 419,-71.5 247,-71.5"/>
<text text-anchor="start" x="255" y="-111.5" font-family="Helvetica" font-size="10.00">boost::asio::detail</text>
<text text-anchor="start" x="255" y="-100.5" font-family="Helvetica" font-size="10.00">::reactive_socket_recvfrom</text>
<text text-anchor="start" x="255" y="-89.5" font-family="Helvetica" font-size="10.00">_op_base_ext_local&lt; MutableBuffer</text>
<text text-anchor="middle" x="333" y="-78.5" font-family="Helvetica" font-size="10.00">Sequence, Endpoint &gt;</text>
</a>
</g>
</g>
<!-- Node1&#45;&gt;Node5 -->
<g id="edge4" class="edge">
<title>Node1&#45;&gt;Node5</title>
<path fill="none" stroke="midnightblue" d="M221.61,-97.5C229.86,-97.5 238.37,-97.5 246.85,-97.5"/>
<polygon fill="midnightblue" stroke="midnightblue" points="221.35,-94 211.35,-97.5 221.35,-101 221.35,-94"/>
</g>
<!-- Node7 -->
<g id="node7" class="node">
<title>Node7</title>
<g id="a_node7"><a xlink:href="classboost_1_1asio_1_1detail_1_1reactive__socket__recvmsg__op__base__ext__local.html" target="_top" xlink:title=" ">
<polygon fill="white" stroke="black" points="247,-0.5 247,-52.5 419,-52.5 419,-0.5 247,-0.5"/>
<text text-anchor="start" x="255" y="-40.5" font-family="Helvetica" font-size="10.00">boost::asio::detail</text>
<text text-anchor="start" x="255" y="-29.5" font-family="Helvetica" font-size="10.00">::reactive_socket_recvmsg</text>
<text text-anchor="start" x="255" y="-18.5" font-family="Helvetica" font-size="10.00">_op_base_ext_local&lt; MutableBuffer</text>
<text text-anchor="middle" x="333" y="-7.5" font-family="Helvetica" font-size="10.00">Sequence &gt;</text>
</a>
</g>
</g>
<!-- Node1&#45;&gt;Node7 -->
<g id="edge6" class="edge">
<title>Node1&#45;&gt;Node7</title>
<path fill="none" stroke="midnightblue" d="M202.36,-78.65C222.22,-70.66 245.69,-61.22 267.16,-52.58"/>
<polygon fill="midnightblue" stroke="midnightblue" points="200.9,-75.46 192.93,-82.44 203.51,-81.96 200.9,-75.46"/>
</g>
<!-- Node2 -->
<g id="node2" class="node">
<title>Node2</title>
<g id="a_node2"><a xlink:title=" ">
<polygon fill="white" stroke="black" points="0,-88 0,-107 62,-107 62,-88 0,-88"/>
<text text-anchor="middle" x="31" y="-95" font-family="Helvetica" font-size="10.00">reactor_op</text>
</a>
</g>
</g>
<!-- Node2&#45;&gt;Node1 -->
<g id="edge1" class="edge">
<title>Node2&#45;&gt;Node1</title>
<path fill="none" stroke="midnightblue" d="M72.09,-97.5C80.3,-97.5 89.1,-97.5 97.75,-97.5"/>
<polygon fill="midnightblue" stroke="midnightblue" points="72.03,-94 62.03,-97.5 72.03,-101 72.03,-94"/>
</g>
<!-- Node4 -->
<g id="node4" class="node">
<title>Node4</title>
<g id="a_node4"><a xlink:href="classboost_1_1asio_1_1detail_1_1reactive__socket__recv__op__ext__local.html" target="_top" xlink:title=" ">
<polygon fill="white" stroke="black" points="478,-142.5 478,-194.5 624,-194.5 624,-142.5 478,-142.5"/>
<text text-anchor="start" x="486" y="-182.5" font-family="Helvetica" font-size="10.00">boost::asio::detail</text>
<text text-anchor="start" x="486" y="-171.5" font-family="Helvetica" font-size="10.00">::reactive_socket_recv</text>
<text text-anchor="start" x="486" y="-160.5" font-family="Helvetica" font-size="10.00">_op_ext_local&lt; MutableBuffer</text>
<text text-anchor="middle" x="551" y="-149.5" font-family="Helvetica" font-size="10.00">Sequence, Handler &gt;</text>
</a>
</g>
</g>
<!-- Node3&#45;&gt;Node4 -->
<g id="edge3" class="edge">
<title>Node3&#45;&gt;Node4</title>
<path fill="none" stroke="midnightblue" d="M429.18,-168.5C445.54,-168.5 462.3,-168.5 477.93,-168.5"/>
<polygon fill="midnightblue" stroke="midnightblue" points="429.06,-165 419.06,-168.5 429.06,-172 429.06,-165"/>
</g>
<!-- Node6 -->
<g id="node6" class="node">
<title>Node6</title>
<g id="a_node6"><a xlink:href="classboost_1_1asio_1_1detail_1_1reactive__socket__recvfrom__op__ext__local.html" target="_top" xlink:title=" ">
<polygon fill="white" stroke="black" points="455,-71.5 455,-123.5 647,-123.5 647,-71.5 455,-71.5"/>
<text text-anchor="start" x="463" y="-111.5" font-family="Helvetica" font-size="10.00">boost::asio::detail</text>
<text text-anchor="start" x="463" y="-100.5" font-family="Helvetica" font-size="10.00">::reactive_socket_recvfrom</text>
<text text-anchor="start" x="463" y="-89.5" font-family="Helvetica" font-size="10.00">_op_ext_local&lt; MutableBufferSequence,</text>
<text text-anchor="middle" x="551" y="-78.5" font-family="Helvetica" font-size="10.00"> Endpoint, Handler &gt;</text>
</a>
</g>
</g>
<!-- Node5&#45;&gt;Node6 -->
<g id="edge5" class="edge">
<title>Node5&#45;&gt;Node6</title>
<path fill="none" stroke="midnightblue" d="M429.27,-97.5C437.7,-97.5 446.24,-97.5 454.67,-97.5"/>
<polygon fill="midnightblue" stroke="midnightblue" points="429.06,-94 419.06,-97.5 429.06,-101 429.06,-94"/>
</g>
<!-- Node8 -->
<g id="node8" class="node">
<title>Node8</title>
<g id="a_node8"><a xlink:href="classboost_1_1asio_1_1detail_1_1reactive__socket__recvmsg__op__ext__local.html" target="_top" xlink:title=" ">
<polygon fill="white" stroke="black" points="455,-0.5 455,-52.5 647,-52.5 647,-0.5 455,-0.5"/>
<text text-anchor="start" x="463" y="-40.5" font-family="Helvetica" font-size="10.00">boost::asio::detail</text>
<text text-anchor="start" x="463" y="-29.5" font-family="Helvetica" font-size="10.00">::reactive_socket_recvmsg</text>
<text text-anchor="start" x="463" y="-18.5" font-family="Helvetica" font-size="10.00">_op_ext_local&lt; MutableBufferSequence,</text>
<text text-anchor="middle" x="551" y="-7.5" font-family="Helvetica" font-size="10.00"> Handler &gt;</text>
</a>
</g>
</g>
<!-- Node7&#45;&gt;Node8 -->
<g id="edge7" class="edge">
<title>Node7&#45;&gt;Node8</title>
<path fill="none" stroke="midnightblue" d="M429.27,-26.5C437.7,-26.5 446.24,-26.5 454.67,-26.5"/>
<polygon fill="midnightblue" stroke="midnightblue" points="429.06,-23 419.06,-26.5 429.06,-30 429.06,-23"/>
</g>
</g>
</svg>
