<?xml version="1.0" encoding="UTF-8" standalone="no"?>
<!DOCTYPE svg PUBLIC "-//W3C//DTD SVG 1.1//EN"
 "http://www.w3.org/Graphics/SVG/1.1/DTD/svg11.dtd">
<!-- Generated by graphviz version 2.44.0 (0)
 -->
<!-- Title: vsomeip_v3::sd::ip_option_impl Pages: 1 -->
<svg width="246pt" height="229pt"
 viewBox="0.00 0.00 246.00 229.00" xmlns="http://www.w3.org/2000/svg" xmlns:xlink="http://www.w3.org/1999/xlink">
<g id="graph0" class="graph" transform="scale(1 1) rotate(0) translate(4 225)">
<title>vsomeip_v3::sd::ip_option_impl</title>
<polygon fill="white" stroke="transparent" points="-4,4 -4,-225 242,-225 242,4 -4,4"/>
<!-- Node1 -->
<g id="node1" class="node">
<title>Node1</title>
<g id="a_node1"><a xlink:title=" ">
<polygon fill="#bfbfbf" stroke="black" points="69.5,-67.5 69.5,-97.5 168.5,-97.5 168.5,-67.5 69.5,-67.5"/>
<text text-anchor="start" x="77.5" y="-85.5" font-family="Helvetica" font-size="10.00">vsomeip_v3::sd::ip</text>
<text text-anchor="middle" x="119" y="-74.5" font-family="Helvetica" font-size="10.00">_option_impl</text>
</a>
</g>
</g>
<!-- Node4 -->
<g id="node4" class="node">
<title>Node4</title>
<g id="a_node4"><a xlink:href="classvsomeip__v3_1_1sd_1_1ipv4__option__impl.html" target="_top" xlink:title=" ">
<polygon fill="white" stroke="black" points="0,-0.5 0,-30.5 110,-30.5 110,-0.5 0,-0.5"/>
<text text-anchor="start" x="8" y="-18.5" font-family="Helvetica" font-size="10.00">vsomeip_v3::sd::ipv4</text>
<text text-anchor="middle" x="55" y="-7.5" font-family="Helvetica" font-size="10.00">_option_impl</text>
</a>
</g>
</g>
<!-- Node1&#45;&gt;Node4 -->
<g id="edge3" class="edge">
<title>Node1&#45;&gt;Node4</title>
<path fill="none" stroke="midnightblue" d="M97.85,-60.02C88.32,-50.34 77.33,-39.17 68.86,-30.58"/>
<polygon fill="midnightblue" stroke="midnightblue" points="95.6,-62.73 105.11,-67.4 100.59,-57.81 95.6,-62.73"/>
</g>
<!-- Node5 -->
<g id="node5" class="node">
<title>Node5</title>
<g id="a_node5"><a xlink:href="classvsomeip__v3_1_1sd_1_1ipv6__option__impl.html" target="_top" xlink:title=" ">
<polygon fill="white" stroke="black" points="128,-0.5 128,-30.5 238,-30.5 238,-0.5 128,-0.5"/>
<text text-anchor="start" x="136" y="-18.5" font-family="Helvetica" font-size="10.00">vsomeip_v3::sd::ipv6</text>
<text text-anchor="middle" x="183" y="-7.5" font-family="Helvetica" font-size="10.00">_option_impl</text>
</a>
</g>
</g>
<!-- Node1&#45;&gt;Node5 -->
<g id="edge4" class="edge">
<title>Node1&#45;&gt;Node5</title>
<path fill="none" stroke="midnightblue" d="M140.15,-60.02C149.68,-50.34 160.67,-39.17 169.14,-30.58"/>
<polygon fill="midnightblue" stroke="midnightblue" points="137.41,-57.81 132.89,-67.4 142.4,-62.73 137.41,-57.81"/>
</g>
<!-- Node2 -->
<g id="node2" class="node">
<title>Node2</title>
<g id="a_node2"><a xlink:href="classvsomeip__v3_1_1sd_1_1option__impl.html" target="_top" xlink:title=" ">
<polygon fill="white" stroke="black" points="48.5,-134.5 48.5,-153.5 189.5,-153.5 189.5,-134.5 48.5,-134.5"/>
<text text-anchor="middle" x="119" y="-141.5" font-family="Helvetica" font-size="10.00">vsomeip_v3::sd::option_impl</text>
</a>
</g>
</g>
<!-- Node2&#45;&gt;Node1 -->
<g id="edge1" class="edge">
<title>Node2&#45;&gt;Node1</title>
<path fill="none" stroke="midnightblue" d="M119,-124.23C119,-115.59 119,-105.5 119,-97.52"/>
<polygon fill="midnightblue" stroke="midnightblue" points="115.5,-124.48 119,-134.48 122.5,-124.48 115.5,-124.48"/>
</g>
<!-- Node3 -->
<g id="node3" class="node">
<title>Node3</title>
<g id="a_node3"><a xlink:href="classvsomeip__v3_1_1sd_1_1message__element__impl.html" target="_top" xlink:title=" ">
<polygon fill="white" stroke="black" points="53.5,-190.5 53.5,-220.5 184.5,-220.5 184.5,-190.5 53.5,-190.5"/>
<text text-anchor="start" x="61.5" y="-208.5" font-family="Helvetica" font-size="10.00">vsomeip_v3::sd::message</text>
<text text-anchor="middle" x="119" y="-197.5" font-family="Helvetica" font-size="10.00">_element_impl</text>
</a>
</g>
</g>
<!-- Node3&#45;&gt;Node2 -->
<g id="edge2" class="edge">
<title>Node3&#45;&gt;Node2</title>
<path fill="none" stroke="midnightblue" d="M119,-180.29C119,-170.86 119,-160.65 119,-153.66"/>
<polygon fill="midnightblue" stroke="midnightblue" points="115.5,-180.4 119,-190.4 122.5,-180.4 115.5,-180.4"/>
</g>
</g>
</svg>
