<?xml version="1.0" encoding="UTF-8" standalone="no"?>
<!DOCTYPE svg PUBLIC "-//W3C//DTD SVG 1.1//EN"
 "http://www.w3.org/Graphics/SVG/1.1/DTD/svg11.dtd">
<!-- Generated by graphviz version 2.44.0 (0)
 -->
<!-- Title: vsomeip_v3::protocol::command Pages: 1 -->
<svg width="503pt" height="1162pt"
 viewBox="0.00 0.00 503.00 1162.00" xmlns="http://www.w3.org/2000/svg" xmlns:xlink="http://www.w3.org/1999/xlink">
<g id="graph0" class="graph" transform="scale(1 1) rotate(0) translate(4 1158)">
<title>vsomeip_v3::protocol::command</title>
<polygon fill="white" stroke="transparent" points="-4,4 -4,-1158 499,-1158 499,4 -4,4"/>
<!-- Node1 -->
<g id="node1" class="node">
<title>Node1</title>
<g id="a_node1"><a xlink:title=" ">
<polygon fill="#bfbfbf" stroke="black" points="0,-553.5 0,-583.5 110,-583.5 110,-553.5 0,-553.5"/>
<text text-anchor="start" x="8" y="-571.5" font-family="Helvetica" font-size="10.00">vsomeip_v3::protocol</text>
<text text-anchor="middle" x="55" y="-560.5" font-family="Helvetica" font-size="10.00">::command</text>
</a>
</g>
</g>
<!-- Node2 -->
<g id="node2" class="node">
<title>Node2</title>
<g id="a_node2"><a xlink:href="classvsomeip__v3_1_1protocol_1_1assign__client__ack__command.html" target="_top" xlink:title=" ">
<polygon fill="white" stroke="black" points="158,-1123.5 158,-1153.5 307,-1153.5 307,-1123.5 158,-1123.5"/>
<text text-anchor="start" x="166" y="-1141.5" font-family="Helvetica" font-size="10.00">vsomeip_v3::protocol</text>
<text text-anchor="middle" x="232.5" y="-1130.5" font-family="Helvetica" font-size="10.00">::assign_client_ack_command</text>
</a>
</g>
</g>
<!-- Node1&#45;&gt;Node2 -->
<g id="edge1" class="edge">
<title>Node1&#45;&gt;Node2</title>
<path fill="none" stroke="midnightblue" d="M56.68,-593.79C59.77,-690.57 75.65,-1035.93 146,-1114.5 149.39,-1118.29 153.33,-1121.5 157.62,-1124.22"/>
<polygon fill="midnightblue" stroke="midnightblue" points="60.17,-593.63 56.37,-583.74 53.18,-593.84 60.17,-593.63"/>
</g>
<!-- Node3 -->
<g id="node3" class="node">
<title>Node3</title>
<g id="a_node3"><a xlink:href="classvsomeip__v3_1_1protocol_1_1assign__client__command.html" target="_top" xlink:title=" ">
<polygon fill="white" stroke="black" points="168.5,-1074.5 168.5,-1104.5 296.5,-1104.5 296.5,-1074.5 168.5,-1074.5"/>
<text text-anchor="start" x="176.5" y="-1092.5" font-family="Helvetica" font-size="10.00">vsomeip_v3::protocol</text>
<text text-anchor="middle" x="232.5" y="-1081.5" font-family="Helvetica" font-size="10.00">::assign_client_command</text>
</a>
</g>
</g>
<!-- Node1&#45;&gt;Node3 -->
<g id="edge2" class="edge">
<title>Node1&#45;&gt;Node3</title>
<path fill="none" stroke="midnightblue" d="M57.18,-594.07C61.9,-685.39 82.34,-993.79 146,-1064.5 152.1,-1071.28 159.94,-1076.27 168.38,-1079.92"/>
<polygon fill="midnightblue" stroke="midnightblue" points="60.66,-593.62 56.67,-583.81 53.67,-593.97 60.66,-593.62"/>
</g>
<!-- Node4 -->
<g id="node4" class="node">
<title>Node4</title>
<g id="a_node4"><a xlink:href="classvsomeip__v3_1_1protocol_1_1distribute__security__policies__command.html" target="_top" xlink:title=" ">
<polygon fill="white" stroke="black" points="177.5,-1014 177.5,-1055 287.5,-1055 287.5,-1014 177.5,-1014"/>
<text text-anchor="start" x="185.5" y="-1043" font-family="Helvetica" font-size="10.00">vsomeip_v3::protocol</text>
<text text-anchor="start" x="185.5" y="-1032" font-family="Helvetica" font-size="10.00">::distribute_security</text>
<text text-anchor="middle" x="232.5" y="-1021" font-family="Helvetica" font-size="10.00">_policies_command</text>
</a>
</g>
</g>
<!-- Node1&#45;&gt;Node4 -->
<g id="edge3" class="edge">
<title>Node1&#45;&gt;Node4</title>
<path fill="none" stroke="midnightblue" d="M57.99,-593.83C65.04,-677.3 91.35,-941.99 146,-1004.5 154.18,-1013.86 165.45,-1020.29 177.13,-1024.72"/>
<polygon fill="midnightblue" stroke="midnightblue" points="61.47,-593.39 57.16,-583.71 54.49,-593.97 61.47,-593.39"/>
</g>
<!-- Node5 -->
<g id="node5" class="node">
<title>Node5</title>
<g id="a_node5"><a xlink:href="classvsomeip__v3_1_1protocol_1_1dummy__command.html" target="_top" xlink:title=" ">
<polygon fill="white" stroke="black" points="177.5,-964.5 177.5,-994.5 287.5,-994.5 287.5,-964.5 177.5,-964.5"/>
<text text-anchor="start" x="185.5" y="-982.5" font-family="Helvetica" font-size="10.00">vsomeip_v3::protocol</text>
<text text-anchor="middle" x="232.5" y="-971.5" font-family="Helvetica" font-size="10.00">::dummy_command</text>
</a>
</g>
</g>
<!-- Node1&#45;&gt;Node5 -->
<g id="edge4" class="edge">
<title>Node1&#45;&gt;Node5</title>
<path fill="none" stroke="midnightblue" d="M58.58,-594.11C66.89,-671.78 95.46,-902.63 146,-955.5 154.42,-964.3 165.78,-969.96 177.47,-973.57"/>
<polygon fill="midnightblue" stroke="midnightblue" points="62.02,-593.38 57.5,-583.8 55.06,-594.11 62.02,-593.38"/>
</g>
<!-- Node6 -->
<g id="node6" class="node">
<title>Node6</title>
<g id="a_node6"><a xlink:href="classvsomeip__v3_1_1protocol_1_1multiple__services__command__base.html" target="_top" xlink:title=" ">
<polygon fill="white" stroke="black" points="146,-915.5 146,-945.5 319,-945.5 319,-915.5 146,-915.5"/>
<text text-anchor="start" x="154" y="-933.5" font-family="Helvetica" font-size="10.00">vsomeip_v3::protocol</text>
<text text-anchor="middle" x="232.5" y="-922.5" font-family="Helvetica" font-size="10.00">::multiple_services_command_base</text>
</a>
</g>
</g>
<!-- Node1&#45;&gt;Node6 -->
<g id="edge5" class="edge">
<title>Node1&#45;&gt;Node6</title>
<path fill="none" stroke="midnightblue" d="M59.54,-594C69.83,-664.58 101.82,-860.27 146,-905.5 149.78,-909.37 154.13,-912.65 158.81,-915.43"/>
<polygon fill="midnightblue" stroke="midnightblue" points="62.96,-593.19 58.08,-583.79 56.03,-594.19 62.96,-593.19"/>
</g>
<!-- Node9 -->
<g id="node9" class="node">
<title>Node9</title>
<g id="a_node9"><a xlink:href="classvsomeip__v3_1_1protocol_1_1offered__services__request__command.html" target="_top" xlink:title=" ">
<polygon fill="white" stroke="black" points="166.5,-855 166.5,-896 298.5,-896 298.5,-855 166.5,-855"/>
<text text-anchor="start" x="174.5" y="-884" font-family="Helvetica" font-size="10.00">vsomeip_v3::protocol</text>
<text text-anchor="start" x="174.5" y="-873" font-family="Helvetica" font-size="10.00">::offered_services_request</text>
<text text-anchor="middle" x="232.5" y="-862" font-family="Helvetica" font-size="10.00">_command</text>
</a>
</g>
</g>
<!-- Node1&#45;&gt;Node9 -->
<g id="edge8" class="edge">
<title>Node1&#45;&gt;Node9</title>
<path fill="none" stroke="midnightblue" d="M57,-593.79C60.48,-647.52 76.08,-773.93 146,-845.5 151.83,-851.46 158.9,-856.24 166.47,-860.08"/>
<polygon fill="midnightblue" stroke="midnightblue" points="60.49,-593.55 56.44,-583.77 53.5,-593.95 60.49,-593.55"/>
</g>
<!-- Node10 -->
<g id="node10" class="node">
<title>Node10</title>
<g id="a_node10"><a xlink:href="classvsomeip__v3_1_1protocol_1_1register__application__command.html" target="_top" xlink:title=" ">
<polygon fill="white" stroke="black" points="177.5,-795 177.5,-836 287.5,-836 287.5,-795 177.5,-795"/>
<text text-anchor="start" x="185.5" y="-824" font-family="Helvetica" font-size="10.00">vsomeip_v3::protocol</text>
<text text-anchor="start" x="185.5" y="-813" font-family="Helvetica" font-size="10.00">::register_application</text>
<text text-anchor="middle" x="232.5" y="-802" font-family="Helvetica" font-size="10.00">_command</text>
</a>
</g>
</g>
<!-- Node1&#45;&gt;Node10 -->
<g id="edge9" class="edge">
<title>Node1&#45;&gt;Node10</title>
<path fill="none" stroke="midnightblue" d="M59.65,-593.82C67.43,-638.66 89.75,-732.29 146,-785.5 154.8,-793.82 166.04,-799.85 177.46,-804.22"/>
<polygon fill="midnightblue" stroke="midnightblue" points="63.08,-593.08 58.02,-583.78 56.17,-594.21 63.08,-593.08"/>
</g>
<!-- Node11 -->
<g id="node11" class="node">
<title>Node11</title>
<g id="a_node11"><a xlink:href="classvsomeip__v3_1_1protocol_1_1register__events__command.html" target="_top" xlink:title=" ">
<polygon fill="white" stroke="black" points="164,-745.5 164,-775.5 301,-775.5 301,-745.5 164,-745.5"/>
<text text-anchor="start" x="172" y="-763.5" font-family="Helvetica" font-size="10.00">vsomeip_v3::protocol</text>
<text text-anchor="middle" x="232.5" y="-752.5" font-family="Helvetica" font-size="10.00">::register_events_command</text>
</a>
</g>
</g>
<!-- Node1&#45;&gt;Node11 -->
<g id="edge10" class="edge">
<title>Node1&#45;&gt;Node11</title>
<path fill="none" stroke="midnightblue" d="M62.6,-593.58C73.61,-630.46 99.26,-698.99 146,-736.5 151.29,-740.75 157.29,-744.24 163.59,-747.12"/>
<polygon fill="midnightblue" stroke="midnightblue" points="65.87,-592.3 59.76,-583.65 59.14,-594.22 65.87,-592.3"/>
</g>
<!-- Node12 -->
<g id="node12" class="node">
<title>Node12</title>
<g id="a_node12"><a xlink:href="classvsomeip__v3_1_1protocol_1_1release__service__command.html" target="_top" xlink:title=" ">
<polygon fill="white" stroke="black" points="162.5,-696.5 162.5,-726.5 302.5,-726.5 302.5,-696.5 162.5,-696.5"/>
<text text-anchor="start" x="170.5" y="-714.5" font-family="Helvetica" font-size="10.00">vsomeip_v3::protocol</text>
<text text-anchor="middle" x="232.5" y="-703.5" font-family="Helvetica" font-size="10.00">::release_service_command</text>
</a>
</g>
</g>
<!-- Node1&#45;&gt;Node12 -->
<g id="edge11" class="edge">
<title>Node1&#45;&gt;Node12</title>
<path fill="none" stroke="midnightblue" d="M68.33,-592.76C83.19,-619.58 110.63,-662.21 146,-686.5 151.61,-690.35 157.82,-693.62 164.25,-696.39"/>
<polygon fill="midnightblue" stroke="midnightblue" points="71.25,-590.8 63.43,-583.65 65.09,-594.12 71.25,-590.8"/>
</g>
<!-- Node13 -->
<g id="node13" class="node">
<title>Node13</title>
<g id="a_node13"><a xlink:href="classvsomeip__v3_1_1protocol_1_1remove__security__policy__command.html" target="_top" xlink:title=" ">
<polygon fill="white" stroke="black" points="170,-636 170,-677 295,-677 295,-636 170,-636"/>
<text text-anchor="start" x="178" y="-665" font-family="Helvetica" font-size="10.00">vsomeip_v3::protocol</text>
<text text-anchor="start" x="178" y="-654" font-family="Helvetica" font-size="10.00">::remove_security_policy</text>
<text text-anchor="middle" x="232.5" y="-643" font-family="Helvetica" font-size="10.00">_command</text>
</a>
</g>
</g>
<!-- Node1&#45;&gt;Node13 -->
<g id="edge12" class="edge">
<title>Node1&#45;&gt;Node13</title>
<path fill="none" stroke="midnightblue" d="M84.73,-589.5C101.92,-601.41 124.53,-616 146,-626.5 153.49,-630.16 161.54,-633.6 169.6,-636.74"/>
<polygon fill="midnightblue" stroke="midnightblue" points="86.47,-586.44 76.28,-583.54 82.44,-592.16 86.47,-586.44"/>
</g>
<!-- Node14 -->
<g id="node14" class="node">
<title>Node14</title>
<g id="a_node14"><a xlink:href="classvsomeip__v3_1_1protocol_1_1resend__provided__events__command.html" target="_top" xlink:title=" ">
<polygon fill="white" stroke="black" points="168.5,-576 168.5,-617 296.5,-617 296.5,-576 168.5,-576"/>
<text text-anchor="start" x="176.5" y="-605" font-family="Helvetica" font-size="10.00">vsomeip_v3::protocol</text>
<text text-anchor="start" x="176.5" y="-594" font-family="Helvetica" font-size="10.00">::resend_provided_events</text>
<text text-anchor="middle" x="232.5" y="-583" font-family="Helvetica" font-size="10.00">_command</text>
</a>
</g>
</g>
<!-- Node1&#45;&gt;Node14 -->
<g id="edge13" class="edge">
<title>Node1&#45;&gt;Node14</title>
<path fill="none" stroke="midnightblue" d="M120.23,-578.75C135.93,-581.25 152.71,-583.93 168.36,-586.43"/>
<polygon fill="midnightblue" stroke="midnightblue" points="120.51,-575.25 110.09,-577.13 119.41,-582.16 120.51,-575.25"/>
</g>
<!-- Node15 -->
<g id="node15" class="node">
<title>Node15</title>
<g id="a_node15"><a xlink:href="classvsomeip__v3_1_1protocol_1_1routing__info__command.html" target="_top" xlink:title=" ">
<polygon fill="white" stroke="black" points="172,-526.5 172,-556.5 293,-556.5 293,-526.5 172,-526.5"/>
<text text-anchor="start" x="180" y="-544.5" font-family="Helvetica" font-size="10.00">vsomeip_v3::protocol</text>
<text text-anchor="middle" x="232.5" y="-533.5" font-family="Helvetica" font-size="10.00">::routing_info_command</text>
</a>
</g>
</g>
<!-- Node1&#45;&gt;Node15 -->
<g id="edge14" class="edge">
<title>Node1&#45;&gt;Node15</title>
<path fill="none" stroke="midnightblue" d="M120.37,-558.6C137.18,-556.01 155.23,-553.23 171.78,-550.69"/>
<polygon fill="midnightblue" stroke="midnightblue" points="119.44,-555.2 110.09,-560.18 120.5,-562.12 119.44,-555.2"/>
</g>
<!-- Node16 -->
<g id="node16" class="node">
<title>Node16</title>
<g id="a_node16"><a xlink:href="classvsomeip__v3_1_1protocol_1_1security__policy__response__command__base.html" target="_top" xlink:title=" ">
<polygon fill="white" stroke="black" points="166,-466 166,-507 299,-507 299,-466 166,-466"/>
<text text-anchor="start" x="174" y="-495" font-family="Helvetica" font-size="10.00">vsomeip_v3::protocol</text>
<text text-anchor="start" x="174" y="-484" font-family="Helvetica" font-size="10.00">::security_policy_response</text>
<text text-anchor="middle" x="232.5" y="-473" font-family="Helvetica" font-size="10.00">_command_base</text>
</a>
</g>
</g>
<!-- Node1&#45;&gt;Node16 -->
<g id="edge15" class="edge">
<title>Node1&#45;&gt;Node16</title>
<path fill="none" stroke="midnightblue" d="M89.07,-547.99C105.79,-538.08 126.59,-526.44 146,-517.5 153.89,-513.87 162.33,-510.36 170.73,-507.1"/>
<polygon fill="midnightblue" stroke="midnightblue" points="87.02,-545.14 80.24,-553.29 90.62,-551.14 87.02,-545.14"/>
</g>
<!-- Node19 -->
<g id="node19" class="node">
<title>Node19</title>
<g id="a_node19"><a xlink:href="classvsomeip__v3_1_1protocol_1_1send__command.html" target="_top" xlink:title=" ">
<polygon fill="white" stroke="black" points="177.5,-416.5 177.5,-446.5 287.5,-446.5 287.5,-416.5 177.5,-416.5"/>
<text text-anchor="start" x="185.5" y="-434.5" font-family="Helvetica" font-size="10.00">vsomeip_v3::protocol</text>
<text text-anchor="middle" x="232.5" y="-423.5" font-family="Helvetica" font-size="10.00">::send_command</text>
</a>
</g>
</g>
<!-- Node1&#45;&gt;Node19 -->
<g id="edge18" class="edge">
<title>Node1&#45;&gt;Node19</title>
<path fill="none" stroke="midnightblue" d="M69.13,-544.67C84.36,-519.17 111.83,-479.34 146,-456.5 155.39,-450.23 166.37,-445.5 177.28,-441.94"/>
<polygon fill="midnightblue" stroke="midnightblue" points="66.08,-542.95 64.07,-553.35 72.13,-546.47 66.08,-542.95"/>
</g>
<!-- Node20 -->
<g id="node20" class="node">
<title>Node20</title>
<g id="a_node20"><a xlink:href="classvsomeip__v3_1_1protocol_1_1service__command__base.html" target="_top" xlink:title=" ">
<polygon fill="white" stroke="black" points="168,-367.5 168,-397.5 297,-397.5 297,-367.5 168,-367.5"/>
<text text-anchor="start" x="176" y="-385.5" font-family="Helvetica" font-size="10.00">vsomeip_v3::protocol</text>
<text text-anchor="middle" x="232.5" y="-374.5" font-family="Helvetica" font-size="10.00">::service_command_base</text>
</a>
</g>
</g>
<!-- Node1&#45;&gt;Node20 -->
<g id="edge19" class="edge">
<title>Node1&#45;&gt;Node20</title>
<path fill="none" stroke="midnightblue" d="M63.3,-543.44C74.94,-507.92 101.09,-443.28 146,-407.5 152.41,-402.39 159.83,-398.33 167.57,-395.09"/>
<polygon fill="midnightblue" stroke="midnightblue" points="59.94,-542.46 60.28,-553.05 66.62,-544.56 59.94,-542.46"/>
</g>
<!-- Node23 -->
<g id="node23" class="node">
<title>Node23</title>
<g id="a_node23"><a xlink:href="classvsomeip__v3_1_1protocol_1_1simple__command.html" target="_top" xlink:title=" ">
<polygon fill="white" stroke="black" points="177.5,-318.5 177.5,-348.5 287.5,-348.5 287.5,-318.5 177.5,-318.5"/>
<text text-anchor="start" x="185.5" y="-336.5" font-family="Helvetica" font-size="10.00">vsomeip_v3::protocol</text>
<text text-anchor="middle" x="232.5" y="-325.5" font-family="Helvetica" font-size="10.00">::simple_command</text>
</a>
</g>
</g>
<!-- Node1&#45;&gt;Node23 -->
<g id="edge22" class="edge">
<title>Node1&#45;&gt;Node23</title>
<path fill="none" stroke="midnightblue" d="M59.69,-543.36C67.49,-499.36 89.78,-408.33 146,-358.5 154.8,-350.7 165.91,-345.33 177.18,-341.64"/>
<polygon fill="midnightblue" stroke="midnightblue" points="56.24,-542.8 58.05,-553.24 63.14,-543.95 56.24,-542.8"/>
</g>
<!-- Node29 -->
<g id="node29" class="node">
<title>Node29</title>
<g id="a_node29"><a xlink:href="classvsomeip__v3_1_1protocol_1_1subscribe__ack__command__base.html" target="_top" xlink:title=" ">
<polygon fill="white" stroke="black" points="152.5,-269.5 152.5,-299.5 312.5,-299.5 312.5,-269.5 152.5,-269.5"/>
<text text-anchor="start" x="160.5" y="-287.5" font-family="Helvetica" font-size="10.00">vsomeip_v3::protocol</text>
<text text-anchor="middle" x="232.5" y="-276.5" font-family="Helvetica" font-size="10.00">::subscribe_ack_command_base</text>
</a>
</g>
</g>
<!-- Node1&#45;&gt;Node29 -->
<g id="edge28" class="edge">
<title>Node1&#45;&gt;Node29</title>
<path fill="none" stroke="midnightblue" d="M57.37,-543.17C61.54,-491.6 78.36,-373.84 146,-309.5 150.03,-305.66 154.62,-302.41 159.53,-299.65"/>
<polygon fill="midnightblue" stroke="midnightblue" points="53.86,-543.18 56.64,-553.41 60.84,-543.68 53.86,-543.18"/>
</g>
<!-- Node32 -->
<g id="node32" class="node">
<title>Node32</title>
<g id="a_node32"><a xlink:href="classvsomeip__v3_1_1protocol_1_1subscribe__command__base.html" target="_top" xlink:title=" ">
<polygon fill="white" stroke="black" points="163,-220.5 163,-250.5 302,-250.5 302,-220.5 163,-220.5"/>
<text text-anchor="start" x="171" y="-238.5" font-family="Helvetica" font-size="10.00">vsomeip_v3::protocol</text>
<text text-anchor="middle" x="232.5" y="-227.5" font-family="Helvetica" font-size="10.00">::subscribe_command_base</text>
</a>
</g>
</g>
<!-- Node1&#45;&gt;Node32 -->
<g id="edge31" class="edge">
<title>Node1&#45;&gt;Node32</title>
<path fill="none" stroke="midnightblue" d="M55.71,-542.96C56.49,-484.46 66.81,-339.7 146,-260.5 150.81,-255.69 156.49,-251.79 162.61,-248.64"/>
<polygon fill="midnightblue" stroke="midnightblue" points="52.21,-543.14 55.67,-553.16 59.21,-543.17 52.21,-543.14"/>
</g>
<!-- Node36 -->
<g id="node36" class="node">
<title>Node36</title>
<g id="a_node36"><a xlink:href="classvsomeip__v3_1_1protocol_1_1unregister__event__command.html" target="_top" xlink:title=" ">
<polygon fill="white" stroke="black" points="161.5,-171.5 161.5,-201.5 303.5,-201.5 303.5,-171.5 161.5,-171.5"/>
<text text-anchor="start" x="169.5" y="-189.5" font-family="Helvetica" font-size="10.00">vsomeip_v3::protocol</text>
<text text-anchor="middle" x="232.5" y="-178.5" font-family="Helvetica" font-size="10.00">::unregister_event_command</text>
</a>
</g>
</g>
<!-- Node1&#45;&gt;Node36 -->
<g id="edge35" class="edge">
<title>Node1&#45;&gt;Node36</title>
<path fill="none" stroke="midnightblue" d="M59.14,-542.96C68.64,-469.52 99.4,-259.89 146,-211.5 150.4,-206.93 155.58,-203.19 161.18,-200.12"/>
<polygon fill="midnightblue" stroke="midnightblue" points="55.63,-542.8 57.84,-553.16 62.57,-543.68 55.63,-542.8"/>
</g>
<!-- Node37 -->
<g id="node37" class="node">
<title>Node37</title>
<g id="a_node37"><a xlink:href="classvsomeip__v3_1_1protocol_1_1unsubscribe__ack__command.html" target="_top" xlink:title=" ">
<polygon fill="white" stroke="black" points="160.5,-122.5 160.5,-152.5 304.5,-152.5 304.5,-122.5 160.5,-122.5"/>
<text text-anchor="start" x="168.5" y="-140.5" font-family="Helvetica" font-size="10.00">vsomeip_v3::protocol</text>
<text text-anchor="middle" x="232.5" y="-129.5" font-family="Helvetica" font-size="10.00">::unsubscribe_ack_command</text>
</a>
</g>
</g>
<!-- Node1&#45;&gt;Node37 -->
<g id="edge36" class="edge">
<title>Node1&#45;&gt;Node37</title>
<path fill="none" stroke="midnightblue" d="M58.27,-543.25C65.93,-463.48 93.35,-218.76 146,-162.5 150.12,-158.1 154.97,-154.45 160.23,-151.44"/>
<polygon fill="midnightblue" stroke="midnightblue" points="54.77,-543.1 57.32,-553.38 61.74,-543.75 54.77,-543.1"/>
</g>
<!-- Node38 -->
<g id="node38" class="node">
<title>Node38</title>
<g id="a_node38"><a xlink:href="classvsomeip__v3_1_1protocol_1_1update__security__credentials__command.html" target="_top" xlink:title=" ">
<polygon fill="white" stroke="black" points="160.5,-62 160.5,-103 304.5,-103 304.5,-62 160.5,-62"/>
<text text-anchor="start" x="168.5" y="-91" font-family="Helvetica" font-size="10.00">vsomeip_v3::protocol</text>
<text text-anchor="start" x="168.5" y="-80" font-family="Helvetica" font-size="10.00">::update_security_credentials</text>
<text text-anchor="middle" x="232.5" y="-69" font-family="Helvetica" font-size="10.00">_command</text>
</a>
</g>
</g>
<!-- Node1&#45;&gt;Node38 -->
<g id="edge37" class="edge">
<title>Node1&#45;&gt;Node38</title>
<path fill="none" stroke="midnightblue" d="M57.8,-542.95C64.34,-456.89 89.49,-179.36 146,-113.5 150.11,-108.71 155.03,-104.65 160.39,-101.23"/>
<polygon fill="midnightblue" stroke="midnightblue" points="54.29,-542.89 57.04,-553.12 61.27,-543.41 54.29,-542.89"/>
</g>
<!-- Node39 -->
<g id="node39" class="node">
<title>Node39</title>
<g id="a_node39"><a xlink:href="classvsomeip__v3_1_1protocol_1_1update__security__policy__command.html" target="_top" xlink:title=" ">
<polygon fill="white" stroke="black" points="171.5,-2 171.5,-43 293.5,-43 293.5,-2 171.5,-2"/>
<text text-anchor="start" x="179.5" y="-31" font-family="Helvetica" font-size="10.00">vsomeip_v3::protocol</text>
<text text-anchor="start" x="179.5" y="-20" font-family="Helvetica" font-size="10.00">::update_security_policy</text>
<text text-anchor="middle" x="232.5" y="-9" font-family="Helvetica" font-size="10.00">_command</text>
</a>
</g>
</g>
<!-- Node1&#45;&gt;Node39 -->
<g id="edge38" class="edge">
<title>Node1&#45;&gt;Node39</title>
<path fill="none" stroke="midnightblue" d="M57.1,-543.24C61.64,-450.23 81.81,-128.25 146,-52.5 152.71,-44.58 161.65,-38.75 171.21,-34.46"/>
<polygon fill="midnightblue" stroke="midnightblue" points="53.6,-543.27 56.62,-553.42 60.59,-543.6 53.6,-543.27"/>
</g>
<!-- Node7 -->
<g id="node7" class="node">
<title>Node7</title>
<g id="a_node7"><a xlink:href="classvsomeip__v3_1_1protocol_1_1offered__services__response__command.html" target="_top" xlink:title=" ">
<polygon fill="white" stroke="black" points="355,-937 355,-978 495,-978 495,-937 355,-937"/>
<text text-anchor="start" x="363" y="-966" font-family="Helvetica" font-size="10.00">vsomeip_v3::protocol</text>
<text text-anchor="start" x="363" y="-955" font-family="Helvetica" font-size="10.00">::offered_services_response</text>
<text text-anchor="middle" x="425" y="-944" font-family="Helvetica" font-size="10.00">_command</text>
</a>
</g>
</g>
<!-- Node6&#45;&gt;Node7 -->
<g id="edge6" class="edge">
<title>Node6&#45;&gt;Node7</title>
<path fill="none" stroke="midnightblue" d="M329.39,-944.09C338.02,-945.31 346.64,-946.53 354.97,-947.72"/>
<polygon fill="midnightblue" stroke="midnightblue" points="329.67,-940.6 319.28,-942.66 328.69,-947.53 329.67,-940.6"/>
</g>
<!-- Node8 -->
<g id="node8" class="node">
<title>Node8</title>
<g id="a_node8"><a xlink:href="classvsomeip__v3_1_1protocol_1_1request__service__command.html" target="_top" xlink:title=" ">
<polygon fill="white" stroke="black" points="355,-887.5 355,-917.5 495,-917.5 495,-887.5 355,-887.5"/>
<text text-anchor="start" x="363" y="-905.5" font-family="Helvetica" font-size="10.00">vsomeip_v3::protocol</text>
<text text-anchor="middle" x="425" y="-894.5" font-family="Helvetica" font-size="10.00">::request_service_command</text>
</a>
</g>
</g>
<!-- Node6&#45;&gt;Node8 -->
<g id="edge7" class="edge">
<title>Node6&#45;&gt;Node8</title>
<path fill="none" stroke="midnightblue" d="M329.39,-916.41C338.02,-915.14 346.64,-913.87 354.97,-912.65"/>
<polygon fill="midnightblue" stroke="midnightblue" points="328.66,-912.98 319.28,-917.89 329.68,-919.9 328.66,-912.98"/>
</g>
<!-- Node17 -->
<g id="node17" class="node">
<title>Node17</title>
<g id="a_node17"><a xlink:href="classvsomeip__v3_1_1protocol_1_1remove__security__policy__response__command.html" target="_top" xlink:title=" ">
<polygon fill="white" stroke="black" points="362.5,-672 362.5,-713 487.5,-713 487.5,-672 362.5,-672"/>
<text text-anchor="start" x="370.5" y="-701" font-family="Helvetica" font-size="10.00">vsomeip_v3::protocol</text>
<text text-anchor="start" x="370.5" y="-690" font-family="Helvetica" font-size="10.00">::remove_security_policy</text>
<text text-anchor="middle" x="425" y="-679" font-family="Helvetica" font-size="10.00">_response_command</text>
</a>
</g>
</g>
<!-- Node16&#45;&gt;Node17 -->
<g id="edge16" class="edge">
<title>Node16&#45;&gt;Node17</title>
<path fill="none" stroke="midnightblue" d="M308,-507.85C312.02,-510.68 315.74,-513.88 319,-517.5 363.44,-566.84 312.12,-611.8 355,-662.5 357.95,-665.99 361.39,-669.09 365.12,-671.83"/>
<polygon fill="midnightblue" stroke="midnightblue" points="309.74,-504.81 299.38,-502.56 306.07,-510.78 309.74,-504.81"/>
</g>
<!-- Node18 -->
<g id="node18" class="node">
<title>Node18</title>
<g id="a_node18"><a xlink:href="classvsomeip__v3_1_1protocol_1_1update__security__policy__response__command.html" target="_top" xlink:title=" ">
<polygon fill="white" stroke="black" points="364,-612 364,-653 486,-653 486,-612 364,-612"/>
<text text-anchor="start" x="372" y="-641" font-family="Helvetica" font-size="10.00">vsomeip_v3::protocol</text>
<text text-anchor="start" x="372" y="-630" font-family="Helvetica" font-size="10.00">::update_security_policy</text>
<text text-anchor="middle" x="425" y="-619" font-family="Helvetica" font-size="10.00">_response_command</text>
</a>
</g>
</g>
<!-- Node16&#45;&gt;Node18 -->
<g id="edge17" class="edge">
<title>Node16&#45;&gt;Node18</title>
<path fill="none" stroke="midnightblue" d="M308.16,-508.99C312.03,-511.53 315.69,-514.36 319,-517.5 348.77,-545.73 326.13,-573.35 355,-602.5 358.49,-606.03 362.47,-609.17 366.71,-611.96"/>
<polygon fill="midnightblue" stroke="midnightblue" points="309.76,-505.87 299.36,-503.86 306.24,-511.92 309.76,-505.87"/>
</g>
<!-- Node21 -->
<g id="node21" class="node">
<title>Node21</title>
<g id="a_node21"><a xlink:href="classvsomeip__v3_1_1protocol_1_1offer__service__command.html" target="_top" xlink:title=" ">
<polygon fill="white" stroke="black" points="361.5,-562.5 361.5,-592.5 488.5,-592.5 488.5,-562.5 361.5,-562.5"/>
<text text-anchor="start" x="369.5" y="-580.5" font-family="Helvetica" font-size="10.00">vsomeip_v3::protocol</text>
<text text-anchor="middle" x="425" y="-569.5" font-family="Helvetica" font-size="10.00">::offer_service_command</text>
</a>
</g>
</g>
<!-- Node20&#45;&gt;Node21 -->
<g id="edge20" class="edge">
<title>Node20&#45;&gt;Node21</title>
<path fill="none" stroke="midnightblue" d="M306.37,-397.56C311,-400.34 315.28,-403.62 319,-407.5 364.98,-455.41 310.56,-503.16 355,-552.5 358.5,-556.38 362.64,-559.66 367.14,-562.43"/>
<polygon fill="midnightblue" stroke="midnightblue" points="307.6,-394.26 297.11,-392.8 304.4,-400.48 307.6,-394.26"/>
</g>
<!-- Node22 -->
<g id="node22" class="node">
<title>Node22</title>
<g id="a_node22"><a xlink:href="classvsomeip__v3_1_1protocol_1_1stop__offer__service__command.html" target="_top" xlink:title=" ">
<polygon fill="white" stroke="black" points="370,-502 370,-543 480,-543 480,-502 370,-502"/>
<text text-anchor="start" x="378" y="-531" font-family="Helvetica" font-size="10.00">vsomeip_v3::protocol</text>
<text text-anchor="start" x="378" y="-520" font-family="Helvetica" font-size="10.00">::stop_offer_service</text>
<text text-anchor="middle" x="425" y="-509" font-family="Helvetica" font-size="10.00">_command</text>
</a>
</g>
</g>
<!-- Node20&#45;&gt;Node22 -->
<g id="edge21" class="edge">
<title>Node20&#45;&gt;Node22</title>
<path fill="none" stroke="midnightblue" d="M306.21,-398.52C310.8,-401.08 315.13,-404.05 319,-407.5 349.64,-434.78 326.13,-463.35 355,-492.5 359.32,-496.86 364.38,-500.63 369.76,-503.88"/>
<polygon fill="midnightblue" stroke="midnightblue" points="307.63,-395.31 297.11,-394.07 304.56,-401.6 307.63,-395.31"/>
</g>
<!-- Node24 -->
<g id="node24" class="node">
<title>Node24</title>
<g id="a_node24"><a xlink:href="classvsomeip__v3_1_1protocol_1_1deregister__application__command.html" target="_top" xlink:title=" ">
<polygon fill="white" stroke="black" points="366.5,-442 366.5,-483 483.5,-483 483.5,-442 366.5,-442"/>
<text text-anchor="start" x="374.5" y="-471" font-family="Helvetica" font-size="10.00">vsomeip_v3::protocol</text>
<text text-anchor="start" x="374.5" y="-460" font-family="Helvetica" font-size="10.00">::deregister_application</text>
<text text-anchor="middle" x="425" y="-449" font-family="Helvetica" font-size="10.00">_command</text>
</a>
</g>
</g>
<!-- Node23&#45;&gt;Node24 -->
<g id="edge23" class="edge">
<title>Node23&#45;&gt;Node24</title>
<path fill="none" stroke="midnightblue" d="M297,-345.45C304.95,-348.79 312.55,-353.05 319,-358.5 346.94,-382.1 328.59,-407.2 355,-432.5 358.68,-436.02 362.84,-439.17 367.24,-441.97"/>
<polygon fill="midnightblue" stroke="midnightblue" points="298.14,-342.14 287.55,-341.95 295.71,-348.71 298.14,-342.14"/>
</g>
<!-- Node25 -->
<g id="node25" class="node">
<title>Node25</title>
<g id="a_node25"><a xlink:href="classvsomeip__v3_1_1protocol_1_1ping__command.html" target="_top" xlink:title=" ">
<polygon fill="white" stroke="black" points="370,-392.5 370,-422.5 480,-422.5 480,-392.5 370,-392.5"/>
<text text-anchor="start" x="378" y="-410.5" font-family="Helvetica" font-size="10.00">vsomeip_v3::protocol</text>
<text text-anchor="middle" x="425" y="-399.5" font-family="Helvetica" font-size="10.00">::ping_command</text>
</a>
</g>
</g>
<!-- Node23&#45;&gt;Node25 -->
<g id="edge24" class="edge">
<title>Node23&#45;&gt;Node25</title>
<path fill="none" stroke="midnightblue" d="M297.79,-349.83C305.07,-352.41 312.28,-355.29 319,-358.5 336.58,-366.9 337.64,-374.66 355,-383.5 361.44,-386.78 368.44,-389.79 375.42,-392.48"/>
<polygon fill="midnightblue" stroke="midnightblue" points="298.44,-346.36 287.85,-346.52 296.23,-353 298.44,-346.36"/>
</g>
<!-- Node26 -->
<g id="node26" class="node">
<title>Node26</title>
<g id="a_node26"><a xlink:href="classvsomeip__v3_1_1protocol_1_1pong__command.html" target="_top" xlink:title=" ">
<polygon fill="white" stroke="black" points="370,-343.5 370,-373.5 480,-373.5 480,-343.5 370,-343.5"/>
<text text-anchor="start" x="378" y="-361.5" font-family="Helvetica" font-size="10.00">vsomeip_v3::protocol</text>
<text text-anchor="middle" x="425" y="-350.5" font-family="Helvetica" font-size="10.00">::pong_command</text>
</a>
</g>
</g>
<!-- Node23&#45;&gt;Node26 -->
<g id="edge25" class="edge">
<title>Node23&#45;&gt;Node26</title>
<path fill="none" stroke="midnightblue" d="M297.76,-341.93C321.15,-345 347.35,-348.44 369.78,-351.39"/>
<polygon fill="midnightblue" stroke="midnightblue" points="297.95,-338.43 287.58,-340.6 297.04,-345.37 297.95,-338.43"/>
</g>
<!-- Node27 -->
<g id="node27" class="node">
<title>Node27</title>
<g id="a_node27"><a xlink:href="classvsomeip__v3_1_1protocol_1_1registered__ack__command.html" target="_top" xlink:title=" ">
<polygon fill="white" stroke="black" points="358,-294.5 358,-324.5 492,-324.5 492,-294.5 358,-294.5"/>
<text text-anchor="start" x="366" y="-312.5" font-family="Helvetica" font-size="10.00">vsomeip_v3::protocol</text>
<text text-anchor="middle" x="425" y="-301.5" font-family="Helvetica" font-size="10.00">::registered_ack_command</text>
</a>
</g>
</g>
<!-- Node23&#45;&gt;Node27 -->
<g id="edge26" class="edge">
<title>Node23&#45;&gt;Node27</title>
<path fill="none" stroke="midnightblue" d="M297.55,-325.43C316.98,-322.98 338.36,-320.29 357.93,-317.82"/>
<polygon fill="midnightblue" stroke="midnightblue" points="297.06,-321.96 287.58,-326.69 297.94,-328.91 297.06,-321.96"/>
</g>
<!-- Node28 -->
<g id="node28" class="node">
<title>Node28</title>
<g id="a_node28"><a xlink:href="classvsomeip__v3_1_1protocol_1_1suspend__command.html" target="_top" xlink:title=" ">
<polygon fill="white" stroke="black" points="370,-245.5 370,-275.5 480,-275.5 480,-245.5 370,-245.5"/>
<text text-anchor="start" x="378" y="-263.5" font-family="Helvetica" font-size="10.00">vsomeip_v3::protocol</text>
<text text-anchor="middle" x="425" y="-252.5" font-family="Helvetica" font-size="10.00">::suspend_command</text>
</a>
</g>
</g>
<!-- Node23&#45;&gt;Node28 -->
<g id="edge27" class="edge">
<title>Node23&#45;&gt;Node28</title>
<path fill="none" stroke="midnightblue" d="M297.74,-317.85C305.03,-315.38 312.26,-312.6 319,-309.5 336.47,-301.47 337.84,-294.17 355,-285.5 362.16,-281.88 369.98,-278.53 377.7,-275.53"/>
<polygon fill="midnightblue" stroke="midnightblue" points="296.24,-314.66 287.79,-321.04 298.38,-321.32 296.24,-314.66"/>
</g>
<!-- Node30 -->
<g id="node30" class="node">
<title>Node30</title>
<g id="a_node30"><a xlink:href="classvsomeip__v3_1_1protocol_1_1subscribe__ack__command.html" target="_top" xlink:title=" ">
<polygon fill="white" stroke="black" points="358,-196.5 358,-226.5 492,-226.5 492,-196.5 358,-196.5"/>
<text text-anchor="start" x="366" y="-214.5" font-family="Helvetica" font-size="10.00">vsomeip_v3::protocol</text>
<text text-anchor="middle" x="425" y="-203.5" font-family="Helvetica" font-size="10.00">::subscribe_ack_command</text>
</a>
</g>
</g>
<!-- Node29&#45;&gt;Node30 -->
<g id="edge29" class="edge">
<title>Node29&#45;&gt;Node30</title>
<path fill="none" stroke="midnightblue" d="M305.53,-266.08C310.15,-264.35 314.67,-262.49 319,-260.5 336.47,-252.47 337.84,-245.17 355,-236.5 362.16,-232.88 369.98,-229.53 377.7,-226.53"/>
<polygon fill="midnightblue" stroke="midnightblue" points="304.24,-262.82 295.97,-269.45 306.57,-269.42 304.24,-262.82"/>
</g>
<!-- Node31 -->
<g id="node31" class="node">
<title>Node31</title>
<g id="a_node31"><a xlink:href="classvsomeip__v3_1_1protocol_1_1subscribe__nack__command.html" target="_top" xlink:title=" ">
<polygon fill="white" stroke="black" points="355.5,-147.5 355.5,-177.5 494.5,-177.5 494.5,-147.5 355.5,-147.5"/>
<text text-anchor="start" x="363.5" y="-165.5" font-family="Helvetica" font-size="10.00">vsomeip_v3::protocol</text>
<text text-anchor="middle" x="425" y="-154.5" font-family="Helvetica" font-size="10.00">::subscribe_nack_command</text>
</a>
</g>
</g>
<!-- Node29&#45;&gt;Node31 -->
<g id="edge30" class="edge">
<title>Node29&#45;&gt;Node31</title>
<path fill="none" stroke="midnightblue" d="M314.15,-264.17C315.82,-263.02 317.44,-261.79 319,-260.5 346.83,-237.39 328.05,-211.63 355,-187.5 359.27,-183.68 364.17,-180.42 369.35,-177.66"/>
<polygon fill="midnightblue" stroke="midnightblue" points="312.14,-261.29 305.36,-269.43 315.74,-267.3 312.14,-261.29"/>
</g>
<!-- Node33 -->
<g id="node33" class="node">
<title>Node33</title>
<g id="a_node33"><a xlink:href="classvsomeip__v3_1_1protocol_1_1expire__command.html" target="_top" xlink:title=" ">
<polygon fill="white" stroke="black" points="370,-98.5 370,-128.5 480,-128.5 480,-98.5 370,-98.5"/>
<text text-anchor="start" x="378" y="-116.5" font-family="Helvetica" font-size="10.00">vsomeip_v3::protocol</text>
<text text-anchor="middle" x="425" y="-105.5" font-family="Helvetica" font-size="10.00">::expire_command</text>
</a>
</g>
</g>
<!-- Node32&#45;&gt;Node33 -->
<g id="edge32" class="edge">
<title>Node32&#45;&gt;Node33</title>
<path fill="none" stroke="midnightblue" d="M311.33,-217.03C314.02,-215.34 316.59,-213.5 319,-211.5 346.83,-188.39 328.05,-162.63 355,-138.5 359.37,-134.59 364.39,-131.28 369.7,-128.48"/>
<polygon fill="midnightblue" stroke="midnightblue" points="309.51,-214.03 302.41,-221.9 312.86,-220.18 309.51,-214.03"/>
</g>
<!-- Node34 -->
<g id="node34" class="node">
<title>Node34</title>
<g id="a_node34"><a xlink:href="classvsomeip__v3_1_1protocol_1_1subscribe__command.html" target="_top" xlink:title=" ">
<polygon fill="white" stroke="black" points="368.5,-49.5 368.5,-79.5 481.5,-79.5 481.5,-49.5 368.5,-49.5"/>
<text text-anchor="start" x="376.5" y="-67.5" font-family="Helvetica" font-size="10.00">vsomeip_v3::protocol</text>
<text text-anchor="middle" x="425" y="-56.5" font-family="Helvetica" font-size="10.00">::subscribe_command</text>
</a>
</g>
</g>
<!-- Node32&#45;&gt;Node34 -->
<g id="edge33" class="edge">
<title>Node32&#45;&gt;Node34</title>
<path fill="none" stroke="midnightblue" d="M311.16,-217.97C313.95,-216.03 316.59,-213.88 319,-211.5 359.24,-171.79 316.26,-130.67 355,-89.5 358.84,-85.42 363.4,-82 368.32,-79.14"/>
<polygon fill="midnightblue" stroke="midnightblue" points="309.18,-215.08 302.36,-223.19 312.74,-221.1 309.18,-215.08"/>
</g>
<!-- Node35 -->
<g id="node35" class="node">
<title>Node35</title>
<g id="a_node35"><a xlink:href="classvsomeip__v3_1_1protocol_1_1unsubscribe__command.html" target="_top" xlink:title=" ">
<polygon fill="white" stroke="black" points="363.5,-0.5 363.5,-30.5 486.5,-30.5 486.5,-0.5 363.5,-0.5"/>
<text text-anchor="start" x="371.5" y="-18.5" font-family="Helvetica" font-size="10.00">vsomeip_v3::protocol</text>
<text text-anchor="middle" x="425" y="-7.5" font-family="Helvetica" font-size="10.00">::unsubscribe_command</text>
</a>
</g>
</g>
<!-- Node32&#45;&gt;Node35 -->
<g id="edge34" class="edge">
<title>Node32&#45;&gt;Node35</title>
<path fill="none" stroke="midnightblue" d="M310.96,-218.54C313.85,-216.45 316.56,-214.11 319,-211.5 372.34,-154.45 303.43,-98.16 355,-39.5 358.01,-36.07 361.55,-33.13 365.39,-30.61"/>
<polygon fill="midnightblue" stroke="midnightblue" points="309.06,-215.6 302.35,-223.79 312.71,-221.57 309.06,-215.6"/>
</g>
</g>
</svg>
