<?xml version="1.0" encoding="UTF-8" standalone="no"?>
<!DOCTYPE svg PUBLIC "-//W3C//DTD SVG 1.1//EN"
 "http://www.w3.org/Graphics/SVG/1.1/DTD/svg11.dtd">
<!-- Generated by graphviz version 2.44.0 (0)
 -->
<!-- Title: boost::asio::basic_socket_acceptor_ext&lt; Protocol, SocketAcceptorService &gt; Pages: 1 -->
<svg width="220pt" height="128pt"
 viewBox="0.00 0.00 219.50 128.00" xmlns="http://www.w3.org/2000/svg" xmlns:xlink="http://www.w3.org/1999/xlink">
<g id="graph0" class="graph" transform="scale(1 1) rotate(0) translate(4 124)">
<title>boost::asio::basic_socket_acceptor_ext&lt; Protocol, SocketAcceptorService &gt;</title>
<polygon fill="white" stroke="transparent" points="-4,4 -4,-124 215.5,-124 215.5,4 -4,4"/>
<!-- Node1 -->
<g id="node1" class="node">
<title>Node1</title>
<g id="a_node1"><a xlink:title="Provides the ability to accept new connections.">
<polygon fill="#bfbfbf" stroke="black" points="28.5,-0.5 28.5,-41.5 207.5,-41.5 207.5,-0.5 28.5,-0.5"/>
<text text-anchor="start" x="36.5" y="-29.5" font-family="Helvetica" font-size="10.00">boost::asio::basic</text>
<text text-anchor="start" x="36.5" y="-18.5" font-family="Helvetica" font-size="10.00">_socket_acceptor_ext</text>
<text text-anchor="middle" x="118" y="-7.5" font-family="Helvetica" font-size="10.00">&lt; Protocol, SocketAcceptorService &gt;</text>
</a>
</g>
</g>
<!-- Node2 -->
<g id="node2" class="node">
<title>Node2</title>
<g id="a_node2"><a xlink:title=" ">
<polygon fill="white" stroke="black" points="0,-78.5 0,-119.5 122,-119.5 122,-78.5 0,-78.5"/>
<text text-anchor="start" x="8" y="-107.5" font-family="Helvetica" font-size="10.00">basic_io_object&lt; socket</text>
<text text-anchor="start" x="8" y="-96.5" font-family="Helvetica" font-size="10.00">_acceptor_service_ext</text>
<text text-anchor="middle" x="61" y="-85.5" font-family="Helvetica" font-size="10.00">&lt;Protocol&gt; &gt;</text>
</a>
</g>
</g>
<!-- Node2&#45;&gt;Node1 -->
<g id="edge1" class="edge">
<title>Node2&#45;&gt;Node1</title>
<path fill="none" stroke="midnightblue" d="M81.75,-70.34C88.92,-60.78 96.8,-50.27 103.37,-41.51"/>
<polygon fill="midnightblue" stroke="midnightblue" points="78.88,-68.33 75.68,-78.43 84.48,-72.53 78.88,-68.33"/>
</g>
<!-- Node3 -->
<g id="node3" class="node">
<title>Node3</title>
<g id="a_node3"><a xlink:title=" ">
<polygon fill="white" stroke="black" points="140.5,-89.5 140.5,-108.5 211.5,-108.5 211.5,-89.5 140.5,-89.5"/>
<text text-anchor="middle" x="176" y="-96.5" font-family="Helvetica" font-size="10.00">socket_base</text>
</a>
</g>
</g>
<!-- Node3&#45;&gt;Node1 -->
<g id="edge2" class="edge">
<title>Node3&#45;&gt;Node1</title>
<path fill="none" stroke="midnightblue" d="M163.21,-81.24C154.29,-69.56 142.37,-53.93 133,-41.66"/>
<polygon fill="midnightblue" stroke="midnightblue" points="160.5,-83.46 169.35,-89.28 166.06,-79.21 160.5,-83.46"/>
</g>
</g>
</svg>
