<?xml version="1.0" encoding="UTF-8" standalone="no"?>
<!DOCTYPE svg PUBLIC "-//W3C//DTD SVG 1.1//EN"
 "http://www.w3.org/Graphics/SVG/1.1/DTD/svg11.dtd">
<!-- Generated by graphviz version 2.44.0 (0)
 -->
<!-- Title: vsomeip_v3::sd::entry_impl Pages: 1 -->
<svg width="382pt" height="151pt"
 viewBox="0.00 0.00 381.50 151.00" xmlns="http://www.w3.org/2000/svg" xmlns:xlink="http://www.w3.org/1999/xlink">
<g id="graph0" class="graph" transform="scale(1 1) rotate(0) translate(4 147)">
<title>vsomeip_v3::sd::entry_impl</title>
<polygon fill="white" stroke="transparent" points="-4,4 -4,-147 377.5,-147 377.5,4 -4,4"/>
<!-- Node1 -->
<g id="node1" class="node">
<title>Node1</title>
<g id="a_node1"><a xlink:title=" ">
<polygon fill="#bfbfbf" stroke="black" points="122,-56.5 122,-75.5 259,-75.5 259,-56.5 122,-56.5"/>
<text text-anchor="middle" x="190.5" y="-63.5" font-family="Helvetica" font-size="10.00">vsomeip_v3::sd::entry_impl</text>
</a>
</g>
</g>
<!-- Node3 -->
<g id="node3" class="node">
<title>Node3</title>
<g id="a_node3"><a xlink:href="classvsomeip__v3_1_1sd_1_1eventgroupentry__impl.html" target="_top" xlink:title=" ">
<polygon fill="white" stroke="black" points="0,-0.5 0,-19.5 185,-19.5 185,-0.5 0,-0.5"/>
<text text-anchor="middle" x="92.5" y="-7.5" font-family="Helvetica" font-size="10.00">vsomeip_v3::sd::eventgroupentry_impl</text>
</a>
</g>
</g>
<!-- Node1&#45;&gt;Node3 -->
<g id="edge2" class="edge">
<title>Node1&#45;&gt;Node3</title>
<path fill="none" stroke="midnightblue" d="M165.91,-51.45C147.82,-41.48 123.77,-28.23 108.21,-19.65"/>
<polygon fill="midnightblue" stroke="midnightblue" points="164.31,-54.56 174.75,-56.32 167.69,-48.43 164.31,-54.56"/>
</g>
<!-- Node4 -->
<g id="node4" class="node">
<title>Node4</title>
<g id="a_node4"><a xlink:href="classvsomeip__v3_1_1sd_1_1serviceentry__impl.html" target="_top" xlink:title=" ">
<polygon fill="white" stroke="black" points="203.5,-0.5 203.5,-19.5 373.5,-19.5 373.5,-0.5 203.5,-0.5"/>
<text text-anchor="middle" x="288.5" y="-7.5" font-family="Helvetica" font-size="10.00">vsomeip_v3::sd::serviceentry_impl</text>
</a>
</g>
</g>
<!-- Node1&#45;&gt;Node4 -->
<g id="edge3" class="edge">
<title>Node1&#45;&gt;Node4</title>
<path fill="none" stroke="midnightblue" d="M215.09,-51.45C233.18,-41.48 257.23,-28.23 272.79,-19.65"/>
<polygon fill="midnightblue" stroke="midnightblue" points="213.31,-48.43 206.25,-56.32 216.69,-54.56 213.31,-48.43"/>
</g>
<!-- Node2 -->
<g id="node2" class="node">
<title>Node2</title>
<g id="a_node2"><a xlink:href="classvsomeip__v3_1_1sd_1_1message__element__impl.html" target="_top" xlink:title=" ">
<polygon fill="white" stroke="black" points="125,-112.5 125,-142.5 256,-142.5 256,-112.5 125,-112.5"/>
<text text-anchor="start" x="133" y="-130.5" font-family="Helvetica" font-size="10.00">vsomeip_v3::sd::message</text>
<text text-anchor="middle" x="190.5" y="-119.5" font-family="Helvetica" font-size="10.00">_element_impl</text>
</a>
</g>
</g>
<!-- Node2&#45;&gt;Node1 -->
<g id="edge1" class="edge">
<title>Node2&#45;&gt;Node1</title>
<path fill="none" stroke="midnightblue" d="M190.5,-102.29C190.5,-92.86 190.5,-82.65 190.5,-75.66"/>
<polygon fill="midnightblue" stroke="midnightblue" points="187,-102.4 190.5,-112.4 194,-102.4 187,-102.4"/>
</g>
</g>
</svg>
