<?xml version="1.0" encoding="UTF-8" standalone="no"?>
<!DOCTYPE svg PUBLIC "-//W3C//DTD SVG 1.1//EN"
 "http://www.w3.org/Graphics/SVG/1.1/DTD/svg11.dtd">
<!-- Generated by graphviz version 2.44.0 (0)
 -->
<!-- Title: boost::asio::detail::reactive_socket_recv_op_base_ext&lt; MutableBufferSequence &gt; Pages: 1 -->
<svg width="207pt" height="173pt"
 viewBox="0.00 0.00 207.00 173.00" xmlns="http://www.w3.org/2000/svg" xmlns:xlink="http://www.w3.org/1999/xlink">
<g id="graph0" class="graph" transform="scale(1 1) rotate(0) translate(4 169)">
<title>boost::asio::detail::reactive_socket_recv_op_base_ext&lt; MutableBufferSequence &gt;</title>
<polygon fill="white" stroke="transparent" points="-4,4 -4,-169 203,-169 203,4 -4,4"/>
<!-- Node1 -->
<g id="node1" class="node">
<title>Node1</title>
<g id="a_node1"><a xlink:title=" ">
<polygon fill="#bfbfbf" stroke="black" points="0,-0.5 0,-41.5 199,-41.5 199,-0.5 0,-0.5"/>
<text text-anchor="start" x="8" y="-29.5" font-family="Helvetica" font-size="10.00">boost::asio::detail</text>
<text text-anchor="start" x="8" y="-18.5" font-family="Helvetica" font-size="10.00">::reactive_socket_recv</text>
<text text-anchor="middle" x="99.5" y="-7.5" font-family="Helvetica" font-size="10.00">_op_base_ext&lt; MutableBufferSequence &gt;</text>
</a>
</g>
</g>
<!-- Node2 -->
<g id="node2" class="node">
<title>Node2</title>
<g id="a_node2"><a xlink:href="classboost_1_1asio_1_1detail_1_1reactor__op__ext.html" target="_top" xlink:title=" ">
<polygon fill="white" stroke="black" points="52.5,-78.5 52.5,-108.5 146.5,-108.5 146.5,-78.5 52.5,-78.5"/>
<text text-anchor="start" x="60.5" y="-96.5" font-family="Helvetica" font-size="10.00">boost::asio::detail</text>
<text text-anchor="middle" x="99.5" y="-85.5" font-family="Helvetica" font-size="10.00">::reactor_op_ext</text>
</a>
</g>
</g>
<!-- Node2&#45;&gt;Node1 -->
<g id="edge1" class="edge">
<title>Node2&#45;&gt;Node1</title>
<path fill="none" stroke="midnightblue" d="M99.5,-67.98C99.5,-59.35 99.5,-49.76 99.5,-41.59"/>
<polygon fill="midnightblue" stroke="midnightblue" points="96,-68.23 99.5,-78.23 103,-68.23 96,-68.23"/>
</g>
<!-- Node3 -->
<g id="node3" class="node">
<title>Node3</title>
<g id="a_node3"><a xlink:title=" ">
<polygon fill="white" stroke="black" points="68.5,-145.5 68.5,-164.5 130.5,-164.5 130.5,-145.5 68.5,-145.5"/>
<text text-anchor="middle" x="99.5" y="-152.5" font-family="Helvetica" font-size="10.00">reactor_op</text>
</a>
</g>
</g>
<!-- Node3&#45;&gt;Node2 -->
<g id="edge2" class="edge">
<title>Node3&#45;&gt;Node2</title>
<path fill="none" stroke="midnightblue" d="M99.5,-135.23C99.5,-126.59 99.5,-116.5 99.5,-108.52"/>
<polygon fill="midnightblue" stroke="midnightblue" points="96,-135.48 99.5,-145.48 103,-135.48 96,-135.48"/>
</g>
</g>
</svg>
