<?xml version="1.0" encoding="UTF-8" standalone="no"?>
<!DOCTYPE svg PUBLIC "-//W3C//DTD SVG 1.1//EN"
 "http://www.w3.org/Graphics/SVG/1.1/DTD/svg11.dtd">
<!-- Generated by graphviz version 2.44.0 (0)
 -->
<!-- Title: vsomeip_v3::application_impl Pages: 1 -->
<svg width="311pt" height="138pt"
 viewBox="0.00 0.00 311.00 138.00" xmlns="http://www.w3.org/2000/svg" xmlns:xlink="http://www.w3.org/1999/xlink">
<g id="graph0" class="graph" transform="scale(1 1) rotate(0) translate(4 134)">
<title>vsomeip_v3::application_impl</title>
<polygon fill="white" stroke="transparent" points="-4,4 -4,-134 307,-134 307,4 -4,4"/>
<!-- Node1 -->
<g id="node1" class="node">
<title>Node1</title>
<g id="a_node1"><a xlink:title=" ">
<polygon fill="#bfbfbf" stroke="black" points="158,-66.5 158,-85.5 303,-85.5 303,-66.5 158,-66.5"/>
<text text-anchor="middle" x="230.5" y="-73.5" font-family="Helvetica" font-size="10.00">vsomeip_v3::application_impl</text>
</a>
</g>
</g>
<!-- Node2 -->
<g id="node2" class="node">
<title>Node2</title>
<g id="a_node2"><a xlink:href="classvsomeip__v3_1_1application.html" target="_top" xlink:title="This class contains the public API of the vsomeip implementation.">
<polygon fill="white" stroke="black" points="0,-110.5 0,-129.5 122,-129.5 122,-110.5 0,-110.5"/>
<text text-anchor="middle" x="61" y="-117.5" font-family="Helvetica" font-size="10.00">vsomeip_v3::application</text>
</a>
</g>
</g>
<!-- Node2&#45;&gt;Node1 -->
<g id="edge1" class="edge">
<title>Node2&#45;&gt;Node1</title>
<path fill="none" stroke="midnightblue" d="M108.27,-107.85C135.07,-100.8 168.33,-92.07 193.23,-85.53"/>
<polygon fill="midnightblue" stroke="midnightblue" points="107.13,-104.53 98.35,-110.45 108.91,-111.3 107.13,-104.53"/>
</g>
<!-- Node3 -->
<g id="node3" class="node">
<title>Node3</title>
<g id="a_node3"><a xlink:href="classvsomeip__v3_1_1routing__manager__host.html" target="_top" xlink:title=" ">
<polygon fill="white" stroke="black" points="9,-61 9,-91 113,-91 113,-61 9,-61"/>
<text text-anchor="start" x="17" y="-79" font-family="Helvetica" font-size="10.00">vsomeip_v3::routing</text>
<text text-anchor="middle" x="61" y="-68" font-family="Helvetica" font-size="10.00">_manager_host</text>
</a>
</g>
</g>
<!-- Node3&#45;&gt;Node1 -->
<g id="edge2" class="edge">
<title>Node3&#45;&gt;Node1</title>
<path fill="none" stroke="midnightblue" d="M123.33,-76C134.6,-76 146.45,-76 157.99,-76"/>
<polygon fill="midnightblue" stroke="midnightblue" points="123.17,-72.5 113.17,-76 123.17,-79.5 123.17,-72.5"/>
</g>
<!-- Node4 -->
<g id="node4" class="node">
<title>Node4</title>
<g id="a_node4"><a xlink:title=" ">
<polygon fill="white" stroke="black" points="2,-0.5 2,-41.5 120,-41.5 120,-0.5 2,-0.5"/>
<text text-anchor="start" x="10" y="-29.5" font-family="Helvetica" font-size="10.00">std::enable_shared</text>
<text text-anchor="start" x="10" y="-18.5" font-family="Helvetica" font-size="10.00">_from_this&lt; application</text>
<text text-anchor="middle" x="61" y="-7.5" font-family="Helvetica" font-size="10.00">_impl &gt;</text>
</a>
</g>
</g>
<!-- Node4&#45;&gt;Node1 -->
<g id="edge3" class="edge">
<title>Node4&#45;&gt;Node1</title>
<path fill="none" stroke="midnightblue" d="M129.76,-43.25C154.27,-51.3 180.69,-59.97 200.17,-66.37"/>
<polygon fill="midnightblue" stroke="midnightblue" points="130.71,-39.88 120.11,-40.08 128.52,-46.53 130.71,-39.88"/>
</g>
</g>
</svg>
