<?xml version="1.0" encoding="UTF-8" standalone="no"?>
<!DOCTYPE svg PUBLIC "-//W3C//DTD SVG 1.1//EN"
 "http://www.w3.org/Graphics/SVG/1.1/DTD/svg11.dtd">
<!-- Generated by graphviz version 2.44.0 (0)
 -->
<!-- Title: vsomeip_v3::protocol::simple_command Pages: 1 -->
<svg width="434pt" height="247pt"
 viewBox="0.00 0.00 434.00 246.50" xmlns="http://www.w3.org/2000/svg" xmlns:xlink="http://www.w3.org/1999/xlink">
<g id="graph0" class="graph" transform="scale(1 1) rotate(0) translate(4 242.5)">
<title>vsomeip_v3::protocol::simple_command</title>
<polygon fill="white" stroke="transparent" points="-4,4 -4,-242.5 430,-242.5 430,4 -4,4"/>
<!-- Node1 -->
<g id="node1" class="node">
<title>Node1</title>
<g id="a_node1"><a xlink:title=" ">
<polygon fill="#bfbfbf" stroke="black" points="146,-98.5 146,-128.5 256,-128.5 256,-98.5 146,-98.5"/>
<text text-anchor="start" x="154" y="-116.5" font-family="Helvetica" font-size="10.00">vsomeip_v3::protocol</text>
<text text-anchor="middle" x="201" y="-105.5" font-family="Helvetica" font-size="10.00">::simple_command</text>
</a>
</g>
</g>
<!-- Node3 -->
<g id="node3" class="node">
<title>Node3</title>
<g id="a_node3"><a xlink:href="classvsomeip__v3_1_1protocol_1_1deregister__application__command.html" target="_top" xlink:title=" ">
<polygon fill="white" stroke="black" points="300.5,-197 300.5,-238 417.5,-238 417.5,-197 300.5,-197"/>
<text text-anchor="start" x="308.5" y="-226" font-family="Helvetica" font-size="10.00">vsomeip_v3::protocol</text>
<text text-anchor="start" x="308.5" y="-215" font-family="Helvetica" font-size="10.00">::deregister_application</text>
<text text-anchor="middle" x="359" y="-204" font-family="Helvetica" font-size="10.00">_command</text>
</a>
</g>
</g>
<!-- Node1&#45;&gt;Node3 -->
<g id="edge2" class="edge">
<title>Node1&#45;&gt;Node3</title>
<path fill="none" stroke="midnightblue" d="M225.06,-135.34C242.52,-151.13 267.59,-172.28 292,-187.5 297.34,-190.83 303.11,-194 308.94,-196.95"/>
<polygon fill="midnightblue" stroke="midnightblue" points="227.34,-132.68 217.61,-128.5 222.61,-137.84 227.34,-132.68"/>
</g>
<!-- Node4 -->
<g id="node4" class="node">
<title>Node4</title>
<g id="a_node4"><a xlink:href="classvsomeip__v3_1_1protocol_1_1ping__command.html" target="_top" xlink:title=" ">
<polygon fill="white" stroke="black" points="304,-147.5 304,-177.5 414,-177.5 414,-147.5 304,-147.5"/>
<text text-anchor="start" x="312" y="-165.5" font-family="Helvetica" font-size="10.00">vsomeip_v3::protocol</text>
<text text-anchor="middle" x="359" y="-154.5" font-family="Helvetica" font-size="10.00">::ping_command</text>
</a>
</g>
</g>
<!-- Node1&#45;&gt;Node4 -->
<g id="edge3" class="edge">
<title>Node1&#45;&gt;Node4</title>
<path fill="none" stroke="midnightblue" d="M259.67,-131.61C276.25,-136.82 294.15,-142.45 310.08,-147.45"/>
<polygon fill="midnightblue" stroke="midnightblue" points="260.67,-128.26 250.08,-128.6 258.57,-134.94 260.67,-128.26"/>
</g>
<!-- Node5 -->
<g id="node5" class="node">
<title>Node5</title>
<g id="a_node5"><a xlink:href="classvsomeip__v3_1_1protocol_1_1pong__command.html" target="_top" xlink:title=" ">
<polygon fill="white" stroke="black" points="304,-98.5 304,-128.5 414,-128.5 414,-98.5 304,-98.5"/>
<text text-anchor="start" x="312" y="-116.5" font-family="Helvetica" font-size="10.00">vsomeip_v3::protocol</text>
<text text-anchor="middle" x="359" y="-105.5" font-family="Helvetica" font-size="10.00">::pong_command</text>
</a>
</g>
</g>
<!-- Node1&#45;&gt;Node5 -->
<g id="edge4" class="edge">
<title>Node1&#45;&gt;Node5</title>
<path fill="none" stroke="midnightblue" d="M266.46,-113.5C278.93,-113.5 291.88,-113.5 303.97,-113.5"/>
<polygon fill="midnightblue" stroke="midnightblue" points="266.12,-110 256.12,-113.5 266.12,-117 266.12,-110"/>
</g>
<!-- Node6 -->
<g id="node6" class="node">
<title>Node6</title>
<g id="a_node6"><a xlink:href="classvsomeip__v3_1_1protocol_1_1registered__ack__command.html" target="_top" xlink:title=" ">
<polygon fill="white" stroke="black" points="292,-49.5 292,-79.5 426,-79.5 426,-49.5 292,-49.5"/>
<text text-anchor="start" x="300" y="-67.5" font-family="Helvetica" font-size="10.00">vsomeip_v3::protocol</text>
<text text-anchor="middle" x="359" y="-56.5" font-family="Helvetica" font-size="10.00">::registered_ack_command</text>
</a>
</g>
</g>
<!-- Node1&#45;&gt;Node6 -->
<g id="edge5" class="edge">
<title>Node1&#45;&gt;Node6</title>
<path fill="none" stroke="midnightblue" d="M259.67,-95.39C276.25,-90.18 294.15,-84.55 310.08,-79.55"/>
<polygon fill="midnightblue" stroke="midnightblue" points="258.57,-92.06 250.08,-98.4 260.67,-98.74 258.57,-92.06"/>
</g>
<!-- Node7 -->
<g id="node7" class="node">
<title>Node7</title>
<g id="a_node7"><a xlink:href="classvsomeip__v3_1_1protocol_1_1suspend__command.html" target="_top" xlink:title=" ">
<polygon fill="white" stroke="black" points="304,-0.5 304,-30.5 414,-30.5 414,-0.5 304,-0.5"/>
<text text-anchor="start" x="312" y="-18.5" font-family="Helvetica" font-size="10.00">vsomeip_v3::protocol</text>
<text text-anchor="middle" x="359" y="-7.5" font-family="Helvetica" font-size="10.00">::suspend_command</text>
</a>
</g>
</g>
<!-- Node1&#45;&gt;Node7 -->
<g id="edge6" class="edge">
<title>Node1&#45;&gt;Node7</title>
<path fill="none" stroke="midnightblue" d="M224.41,-91.38C241.71,-75.27 266.86,-53.84 292,-39.5 297.82,-36.18 304.19,-33.17 310.6,-30.51"/>
<polygon fill="midnightblue" stroke="midnightblue" points="221.89,-88.95 217.04,-98.37 226.71,-94.03 221.89,-88.95"/>
</g>
<!-- Node2 -->
<g id="node2" class="node">
<title>Node2</title>
<g id="a_node2"><a xlink:href="classvsomeip__v3_1_1protocol_1_1command.html" target="_top" xlink:title=" ">
<polygon fill="white" stroke="black" points="0,-98.5 0,-128.5 110,-128.5 110,-98.5 0,-98.5"/>
<text text-anchor="start" x="8" y="-116.5" font-family="Helvetica" font-size="10.00">vsomeip_v3::protocol</text>
<text text-anchor="middle" x="55" y="-105.5" font-family="Helvetica" font-size="10.00">::command</text>
</a>
</g>
</g>
<!-- Node2&#45;&gt;Node1 -->
<g id="edge1" class="edge">
<title>Node2&#45;&gt;Node1</title>
<path fill="none" stroke="midnightblue" d="M120.27,-113.5C128.75,-113.5 137.38,-113.5 145.67,-113.5"/>
<polygon fill="midnightblue" stroke="midnightblue" points="120.03,-110 110.03,-113.5 120.03,-117 120.03,-110"/>
</g>
</g>
</svg>
