<?xml version="1.0" encoding="UTF-8" standalone="no"?>
<!DOCTYPE svg PUBLIC "-//W3C//DTD SVG 1.1//EN"
 "http://www.w3.org/Graphics/SVG/1.1/DTD/svg11.dtd">
<!-- Generated by graphviz version 2.44.0 (0)
 -->
<!-- Title: vsomeip_v3::sd::configuration_option_impl Pages: 1 -->
<svg width="293pt" height="510pt"
 viewBox="0.00 0.00 292.50 510.00" xmlns="http://www.w3.org/2000/svg" xmlns:xlink="http://www.w3.org/1999/xlink">
<g id="graph0" class="graph" transform="scale(1 1) rotate(0) translate(4 506)">
<title>vsomeip_v3::sd::configuration_option_impl</title>
<polygon fill="white" stroke="transparent" points="-4,4 -4,-506 288.5,-506 288.5,4 -4,4"/>
<!-- Node1 -->
<g id="node1" class="node">
<title>Node1</title>
<g id="a_node1"><a xlink:title=" ">
<polygon fill="#bfbfbf" stroke="black" points="110.5,-0.5 110.5,-30.5 257.5,-30.5 257.5,-0.5 110.5,-0.5"/>
<text text-anchor="start" x="118.5" y="-18.5" font-family="Helvetica" font-size="10.00">vsomeip_v3::sd::configuration</text>
<text text-anchor="middle" x="184" y="-7.5" font-family="Helvetica" font-size="10.00">_option_impl</text>
</a>
</g>
</g>
<!-- Node2 -->
<g id="node2" class="node">
<title>Node2</title>
<g id="a_node2"><a xlink:href="classvsomeip__v3_1_1sd_1_1option__impl.html" target="_top" xlink:title=" ">
<polygon fill="white" stroke="black" points="113.5,-68.5 113.5,-87.5 254.5,-87.5 254.5,-68.5 113.5,-68.5"/>
<text text-anchor="middle" x="184" y="-75.5" font-family="Helvetica" font-size="10.00">vsomeip_v3::sd::option_impl</text>
</a>
</g>
</g>
<!-- Node2&#45;&gt;Node1 -->
<g id="edge1" class="edge">
<title>Node2&#45;&gt;Node1</title>
<path fill="none" stroke="midnightblue" d="M184,-58.22C184,-49.36 184,-38.96 184,-30.76"/>
<polygon fill="midnightblue" stroke="midnightblue" points="180.5,-58.33 184,-68.33 187.5,-58.33 180.5,-58.33"/>
</g>
<!-- Node3 -->
<g id="node3" class="node">
<title>Node3</title>
<g id="a_node3"><a xlink:href="classvsomeip__v3_1_1sd_1_1message__element__impl.html" target="_top" xlink:title=" ">
<polygon fill="white" stroke="black" points="118.5,-125.5 118.5,-155.5 249.5,-155.5 249.5,-125.5 118.5,-125.5"/>
<text text-anchor="start" x="126.5" y="-143.5" font-family="Helvetica" font-size="10.00">vsomeip_v3::sd::message</text>
<text text-anchor="middle" x="184" y="-132.5" font-family="Helvetica" font-size="10.00">_element_impl</text>
</a>
</g>
</g>
<!-- Node3&#45;&gt;Node2 -->
<g id="edge2" class="edge">
<title>Node3&#45;&gt;Node2</title>
<path fill="none" stroke="midnightblue" d="M184,-115.35C184,-105.51 184,-94.78 184,-87.54"/>
<polygon fill="midnightblue" stroke="midnightblue" points="180.5,-115.47 184,-125.47 187.5,-115.47 180.5,-115.47"/>
</g>
<!-- Node4 -->
<g id="node4" class="node">
<title>Node4</title>
<g id="a_node4"><a xlink:href="classvsomeip__v3_1_1sd_1_1message__impl.html" target="_top" xlink:title=" ">
<polygon fill="white" stroke="black" points="106.5,-203.5 106.5,-222.5 261.5,-222.5 261.5,-203.5 106.5,-203.5"/>
<text text-anchor="middle" x="184" y="-210.5" font-family="Helvetica" font-size="10.00">vsomeip_v3::sd::message_impl</text>
</a>
</g>
</g>
<!-- Node4&#45;&gt;Node3 -->
<g id="edge3" class="edge">
<title>Node4&#45;&gt;Node3</title>
<path fill="none" stroke="#9a32cd" stroke-dasharray="5,2" d="M184,-193.24C184,-181.41 184,-166.38 184,-155.58"/>
<polygon fill="#9a32cd" stroke="#9a32cd" points="180.5,-193.36 184,-203.36 187.5,-193.36 180.5,-193.36"/>
<text text-anchor="middle" x="201.5" y="-177" font-family="Helvetica" font-size="10.00"> owner_</text>
</g>
<!-- Node5 -->
<g id="node5" class="node">
<title>Node5</title>
<g id="a_node5"><a xlink:href="classvsomeip__v3_1_1message.html" target="_top" xlink:title="Implements regular SOME/IP messages.">
<polygon fill="white" stroke="black" points="169.5,-309.5 169.5,-328.5 284.5,-328.5 284.5,-309.5 169.5,-309.5"/>
<text text-anchor="middle" x="227" y="-316.5" font-family="Helvetica" font-size="10.00">vsomeip_v3::message</text>
</a>
</g>
</g>
<!-- Node5&#45;&gt;Node4 -->
<g id="edge4" class="edge">
<title>Node5&#45;&gt;Node4</title>
<path fill="none" stroke="midnightblue" d="M221.29,-299.45C217.58,-287.94 212.44,-272.95 207,-260 201.4,-246.67 193.67,-231.79 188.76,-222.66"/>
<polygon fill="midnightblue" stroke="midnightblue" points="218.03,-300.73 224.37,-309.22 224.7,-298.63 218.03,-300.73"/>
</g>
<!-- Node6 -->
<g id="node6" class="node">
<title>Node6</title>
<g id="a_node6"><a xlink:href="classvsomeip__v3_1_1message__base.html" target="_top" xlink:title="Base class to implement SOME/IP messages.">
<polygon fill="white" stroke="black" points="90.5,-425.5 90.5,-444.5 231.5,-444.5 231.5,-425.5 90.5,-425.5"/>
<text text-anchor="middle" x="161" y="-432.5" font-family="Helvetica" font-size="10.00">vsomeip_v3::message_base</text>
</a>
</g>
</g>
<!-- Node6&#45;&gt;Node5 -->
<g id="edge5" class="edge">
<title>Node6&#45;&gt;Node5</title>
<path fill="none" stroke="midnightblue" d="M170.99,-416.74C185.31,-392.01 211.13,-347.41 221.98,-328.67"/>
<polygon fill="midnightblue" stroke="midnightblue" points="167.94,-415.02 165.96,-425.43 174,-418.53 167.94,-415.02"/>
</g>
<!-- Node9 -->
<g id="node9" class="node">
<title>Node9</title>
<g id="a_node9"><a xlink:href="classvsomeip__v3_1_1message__base__impl.html" target="_top" xlink:title=" ">
<polygon fill="white" stroke="black" points="83.5,-260.5 83.5,-290.5 198.5,-290.5 198.5,-260.5 83.5,-260.5"/>
<text text-anchor="start" x="91.5" y="-278.5" font-family="Helvetica" font-size="10.00">vsomeip_v3::message</text>
<text text-anchor="middle" x="141" y="-267.5" font-family="Helvetica" font-size="10.00">_base_impl</text>
</a>
</g>
</g>
<!-- Node6&#45;&gt;Node9 -->
<g id="edge9" class="edge">
<title>Node6&#45;&gt;Node9</title>
<path fill="none" stroke="midnightblue" d="M158.56,-414.81C154.48,-382.69 146.37,-318.77 142.78,-290.51"/>
<polygon fill="midnightblue" stroke="midnightblue" points="155.14,-415.6 159.87,-425.08 162.08,-414.72 155.14,-415.6"/>
</g>
<!-- Node10 -->
<g id="node10" class="node">
<title>Node10</title>
<g id="a_node10"><a xlink:href="classvsomeip__v3_1_1message__header__impl.html" target="_top" xlink:title=" ">
<polygon fill="white" stroke="black" points="10.5,-347.5 10.5,-377.5 125.5,-377.5 125.5,-347.5 10.5,-347.5"/>
<text text-anchor="start" x="18.5" y="-365.5" font-family="Helvetica" font-size="10.00">vsomeip_v3::message</text>
<text text-anchor="middle" x="68" y="-354.5" font-family="Helvetica" font-size="10.00">_header_impl</text>
</a>
</g>
</g>
<!-- Node6&#45;&gt;Node10 -->
<g id="edge12" class="edge">
<title>Node6&#45;&gt;Node10</title>
<path fill="none" stroke="#9a32cd" stroke-dasharray="5,2" d="M128.67,-421.23C120.55,-417.28 112.12,-412.5 105,-407 94.33,-398.76 84.55,-387 77.73,-377.78"/>
<polygon fill="#9a32cd" stroke="#9a32cd" points="127.41,-424.51 137.96,-425.47 130.32,-418.14 127.41,-424.51"/>
<text text-anchor="middle" x="122.5" y="-399" font-family="Helvetica" font-size="10.00"> owner_</text>
</g>
<!-- Node7 -->
<g id="node7" class="node">
<title>Node7</title>
<g id="a_node7"><a xlink:href="classvsomeip__v3_1_1serializable.html" target="_top" xlink:title=" ">
<polygon fill="white" stroke="black" points="0,-482.5 0,-501.5 124,-501.5 124,-482.5 0,-482.5"/>
<text text-anchor="middle" x="62" y="-489.5" font-family="Helvetica" font-size="10.00">vsomeip_v3::serializable</text>
</a>
</g>
</g>
<!-- Node7&#45;&gt;Node6 -->
<g id="edge6" class="edge">
<title>Node7&#45;&gt;Node6</title>
<path fill="none" stroke="midnightblue" d="M86.24,-477.54C104.77,-467.24 129.77,-453.35 145.64,-444.53"/>
<polygon fill="midnightblue" stroke="midnightblue" points="84.51,-474.49 77.47,-482.41 87.91,-480.61 84.51,-474.49"/>
</g>
<!-- Node7&#45;&gt;Node10 -->
<g id="edge11" class="edge">
<title>Node7&#45;&gt;Node10</title>
<path fill="none" stroke="midnightblue" d="M62.88,-472.24C64.1,-446.46 66.25,-400.65 67.34,-377.59"/>
<polygon fill="midnightblue" stroke="midnightblue" points="59.39,-472.08 62.41,-482.24 66.38,-472.41 59.39,-472.08"/>
</g>
<!-- Node8 -->
<g id="node8" class="node">
<title>Node8</title>
<g id="a_node8"><a xlink:href="classvsomeip__v3_1_1deserializable.html" target="_top" xlink:title=" ">
<polygon fill="white" stroke="black" points="142,-482.5 142,-501.5 276,-501.5 276,-482.5 142,-482.5"/>
<text text-anchor="middle" x="209" y="-489.5" font-family="Helvetica" font-size="10.00">vsomeip_v3::deserializable</text>
</a>
</g>
</g>
<!-- Node8&#45;&gt;Node6 -->
<g id="edge7" class="edge">
<title>Node8&#45;&gt;Node6</title>
<path fill="none" stroke="midnightblue" d="M194.89,-474.83C186.29,-464.98 175.65,-452.78 168.61,-444.71"/>
<polygon fill="midnightblue" stroke="midnightblue" points="192.29,-477.17 201.5,-482.41 197.56,-472.57 192.29,-477.17"/>
</g>
<!-- Node9&#45;&gt;Node4 -->
<g id="edge8" class="edge">
<title>Node9&#45;&gt;Node4</title>
<path fill="none" stroke="midnightblue" d="M156.83,-252.22C164.17,-241.9 172.46,-230.24 177.93,-222.54"/>
<polygon fill="midnightblue" stroke="midnightblue" points="153.91,-250.29 150.97,-260.47 159.62,-254.34 153.91,-250.29"/>
</g>
<!-- Node10&#45;&gt;Node9 -->
<g id="edge10" class="edge">
<title>Node10&#45;&gt;Node9</title>
<path fill="none" stroke="#9a32cd" stroke-dasharray="5,2" d="M80.73,-338.64C86.6,-329.02 94.03,-317.99 102,-309 107.85,-302.41 115.08,-296 121.72,-290.65"/>
<polygon fill="#9a32cd" stroke="#9a32cd" points="77.67,-336.93 75.61,-347.32 83.7,-340.48 77.67,-336.93"/>
<text text-anchor="middle" x="121" y="-316.5" font-family="Helvetica" font-size="10.00"> header_</text>
</g>
</g>
</svg>
