<?xml version="1.0" encoding="UTF-8" standalone="no"?>
<!DOCTYPE svg PUBLIC "-//W3C//DTD SVG 1.1//EN"
 "http://www.w3.org/Graphics/SVG/1.1/DTD/svg11.dtd">
<!-- Generated by graphviz version 2.44.0 (0)
 -->
<!-- Title: vsomeip_v3::sd::option_impl Pages: 1 -->
<svg width="645pt" height="284pt"
 viewBox="0.00 0.00 645.00 284.00" xmlns="http://www.w3.org/2000/svg" xmlns:xlink="http://www.w3.org/1999/xlink">
<g id="graph0" class="graph" transform="scale(1 1) rotate(0) translate(4 280)">
<title>vsomeip_v3::sd::option_impl</title>
<polygon fill="white" stroke="transparent" points="-4,4 -4,-280 641,-280 641,4 -4,4"/>
<!-- Node1 -->
<g id="node1" class="node">
<title>Node1</title>
<g id="a_node1"><a xlink:title=" ">
<polygon fill="#bfbfbf" stroke="black" points="167,-128 167,-147 308,-147 308,-128 167,-128"/>
<text text-anchor="middle" x="237.5" y="-135" font-family="Helvetica" font-size="10.00">vsomeip_v3::sd::option_impl</text>
</a>
</g>
</g>
<!-- Node3 -->
<g id="node3" class="node">
<title>Node3</title>
<g id="a_node3"><a xlink:href="classvsomeip__v3_1_1sd_1_1configuration__option__impl.html" target="_top" xlink:title=" ">
<polygon fill="white" stroke="black" points="344,-245.5 344,-275.5 491,-275.5 491,-245.5 344,-245.5"/>
<text text-anchor="start" x="352" y="-263.5" font-family="Helvetica" font-size="10.00">vsomeip_v3::sd::configuration</text>
<text text-anchor="middle" x="417.5" y="-252.5" font-family="Helvetica" font-size="10.00">_option_impl</text>
</a>
</g>
</g>
<!-- Node1&#45;&gt;Node3 -->
<g id="edge2" class="edge">
<title>Node1&#45;&gt;Node3</title>
<path fill="none" stroke="midnightblue" d="M253.16,-155.03C272.12,-176.68 307.1,-213.36 344,-235.5 350.28,-239.27 357.21,-242.57 364.22,-245.43"/>
<polygon fill="midnightblue" stroke="midnightblue" points="255.67,-152.57 246.49,-147.27 250.36,-157.14 255.67,-152.57"/>
</g>
<!-- Node4 -->
<g id="node4" class="node">
<title>Node4</title>
<g id="a_node4"><a xlink:href="classvsomeip__v3_1_1sd_1_1ip__option__impl.html" target="_top" xlink:title=" ">
<polygon fill="white" stroke="black" points="368,-196.5 368,-226.5 467,-226.5 467,-196.5 368,-196.5"/>
<text text-anchor="start" x="376" y="-214.5" font-family="Helvetica" font-size="10.00">vsomeip_v3::sd::ip</text>
<text text-anchor="middle" x="417.5" y="-203.5" font-family="Helvetica" font-size="10.00">_option_impl</text>
</a>
</g>
</g>
<!-- Node1&#45;&gt;Node4 -->
<g id="edge3" class="edge">
<title>Node1&#45;&gt;Node4</title>
<path fill="none" stroke="midnightblue" d="M266.71,-151.57C287.76,-161.83 317.36,-175.76 344,-186.5 352.52,-189.94 361.71,-193.34 370.6,-196.47"/>
<polygon fill="midnightblue" stroke="midnightblue" points="268.2,-148.4 257.68,-147.14 265.12,-154.68 268.2,-148.4"/>
</g>
<!-- Node7 -->
<g id="node7" class="node">
<title>Node7</title>
<g id="a_node7"><a xlink:href="classvsomeip__v3_1_1sd_1_1load__balancing__option__impl.html" target="_top" xlink:title=" ">
<polygon fill="white" stroke="black" points="358.5,-147.5 358.5,-177.5 476.5,-177.5 476.5,-147.5 358.5,-147.5"/>
<text text-anchor="start" x="366.5" y="-165.5" font-family="Helvetica" font-size="10.00">vsomeip_v3::sd::load</text>
<text text-anchor="middle" x="417.5" y="-154.5" font-family="Helvetica" font-size="10.00">_balancing_option_impl</text>
</a>
</g>
</g>
<!-- Node1&#45;&gt;Node7 -->
<g id="edge6" class="edge">
<title>Node1&#45;&gt;Node7</title>
<path fill="none" stroke="midnightblue" d="M316.48,-148.45C330.59,-150.43 345.06,-152.47 358.47,-154.35"/>
<polygon fill="midnightblue" stroke="midnightblue" points="316.69,-144.95 306.3,-147.02 315.72,-151.88 316.69,-144.95"/>
</g>
<!-- Node8 -->
<g id="node8" class="node">
<title>Node8</title>
<g id="a_node8"><a xlink:href="classvsomeip__v3_1_1sd_1_1protection__option__impl.html" target="_top" xlink:title=" ">
<polygon fill="white" stroke="black" points="350.5,-98.5 350.5,-128.5 484.5,-128.5 484.5,-98.5 350.5,-98.5"/>
<text text-anchor="start" x="358.5" y="-116.5" font-family="Helvetica" font-size="10.00">vsomeip_v3::sd::protection</text>
<text text-anchor="middle" x="417.5" y="-105.5" font-family="Helvetica" font-size="10.00">_option_impl</text>
</a>
</g>
</g>
<!-- Node1&#45;&gt;Node8 -->
<g id="edge7" class="edge">
<title>Node1&#45;&gt;Node8</title>
<path fill="none" stroke="midnightblue" d="M318.31,-126.74C329.06,-125.29 339.99,-123.82 350.46,-122.4"/>
<polygon fill="midnightblue" stroke="midnightblue" points="317.53,-123.31 308.08,-128.12 318.46,-130.25 317.53,-123.31"/>
</g>
<!-- Node9 -->
<g id="node9" class="node">
<title>Node9</title>
<g id="a_node9"><a xlink:href="classvsomeip__v3_1_1sd_1_1selective__option__impl.html" target="_top" xlink:title=" ">
<polygon fill="white" stroke="black" points="352.5,-49.5 352.5,-79.5 482.5,-79.5 482.5,-49.5 352.5,-49.5"/>
<text text-anchor="start" x="360.5" y="-67.5" font-family="Helvetica" font-size="10.00">vsomeip_v3::sd::selective</text>
<text text-anchor="middle" x="417.5" y="-56.5" font-family="Helvetica" font-size="10.00">_option_impl</text>
</a>
</g>
</g>
<!-- Node1&#45;&gt;Node9 -->
<g id="edge8" class="edge">
<title>Node1&#45;&gt;Node9</title>
<path fill="none" stroke="midnightblue" d="M266.29,-123.52C287.34,-113.2 317.14,-99.14 344,-88.5 351.77,-85.42 360.1,-82.41 368.25,-79.61"/>
<polygon fill="midnightblue" stroke="midnightblue" points="264.69,-120.41 257.27,-127.98 267.79,-126.69 264.69,-120.41"/>
</g>
<!-- Node10 -->
<g id="node10" class="node">
<title>Node10</title>
<g id="a_node10"><a xlink:href="classvsomeip__v3_1_1sd_1_1unknown__option__impl.html" target="_top" xlink:title="An SD Endpoint Option of unknown type.">
<polygon fill="white" stroke="black" points="352,-0.5 352,-30.5 483,-30.5 483,-0.5 352,-0.5"/>
<text text-anchor="start" x="360" y="-18.5" font-family="Helvetica" font-size="10.00">vsomeip_v3::sd::unknown</text>
<text text-anchor="middle" x="417.5" y="-7.5" font-family="Helvetica" font-size="10.00">_option_impl</text>
</a>
</g>
</g>
<!-- Node1&#45;&gt;Node10 -->
<g id="edge9" class="edge">
<title>Node1&#45;&gt;Node10</title>
<path fill="none" stroke="midnightblue" d="M252.83,-120.23C271.67,-98.54 306.77,-61.52 344,-39.5 349.71,-36.13 355.95,-33.15 362.3,-30.56"/>
<polygon fill="midnightblue" stroke="midnightblue" points="250.04,-118.1 246.22,-127.98 255.37,-122.64 250.04,-118.1"/>
</g>
<!-- Node2 -->
<g id="node2" class="node">
<title>Node2</title>
<g id="a_node2"><a xlink:href="classvsomeip__v3_1_1sd_1_1message__element__impl.html" target="_top" xlink:title=" ">
<polygon fill="white" stroke="black" points="0,-122.5 0,-152.5 131,-152.5 131,-122.5 0,-122.5"/>
<text text-anchor="start" x="8" y="-140.5" font-family="Helvetica" font-size="10.00">vsomeip_v3::sd::message</text>
<text text-anchor="middle" x="65.5" y="-129.5" font-family="Helvetica" font-size="10.00">_element_impl</text>
</a>
</g>
</g>
<!-- Node2&#45;&gt;Node1 -->
<g id="edge1" class="edge">
<title>Node2&#45;&gt;Node1</title>
<path fill="none" stroke="midnightblue" d="M141.46,-137.5C149.89,-137.5 158.46,-137.5 166.83,-137.5"/>
<polygon fill="midnightblue" stroke="midnightblue" points="141.25,-134 131.25,-137.5 141.25,-141 141.25,-134"/>
</g>
<!-- Node5 -->
<g id="node5" class="node">
<title>Node5</title>
<g id="a_node5"><a xlink:href="classvsomeip__v3_1_1sd_1_1ipv4__option__impl.html" target="_top" xlink:title=" ">
<polygon fill="white" stroke="black" points="527,-220.5 527,-250.5 637,-250.5 637,-220.5 527,-220.5"/>
<text text-anchor="start" x="535" y="-238.5" font-family="Helvetica" font-size="10.00">vsomeip_v3::sd::ipv4</text>
<text text-anchor="middle" x="582" y="-227.5" font-family="Helvetica" font-size="10.00">_option_impl</text>
</a>
</g>
</g>
<!-- Node4&#45;&gt;Node5 -->
<g id="edge4" class="edge">
<title>Node4&#45;&gt;Node5</title>
<path fill="none" stroke="midnightblue" d="M477.16,-220.16C493.39,-222.56 510.93,-225.15 526.88,-227.51"/>
<polygon fill="midnightblue" stroke="midnightblue" points="477.66,-216.7 467.26,-218.7 476.64,-223.62 477.66,-216.7"/>
</g>
<!-- Node6 -->
<g id="node6" class="node">
<title>Node6</title>
<g id="a_node6"><a xlink:href="classvsomeip__v3_1_1sd_1_1ipv6__option__impl.html" target="_top" xlink:title=" ">
<polygon fill="white" stroke="black" points="527,-171.5 527,-201.5 637,-201.5 637,-171.5 527,-171.5"/>
<text text-anchor="start" x="535" y="-189.5" font-family="Helvetica" font-size="10.00">vsomeip_v3::sd::ipv6</text>
<text text-anchor="middle" x="582" y="-178.5" font-family="Helvetica" font-size="10.00">_option_impl</text>
</a>
</g>
</g>
<!-- Node4&#45;&gt;Node6 -->
<g id="edge5" class="edge">
<title>Node4&#45;&gt;Node6</title>
<path fill="none" stroke="midnightblue" d="M477.16,-202.47C493.39,-199.98 510.93,-197.28 526.88,-194.83"/>
<polygon fill="midnightblue" stroke="midnightblue" points="476.61,-199.02 467.26,-204 477.67,-205.94 476.61,-199.02"/>
</g>
</g>
</svg>
