<?xml version="1.0" encoding="UTF-8" standalone="no"?>
<!DOCTYPE svg PUBLIC "-//W3C//DTD SVG 1.1//EN"
 "http://www.w3.org/Graphics/SVG/1.1/DTD/svg11.dtd">
<!-- Generated by graphviz version 2.44.0 (0)
 -->
<!-- Title: vsomeip_v3::sd::runtime_impl Pages: 1 -->
<svg width="264pt" height="151pt"
 viewBox="0.00 0.00 263.50 151.00" xmlns="http://www.w3.org/2000/svg" xmlns:xlink="http://www.w3.org/1999/xlink">
<g id="graph0" class="graph" transform="scale(1 1) rotate(0) translate(4 147)">
<title>vsomeip_v3::sd::runtime_impl</title>
<polygon fill="white" stroke="transparent" points="-4,4 -4,-147 259.5,-147 259.5,4 -4,4"/>
<!-- Node1 -->
<g id="node1" class="node">
<title>Node1</title>
<g id="a_node1"><a xlink:title=" ">
<polygon fill="#bfbfbf" stroke="black" points="56.5,-0.5 56.5,-19.5 203.5,-19.5 203.5,-0.5 56.5,-0.5"/>
<text text-anchor="middle" x="130" y="-7.5" font-family="Helvetica" font-size="10.00">vsomeip_v3::sd::runtime_impl</text>
</a>
</g>
</g>
<!-- Node2 -->
<g id="node2" class="node">
<title>Node2</title>
<g id="a_node2"><a xlink:href="classvsomeip__v3_1_1sd_1_1runtime.html" target="_top" xlink:title=" ">
<polygon fill="white" stroke="black" points="0,-62 0,-81 124,-81 124,-62 0,-62"/>
<text text-anchor="middle" x="62" y="-69" font-family="Helvetica" font-size="10.00">vsomeip_v3::sd::runtime</text>
</a>
</g>
</g>
<!-- Node2&#45;&gt;Node1 -->
<g id="edge1" class="edge">
<title>Node2&#45;&gt;Node1</title>
<path fill="none" stroke="midnightblue" d="M79.54,-55.15C92.51,-43.81 109.68,-28.78 120.28,-19.51"/>
<polygon fill="midnightblue" stroke="midnightblue" points="76.96,-52.76 71.74,-61.98 81.57,-58.02 76.96,-52.76"/>
</g>
<!-- Node3 -->
<g id="node3" class="node">
<title>Node3</title>
<g id="a_node3"><a xlink:href="classvsomeip__v3_1_1plugin__impl.html" target="_top" xlink:title=" ">
<polygon fill="white" stroke="black" points="142.5,-56.5 142.5,-86.5 255.5,-86.5 255.5,-56.5 142.5,-56.5"/>
<text text-anchor="start" x="150.5" y="-74.5" font-family="Helvetica" font-size="10.00">vsomeip_v3::plugin</text>
<text text-anchor="middle" x="199" y="-63.5" font-family="Helvetica" font-size="10.00">_impl&lt; runtime_impl &gt;</text>
</a>
</g>
</g>
<!-- Node3&#45;&gt;Node1 -->
<g id="edge2" class="edge">
<title>Node3&#45;&gt;Node1</title>
<path fill="none" stroke="midnightblue" d="M174.76,-49.6C162.84,-39.32 149.11,-27.48 140.04,-19.66"/>
<polygon fill="midnightblue" stroke="midnightblue" points="172.79,-52.52 182.65,-56.4 177.36,-47.22 172.79,-52.52"/>
</g>
<!-- Node4 -->
<g id="node4" class="node">
<title>Node4</title>
<g id="a_node4"><a xlink:href="classvsomeip__v3_1_1plugin.html" target="_top" xlink:title=" ">
<polygon fill="white" stroke="black" points="148.5,-123.5 148.5,-142.5 249.5,-142.5 249.5,-123.5 148.5,-123.5"/>
<text text-anchor="middle" x="199" y="-130.5" font-family="Helvetica" font-size="10.00">vsomeip_v3::plugin</text>
</a>
</g>
</g>
<!-- Node4&#45;&gt;Node3 -->
<g id="edge3" class="edge">
<title>Node4&#45;&gt;Node3</title>
<path fill="none" stroke="midnightblue" d="M199,-113.23C199,-104.59 199,-94.5 199,-86.52"/>
<polygon fill="midnightblue" stroke="midnightblue" points="195.5,-113.48 199,-123.48 202.5,-113.48 195.5,-113.48"/>
</g>
</g>
</svg>
