<?xml version="1.0" encoding="UTF-8" standalone="no"?>
<!DOCTYPE svg PUBLIC "-//W3C//DTD SVG 1.1//EN"
 "http://www.w3.org/Graphics/SVG/1.1/DTD/svg11.dtd">
<!-- Generated by graphviz version 2.44.0 (0)
 -->
<!-- Title: vsomeip_v3::e2e::profile_interface::checker Pages: 1 -->
<svg width="473pt" height="247pt"
 viewBox="0.00 0.00 473.00 246.50" xmlns="http://www.w3.org/2000/svg" xmlns:xlink="http://www.w3.org/1999/xlink">
<g id="graph0" class="graph" transform="scale(1 1) rotate(0) translate(4 242.5)">
<title>vsomeip_v3::e2e::profile_interface::checker</title>
<polygon fill="white" stroke="transparent" points="-4,4 -4,-242.5 469,-242.5 469,4 -4,4"/>
<!-- Node1 -->
<g id="node1" class="node">
<title>Node1</title>
<g id="a_node1"><a xlink:title=" ">
<polygon fill="#bfbfbf" stroke="black" points="172,-110 172,-140 295,-140 295,-110 172,-110"/>
<text text-anchor="start" x="180" y="-128" font-family="Helvetica" font-size="10.00">vsomeip_v3::e2e::profile</text>
<text text-anchor="middle" x="233.5" y="-117" font-family="Helvetica" font-size="10.00">_interface::checker</text>
</a>
</g>
</g>
<!-- Node3 -->
<g id="node3" class="node">
<title>Node3</title>
<g id="a_node3"><a xlink:href="classvsomeip__v3_1_1e2e_1_1profile01_1_1profile__01__checker.html" target="_top" xlink:title=" ">
<polygon fill="white" stroke="black" points="331,-208 331,-238 465,-238 465,-208 331,-208"/>
<text text-anchor="start" x="339" y="-226" font-family="Helvetica" font-size="10.00">vsomeip_v3::e2e::profile01</text>
<text text-anchor="middle" x="398" y="-215" font-family="Helvetica" font-size="10.00">::profile_01_checker</text>
</a>
</g>
</g>
<!-- Node1&#45;&gt;Node3 -->
<g id="edge2" class="edge">
<title>Node1&#45;&gt;Node3</title>
<path fill="none" stroke="midnightblue" d="M258.55,-146.8C277.24,-162.88 304.39,-184.41 331,-199 336.99,-202.28 343.51,-205.28 350.06,-207.95"/>
<polygon fill="midnightblue" stroke="midnightblue" points="260.67,-144 250.83,-140.06 256.06,-149.27 260.67,-144"/>
</g>
<!-- Node4 -->
<g id="node4" class="node">
<title>Node4</title>
<g id="a_node4"><a xlink:href="classvsomeip__v3_1_1e2e_1_1profile04_1_1profile__04__checker.html" target="_top" xlink:title=" ">
<polygon fill="white" stroke="black" points="331,-159 331,-189 465,-189 465,-159 331,-159"/>
<text text-anchor="start" x="339" y="-177" font-family="Helvetica" font-size="10.00">vsomeip_v3::e2e::profile04</text>
<text text-anchor="middle" x="398" y="-166" font-family="Helvetica" font-size="10.00">::profile_04_checker</text>
</a>
</g>
</g>
<!-- Node1&#45;&gt;Node4 -->
<g id="edge3" class="edge">
<title>Node1&#45;&gt;Node4</title>
<path fill="none" stroke="midnightblue" d="M294.57,-143.11C311.84,-148.32 330.49,-153.95 347.08,-158.95"/>
<polygon fill="midnightblue" stroke="midnightblue" points="295.17,-139.64 284.58,-140.1 293.15,-146.34 295.17,-139.64"/>
</g>
<!-- Node5 -->
<g id="node5" class="node">
<title>Node5</title>
<g id="a_node5"><a xlink:href="classvsomeip__v3_1_1e2e_1_1profile05_1_1profile__05__checker.html" target="_top" xlink:title=" ">
<polygon fill="white" stroke="black" points="331,-110 331,-140 465,-140 465,-110 331,-110"/>
<text text-anchor="start" x="339" y="-128" font-family="Helvetica" font-size="10.00">vsomeip_v3::e2e::profile05</text>
<text text-anchor="middle" x="398" y="-117" font-family="Helvetica" font-size="10.00">::profile_05_checker</text>
</a>
</g>
</g>
<!-- Node1&#45;&gt;Node5 -->
<g id="edge4" class="edge">
<title>Node1&#45;&gt;Node5</title>
<path fill="none" stroke="midnightblue" d="M305.03,-125C313.65,-125 322.43,-125 330.99,-125"/>
<polygon fill="midnightblue" stroke="midnightblue" points="305.01,-121.5 295.01,-125 305.01,-128.5 305.01,-121.5"/>
</g>
<!-- Node6 -->
<g id="node6" class="node">
<title>Node6</title>
<g id="a_node6"><a xlink:href="classvsomeip__v3_1_1e2e_1_1profile07_1_1profile__07__checker.html" target="_top" xlink:title=" ">
<polygon fill="white" stroke="black" points="331,-61 331,-91 465,-91 465,-61 331,-61"/>
<text text-anchor="start" x="339" y="-79" font-family="Helvetica" font-size="10.00">vsomeip_v3::e2e::profile07</text>
<text text-anchor="middle" x="398" y="-68" font-family="Helvetica" font-size="10.00">::profile_07_checker</text>
</a>
</g>
</g>
<!-- Node1&#45;&gt;Node6 -->
<g id="edge5" class="edge">
<title>Node1&#45;&gt;Node6</title>
<path fill="none" stroke="midnightblue" d="M294.57,-106.89C311.84,-101.68 330.49,-96.05 347.08,-91.05"/>
<polygon fill="midnightblue" stroke="midnightblue" points="293.15,-103.66 284.58,-109.9 295.17,-110.36 293.15,-103.66"/>
</g>
<!-- Node7 -->
<g id="node7" class="node">
<title>Node7</title>
<g id="a_node7"><a xlink:href="classvsomeip__v3_1_1e2e_1_1profile__custom_1_1profile__custom__checker.html" target="_top" xlink:title=" ">
<polygon fill="white" stroke="black" points="336,-0.5 336,-41.5 460,-41.5 460,-0.5 336,-0.5"/>
<text text-anchor="start" x="344" y="-29.5" font-family="Helvetica" font-size="10.00">vsomeip_v3::e2e::profile</text>
<text text-anchor="start" x="344" y="-18.5" font-family="Helvetica" font-size="10.00">_custom::profile_custom</text>
<text text-anchor="middle" x="398" y="-7.5" font-family="Helvetica" font-size="10.00">_checker</text>
</a>
</g>
</g>
<!-- Node1&#45;&gt;Node7 -->
<g id="edge6" class="edge">
<title>Node1&#45;&gt;Node7</title>
<path fill="none" stroke="midnightblue" d="M259.58,-103.22C278.42,-87.5 305.29,-66.42 331,-51 336.5,-47.7 342.44,-44.52 348.4,-41.55"/>
<polygon fill="midnightblue" stroke="midnightblue" points="257.15,-100.68 251.77,-109.81 261.67,-106.03 257.15,-100.68"/>
</g>
<!-- Node2 -->
<g id="node2" class="node">
<title>Node2</title>
<g id="a_node2"><a xlink:href="classvsomeip__v3_1_1e2e_1_1profile__interface_1_1profile__interface.html" target="_top" xlink:title=" ">
<polygon fill="white" stroke="black" points="0,-110 0,-140 136,-140 136,-110 0,-110"/>
<text text-anchor="start" x="8" y="-128" font-family="Helvetica" font-size="10.00">vsomeip_v3::e2e::profile</text>
<text text-anchor="middle" x="68" y="-117" font-family="Helvetica" font-size="10.00">_interface::profile_interface</text>
</a>
</g>
</g>
<!-- Node2&#45;&gt;Node1 -->
<g id="edge1" class="edge">
<title>Node2&#45;&gt;Node1</title>
<path fill="none" stroke="midnightblue" d="M146.67,-125C155.09,-125 163.57,-125 171.75,-125"/>
<polygon fill="midnightblue" stroke="midnightblue" points="146.45,-121.5 136.45,-125 146.45,-128.5 146.45,-121.5"/>
</g>
</g>
</svg>
