<?xml version="1.0" encoding="UTF-8" standalone="no"?>
<!DOCTYPE svg PUBLIC "-//W3C//DTD SVG 1.1//EN"
 "http://www.w3.org/Graphics/SVG/1.1/DTD/svg11.dtd">
<!-- Generated by graphviz version 2.44.0 (0)
 -->
<!-- Title: boost::asio::detail::reactive_socket_recv_op_base_ext_local&lt; MutableBufferSequence &gt; Pages: 1 -->
<svg width="180pt" height="184pt"
 viewBox="0.00 0.00 180.00 184.00" xmlns="http://www.w3.org/2000/svg" xmlns:xlink="http://www.w3.org/1999/xlink">
<g id="graph0" class="graph" transform="scale(1 1) rotate(0) translate(4 180)">
<title>boost::asio::detail::reactive_socket_recv_op_base_ext_local&lt; MutableBufferSequence &gt;</title>
<polygon fill="white" stroke="transparent" points="-4,4 -4,-180 176,-180 176,4 -4,4"/>
<!-- Node1 -->
<g id="node1" class="node">
<title>Node1</title>
<g id="a_node1"><a xlink:title=" ">
<polygon fill="#bfbfbf" stroke="black" points="0,-0.5 0,-52.5 172,-52.5 172,-0.5 0,-0.5"/>
<text text-anchor="start" x="8" y="-40.5" font-family="Helvetica" font-size="10.00">boost::asio::detail</text>
<text text-anchor="start" x="8" y="-29.5" font-family="Helvetica" font-size="10.00">::reactive_socket_recv</text>
<text text-anchor="start" x="8" y="-18.5" font-family="Helvetica" font-size="10.00">_op_base_ext_local&lt; MutableBuffer</text>
<text text-anchor="middle" x="86" y="-7.5" font-family="Helvetica" font-size="10.00">Sequence &gt;</text>
</a>
</g>
</g>
<!-- Node2 -->
<g id="node2" class="node">
<title>Node2</title>
<g id="a_node2"><a xlink:href="classboost_1_1asio_1_1detail_1_1reactor__op__ext__local.html" target="_top" xlink:title=" ">
<polygon fill="white" stroke="black" points="29.5,-89.5 29.5,-119.5 142.5,-119.5 142.5,-89.5 29.5,-89.5"/>
<text text-anchor="start" x="37.5" y="-107.5" font-family="Helvetica" font-size="10.00">boost::asio::detail</text>
<text text-anchor="middle" x="86" y="-96.5" font-family="Helvetica" font-size="10.00">::reactor_op_ext_local</text>
</a>
</g>
</g>
<!-- Node2&#45;&gt;Node1 -->
<g id="edge1" class="edge">
<title>Node2&#45;&gt;Node1</title>
<path fill="none" stroke="midnightblue" d="M86,-79.14C86,-70.63 86,-61.07 86,-52.5"/>
<polygon fill="midnightblue" stroke="midnightblue" points="82.5,-79.2 86,-89.2 89.5,-79.21 82.5,-79.2"/>
</g>
<!-- Node3 -->
<g id="node3" class="node">
<title>Node3</title>
<g id="a_node3"><a xlink:title=" ">
<polygon fill="white" stroke="black" points="55,-156.5 55,-175.5 117,-175.5 117,-156.5 55,-156.5"/>
<text text-anchor="middle" x="86" y="-163.5" font-family="Helvetica" font-size="10.00">reactor_op</text>
</a>
</g>
</g>
<!-- Node3&#45;&gt;Node2 -->
<g id="edge2" class="edge">
<title>Node3&#45;&gt;Node2</title>
<path fill="none" stroke="midnightblue" d="M86,-146.23C86,-137.59 86,-127.5 86,-119.52"/>
<polygon fill="midnightblue" stroke="midnightblue" points="82.5,-146.48 86,-156.48 89.5,-146.48 82.5,-146.48"/>
</g>
</g>
</svg>
