<?xml version="1.0" encoding="UTF-8" standalone="no"?>
<!DOCTYPE svg PUBLIC "-//W3C//DTD SVG 1.1//EN"
 "http://www.w3.org/Graphics/SVG/1.1/DTD/svg11.dtd">
<!-- Generated by graphviz version 2.44.0 (0)
 -->
<!-- Title: vsomeip_v3::sd::configuration_option_impl Pages: 1 -->
<svg width="155pt" height="162pt"
 viewBox="0.00 0.00 155.00 162.00" xmlns="http://www.w3.org/2000/svg" xmlns:xlink="http://www.w3.org/1999/xlink">
<g id="graph0" class="graph" transform="scale(1 1) rotate(0) translate(4 158)">
<title>vsomeip_v3::sd::configuration_option_impl</title>
<polygon fill="white" stroke="transparent" points="-4,4 -4,-158 151,-158 151,4 -4,4"/>
<!-- Node1 -->
<g id="node1" class="node">
<title>Node1</title>
<g id="a_node1"><a xlink:title=" ">
<polygon fill="#bfbfbf" stroke="black" points="0,-0.5 0,-30.5 147,-30.5 147,-0.5 0,-0.5"/>
<text text-anchor="start" x="8" y="-18.5" font-family="Helvetica" font-size="10.00">vsomeip_v3::sd::configuration</text>
<text text-anchor="middle" x="73.5" y="-7.5" font-family="Helvetica" font-size="10.00">_option_impl</text>
</a>
</g>
</g>
<!-- Node2 -->
<g id="node2" class="node">
<title>Node2</title>
<g id="a_node2"><a xlink:href="classvsomeip__v3_1_1sd_1_1option__impl.html" target="_top" xlink:title=" ">
<polygon fill="white" stroke="black" points="3,-67.5 3,-86.5 144,-86.5 144,-67.5 3,-67.5"/>
<text text-anchor="middle" x="73.5" y="-74.5" font-family="Helvetica" font-size="10.00">vsomeip_v3::sd::option_impl</text>
</a>
</g>
</g>
<!-- Node2&#45;&gt;Node1 -->
<g id="edge1" class="edge">
<title>Node2&#45;&gt;Node1</title>
<path fill="none" stroke="midnightblue" d="M73.5,-57.23C73.5,-48.59 73.5,-38.5 73.5,-30.52"/>
<polygon fill="midnightblue" stroke="midnightblue" points="70,-57.48 73.5,-67.48 77,-57.48 70,-57.48"/>
</g>
<!-- Node3 -->
<g id="node3" class="node">
<title>Node3</title>
<g id="a_node3"><a xlink:href="classvsomeip__v3_1_1sd_1_1message__element__impl.html" target="_top" xlink:title=" ">
<polygon fill="white" stroke="black" points="8,-123.5 8,-153.5 139,-153.5 139,-123.5 8,-123.5"/>
<text text-anchor="start" x="16" y="-141.5" font-family="Helvetica" font-size="10.00">vsomeip_v3::sd::message</text>
<text text-anchor="middle" x="73.5" y="-130.5" font-family="Helvetica" font-size="10.00">_element_impl</text>
</a>
</g>
</g>
<!-- Node3&#45;&gt;Node2 -->
<g id="edge2" class="edge">
<title>Node3&#45;&gt;Node2</title>
<path fill="none" stroke="midnightblue" d="M73.5,-113.29C73.5,-103.86 73.5,-93.65 73.5,-86.66"/>
<polygon fill="midnightblue" stroke="midnightblue" points="70,-113.4 73.5,-123.4 77,-113.4 70,-113.4"/>
</g>
</g>
</svg>
