<?xml version="1.0" encoding="UTF-8" standalone="no"?>
<!DOCTYPE svg PUBLIC "-//W3C//DTD SVG 1.1//EN"
 "http://www.w3.org/Graphics/SVG/1.1/DTD/svg11.dtd">
<!-- Generated by graphviz version 2.44.0 (0)
 -->
<!-- Title: vsomeip_v3::virtual_server_endpoint_impl Pages: 1 -->
<svg width="262pt" height="117pt"
 viewBox="0.00 0.00 261.50 117.00" xmlns="http://www.w3.org/2000/svg" xmlns:xlink="http://www.w3.org/1999/xlink">
<g id="graph0" class="graph" transform="scale(1 1) rotate(0) translate(4 113)">
<title>vsomeip_v3::virtual_server_endpoint_impl</title>
<polygon fill="white" stroke="transparent" points="-4,4 -4,-113 257.5,-113 257.5,4 -4,4"/>
<!-- Node1 -->
<g id="node1" class="node">
<title>Node1</title>
<g id="a_node1"><a xlink:title=" ">
<polygon fill="#bfbfbf" stroke="black" points="67,-0.5 67,-30.5 181,-30.5 181,-0.5 67,-0.5"/>
<text text-anchor="start" x="75" y="-18.5" font-family="Helvetica" font-size="10.00">vsomeip_v3::virtual</text>
<text text-anchor="middle" x="124" y="-7.5" font-family="Helvetica" font-size="10.00">_server_endpoint_impl</text>
</a>
</g>
</g>
<!-- Node2 -->
<g id="node2" class="node">
<title>Node2</title>
<g id="a_node2"><a xlink:href="classvsomeip__v3_1_1endpoint.html" target="_top" xlink:title=" ">
<polygon fill="white" stroke="black" points="0,-78.5 0,-97.5 112,-97.5 112,-78.5 0,-78.5"/>
<text text-anchor="middle" x="56" y="-85.5" font-family="Helvetica" font-size="10.00">vsomeip_v3::endpoint</text>
</a>
</g>
</g>
<!-- Node2&#45;&gt;Node1 -->
<g id="edge1" class="edge">
<title>Node2&#45;&gt;Node1</title>
<path fill="none" stroke="midnightblue" d="M71.34,-71.09C83.09,-58.91 99.14,-42.27 110.42,-30.58"/>
<polygon fill="midnightblue" stroke="midnightblue" points="68.76,-68.73 64.34,-78.36 73.8,-73.59 68.76,-68.73"/>
</g>
<!-- Node3 -->
<g id="node3" class="node">
<title>Node3</title>
<g id="a_node3"><a xlink:title=" ">
<polygon fill="white" stroke="black" points="130.5,-67.5 130.5,-108.5 253.5,-108.5 253.5,-67.5 130.5,-67.5"/>
<text text-anchor="start" x="138.5" y="-96.5" font-family="Helvetica" font-size="10.00">std::enable_shared</text>
<text text-anchor="start" x="138.5" y="-85.5" font-family="Helvetica" font-size="10.00">_from_this&lt; virtual</text>
<text text-anchor="middle" x="192" y="-74.5" font-family="Helvetica" font-size="10.00">_server_endpoint_impl &gt;</text>
</a>
</g>
</g>
<!-- Node3&#45;&gt;Node1 -->
<g id="edge2" class="edge">
<title>Node3&#45;&gt;Node1</title>
<path fill="none" stroke="midnightblue" d="M165.98,-60.02C156.42,-50.11 145.96,-39.27 137.88,-30.89"/>
<polygon fill="midnightblue" stroke="midnightblue" points="163.6,-62.59 173.06,-67.36 168.64,-57.73 163.6,-62.59"/>
</g>
</g>
</svg>
