<?xml version="1.0" encoding="UTF-8" standalone="no"?>
<!DOCTYPE svg PUBLIC "-//W3C//DTD SVG 1.1//EN"
 "http://www.w3.org/Graphics/SVG/1.1/DTD/svg11.dtd">
<!-- Generated by graphviz version 2.44.0 (0)
 -->
<!-- Title: vsomeip_v3::configuration_plugin_impl Pages: 1 -->
<svg width="443pt" height="100pt"
 viewBox="0.00 0.00 443.00 99.50" xmlns="http://www.w3.org/2000/svg" xmlns:xlink="http://www.w3.org/1999/xlink">
<g id="graph0" class="graph" transform="scale(1 1) rotate(0) translate(4 95.5)">
<title>vsomeip_v3::configuration_plugin_impl</title>
<polygon fill="white" stroke="transparent" points="-4,4 -4,-95.5 439,-95.5 439,4 -4,4"/>
<!-- Node1 -->
<g id="node1" class="node">
<title>Node1</title>
<g id="a_node1"><a xlink:title=" ">
<polygon fill="#bfbfbf" stroke="black" points="304,-33 304,-63 435,-63 435,-33 304,-33"/>
<text text-anchor="start" x="312" y="-51" font-family="Helvetica" font-size="10.00">vsomeip_v3::configuration</text>
<text text-anchor="middle" x="369.5" y="-40" font-family="Helvetica" font-size="10.00">_plugin_impl</text>
</a>
</g>
</g>
<!-- Node2 -->
<g id="node2" class="node">
<title>Node2</title>
<g id="a_node2"><a xlink:href="classvsomeip__v3_1_1configuration__plugin.html" target="_top" xlink:title=" ">
<polygon fill="white" stroke="black" points="137,-61 137,-91 268,-91 268,-61 137,-61"/>
<text text-anchor="start" x="145" y="-79" font-family="Helvetica" font-size="10.00">vsomeip_v3::configuration</text>
<text text-anchor="middle" x="202.5" y="-68" font-family="Helvetica" font-size="10.00">_plugin</text>
</a>
</g>
</g>
<!-- Node2&#45;&gt;Node1 -->
<g id="edge1" class="edge">
<title>Node2&#45;&gt;Node1</title>
<path fill="none" stroke="midnightblue" d="M278.24,-63.32C286.82,-61.86 295.52,-60.39 303.95,-58.95"/>
<polygon fill="midnightblue" stroke="midnightblue" points="277.51,-59.89 268.24,-65.01 278.68,-66.79 277.51,-59.89"/>
</g>
<!-- Node3 -->
<g id="node3" class="node">
<title>Node3</title>
<g id="a_node3"><a xlink:href="classvsomeip__v3_1_1plugin__impl.html" target="_top" xlink:title=" ">
<polygon fill="white" stroke="black" points="150.5,-0.5 150.5,-41.5 254.5,-41.5 254.5,-0.5 150.5,-0.5"/>
<text text-anchor="start" x="158.5" y="-29.5" font-family="Helvetica" font-size="10.00">vsomeip_v3::plugin</text>
<text text-anchor="start" x="158.5" y="-18.5" font-family="Helvetica" font-size="10.00">_impl&lt; configuration</text>
<text text-anchor="middle" x="202.5" y="-7.5" font-family="Helvetica" font-size="10.00">_plugin_impl &gt;</text>
</a>
</g>
</g>
<!-- Node3&#45;&gt;Node1 -->
<g id="edge2" class="edge">
<title>Node3&#45;&gt;Node1</title>
<path fill="none" stroke="midnightblue" d="M264.83,-31.04C277.55,-33.12 290.99,-35.32 303.83,-37.42"/>
<polygon fill="midnightblue" stroke="midnightblue" points="265.24,-27.56 254.8,-29.39 264.11,-34.46 265.24,-27.56"/>
</g>
<!-- Node4 -->
<g id="node4" class="node">
<title>Node4</title>
<g id="a_node4"><a xlink:href="classvsomeip__v3_1_1plugin.html" target="_top" xlink:title=" ">
<polygon fill="white" stroke="black" points="0,-11.5 0,-30.5 101,-30.5 101,-11.5 0,-11.5"/>
<text text-anchor="middle" x="50.5" y="-18.5" font-family="Helvetica" font-size="10.00">vsomeip_v3::plugin</text>
</a>
</g>
</g>
<!-- Node4&#45;&gt;Node3 -->
<g id="edge3" class="edge">
<title>Node4&#45;&gt;Node3</title>
<path fill="none" stroke="midnightblue" d="M111.27,-21C124.26,-21 137.87,-21 150.48,-21"/>
<polygon fill="midnightblue" stroke="midnightblue" points="111.03,-17.5 101.03,-21 111.03,-24.5 111.03,-17.5"/>
</g>
</g>
</svg>
