<?xml version="1.0" encoding="UTF-8" standalone="no"?>
<!DOCTYPE svg PUBLIC "-//W3C//DTD SVG 1.1//EN"
 "http://www.w3.org/Graphics/SVG/1.1/DTD/svg11.dtd">
<!-- Generated by graphviz version 2.44.0 (0)
 -->
<!-- Title: vsomeip_v3::endpoint Pages: 1 -->
<svg width="601pt" height="382pt"
 viewBox="0.00 0.00 601.00 382.00" xmlns="http://www.w3.org/2000/svg" xmlns:xlink="http://www.w3.org/1999/xlink">
<g id="graph0" class="graph" transform="scale(1 1) rotate(0) translate(4 378)">
<title>vsomeip_v3::endpoint</title>
<polygon fill="white" stroke="transparent" points="-4,4 -4,-378 597,-378 597,4 -4,4"/>
<!-- Node1 -->
<g id="node1" class="node">
<title>Node1</title>
<g id="a_node1"><a xlink:title=" ">
<polygon fill="#bfbfbf" stroke="black" points="0,-251 0,-270 112,-270 112,-251 0,-251"/>
<text text-anchor="middle" x="56" y="-258" font-family="Helvetica" font-size="10.00">vsomeip_v3::endpoint</text>
</a>
</g>
</g>
<!-- Node2 -->
<g id="node2" class="node">
<title>Node2</title>
<g id="a_node2"><a xlink:href="classvsomeip__v3_1_1client__endpoint.html" target="_top" xlink:title=" ">
<polygon fill="white" stroke="black" points="156,-294.5 156,-324.5 254,-324.5 254,-294.5 156,-294.5"/>
<text text-anchor="start" x="164" y="-312.5" font-family="Helvetica" font-size="10.00">vsomeip_v3::client</text>
<text text-anchor="middle" x="205" y="-301.5" font-family="Helvetica" font-size="10.00">_endpoint</text>
</a>
</g>
</g>
<!-- Node1&#45;&gt;Node2 -->
<g id="edge1" class="edge">
<title>Node1&#45;&gt;Node2</title>
<path fill="none" stroke="midnightblue" d="M95.43,-273.31C114.87,-279.79 138.59,-287.7 158.89,-294.46"/>
<polygon fill="midnightblue" stroke="midnightblue" points="96.29,-269.91 85.69,-270.06 94.07,-276.55 96.29,-269.91"/>
</g>
<!-- Node8 -->
<g id="node8" class="node">
<title>Node8</title>
<g id="a_node8"><a xlink:href="classvsomeip__v3_1_1endpoint__impl.html" target="_top" xlink:title=" ">
<polygon fill="white" stroke="black" points="149,-245.5 149,-275.5 261,-275.5 261,-245.5 149,-245.5"/>
<text text-anchor="start" x="157" y="-263.5" font-family="Helvetica" font-size="10.00">vsomeip_v3::endpoint</text>
<text text-anchor="middle" x="205" y="-252.5" font-family="Helvetica" font-size="10.00">_impl&lt; Protocol &gt;</text>
</a>
</g>
</g>
<!-- Node1&#45;&gt;Node8 -->
<g id="edge7" class="edge">
<title>Node1&#45;&gt;Node8</title>
<path fill="none" stroke="midnightblue" d="M122.32,-260.5C131.07,-260.5 139.98,-260.5 148.54,-260.5"/>
<polygon fill="midnightblue" stroke="midnightblue" points="122.16,-257 112.16,-260.5 122.16,-264 122.16,-257"/>
</g>
<!-- Node15 -->
<g id="node15" class="node">
<title>Node15</title>
<g id="a_node15"><a xlink:href="classvsomeip__v3_1_1virtual__server__endpoint__impl.html" target="_top" xlink:title=" ">
<polygon fill="white" stroke="black" points="148,-196.5 148,-226.5 262,-226.5 262,-196.5 148,-196.5"/>
<text text-anchor="start" x="156" y="-214.5" font-family="Helvetica" font-size="10.00">vsomeip_v3::virtual</text>
<text text-anchor="middle" x="205" y="-203.5" font-family="Helvetica" font-size="10.00">_server_endpoint_impl</text>
</a>
</g>
</g>
<!-- Node1&#45;&gt;Node15 -->
<g id="edge18" class="edge">
<title>Node1&#45;&gt;Node15</title>
<path fill="none" stroke="midnightblue" d="M95.43,-247.69C114.87,-241.21 138.59,-233.3 158.89,-226.54"/>
<polygon fill="midnightblue" stroke="midnightblue" points="94.07,-244.45 85.69,-250.94 96.29,-251.09 94.07,-244.45"/>
</g>
<!-- Node3 -->
<g id="node3" class="node">
<title>Node3</title>
<g id="a_node3"><a xlink:href="classvsomeip__v3_1_1client__endpoint__impl.html" target="_top" xlink:title=" ">
<polygon fill="white" stroke="black" points="298,-294.5 298,-324.5 434,-324.5 434,-294.5 298,-294.5"/>
<text text-anchor="start" x="306" y="-312.5" font-family="Helvetica" font-size="10.00">vsomeip_v3::client</text>
<text text-anchor="middle" x="366" y="-301.5" font-family="Helvetica" font-size="10.00">_endpoint_impl&lt; Protocol &gt;</text>
</a>
</g>
</g>
<!-- Node2&#45;&gt;Node3 -->
<g id="edge2" class="edge">
<title>Node2&#45;&gt;Node3</title>
<path fill="none" stroke="midnightblue" d="M264.4,-309.5C275.32,-309.5 286.81,-309.5 297.96,-309.5"/>
<polygon fill="midnightblue" stroke="midnightblue" points="264.14,-306 254.14,-309.5 264.14,-313 264.14,-306"/>
</g>
<!-- Node4 -->
<g id="node4" class="node">
<title>Node4</title>
<g id="a_node4"><a xlink:href="classvsomeip__v3_1_1local__tcp__client__endpoint__impl.html" target="_top" xlink:title=" ">
<polygon fill="white" stroke="black" points="474.5,-343.5 474.5,-373.5 588.5,-373.5 588.5,-343.5 474.5,-343.5"/>
<text text-anchor="start" x="482.5" y="-361.5" font-family="Helvetica" font-size="10.00">vsomeip_v3::local_tcp</text>
<text text-anchor="middle" x="531.5" y="-350.5" font-family="Helvetica" font-size="10.00">_client_endpoint_impl</text>
</a>
</g>
</g>
<!-- Node3&#45;&gt;Node4 -->
<g id="edge3" class="edge">
<title>Node3&#45;&gt;Node4</title>
<path fill="none" stroke="midnightblue" d="M427.44,-327.61C444.82,-332.82 463.58,-338.45 480.28,-343.45"/>
<polygon fill="midnightblue" stroke="midnightblue" points="427.97,-324.12 417.39,-324.6 425.96,-330.82 427.97,-324.12"/>
</g>
<!-- Node5 -->
<g id="node5" class="node">
<title>Node5</title>
<g id="a_node5"><a xlink:href="classvsomeip__v3_1_1local__uds__client__endpoint__impl.html" target="_top" xlink:title=" ">
<polygon fill="white" stroke="black" points="473.5,-294.5 473.5,-324.5 589.5,-324.5 589.5,-294.5 473.5,-294.5"/>
<text text-anchor="start" x="481.5" y="-312.5" font-family="Helvetica" font-size="10.00">vsomeip_v3::local_uds</text>
<text text-anchor="middle" x="531.5" y="-301.5" font-family="Helvetica" font-size="10.00">_client_endpoint_impl</text>
</a>
</g>
</g>
<!-- Node3&#45;&gt;Node5 -->
<g id="edge4" class="edge">
<title>Node3&#45;&gt;Node5</title>
<path fill="none" stroke="midnightblue" d="M444.52,-309.5C454.24,-309.5 464.04,-309.5 473.37,-309.5"/>
<polygon fill="midnightblue" stroke="midnightblue" points="444.45,-306 434.45,-309.5 444.45,-313 444.45,-306"/>
</g>
<!-- Node6 -->
<g id="node6" class="node">
<title>Node6</title>
<g id="a_node6"><a xlink:href="classvsomeip__v3_1_1tcp__client__endpoint__impl.html" target="_top" xlink:title=" ">
<polygon fill="white" stroke="black" points="473,-245.5 473,-275.5 590,-275.5 590,-245.5 473,-245.5"/>
<text text-anchor="start" x="481" y="-263.5" font-family="Helvetica" font-size="10.00">vsomeip_v3::tcp_client</text>
<text text-anchor="middle" x="531.5" y="-252.5" font-family="Helvetica" font-size="10.00">_endpoint_impl</text>
</a>
</g>
</g>
<!-- Node3&#45;&gt;Node6 -->
<g id="edge5" class="edge">
<title>Node3&#45;&gt;Node6</title>
<path fill="none" stroke="midnightblue" d="M427.44,-291.39C444.82,-286.18 463.58,-280.55 480.28,-275.55"/>
<polygon fill="midnightblue" stroke="midnightblue" points="425.96,-288.18 417.39,-294.4 427.97,-294.88 425.96,-288.18"/>
</g>
<!-- Node7 -->
<g id="node7" class="node">
<title>Node7</title>
<g id="a_node7"><a xlink:href="classvsomeip__v3_1_1udp__client__endpoint__impl.html" target="_top" xlink:title=" ">
<polygon fill="white" stroke="black" points="472,-196.5 472,-226.5 591,-226.5 591,-196.5 472,-196.5"/>
<text text-anchor="start" x="480" y="-214.5" font-family="Helvetica" font-size="10.00">vsomeip_v3::udp_client</text>
<text text-anchor="middle" x="531.5" y="-203.5" font-family="Helvetica" font-size="10.00">_endpoint_impl</text>
</a>
</g>
</g>
<!-- Node3&#45;&gt;Node7 -->
<g id="edge6" class="edge">
<title>Node3&#45;&gt;Node7</title>
<path fill="none" stroke="midnightblue" d="M428.21,-289.42C430.21,-288.19 432.15,-286.88 434,-285.5 455.67,-269.35 448.73,-253.16 470,-236.5 474.83,-232.72 480.32,-229.42 485.96,-226.56"/>
<polygon fill="midnightblue" stroke="midnightblue" points="426.19,-286.54 419.09,-294.4 429.54,-292.68 426.19,-286.54"/>
</g>
<!-- Node9 -->
<g id="node9" class="node">
<title>Node9</title>
<g id="a_node9"><a xlink:href="classvsomeip__v3_1_1client__endpoint__impl.html" target="_top" xlink:title=" ">
<polygon fill="white" stroke="black" points="298,-245.5 298,-275.5 434,-275.5 434,-245.5 298,-245.5"/>
<text text-anchor="start" x="306" y="-263.5" font-family="Helvetica" font-size="10.00">vsomeip_v3::client</text>
<text text-anchor="middle" x="366" y="-252.5" font-family="Helvetica" font-size="10.00">_endpoint_impl&lt; Protocol &gt;</text>
</a>
</g>
</g>
<!-- Node8&#45;&gt;Node9 -->
<g id="edge8" class="edge">
<title>Node8&#45;&gt;Node9</title>
<path fill="none" stroke="midnightblue" d="M271.32,-260.5C280.08,-260.5 289.08,-260.5 297.88,-260.5"/>
<polygon fill="midnightblue" stroke="midnightblue" points="271.16,-257 261.16,-260.5 271.16,-264 271.16,-257"/>
</g>
<!-- Node10 -->
<g id="node10" class="node">
<title>Node10</title>
<g id="a_node10"><a xlink:href="classvsomeip__v3_1_1server__endpoint__impl.html" target="_top" xlink:title=" ">
<polygon fill="white" stroke="black" points="298,-98.5 298,-128.5 434,-128.5 434,-98.5 298,-98.5"/>
<text text-anchor="start" x="306" y="-116.5" font-family="Helvetica" font-size="10.00">vsomeip_v3::server</text>
<text text-anchor="middle" x="366" y="-105.5" font-family="Helvetica" font-size="10.00">_endpoint_impl&lt; Protocol &gt;</text>
</a>
</g>
</g>
<!-- Node8&#45;&gt;Node10 -->
<g id="edge13" class="edge">
<title>Node8&#45;&gt;Node10</title>
<path fill="none" stroke="midnightblue" d="M256.28,-240.4C258.26,-239.16 260.17,-237.86 262,-236.5 303.8,-205.43 339.49,-154.12 355.7,-128.72"/>
<polygon fill="midnightblue" stroke="midnightblue" points="254.29,-237.5 247.31,-245.47 257.73,-243.6 254.29,-237.5"/>
</g>
<!-- Node9&#45;&gt;Node4 -->
<g id="edge9" class="edge">
<title>Node9&#45;&gt;Node4</title>
<path fill="none" stroke="midnightblue" d="M426.26,-280.32C428.95,-281.93 431.55,-283.65 434,-285.5 455.56,-301.79 448.61,-317.99 470,-334.5 474.38,-337.88 479.3,-340.85 484.4,-343.44"/>
<polygon fill="midnightblue" stroke="midnightblue" points="427.83,-277.19 417.36,-275.57 424.54,-283.37 427.83,-277.19"/>
</g>
<!-- Node9&#45;&gt;Node5 -->
<g id="edge10" class="edge">
<title>Node9&#45;&gt;Node5</title>
<path fill="none" stroke="midnightblue" d="M427.44,-278.61C444.82,-283.82 463.58,-289.45 480.28,-294.45"/>
<polygon fill="midnightblue" stroke="midnightblue" points="427.97,-275.12 417.39,-275.6 425.96,-281.82 427.97,-275.12"/>
</g>
<!-- Node9&#45;&gt;Node6 -->
<g id="edge11" class="edge">
<title>Node9&#45;&gt;Node6</title>
<path fill="none" stroke="midnightblue" d="M444.69,-260.5C454.17,-260.5 463.73,-260.5 472.85,-260.5"/>
<polygon fill="midnightblue" stroke="midnightblue" points="444.45,-257 434.45,-260.5 444.45,-264 444.45,-257"/>
</g>
<!-- Node9&#45;&gt;Node7 -->
<g id="edge12" class="edge">
<title>Node9&#45;&gt;Node7</title>
<path fill="none" stroke="midnightblue" d="M427.44,-242.39C444.82,-237.18 463.58,-231.55 480.28,-226.55"/>
<polygon fill="midnightblue" stroke="midnightblue" points="425.96,-239.18 417.39,-245.4 427.97,-245.88 425.96,-239.18"/>
</g>
<!-- Node11 -->
<g id="node11" class="node">
<title>Node11</title>
<g id="a_node11"><a xlink:href="classvsomeip__v3_1_1local__tcp__server__endpoint__impl.html" target="_top" xlink:title=" ">
<polygon fill="white" stroke="black" points="474.5,-147.5 474.5,-177.5 588.5,-177.5 588.5,-147.5 474.5,-147.5"/>
<text text-anchor="start" x="482.5" y="-165.5" font-family="Helvetica" font-size="10.00">vsomeip_v3::local_tcp</text>
<text text-anchor="middle" x="531.5" y="-154.5" font-family="Helvetica" font-size="10.00">_server_endpoint_impl</text>
</a>
</g>
</g>
<!-- Node10&#45;&gt;Node11 -->
<g id="edge14" class="edge">
<title>Node10&#45;&gt;Node11</title>
<path fill="none" stroke="midnightblue" d="M427.44,-131.61C444.82,-136.82 463.58,-142.45 480.28,-147.45"/>
<polygon fill="midnightblue" stroke="midnightblue" points="427.97,-128.12 417.39,-128.6 425.96,-134.82 427.97,-128.12"/>
</g>
<!-- Node12 -->
<g id="node12" class="node">
<title>Node12</title>
<g id="a_node12"><a xlink:href="classvsomeip__v3_1_1local__uds__server__endpoint__impl.html" target="_top" xlink:title=" ">
<polygon fill="white" stroke="black" points="473.5,-98.5 473.5,-128.5 589.5,-128.5 589.5,-98.5 473.5,-98.5"/>
<text text-anchor="start" x="481.5" y="-116.5" font-family="Helvetica" font-size="10.00">vsomeip_v3::local_uds</text>
<text text-anchor="middle" x="531.5" y="-105.5" font-family="Helvetica" font-size="10.00">_server_endpoint_impl</text>
</a>
</g>
</g>
<!-- Node10&#45;&gt;Node12 -->
<g id="edge15" class="edge">
<title>Node10&#45;&gt;Node12</title>
<path fill="none" stroke="midnightblue" d="M444.52,-113.5C454.24,-113.5 464.04,-113.5 473.37,-113.5"/>
<polygon fill="midnightblue" stroke="midnightblue" points="444.45,-110 434.45,-113.5 444.45,-117 444.45,-110"/>
</g>
<!-- Node13 -->
<g id="node13" class="node">
<title>Node13</title>
<g id="a_node13"><a xlink:href="classvsomeip__v3_1_1tcp__server__endpoint__impl.html" target="_top" xlink:title=" ">
<polygon fill="white" stroke="black" points="471,-49.5 471,-79.5 592,-79.5 592,-49.5 471,-49.5"/>
<text text-anchor="start" x="479" y="-67.5" font-family="Helvetica" font-size="10.00">vsomeip_v3::tcp_server</text>
<text text-anchor="middle" x="531.5" y="-56.5" font-family="Helvetica" font-size="10.00">_endpoint_impl</text>
</a>
</g>
</g>
<!-- Node10&#45;&gt;Node13 -->
<g id="edge16" class="edge">
<title>Node10&#45;&gt;Node13</title>
<path fill="none" stroke="midnightblue" d="M427.44,-95.39C444.82,-90.18 463.58,-84.55 480.28,-79.55"/>
<polygon fill="midnightblue" stroke="midnightblue" points="425.96,-92.18 417.39,-98.4 427.97,-98.88 425.96,-92.18"/>
</g>
<!-- Node14 -->
<g id="node14" class="node">
<title>Node14</title>
<g id="a_node14"><a xlink:href="classvsomeip__v3_1_1udp__server__endpoint__impl.html" target="_top" xlink:title=" ">
<polygon fill="white" stroke="black" points="470,-0.5 470,-30.5 593,-30.5 593,-0.5 470,-0.5"/>
<text text-anchor="start" x="478" y="-18.5" font-family="Helvetica" font-size="10.00">vsomeip_v3::udp_server</text>
<text text-anchor="middle" x="531.5" y="-7.5" font-family="Helvetica" font-size="10.00">_endpoint_impl</text>
</a>
</g>
</g>
<!-- Node10&#45;&gt;Node14 -->
<g id="edge17" class="edge">
<title>Node10&#45;&gt;Node14</title>
<path fill="none" stroke="midnightblue" d="M393.61,-92.11C413.79,-76.54 442.63,-55.6 470,-40.5 476.47,-36.93 483.55,-33.56 490.52,-30.52"/>
<polygon fill="midnightblue" stroke="midnightblue" points="391.25,-89.52 385.52,-98.43 395.55,-95.03 391.25,-89.52"/>
</g>
</g>
</svg>
