<?xml version="1.0" encoding="UTF-8" standalone="no"?>
<!DOCTYPE svg PUBLIC "-//W3C//DTD SVG 1.1//EN"
 "http://www.w3.org/Graphics/SVG/1.1/DTD/svg11.dtd">
<!-- Generated by graphviz version 2.44.0 (0)
 -->
<!-- Title: vsomeip_v3::application Pages: 1 -->
<svg width="300pt" height="84pt"
 viewBox="0.00 0.00 300.00 84.00" xmlns="http://www.w3.org/2000/svg" xmlns:xlink="http://www.w3.org/1999/xlink">
<g id="graph0" class="graph" transform="scale(1 1) rotate(0) translate(4 80)">
<title>vsomeip_v3::application</title>
<polygon fill="white" stroke="transparent" points="-4,4 -4,-80 296,-80 296,4 -4,4"/>
<!-- Node1 -->
<g id="node1" class="node">
<title>Node1</title>
<g id="a_node1"><a xlink:title="This class contains the public API of the vsomeip implementation.">
<polygon fill="#bfbfbf" stroke="black" points="80.5,-56.5 80.5,-75.5 202.5,-75.5 202.5,-56.5 80.5,-56.5"/>
<text text-anchor="middle" x="141.5" y="-63.5" font-family="Helvetica" font-size="10.00">vsomeip_v3::application</text>
</a>
</g>
</g>
<!-- Node2 -->
<g id="node2" class="node">
<title>Node2</title>
<g id="a_node2"><a xlink:href="classvsomeip_1_1application__impl.html" target="_top" xlink:title=" ">
<polygon fill="white" stroke="black" points="0,-0.5 0,-19.5 129,-19.5 129,-0.5 0,-0.5"/>
<text text-anchor="middle" x="64.5" y="-7.5" font-family="Helvetica" font-size="10.00">vsomeip::application_impl</text>
</a>
</g>
</g>
<!-- Node1&#45;&gt;Node2 -->
<g id="edge1" class="edge">
<title>Node1&#45;&gt;Node2</title>
<path fill="none" stroke="midnightblue" d="M120.6,-50.34C106.59,-40.52 88.62,-27.91 76.84,-19.65"/>
<polygon fill="midnightblue" stroke="midnightblue" points="118.93,-53.45 129.13,-56.32 122.95,-47.72 118.93,-53.45"/>
</g>
<!-- Node3 -->
<g id="node3" class="node">
<title>Node3</title>
<g id="a_node3"><a xlink:href="classvsomeip__v3_1_1application__impl.html" target="_top" xlink:title=" ">
<polygon fill="white" stroke="black" points="147,-0.5 147,-19.5 292,-19.5 292,-0.5 147,-0.5"/>
<text text-anchor="middle" x="219.5" y="-7.5" font-family="Helvetica" font-size="10.00">vsomeip_v3::application_impl</text>
</a>
</g>
</g>
<!-- Node1&#45;&gt;Node3 -->
<g id="edge2" class="edge">
<title>Node1&#45;&gt;Node3</title>
<path fill="none" stroke="midnightblue" d="M162.27,-50.62C176.52,-40.76 194.96,-27.99 207,-19.65"/>
<polygon fill="midnightblue" stroke="midnightblue" points="160.26,-47.75 154.03,-56.32 164.25,-53.51 160.26,-47.75"/>
</g>
</g>
</svg>
