<?xml version="1.0" encoding="UTF-8" standalone="no"?>
<!DOCTYPE svg PUBLIC "-//W3C//DTD SVG 1.1//EN"
 "http://www.w3.org/Graphics/SVG/1.1/DTD/svg11.dtd">
<!-- Generated by graphviz version 2.44.0 (0)
 -->
<!-- Title: vsomeip_v3::serializable Pages: 1 -->
<svg width="685pt" height="252pt"
 viewBox="0.00 0.00 685.00 252.00" xmlns="http://www.w3.org/2000/svg" xmlns:xlink="http://www.w3.org/1999/xlink">
<g id="graph0" class="graph" transform="scale(1 1) rotate(0) translate(4 248)">
<title>vsomeip_v3::serializable</title>
<polygon fill="white" stroke="transparent" points="-4,4 -4,-248 681,-248 681,4 -4,4"/>
<!-- Node1 -->
<g id="node1" class="node">
<title>Node1</title>
<g id="a_node1"><a xlink:title=" ">
<polygon fill="#bfbfbf" stroke="black" points="0,-123.5 0,-142.5 124,-142.5 124,-123.5 0,-123.5"/>
<text text-anchor="middle" x="62" y="-130.5" font-family="Helvetica" font-size="10.00">vsomeip_v3::serializable</text>
</a>
</g>
</g>
<!-- Node2 -->
<g id="node2" class="node">
<title>Node2</title>
<g id="a_node2"><a xlink:href="classvsomeip_1_1message__base.html" target="_top" xlink:title="Base class to implement SOME/IP messages.">
<polygon fill="white" stroke="black" points="168,-199.5 168,-218.5 293,-218.5 293,-199.5 168,-199.5"/>
<text text-anchor="middle" x="230.5" y="-206.5" font-family="Helvetica" font-size="10.00">vsomeip::message_base</text>
</a>
</g>
</g>
<!-- Node1&#45;&gt;Node2 -->
<g id="edge1" class="edge">
<title>Node1&#45;&gt;Node2</title>
<path fill="none" stroke="midnightblue" d="M85.08,-148.27C104.19,-160.91 132.93,-178.59 160,-190 168.64,-193.65 178.19,-196.79 187.36,-199.4"/>
<polygon fill="midnightblue" stroke="midnightblue" points="86.78,-145.19 76.53,-142.52 82.87,-151 86.78,-145.19"/>
</g>
<!-- Node3 -->
<g id="node3" class="node">
<title>Node3</title>
<g id="a_node3"><a xlink:href="classvsomeip_1_1payload.html" target="_top" xlink:title="This class implements an array of bytes to be used as payload for SOME/IP messages.">
<polygon fill="white" stroke="black" points="184,-161.5 184,-180.5 277,-180.5 277,-161.5 184,-161.5"/>
<text text-anchor="middle" x="230.5" y="-168.5" font-family="Helvetica" font-size="10.00">vsomeip::payload</text>
</a>
</g>
</g>
<!-- Node1&#45;&gt;Node3 -->
<g id="edge2" class="edge">
<title>Node1&#45;&gt;Node3</title>
<path fill="none" stroke="midnightblue" d="M114.81,-144.82C138.28,-150.18 165.67,-156.43 187.79,-161.48"/>
<polygon fill="midnightblue" stroke="midnightblue" points="115.54,-141.4 105.01,-142.59 113.99,-148.23 115.54,-141.4"/>
</g>
<!-- Node4 -->
<g id="node4" class="node">
<title>Node4</title>
<g id="a_node4"><a xlink:href="classvsomeip__v3_1_1message__base.html" target="_top" xlink:title="Base class to implement SOME/IP messages.">
<polygon fill="white" stroke="black" points="160,-123.5 160,-142.5 301,-142.5 301,-123.5 160,-123.5"/>
<text text-anchor="middle" x="230.5" y="-130.5" font-family="Helvetica" font-size="10.00">vsomeip_v3::message_base</text>
</a>
</g>
</g>
<!-- Node1&#45;&gt;Node4 -->
<g id="edge3" class="edge">
<title>Node1&#45;&gt;Node4</title>
<path fill="none" stroke="midnightblue" d="M134.25,-133C142.69,-133 151.3,-133 159.72,-133"/>
<polygon fill="midnightblue" stroke="midnightblue" points="134.05,-129.5 124.05,-133 134.05,-136.5 134.05,-129.5"/>
</g>
<!-- Node12 -->
<g id="node12" class="node">
<title>Node12</title>
<g id="a_node12"><a xlink:href="classvsomeip__v3_1_1message__header__impl.html" target="_top" xlink:title=" ">
<polygon fill="white" stroke="black" points="173,-74 173,-104 288,-104 288,-74 173,-74"/>
<text text-anchor="start" x="181" y="-92" font-family="Helvetica" font-size="10.00">vsomeip_v3::message</text>
<text text-anchor="middle" x="230.5" y="-81" font-family="Helvetica" font-size="10.00">_header_impl</text>
</a>
</g>
</g>
<!-- Node1&#45;&gt;Node12 -->
<g id="edge14" class="edge">
<title>Node1&#45;&gt;Node12</title>
<path fill="none" stroke="midnightblue" d="M108.82,-120.89C128.61,-115.66 151.96,-109.49 172.82,-103.98"/>
<polygon fill="midnightblue" stroke="midnightblue" points="107.9,-117.51 99.13,-123.45 109.69,-124.28 107.9,-117.51"/>
</g>
<!-- Node13 -->
<g id="node13" class="node">
<title>Node13</title>
<g id="a_node13"><a xlink:href="classvsomeip__v3_1_1payload.html" target="_top" xlink:title="This class implements an array of bytes to be used as payload for SOME/IP messages.">
<polygon fill="white" stroke="black" points="176,-35.5 176,-54.5 285,-54.5 285,-35.5 176,-35.5"/>
<text text-anchor="middle" x="230.5" y="-42.5" font-family="Helvetica" font-size="10.00">vsomeip_v3::payload</text>
</a>
</g>
</g>
<!-- Node1&#45;&gt;Node13 -->
<g id="edge15" class="edge">
<title>Node1&#45;&gt;Node13</title>
<path fill="none" stroke="midnightblue" d="M81.54,-116.76C100.2,-101.19 130.36,-78.05 160,-64 167.91,-60.25 176.69,-57.13 185.28,-54.58"/>
<polygon fill="midnightblue" stroke="midnightblue" points="79.18,-114.18 73.83,-123.32 83.71,-119.51 79.18,-114.18"/>
</g>
<!-- Node5 -->
<g id="node5" class="node">
<title>Node5</title>
<g id="a_node5"><a xlink:href="classvsomeip_1_1message.html" target="_top" xlink:title="Implements regular SOME/IP messages.">
<polygon fill="white" stroke="black" points="362,-120.5 362,-139.5 461,-139.5 461,-120.5 362,-120.5"/>
<text text-anchor="middle" x="411.5" y="-127.5" font-family="Helvetica" font-size="10.00">vsomeip::message</text>
</a>
</g>
</g>
<!-- Node4&#45;&gt;Node5 -->
<g id="edge4" class="edge">
<title>Node4&#45;&gt;Node5</title>
<path fill="none" stroke="midnightblue" d="M311.32,-131.66C328.59,-131.37 346.36,-131.07 362,-130.81"/>
<polygon fill="midnightblue" stroke="midnightblue" points="311.16,-128.16 301.22,-131.83 311.28,-135.16 311.16,-128.16"/>
</g>
<!-- Node6 -->
<g id="node6" class="node">
<title>Node6</title>
<g id="a_node6"><a xlink:href="classvsomeip_1_1message__base__impl.html" target="_top" xlink:title=" ">
<polygon fill="white" stroke="black" points="337,-82.5 337,-101.5 486,-101.5 486,-82.5 337,-82.5"/>
<text text-anchor="middle" x="411.5" y="-89.5" font-family="Helvetica" font-size="10.00">vsomeip::message_base_impl</text>
</a>
</g>
</g>
<!-- Node4&#45;&gt;Node6 -->
<g id="edge5" class="edge">
<title>Node4&#45;&gt;Node6</title>
<path fill="none" stroke="midnightblue" d="M282.78,-121.25C310.08,-115 343.22,-107.41 368.9,-101.53"/>
<polygon fill="midnightblue" stroke="midnightblue" points="281.98,-117.85 273.02,-123.49 283.55,-124.67 281.98,-117.85"/>
</g>
<!-- Node7 -->
<g id="node7" class="node">
<title>Node7</title>
<g id="a_node7"><a xlink:href="classvsomeip__v3_1_1message.html" target="_top" xlink:title="Implements regular SOME/IP messages.">
<polygon fill="white" stroke="black" points="354,-208.5 354,-227.5 469,-227.5 469,-208.5 354,-208.5"/>
<text text-anchor="middle" x="411.5" y="-215.5" font-family="Helvetica" font-size="10.00">vsomeip_v3::message</text>
</a>
</g>
</g>
<!-- Node4&#45;&gt;Node7 -->
<g id="edge6" class="edge">
<title>Node4&#45;&gt;Node7</title>
<path fill="none" stroke="midnightblue" d="M291.17,-146.42C294.6,-148.07 297.91,-149.92 301,-152 322.83,-166.68 315.06,-184.47 337,-199 342.82,-202.86 349.39,-205.93 356.13,-208.38"/>
<polygon fill="midnightblue" stroke="midnightblue" points="292.41,-143.15 281.83,-142.51 289.7,-149.61 292.41,-143.15"/>
</g>
<!-- Node11 -->
<g id="node11" class="node">
<title>Node11</title>
<g id="a_node11"><a xlink:href="classvsomeip__v3_1_1message__base__impl.html" target="_top" xlink:title=" ">
<polygon fill="white" stroke="black" points="354,-159 354,-189 469,-189 469,-159 354,-159"/>
<text text-anchor="start" x="362" y="-177" font-family="Helvetica" font-size="10.00">vsomeip_v3::message</text>
<text text-anchor="middle" x="411.5" y="-166" font-family="Helvetica" font-size="10.00">_base_impl</text>
</a>
</g>
</g>
<!-- Node4&#45;&gt;Node11 -->
<g id="edge10" class="edge">
<title>Node4&#45;&gt;Node11</title>
<path fill="none" stroke="midnightblue" d="M282.93,-144.78C305.14,-149.87 331.2,-155.84 353.96,-161.05"/>
<polygon fill="midnightblue" stroke="midnightblue" points="283.55,-141.33 273.02,-142.51 281.98,-148.15 283.55,-141.33"/>
</g>
<!-- Node8 -->
<g id="node8" class="node">
<title>Node8</title>
<g id="a_node8"><a xlink:href="classvsomeip_1_1message__impl.html" target="_top" xlink:title=" ">
<polygon fill="white" stroke="black" points="538.5,-224.5 538.5,-243.5 660.5,-243.5 660.5,-224.5 538.5,-224.5"/>
<text text-anchor="middle" x="599.5" y="-231.5" font-family="Helvetica" font-size="10.00">vsomeip::message_impl</text>
</a>
</g>
</g>
<!-- Node7&#45;&gt;Node8 -->
<g id="edge7" class="edge">
<title>Node7&#45;&gt;Node8</title>
<path fill="none" stroke="midnightblue" d="M479.28,-223.74C498.56,-225.4 519.48,-227.2 538.33,-228.82"/>
<polygon fill="midnightblue" stroke="midnightblue" points="479.33,-220.24 469.06,-222.87 478.73,-227.21 479.33,-220.24"/>
</g>
<!-- Node9 -->
<g id="node9" class="node">
<title>Node9</title>
<g id="a_node9"><a xlink:href="classvsomeip__v3_1_1message__impl.html" target="_top" xlink:title=" ">
<polygon fill="white" stroke="black" points="530.5,-186.5 530.5,-205.5 668.5,-205.5 668.5,-186.5 530.5,-186.5"/>
<text text-anchor="middle" x="599.5" y="-193.5" font-family="Helvetica" font-size="10.00">vsomeip_v3::message_impl</text>
</a>
</g>
</g>
<!-- Node7&#45;&gt;Node9 -->
<g id="edge8" class="edge">
<title>Node7&#45;&gt;Node9</title>
<path fill="none" stroke="midnightblue" d="M479.24,-210.11C495.87,-208.14 513.72,-206.03 530.41,-204.05"/>
<polygon fill="midnightblue" stroke="midnightblue" points="478.58,-206.66 469.06,-211.31 479.41,-213.61 478.58,-206.66"/>
</g>
<!-- Node10 -->
<g id="node10" class="node">
<title>Node10</title>
<g id="a_node10"><a xlink:href="classvsomeip__v3_1_1sd_1_1message__impl.html" target="_top" xlink:title=" ">
<polygon fill="white" stroke="black" points="522,-148.5 522,-167.5 677,-167.5 677,-148.5 522,-148.5"/>
<text text-anchor="middle" x="599.5" y="-155.5" font-family="Helvetica" font-size="10.00">vsomeip_v3::sd::message_impl</text>
</a>
</g>
</g>
<!-- Node7&#45;&gt;Node10 -->
<g id="edge9" class="edge">
<title>Node7&#45;&gt;Node10</title>
<path fill="none" stroke="midnightblue" d="M467.97,-205.55C474.14,-203.61 480.27,-201.43 486,-199 503.27,-191.68 504.7,-184.23 522,-177 530.96,-173.25 540.84,-170.12 550.43,-167.55"/>
<polygon fill="midnightblue" stroke="midnightblue" points="466.89,-202.22 458.29,-208.4 468.87,-208.93 466.89,-202.22"/>
</g>
<!-- Node11&#45;&gt;Node8 -->
<g id="edge11" class="edge">
<title>Node11&#45;&gt;Node8</title>
<path fill="none" stroke="midnightblue" d="M468.79,-192.56C474.63,-194.66 480.45,-196.83 486,-199 502.3,-205.38 505.44,-209.31 522,-215 532.35,-218.56 543.71,-221.75 554.42,-224.45"/>
<polygon fill="midnightblue" stroke="midnightblue" points="469.59,-189.13 459,-189.1 467.26,-195.73 469.59,-189.13"/>
</g>
<!-- Node11&#45;&gt;Node9 -->
<g id="edge12" class="edge">
<title>Node11&#45;&gt;Node9</title>
<path fill="none" stroke="midnightblue" d="M479.24,-181.89C495.87,-183.86 513.72,-185.97 530.41,-187.95"/>
<polygon fill="midnightblue" stroke="midnightblue" points="479.41,-178.39 469.06,-180.69 478.58,-185.34 479.41,-178.39"/>
</g>
<!-- Node11&#45;&gt;Node10 -->
<g id="edge13" class="edge">
<title>Node11&#45;&gt;Node10</title>
<path fill="none" stroke="midnightblue" d="M479.43,-168.24C493.23,-167.06 507.86,-165.8 521.97,-164.58"/>
<polygon fill="midnightblue" stroke="midnightblue" points="478.73,-164.79 469.06,-169.13 479.33,-171.76 478.73,-164.79"/>
</g>
<!-- Node14 -->
<g id="node14" class="node">
<title>Node14</title>
<g id="a_node14"><a xlink:href="classvsomeip_1_1payload__impl.html" target="_top" xlink:title=" ">
<polygon fill="white" stroke="black" points="353.5,-38.5 353.5,-57.5 469.5,-57.5 469.5,-38.5 353.5,-38.5"/>
<text text-anchor="middle" x="411.5" y="-45.5" font-family="Helvetica" font-size="10.00">vsomeip::payload_impl</text>
</a>
</g>
</g>
<!-- Node13&#45;&gt;Node14 -->
<g id="edge16" class="edge">
<title>Node13&#45;&gt;Node14</title>
<path fill="none" stroke="midnightblue" d="M295.25,-46.07C314.22,-46.39 334.89,-46.73 353.41,-47.04"/>
<polygon fill="midnightblue" stroke="midnightblue" points="295.26,-42.57 285.21,-45.9 295.15,-49.57 295.26,-42.57"/>
</g>
<!-- Node15 -->
<g id="node15" class="node">
<title>Node15</title>
<g id="a_node15"><a xlink:href="classvsomeip__v3_1_1payload__impl.html" target="_top" xlink:title=" ">
<polygon fill="white" stroke="black" points="345.5,-0.5 345.5,-19.5 477.5,-19.5 477.5,-0.5 345.5,-0.5"/>
<text text-anchor="middle" x="411.5" y="-7.5" font-family="Helvetica" font-size="10.00">vsomeip_v3::payload_impl</text>
</a>
</g>
</g>
<!-- Node13&#45;&gt;Node15 -->
<g id="edge17" class="edge">
<title>Node13&#45;&gt;Node15</title>
<path fill="none" stroke="midnightblue" d="M290.43,-33.48C313.5,-28.97 339.65,-23.85 361.65,-19.55"/>
<polygon fill="midnightblue" stroke="midnightblue" points="289.56,-30.08 280.41,-35.44 290.9,-36.95 289.56,-30.08"/>
</g>
</g>
</svg>
