<?xml version="1.0" encoding="UTF-8" standalone="no"?>
<!DOCTYPE svg PUBLIC "-//W3C//DTD SVG 1.1//EN"
 "http://www.w3.org/Graphics/SVG/1.1/DTD/svg11.dtd">
<!-- Generated by graphviz version 2.44.0 (0)
 -->
<!-- Title: vsomeip_v3::sd::eventgroupentry_impl Pages: 1 -->
<svg width="193pt" height="151pt"
 viewBox="0.00 0.00 193.00 151.00" xmlns="http://www.w3.org/2000/svg" xmlns:xlink="http://www.w3.org/1999/xlink">
<g id="graph0" class="graph" transform="scale(1 1) rotate(0) translate(4 147)">
<title>vsomeip_v3::sd::eventgroupentry_impl</title>
<polygon fill="white" stroke="transparent" points="-4,4 -4,-147 189,-147 189,4 -4,4"/>
<!-- Node1 -->
<g id="node1" class="node">
<title>Node1</title>
<g id="a_node1"><a xlink:title=" ">
<polygon fill="#bfbfbf" stroke="black" points="0,-0.5 0,-19.5 185,-19.5 185,-0.5 0,-0.5"/>
<text text-anchor="middle" x="92.5" y="-7.5" font-family="Helvetica" font-size="10.00">vsomeip_v3::sd::eventgroupentry_impl</text>
</a>
</g>
</g>
<!-- Node2 -->
<g id="node2" class="node">
<title>Node2</title>
<g id="a_node2"><a xlink:href="classvsomeip__v3_1_1sd_1_1entry__impl.html" target="_top" xlink:title=" ">
<polygon fill="white" stroke="black" points="24,-56.5 24,-75.5 161,-75.5 161,-56.5 24,-56.5"/>
<text text-anchor="middle" x="92.5" y="-63.5" font-family="Helvetica" font-size="10.00">vsomeip_v3::sd::entry_impl</text>
</a>
</g>
</g>
<!-- Node2&#45;&gt;Node1 -->
<g id="edge1" class="edge">
<title>Node2&#45;&gt;Node1</title>
<path fill="none" stroke="midnightblue" d="M92.5,-45.8C92.5,-36.91 92.5,-26.78 92.5,-19.75"/>
<polygon fill="midnightblue" stroke="midnightblue" points="89,-46.08 92.5,-56.08 96,-46.08 89,-46.08"/>
</g>
<!-- Node3 -->
<g id="node3" class="node">
<title>Node3</title>
<g id="a_node3"><a xlink:href="classvsomeip__v3_1_1sd_1_1message__element__impl.html" target="_top" xlink:title=" ">
<polygon fill="white" stroke="black" points="27,-112.5 27,-142.5 158,-142.5 158,-112.5 27,-112.5"/>
<text text-anchor="start" x="35" y="-130.5" font-family="Helvetica" font-size="10.00">vsomeip_v3::sd::message</text>
<text text-anchor="middle" x="92.5" y="-119.5" font-family="Helvetica" font-size="10.00">_element_impl</text>
</a>
</g>
</g>
<!-- Node3&#45;&gt;Node2 -->
<g id="edge2" class="edge">
<title>Node3&#45;&gt;Node2</title>
<path fill="none" stroke="midnightblue" d="M92.5,-102.29C92.5,-92.86 92.5,-82.65 92.5,-75.66"/>
<polygon fill="midnightblue" stroke="midnightblue" points="89,-102.4 92.5,-112.4 96,-102.4 89,-102.4"/>
</g>
</g>
</svg>
