<?xml version="1.0" encoding="UTF-8" standalone="no"?>
<!DOCTYPE svg PUBLIC "-//W3C//DTD SVG 1.1//EN"
 "http://www.w3.org/Graphics/SVG/1.1/DTD/svg11.dtd">
<!-- Generated by graphviz version 2.44.0 (0)
 -->
<!-- Title: vsomeip_v3::sd::entry_impl Pages: 1 -->
<svg width="293pt" height="442pt"
 viewBox="0.00 0.00 292.50 442.00" xmlns="http://www.w3.org/2000/svg" xmlns:xlink="http://www.w3.org/1999/xlink">
<g id="graph0" class="graph" transform="scale(1 1) rotate(0) translate(4 438)">
<title>vsomeip_v3::sd::entry_impl</title>
<polygon fill="white" stroke="transparent" points="-4,4 -4,-438 288.5,-438 288.5,4 -4,4"/>
<!-- Node1 -->
<g id="node1" class="node">
<title>Node1</title>
<g id="a_node1"><a xlink:title=" ">
<polygon fill="#bfbfbf" stroke="black" points="115.5,-0.5 115.5,-19.5 252.5,-19.5 252.5,-0.5 115.5,-0.5"/>
<text text-anchor="middle" x="184" y="-7.5" font-family="Helvetica" font-size="10.00">vsomeip_v3::sd::entry_impl</text>
</a>
</g>
</g>
<!-- Node2 -->
<g id="node2" class="node">
<title>Node2</title>
<g id="a_node2"><a xlink:href="classvsomeip__v3_1_1sd_1_1message__element__impl.html" target="_top" xlink:title=" ">
<polygon fill="white" stroke="black" points="118.5,-57.5 118.5,-87.5 249.5,-87.5 249.5,-57.5 118.5,-57.5"/>
<text text-anchor="start" x="126.5" y="-75.5" font-family="Helvetica" font-size="10.00">vsomeip_v3::sd::message</text>
<text text-anchor="middle" x="184" y="-64.5" font-family="Helvetica" font-size="10.00">_element_impl</text>
</a>
</g>
</g>
<!-- Node2&#45;&gt;Node1 -->
<g id="edge1" class="edge">
<title>Node2&#45;&gt;Node1</title>
<path fill="none" stroke="midnightblue" d="M184,-47.35C184,-37.51 184,-26.78 184,-19.54"/>
<polygon fill="midnightblue" stroke="midnightblue" points="180.5,-47.47 184,-57.47 187.5,-47.47 180.5,-47.47"/>
</g>
<!-- Node3 -->
<g id="node3" class="node">
<title>Node3</title>
<g id="a_node3"><a xlink:href="classvsomeip__v3_1_1sd_1_1message__impl.html" target="_top" xlink:title=" ">
<polygon fill="white" stroke="black" points="106.5,-135.5 106.5,-154.5 261.5,-154.5 261.5,-135.5 106.5,-135.5"/>
<text text-anchor="middle" x="184" y="-142.5" font-family="Helvetica" font-size="10.00">vsomeip_v3::sd::message_impl</text>
</a>
</g>
</g>
<!-- Node3&#45;&gt;Node2 -->
<g id="edge2" class="edge">
<title>Node3&#45;&gt;Node2</title>
<path fill="none" stroke="#9a32cd" stroke-dasharray="5,2" d="M184,-125.24C184,-113.41 184,-98.38 184,-87.58"/>
<polygon fill="#9a32cd" stroke="#9a32cd" points="180.5,-125.36 184,-135.36 187.5,-125.36 180.5,-125.36"/>
<text text-anchor="middle" x="201.5" y="-109" font-family="Helvetica" font-size="10.00"> owner_</text>
</g>
<!-- Node4 -->
<g id="node4" class="node">
<title>Node4</title>
<g id="a_node4"><a xlink:href="classvsomeip__v3_1_1message.html" target="_top" xlink:title="Implements regular SOME/IP messages.">
<polygon fill="white" stroke="black" points="169.5,-241.5 169.5,-260.5 284.5,-260.5 284.5,-241.5 169.5,-241.5"/>
<text text-anchor="middle" x="227" y="-248.5" font-family="Helvetica" font-size="10.00">vsomeip_v3::message</text>
</a>
</g>
</g>
<!-- Node4&#45;&gt;Node3 -->
<g id="edge3" class="edge">
<title>Node4&#45;&gt;Node3</title>
<path fill="none" stroke="midnightblue" d="M221.29,-231.45C217.58,-219.94 212.44,-204.95 207,-192 201.4,-178.67 193.67,-163.79 188.76,-154.66"/>
<polygon fill="midnightblue" stroke="midnightblue" points="218.03,-232.73 224.37,-241.22 224.7,-230.63 218.03,-232.73"/>
</g>
<!-- Node5 -->
<g id="node5" class="node">
<title>Node5</title>
<g id="a_node5"><a xlink:href="classvsomeip__v3_1_1message__base.html" target="_top" xlink:title="Base class to implement SOME/IP messages.">
<polygon fill="white" stroke="black" points="90.5,-357.5 90.5,-376.5 231.5,-376.5 231.5,-357.5 90.5,-357.5"/>
<text text-anchor="middle" x="161" y="-364.5" font-family="Helvetica" font-size="10.00">vsomeip_v3::message_base</text>
</a>
</g>
</g>
<!-- Node5&#45;&gt;Node4 -->
<g id="edge4" class="edge">
<title>Node5&#45;&gt;Node4</title>
<path fill="none" stroke="midnightblue" d="M170.99,-348.74C185.31,-324.01 211.13,-279.41 221.98,-260.67"/>
<polygon fill="midnightblue" stroke="midnightblue" points="167.94,-347.02 165.96,-357.43 174,-350.53 167.94,-347.02"/>
</g>
<!-- Node8 -->
<g id="node8" class="node">
<title>Node8</title>
<g id="a_node8"><a xlink:href="classvsomeip__v3_1_1message__base__impl.html" target="_top" xlink:title=" ">
<polygon fill="white" stroke="black" points="83.5,-192.5 83.5,-222.5 198.5,-222.5 198.5,-192.5 83.5,-192.5"/>
<text text-anchor="start" x="91.5" y="-210.5" font-family="Helvetica" font-size="10.00">vsomeip_v3::message</text>
<text text-anchor="middle" x="141" y="-199.5" font-family="Helvetica" font-size="10.00">_base_impl</text>
</a>
</g>
</g>
<!-- Node5&#45;&gt;Node8 -->
<g id="edge8" class="edge">
<title>Node5&#45;&gt;Node8</title>
<path fill="none" stroke="midnightblue" d="M158.56,-346.81C154.48,-314.69 146.37,-250.77 142.78,-222.51"/>
<polygon fill="midnightblue" stroke="midnightblue" points="155.14,-347.6 159.87,-357.08 162.08,-346.72 155.14,-347.6"/>
</g>
<!-- Node9 -->
<g id="node9" class="node">
<title>Node9</title>
<g id="a_node9"><a xlink:href="classvsomeip__v3_1_1message__header__impl.html" target="_top" xlink:title=" ">
<polygon fill="white" stroke="black" points="10.5,-279.5 10.5,-309.5 125.5,-309.5 125.5,-279.5 10.5,-279.5"/>
<text text-anchor="start" x="18.5" y="-297.5" font-family="Helvetica" font-size="10.00">vsomeip_v3::message</text>
<text text-anchor="middle" x="68" y="-286.5" font-family="Helvetica" font-size="10.00">_header_impl</text>
</a>
</g>
</g>
<!-- Node5&#45;&gt;Node9 -->
<g id="edge11" class="edge">
<title>Node5&#45;&gt;Node9</title>
<path fill="none" stroke="#9a32cd" stroke-dasharray="5,2" d="M128.67,-353.23C120.55,-349.28 112.12,-344.5 105,-339 94.33,-330.76 84.55,-319 77.73,-309.78"/>
<polygon fill="#9a32cd" stroke="#9a32cd" points="127.41,-356.51 137.96,-357.47 130.32,-350.14 127.41,-356.51"/>
<text text-anchor="middle" x="122.5" y="-331" font-family="Helvetica" font-size="10.00"> owner_</text>
</g>
<!-- Node6 -->
<g id="node6" class="node">
<title>Node6</title>
<g id="a_node6"><a xlink:href="classvsomeip__v3_1_1serializable.html" target="_top" xlink:title=" ">
<polygon fill="white" stroke="black" points="0,-414.5 0,-433.5 124,-433.5 124,-414.5 0,-414.5"/>
<text text-anchor="middle" x="62" y="-421.5" font-family="Helvetica" font-size="10.00">vsomeip_v3::serializable</text>
</a>
</g>
</g>
<!-- Node6&#45;&gt;Node5 -->
<g id="edge5" class="edge">
<title>Node6&#45;&gt;Node5</title>
<path fill="none" stroke="midnightblue" d="M86.24,-409.54C104.77,-399.24 129.77,-385.35 145.64,-376.53"/>
<polygon fill="midnightblue" stroke="midnightblue" points="84.51,-406.49 77.47,-414.41 87.91,-412.61 84.51,-406.49"/>
</g>
<!-- Node6&#45;&gt;Node9 -->
<g id="edge10" class="edge">
<title>Node6&#45;&gt;Node9</title>
<path fill="none" stroke="midnightblue" d="M62.88,-404.24C64.1,-378.46 66.25,-332.65 67.34,-309.59"/>
<polygon fill="midnightblue" stroke="midnightblue" points="59.39,-404.08 62.41,-414.24 66.38,-404.41 59.39,-404.08"/>
</g>
<!-- Node7 -->
<g id="node7" class="node">
<title>Node7</title>
<g id="a_node7"><a xlink:href="classvsomeip__v3_1_1deserializable.html" target="_top" xlink:title=" ">
<polygon fill="white" stroke="black" points="142,-414.5 142,-433.5 276,-433.5 276,-414.5 142,-414.5"/>
<text text-anchor="middle" x="209" y="-421.5" font-family="Helvetica" font-size="10.00">vsomeip_v3::deserializable</text>
</a>
</g>
</g>
<!-- Node7&#45;&gt;Node5 -->
<g id="edge6" class="edge">
<title>Node7&#45;&gt;Node5</title>
<path fill="none" stroke="midnightblue" d="M194.89,-406.83C186.29,-396.98 175.65,-384.78 168.61,-376.71"/>
<polygon fill="midnightblue" stroke="midnightblue" points="192.29,-409.17 201.5,-414.41 197.56,-404.57 192.29,-409.17"/>
</g>
<!-- Node8&#45;&gt;Node3 -->
<g id="edge7" class="edge">
<title>Node8&#45;&gt;Node3</title>
<path fill="none" stroke="midnightblue" d="M156.83,-184.22C164.17,-173.9 172.46,-162.24 177.93,-154.54"/>
<polygon fill="midnightblue" stroke="midnightblue" points="153.91,-182.29 150.97,-192.47 159.62,-186.34 153.91,-182.29"/>
</g>
<!-- Node9&#45;&gt;Node8 -->
<g id="edge9" class="edge">
<title>Node9&#45;&gt;Node8</title>
<path fill="none" stroke="#9a32cd" stroke-dasharray="5,2" d="M80.73,-270.64C86.6,-261.02 94.03,-249.99 102,-241 107.85,-234.41 115.08,-228 121.72,-222.65"/>
<polygon fill="#9a32cd" stroke="#9a32cd" points="77.67,-268.93 75.61,-279.32 83.7,-272.48 77.67,-268.93"/>
<text text-anchor="middle" x="121" y="-248.5" font-family="Helvetica" font-size="10.00"> header_</text>
</g>
</g>
</svg>
