<?xml version="1.0" encoding="UTF-8" standalone="no"?>
<!DOCTYPE svg PUBLIC "-//W3C//DTD SVG 1.1//EN"
 "http://www.w3.org/Graphics/SVG/1.1/DTD/svg11.dtd">
<!-- Generated by graphviz version 2.44.0 (0)
 -->
<!-- Title: vsomeip_v3::protocol::multiple_services_command_base Pages: 1 -->
<svg width="503pt" height="100pt"
 viewBox="0.00 0.00 503.00 99.50" xmlns="http://www.w3.org/2000/svg" xmlns:xlink="http://www.w3.org/1999/xlink">
<g id="graph0" class="graph" transform="scale(1 1) rotate(0) translate(4 95.5)">
<title>vsomeip_v3::protocol::multiple_services_command_base</title>
<polygon fill="white" stroke="transparent" points="-4,4 -4,-95.5 499,-95.5 499,4 -4,4"/>
<!-- Node1 -->
<g id="node1" class="node">
<title>Node1</title>
<g id="a_node1"><a xlink:title=" ">
<polygon fill="#bfbfbf" stroke="black" points="146,-27.5 146,-57.5 319,-57.5 319,-27.5 146,-27.5"/>
<text text-anchor="start" x="154" y="-45.5" font-family="Helvetica" font-size="10.00">vsomeip_v3::protocol</text>
<text text-anchor="middle" x="232.5" y="-34.5" font-family="Helvetica" font-size="10.00">::multiple_services_command_base</text>
</a>
</g>
</g>
<!-- Node3 -->
<g id="node3" class="node">
<title>Node3</title>
<g id="a_node3"><a xlink:href="classvsomeip__v3_1_1protocol_1_1offered__services__response__command.html" target="_top" xlink:title=" ">
<polygon fill="white" stroke="black" points="355,-50 355,-91 495,-91 495,-50 355,-50"/>
<text text-anchor="start" x="363" y="-79" font-family="Helvetica" font-size="10.00">vsomeip_v3::protocol</text>
<text text-anchor="start" x="363" y="-68" font-family="Helvetica" font-size="10.00">::offered_services_response</text>
<text text-anchor="middle" x="425" y="-57" font-family="Helvetica" font-size="10.00">_command</text>
</a>
</g>
</g>
<!-- Node1&#45;&gt;Node3 -->
<g id="edge2" class="edge">
<title>Node1&#45;&gt;Node3</title>
<path fill="none" stroke="midnightblue" d="M329.39,-56.59C338.02,-57.86 346.64,-59.13 354.97,-60.35"/>
<polygon fill="midnightblue" stroke="midnightblue" points="329.68,-53.1 319.28,-55.11 328.66,-60.02 329.68,-53.1"/>
</g>
<!-- Node4 -->
<g id="node4" class="node">
<title>Node4</title>
<g id="a_node4"><a xlink:href="classvsomeip__v3_1_1protocol_1_1request__service__command.html" target="_top" xlink:title=" ">
<polygon fill="white" stroke="black" points="355,-0.5 355,-30.5 495,-30.5 495,-0.5 355,-0.5"/>
<text text-anchor="start" x="363" y="-18.5" font-family="Helvetica" font-size="10.00">vsomeip_v3::protocol</text>
<text text-anchor="middle" x="425" y="-7.5" font-family="Helvetica" font-size="10.00">::request_service_command</text>
</a>
</g>
</g>
<!-- Node1&#45;&gt;Node4 -->
<g id="edge3" class="edge">
<title>Node1&#45;&gt;Node4</title>
<path fill="none" stroke="midnightblue" d="M329.39,-28.91C338.02,-27.69 346.64,-26.47 354.97,-25.28"/>
<polygon fill="midnightblue" stroke="midnightblue" points="328.69,-25.47 319.28,-30.34 329.67,-32.4 328.69,-25.47"/>
</g>
<!-- Node2 -->
<g id="node2" class="node">
<title>Node2</title>
<g id="a_node2"><a xlink:href="classvsomeip__v3_1_1protocol_1_1command.html" target="_top" xlink:title=" ">
<polygon fill="white" stroke="black" points="0,-27.5 0,-57.5 110,-57.5 110,-27.5 0,-27.5"/>
<text text-anchor="start" x="8" y="-45.5" font-family="Helvetica" font-size="10.00">vsomeip_v3::protocol</text>
<text text-anchor="middle" x="55" y="-34.5" font-family="Helvetica" font-size="10.00">::command</text>
</a>
</g>
</g>
<!-- Node2&#45;&gt;Node1 -->
<g id="edge1" class="edge">
<title>Node2&#45;&gt;Node1</title>
<path fill="none" stroke="midnightblue" d="M120.16,-42.5C128.56,-42.5 137.27,-42.5 145.95,-42.5"/>
<polygon fill="midnightblue" stroke="midnightblue" points="120.09,-39 110.09,-42.5 120.09,-46 120.09,-39"/>
</g>
</g>
</svg>
