<?xml version="1.0" encoding="UTF-8" standalone="no"?>
<!DOCTYPE svg PUBLIC "-//W3C//DTD SVG 1.1//EN"
 "http://www.w3.org/Graphics/SVG/1.1/DTD/svg11.dtd">
<!-- Generated by graphviz version 2.44.0 (0)
 -->
<!-- Title: vsomeip_v3::cfg::configuration_impl Pages: 1 -->
<svg width="585pt" height="156pt"
 viewBox="0.00 0.00 585.00 155.50" xmlns="http://www.w3.org/2000/svg" xmlns:xlink="http://www.w3.org/1999/xlink">
<g id="graph0" class="graph" transform="scale(1 1) rotate(0) translate(4 151.5)">
<title>vsomeip_v3::cfg::configuration_impl</title>
<polygon fill="white" stroke="transparent" points="-4,4 -4,-151.5 581,-151.5 581,4 -4,4"/>
<!-- Node1 -->
<g id="node1" class="node">
<title>Node1</title>
<g id="a_node1"><a xlink:title=" ">
<polygon fill="#bfbfbf" stroke="black" points="404,-79 404,-98 577,-98 577,-79 404,-79"/>
<text text-anchor="middle" x="490.5" y="-86" font-family="Helvetica" font-size="10.00">vsomeip_v3::cfg::configuration_impl</text>
</a>
</g>
</g>
<!-- Node2 -->
<g id="node2" class="node">
<title>Node2</title>
<g id="a_node2"><a xlink:href="classvsomeip__v3_1_1configuration.html" target="_top" xlink:title=" ">
<polygon fill="white" stroke="black" points="198.5,-128 198.5,-147 329.5,-147 329.5,-128 198.5,-128"/>
<text text-anchor="middle" x="264" y="-135" font-family="Helvetica" font-size="10.00">vsomeip_v3::configuration</text>
</a>
</g>
</g>
<!-- Node2&#45;&gt;Node1 -->
<g id="edge1" class="edge">
<title>Node2&#45;&gt;Node1</title>
<path fill="none" stroke="midnightblue" d="M318.63,-125.79C357.47,-117.32 409.33,-106 445.69,-98.06"/>
<polygon fill="midnightblue" stroke="midnightblue" points="317.58,-122.44 308.55,-127.99 319.07,-129.28 317.58,-122.44"/>
</g>
<!-- Node3 -->
<g id="node3" class="node">
<title>Node3</title>
<g id="a_node3"><a xlink:title=" ">
<polygon fill="white" stroke="black" points="200.5,-68 200.5,-109 327.5,-109 327.5,-68 200.5,-68"/>
<text text-anchor="start" x="208.5" y="-97" font-family="Helvetica" font-size="10.00">std::enable_shared</text>
<text text-anchor="start" x="208.5" y="-86" font-family="Helvetica" font-size="10.00">_from_this&lt; configuration</text>
<text text-anchor="middle" x="264" y="-75" font-family="Helvetica" font-size="10.00">_impl &gt;</text>
</a>
</g>
</g>
<!-- Node3&#45;&gt;Node1 -->
<g id="edge2" class="edge">
<title>Node3&#45;&gt;Node1</title>
<path fill="none" stroke="midnightblue" d="M337.7,-88.5C358.79,-88.5 382.01,-88.5 403.81,-88.5"/>
<polygon fill="midnightblue" stroke="midnightblue" points="337.54,-85 327.54,-88.5 337.54,-92 337.54,-85"/>
</g>
<!-- Node4 -->
<g id="node4" class="node">
<title>Node4</title>
<g id="a_node4"><a xlink:href="structvsomeip__v3_1_1cfg_1_1routing__t.html" target="_top" xlink:title=" ">
<polygon fill="white" stroke="black" points="198,-30 198,-49 330,-49 330,-30 198,-30"/>
<text text-anchor="middle" x="264" y="-37" font-family="Helvetica" font-size="10.00">vsomeip_v3::cfg::routing_t</text>
</a>
</g>
</g>
<!-- Node4&#45;&gt;Node1 -->
<g id="edge3" class="edge">
<title>Node4&#45;&gt;Node1</title>
<path fill="none" stroke="#9a32cd" stroke-dasharray="5,2" d="M318.63,-51.21C357.47,-59.68 409.33,-71 445.69,-78.94"/>
<polygon fill="#9a32cd" stroke="#9a32cd" points="319.07,-47.72 308.55,-49.01 317.58,-54.56 319.07,-47.72"/>
<text text-anchor="middle" x="367" y="-67.5" font-family="Helvetica" font-size="10.00"> routing_</text>
</g>
<!-- Node5 -->
<g id="node5" class="node">
<title>Node5</title>
<g id="a_node5"><a xlink:href="structvsomeip__v3_1_1cfg_1_1routing__host__t.html" target="_top" xlink:title=" ">
<polygon fill="white" stroke="black" points="0,-49.5 0,-79.5 124,-79.5 124,-49.5 0,-49.5"/>
<text text-anchor="start" x="8" y="-67.5" font-family="Helvetica" font-size="10.00">vsomeip_v3::cfg::routing</text>
<text text-anchor="middle" x="62" y="-56.5" font-family="Helvetica" font-size="10.00">_host_t</text>
</a>
</g>
</g>
<!-- Node5&#45;&gt;Node4 -->
<g id="edge4" class="edge">
<title>Node5&#45;&gt;Node4</title>
<path fill="none" stroke="#9a32cd" stroke-dasharray="5,2" d="M134.11,-55.61C154.85,-53.02 177.41,-50.2 197.77,-47.65"/>
<polygon fill="#9a32cd" stroke="#9a32cd" points="133.58,-52.15 124.09,-56.86 134.45,-59.1 133.58,-52.15"/>
<text text-anchor="middle" x="161" y="-56.5" font-family="Helvetica" font-size="10.00"> host_</text>
</g>
<!-- Node6 -->
<g id="node6" class="node">
<title>Node6</title>
<g id="a_node6"><a xlink:href="structvsomeip__v3_1_1cfg_1_1routing__guests__t.html" target="_top" xlink:title=" ">
<polygon fill="white" stroke="black" points="0,-0.5 0,-30.5 124,-30.5 124,-0.5 0,-0.5"/>
<text text-anchor="start" x="8" y="-18.5" font-family="Helvetica" font-size="10.00">vsomeip_v3::cfg::routing</text>
<text text-anchor="middle" x="62" y="-7.5" font-family="Helvetica" font-size="10.00">_guests_t</text>
</a>
</g>
</g>
<!-- Node6&#45;&gt;Node4 -->
<g id="edge5" class="edge">
<title>Node6&#45;&gt;Node4</title>
<path fill="none" stroke="#9a32cd" stroke-dasharray="5,2" d="M134.11,-24.03C154.85,-26.52 177.41,-29.23 197.77,-31.67"/>
<polygon fill="#9a32cd" stroke="#9a32cd" points="134.44,-20.55 124.09,-22.83 133.61,-27.5 134.44,-20.55"/>
<text text-anchor="middle" x="161" y="-31.5" font-family="Helvetica" font-size="10.00"> guests_</text>
</g>
</g>
</svg>
