<?xml version="1.0" encoding="UTF-8" standalone="no"?>
<!DOCTYPE svg PUBLIC "-//W3C//DTD SVG 1.1//EN"
 "http://www.w3.org/Graphics/SVG/1.1/DTD/svg11.dtd">
<!-- Generated by graphviz version 2.44.0 (0)
 -->
<!-- Title: vsomeip_v3::udp_server_endpoint_impl Pages: 1 -->
<svg width="598pt" height="100pt"
 viewBox="0.00 0.00 598.00 99.50" xmlns="http://www.w3.org/2000/svg" xmlns:xlink="http://www.w3.org/1999/xlink">
<g id="graph0" class="graph" transform="scale(1 1) rotate(0) translate(4 95.5)">
<title>vsomeip_v3::udp_server_endpoint_impl</title>
<polygon fill="white" stroke="transparent" points="-4,4 -4,-95.5 594,-95.5 594,4 -4,4"/>
<!-- Node1 -->
<g id="node1" class="node">
<title>Node1</title>
<g id="a_node1"><a xlink:title=" ">
<polygon fill="#bfbfbf" stroke="black" points="467,-33 467,-63 590,-63 590,-33 467,-33"/>
<text text-anchor="start" x="475" y="-51" font-family="Helvetica" font-size="10.00">vsomeip_v3::udp_server</text>
<text text-anchor="middle" x="528.5" y="-40" font-family="Helvetica" font-size="10.00">_endpoint_impl</text>
</a>
</g>
</g>
<!-- Node2 -->
<g id="node2" class="node">
<title>Node2</title>
<g id="a_node2"><a xlink:href="classvsomeip__v3_1_1server__endpoint__impl.html" target="_top" xlink:title=" ">
<polygon fill="white" stroke="black" points="324,-33 324,-63 431,-63 431,-33 324,-33"/>
<text text-anchor="start" x="332" y="-51" font-family="Helvetica" font-size="10.00">udp_server_endpoint</text>
<text text-anchor="middle" x="377.5" y="-40" font-family="Helvetica" font-size="10.00">_base_impl</text>
</a>
</g>
</g>
<!-- Node2&#45;&gt;Node1 -->
<g id="edge1" class="edge">
<title>Node2&#45;&gt;Node1</title>
<path fill="none" stroke="midnightblue" d="M441.22,-48C449.69,-48 458.36,-48 466.79,-48"/>
<polygon fill="midnightblue" stroke="midnightblue" points="441.03,-44.5 431.03,-48 441.03,-51.5 441.03,-44.5"/>
</g>
<!-- Node3 -->
<g id="node3" class="node">
<title>Node3</title>
<g id="a_node3"><a xlink:href="classvsomeip__v3_1_1endpoint__impl.html" target="_top" xlink:title=" ">
<polygon fill="white" stroke="black" points="162,-61 162,-91 274,-91 274,-61 162,-61"/>
<text text-anchor="start" x="170" y="-79" font-family="Helvetica" font-size="10.00">vsomeip_v3::endpoint</text>
<text text-anchor="middle" x="218" y="-68" font-family="Helvetica" font-size="10.00">_impl&lt; Protocol &gt;</text>
</a>
</g>
</g>
<!-- Node3&#45;&gt;Node2 -->
<g id="edge2" class="edge">
<title>Node3&#45;&gt;Node2</title>
<path fill="none" stroke="midnightblue" d="M284.08,-64.43C297.32,-62.08 311.09,-59.63 323.83,-57.36"/>
<polygon fill="midnightblue" stroke="midnightblue" points="283.32,-61.01 274.09,-66.21 284.54,-67.9 283.32,-61.01"/>
</g>
<!-- Node4 -->
<g id="node4" class="node">
<title>Node4</title>
<g id="a_node4"><a xlink:href="classvsomeip__v3_1_1endpoint.html" target="_top" xlink:title=" ">
<polygon fill="white" stroke="black" points="0,-66.5 0,-85.5 112,-85.5 112,-66.5 0,-66.5"/>
<text text-anchor="middle" x="56" y="-73.5" font-family="Helvetica" font-size="10.00">vsomeip_v3::endpoint</text>
</a>
</g>
</g>
<!-- Node4&#45;&gt;Node3 -->
<g id="edge3" class="edge">
<title>Node4&#45;&gt;Node3</title>
<path fill="none" stroke="midnightblue" d="M122.42,-76C135.51,-76 149.13,-76 161.84,-76"/>
<polygon fill="midnightblue" stroke="midnightblue" points="122.06,-72.5 112.06,-76 122.06,-79.5 122.06,-72.5"/>
</g>
<!-- Node5 -->
<g id="node5" class="node">
<title>Node5</title>
<g id="a_node5"><a xlink:title=" ">
<polygon fill="white" stroke="black" points="148,-0.5 148,-41.5 288,-41.5 288,-0.5 148,-0.5"/>
<text text-anchor="start" x="156" y="-29.5" font-family="Helvetica" font-size="10.00">std::enable_shared</text>
<text text-anchor="start" x="156" y="-18.5" font-family="Helvetica" font-size="10.00">_from_this&lt; server_endpoint</text>
<text text-anchor="middle" x="218" y="-7.5" font-family="Helvetica" font-size="10.00">_impl&lt; Protocol &gt; &gt;</text>
</a>
</g>
</g>
<!-- Node5&#45;&gt;Node2 -->
<g id="edge4" class="edge">
<title>Node5&#45;&gt;Node2</title>
<path fill="none" stroke="midnightblue" d="M298.17,-34.57C306.78,-36.05 315.39,-37.52 323.58,-38.93"/>
<polygon fill="midnightblue" stroke="midnightblue" points="298.53,-31.08 288.08,-32.84 297.35,-37.98 298.53,-31.08"/>
</g>
</g>
</svg>
