<?xml version="1.0" encoding="UTF-8" standalone="no"?>
<!DOCTYPE svg PUBLIC "-//W3C//DTD SVG 1.1//EN"
 "http://www.w3.org/Graphics/SVG/1.1/DTD/svg11.dtd">
<!-- Generated by graphviz version 2.44.0 (0)
 -->
<!-- Title: vsomeip_v3::client_endpoint Pages: 1 -->
<svg width="581pt" height="186pt"
 viewBox="0.00 0.00 581.00 186.00" xmlns="http://www.w3.org/2000/svg" xmlns:xlink="http://www.w3.org/1999/xlink">
<g id="graph0" class="graph" transform="scale(1 1) rotate(0) translate(4 182)">
<title>vsomeip_v3::client_endpoint</title>
<polygon fill="white" stroke="transparent" points="-4,4 -4,-182 577,-182 577,4 -4,4"/>
<!-- Node1 -->
<g id="node1" class="node">
<title>Node1</title>
<g id="a_node1"><a xlink:title=" ">
<polygon fill="#bfbfbf" stroke="black" points="148,-73.5 148,-103.5 246,-103.5 246,-73.5 148,-73.5"/>
<text text-anchor="start" x="156" y="-91.5" font-family="Helvetica" font-size="10.00">vsomeip_v3::client</text>
<text text-anchor="middle" x="197" y="-80.5" font-family="Helvetica" font-size="10.00">_endpoint</text>
</a>
</g>
</g>
<!-- Node3 -->
<g id="node3" class="node">
<title>Node3</title>
<g id="a_node3"><a xlink:href="classvsomeip__v3_1_1client__endpoint__impl.html" target="_top" xlink:title=" ">
<polygon fill="white" stroke="black" points="282,-73.5 282,-103.5 418,-103.5 418,-73.5 282,-73.5"/>
<text text-anchor="start" x="290" y="-91.5" font-family="Helvetica" font-size="10.00">vsomeip_v3::client</text>
<text text-anchor="middle" x="350" y="-80.5" font-family="Helvetica" font-size="10.00">_endpoint_impl&lt; Protocol &gt;</text>
</a>
</g>
</g>
<!-- Node1&#45;&gt;Node3 -->
<g id="edge2" class="edge">
<title>Node1&#45;&gt;Node3</title>
<path fill="none" stroke="midnightblue" d="M256.28,-88.5C264.7,-88.5 273.42,-88.5 282,-88.5"/>
<polygon fill="midnightblue" stroke="midnightblue" points="256.19,-85 246.19,-88.5 256.19,-92 256.19,-85"/>
</g>
<!-- Node2 -->
<g id="node2" class="node">
<title>Node2</title>
<g id="a_node2"><a xlink:href="classvsomeip__v3_1_1endpoint.html" target="_top" xlink:title=" ">
<polygon fill="white" stroke="black" points="0,-79 0,-98 112,-98 112,-79 0,-79"/>
<text text-anchor="middle" x="56" y="-86" font-family="Helvetica" font-size="10.00">vsomeip_v3::endpoint</text>
</a>
</g>
</g>
<!-- Node2&#45;&gt;Node1 -->
<g id="edge1" class="edge">
<title>Node2&#45;&gt;Node1</title>
<path fill="none" stroke="midnightblue" d="M122.55,-88.5C130.99,-88.5 139.5,-88.5 147.59,-88.5"/>
<polygon fill="midnightblue" stroke="midnightblue" points="122.34,-85 112.34,-88.5 122.34,-92 122.34,-85"/>
</g>
<!-- Node4 -->
<g id="node4" class="node">
<title>Node4</title>
<g id="a_node4"><a xlink:href="classvsomeip__v3_1_1local__tcp__client__endpoint__impl.html" target="_top" xlink:title=" ">
<polygon fill="white" stroke="black" points="456.5,-147.5 456.5,-177.5 570.5,-177.5 570.5,-147.5 456.5,-147.5"/>
<text text-anchor="start" x="464.5" y="-165.5" font-family="Helvetica" font-size="10.00">vsomeip_v3::local_tcp</text>
<text text-anchor="middle" x="513.5" y="-154.5" font-family="Helvetica" font-size="10.00">_client_endpoint_impl</text>
</a>
</g>
</g>
<!-- Node3&#45;&gt;Node4 -->
<g id="edge3" class="edge">
<title>Node3&#45;&gt;Node4</title>
<path fill="none" stroke="midnightblue" d="M389.99,-108.14C409.14,-117.6 432.64,-128.94 454,-138.5 460.71,-141.5 467.92,-144.58 474.9,-147.48"/>
<polygon fill="midnightblue" stroke="midnightblue" points="391.48,-104.97 380.96,-103.66 388.36,-111.24 391.48,-104.97"/>
</g>
<!-- Node5 -->
<g id="node5" class="node">
<title>Node5</title>
<g id="a_node5"><a xlink:href="classvsomeip__v3_1_1local__uds__client__endpoint__impl.html" target="_top" xlink:title=" ">
<polygon fill="white" stroke="black" points="455.5,-98.5 455.5,-128.5 571.5,-128.5 571.5,-98.5 455.5,-98.5"/>
<text text-anchor="start" x="463.5" y="-116.5" font-family="Helvetica" font-size="10.00">vsomeip_v3::local_uds</text>
<text text-anchor="middle" x="513.5" y="-105.5" font-family="Helvetica" font-size="10.00">_client_endpoint_impl</text>
</a>
</g>
</g>
<!-- Node3&#45;&gt;Node5 -->
<g id="edge4" class="edge">
<title>Node3&#45;&gt;Node5</title>
<path fill="none" stroke="midnightblue" d="M428.03,-100.42C437.24,-101.85 446.52,-103.29 455.38,-104.66"/>
<polygon fill="midnightblue" stroke="midnightblue" points="428.51,-96.96 418.09,-98.89 427.43,-103.87 428.51,-96.96"/>
</g>
<!-- Node6 -->
<g id="node6" class="node">
<title>Node6</title>
<g id="a_node6"><a xlink:href="classvsomeip__v3_1_1tcp__client__endpoint__impl.html" target="_top" xlink:title=" ">
<polygon fill="white" stroke="black" points="455,-49.5 455,-79.5 572,-79.5 572,-49.5 455,-49.5"/>
<text text-anchor="start" x="463" y="-67.5" font-family="Helvetica" font-size="10.00">vsomeip_v3::tcp_client</text>
<text text-anchor="middle" x="513.5" y="-56.5" font-family="Helvetica" font-size="10.00">_endpoint_impl</text>
</a>
</g>
</g>
<!-- Node3&#45;&gt;Node6 -->
<g id="edge5" class="edge">
<title>Node3&#45;&gt;Node6</title>
<path fill="none" stroke="midnightblue" d="M428.18,-77.03C437.17,-75.69 446.21,-74.35 454.87,-73.06"/>
<polygon fill="midnightblue" stroke="midnightblue" points="427.46,-73.6 418.09,-78.53 428.49,-80.52 427.46,-73.6"/>
</g>
<!-- Node7 -->
<g id="node7" class="node">
<title>Node7</title>
<g id="a_node7"><a xlink:href="classvsomeip__v3_1_1udp__client__endpoint__impl.html" target="_top" xlink:title=" ">
<polygon fill="white" stroke="black" points="454,-0.5 454,-30.5 573,-30.5 573,-0.5 454,-0.5"/>
<text text-anchor="start" x="462" y="-18.5" font-family="Helvetica" font-size="10.00">vsomeip_v3::udp_client</text>
<text text-anchor="middle" x="513.5" y="-7.5" font-family="Helvetica" font-size="10.00">_endpoint_impl</text>
</a>
</g>
</g>
<!-- Node3&#45;&gt;Node7 -->
<g id="edge6" class="edge">
<title>Node3&#45;&gt;Node7</title>
<path fill="none" stroke="midnightblue" d="M390.45,-69.11C409.53,-59.89 432.84,-48.87 454,-39.5 460.73,-36.52 467.94,-33.46 474.92,-30.56"/>
<polygon fill="midnightblue" stroke="midnightblue" points="388.91,-65.97 381.44,-73.48 391.97,-72.26 388.91,-65.97"/>
</g>
</g>
</svg>
