<?xml version="1.0" encoding="UTF-8" standalone="no"?>
<!DOCTYPE svg PUBLIC "-//W3C//DTD SVG 1.1//EN"
 "http://www.w3.org/Graphics/SVG/1.1/DTD/svg11.dtd">
<!-- Generated by graphviz version 2.44.0 (0)
 -->
<!-- Title: boost::asio::detail::reactive_socket_recvfrom_op_base_ext&lt; MutableBufferSequence, Endpoint &gt; Pages: 1 -->
<svg width="632pt" height="61pt"
 viewBox="0.00 0.00 632.00 61.00" xmlns="http://www.w3.org/2000/svg" xmlns:xlink="http://www.w3.org/1999/xlink">
<g id="graph0" class="graph" transform="scale(1 1) rotate(0) translate(4 57)">
<title>boost::asio::detail::reactive_socket_recvfrom_op_base_ext&lt; MutableBufferSequence, Endpoint &gt;</title>
<polygon fill="white" stroke="transparent" points="-4,4 -4,-57 628,-57 628,4 -4,4"/>
<!-- Node1 -->
<g id="node1" class="node">
<title>Node1</title>
<g id="a_node1"><a xlink:title=" ">
<polygon fill="#bfbfbf" stroke="black" points="228,-0.5 228,-52.5 421,-52.5 421,-0.5 228,-0.5"/>
<text text-anchor="start" x="236" y="-40.5" font-family="Helvetica" font-size="10.00">boost::asio::detail</text>
<text text-anchor="start" x="236" y="-29.5" font-family="Helvetica" font-size="10.00">::reactive_socket_recvfrom</text>
<text text-anchor="start" x="236" y="-18.5" font-family="Helvetica" font-size="10.00">_op_base_ext&lt; MutableBufferSequence,</text>
<text text-anchor="middle" x="324.5" y="-7.5" font-family="Helvetica" font-size="10.00"> Endpoint &gt;</text>
</a>
</g>
</g>
<!-- Node4 -->
<g id="node4" class="node">
<title>Node4</title>
<g id="a_node4"><a xlink:href="classboost_1_1asio_1_1detail_1_1reactive__socket__recvfrom__op__ext.html" target="_top" xlink:title=" ">
<polygon fill="white" stroke="black" points="457,-0.5 457,-52.5 624,-52.5 624,-0.5 457,-0.5"/>
<text text-anchor="start" x="465" y="-40.5" font-family="Helvetica" font-size="10.00">boost::asio::detail</text>
<text text-anchor="start" x="465" y="-29.5" font-family="Helvetica" font-size="10.00">::reactive_socket_recvfrom</text>
<text text-anchor="start" x="465" y="-18.5" font-family="Helvetica" font-size="10.00">_op_ext&lt; MutableBufferSequence,</text>
<text text-anchor="middle" x="540.5" y="-7.5" font-family="Helvetica" font-size="10.00"> Endpoint, Handler &gt;</text>
</a>
</g>
</g>
<!-- Node1&#45;&gt;Node4 -->
<g id="edge3" class="edge">
<title>Node1&#45;&gt;Node4</title>
<path fill="none" stroke="midnightblue" d="M431.31,-26.5C439.91,-26.5 448.52,-26.5 456.92,-26.5"/>
<polygon fill="midnightblue" stroke="midnightblue" points="431.23,-23 421.23,-26.5 431.23,-30 431.23,-23"/>
</g>
<!-- Node2 -->
<g id="node2" class="node">
<title>Node2</title>
<g id="a_node2"><a xlink:href="classboost_1_1asio_1_1detail_1_1reactor__op__ext.html" target="_top" xlink:title=" ">
<polygon fill="white" stroke="black" points="98,-11.5 98,-41.5 192,-41.5 192,-11.5 98,-11.5"/>
<text text-anchor="start" x="106" y="-29.5" font-family="Helvetica" font-size="10.00">boost::asio::detail</text>
<text text-anchor="middle" x="145" y="-18.5" font-family="Helvetica" font-size="10.00">::reactor_op_ext</text>
</a>
</g>
</g>
<!-- Node2&#45;&gt;Node1 -->
<g id="edge1" class="edge">
<title>Node2&#45;&gt;Node1</title>
<path fill="none" stroke="midnightblue" d="M202.33,-26.5C210.56,-26.5 219.22,-26.5 227.96,-26.5"/>
<polygon fill="midnightblue" stroke="midnightblue" points="202.17,-23 192.17,-26.5 202.17,-30 202.17,-23"/>
</g>
<!-- Node3 -->
<g id="node3" class="node">
<title>Node3</title>
<g id="a_node3"><a xlink:title=" ">
<polygon fill="white" stroke="black" points="0,-17 0,-36 62,-36 62,-17 0,-17"/>
<text text-anchor="middle" x="31" y="-24" font-family="Helvetica" font-size="10.00">reactor_op</text>
</a>
</g>
</g>
<!-- Node3&#45;&gt;Node2 -->
<g id="edge2" class="edge">
<title>Node3&#45;&gt;Node2</title>
<path fill="none" stroke="midnightblue" d="M72.22,-26.5C80.54,-26.5 89.36,-26.5 97.87,-26.5"/>
<polygon fill="midnightblue" stroke="midnightblue" points="72.01,-23 62.01,-26.5 72.01,-30 72.01,-23"/>
</g>
</g>
</svg>
