<?xml version="1.0" encoding="UTF-8" standalone="no"?>
<!DOCTYPE svg PUBLIC "-//W3C//DTD SVG 1.1//EN"
 "http://www.w3.org/Graphics/SVG/1.1/DTD/svg11.dtd">
<!-- Generated by graphviz version 2.44.0 (0)
 -->
<!-- Title: vsomeip_v3::protocol::service_command_base Pages: 1 -->
<svg width="446pt" height="100pt"
 viewBox="0.00 0.00 446.00 99.50" xmlns="http://www.w3.org/2000/svg" xmlns:xlink="http://www.w3.org/1999/xlink">
<g id="graph0" class="graph" transform="scale(1 1) rotate(0) translate(4 95.5)">
<title>vsomeip_v3::protocol::service_command_base</title>
<polygon fill="white" stroke="transparent" points="-4,4 -4,-95.5 442,-95.5 442,4 -4,4"/>
<!-- Node1 -->
<g id="node1" class="node">
<title>Node1</title>
<g id="a_node1"><a xlink:title=" ">
<polygon fill="#bfbfbf" stroke="black" points="146,-33 146,-63 275,-63 275,-33 146,-33"/>
<text text-anchor="start" x="154" y="-51" font-family="Helvetica" font-size="10.00">vsomeip_v3::protocol</text>
<text text-anchor="middle" x="210.5" y="-40" font-family="Helvetica" font-size="10.00">::service_command_base</text>
</a>
</g>
</g>
<!-- Node3 -->
<g id="node3" class="node">
<title>Node3</title>
<g id="a_node3"><a xlink:href="classvsomeip__v3_1_1protocol_1_1offer__service__command.html" target="_top" xlink:title=" ">
<polygon fill="white" stroke="black" points="311,-61 311,-91 438,-91 438,-61 311,-61"/>
<text text-anchor="start" x="319" y="-79" font-family="Helvetica" font-size="10.00">vsomeip_v3::protocol</text>
<text text-anchor="middle" x="374.5" y="-68" font-family="Helvetica" font-size="10.00">::offer_service_command</text>
</a>
</g>
</g>
<!-- Node1&#45;&gt;Node3 -->
<g id="edge2" class="edge">
<title>Node1&#45;&gt;Node3</title>
<path fill="none" stroke="midnightblue" d="M285.11,-60.72C293.73,-62.21 302.47,-63.72 310.92,-65.18"/>
<polygon fill="midnightblue" stroke="midnightblue" points="285.51,-57.24 275.06,-58.99 284.32,-64.14 285.51,-57.24"/>
</g>
<!-- Node4 -->
<g id="node4" class="node">
<title>Node4</title>
<g id="a_node4"><a xlink:href="classvsomeip__v3_1_1protocol_1_1stop__offer__service__command.html" target="_top" xlink:title=" ">
<polygon fill="white" stroke="black" points="319.5,-0.5 319.5,-41.5 429.5,-41.5 429.5,-0.5 319.5,-0.5"/>
<text text-anchor="start" x="327.5" y="-29.5" font-family="Helvetica" font-size="10.00">vsomeip_v3::protocol</text>
<text text-anchor="start" x="327.5" y="-18.5" font-family="Helvetica" font-size="10.00">::stop_offer_service</text>
<text text-anchor="middle" x="374.5" y="-7.5" font-family="Helvetica" font-size="10.00">_command</text>
</a>
</g>
</g>
<!-- Node1&#45;&gt;Node4 -->
<g id="edge3" class="edge">
<title>Node1&#45;&gt;Node4</title>
<path fill="none" stroke="midnightblue" d="M285.1,-35.73C296.61,-33.81 308.32,-31.86 319.3,-30.03"/>
<polygon fill="midnightblue" stroke="midnightblue" points="284.35,-32.31 275.06,-37.41 285.5,-39.21 284.35,-32.31"/>
</g>
<!-- Node2 -->
<g id="node2" class="node">
<title>Node2</title>
<g id="a_node2"><a xlink:href="classvsomeip__v3_1_1protocol_1_1command.html" target="_top" xlink:title=" ">
<polygon fill="white" stroke="black" points="0,-33 0,-63 110,-63 110,-33 0,-33"/>
<text text-anchor="start" x="8" y="-51" font-family="Helvetica" font-size="10.00">vsomeip_v3::protocol</text>
<text text-anchor="middle" x="55" y="-40" font-family="Helvetica" font-size="10.00">::command</text>
</a>
</g>
</g>
<!-- Node2&#45;&gt;Node1 -->
<g id="edge1" class="edge">
<title>Node2&#45;&gt;Node1</title>
<path fill="none" stroke="midnightblue" d="M120.31,-48C128.77,-48 137.44,-48 145.89,-48"/>
<polygon fill="midnightblue" stroke="midnightblue" points="120.12,-44.5 110.12,-48 120.12,-51.5 120.12,-44.5"/>
</g>
</g>
</svg>
