<?xml version="1.0" encoding="UTF-8" standalone="no"?>
<!DOCTYPE svg PUBLIC "-//W3C//DTD SVG 1.1//EN"
 "http://www.w3.org/Graphics/SVG/1.1/DTD/svg11.dtd">
<!-- Generated by graphviz version 2.44.0 (0)
 -->
<!-- Title: vsomeip_v3::message Pages: 1 -->
<svg width="460pt" height="196pt"
 viewBox="0.00 0.00 459.50 196.00" xmlns="http://www.w3.org/2000/svg" xmlns:xlink="http://www.w3.org/1999/xlink">
<g id="graph0" class="graph" transform="scale(1 1) rotate(0) translate(4 192)">
<title>vsomeip_v3::message</title>
<polygon fill="white" stroke="transparent" points="-4,4 -4,-192 455.5,-192 455.5,4 -4,4"/>
<!-- Node1 -->
<g id="node1" class="node">
<title>Node1</title>
<g id="a_node1"><a xlink:title="Implements regular SOME/IP messages.">
<polygon fill="#bfbfbf" stroke="black" points="151.5,-56.5 151.5,-75.5 266.5,-75.5 266.5,-56.5 151.5,-56.5"/>
<text text-anchor="middle" x="209" y="-63.5" font-family="Helvetica" font-size="10.00">vsomeip_v3::message</text>
</a>
</g>
</g>
<!-- Node5 -->
<g id="node5" class="node">
<title>Node5</title>
<g id="a_node5"><a xlink:href="classvsomeip_1_1message__impl.html" target="_top" xlink:title=" ">
<polygon fill="white" stroke="black" points="0,-0.5 0,-19.5 122,-19.5 122,-0.5 0,-0.5"/>
<text text-anchor="middle" x="61" y="-7.5" font-family="Helvetica" font-size="10.00">vsomeip::message_impl</text>
</a>
</g>
</g>
<!-- Node1&#45;&gt;Node5 -->
<g id="edge4" class="edge">
<title>Node1&#45;&gt;Node5</title>
<path fill="none" stroke="midnightblue" d="M175.85,-52.91C148.03,-42.75 108.98,-28.51 84.34,-19.52"/>
<polygon fill="midnightblue" stroke="midnightblue" points="174.96,-56.3 185.55,-56.44 177.35,-49.73 174.96,-56.3"/>
</g>
<!-- Node6 -->
<g id="node6" class="node">
<title>Node6</title>
<g id="a_node6"><a xlink:href="classvsomeip__v3_1_1message__impl.html" target="_top" xlink:title=" ">
<polygon fill="white" stroke="black" points="140,-0.5 140,-19.5 278,-19.5 278,-0.5 140,-0.5"/>
<text text-anchor="middle" x="209" y="-7.5" font-family="Helvetica" font-size="10.00">vsomeip_v3::message_impl</text>
</a>
</g>
</g>
<!-- Node1&#45;&gt;Node6 -->
<g id="edge5" class="edge">
<title>Node1&#45;&gt;Node6</title>
<path fill="none" stroke="midnightblue" d="M209,-45.8C209,-36.91 209,-26.78 209,-19.75"/>
<polygon fill="midnightblue" stroke="midnightblue" points="205.5,-46.08 209,-56.08 212.5,-46.08 205.5,-46.08"/>
</g>
<!-- Node7 -->
<g id="node7" class="node">
<title>Node7</title>
<g id="a_node7"><a xlink:href="classvsomeip__v3_1_1sd_1_1message__impl.html" target="_top" xlink:title=" ">
<polygon fill="white" stroke="black" points="296.5,-0.5 296.5,-19.5 451.5,-19.5 451.5,-0.5 296.5,-0.5"/>
<text text-anchor="middle" x="374" y="-7.5" font-family="Helvetica" font-size="10.00">vsomeip_v3::sd::message_impl</text>
</a>
</g>
</g>
<!-- Node1&#45;&gt;Node7 -->
<g id="edge6" class="edge">
<title>Node1&#45;&gt;Node7</title>
<path fill="none" stroke="midnightblue" d="M244.74,-53.3C275.83,-43.13 320.15,-28.62 347.98,-19.52"/>
<polygon fill="midnightblue" stroke="midnightblue" points="243.56,-50.01 235.14,-56.44 245.74,-56.66 243.56,-50.01"/>
</g>
<!-- Node2 -->
<g id="node2" class="node">
<title>Node2</title>
<g id="a_node2"><a xlink:href="classvsomeip__v3_1_1message__base.html" target="_top" xlink:title="Base class to implement SOME/IP messages.">
<polygon fill="white" stroke="black" points="138.5,-112.5 138.5,-131.5 279.5,-131.5 279.5,-112.5 138.5,-112.5"/>
<text text-anchor="middle" x="209" y="-119.5" font-family="Helvetica" font-size="10.00">vsomeip_v3::message_base</text>
</a>
</g>
</g>
<!-- Node2&#45;&gt;Node1 -->
<g id="edge1" class="edge">
<title>Node2&#45;&gt;Node1</title>
<path fill="none" stroke="midnightblue" d="M209,-101.8C209,-92.91 209,-82.78 209,-75.75"/>
<polygon fill="midnightblue" stroke="midnightblue" points="205.5,-102.08 209,-112.08 212.5,-102.08 205.5,-102.08"/>
</g>
<!-- Node3 -->
<g id="node3" class="node">
<title>Node3</title>
<g id="a_node3"><a xlink:href="classvsomeip__v3_1_1serializable.html" target="_top" xlink:title=" ">
<polygon fill="white" stroke="black" points="74,-168.5 74,-187.5 198,-187.5 198,-168.5 74,-168.5"/>
<text text-anchor="middle" x="136" y="-175.5" font-family="Helvetica" font-size="10.00">vsomeip_v3::serializable</text>
</a>
</g>
</g>
<!-- Node3&#45;&gt;Node2 -->
<g id="edge2" class="edge">
<title>Node3&#45;&gt;Node2</title>
<path fill="none" stroke="midnightblue" d="M156.14,-162.1C169.28,-152.38 185.98,-140.03 197.06,-131.83"/>
<polygon fill="midnightblue" stroke="midnightblue" points="153.69,-159.56 147.73,-168.32 157.85,-165.19 153.69,-159.56"/>
</g>
<!-- Node4 -->
<g id="node4" class="node">
<title>Node4</title>
<g id="a_node4"><a xlink:href="classvsomeip__v3_1_1deserializable.html" target="_top" xlink:title=" ">
<polygon fill="white" stroke="black" points="216,-168.5 216,-187.5 350,-187.5 350,-168.5 216,-168.5"/>
<text text-anchor="middle" x="283" y="-175.5" font-family="Helvetica" font-size="10.00">vsomeip_v3::deserializable</text>
</a>
</g>
</g>
<!-- Node4&#45;&gt;Node2 -->
<g id="edge3" class="edge">
<title>Node4&#45;&gt;Node2</title>
<path fill="none" stroke="midnightblue" d="M262.97,-162.38C249.59,-152.62 232.44,-140.11 221.11,-131.83"/>
<polygon fill="midnightblue" stroke="midnightblue" points="260.97,-165.26 271.11,-168.32 265.1,-159.6 260.97,-165.26"/>
</g>
</g>
</svg>
