<?xml version="1.0" encoding="UTF-8" standalone="no"?>
<!DOCTYPE svg PUBLIC "-//W3C//DTD SVG 1.1//EN"
 "http://www.w3.org/Graphics/SVG/1.1/DTD/svg11.dtd">
<!-- Generated by graphviz version 2.44.0 (0)
 -->
<!-- Title: vsomeip_v3::message_base_impl Pages: 1 -->
<svg width="284pt" height="241pt"
 viewBox="0.00 0.00 284.00 241.00" xmlns="http://www.w3.org/2000/svg" xmlns:xlink="http://www.w3.org/1999/xlink">
<g id="graph0" class="graph" transform="scale(1 1) rotate(0) translate(4 237)">
<title>vsomeip_v3::message_base_impl</title>
<polygon fill="white" stroke="transparent" points="-4,4 -4,-237 280,-237 280,4 -4,4"/>
<!-- Node1 -->
<g id="node1" class="node">
<title>Node1</title>
<g id="a_node1"><a xlink:title=" ">
<polygon fill="#bfbfbf" stroke="black" points="60.5,-0.5 60.5,-30.5 175.5,-30.5 175.5,-0.5 60.5,-0.5"/>
<text text-anchor="start" x="68.5" y="-18.5" font-family="Helvetica" font-size="10.00">vsomeip_v3::message</text>
<text text-anchor="middle" x="118" y="-7.5" font-family="Helvetica" font-size="10.00">_base_impl</text>
</a>
</g>
</g>
<!-- Node2 -->
<g id="node2" class="node">
<title>Node2</title>
<g id="a_node2"><a xlink:href="classvsomeip__v3_1_1message__base.html" target="_top" xlink:title="Base class to implement SOME/IP messages.">
<polygon fill="white" stroke="black" points="90.5,-156.5 90.5,-175.5 231.5,-175.5 231.5,-156.5 90.5,-156.5"/>
<text text-anchor="middle" x="161" y="-163.5" font-family="Helvetica" font-size="10.00">vsomeip_v3::message_base</text>
</a>
</g>
</g>
<!-- Node2&#45;&gt;Node1 -->
<g id="edge1" class="edge">
<title>Node2&#45;&gt;Node1</title>
<path fill="none" stroke="midnightblue" d="M160.63,-146.48C159.56,-122.94 155.7,-81.48 142,-49 139.27,-42.54 135.02,-36.16 130.84,-30.8"/>
<polygon fill="midnightblue" stroke="midnightblue" points="157.13,-146.59 160.95,-156.47 164.12,-146.36 157.13,-146.59"/>
</g>
<!-- Node5 -->
<g id="node5" class="node">
<title>Node5</title>
<g id="a_node5"><a xlink:href="classvsomeip__v3_1_1message__header__impl.html" target="_top" xlink:title=" ">
<polygon fill="white" stroke="black" points="17.5,-78.5 17.5,-108.5 132.5,-108.5 132.5,-78.5 17.5,-78.5"/>
<text text-anchor="start" x="25.5" y="-96.5" font-family="Helvetica" font-size="10.00">vsomeip_v3::message</text>
<text text-anchor="middle" x="75" y="-85.5" font-family="Helvetica" font-size="10.00">_header_impl</text>
</a>
</g>
</g>
<!-- Node2&#45;&gt;Node5 -->
<g id="edge6" class="edge">
<title>Node2&#45;&gt;Node5</title>
<path fill="none" stroke="#9a32cd" stroke-dasharray="5,2" d="M132.54,-151.59C125.5,-147.67 118.21,-143.07 112,-138 101.56,-129.47 91.77,-117.73 84.88,-108.59"/>
<polygon fill="#9a32cd" stroke="#9a32cd" points="131.37,-154.93 141.85,-156.48 134.62,-148.73 131.37,-154.93"/>
<text text-anchor="middle" x="129.5" y="-130" font-family="Helvetica" font-size="10.00"> owner_</text>
</g>
<!-- Node3 -->
<g id="node3" class="node">
<title>Node3</title>
<g id="a_node3"><a xlink:href="classvsomeip__v3_1_1serializable.html" target="_top" xlink:title=" ">
<polygon fill="white" stroke="black" points="0,-213.5 0,-232.5 124,-232.5 124,-213.5 0,-213.5"/>
<text text-anchor="middle" x="62" y="-220.5" font-family="Helvetica" font-size="10.00">vsomeip_v3::serializable</text>
</a>
</g>
</g>
<!-- Node3&#45;&gt;Node2 -->
<g id="edge2" class="edge">
<title>Node3&#45;&gt;Node2</title>
<path fill="none" stroke="midnightblue" d="M86.24,-208.54C104.77,-198.24 129.77,-184.35 145.64,-175.53"/>
<polygon fill="midnightblue" stroke="midnightblue" points="84.51,-205.49 77.47,-213.41 87.91,-211.61 84.51,-205.49"/>
</g>
<!-- Node3&#45;&gt;Node5 -->
<g id="edge5" class="edge">
<title>Node3&#45;&gt;Node5</title>
<path fill="none" stroke="midnightblue" d="M63.91,-203.24C66.54,-177.46 71.21,-131.65 73.56,-108.59"/>
<polygon fill="midnightblue" stroke="midnightblue" points="60.43,-202.93 62.89,-213.24 67.39,-203.64 60.43,-202.93"/>
</g>
<!-- Node4 -->
<g id="node4" class="node">
<title>Node4</title>
<g id="a_node4"><a xlink:href="classvsomeip__v3_1_1deserializable.html" target="_top" xlink:title=" ">
<polygon fill="white" stroke="black" points="142,-213.5 142,-232.5 276,-232.5 276,-213.5 142,-213.5"/>
<text text-anchor="middle" x="209" y="-220.5" font-family="Helvetica" font-size="10.00">vsomeip_v3::deserializable</text>
</a>
</g>
</g>
<!-- Node4&#45;&gt;Node2 -->
<g id="edge3" class="edge">
<title>Node4&#45;&gt;Node2</title>
<path fill="none" stroke="midnightblue" d="M194.89,-205.83C186.29,-195.98 175.65,-183.78 168.61,-175.71"/>
<polygon fill="midnightblue" stroke="midnightblue" points="192.29,-208.17 201.5,-213.41 197.56,-203.57 192.29,-208.17"/>
</g>
<!-- Node5&#45;&gt;Node1 -->
<g id="edge4" class="edge">
<title>Node5&#45;&gt;Node1</title>
<path fill="none" stroke="#9a32cd" stroke-dasharray="5,2" d="M88.18,-69.2C95.29,-56.64 103.83,-41.54 109.95,-30.73"/>
<polygon fill="#9a32cd" stroke="#9a32cd" points="84.97,-67.78 83.09,-78.2 91.06,-71.23 84.97,-67.78"/>
<text text-anchor="middle" x="119" y="-52" font-family="Helvetica" font-size="10.00"> header_</text>
</g>
</g>
</svg>
