<?xml version="1.0" encoding="UTF-8" standalone="no"?>
<!DOCTYPE svg PUBLIC "-//W3C//DTD SVG 1.1//EN"
 "http://www.w3.org/Graphics/SVG/1.1/DTD/svg11.dtd">
<!-- Generated by graphviz version 2.44.0 (0)
 -->
<!-- Title: vsomeip::payload Pages: 1 -->
<svg width="284pt" height="84pt"
 viewBox="0.00 0.00 284.00 84.00" xmlns="http://www.w3.org/2000/svg" xmlns:xlink="http://www.w3.org/1999/xlink">
<g id="graph0" class="graph" transform="scale(1 1) rotate(0) translate(4 80)">
<title>vsomeip::payload</title>
<polygon fill="white" stroke="transparent" points="-4,4 -4,-80 280,-80 280,4 -4,4"/>
<!-- Node1 -->
<g id="node1" class="node">
<title>Node1</title>
<g id="a_node1"><a xlink:title="This class implements an array of bytes to be used as payload for SOME/IP messages.">
<polygon fill="#bfbfbf" stroke="black" points="88.5,-0.5 88.5,-19.5 181.5,-19.5 181.5,-0.5 88.5,-0.5"/>
<text text-anchor="middle" x="135" y="-7.5" font-family="Helvetica" font-size="10.00">vsomeip::payload</text>
</a>
</g>
</g>
<!-- Node2 -->
<g id="node2" class="node">
<title>Node2</title>
<g id="a_node2"><a xlink:href="classvsomeip__v3_1_1serializable.html" target="_top" xlink:title=" ">
<polygon fill="white" stroke="black" points="0,-56.5 0,-75.5 124,-75.5 124,-56.5 0,-56.5"/>
<text text-anchor="middle" x="62" y="-63.5" font-family="Helvetica" font-size="10.00">vsomeip_v3::serializable</text>
</a>
</g>
</g>
<!-- Node2&#45;&gt;Node1 -->
<g id="edge1" class="edge">
<title>Node2&#45;&gt;Node1</title>
<path fill="none" stroke="midnightblue" d="M82.14,-50.1C95.28,-40.38 111.98,-28.03 123.06,-19.83"/>
<polygon fill="midnightblue" stroke="midnightblue" points="79.69,-47.56 73.73,-56.32 83.85,-53.19 79.69,-47.56"/>
</g>
<!-- Node3 -->
<g id="node3" class="node">
<title>Node3</title>
<g id="a_node3"><a xlink:href="classvsomeip__v3_1_1deserializable.html" target="_top" xlink:title=" ">
<polygon fill="white" stroke="black" points="142,-56.5 142,-75.5 276,-75.5 276,-56.5 142,-56.5"/>
<text text-anchor="middle" x="209" y="-63.5" font-family="Helvetica" font-size="10.00">vsomeip_v3::deserializable</text>
</a>
</g>
</g>
<!-- Node3&#45;&gt;Node1 -->
<g id="edge2" class="edge">
<title>Node3&#45;&gt;Node1</title>
<path fill="none" stroke="midnightblue" d="M188.97,-50.38C175.59,-40.62 158.44,-28.11 147.11,-19.83"/>
<polygon fill="midnightblue" stroke="midnightblue" points="186.97,-53.26 197.11,-56.32 191.1,-47.6 186.97,-53.26"/>
</g>
</g>
</svg>
