<?xml version="1.0" encoding="UTF-8" standalone="no"?>
<!DOCTYPE svg PUBLIC "-//W3C//DTD SVG 1.1//EN"
 "http://www.w3.org/Graphics/SVG/1.1/DTD/svg11.dtd">
<!-- Generated by graphviz version 2.44.0 (0)
 -->
<!-- Title: /home/ec2&#45;user/workspace/vsomeip/implementation/configuration/include/client.hpp Pages: 1 -->
<svg width="321pt" height="106pt"
 viewBox="0.00 0.00 320.50 106.00" xmlns="http://www.w3.org/2000/svg" xmlns:xlink="http://www.w3.org/1999/xlink">
<g id="graph0" class="graph" transform="scale(1 1) rotate(0) translate(4 102)">
<title>/home/ec2&#45;user/workspace/vsomeip/implementation/configuration/include/client.hpp</title>
<polygon fill="white" stroke="transparent" points="-4,4 -4,-102 316.5,-102 316.5,4 -4,4"/>
<!-- Node1 -->
<g id="node1" class="node">
<title>Node1</title>
<g id="a_node1"><a xlink:title=" ">
<polygon fill="#bfbfbf" stroke="black" points="33,-56.5 33,-97.5 186,-97.5 186,-56.5 33,-56.5"/>
<text text-anchor="start" x="41" y="-85.5" font-family="Helvetica" font-size="10.00">/home/ec2&#45;user/workspace</text>
<text text-anchor="start" x="41" y="-74.5" font-family="Helvetica" font-size="10.00">/vsomeip/implementation</text>
<text text-anchor="middle" x="109.5" y="-63.5" font-family="Helvetica" font-size="10.00">/configuration/include/client.hpp</text>
</a>
</g>
</g>
<!-- Node2 -->
<g id="node2" class="node">
<title>Node2</title>
<g id="a_node2"><a xlink:title=" ">
<polygon fill="white" stroke="#bfbfbf" points="0,-0.5 0,-19.5 35,-19.5 35,-0.5 0,-0.5"/>
<text text-anchor="middle" x="17.5" y="-7.5" font-family="Helvetica" font-size="10.00">map</text>
</a>
</g>
</g>
<!-- Node1&#45;&gt;Node2 -->
<g id="edge1" class="edge">
<title>Node1&#45;&gt;Node2</title>
<path fill="none" stroke="midnightblue" d="M81.9,-56.5C67.79,-46.53 50.92,-34.61 37.99,-25.48"/>
<polygon fill="midnightblue" stroke="midnightblue" points="39.93,-22.56 29.75,-19.65 35.89,-28.28 39.93,-22.56"/>
</g>
<!-- Node3 -->
<g id="node3" class="node">
<title>Node3</title>
<g id="a_node3"><a xlink:title=" ">
<polygon fill="white" stroke="#bfbfbf" points="53,-0.5 53,-19.5 106,-19.5 106,-0.5 53,-0.5"/>
<text text-anchor="middle" x="79.5" y="-7.5" font-family="Helvetica" font-size="10.00">memory</text>
</a>
</g>
</g>
<!-- Node1&#45;&gt;Node3 -->
<g id="edge2" class="edge">
<title>Node1&#45;&gt;Node3</title>
<path fill="none" stroke="midnightblue" d="M100.5,-56.5C96.43,-47.68 91.66,-37.34 87.69,-28.74"/>
<polygon fill="midnightblue" stroke="midnightblue" points="90.86,-27.27 83.49,-19.65 84.51,-30.2 90.86,-27.27"/>
</g>
<!-- Node4 -->
<g id="node4" class="node">
<title>Node4</title>
<g id="a_node4"><a xlink:title=" ">
<polygon fill="white" stroke="#bfbfbf" points="124.5,-0.5 124.5,-19.5 154.5,-19.5 154.5,-0.5 124.5,-0.5"/>
<text text-anchor="middle" x="139.5" y="-7.5" font-family="Helvetica" font-size="10.00">set</text>
</a>
</g>
</g>
<!-- Node1&#45;&gt;Node4 -->
<g id="edge3" class="edge">
<title>Node1&#45;&gt;Node4</title>
<path fill="none" stroke="midnightblue" d="M118.5,-56.5C122.57,-47.68 127.34,-37.34 131.31,-28.74"/>
<polygon fill="midnightblue" stroke="midnightblue" points="134.49,-30.2 135.51,-19.65 128.14,-27.27 134.49,-30.2"/>
</g>
<!-- Node5 -->
<g id="node5" class="node">
<title>Node5</title>
<g id="a_node5"><a xlink:title=" ">
<polygon fill="white" stroke="#bfbfbf" points="172.5,-0.5 172.5,-19.5 312.5,-19.5 312.5,-0.5 172.5,-0.5"/>
<text text-anchor="middle" x="242.5" y="-7.5" font-family="Helvetica" font-size="10.00">vsomeip/primitive_types.hpp</text>
</a>
</g>
</g>
<!-- Node1&#45;&gt;Node5 -->
<g id="edge4" class="edge">
<title>Node1&#45;&gt;Node5</title>
<path fill="none" stroke="midnightblue" d="M149.4,-56.5C170.87,-46.01 196.77,-33.35 215.8,-24.05"/>
<polygon fill="midnightblue" stroke="midnightblue" points="217.35,-27.19 224.8,-19.65 214.27,-20.9 217.35,-27.19"/>
</g>
</g>
</svg>
