<?xml version="1.0" encoding="UTF-8" standalone="no"?>
<!DOCTYPE svg PUBLIC "-//W3C//DTD SVG 1.1//EN"
 "http://www.w3.org/Graphics/SVG/1.1/DTD/svg11.dtd">
<!-- Generated by graphviz version 2.44.0 (0)
 -->
<!-- Title: /home/ec2&#45;user/workspace/vsomeip/implementation/endpoints/include/client_endpoint.hpp Pages: 1 -->
<svg width="492pt" height="173pt"
 viewBox="0.00 0.00 491.50 173.00" xmlns="http://www.w3.org/2000/svg" xmlns:xlink="http://www.w3.org/1999/xlink">
<g id="graph0" class="graph" transform="scale(1 1) rotate(0) translate(4 169)">
<title>/home/ec2&#45;user/workspace/vsomeip/implementation/endpoints/include/client_endpoint.hpp</title>
<polygon fill="white" stroke="transparent" points="-4,4 -4,-169 487.5,-169 487.5,4 -4,4"/>
<!-- Node1 -->
<g id="node1" class="node">
<title>Node1</title>
<g id="a_node1"><a xlink:title=" ">
<polygon fill="#bfbfbf" stroke="black" points="222,-112.5 222,-164.5 356,-164.5 356,-112.5 222,-112.5"/>
<text text-anchor="start" x="230" y="-152.5" font-family="Helvetica" font-size="10.00">/home/ec2&#45;user/workspace</text>
<text text-anchor="start" x="230" y="-141.5" font-family="Helvetica" font-size="10.00">/vsomeip/implementation</text>
<text text-anchor="start" x="230" y="-130.5" font-family="Helvetica" font-size="10.00">/endpoints/include/client</text>
<text text-anchor="middle" x="289" y="-119.5" font-family="Helvetica" font-size="10.00">_endpoint.hpp</text>
</a>
</g>
</g>
<!-- Node2 -->
<g id="node2" class="node">
<title>Node2</title>
<g id="a_node2"><a xlink:href="endpoint_8hpp.html" target="_top" xlink:title=" ">
<polygon fill="white" stroke="black" points="253.5,-56.5 253.5,-75.5 324.5,-75.5 324.5,-56.5 253.5,-56.5"/>
<text text-anchor="middle" x="289" y="-63.5" font-family="Helvetica" font-size="10.00">endpoint.hpp</text>
</a>
</g>
</g>
<!-- Node1&#45;&gt;Node2 -->
<g id="edge1" class="edge">
<title>Node1&#45;&gt;Node2</title>
<path fill="none" stroke="midnightblue" d="M289,-112.45C289,-103.73 289,-94.1 289,-85.96"/>
<polygon fill="midnightblue" stroke="midnightblue" points="292.5,-85.7 289,-75.7 285.5,-85.7 292.5,-85.7"/>
</g>
<!-- Node3 -->
<g id="node3" class="node">
<title>Node3</title>
<g id="a_node3"><a xlink:title=" ">
<polygon fill="white" stroke="#bfbfbf" points="0,-0.5 0,-19.5 128,-19.5 128,-0.5 0,-0.5"/>
<text text-anchor="middle" x="64" y="-7.5" font-family="Helvetica" font-size="10.00">boost/asio/ip/address.hpp</text>
</a>
</g>
</g>
<!-- Node2&#45;&gt;Node3 -->
<g id="edge2" class="edge">
<title>Node2&#45;&gt;Node3</title>
<path fill="none" stroke="midnightblue" d="M253.35,-56.44C214.34,-47.08 151.73,-32.06 109.28,-21.87"/>
<polygon fill="midnightblue" stroke="midnightblue" points="110.03,-18.45 99.49,-19.52 108.39,-25.25 110.03,-18.45"/>
</g>
<!-- Node4 -->
<g id="node4" class="node">
<title>Node4</title>
<g id="a_node4"><a xlink:title=" ">
<polygon fill="white" stroke="#bfbfbf" points="146,-0.5 146,-19.5 286,-19.5 286,-0.5 146,-0.5"/>
<text text-anchor="middle" x="216" y="-7.5" font-family="Helvetica" font-size="10.00">vsomeip/primitive_types.hpp</text>
</a>
</g>
</g>
<!-- Node2&#45;&gt;Node4 -->
<g id="edge3" class="edge">
<title>Node2&#45;&gt;Node4</title>
<path fill="none" stroke="midnightblue" d="M277.27,-56.32C266.16,-48.11 249.26,-35.6 236.02,-25.81"/>
<polygon fill="midnightblue" stroke="midnightblue" points="238.06,-22.97 227.94,-19.83 233.9,-28.59 238.06,-22.97"/>
</g>
<!-- Node5 -->
<g id="node5" class="node">
<title>Node5</title>
<g id="a_node5"><a xlink:title=" ">
<polygon fill="white" stroke="#bfbfbf" points="304,-0.5 304,-19.5 422,-19.5 422,-0.5 304,-0.5"/>
<text text-anchor="middle" x="363" y="-7.5" font-family="Helvetica" font-size="10.00">vsomeip/constants.hpp</text>
</a>
</g>
</g>
<!-- Node2&#45;&gt;Node5 -->
<g id="edge4" class="edge">
<title>Node2&#45;&gt;Node5</title>
<path fill="none" stroke="midnightblue" d="M300.89,-56.32C312.15,-48.11 329.29,-35.6 342.71,-25.81"/>
<polygon fill="midnightblue" stroke="midnightblue" points="344.88,-28.56 350.89,-19.83 340.75,-22.9 344.88,-28.56"/>
</g>
<!-- Node6 -->
<g id="node6" class="node">
<title>Node6</title>
<g id="a_node6"><a xlink:title=" ">
<polygon fill="white" stroke="#bfbfbf" points="440.5,-0.5 440.5,-19.5 483.5,-19.5 483.5,-0.5 440.5,-0.5"/>
<text text-anchor="middle" x="462" y="-7.5" font-family="Helvetica" font-size="10.00">vector</text>
</a>
</g>
</g>
<!-- Node2&#45;&gt;Node6 -->
<g id="edge5" class="edge">
<title>Node2&#45;&gt;Node6</title>
<path fill="none" stroke="midnightblue" d="M316.41,-56.44C347.45,-46.76 397.92,-31 430.54,-20.82"/>
<polygon fill="midnightblue" stroke="midnightblue" points="431.95,-24.05 440.45,-17.73 429.87,-17.36 431.95,-24.05"/>
</g>
</g>
</svg>
