<?xml version="1.0" encoding="UTF-8" standalone="no"?>
<!DOCTYPE svg PUBLIC "-//W3C//DTD SVG 1.1//EN"
 "http://www.w3.org/Graphics/SVG/1.1/DTD/svg11.dtd">
<!-- Generated by graphviz version 2.44.0 (0)
 -->
<!-- Title: /home/ec2&#45;user/workspace/vsomeip/implementation/endpoints/include/client_endpoint_impl.hpp Pages: 1 -->
<svg width="1060pt" height="239pt"
 viewBox="0.00 0.00 1060.00 239.00" xmlns="http://www.w3.org/2000/svg" xmlns:xlink="http://www.w3.org/1999/xlink">
<g id="graph0" class="graph" transform="scale(1 1) rotate(0) translate(4 235)">
<title>/home/ec2&#45;user/workspace/vsomeip/implementation/endpoints/include/client_endpoint_impl.hpp</title>
<polygon fill="white" stroke="transparent" points="-4,4 -4,-235 1056,-235 1056,4 -4,4"/>
<!-- Node1 -->
<g id="node1" class="node">
<title>Node1</title>
<g id="a_node1"><a xlink:title=" ">
<polygon fill="#bfbfbf" stroke="black" points="575,-178.5 575,-230.5 709,-230.5 709,-178.5 575,-178.5"/>
<text text-anchor="start" x="583" y="-218.5" font-family="Helvetica" font-size="10.00">/home/ec2&#45;user/workspace</text>
<text text-anchor="start" x="583" y="-207.5" font-family="Helvetica" font-size="10.00">/vsomeip/implementation</text>
<text text-anchor="start" x="583" y="-196.5" font-family="Helvetica" font-size="10.00">/endpoints/include/client</text>
<text text-anchor="middle" x="642" y="-185.5" font-family="Helvetica" font-size="10.00">_endpoint_impl.hpp</text>
</a>
</g>
</g>
<!-- Node2 -->
<g id="node2" class="node">
<title>Node2</title>
<g id="a_node2"><a xlink:href="local__tcp__client__endpoint__impl_8hpp.html" target="_top" xlink:title=" ">
<polygon fill="white" stroke="black" points="145,-89.5 145,-141.5 293,-141.5 293,-89.5 145,-89.5"/>
<text text-anchor="start" x="153" y="-129.5" font-family="Helvetica" font-size="10.00">/home/ec2&#45;user/workspace</text>
<text text-anchor="start" x="153" y="-118.5" font-family="Helvetica" font-size="10.00">/vsomeip/implementation</text>
<text text-anchor="start" x="153" y="-107.5" font-family="Helvetica" font-size="10.00">/endpoints/include/local</text>
<text text-anchor="middle" x="219" y="-96.5" font-family="Helvetica" font-size="10.00">_tcp_client_endpoint_impl.hpp</text>
</a>
</g>
</g>
<!-- Node1&#45;&gt;Node2 -->
<g id="edge1" class="edge">
<title>Node1&#45;&gt;Node2</title>
<path fill="none" stroke="midnightblue" d="M564.82,-187.63C487.52,-171.73 369.4,-147.43 293.18,-131.76"/>
<polygon fill="midnightblue" stroke="midnightblue" points="564.47,-191.13 574.97,-189.71 565.88,-184.27 564.47,-191.13"/>
</g>
<!-- Node5 -->
<g id="node5" class="node">
<title>Node5</title>
<g id="a_node5"><a xlink:href="local__uds__client__endpoint__impl_8hpp.html" target="_top" xlink:title=" ">
<polygon fill="white" stroke="black" points="372,-89.5 372,-141.5 522,-141.5 522,-89.5 372,-89.5"/>
<text text-anchor="start" x="380" y="-129.5" font-family="Helvetica" font-size="10.00">/home/ec2&#45;user/workspace</text>
<text text-anchor="start" x="380" y="-118.5" font-family="Helvetica" font-size="10.00">/vsomeip/implementation</text>
<text text-anchor="start" x="380" y="-107.5" font-family="Helvetica" font-size="10.00">/endpoints/include/local</text>
<text text-anchor="middle" x="447" y="-96.5" font-family="Helvetica" font-size="10.00">_uds_client_endpoint_impl.hpp</text>
</a>
</g>
</g>
<!-- Node1&#45;&gt;Node5 -->
<g id="edge4" class="edge">
<title>Node1&#45;&gt;Node5</title>
<path fill="none" stroke="midnightblue" d="M576.54,-174.29C552.72,-163.67 526.02,-151.76 503.08,-141.52"/>
<polygon fill="midnightblue" stroke="midnightblue" points="575.3,-177.57 585.86,-178.45 578.15,-171.18 575.3,-177.57"/>
</g>
<!-- Node7 -->
<g id="node7" class="node">
<title>Node7</title>
<g id="a_node7"><a xlink:href="tcp__client__endpoint__impl_8hpp.html" target="_top" xlink:title=" ">
<polygon fill="white" stroke="black" points="732,-89.5 732,-141.5 872,-141.5 872,-89.5 732,-89.5"/>
<text text-anchor="start" x="740" y="-129.5" font-family="Helvetica" font-size="10.00">/home/ec2&#45;user/workspace</text>
<text text-anchor="start" x="740" y="-118.5" font-family="Helvetica" font-size="10.00">/vsomeip/implementation</text>
<text text-anchor="start" x="740" y="-107.5" font-family="Helvetica" font-size="10.00">/endpoints/include/tcp_client</text>
<text text-anchor="middle" x="802" y="-96.5" font-family="Helvetica" font-size="10.00">_endpoint_impl.hpp</text>
</a>
</g>
</g>
<!-- Node1&#45;&gt;Node7 -->
<g id="edge6" class="edge">
<title>Node1&#45;&gt;Node7</title>
<path fill="none" stroke="midnightblue" d="M697.18,-173.49C716.3,-163.1 737.51,-151.57 755.83,-141.61"/>
<polygon fill="midnightblue" stroke="midnightblue" points="695.39,-170.48 688.28,-178.34 698.74,-176.63 695.39,-170.48"/>
</g>
<!-- Node11 -->
<g id="node11" class="node">
<title>Node11</title>
<g id="a_node11"><a xlink:href="udp__client__endpoint__impl_8hpp.html" target="_top" xlink:title=" ">
<polygon fill="white" stroke="black" points="570.5,-89.5 570.5,-141.5 713.5,-141.5 713.5,-89.5 570.5,-89.5"/>
<text text-anchor="start" x="578.5" y="-129.5" font-family="Helvetica" font-size="10.00">/home/ec2&#45;user/workspace</text>
<text text-anchor="start" x="578.5" y="-118.5" font-family="Helvetica" font-size="10.00">/vsomeip/implementation</text>
<text text-anchor="start" x="578.5" y="-107.5" font-family="Helvetica" font-size="10.00">/endpoints/include/udp_client</text>
<text text-anchor="middle" x="642" y="-96.5" font-family="Helvetica" font-size="10.00">_endpoint_impl.hpp</text>
</a>
</g>
</g>
<!-- Node1&#45;&gt;Node11 -->
<g id="edge10" class="edge">
<title>Node1&#45;&gt;Node11</title>
<path fill="none" stroke="midnightblue" d="M642,-168.19C642,-159.28 642,-149.9 642,-141.61"/>
<polygon fill="midnightblue" stroke="midnightblue" points="638.5,-168.34 642,-178.34 645.5,-168.34 638.5,-168.34"/>
</g>
<!-- Node13 -->
<g id="node13" class="node">
<title>Node13</title>
<g id="a_node13"><a xlink:href="client__endpoint__impl_8cpp.html" target="_top" xlink:title=" ">
<polygon fill="white" stroke="black" points="890,-89.5 890,-141.5 1036,-141.5 1036,-89.5 890,-89.5"/>
<text text-anchor="start" x="898" y="-129.5" font-family="Helvetica" font-size="10.00">/home/ec2&#45;user/workspace</text>
<text text-anchor="start" x="898" y="-118.5" font-family="Helvetica" font-size="10.00">/vsomeip/implementation</text>
<text text-anchor="start" x="898" y="-107.5" font-family="Helvetica" font-size="10.00">/endpoints/src/client_endpoint</text>
<text text-anchor="middle" x="963" y="-96.5" font-family="Helvetica" font-size="10.00">_impl.cpp</text>
</a>
</g>
</g>
<!-- Node1&#45;&gt;Node13 -->
<g id="edge14" class="edge">
<title>Node1&#45;&gt;Node13</title>
<path fill="none" stroke="midnightblue" d="M719,-184.72C765.97,-173.01 827.13,-157.3 881,-142 883.87,-141.19 886.79,-140.34 889.74,-139.48"/>
<polygon fill="midnightblue" stroke="midnightblue" points="718.06,-181.34 709.2,-187.15 719.75,-188.14 718.06,-181.34"/>
</g>
<!-- Node3 -->
<g id="node3" class="node">
<title>Node3</title>
<g id="a_node3"><a xlink:href="endpoint__manager__base_8cpp.html" target="_top" xlink:title=" ">
<polygon fill="white" stroke="black" points="152,-0.5 152,-52.5 286,-52.5 286,-0.5 152,-0.5"/>
<text text-anchor="start" x="160" y="-40.5" font-family="Helvetica" font-size="10.00">/home/ec2&#45;user/workspace</text>
<text text-anchor="start" x="160" y="-29.5" font-family="Helvetica" font-size="10.00">/vsomeip/implementation</text>
<text text-anchor="start" x="160" y="-18.5" font-family="Helvetica" font-size="10.00">/endpoints/src/endpoint</text>
<text text-anchor="middle" x="219" y="-7.5" font-family="Helvetica" font-size="10.00">_manager_base.cpp</text>
</a>
</g>
</g>
<!-- Node2&#45;&gt;Node3 -->
<g id="edge2" class="edge">
<title>Node2&#45;&gt;Node3</title>
<path fill="none" stroke="midnightblue" d="M219,-79.19C219,-70.28 219,-60.9 219,-52.61"/>
<polygon fill="midnightblue" stroke="midnightblue" points="215.5,-79.34 219,-89.34 222.5,-79.34 215.5,-79.34"/>
</g>
<!-- Node4 -->
<g id="node4" class="node">
<title>Node4</title>
<g id="a_node4"><a xlink:href="local__tcp__client__endpoint__impl_8cpp.html" target="_top" xlink:title=" ">
<polygon fill="white" stroke="black" points="0,-0.5 0,-52.5 134,-52.5 134,-0.5 0,-0.5"/>
<text text-anchor="start" x="8" y="-40.5" font-family="Helvetica" font-size="10.00">/home/ec2&#45;user/workspace</text>
<text text-anchor="start" x="8" y="-29.5" font-family="Helvetica" font-size="10.00">/vsomeip/implementation</text>
<text text-anchor="start" x="8" y="-18.5" font-family="Helvetica" font-size="10.00">/endpoints/src/local_tcp</text>
<text text-anchor="middle" x="67" y="-7.5" font-family="Helvetica" font-size="10.00">_client_endpoint_impl.cpp</text>
</a>
</g>
</g>
<!-- Node2&#45;&gt;Node4 -->
<g id="edge3" class="edge">
<title>Node2&#45;&gt;Node4</title>
<path fill="none" stroke="midnightblue" d="M166.33,-84.35C148.23,-74 128.19,-62.52 110.87,-52.61"/>
<polygon fill="midnightblue" stroke="midnightblue" points="164.62,-87.41 175.04,-89.34 168.1,-81.33 164.62,-87.41"/>
</g>
<!-- Node6 -->
<g id="node6" class="node">
<title>Node6</title>
<g id="a_node6"><a xlink:href="local__uds__client__endpoint__impl_8cpp.html" target="_top" xlink:title=" ">
<polygon fill="white" stroke="black" points="304,-0.5 304,-52.5 438,-52.5 438,-0.5 304,-0.5"/>
<text text-anchor="start" x="312" y="-40.5" font-family="Helvetica" font-size="10.00">/home/ec2&#45;user/workspace</text>
<text text-anchor="start" x="312" y="-29.5" font-family="Helvetica" font-size="10.00">/vsomeip/implementation</text>
<text text-anchor="start" x="312" y="-18.5" font-family="Helvetica" font-size="10.00">/endpoints/src/local_uds</text>
<text text-anchor="middle" x="371" y="-7.5" font-family="Helvetica" font-size="10.00">_client_endpoint_impl.cpp</text>
</a>
</g>
</g>
<!-- Node5&#45;&gt;Node6 -->
<g id="edge5" class="edge">
<title>Node5&#45;&gt;Node6</title>
<path fill="none" stroke="midnightblue" d="M418.43,-81.79C409.99,-72.13 400.88,-61.71 392.93,-52.61"/>
<polygon fill="midnightblue" stroke="midnightblue" points="415.8,-84.11 425.02,-89.34 421.07,-79.5 415.8,-84.11"/>
</g>
<!-- Node8 -->
<g id="node8" class="node">
<title>Node8</title>
<g id="a_node8"><a xlink:href="endpoint__manager__impl_8cpp.html" target="_top" xlink:title=" ">
<polygon fill="white" stroke="black" points="766,-0.5 766,-52.5 900,-52.5 900,-0.5 766,-0.5"/>
<text text-anchor="start" x="774" y="-40.5" font-family="Helvetica" font-size="10.00">/home/ec2&#45;user/workspace</text>
<text text-anchor="start" x="774" y="-29.5" font-family="Helvetica" font-size="10.00">/vsomeip/implementation</text>
<text text-anchor="start" x="774" y="-18.5" font-family="Helvetica" font-size="10.00">/endpoints/src/endpoint</text>
<text text-anchor="middle" x="833" y="-7.5" font-family="Helvetica" font-size="10.00">_manager_impl.cpp</text>
</a>
</g>
</g>
<!-- Node7&#45;&gt;Node8 -->
<g id="edge7" class="edge">
<title>Node7&#45;&gt;Node8</title>
<path fill="none" stroke="midnightblue" d="M814.37,-79.77C817.61,-70.69 821.04,-61.08 824.05,-52.61"/>
<polygon fill="midnightblue" stroke="midnightblue" points="811.03,-78.74 810.97,-89.34 817.62,-81.09 811.03,-78.74"/>
</g>
<!-- Node9 -->
<g id="node9" class="node">
<title>Node9</title>
<g id="a_node9"><a xlink:href="tcp__client__endpoint__impl_8cpp.html" target="_top" xlink:title=" ">
<polygon fill="white" stroke="black" points="918,-0.5 918,-52.5 1052,-52.5 1052,-0.5 918,-0.5"/>
<text text-anchor="start" x="926" y="-40.5" font-family="Helvetica" font-size="10.00">/home/ec2&#45;user/workspace</text>
<text text-anchor="start" x="926" y="-29.5" font-family="Helvetica" font-size="10.00">/vsomeip/implementation</text>
<text text-anchor="start" x="926" y="-18.5" font-family="Helvetica" font-size="10.00">/endpoints/src/tcp_client</text>
<text text-anchor="middle" x="985" y="-7.5" font-family="Helvetica" font-size="10.00">_endpoint_impl.cpp</text>
</a>
</g>
</g>
<!-- Node7&#45;&gt;Node9 -->
<g id="edge8" class="edge">
<title>Node7&#45;&gt;Node9</title>
<path fill="none" stroke="midnightblue" d="M864.23,-84.92C886.32,-74.41 910.96,-62.7 932.19,-52.61"/>
<polygon fill="midnightblue" stroke="midnightblue" points="862.46,-81.88 854.93,-89.34 865.47,-88.2 862.46,-81.88"/>
</g>
<!-- Node10 -->
<g id="node10" class="node">
<title>Node10</title>
<g id="a_node10"><a xlink:href="routing__manager__impl_8cpp.html" target="_top" xlink:title=" ">
<polygon fill="white" stroke="black" points="608,-0.5 608,-52.5 748,-52.5 748,-0.5 608,-0.5"/>
<text text-anchor="start" x="616" y="-40.5" font-family="Helvetica" font-size="10.00">/home/ec2&#45;user/workspace</text>
<text text-anchor="start" x="616" y="-29.5" font-family="Helvetica" font-size="10.00">/vsomeip/implementation</text>
<text text-anchor="start" x="616" y="-18.5" font-family="Helvetica" font-size="10.00">/routing/src/routing_manager</text>
<text text-anchor="middle" x="678" y="-7.5" font-family="Helvetica" font-size="10.00">_impl.cpp</text>
</a>
</g>
</g>
<!-- Node7&#45;&gt;Node10 -->
<g id="edge9" class="edge">
<title>Node7&#45;&gt;Node10</title>
<path fill="none" stroke="midnightblue" d="M757.82,-83.5C743.38,-73.37 727.53,-62.25 713.79,-52.61"/>
<polygon fill="midnightblue" stroke="midnightblue" points="755.94,-86.46 766.13,-89.34 759.96,-80.73 755.94,-86.46"/>
</g>
<!-- Node11&#45;&gt;Node8 -->
<g id="edge11" class="edge">
<title>Node11&#45;&gt;Node8</title>
<path fill="none" stroke="midnightblue" d="M706.12,-85.29C729.45,-74.67 755.6,-62.76 778.07,-52.52"/>
<polygon fill="midnightblue" stroke="midnightblue" points="704.64,-82.12 696.99,-89.45 707.54,-88.49 704.64,-82.12"/>
</g>
<!-- Node11&#45;&gt;Node10 -->
<g id="edge13" class="edge">
<title>Node11&#45;&gt;Node10</title>
<path fill="none" stroke="midnightblue" d="M656.25,-80.06C660.04,-70.9 664.07,-61.17 667.61,-52.61"/>
<polygon fill="midnightblue" stroke="midnightblue" points="653,-78.76 652.41,-89.34 659.47,-81.43 653,-78.76"/>
</g>
<!-- Node12 -->
<g id="node12" class="node">
<title>Node12</title>
<g id="a_node12"><a xlink:href="udp__client__endpoint__impl_8cpp.html" target="_top" xlink:title=" ">
<polygon fill="white" stroke="black" points="456,-0.5 456,-52.5 590,-52.5 590,-0.5 456,-0.5"/>
<text text-anchor="start" x="464" y="-40.5" font-family="Helvetica" font-size="10.00">/home/ec2&#45;user/workspace</text>
<text text-anchor="start" x="464" y="-29.5" font-family="Helvetica" font-size="10.00">/vsomeip/implementation</text>
<text text-anchor="start" x="464" y="-18.5" font-family="Helvetica" font-size="10.00">/endpoints/src/udp_client</text>
<text text-anchor="middle" x="523" y="-7.5" font-family="Helvetica" font-size="10.00">_endpoint_impl.cpp</text>
</a>
</g>
</g>
<!-- Node11&#45;&gt;Node12 -->
<g id="edge12" class="edge">
<title>Node11&#45;&gt;Node12</title>
<path fill="none" stroke="midnightblue" d="M599.21,-83.22C585.46,-73.16 570.41,-62.16 557.34,-52.61"/>
<polygon fill="midnightblue" stroke="midnightblue" points="597.44,-86.26 607.58,-89.34 601.57,-80.61 597.44,-86.26"/>
</g>
</g>
</svg>
