<?xml version="1.0" encoding="UTF-8" standalone="no"?>
<!DOCTYPE svg PUBLIC "-//W3C//DTD SVG 1.1//EN"
 "http://www.w3.org/Graphics/SVG/1.1/DTD/svg11.dtd">
<!-- Generated by graphviz version 2.44.0 (0)
 -->
<!-- Title: /home/ec2&#45;user/workspace/vsomeip/implementation/protocol/include/command.hpp Pages: 1 -->
<svg width="350pt" height="162pt"
 viewBox="0.00 0.00 350.00 162.00" xmlns="http://www.w3.org/2000/svg" xmlns:xlink="http://www.w3.org/1999/xlink">
<g id="graph0" class="graph" transform="scale(1 1) rotate(0) translate(4 158)">
<title>/home/ec2&#45;user/workspace/vsomeip/implementation/protocol/include/command.hpp</title>
<polygon fill="white" stroke="transparent" points="-4,4 -4,-158 346,-158 346,4 -4,4"/>
<!-- Node1 -->
<g id="node1" class="node">
<title>Node1</title>
<g id="a_node1"><a xlink:title=" ">
<polygon fill="#bfbfbf" stroke="black" points="35,-112.5 35,-153.5 187,-153.5 187,-112.5 35,-112.5"/>
<text text-anchor="start" x="43" y="-141.5" font-family="Helvetica" font-size="10.00">/home/ec2&#45;user/workspace</text>
<text text-anchor="start" x="43" y="-130.5" font-family="Helvetica" font-size="10.00">/vsomeip/implementation</text>
<text text-anchor="middle" x="111" y="-119.5" font-family="Helvetica" font-size="10.00">/protocol/include/command.hpp</text>
</a>
</g>
</g>
<!-- Node2 -->
<g id="node2" class="node">
<title>Node2</title>
<g id="a_node2"><a xlink:title=" ">
<polygon fill="white" stroke="#bfbfbf" points="0,-56.5 0,-75.5 46,-75.5 46,-56.5 0,-56.5"/>
<text text-anchor="middle" x="23" y="-63.5" font-family="Helvetica" font-size="10.00">cstring</text>
</a>
</g>
</g>
<!-- Node1&#45;&gt;Node2 -->
<g id="edge1" class="edge">
<title>Node1&#45;&gt;Node2</title>
<path fill="none" stroke="midnightblue" d="M84.6,-112.5C71.23,-102.63 55.28,-90.84 42.96,-81.74"/>
<polygon fill="midnightblue" stroke="midnightblue" points="44.84,-78.78 34.71,-75.65 40.68,-84.41 44.84,-78.78"/>
</g>
<!-- Node3 -->
<g id="node3" class="node">
<title>Node3</title>
<g id="a_node3"><a xlink:title=" ">
<polygon fill="white" stroke="#bfbfbf" points="64.5,-56.5 64.5,-75.5 107.5,-75.5 107.5,-56.5 64.5,-56.5"/>
<text text-anchor="middle" x="86" y="-63.5" font-family="Helvetica" font-size="10.00">vector</text>
</a>
</g>
</g>
<!-- Node1&#45;&gt;Node3 -->
<g id="edge2" class="edge">
<title>Node1&#45;&gt;Node3</title>
<path fill="none" stroke="midnightblue" d="M103.5,-112.5C100.15,-103.78 96.22,-93.56 92.93,-85.02"/>
<polygon fill="midnightblue" stroke="midnightblue" points="96.18,-83.73 89.33,-75.65 89.65,-86.24 96.18,-83.73"/>
</g>
<!-- Node4 -->
<g id="node4" class="node">
<title>Node4</title>
<g id="a_node4"><a xlink:title=" ">
<polygon fill="white" stroke="#bfbfbf" points="66,-0.5 66,-19.5 206,-19.5 206,-0.5 66,-0.5"/>
<text text-anchor="middle" x="136" y="-7.5" font-family="Helvetica" font-size="10.00">vsomeip/primitive_types.hpp</text>
</a>
</g>
</g>
<!-- Node1&#45;&gt;Node4 -->
<g id="edge3" class="edge">
<title>Node1&#45;&gt;Node4</title>
<path fill="none" stroke="midnightblue" d="M115.07,-112.29C119.81,-89.37 127.56,-51.85 132.18,-29.47"/>
<polygon fill="midnightblue" stroke="midnightblue" points="135.63,-30.08 134.23,-19.57 128.78,-28.66 135.63,-30.08"/>
</g>
<!-- Node5 -->
<g id="node5" class="node">
<title>Node5</title>
<g id="a_node5"><a xlink:href="protocol_8hpp.html" target="_top" xlink:title=" ">
<polygon fill="white" stroke="black" points="164,-56.5 164,-75.5 234,-75.5 234,-56.5 164,-56.5"/>
<text text-anchor="middle" x="199" y="-63.5" font-family="Helvetica" font-size="10.00">protocol.hpp</text>
</a>
</g>
</g>
<!-- Node1&#45;&gt;Node5 -->
<g id="edge4" class="edge">
<title>Node1&#45;&gt;Node5</title>
<path fill="none" stroke="midnightblue" d="M137.4,-112.5C150.77,-102.63 166.72,-90.84 179.04,-81.74"/>
<polygon fill="midnightblue" stroke="midnightblue" points="181.32,-84.41 187.29,-75.65 177.16,-78.78 181.32,-84.41"/>
</g>
<!-- Node5&#45;&gt;Node4 -->
<g id="edge6" class="edge">
<title>Node5&#45;&gt;Node4</title>
<path fill="none" stroke="midnightblue" d="M188.88,-56.32C179.47,-48.26 165.26,-36.08 153.93,-26.37"/>
<polygon fill="midnightblue" stroke="midnightblue" points="156.18,-23.68 146.31,-19.83 151.62,-29 156.18,-23.68"/>
</g>
<!-- Node6 -->
<g id="node6" class="node">
<title>Node6</title>
<g id="a_node6"><a xlink:title=" ">
<polygon fill="white" stroke="#bfbfbf" points="224,-0.5 224,-19.5 342,-19.5 342,-0.5 224,-0.5"/>
<text text-anchor="middle" x="283" y="-7.5" font-family="Helvetica" font-size="10.00">vsomeip/constants.hpp</text>
</a>
</g>
</g>
<!-- Node5&#45;&gt;Node6 -->
<g id="edge5" class="edge">
<title>Node5&#45;&gt;Node6</title>
<path fill="none" stroke="midnightblue" d="M212.5,-56.32C225.6,-47.9 245.71,-34.97 261.11,-25.07"/>
<polygon fill="midnightblue" stroke="midnightblue" points="263.02,-28.01 269.54,-19.65 259.23,-22.12 263.02,-28.01"/>
</g>
</g>
</svg>
