<?xml version="1.0" encoding="UTF-8" standalone="no"?>
<!DOCTYPE svg PUBLIC "-//W3C//DTD SVG 1.1//EN"
 "http://www.w3.org/Graphics/SVG/1.1/DTD/svg11.dtd">
<!-- Generated by graphviz version 2.44.0 (0)
 -->
<!-- Title: /home/ec2&#45;user/workspace/vsomeip/interface/compat/vsomeip/application.hpp Pages: 1 -->
<svg width="708pt" height="240pt"
 viewBox="0.00 0.00 707.50 240.00" xmlns="http://www.w3.org/2000/svg" xmlns:xlink="http://www.w3.org/1999/xlink">
<g id="graph0" class="graph" transform="scale(1 1) rotate(0) translate(4 236)">
<title>/home/ec2&#45;user/workspace/vsomeip/interface/compat/vsomeip/application.hpp</title>
<polygon fill="white" stroke="transparent" points="-4,4 -4,-236 703.5,-236 703.5,4 -4,4"/>
<!-- Node1 -->
<g id="node1" class="node">
<title>Node1</title>
<g id="a_node1"><a xlink:title=" ">
<polygon fill="#bfbfbf" stroke="black" points="337,-190.5 337,-231.5 471,-231.5 471,-190.5 337,-190.5"/>
<text text-anchor="start" x="345" y="-219.5" font-family="Helvetica" font-size="10.00">/home/ec2&#45;user/workspace</text>
<text text-anchor="start" x="345" y="-208.5" font-family="Helvetica" font-size="10.00">/vsomeip/interface/compat</text>
<text text-anchor="middle" x="404" y="-197.5" font-family="Helvetica" font-size="10.00">/vsomeip/application.hpp</text>
</a>
</g>
</g>
<!-- Node2 -->
<g id="node2" class="node">
<title>Node2</title>
<g id="a_node2"><a xlink:title=" ">
<polygon fill="white" stroke="#bfbfbf" points="0,-129 0,-148 46,-148 46,-129 0,-129"/>
<text text-anchor="middle" x="23" y="-136" font-family="Helvetica" font-size="10.00">chrono</text>
</a>
</g>
</g>
<!-- Node1&#45;&gt;Node2 -->
<g id="edge1" class="edge">
<title>Node1&#45;&gt;Node2</title>
<path fill="none" stroke="midnightblue" d="M336.83,-203.33C266.83,-195.4 154.39,-179.86 60,-154 57.41,-153.29 54.75,-152.46 52.1,-151.56"/>
<polygon fill="midnightblue" stroke="midnightblue" points="53.3,-148.28 42.71,-148.12 50.89,-154.85 53.3,-148.28"/>
</g>
<!-- Node3 -->
<g id="node3" class="node">
<title>Node3</title>
<g id="a_node3"><a xlink:title=" ">
<polygon fill="white" stroke="#bfbfbf" points="129.5,-62 129.5,-81 182.5,-81 182.5,-62 129.5,-62"/>
<text text-anchor="middle" x="156" y="-69" font-family="Helvetica" font-size="10.00">memory</text>
</a>
</g>
</g>
<!-- Node1&#45;&gt;Node3 -->
<g id="edge2" class="edge">
<title>Node1&#45;&gt;Node3</title>
<path fill="none" stroke="midnightblue" d="M336.72,-207.64C254.76,-203.18 123.44,-190.41 93,-154 73.79,-131.03 106.66,-103.24 131.7,-86.76"/>
<polygon fill="midnightblue" stroke="midnightblue" points="133.87,-89.53 140.46,-81.24 130.14,-83.61 133.87,-89.53"/>
</g>
<!-- Node4 -->
<g id="node4" class="node">
<title>Node4</title>
<g id="a_node4"><a xlink:title=" ">
<polygon fill="white" stroke="#bfbfbf" points="555,-129 555,-148 585,-148 585,-129 555,-129"/>
<text text-anchor="middle" x="570" y="-136" font-family="Helvetica" font-size="10.00">set</text>
</a>
</g>
</g>
<!-- Node1&#45;&gt;Node4 -->
<g id="edge3" class="edge">
<title>Node1&#45;&gt;Node4</title>
<path fill="none" stroke="midnightblue" d="M454.49,-190.42C480.53,-180.06 512.69,-166.84 541,-154 542.55,-153.3 544.14,-152.56 545.74,-151.8"/>
<polygon fill="midnightblue" stroke="midnightblue" points="547.3,-154.93 554.75,-147.39 544.23,-148.64 547.3,-154.93"/>
</g>
<!-- Node5 -->
<g id="node5" class="node">
<title>Node5</title>
<g id="a_node5"><a xlink:title=" ">
<polygon fill="white" stroke="#bfbfbf" points="603.5,-129 603.5,-148 638.5,-148 638.5,-129 603.5,-129"/>
<text text-anchor="middle" x="621" y="-136" font-family="Helvetica" font-size="10.00">map</text>
</a>
</g>
</g>
<!-- Node1&#45;&gt;Node5 -->
<g id="edge4" class="edge">
<title>Node1&#45;&gt;Node5</title>
<path fill="none" stroke="midnightblue" d="M471.1,-193.85C508.01,-184.07 554.24,-170.33 594,-154 595.03,-153.58 596.08,-153.12 597.13,-152.65"/>
<polygon fill="midnightblue" stroke="midnightblue" points="599.01,-155.62 606.41,-148.04 595.9,-149.35 599.01,-155.62"/>
</g>
<!-- Node6 -->
<g id="node6" class="node">
<title>Node6</title>
<g id="a_node6"><a xlink:title=" ">
<polygon fill="white" stroke="#bfbfbf" points="656.5,-129 656.5,-148 699.5,-148 699.5,-129 656.5,-129"/>
<text text-anchor="middle" x="678" y="-136" font-family="Helvetica" font-size="10.00">vector</text>
</a>
</g>
</g>
<!-- Node1&#45;&gt;Node6 -->
<g id="edge5" class="edge">
<title>Node1&#45;&gt;Node6</title>
<path fill="none" stroke="midnightblue" d="M471.16,-198.8C520.83,-189.51 589.67,-174.5 648,-154 649.61,-153.43 651.25,-152.8 652.89,-152.13"/>
<polygon fill="midnightblue" stroke="midnightblue" points="654.4,-155.29 662.09,-148.01 651.53,-148.91 654.4,-155.29"/>
</g>
<!-- Node7 -->
<g id="node7" class="node">
<title>Node7</title>
<g id="a_node7"><a xlink:href="interface_2compat_2vsomeip_2constants_8hpp.html" target="_top" xlink:title=" ">
<polygon fill="white" stroke="black" points="391.5,-123.5 391.5,-153.5 498.5,-153.5 498.5,-123.5 391.5,-123.5"/>
<text text-anchor="start" x="399.5" y="-141.5" font-family="Helvetica" font-size="10.00">../../compat/vsomeip</text>
<text text-anchor="middle" x="445" y="-130.5" font-family="Helvetica" font-size="10.00">/constants.hpp</text>
</a>
</g>
</g>
<!-- Node1&#45;&gt;Node7 -->
<g id="edge6" class="edge">
<title>Node1&#45;&gt;Node7</title>
<path fill="none" stroke="midnightblue" d="M415.42,-190.36C420.42,-181.77 426.31,-171.64 431.52,-162.68"/>
<polygon fill="midnightblue" stroke="midnightblue" points="434.63,-164.3 436.63,-153.89 428.58,-160.78 434.63,-164.3"/>
</g>
<!-- Node9 -->
<g id="node9" class="node">
<title>Node9</title>
<g id="a_node9"><a xlink:href="interface_2compat_2vsomeip_2enumeration__types_8hpp.html" target="_top" xlink:title=" ">
<polygon fill="white" stroke="black" points="474.5,-56.5 474.5,-86.5 595.5,-86.5 595.5,-56.5 474.5,-56.5"/>
<text text-anchor="start" x="482.5" y="-74.5" font-family="Helvetica" font-size="10.00">../../compat/vsomeip</text>
<text text-anchor="middle" x="535" y="-63.5" font-family="Helvetica" font-size="10.00">/enumeration_types.hpp</text>
</a>
</g>
</g>
<!-- Node1&#45;&gt;Node9 -->
<g id="edge13" class="edge">
<title>Node1&#45;&gt;Node9</title>
<path fill="none" stroke="midnightblue" d="M458.1,-190.46C476.06,-181.69 494.81,-169.71 508,-154 521.65,-137.74 528.47,-114.34 531.83,-96.79"/>
<polygon fill="midnightblue" stroke="midnightblue" points="535.32,-97.16 533.51,-86.72 528.41,-96.01 535.32,-97.16"/>
</g>
<!-- Node11 -->
<g id="node11" class="node">
<title>Node11</title>
<g id="a_node11"><a xlink:href="interface_2compat_2vsomeip_2primitive__types_8hpp.html" target="_top" xlink:title=" ">
<polygon fill="white" stroke="black" points="290.5,-56.5 290.5,-86.5 397.5,-86.5 397.5,-56.5 290.5,-56.5"/>
<text text-anchor="start" x="298.5" y="-74.5" font-family="Helvetica" font-size="10.00">../../compat/vsomeip</text>
<text text-anchor="middle" x="344" y="-63.5" font-family="Helvetica" font-size="10.00">/primitive_types.hpp</text>
</a>
</g>
</g>
<!-- Node1&#45;&gt;Node11 -->
<g id="edge21" class="edge">
<title>Node1&#45;&gt;Node11</title>
<path fill="none" stroke="midnightblue" d="M395.4,-190.3C384.54,-165.41 365.87,-122.62 354.27,-96.04"/>
<polygon fill="midnightblue" stroke="midnightblue" points="357.41,-94.48 350.2,-86.72 350.99,-97.28 357.41,-94.48"/>
</g>
<!-- Node13 -->
<g id="node13" class="node">
<title>Node13</title>
<g id="a_node13"><a xlink:href="interface_2compat_2vsomeip_2function__types_8hpp.html" target="_top" xlink:title=" ">
<polygon fill="white" stroke="black" points="102.5,-123.5 102.5,-153.5 209.5,-153.5 209.5,-123.5 102.5,-123.5"/>
<text text-anchor="start" x="110.5" y="-141.5" font-family="Helvetica" font-size="10.00">../../compat/vsomeip</text>
<text text-anchor="middle" x="156" y="-130.5" font-family="Helvetica" font-size="10.00">/function_types.hpp</text>
</a>
</g>
</g>
<!-- Node1&#45;&gt;Node13 -->
<g id="edge14" class="edge">
<title>Node1&#45;&gt;Node13</title>
<path fill="none" stroke="midnightblue" d="M336.89,-190.92C298.99,-180.15 252.05,-166.8 215.48,-156.41"/>
<polygon fill="midnightblue" stroke="midnightblue" points="216.04,-152.93 205.46,-153.56 214.12,-159.66 216.04,-152.93"/>
</g>
<!-- Node15 -->
<g id="node15" class="node">
<title>Node15</title>
<g id="a_node15"><a xlink:href="compat_2vsomeip_2handler_8hpp.html" target="_top" xlink:title=" ">
<polygon fill="white" stroke="black" points="227.5,-123.5 227.5,-153.5 334.5,-153.5 334.5,-123.5 227.5,-123.5"/>
<text text-anchor="start" x="235.5" y="-141.5" font-family="Helvetica" font-size="10.00">../../compat/vsomeip</text>
<text text-anchor="middle" x="281" y="-130.5" font-family="Helvetica" font-size="10.00">/handler.hpp</text>
</a>
</g>
</g>
<!-- Node1&#45;&gt;Node15 -->
<g id="edge17" class="edge">
<title>Node1&#45;&gt;Node15</title>
<path fill="none" stroke="midnightblue" d="M369.74,-190.36C352.58,-180.53 331.89,-168.67 314.8,-158.87"/>
<polygon fill="midnightblue" stroke="midnightblue" points="316.14,-155.61 305.72,-153.67 312.66,-161.68 316.14,-155.61"/>
</g>
<!-- Node8 -->
<g id="node8" class="node">
<title>Node8</title>
<g id="a_node8"><a xlink:title=" ">
<polygon fill="white" stroke="#bfbfbf" points="415.5,-62 415.5,-81 456.5,-81 456.5,-62 415.5,-62"/>
<text text-anchor="middle" x="436" y="-69" font-family="Helvetica" font-size="10.00">string</text>
</a>
</g>
</g>
<!-- Node7&#45;&gt;Node8 -->
<g id="edge7" class="edge">
<title>Node7&#45;&gt;Node8</title>
<path fill="none" stroke="midnightblue" d="M443.05,-123.4C441.74,-113.96 440.01,-101.45 438.59,-91.19"/>
<polygon fill="midnightblue" stroke="midnightblue" points="442.04,-90.62 437.2,-81.19 435.11,-91.58 442.04,-90.62"/>
</g>
<!-- Node7&#45;&gt;Node9 -->
<g id="edge8" class="edge">
<title>Node7&#45;&gt;Node9</title>
<path fill="none" stroke="midnightblue" d="M464.53,-123.4C477.03,-114.37 493.44,-102.51 507.28,-92.52"/>
<polygon fill="midnightblue" stroke="midnightblue" points="509.45,-95.27 515.51,-86.58 505.35,-89.59 509.45,-95.27"/>
</g>
<!-- Node7&#45;&gt;Node11 -->
<g id="edge10" class="edge">
<title>Node7&#45;&gt;Node11</title>
<path fill="none" stroke="midnightblue" d="M423.08,-123.4C408.92,-114.28 390.29,-102.29 374.67,-92.24"/>
<polygon fill="midnightblue" stroke="midnightblue" points="376.18,-89.05 365.87,-86.58 372.39,-94.93 376.18,-89.05"/>
</g>
<!-- Node10 -->
<g id="node10" class="node">
<title>Node10</title>
<g id="a_node10"><a xlink:title=" ">
<polygon fill="white" stroke="#bfbfbf" points="446,-0.5 446,-19.5 492,-19.5 492,-0.5 446,-0.5"/>
<text text-anchor="middle" x="469" y="-7.5" font-family="Helvetica" font-size="10.00">cstdint</text>
</a>
</g>
</g>
<!-- Node9&#45;&gt;Node10 -->
<g id="edge9" class="edge">
<title>Node9&#45;&gt;Node10</title>
<path fill="none" stroke="midnightblue" d="M519.36,-56.4C509.37,-47.4 496.42,-35.72 486.15,-26.47"/>
<polygon fill="midnightblue" stroke="midnightblue" points="488.37,-23.75 478.6,-19.66 483.69,-28.95 488.37,-23.75"/>
</g>
<!-- Node11&#45;&gt;Node10 -->
<g id="edge12" class="edge">
<title>Node11&#45;&gt;Node10</title>
<path fill="none" stroke="midnightblue" d="M373.62,-56.4C394.22,-46.59 421.48,-33.62 441.58,-24.05"/>
<polygon fill="midnightblue" stroke="midnightblue" points="443.29,-27.12 450.81,-19.66 440.28,-20.8 443.29,-27.12"/>
</g>
<!-- Node12 -->
<g id="node12" class="node">
<title>Node12</title>
<g id="a_node12"><a xlink:title=" ">
<polygon fill="white" stroke="#bfbfbf" points="325,-0.5 325,-19.5 363,-19.5 363,-0.5 325,-0.5"/>
<text text-anchor="middle" x="344" y="-7.5" font-family="Helvetica" font-size="10.00">array</text>
</a>
</g>
</g>
<!-- Node11&#45;&gt;Node12 -->
<g id="edge11" class="edge">
<title>Node11&#45;&gt;Node12</title>
<path fill="none" stroke="midnightblue" d="M344,-56.4C344,-48.47 344,-38.46 344,-29.86"/>
<polygon fill="midnightblue" stroke="midnightblue" points="347.5,-29.66 344,-19.66 340.5,-29.66 347.5,-29.66"/>
</g>
<!-- Node13&#45;&gt;Node3 -->
<g id="edge16" class="edge">
<title>Node13&#45;&gt;Node3</title>
<path fill="none" stroke="midnightblue" d="M156,-123.4C156,-114.06 156,-101.71 156,-91.52"/>
<polygon fill="midnightblue" stroke="midnightblue" points="159.5,-91.19 156,-81.19 152.5,-91.19 159.5,-91.19"/>
</g>
<!-- Node14 -->
<g id="node14" class="node">
<title>Node14</title>
<g id="a_node14"><a xlink:title=" ">
<polygon fill="white" stroke="#bfbfbf" points="211.5,-62 211.5,-81 270.5,-81 270.5,-62 211.5,-62"/>
<text text-anchor="middle" x="241" y="-69" font-family="Helvetica" font-size="10.00">functional</text>
</a>
</g>
</g>
<!-- Node13&#45;&gt;Node14 -->
<g id="edge15" class="edge">
<title>Node13&#45;&gt;Node14</title>
<path fill="none" stroke="midnightblue" d="M174.44,-123.4C188.35,-112.76 207.39,-98.2 221.54,-87.38"/>
<polygon fill="midnightblue" stroke="midnightblue" points="223.81,-90.05 229.63,-81.19 219.56,-84.49 223.81,-90.05"/>
</g>
<!-- Node15&#45;&gt;Node3 -->
<g id="edge19" class="edge">
<title>Node15&#45;&gt;Node3</title>
<path fill="none" stroke="midnightblue" d="M253.88,-123.4C232.33,-112.19 202.43,-96.64 181.36,-85.69"/>
<polygon fill="midnightblue" stroke="midnightblue" points="182.85,-82.52 172.36,-81.01 179.62,-88.73 182.85,-82.52"/>
</g>
<!-- Node15&#45;&gt;Node11 -->
<g id="edge20" class="edge">
<title>Node15&#45;&gt;Node11</title>
<path fill="none" stroke="midnightblue" d="M294.67,-123.4C303.01,-114.79 313.83,-103.63 323.22,-93.94"/>
<polygon fill="midnightblue" stroke="midnightblue" points="325.91,-96.19 330.36,-86.58 320.88,-91.32 325.91,-96.19"/>
</g>
<!-- Node15&#45;&gt;Node14 -->
<g id="edge18" class="edge">
<title>Node15&#45;&gt;Node14</title>
<path fill="none" stroke="midnightblue" d="M272.32,-123.4C266.27,-113.56 258.16,-100.38 251.7,-89.89"/>
<polygon fill="midnightblue" stroke="midnightblue" points="254.57,-87.88 246.35,-81.19 248.61,-91.55 254.57,-87.88"/>
</g>
</g>
</svg>
