<?xml version="1.0" encoding="UTF-8" standalone="no"?>
<!DOCTYPE svg PUBLIC "-//W3C//DTD SVG 1.1//EN"
 "http://www.w3.org/Graphics/SVG/1.1/DTD/svg11.dtd">
<!-- Generated by graphviz version 2.44.0 (0)
 -->
<!-- Title: /home/ec2&#45;user/workspace/vsomeip/interface/compat/vsomeip/plugins/application_plugin.hpp Pages: 1 -->
<svg width="255pt" height="128pt"
 viewBox="0.00 0.00 254.50 128.00" xmlns="http://www.w3.org/2000/svg" xmlns:xlink="http://www.w3.org/1999/xlink">
<g id="graph0" class="graph" transform="scale(1 1) rotate(0) translate(4 124)">
<title>/home/ec2&#45;user/workspace/vsomeip/interface/compat/vsomeip/plugins/application_plugin.hpp</title>
<polygon fill="white" stroke="transparent" points="-4,4 -4,-124 250.5,-124 250.5,4 -4,4"/>
<!-- Node1 -->
<g id="node1" class="node">
<title>Node1</title>
<g id="a_node1"><a xlink:title=" ">
<polygon fill="#bfbfbf" stroke="black" points="15.5,-67.5 15.5,-119.5 155.5,-119.5 155.5,-67.5 15.5,-67.5"/>
<text text-anchor="start" x="23.5" y="-107.5" font-family="Helvetica" font-size="10.00">/home/ec2&#45;user/workspace</text>
<text text-anchor="start" x="23.5" y="-96.5" font-family="Helvetica" font-size="10.00">/vsomeip/interface/compat</text>
<text text-anchor="start" x="23.5" y="-85.5" font-family="Helvetica" font-size="10.00">/vsomeip/plugins/application</text>
<text text-anchor="middle" x="85.5" y="-74.5" font-family="Helvetica" font-size="10.00">_plugin.hpp</text>
</a>
</g>
</g>
<!-- Node2 -->
<g id="node2" class="node">
<title>Node2</title>
<g id="a_node2"><a xlink:title=" ">
<polygon fill="white" stroke="#bfbfbf" points="0,-6 0,-25 41,-25 41,-6 0,-6"/>
<text text-anchor="middle" x="20.5" y="-13" font-family="Helvetica" font-size="10.00">string</text>
</a>
</g>
</g>
<!-- Node1&#45;&gt;Node2 -->
<g id="edge1" class="edge">
<title>Node1&#45;&gt;Node2</title>
<path fill="none" stroke="midnightblue" d="M63.86,-67.19C54.26,-55.97 43.23,-43.08 34.7,-33.11"/>
<polygon fill="midnightblue" stroke="midnightblue" points="37.11,-30.53 27.95,-25.21 31.79,-35.08 37.11,-30.53"/>
</g>
<!-- Node3 -->
<g id="node3" class="node">
<title>Node3</title>
<g id="a_node3"><a xlink:title=" ">
<polygon fill="white" stroke="#bfbfbf" points="59,-6 59,-25 112,-25 112,-6 59,-6"/>
<text text-anchor="middle" x="85.5" y="-13" font-family="Helvetica" font-size="10.00">memory</text>
</a>
</g>
</g>
<!-- Node1&#45;&gt;Node3 -->
<g id="edge2" class="edge">
<title>Node1&#45;&gt;Node3</title>
<path fill="none" stroke="midnightblue" d="M85.5,-67.19C85.5,-56.76 85.5,-44.9 85.5,-35.27"/>
<polygon fill="midnightblue" stroke="midnightblue" points="89,-35.21 85.5,-25.21 82,-35.21 89,-35.21"/>
</g>
<!-- Node4 -->
<g id="node4" class="node">
<title>Node4</title>
<g id="a_node4"><a xlink:href="compat_2vsomeip_2export_8hpp.html" target="_top" xlink:title=" ">
<polygon fill="white" stroke="black" points="130.5,-0.5 130.5,-30.5 246.5,-30.5 246.5,-0.5 130.5,-0.5"/>
<text text-anchor="start" x="138.5" y="-18.5" font-family="Helvetica" font-size="10.00">../../../compat/vsomeip</text>
<text text-anchor="middle" x="188.5" y="-7.5" font-family="Helvetica" font-size="10.00">/export.hpp</text>
</a>
</g>
</g>
<!-- Node1&#45;&gt;Node4 -->
<g id="edge3" class="edge">
<title>Node1&#45;&gt;Node4</title>
<path fill="none" stroke="midnightblue" d="M119.51,-67.4C132.94,-57.5 148.16,-46.26 160.89,-36.87"/>
<polygon fill="midnightblue" stroke="midnightblue" points="163.28,-39.46 169.25,-30.71 159.12,-33.83 163.28,-39.46"/>
</g>
</g>
</svg>
