<?xml version="1.0" encoding="UTF-8" standalone="no"?>
<!DOCTYPE svg PUBLIC "-//W3C//DTD SVG 1.1//EN"
 "http://www.w3.org/Graphics/SVG/1.1/DTD/svg11.dtd">
<!-- Generated by graphviz version 2.44.0 (0)
 -->
<!-- Title: /home/ec2&#45;user/workspace/vsomeip/implementation/compat/runtime/src/runtime_impl.cpp Pages: 1 -->
<svg width="1382pt" height="463pt"
 viewBox="0.00 0.00 1382.06 463.00" xmlns="http://www.w3.org/2000/svg" xmlns:xlink="http://www.w3.org/1999/xlink">
<g id="graph0" class="graph" transform="scale(1 1) rotate(0) translate(4 459)">
<title>/home/ec2&#45;user/workspace/vsomeip/implementation/compat/runtime/src/runtime_impl.cpp</title>
<polygon fill="white" stroke="transparent" points="-4,4 -4,-459 1378.06,-459 1378.06,4 -4,4"/>
<!-- Node1 -->
<g id="node1" class="node">
<title>Node1</title>
<g id="a_node1"><a xlink:title=" ">
<polygon fill="#bfbfbf" stroke="black" points="678,-402.5 678,-454.5 817,-454.5 817,-402.5 678,-402.5"/>
<text text-anchor="start" x="686" y="-442.5" font-family="Helvetica" font-size="10.00">/home/ec2&#45;user/workspace</text>
<text text-anchor="start" x="686" y="-431.5" font-family="Helvetica" font-size="10.00">/vsomeip/implementation</text>
<text text-anchor="start" x="686" y="-420.5" font-family="Helvetica" font-size="10.00">/compat/runtime/src/runtime</text>
<text text-anchor="middle" x="747.5" y="-409.5" font-family="Helvetica" font-size="10.00">_impl.cpp</text>
</a>
</g>
</g>
<!-- Node2 -->
<g id="node2" class="node">
<title>Node2</title>
<g id="a_node2"><a xlink:href="interface_2compat_2vsomeip_2defines_8hpp.html" target="_top" xlink:title=" ">
<polygon fill="white" stroke="black" points="432.5,-341 432.5,-360 574.5,-360 574.5,-341 432.5,-341"/>
<text text-anchor="middle" x="503.5" y="-348" font-family="Helvetica" font-size="10.00">compat/vsomeip/defines.hpp</text>
</a>
</g>
</g>
<!-- Node1&#45;&gt;Node2 -->
<g id="edge1" class="edge">
<title>Node1&#45;&gt;Node2</title>
<path fill="none" stroke="midnightblue" d="M677.91,-405.82C633.23,-391.91 576.97,-374.39 540.63,-363.07"/>
<polygon fill="midnightblue" stroke="midnightblue" points="541.52,-359.68 530.94,-360.05 539.44,-366.36 541.52,-359.68"/>
</g>
<!-- Node3 -->
<g id="node3" class="node">
<title>Node3</title>
<g id="a_node3"><a xlink:title=" ">
<polygon fill="white" stroke="#bfbfbf" points="593,-341 593,-360 700,-360 700,-341 593,-341"/>
<text text-anchor="middle" x="646.5" y="-348" font-family="Helvetica" font-size="10.00">vsomeip/runtime.hpp</text>
</a>
</g>
</g>
<!-- Node1&#45;&gt;Node3 -->
<g id="edge2" class="edge">
<title>Node1&#45;&gt;Node3</title>
<path fill="none" stroke="midnightblue" d="M714.15,-402.4C698.31,-390.49 679.92,-376.65 666.32,-366.41"/>
<polygon fill="midnightblue" stroke="midnightblue" points="668.24,-363.48 658.14,-360.26 664.03,-369.07 668.24,-363.48"/>
</g>
<!-- Node4 -->
<g id="node4" class="node">
<title>Node4</title>
<g id="a_node4"><a xlink:href="compat_2runtime_2include_2application__impl_8hpp.html" target="_top" xlink:title=" ">
<polygon fill="white" stroke="black" points="588.5,-268.5 588.5,-298.5 694.5,-298.5 694.5,-268.5 588.5,-268.5"/>
<text text-anchor="start" x="596.5" y="-286.5" font-family="Helvetica" font-size="10.00">../include/application</text>
<text text-anchor="middle" x="641.5" y="-275.5" font-family="Helvetica" font-size="10.00">_impl.hpp</text>
</a>
</g>
</g>
<!-- Node1&#45;&gt;Node4 -->
<g id="edge3" class="edge">
<title>Node1&#45;&gt;Node4</title>
<path fill="none" stroke="midnightblue" d="M741.22,-402.43C735.37,-382.66 725.17,-355.15 709.5,-335 700.2,-323.04 687.38,-312.53 675.37,-304.24"/>
<polygon fill="midnightblue" stroke="midnightblue" points="677.11,-301.19 666.83,-298.61 673.25,-307.04 677.11,-301.19"/>
</g>
<!-- Node21 -->
<g id="node21" class="node">
<title>Node21</title>
<g id="a_node21"><a xlink:href="compat_2runtime_2include_2runtime__impl_8hpp.html" target="_top" xlink:title=" ">
<polygon fill="white" stroke="black" points="688.5,-201.5 688.5,-231.5 780.5,-231.5 780.5,-201.5 688.5,-201.5"/>
<text text-anchor="start" x="696.5" y="-219.5" font-family="Helvetica" font-size="10.00">../include/runtime</text>
<text text-anchor="middle" x="734.5" y="-208.5" font-family="Helvetica" font-size="10.00">_impl.hpp</text>
</a>
</g>
</g>
<!-- Node1&#45;&gt;Node21 -->
<g id="edge28" class="edge">
<title>Node1&#45;&gt;Node21</title>
<path fill="none" stroke="midnightblue" d="M745.93,-402.17C743.41,-361.49 738.5,-282.09 736.01,-241.97"/>
<polygon fill="midnightblue" stroke="midnightblue" points="739.49,-241.52 735.38,-231.75 732.51,-241.95 739.49,-241.52"/>
</g>
<!-- Node24 -->
<g id="node24" class="node">
<title>Node24</title>
<g id="a_node24"><a xlink:href="compat_2message_2include_2message__impl_8hpp.html" target="_top" xlink:title=" ">
<polygon fill="white" stroke="black" points="819.5,-335.5 819.5,-365.5 927.5,-365.5 927.5,-335.5 819.5,-335.5"/>
<text text-anchor="start" x="827.5" y="-353.5" font-family="Helvetica" font-size="10.00">../../message/include</text>
<text text-anchor="middle" x="873.5" y="-342.5" font-family="Helvetica" font-size="10.00">/message_impl.hpp</text>
</a>
</g>
</g>
<!-- Node1&#45;&gt;Node24 -->
<g id="edge37" class="edge">
<title>Node1&#45;&gt;Node24</title>
<path fill="none" stroke="midnightblue" d="M789.11,-402.4C806,-392.21 825.23,-380.61 841.06,-371.07"/>
<polygon fill="midnightblue" stroke="midnightblue" points="843.19,-373.87 849.95,-365.71 839.58,-367.87 843.19,-373.87"/>
</g>
<!-- Node31 -->
<g id="node31" class="node">
<title>Node31</title>
<g id="a_node31"><a xlink:href="compat_2message_2include_2payload__impl_8hpp.html" target="_top" xlink:title=" ">
<polygon fill="white" stroke="black" points="1100.5,-201.5 1100.5,-231.5 1208.5,-231.5 1208.5,-201.5 1100.5,-201.5"/>
<text text-anchor="start" x="1108.5" y="-219.5" font-family="Helvetica" font-size="10.00">../../message/include</text>
<text text-anchor="middle" x="1154.5" y="-208.5" font-family="Helvetica" font-size="10.00">/payload_impl.hpp</text>
</a>
</g>
</g>
<!-- Node1&#45;&gt;Node31 -->
<g id="edge52" class="edge">
<title>Node1&#45;&gt;Node31</title>
<path fill="none" stroke="midnightblue" d="M817.03,-409.51C884.87,-389.76 988.89,-353.41 1066.5,-299 1091.78,-281.27 1117.3,-256.74 1134.3,-239.23"/>
<polygon fill="midnightblue" stroke="midnightblue" points="1137.09,-241.37 1141.48,-231.73 1132.04,-236.53 1137.09,-241.37"/>
</g>
<!-- Node5 -->
<g id="node5" class="node">
<title>Node5</title>
<g id="a_node5"><a xlink:title=" ">
<polygon fill="white" stroke="#bfbfbf" points="603,-140 603,-159 638,-159 638,-140 603,-140"/>
<text text-anchor="middle" x="620.5" y="-147" font-family="Helvetica" font-size="10.00">map</text>
</a>
</g>
</g>
<!-- Node4&#45;&gt;Node5 -->
<g id="edge4" class="edge">
<title>Node4&#45;&gt;Node5</title>
<path fill="none" stroke="midnightblue" d="M639.25,-268.37C635.44,-244.4 627.7,-195.75 623.45,-169.06"/>
<polygon fill="midnightblue" stroke="midnightblue" points="626.9,-168.42 621.87,-159.1 619.98,-169.52 626.9,-168.42"/>
</g>
<!-- Node6 -->
<g id="node6" class="node">
<title>Node6</title>
<g id="a_node6"><a xlink:title=" ">
<polygon fill="white" stroke="#bfbfbf" points="656.5,-140 656.5,-159 700.5,-159 700.5,-140 656.5,-140"/>
<text text-anchor="middle" x="678.5" y="-147" font-family="Helvetica" font-size="10.00">mutex</text>
</a>
</g>
</g>
<!-- Node4&#45;&gt;Node6 -->
<g id="edge5" class="edge">
<title>Node4&#45;&gt;Node6</title>
<path fill="none" stroke="midnightblue" d="M645.46,-268.37C652.18,-244.4 665.82,-195.75 673.3,-169.06"/>
<polygon fill="midnightblue" stroke="midnightblue" points="676.76,-169.67 676.09,-159.1 670.02,-167.78 676.76,-169.67"/>
</g>
<!-- Node7 -->
<g id="node7" class="node">
<title>Node7</title>
<g id="a_node7"><a xlink:href="compat_2vsomeip_2application_8hpp.html" target="_top" xlink:title=" ">
<polygon fill="white" stroke="black" points="327,-207 327,-226 484,-226 484,-207 327,-207"/>
<text text-anchor="middle" x="405.5" y="-214" font-family="Helvetica" font-size="10.00">compat/vsomeip/application.hpp</text>
</a>
</g>
</g>
<!-- Node4&#45;&gt;Node7 -->
<g id="edge6" class="edge">
<title>Node4&#45;&gt;Node7</title>
<path fill="none" stroke="midnightblue" d="M590.58,-268.48C547.36,-256.57 486.16,-239.72 446.16,-228.7"/>
<polygon fill="midnightblue" stroke="midnightblue" points="447.04,-225.31 436.47,-226.03 445.18,-232.06 447.04,-225.31"/>
</g>
<!-- Node7&#45;&gt;Node5 -->
<g id="edge10" class="edge">
<title>Node7&#45;&gt;Node5</title>
<path fill="none" stroke="midnightblue" d="M443.19,-206.93C480.57,-198 539.23,-182.84 588.5,-165 590.12,-164.41 591.77,-163.78 593.42,-163.12"/>
<polygon fill="midnightblue" stroke="midnightblue" points="594.94,-166.28 602.76,-159.13 592.19,-159.84 594.94,-166.28"/>
</g>
<!-- Node8 -->
<g id="node8" class="node">
<title>Node8</title>
<g id="a_node8"><a xlink:title=" ">
<polygon fill="white" stroke="#bfbfbf" points="288.5,-140 288.5,-159 334.5,-159 334.5,-140 288.5,-140"/>
<text text-anchor="middle" x="311.5" y="-147" font-family="Helvetica" font-size="10.00">chrono</text>
</a>
</g>
</g>
<!-- Node7&#45;&gt;Node8 -->
<g id="edge7" class="edge">
<title>Node7&#45;&gt;Node8</title>
<path fill="none" stroke="midnightblue" d="M392.82,-206.73C377.32,-196.01 350.86,-177.72 332.34,-164.91"/>
<polygon fill="midnightblue" stroke="midnightblue" points="334.19,-161.94 323.98,-159.13 330.21,-167.69 334.19,-161.94"/>
</g>
<!-- Node9 -->
<g id="node9" class="node">
<title>Node9</title>
<g id="a_node9"><a xlink:title=" ">
<polygon fill="white" stroke="#bfbfbf" points="336,-73 336,-92 389,-92 389,-73 336,-73"/>
<text text-anchor="middle" x="362.5" y="-80" font-family="Helvetica" font-size="10.00">memory</text>
</a>
</g>
</g>
<!-- Node7&#45;&gt;Node9 -->
<g id="edge8" class="edge">
<title>Node7&#45;&gt;Node9</title>
<path fill="none" stroke="midnightblue" d="M400.66,-206.8C395.33,-196.93 386.82,-180.21 381.5,-165 374.18,-144.05 368.83,-119.09 365.7,-102.36"/>
<polygon fill="midnightblue" stroke="midnightblue" points="369.1,-101.47 363.9,-92.24 362.21,-102.7 369.1,-101.47"/>
</g>
<!-- Node10 -->
<g id="node10" class="node">
<title>Node10</title>
<g id="a_node10"><a xlink:title=" ">
<polygon fill="white" stroke="#bfbfbf" points="390.5,-140 390.5,-159 420.5,-159 420.5,-140 390.5,-140"/>
<text text-anchor="middle" x="405.5" y="-147" font-family="Helvetica" font-size="10.00">set</text>
</a>
</g>
</g>
<!-- Node7&#45;&gt;Node10 -->
<g id="edge9" class="edge">
<title>Node7&#45;&gt;Node10</title>
<path fill="none" stroke="midnightblue" d="M405.5,-206.73C405.5,-197.18 405.5,-181.62 405.5,-169.28"/>
<polygon fill="midnightblue" stroke="midnightblue" points="409,-169.13 405.5,-159.13 402,-169.13 409,-169.13"/>
</g>
<!-- Node11 -->
<g id="node11" class="node">
<title>Node11</title>
<g id="a_node11"><a xlink:title=" ">
<polygon fill="white" stroke="#bfbfbf" points="857,-73 857,-92 900,-92 900,-73 857,-73"/>
<text text-anchor="middle" x="878.5" y="-80" font-family="Helvetica" font-size="10.00">vector</text>
</a>
</g>
</g>
<!-- Node7&#45;&gt;Node11 -->
<g id="edge11" class="edge">
<title>Node7&#45;&gt;Node11</title>
<path fill="none" stroke="midnightblue" d="M484.02,-210.38C622.15,-200.99 895.42,-180.56 909.5,-165 926.26,-146.48 908.54,-117.98 893.82,-100.05"/>
<polygon fill="midnightblue" stroke="midnightblue" points="896.2,-97.45 887,-92.19 890.91,-102.04 896.2,-97.45"/>
</g>
<!-- Node12 -->
<g id="node12" class="node">
<title>Node12</title>
<g id="a_node12"><a xlink:href="interface_2compat_2vsomeip_2constants_8hpp.html" target="_top" xlink:title=" ">
<polygon fill="white" stroke="black" points="439,-134.5 439,-164.5 546,-164.5 546,-134.5 439,-134.5"/>
<text text-anchor="start" x="447" y="-152.5" font-family="Helvetica" font-size="10.00">../../compat/vsomeip</text>
<text text-anchor="middle" x="492.5" y="-141.5" font-family="Helvetica" font-size="10.00">/constants.hpp</text>
</a>
</g>
</g>
<!-- Node7&#45;&gt;Node12 -->
<g id="edge12" class="edge">
<title>Node7&#45;&gt;Node12</title>
<path fill="none" stroke="midnightblue" d="M417.23,-206.73C429.56,-197.53 449.36,-182.73 465.56,-170.63"/>
<polygon fill="midnightblue" stroke="midnightblue" points="467.73,-173.38 473.64,-164.59 463.54,-167.77 467.73,-173.38"/>
</g>
<!-- Node14 -->
<g id="node14" class="node">
<title>Node14</title>
<g id="a_node14"><a xlink:href="interface_2compat_2vsomeip_2enumeration__types_8hpp.html" target="_top" xlink:title=" ">
<polygon fill="white" stroke="black" points="432,-67.5 432,-97.5 553,-97.5 553,-67.5 432,-67.5"/>
<text text-anchor="start" x="440" y="-85.5" font-family="Helvetica" font-size="10.00">../../compat/vsomeip</text>
<text text-anchor="middle" x="492.5" y="-74.5" font-family="Helvetica" font-size="10.00">/enumeration_types.hpp</text>
</a>
</g>
</g>
<!-- Node7&#45;&gt;Node14 -->
<g id="edge19" class="edge">
<title>Node7&#45;&gt;Node14</title>
<path fill="none" stroke="midnightblue" d="M367.15,-206.93C320.49,-194.72 251.22,-169.76 279.5,-134 288.55,-122.55 363.43,-106.66 421.88,-95.78"/>
<polygon fill="midnightblue" stroke="midnightblue" points="422.65,-99.2 431.85,-93.94 421.38,-92.31 422.65,-99.2"/>
</g>
<!-- Node16 -->
<g id="node16" class="node">
<title>Node16</title>
<g id="a_node16"><a xlink:href="interface_2compat_2vsomeip_2primitive__types_8hpp.html" target="_top" xlink:title=" ">
<polygon fill="white" stroke="black" points="630,-67.5 630,-97.5 737,-97.5 737,-67.5 630,-67.5"/>
<text text-anchor="start" x="638" y="-85.5" font-family="Helvetica" font-size="10.00">../../compat/vsomeip</text>
<text text-anchor="middle" x="683.5" y="-74.5" font-family="Helvetica" font-size="10.00">/primitive_types.hpp</text>
</a>
</g>
</g>
<!-- Node7&#45;&gt;Node16 -->
<g id="edge27" class="edge">
<title>Node7&#45;&gt;Node16</title>
<path fill="none" stroke="midnightblue" d="M442.11,-206.99C473.41,-198.83 519.05,-184.83 555.5,-165 574.95,-154.42 576.15,-146.39 594.5,-134 611.12,-122.78 630.38,-111.64 646.72,-102.69"/>
<polygon fill="midnightblue" stroke="midnightblue" points="648.84,-105.52 655.97,-97.69 645.51,-99.37 648.84,-105.52"/>
</g>
<!-- Node18 -->
<g id="node18" class="node">
<title>Node18</title>
<g id="a_node18"><a xlink:href="interface_2compat_2vsomeip_2function__types_8hpp.html" target="_top" xlink:title=" ">
<polygon fill="white" stroke="black" points="0,-134.5 0,-164.5 107,-164.5 107,-134.5 0,-134.5"/>
<text text-anchor="start" x="8" y="-152.5" font-family="Helvetica" font-size="10.00">../../compat/vsomeip</text>
<text text-anchor="middle" x="53.5" y="-141.5" font-family="Helvetica" font-size="10.00">/function_types.hpp</text>
</a>
</g>
</g>
<!-- Node7&#45;&gt;Node18 -->
<g id="edge20" class="edge">
<title>Node7&#45;&gt;Node18</title>
<path fill="none" stroke="midnightblue" d="M351.08,-206.98C294.83,-197.96 204.28,-182.84 117.27,-165.3"/>
<polygon fill="midnightblue" stroke="midnightblue" points="117.72,-161.82 107.23,-163.26 116.33,-168.68 117.72,-161.82"/>
</g>
<!-- Node20 -->
<g id="node20" class="node">
<title>Node20</title>
<g id="a_node20"><a xlink:href="compat_2vsomeip_2handler_8hpp.html" target="_top" xlink:title=" ">
<polygon fill="white" stroke="black" points="125,-134.5 125,-164.5 232,-164.5 232,-134.5 125,-134.5"/>
<text text-anchor="start" x="133" y="-152.5" font-family="Helvetica" font-size="10.00">../../compat/vsomeip</text>
<text text-anchor="middle" x="178.5" y="-141.5" font-family="Helvetica" font-size="10.00">/handler.hpp</text>
</a>
</g>
</g>
<!-- Node7&#45;&gt;Node20 -->
<g id="edge23" class="edge">
<title>Node7&#45;&gt;Node20</title>
<path fill="none" stroke="midnightblue" d="M375.36,-206.87C340.26,-196.82 281.47,-179.99 237.26,-167.32"/>
<polygon fill="midnightblue" stroke="midnightblue" points="238.07,-163.92 227.49,-164.53 236.14,-170.65 238.07,-163.92"/>
</g>
<!-- Node13 -->
<g id="node13" class="node">
<title>Node13</title>
<g id="a_node13"><a xlink:title=" ">
<polygon fill="white" stroke="#bfbfbf" points="571,-73 571,-92 612,-92 612,-73 571,-73"/>
<text text-anchor="middle" x="591.5" y="-80" font-family="Helvetica" font-size="10.00">string</text>
</a>
</g>
</g>
<!-- Node12&#45;&gt;Node13 -->
<g id="edge13" class="edge">
<title>Node12&#45;&gt;Node13</title>
<path fill="none" stroke="midnightblue" d="M513.98,-134.4C530.58,-123.5 553.46,-108.48 570.05,-97.58"/>
<polygon fill="midnightblue" stroke="midnightblue" points="572.1,-100.42 578.54,-92.01 568.26,-94.57 572.1,-100.42"/>
</g>
<!-- Node12&#45;&gt;Node14 -->
<g id="edge14" class="edge">
<title>Node12&#45;&gt;Node14</title>
<path fill="none" stroke="midnightblue" d="M492.5,-134.4C492.5,-126.64 492.5,-116.81 492.5,-107.86"/>
<polygon fill="midnightblue" stroke="midnightblue" points="496,-107.58 492.5,-97.58 489,-107.58 496,-107.58"/>
</g>
<!-- Node12&#45;&gt;Node16 -->
<g id="edge16" class="edge">
<title>Node12&#45;&gt;Node16</title>
<path fill="none" stroke="midnightblue" d="M533.94,-134.4C562.85,-124.56 601.61,-111.37 632.43,-100.88"/>
<polygon fill="midnightblue" stroke="midnightblue" points="633.8,-104.11 642.14,-97.58 631.54,-97.48 633.8,-104.11"/>
</g>
<!-- Node15 -->
<g id="node15" class="node">
<title>Node15</title>
<g id="a_node15"><a xlink:title=" ">
<polygon fill="white" stroke="#bfbfbf" points="535.5,-6 535.5,-25 581.5,-25 581.5,-6 535.5,-6"/>
<text text-anchor="middle" x="558.5" y="-13" font-family="Helvetica" font-size="10.00">cstdint</text>
</a>
</g>
</g>
<!-- Node14&#45;&gt;Node15 -->
<g id="edge15" class="edge">
<title>Node14&#45;&gt;Node15</title>
<path fill="none" stroke="midnightblue" d="M506.82,-67.4C517.32,-57.06 531.57,-43.02 542.45,-32.31"/>
<polygon fill="midnightblue" stroke="midnightblue" points="545,-34.71 549.67,-25.19 540.09,-29.72 545,-34.71"/>
</g>
<!-- Node16&#45;&gt;Node15 -->
<g id="edge18" class="edge">
<title>Node16&#45;&gt;Node15</title>
<path fill="none" stroke="midnightblue" d="M656.38,-67.4C634.83,-56.19 604.93,-40.64 583.86,-29.69"/>
<polygon fill="midnightblue" stroke="midnightblue" points="585.35,-26.52 574.86,-25.01 582.12,-32.73 585.35,-26.52"/>
</g>
<!-- Node17 -->
<g id="node17" class="node">
<title>Node17</title>
<g id="a_node17"><a xlink:title=" ">
<polygon fill="white" stroke="#bfbfbf" points="664.5,-6 664.5,-25 702.5,-25 702.5,-6 664.5,-6"/>
<text text-anchor="middle" x="683.5" y="-13" font-family="Helvetica" font-size="10.00">array</text>
</a>
</g>
</g>
<!-- Node16&#45;&gt;Node17 -->
<g id="edge17" class="edge">
<title>Node16&#45;&gt;Node17</title>
<path fill="none" stroke="midnightblue" d="M683.5,-67.4C683.5,-58.06 683.5,-45.71 683.5,-35.52"/>
<polygon fill="midnightblue" stroke="midnightblue" points="687,-35.19 683.5,-25.19 680,-35.19 687,-35.19"/>
</g>
<!-- Node18&#45;&gt;Node9 -->
<g id="edge22" class="edge">
<title>Node18&#45;&gt;Node9</title>
<path fill="none" stroke="midnightblue" d="M107.25,-135.83C110.04,-135.21 112.8,-134.59 115.5,-134 189.99,-117.68 277.48,-100.18 325.79,-90.67"/>
<polygon fill="midnightblue" stroke="midnightblue" points="326.63,-94.07 335.77,-88.71 325.28,-87.2 326.63,-94.07"/>
</g>
<!-- Node19 -->
<g id="node19" class="node">
<title>Node19</title>
<g id="a_node19"><a xlink:title=" ">
<polygon fill="white" stroke="#bfbfbf" points="87,-73 87,-92 146,-92 146,-73 87,-73"/>
<text text-anchor="middle" x="116.5" y="-80" font-family="Helvetica" font-size="10.00">functional</text>
</a>
</g>
</g>
<!-- Node18&#45;&gt;Node19 -->
<g id="edge21" class="edge">
<title>Node18&#45;&gt;Node19</title>
<path fill="none" stroke="midnightblue" d="M67.17,-134.4C77.09,-124.16 90.53,-110.3 100.87,-99.62"/>
<polygon fill="midnightblue" stroke="midnightblue" points="103.63,-101.81 108.07,-92.19 98.6,-96.94 103.63,-101.81"/>
</g>
<!-- Node20&#45;&gt;Node9 -->
<g id="edge25" class="edge">
<title>Node20&#45;&gt;Node9</title>
<path fill="none" stroke="midnightblue" d="M218.43,-134.4C251.42,-122.74 297.75,-106.37 328.88,-95.38"/>
<polygon fill="midnightblue" stroke="midnightblue" points="330.16,-98.64 338.42,-92.01 327.82,-92.04 330.16,-98.64"/>
</g>
<!-- Node20&#45;&gt;Node16 -->
<g id="edge26" class="edge">
<title>Node20&#45;&gt;Node16</title>
<path fill="none" stroke="midnightblue" d="M232.18,-140.41C247.45,-138.21 264.12,-135.91 279.5,-134 427.91,-115.54 469.04,-123.11 619.73,-98.18"/>
<polygon fill="midnightblue" stroke="midnightblue" points="620.53,-101.59 629.81,-96.49 619.37,-94.69 620.53,-101.59"/>
</g>
<!-- Node20&#45;&gt;Node19 -->
<g id="edge24" class="edge">
<title>Node20&#45;&gt;Node19</title>
<path fill="none" stroke="midnightblue" d="M165.05,-134.4C155.28,-124.16 142.06,-110.3 131.88,-99.62"/>
<polygon fill="midnightblue" stroke="midnightblue" points="134.23,-97.01 124.79,-92.19 129.16,-101.85 134.23,-97.01"/>
</g>
<!-- Node21&#45;&gt;Node5 -->
<g id="edge29" class="edge">
<title>Node21&#45;&gt;Node5</title>
<path fill="none" stroke="midnightblue" d="M709.76,-201.4C690.29,-190.29 663.33,-174.92 644.15,-163.98"/>
<polygon fill="midnightblue" stroke="midnightblue" points="645.84,-160.92 635.42,-159.01 642.37,-167 645.84,-160.92"/>
</g>
<!-- Node21&#45;&gt;Node6 -->
<g id="edge30" class="edge">
<title>Node21&#45;&gt;Node6</title>
<path fill="none" stroke="midnightblue" d="M722.35,-201.4C713.62,-191.26 701.82,-177.57 692.66,-166.94"/>
<polygon fill="midnightblue" stroke="midnightblue" points="695.17,-164.49 685.99,-159.19 689.87,-169.06 695.17,-164.49"/>
</g>
<!-- Node22 -->
<g id="node22" class="node">
<title>Node22</title>
<g id="a_node22"><a xlink:href="interface_2compat_2vsomeip_2runtime_8hpp.html" target="_top" xlink:title=" ">
<polygon fill="white" stroke="black" points="757,-140 757,-159 900,-159 900,-140 757,-140"/>
<text text-anchor="middle" x="828.5" y="-147" font-family="Helvetica" font-size="10.00">compat/vsomeip/runtime.hpp</text>
</a>
</g>
</g>
<!-- Node21&#45;&gt;Node22 -->
<g id="edge31" class="edge">
<title>Node21&#45;&gt;Node22</title>
<path fill="none" stroke="midnightblue" d="M754.9,-201.4C770.51,-190.6 791.98,-175.76 807.69,-164.89"/>
<polygon fill="midnightblue" stroke="midnightblue" points="809.96,-167.57 816.2,-159.01 805.98,-161.82 809.96,-167.57"/>
</g>
<!-- Node22&#45;&gt;Node9 -->
<g id="edge32" class="edge">
<title>Node22&#45;&gt;Node9</title>
<path fill="none" stroke="midnightblue" d="M780.81,-139.98C768.36,-137.89 754.94,-135.75 742.5,-134 601.21,-114.13 564.05,-122.54 423.5,-98 415.51,-96.6 407,-94.79 398.95,-92.92"/>
<polygon fill="midnightblue" stroke="midnightblue" points="399.62,-89.49 389.08,-90.56 397.99,-96.29 399.62,-89.49"/>
</g>
<!-- Node22&#45;&gt;Node11 -->
<g id="edge34" class="edge">
<title>Node22&#45;&gt;Node11</title>
<path fill="none" stroke="midnightblue" d="M835.24,-139.73C843.04,-129.6 856.05,-112.69 865.76,-100.06"/>
<polygon fill="midnightblue" stroke="midnightblue" points="868.54,-102.19 871.86,-92.13 862.99,-97.92 868.54,-102.19"/>
</g>
<!-- Node22&#45;&gt;Node13 -->
<g id="edge33" class="edge">
<title>Node22&#45;&gt;Node13</title>
<path fill="none" stroke="midnightblue" d="M781.22,-139.93C738.72,-131.52 674.94,-117.19 621.5,-98 620.07,-97.49 618.62,-96.93 617.17,-96.33"/>
<polygon fill="midnightblue" stroke="midnightblue" points="618.29,-93 607.74,-92.12 615.44,-99.39 618.29,-93"/>
</g>
<!-- Node22&#45;&gt;Node16 -->
<g id="edge36" class="edge">
<title>Node22&#45;&gt;Node16</title>
<path fill="none" stroke="midnightblue" d="M809.25,-139.87C787.68,-130.2 752.09,-114.25 724.27,-101.78"/>
<polygon fill="midnightblue" stroke="midnightblue" points="725.35,-98.42 714.79,-97.53 722.49,-104.81 725.35,-98.42"/>
</g>
<!-- Node23 -->
<g id="node23" class="node">
<title>Node23</title>
<g id="a_node23"><a xlink:href="compat_2vsomeip_2export_8hpp.html" target="_top" xlink:title=" ">
<polygon fill="white" stroke="black" points="1041,-0.5 1041,-30.5 1148,-30.5 1148,-0.5 1041,-0.5"/>
<text text-anchor="start" x="1049" y="-18.5" font-family="Helvetica" font-size="10.00">../../compat/vsomeip</text>
<text text-anchor="middle" x="1094.5" y="-7.5" font-family="Helvetica" font-size="10.00">/export.hpp</text>
</a>
</g>
</g>
<!-- Node22&#45;&gt;Node23 -->
<g id="edge35" class="edge">
<title>Node22&#45;&gt;Node23</title>
<path fill="none" stroke="midnightblue" d="M827.87,-139.92C827.15,-123.3 828.14,-86.6 848.5,-67 874.11,-42.35 966.86,-28.62 1030.86,-21.89"/>
<polygon fill="midnightblue" stroke="midnightblue" points="1031.28,-25.37 1040.87,-20.87 1030.57,-18.4 1031.28,-25.37"/>
</g>
<!-- Node25 -->
<g id="node25" class="node">
<title>Node25</title>
<g id="a_node25"><a xlink:href="compat_2vsomeip_2message_8hpp.html" target="_top" xlink:title=" ">
<polygon fill="white" stroke="black" points="798.5,-207 798.5,-226 948.5,-226 948.5,-207 798.5,-207"/>
<text text-anchor="middle" x="873.5" y="-214" font-family="Helvetica" font-size="10.00">compat/vsomeip/message.hpp</text>
</a>
</g>
</g>
<!-- Node24&#45;&gt;Node25 -->
<g id="edge38" class="edge">
<title>Node24&#45;&gt;Node25</title>
<path fill="none" stroke="midnightblue" d="M873.5,-335.37C873.5,-311.5 873.5,-263.18 873.5,-236.41"/>
<polygon fill="midnightblue" stroke="midnightblue" points="877,-236.1 873.5,-226.1 870,-236.1 877,-236.1"/>
</g>
<!-- Node29 -->
<g id="node29" class="node">
<title>Node29</title>
<g id="a_node29"><a xlink:href="compat_2message_2include_2message__base__impl_8hpp.html" target="_top" xlink:title=" ">
<polygon fill="white" stroke="black" points="932,-274 932,-293 1057,-293 1057,-274 932,-274"/>
<text text-anchor="middle" x="994.5" y="-281" font-family="Helvetica" font-size="10.00">message_base_impl.hpp</text>
</a>
</g>
</g>
<!-- Node24&#45;&gt;Node29 -->
<g id="edge48" class="edge">
<title>Node24&#45;&gt;Node29</title>
<path fill="none" stroke="midnightblue" d="M899.76,-335.4C920.52,-324.24 949.3,-308.78 969.68,-297.83"/>
<polygon fill="midnightblue" stroke="midnightblue" points="971.51,-300.82 978.66,-293.01 968.2,-294.66 971.51,-300.82"/>
</g>
<!-- Node25&#45;&gt;Node9 -->
<g id="edge39" class="edge">
<title>Node25&#45;&gt;Node9</title>
<path fill="none" stroke="midnightblue" d="M846.12,-206.99C820.07,-198.31 780.25,-183.51 748.5,-165 729.37,-153.85 729.91,-142.59 709.5,-134 591.42,-84.3 549.56,-120.85 423.5,-98 415.52,-96.55 407.01,-94.72 398.97,-92.85"/>
<polygon fill="midnightblue" stroke="midnightblue" points="399.63,-89.41 389.09,-90.48 398,-96.22 399.63,-89.41"/>
</g>
<!-- Node26 -->
<g id="node26" class="node">
<title>Node26</title>
<g id="a_node26"><a xlink:href="compat_2vsomeip_2message__base_8hpp.html" target="_top" xlink:title=" ">
<polygon fill="white" stroke="black" points="957,-134.5 957,-164.5 1064,-164.5 1064,-134.5 957,-134.5"/>
<text text-anchor="start" x="965" y="-152.5" font-family="Helvetica" font-size="10.00">../../compat/vsomeip</text>
<text text-anchor="middle" x="1010.5" y="-141.5" font-family="Helvetica" font-size="10.00">/message_base.hpp</text>
</a>
</g>
</g>
<!-- Node25&#45;&gt;Node26 -->
<g id="edge40" class="edge">
<title>Node25&#45;&gt;Node26</title>
<path fill="none" stroke="midnightblue" d="M891.69,-206.87C911.98,-197.24 945.4,-181.39 971.63,-168.94"/>
<polygon fill="midnightblue" stroke="midnightblue" points="973.4,-171.98 980.93,-164.53 970.4,-165.65 973.4,-171.98"/>
</g>
<!-- Node26&#45;&gt;Node14 -->
<g id="edge41" class="edge">
<title>Node26&#45;&gt;Node14</title>
<path fill="none" stroke="midnightblue" d="M956.83,-140.4C941.55,-138.2 924.88,-135.9 909.5,-134 758.93,-115.39 717.49,-121.48 563.45,-98.04"/>
<polygon fill="midnightblue" stroke="midnightblue" points="563.55,-94.51 553.14,-96.45 562.49,-101.43 563.55,-94.51"/>
</g>
<!-- Node26&#45;&gt;Node16 -->
<g id="edge47" class="edge">
<title>Node26&#45;&gt;Node16</title>
<path fill="none" stroke="midnightblue" d="M956.87,-137.84C899.37,-126.41 808.13,-108.27 747.07,-96.14"/>
<polygon fill="midnightblue" stroke="midnightblue" points="747.65,-92.68 737.16,-94.17 746.29,-99.55 747.65,-92.68"/>
</g>
<!-- Node26&#45;&gt;Node23 -->
<g id="edge42" class="edge">
<title>Node26&#45;&gt;Node23</title>
<path fill="none" stroke="midnightblue" d="M986.22,-134.32C961.86,-118.26 930.25,-91.16 947.5,-67 966.45,-40.46 1000.26,-27.72 1030.68,-21.67"/>
<polygon fill="midnightblue" stroke="midnightblue" points="1031.61,-25.06 1040.84,-19.87 1030.39,-18.17 1031.61,-25.06"/>
</g>
<!-- Node27 -->
<g id="node27" class="node">
<title>Node27</title>
<g id="a_node27"><a xlink:href="compat_2vsomeip_2internal_2deserializable_8hpp.html" target="_top" xlink:title=" ">
<polygon fill="white" stroke="black" points="956.5,-67.5 956.5,-97.5 1088.5,-97.5 1088.5,-67.5 956.5,-67.5"/>
<text text-anchor="start" x="964.5" y="-85.5" font-family="Helvetica" font-size="10.00">../../compat/vsomeip</text>
<text text-anchor="middle" x="1022.5" y="-74.5" font-family="Helvetica" font-size="10.00">/internal/deserializable.hpp</text>
</a>
</g>
</g>
<!-- Node26&#45;&gt;Node27 -->
<g id="edge43" class="edge">
<title>Node26&#45;&gt;Node27</title>
<path fill="none" stroke="midnightblue" d="M1013.1,-134.4C1014.55,-126.56 1016.39,-116.6 1018.06,-107.57"/>
<polygon fill="midnightblue" stroke="midnightblue" points="1021.53,-108.05 1019.9,-97.58 1014.64,-106.77 1021.53,-108.05"/>
</g>
<!-- Node28 -->
<g id="node28" class="node">
<title>Node28</title>
<g id="a_node28"><a xlink:href="compat_2vsomeip_2internal_2serializable_8hpp.html" target="_top" xlink:title=" ">
<polygon fill="white" stroke="black" points="1106.5,-67.5 1106.5,-97.5 1228.5,-97.5 1228.5,-67.5 1106.5,-67.5"/>
<text text-anchor="start" x="1114.5" y="-85.5" font-family="Helvetica" font-size="10.00">../../compat/vsomeip</text>
<text text-anchor="middle" x="1167.5" y="-74.5" font-family="Helvetica" font-size="10.00">/internal/serializable.hpp</text>
</a>
</g>
</g>
<!-- Node26&#45;&gt;Node28 -->
<g id="edge45" class="edge">
<title>Node26&#45;&gt;Node28</title>
<path fill="none" stroke="midnightblue" d="M1044.57,-134.4C1067.92,-124.73 1099.09,-111.82 1124.2,-101.43"/>
<polygon fill="midnightblue" stroke="midnightblue" points="1125.6,-104.64 1133.5,-97.58 1122.92,-98.17 1125.6,-104.64"/>
</g>
<!-- Node27&#45;&gt;Node23 -->
<g id="edge44" class="edge">
<title>Node27&#45;&gt;Node23</title>
<path fill="none" stroke="midnightblue" d="M1038.12,-67.4C1047.84,-58.62 1060.51,-47.18 1071.38,-37.37"/>
<polygon fill="midnightblue" stroke="midnightblue" points="1073.83,-39.88 1078.91,-30.58 1069.14,-34.68 1073.83,-39.88"/>
</g>
<!-- Node28&#45;&gt;Node23 -->
<g id="edge46" class="edge">
<title>Node28&#45;&gt;Node23</title>
<path fill="none" stroke="midnightblue" d="M1151.66,-67.4C1141.81,-58.62 1128.96,-47.18 1117.94,-37.37"/>
<polygon fill="midnightblue" stroke="midnightblue" points="1120.1,-34.61 1110.31,-30.58 1115.45,-39.84 1120.1,-34.61"/>
</g>
<!-- Node29&#45;&gt;Node23 -->
<g id="edge49" class="edge">
<title>Node29&#45;&gt;Node23</title>
<path fill="none" stroke="midnightblue" d="M1047.82,-273.95C1141.48,-257.65 1328.93,-218.9 1363.5,-165 1416.57,-82.25 1253.84,-41.68 1158.5,-25.45"/>
<polygon fill="midnightblue" stroke="midnightblue" points="1158.8,-21.95 1148.36,-23.77 1157.65,-28.86 1158.8,-21.95"/>
</g>
<!-- Node29&#45;&gt;Node25 -->
<g id="edge50" class="edge">
<title>Node29&#45;&gt;Node25</title>
<path fill="none" stroke="midnightblue" d="M978.18,-273.73C957.68,-262.72 922.3,-243.71 898.41,-230.88"/>
<polygon fill="midnightblue" stroke="midnightblue" points="900.03,-227.78 889.56,-226.13 896.71,-233.94 900.03,-227.78"/>
</g>
<!-- Node30 -->
<g id="node30" class="node">
<title>Node30</title>
<g id="a_node30"><a xlink:title=" ">
<polygon fill="white" stroke="#bfbfbf" points="967,-207 967,-226 1082,-226 1082,-207 967,-207"/>
<text text-anchor="middle" x="1024.5" y="-214" font-family="Helvetica" font-size="10.00">vsomeip/message.hpp</text>
</a>
</g>
</g>
<!-- Node29&#45;&gt;Node30 -->
<g id="edge51" class="edge">
<title>Node29&#45;&gt;Node30</title>
<path fill="none" stroke="midnightblue" d="M998.55,-273.73C1003.04,-263.99 1010.43,-247.98 1016.18,-235.53"/>
<polygon fill="midnightblue" stroke="midnightblue" points="1019.51,-236.67 1020.52,-226.13 1013.15,-233.74 1019.51,-236.67"/>
</g>
<!-- Node32 -->
<g id="node32" class="node">
<title>Node32</title>
<g id="a_node32"><a xlink:href="compat_2vsomeip_2payload_8hpp.html" target="_top" xlink:title=" ">
<polygon fill="white" stroke="black" points="1082.5,-140 1082.5,-159 1226.5,-159 1226.5,-140 1082.5,-140"/>
<text text-anchor="middle" x="1154.5" y="-147" font-family="Helvetica" font-size="10.00">compat/vsomeip/payload.hpp</text>
</a>
</g>
</g>
<!-- Node31&#45;&gt;Node32 -->
<g id="edge53" class="edge">
<title>Node31&#45;&gt;Node32</title>
<path fill="none" stroke="midnightblue" d="M1154.5,-201.4C1154.5,-192.06 1154.5,-179.71 1154.5,-169.52"/>
<polygon fill="midnightblue" stroke="midnightblue" points="1158,-169.19 1154.5,-159.19 1151,-169.19 1158,-169.19"/>
</g>
<!-- Node33 -->
<g id="node33" class="node">
<title>Node33</title>
<g id="a_node33"><a xlink:title=" ">
<polygon fill="white" stroke="#bfbfbf" points="1245,-140 1245,-159 1354,-159 1354,-140 1245,-140"/>
<text text-anchor="middle" x="1299.5" y="-147" font-family="Helvetica" font-size="10.00">vsomeip/payload.hpp</text>
</a>
</g>
</g>
<!-- Node31&#45;&gt;Node33 -->
<g id="edge59" class="edge">
<title>Node31&#45;&gt;Node33</title>
<path fill="none" stroke="midnightblue" d="M1185.96,-201.4C1211.4,-189.99 1246.9,-174.08 1271.4,-163.1"/>
<polygon fill="midnightblue" stroke="midnightblue" points="1272.83,-166.29 1280.52,-159.01 1269.97,-159.9 1272.83,-166.29"/>
</g>
<!-- Node32&#45;&gt;Node11 -->
<g id="edge54" class="edge">
<title>Node32&#45;&gt;Node11</title>
<path fill="none" stroke="midnightblue" d="M1118.13,-139.94C1063.63,-127.1 961.66,-103.09 910.09,-90.94"/>
<polygon fill="midnightblue" stroke="midnightblue" points="910.72,-87.49 900.19,-88.61 909.12,-94.31 910.72,-87.49"/>
</g>
<!-- Node32&#45;&gt;Node16 -->
<g id="edge58" class="edge">
<title>Node32&#45;&gt;Node16</title>
<path fill="none" stroke="midnightblue" d="M1109.15,-139.98C1097.55,-137.91 1085.08,-135.78 1073.5,-134 958.88,-116.33 824.65,-99.87 747.3,-90.8"/>
<polygon fill="midnightblue" stroke="midnightblue" points="747.58,-87.31 737.24,-89.62 746.76,-94.26 747.58,-87.31"/>
</g>
<!-- Node32&#45;&gt;Node23 -->
<g id="edge55" class="edge">
<title>Node32&#45;&gt;Node23</title>
<path fill="none" stroke="midnightblue" d="M1181.83,-139.96C1201.17,-132.32 1225.68,-119.03 1237.5,-98 1244.25,-85.99 1245.46,-78.25 1237.5,-67 1219.48,-41.52 1187.49,-28.81 1158.33,-22.51"/>
<polygon fill="midnightblue" stroke="midnightblue" points="1158.65,-19 1148.16,-20.53 1157.31,-25.88 1158.65,-19"/>
</g>
<!-- Node32&#45;&gt;Node27 -->
<g id="edge56" class="edge">
<title>Node32&#45;&gt;Node27</title>
<path fill="none" stroke="midnightblue" d="M1136.97,-139.87C1117.57,-130.31 1085.71,-114.63 1060.53,-102.22"/>
<polygon fill="midnightblue" stroke="midnightblue" points="1061.76,-98.93 1051.24,-97.65 1058.66,-105.21 1061.76,-98.93"/>
</g>
<!-- Node32&#45;&gt;Node28 -->
<g id="edge57" class="edge">
<title>Node32&#45;&gt;Node28</title>
<path fill="none" stroke="midnightblue" d="M1156.25,-139.73C1157.89,-131.54 1160.42,-118.92 1162.66,-107.71"/>
<polygon fill="midnightblue" stroke="midnightblue" points="1166.15,-108.08 1164.68,-97.59 1159.29,-106.71 1166.15,-108.08"/>
</g>
</g>
</svg>
