<?xml version="1.0" encoding="UTF-8" standalone="no"?>
<!DOCTYPE svg PUBLIC "-//W3C//DTD SVG 1.1//EN"
 "http://www.w3.org/Graphics/SVG/1.1/DTD/svg11.dtd">
<!-- Generated by graphviz version 2.44.0 (0)
 -->
<!-- Title: /home/ec2&#45;user/workspace/vsomeip/implementation/compat/runtime/include/runtime_impl.hpp Pages: 1 -->
<svg width="324pt" height="150pt"
 viewBox="0.00 0.00 323.50 150.00" xmlns="http://www.w3.org/2000/svg" xmlns:xlink="http://www.w3.org/1999/xlink">
<g id="graph0" class="graph" transform="scale(1 1) rotate(0) translate(4 146)">
<title>/home/ec2&#45;user/workspace/vsomeip/implementation/compat/runtime/include/runtime_impl.hpp</title>
<polygon fill="white" stroke="transparent" points="-4,4 -4,-146 319.5,-146 319.5,4 -4,4"/>
<!-- Node1 -->
<g id="node1" class="node">
<title>Node1</title>
<g id="a_node1"><a xlink:title=" ">
<polygon fill="#bfbfbf" stroke="black" points="95,-89.5 95,-141.5 229,-141.5 229,-89.5 95,-89.5"/>
<text text-anchor="start" x="103" y="-129.5" font-family="Helvetica" font-size="10.00">/home/ec2&#45;user/workspace</text>
<text text-anchor="start" x="103" y="-118.5" font-family="Helvetica" font-size="10.00">/vsomeip/implementation</text>
<text text-anchor="start" x="103" y="-107.5" font-family="Helvetica" font-size="10.00">/compat/runtime/include</text>
<text text-anchor="middle" x="162" y="-96.5" font-family="Helvetica" font-size="10.00">/runtime_impl.hpp</text>
</a>
</g>
</g>
<!-- Node2 -->
<g id="node2" class="node">
<title>Node2</title>
<g id="a_node2"><a xlink:href="compat_2runtime_2src_2runtime_8cpp.html" target="_top" xlink:title=" ">
<polygon fill="white" stroke="black" points="0,-6 0,-47 158,-47 158,-6 0,-6"/>
<text text-anchor="start" x="8" y="-35" font-family="Helvetica" font-size="10.00">/home/ec2&#45;user/workspace</text>
<text text-anchor="start" x="8" y="-24" font-family="Helvetica" font-size="10.00">/vsomeip/implementation</text>
<text text-anchor="middle" x="79" y="-13" font-family="Helvetica" font-size="10.00">/compat/runtime/src/runtime.cpp</text>
</a>
</g>
</g>
<!-- Node1&#45;&gt;Node2 -->
<g id="edge1" class="edge">
<title>Node1&#45;&gt;Node2</title>
<path fill="none" stroke="midnightblue" d="M130.85,-81.85C119.69,-70.15 107.46,-57.33 97.68,-47.08"/>
<polygon fill="midnightblue" stroke="midnightblue" points="128.56,-84.52 137.99,-89.34 133.62,-79.68 128.56,-84.52"/>
</g>
<!-- Node3 -->
<g id="node3" class="node">
<title>Node3</title>
<g id="a_node3"><a xlink:href="compat_2runtime_2src_2runtime__impl_8cpp.html" target="_top" xlink:title=" ">
<polygon fill="white" stroke="black" points="176.5,-0.5 176.5,-52.5 315.5,-52.5 315.5,-0.5 176.5,-0.5"/>
<text text-anchor="start" x="184.5" y="-40.5" font-family="Helvetica" font-size="10.00">/home/ec2&#45;user/workspace</text>
<text text-anchor="start" x="184.5" y="-29.5" font-family="Helvetica" font-size="10.00">/vsomeip/implementation</text>
<text text-anchor="start" x="184.5" y="-18.5" font-family="Helvetica" font-size="10.00">/compat/runtime/src/runtime</text>
<text text-anchor="middle" x="246" y="-7.5" font-family="Helvetica" font-size="10.00">_impl.cpp</text>
</a>
</g>
</g>
<!-- Node1&#45;&gt;Node3 -->
<g id="edge2" class="edge">
<title>Node1&#45;&gt;Node3</title>
<path fill="none" stroke="midnightblue" d="M193.31,-82.08C202.71,-72.34 212.88,-61.8 221.76,-52.61"/>
<polygon fill="midnightblue" stroke="midnightblue" points="190.72,-79.71 186.3,-89.34 195.76,-84.57 190.72,-79.71"/>
</g>
</g>
</svg>
