<?xml version="1.0" encoding="UTF-8" standalone="no"?>
<!DOCTYPE svg PUBLIC "-//W3C//DTD SVG 1.1//EN"
 "http://www.w3.org/Graphics/SVG/1.1/DTD/svg11.dtd">
<!-- Generated by graphviz version 2.44.0 (0)
 -->
<!-- Title: /home/ec2&#45;user/workspace/vsomeip/interface/compat/vsomeip/message.hpp Pages: 1 -->
<svg width="559pt" height="251pt"
 viewBox="0.00 0.00 559.28 251.00" xmlns="http://www.w3.org/2000/svg" xmlns:xlink="http://www.w3.org/1999/xlink">
<g id="graph0" class="graph" transform="scale(1 1) rotate(0) translate(4 247)">
<title>/home/ec2&#45;user/workspace/vsomeip/interface/compat/vsomeip/message.hpp</title>
<polygon fill="white" stroke="transparent" points="-4,4 -4,-247 555.28,-247 555.28,4 -4,4"/>
<!-- Node1 -->
<g id="node1" class="node">
<title>Node1</title>
<g id="a_node1"><a xlink:title=" ">
<polygon fill="#bfbfbf" stroke="black" points="109.78,-201.5 109.78,-242.5 243.78,-242.5 243.78,-201.5 109.78,-201.5"/>
<text text-anchor="start" x="117.78" y="-230.5" font-family="Helvetica" font-size="10.00">/home/ec2&#45;user/workspace</text>
<text text-anchor="start" x="117.78" y="-219.5" font-family="Helvetica" font-size="10.00">/vsomeip/interface/compat</text>
<text text-anchor="middle" x="176.78" y="-208.5" font-family="Helvetica" font-size="10.00">/vsomeip/message.hpp</text>
</a>
</g>
</g>
<!-- Node2 -->
<g id="node2" class="node">
<title>Node2</title>
<g id="a_node2"><a xlink:title=" ">
<polygon fill="white" stroke="#bfbfbf" points="101.28,-140 101.28,-159 154.28,-159 154.28,-140 101.28,-140"/>
<text text-anchor="middle" x="127.78" y="-147" font-family="Helvetica" font-size="10.00">memory</text>
</a>
</g>
</g>
<!-- Node1&#45;&gt;Node2 -->
<g id="edge1" class="edge">
<title>Node1&#45;&gt;Node2</title>
<path fill="none" stroke="midnightblue" d="M163.13,-201.36C155.76,-190.76 146.74,-177.79 139.66,-167.6"/>
<polygon fill="midnightblue" stroke="midnightblue" points="142.39,-165.39 133.81,-159.17 136.64,-169.38 142.39,-165.39"/>
</g>
<!-- Node3 -->
<g id="node3" class="node">
<title>Node3</title>
<g id="a_node3"><a xlink:href="compat_2vsomeip_2message__base_8hpp.html" target="_top" xlink:title=" ">
<polygon fill="white" stroke="black" points="172.28,-134.5 172.28,-164.5 279.28,-164.5 279.28,-134.5 172.28,-134.5"/>
<text text-anchor="start" x="180.28" y="-152.5" font-family="Helvetica" font-size="10.00">../../compat/vsomeip</text>
<text text-anchor="middle" x="225.78" y="-141.5" font-family="Helvetica" font-size="10.00">/message_base.hpp</text>
</a>
</g>
</g>
<!-- Node1&#45;&gt;Node3 -->
<g id="edge2" class="edge">
<title>Node1&#45;&gt;Node3</title>
<path fill="none" stroke="midnightblue" d="M190.43,-201.36C196.52,-192.59 203.74,-182.21 210.06,-173.12"/>
<polygon fill="midnightblue" stroke="midnightblue" points="212.94,-175.1 215.78,-164.89 207.19,-171.11 212.94,-175.1"/>
</g>
<!-- Node4 -->
<g id="node4" class="node">
<title>Node4</title>
<g id="a_node4"><a xlink:href="interface_2compat_2vsomeip_2enumeration__types_8hpp.html" target="_top" xlink:title=" ">
<polygon fill="white" stroke="black" points="305.28,-67.5 305.28,-97.5 426.28,-97.5 426.28,-67.5 305.28,-67.5"/>
<text text-anchor="start" x="313.28" y="-85.5" font-family="Helvetica" font-size="10.00">../../compat/vsomeip</text>
<text text-anchor="middle" x="365.78" y="-74.5" font-family="Helvetica" font-size="10.00">/enumeration_types.hpp</text>
</a>
</g>
</g>
<!-- Node3&#45;&gt;Node4 -->
<g id="edge3" class="edge">
<title>Node3&#45;&gt;Node4</title>
<path fill="none" stroke="midnightblue" d="M256.16,-134.4C276.7,-124.86 304.04,-112.16 326.28,-101.84"/>
<polygon fill="midnightblue" stroke="midnightblue" points="327.86,-104.96 335.46,-97.58 324.92,-98.61 327.86,-104.96"/>
</g>
<!-- Node6 -->
<g id="node6" class="node">
<title>Node6</title>
<g id="a_node6"><a xlink:href="compat_2vsomeip_2export_8hpp.html" target="_top" xlink:title=" ">
<polygon fill="white" stroke="black" points="27.28,-0.5 27.28,-30.5 134.28,-30.5 134.28,-0.5 27.28,-0.5"/>
<text text-anchor="start" x="35.28" y="-18.5" font-family="Helvetica" font-size="10.00">../../compat/vsomeip</text>
<text text-anchor="middle" x="80.78" y="-7.5" font-family="Helvetica" font-size="10.00">/export.hpp</text>
</a>
</g>
</g>
<!-- Node3&#45;&gt;Node6 -->
<g id="edge5" class="edge">
<title>Node3&#45;&gt;Node6</title>
<path fill="none" stroke="midnightblue" d="M172.16,-136.16C168.99,-135.43 165.84,-134.7 162.78,-134 93.01,-117.97 50.39,-153.99 5.78,-98 -2.81,-87.22 -0.69,-79.16 5.78,-67 12.72,-53.95 24.7,-43.67 37.08,-35.89"/>
<polygon fill="midnightblue" stroke="midnightblue" points="39.2,-38.7 46.09,-30.66 35.68,-32.65 39.2,-38.7"/>
</g>
<!-- Node7 -->
<g id="node7" class="node">
<title>Node7</title>
<g id="a_node7"><a xlink:href="compat_2vsomeip_2internal_2deserializable_8hpp.html" target="_top" xlink:title=" ">
<polygon fill="white" stroke="black" points="14.78,-67.5 14.78,-97.5 146.78,-97.5 146.78,-67.5 14.78,-67.5"/>
<text text-anchor="start" x="22.78" y="-85.5" font-family="Helvetica" font-size="10.00">../../compat/vsomeip</text>
<text text-anchor="middle" x="80.78" y="-74.5" font-family="Helvetica" font-size="10.00">/internal/deserializable.hpp</text>
</a>
</g>
</g>
<!-- Node3&#45;&gt;Node7 -->
<g id="edge6" class="edge">
<title>Node3&#45;&gt;Node7</title>
<path fill="none" stroke="midnightblue" d="M194.32,-134.4C172.94,-124.81 144.47,-112.05 121.38,-101.7"/>
<polygon fill="midnightblue" stroke="midnightblue" points="122.74,-98.47 112.18,-97.58 119.87,-104.86 122.74,-98.47"/>
</g>
<!-- Node8 -->
<g id="node8" class="node">
<title>Node8</title>
<g id="a_node8"><a xlink:href="compat_2vsomeip_2internal_2serializable_8hpp.html" target="_top" xlink:title=" ">
<polygon fill="white" stroke="black" points="164.78,-67.5 164.78,-97.5 286.78,-97.5 286.78,-67.5 164.78,-67.5"/>
<text text-anchor="start" x="172.78" y="-85.5" font-family="Helvetica" font-size="10.00">../../compat/vsomeip</text>
<text text-anchor="middle" x="225.78" y="-74.5" font-family="Helvetica" font-size="10.00">/internal/serializable.hpp</text>
</a>
</g>
</g>
<!-- Node3&#45;&gt;Node8 -->
<g id="edge8" class="edge">
<title>Node3&#45;&gt;Node8</title>
<path fill="none" stroke="midnightblue" d="M225.78,-134.4C225.78,-126.64 225.78,-116.81 225.78,-107.86"/>
<polygon fill="midnightblue" stroke="midnightblue" points="229.28,-107.58 225.78,-97.58 222.28,-107.58 229.28,-107.58"/>
</g>
<!-- Node9 -->
<g id="node9" class="node">
<title>Node9</title>
<g id="a_node9"><a xlink:href="interface_2compat_2vsomeip_2primitive__types_8hpp.html" target="_top" xlink:title=" ">
<polygon fill="white" stroke="black" points="444.28,-67.5 444.28,-97.5 551.28,-97.5 551.28,-67.5 444.28,-67.5"/>
<text text-anchor="start" x="452.28" y="-85.5" font-family="Helvetica" font-size="10.00">../../compat/vsomeip</text>
<text text-anchor="middle" x="497.78" y="-74.5" font-family="Helvetica" font-size="10.00">/primitive_types.hpp</text>
</a>
</g>
</g>
<!-- Node3&#45;&gt;Node9 -->
<g id="edge10" class="edge">
<title>Node3&#45;&gt;Node9</title>
<path fill="none" stroke="midnightblue" d="M279.52,-135.66C324.04,-125.02 387.39,-109.88 434.39,-98.65"/>
<polygon fill="midnightblue" stroke="midnightblue" points="435.24,-102.04 444.15,-96.32 433.61,-95.24 435.24,-102.04"/>
</g>
<!-- Node5 -->
<g id="node5" class="node">
<title>Node5</title>
<g id="a_node5"><a xlink:title=" ">
<polygon fill="white" stroke="#bfbfbf" points="378.78,-6 378.78,-25 424.78,-25 424.78,-6 378.78,-6"/>
<text text-anchor="middle" x="401.78" y="-13" font-family="Helvetica" font-size="10.00">cstdint</text>
</a>
</g>
</g>
<!-- Node4&#45;&gt;Node5 -->
<g id="edge4" class="edge">
<title>Node4&#45;&gt;Node5</title>
<path fill="none" stroke="midnightblue" d="M373.59,-67.4C378.98,-57.66 386.19,-44.65 391.97,-34.21"/>
<polygon fill="midnightblue" stroke="midnightblue" points="395.18,-35.64 396.96,-25.19 389.06,-32.25 395.18,-35.64"/>
</g>
<!-- Node7&#45;&gt;Node6 -->
<g id="edge7" class="edge">
<title>Node7&#45;&gt;Node6</title>
<path fill="none" stroke="midnightblue" d="M80.78,-67.4C80.78,-59.64 80.78,-49.81 80.78,-40.86"/>
<polygon fill="midnightblue" stroke="midnightblue" points="84.28,-40.58 80.78,-30.58 77.28,-40.58 84.28,-40.58"/>
</g>
<!-- Node8&#45;&gt;Node6 -->
<g id="edge9" class="edge">
<title>Node8&#45;&gt;Node6</title>
<path fill="none" stroke="midnightblue" d="M194.32,-67.4C172.94,-57.81 144.47,-45.05 121.38,-34.7"/>
<polygon fill="midnightblue" stroke="midnightblue" points="122.74,-31.47 112.18,-30.58 119.87,-37.86 122.74,-31.47"/>
</g>
<!-- Node9&#45;&gt;Node5 -->
<g id="edge12" class="edge">
<title>Node9&#45;&gt;Node5</title>
<path fill="none" stroke="midnightblue" d="M476.95,-67.4C461,-56.6 439.08,-41.76 423.03,-30.89"/>
<polygon fill="midnightblue" stroke="midnightblue" points="424.59,-27.72 414.34,-25.01 420.66,-33.51 424.59,-27.72"/>
</g>
<!-- Node10 -->
<g id="node10" class="node">
<title>Node10</title>
<g id="a_node10"><a xlink:title=" ">
<polygon fill="white" stroke="#bfbfbf" points="478.78,-6 478.78,-25 516.78,-25 516.78,-6 478.78,-6"/>
<text text-anchor="middle" x="497.78" y="-13" font-family="Helvetica" font-size="10.00">array</text>
</a>
</g>
</g>
<!-- Node9&#45;&gt;Node10 -->
<g id="edge11" class="edge">
<title>Node9&#45;&gt;Node10</title>
<path fill="none" stroke="midnightblue" d="M497.78,-67.4C497.78,-58.06 497.78,-45.71 497.78,-35.52"/>
<polygon fill="midnightblue" stroke="midnightblue" points="501.28,-35.19 497.78,-25.19 494.28,-35.19 501.28,-35.19"/>
</g>
</g>
</svg>
