<?xml version="1.0" encoding="UTF-8" standalone="no"?>
<!DOCTYPE svg PUBLIC "-//W3C//DTD SVG 1.1//EN"
 "http://www.w3.org/Graphics/SVG/1.1/DTD/svg11.dtd">
<!-- Generated by graphviz version 2.44.0 (0)
 -->
<!-- Title: /home/ec2&#45;user/workspace/vsomeip/interface/compat/vsomeip/handler.hpp Pages: 1 -->
<svg width="263pt" height="173pt"
 viewBox="0.00 0.00 263.00 173.00" xmlns="http://www.w3.org/2000/svg" xmlns:xlink="http://www.w3.org/1999/xlink">
<g id="graph0" class="graph" transform="scale(1 1) rotate(0) translate(4 169)">
<title>/home/ec2&#45;user/workspace/vsomeip/interface/compat/vsomeip/handler.hpp</title>
<polygon fill="white" stroke="transparent" points="-4,4 -4,-169 259,-169 259,4 -4,4"/>
<!-- Node1 -->
<g id="node1" class="node">
<title>Node1</title>
<g id="a_node1"><a xlink:title=" ">
<polygon fill="#bfbfbf" stroke="black" points="36.5,-123.5 36.5,-164.5 170.5,-164.5 170.5,-123.5 36.5,-123.5"/>
<text text-anchor="start" x="44.5" y="-152.5" font-family="Helvetica" font-size="10.00">/home/ec2&#45;user/workspace</text>
<text text-anchor="start" x="44.5" y="-141.5" font-family="Helvetica" font-size="10.00">/vsomeip/interface/compat</text>
<text text-anchor="middle" x="103.5" y="-130.5" font-family="Helvetica" font-size="10.00">/vsomeip/handler.hpp</text>
</a>
</g>
</g>
<!-- Node2 -->
<g id="node2" class="node">
<title>Node2</title>
<g id="a_node2"><a xlink:title=" ">
<polygon fill="white" stroke="#bfbfbf" points="0,-62 0,-81 59,-81 59,-62 0,-62"/>
<text text-anchor="middle" x="29.5" y="-69" font-family="Helvetica" font-size="10.00">functional</text>
</a>
</g>
</g>
<!-- Node1&#45;&gt;Node2 -->
<g id="edge1" class="edge">
<title>Node1&#45;&gt;Node2</title>
<path fill="none" stroke="midnightblue" d="M82.89,-123.36C71.3,-112.32 57.03,-98.72 46.15,-88.37"/>
<polygon fill="midnightblue" stroke="midnightblue" points="48.26,-85.54 38.6,-81.17 43.43,-90.61 48.26,-85.54"/>
</g>
<!-- Node3 -->
<g id="node3" class="node">
<title>Node3</title>
<g id="a_node3"><a xlink:title=" ">
<polygon fill="white" stroke="#bfbfbf" points="77,-62 77,-81 130,-81 130,-62 77,-62"/>
<text text-anchor="middle" x="103.5" y="-69" font-family="Helvetica" font-size="10.00">memory</text>
</a>
</g>
</g>
<!-- Node1&#45;&gt;Node3 -->
<g id="edge2" class="edge">
<title>Node1&#45;&gt;Node3</title>
<path fill="none" stroke="midnightblue" d="M103.5,-123.36C103.5,-113.3 103.5,-101.1 103.5,-91.18"/>
<polygon fill="midnightblue" stroke="midnightblue" points="107,-91.17 103.5,-81.17 100,-91.17 107,-91.17"/>
</g>
<!-- Node4 -->
<g id="node4" class="node">
<title>Node4</title>
<g id="a_node4"><a xlink:href="interface_2compat_2vsomeip_2primitive__types_8hpp.html" target="_top" xlink:title=" ">
<polygon fill="white" stroke="black" points="148,-56.5 148,-86.5 255,-86.5 255,-56.5 148,-56.5"/>
<text text-anchor="start" x="156" y="-74.5" font-family="Helvetica" font-size="10.00">../../compat/vsomeip</text>
<text text-anchor="middle" x="201.5" y="-63.5" font-family="Helvetica" font-size="10.00">/primitive_types.hpp</text>
</a>
</g>
</g>
<!-- Node1&#45;&gt;Node4 -->
<g id="edge3" class="edge">
<title>Node1&#45;&gt;Node4</title>
<path fill="none" stroke="midnightblue" d="M130.8,-123.36C144.09,-113.8 160.04,-102.33 173.43,-92.69"/>
<polygon fill="midnightblue" stroke="midnightblue" points="175.73,-95.35 181.8,-86.67 171.64,-89.67 175.73,-95.35"/>
</g>
<!-- Node5 -->
<g id="node5" class="node">
<title>Node5</title>
<g id="a_node5"><a xlink:title=" ">
<polygon fill="white" stroke="#bfbfbf" points="152.5,-0.5 152.5,-19.5 190.5,-19.5 190.5,-0.5 152.5,-0.5"/>
<text text-anchor="middle" x="171.5" y="-7.5" font-family="Helvetica" font-size="10.00">array</text>
</a>
</g>
</g>
<!-- Node4&#45;&gt;Node5 -->
<g id="edge4" class="edge">
<title>Node4&#45;&gt;Node5</title>
<path fill="none" stroke="midnightblue" d="M194.39,-56.4C190.21,-48.11 184.89,-37.55 180.43,-28.71"/>
<polygon fill="midnightblue" stroke="midnightblue" points="183.49,-27.01 175.87,-19.66 177.24,-30.16 183.49,-27.01"/>
</g>
<!-- Node6 -->
<g id="node6" class="node">
<title>Node6</title>
<g id="a_node6"><a xlink:title=" ">
<polygon fill="white" stroke="#bfbfbf" points="208.5,-0.5 208.5,-19.5 254.5,-19.5 254.5,-0.5 208.5,-0.5"/>
<text text-anchor="middle" x="231.5" y="-7.5" font-family="Helvetica" font-size="10.00">cstdint</text>
</a>
</g>
</g>
<!-- Node4&#45;&gt;Node6 -->
<g id="edge5" class="edge">
<title>Node4&#45;&gt;Node6</title>
<path fill="none" stroke="midnightblue" d="M208.61,-56.4C212.79,-48.11 218.11,-37.55 222.57,-28.71"/>
<polygon fill="midnightblue" stroke="midnightblue" points="225.76,-30.16 227.13,-19.66 219.51,-27.01 225.76,-30.16"/>
</g>
</g>
</svg>
