<?xml version="1.0" encoding="UTF-8" standalone="no"?>
<!DOCTYPE svg PUBLIC "-//W3C//DTD SVG 1.1//EN"
 "http://www.w3.org/Graphics/SVG/1.1/DTD/svg11.dtd">
<!-- Generated by graphviz version 2.44.0 (0)
 -->
<!-- Title: /home/ec2&#45;user/workspace/vsomeip/interface/compat/vsomeip/vsomeip.hpp Pages: 1 -->
<svg width="1259pt" height="318pt"
 viewBox="0.00 0.00 1259.00 318.00" xmlns="http://www.w3.org/2000/svg" xmlns:xlink="http://www.w3.org/1999/xlink">
<g id="graph0" class="graph" transform="scale(1 1) rotate(0) translate(4 314)">
<title>/home/ec2&#45;user/workspace/vsomeip/interface/compat/vsomeip/vsomeip.hpp</title>
<polygon fill="white" stroke="transparent" points="-4,4 -4,-314 1255,-314 1255,4 -4,4"/>
<!-- Node1 -->
<g id="node1" class="node">
<title>Node1</title>
<g id="a_node1"><a xlink:title=" ">
<polygon fill="#bfbfbf" stroke="black" points="675.5,-268.5 675.5,-309.5 809.5,-309.5 809.5,-268.5 675.5,-268.5"/>
<text text-anchor="start" x="683.5" y="-297.5" font-family="Helvetica" font-size="10.00">/home/ec2&#45;user/workspace</text>
<text text-anchor="start" x="683.5" y="-286.5" font-family="Helvetica" font-size="10.00">/vsomeip/interface/compat</text>
<text text-anchor="middle" x="742.5" y="-275.5" font-family="Helvetica" font-size="10.00">/vsomeip/vsomeip.hpp</text>
</a>
</g>
</g>
<!-- Node2 -->
<g id="node2" class="node">
<title>Node2</title>
<g id="a_node2"><a xlink:href="compat_2vsomeip_2application_8hpp.html" target="_top" xlink:title=" ">
<polygon fill="white" stroke="black" points="329,-201.5 329,-231.5 436,-231.5 436,-201.5 329,-201.5"/>
<text text-anchor="start" x="337" y="-219.5" font-family="Helvetica" font-size="10.00">../../compat/vsomeip</text>
<text text-anchor="middle" x="382.5" y="-208.5" font-family="Helvetica" font-size="10.00">/application.hpp</text>
</a>
</g>
</g>
<!-- Node1&#45;&gt;Node2 -->
<g id="edge1" class="edge">
<title>Node1&#45;&gt;Node2</title>
<path fill="none" stroke="midnightblue" d="M675.21,-274.82C609.63,-261.98 510.64,-242.59 446.28,-229.99"/>
<polygon fill="midnightblue" stroke="midnightblue" points="446.75,-226.52 436.26,-228.03 445.4,-233.38 446.75,-226.52"/>
</g>
<!-- Node8 -->
<g id="node8" class="node">
<title>Node8</title>
<g id="a_node8"><a xlink:href="interface_2compat_2vsomeip_2constants_8hpp.html" target="_top" xlink:title=" ">
<polygon fill="white" stroke="black" points="607,-134.5 607,-164.5 714,-164.5 714,-134.5 607,-134.5"/>
<text text-anchor="start" x="615" y="-152.5" font-family="Helvetica" font-size="10.00">../../compat/vsomeip</text>
<text text-anchor="middle" x="660.5" y="-141.5" font-family="Helvetica" font-size="10.00">/constants.hpp</text>
</a>
</g>
</g>
<!-- Node1&#45;&gt;Node8 -->
<g id="edge23" class="edge">
<title>Node1&#45;&gt;Node8</title>
<path fill="none" stroke="midnightblue" d="M713.94,-268.27C701.97,-258.63 688.9,-246.07 680.5,-232 670.08,-214.56 665.08,-191.93 662.68,-174.95"/>
<polygon fill="midnightblue" stroke="midnightblue" points="666.12,-174.23 661.45,-164.71 659.17,-175.06 666.12,-174.23"/>
</g>
<!-- Node17 -->
<g id="node17" class="node">
<title>Node17</title>
<g id="a_node17"><a xlink:href="interface_2compat_2vsomeip_2defines_8hpp.html" target="_top" xlink:title=" ">
<polygon fill="white" stroke="black" points="891,-201.5 891,-231.5 998,-231.5 998,-201.5 891,-201.5"/>
<text text-anchor="start" x="899" y="-219.5" font-family="Helvetica" font-size="10.00">../../compat/vsomeip</text>
<text text-anchor="middle" x="944.5" y="-208.5" font-family="Helvetica" font-size="10.00">/defines.hpp</text>
</a>
</g>
</g>
<!-- Node1&#45;&gt;Node17 -->
<g id="edge24" class="edge">
<title>Node1&#45;&gt;Node17</title>
<path fill="none" stroke="midnightblue" d="M798.5,-268.46C828.61,-257.95 865.42,-245.1 894.55,-234.93"/>
<polygon fill="midnightblue" stroke="midnightblue" points="895.82,-238.2 904.11,-231.6 893.51,-231.59 895.82,-238.2"/>
</g>
<!-- Node18 -->
<g id="node18" class="node">
<title>Node18</title>
<g id="a_node18"><a xlink:href="compat_2vsomeip_2message_8hpp.html" target="_top" xlink:title=" ">
<polygon fill="white" stroke="black" points="525,-201.5 525,-231.5 632,-231.5 632,-201.5 525,-201.5"/>
<text text-anchor="start" x="533" y="-219.5" font-family="Helvetica" font-size="10.00">../../compat/vsomeip</text>
<text text-anchor="middle" x="578.5" y="-208.5" font-family="Helvetica" font-size="10.00">/message.hpp</text>
</a>
</g>
</g>
<!-- Node1&#45;&gt;Node18 -->
<g id="edge25" class="edge">
<title>Node1&#45;&gt;Node18</title>
<path fill="none" stroke="midnightblue" d="M696.82,-268.36C672.91,-258.08 643.84,-245.59 620.5,-235.55"/>
<polygon fill="midnightblue" stroke="midnightblue" points="621.78,-232.29 611.21,-231.56 619.01,-238.72 621.78,-232.29"/>
</g>
<!-- Node23 -->
<g id="node23" class="node">
<title>Node23</title>
<g id="a_node23"><a xlink:href="compat_2vsomeip_2payload_8hpp.html" target="_top" xlink:title=" ">
<polygon fill="white" stroke="black" points="1029,-134.5 1029,-164.5 1136,-164.5 1136,-134.5 1029,-134.5"/>
<text text-anchor="start" x="1037" y="-152.5" font-family="Helvetica" font-size="10.00">../../compat/vsomeip</text>
<text text-anchor="middle" x="1082.5" y="-141.5" font-family="Helvetica" font-size="10.00">/payload.hpp</text>
</a>
</g>
</g>
<!-- Node1&#45;&gt;Node23 -->
<g id="edge35" class="edge">
<title>Node1&#45;&gt;Node23</title>
<path fill="none" stroke="midnightblue" d="M771.7,-268.36C805.72,-245.75 860.11,-210.51 882.5,-201 906.94,-190.62 970.17,-175.32 1019.05,-164.28"/>
<polygon fill="midnightblue" stroke="midnightblue" points="1019.94,-167.67 1028.93,-162.07 1018.41,-160.84 1019.94,-167.67"/>
</g>
<!-- Node24 -->
<g id="node24" class="node">
<title>Node24</title>
<g id="a_node24"><a xlink:href="interface_2compat_2vsomeip_2runtime_8hpp.html" target="_top" xlink:title=" ">
<polygon fill="white" stroke="black" points="771,-134.5 771,-164.5 878,-164.5 878,-134.5 771,-134.5"/>
<text text-anchor="start" x="779" y="-152.5" font-family="Helvetica" font-size="10.00">../../compat/vsomeip</text>
<text text-anchor="middle" x="824.5" y="-141.5" font-family="Helvetica" font-size="10.00">/runtime.hpp</text>
</a>
</g>
</g>
<!-- Node1&#45;&gt;Node24 -->
<g id="edge41" class="edge">
<title>Node1&#45;&gt;Node24</title>
<path fill="none" stroke="midnightblue" d="M771.6,-268.4C783.78,-258.79 797.05,-246.21 805.5,-232 815.86,-214.59 820.57,-191.96 822.71,-174.97"/>
<polygon fill="midnightblue" stroke="midnightblue" points="826.22,-175.04 823.78,-164.73 819.26,-174.31 826.22,-175.04"/>
</g>
<!-- Node25 -->
<g id="node25" class="node">
<title>Node25</title>
<g id="a_node25"><a xlink:href="interface_2compat_2vsomeip_2trace_8hpp.html" target="_top" xlink:title=" ">
<polygon fill="white" stroke="black" points="689,-201.5 689,-231.5 796,-231.5 796,-201.5 689,-201.5"/>
<text text-anchor="start" x="697" y="-219.5" font-family="Helvetica" font-size="10.00">../../compat/vsomeip</text>
<text text-anchor="middle" x="742.5" y="-208.5" font-family="Helvetica" font-size="10.00">/trace.hpp</text>
</a>
</g>
</g>
<!-- Node1&#45;&gt;Node25 -->
<g id="edge47" class="edge">
<title>Node1&#45;&gt;Node25</title>
<path fill="none" stroke="midnightblue" d="M742.5,-268.36C742.5,-260.23 742.5,-250.7 742.5,-242.11"/>
<polygon fill="midnightblue" stroke="midnightblue" points="746,-241.89 742.5,-231.89 739,-241.89 746,-241.89"/>
</g>
<!-- Node3 -->
<g id="node3" class="node">
<title>Node3</title>
<g id="a_node3"><a xlink:title=" ">
<polygon fill="white" stroke="#bfbfbf" points="125.5,-140 125.5,-159 171.5,-159 171.5,-140 125.5,-140"/>
<text text-anchor="middle" x="148.5" y="-147" font-family="Helvetica" font-size="10.00">chrono</text>
</a>
</g>
</g>
<!-- Node2&#45;&gt;Node3 -->
<g id="edge2" class="edge">
<title>Node2&#45;&gt;Node3</title>
<path fill="none" stroke="midnightblue" d="M328.9,-203.64C289,-194.35 233.38,-180.45 185.5,-165 183.23,-164.27 180.9,-163.47 178.56,-162.63"/>
<polygon fill="midnightblue" stroke="midnightblue" points="179.67,-159.31 169.08,-159.08 177.22,-165.87 179.67,-159.31"/>
</g>
<!-- Node4 -->
<g id="node4" class="node">
<title>Node4</title>
<g id="a_node4"><a xlink:title=" ">
<polygon fill="white" stroke="#bfbfbf" points="382,-73 382,-92 435,-92 435,-73 382,-73"/>
<text text-anchor="middle" x="408.5" y="-80" font-family="Helvetica" font-size="10.00">memory</text>
</a>
</g>
</g>
<!-- Node2&#45;&gt;Node4 -->
<g id="edge3" class="edge">
<title>Node2&#45;&gt;Node4</title>
<path fill="none" stroke="midnightblue" d="M328.78,-208.68C269.17,-198.86 185.46,-176.97 218.5,-134 237.05,-109.88 321.94,-94.86 371.76,-87.96"/>
<polygon fill="midnightblue" stroke="midnightblue" points="372.37,-91.41 381.82,-86.62 371.44,-84.48 372.37,-91.41"/>
</g>
<!-- Node5 -->
<g id="node5" class="node">
<title>Node5</title>
<g id="a_node5"><a xlink:title=" ">
<polygon fill="white" stroke="#bfbfbf" points="227.5,-140 227.5,-159 257.5,-159 257.5,-140 227.5,-140"/>
<text text-anchor="middle" x="242.5" y="-147" font-family="Helvetica" font-size="10.00">set</text>
</a>
</g>
</g>
<!-- Node2&#45;&gt;Node5 -->
<g id="edge4" class="edge">
<title>Node2&#45;&gt;Node5</title>
<path fill="none" stroke="midnightblue" d="M346.91,-201.44C323.66,-191.91 292.84,-178.61 266.5,-165 265.96,-164.72 265.41,-164.43 264.87,-164.14"/>
<polygon fill="midnightblue" stroke="midnightblue" points="266.45,-161.01 256.03,-159.1 262.98,-167.1 266.45,-161.01"/>
</g>
<!-- Node6 -->
<g id="node6" class="node">
<title>Node6</title>
<g id="a_node6"><a xlink:title=" ">
<polygon fill="white" stroke="#bfbfbf" points="276,-140 276,-159 311,-159 311,-140 276,-140"/>
<text text-anchor="middle" x="293.5" y="-147" font-family="Helvetica" font-size="10.00">map</text>
</a>
</g>
</g>
<!-- Node2&#45;&gt;Node6 -->
<g id="edge5" class="edge">
<title>Node2&#45;&gt;Node6</title>
<path fill="none" stroke="midnightblue" d="M363.19,-201.4C348.54,-190.7 328.46,-176.03 313.62,-165.19"/>
<polygon fill="midnightblue" stroke="midnightblue" points="315.29,-162.08 305.15,-159.01 311.16,-167.73 315.29,-162.08"/>
</g>
<!-- Node7 -->
<g id="node7" class="node">
<title>Node7</title>
<g id="a_node7"><a xlink:title=" ">
<polygon fill="white" stroke="#bfbfbf" points="1208,-73 1208,-92 1251,-92 1251,-73 1208,-73"/>
<text text-anchor="middle" x="1229.5" y="-80" font-family="Helvetica" font-size="10.00">vector</text>
</a>
</g>
</g>
<!-- Node2&#45;&gt;Node7 -->
<g id="edge6" class="edge">
<title>Node2&#45;&gt;Node7</title>
<path fill="none" stroke="midnightblue" d="M436.23,-209.06C460.69,-206.29 490.03,-203.19 516.5,-201 656.03,-189.47 1017.31,-221.29 1145.5,-165 1162.01,-157.75 1195.99,-121.4 1215.29,-99.77"/>
<polygon fill="midnightblue" stroke="midnightblue" points="1218.12,-101.84 1222.12,-92.03 1212.88,-97.21 1218.12,-101.84"/>
</g>
<!-- Node2&#45;&gt;Node8 -->
<g id="edge7" class="edge">
<title>Node2&#45;&gt;Node8</title>
<path fill="none" stroke="midnightblue" d="M436.1,-202.97C482.01,-192.23 548.21,-176.76 596.81,-165.39"/>
<polygon fill="midnightblue" stroke="midnightblue" points="597.65,-168.79 606.59,-163.1 596.06,-161.97 597.65,-168.79"/>
</g>
<!-- Node10 -->
<g id="node10" class="node">
<title>Node10</title>
<g id="a_node10"><a xlink:href="interface_2compat_2vsomeip_2enumeration__types_8hpp.html" target="_top" xlink:title=" ">
<polygon fill="white" stroke="black" points="480,-67.5 480,-97.5 601,-97.5 601,-67.5 480,-67.5"/>
<text text-anchor="start" x="488" y="-85.5" font-family="Helvetica" font-size="10.00">../../compat/vsomeip</text>
<text text-anchor="middle" x="540.5" y="-74.5" font-family="Helvetica" font-size="10.00">/enumeration_types.hpp</text>
</a>
</g>
</g>
<!-- Node2&#45;&gt;Node10 -->
<g id="edge14" class="edge">
<title>Node2&#45;&gt;Node10</title>
<path fill="none" stroke="midnightblue" d="M399.95,-201.45C412.41,-191.37 429.56,-177.43 444.5,-165 469.06,-144.57 496.86,-120.91 516.2,-104.36"/>
<polygon fill="midnightblue" stroke="midnightblue" points="518.62,-106.9 523.94,-97.74 514.07,-101.58 518.62,-106.9"/>
</g>
<!-- Node12 -->
<g id="node12" class="node">
<title>Node12</title>
<g id="a_node12"><a xlink:href="interface_2compat_2vsomeip_2primitive__types_8hpp.html" target="_top" xlink:title=" ">
<polygon fill="white" stroke="black" points="619,-67.5 619,-97.5 726,-97.5 726,-67.5 619,-67.5"/>
<text text-anchor="start" x="627" y="-85.5" font-family="Helvetica" font-size="10.00">../../compat/vsomeip</text>
<text text-anchor="middle" x="672.5" y="-74.5" font-family="Helvetica" font-size="10.00">/primitive_types.hpp</text>
</a>
</g>
</g>
<!-- Node2&#45;&gt;Node12 -->
<g id="edge22" class="edge">
<title>Node2&#45;&gt;Node12</title>
<path fill="none" stroke="midnightblue" d="M413.26,-201.5C466.01,-177.49 573.69,-128.48 632.3,-101.8"/>
<polygon fill="midnightblue" stroke="midnightblue" points="633.97,-104.88 641.62,-97.56 631.07,-98.51 633.97,-104.88"/>
</g>
<!-- Node14 -->
<g id="node14" class="node">
<title>Node14</title>
<g id="a_node14"><a xlink:href="interface_2compat_2vsomeip_2function__types_8hpp.html" target="_top" xlink:title=" ">
<polygon fill="white" stroke="black" points="0,-134.5 0,-164.5 107,-164.5 107,-134.5 0,-134.5"/>
<text text-anchor="start" x="8" y="-152.5" font-family="Helvetica" font-size="10.00">../../compat/vsomeip</text>
<text text-anchor="middle" x="53.5" y="-141.5" font-family="Helvetica" font-size="10.00">/function_types.hpp</text>
</a>
</g>
</g>
<!-- Node2&#45;&gt;Node14 -->
<g id="edge15" class="edge">
<title>Node2&#45;&gt;Node14</title>
<path fill="none" stroke="midnightblue" d="M328.88,-205.95C277.28,-196.62 196.81,-181.69 117.28,-165.12"/>
<polygon fill="midnightblue" stroke="midnightblue" points="117.59,-161.61 107.09,-162.98 116.16,-168.46 117.59,-161.61"/>
</g>
<!-- Node16 -->
<g id="node16" class="node">
<title>Node16</title>
<g id="a_node16"><a xlink:href="compat_2vsomeip_2handler_8hpp.html" target="_top" xlink:title=" ">
<polygon fill="white" stroke="black" points="329,-134.5 329,-164.5 436,-164.5 436,-134.5 329,-134.5"/>
<text text-anchor="start" x="337" y="-152.5" font-family="Helvetica" font-size="10.00">../../compat/vsomeip</text>
<text text-anchor="middle" x="382.5" y="-141.5" font-family="Helvetica" font-size="10.00">/handler.hpp</text>
</a>
</g>
</g>
<!-- Node2&#45;&gt;Node16 -->
<g id="edge18" class="edge">
<title>Node2&#45;&gt;Node16</title>
<path fill="none" stroke="midnightblue" d="M382.5,-201.4C382.5,-193.64 382.5,-183.81 382.5,-174.86"/>
<polygon fill="midnightblue" stroke="midnightblue" points="386,-174.58 382.5,-164.58 379,-174.58 386,-174.58"/>
</g>
<!-- Node9 -->
<g id="node9" class="node">
<title>Node9</title>
<g id="a_node9"><a xlink:title=" ">
<polygon fill="white" stroke="#bfbfbf" points="744,-73 744,-92 785,-92 785,-73 744,-73"/>
<text text-anchor="middle" x="764.5" y="-80" font-family="Helvetica" font-size="10.00">string</text>
</a>
</g>
</g>
<!-- Node8&#45;&gt;Node9 -->
<g id="edge8" class="edge">
<title>Node8&#45;&gt;Node9</title>
<path fill="none" stroke="midnightblue" d="M683.07,-134.4C700.51,-123.5 724.53,-108.48 741.97,-97.58"/>
<polygon fill="midnightblue" stroke="midnightblue" points="744.26,-100.28 750.89,-92.01 740.55,-94.34 744.26,-100.28"/>
</g>
<!-- Node8&#45;&gt;Node10 -->
<g id="edge9" class="edge">
<title>Node8&#45;&gt;Node10</title>
<path fill="none" stroke="midnightblue" d="M634.46,-134.4C617.16,-125.03 594.25,-112.62 575.38,-102.39"/>
<polygon fill="midnightblue" stroke="midnightblue" points="576.95,-99.26 566.49,-97.58 573.61,-105.42 576.95,-99.26"/>
</g>
<!-- Node8&#45;&gt;Node12 -->
<g id="edge11" class="edge">
<title>Node8&#45;&gt;Node12</title>
<path fill="none" stroke="midnightblue" d="M663.1,-134.4C664.55,-126.56 666.39,-116.6 668.06,-107.57"/>
<polygon fill="midnightblue" stroke="midnightblue" points="671.53,-108.05 669.9,-97.58 664.64,-106.77 671.53,-108.05"/>
</g>
<!-- Node11 -->
<g id="node11" class="node">
<title>Node11</title>
<g id="a_node11"><a xlink:title=" ">
<polygon fill="white" stroke="#bfbfbf" points="553.5,-6 553.5,-25 599.5,-25 599.5,-6 553.5,-6"/>
<text text-anchor="middle" x="576.5" y="-13" font-family="Helvetica" font-size="10.00">cstdint</text>
</a>
</g>
</g>
<!-- Node10&#45;&gt;Node11 -->
<g id="edge10" class="edge">
<title>Node10&#45;&gt;Node11</title>
<path fill="none" stroke="midnightblue" d="M548.31,-67.4C553.7,-57.66 560.91,-44.65 566.69,-34.21"/>
<polygon fill="midnightblue" stroke="midnightblue" points="569.9,-35.64 571.68,-25.19 563.78,-32.25 569.9,-35.64"/>
</g>
<!-- Node12&#45;&gt;Node11 -->
<g id="edge13" class="edge">
<title>Node12&#45;&gt;Node11</title>
<path fill="none" stroke="midnightblue" d="M651.67,-67.4C635.72,-56.6 613.8,-41.76 597.75,-30.89"/>
<polygon fill="midnightblue" stroke="midnightblue" points="599.31,-27.72 589.06,-25.01 595.38,-33.51 599.31,-27.72"/>
</g>
<!-- Node13 -->
<g id="node13" class="node">
<title>Node13</title>
<g id="a_node13"><a xlink:title=" ">
<polygon fill="white" stroke="#bfbfbf" points="653.5,-6 653.5,-25 691.5,-25 691.5,-6 653.5,-6"/>
<text text-anchor="middle" x="672.5" y="-13" font-family="Helvetica" font-size="10.00">array</text>
</a>
</g>
</g>
<!-- Node12&#45;&gt;Node13 -->
<g id="edge12" class="edge">
<title>Node12&#45;&gt;Node13</title>
<path fill="none" stroke="midnightblue" d="M672.5,-67.4C672.5,-58.06 672.5,-45.71 672.5,-35.52"/>
<polygon fill="midnightblue" stroke="midnightblue" points="676,-35.19 672.5,-25.19 669,-35.19 676,-35.19"/>
</g>
<!-- Node14&#45;&gt;Node4 -->
<g id="edge17" class="edge">
<title>Node14&#45;&gt;Node4</title>
<path fill="none" stroke="midnightblue" d="M107.07,-135.96C110.26,-135.28 113.42,-134.62 116.5,-134 207.94,-115.58 316.33,-97.92 371.79,-89.18"/>
<polygon fill="midnightblue" stroke="midnightblue" points="372.5,-92.62 381.84,-87.61 371.41,-85.7 372.5,-92.62"/>
</g>
<!-- Node15 -->
<g id="node15" class="node">
<title>Node15</title>
<g id="a_node15"><a xlink:title=" ">
<polygon fill="white" stroke="#bfbfbf" points="178,-73 178,-92 237,-92 237,-73 178,-73"/>
<text text-anchor="middle" x="207.5" y="-80" font-family="Helvetica" font-size="10.00">functional</text>
</a>
</g>
</g>
<!-- Node14&#45;&gt;Node15 -->
<g id="edge16" class="edge">
<title>Node14&#45;&gt;Node15</title>
<path fill="none" stroke="midnightblue" d="M86.92,-134.4C114.06,-122.94 151.97,-106.94 178,-95.95"/>
<polygon fill="midnightblue" stroke="midnightblue" points="179.49,-99.12 187.34,-92.01 176.77,-92.67 179.49,-99.12"/>
</g>
<!-- Node16&#45;&gt;Node4 -->
<g id="edge20" class="edge">
<title>Node16&#45;&gt;Node4</title>
<path fill="none" stroke="midnightblue" d="M388.14,-134.4C391.99,-124.76 397.13,-111.91 401.29,-101.54"/>
<polygon fill="midnightblue" stroke="midnightblue" points="404.56,-102.78 405.02,-92.19 398.06,-100.18 404.56,-102.78"/>
</g>
<!-- Node16&#45;&gt;Node12 -->
<g id="edge21" class="edge">
<title>Node16&#45;&gt;Node12</title>
<path fill="none" stroke="midnightblue" d="M436.44,-136.74C480.41,-127.11 544.38,-113.01 608.82,-98.37"/>
<polygon fill="midnightblue" stroke="midnightblue" points="609.77,-101.74 618.74,-96.11 608.21,-94.92 609.77,-101.74"/>
</g>
<!-- Node16&#45;&gt;Node15 -->
<g id="edge19" class="edge">
<title>Node16&#45;&gt;Node15</title>
<path fill="none" stroke="midnightblue" d="M344.53,-134.4C313.28,-122.79 269.46,-106.51 239.86,-95.52"/>
<polygon fill="midnightblue" stroke="midnightblue" points="241,-92.21 230.4,-92.01 238.56,-98.77 241,-92.21"/>
</g>
<!-- Node18&#45;&gt;Node4 -->
<g id="edge26" class="edge">
<title>Node18&#45;&gt;Node4</title>
<path fill="none" stroke="midnightblue" d="M548.42,-201.34C530.27,-192.15 507.14,-179.26 488.5,-165 462.65,-145.23 437.06,-117.3 422.02,-99.81"/>
<polygon fill="midnightblue" stroke="midnightblue" points="424.67,-97.52 415.54,-92.14 419.32,-102.04 424.67,-97.52"/>
</g>
<!-- Node19 -->
<g id="node19" class="node">
<title>Node19</title>
<g id="a_node19"><a xlink:href="compat_2vsomeip_2message__base_8hpp.html" target="_top" xlink:title=" ">
<polygon fill="white" stroke="black" points="896,-134.5 896,-164.5 1003,-164.5 1003,-134.5 896,-134.5"/>
<text text-anchor="start" x="904" y="-152.5" font-family="Helvetica" font-size="10.00">../../compat/vsomeip</text>
<text text-anchor="middle" x="949.5" y="-141.5" font-family="Helvetica" font-size="10.00">/message_base.hpp</text>
</a>
</g>
</g>
<!-- Node18&#45;&gt;Node19 -->
<g id="edge27" class="edge">
<title>Node18&#45;&gt;Node19</title>
<path fill="none" stroke="midnightblue" d="M632.01,-207.88C691.67,-199.13 791.23,-183.79 885.76,-165.28"/>
<polygon fill="midnightblue" stroke="midnightblue" points="886.65,-168.67 895.78,-163.3 885.29,-161.8 886.65,-168.67"/>
</g>
<!-- Node19&#45;&gt;Node10 -->
<g id="edge28" class="edge">
<title>Node19&#45;&gt;Node10</title>
<path fill="none" stroke="midnightblue" d="M895.8,-135.59C893,-135.03 890.22,-134.49 887.5,-134 768.57,-112.42 734.7,-118.27 611.37,-98.05"/>
<polygon fill="midnightblue" stroke="midnightblue" points="611.59,-94.54 601.15,-96.35 610.44,-101.45 611.59,-94.54"/>
</g>
<!-- Node19&#45;&gt;Node12 -->
<g id="edge34" class="edge">
<title>Node19&#45;&gt;Node12</title>
<path fill="none" stroke="midnightblue" d="M895.76,-135.89C850.08,-125.17 784.41,-109.76 736.12,-98.43"/>
<polygon fill="midnightblue" stroke="midnightblue" points="736.62,-94.95 726.09,-96.07 735.02,-101.77 736.62,-94.95"/>
</g>
<!-- Node20 -->
<g id="node20" class="node">
<title>Node20</title>
<g id="a_node20"><a xlink:href="compat_2vsomeip_2export_8hpp.html" target="_top" xlink:title=" ">
<polygon fill="white" stroke="black" points="892,-0.5 892,-30.5 999,-30.5 999,-0.5 892,-0.5"/>
<text text-anchor="start" x="900" y="-18.5" font-family="Helvetica" font-size="10.00">../../compat/vsomeip</text>
<text text-anchor="middle" x="945.5" y="-7.5" font-family="Helvetica" font-size="10.00">/export.hpp</text>
</a>
</g>
</g>
<!-- Node19&#45;&gt;Node20 -->
<g id="edge29" class="edge">
<title>Node19&#45;&gt;Node20</title>
<path fill="none" stroke="midnightblue" d="M912.19,-134.36C896.35,-126.28 879.49,-114.42 870.5,-98 863.88,-85.92 864.03,-79.16 870.5,-67 877.44,-53.95 889.42,-43.67 901.8,-35.89"/>
<polygon fill="midnightblue" stroke="midnightblue" points="903.92,-38.7 910.81,-30.66 900.4,-32.65 903.92,-38.7"/>
</g>
<!-- Node21 -->
<g id="node21" class="node">
<title>Node21</title>
<g id="a_node21"><a xlink:href="compat_2vsomeip_2internal_2deserializable_8hpp.html" target="_top" xlink:title=" ">
<polygon fill="white" stroke="black" points="879.5,-67.5 879.5,-97.5 1011.5,-97.5 1011.5,-67.5 879.5,-67.5"/>
<text text-anchor="start" x="887.5" y="-85.5" font-family="Helvetica" font-size="10.00">../../compat/vsomeip</text>
<text text-anchor="middle" x="945.5" y="-74.5" font-family="Helvetica" font-size="10.00">/internal/deserializable.hpp</text>
</a>
</g>
</g>
<!-- Node19&#45;&gt;Node21 -->
<g id="edge30" class="edge">
<title>Node19&#45;&gt;Node21</title>
<path fill="none" stroke="midnightblue" d="M948.63,-134.4C948.15,-126.56 947.54,-116.6 946.98,-107.57"/>
<polygon fill="midnightblue" stroke="midnightblue" points="950.47,-107.34 946.37,-97.58 943.49,-107.77 950.47,-107.34"/>
</g>
<!-- Node22 -->
<g id="node22" class="node">
<title>Node22</title>
<g id="a_node22"><a xlink:href="compat_2vsomeip_2internal_2serializable_8hpp.html" target="_top" xlink:title=" ">
<polygon fill="white" stroke="black" points="1029.5,-67.5 1029.5,-97.5 1151.5,-97.5 1151.5,-67.5 1029.5,-67.5"/>
<text text-anchor="start" x="1037.5" y="-85.5" font-family="Helvetica" font-size="10.00">../../compat/vsomeip</text>
<text text-anchor="middle" x="1090.5" y="-74.5" font-family="Helvetica" font-size="10.00">/internal/serializable.hpp</text>
</a>
</g>
</g>
<!-- Node19&#45;&gt;Node22 -->
<g id="edge32" class="edge">
<title>Node19&#45;&gt;Node22</title>
<path fill="none" stroke="midnightblue" d="M980.09,-134.4C1000.79,-124.86 1028.32,-112.16 1050.72,-101.84"/>
<polygon fill="midnightblue" stroke="midnightblue" points="1052.35,-104.94 1059.96,-97.58 1049.42,-98.58 1052.35,-104.94"/>
</g>
<!-- Node21&#45;&gt;Node20 -->
<g id="edge31" class="edge">
<title>Node21&#45;&gt;Node20</title>
<path fill="none" stroke="midnightblue" d="M945.5,-67.4C945.5,-59.64 945.5,-49.81 945.5,-40.86"/>
<polygon fill="midnightblue" stroke="midnightblue" points="949,-40.58 945.5,-30.58 942,-40.58 949,-40.58"/>
</g>
<!-- Node22&#45;&gt;Node20 -->
<g id="edge33" class="edge">
<title>Node22&#45;&gt;Node20</title>
<path fill="none" stroke="midnightblue" d="M1059.04,-67.4C1037.66,-57.81 1009.19,-45.05 986.1,-34.7"/>
<polygon fill="midnightblue" stroke="midnightblue" points="987.46,-31.47 976.9,-30.58 984.59,-37.86 987.46,-31.47"/>
</g>
<!-- Node23&#45;&gt;Node7 -->
<g id="edge36" class="edge">
<title>Node23&#45;&gt;Node7</title>
<path fill="none" stroke="midnightblue" d="M1114.4,-134.4C1140.19,-122.99 1176.17,-107.08 1201.01,-96.1"/>
<polygon fill="midnightblue" stroke="midnightblue" points="1202.53,-99.25 1210.26,-92.01 1199.7,-92.85 1202.53,-99.25"/>
</g>
<!-- Node23&#45;&gt;Node12 -->
<g id="edge40" class="edge">
<title>Node23&#45;&gt;Node12</title>
<path fill="none" stroke="midnightblue" d="M1028.69,-136.93C1023.23,-135.88 1017.76,-134.89 1012.5,-134 893.3,-113.94 859.46,-119.62 736.25,-98.01"/>
<polygon fill="midnightblue" stroke="midnightblue" points="736.5,-94.5 726.04,-96.2 735.28,-101.39 736.5,-94.5"/>
</g>
<!-- Node23&#45;&gt;Node20 -->
<g id="edge37" class="edge">
<title>Node23&#45;&gt;Node20</title>
<path fill="none" stroke="midnightblue" d="M1118.95,-134.46C1134.71,-126.35 1151.56,-114.44 1160.5,-98 1167.08,-85.9 1169.06,-77.8 1160.5,-67 1141.86,-43.47 1065.57,-29.83 1009.14,-22.79"/>
<polygon fill="midnightblue" stroke="midnightblue" points="1009.55,-19.31 999.21,-21.59 1008.72,-26.26 1009.55,-19.31"/>
</g>
<!-- Node23&#45;&gt;Node21 -->
<g id="edge38" class="edge">
<title>Node23&#45;&gt;Node21</title>
<path fill="none" stroke="midnightblue" d="M1052.77,-134.4C1032.76,-124.9 1006.15,-112.28 984.45,-101.98"/>
<polygon fill="midnightblue" stroke="midnightblue" points="985.7,-98.7 975.17,-97.58 982.7,-105.03 985.7,-98.7"/>
</g>
<!-- Node23&#45;&gt;Node22 -->
<g id="edge39" class="edge">
<title>Node23&#45;&gt;Node22</title>
<path fill="none" stroke="midnightblue" d="M1084.24,-134.4C1085.2,-126.56 1086.43,-116.6 1087.54,-107.57"/>
<polygon fill="midnightblue" stroke="midnightblue" points="1091.02,-107.93 1088.77,-97.58 1084.07,-107.07 1091.02,-107.93"/>
</g>
<!-- Node24&#45;&gt;Node4 -->
<g id="edge42" class="edge">
<title>Node24&#45;&gt;Node4</title>
<path fill="none" stroke="midnightblue" d="M770.77,-140.77C755.5,-138.58 738.84,-136.19 723.5,-134 611.07,-117.93 582.13,-118.95 470.5,-98 462.24,-96.45 453.41,-94.54 445.08,-92.62"/>
<polygon fill="midnightblue" stroke="midnightblue" points="445.78,-89.19 435.25,-90.3 444.18,-96 445.78,-89.19"/>
</g>
<!-- Node24&#45;&gt;Node7 -->
<g id="edge44" class="edge">
<title>Node24&#45;&gt;Node7</title>
<path fill="none" stroke="midnightblue" d="M878.04,-135.81C881.24,-135.17 884.41,-134.56 887.5,-134 1007.94,-112.25 1039.86,-118.6 1160.5,-98 1172.82,-95.9 1186.29,-93.16 1198.03,-90.64"/>
<polygon fill="midnightblue" stroke="midnightblue" points="1198.81,-94.05 1207.83,-88.5 1197.31,-87.21 1198.81,-94.05"/>
</g>
<!-- Node24&#45;&gt;Node9 -->
<g id="edge43" class="edge">
<title>Node24&#45;&gt;Node9</title>
<path fill="none" stroke="midnightblue" d="M811.48,-134.4C802.03,-124.16 789.23,-110.3 779.38,-99.62"/>
<polygon fill="midnightblue" stroke="midnightblue" points="781.88,-97.17 772.53,-92.19 776.74,-101.92 781.88,-97.17"/>
</g>
<!-- Node24&#45;&gt;Node12 -->
<g id="edge46" class="edge">
<title>Node24&#45;&gt;Node12</title>
<path fill="none" stroke="midnightblue" d="M791.52,-134.4C769.01,-124.77 739,-111.94 714.74,-101.56"/>
<polygon fill="midnightblue" stroke="midnightblue" points="715.99,-98.29 705.42,-97.58 713.24,-104.73 715.99,-98.29"/>
</g>
<!-- Node24&#45;&gt;Node20 -->
<g id="edge45" class="edge">
<title>Node24&#45;&gt;Node20</title>
<path fill="none" stroke="midnightblue" d="M828.09,-134.38C833.13,-116.89 843.72,-86.96 861.5,-67 873.03,-54.06 888.68,-43.42 903.35,-35.3"/>
<polygon fill="midnightblue" stroke="midnightblue" points="905.1,-38.34 912.31,-30.58 901.84,-32.15 905.1,-38.34"/>
</g>
<!-- Node25&#45;&gt;Node4 -->
<g id="edge48" class="edge">
<title>Node25&#45;&gt;Node4</title>
<path fill="none" stroke="midnightblue" d="M700.01,-201.44C671.18,-191.7 632.32,-178.17 598.5,-165 540.41,-142.39 473.69,-112.95 436.79,-96.35"/>
<polygon fill="midnightblue" stroke="midnightblue" points="437.76,-92.95 427.2,-92.02 434.88,-99.33 437.76,-92.95"/>
</g>
<!-- Node25&#45;&gt;Node7 -->
<g id="edge49" class="edge">
<title>Node25&#45;&gt;Node7</title>
<path fill="none" stroke="midnightblue" d="M796.05,-209.75C913.47,-197.1 1183.5,-167.76 1187.5,-165 1208.86,-150.26 1220.04,-121.25 1225.35,-102.12"/>
<polygon fill="midnightblue" stroke="midnightblue" points="1228.81,-102.72 1227.83,-92.17 1222.02,-101.03 1228.81,-102.72"/>
</g>
<!-- Node25&#45;&gt;Node8 -->
<g id="edge50" class="edge">
<title>Node25&#45;&gt;Node8</title>
<path fill="none" stroke="midnightblue" d="M724.71,-201.4C713.42,-192.45 698.65,-180.74 686.11,-170.8"/>
<polygon fill="midnightblue" stroke="midnightblue" points="688.27,-168.05 678.26,-164.58 683.92,-173.53 688.27,-168.05"/>
</g>
<!-- Node25&#45;&gt;Node12 -->
<g id="edge51" class="edge">
<title>Node25&#45;&gt;Node12</title>
<path fill="none" stroke="midnightblue" d="M741.59,-201.39C739.98,-184.43 735.55,-155.56 723.5,-134 717.34,-122.98 708.07,-112.77 699.11,-104.46"/>
<polygon fill="midnightblue" stroke="midnightblue" points="701.22,-101.66 691.41,-97.67 696.6,-106.91 701.22,-101.66"/>
</g>
</g>
</svg>
