<?xml version="1.0" encoding="UTF-8" standalone="no"?>
<!DOCTYPE svg PUBLIC "-//W3C//DTD SVG 1.1//EN"
 "http://www.w3.org/Graphics/SVG/1.1/DTD/svg11.dtd">
<!-- Generated by graphviz version 2.44.0 (0)
 -->
<!-- Title: /home/ec2&#45;user/workspace/vsomeip/implementation/compat/message/include/message_impl.hpp Pages: 1 -->
<svg width="754pt" height="374pt"
 viewBox="0.00 0.00 754.00 374.00" xmlns="http://www.w3.org/2000/svg" xmlns:xlink="http://www.w3.org/1999/xlink">
<g id="graph0" class="graph" transform="scale(1 1) rotate(0) translate(4 370)">
<title>/home/ec2&#45;user/workspace/vsomeip/implementation/compat/message/include/message_impl.hpp</title>
<polygon fill="white" stroke="transparent" points="-4,4 -4,-370 750,-370 750,4 -4,4"/>
<!-- Node1 -->
<g id="node1" class="node">
<title>Node1</title>
<g id="a_node1"><a xlink:title=" ">
<polygon fill="#bfbfbf" stroke="black" points="418.5,-313.5 418.5,-365.5 552.5,-365.5 552.5,-313.5 418.5,-313.5"/>
<text text-anchor="start" x="426.5" y="-353.5" font-family="Helvetica" font-size="10.00">/home/ec2&#45;user/workspace</text>
<text text-anchor="start" x="426.5" y="-342.5" font-family="Helvetica" font-size="10.00">/vsomeip/implementation</text>
<text text-anchor="start" x="426.5" y="-331.5" font-family="Helvetica" font-size="10.00">/compat/message/include</text>
<text text-anchor="middle" x="485.5" y="-320.5" font-family="Helvetica" font-size="10.00">/message_impl.hpp</text>
</a>
</g>
</g>
<!-- Node2 -->
<g id="node2" class="node">
<title>Node2</title>
<g id="a_node2"><a xlink:href="compat_2vsomeip_2message_8hpp.html" target="_top" xlink:title=" ">
<polygon fill="white" stroke="black" points="359.5,-201.5 359.5,-220.5 509.5,-220.5 509.5,-201.5 359.5,-201.5"/>
<text text-anchor="middle" x="434.5" y="-208.5" font-family="Helvetica" font-size="10.00">compat/vsomeip/message.hpp</text>
</a>
</g>
</g>
<!-- Node1&#45;&gt;Node2 -->
<g id="edge1" class="edge">
<title>Node1&#45;&gt;Node2</title>
<path fill="none" stroke="midnightblue" d="M475.3,-313.2C465.36,-288.54 450.49,-251.67 441.72,-229.9"/>
<polygon fill="midnightblue" stroke="midnightblue" points="444.93,-228.52 437.95,-220.55 438.44,-231.13 444.93,-228.52"/>
</g>
<!-- Node12 -->
<g id="node12" class="node">
<title>Node12</title>
<g id="a_node12"><a xlink:href="compat_2message_2include_2message__base__impl_8hpp.html" target="_top" xlink:title=" ">
<polygon fill="white" stroke="black" points="472,-257.5 472,-276.5 597,-276.5 597,-257.5 472,-257.5"/>
<text text-anchor="middle" x="534.5" y="-264.5" font-family="Helvetica" font-size="10.00">message_base_impl.hpp</text>
</a>
</g>
</g>
<!-- Node1&#45;&gt;Node12 -->
<g id="edge14" class="edge">
<title>Node1&#45;&gt;Node12</title>
<path fill="none" stroke="midnightblue" d="M502.91,-313.45C509.46,-304.03 516.74,-293.55 522.66,-285.03"/>
<polygon fill="midnightblue" stroke="midnightblue" points="525.62,-286.9 528.46,-276.7 519.88,-282.91 525.62,-286.9"/>
</g>
<!-- Node3 -->
<g id="node3" class="node">
<title>Node3</title>
<g id="a_node3"><a xlink:title=" ">
<polygon fill="white" stroke="#bfbfbf" points="244,-140 244,-159 297,-159 297,-140 244,-140"/>
<text text-anchor="middle" x="270.5" y="-147" font-family="Helvetica" font-size="10.00">memory</text>
</a>
</g>
</g>
<!-- Node2&#45;&gt;Node3 -->
<g id="edge2" class="edge">
<title>Node2&#45;&gt;Node3</title>
<path fill="none" stroke="midnightblue" d="M408.64,-201.46C382.49,-192.72 340.96,-178.52 305.5,-165 303.85,-164.37 302.17,-163.72 300.47,-163.05"/>
<polygon fill="midnightblue" stroke="midnightblue" points="301.36,-159.63 290.78,-159.13 298.74,-166.12 301.36,-159.63"/>
</g>
<!-- Node4 -->
<g id="node4" class="node">
<title>Node4</title>
<g id="a_node4"><a xlink:href="compat_2vsomeip_2message__base_8hpp.html" target="_top" xlink:title=" ">
<polygon fill="white" stroke="black" points="315,-134.5 315,-164.5 422,-164.5 422,-134.5 315,-134.5"/>
<text text-anchor="start" x="323" y="-152.5" font-family="Helvetica" font-size="10.00">../../compat/vsomeip</text>
<text text-anchor="middle" x="368.5" y="-141.5" font-family="Helvetica" font-size="10.00">/message_base.hpp</text>
</a>
</g>
</g>
<!-- Node2&#45;&gt;Node4 -->
<g id="edge3" class="edge">
<title>Node2&#45;&gt;Node4</title>
<path fill="none" stroke="midnightblue" d="M425.04,-201.48C416.36,-193.64 403.12,-181.71 391.64,-171.37"/>
<polygon fill="midnightblue" stroke="midnightblue" points="393.83,-168.62 384.05,-164.52 389.14,-173.82 393.83,-168.62"/>
</g>
<!-- Node5 -->
<g id="node5" class="node">
<title>Node5</title>
<g id="a_node5"><a xlink:href="interface_2compat_2vsomeip_2enumeration__types_8hpp.html" target="_top" xlink:title=" ">
<polygon fill="white" stroke="black" points="0,-67.5 0,-97.5 121,-97.5 121,-67.5 0,-67.5"/>
<text text-anchor="start" x="8" y="-85.5" font-family="Helvetica" font-size="10.00">../../compat/vsomeip</text>
<text text-anchor="middle" x="60.5" y="-74.5" font-family="Helvetica" font-size="10.00">/enumeration_types.hpp</text>
</a>
</g>
</g>
<!-- Node4&#45;&gt;Node5 -->
<g id="edge4" class="edge">
<title>Node4&#45;&gt;Node5</title>
<path fill="none" stroke="midnightblue" d="M314.9,-136.07C311.72,-135.36 308.57,-134.67 305.5,-134 230.53,-117.71 209.31,-114.45 130.93,-98.29"/>
<polygon fill="midnightblue" stroke="midnightblue" points="131.58,-94.85 121.08,-96.25 130.16,-101.7 131.58,-94.85"/>
</g>
<!-- Node7 -->
<g id="node7" class="node">
<title>Node7</title>
<g id="a_node7"><a xlink:href="compat_2vsomeip_2export_8hpp.html" target="_top" xlink:title=" ">
<polygon fill="white" stroke="black" points="387,-0.5 387,-30.5 494,-30.5 494,-0.5 387,-0.5"/>
<text text-anchor="start" x="395" y="-18.5" font-family="Helvetica" font-size="10.00">../../compat/vsomeip</text>
<text text-anchor="middle" x="440.5" y="-7.5" font-family="Helvetica" font-size="10.00">/export.hpp</text>
</a>
</g>
</g>
<!-- Node4&#45;&gt;Node7 -->
<g id="edge6" class="edge">
<title>Node4&#45;&gt;Node7</title>
<path fill="none" stroke="midnightblue" d="M333.81,-134.34C318.54,-126.15 302.13,-114.21 293.5,-98 287.03,-85.84 285.5,-78.21 293.5,-67 312.45,-40.46 346.26,-27.72 376.68,-21.67"/>
<polygon fill="midnightblue" stroke="midnightblue" points="377.61,-25.06 386.84,-19.87 376.39,-18.17 377.61,-25.06"/>
</g>
<!-- Node8 -->
<g id="node8" class="node">
<title>Node8</title>
<g id="a_node8"><a xlink:href="compat_2vsomeip_2internal_2deserializable_8hpp.html" target="_top" xlink:title=" ">
<polygon fill="white" stroke="black" points="302.5,-67.5 302.5,-97.5 434.5,-97.5 434.5,-67.5 302.5,-67.5"/>
<text text-anchor="start" x="310.5" y="-85.5" font-family="Helvetica" font-size="10.00">../../compat/vsomeip</text>
<text text-anchor="middle" x="368.5" y="-74.5" font-family="Helvetica" font-size="10.00">/internal/deserializable.hpp</text>
</a>
</g>
</g>
<!-- Node4&#45;&gt;Node8 -->
<g id="edge7" class="edge">
<title>Node4&#45;&gt;Node8</title>
<path fill="none" stroke="midnightblue" d="M368.5,-134.4C368.5,-126.64 368.5,-116.81 368.5,-107.86"/>
<polygon fill="midnightblue" stroke="midnightblue" points="372,-107.58 368.5,-97.58 365,-107.58 372,-107.58"/>
</g>
<!-- Node9 -->
<g id="node9" class="node">
<title>Node9</title>
<g id="a_node9"><a xlink:href="compat_2vsomeip_2internal_2serializable_8hpp.html" target="_top" xlink:title=" ">
<polygon fill="white" stroke="black" points="452.5,-67.5 452.5,-97.5 574.5,-97.5 574.5,-67.5 452.5,-67.5"/>
<text text-anchor="start" x="460.5" y="-85.5" font-family="Helvetica" font-size="10.00">../../compat/vsomeip</text>
<text text-anchor="middle" x="513.5" y="-74.5" font-family="Helvetica" font-size="10.00">/internal/serializable.hpp</text>
</a>
</g>
</g>
<!-- Node4&#45;&gt;Node9 -->
<g id="edge9" class="edge">
<title>Node4&#45;&gt;Node9</title>
<path fill="none" stroke="midnightblue" d="M399.96,-134.4C421.34,-124.81 449.81,-112.05 472.9,-101.7"/>
<polygon fill="midnightblue" stroke="midnightblue" points="474.41,-104.86 482.1,-97.58 471.54,-98.47 474.41,-104.86"/>
</g>
<!-- Node10 -->
<g id="node10" class="node">
<title>Node10</title>
<g id="a_node10"><a xlink:href="interface_2compat_2vsomeip_2primitive__types_8hpp.html" target="_top" xlink:title=" ">
<polygon fill="white" stroke="black" points="139,-67.5 139,-97.5 246,-97.5 246,-67.5 139,-67.5"/>
<text text-anchor="start" x="147" y="-85.5" font-family="Helvetica" font-size="10.00">../../compat/vsomeip</text>
<text text-anchor="middle" x="192.5" y="-74.5" font-family="Helvetica" font-size="10.00">/primitive_types.hpp</text>
</a>
</g>
</g>
<!-- Node4&#45;&gt;Node10 -->
<g id="edge11" class="edge">
<title>Node4&#45;&gt;Node10</title>
<path fill="none" stroke="midnightblue" d="M330.31,-134.4C303.9,-124.64 268.57,-111.59 240.3,-101.15"/>
<polygon fill="midnightblue" stroke="midnightblue" points="241.21,-97.76 230.61,-97.58 238.78,-104.32 241.21,-97.76"/>
</g>
<!-- Node6 -->
<g id="node6" class="node">
<title>Node6</title>
<g id="a_node6"><a xlink:title=" ">
<polygon fill="white" stroke="#bfbfbf" points="73.5,-6 73.5,-25 119.5,-25 119.5,-6 73.5,-6"/>
<text text-anchor="middle" x="96.5" y="-13" font-family="Helvetica" font-size="10.00">cstdint</text>
</a>
</g>
</g>
<!-- Node5&#45;&gt;Node6 -->
<g id="edge5" class="edge">
<title>Node5&#45;&gt;Node6</title>
<path fill="none" stroke="midnightblue" d="M68.31,-67.4C73.7,-57.66 80.91,-44.65 86.69,-34.21"/>
<polygon fill="midnightblue" stroke="midnightblue" points="89.9,-35.64 91.68,-25.19 83.78,-32.25 89.9,-35.64"/>
</g>
<!-- Node8&#45;&gt;Node7 -->
<g id="edge8" class="edge">
<title>Node8&#45;&gt;Node7</title>
<path fill="none" stroke="midnightblue" d="M384.12,-67.4C393.84,-58.62 406.51,-47.18 417.38,-37.37"/>
<polygon fill="midnightblue" stroke="midnightblue" points="419.83,-39.88 424.91,-30.58 415.14,-34.68 419.83,-39.88"/>
</g>
<!-- Node9&#45;&gt;Node7 -->
<g id="edge10" class="edge">
<title>Node9&#45;&gt;Node7</title>
<path fill="none" stroke="midnightblue" d="M497.66,-67.4C487.81,-58.62 474.96,-47.18 463.94,-37.37"/>
<polygon fill="midnightblue" stroke="midnightblue" points="466.1,-34.61 456.31,-30.58 461.45,-39.84 466.1,-34.61"/>
</g>
<!-- Node10&#45;&gt;Node6 -->
<g id="edge13" class="edge">
<title>Node10&#45;&gt;Node6</title>
<path fill="none" stroke="midnightblue" d="M171.67,-67.4C155.72,-56.6 133.8,-41.76 117.75,-30.89"/>
<polygon fill="midnightblue" stroke="midnightblue" points="119.31,-27.72 109.06,-25.01 115.38,-33.51 119.31,-27.72"/>
</g>
<!-- Node11 -->
<g id="node11" class="node">
<title>Node11</title>
<g id="a_node11"><a xlink:title=" ">
<polygon fill="white" stroke="#bfbfbf" points="173.5,-6 173.5,-25 211.5,-25 211.5,-6 173.5,-6"/>
<text text-anchor="middle" x="192.5" y="-13" font-family="Helvetica" font-size="10.00">array</text>
</a>
</g>
</g>
<!-- Node10&#45;&gt;Node11 -->
<g id="edge12" class="edge">
<title>Node10&#45;&gt;Node11</title>
<path fill="none" stroke="midnightblue" d="M192.5,-67.4C192.5,-58.06 192.5,-45.71 192.5,-35.52"/>
<polygon fill="midnightblue" stroke="midnightblue" points="196,-35.19 192.5,-25.19 189,-35.19 196,-35.19"/>
</g>
<!-- Node12&#45;&gt;Node2 -->
<g id="edge16" class="edge">
<title>Node12&#45;&gt;Node2</title>
<path fill="none" stroke="midnightblue" d="M518.43,-257.32C502.54,-248.74 477.99,-235.49 459.54,-225.52"/>
<polygon fill="midnightblue" stroke="midnightblue" points="460.99,-222.33 450.53,-220.65 457.66,-228.49 460.99,-222.33"/>
</g>
<!-- Node12&#45;&gt;Node7 -->
<g id="edge15" class="edge">
<title>Node12&#45;&gt;Node7</title>
<path fill="none" stroke="midnightblue" d="M541.27,-257.13C563.09,-227.37 627.68,-129.45 583.5,-67 565.48,-41.52 533.49,-28.81 504.33,-22.51"/>
<polygon fill="midnightblue" stroke="midnightblue" points="504.65,-19 494.16,-20.53 503.31,-25.88 504.65,-19"/>
</g>
<!-- Node13 -->
<g id="node13" class="node">
<title>Node13</title>
<g id="a_node13"><a xlink:title=" ">
<polygon fill="white" stroke="#bfbfbf" points="631,-201.5 631,-220.5 746,-220.5 746,-201.5 631,-201.5"/>
<text text-anchor="middle" x="688.5" y="-208.5" font-family="Helvetica" font-size="10.00">vsomeip/message.hpp</text>
</a>
</g>
</g>
<!-- Node12&#45;&gt;Node13 -->
<g id="edge17" class="edge">
<title>Node12&#45;&gt;Node13</title>
<path fill="none" stroke="midnightblue" d="M558.9,-257.44C584.7,-248.4 625.58,-234.06 654.52,-223.92"/>
<polygon fill="midnightblue" stroke="midnightblue" points="655.93,-227.13 664.21,-220.52 653.62,-220.52 655.93,-227.13"/>
</g>
</g>
</svg>
