<?xml version="1.0" encoding="UTF-8" standalone="no"?>
<!DOCTYPE svg PUBLIC "-//W3C//DTD SVG 1.1//EN"
 "http://www.w3.org/Graphics/SVG/1.1/DTD/svg11.dtd">
<!-- Generated by graphviz version 2.44.0 (0)
 -->
<!-- Title: /home/ec2&#45;user/workspace/vsomeip/implementation/compat/runtime/include/runtime_impl.hpp Pages: 1 -->
<svg width="467pt" height="240pt"
 viewBox="0.00 0.00 467.00 240.00" xmlns="http://www.w3.org/2000/svg" xmlns:xlink="http://www.w3.org/1999/xlink">
<g id="graph0" class="graph" transform="scale(1 1) rotate(0) translate(4 236)">
<title>/home/ec2&#45;user/workspace/vsomeip/implementation/compat/runtime/include/runtime_impl.hpp</title>
<polygon fill="white" stroke="transparent" points="-4,4 -4,-236 463,-236 463,4 -4,4"/>
<!-- Node1 -->
<g id="node1" class="node">
<title>Node1</title>
<g id="a_node1"><a xlink:title=" ">
<polygon fill="#bfbfbf" stroke="black" points="8.5,-179.5 8.5,-231.5 142.5,-231.5 142.5,-179.5 8.5,-179.5"/>
<text text-anchor="start" x="16.5" y="-219.5" font-family="Helvetica" font-size="10.00">/home/ec2&#45;user/workspace</text>
<text text-anchor="start" x="16.5" y="-208.5" font-family="Helvetica" font-size="10.00">/vsomeip/implementation</text>
<text text-anchor="start" x="16.5" y="-197.5" font-family="Helvetica" font-size="10.00">/compat/runtime/include</text>
<text text-anchor="middle" x="75.5" y="-186.5" font-family="Helvetica" font-size="10.00">/runtime_impl.hpp</text>
</a>
</g>
</g>
<!-- Node2 -->
<g id="node2" class="node">
<title>Node2</title>
<g id="a_node2"><a xlink:title=" ">
<polygon fill="white" stroke="#bfbfbf" points="0,-123.5 0,-142.5 35,-142.5 35,-123.5 0,-123.5"/>
<text text-anchor="middle" x="17.5" y="-130.5" font-family="Helvetica" font-size="10.00">map</text>
</a>
</g>
</g>
<!-- Node1&#45;&gt;Node2 -->
<g id="edge1" class="edge">
<title>Node1&#45;&gt;Node2</title>
<path fill="none" stroke="midnightblue" d="M54.89,-179.45C46.98,-169.83 38.15,-159.1 31.06,-150.49"/>
<polygon fill="midnightblue" stroke="midnightblue" points="33.71,-148.19 24.65,-142.7 28.3,-152.64 33.71,-148.19"/>
</g>
<!-- Node3 -->
<g id="node3" class="node">
<title>Node3</title>
<g id="a_node3"><a xlink:title=" ">
<polygon fill="white" stroke="#bfbfbf" points="53.5,-123.5 53.5,-142.5 97.5,-142.5 97.5,-123.5 53.5,-123.5"/>
<text text-anchor="middle" x="75.5" y="-130.5" font-family="Helvetica" font-size="10.00">mutex</text>
</a>
</g>
</g>
<!-- Node1&#45;&gt;Node3 -->
<g id="edge2" class="edge">
<title>Node1&#45;&gt;Node3</title>
<path fill="none" stroke="midnightblue" d="M75.5,-179.45C75.5,-170.73 75.5,-161.1 75.5,-152.96"/>
<polygon fill="midnightblue" stroke="midnightblue" points="79,-152.7 75.5,-142.7 72,-152.7 79,-152.7"/>
</g>
<!-- Node4 -->
<g id="node4" class="node">
<title>Node4</title>
<g id="a_node4"><a xlink:href="interface_2compat_2vsomeip_2runtime_8hpp.html" target="_top" xlink:title=" ">
<polygon fill="white" stroke="black" points="116,-123.5 116,-142.5 259,-142.5 259,-123.5 116,-123.5"/>
<text text-anchor="middle" x="187.5" y="-130.5" font-family="Helvetica" font-size="10.00">compat/vsomeip/runtime.hpp</text>
</a>
</g>
</g>
<!-- Node1&#45;&gt;Node4 -->
<g id="edge3" class="edge">
<title>Node1&#45;&gt;Node4</title>
<path fill="none" stroke="midnightblue" d="M115.3,-179.45C132.12,-168.86 151.06,-156.94 165.33,-147.96"/>
<polygon fill="midnightblue" stroke="midnightblue" points="167.36,-150.82 173.95,-142.53 163.63,-144.89 167.36,-150.82"/>
</g>
<!-- Node5 -->
<g id="node5" class="node">
<title>Node5</title>
<g id="a_node5"><a xlink:title=" ">
<polygon fill="white" stroke="#bfbfbf" points="36,-62 36,-81 89,-81 89,-62 36,-62"/>
<text text-anchor="middle" x="62.5" y="-69" font-family="Helvetica" font-size="10.00">memory</text>
</a>
</g>
</g>
<!-- Node4&#45;&gt;Node5 -->
<g id="edge4" class="edge">
<title>Node4&#45;&gt;Node5</title>
<path fill="none" stroke="midnightblue" d="M169.59,-123.48C148.61,-113.49 113.65,-96.85 89.41,-85.31"/>
<polygon fill="midnightblue" stroke="midnightblue" points="90.91,-82.15 80.38,-81.01 87.9,-88.47 90.91,-82.15"/>
</g>
<!-- Node6 -->
<g id="node6" class="node">
<title>Node6</title>
<g id="a_node6"><a xlink:title=" ">
<polygon fill="white" stroke="#bfbfbf" points="107,-62 107,-81 148,-81 148,-62 107,-62"/>
<text text-anchor="middle" x="127.5" y="-69" font-family="Helvetica" font-size="10.00">string</text>
</a>
</g>
</g>
<!-- Node4&#45;&gt;Node6 -->
<g id="edge5" class="edge">
<title>Node4&#45;&gt;Node6</title>
<path fill="none" stroke="midnightblue" d="M178.9,-123.48C169.64,-114.28 154.68,-99.46 143.29,-88.16"/>
<polygon fill="midnightblue" stroke="midnightblue" points="145.65,-85.57 136.08,-81.01 140.72,-90.54 145.65,-85.57"/>
</g>
<!-- Node7 -->
<g id="node7" class="node">
<title>Node7</title>
<g id="a_node7"><a xlink:title=" ">
<polygon fill="white" stroke="#bfbfbf" points="166,-62 166,-81 209,-81 209,-62 166,-62"/>
<text text-anchor="middle" x="187.5" y="-69" font-family="Helvetica" font-size="10.00">vector</text>
</a>
</g>
</g>
<!-- Node4&#45;&gt;Node7 -->
<g id="edge6" class="edge">
<title>Node4&#45;&gt;Node7</title>
<path fill="none" stroke="midnightblue" d="M187.5,-123.48C187.5,-115.08 187.5,-101.98 187.5,-91.16"/>
<polygon fill="midnightblue" stroke="midnightblue" points="191,-91.01 187.5,-81.01 184,-91.01 191,-91.01"/>
</g>
<!-- Node8 -->
<g id="node8" class="node">
<title>Node8</title>
<g id="a_node8"><a xlink:href="compat_2vsomeip_2export_8hpp.html" target="_top" xlink:title=" ">
<polygon fill="white" stroke="black" points="227,-56.5 227,-86.5 334,-86.5 334,-56.5 227,-56.5"/>
<text text-anchor="start" x="235" y="-74.5" font-family="Helvetica" font-size="10.00">../../compat/vsomeip</text>
<text text-anchor="middle" x="280.5" y="-63.5" font-family="Helvetica" font-size="10.00">/export.hpp</text>
</a>
</g>
</g>
<!-- Node4&#45;&gt;Node8 -->
<g id="edge7" class="edge">
<title>Node4&#45;&gt;Node8</title>
<path fill="none" stroke="midnightblue" d="M200.82,-123.48C213.54,-115.34 233.15,-102.79 249.74,-92.18"/>
<polygon fill="midnightblue" stroke="midnightblue" points="252.04,-94.86 258.58,-86.52 248.27,-88.96 252.04,-94.86"/>
</g>
<!-- Node9 -->
<g id="node9" class="node">
<title>Node9</title>
<g id="a_node9"><a xlink:href="interface_2compat_2vsomeip_2primitive__types_8hpp.html" target="_top" xlink:title=" ">
<polygon fill="white" stroke="black" points="352,-56.5 352,-86.5 459,-86.5 459,-56.5 352,-56.5"/>
<text text-anchor="start" x="360" y="-74.5" font-family="Helvetica" font-size="10.00">../../compat/vsomeip</text>
<text text-anchor="middle" x="405.5" y="-63.5" font-family="Helvetica" font-size="10.00">/primitive_types.hpp</text>
</a>
</g>
</g>
<!-- Node4&#45;&gt;Node9 -->
<g id="edge8" class="edge">
<title>Node4&#45;&gt;Node9</title>
<path fill="none" stroke="midnightblue" d="M218.73,-123.48C251.36,-114.57 303.39,-100.37 344.26,-89.22"/>
<polygon fill="midnightblue" stroke="midnightblue" points="345.4,-92.53 354.12,-86.52 343.55,-85.78 345.4,-92.53"/>
</g>
<!-- Node10 -->
<g id="node10" class="node">
<title>Node10</title>
<g id="a_node10"><a xlink:title=" ">
<polygon fill="white" stroke="#bfbfbf" points="356.5,-0.5 356.5,-19.5 394.5,-19.5 394.5,-0.5 356.5,-0.5"/>
<text text-anchor="middle" x="375.5" y="-7.5" font-family="Helvetica" font-size="10.00">array</text>
</a>
</g>
</g>
<!-- Node9&#45;&gt;Node10 -->
<g id="edge9" class="edge">
<title>Node9&#45;&gt;Node10</title>
<path fill="none" stroke="midnightblue" d="M398.39,-56.4C394.21,-48.11 388.89,-37.55 384.43,-28.71"/>
<polygon fill="midnightblue" stroke="midnightblue" points="387.49,-27.01 379.87,-19.66 381.24,-30.16 387.49,-27.01"/>
</g>
<!-- Node11 -->
<g id="node11" class="node">
<title>Node11</title>
<g id="a_node11"><a xlink:title=" ">
<polygon fill="white" stroke="#bfbfbf" points="412.5,-0.5 412.5,-19.5 458.5,-19.5 458.5,-0.5 412.5,-0.5"/>
<text text-anchor="middle" x="435.5" y="-7.5" font-family="Helvetica" font-size="10.00">cstdint</text>
</a>
</g>
</g>
<!-- Node9&#45;&gt;Node11 -->
<g id="edge10" class="edge">
<title>Node9&#45;&gt;Node11</title>
<path fill="none" stroke="midnightblue" d="M412.61,-56.4C416.79,-48.11 422.11,-37.55 426.57,-28.71"/>
<polygon fill="midnightblue" stroke="midnightblue" points="429.76,-30.16 431.13,-19.66 423.51,-27.01 429.76,-30.16"/>
</g>
</g>
</svg>
