<?xml version="1.0" encoding="UTF-8" standalone="no"?>
<!DOCTYPE svg PUBLIC "-//W3C//DTD SVG 1.1//EN"
 "http://www.w3.org/Graphics/SVG/1.1/DTD/svg11.dtd">
<!-- Generated by graphviz version 2.44.0 (0)
 -->
<!-- Title: /home/ec2&#45;user/workspace/vsomeip/implementation/compat/runtime/include/application_impl.hpp Pages: 1 -->
<svg width="718pt" height="307pt"
 viewBox="0.00 0.00 718.00 307.00" xmlns="http://www.w3.org/2000/svg" xmlns:xlink="http://www.w3.org/1999/xlink">
<g id="graph0" class="graph" transform="scale(1 1) rotate(0) translate(4 303)">
<title>/home/ec2&#45;user/workspace/vsomeip/implementation/compat/runtime/include/application_impl.hpp</title>
<polygon fill="white" stroke="transparent" points="-4,4 -4,-303 714,-303 714,4 -4,4"/>
<!-- Node1 -->
<g id="node1" class="node">
<title>Node1</title>
<g id="a_node1"><a xlink:title=" ">
<polygon fill="#bfbfbf" stroke="black" points="285.5,-246.5 285.5,-298.5 419.5,-298.5 419.5,-246.5 285.5,-246.5"/>
<text text-anchor="start" x="293.5" y="-286.5" font-family="Helvetica" font-size="10.00">/home/ec2&#45;user/workspace</text>
<text text-anchor="start" x="293.5" y="-275.5" font-family="Helvetica" font-size="10.00">/vsomeip/implementation</text>
<text text-anchor="start" x="293.5" y="-264.5" font-family="Helvetica" font-size="10.00">/compat/runtime/include</text>
<text text-anchor="middle" x="352.5" y="-253.5" font-family="Helvetica" font-size="10.00">/application_impl.hpp</text>
</a>
</g>
</g>
<!-- Node2 -->
<g id="node2" class="node">
<title>Node2</title>
<g id="a_node2"><a xlink:title=" ">
<polygon fill="white" stroke="#bfbfbf" points="0,-129 0,-148 35,-148 35,-129 0,-129"/>
<text text-anchor="middle" x="17.5" y="-136" font-family="Helvetica" font-size="10.00">map</text>
</a>
</g>
</g>
<!-- Node1&#45;&gt;Node2 -->
<g id="edge1" class="edge">
<title>Node1&#45;&gt;Node2</title>
<path fill="none" stroke="midnightblue" d="M288.7,-246.36C215.04,-217.34 97.28,-170.94 44.56,-150.16"/>
<polygon fill="midnightblue" stroke="midnightblue" points="45.79,-146.89 35.2,-146.48 43.22,-153.4 45.79,-146.89"/>
</g>
<!-- Node3 -->
<g id="node3" class="node">
<title>Node3</title>
<g id="a_node3"><a xlink:title=" ">
<polygon fill="white" stroke="#bfbfbf" points="449.5,-190.5 449.5,-209.5 493.5,-209.5 493.5,-190.5 449.5,-190.5"/>
<text text-anchor="middle" x="471.5" y="-197.5" font-family="Helvetica" font-size="10.00">mutex</text>
</a>
</g>
</g>
<!-- Node1&#45;&gt;Node3 -->
<g id="edge2" class="edge">
<title>Node1&#45;&gt;Node3</title>
<path fill="none" stroke="midnightblue" d="M394.79,-246.45C412.83,-235.76 433.17,-223.71 448.37,-214.7"/>
<polygon fill="midnightblue" stroke="midnightblue" points="450.29,-217.64 457.11,-209.53 446.72,-211.61 450.29,-217.64"/>
</g>
<!-- Node4 -->
<g id="node4" class="node">
<title>Node4</title>
<g id="a_node4"><a xlink:href="compat_2vsomeip_2application_8hpp.html" target="_top" xlink:title=" ">
<polygon fill="white" stroke="black" points="274,-190.5 274,-209.5 431,-209.5 431,-190.5 274,-190.5"/>
<text text-anchor="middle" x="352.5" y="-197.5" font-family="Helvetica" font-size="10.00">compat/vsomeip/application.hpp</text>
</a>
</g>
</g>
<!-- Node1&#45;&gt;Node4 -->
<g id="edge3" class="edge">
<title>Node1&#45;&gt;Node4</title>
<path fill="none" stroke="midnightblue" d="M352.5,-246.45C352.5,-237.73 352.5,-228.1 352.5,-219.96"/>
<polygon fill="midnightblue" stroke="midnightblue" points="356,-219.7 352.5,-209.7 349,-219.7 356,-219.7"/>
</g>
<!-- Node4&#45;&gt;Node2 -->
<g id="edge7" class="edge">
<title>Node4&#45;&gt;Node2</title>
<path fill="none" stroke="midnightblue" d="M273.68,-193.34C211.76,-187.45 123.85,-175.9 49.5,-154 47.57,-153.43 45.6,-152.77 43.65,-152.04"/>
<polygon fill="midnightblue" stroke="midnightblue" points="44.68,-148.68 34.1,-148.08 41.99,-155.15 44.68,-148.68"/>
</g>
<!-- Node5 -->
<g id="node5" class="node">
<title>Node5</title>
<g id="a_node5"><a xlink:title=" ">
<polygon fill="white" stroke="#bfbfbf" points="490.5,-129 490.5,-148 536.5,-148 536.5,-129 490.5,-129"/>
<text text-anchor="middle" x="513.5" y="-136" font-family="Helvetica" font-size="10.00">chrono</text>
</a>
</g>
</g>
<!-- Node4&#45;&gt;Node5 -->
<g id="edge4" class="edge">
<title>Node4&#45;&gt;Node5</title>
<path fill="none" stroke="midnightblue" d="M379.44,-190.38C405.72,-181.8 446.7,-167.92 481.5,-154 482.92,-153.43 484.36,-152.84 485.81,-152.23"/>
<polygon fill="midnightblue" stroke="midnightblue" points="487.58,-155.28 495.35,-148.07 484.78,-148.86 487.58,-155.28"/>
</g>
<!-- Node6 -->
<g id="node6" class="node">
<title>Node6</title>
<g id="a_node6"><a xlink:title=" ">
<polygon fill="white" stroke="#bfbfbf" points="119,-62 119,-81 172,-81 172,-62 119,-62"/>
<text text-anchor="middle" x="145.5" y="-69" font-family="Helvetica" font-size="10.00">memory</text>
</a>
</g>
</g>
<!-- Node4&#45;&gt;Node6 -->
<g id="edge5" class="edge">
<title>Node4&#45;&gt;Node6</title>
<path fill="none" stroke="midnightblue" d="M273.75,-196.8C203.01,-192.97 106.65,-182.51 82.5,-154 63.04,-131.03 96.41,-103.03 121.55,-86.55"/>
<polygon fill="midnightblue" stroke="midnightblue" points="123.72,-89.31 130.32,-81.03 120,-83.39 123.72,-89.31"/>
</g>
<!-- Node7 -->
<g id="node7" class="node">
<title>Node7</title>
<g id="a_node7"><a xlink:title=" ">
<polygon fill="white" stroke="#bfbfbf" points="380.5,-129 380.5,-148 410.5,-148 410.5,-129 380.5,-129"/>
<text text-anchor="middle" x="395.5" y="-136" font-family="Helvetica" font-size="10.00">set</text>
</a>
</g>
</g>
<!-- Node4&#45;&gt;Node7 -->
<g id="edge6" class="edge">
<title>Node4&#45;&gt;Node7</title>
<path fill="none" stroke="midnightblue" d="M358.66,-190.48C365.11,-181.55 375.4,-167.31 383.47,-156.14"/>
<polygon fill="midnightblue" stroke="midnightblue" points="386.33,-158.16 389.35,-148.01 380.66,-154.06 386.33,-158.16"/>
</g>
<!-- Node8 -->
<g id="node8" class="node">
<title>Node8</title>
<g id="a_node8"><a xlink:title=" ">
<polygon fill="white" stroke="#bfbfbf" points="429,-129 429,-148 472,-148 472,-129 429,-129"/>
<text text-anchor="middle" x="450.5" y="-136" font-family="Helvetica" font-size="10.00">vector</text>
</a>
</g>
</g>
<!-- Node4&#45;&gt;Node8 -->
<g id="edge8" class="edge">
<title>Node4&#45;&gt;Node8</title>
<path fill="none" stroke="midnightblue" d="M366.54,-190.48C382.55,-180.75 408.95,-164.73 427.87,-153.24"/>
<polygon fill="midnightblue" stroke="midnightblue" points="429.75,-156.19 436.49,-148.01 426.12,-150.21 429.75,-156.19"/>
</g>
<!-- Node9 -->
<g id="node9" class="node">
<title>Node9</title>
<g id="a_node9"><a xlink:href="interface_2compat_2vsomeip_2constants_8hpp.html" target="_top" xlink:title=" ">
<polygon fill="white" stroke="black" points="555,-123.5 555,-153.5 662,-153.5 662,-123.5 555,-123.5"/>
<text text-anchor="start" x="563" y="-141.5" font-family="Helvetica" font-size="10.00">../../compat/vsomeip</text>
<text text-anchor="middle" x="608.5" y="-130.5" font-family="Helvetica" font-size="10.00">/constants.hpp</text>
</a>
</g>
</g>
<!-- Node4&#45;&gt;Node9 -->
<g id="edge9" class="edge">
<title>Node4&#45;&gt;Node9</title>
<path fill="none" stroke="midnightblue" d="M389.18,-190.48C429.79,-181.04 496,-165.65 545.06,-154.24"/>
<polygon fill="midnightblue" stroke="midnightblue" points="546,-157.62 554.95,-151.95 544.41,-150.8 546,-157.62"/>
</g>
<!-- Node11 -->
<g id="node11" class="node">
<title>Node11</title>
<g id="a_node11"><a xlink:href="interface_2compat_2vsomeip_2enumeration__types_8hpp.html" target="_top" xlink:title=" ">
<polygon fill="white" stroke="black" points="589,-56.5 589,-86.5 710,-86.5 710,-56.5 589,-56.5"/>
<text text-anchor="start" x="597" y="-74.5" font-family="Helvetica" font-size="10.00">../../compat/vsomeip</text>
<text text-anchor="middle" x="649.5" y="-63.5" font-family="Helvetica" font-size="10.00">/enumeration_types.hpp</text>
</a>
</g>
</g>
<!-- Node4&#45;&gt;Node11 -->
<g id="edge16" class="edge">
<title>Node4&#45;&gt;Node11</title>
<path fill="none" stroke="midnightblue" d="M431.25,-190.49C523.14,-180.17 663.64,-163.05 671.5,-154 685.66,-137.7 676.24,-113.17 665.68,-95.28"/>
<polygon fill="midnightblue" stroke="midnightblue" points="668.5,-93.18 660.18,-86.61 662.59,-96.93 668.5,-93.18"/>
</g>
<!-- Node13 -->
<g id="node13" class="node">
<title>Node13</title>
<g id="a_node13"><a xlink:href="interface_2compat_2vsomeip_2primitive__types_8hpp.html" target="_top" xlink:title=" ">
<polygon fill="white" stroke="black" points="316,-56.5 316,-86.5 423,-86.5 423,-56.5 316,-56.5"/>
<text text-anchor="start" x="324" y="-74.5" font-family="Helvetica" font-size="10.00">../../compat/vsomeip</text>
<text text-anchor="middle" x="369.5" y="-63.5" font-family="Helvetica" font-size="10.00">/primitive_types.hpp</text>
</a>
</g>
</g>
<!-- Node4&#45;&gt;Node13 -->
<g id="edge24" class="edge">
<title>Node4&#45;&gt;Node13</title>
<path fill="none" stroke="midnightblue" d="M353.67,-190.31C356.22,-171.3 362.38,-125.47 366.22,-96.9"/>
<polygon fill="midnightblue" stroke="midnightblue" points="369.7,-97.27 367.57,-86.89 362.77,-96.33 369.7,-97.27"/>
</g>
<!-- Node15 -->
<g id="node15" class="node">
<title>Node15</title>
<g id="a_node15"><a xlink:href="interface_2compat_2vsomeip_2function__types_8hpp.html" target="_top" xlink:title=" ">
<polygon fill="white" stroke="black" points="92,-123.5 92,-153.5 199,-153.5 199,-123.5 92,-123.5"/>
<text text-anchor="start" x="100" y="-141.5" font-family="Helvetica" font-size="10.00">../../compat/vsomeip</text>
<text text-anchor="middle" x="145.5" y="-130.5" font-family="Helvetica" font-size="10.00">/function_types.hpp</text>
</a>
</g>
</g>
<!-- Node4&#45;&gt;Node15 -->
<g id="edge17" class="edge">
<title>Node4&#45;&gt;Node15</title>
<path fill="none" stroke="midnightblue" d="M322.84,-190.48C291.92,-181.59 242.66,-167.43 203.9,-156.29"/>
<polygon fill="midnightblue" stroke="midnightblue" points="204.86,-152.92 194.29,-153.52 202.93,-159.65 204.86,-152.92"/>
</g>
<!-- Node17 -->
<g id="node17" class="node">
<title>Node17</title>
<g id="a_node17"><a xlink:href="compat_2vsomeip_2handler_8hpp.html" target="_top" xlink:title=" ">
<polygon fill="white" stroke="black" points="217,-123.5 217,-153.5 324,-153.5 324,-123.5 217,-123.5"/>
<text text-anchor="start" x="225" y="-141.5" font-family="Helvetica" font-size="10.00">../../compat/vsomeip</text>
<text text-anchor="middle" x="270.5" y="-130.5" font-family="Helvetica" font-size="10.00">/handler.hpp</text>
</a>
</g>
</g>
<!-- Node4&#45;&gt;Node17 -->
<g id="edge20" class="edge">
<title>Node4&#45;&gt;Node17</title>
<path fill="none" stroke="midnightblue" d="M340.75,-190.48C329.65,-182.42 312.57,-170.02 298.03,-159.47"/>
<polygon fill="midnightblue" stroke="midnightblue" points="299.98,-156.56 289.83,-153.52 295.86,-162.23 299.98,-156.56"/>
</g>
<!-- Node10 -->
<g id="node10" class="node">
<title>Node10</title>
<g id="a_node10"><a xlink:title=" ">
<polygon fill="white" stroke="#bfbfbf" points="530,-62 530,-81 571,-81 571,-62 530,-62"/>
<text text-anchor="middle" x="550.5" y="-69" font-family="Helvetica" font-size="10.00">string</text>
</a>
</g>
</g>
<!-- Node9&#45;&gt;Node10 -->
<g id="edge10" class="edge">
<title>Node9&#45;&gt;Node10</title>
<path fill="none" stroke="midnightblue" d="M595.91,-123.4C586.87,-113.26 574.65,-99.57 565.17,-88.94"/>
<polygon fill="midnightblue" stroke="midnightblue" points="567.53,-86.33 558.26,-81.19 562.3,-90.99 567.53,-86.33"/>
</g>
<!-- Node9&#45;&gt;Node11 -->
<g id="edge11" class="edge">
<title>Node9&#45;&gt;Node11</title>
<path fill="none" stroke="midnightblue" d="M617.4,-123.4C622.61,-115.13 629.31,-104.51 635.24,-95.1"/>
<polygon fill="midnightblue" stroke="midnightblue" points="638.25,-96.9 640.62,-86.58 632.33,-93.17 638.25,-96.9"/>
</g>
<!-- Node9&#45;&gt;Node13 -->
<g id="edge13" class="edge">
<title>Node9&#45;&gt;Node13</title>
<path fill="none" stroke="midnightblue" d="M556.93,-123.48C520,-113.43 470.09,-99.86 431.06,-89.24"/>
<polygon fill="midnightblue" stroke="midnightblue" points="431.95,-85.86 421.38,-86.61 430.12,-92.61 431.95,-85.86"/>
</g>
<!-- Node12 -->
<g id="node12" class="node">
<title>Node12</title>
<g id="a_node12"><a xlink:title=" ">
<polygon fill="white" stroke="#bfbfbf" points="504.5,-0.5 504.5,-19.5 550.5,-19.5 550.5,-0.5 504.5,-0.5"/>
<text text-anchor="middle" x="527.5" y="-7.5" font-family="Helvetica" font-size="10.00">cstdint</text>
</a>
</g>
</g>
<!-- Node11&#45;&gt;Node12 -->
<g id="edge12" class="edge">
<title>Node11&#45;&gt;Node12</title>
<path fill="none" stroke="midnightblue" d="M620.59,-56.4C600.48,-46.59 573.88,-33.62 554.26,-24.05"/>
<polygon fill="midnightblue" stroke="midnightblue" points="555.77,-20.9 545.25,-19.66 552.71,-27.19 555.77,-20.9"/>
</g>
<!-- Node13&#45;&gt;Node12 -->
<g id="edge15" class="edge">
<title>Node13&#45;&gt;Node12</title>
<path fill="none" stroke="midnightblue" d="M406.94,-56.4C433.69,-46.33 469.32,-32.91 494.9,-23.28"/>
<polygon fill="midnightblue" stroke="midnightblue" points="496.38,-26.46 504.51,-19.66 493.92,-19.91 496.38,-26.46"/>
</g>
<!-- Node14 -->
<g id="node14" class="node">
<title>Node14</title>
<g id="a_node14"><a xlink:title=" ">
<polygon fill="white" stroke="#bfbfbf" points="350.5,-0.5 350.5,-19.5 388.5,-19.5 388.5,-0.5 350.5,-0.5"/>
<text text-anchor="middle" x="369.5" y="-7.5" font-family="Helvetica" font-size="10.00">array</text>
</a>
</g>
</g>
<!-- Node13&#45;&gt;Node14 -->
<g id="edge14" class="edge">
<title>Node13&#45;&gt;Node14</title>
<path fill="none" stroke="midnightblue" d="M369.5,-56.4C369.5,-48.47 369.5,-38.46 369.5,-29.86"/>
<polygon fill="midnightblue" stroke="midnightblue" points="373,-29.66 369.5,-19.66 366,-29.66 373,-29.66"/>
</g>
<!-- Node15&#45;&gt;Node6 -->
<g id="edge19" class="edge">
<title>Node15&#45;&gt;Node6</title>
<path fill="none" stroke="midnightblue" d="M145.5,-123.4C145.5,-114.06 145.5,-101.71 145.5,-91.52"/>
<polygon fill="midnightblue" stroke="midnightblue" points="149,-91.19 145.5,-81.19 142,-91.19 149,-91.19"/>
</g>
<!-- Node16 -->
<g id="node16" class="node">
<title>Node16</title>
<g id="a_node16"><a xlink:title=" ">
<polygon fill="white" stroke="#bfbfbf" points="223,-62 223,-81 282,-81 282,-62 223,-62"/>
<text text-anchor="middle" x="252.5" y="-69" font-family="Helvetica" font-size="10.00">functional</text>
</a>
</g>
</g>
<!-- Node15&#45;&gt;Node16 -->
<g id="edge18" class="edge">
<title>Node15&#45;&gt;Node16</title>
<path fill="none" stroke="midnightblue" d="M168.72,-123.4C186.83,-112.39 211.84,-97.2 229.81,-86.28"/>
<polygon fill="midnightblue" stroke="midnightblue" points="231.77,-89.19 238.5,-81.01 228.13,-83.21 231.77,-89.19"/>
</g>
<!-- Node17&#45;&gt;Node6 -->
<g id="edge22" class="edge">
<title>Node17&#45;&gt;Node6</title>
<path fill="none" stroke="midnightblue" d="M243.38,-123.4C221.83,-112.19 191.93,-96.64 170.86,-85.69"/>
<polygon fill="midnightblue" stroke="midnightblue" points="172.35,-82.52 161.86,-81.01 169.12,-88.73 172.35,-82.52"/>
</g>
<!-- Node17&#45;&gt;Node13 -->
<g id="edge23" class="edge">
<title>Node17&#45;&gt;Node13</title>
<path fill="none" stroke="midnightblue" d="M291.98,-123.4C305.86,-114.28 324.13,-102.29 339.44,-92.24"/>
<polygon fill="midnightblue" stroke="midnightblue" points="341.62,-94.99 348.06,-86.58 337.78,-89.14 341.62,-94.99"/>
</g>
<!-- Node17&#45;&gt;Node16 -->
<g id="edge21" class="edge">
<title>Node17&#45;&gt;Node16</title>
<path fill="none" stroke="midnightblue" d="M266.59,-123.4C263.95,-113.86 260.44,-101.18 257.58,-90.86"/>
<polygon fill="midnightblue" stroke="midnightblue" points="260.95,-89.9 254.91,-81.19 254.2,-91.77 260.95,-89.9"/>
</g>
</g>
</svg>
