<?xml version="1.0" encoding="UTF-8" standalone="no"?>
<!DOCTYPE svg PUBLIC "-//W3C//DTD SVG 1.1//EN"
 "http://www.w3.org/Graphics/SVG/1.1/DTD/svg11.dtd">
<!-- Generated by graphviz version 2.44.0 (0)
 -->
<!-- Title: /home/ec2&#45;user/workspace/vsomeip/interface/compat/vsomeip/internal/serializable.hpp Pages: 1 -->
<svg width="657pt" height="473pt"
 viewBox="0.00 0.00 657.00 473.00" xmlns="http://www.w3.org/2000/svg" xmlns:xlink="http://www.w3.org/1999/xlink">
<g id="graph0" class="graph" transform="scale(1 1) rotate(0) translate(4 469)">
<title>/home/ec2&#45;user/workspace/vsomeip/interface/compat/vsomeip/internal/serializable.hpp</title>
<polygon fill="white" stroke="transparent" points="-4,4 -4,-469 653,-469 653,4 -4,4"/>
<!-- Node1 -->
<g id="node1" class="node">
<title>Node1</title>
<g id="a_node1"><a xlink:title=" ">
<polygon fill="#bfbfbf" stroke="black" points="166.5,-423.5 166.5,-464.5 327.5,-464.5 327.5,-423.5 166.5,-423.5"/>
<text text-anchor="start" x="174.5" y="-452.5" font-family="Helvetica" font-size="10.00">/home/ec2&#45;user/workspace</text>
<text text-anchor="start" x="174.5" y="-441.5" font-family="Helvetica" font-size="10.00">/vsomeip/interface/compat</text>
<text text-anchor="middle" x="247" y="-430.5" font-family="Helvetica" font-size="10.00">/vsomeip/internal/serializable.hpp</text>
</a>
</g>
</g>
<!-- Node2 -->
<g id="node2" class="node">
<title>Node2</title>
<g id="a_node2"><a xlink:href="compat_2vsomeip_2message__base_8hpp.html" target="_top" xlink:title=" ">
<polygon fill="white" stroke="black" points="125,-345.5 125,-386.5 269,-386.5 269,-345.5 125,-345.5"/>
<text text-anchor="start" x="133" y="-374.5" font-family="Helvetica" font-size="10.00">/home/ec2&#45;user/workspace</text>
<text text-anchor="start" x="133" y="-363.5" font-family="Helvetica" font-size="10.00">/vsomeip/interface/compat</text>
<text text-anchor="middle" x="197" y="-352.5" font-family="Helvetica" font-size="10.00">/vsomeip/message_base.hpp</text>
</a>
</g>
</g>
<!-- Node1&#45;&gt;Node2 -->
<g id="edge1" class="edge">
<title>Node1&#45;&gt;Node2</title>
<path fill="none" stroke="midnightblue" d="M228.61,-415.05C222.37,-405.57 215.54,-395.18 209.83,-386.51"/>
<polygon fill="midnightblue" stroke="midnightblue" points="225.7,-417 234.12,-423.43 231.55,-413.15 225.7,-417"/>
</g>
<!-- Node11 -->
<g id="node11" class="node">
<title>Node11</title>
<g id="a_node11"><a xlink:href="compat_2vsomeip_2payload_8hpp.html" target="_top" xlink:title=" ">
<polygon fill="white" stroke="black" points="256,-267.5 256,-308.5 390,-308.5 390,-267.5 256,-267.5"/>
<text text-anchor="start" x="264" y="-296.5" font-family="Helvetica" font-size="10.00">/home/ec2&#45;user/workspace</text>
<text text-anchor="start" x="264" y="-285.5" font-family="Helvetica" font-size="10.00">/vsomeip/interface/compat</text>
<text text-anchor="middle" x="323" y="-274.5" font-family="Helvetica" font-size="10.00">/vsomeip/payload.hpp</text>
</a>
</g>
</g>
<!-- Node1&#45;&gt;Node11 -->
<g id="edge11" class="edge">
<title>Node1&#45;&gt;Node11</title>
<path fill="none" stroke="midnightblue" d="M263.18,-414.74C268.08,-405.93 273.39,-396.13 278,-387 291.51,-360.27 305.71,-328.67 314.46,-308.73"/>
<polygon fill="midnightblue" stroke="midnightblue" points="260.11,-413.06 258.27,-423.5 266.22,-416.49 260.11,-413.06"/>
</g>
<!-- Node3 -->
<g id="node3" class="node">
<title>Node3</title>
<g id="a_node3"><a xlink:href="compat_2vsomeip_2message_8hpp.html" target="_top" xlink:title=" ">
<polygon fill="white" stroke="black" points="104,-267.5 104,-308.5 238,-308.5 238,-267.5 104,-267.5"/>
<text text-anchor="start" x="112" y="-296.5" font-family="Helvetica" font-size="10.00">/home/ec2&#45;user/workspace</text>
<text text-anchor="start" x="112" y="-285.5" font-family="Helvetica" font-size="10.00">/vsomeip/interface/compat</text>
<text text-anchor="middle" x="171" y="-274.5" font-family="Helvetica" font-size="10.00">/vsomeip/message.hpp</text>
</a>
</g>
</g>
<!-- Node2&#45;&gt;Node3 -->
<g id="edge2" class="edge">
<title>Node2&#45;&gt;Node3</title>
<path fill="none" stroke="midnightblue" d="M187.04,-335.88C183.9,-326.72 180.52,-316.83 177.67,-308.51"/>
<polygon fill="midnightblue" stroke="midnightblue" points="183.76,-337.1 190.3,-345.43 190.38,-334.83 183.76,-337.1"/>
</g>
<!-- Node4 -->
<g id="node4" class="node">
<title>Node4</title>
<g id="a_node4"><a xlink:href="compat_2message_2include_2message__base__impl_8hpp.html" target="_top" xlink:title=" ">
<polygon fill="white" stroke="black" points="104,-178.5 104,-230.5 238,-230.5 238,-178.5 104,-178.5"/>
<text text-anchor="start" x="112" y="-218.5" font-family="Helvetica" font-size="10.00">/home/ec2&#45;user/workspace</text>
<text text-anchor="start" x="112" y="-207.5" font-family="Helvetica" font-size="10.00">/vsomeip/implementation</text>
<text text-anchor="start" x="112" y="-196.5" font-family="Helvetica" font-size="10.00">/compat/message/include</text>
<text text-anchor="middle" x="171" y="-185.5" font-family="Helvetica" font-size="10.00">/message_base_impl.hpp</text>
</a>
</g>
</g>
<!-- Node3&#45;&gt;Node4 -->
<g id="edge3" class="edge">
<title>Node3&#45;&gt;Node4</title>
<path fill="none" stroke="midnightblue" d="M171,-257.12C171,-248.41 171,-238.99 171,-230.61"/>
<polygon fill="midnightblue" stroke="midnightblue" points="167.5,-257.27 171,-267.27 174.5,-257.27 167.5,-257.27"/>
</g>
<!-- Node5 -->
<g id="node5" class="node">
<title>Node5</title>
<g id="a_node5"><a xlink:href="compat_2message_2include_2message__impl_8hpp.html" target="_top" xlink:title=" ">
<polygon fill="white" stroke="black" points="18,-89.5 18,-141.5 152,-141.5 152,-89.5 18,-89.5"/>
<text text-anchor="start" x="26" y="-129.5" font-family="Helvetica" font-size="10.00">/home/ec2&#45;user/workspace</text>
<text text-anchor="start" x="26" y="-118.5" font-family="Helvetica" font-size="10.00">/vsomeip/implementation</text>
<text text-anchor="start" x="26" y="-107.5" font-family="Helvetica" font-size="10.00">/compat/message/include</text>
<text text-anchor="middle" x="85" y="-96.5" font-family="Helvetica" font-size="10.00">/message_impl.hpp</text>
</a>
</g>
</g>
<!-- Node3&#45;&gt;Node5 -->
<g id="edge9" class="edge">
<title>Node3&#45;&gt;Node5</title>
<path fill="none" stroke="midnightblue" d="M123.82,-261.77C112.56,-253.47 101.84,-243.19 95,-231 79.57,-203.51 79.38,-166.34 81.49,-141.9"/>
<polygon fill="midnightblue" stroke="midnightblue" points="121.84,-264.66 132.06,-267.46 125.81,-258.9 121.84,-264.66"/>
</g>
<!-- Node10 -->
<g id="node10" class="node">
<title>Node10</title>
<g id="a_node10"><a xlink:href="compat_2vsomeip_2vsomeip_8hpp.html" target="_top" xlink:title=" ">
<polygon fill="white" stroke="black" points="256,-184 256,-225 390,-225 390,-184 256,-184"/>
<text text-anchor="start" x="264" y="-213" font-family="Helvetica" font-size="10.00">/home/ec2&#45;user/workspace</text>
<text text-anchor="start" x="264" y="-202" font-family="Helvetica" font-size="10.00">/vsomeip/interface/compat</text>
<text text-anchor="middle" x="323" y="-191" font-family="Helvetica" font-size="10.00">/vsomeip/vsomeip.hpp</text>
</a>
</g>
</g>
<!-- Node3&#45;&gt;Node10 -->
<g id="edge10" class="edge">
<title>Node3&#45;&gt;Node10</title>
<path fill="none" stroke="midnightblue" d="M216.41,-262.65C238.85,-250.62 265.56,-236.3 286.63,-225"/>
<polygon fill="midnightblue" stroke="midnightblue" points="214.57,-259.67 207.41,-267.48 217.87,-265.84 214.57,-259.67"/>
</g>
<!-- Node4&#45;&gt;Node5 -->
<g id="edge4" class="edge">
<title>Node4&#45;&gt;Node5</title>
<path fill="none" stroke="midnightblue" d="M138.95,-171.08C129.32,-161.34 118.91,-150.8 109.82,-141.61"/>
<polygon fill="midnightblue" stroke="midnightblue" points="136.61,-173.68 146.13,-178.34 141.58,-168.76 136.61,-173.68"/>
</g>
<!-- Node9 -->
<g id="node9" class="node">
<title>Node9</title>
<g id="a_node9"><a xlink:href="compat_2message_2src_2message__base__impl_8cpp.html" target="_top" xlink:title=" ">
<polygon fill="white" stroke="black" points="170,-89.5 170,-141.5 324,-141.5 324,-89.5 170,-89.5"/>
<text text-anchor="start" x="178" y="-129.5" font-family="Helvetica" font-size="10.00">/home/ec2&#45;user/workspace</text>
<text text-anchor="start" x="178" y="-118.5" font-family="Helvetica" font-size="10.00">/vsomeip/implementation</text>
<text text-anchor="start" x="178" y="-107.5" font-family="Helvetica" font-size="10.00">/compat/message/src/message</text>
<text text-anchor="middle" x="247" y="-96.5" font-family="Helvetica" font-size="10.00">_base_impl.cpp</text>
</a>
</g>
</g>
<!-- Node4&#45;&gt;Node9 -->
<g id="edge8" class="edge">
<title>Node4&#45;&gt;Node9</title>
<path fill="none" stroke="midnightblue" d="M199.57,-170.79C208.01,-161.13 217.12,-150.71 225.07,-141.61"/>
<polygon fill="midnightblue" stroke="midnightblue" points="196.93,-168.5 192.98,-178.34 202.2,-173.11 196.93,-168.5"/>
</g>
<!-- Node6 -->
<g id="node6" class="node">
<title>Node6</title>
<g id="a_node6"><a xlink:href="compat_2message_2src_2message__impl_8cpp.html" target="_top" xlink:title=" ">
<polygon fill="white" stroke="black" points="0,-0.5 0,-52.5 154,-52.5 154,-0.5 0,-0.5"/>
<text text-anchor="start" x="8" y="-40.5" font-family="Helvetica" font-size="10.00">/home/ec2&#45;user/workspace</text>
<text text-anchor="start" x="8" y="-29.5" font-family="Helvetica" font-size="10.00">/vsomeip/implementation</text>
<text text-anchor="start" x="8" y="-18.5" font-family="Helvetica" font-size="10.00">/compat/message/src/message</text>
<text text-anchor="middle" x="77" y="-7.5" font-family="Helvetica" font-size="10.00">_impl.cpp</text>
</a>
</g>
</g>
<!-- Node5&#45;&gt;Node6 -->
<g id="edge5" class="edge">
<title>Node5&#45;&gt;Node6</title>
<path fill="none" stroke="midnightblue" d="M81.75,-79.19C80.93,-70.28 80.07,-60.9 79.31,-52.61"/>
<polygon fill="midnightblue" stroke="midnightblue" points="78.29,-79.7 82.69,-89.34 85.26,-79.06 78.29,-79.7"/>
</g>
<!-- Node7 -->
<g id="node7" class="node">
<title>Node7</title>
<g id="a_node7"><a xlink:href="compat_2runtime_2src_2application__impl_8cpp.html" target="_top" xlink:title=" ">
<polygon fill="white" stroke="black" points="172.5,-0.5 172.5,-52.5 325.5,-52.5 325.5,-0.5 172.5,-0.5"/>
<text text-anchor="start" x="180.5" y="-40.5" font-family="Helvetica" font-size="10.00">/home/ec2&#45;user/workspace</text>
<text text-anchor="start" x="180.5" y="-29.5" font-family="Helvetica" font-size="10.00">/vsomeip/implementation</text>
<text text-anchor="start" x="180.5" y="-18.5" font-family="Helvetica" font-size="10.00">/compat/runtime/src/application</text>
<text text-anchor="middle" x="249" y="-7.5" font-family="Helvetica" font-size="10.00">_impl.cpp</text>
</a>
</g>
</g>
<!-- Node5&#45;&gt;Node7 -->
<g id="edge6" class="edge">
<title>Node5&#45;&gt;Node7</title>
<path fill="none" stroke="midnightblue" d="M141.3,-84.64C160.96,-74.2 182.81,-62.61 201.67,-52.61"/>
<polygon fill="midnightblue" stroke="midnightblue" points="139.63,-81.56 132.44,-89.34 142.91,-87.74 139.63,-81.56"/>
</g>
<!-- Node8 -->
<g id="node8" class="node">
<title>Node8</title>
<g id="a_node8"><a xlink:href="compat_2runtime_2src_2runtime__impl_8cpp.html" target="_top" xlink:title=" ">
<polygon fill="white" stroke="black" points="343.5,-0.5 343.5,-52.5 482.5,-52.5 482.5,-0.5 343.5,-0.5"/>
<text text-anchor="start" x="351.5" y="-40.5" font-family="Helvetica" font-size="10.00">/home/ec2&#45;user/workspace</text>
<text text-anchor="start" x="351.5" y="-29.5" font-family="Helvetica" font-size="10.00">/vsomeip/implementation</text>
<text text-anchor="start" x="351.5" y="-18.5" font-family="Helvetica" font-size="10.00">/compat/runtime/src/runtime</text>
<text text-anchor="middle" x="413" y="-7.5" font-family="Helvetica" font-size="10.00">_impl.cpp</text>
</a>
</g>
</g>
<!-- Node5&#45;&gt;Node8 -->
<g id="edge7" class="edge">
<title>Node5&#45;&gt;Node8</title>
<path fill="none" stroke="midnightblue" d="M161.71,-88.95C239,-68.75 261.66,-72.51 335,-53 337.75,-52.27 340.55,-51.49 343.37,-50.69"/>
<polygon fill="midnightblue" stroke="midnightblue" points="160.77,-85.58 152,-91.53 162.57,-92.34 160.77,-85.58"/>
</g>
<!-- Node11&#45;&gt;Node10 -->
<g id="edge17" class="edge">
<title>Node11&#45;&gt;Node10</title>
<path fill="none" stroke="midnightblue" d="M323,-257.06C323,-246.38 323,-234.63 323,-225.05"/>
<polygon fill="midnightblue" stroke="midnightblue" points="319.5,-257.27 323,-267.27 326.5,-257.27 319.5,-257.27"/>
</g>
<!-- Node12 -->
<g id="node12" class="node">
<title>Node12</title>
<g id="a_node12"><a xlink:href="compat_2message_2include_2payload__impl_8hpp.html" target="_top" xlink:title=" ">
<polygon fill="white" stroke="black" points="346,-89.5 346,-141.5 480,-141.5 480,-89.5 346,-89.5"/>
<text text-anchor="start" x="354" y="-129.5" font-family="Helvetica" font-size="10.00">/home/ec2&#45;user/workspace</text>
<text text-anchor="start" x="354" y="-118.5" font-family="Helvetica" font-size="10.00">/vsomeip/implementation</text>
<text text-anchor="start" x="354" y="-107.5" font-family="Helvetica" font-size="10.00">/compat/message/include</text>
<text text-anchor="middle" x="413" y="-96.5" font-family="Helvetica" font-size="10.00">/payload_impl.hpp</text>
</a>
</g>
</g>
<!-- Node11&#45;&gt;Node12 -->
<g id="edge12" class="edge">
<title>Node11&#45;&gt;Node12</title>
<path fill="none" stroke="midnightblue" d="M369.9,-261.61C381.16,-253.31 391.95,-243.07 399,-231 415.06,-203.51 416.57,-166 415.41,-141.52"/>
<polygon fill="midnightblue" stroke="midnightblue" points="367.91,-258.73 361.67,-267.3 371.89,-264.49 367.91,-258.73"/>
</g>
<!-- Node12&#45;&gt;Node6 -->
<g id="edge13" class="edge">
<title>Node12&#45;&gt;Node6</title>
<path fill="none" stroke="midnightblue" d="M336.19,-89.85C335.12,-89.56 334.06,-89.28 333,-89 258.34,-69.25 237.86,-71.99 163,-53 160.13,-52.27 157.22,-51.51 154.27,-50.73"/>
<polygon fill="midnightblue" stroke="midnightblue" points="335.35,-93.25 345.92,-92.58 337.24,-86.51 335.35,-93.25"/>
</g>
<!-- Node12&#45;&gt;Node7 -->
<g id="edge15" class="edge">
<title>Node12&#45;&gt;Node7</title>
<path fill="none" stroke="midnightblue" d="M356.7,-84.64C337.04,-74.2 315.19,-62.61 296.33,-52.61"/>
<polygon fill="midnightblue" stroke="midnightblue" points="355.09,-87.74 365.56,-89.34 358.37,-81.56 355.09,-87.74"/>
</g>
<!-- Node12&#45;&gt;Node8 -->
<g id="edge16" class="edge">
<title>Node12&#45;&gt;Node8</title>
<path fill="none" stroke="midnightblue" d="M413,-79.19C413,-70.28 413,-60.9 413,-52.61"/>
<polygon fill="midnightblue" stroke="midnightblue" points="409.5,-79.34 413,-89.34 416.5,-79.34 409.5,-79.34"/>
</g>
<!-- Node13 -->
<g id="node13" class="node">
<title>Node13</title>
<g id="a_node13"><a xlink:href="compat_2message_2src_2payload__impl_8cpp.html" target="_top" xlink:title=" ">
<polygon fill="white" stroke="black" points="501,-0.5 501,-52.5 649,-52.5 649,-0.5 501,-0.5"/>
<text text-anchor="start" x="509" y="-40.5" font-family="Helvetica" font-size="10.00">/home/ec2&#45;user/workspace</text>
<text text-anchor="start" x="509" y="-29.5" font-family="Helvetica" font-size="10.00">/vsomeip/implementation</text>
<text text-anchor="start" x="509" y="-18.5" font-family="Helvetica" font-size="10.00">/compat/message/src/payload</text>
<text text-anchor="middle" x="575" y="-7.5" font-family="Helvetica" font-size="10.00">_impl.cpp</text>
</a>
</g>
</g>
<!-- Node12&#45;&gt;Node13 -->
<g id="edge14" class="edge">
<title>Node12&#45;&gt;Node13</title>
<path fill="none" stroke="midnightblue" d="M468.87,-84.49C488.23,-74.1 509.7,-62.57 528.25,-52.61"/>
<polygon fill="midnightblue" stroke="midnightblue" points="467.01,-81.52 459.86,-89.34 470.32,-87.69 467.01,-81.52"/>
</g>
</g>
</svg>
