<?xml version="1.0" encoding="UTF-8" standalone="no"?>
<!DOCTYPE svg PUBLIC "-//W3C//DTD SVG 1.1//EN"
 "http://www.w3.org/Graphics/SVG/1.1/DTD/svg11.dtd">
<!-- Generated by graphviz version 2.44.0 (0)
 -->
<!-- Title: /home/ec2&#45;user/workspace/vsomeip/implementation/compat/runtime/src/application_impl.cpp Pages: 1 -->
<svg width="1814pt" height="463pt"
 viewBox="0.00 0.00 1813.50 463.00" xmlns="http://www.w3.org/2000/svg" xmlns:xlink="http://www.w3.org/1999/xlink">
<g id="graph0" class="graph" transform="scale(1 1) rotate(0) translate(4 459)">
<title>/home/ec2&#45;user/workspace/vsomeip/implementation/compat/runtime/src/application_impl.cpp</title>
<polygon fill="white" stroke="transparent" points="-4,4 -4,-459 1809.5,-459 1809.5,4 -4,4"/>
<!-- Node1 -->
<g id="node1" class="node">
<title>Node1</title>
<g id="a_node1"><a xlink:title=" ">
<polygon fill="#bfbfbf" stroke="black" points="640.5,-402.5 640.5,-454.5 793.5,-454.5 793.5,-402.5 640.5,-402.5"/>
<text text-anchor="start" x="648.5" y="-442.5" font-family="Helvetica" font-size="10.00">/home/ec2&#45;user/workspace</text>
<text text-anchor="start" x="648.5" y="-431.5" font-family="Helvetica" font-size="10.00">/vsomeip/implementation</text>
<text text-anchor="start" x="648.5" y="-420.5" font-family="Helvetica" font-size="10.00">/compat/runtime/src/application</text>
<text text-anchor="middle" x="717" y="-409.5" font-family="Helvetica" font-size="10.00">_impl.cpp</text>
</a>
</g>
</g>
<!-- Node2 -->
<g id="node2" class="node">
<title>Node2</title>
<g id="a_node2"><a xlink:title=" ">
<polygon fill="white" stroke="#bfbfbf" points="281,-341 281,-360 403,-360 403,-341 281,-341"/>
<text text-anchor="middle" x="342" y="-348" font-family="Helvetica" font-size="10.00">vsomeip/application.hpp</text>
</a>
</g>
</g>
<!-- Node1&#45;&gt;Node2 -->
<g id="edge1" class="edge">
<title>Node1&#45;&gt;Node2</title>
<path fill="none" stroke="midnightblue" d="M640.2,-412.13C578.51,-399.76 489.66,-381.87 412,-366 405.86,-364.74 399.41,-363.42 393.02,-362.1"/>
<polygon fill="midnightblue" stroke="midnightblue" points="393.58,-358.64 383.08,-360.05 392.16,-365.5 393.58,-358.64"/>
</g>
<!-- Node3 -->
<g id="node3" class="node">
<title>Node3</title>
<g id="a_node3"><a xlink:title=" ">
<polygon fill="white" stroke="#bfbfbf" points="421.5,-341 421.5,-360 528.5,-360 528.5,-341 421.5,-341"/>
<text text-anchor="middle" x="475" y="-348" font-family="Helvetica" font-size="10.00">vsomeip/runtime.hpp</text>
</a>
</g>
</g>
<!-- Node1&#45;&gt;Node3 -->
<g id="edge2" class="edge">
<title>Node1&#45;&gt;Node3</title>
<path fill="none" stroke="midnightblue" d="M640.43,-403.45C597.64,-390.01 546.23,-373.87 512.21,-363.18"/>
<polygon fill="midnightblue" stroke="midnightblue" points="512.82,-359.71 502.23,-360.05 510.72,-366.39 512.82,-359.71"/>
</g>
<!-- Node4 -->
<g id="node4" class="node">
<title>Node4</title>
<g id="a_node4"><a xlink:href="interface_2compat_2vsomeip_2runtime_8hpp.html" target="_top" xlink:title=" ">
<polygon fill="white" stroke="black" points="616.5,-140 616.5,-159 759.5,-159 759.5,-140 616.5,-140"/>
<text text-anchor="middle" x="688" y="-147" font-family="Helvetica" font-size="10.00">compat/vsomeip/runtime.hpp</text>
</a>
</g>
</g>
<!-- Node1&#45;&gt;Node4 -->
<g id="edge3" class="edge">
<title>Node1&#45;&gt;Node4</title>
<path fill="none" stroke="midnightblue" d="M705.67,-402.23C689.93,-365.6 662.23,-295.2 652,-232 649.8,-218.4 647.8,-214.12 652,-201 656.07,-188.28 664.65,-176.03 672.41,-166.78"/>
<polygon fill="midnightblue" stroke="midnightblue" points="675.12,-169 679.15,-159.21 669.89,-164.35 675.12,-169"/>
</g>
<!-- Node12 -->
<g id="node12" class="node">
<title>Node12</title>
<g id="a_node12"><a xlink:href="logger_8hpp.html" target="_top" xlink:title=" ">
<polygon fill="white" stroke="black" points="241,-274 241,-293 377,-293 377,-274 241,-274"/>
<text text-anchor="middle" x="309" y="-281" font-family="Helvetica" font-size="10.00">vsomeip/internal/logger.hpp</text>
</a>
</g>
</g>
<!-- Node1&#45;&gt;Node12 -->
<g id="edge11" class="edge">
<title>Node1&#45;&gt;Node12</title>
<path fill="none" stroke="midnightblue" d="M655.19,-402.49C631.49,-392.15 604.51,-379.44 581,-366 560.23,-354.13 558.88,-344.66 537,-335 489.42,-313.99 432.26,-301.35 387.08,-293.98"/>
<polygon fill="midnightblue" stroke="midnightblue" points="387.47,-290.49 377.05,-292.39 386.38,-297.41 387.47,-290.49"/>
</g>
<!-- Node19 -->
<g id="node19" class="node">
<title>Node19</title>
<g id="a_node19"><a xlink:href="compat_2runtime_2include_2application__impl_8hpp.html" target="_top" xlink:title=" ">
<polygon fill="white" stroke="black" points="726,-268.5 726,-298.5 832,-298.5 832,-268.5 726,-268.5"/>
<text text-anchor="start" x="734" y="-286.5" font-family="Helvetica" font-size="10.00">../include/application</text>
<text text-anchor="middle" x="779" y="-275.5" font-family="Helvetica" font-size="10.00">_impl.hpp</text>
</a>
</g>
</g>
<!-- Node1&#45;&gt;Node19 -->
<g id="edge19" class="edge">
<title>Node1&#45;&gt;Node19</title>
<path fill="none" stroke="midnightblue" d="M727.94,-402.26C739.48,-375.65 757.52,-334.05 768.78,-308.08"/>
<polygon fill="midnightblue" stroke="midnightblue" points="772.11,-309.2 772.87,-298.63 765.68,-306.41 772.11,-309.2"/>
</g>
<!-- Node28 -->
<g id="node28" class="node">
<title>Node28</title>
<g id="a_node28"><a xlink:href="internal_8hpp.html" target="_top" xlink:title=" ">
<polygon fill="white" stroke="black" points="1032,-268.5 1032,-298.5 1136,-298.5 1136,-268.5 1032,-268.5"/>
<text text-anchor="start" x="1040" y="-286.5" font-family="Helvetica" font-size="10.00">../../../configuration</text>
<text text-anchor="middle" x="1084" y="-275.5" font-family="Helvetica" font-size="10.00">/include/internal.hpp</text>
</a>
</g>
</g>
<!-- Node1&#45;&gt;Node28 -->
<g id="edge42" class="edge">
<title>Node1&#45;&gt;Node28</title>
<path fill="none" stroke="midnightblue" d="M781.35,-402.43C854.87,-373.78 973.35,-327.61 1038.11,-302.38"/>
<polygon fill="midnightblue" stroke="midnightblue" points="1039.6,-305.56 1047.64,-298.67 1037.05,-299.04 1039.6,-305.56"/>
</g>
<!-- Node32 -->
<g id="node32" class="node">
<title>Node32</title>
<g id="a_node32"><a xlink:href="compat_2message_2include_2message__impl_8hpp.html" target="_top" xlink:title=" ">
<polygon fill="white" stroke="black" points="1377,-335.5 1377,-365.5 1485,-365.5 1485,-335.5 1377,-335.5"/>
<text text-anchor="start" x="1385" y="-353.5" font-family="Helvetica" font-size="10.00">../../message/include</text>
<text text-anchor="middle" x="1431" y="-342.5" font-family="Helvetica" font-size="10.00">/message_impl.hpp</text>
</a>
</g>
</g>
<!-- Node1&#45;&gt;Node32 -->
<g id="edge50" class="edge">
<title>Node1&#45;&gt;Node32</title>
<path fill="none" stroke="midnightblue" d="M793.75,-419.33C935.25,-404.27 1234.79,-372.39 1366.53,-358.36"/>
<polygon fill="midnightblue" stroke="midnightblue" points="1367.28,-361.8 1376.86,-357.26 1366.54,-354.84 1367.28,-361.8"/>
</g>
<!-- Node39 -->
<g id="node39" class="node">
<title>Node39</title>
<g id="a_node39"><a xlink:href="compat_2message_2include_2payload__impl_8hpp.html" target="_top" xlink:title=" ">
<polygon fill="white" stroke="black" points="1696,-201.5 1696,-231.5 1804,-231.5 1804,-201.5 1696,-201.5"/>
<text text-anchor="start" x="1704" y="-219.5" font-family="Helvetica" font-size="10.00">../../message/include</text>
<text text-anchor="middle" x="1750" y="-208.5" font-family="Helvetica" font-size="10.00">/payload_impl.hpp</text>
</a>
</g>
</g>
<!-- Node1&#45;&gt;Node39 -->
<g id="edge65" class="edge">
<title>Node1&#45;&gt;Node39</title>
<path fill="none" stroke="midnightblue" d="M793.6,-425.31C962.84,-419.84 1363.92,-403.27 1494,-366 1586.61,-339.47 1680.89,-272.14 1724.71,-238.01"/>
<polygon fill="midnightblue" stroke="midnightblue" points="1727.1,-240.58 1732.79,-231.65 1722.77,-235.08 1727.1,-240.58"/>
</g>
<!-- Node5 -->
<g id="node5" class="node">
<title>Node5</title>
<g id="a_node5"><a xlink:title=" ">
<polygon fill="white" stroke="#bfbfbf" points="1159.5,-73 1159.5,-92 1212.5,-92 1212.5,-73 1159.5,-73"/>
<text text-anchor="middle" x="1186" y="-80" font-family="Helvetica" font-size="10.00">memory</text>
</a>
</g>
</g>
<!-- Node4&#45;&gt;Node5 -->
<g id="edge4" class="edge">
<title>Node4&#45;&gt;Node5</title>
<path fill="none" stroke="midnightblue" d="M732.91,-139.99C744.64,-137.9 757.27,-135.76 769,-134 842.29,-123.01 1062.03,-97.64 1149.5,-87.65"/>
<polygon fill="midnightblue" stroke="midnightblue" points="1149.95,-91.12 1159.49,-86.51 1149.16,-84.17 1149.95,-91.12"/>
</g>
<!-- Node6 -->
<g id="node6" class="node">
<title>Node6</title>
<g id="a_node6"><a xlink:title=" ">
<polygon fill="white" stroke="#bfbfbf" points="570.5,-73 570.5,-92 611.5,-92 611.5,-73 570.5,-73"/>
<text text-anchor="middle" x="591" y="-80" font-family="Helvetica" font-size="10.00">string</text>
</a>
</g>
</g>
<!-- Node4&#45;&gt;Node6 -->
<g id="edge5" class="edge">
<title>Node4&#45;&gt;Node6</title>
<path fill="none" stroke="midnightblue" d="M674.92,-139.73C658.85,-128.96 631.37,-110.55 612.25,-97.74"/>
<polygon fill="midnightblue" stroke="midnightblue" points="614.13,-94.79 603.87,-92.13 610.23,-100.6 614.13,-94.79"/>
</g>
<!-- Node7 -->
<g id="node7" class="node">
<title>Node7</title>
<g id="a_node7"><a xlink:title=" ">
<polygon fill="white" stroke="#bfbfbf" points="814.5,-73 814.5,-92 857.5,-92 857.5,-73 814.5,-73"/>
<text text-anchor="middle" x="836" y="-80" font-family="Helvetica" font-size="10.00">vector</text>
</a>
</g>
</g>
<!-- Node4&#45;&gt;Node7 -->
<g id="edge6" class="edge">
<title>Node4&#45;&gt;Node7</title>
<path fill="none" stroke="midnightblue" d="M707.65,-139.87C733.09,-128.7 777.6,-109.15 806.95,-96.26"/>
<polygon fill="midnightblue" stroke="midnightblue" points="808.52,-99.39 816.27,-92.17 805.7,-92.98 808.52,-99.39"/>
</g>
<!-- Node8 -->
<g id="node8" class="node">
<title>Node8</title>
<g id="a_node8"><a xlink:href="compat_2vsomeip_2export_8hpp.html" target="_top" xlink:title=" ">
<polygon fill="white" stroke="black" points="1414.5,-0.5 1414.5,-30.5 1521.5,-30.5 1521.5,-0.5 1414.5,-0.5"/>
<text text-anchor="start" x="1422.5" y="-18.5" font-family="Helvetica" font-size="10.00">../../compat/vsomeip</text>
<text text-anchor="middle" x="1468" y="-7.5" font-family="Helvetica" font-size="10.00">/export.hpp</text>
</a>
</g>
</g>
<!-- Node4&#45;&gt;Node8 -->
<g id="edge7" class="edge">
<title>Node4&#45;&gt;Node8</title>
<path fill="none" stroke="midnightblue" d="M698.64,-139.99C722.8,-120.83 781.56,-75.35 805,-67 914.25,-28.08 1260.43,-19.15 1404.32,-17.1"/>
<polygon fill="midnightblue" stroke="midnightblue" points="1404.37,-20.6 1414.32,-16.97 1404.28,-13.6 1404.37,-20.6"/>
</g>
<!-- Node9 -->
<g id="node9" class="node">
<title>Node9</title>
<g id="a_node9"><a xlink:href="interface_2compat_2vsomeip_2primitive__types_8hpp.html" target="_top" xlink:title=" ">
<polygon fill="white" stroke="black" points="634.5,-67.5 634.5,-97.5 741.5,-97.5 741.5,-67.5 634.5,-67.5"/>
<text text-anchor="start" x="642.5" y="-85.5" font-family="Helvetica" font-size="10.00">../../compat/vsomeip</text>
<text text-anchor="middle" x="688" y="-74.5" font-family="Helvetica" font-size="10.00">/primitive_types.hpp</text>
</a>
</g>
</g>
<!-- Node4&#45;&gt;Node9 -->
<g id="edge8" class="edge">
<title>Node4&#45;&gt;Node9</title>
<path fill="none" stroke="midnightblue" d="M688,-139.73C688,-131.54 688,-118.92 688,-107.71"/>
<polygon fill="midnightblue" stroke="midnightblue" points="691.5,-107.59 688,-97.59 684.5,-107.59 691.5,-107.59"/>
</g>
<!-- Node10 -->
<g id="node10" class="node">
<title>Node10</title>
<g id="a_node10"><a xlink:title=" ">
<polygon fill="white" stroke="#bfbfbf" points="669,-6 669,-25 707,-25 707,-6 669,-6"/>
<text text-anchor="middle" x="688" y="-13" font-family="Helvetica" font-size="10.00">array</text>
</a>
</g>
</g>
<!-- Node9&#45;&gt;Node10 -->
<g id="edge9" class="edge">
<title>Node9&#45;&gt;Node10</title>
<path fill="none" stroke="midnightblue" d="M688,-67.4C688,-58.06 688,-45.71 688,-35.52"/>
<polygon fill="midnightblue" stroke="midnightblue" points="691.5,-35.19 688,-25.19 684.5,-35.19 691.5,-35.19"/>
</g>
<!-- Node11 -->
<g id="node11" class="node">
<title>Node11</title>
<g id="a_node11"><a xlink:title=" ">
<polygon fill="white" stroke="#bfbfbf" points="411,-6 411,-25 457,-25 457,-6 411,-6"/>
<text text-anchor="middle" x="434" y="-13" font-family="Helvetica" font-size="10.00">cstdint</text>
</a>
</g>
</g>
<!-- Node9&#45;&gt;Node11 -->
<g id="edge10" class="edge">
<title>Node9&#45;&gt;Node11</title>
<path fill="none" stroke="midnightblue" d="M634.44,-67.79C583.75,-54.82 509.27,-35.76 466.83,-24.9"/>
<polygon fill="midnightblue" stroke="midnightblue" points="467.57,-21.48 457.01,-22.39 465.83,-28.26 467.57,-21.48"/>
</g>
<!-- Node12&#45;&gt;Node11 -->
<g id="edge13" class="edge">
<title>Node12&#45;&gt;Node11</title>
<path fill="none" stroke="midnightblue" d="M312.87,-273.68C317.17,-263.7 324.14,-246.88 329,-232 352.55,-159.97 331.04,-130.76 372,-67 381.57,-52.1 397,-39.51 410.07,-30.63"/>
<polygon fill="midnightblue" stroke="midnightblue" points="412.14,-33.46 418.64,-25.09 408.34,-27.58 412.14,-33.46"/>
</g>
<!-- Node13 -->
<g id="node13" class="node">
<title>Node13</title>
<g id="a_node13"><a xlink:title=" ">
<polygon fill="white" stroke="#bfbfbf" points="990,-140 990,-159 1036,-159 1036,-140 990,-140"/>
<text text-anchor="middle" x="1013" y="-147" font-family="Helvetica" font-size="10.00">chrono</text>
</a>
</g>
</g>
<!-- Node12&#45;&gt;Node13 -->
<g id="edge12" class="edge">
<title>Node12&#45;&gt;Node13</title>
<path fill="none" stroke="midnightblue" d="M339.48,-273.91C399.05,-257.42 535.3,-221.19 652,-201 796.51,-176 838.34,-202.94 980,-165 982.3,-164.39 984.64,-163.63 986.96,-162.8"/>
<polygon fill="midnightblue" stroke="midnightblue" points="988.27,-166.04 996.23,-159.05 985.65,-159.55 988.27,-166.04"/>
</g>
<!-- Node14 -->
<g id="node14" class="node">
<title>Node14</title>
<g id="a_node14"><a xlink:title=" ">
<polygon fill="white" stroke="#bfbfbf" points="661,-207 661,-226 705,-226 705,-207 661,-207"/>
<text text-anchor="middle" x="683" y="-214" font-family="Helvetica" font-size="10.00">mutex</text>
</a>
</g>
</g>
<!-- Node12&#45;&gt;Node14 -->
<g id="edge14" class="edge">
<title>Node12&#45;&gt;Node14</title>
<path fill="none" stroke="midnightblue" d="M377.3,-277.03C446.27,-270.42 555.4,-256.92 647,-232 649.5,-231.32 652.07,-230.51 654.62,-229.64"/>
<polygon fill="midnightblue" stroke="midnightblue" points="656.1,-232.82 664.23,-226.03 653.64,-226.27 656.1,-232.82"/>
</g>
<!-- Node15 -->
<g id="node15" class="node">
<title>Node15</title>
<g id="a_node15"><a xlink:title=" ">
<polygon fill="white" stroke="#bfbfbf" points="0,-207 0,-226 52,-226 52,-207 0,-207"/>
<text text-anchor="middle" x="26" y="-214" font-family="Helvetica" font-size="10.00">ostream</text>
</a>
</g>
</g>
<!-- Node12&#45;&gt;Node15 -->
<g id="edge15" class="edge">
<title>Node12&#45;&gt;Node15</title>
<path fill="none" stroke="midnightblue" d="M251.09,-273.94C200.32,-265.67 124.87,-251.53 61,-232 58.72,-231.3 56.38,-230.51 54.05,-229.67"/>
<polygon fill="midnightblue" stroke="midnightblue" points="55.24,-226.37 44.65,-226 52.69,-232.9 55.24,-226.37"/>
</g>
<!-- Node16 -->
<g id="node16" class="node">
<title>Node16</title>
<g id="a_node16"><a xlink:title=" ">
<polygon fill="white" stroke="#bfbfbf" points="70,-207 70,-226 122,-226 122,-207 70,-207"/>
<text text-anchor="middle" x="96" y="-214" font-family="Helvetica" font-size="10.00">sstream</text>
</a>
</g>
</g>
<!-- Node12&#45;&gt;Node16 -->
<g id="edge16" class="edge">
<title>Node12&#45;&gt;Node16</title>
<path fill="none" stroke="midnightblue" d="M274.51,-273.99C238.38,-264.77 180.15,-249.09 131,-232 129.09,-231.34 127.13,-230.62 125.17,-229.88"/>
<polygon fill="midnightblue" stroke="midnightblue" points="126.05,-226.47 115.47,-226.04 123.47,-232.97 126.05,-226.47"/>
</g>
<!-- Node17 -->
<g id="node17" class="node">
<title>Node17</title>
<g id="a_node17"><a xlink:title=" ">
<polygon fill="white" stroke="#bfbfbf" points="140,-207 140,-226 200,-226 200,-207 140,-207"/>
<text text-anchor="middle" x="170" y="-214" font-family="Helvetica" font-size="10.00">streambuf</text>
</a>
</g>
</g>
<!-- Node12&#45;&gt;Node17 -->
<g id="edge17" class="edge">
<title>Node12&#45;&gt;Node17</title>
<path fill="none" stroke="midnightblue" d="M290.54,-273.87C266.76,-262.75 225.21,-243.32 197.65,-230.43"/>
<polygon fill="midnightblue" stroke="midnightblue" points="199.08,-227.23 188.53,-226.17 196.11,-233.57 199.08,-227.23"/>
</g>
<!-- Node18 -->
<g id="node18" class="node">
<title>Node18</title>
<g id="a_node18"><a xlink:title=" ">
<polygon fill="white" stroke="#bfbfbf" points="218,-207 218,-226 320,-226 320,-207 218,-207"/>
<text text-anchor="middle" x="269" y="-214" font-family="Helvetica" font-size="10.00">vsomeip/export.hpp</text>
</a>
</g>
</g>
<!-- Node12&#45;&gt;Node18 -->
<g id="edge18" class="edge">
<title>Node12&#45;&gt;Node18</title>
<path fill="none" stroke="midnightblue" d="M303.61,-273.73C297.49,-263.79 287.36,-247.34 279.64,-234.79"/>
<polygon fill="midnightblue" stroke="midnightblue" points="282.53,-232.81 274.31,-226.13 276.57,-236.48 282.53,-232.81"/>
</g>
<!-- Node19&#45;&gt;Node14 -->
<g id="edge21" class="edge">
<title>Node19&#45;&gt;Node14</title>
<path fill="none" stroke="midnightblue" d="M758.17,-268.4C742.22,-257.6 720.3,-242.76 704.25,-231.89"/>
<polygon fill="midnightblue" stroke="midnightblue" points="705.81,-228.72 695.56,-226.01 701.88,-234.51 705.81,-228.72"/>
</g>
<!-- Node20 -->
<g id="node20" class="node">
<title>Node20</title>
<g id="a_node20"><a xlink:title=" ">
<polygon fill="white" stroke="#bfbfbf" points="1218.5,-140 1218.5,-159 1253.5,-159 1253.5,-140 1218.5,-140"/>
<text text-anchor="middle" x="1236" y="-147" font-family="Helvetica" font-size="10.00">map</text>
</a>
</g>
</g>
<!-- Node19&#45;&gt;Node20 -->
<g id="edge20" class="edge">
<title>Node19&#45;&gt;Node20</title>
<path fill="none" stroke="midnightblue" d="M832.22,-280.6C889.6,-276.8 982.47,-265.49 1055,-232 1074.79,-222.86 1074,-211.68 1093,-201 1103.35,-195.18 1170.11,-172.49 1208.65,-159.59"/>
<polygon fill="midnightblue" stroke="midnightblue" points="1209.87,-162.88 1218.24,-156.39 1207.65,-156.24 1209.87,-162.88"/>
</g>
<!-- Node21 -->
<g id="node21" class="node">
<title>Node21</title>
<g id="a_node21"><a xlink:href="compat_2vsomeip_2application_8hpp.html" target="_top" xlink:title=" ">
<polygon fill="white" stroke="black" points="761.5,-207 761.5,-226 918.5,-226 918.5,-207 761.5,-207"/>
<text text-anchor="middle" x="840" y="-214" font-family="Helvetica" font-size="10.00">compat/vsomeip/application.hpp</text>
</a>
</g>
</g>
<!-- Node19&#45;&gt;Node21 -->
<g id="edge22" class="edge">
<title>Node19&#45;&gt;Node21</title>
<path fill="none" stroke="midnightblue" d="M792.24,-268.4C801.84,-258.16 814.85,-244.3 824.87,-233.62"/>
<polygon fill="midnightblue" stroke="midnightblue" points="827.55,-235.88 831.84,-226.19 822.45,-231.09 827.55,-235.88"/>
</g>
<!-- Node21&#45;&gt;Node5 -->
<g id="edge24" class="edge">
<title>Node21&#45;&gt;Node5</title>
<path fill="none" stroke="midnightblue" d="M897.22,-206.95C991.38,-192.86 1168.77,-166.18 1170,-165 1186.72,-148.97 1188.76,-120.96 1187.95,-102.32"/>
<polygon fill="midnightblue" stroke="midnightblue" points="1191.43,-101.83 1187.19,-92.12 1184.45,-102.35 1191.43,-101.83"/>
</g>
<!-- Node21&#45;&gt;Node7 -->
<g id="edge27" class="edge">
<title>Node21&#45;&gt;Node7</title>
<path fill="none" stroke="midnightblue" d="M839.74,-206.84C839.1,-185.67 837.44,-130.95 836.56,-102.03"/>
<polygon fill="midnightblue" stroke="midnightblue" points="840.06,-101.91 836.26,-92.02 833.06,-102.12 840.06,-101.91"/>
</g>
<!-- Node21&#45;&gt;Node9 -->
<g id="edge41" class="edge">
<title>Node21&#45;&gt;Node9</title>
<path fill="none" stroke="midnightblue" d="M783.1,-206.96C717.75,-196.57 618.08,-178.73 607,-165 598.35,-154.28 600.31,-146.05 607,-134 614.45,-120.58 627.11,-110.26 640.24,-102.55"/>
<polygon fill="midnightblue" stroke="midnightblue" points="642.21,-105.46 649.34,-97.63 638.88,-99.31 642.21,-105.46"/>
</g>
<!-- Node21&#45;&gt;Node13 -->
<g id="edge23" class="edge">
<title>Node21&#45;&gt;Node13</title>
<path fill="none" stroke="midnightblue" d="M865.23,-206.98C893.41,-197.32 940.29,-180.87 980,-165 981.6,-164.36 983.23,-163.69 984.88,-163.01"/>
<polygon fill="midnightblue" stroke="midnightblue" points="986.43,-166.15 994.25,-159 983.68,-159.72 986.43,-166.15"/>
</g>
<!-- Node21&#45;&gt;Node20 -->
<g id="edge26" class="edge">
<title>Node21&#45;&gt;Node20</title>
<path fill="none" stroke="midnightblue" d="M896.15,-206.97C909.53,-204.97 923.77,-202.88 937,-201 1055.55,-184.15 1088.91,-198.06 1204,-165 1205.93,-164.44 1207.9,-163.79 1209.86,-163.07"/>
<polygon fill="midnightblue" stroke="midnightblue" points="1211.51,-166.18 1219.41,-159.12 1208.83,-159.71 1211.51,-166.18"/>
</g>
<!-- Node22 -->
<g id="node22" class="node">
<title>Node22</title>
<g id="a_node22"><a xlink:title=" ">
<polygon fill="white" stroke="#bfbfbf" points="778,-140 778,-159 808,-159 808,-140 778,-140"/>
<text text-anchor="middle" x="793" y="-147" font-family="Helvetica" font-size="10.00">set</text>
</a>
</g>
</g>
<!-- Node21&#45;&gt;Node22 -->
<g id="edge25" class="edge">
<title>Node21&#45;&gt;Node22</title>
<path fill="none" stroke="midnightblue" d="M833.66,-206.73C826.4,-196.7 814.34,-180.01 805.24,-167.42"/>
<polygon fill="midnightblue" stroke="midnightblue" points="807.93,-165.18 799.24,-159.13 802.26,-169.28 807.93,-165.18"/>
</g>
<!-- Node23 -->
<g id="node23" class="node">
<title>Node23</title>
<g id="a_node23"><a xlink:href="interface_2compat_2vsomeip_2constants_8hpp.html" target="_top" xlink:title=" ">
<polygon fill="white" stroke="black" points="452.5,-134.5 452.5,-164.5 559.5,-164.5 559.5,-134.5 452.5,-134.5"/>
<text text-anchor="start" x="460.5" y="-152.5" font-family="Helvetica" font-size="10.00">../../compat/vsomeip</text>
<text text-anchor="middle" x="506" y="-141.5" font-family="Helvetica" font-size="10.00">/constants.hpp</text>
</a>
</g>
</g>
<!-- Node21&#45;&gt;Node23 -->
<g id="edge28" class="edge">
<title>Node21&#45;&gt;Node23</title>
<path fill="none" stroke="midnightblue" d="M793.33,-206.97C740.17,-197.17 650.72,-180.46 574,-165 572.56,-164.71 571.1,-164.41 569.63,-164.11"/>
<polygon fill="midnightblue" stroke="midnightblue" points="570.3,-160.68 559.8,-162.09 568.89,-167.53 570.3,-160.68"/>
</g>
<!-- Node24 -->
<g id="node24" class="node">
<title>Node24</title>
<g id="a_node24"><a xlink:href="interface_2compat_2vsomeip_2enumeration__types_8hpp.html" target="_top" xlink:title=" ">
<polygon fill="white" stroke="black" points="420.5,-67.5 420.5,-97.5 541.5,-97.5 541.5,-67.5 420.5,-67.5"/>
<text text-anchor="start" x="428.5" y="-85.5" font-family="Helvetica" font-size="10.00">../../compat/vsomeip</text>
<text text-anchor="middle" x="481" y="-74.5" font-family="Helvetica" font-size="10.00">/enumeration_types.hpp</text>
</a>
</g>
</g>
<!-- Node21&#45;&gt;Node24 -->
<g id="edge33" class="edge">
<title>Node21&#45;&gt;Node24</title>
<path fill="none" stroke="midnightblue" d="M787.42,-206.96C774.24,-204.91 760.11,-202.8 747,-201 679.6,-191.76 488.19,-215.85 443,-165 427.53,-147.59 442.99,-122.8 458.59,-105.14"/>
<polygon fill="midnightblue" stroke="midnightblue" points="461.38,-107.28 465.65,-97.58 456.27,-102.5 461.38,-107.28"/>
</g>
<!-- Node25 -->
<g id="node25" class="node">
<title>Node25</title>
<g id="a_node25"><a xlink:href="interface_2compat_2vsomeip_2function__types_8hpp.html" target="_top" xlink:title=" ">
<polygon fill="white" stroke="black" points="1054.5,-134.5 1054.5,-164.5 1161.5,-164.5 1161.5,-134.5 1054.5,-134.5"/>
<text text-anchor="start" x="1062.5" y="-152.5" font-family="Helvetica" font-size="10.00">../../compat/vsomeip</text>
<text text-anchor="middle" x="1108" y="-141.5" font-family="Helvetica" font-size="10.00">/function_types.hpp</text>
</a>
</g>
</g>
<!-- Node21&#45;&gt;Node25 -->
<g id="edge34" class="edge">
<title>Node21&#45;&gt;Node25</title>
<path fill="none" stroke="midnightblue" d="M875.31,-206.94C918.18,-196.54 991.27,-178.81 1044.11,-166"/>
<polygon fill="midnightblue" stroke="midnightblue" points="1045.17,-169.34 1054.06,-163.58 1043.52,-162.54 1045.17,-169.34"/>
</g>
<!-- Node27 -->
<g id="node27" class="node">
<title>Node27</title>
<g id="a_node27"><a xlink:href="compat_2vsomeip_2handler_8hpp.html" target="_top" xlink:title=" ">
<polygon fill="white" stroke="black" points="864.5,-134.5 864.5,-164.5 971.5,-164.5 971.5,-134.5 864.5,-134.5"/>
<text text-anchor="start" x="872.5" y="-152.5" font-family="Helvetica" font-size="10.00">../../compat/vsomeip</text>
<text text-anchor="middle" x="918" y="-141.5" font-family="Helvetica" font-size="10.00">/handler.hpp</text>
</a>
</g>
</g>
<!-- Node21&#45;&gt;Node27 -->
<g id="edge37" class="edge">
<title>Node21&#45;&gt;Node27</title>
<path fill="none" stroke="midnightblue" d="M850.52,-206.73C861.36,-197.7 878.67,-183.27 893.04,-171.3"/>
<polygon fill="midnightblue" stroke="midnightblue" points="895.65,-173.68 901.09,-164.59 891.17,-168.3 895.65,-173.68"/>
</g>
<!-- Node23&#45;&gt;Node6 -->
<g id="edge29" class="edge">
<title>Node23&#45;&gt;Node6</title>
<path fill="none" stroke="midnightblue" d="M524.44,-134.4C538.35,-123.76 557.39,-109.2 571.54,-98.38"/>
<polygon fill="midnightblue" stroke="midnightblue" points="573.81,-101.05 579.63,-92.19 569.56,-95.49 573.81,-101.05"/>
</g>
<!-- Node23&#45;&gt;Node9 -->
<g id="edge32" class="edge">
<title>Node23&#45;&gt;Node9</title>
<path fill="none" stroke="midnightblue" d="M545.49,-134.4C572.92,-124.6 609.65,-111.48 638.96,-101.02"/>
<polygon fill="midnightblue" stroke="midnightblue" points="640.35,-104.24 648.59,-97.58 637.99,-97.64 640.35,-104.24"/>
</g>
<!-- Node23&#45;&gt;Node24 -->
<g id="edge30" class="edge">
<title>Node23&#45;&gt;Node24</title>
<path fill="none" stroke="midnightblue" d="M500.58,-134.4C497.5,-126.39 493.56,-116.16 490.03,-106.98"/>
<polygon fill="midnightblue" stroke="midnightblue" points="493.27,-105.65 486.41,-97.58 486.74,-108.17 493.27,-105.65"/>
</g>
<!-- Node24&#45;&gt;Node11 -->
<g id="edge31" class="edge">
<title>Node24&#45;&gt;Node11</title>
<path fill="none" stroke="midnightblue" d="M470.8,-67.4C463.62,-57.46 453.96,-44.11 446.34,-33.57"/>
<polygon fill="midnightblue" stroke="midnightblue" points="448.98,-31.25 440.29,-25.19 443.31,-35.35 448.98,-31.25"/>
</g>
<!-- Node25&#45;&gt;Node5 -->
<g id="edge36" class="edge">
<title>Node25&#45;&gt;Node5</title>
<path fill="none" stroke="midnightblue" d="M1124.92,-134.4C1137.57,-123.86 1154.83,-109.48 1167.77,-98.69"/>
<polygon fill="midnightblue" stroke="midnightblue" points="1170.12,-101.29 1175.57,-92.19 1165.64,-95.91 1170.12,-101.29"/>
</g>
<!-- Node26 -->
<g id="node26" class="node">
<title>Node26</title>
<g id="a_node26"><a xlink:title=" ">
<polygon fill="white" stroke="#bfbfbf" points="983.5,-73 983.5,-92 1042.5,-92 1042.5,-73 983.5,-73"/>
<text text-anchor="middle" x="1013" y="-80" font-family="Helvetica" font-size="10.00">functional</text>
</a>
</g>
</g>
<!-- Node25&#45;&gt;Node26 -->
<g id="edge35" class="edge">
<title>Node25&#45;&gt;Node26</title>
<path fill="none" stroke="midnightblue" d="M1087.39,-134.4C1071.6,-123.6 1049.91,-108.76 1034.03,-97.89"/>
<polygon fill="midnightblue" stroke="midnightblue" points="1035.66,-94.77 1025.43,-92.01 1031.71,-100.54 1035.66,-94.77"/>
</g>
<!-- Node27&#45;&gt;Node5 -->
<g id="edge39" class="edge">
<title>Node27&#45;&gt;Node5</title>
<path fill="none" stroke="midnightblue" d="M971.59,-135.5C1024.42,-122.69 1103.71,-103.46 1149.6,-92.33"/>
<polygon fill="midnightblue" stroke="midnightblue" points="1150.53,-95.71 1159.42,-89.95 1148.88,-88.9 1150.53,-95.71"/>
</g>
<!-- Node27&#45;&gt;Node9 -->
<g id="edge40" class="edge">
<title>Node27&#45;&gt;Node9</title>
<path fill="none" stroke="midnightblue" d="M868.38,-134.48C832.98,-124.47 785.21,-110.97 747.72,-100.38"/>
<polygon fill="midnightblue" stroke="midnightblue" points="748.51,-96.96 737.93,-97.61 746.6,-103.7 748.51,-96.96"/>
</g>
<!-- Node27&#45;&gt;Node26 -->
<g id="edge38" class="edge">
<title>Node27&#45;&gt;Node26</title>
<path fill="none" stroke="midnightblue" d="M938.61,-134.4C954.4,-123.6 976.09,-108.76 991.97,-97.89"/>
<polygon fill="midnightblue" stroke="midnightblue" points="994.29,-100.54 1000.57,-92.01 990.34,-94.77 994.29,-100.54"/>
</g>
<!-- Node28&#45;&gt;Node5 -->
<g id="edge45" class="edge">
<title>Node28&#45;&gt;Node5</title>
<path fill="none" stroke="midnightblue" d="M1136.2,-280.7C1173.68,-276.51 1222.44,-264.57 1251,-232 1279.9,-199.05 1282.71,-172.63 1262,-134 1252.8,-116.84 1234.92,-104.52 1218.82,-96.35"/>
<polygon fill="midnightblue" stroke="midnightblue" points="1220.15,-93.11 1209.62,-92.01 1217.17,-99.44 1220.15,-93.11"/>
</g>
<!-- Node28&#45;&gt;Node11 -->
<g id="edge43" class="edge">
<title>Node28&#45;&gt;Node11</title>
<path fill="none" stroke="midnightblue" d="M1031.88,-282.93C964.43,-281.66 844.59,-273.09 752,-232 732.08,-223.16 734.03,-209.61 714,-201 598.32,-151.29 530.07,-245.19 433,-165 398.59,-136.57 401.53,-110.62 411,-67 413.52,-55.4 418.94,-43.27 423.89,-33.81"/>
<polygon fill="midnightblue" stroke="midnightblue" points="426.96,-35.49 428.73,-25.04 420.83,-32.1 426.96,-35.49"/>
</g>
<!-- Node29 -->
<g id="node29" class="node">
<title>Node29</title>
<g id="a_node29"><a xlink:title=" ">
<polygon fill="white" stroke="#bfbfbf" points="1298,-207 1298,-226 1338,-226 1338,-207 1298,-207"/>
<text text-anchor="middle" x="1318" y="-214" font-family="Helvetica" font-size="10.00">limits</text>
</a>
</g>
</g>
<!-- Node28&#45;&gt;Node29 -->
<g id="edge44" class="edge">
<title>Node28&#45;&gt;Node29</title>
<path fill="none" stroke="midnightblue" d="M1136.02,-271.7C1176.77,-262.69 1234.62,-248.65 1284,-232 1285.92,-231.35 1287.87,-230.65 1289.84,-229.91"/>
<polygon fill="midnightblue" stroke="midnightblue" points="1291.53,-233 1299.5,-226.01 1288.91,-226.5 1291.53,-233"/>
</g>
<!-- Node30 -->
<g id="node30" class="node">
<title>Node30</title>
<g id="a_node30"><a xlink:title=" ">
<polygon fill="white" stroke="#bfbfbf" points="1102,-207 1102,-226 1242,-226 1242,-207 1102,-207"/>
<text text-anchor="middle" x="1172" y="-214" font-family="Helvetica" font-size="10.00">vsomeip/primitive_types.hpp</text>
</a>
</g>
</g>
<!-- Node28&#45;&gt;Node30 -->
<g id="edge46" class="edge">
<title>Node28&#45;&gt;Node30</title>
<path fill="none" stroke="midnightblue" d="M1103.09,-268.4C1117.58,-257.7 1137.43,-243.03 1152.11,-232.19"/>
<polygon fill="midnightblue" stroke="midnightblue" points="1154.52,-234.76 1160.48,-226.01 1150.36,-229.13 1154.52,-234.76"/>
</g>
<!-- Node31 -->
<g id="node31" class="node">
<title>Node31</title>
<g id="a_node31"><a xlink:href="structured__types_8hpp.html" target="_top" xlink:title=" ">
<polygon fill="white" stroke="black" points="946,-201.5 946,-231.5 1046,-231.5 1046,-201.5 946,-201.5"/>
<text text-anchor="start" x="954" y="-219.5" font-family="Helvetica" font-size="10.00">vsomeip/structured</text>
<text text-anchor="middle" x="996" y="-208.5" font-family="Helvetica" font-size="10.00">_types.hpp</text>
</a>
</g>
</g>
<!-- Node28&#45;&gt;Node31 -->
<g id="edge47" class="edge">
<title>Node28&#45;&gt;Node31</title>
<path fill="none" stroke="midnightblue" d="M1064.91,-268.4C1052.68,-259.37 1036.63,-247.51 1023.1,-237.52"/>
<polygon fill="midnightblue" stroke="midnightblue" points="1025.18,-234.7 1015.06,-231.58 1021.02,-240.33 1025.18,-234.7"/>
</g>
<!-- Node31&#45;&gt;Node13 -->
<g id="edge48" class="edge">
<title>Node31&#45;&gt;Node13</title>
<path fill="none" stroke="midnightblue" d="M999.69,-201.4C1002.16,-191.96 1005.43,-179.45 1008.11,-169.19"/>
<polygon fill="midnightblue" stroke="midnightblue" points="1011.58,-169.75 1010.73,-159.19 1004.81,-167.98 1011.58,-169.75"/>
</g>
<!-- Node31&#45;&gt;Node20 -->
<g id="edge49" class="edge">
<title>Node31&#45;&gt;Node20</title>
<path fill="none" stroke="midnightblue" d="M1046.09,-203.86C1102.75,-190.61 1189.11,-170.13 1204,-165 1205.67,-164.43 1207.36,-163.8 1209.06,-163.13"/>
<polygon fill="midnightblue" stroke="midnightblue" points="1210.79,-166.2 1218.63,-159.08 1208.06,-159.76 1210.79,-166.2"/>
</g>
<!-- Node33 -->
<g id="node33" class="node">
<title>Node33</title>
<g id="a_node33"><a xlink:href="compat_2vsomeip_2message_8hpp.html" target="_top" xlink:title=" ">
<polygon fill="white" stroke="black" points="1356,-207 1356,-226 1506,-226 1506,-207 1356,-207"/>
<text text-anchor="middle" x="1431" y="-214" font-family="Helvetica" font-size="10.00">compat/vsomeip/message.hpp</text>
</a>
</g>
</g>
<!-- Node32&#45;&gt;Node33 -->
<g id="edge51" class="edge">
<title>Node32&#45;&gt;Node33</title>
<path fill="none" stroke="midnightblue" d="M1431,-335.37C1431,-311.5 1431,-263.18 1431,-236.41"/>
<polygon fill="midnightblue" stroke="midnightblue" points="1434.5,-236.1 1431,-226.1 1427.5,-236.1 1434.5,-236.1"/>
</g>
<!-- Node37 -->
<g id="node37" class="node">
<title>Node37</title>
<g id="a_node37"><a xlink:href="compat_2message_2include_2message__base__impl_8hpp.html" target="_top" xlink:title=" ">
<polygon fill="white" stroke="black" points="1489.5,-274 1489.5,-293 1614.5,-293 1614.5,-274 1489.5,-274"/>
<text text-anchor="middle" x="1552" y="-281" font-family="Helvetica" font-size="10.00">message_base_impl.hpp</text>
</a>
</g>
</g>
<!-- Node32&#45;&gt;Node37 -->
<g id="edge61" class="edge">
<title>Node32&#45;&gt;Node37</title>
<path fill="none" stroke="midnightblue" d="M1457.26,-335.4C1478.02,-324.24 1506.8,-308.78 1527.18,-297.83"/>
<polygon fill="midnightblue" stroke="midnightblue" points="1529.01,-300.82 1536.16,-293.01 1525.7,-294.66 1529.01,-300.82"/>
</g>
<!-- Node33&#45;&gt;Node5 -->
<g id="edge52" class="edge">
<title>Node33&#45;&gt;Node5</title>
<path fill="none" stroke="midnightblue" d="M1414.03,-206.98C1395.29,-197.39 1364.42,-181.05 1339,-165 1319.08,-152.42 1316.36,-145.86 1296,-134 1270.54,-119.16 1239.96,-105.43 1217.51,-96.04"/>
<polygon fill="midnightblue" stroke="midnightblue" points="1218.7,-92.74 1208.12,-92.17 1216.03,-99.21 1218.7,-92.74"/>
</g>
<!-- Node34 -->
<g id="node34" class="node">
<title>Node34</title>
<g id="a_node34"><a xlink:href="compat_2vsomeip_2message__base_8hpp.html" target="_top" xlink:title=" ">
<polygon fill="white" stroke="black" points="1348.5,-134.5 1348.5,-164.5 1455.5,-164.5 1455.5,-134.5 1348.5,-134.5"/>
<text text-anchor="start" x="1356.5" y="-152.5" font-family="Helvetica" font-size="10.00">../../compat/vsomeip</text>
<text text-anchor="middle" x="1402" y="-141.5" font-family="Helvetica" font-size="10.00">/message_base.hpp</text>
</a>
</g>
</g>
<!-- Node33&#45;&gt;Node34 -->
<g id="edge53" class="edge">
<title>Node33&#45;&gt;Node34</title>
<path fill="none" stroke="midnightblue" d="M1427.09,-206.73C1423.36,-198.37 1417.57,-185.4 1412.49,-174.02"/>
<polygon fill="midnightblue" stroke="midnightblue" points="1415.56,-172.3 1408.29,-164.59 1409.16,-175.15 1415.56,-172.3"/>
</g>
<!-- Node34&#45;&gt;Node8 -->
<g id="edge55" class="edge">
<title>Node34&#45;&gt;Node8</title>
<path fill="none" stroke="midnightblue" d="M1363.34,-134.37C1347.23,-126.34 1330.17,-114.52 1321,-98 1314.31,-85.95 1313,-78.21 1321,-67 1339.95,-40.46 1373.76,-27.72 1404.18,-21.67"/>
<polygon fill="midnightblue" stroke="midnightblue" points="1405.11,-25.06 1414.34,-19.87 1403.89,-18.17 1405.11,-25.06"/>
</g>
<!-- Node34&#45;&gt;Node9 -->
<g id="edge60" class="edge">
<title>Node34&#45;&gt;Node9</title>
<path fill="none" stroke="midnightblue" d="M1348.18,-142.61C1322.16,-139.85 1290.47,-136.6 1262,-134 1059.1,-115.5 1007.7,-118.53 805,-98 787.64,-96.24 768.86,-94.05 751.54,-91.9"/>
<polygon fill="midnightblue" stroke="midnightblue" points="751.89,-88.42 741.53,-90.64 751.02,-95.36 751.89,-88.42"/>
</g>
<!-- Node34&#45;&gt;Node24 -->
<g id="edge54" class="edge">
<title>Node34&#45;&gt;Node24</title>
<path fill="none" stroke="midnightblue" d="M1348.21,-142.27C1322.2,-139.42 1290.5,-136.21 1262,-134 950.96,-109.92 870.89,-133.89 561,-98 557.94,-97.65 554.83,-97.25 551.69,-96.81"/>
<polygon fill="midnightblue" stroke="midnightblue" points="552,-93.32 541.59,-95.32 550.98,-100.25 552,-93.32"/>
</g>
<!-- Node35 -->
<g id="node35" class="node">
<title>Node35</title>
<g id="a_node35"><a xlink:href="compat_2vsomeip_2internal_2deserializable_8hpp.html" target="_top" xlink:title=" ">
<polygon fill="white" stroke="black" points="1330,-67.5 1330,-97.5 1462,-97.5 1462,-67.5 1330,-67.5"/>
<text text-anchor="start" x="1338" y="-85.5" font-family="Helvetica" font-size="10.00">../../compat/vsomeip</text>
<text text-anchor="middle" x="1396" y="-74.5" font-family="Helvetica" font-size="10.00">/internal/deserializable.hpp</text>
</a>
</g>
</g>
<!-- Node34&#45;&gt;Node35 -->
<g id="edge56" class="edge">
<title>Node34&#45;&gt;Node35</title>
<path fill="none" stroke="midnightblue" d="M1400.7,-134.4C1399.97,-126.56 1399.05,-116.6 1398.22,-107.57"/>
<polygon fill="midnightblue" stroke="midnightblue" points="1401.7,-107.21 1397.3,-97.58 1394.73,-107.86 1401.7,-107.21"/>
</g>
<!-- Node36 -->
<g id="node36" class="node">
<title>Node36</title>
<g id="a_node36"><a xlink:href="compat_2vsomeip_2internal_2serializable_8hpp.html" target="_top" xlink:title=" ">
<polygon fill="white" stroke="black" points="1480,-67.5 1480,-97.5 1602,-97.5 1602,-67.5 1480,-67.5"/>
<text text-anchor="start" x="1488" y="-85.5" font-family="Helvetica" font-size="10.00">../../compat/vsomeip</text>
<text text-anchor="middle" x="1541" y="-74.5" font-family="Helvetica" font-size="10.00">/internal/serializable.hpp</text>
</a>
</g>
</g>
<!-- Node34&#45;&gt;Node36 -->
<g id="edge58" class="edge">
<title>Node34&#45;&gt;Node36</title>
<path fill="none" stroke="midnightblue" d="M1432.16,-134.4C1452.56,-124.86 1479.7,-112.16 1501.78,-101.84"/>
<polygon fill="midnightblue" stroke="midnightblue" points="1503.32,-104.98 1510.9,-97.58 1500.36,-98.64 1503.32,-104.98"/>
</g>
<!-- Node35&#45;&gt;Node8 -->
<g id="edge57" class="edge">
<title>Node35&#45;&gt;Node8</title>
<path fill="none" stroke="midnightblue" d="M1411.62,-67.4C1421.34,-58.62 1434.01,-47.18 1444.88,-37.37"/>
<polygon fill="midnightblue" stroke="midnightblue" points="1447.33,-39.88 1452.41,-30.58 1442.64,-34.68 1447.33,-39.88"/>
</g>
<!-- Node36&#45;&gt;Node8 -->
<g id="edge59" class="edge">
<title>Node36&#45;&gt;Node8</title>
<path fill="none" stroke="midnightblue" d="M1525.16,-67.4C1515.31,-58.62 1502.46,-47.18 1491.44,-37.37"/>
<polygon fill="midnightblue" stroke="midnightblue" points="1493.6,-34.61 1483.81,-30.58 1488.95,-39.84 1493.6,-34.61"/>
</g>
<!-- Node37&#45;&gt;Node8 -->
<g id="edge62" class="edge">
<title>Node37&#45;&gt;Node8</title>
<path fill="none" stroke="midnightblue" d="M1587.26,-273.9C1608.88,-266.62 1634.86,-253.76 1648,-232 1671.08,-193.79 1700.15,-151.52 1628,-67 1604.26,-39.19 1565.34,-26.51 1531.83,-20.81"/>
<polygon fill="midnightblue" stroke="midnightblue" points="1532.04,-17.3 1521.62,-19.26 1530.98,-24.22 1532.04,-17.3"/>
</g>
<!-- Node37&#45;&gt;Node33 -->
<g id="edge63" class="edge">
<title>Node37&#45;&gt;Node33</title>
<path fill="none" stroke="midnightblue" d="M1535.68,-273.73C1515.18,-262.72 1479.8,-243.71 1455.91,-230.88"/>
<polygon fill="midnightblue" stroke="midnightblue" points="1457.53,-227.78 1447.06,-226.13 1454.21,-233.94 1457.53,-227.78"/>
</g>
<!-- Node38 -->
<g id="node38" class="node">
<title>Node38</title>
<g id="a_node38"><a xlink:title=" ">
<polygon fill="white" stroke="#bfbfbf" points="1524.5,-207 1524.5,-226 1639.5,-226 1639.5,-207 1524.5,-207"/>
<text text-anchor="middle" x="1582" y="-214" font-family="Helvetica" font-size="10.00">vsomeip/message.hpp</text>
</a>
</g>
</g>
<!-- Node37&#45;&gt;Node38 -->
<g id="edge64" class="edge">
<title>Node37&#45;&gt;Node38</title>
<path fill="none" stroke="midnightblue" d="M1556.05,-273.73C1560.54,-263.99 1567.93,-247.98 1573.68,-235.53"/>
<polygon fill="midnightblue" stroke="midnightblue" points="1577.01,-236.67 1578.02,-226.13 1570.65,-233.74 1577.01,-236.67"/>
</g>
<!-- Node40 -->
<g id="node40" class="node">
<title>Node40</title>
<g id="a_node40"><a xlink:href="compat_2vsomeip_2payload_8hpp.html" target="_top" xlink:title=" ">
<polygon fill="white" stroke="black" points="1474,-140 1474,-159 1618,-159 1618,-140 1474,-140"/>
<text text-anchor="middle" x="1546" y="-147" font-family="Helvetica" font-size="10.00">compat/vsomeip/payload.hpp</text>
</a>
</g>
</g>
<!-- Node39&#45;&gt;Node40 -->
<g id="edge66" class="edge">
<title>Node39&#45;&gt;Node40</title>
<path fill="none" stroke="midnightblue" d="M1705.99,-201.48C1669.1,-189.72 1617.07,-173.14 1582.47,-162.12"/>
<polygon fill="midnightblue" stroke="midnightblue" points="1583.36,-158.73 1572.77,-159.03 1581.23,-165.4 1583.36,-158.73"/>
</g>
<!-- Node41 -->
<g id="node41" class="node">
<title>Node41</title>
<g id="a_node41"><a xlink:title=" ">
<polygon fill="white" stroke="#bfbfbf" points="1696.5,-140 1696.5,-159 1805.5,-159 1805.5,-140 1696.5,-140"/>
<text text-anchor="middle" x="1751" y="-147" font-family="Helvetica" font-size="10.00">vsomeip/payload.hpp</text>
</a>
</g>
</g>
<!-- Node39&#45;&gt;Node41 -->
<g id="edge72" class="edge">
<title>Node39&#45;&gt;Node41</title>
<path fill="none" stroke="midnightblue" d="M1750.22,-201.4C1750.36,-192.06 1750.55,-179.71 1750.71,-169.52"/>
<polygon fill="midnightblue" stroke="midnightblue" points="1754.21,-169.25 1750.87,-159.19 1747.21,-169.14 1754.21,-169.25"/>
</g>
<!-- Node40&#45;&gt;Node7 -->
<g id="edge67" class="edge">
<title>Node40&#45;&gt;Node7</title>
<path fill="none" stroke="midnightblue" d="M1502.72,-140C1490.26,-137.78 1476.62,-135.58 1464,-134 1247.32,-106.95 1191.5,-117.41 974,-98 937.62,-94.75 895.92,-90.27 867.97,-87.15"/>
<polygon fill="midnightblue" stroke="midnightblue" points="868.3,-83.66 857.97,-86.02 867.51,-90.62 868.3,-83.66"/>
</g>
<!-- Node40&#45;&gt;Node8 -->
<g id="edge68" class="edge">
<title>Node40&#45;&gt;Node8</title>
<path fill="none" stroke="midnightblue" d="M1564.74,-139.93C1580.33,-131.66 1601.45,-117.51 1611,-98 1617.06,-85.62 1618.96,-78.25 1611,-67 1592.98,-41.52 1560.99,-28.81 1531.83,-22.51"/>
<polygon fill="midnightblue" stroke="midnightblue" points="1532.15,-19 1521.66,-20.53 1530.81,-25.88 1532.15,-19"/>
</g>
<!-- Node40&#45;&gt;Node9 -->
<g id="edge71" class="edge">
<title>Node40&#45;&gt;Node9</title>
<path fill="none" stroke="midnightblue" d="M1503.58,-140C1490.9,-137.72 1476.93,-135.49 1464,-134 1172.61,-100.4 1097.17,-124.05 805,-98 787.62,-96.45 768.83,-94.32 751.51,-92.18"/>
<polygon fill="midnightblue" stroke="midnightblue" points="751.86,-88.69 741.5,-90.92 750.99,-95.64 751.86,-88.69"/>
</g>
<!-- Node40&#45;&gt;Node35 -->
<g id="edge69" class="edge">
<title>Node40&#45;&gt;Node35</title>
<path fill="none" stroke="midnightblue" d="M1526.08,-139.87C1503.67,-130.16 1466.64,-114.11 1437.8,-101.61"/>
<polygon fill="midnightblue" stroke="midnightblue" points="1438.94,-98.29 1428.37,-97.53 1436.16,-104.72 1438.94,-98.29"/>
</g>
<!-- Node40&#45;&gt;Node36 -->
<g id="edge70" class="edge">
<title>Node40&#45;&gt;Node36</title>
<path fill="none" stroke="midnightblue" d="M1545.33,-139.73C1544.7,-131.54 1543.72,-118.92 1542.86,-107.71"/>
<polygon fill="midnightblue" stroke="midnightblue" points="1546.34,-107.29 1542.08,-97.59 1539.36,-107.83 1546.34,-107.29"/>
</g>
</g>
</svg>
