<?xml version="1.0" encoding="UTF-8" standalone="no"?>
<!DOCTYPE svg PUBLIC "-//W3C//DTD SVG 1.1//EN"
 "http://www.w3.org/Graphics/SVG/1.1/DTD/svg11.dtd">
<!-- Generated by graphviz version 2.44.0 (0)
 -->
<!-- Title: /home/ec2&#45;user/workspace/vsomeip/implementation/compat/message/include/message_base_impl.hpp Pages: 1 -->
<svg width="496pt" height="239pt"
 viewBox="0.00 0.00 496.00 239.00" xmlns="http://www.w3.org/2000/svg" xmlns:xlink="http://www.w3.org/1999/xlink">
<g id="graph0" class="graph" transform="scale(1 1) rotate(0) translate(4 235)">
<title>/home/ec2&#45;user/workspace/vsomeip/implementation/compat/message/include/message_base_impl.hpp</title>
<polygon fill="white" stroke="transparent" points="-4,4 -4,-235 492,-235 492,4 -4,4"/>
<!-- Node1 -->
<g id="node1" class="node">
<title>Node1</title>
<g id="a_node1"><a xlink:title=" ">
<polygon fill="#bfbfbf" stroke="black" points="263,-178.5 263,-230.5 397,-230.5 397,-178.5 263,-178.5"/>
<text text-anchor="start" x="271" y="-218.5" font-family="Helvetica" font-size="10.00">/home/ec2&#45;user/workspace</text>
<text text-anchor="start" x="271" y="-207.5" font-family="Helvetica" font-size="10.00">/vsomeip/implementation</text>
<text text-anchor="start" x="271" y="-196.5" font-family="Helvetica" font-size="10.00">/compat/message/include</text>
<text text-anchor="middle" x="330" y="-185.5" font-family="Helvetica" font-size="10.00">/message_base_impl.hpp</text>
</a>
</g>
</g>
<!-- Node2 -->
<g id="node2" class="node">
<title>Node2</title>
<g id="a_node2"><a xlink:href="compat_2message_2include_2message__impl_8hpp.html" target="_top" xlink:title=" ">
<polygon fill="white" stroke="black" points="182,-89.5 182,-141.5 316,-141.5 316,-89.5 182,-89.5"/>
<text text-anchor="start" x="190" y="-129.5" font-family="Helvetica" font-size="10.00">/home/ec2&#45;user/workspace</text>
<text text-anchor="start" x="190" y="-118.5" font-family="Helvetica" font-size="10.00">/vsomeip/implementation</text>
<text text-anchor="start" x="190" y="-107.5" font-family="Helvetica" font-size="10.00">/compat/message/include</text>
<text text-anchor="middle" x="249" y="-96.5" font-family="Helvetica" font-size="10.00">/message_impl.hpp</text>
</a>
</g>
</g>
<!-- Node1&#45;&gt;Node2 -->
<g id="edge1" class="edge">
<title>Node1&#45;&gt;Node2</title>
<path fill="none" stroke="midnightblue" d="M299.55,-170.79C290.55,-161.13 280.85,-150.71 272.38,-141.61"/>
<polygon fill="midnightblue" stroke="midnightblue" points="297.2,-173.4 306.57,-178.34 302.32,-168.63 297.2,-173.4"/>
</g>
<!-- Node6 -->
<g id="node6" class="node">
<title>Node6</title>
<g id="a_node6"><a xlink:href="compat_2message_2src_2message__base__impl_8cpp.html" target="_top" xlink:title=" ">
<polygon fill="white" stroke="black" points="334,-89.5 334,-141.5 488,-141.5 488,-89.5 334,-89.5"/>
<text text-anchor="start" x="342" y="-129.5" font-family="Helvetica" font-size="10.00">/home/ec2&#45;user/workspace</text>
<text text-anchor="start" x="342" y="-118.5" font-family="Helvetica" font-size="10.00">/vsomeip/implementation</text>
<text text-anchor="start" x="342" y="-107.5" font-family="Helvetica" font-size="10.00">/compat/message/src/message</text>
<text text-anchor="middle" x="411" y="-96.5" font-family="Helvetica" font-size="10.00">_base_impl.cpp</text>
</a>
</g>
</g>
<!-- Node1&#45;&gt;Node6 -->
<g id="edge5" class="edge">
<title>Node1&#45;&gt;Node6</title>
<path fill="none" stroke="midnightblue" d="M360.45,-170.79C369.45,-161.13 379.15,-150.71 387.62,-141.61"/>
<polygon fill="midnightblue" stroke="midnightblue" points="357.68,-168.63 353.43,-178.34 362.8,-173.4 357.68,-168.63"/>
</g>
<!-- Node3 -->
<g id="node3" class="node">
<title>Node3</title>
<g id="a_node3"><a xlink:href="compat_2message_2src_2message__impl_8cpp.html" target="_top" xlink:title=" ">
<polygon fill="white" stroke="black" points="0,-0.5 0,-52.5 154,-52.5 154,-0.5 0,-0.5"/>
<text text-anchor="start" x="8" y="-40.5" font-family="Helvetica" font-size="10.00">/home/ec2&#45;user/workspace</text>
<text text-anchor="start" x="8" y="-29.5" font-family="Helvetica" font-size="10.00">/vsomeip/implementation</text>
<text text-anchor="start" x="8" y="-18.5" font-family="Helvetica" font-size="10.00">/compat/message/src/message</text>
<text text-anchor="middle" x="77" y="-7.5" font-family="Helvetica" font-size="10.00">_impl.cpp</text>
</a>
</g>
</g>
<!-- Node2&#45;&gt;Node3 -->
<g id="edge2" class="edge">
<title>Node2&#45;&gt;Node3</title>
<path fill="none" stroke="midnightblue" d="M190.24,-84.78C169.54,-74.31 146.5,-62.66 126.64,-52.61"/>
<polygon fill="midnightblue" stroke="midnightblue" points="188.75,-87.95 199.25,-89.34 191.91,-81.7 188.75,-87.95"/>
</g>
<!-- Node4 -->
<g id="node4" class="node">
<title>Node4</title>
<g id="a_node4"><a xlink:href="compat_2runtime_2src_2application__impl_8cpp.html" target="_top" xlink:title=" ">
<polygon fill="white" stroke="black" points="172.5,-0.5 172.5,-52.5 325.5,-52.5 325.5,-0.5 172.5,-0.5"/>
<text text-anchor="start" x="180.5" y="-40.5" font-family="Helvetica" font-size="10.00">/home/ec2&#45;user/workspace</text>
<text text-anchor="start" x="180.5" y="-29.5" font-family="Helvetica" font-size="10.00">/vsomeip/implementation</text>
<text text-anchor="start" x="180.5" y="-18.5" font-family="Helvetica" font-size="10.00">/compat/runtime/src/application</text>
<text text-anchor="middle" x="249" y="-7.5" font-family="Helvetica" font-size="10.00">_impl.cpp</text>
</a>
</g>
</g>
<!-- Node2&#45;&gt;Node4 -->
<g id="edge3" class="edge">
<title>Node2&#45;&gt;Node4</title>
<path fill="none" stroke="midnightblue" d="M249,-79.19C249,-70.28 249,-60.9 249,-52.61"/>
<polygon fill="midnightblue" stroke="midnightblue" points="245.5,-79.34 249,-89.34 252.5,-79.34 245.5,-79.34"/>
</g>
<!-- Node5 -->
<g id="node5" class="node">
<title>Node5</title>
<g id="a_node5"><a xlink:href="compat_2runtime_2src_2runtime__impl_8cpp.html" target="_top" xlink:title=" ">
<polygon fill="white" stroke="black" points="343.5,-0.5 343.5,-52.5 482.5,-52.5 482.5,-0.5 343.5,-0.5"/>
<text text-anchor="start" x="351.5" y="-40.5" font-family="Helvetica" font-size="10.00">/home/ec2&#45;user/workspace</text>
<text text-anchor="start" x="351.5" y="-29.5" font-family="Helvetica" font-size="10.00">/vsomeip/implementation</text>
<text text-anchor="start" x="351.5" y="-18.5" font-family="Helvetica" font-size="10.00">/compat/runtime/src/runtime</text>
<text text-anchor="middle" x="413" y="-7.5" font-family="Helvetica" font-size="10.00">_impl.cpp</text>
</a>
</g>
</g>
<!-- Node2&#45;&gt;Node5 -->
<g id="edge4" class="edge">
<title>Node2&#45;&gt;Node5</title>
<path fill="none" stroke="midnightblue" d="M305.3,-84.64C324.96,-74.2 346.81,-62.61 365.67,-52.61"/>
<polygon fill="midnightblue" stroke="midnightblue" points="303.63,-81.56 296.44,-89.34 306.91,-87.74 303.63,-81.56"/>
</g>
</g>
</svg>
