<?xml version="1.0" encoding="UTF-8" standalone="no"?>
<!DOCTYPE svg PUBLIC "-//W3C//DTD SVG 1.1//EN"
 "http://www.w3.org/Graphics/SVG/1.1/DTD/svg11.dtd">
<!-- Generated by graphviz version 2.44.0 (0)
 -->
<!-- Title: /home/ec2&#45;user/workspace/vsomeip/implementation/compat/message/src/message_base_impl.cpp Pages: 1 -->
<svg width="1181pt" height="374pt"
 viewBox="0.00 0.00 1180.70 374.00" xmlns="http://www.w3.org/2000/svg" xmlns:xlink="http://www.w3.org/1999/xlink">
<g id="graph0" class="graph" transform="scale(1 1) rotate(0) translate(4 370)">
<title>/home/ec2&#45;user/workspace/vsomeip/implementation/compat/message/src/message_base_impl.cpp</title>
<polygon fill="white" stroke="transparent" points="-4,4 -4,-370 1176.7,-370 1176.7,4 -4,4"/>
<!-- Node1 -->
<g id="node1" class="node">
<title>Node1</title>
<g id="a_node1"><a xlink:title=" ">
<polygon fill="#bfbfbf" stroke="black" points="448.7,-313.5 448.7,-365.5 602.7,-365.5 602.7,-313.5 448.7,-313.5"/>
<text text-anchor="start" x="456.7" y="-353.5" font-family="Helvetica" font-size="10.00">/home/ec2&#45;user/workspace</text>
<text text-anchor="start" x="456.7" y="-342.5" font-family="Helvetica" font-size="10.00">/vsomeip/implementation</text>
<text text-anchor="start" x="456.7" y="-331.5" font-family="Helvetica" font-size="10.00">/compat/message/src/message</text>
<text text-anchor="middle" x="525.7" y="-320.5" font-family="Helvetica" font-size="10.00">_base_impl.cpp</text>
</a>
</g>
</g>
<!-- Node2 -->
<g id="node2" class="node">
<title>Node2</title>
<g id="a_node2"><a xlink:title=" ">
<polygon fill="white" stroke="#bfbfbf" points="351.2,-252 351.2,-271 458.2,-271 458.2,-252 351.2,-252"/>
<text text-anchor="middle" x="404.7" y="-259" font-family="Helvetica" font-size="10.00">vsomeip/runtime.hpp</text>
</a>
</g>
</g>
<!-- Node1&#45;&gt;Node2 -->
<g id="edge1" class="edge">
<title>Node1&#45;&gt;Node2</title>
<path fill="none" stroke="midnightblue" d="M485.74,-313.4C466.29,-301.19 443.63,-286.95 427.22,-276.65"/>
<polygon fill="midnightblue" stroke="midnightblue" points="428.68,-273.43 418.35,-271.08 424.96,-279.36 428.68,-273.43"/>
</g>
<!-- Node3 -->
<g id="node3" class="node">
<title>Node3</title>
<g id="a_node3"><a xlink:href="compat_2message_2include_2message__base__impl_8hpp.html" target="_top" xlink:title=" ">
<polygon fill="white" stroke="black" points="476.2,-246.5 476.2,-276.5 575.2,-276.5 575.2,-246.5 476.2,-246.5"/>
<text text-anchor="start" x="484.2" y="-264.5" font-family="Helvetica" font-size="10.00">../include/message</text>
<text text-anchor="middle" x="525.7" y="-253.5" font-family="Helvetica" font-size="10.00">_base_impl.hpp</text>
</a>
</g>
</g>
<!-- Node1&#45;&gt;Node3 -->
<g id="edge2" class="edge">
<title>Node1&#45;&gt;Node3</title>
<path fill="none" stroke="midnightblue" d="M525.7,-313.19C525.7,-304.79 525.7,-295.44 525.7,-287.09"/>
<polygon fill="midnightblue" stroke="midnightblue" points="529.2,-286.85 525.7,-276.85 522.2,-286.85 529.2,-286.85"/>
</g>
<!-- Node15 -->
<g id="node15" class="node">
<title>Node15</title>
<g id="a_node15"><a xlink:href="message_2include_2message__impl_8hpp.html" target="_top" xlink:title=" ">
<polygon fill="white" stroke="black" points="644.2,-246.5 644.2,-276.5 761.2,-276.5 761.2,-246.5 644.2,-246.5"/>
<text text-anchor="start" x="652.2" y="-264.5" font-family="Helvetica" font-size="10.00">../../../message/include</text>
<text text-anchor="middle" x="702.7" y="-253.5" font-family="Helvetica" font-size="10.00">/message_impl.hpp</text>
</a>
</g>
</g>
<!-- Node1&#45;&gt;Node15 -->
<g id="edge18" class="edge">
<title>Node1&#45;&gt;Node15</title>
<path fill="none" stroke="midnightblue" d="M584.14,-313.4C609.08,-302.7 637.62,-290.44 660.46,-280.64"/>
<polygon fill="midnightblue" stroke="midnightblue" points="662.06,-283.76 669.86,-276.6 659.29,-277.33 662.06,-283.76"/>
</g>
<!-- Node4 -->
<g id="node4" class="node">
<title>Node4</title>
<g id="a_node4"><a xlink:href="compat_2vsomeip_2export_8hpp.html" target="_top" xlink:title=" ">
<polygon fill="white" stroke="black" points="86.2,-0.5 86.2,-19.5 223.2,-19.5 223.2,-0.5 86.2,-0.5"/>
<text text-anchor="middle" x="154.7" y="-7.5" font-family="Helvetica" font-size="10.00">compat/vsomeip/export.hpp</text>
</a>
</g>
</g>
<!-- Node3&#45;&gt;Node4 -->
<g id="edge3" class="edge">
<title>Node3&#45;&gt;Node4</title>
<path fill="none" stroke="midnightblue" d="M475.95,-247.41C351.61,-214.21 35.18,-126.56 6.7,-87 -18.39,-52.17 35.51,-32.17 85.16,-21.52"/>
<polygon fill="midnightblue" stroke="midnightblue" points="85.9,-24.94 95,-19.51 84.5,-18.08 85.9,-24.94"/>
</g>
<!-- Node5 -->
<g id="node5" class="node">
<title>Node5</title>
<g id="a_node5"><a xlink:href="compat_2vsomeip_2message_8hpp.html" target="_top" xlink:title=" ">
<polygon fill="white" stroke="black" points="400.7,-190.5 400.7,-209.5 550.7,-209.5 550.7,-190.5 400.7,-190.5"/>
<text text-anchor="middle" x="475.7" y="-197.5" font-family="Helvetica" font-size="10.00">compat/vsomeip/message.hpp</text>
</a>
</g>
</g>
<!-- Node3&#45;&gt;Node5 -->
<g id="edge4" class="edge">
<title>Node3&#45;&gt;Node5</title>
<path fill="none" stroke="midnightblue" d="M513.85,-246.4C506.58,-237.75 497.24,-226.64 489.62,-217.58"/>
<polygon fill="midnightblue" stroke="midnightblue" points="492.08,-215.06 482.97,-209.66 486.72,-219.57 492.08,-215.06"/>
</g>
<!-- Node14 -->
<g id="node14" class="node">
<title>Node14</title>
<g id="a_node14"><a xlink:title=" ">
<polygon fill="white" stroke="#bfbfbf" points="559.2,-129 559.2,-148 674.2,-148 674.2,-129 559.2,-129"/>
<text text-anchor="middle" x="616.7" y="-136" font-family="Helvetica" font-size="10.00">vsomeip/message.hpp</text>
</a>
</g>
</g>
<!-- Node3&#45;&gt;Node14 -->
<g id="edge17" class="edge">
<title>Node3&#45;&gt;Node14</title>
<path fill="none" stroke="midnightblue" d="M536.49,-246.14C553.44,-223.61 586.21,-180.04 604.17,-156.16"/>
<polygon fill="midnightblue" stroke="midnightblue" points="607.05,-158.15 610.26,-148.05 601.46,-153.94 607.05,-158.15"/>
</g>
<!-- Node6 -->
<g id="node6" class="node">
<title>Node6</title>
<g id="a_node6"><a xlink:title=" ">
<polygon fill="white" stroke="#bfbfbf" points="469.2,-129 469.2,-148 522.2,-148 522.2,-129 469.2,-129"/>
<text text-anchor="middle" x="495.7" y="-136" font-family="Helvetica" font-size="10.00">memory</text>
</a>
</g>
</g>
<!-- Node5&#45;&gt;Node6 -->
<g id="edge5" class="edge">
<title>Node5&#45;&gt;Node6</title>
<path fill="none" stroke="midnightblue" d="M478.56,-190.48C481.41,-181.99 485.88,-168.7 489.54,-157.82"/>
<polygon fill="midnightblue" stroke="midnightblue" points="492.97,-158.6 492.84,-148.01 486.33,-156.37 492.97,-158.6"/>
</g>
<!-- Node7 -->
<g id="node7" class="node">
<title>Node7</title>
<g id="a_node7"><a xlink:href="compat_2vsomeip_2message__base_8hpp.html" target="_top" xlink:title=" ">
<polygon fill="white" stroke="black" points="291.2,-123.5 291.2,-153.5 398.2,-153.5 398.2,-123.5 291.2,-123.5"/>
<text text-anchor="start" x="299.2" y="-141.5" font-family="Helvetica" font-size="10.00">../../compat/vsomeip</text>
<text text-anchor="middle" x="344.7" y="-130.5" font-family="Helvetica" font-size="10.00">/message_base.hpp</text>
</a>
</g>
</g>
<!-- Node5&#45;&gt;Node7 -->
<g id="edge6" class="edge">
<title>Node5&#45;&gt;Node7</title>
<path fill="none" stroke="midnightblue" d="M456.93,-190.48C438.19,-181.96 408.81,-168.62 384.81,-157.72"/>
<polygon fill="midnightblue" stroke="midnightblue" points="386.12,-154.47 375.57,-153.52 383.23,-160.85 386.12,-154.47"/>
</g>
<!-- Node7&#45;&gt;Node4 -->
<g id="edge9" class="edge">
<title>Node7&#45;&gt;Node4</title>
<path fill="none" stroke="midnightblue" d="M339.95,-123.25C333.19,-105.06 319.04,-73.8 296.7,-56 275.62,-39.21 248.19,-28.64 223.06,-22"/>
<polygon fill="midnightblue" stroke="midnightblue" points="223.74,-18.56 213.19,-19.55 222.06,-25.35 223.74,-18.56"/>
</g>
<!-- Node8 -->
<g id="node8" class="node">
<title>Node8</title>
<g id="a_node8"><a xlink:href="interface_2compat_2vsomeip_2enumeration__types_8hpp.html" target="_top" xlink:title=" ">
<polygon fill="white" stroke="black" points="344.2,-56.5 344.2,-86.5 465.2,-86.5 465.2,-56.5 344.2,-56.5"/>
<text text-anchor="start" x="352.2" y="-74.5" font-family="Helvetica" font-size="10.00">../../compat/vsomeip</text>
<text text-anchor="middle" x="404.7" y="-63.5" font-family="Helvetica" font-size="10.00">/enumeration_types.hpp</text>
</a>
</g>
</g>
<!-- Node7&#45;&gt;Node8 -->
<g id="edge7" class="edge">
<title>Node7&#45;&gt;Node8</title>
<path fill="none" stroke="midnightblue" d="M357.71,-123.4C365.66,-114.79 375.96,-103.63 384.9,-93.94"/>
<polygon fill="midnightblue" stroke="midnightblue" points="387.49,-96.3 391.7,-86.58 382.35,-91.55 387.49,-96.3"/>
</g>
<!-- Node10 -->
<g id="node10" class="node">
<title>Node10</title>
<g id="a_node10"><a xlink:href="compat_2vsomeip_2internal_2deserializable_8hpp.html" target="_top" xlink:title=" ">
<polygon fill="white" stroke="black" points="15.7,-56.5 15.7,-86.5 147.7,-86.5 147.7,-56.5 15.7,-56.5"/>
<text text-anchor="start" x="23.7" y="-74.5" font-family="Helvetica" font-size="10.00">../../compat/vsomeip</text>
<text text-anchor="middle" x="81.7" y="-63.5" font-family="Helvetica" font-size="10.00">/internal/deserializable.hpp</text>
</a>
</g>
</g>
<!-- Node7&#45;&gt;Node10 -->
<g id="edge10" class="edge">
<title>Node7&#45;&gt;Node10</title>
<path fill="none" stroke="midnightblue" d="M291.16,-124.27C249.83,-114.05 192.41,-99.86 148.15,-88.92"/>
<polygon fill="midnightblue" stroke="midnightblue" points="148.89,-85.5 138.34,-86.5 147.21,-92.3 148.89,-85.5"/>
</g>
<!-- Node11 -->
<g id="node11" class="node">
<title>Node11</title>
<g id="a_node11"><a xlink:href="compat_2vsomeip_2internal_2serializable_8hpp.html" target="_top" xlink:title=" ">
<polygon fill="white" stroke="black" points="165.7,-56.5 165.7,-86.5 287.7,-86.5 287.7,-56.5 165.7,-56.5"/>
<text text-anchor="start" x="173.7" y="-74.5" font-family="Helvetica" font-size="10.00">../../compat/vsomeip</text>
<text text-anchor="middle" x="226.7" y="-63.5" font-family="Helvetica" font-size="10.00">/internal/serializable.hpp</text>
</a>
</g>
</g>
<!-- Node7&#45;&gt;Node11 -->
<g id="edge12" class="edge">
<title>Node7&#45;&gt;Node11</title>
<path fill="none" stroke="midnightblue" d="M319.09,-123.4C302.16,-114.07 279.76,-101.73 261.25,-91.53"/>
<polygon fill="midnightblue" stroke="midnightblue" points="262.7,-88.34 252.25,-86.58 259.32,-94.47 262.7,-88.34"/>
</g>
<!-- Node12 -->
<g id="node12" class="node">
<title>Node12</title>
<g id="a_node12"><a xlink:href="interface_2compat_2vsomeip_2primitive__types_8hpp.html" target="_top" xlink:title=" ">
<polygon fill="white" stroke="black" points="483.2,-56.5 483.2,-86.5 590.2,-86.5 590.2,-56.5 483.2,-56.5"/>
<text text-anchor="start" x="491.2" y="-74.5" font-family="Helvetica" font-size="10.00">../../compat/vsomeip</text>
<text text-anchor="middle" x="536.7" y="-63.5" font-family="Helvetica" font-size="10.00">/primitive_types.hpp</text>
</a>
</g>
</g>
<!-- Node7&#45;&gt;Node12 -->
<g id="edge14" class="edge">
<title>Node7&#45;&gt;Node12</title>
<path fill="none" stroke="midnightblue" d="M386.36,-123.4C415.42,-113.56 454.38,-100.37 485.36,-89.88"/>
<polygon fill="midnightblue" stroke="midnightblue" points="486.77,-93.1 495.12,-86.58 484.52,-86.47 486.77,-93.1"/>
</g>
<!-- Node9 -->
<g id="node9" class="node">
<title>Node9</title>
<g id="a_node9"><a xlink:title=" ">
<polygon fill="white" stroke="#bfbfbf" points="417.7,-0.5 417.7,-19.5 463.7,-19.5 463.7,-0.5 417.7,-0.5"/>
<text text-anchor="middle" x="440.7" y="-7.5" font-family="Helvetica" font-size="10.00">cstdint</text>
</a>
</g>
</g>
<!-- Node8&#45;&gt;Node9 -->
<g id="edge8" class="edge">
<title>Node8&#45;&gt;Node9</title>
<path fill="none" stroke="midnightblue" d="M413.23,-56.4C418.3,-48.02 424.77,-37.33 430.15,-28.42"/>
<polygon fill="midnightblue" stroke="midnightblue" points="433.27,-30.03 435.46,-19.66 427.29,-26.4 433.27,-30.03"/>
</g>
<!-- Node10&#45;&gt;Node4 -->
<g id="edge11" class="edge">
<title>Node10&#45;&gt;Node4</title>
<path fill="none" stroke="midnightblue" d="M99,-56.4C110.15,-47.31 124.65,-35.49 136.06,-26.19"/>
<polygon fill="midnightblue" stroke="midnightblue" points="138.53,-28.69 144.07,-19.66 134.11,-23.26 138.53,-28.69"/>
</g>
<!-- Node11&#45;&gt;Node4 -->
<g id="edge13" class="edge">
<title>Node11&#45;&gt;Node4</title>
<path fill="none" stroke="midnightblue" d="M209.63,-56.4C198.63,-47.31 184.33,-35.49 173.08,-26.19"/>
<polygon fill="midnightblue" stroke="midnightblue" points="175.11,-23.33 165.17,-19.66 170.65,-28.73 175.11,-23.33"/>
</g>
<!-- Node12&#45;&gt;Node9 -->
<g id="edge16" class="edge">
<title>Node12&#45;&gt;Node9</title>
<path fill="none" stroke="midnightblue" d="M513.94,-56.4C498.7,-46.95 478.71,-34.56 463.46,-25.11"/>
<polygon fill="midnightblue" stroke="midnightblue" points="465.01,-21.95 454.66,-19.66 461.32,-27.9 465.01,-21.95"/>
</g>
<!-- Node13 -->
<g id="node13" class="node">
<title>Node13</title>
<g id="a_node13"><a xlink:title=" ">
<polygon fill="white" stroke="#bfbfbf" points="517.7,-0.5 517.7,-19.5 555.7,-19.5 555.7,-0.5 517.7,-0.5"/>
<text text-anchor="middle" x="536.7" y="-7.5" font-family="Helvetica" font-size="10.00">array</text>
</a>
</g>
</g>
<!-- Node12&#45;&gt;Node13 -->
<g id="edge15" class="edge">
<title>Node12&#45;&gt;Node13</title>
<path fill="none" stroke="midnightblue" d="M536.7,-56.4C536.7,-48.47 536.7,-38.46 536.7,-29.86"/>
<polygon fill="midnightblue" stroke="midnightblue" points="540.2,-29.66 536.7,-19.66 533.2,-29.66 540.2,-29.66"/>
</g>
<!-- Node15&#45;&gt;Node6 -->
<g id="edge19" class="edge">
<title>Node15&#45;&gt;Node6</title>
<path fill="none" stroke="midnightblue" d="M678.54,-246.38C638.46,-222.95 558.69,-176.32 519.1,-153.18"/>
<polygon fill="midnightblue" stroke="midnightblue" points="520.79,-150.12 510.39,-148.09 517.26,-156.16 520.79,-150.12"/>
</g>
<!-- Node16 -->
<g id="node16" class="node">
<title>Node16</title>
<g id="a_node16"><a xlink:title=" ">
<polygon fill="white" stroke="#bfbfbf" points="1070.7,-62 1070.7,-81 1172.7,-81 1172.7,-62 1070.7,-62"/>
<text text-anchor="middle" x="1121.7" y="-69" font-family="Helvetica" font-size="10.00">vsomeip/export.hpp</text>
</a>
</g>
</g>
<!-- Node15&#45;&gt;Node16 -->
<g id="edge20" class="edge">
<title>Node15&#45;&gt;Node16</title>
<path fill="none" stroke="midnightblue" d="M761.22,-252.36C832.73,-240.25 955.12,-212.33 1043.7,-154 1070.68,-136.23 1095.29,-107.51 1109.37,-89.34"/>
<polygon fill="midnightblue" stroke="midnightblue" points="1112.16,-91.44 1115.4,-81.36 1106.57,-87.22 1112.16,-91.44"/>
</g>
<!-- Node17 -->
<g id="node17" class="node">
<title>Node17</title>
<g id="a_node17"><a xlink:title=" ">
<polygon fill="white" stroke="#bfbfbf" points="608.7,-62 608.7,-81 748.7,-81 748.7,-62 608.7,-62"/>
<text text-anchor="middle" x="678.7" y="-69" font-family="Helvetica" font-size="10.00">vsomeip/primitive_types.hpp</text>
</a>
</g>
</g>
<!-- Node15&#45;&gt;Node17 -->
<g id="edge21" class="edge">
<title>Node15&#45;&gt;Node17</title>
<path fill="none" stroke="midnightblue" d="M700.89,-246.37C696.62,-212.94 685.9,-128.97 681.1,-91.3"/>
<polygon fill="midnightblue" stroke="midnightblue" points="684.54,-90.68 679.81,-81.21 677.6,-91.57 684.54,-90.68"/>
</g>
<!-- Node18 -->
<g id="node18" class="node">
<title>Node18</title>
<g id="a_node18"><a xlink:href="message_2include_2message__base__impl_8hpp.html" target="_top" xlink:title=" ">
<polygon fill="white" stroke="black" points="759.2,-190.5 759.2,-209.5 884.2,-209.5 884.2,-190.5 759.2,-190.5"/>
<text text-anchor="middle" x="821.7" y="-197.5" font-family="Helvetica" font-size="10.00">message_base_impl.hpp</text>
</a>
</g>
</g>
<!-- Node15&#45;&gt;Node18 -->
<g id="edge22" class="edge">
<title>Node15&#45;&gt;Node18</title>
<path fill="none" stroke="midnightblue" d="M730.9,-246.4C750.42,-236.64 776.22,-223.74 795.33,-214.18"/>
<polygon fill="midnightblue" stroke="midnightblue" points="797,-217.26 804.38,-209.66 793.87,-211 797,-217.26"/>
</g>
<!-- Node18&#45;&gt;Node14 -->
<g id="edge25" class="edge">
<title>Node18&#45;&gt;Node14</title>
<path fill="none" stroke="midnightblue" d="M792.32,-190.48C756.4,-180.05 695.46,-162.36 655.65,-150.81"/>
<polygon fill="midnightblue" stroke="midnightblue" points="656.59,-147.44 646.01,-148.01 654.64,-154.16 656.59,-147.44"/>
</g>
<!-- Node18&#45;&gt;Node16 -->
<g id="edge24" class="edge">
<title>Node18&#45;&gt;Node16</title>
<path fill="none" stroke="midnightblue" d="M837.51,-190.47C853.16,-181.84 877.62,-167.83 897.7,-154 915.93,-141.44 916.94,-133.01 936.7,-123 949.36,-116.58 1027.33,-96.28 1077.92,-83.46"/>
<polygon fill="midnightblue" stroke="midnightblue" points="1078.81,-86.85 1087.64,-81 1077.09,-80.06 1078.81,-86.85"/>
</g>
<!-- Node19 -->
<g id="node19" class="node">
<title>Node19</title>
<g id="a_node19"><a xlink:title=" ">
<polygon fill="white" stroke="#bfbfbf" points="945.2,-129 945.2,-148 1034.2,-148 1034.2,-129 945.2,-129"/>
<text text-anchor="middle" x="989.7" y="-136" font-family="Helvetica" font-size="10.00">boost/thread.hpp</text>
</a>
</g>
</g>
<!-- Node18&#45;&gt;Node19 -->
<g id="edge23" class="edge">
<title>Node18&#45;&gt;Node19</title>
<path fill="none" stroke="midnightblue" d="M845.77,-190.48C874.71,-180.22 923.46,-162.96 956.1,-151.4"/>
<polygon fill="midnightblue" stroke="midnightblue" points="957.41,-154.65 965.67,-148.01 955.07,-148.05 957.41,-154.65"/>
</g>
<!-- Node20 -->
<g id="node20" class="node">
<title>Node20</title>
<g id="a_node20"><a xlink:href="message__header__impl_8hpp.html" target="_top" xlink:title=" ">
<polygon fill="white" stroke="black" points="755.2,-129 755.2,-148 888.2,-148 888.2,-129 755.2,-129"/>
<text text-anchor="middle" x="821.7" y="-136" font-family="Helvetica" font-size="10.00">message_header_impl.hpp</text>
</a>
</g>
</g>
<!-- Node18&#45;&gt;Node20 -->
<g id="edge26" class="edge">
<title>Node18&#45;&gt;Node20</title>
<path fill="none" stroke="midnightblue" d="M821.7,-190.48C821.7,-182.08 821.7,-168.98 821.7,-158.16"/>
<polygon fill="midnightblue" stroke="midnightblue" points="825.2,-158.01 821.7,-148.01 818.2,-158.01 825.2,-158.01"/>
</g>
<!-- Node20&#45;&gt;Node16 -->
<g id="edge27" class="edge">
<title>Node20&#45;&gt;Node16</title>
<path fill="none" stroke="midnightblue" d="M864.26,-128.94C912.31,-119.19 992.75,-102.58 1061.7,-87 1066.73,-85.86 1071.99,-84.64 1077.21,-83.41"/>
<polygon fill="midnightblue" stroke="midnightblue" points="1078.24,-86.76 1087.15,-81.03 1076.61,-79.95 1078.24,-86.76"/>
</g>
<!-- Node20&#45;&gt;Node17 -->
<g id="edge28" class="edge">
<title>Node20&#45;&gt;Node17</title>
<path fill="none" stroke="midnightblue" d="M802.71,-128.87C778.24,-117.75 735.49,-98.32 707.14,-85.43"/>
<polygon fill="midnightblue" stroke="midnightblue" points="708.32,-82.12 697.76,-81.17 705.42,-88.49 708.32,-82.12"/>
</g>
<!-- Node21 -->
<g id="node21" class="node">
<title>Node21</title>
<g id="a_node21"><a xlink:title=" ">
<polygon fill="white" stroke="#bfbfbf" points="766.7,-56.5 766.7,-86.5 876.7,-86.5 876.7,-56.5 766.7,-56.5"/>
<text text-anchor="start" x="774.7" y="-74.5" font-family="Helvetica" font-size="10.00">vsomeip/enumeration</text>
<text text-anchor="middle" x="821.7" y="-63.5" font-family="Helvetica" font-size="10.00">_types.hpp</text>
</a>
</g>
</g>
<!-- Node20&#45;&gt;Node21 -->
<g id="edge29" class="edge">
<title>Node20&#45;&gt;Node21</title>
<path fill="none" stroke="midnightblue" d="M821.7,-128.73C821.7,-120.54 821.7,-107.92 821.7,-96.71"/>
<polygon fill="midnightblue" stroke="midnightblue" points="825.2,-96.59 821.7,-86.59 818.2,-96.59 825.2,-96.59"/>
</g>
<!-- Node22 -->
<g id="node22" class="node">
<title>Node22</title>
<g id="a_node22"><a xlink:title=" ">
<polygon fill="white" stroke="#bfbfbf" points="894.7,-62 894.7,-81 1052.7,-81 1052.7,-62 894.7,-62"/>
<text text-anchor="middle" x="973.7" y="-69" font-family="Helvetica" font-size="10.00">vsomeip/internal/serializable.hpp</text>
</a>
</g>
</g>
<!-- Node20&#45;&gt;Node22 -->
<g id="edge30" class="edge">
<title>Node20&#45;&gt;Node22</title>
<path fill="none" stroke="midnightblue" d="M841.88,-128.87C868,-117.7 913.72,-98.15 943.86,-85.26"/>
<polygon fill="midnightblue" stroke="midnightblue" points="945.61,-88.32 953.43,-81.17 942.86,-81.88 945.61,-88.32"/>
</g>
</g>
</svg>
