<?xml version="1.0" encoding="UTF-8" standalone="no"?>
<!DOCTYPE svg PUBLIC "-//W3C//DTD SVG 1.1//EN"
 "http://www.w3.org/Graphics/SVG/1.1/DTD/svg11.dtd">
<!-- Generated by graphviz version 2.44.0 (0)
 -->
<!-- Title: /home/ec2&#45;user/workspace/vsomeip/implementation/compat/message/src/message_impl.cpp Pages: 1 -->
<svg width="1668pt" height="452pt"
 viewBox="0.00 0.00 1667.50 452.00" xmlns="http://www.w3.org/2000/svg" xmlns:xlink="http://www.w3.org/1999/xlink">
<g id="graph0" class="graph" transform="scale(1 1) rotate(0) translate(4 448)">
<title>/home/ec2&#45;user/workspace/vsomeip/implementation/compat/message/src/message_impl.cpp</title>
<polygon fill="white" stroke="transparent" points="-4,4 -4,-448 1663.5,-448 1663.5,4 -4,4"/>
<!-- Node1 -->
<g id="node1" class="node">
<title>Node1</title>
<g id="a_node1"><a xlink:title=" ">
<polygon fill="#bfbfbf" stroke="black" points="631.5,-391.5 631.5,-443.5 785.5,-443.5 785.5,-391.5 631.5,-391.5"/>
<text text-anchor="start" x="639.5" y="-431.5" font-family="Helvetica" font-size="10.00">/home/ec2&#45;user/workspace</text>
<text text-anchor="start" x="639.5" y="-420.5" font-family="Helvetica" font-size="10.00">/vsomeip/implementation</text>
<text text-anchor="start" x="639.5" y="-409.5" font-family="Helvetica" font-size="10.00">/compat/message/src/message</text>
<text text-anchor="middle" x="708.5" y="-398.5" font-family="Helvetica" font-size="10.00">_impl.cpp</text>
</a>
</g>
</g>
<!-- Node2 -->
<g id="node2" class="node">
<title>Node2</title>
<g id="a_node2"><a xlink:href="logger_8hpp.html" target="_top" xlink:title=" ">
<polygon fill="white" stroke="black" points="491.5,-207 491.5,-226 627.5,-226 627.5,-207 491.5,-207"/>
<text text-anchor="middle" x="559.5" y="-214" font-family="Helvetica" font-size="10.00">vsomeip/internal/logger.hpp</text>
</a>
</g>
</g>
<!-- Node1&#45;&gt;Node2 -->
<g id="edge1" class="edge">
<title>Node1&#45;&gt;Node2</title>
<path fill="none" stroke="midnightblue" d="M682.41,-391.44C671.73,-380.64 659.54,-367.62 649.5,-355 617.21,-314.42 585.4,-262.14 569.67,-235.24"/>
<polygon fill="midnightblue" stroke="midnightblue" points="572.5,-233.15 564.46,-226.25 566.44,-236.66 572.5,-233.15"/>
</g>
<!-- Node10 -->
<g id="node10" class="node">
<title>Node10</title>
<g id="a_node10"><a xlink:href="compat_2message_2include_2message__impl_8hpp.html" target="_top" xlink:title=" ">
<polygon fill="white" stroke="black" points="659,-324.5 659,-354.5 758,-354.5 758,-324.5 659,-324.5"/>
<text text-anchor="start" x="667" y="-342.5" font-family="Helvetica" font-size="10.00">../include/message</text>
<text text-anchor="middle" x="708.5" y="-331.5" font-family="Helvetica" font-size="10.00">_impl.hpp</text>
</a>
</g>
</g>
<!-- Node1&#45;&gt;Node10 -->
<g id="edge9" class="edge">
<title>Node1&#45;&gt;Node10</title>
<path fill="none" stroke="midnightblue" d="M708.5,-391.19C708.5,-382.79 708.5,-373.44 708.5,-365.09"/>
<polygon fill="midnightblue" stroke="midnightblue" points="712,-364.85 708.5,-354.85 705,-364.85 712,-364.85"/>
</g>
<!-- Node22 -->
<g id="node22" class="node">
<title>Node22</title>
<g id="a_node22"><a xlink:href="compat_2message_2include_2payload__impl_8hpp.html" target="_top" xlink:title=" ">
<polygon fill="white" stroke="black" points="16,-201.5 16,-231.5 109,-231.5 109,-201.5 16,-201.5"/>
<text text-anchor="start" x="24" y="-219.5" font-family="Helvetica" font-size="10.00">../include/payload</text>
<text text-anchor="middle" x="62.5" y="-208.5" font-family="Helvetica" font-size="10.00">_impl.hpp</text>
</a>
</g>
</g>
<!-- Node1&#45;&gt;Node22 -->
<g id="edge27" class="edge">
<title>Node1&#45;&gt;Node22</title>
<path fill="none" stroke="midnightblue" d="M631.22,-392.69C499.1,-351.99 232.94,-270 117.73,-234.51"/>
<polygon fill="midnightblue" stroke="midnightblue" points="118.64,-231.13 108.05,-231.53 116.58,-237.82 118.64,-231.13"/>
</g>
<!-- Node26 -->
<g id="node26" class="node">
<title>Node26</title>
<g id="a_node26"><a xlink:href="internal_8hpp.html" target="_top" xlink:title=" ">
<polygon fill="white" stroke="black" points="985.5,-201.5 985.5,-231.5 1089.5,-231.5 1089.5,-201.5 985.5,-201.5"/>
<text text-anchor="start" x="993.5" y="-219.5" font-family="Helvetica" font-size="10.00">../../../configuration</text>
<text text-anchor="middle" x="1037.5" y="-208.5" font-family="Helvetica" font-size="10.00">/include/internal.hpp</text>
</a>
</g>
</g>
<!-- Node1&#45;&gt;Node26 -->
<g id="edge35" class="edge">
<title>Node1&#45;&gt;Node26</title>
<path fill="none" stroke="midnightblue" d="M749.83,-391.5C816.32,-351.28 945.6,-273.08 1005.55,-236.82"/>
<polygon fill="midnightblue" stroke="midnightblue" points="1007.47,-239.75 1014.22,-231.58 1003.85,-233.76 1007.47,-239.75"/>
</g>
<!-- Node31 -->
<g id="node31" class="node">
<title>Node31</title>
<g id="a_node31"><a xlink:href="message_2include_2message__impl_8hpp.html" target="_top" xlink:title=" ">
<polygon fill="white" stroke="black" points="1065,-324.5 1065,-354.5 1182,-354.5 1182,-324.5 1065,-324.5"/>
<text text-anchor="start" x="1073" y="-342.5" font-family="Helvetica" font-size="10.00">../../../message/include</text>
<text text-anchor="middle" x="1123.5" y="-331.5" font-family="Helvetica" font-size="10.00">/message_impl.hpp</text>
</a>
</g>
</g>
<!-- Node1&#45;&gt;Node31 -->
<g id="edge43" class="edge">
<title>Node1&#45;&gt;Node31</title>
<path fill="none" stroke="midnightblue" d="M785.59,-402.38C862.82,-388.24 980.6,-366.67 1054.75,-353.09"/>
<polygon fill="midnightblue" stroke="midnightblue" points="1055.71,-356.47 1064.91,-351.23 1054.45,-349.59 1055.71,-356.47"/>
</g>
<!-- Node3 -->
<g id="node3" class="node">
<title>Node3</title>
<g id="a_node3"><a xlink:title=" ">
<polygon fill="white" stroke="#bfbfbf" points="896.5,-73 896.5,-92 942.5,-92 942.5,-73 896.5,-73"/>
<text text-anchor="middle" x="919.5" y="-80" font-family="Helvetica" font-size="10.00">chrono</text>
</a>
</g>
</g>
<!-- Node2&#45;&gt;Node3 -->
<g id="edge2" class="edge">
<title>Node2&#45;&gt;Node3</title>
<path fill="none" stroke="midnightblue" d="M600.54,-206.93C649.98,-196.27 729.86,-177.92 757.5,-165 778.84,-155.03 779.97,-145.56 800.5,-134 816.05,-125.24 858.2,-107.88 887.9,-95.98"/>
<polygon fill="midnightblue" stroke="midnightblue" points="889.45,-99.13 897.44,-92.17 886.86,-92.63 889.45,-99.13"/>
</g>
<!-- Node4 -->
<g id="node4" class="node">
<title>Node4</title>
<g id="a_node4"><a xlink:title=" ">
<polygon fill="white" stroke="#bfbfbf" points="800.5,-6 800.5,-25 846.5,-25 846.5,-6 800.5,-6"/>
<text text-anchor="middle" x="823.5" y="-13" font-family="Helvetica" font-size="10.00">cstdint</text>
</a>
</g>
</g>
<!-- Node2&#45;&gt;Node4 -->
<g id="edge3" class="edge">
<title>Node2&#45;&gt;Node4</title>
<path fill="none" stroke="midnightblue" d="M605.89,-206.94C640,-199.32 686.64,-186.06 723.5,-165 741.26,-154.86 740.15,-144.83 757.5,-134 794.4,-110.97 824.05,-133.97 848.5,-98 861.91,-78.28 848.53,-51.09 836.77,-33.65"/>
<polygon fill="midnightblue" stroke="midnightblue" points="839.28,-31.14 830.59,-25.07 833.6,-35.23 839.28,-31.14"/>
</g>
<!-- Node5 -->
<g id="node5" class="node">
<title>Node5</title>
<g id="a_node5"><a xlink:title=" ">
<polygon fill="white" stroke="#bfbfbf" points="475.5,-140 475.5,-159 519.5,-159 519.5,-140 475.5,-140"/>
<text text-anchor="middle" x="497.5" y="-147" font-family="Helvetica" font-size="10.00">mutex</text>
</a>
</g>
</g>
<!-- Node2&#45;&gt;Node5 -->
<g id="edge4" class="edge">
<title>Node2&#45;&gt;Node5</title>
<path fill="none" stroke="midnightblue" d="M551.14,-206.73C541.38,-196.5 525.03,-179.36 512.95,-166.69"/>
<polygon fill="midnightblue" stroke="midnightblue" points="515.16,-163.95 505.73,-159.13 510.1,-168.78 515.16,-163.95"/>
</g>
<!-- Node6 -->
<g id="node6" class="node">
<title>Node6</title>
<g id="a_node6"><a xlink:title=" ">
<polygon fill="white" stroke="#bfbfbf" points="537.5,-140 537.5,-159 589.5,-159 589.5,-140 537.5,-140"/>
<text text-anchor="middle" x="563.5" y="-147" font-family="Helvetica" font-size="10.00">ostream</text>
</a>
</g>
</g>
<!-- Node2&#45;&gt;Node6 -->
<g id="edge5" class="edge">
<title>Node2&#45;&gt;Node6</title>
<path fill="none" stroke="midnightblue" d="M560.04,-206.73C560.63,-197.18 561.59,-181.62 562.34,-169.28"/>
<polygon fill="midnightblue" stroke="midnightblue" points="565.85,-169.32 562.97,-159.13 558.86,-168.89 565.85,-169.32"/>
</g>
<!-- Node7 -->
<g id="node7" class="node">
<title>Node7</title>
<g id="a_node7"><a xlink:title=" ">
<polygon fill="white" stroke="#bfbfbf" points="327.5,-140 327.5,-159 379.5,-159 379.5,-140 327.5,-140"/>
<text text-anchor="middle" x="353.5" y="-147" font-family="Helvetica" font-size="10.00">sstream</text>
</a>
</g>
</g>
<!-- Node2&#45;&gt;Node7 -->
<g id="edge6" class="edge">
<title>Node2&#45;&gt;Node7</title>
<path fill="none" stroke="midnightblue" d="M526.71,-206.92C492.04,-197.6 435.92,-181.77 388.5,-165 386.64,-164.34 384.73,-163.64 382.82,-162.91"/>
<polygon fill="midnightblue" stroke="midnightblue" points="383.93,-159.59 373.35,-159.15 381.35,-166.09 383.93,-159.59"/>
</g>
<!-- Node8 -->
<g id="node8" class="node">
<title>Node8</title>
<g id="a_node8"><a xlink:title=" ">
<polygon fill="white" stroke="#bfbfbf" points="397.5,-140 397.5,-159 457.5,-159 457.5,-140 397.5,-140"/>
<text text-anchor="middle" x="427.5" y="-147" font-family="Helvetica" font-size="10.00">streambuf</text>
</a>
</g>
</g>
<!-- Node2&#45;&gt;Node8 -->
<g id="edge7" class="edge">
<title>Node2&#45;&gt;Node8</title>
<path fill="none" stroke="midnightblue" d="M541.97,-206.87C519.49,-195.8 480.27,-176.49 454.1,-163.6"/>
<polygon fill="midnightblue" stroke="midnightblue" points="455.62,-160.44 445.1,-159.17 452.53,-166.72 455.62,-160.44"/>
</g>
<!-- Node9 -->
<g id="node9" class="node">
<title>Node9</title>
<g id="a_node9"><a xlink:title=" ">
<polygon fill="white" stroke="#bfbfbf" points="1557.5,-140 1557.5,-159 1659.5,-159 1659.5,-140 1557.5,-140"/>
<text text-anchor="middle" x="1608.5" y="-147" font-family="Helvetica" font-size="10.00">vsomeip/export.hpp</text>
</a>
</g>
</g>
<!-- Node2&#45;&gt;Node9 -->
<g id="edge8" class="edge">
<title>Node2&#45;&gt;Node9</title>
<path fill="none" stroke="midnightblue" d="M598.9,-206.93C610.91,-204.63 624.2,-202.39 636.5,-201 1039.57,-155.34 1146.72,-220.92 1548.5,-165 1554.91,-164.11 1561.63,-162.83 1568.16,-161.4"/>
<polygon fill="midnightblue" stroke="midnightblue" points="1569.26,-164.74 1578.2,-159.05 1567.67,-157.92 1569.26,-164.74"/>
</g>
<!-- Node11 -->
<g id="node11" class="node">
<title>Node11</title>
<g id="a_node11"><a xlink:href="compat_2vsomeip_2message_8hpp.html" target="_top" xlink:title=" ">
<polygon fill="white" stroke="black" points="645.5,-207 645.5,-226 795.5,-226 795.5,-207 645.5,-207"/>
<text text-anchor="middle" x="720.5" y="-214" font-family="Helvetica" font-size="10.00">compat/vsomeip/message.hpp</text>
</a>
</g>
</g>
<!-- Node10&#45;&gt;Node11 -->
<g id="edge10" class="edge">
<title>Node10&#45;&gt;Node11</title>
<path fill="none" stroke="midnightblue" d="M702.09,-324.38C696.44,-310.09 689.8,-287.4 694.5,-268 697.33,-256.33 703.34,-244.35 708.88,-234.98"/>
<polygon fill="midnightblue" stroke="midnightblue" points="711.98,-236.62 714.32,-226.29 706.04,-232.91 711.98,-236.62"/>
</g>
<!-- Node20 -->
<g id="node20" class="node">
<title>Node20</title>
<g id="a_node20"><a xlink:href="compat_2message_2include_2message__base__impl_8hpp.html" target="_top" xlink:title=" ">
<polygon fill="white" stroke="black" points="704,-268.5 704,-287.5 829,-287.5 829,-268.5 704,-268.5"/>
<text text-anchor="middle" x="766.5" y="-275.5" font-family="Helvetica" font-size="10.00">message_base_impl.hpp</text>
</a>
</g>
</g>
<!-- Node10&#45;&gt;Node20 -->
<g id="edge23" class="edge">
<title>Node10&#45;&gt;Node20</title>
<path fill="none" stroke="midnightblue" d="M722.25,-324.4C730.85,-315.58 741.95,-304.18 750.89,-295.02"/>
<polygon fill="midnightblue" stroke="midnightblue" points="753.59,-297.26 758.06,-287.66 748.57,-292.38 753.59,-297.26"/>
</g>
<!-- Node12 -->
<g id="node12" class="node">
<title>Node12</title>
<g id="a_node12"><a xlink:title=" ">
<polygon fill="white" stroke="#bfbfbf" points="810,-140 810,-159 863,-159 863,-140 810,-140"/>
<text text-anchor="middle" x="836.5" y="-147" font-family="Helvetica" font-size="10.00">memory</text>
</a>
</g>
</g>
<!-- Node11&#45;&gt;Node12 -->
<g id="edge11" class="edge">
<title>Node11&#45;&gt;Node12</title>
<path fill="none" stroke="midnightblue" d="M736.14,-206.73C755.71,-195.77 789.42,-176.88 812.32,-164.05"/>
<polygon fill="midnightblue" stroke="midnightblue" points="814.09,-167.07 821.1,-159.13 810.67,-160.96 814.09,-167.07"/>
</g>
<!-- Node13 -->
<g id="node13" class="node">
<title>Node13</title>
<g id="a_node13"><a xlink:href="compat_2vsomeip_2message__base_8hpp.html" target="_top" xlink:title=" ">
<polygon fill="white" stroke="black" points="608,-134.5 608,-164.5 715,-164.5 715,-134.5 608,-134.5"/>
<text text-anchor="start" x="616" y="-152.5" font-family="Helvetica" font-size="10.00">../../compat/vsomeip</text>
<text text-anchor="middle" x="661.5" y="-141.5" font-family="Helvetica" font-size="10.00">/message_base.hpp</text>
</a>
</g>
</g>
<!-- Node11&#45;&gt;Node13 -->
<g id="edge12" class="edge">
<title>Node11&#45;&gt;Node13</title>
<path fill="none" stroke="midnightblue" d="M712.54,-206.73C704.57,-197.95 691.98,-184.08 681.3,-172.31"/>
<polygon fill="midnightblue" stroke="midnightblue" points="683.6,-169.64 674.29,-164.59 678.42,-174.35 683.6,-169.64"/>
</g>
<!-- Node14 -->
<g id="node14" class="node">
<title>Node14</title>
<g id="a_node14"><a xlink:href="interface_2compat_2vsomeip_2enumeration__types_8hpp.html" target="_top" xlink:title=" ">
<polygon fill="white" stroke="black" points="719,-67.5 719,-97.5 840,-97.5 840,-67.5 719,-67.5"/>
<text text-anchor="start" x="727" y="-85.5" font-family="Helvetica" font-size="10.00">../../compat/vsomeip</text>
<text text-anchor="middle" x="779.5" y="-74.5" font-family="Helvetica" font-size="10.00">/enumeration_types.hpp</text>
</a>
</g>
</g>
<!-- Node13&#45;&gt;Node14 -->
<g id="edge13" class="edge">
<title>Node13&#45;&gt;Node14</title>
<path fill="none" stroke="midnightblue" d="M687.1,-134.4C704.04,-125.07 726.44,-112.73 744.95,-102.53"/>
<polygon fill="midnightblue" stroke="midnightblue" points="746.88,-105.47 753.95,-97.58 743.5,-99.34 746.88,-105.47"/>
</g>
<!-- Node15 -->
<g id="node15" class="node">
<title>Node15</title>
<g id="a_node15"><a xlink:href="compat_2vsomeip_2export_8hpp.html" target="_top" xlink:title=" ">
<polygon fill="white" stroke="black" points="278,-0.5 278,-30.5 385,-30.5 385,-0.5 278,-0.5"/>
<text text-anchor="start" x="286" y="-18.5" font-family="Helvetica" font-size="10.00">../../compat/vsomeip</text>
<text text-anchor="middle" x="331.5" y="-7.5" font-family="Helvetica" font-size="10.00">/export.hpp</text>
</a>
</g>
</g>
<!-- Node13&#45;&gt;Node15 -->
<g id="edge15" class="edge">
<title>Node13&#45;&gt;Node15</title>
<path fill="none" stroke="midnightblue" d="M638.51,-134.3C622.98,-124.5 602.17,-110.95 584.5,-98 566.92,-85.12 566.05,-76.63 546.5,-67 498.63,-43.43 439.27,-30.56 395.06,-23.73"/>
<polygon fill="midnightblue" stroke="midnightblue" points="395.42,-20.24 385.02,-22.24 394.4,-27.17 395.42,-20.24"/>
</g>
<!-- Node16 -->
<g id="node16" class="node">
<title>Node16</title>
<g id="a_node16"><a xlink:href="compat_2vsomeip_2internal_2deserializable_8hpp.html" target="_top" xlink:title=" ">
<polygon fill="white" stroke="black" points="265.5,-67.5 265.5,-97.5 397.5,-97.5 397.5,-67.5 265.5,-67.5"/>
<text text-anchor="start" x="273.5" y="-85.5" font-family="Helvetica" font-size="10.00">../../compat/vsomeip</text>
<text text-anchor="middle" x="331.5" y="-74.5" font-family="Helvetica" font-size="10.00">/internal/deserializable.hpp</text>
</a>
</g>
</g>
<!-- Node13&#45;&gt;Node16 -->
<g id="edge16" class="edge">
<title>Node13&#45;&gt;Node16</title>
<path fill="none" stroke="midnightblue" d="M607.92,-136.01C604.73,-135.32 601.58,-134.64 598.5,-134 516.58,-116.9 493.44,-114.41 407.67,-98.21"/>
<polygon fill="midnightblue" stroke="midnightblue" points="408.23,-94.75 397.75,-96.33 406.92,-101.63 408.23,-94.75"/>
</g>
<!-- Node17 -->
<g id="node17" class="node">
<title>Node17</title>
<g id="a_node17"><a xlink:href="compat_2vsomeip_2internal_2serializable_8hpp.html" target="_top" xlink:title=" ">
<polygon fill="white" stroke="black" points="415.5,-67.5 415.5,-97.5 537.5,-97.5 537.5,-67.5 415.5,-67.5"/>
<text text-anchor="start" x="423.5" y="-85.5" font-family="Helvetica" font-size="10.00">../../compat/vsomeip</text>
<text text-anchor="middle" x="476.5" y="-74.5" font-family="Helvetica" font-size="10.00">/internal/serializable.hpp</text>
</a>
</g>
</g>
<!-- Node13&#45;&gt;Node17 -->
<g id="edge18" class="edge">
<title>Node13&#45;&gt;Node17</title>
<path fill="none" stroke="midnightblue" d="M621.36,-134.4C593.48,-124.6 556.14,-111.48 526.35,-101.02"/>
<polygon fill="midnightblue" stroke="midnightblue" points="527.16,-97.59 516.56,-97.58 524.84,-104.19 527.16,-97.59"/>
</g>
<!-- Node18 -->
<g id="node18" class="node">
<title>Node18</title>
<g id="a_node18"><a xlink:href="interface_2compat_2vsomeip_2primitive__types_8hpp.html" target="_top" xlink:title=" ">
<polygon fill="white" stroke="black" points="594,-67.5 594,-97.5 701,-97.5 701,-67.5 594,-67.5"/>
<text text-anchor="start" x="602" y="-85.5" font-family="Helvetica" font-size="10.00">../../compat/vsomeip</text>
<text text-anchor="middle" x="647.5" y="-74.5" font-family="Helvetica" font-size="10.00">/primitive_types.hpp</text>
</a>
</g>
</g>
<!-- Node13&#45;&gt;Node18 -->
<g id="edge20" class="edge">
<title>Node13&#45;&gt;Node18</title>
<path fill="none" stroke="midnightblue" d="M658.46,-134.4C656.77,-126.56 654.63,-116.6 652.68,-107.57"/>
<polygon fill="midnightblue" stroke="midnightblue" points="656.06,-106.62 650.53,-97.58 649.22,-108.09 656.06,-106.62"/>
</g>
<!-- Node14&#45;&gt;Node4 -->
<g id="edge14" class="edge">
<title>Node14&#45;&gt;Node4</title>
<path fill="none" stroke="midnightblue" d="M789.05,-67.4C795.77,-57.46 804.81,-44.11 811.94,-33.57"/>
<polygon fill="midnightblue" stroke="midnightblue" points="814.91,-35.44 817.61,-25.19 809.11,-31.51 814.91,-35.44"/>
</g>
<!-- Node16&#45;&gt;Node15 -->
<g id="edge17" class="edge">
<title>Node16&#45;&gt;Node15</title>
<path fill="none" stroke="midnightblue" d="M331.5,-67.4C331.5,-59.64 331.5,-49.81 331.5,-40.86"/>
<polygon fill="midnightblue" stroke="midnightblue" points="335,-40.58 331.5,-30.58 328,-40.58 335,-40.58"/>
</g>
<!-- Node17&#45;&gt;Node15 -->
<g id="edge19" class="edge">
<title>Node17&#45;&gt;Node15</title>
<path fill="none" stroke="midnightblue" d="M445.04,-67.4C423.66,-57.81 395.19,-45.05 372.1,-34.7"/>
<polygon fill="midnightblue" stroke="midnightblue" points="373.46,-31.47 362.9,-30.58 370.59,-37.86 373.46,-31.47"/>
</g>
<!-- Node18&#45;&gt;Node4 -->
<g id="edge22" class="edge">
<title>Node18&#45;&gt;Node4</title>
<path fill="none" stroke="midnightblue" d="M685.69,-67.4C717.12,-55.79 761.18,-39.51 790.96,-28.52"/>
<polygon fill="midnightblue" stroke="midnightblue" points="792.3,-31.75 800.47,-25.01 789.87,-25.19 792.3,-31.75"/>
</g>
<!-- Node19 -->
<g id="node19" class="node">
<title>Node19</title>
<g id="a_node19"><a xlink:title=" ">
<polygon fill="white" stroke="#bfbfbf" points="628.5,-6 628.5,-25 666.5,-25 666.5,-6 628.5,-6"/>
<text text-anchor="middle" x="647.5" y="-13" font-family="Helvetica" font-size="10.00">array</text>
</a>
</g>
</g>
<!-- Node18&#45;&gt;Node19 -->
<g id="edge21" class="edge">
<title>Node18&#45;&gt;Node19</title>
<path fill="none" stroke="midnightblue" d="M647.5,-67.4C647.5,-58.06 647.5,-45.71 647.5,-35.52"/>
<polygon fill="midnightblue" stroke="midnightblue" points="651,-35.19 647.5,-25.19 644,-35.19 651,-35.19"/>
</g>
<!-- Node20&#45;&gt;Node11 -->
<g id="edge25" class="edge">
<title>Node20&#45;&gt;Node11</title>
<path fill="none" stroke="midnightblue" d="M759.91,-268.48C753.01,-259.55 742,-245.31 733.37,-234.14"/>
<polygon fill="midnightblue" stroke="midnightblue" points="735.96,-231.78 727.08,-226.01 730.43,-236.06 735.96,-231.78"/>
</g>
<!-- Node20&#45;&gt;Node15 -->
<g id="edge24" class="edge">
<title>Node20&#45;&gt;Node15</title>
<path fill="none" stroke="midnightblue" d="M703.86,-275.34C562.35,-270.11 224.93,-248.92 156.5,-165 128.98,-131.24 130.32,-101.81 156.5,-67 170.15,-48.85 223.58,-35.17 267.84,-26.66"/>
<polygon fill="midnightblue" stroke="midnightblue" points="268.52,-30.09 277.71,-24.81 267.24,-23.21 268.52,-30.09"/>
</g>
<!-- Node21 -->
<g id="node21" class="node">
<title>Node21</title>
<g id="a_node21"><a xlink:title=" ">
<polygon fill="white" stroke="#bfbfbf" points="814,-207 814,-226 929,-226 929,-207 814,-207"/>
<text text-anchor="middle" x="871.5" y="-214" font-family="Helvetica" font-size="10.00">vsomeip/message.hpp</text>
</a>
</g>
</g>
<!-- Node20&#45;&gt;Node21 -->
<g id="edge26" class="edge">
<title>Node20&#45;&gt;Node21</title>
<path fill="none" stroke="midnightblue" d="M781.54,-268.48C798.78,-258.71 827.24,-242.58 847.53,-231.08"/>
<polygon fill="midnightblue" stroke="midnightblue" points="849.51,-233.98 856.48,-226.01 846.06,-227.89 849.51,-233.98"/>
</g>
<!-- Node23 -->
<g id="node23" class="node">
<title>Node23</title>
<g id="a_node23"><a xlink:href="compat_2vsomeip_2payload_8hpp.html" target="_top" xlink:title=" ">
<polygon fill="white" stroke="black" points="165.5,-140 165.5,-159 309.5,-159 309.5,-140 165.5,-140"/>
<text text-anchor="middle" x="237.5" y="-147" font-family="Helvetica" font-size="10.00">compat/vsomeip/payload.hpp</text>
</a>
</g>
</g>
<!-- Node22&#45;&gt;Node23 -->
<g id="edge28" class="edge">
<title>Node22&#45;&gt;Node23</title>
<path fill="none" stroke="midnightblue" d="M100.47,-201.4C131.72,-189.79 175.54,-173.51 205.14,-162.52"/>
<polygon fill="midnightblue" stroke="midnightblue" points="206.44,-165.77 214.6,-159.01 204,-159.21 206.44,-165.77"/>
</g>
<!-- Node25 -->
<g id="node25" class="node">
<title>Node25</title>
<g id="a_node25"><a xlink:title=" ">
<polygon fill="white" stroke="#bfbfbf" points="0,-140 0,-159 109,-159 109,-140 0,-140"/>
<text text-anchor="middle" x="54.5" y="-147" font-family="Helvetica" font-size="10.00">vsomeip/payload.hpp</text>
</a>
</g>
</g>
<!-- Node22&#45;&gt;Node25 -->
<g id="edge34" class="edge">
<title>Node22&#45;&gt;Node25</title>
<path fill="none" stroke="midnightblue" d="M60.76,-201.4C59.6,-191.96 58.06,-179.45 56.8,-169.19"/>
<polygon fill="midnightblue" stroke="midnightblue" points="60.27,-168.69 55.57,-159.19 53.32,-169.55 60.27,-168.69"/>
</g>
<!-- Node23&#45;&gt;Node15 -->
<g id="edge30" class="edge">
<title>Node23&#45;&gt;Node15</title>
<path fill="none" stroke="midnightblue" d="M237.51,-139.82C237.92,-123.97 240.75,-89.85 256.5,-67 265.33,-54.19 278.57,-43.73 291.48,-35.72"/>
<polygon fill="midnightblue" stroke="midnightblue" points="293.43,-38.63 300.3,-30.56 289.9,-32.58 293.43,-38.63"/>
</g>
<!-- Node23&#45;&gt;Node16 -->
<g id="edge31" class="edge">
<title>Node23&#45;&gt;Node16</title>
<path fill="none" stroke="midnightblue" d="M250.18,-139.73C263.61,-130.44 285.28,-115.46 302.87,-103.3"/>
<polygon fill="midnightblue" stroke="midnightblue" points="304.89,-106.16 311.13,-97.59 300.91,-100.4 304.89,-106.16"/>
</g>
<!-- Node23&#45;&gt;Node17 -->
<g id="edge32" class="edge">
<title>Node23&#45;&gt;Node17</title>
<path fill="none" stroke="midnightblue" d="M269.24,-139.87C306.34,-129.78 368.61,-112.84 415.22,-100.16"/>
<polygon fill="midnightblue" stroke="midnightblue" points="416.19,-103.53 424.92,-97.53 414.35,-96.78 416.19,-103.53"/>
</g>
<!-- Node23&#45;&gt;Node18 -->
<g id="edge33" class="edge">
<title>Node23&#45;&gt;Node18</title>
<path fill="none" stroke="midnightblue" d="M284.15,-139.94C295.39,-137.94 307.37,-135.85 318.5,-134 410.49,-118.71 517.23,-102.63 583.58,-92.83"/>
<polygon fill="midnightblue" stroke="midnightblue" points="584.49,-96.24 593.87,-91.31 583.46,-89.31 584.49,-96.24"/>
</g>
<!-- Node24 -->
<g id="node24" class="node">
<title>Node24</title>
<g id="a_node24"><a xlink:title=" ">
<polygon fill="white" stroke="#bfbfbf" points="166,-73 166,-92 209,-92 209,-73 166,-73"/>
<text text-anchor="middle" x="187.5" y="-80" font-family="Helvetica" font-size="10.00">vector</text>
</a>
</g>
</g>
<!-- Node23&#45;&gt;Node24 -->
<g id="edge29" class="edge">
<title>Node23&#45;&gt;Node24</title>
<path fill="none" stroke="midnightblue" d="M230.76,-139.73C222.96,-129.6 209.95,-112.69 200.24,-100.06"/>
<polygon fill="midnightblue" stroke="midnightblue" points="203.01,-97.92 194.14,-92.13 197.46,-102.19 203.01,-97.92"/>
</g>
<!-- Node26&#45;&gt;Node4 -->
<g id="edge36" class="edge">
<title>Node26&#45;&gt;Node4</title>
<path fill="none" stroke="midnightblue" d="M1042.9,-201.39C1048.4,-184.92 1055.25,-157.02 1048.5,-134 1038.54,-100.05 1033.98,-88 1005.5,-67 960.99,-34.18 896.14,-22.68 857.07,-18.66"/>
<polygon fill="midnightblue" stroke="midnightblue" points="857.05,-15.15 846.77,-17.71 856.4,-22.12 857.05,-15.15"/>
</g>
<!-- Node26&#45;&gt;Node12 -->
<g id="edge38" class="edge">
<title>Node26&#45;&gt;Node12</title>
<path fill="none" stroke="midnightblue" d="M987.68,-201.46C954.75,-191.89 910.77,-178.54 872.5,-165 870.59,-164.33 868.64,-163.61 866.68,-162.87"/>
<polygon fill="midnightblue" stroke="midnightblue" points="867.53,-159.45 856.94,-159.09 865,-165.98 867.53,-159.45"/>
</g>
<!-- Node27 -->
<g id="node27" class="node">
<title>Node27</title>
<g id="a_node27"><a xlink:title=" ">
<polygon fill="white" stroke="#bfbfbf" points="999.5,-140 999.5,-159 1039.5,-159 1039.5,-140 999.5,-140"/>
<text text-anchor="middle" x="1019.5" y="-147" font-family="Helvetica" font-size="10.00">limits</text>
</a>
</g>
</g>
<!-- Node26&#45;&gt;Node27 -->
<g id="edge37" class="edge">
<title>Node26&#45;&gt;Node27</title>
<path fill="none" stroke="midnightblue" d="M1033.59,-201.4C1030.95,-191.86 1027.44,-179.18 1024.58,-168.86"/>
<polygon fill="midnightblue" stroke="midnightblue" points="1027.95,-167.9 1021.91,-159.19 1021.2,-169.77 1027.95,-167.9"/>
</g>
<!-- Node28 -->
<g id="node28" class="node">
<title>Node28</title>
<g id="a_node28"><a xlink:title=" ">
<polygon fill="white" stroke="#bfbfbf" points="1095.5,-140 1095.5,-159 1235.5,-159 1235.5,-140 1095.5,-140"/>
<text text-anchor="middle" x="1165.5" y="-147" font-family="Helvetica" font-size="10.00">vsomeip/primitive_types.hpp</text>
</a>
</g>
</g>
<!-- Node26&#45;&gt;Node28 -->
<g id="edge39" class="edge">
<title>Node26&#45;&gt;Node28</title>
<path fill="none" stroke="midnightblue" d="M1065.27,-201.4C1087.44,-190.14 1118.24,-174.5 1139.83,-163.54"/>
<polygon fill="midnightblue" stroke="midnightblue" points="1141.42,-166.66 1148.75,-159.01 1138.25,-160.41 1141.42,-166.66"/>
</g>
<!-- Node29 -->
<g id="node29" class="node">
<title>Node29</title>
<g id="a_node29"><a xlink:href="structured__types_8hpp.html" target="_top" xlink:title=" ">
<polygon fill="white" stroke="black" points="881.5,-134.5 881.5,-164.5 981.5,-164.5 981.5,-134.5 881.5,-134.5"/>
<text text-anchor="start" x="889.5" y="-152.5" font-family="Helvetica" font-size="10.00">vsomeip/structured</text>
<text text-anchor="middle" x="931.5" y="-141.5" font-family="Helvetica" font-size="10.00">_types.hpp</text>
</a>
</g>
</g>
<!-- Node26&#45;&gt;Node29 -->
<g id="edge40" class="edge">
<title>Node26&#45;&gt;Node29</title>
<path fill="none" stroke="midnightblue" d="M1014.5,-201.4C999.5,-192.2 979.71,-180.07 963.23,-169.95"/>
<polygon fill="midnightblue" stroke="midnightblue" points="964.81,-166.82 954.46,-164.58 961.15,-172.79 964.81,-166.82"/>
</g>
<!-- Node29&#45;&gt;Node3 -->
<g id="edge41" class="edge">
<title>Node29&#45;&gt;Node3</title>
<path fill="none" stroke="midnightblue" d="M928.9,-134.4C927.15,-124.96 924.84,-112.45 922.95,-102.19"/>
<polygon fill="midnightblue" stroke="midnightblue" points="926.36,-101.39 921.11,-92.19 919.48,-102.66 926.36,-101.39"/>
</g>
<!-- Node30 -->
<g id="node30" class="node">
<title>Node30</title>
<g id="a_node30"><a xlink:title=" ">
<polygon fill="white" stroke="#bfbfbf" points="961,-73 961,-92 996,-92 996,-73 961,-73"/>
<text text-anchor="middle" x="978.5" y="-80" font-family="Helvetica" font-size="10.00">map</text>
</a>
</g>
</g>
<!-- Node29&#45;&gt;Node30 -->
<g id="edge42" class="edge">
<title>Node29&#45;&gt;Node30</title>
<path fill="none" stroke="midnightblue" d="M941.7,-134.4C948.88,-124.46 958.54,-111.11 966.16,-100.57"/>
<polygon fill="midnightblue" stroke="midnightblue" points="969.19,-102.35 972.21,-92.19 963.52,-98.25 969.19,-102.35"/>
</g>
<!-- Node31&#45;&gt;Node9 -->
<g id="edge45" class="edge">
<title>Node31&#45;&gt;Node9</title>
<path fill="none" stroke="midnightblue" d="M1182.26,-324.48C1251.72,-306.95 1370.06,-274.07 1466.5,-232 1511.25,-212.48 1559.87,-182.47 1587.02,-164.83"/>
<polygon fill="midnightblue" stroke="midnightblue" points="1589.25,-167.55 1595.69,-159.14 1585.41,-161.7 1589.25,-167.55"/>
</g>
<!-- Node31&#45;&gt;Node12 -->
<g id="edge44" class="edge">
<title>Node31&#45;&gt;Node12</title>
<path fill="none" stroke="midnightblue" d="M1103.26,-324.39C1074.66,-304.33 1020.97,-266.2 976.5,-232 959.22,-218.71 956.83,-212.8 938.5,-201 915.41,-186.13 887.32,-172.52 866.48,-163.19"/>
<polygon fill="midnightblue" stroke="midnightblue" points="867.73,-159.91 857.16,-159.09 864.9,-166.32 867.73,-159.91"/>
</g>
<!-- Node31&#45;&gt;Node28 -->
<g id="edge46" class="edge">
<title>Node31&#45;&gt;Node28</title>
<path fill="none" stroke="midnightblue" d="M1126.66,-324.37C1134.13,-290.94 1152.88,-206.97 1161.3,-169.3"/>
<polygon fill="midnightblue" stroke="midnightblue" points="1164.79,-169.73 1163.56,-159.21 1157.96,-168.2 1164.79,-169.73"/>
</g>
<!-- Node32 -->
<g id="node32" class="node">
<title>Node32</title>
<g id="a_node32"><a xlink:href="message_2include_2message__base__impl_8hpp.html" target="_top" xlink:title=" ">
<polygon fill="white" stroke="black" points="1152,-268.5 1152,-287.5 1277,-287.5 1277,-268.5 1152,-268.5"/>
<text text-anchor="middle" x="1214.5" y="-275.5" font-family="Helvetica" font-size="10.00">message_base_impl.hpp</text>
</a>
</g>
</g>
<!-- Node31&#45;&gt;Node32 -->
<g id="edge47" class="edge">
<title>Node31&#45;&gt;Node32</title>
<path fill="none" stroke="midnightblue" d="M1145.07,-324.4C1159.38,-315.04 1178.11,-302.79 1192.51,-293.38"/>
<polygon fill="midnightblue" stroke="midnightblue" points="1194.8,-296.06 1201.26,-287.66 1190.97,-290.2 1194.8,-296.06"/>
</g>
<!-- Node32&#45;&gt;Node9 -->
<g id="edge49" class="edge">
<title>Node32&#45;&gt;Node9</title>
<path fill="none" stroke="midnightblue" d="M1262.72,-268.43C1303.2,-260.67 1362.29,-248.02 1412.5,-232 1474.54,-212.21 1544.32,-180.91 1581.59,-163.42"/>
<polygon fill="midnightblue" stroke="midnightblue" points="1583.23,-166.51 1590.78,-159.08 1580.24,-160.18 1583.23,-166.51"/>
</g>
<!-- Node32&#45;&gt;Node21 -->
<g id="edge50" class="edge">
<title>Node32&#45;&gt;Node21</title>
<path fill="none" stroke="midnightblue" d="M1165.36,-268.48C1103.34,-257.72 996.77,-239.23 930.44,-227.72"/>
<polygon fill="midnightblue" stroke="midnightblue" points="931,-224.27 920.55,-226.01 929.81,-231.17 931,-224.27"/>
</g>
<!-- Node33 -->
<g id="node33" class="node">
<title>Node33</title>
<g id="a_node33"><a xlink:title=" ">
<polygon fill="white" stroke="#bfbfbf" points="1163,-207 1163,-226 1252,-226 1252,-207 1163,-207"/>
<text text-anchor="middle" x="1207.5" y="-214" font-family="Helvetica" font-size="10.00">boost/thread.hpp</text>
</a>
</g>
</g>
<!-- Node32&#45;&gt;Node33 -->
<g id="edge48" class="edge">
<title>Node32&#45;&gt;Node33</title>
<path fill="none" stroke="midnightblue" d="M1213.5,-268.48C1212.51,-260.08 1210.97,-246.98 1209.7,-236.16"/>
<polygon fill="midnightblue" stroke="midnightblue" points="1213.15,-235.53 1208.5,-226.01 1206.19,-236.35 1213.15,-235.53"/>
</g>
<!-- Node34 -->
<g id="node34" class="node">
<title>Node34</title>
<g id="a_node34"><a xlink:href="message__header__impl_8hpp.html" target="_top" xlink:title=" ">
<polygon fill="white" stroke="black" points="1270,-207 1270,-226 1403,-226 1403,-207 1270,-207"/>
<text text-anchor="middle" x="1336.5" y="-214" font-family="Helvetica" font-size="10.00">message_header_impl.hpp</text>
</a>
</g>
</g>
<!-- Node32&#45;&gt;Node34 -->
<g id="edge51" class="edge">
<title>Node32&#45;&gt;Node34</title>
<path fill="none" stroke="midnightblue" d="M1231.98,-268.48C1252.36,-258.53 1286.28,-241.99 1309.92,-230.46"/>
<polygon fill="midnightblue" stroke="midnightblue" points="1311.6,-233.54 1319.05,-226.01 1308.53,-227.25 1311.6,-233.54"/>
</g>
<!-- Node34&#45;&gt;Node9 -->
<g id="edge52" class="edge">
<title>Node34&#45;&gt;Node9</title>
<path fill="none" stroke="midnightblue" d="M1372.52,-206.96C1414.71,-196.94 1486.69,-179.83 1548.5,-165 1553.26,-163.86 1558.24,-162.66 1563.2,-161.46"/>
<polygon fill="midnightblue" stroke="midnightblue" points="1564.39,-164.78 1573.29,-159.03 1562.75,-157.97 1564.39,-164.78"/>
</g>
<!-- Node34&#45;&gt;Node28 -->
<g id="edge53" class="edge">
<title>Node34&#45;&gt;Node28</title>
<path fill="none" stroke="midnightblue" d="M1313.79,-206.87C1283.94,-195.52 1231.33,-175.52 1197.47,-162.65"/>
<polygon fill="midnightblue" stroke="midnightblue" points="1198.62,-159.35 1188.03,-159.06 1196.13,-165.89 1198.62,-159.35"/>
</g>
<!-- Node35 -->
<g id="node35" class="node">
<title>Node35</title>
<g id="a_node35"><a xlink:title=" ">
<polygon fill="white" stroke="#bfbfbf" points="1429.5,-134.5 1429.5,-164.5 1539.5,-164.5 1539.5,-134.5 1429.5,-134.5"/>
<text text-anchor="start" x="1437.5" y="-152.5" font-family="Helvetica" font-size="10.00">vsomeip/enumeration</text>
<text text-anchor="middle" x="1484.5" y="-141.5" font-family="Helvetica" font-size="10.00">_types.hpp</text>
</a>
</g>
</g>
<!-- Node34&#45;&gt;Node35 -->
<g id="edge54" class="edge">
<title>Node34&#45;&gt;Node35</title>
<path fill="none" stroke="midnightblue" d="M1356.15,-206.87C1378.27,-197.16 1414.81,-181.11 1443.25,-168.61"/>
<polygon fill="midnightblue" stroke="midnightblue" points="1444.81,-171.75 1452.56,-164.53 1442,-165.34 1444.81,-171.75"/>
</g>
<!-- Node36 -->
<g id="node36" class="node">
<title>Node36</title>
<g id="a_node36"><a xlink:title=" ">
<polygon fill="white" stroke="#bfbfbf" points="1253.5,-140 1253.5,-159 1411.5,-159 1411.5,-140 1253.5,-140"/>
<text text-anchor="middle" x="1332.5" y="-147" font-family="Helvetica" font-size="10.00">vsomeip/internal/serializable.hpp</text>
</a>
</g>
</g>
<!-- Node34&#45;&gt;Node36 -->
<g id="edge55" class="edge">
<title>Node34&#45;&gt;Node36</title>
<path fill="none" stroke="midnightblue" d="M1335.96,-206.73C1335.37,-197.18 1334.41,-181.62 1333.66,-169.28"/>
<polygon fill="midnightblue" stroke="midnightblue" points="1337.14,-168.89 1333.03,-159.13 1330.15,-169.32 1337.14,-168.89"/>
</g>
</g>
</svg>
