<?xml version="1.0" encoding="UTF-8" standalone="no"?>
<!DOCTYPE svg PUBLIC "-//W3C//DTD SVG 1.1//EN"
 "http://www.w3.org/Graphics/SVG/1.1/DTD/svg11.dtd">
<!-- Generated by graphviz version 2.44.0 (0)
 -->
<!-- Title: /home/ec2&#45;user/workspace/vsomeip/interface/compat/vsomeip/internal/serializable.hpp Pages: 1 -->
<svg width="169pt" height="117pt"
 viewBox="0.00 0.00 169.00 117.00" xmlns="http://www.w3.org/2000/svg" xmlns:xlink="http://www.w3.org/1999/xlink">
<g id="graph0" class="graph" transform="scale(1 1) rotate(0) translate(4 113)">
<title>/home/ec2&#45;user/workspace/vsomeip/interface/compat/vsomeip/internal/serializable.hpp</title>
<polygon fill="white" stroke="transparent" points="-4,4 -4,-113 165,-113 165,4 -4,4"/>
<!-- Node1 -->
<g id="node1" class="node">
<title>Node1</title>
<g id="a_node1"><a xlink:title=" ">
<polygon fill="#bfbfbf" stroke="black" points="0,-67.5 0,-108.5 161,-108.5 161,-67.5 0,-67.5"/>
<text text-anchor="start" x="8" y="-96.5" font-family="Helvetica" font-size="10.00">/home/ec2&#45;user/workspace</text>
<text text-anchor="start" x="8" y="-85.5" font-family="Helvetica" font-size="10.00">/vsomeip/interface/compat</text>
<text text-anchor="middle" x="80.5" y="-74.5" font-family="Helvetica" font-size="10.00">/vsomeip/internal/serializable.hpp</text>
</a>
</g>
</g>
<!-- Node2 -->
<g id="node2" class="node">
<title>Node2</title>
<g id="a_node2"><a xlink:href="compat_2vsomeip_2export_8hpp.html" target="_top" xlink:title=" ">
<polygon fill="white" stroke="black" points="22.5,-0.5 22.5,-30.5 138.5,-30.5 138.5,-0.5 22.5,-0.5"/>
<text text-anchor="start" x="30.5" y="-18.5" font-family="Helvetica" font-size="10.00">../../../compat/vsomeip</text>
<text text-anchor="middle" x="80.5" y="-7.5" font-family="Helvetica" font-size="10.00">/export.hpp</text>
</a>
</g>
</g>
<!-- Node1&#45;&gt;Node2 -->
<g id="edge1" class="edge">
<title>Node1&#45;&gt;Node2</title>
<path fill="none" stroke="midnightblue" d="M80.5,-67.36C80.5,-59.23 80.5,-49.7 80.5,-41.11"/>
<polygon fill="midnightblue" stroke="midnightblue" points="84,-40.89 80.5,-30.89 77,-40.89 84,-40.89"/>
</g>
</g>
</svg>
