<?xml version="1.0" encoding="UTF-8" standalone="no"?>
<!DOCTYPE svg PUBLIC "-//W3C//DTD SVG 1.1//EN"
 "http://www.w3.org/Graphics/SVG/1.1/DTD/svg11.dtd">
<!-- Generated by graphviz version 2.44.0 (0)
 -->
<!-- Title: /home/ec2&#45;user/workspace/vsomeip/implementation/compat/message/include/payload_impl.hpp Pages: 1 -->
<svg width="505pt" height="251pt"
 viewBox="0.00 0.00 505.00 251.00" xmlns="http://www.w3.org/2000/svg" xmlns:xlink="http://www.w3.org/1999/xlink">
<g id="graph0" class="graph" transform="scale(1 1) rotate(0) translate(4 247)">
<title>/home/ec2&#45;user/workspace/vsomeip/implementation/compat/message/include/payload_impl.hpp</title>
<polygon fill="white" stroke="transparent" points="-4,4 -4,-247 501,-247 501,4 -4,4"/>
<!-- Node1 -->
<g id="node1" class="node">
<title>Node1</title>
<g id="a_node1"><a xlink:title=" ">
<polygon fill="#bfbfbf" stroke="black" points="170.5,-190.5 170.5,-242.5 304.5,-242.5 304.5,-190.5 170.5,-190.5"/>
<text text-anchor="start" x="178.5" y="-230.5" font-family="Helvetica" font-size="10.00">/home/ec2&#45;user/workspace</text>
<text text-anchor="start" x="178.5" y="-219.5" font-family="Helvetica" font-size="10.00">/vsomeip/implementation</text>
<text text-anchor="start" x="178.5" y="-208.5" font-family="Helvetica" font-size="10.00">/compat/message/include</text>
<text text-anchor="middle" x="237.5" y="-197.5" font-family="Helvetica" font-size="10.00">/payload_impl.hpp</text>
</a>
</g>
</g>
<!-- Node2 -->
<g id="node2" class="node">
<title>Node2</title>
<g id="a_node2"><a xlink:href="compat_2vsomeip_2payload_8hpp.html" target="_top" xlink:title=" ">
<polygon fill="white" stroke="black" points="93.5,-134.5 93.5,-153.5 237.5,-153.5 237.5,-134.5 93.5,-134.5"/>
<text text-anchor="middle" x="165.5" y="-141.5" font-family="Helvetica" font-size="10.00">compat/vsomeip/payload.hpp</text>
</a>
</g>
</g>
<!-- Node1&#45;&gt;Node2 -->
<g id="edge1" class="edge">
<title>Node1&#45;&gt;Node2</title>
<path fill="none" stroke="midnightblue" d="M211.91,-190.45C201.89,-180.63 190.68,-169.66 181.79,-160.95"/>
<polygon fill="midnightblue" stroke="midnightblue" points="183.97,-158.19 174.38,-153.7 179.08,-163.19 183.97,-158.19"/>
</g>
<!-- Node10 -->
<g id="node10" class="node">
<title>Node10</title>
<g id="a_node10"><a xlink:title=" ">
<polygon fill="white" stroke="#bfbfbf" points="256,-134.5 256,-153.5 365,-153.5 365,-134.5 256,-134.5"/>
<text text-anchor="middle" x="310.5" y="-141.5" font-family="Helvetica" font-size="10.00">vsomeip/payload.hpp</text>
</a>
</g>
</g>
<!-- Node1&#45;&gt;Node10 -->
<g id="edge11" class="edge">
<title>Node1&#45;&gt;Node10</title>
<path fill="none" stroke="midnightblue" d="M263.44,-190.45C273.71,-180.53 285.2,-169.43 294.26,-160.69"/>
<polygon fill="midnightblue" stroke="midnightblue" points="296.73,-163.16 301.5,-153.7 291.87,-158.12 296.73,-163.16"/>
</g>
<!-- Node3 -->
<g id="node3" class="node">
<title>Node3</title>
<g id="a_node3"><a xlink:title=" ">
<polygon fill="white" stroke="#bfbfbf" points="0,-73 0,-92 43,-92 43,-73 0,-73"/>
<text text-anchor="middle" x="21.5" y="-80" font-family="Helvetica" font-size="10.00">vector</text>
</a>
</g>
</g>
<!-- Node2&#45;&gt;Node3 -->
<g id="edge2" class="edge">
<title>Node2&#45;&gt;Node3</title>
<path fill="none" stroke="midnightblue" d="M144.87,-134.48C120.38,-124.36 79.35,-107.4 51.39,-95.85"/>
<polygon fill="midnightblue" stroke="midnightblue" points="52.67,-92.59 42.09,-92.01 50,-99.06 52.67,-92.59"/>
</g>
<!-- Node4 -->
<g id="node4" class="node">
<title>Node4</title>
<g id="a_node4"><a xlink:href="compat_2vsomeip_2export_8hpp.html" target="_top" xlink:title=" ">
<polygon fill="white" stroke="black" points="112,-0.5 112,-30.5 219,-30.5 219,-0.5 112,-0.5"/>
<text text-anchor="start" x="120" y="-18.5" font-family="Helvetica" font-size="10.00">../../compat/vsomeip</text>
<text text-anchor="middle" x="165.5" y="-7.5" font-family="Helvetica" font-size="10.00">/export.hpp</text>
</a>
</g>
</g>
<!-- Node2&#45;&gt;Node4 -->
<g id="edge3" class="edge">
<title>Node2&#45;&gt;Node4</title>
<path fill="none" stroke="midnightblue" d="M138.22,-134.45C121.21,-127.55 100.67,-115.97 90.5,-98 83.71,-86.01 84.03,-79.16 90.5,-67 97.44,-53.95 109.42,-43.67 121.8,-35.89"/>
<polygon fill="midnightblue" stroke="midnightblue" points="123.92,-38.7 130.81,-30.66 120.4,-32.65 123.92,-38.7"/>
</g>
<!-- Node5 -->
<g id="node5" class="node">
<title>Node5</title>
<g id="a_node5"><a xlink:href="compat_2vsomeip_2internal_2deserializable_8hpp.html" target="_top" xlink:title=" ">
<polygon fill="white" stroke="black" points="99.5,-67.5 99.5,-97.5 231.5,-97.5 231.5,-67.5 99.5,-67.5"/>
<text text-anchor="start" x="107.5" y="-85.5" font-family="Helvetica" font-size="10.00">../../compat/vsomeip</text>
<text text-anchor="middle" x="165.5" y="-74.5" font-family="Helvetica" font-size="10.00">/internal/deserializable.hpp</text>
</a>
</g>
</g>
<!-- Node2&#45;&gt;Node5 -->
<g id="edge4" class="edge">
<title>Node2&#45;&gt;Node5</title>
<path fill="none" stroke="midnightblue" d="M165.5,-134.48C165.5,-127.47 165.5,-117.19 165.5,-107.7"/>
<polygon fill="midnightblue" stroke="midnightblue" points="169,-107.52 165.5,-97.52 162,-107.52 169,-107.52"/>
</g>
<!-- Node6 -->
<g id="node6" class="node">
<title>Node6</title>
<g id="a_node6"><a xlink:href="compat_2vsomeip_2internal_2serializable_8hpp.html" target="_top" xlink:title=" ">
<polygon fill="white" stroke="black" points="249.5,-67.5 249.5,-97.5 371.5,-97.5 371.5,-67.5 249.5,-67.5"/>
<text text-anchor="start" x="257.5" y="-85.5" font-family="Helvetica" font-size="10.00">../../compat/vsomeip</text>
<text text-anchor="middle" x="310.5" y="-74.5" font-family="Helvetica" font-size="10.00">/internal/serializable.hpp</text>
</a>
</g>
</g>
<!-- Node2&#45;&gt;Node6 -->
<g id="edge6" class="edge">
<title>Node2&#45;&gt;Node6</title>
<path fill="none" stroke="midnightblue" d="M186.27,-134.48C207.2,-125.89 240.11,-112.38 266.81,-101.43"/>
<polygon fill="midnightblue" stroke="midnightblue" points="268.4,-104.56 276.33,-97.52 265.75,-98.08 268.4,-104.56"/>
</g>
<!-- Node7 -->
<g id="node7" class="node">
<title>Node7</title>
<g id="a_node7"><a xlink:href="interface_2compat_2vsomeip_2primitive__types_8hpp.html" target="_top" xlink:title=" ">
<polygon fill="white" stroke="black" points="390,-67.5 390,-97.5 497,-97.5 497,-67.5 390,-67.5"/>
<text text-anchor="start" x="398" y="-85.5" font-family="Helvetica" font-size="10.00">../../compat/vsomeip</text>
<text text-anchor="middle" x="443.5" y="-74.5" font-family="Helvetica" font-size="10.00">/primitive_types.hpp</text>
</a>
</g>
</g>
<!-- Node2&#45;&gt;Node7 -->
<g id="edge8" class="edge">
<title>Node2&#45;&gt;Node7</title>
<path fill="none" stroke="midnightblue" d="M207.57,-134.45C248.84,-126.01 313.8,-112.57 379.74,-98.14"/>
<polygon fill="midnightblue" stroke="midnightblue" points="380.88,-101.47 389.9,-95.91 379.38,-94.64 380.88,-101.47"/>
</g>
<!-- Node5&#45;&gt;Node4 -->
<g id="edge5" class="edge">
<title>Node5&#45;&gt;Node4</title>
<path fill="none" stroke="midnightblue" d="M165.5,-67.4C165.5,-59.64 165.5,-49.81 165.5,-40.86"/>
<polygon fill="midnightblue" stroke="midnightblue" points="169,-40.58 165.5,-30.58 162,-40.58 169,-40.58"/>
</g>
<!-- Node6&#45;&gt;Node4 -->
<g id="edge7" class="edge">
<title>Node6&#45;&gt;Node4</title>
<path fill="none" stroke="midnightblue" d="M279.04,-67.4C257.66,-57.81 229.19,-45.05 206.1,-34.7"/>
<polygon fill="midnightblue" stroke="midnightblue" points="207.46,-31.47 196.9,-30.58 204.59,-37.86 207.46,-31.47"/>
</g>
<!-- Node8 -->
<g id="node8" class="node">
<title>Node8</title>
<g id="a_node8"><a xlink:title=" ">
<polygon fill="white" stroke="#bfbfbf" points="394.5,-6 394.5,-25 432.5,-25 432.5,-6 394.5,-6"/>
<text text-anchor="middle" x="413.5" y="-13" font-family="Helvetica" font-size="10.00">array</text>
</a>
</g>
</g>
<!-- Node7&#45;&gt;Node8 -->
<g id="edge9" class="edge">
<title>Node7&#45;&gt;Node8</title>
<path fill="none" stroke="midnightblue" d="M436.99,-67.4C432.54,-57.76 426.61,-44.91 421.82,-34.54"/>
<polygon fill="midnightblue" stroke="midnightblue" points="424.88,-32.81 417.51,-25.19 418.53,-35.74 424.88,-32.81"/>
</g>
<!-- Node9 -->
<g id="node9" class="node">
<title>Node9</title>
<g id="a_node9"><a xlink:title=" ">
<polygon fill="white" stroke="#bfbfbf" points="450.5,-6 450.5,-25 496.5,-25 496.5,-6 450.5,-6"/>
<text text-anchor="middle" x="473.5" y="-13" font-family="Helvetica" font-size="10.00">cstdint</text>
</a>
</g>
</g>
<!-- Node7&#45;&gt;Node9 -->
<g id="edge10" class="edge">
<title>Node7&#45;&gt;Node9</title>
<path fill="none" stroke="midnightblue" d="M450.01,-67.4C454.46,-57.76 460.39,-44.91 465.18,-34.54"/>
<polygon fill="midnightblue" stroke="midnightblue" points="468.47,-35.74 469.49,-25.19 462.12,-32.81 468.47,-35.74"/>
</g>
</g>
</svg>
