<?xml version="1.0" encoding="UTF-8" standalone="no"?>
<!DOCTYPE svg PUBLIC "-//W3C//DTD SVG 1.1//EN"
 "http://www.w3.org/Graphics/SVG/1.1/DTD/svg11.dtd">
<!-- Generated by graphviz version 2.44.0 (0)
 -->
<!-- Title: /home/ec2&#45;user/workspace/vsomeip/implementation/compat/runtime/src/runtime.cpp Pages: 1 -->
<svg width="431pt" height="296pt"
 viewBox="0.00 0.00 431.00 296.00" xmlns="http://www.w3.org/2000/svg" xmlns:xlink="http://www.w3.org/1999/xlink">
<g id="graph0" class="graph" transform="scale(1 1) rotate(0) translate(4 292)">
<title>/home/ec2&#45;user/workspace/vsomeip/implementation/compat/runtime/src/runtime.cpp</title>
<polygon fill="white" stroke="transparent" points="-4,4 -4,-292 427,-292 427,4 -4,4"/>
<!-- Node1 -->
<g id="node1" class="node">
<title>Node1</title>
<g id="a_node1"><a xlink:title=" ">
<polygon fill="#bfbfbf" stroke="black" points="125.5,-246.5 125.5,-287.5 283.5,-287.5 283.5,-246.5 125.5,-246.5"/>
<text text-anchor="start" x="133.5" y="-275.5" font-family="Helvetica" font-size="10.00">/home/ec2&#45;user/workspace</text>
<text text-anchor="start" x="133.5" y="-264.5" font-family="Helvetica" font-size="10.00">/vsomeip/implementation</text>
<text text-anchor="middle" x="204.5" y="-253.5" font-family="Helvetica" font-size="10.00">/compat/runtime/src/runtime.cpp</text>
</a>
</g>
</g>
<!-- Node2 -->
<g id="node2" class="node">
<title>Node2</title>
<g id="a_node2"><a xlink:href="interface_2compat_2vsomeip_2runtime_8hpp.html" target="_top" xlink:title=" ">
<polygon fill="white" stroke="black" points="80,-123.5 80,-142.5 223,-142.5 223,-123.5 80,-123.5"/>
<text text-anchor="middle" x="151.5" y="-130.5" font-family="Helvetica" font-size="10.00">compat/vsomeip/runtime.hpp</text>
</a>
</g>
</g>
<!-- Node1&#45;&gt;Node2 -->
<g id="edge1" class="edge">
<title>Node1&#45;&gt;Node2</title>
<path fill="none" stroke="midnightblue" d="M196.57,-246.24C186.35,-220.8 168.75,-176.95 158.83,-152.27"/>
<polygon fill="midnightblue" stroke="midnightblue" points="161.96,-150.66 154.99,-142.69 155.47,-153.27 161.96,-150.66"/>
</g>
<!-- Node10 -->
<g id="node10" class="node">
<title>Node10</title>
<g id="a_node10"><a xlink:href="compat_2runtime_2include_2runtime__impl_8hpp.html" target="_top" xlink:title=" ">
<polygon fill="white" stroke="black" points="203.5,-179.5 203.5,-209.5 295.5,-209.5 295.5,-179.5 203.5,-179.5"/>
<text text-anchor="start" x="211.5" y="-197.5" font-family="Helvetica" font-size="10.00">../include/runtime</text>
<text text-anchor="middle" x="249.5" y="-186.5" font-family="Helvetica" font-size="10.00">_impl.hpp</text>
</a>
</g>
</g>
<!-- Node1&#45;&gt;Node10 -->
<g id="edge9" class="edge">
<title>Node1&#45;&gt;Node10</title>
<path fill="none" stroke="midnightblue" d="M217.04,-246.36C222.57,-237.68 229.12,-227.42 234.88,-218.4"/>
<polygon fill="midnightblue" stroke="midnightblue" points="237.88,-220.2 240.31,-209.89 231.98,-216.44 237.88,-220.2"/>
</g>
<!-- Node3 -->
<g id="node3" class="node">
<title>Node3</title>
<g id="a_node3"><a xlink:title=" ">
<polygon fill="white" stroke="#bfbfbf" points="0,-62 0,-81 53,-81 53,-62 0,-62"/>
<text text-anchor="middle" x="26.5" y="-69" font-family="Helvetica" font-size="10.00">memory</text>
</a>
</g>
</g>
<!-- Node2&#45;&gt;Node3 -->
<g id="edge2" class="edge">
<title>Node2&#45;&gt;Node3</title>
<path fill="none" stroke="midnightblue" d="M133.59,-123.48C112.61,-113.49 77.65,-96.85 53.41,-85.31"/>
<polygon fill="midnightblue" stroke="midnightblue" points="54.91,-82.15 44.38,-81.01 51.9,-88.47 54.91,-82.15"/>
</g>
<!-- Node4 -->
<g id="node4" class="node">
<title>Node4</title>
<g id="a_node4"><a xlink:title=" ">
<polygon fill="white" stroke="#bfbfbf" points="71,-62 71,-81 112,-81 112,-62 71,-62"/>
<text text-anchor="middle" x="91.5" y="-69" font-family="Helvetica" font-size="10.00">string</text>
</a>
</g>
</g>
<!-- Node2&#45;&gt;Node4 -->
<g id="edge3" class="edge">
<title>Node2&#45;&gt;Node4</title>
<path fill="none" stroke="midnightblue" d="M142.9,-123.48C133.64,-114.28 118.68,-99.46 107.29,-88.16"/>
<polygon fill="midnightblue" stroke="midnightblue" points="109.65,-85.57 100.08,-81.01 104.72,-90.54 109.65,-85.57"/>
</g>
<!-- Node5 -->
<g id="node5" class="node">
<title>Node5</title>
<g id="a_node5"><a xlink:title=" ">
<polygon fill="white" stroke="#bfbfbf" points="130,-62 130,-81 173,-81 173,-62 130,-62"/>
<text text-anchor="middle" x="151.5" y="-69" font-family="Helvetica" font-size="10.00">vector</text>
</a>
</g>
</g>
<!-- Node2&#45;&gt;Node5 -->
<g id="edge4" class="edge">
<title>Node2&#45;&gt;Node5</title>
<path fill="none" stroke="midnightblue" d="M151.5,-123.48C151.5,-115.08 151.5,-101.98 151.5,-91.16"/>
<polygon fill="midnightblue" stroke="midnightblue" points="155,-91.01 151.5,-81.01 148,-91.01 155,-91.01"/>
</g>
<!-- Node6 -->
<g id="node6" class="node">
<title>Node6</title>
<g id="a_node6"><a xlink:href="compat_2vsomeip_2export_8hpp.html" target="_top" xlink:title=" ">
<polygon fill="white" stroke="black" points="191,-56.5 191,-86.5 298,-86.5 298,-56.5 191,-56.5"/>
<text text-anchor="start" x="199" y="-74.5" font-family="Helvetica" font-size="10.00">../../compat/vsomeip</text>
<text text-anchor="middle" x="244.5" y="-63.5" font-family="Helvetica" font-size="10.00">/export.hpp</text>
</a>
</g>
</g>
<!-- Node2&#45;&gt;Node6 -->
<g id="edge5" class="edge">
<title>Node2&#45;&gt;Node6</title>
<path fill="none" stroke="midnightblue" d="M164.82,-123.48C177.54,-115.34 197.15,-102.79 213.74,-92.18"/>
<polygon fill="midnightblue" stroke="midnightblue" points="216.04,-94.86 222.58,-86.52 212.27,-88.96 216.04,-94.86"/>
</g>
<!-- Node7 -->
<g id="node7" class="node">
<title>Node7</title>
<g id="a_node7"><a xlink:href="interface_2compat_2vsomeip_2primitive__types_8hpp.html" target="_top" xlink:title=" ">
<polygon fill="white" stroke="black" points="316,-56.5 316,-86.5 423,-86.5 423,-56.5 316,-56.5"/>
<text text-anchor="start" x="324" y="-74.5" font-family="Helvetica" font-size="10.00">../../compat/vsomeip</text>
<text text-anchor="middle" x="369.5" y="-63.5" font-family="Helvetica" font-size="10.00">/primitive_types.hpp</text>
</a>
</g>
</g>
<!-- Node2&#45;&gt;Node7 -->
<g id="edge6" class="edge">
<title>Node2&#45;&gt;Node7</title>
<path fill="none" stroke="midnightblue" d="M182.73,-123.48C215.36,-114.57 267.39,-100.37 308.26,-89.22"/>
<polygon fill="midnightblue" stroke="midnightblue" points="309.4,-92.53 318.12,-86.52 307.55,-85.78 309.4,-92.53"/>
</g>
<!-- Node8 -->
<g id="node8" class="node">
<title>Node8</title>
<g id="a_node8"><a xlink:title=" ">
<polygon fill="white" stroke="#bfbfbf" points="320.5,-0.5 320.5,-19.5 358.5,-19.5 358.5,-0.5 320.5,-0.5"/>
<text text-anchor="middle" x="339.5" y="-7.5" font-family="Helvetica" font-size="10.00">array</text>
</a>
</g>
</g>
<!-- Node7&#45;&gt;Node8 -->
<g id="edge7" class="edge">
<title>Node7&#45;&gt;Node8</title>
<path fill="none" stroke="midnightblue" d="M362.39,-56.4C358.21,-48.11 352.89,-37.55 348.43,-28.71"/>
<polygon fill="midnightblue" stroke="midnightblue" points="351.49,-27.01 343.87,-19.66 345.24,-30.16 351.49,-27.01"/>
</g>
<!-- Node9 -->
<g id="node9" class="node">
<title>Node9</title>
<g id="a_node9"><a xlink:title=" ">
<polygon fill="white" stroke="#bfbfbf" points="376.5,-0.5 376.5,-19.5 422.5,-19.5 422.5,-0.5 376.5,-0.5"/>
<text text-anchor="middle" x="399.5" y="-7.5" font-family="Helvetica" font-size="10.00">cstdint</text>
</a>
</g>
</g>
<!-- Node7&#45;&gt;Node9 -->
<g id="edge8" class="edge">
<title>Node7&#45;&gt;Node9</title>
<path fill="none" stroke="midnightblue" d="M376.61,-56.4C380.79,-48.11 386.11,-37.55 390.57,-28.71"/>
<polygon fill="midnightblue" stroke="midnightblue" points="393.76,-30.16 395.13,-19.66 387.51,-27.01 393.76,-30.16"/>
</g>
<!-- Node10&#45;&gt;Node2 -->
<g id="edge12" class="edge">
<title>Node10&#45;&gt;Node2</title>
<path fill="none" stroke="midnightblue" d="M226.28,-179.4C210.71,-169.95 190.3,-157.56 174.74,-148.11"/>
<polygon fill="midnightblue" stroke="midnightblue" points="176.12,-144.86 165.76,-142.66 172.49,-150.84 176.12,-144.86"/>
</g>
<!-- Node11 -->
<g id="node11" class="node">
<title>Node11</title>
<g id="a_node11"><a xlink:title=" ">
<polygon fill="white" stroke="#bfbfbf" points="241,-123.5 241,-142.5 276,-142.5 276,-123.5 241,-123.5"/>
<text text-anchor="middle" x="258.5" y="-130.5" font-family="Helvetica" font-size="10.00">map</text>
</a>
</g>
</g>
<!-- Node10&#45;&gt;Node11 -->
<g id="edge10" class="edge">
<title>Node10&#45;&gt;Node11</title>
<path fill="none" stroke="midnightblue" d="M251.63,-179.4C252.85,-171.38 254.38,-161.23 255.69,-152.57"/>
<polygon fill="midnightblue" stroke="midnightblue" points="259.16,-153.07 257.19,-142.66 252.23,-152.02 259.16,-153.07"/>
</g>
<!-- Node12 -->
<g id="node12" class="node">
<title>Node12</title>
<g id="a_node12"><a xlink:title=" ">
<polygon fill="white" stroke="#bfbfbf" points="294.5,-123.5 294.5,-142.5 338.5,-142.5 338.5,-123.5 294.5,-123.5"/>
<text text-anchor="middle" x="316.5" y="-130.5" font-family="Helvetica" font-size="10.00">mutex</text>
</a>
</g>
</g>
<!-- Node10&#45;&gt;Node12 -->
<g id="edge11" class="edge">
<title>Node10&#45;&gt;Node12</title>
<path fill="none" stroke="midnightblue" d="M265.38,-179.4C275.52,-170.4 288.66,-158.72 299.09,-149.47"/>
<polygon fill="midnightblue" stroke="midnightblue" points="301.6,-151.92 306.75,-142.66 296.95,-146.68 301.6,-151.92"/>
</g>
</g>
</svg>
