<?xml version="1.0" encoding="UTF-8" standalone="no"?>
<!DOCTYPE svg PUBLIC "-//W3C//DTD SVG 1.1//EN"
 "http://www.w3.org/Graphics/SVG/1.1/DTD/svg11.dtd">
<!-- Generated by graphviz version 2.44.0 (0)
 -->
<!-- Title: /home/ec2&#45;user/workspace/vsomeip/implementation/compat/message/include/message_base_impl.hpp Pages: 1 -->
<svg width="594pt" height="307pt"
 viewBox="0.00 0.00 594.00 307.00" xmlns="http://www.w3.org/2000/svg" xmlns:xlink="http://www.w3.org/1999/xlink">
<g id="graph0" class="graph" transform="scale(1 1) rotate(0) translate(4 303)">
<title>/home/ec2&#45;user/workspace/vsomeip/implementation/compat/message/include/message_base_impl.hpp</title>
<polygon fill="white" stroke="transparent" points="-4,4 -4,-303 590,-303 590,4 -4,4"/>
<!-- Node1 -->
<g id="node1" class="node">
<title>Node1</title>
<g id="a_node1"><a xlink:title=" ">
<polygon fill="#bfbfbf" stroke="black" points="57.5,-246.5 57.5,-298.5 191.5,-298.5 191.5,-246.5 57.5,-246.5"/>
<text text-anchor="start" x="65.5" y="-286.5" font-family="Helvetica" font-size="10.00">/home/ec2&#45;user/workspace</text>
<text text-anchor="start" x="65.5" y="-275.5" font-family="Helvetica" font-size="10.00">/vsomeip/implementation</text>
<text text-anchor="start" x="65.5" y="-264.5" font-family="Helvetica" font-size="10.00">/compat/message/include</text>
<text text-anchor="middle" x="124.5" y="-253.5" font-family="Helvetica" font-size="10.00">/message_base_impl.hpp</text>
</a>
</g>
</g>
<!-- Node2 -->
<g id="node2" class="node">
<title>Node2</title>
<g id="a_node2"><a xlink:href="compat_2vsomeip_2export_8hpp.html" target="_top" xlink:title=" ">
<polygon fill="white" stroke="black" points="0,-0.5 0,-19.5 137,-19.5 137,-0.5 0,-0.5"/>
<text text-anchor="middle" x="68.5" y="-7.5" font-family="Helvetica" font-size="10.00">compat/vsomeip/export.hpp</text>
</a>
</g>
</g>
<!-- Node1&#45;&gt;Node2 -->
<g id="edge1" class="edge">
<title>Node1&#45;&gt;Node2</title>
<path fill="none" stroke="midnightblue" d="M75.61,-246.33C61.96,-236.84 48.65,-224.7 40.5,-210 7.27,-150.03 8.37,-120.54 31.5,-56 35.44,-45 43.36,-34.77 50.86,-26.85"/>
<polygon fill="midnightblue" stroke="midnightblue" points="53.39,-29.27 58.06,-19.76 48.48,-24.28 53.39,-29.27"/>
</g>
<!-- Node3 -->
<g id="node3" class="node">
<title>Node3</title>
<g id="a_node3"><a xlink:href="compat_2vsomeip_2message_8hpp.html" target="_top" xlink:title=" ">
<polygon fill="white" stroke="black" points="49.5,-190.5 49.5,-209.5 199.5,-209.5 199.5,-190.5 49.5,-190.5"/>
<text text-anchor="middle" x="124.5" y="-197.5" font-family="Helvetica" font-size="10.00">compat/vsomeip/message.hpp</text>
</a>
</g>
</g>
<!-- Node1&#45;&gt;Node3 -->
<g id="edge2" class="edge">
<title>Node1&#45;&gt;Node3</title>
<path fill="none" stroke="midnightblue" d="M124.5,-246.45C124.5,-237.73 124.5,-228.1 124.5,-219.96"/>
<polygon fill="midnightblue" stroke="midnightblue" points="128,-219.7 124.5,-209.7 121,-219.7 128,-219.7"/>
</g>
<!-- Node12 -->
<g id="node12" class="node">
<title>Node12</title>
<g id="a_node12"><a xlink:title=" ">
<polygon fill="white" stroke="#bfbfbf" points="218,-190.5 218,-209.5 333,-209.5 333,-190.5 218,-190.5"/>
<text text-anchor="middle" x="275.5" y="-197.5" font-family="Helvetica" font-size="10.00">vsomeip/message.hpp</text>
</a>
</g>
</g>
<!-- Node1&#45;&gt;Node12 -->
<g id="edge15" class="edge">
<title>Node1&#45;&gt;Node12</title>
<path fill="none" stroke="midnightblue" d="M178.16,-246.45C201.8,-235.41 228.57,-222.91 248.04,-213.82"/>
<polygon fill="midnightblue" stroke="midnightblue" points="249.66,-216.93 257.24,-209.53 246.69,-210.59 249.66,-216.93"/>
</g>
<!-- Node4 -->
<g id="node4" class="node">
<title>Node4</title>
<g id="a_node4"><a xlink:title=" ">
<polygon fill="white" stroke="#bfbfbf" points="98,-129 98,-148 151,-148 151,-129 98,-129"/>
<text text-anchor="middle" x="124.5" y="-136" font-family="Helvetica" font-size="10.00">memory</text>
</a>
</g>
</g>
<!-- Node3&#45;&gt;Node4 -->
<g id="edge3" class="edge">
<title>Node3&#45;&gt;Node4</title>
<path fill="none" stroke="midnightblue" d="M124.5,-190.48C124.5,-182.08 124.5,-168.98 124.5,-158.16"/>
<polygon fill="midnightblue" stroke="midnightblue" points="128,-158.01 124.5,-148.01 121,-158.01 128,-158.01"/>
</g>
<!-- Node5 -->
<g id="node5" class="node">
<title>Node5</title>
<g id="a_node5"><a xlink:href="compat_2vsomeip_2message__base_8hpp.html" target="_top" xlink:title=" ">
<polygon fill="white" stroke="black" points="188,-123.5 188,-153.5 295,-153.5 295,-123.5 188,-123.5"/>
<text text-anchor="start" x="196" y="-141.5" font-family="Helvetica" font-size="10.00">../../compat/vsomeip</text>
<text text-anchor="middle" x="241.5" y="-130.5" font-family="Helvetica" font-size="10.00">/message_base.hpp</text>
</a>
</g>
</g>
<!-- Node3&#45;&gt;Node5 -->
<g id="edge4" class="edge">
<title>Node3&#45;&gt;Node5</title>
<path fill="none" stroke="midnightblue" d="M141.26,-190.48C157.78,-182.08 183.55,-168.97 204.82,-158.15"/>
<polygon fill="midnightblue" stroke="midnightblue" points="206.6,-161.18 213.93,-153.52 203.43,-154.94 206.6,-161.18"/>
</g>
<!-- Node5&#45;&gt;Node2 -->
<g id="edge7" class="edge">
<title>Node5&#45;&gt;Node2</title>
<path fill="none" stroke="midnightblue" d="M187.84,-127.53C131.47,-116.51 49.68,-98.77 40.5,-87 26.78,-69.41 40.82,-44.44 53.47,-27.99"/>
<polygon fill="midnightblue" stroke="midnightblue" points="56.54,-29.77 60.18,-19.83 51.13,-25.33 56.54,-29.77"/>
</g>
<!-- Node6 -->
<g id="node6" class="node">
<title>Node6</title>
<g id="a_node6"><a xlink:href="interface_2compat_2vsomeip_2enumeration__types_8hpp.html" target="_top" xlink:title=" ">
<polygon fill="white" stroke="black" points="340,-56.5 340,-86.5 461,-86.5 461,-56.5 340,-56.5"/>
<text text-anchor="start" x="348" y="-74.5" font-family="Helvetica" font-size="10.00">../../compat/vsomeip</text>
<text text-anchor="middle" x="400.5" y="-63.5" font-family="Helvetica" font-size="10.00">/enumeration_types.hpp</text>
</a>
</g>
</g>
<!-- Node5&#45;&gt;Node6 -->
<g id="edge5" class="edge">
<title>Node5&#45;&gt;Node6</title>
<path fill="none" stroke="midnightblue" d="M276,-123.4C299.65,-113.73 331.22,-100.82 356.65,-90.43"/>
<polygon fill="midnightblue" stroke="midnightblue" points="358.13,-93.6 366.07,-86.58 355.49,-87.12 358.13,-93.6"/>
</g>
<!-- Node8 -->
<g id="node8" class="node">
<title>Node8</title>
<g id="a_node8"><a xlink:href="compat_2vsomeip_2internal_2deserializable_8hpp.html" target="_top" xlink:title=" ">
<polygon fill="white" stroke="black" points="49.5,-56.5 49.5,-86.5 181.5,-86.5 181.5,-56.5 49.5,-56.5"/>
<text text-anchor="start" x="57.5" y="-74.5" font-family="Helvetica" font-size="10.00">../../compat/vsomeip</text>
<text text-anchor="middle" x="115.5" y="-63.5" font-family="Helvetica" font-size="10.00">/internal/deserializable.hpp</text>
</a>
</g>
</g>
<!-- Node5&#45;&gt;Node8 -->
<g id="edge8" class="edge">
<title>Node5&#45;&gt;Node8</title>
<path fill="none" stroke="midnightblue" d="M214.16,-123.4C195.91,-113.98 171.72,-101.5 151.86,-91.26"/>
<polygon fill="midnightblue" stroke="midnightblue" points="153.28,-88.05 142.79,-86.58 150.07,-94.27 153.28,-88.05"/>
</g>
<!-- Node9 -->
<g id="node9" class="node">
<title>Node9</title>
<g id="a_node9"><a xlink:href="compat_2vsomeip_2internal_2serializable_8hpp.html" target="_top" xlink:title=" ">
<polygon fill="white" stroke="black" points="199.5,-56.5 199.5,-86.5 321.5,-86.5 321.5,-56.5 199.5,-56.5"/>
<text text-anchor="start" x="207.5" y="-74.5" font-family="Helvetica" font-size="10.00">../../compat/vsomeip</text>
<text text-anchor="middle" x="260.5" y="-63.5" font-family="Helvetica" font-size="10.00">/internal/serializable.hpp</text>
</a>
</g>
</g>
<!-- Node5&#45;&gt;Node9 -->
<g id="edge10" class="edge">
<title>Node5&#45;&gt;Node9</title>
<path fill="none" stroke="midnightblue" d="M245.62,-123.4C247.94,-115.47 250.89,-105.38 253.55,-96.27"/>
<polygon fill="midnightblue" stroke="midnightblue" points="256.94,-97.16 256.39,-86.58 250.22,-95.19 256.94,-97.16"/>
</g>
<!-- Node10 -->
<g id="node10" class="node">
<title>Node10</title>
<g id="a_node10"><a xlink:href="interface_2compat_2vsomeip_2primitive__types_8hpp.html" target="_top" xlink:title=" ">
<polygon fill="white" stroke="black" points="479,-56.5 479,-86.5 586,-86.5 586,-56.5 479,-56.5"/>
<text text-anchor="start" x="487" y="-74.5" font-family="Helvetica" font-size="10.00">../../compat/vsomeip</text>
<text text-anchor="middle" x="532.5" y="-63.5" font-family="Helvetica" font-size="10.00">/primitive_types.hpp</text>
</a>
</g>
</g>
<!-- Node5&#45;&gt;Node10 -->
<g id="edge12" class="edge">
<title>Node5&#45;&gt;Node10</title>
<path fill="none" stroke="midnightblue" d="M295.22,-125.86C339.38,-116.24 403.88,-102.08 468.75,-87.38"/>
<polygon fill="midnightblue" stroke="midnightblue" points="469.76,-90.74 478.74,-85.12 468.21,-83.92 469.76,-90.74"/>
</g>
<!-- Node7 -->
<g id="node7" class="node">
<title>Node7</title>
<g id="a_node7"><a xlink:title=" ">
<polygon fill="white" stroke="#bfbfbf" points="413.5,-0.5 413.5,-19.5 459.5,-19.5 459.5,-0.5 413.5,-0.5"/>
<text text-anchor="middle" x="436.5" y="-7.5" font-family="Helvetica" font-size="10.00">cstdint</text>
</a>
</g>
</g>
<!-- Node6&#45;&gt;Node7 -->
<g id="edge6" class="edge">
<title>Node6&#45;&gt;Node7</title>
<path fill="none" stroke="midnightblue" d="M409.03,-56.4C414.1,-48.02 420.57,-37.33 425.96,-28.42"/>
<polygon fill="midnightblue" stroke="midnightblue" points="429.08,-30.03 431.26,-19.66 423.09,-26.4 429.08,-30.03"/>
</g>
<!-- Node8&#45;&gt;Node2 -->
<g id="edge9" class="edge">
<title>Node8&#45;&gt;Node2</title>
<path fill="none" stroke="midnightblue" d="M104.36,-56.4C97.53,-47.75 88.76,-36.64 81.59,-27.58"/>
<polygon fill="midnightblue" stroke="midnightblue" points="84.28,-25.34 75.34,-19.66 78.79,-29.67 84.28,-25.34"/>
</g>
<!-- Node9&#45;&gt;Node2 -->
<g id="edge11" class="edge">
<title>Node9&#45;&gt;Node2</title>
<path fill="none" stroke="midnightblue" d="M215,-56.4C181.68,-46.07 137.01,-32.23 105.79,-22.56"/>
<polygon fill="midnightblue" stroke="midnightblue" points="106.75,-19.19 96.16,-19.57 104.67,-25.87 106.75,-19.19"/>
</g>
<!-- Node10&#45;&gt;Node7 -->
<g id="edge14" class="edge">
<title>Node10&#45;&gt;Node7</title>
<path fill="none" stroke="midnightblue" d="M509.75,-56.4C494.51,-46.95 474.51,-34.56 459.26,-25.11"/>
<polygon fill="midnightblue" stroke="midnightblue" points="460.81,-21.95 450.47,-19.66 457.12,-27.9 460.81,-21.95"/>
</g>
<!-- Node11 -->
<g id="node11" class="node">
<title>Node11</title>
<g id="a_node11"><a xlink:title=" ">
<polygon fill="white" stroke="#bfbfbf" points="513.5,-0.5 513.5,-19.5 551.5,-19.5 551.5,-0.5 513.5,-0.5"/>
<text text-anchor="middle" x="532.5" y="-7.5" font-family="Helvetica" font-size="10.00">array</text>
</a>
</g>
</g>
<!-- Node10&#45;&gt;Node11 -->
<g id="edge13" class="edge">
<title>Node10&#45;&gt;Node11</title>
<path fill="none" stroke="midnightblue" d="M532.5,-56.4C532.5,-48.47 532.5,-38.46 532.5,-29.86"/>
<polygon fill="midnightblue" stroke="midnightblue" points="536,-29.66 532.5,-19.66 529,-29.66 536,-29.66"/>
</g>
</g>
</svg>
