<?xml version="1.0" encoding="UTF-8" standalone="no"?>
<!DOCTYPE svg PUBLIC "-//W3C//DTD SVG 1.1//EN"
 "http://www.w3.org/Graphics/SVG/1.1/DTD/svg11.dtd">
<!-- Generated by graphviz version 2.44.0 (0)
 -->
<!-- Title: /home/ec2&#45;user/workspace/vsomeip/interface/compat/vsomeip/payload.hpp Pages: 1 -->
<svg width="657pt" height="228pt"
 viewBox="0.00 0.00 656.50 228.00" xmlns="http://www.w3.org/2000/svg" xmlns:xlink="http://www.w3.org/1999/xlink">
<g id="graph0" class="graph" transform="scale(1 1) rotate(0) translate(4 224)">
<title>/home/ec2&#45;user/workspace/vsomeip/interface/compat/vsomeip/payload.hpp</title>
<polygon fill="white" stroke="transparent" points="-4,4 -4,-224 652.5,-224 652.5,4 -4,4"/>
<!-- Node1 -->
<g id="node1" class="node">
<title>Node1</title>
<g id="a_node1"><a xlink:title=" ">
<polygon fill="#bfbfbf" stroke="black" points="339,-178.5 339,-219.5 473,-219.5 473,-178.5 339,-178.5"/>
<text text-anchor="start" x="347" y="-207.5" font-family="Helvetica" font-size="10.00">/home/ec2&#45;user/workspace</text>
<text text-anchor="start" x="347" y="-196.5" font-family="Helvetica" font-size="10.00">/vsomeip/interface/compat</text>
<text text-anchor="middle" x="406" y="-185.5" font-family="Helvetica" font-size="10.00">/vsomeip/payload.hpp</text>
</a>
</g>
</g>
<!-- Node2 -->
<g id="node2" class="node">
<title>Node2</title>
<g id="a_node2"><a xlink:href="compat_2message_2include_2payload__impl_8hpp.html" target="_top" xlink:title=" ">
<polygon fill="white" stroke="black" points="263,-89.5 263,-141.5 397,-141.5 397,-89.5 263,-89.5"/>
<text text-anchor="start" x="271" y="-129.5" font-family="Helvetica" font-size="10.00">/home/ec2&#45;user/workspace</text>
<text text-anchor="start" x="271" y="-118.5" font-family="Helvetica" font-size="10.00">/vsomeip/implementation</text>
<text text-anchor="start" x="271" y="-107.5" font-family="Helvetica" font-size="10.00">/compat/message/include</text>
<text text-anchor="middle" x="330" y="-96.5" font-family="Helvetica" font-size="10.00">/payload_impl.hpp</text>
</a>
</g>
</g>
<!-- Node1&#45;&gt;Node2 -->
<g id="edge1" class="edge">
<title>Node1&#45;&gt;Node2</title>
<path fill="none" stroke="midnightblue" d="M380.53,-170.68C371.76,-161.29 362,-150.82 353.41,-141.61"/>
<polygon fill="midnightblue" stroke="midnightblue" points="378.22,-173.34 387.6,-178.27 383.34,-168.57 378.22,-173.34"/>
</g>
<!-- Node7 -->
<g id="node7" class="node">
<title>Node7</title>
<g id="a_node7"><a xlink:href="compat_2vsomeip_2vsomeip_8hpp.html" target="_top" xlink:title=" ">
<polygon fill="white" stroke="black" points="415,-95 415,-136 549,-136 549,-95 415,-95"/>
<text text-anchor="start" x="423" y="-124" font-family="Helvetica" font-size="10.00">/home/ec2&#45;user/workspace</text>
<text text-anchor="start" x="423" y="-113" font-family="Helvetica" font-size="10.00">/vsomeip/interface/compat</text>
<text text-anchor="middle" x="482" y="-102" font-family="Helvetica" font-size="10.00">/vsomeip/vsomeip.hpp</text>
</a>
</g>
</g>
<!-- Node1&#45;&gt;Node7 -->
<g id="edge6" class="edge">
<title>Node1&#45;&gt;Node7</title>
<path fill="none" stroke="midnightblue" d="M431.45,-170.71C442.04,-159.36 454.09,-146.43 463.77,-136.05"/>
<polygon fill="midnightblue" stroke="midnightblue" points="428.66,-168.57 424.4,-178.27 433.78,-173.34 428.66,-168.57"/>
</g>
<!-- Node3 -->
<g id="node3" class="node">
<title>Node3</title>
<g id="a_node3"><a xlink:href="compat_2message_2src_2message__impl_8cpp.html" target="_top" xlink:title=" ">
<polygon fill="white" stroke="black" points="0,-0.5 0,-52.5 154,-52.5 154,-0.5 0,-0.5"/>
<text text-anchor="start" x="8" y="-40.5" font-family="Helvetica" font-size="10.00">/home/ec2&#45;user/workspace</text>
<text text-anchor="start" x="8" y="-29.5" font-family="Helvetica" font-size="10.00">/vsomeip/implementation</text>
<text text-anchor="start" x="8" y="-18.5" font-family="Helvetica" font-size="10.00">/compat/message/src/message</text>
<text text-anchor="middle" x="77" y="-7.5" font-family="Helvetica" font-size="10.00">_impl.cpp</text>
</a>
</g>
</g>
<!-- Node2&#45;&gt;Node3 -->
<g id="edge2" class="edge">
<title>Node2&#45;&gt;Node3</title>
<path fill="none" stroke="midnightblue" d="M253.3,-88.12C220.42,-76.82 182.21,-63.68 149.78,-52.53"/>
<polygon fill="midnightblue" stroke="midnightblue" points="252.27,-91.47 262.86,-91.41 254.55,-84.85 252.27,-91.47"/>
</g>
<!-- Node4 -->
<g id="node4" class="node">
<title>Node4</title>
<g id="a_node4"><a xlink:href="compat_2message_2src_2payload__impl_8cpp.html" target="_top" xlink:title=" ">
<polygon fill="white" stroke="black" points="172,-0.5 172,-52.5 320,-52.5 320,-0.5 172,-0.5"/>
<text text-anchor="start" x="180" y="-40.5" font-family="Helvetica" font-size="10.00">/home/ec2&#45;user/workspace</text>
<text text-anchor="start" x="180" y="-29.5" font-family="Helvetica" font-size="10.00">/vsomeip/implementation</text>
<text text-anchor="start" x="180" y="-18.5" font-family="Helvetica" font-size="10.00">/compat/message/src/payload</text>
<text text-anchor="middle" x="246" y="-7.5" font-family="Helvetica" font-size="10.00">_impl.cpp</text>
</a>
</g>
</g>
<!-- Node2&#45;&gt;Node4 -->
<g id="edge3" class="edge">
<title>Node2&#45;&gt;Node4</title>
<path fill="none" stroke="midnightblue" d="M298.69,-82.08C289.29,-72.34 279.12,-61.8 270.24,-52.61"/>
<polygon fill="midnightblue" stroke="midnightblue" points="296.24,-84.57 305.7,-89.34 301.28,-79.71 296.24,-84.57"/>
</g>
<!-- Node5 -->
<g id="node5" class="node">
<title>Node5</title>
<g id="a_node5"><a xlink:href="compat_2runtime_2src_2application__impl_8cpp.html" target="_top" xlink:title=" ">
<polygon fill="white" stroke="black" points="338.5,-0.5 338.5,-52.5 491.5,-52.5 491.5,-0.5 338.5,-0.5"/>
<text text-anchor="start" x="346.5" y="-40.5" font-family="Helvetica" font-size="10.00">/home/ec2&#45;user/workspace</text>
<text text-anchor="start" x="346.5" y="-29.5" font-family="Helvetica" font-size="10.00">/vsomeip/implementation</text>
<text text-anchor="start" x="346.5" y="-18.5" font-family="Helvetica" font-size="10.00">/compat/runtime/src/application</text>
<text text-anchor="middle" x="415" y="-7.5" font-family="Helvetica" font-size="10.00">_impl.cpp</text>
</a>
</g>
</g>
<!-- Node2&#45;&gt;Node5 -->
<g id="edge4" class="edge">
<title>Node2&#45;&gt;Node5</title>
<path fill="none" stroke="midnightblue" d="M361.68,-82.08C371.2,-72.34 381.49,-61.8 390.47,-52.61"/>
<polygon fill="midnightblue" stroke="midnightblue" points="359.07,-79.74 354.59,-89.34 364.08,-84.63 359.07,-79.74"/>
</g>
<!-- Node6 -->
<g id="node6" class="node">
<title>Node6</title>
<g id="a_node6"><a xlink:href="compat_2runtime_2src_2runtime__impl_8cpp.html" target="_top" xlink:title=" ">
<polygon fill="white" stroke="black" points="509.5,-0.5 509.5,-52.5 648.5,-52.5 648.5,-0.5 509.5,-0.5"/>
<text text-anchor="start" x="517.5" y="-40.5" font-family="Helvetica" font-size="10.00">/home/ec2&#45;user/workspace</text>
<text text-anchor="start" x="517.5" y="-29.5" font-family="Helvetica" font-size="10.00">/vsomeip/implementation</text>
<text text-anchor="start" x="517.5" y="-18.5" font-family="Helvetica" font-size="10.00">/compat/runtime/src/runtime</text>
<text text-anchor="middle" x="579" y="-7.5" font-family="Helvetica" font-size="10.00">_impl.cpp</text>
</a>
</g>
</g>
<!-- Node2&#45;&gt;Node6 -->
<g id="edge5" class="edge">
<title>Node2&#45;&gt;Node6</title>
<path fill="none" stroke="midnightblue" d="M406.59,-87.74C439.32,-76.3 477.27,-63.04 509.22,-51.88"/>
<polygon fill="midnightblue" stroke="midnightblue" points="405.34,-84.47 397.05,-91.07 407.65,-91.08 405.34,-84.47"/>
</g>
</g>
</svg>
