<?xml version="1.0" encoding="UTF-8" standalone="no"?>
<!DOCTYPE svg PUBLIC "-//W3C//DTD SVG 1.1//EN"
 "http://www.w3.org/Graphics/SVG/1.1/DTD/svg11.dtd">
<!-- Generated by graphviz version 2.44.0 (0)
 -->
<!-- Title: /home/ec2&#45;user/workspace/vsomeip/interface/compat/vsomeip/message_base.hpp Pages: 1 -->
<svg width="559pt" height="184pt"
 viewBox="0.00 0.00 559.22 184.00" xmlns="http://www.w3.org/2000/svg" xmlns:xlink="http://www.w3.org/1999/xlink">
<g id="graph0" class="graph" transform="scale(1 1) rotate(0) translate(4 180)">
<title>/home/ec2&#45;user/workspace/vsomeip/interface/compat/vsomeip/message_base.hpp</title>
<polygon fill="white" stroke="transparent" points="-4,4 -4,-180 555.22,-180 555.22,4 -4,4"/>
<!-- Node1 -->
<g id="node1" class="node">
<title>Node1</title>
<g id="a_node1"><a xlink:title=" ">
<polygon fill="#bfbfbf" stroke="black" points="153.72,-134.5 153.72,-175.5 297.72,-175.5 297.72,-134.5 153.72,-134.5"/>
<text text-anchor="start" x="161.72" y="-163.5" font-family="Helvetica" font-size="10.00">/home/ec2&#45;user/workspace</text>
<text text-anchor="start" x="161.72" y="-152.5" font-family="Helvetica" font-size="10.00">/vsomeip/interface/compat</text>
<text text-anchor="middle" x="225.72" y="-141.5" font-family="Helvetica" font-size="10.00">/vsomeip/message_base.hpp</text>
</a>
</g>
</g>
<!-- Node2 -->
<g id="node2" class="node">
<title>Node2</title>
<g id="a_node2"><a xlink:href="interface_2compat_2vsomeip_2enumeration__types_8hpp.html" target="_top" xlink:title=" ">
<polygon fill="white" stroke="black" points="305.22,-67.5 305.22,-97.5 426.22,-97.5 426.22,-67.5 305.22,-67.5"/>
<text text-anchor="start" x="313.22" y="-85.5" font-family="Helvetica" font-size="10.00">../../compat/vsomeip</text>
<text text-anchor="middle" x="365.72" y="-74.5" font-family="Helvetica" font-size="10.00">/enumeration_types.hpp</text>
</a>
</g>
</g>
<!-- Node1&#45;&gt;Node2 -->
<g id="edge1" class="edge">
<title>Node1&#45;&gt;Node2</title>
<path fill="none" stroke="midnightblue" d="M264.72,-134.36C284.7,-124.3 308.89,-112.12 328.6,-102.2"/>
<polygon fill="midnightblue" stroke="midnightblue" points="330.23,-105.29 337.58,-97.67 327.08,-99.04 330.23,-105.29"/>
</g>
<!-- Node4 -->
<g id="node4" class="node">
<title>Node4</title>
<g id="a_node4"><a xlink:href="compat_2vsomeip_2export_8hpp.html" target="_top" xlink:title=" ">
<polygon fill="white" stroke="black" points="27.22,-0.5 27.22,-30.5 134.22,-30.5 134.22,-0.5 27.22,-0.5"/>
<text text-anchor="start" x="35.22" y="-18.5" font-family="Helvetica" font-size="10.00">../../compat/vsomeip</text>
<text text-anchor="middle" x="80.72" y="-7.5" font-family="Helvetica" font-size="10.00">/export.hpp</text>
</a>
</g>
</g>
<!-- Node1&#45;&gt;Node4 -->
<g id="edge3" class="edge">
<title>Node1&#45;&gt;Node4</title>
<path fill="none" stroke="midnightblue" d="M153.7,-145.24C96.76,-136.65 23.92,-121.42 5.72,-98 -2.73,-87.12 -0.75,-79.16 5.72,-67 12.67,-53.95 24.65,-43.67 37.02,-35.89"/>
<polygon fill="midnightblue" stroke="midnightblue" points="39.14,-38.7 46.03,-30.66 35.63,-32.65 39.14,-38.7"/>
</g>
<!-- Node5 -->
<g id="node5" class="node">
<title>Node5</title>
<g id="a_node5"><a xlink:href="compat_2vsomeip_2internal_2deserializable_8hpp.html" target="_top" xlink:title=" ">
<polygon fill="white" stroke="black" points="14.72,-67.5 14.72,-97.5 146.72,-97.5 146.72,-67.5 14.72,-67.5"/>
<text text-anchor="start" x="22.72" y="-85.5" font-family="Helvetica" font-size="10.00">../../compat/vsomeip</text>
<text text-anchor="middle" x="80.72" y="-74.5" font-family="Helvetica" font-size="10.00">/internal/deserializable.hpp</text>
</a>
</g>
</g>
<!-- Node1&#45;&gt;Node5 -->
<g id="edge4" class="edge">
<title>Node1&#45;&gt;Node5</title>
<path fill="none" stroke="midnightblue" d="M185.33,-134.36C164.55,-124.26 139.35,-112.01 118.9,-102.06"/>
<polygon fill="midnightblue" stroke="midnightblue" points="120.39,-98.9 109.87,-97.67 117.33,-105.19 120.39,-98.9"/>
</g>
<!-- Node6 -->
<g id="node6" class="node">
<title>Node6</title>
<g id="a_node6"><a xlink:href="compat_2vsomeip_2internal_2serializable_8hpp.html" target="_top" xlink:title=" ">
<polygon fill="white" stroke="black" points="164.72,-67.5 164.72,-97.5 286.72,-97.5 286.72,-67.5 164.72,-67.5"/>
<text text-anchor="start" x="172.72" y="-85.5" font-family="Helvetica" font-size="10.00">../../compat/vsomeip</text>
<text text-anchor="middle" x="225.72" y="-74.5" font-family="Helvetica" font-size="10.00">/internal/serializable.hpp</text>
</a>
</g>
</g>
<!-- Node1&#45;&gt;Node6 -->
<g id="edge6" class="edge">
<title>Node1&#45;&gt;Node6</title>
<path fill="none" stroke="midnightblue" d="M225.72,-134.36C225.72,-126.23 225.72,-116.7 225.72,-108.11"/>
<polygon fill="midnightblue" stroke="midnightblue" points="229.22,-107.89 225.72,-97.89 222.22,-107.89 229.22,-107.89"/>
</g>
<!-- Node7 -->
<g id="node7" class="node">
<title>Node7</title>
<g id="a_node7"><a xlink:href="interface_2compat_2vsomeip_2primitive__types_8hpp.html" target="_top" xlink:title=" ">
<polygon fill="white" stroke="black" points="444.22,-67.5 444.22,-97.5 551.22,-97.5 551.22,-67.5 444.22,-67.5"/>
<text text-anchor="start" x="452.22" y="-85.5" font-family="Helvetica" font-size="10.00">../../compat/vsomeip</text>
<text text-anchor="middle" x="497.72" y="-74.5" font-family="Helvetica" font-size="10.00">/primitive_types.hpp</text>
</a>
</g>
</g>
<!-- Node1&#45;&gt;Node7 -->
<g id="edge8" class="edge">
<title>Node1&#45;&gt;Node7</title>
<path fill="none" stroke="midnightblue" d="M297.9,-135.29C340.36,-124.29 393.54,-110.5 434.37,-99.92"/>
<polygon fill="midnightblue" stroke="midnightblue" points="435.4,-103.27 444.2,-97.37 433.64,-96.49 435.4,-103.27"/>
</g>
<!-- Node3 -->
<g id="node3" class="node">
<title>Node3</title>
<g id="a_node3"><a xlink:title=" ">
<polygon fill="white" stroke="#bfbfbf" points="378.72,-6 378.72,-25 424.72,-25 424.72,-6 378.72,-6"/>
<text text-anchor="middle" x="401.72" y="-13" font-family="Helvetica" font-size="10.00">cstdint</text>
</a>
</g>
</g>
<!-- Node2&#45;&gt;Node3 -->
<g id="edge2" class="edge">
<title>Node2&#45;&gt;Node3</title>
<path fill="none" stroke="midnightblue" d="M373.53,-67.4C378.92,-57.66 386.13,-44.65 391.91,-34.21"/>
<polygon fill="midnightblue" stroke="midnightblue" points="395.12,-35.64 396.91,-25.19 389,-32.25 395.12,-35.64"/>
</g>
<!-- Node5&#45;&gt;Node4 -->
<g id="edge5" class="edge">
<title>Node5&#45;&gt;Node4</title>
<path fill="none" stroke="midnightblue" d="M80.72,-67.4C80.72,-59.64 80.72,-49.81 80.72,-40.86"/>
<polygon fill="midnightblue" stroke="midnightblue" points="84.22,-40.58 80.72,-30.58 77.22,-40.58 84.22,-40.58"/>
</g>
<!-- Node6&#45;&gt;Node4 -->
<g id="edge7" class="edge">
<title>Node6&#45;&gt;Node4</title>
<path fill="none" stroke="midnightblue" d="M194.26,-67.4C172.88,-57.81 144.41,-45.05 121.33,-34.7"/>
<polygon fill="midnightblue" stroke="midnightblue" points="122.68,-31.47 112.12,-30.58 119.82,-37.86 122.68,-31.47"/>
</g>
<!-- Node7&#45;&gt;Node3 -->
<g id="edge10" class="edge">
<title>Node7&#45;&gt;Node3</title>
<path fill="none" stroke="midnightblue" d="M476.89,-67.4C460.94,-56.6 439.02,-41.76 422.97,-30.89"/>
<polygon fill="midnightblue" stroke="midnightblue" points="424.53,-27.72 414.29,-25.01 420.6,-33.51 424.53,-27.72"/>
</g>
<!-- Node8 -->
<g id="node8" class="node">
<title>Node8</title>
<g id="a_node8"><a xlink:title=" ">
<polygon fill="white" stroke="#bfbfbf" points="478.72,-6 478.72,-25 516.72,-25 516.72,-6 478.72,-6"/>
<text text-anchor="middle" x="497.72" y="-13" font-family="Helvetica" font-size="10.00">array</text>
</a>
</g>
</g>
<!-- Node7&#45;&gt;Node8 -->
<g id="edge9" class="edge">
<title>Node7&#45;&gt;Node8</title>
<path fill="none" stroke="midnightblue" d="M497.72,-67.4C497.72,-58.06 497.72,-45.71 497.72,-35.52"/>
<polygon fill="midnightblue" stroke="midnightblue" points="501.22,-35.19 497.72,-25.19 494.22,-35.19 501.22,-35.19"/>
</g>
</g>
</svg>
