<?xml version="1.0" encoding="UTF-8" standalone="no"?>
<!DOCTYPE svg PUBLIC "-//W3C//DTD SVG 1.1//EN"
 "http://www.w3.org/Graphics/SVG/1.1/DTD/svg11.dtd">
<!-- Generated by graphviz version 2.44.0 (0)
 -->
<!-- Title: /home/ec2&#45;user/workspace/vsomeip/interface/compat/vsomeip/plugins/pre_configuration_plugin.hpp Pages: 1 -->
<svg width="175pt" height="128pt"
 viewBox="0.00 0.00 175.00 128.00" xmlns="http://www.w3.org/2000/svg" xmlns:xlink="http://www.w3.org/1999/xlink">
<g id="graph0" class="graph" transform="scale(1 1) rotate(0) translate(4 124)">
<title>/home/ec2&#45;user/workspace/vsomeip/interface/compat/vsomeip/plugins/pre_configuration_plugin.hpp</title>
<polygon fill="white" stroke="transparent" points="-4,4 -4,-124 171,-124 171,4 -4,4"/>
<!-- Node1 -->
<g id="node1" class="node">
<title>Node1</title>
<g id="a_node1"><a xlink:title=" ">
<polygon fill="#bfbfbf" stroke="black" points="0,-67.5 0,-119.5 167,-119.5 167,-67.5 0,-67.5"/>
<text text-anchor="start" x="8" y="-107.5" font-family="Helvetica" font-size="10.00">/home/ec2&#45;user/workspace</text>
<text text-anchor="start" x="8" y="-96.5" font-family="Helvetica" font-size="10.00">/vsomeip/interface/compat</text>
<text text-anchor="start" x="8" y="-85.5" font-family="Helvetica" font-size="10.00">/vsomeip/plugins/pre_configuration</text>
<text text-anchor="middle" x="83.5" y="-74.5" font-family="Helvetica" font-size="10.00">_plugin.hpp</text>
</a>
</g>
</g>
<!-- Node2 -->
<g id="node2" class="node">
<title>Node2</title>
<g id="a_node2"><a xlink:href="compat_2vsomeip_2export_8hpp.html" target="_top" xlink:title=" ">
<polygon fill="white" stroke="black" points="25.5,-0.5 25.5,-30.5 141.5,-30.5 141.5,-0.5 25.5,-0.5"/>
<text text-anchor="start" x="33.5" y="-18.5" font-family="Helvetica" font-size="10.00">../../../compat/vsomeip</text>
<text text-anchor="middle" x="83.5" y="-7.5" font-family="Helvetica" font-size="10.00">/export.hpp</text>
</a>
</g>
</g>
<!-- Node1&#45;&gt;Node2 -->
<g id="edge1" class="edge">
<title>Node1&#45;&gt;Node2</title>
<path fill="none" stroke="midnightblue" d="M83.5,-67.19C83.5,-58.79 83.5,-49.44 83.5,-41.09"/>
<polygon fill="midnightblue" stroke="midnightblue" points="87,-40.85 83.5,-30.85 80,-40.85 87,-40.85"/>
</g>
</g>
</svg>
