<?xml version="1.0" encoding="UTF-8" standalone="no"?>
<!DOCTYPE svg PUBLIC "-//W3C//DTD SVG 1.1//EN"
 "http://www.w3.org/Graphics/SVG/1.1/DTD/svg11.dtd">
<!-- Generated by graphviz version 2.44.0 (0)
 -->
<!-- Title: /home/ec2&#45;user/workspace/vsomeip/interface/compat/vsomeip/application.hpp Pages: 1 -->
<svg width="386pt" height="228pt"
 viewBox="0.00 0.00 385.50 228.00" xmlns="http://www.w3.org/2000/svg" xmlns:xlink="http://www.w3.org/1999/xlink">
<g id="graph0" class="graph" transform="scale(1 1) rotate(0) translate(4 224)">
<title>/home/ec2&#45;user/workspace/vsomeip/interface/compat/vsomeip/application.hpp</title>
<polygon fill="white" stroke="transparent" points="-4,4 -4,-224 381.5,-224 381.5,4 -4,4"/>
<!-- Node1 -->
<g id="node1" class="node">
<title>Node1</title>
<g id="a_node1"><a xlink:title=" ">
<polygon fill="#bfbfbf" stroke="black" points="167.5,-178.5 167.5,-219.5 301.5,-219.5 301.5,-178.5 167.5,-178.5"/>
<text text-anchor="start" x="175.5" y="-207.5" font-family="Helvetica" font-size="10.00">/home/ec2&#45;user/workspace</text>
<text text-anchor="start" x="175.5" y="-196.5" font-family="Helvetica" font-size="10.00">/vsomeip/interface/compat</text>
<text text-anchor="middle" x="234.5" y="-185.5" font-family="Helvetica" font-size="10.00">/vsomeip/application.hpp</text>
</a>
</g>
</g>
<!-- Node2 -->
<g id="node2" class="node">
<title>Node2</title>
<g id="a_node2"><a xlink:href="compat_2runtime_2include_2application__impl_8hpp.html" target="_top" xlink:title=" ">
<polygon fill="white" stroke="black" points="91.5,-89.5 91.5,-141.5 225.5,-141.5 225.5,-89.5 91.5,-89.5"/>
<text text-anchor="start" x="99.5" y="-129.5" font-family="Helvetica" font-size="10.00">/home/ec2&#45;user/workspace</text>
<text text-anchor="start" x="99.5" y="-118.5" font-family="Helvetica" font-size="10.00">/vsomeip/implementation</text>
<text text-anchor="start" x="99.5" y="-107.5" font-family="Helvetica" font-size="10.00">/compat/runtime/include</text>
<text text-anchor="middle" x="158.5" y="-96.5" font-family="Helvetica" font-size="10.00">/application_impl.hpp</text>
</a>
</g>
</g>
<!-- Node1&#45;&gt;Node2 -->
<g id="edge1" class="edge">
<title>Node1&#45;&gt;Node2</title>
<path fill="none" stroke="midnightblue" d="M209.03,-170.68C200.26,-161.29 190.5,-150.82 181.91,-141.61"/>
<polygon fill="midnightblue" stroke="midnightblue" points="206.72,-173.34 216.1,-178.27 211.84,-168.57 206.72,-173.34"/>
</g>
<!-- Node5 -->
<g id="node5" class="node">
<title>Node5</title>
<g id="a_node5"><a xlink:href="compat_2vsomeip_2vsomeip_8hpp.html" target="_top" xlink:title=" ">
<polygon fill="white" stroke="black" points="243.5,-95 243.5,-136 377.5,-136 377.5,-95 243.5,-95"/>
<text text-anchor="start" x="251.5" y="-124" font-family="Helvetica" font-size="10.00">/home/ec2&#45;user/workspace</text>
<text text-anchor="start" x="251.5" y="-113" font-family="Helvetica" font-size="10.00">/vsomeip/interface/compat</text>
<text text-anchor="middle" x="310.5" y="-102" font-family="Helvetica" font-size="10.00">/vsomeip/vsomeip.hpp</text>
</a>
</g>
</g>
<!-- Node1&#45;&gt;Node5 -->
<g id="edge4" class="edge">
<title>Node1&#45;&gt;Node5</title>
<path fill="none" stroke="midnightblue" d="M259.95,-170.71C270.54,-159.36 282.59,-146.43 292.27,-136.05"/>
<polygon fill="midnightblue" stroke="midnightblue" points="257.16,-168.57 252.9,-178.27 262.28,-173.34 257.16,-168.57"/>
</g>
<!-- Node3 -->
<g id="node3" class="node">
<title>Node3</title>
<g id="a_node3"><a xlink:href="compat_2runtime_2src_2application__impl_8cpp.html" target="_top" xlink:title=" ">
<polygon fill="white" stroke="black" points="0,-0.5 0,-52.5 153,-52.5 153,-0.5 0,-0.5"/>
<text text-anchor="start" x="8" y="-40.5" font-family="Helvetica" font-size="10.00">/home/ec2&#45;user/workspace</text>
<text text-anchor="start" x="8" y="-29.5" font-family="Helvetica" font-size="10.00">/vsomeip/implementation</text>
<text text-anchor="start" x="8" y="-18.5" font-family="Helvetica" font-size="10.00">/compat/runtime/src/application</text>
<text text-anchor="middle" x="76.5" y="-7.5" font-family="Helvetica" font-size="10.00">_impl.cpp</text>
</a>
</g>
</g>
<!-- Node2&#45;&gt;Node3 -->
<g id="edge2" class="edge">
<title>Node2&#45;&gt;Node3</title>
<path fill="none" stroke="midnightblue" d="M127.67,-81.79C118.56,-72.13 108.74,-61.71 100.16,-52.61"/>
<polygon fill="midnightblue" stroke="midnightblue" points="125.38,-84.46 134.78,-89.34 130.47,-79.66 125.38,-84.46"/>
</g>
<!-- Node4 -->
<g id="node4" class="node">
<title>Node4</title>
<g id="a_node4"><a xlink:href="compat_2runtime_2src_2runtime__impl_8cpp.html" target="_top" xlink:title=" ">
<polygon fill="white" stroke="black" points="171,-0.5 171,-52.5 310,-52.5 310,-0.5 171,-0.5"/>
<text text-anchor="start" x="179" y="-40.5" font-family="Helvetica" font-size="10.00">/home/ec2&#45;user/workspace</text>
<text text-anchor="start" x="179" y="-29.5" font-family="Helvetica" font-size="10.00">/vsomeip/implementation</text>
<text text-anchor="start" x="179" y="-18.5" font-family="Helvetica" font-size="10.00">/compat/runtime/src/runtime</text>
<text text-anchor="middle" x="240.5" y="-7.5" font-family="Helvetica" font-size="10.00">_impl.cpp</text>
</a>
</g>
</g>
<!-- Node2&#45;&gt;Node4 -->
<g id="edge3" class="edge">
<title>Node2&#45;&gt;Node4</title>
<path fill="none" stroke="midnightblue" d="M189.33,-81.79C198.44,-72.13 208.26,-61.71 216.84,-52.61"/>
<polygon fill="midnightblue" stroke="midnightblue" points="186.53,-79.66 182.22,-89.34 191.62,-84.46 186.53,-79.66"/>
</g>
</g>
</svg>
