<?xml version="1.0" encoding="UTF-8" standalone="no"?>
<!DOCTYPE svg PUBLIC "-//W3C//DTD SVG 1.1//EN"
 "http://www.w3.org/Graphics/SVG/1.1/DTD/svg11.dtd">
<!-- Generated by graphviz version 2.44.0 (0)
 -->
<!-- Title: /home/ec2&#45;user/workspace/vsomeip/interface/compat/vsomeip/export.hpp Pages: 1 -->
<svg width="924pt" height="562pt"
 viewBox="0.00 0.00 923.50 562.00" xmlns="http://www.w3.org/2000/svg" xmlns:xlink="http://www.w3.org/1999/xlink">
<g id="graph0" class="graph" transform="scale(1 1) rotate(0) translate(4 558)">
<title>/home/ec2&#45;user/workspace/vsomeip/interface/compat/vsomeip/export.hpp</title>
<polygon fill="white" stroke="transparent" points="-4,4 -4,-558 919.5,-558 919.5,4 -4,4"/>
<!-- Node1 -->
<g id="node1" class="node">
<title>Node1</title>
<g id="a_node1"><a xlink:title=" ">
<polygon fill="#bfbfbf" stroke="black" points="402,-512.5 402,-553.5 536,-553.5 536,-512.5 402,-512.5"/>
<text text-anchor="start" x="410" y="-541.5" font-family="Helvetica" font-size="10.00">/home/ec2&#45;user/workspace</text>
<text text-anchor="start" x="410" y="-530.5" font-family="Helvetica" font-size="10.00">/vsomeip/interface/compat</text>
<text text-anchor="middle" x="469" y="-519.5" font-family="Helvetica" font-size="10.00">/vsomeip/export.hpp</text>
</a>
</g>
</g>
<!-- Node2 -->
<g id="node2" class="node">
<title>Node2</title>
<g id="a_node2"><a xlink:href="compat_2message_2include_2message__base__impl_8hpp.html" target="_top" xlink:title=" ">
<polygon fill="white" stroke="black" points="39,-178.5 39,-230.5 173,-230.5 173,-178.5 39,-178.5"/>
<text text-anchor="start" x="47" y="-218.5" font-family="Helvetica" font-size="10.00">/home/ec2&#45;user/workspace</text>
<text text-anchor="start" x="47" y="-207.5" font-family="Helvetica" font-size="10.00">/vsomeip/implementation</text>
<text text-anchor="start" x="47" y="-196.5" font-family="Helvetica" font-size="10.00">/compat/message/include</text>
<text text-anchor="middle" x="106" y="-185.5" font-family="Helvetica" font-size="10.00">/message_base_impl.hpp</text>
</a>
</g>
</g>
<!-- Node1&#45;&gt;Node2 -->
<g id="edge1" class="edge">
<title>Node1&#45;&gt;Node2</title>
<path fill="none" stroke="midnightblue" d="M391.87,-530.47C300.48,-526.88 156.14,-515 121,-476 58.82,-406.99 83.66,-283.46 98.25,-230.61"/>
<polygon fill="midnightblue" stroke="midnightblue" points="391.8,-533.97 401.92,-530.84 392.06,-526.98 391.8,-533.97"/>
</g>
<!-- Node8 -->
<g id="node8" class="node">
<title>Node8</title>
<g id="a_node8"><a xlink:href="compat_2vsomeip_2internal_2deserializable_8hpp.html" target="_top" xlink:title=" ">
<polygon fill="white" stroke="black" points="144,-429 144,-470 316,-470 316,-429 144,-429"/>
<text text-anchor="start" x="152" y="-458" font-family="Helvetica" font-size="10.00">/home/ec2&#45;user/workspace</text>
<text text-anchor="start" x="152" y="-447" font-family="Helvetica" font-size="10.00">/vsomeip/interface/compat</text>
<text text-anchor="middle" x="230" y="-436" font-family="Helvetica" font-size="10.00">/vsomeip/internal/deserializable.hpp</text>
</a>
</g>
</g>
<!-- Node1&#45;&gt;Node8 -->
<g id="edge7" class="edge">
<title>Node1&#45;&gt;Node8</title>
<path fill="none" stroke="midnightblue" d="M402.26,-509.24C366.06,-496.9 321.79,-481.8 287.19,-470"/>
<polygon fill="midnightblue" stroke="midnightblue" points="401.16,-512.56 411.75,-512.48 403.42,-505.94 401.16,-512.56"/>
</g>
<!-- Node9 -->
<g id="node9" class="node">
<title>Node9</title>
<g id="a_node9"><a xlink:href="compat_2vsomeip_2message__base_8hpp.html" target="_top" xlink:title=" ">
<polygon fill="white" stroke="black" points="157,-345.5 157,-386.5 301,-386.5 301,-345.5 157,-345.5"/>
<text text-anchor="start" x="165" y="-374.5" font-family="Helvetica" font-size="10.00">/home/ec2&#45;user/workspace</text>
<text text-anchor="start" x="165" y="-363.5" font-family="Helvetica" font-size="10.00">/vsomeip/interface/compat</text>
<text text-anchor="middle" x="229" y="-352.5" font-family="Helvetica" font-size="10.00">/vsomeip/message_base.hpp</text>
</a>
</g>
</g>
<!-- Node1&#45;&gt;Node9 -->
<g id="edge23" class="edge">
<title>Node1&#45;&gt;Node9</title>
<path fill="none" stroke="midnightblue" d="M391.45,-530.17C303.24,-526.26 167.2,-514.04 135,-476 119.78,-458.02 123.36,-443.48 135,-423 144.01,-407.15 159.48,-395.31 175.3,-386.7"/>
<polygon fill="midnightblue" stroke="midnightblue" points="391.56,-533.68 401.7,-530.6 391.85,-526.68 391.56,-533.68"/>
</g>
<!-- Node12 -->
<g id="node12" class="node">
<title>Node12</title>
<g id="a_node12"><a xlink:href="compat_2vsomeip_2payload_8hpp.html" target="_top" xlink:title=" ">
<polygon fill="white" stroke="black" points="348,-345.5 348,-386.5 482,-386.5 482,-345.5 348,-345.5"/>
<text text-anchor="start" x="356" y="-374.5" font-family="Helvetica" font-size="10.00">/home/ec2&#45;user/workspace</text>
<text text-anchor="start" x="356" y="-363.5" font-family="Helvetica" font-size="10.00">/vsomeip/interface/compat</text>
<text text-anchor="middle" x="415" y="-352.5" font-family="Helvetica" font-size="10.00">/vsomeip/payload.hpp</text>
</a>
</g>
</g>
<!-- Node1&#45;&gt;Node12 -->
<g id="edge24" class="edge">
<title>Node1&#45;&gt;Node12</title>
<path fill="none" stroke="midnightblue" d="M490.19,-503.65C504.41,-480.91 518.17,-448.65 504,-423 495.26,-407.18 479.97,-395.22 464.51,-386.5"/>
<polygon fill="midnightblue" stroke="midnightblue" points="487.16,-501.9 484.57,-512.17 493,-505.75 487.16,-501.9"/>
</g>
<!-- Node15 -->
<g id="node15" class="node">
<title>Node15</title>
<g id="a_node15"><a xlink:href="compat_2vsomeip_2internal_2serializable_8hpp.html" target="_top" xlink:title=" ">
<polygon fill="white" stroke="black" points="334.5,-429 334.5,-470 495.5,-470 495.5,-429 334.5,-429"/>
<text text-anchor="start" x="342.5" y="-458" font-family="Helvetica" font-size="10.00">/home/ec2&#45;user/workspace</text>
<text text-anchor="start" x="342.5" y="-447" font-family="Helvetica" font-size="10.00">/vsomeip/interface/compat</text>
<text text-anchor="middle" x="415" y="-436" font-family="Helvetica" font-size="10.00">/vsomeip/internal/serializable.hpp</text>
</a>
</g>
</g>
<!-- Node1&#45;&gt;Node15 -->
<g id="edge20" class="edge">
<title>Node1&#45;&gt;Node15</title>
<path fill="none" stroke="midnightblue" d="M450.27,-503.72C442.9,-492.61 434.63,-480.13 427.95,-470.05"/>
<polygon fill="midnightblue" stroke="midnightblue" points="447.49,-505.87 455.93,-512.27 453.32,-502 447.49,-505.87"/>
</g>
<!-- Node16 -->
<g id="node16" class="node">
<title>Node16</title>
<g id="a_node16"><a xlink:href="compat_2vsomeip_2plugins_2application__plugin_8hpp.html" target="_top" xlink:title=" ">
<polygon fill="white" stroke="black" points="590,-423.5 590,-475.5 730,-475.5 730,-423.5 590,-423.5"/>
<text text-anchor="start" x="598" y="-463.5" font-family="Helvetica" font-size="10.00">/home/ec2&#45;user/workspace</text>
<text text-anchor="start" x="598" y="-452.5" font-family="Helvetica" font-size="10.00">/vsomeip/interface/compat</text>
<text text-anchor="start" x="598" y="-441.5" font-family="Helvetica" font-size="10.00">/vsomeip/plugins/application</text>
<text text-anchor="middle" x="660" y="-430.5" font-family="Helvetica" font-size="10.00">_plugin.hpp</text>
</a>
</g>
</g>
<!-- Node1&#45;&gt;Node16 -->
<g id="edge25" class="edge">
<title>Node1&#45;&gt;Node16</title>
<path fill="none" stroke="midnightblue" d="M524.13,-508.48C548.29,-498.17 576.67,-486.06 601.23,-475.58"/>
<polygon fill="midnightblue" stroke="midnightblue" points="522.57,-505.33 514.75,-512.48 525.32,-511.77 522.57,-505.33"/>
</g>
<!-- Node17 -->
<g id="node17" class="node">
<title>Node17</title>
<g id="a_node17"><a xlink:href="compat_2vsomeip_2plugins_2pre__configuration__plugin_8hpp.html" target="_top" xlink:title=" ">
<polygon fill="white" stroke="black" points="748.5,-423.5 748.5,-475.5 915.5,-475.5 915.5,-423.5 748.5,-423.5"/>
<text text-anchor="start" x="756.5" y="-463.5" font-family="Helvetica" font-size="10.00">/home/ec2&#45;user/workspace</text>
<text text-anchor="start" x="756.5" y="-452.5" font-family="Helvetica" font-size="10.00">/vsomeip/interface/compat</text>
<text text-anchor="start" x="756.5" y="-441.5" font-family="Helvetica" font-size="10.00">/vsomeip/plugins/pre_configuration</text>
<text text-anchor="middle" x="832" y="-430.5" font-family="Helvetica" font-size="10.00">_plugin.hpp</text>
</a>
</g>
</g>
<!-- Node1&#45;&gt;Node17 -->
<g id="edge26" class="edge">
<title>Node1&#45;&gt;Node17</title>
<path fill="none" stroke="midnightblue" d="M545.99,-517.37C600.16,-506.76 674.26,-491.57 739,-476 742.09,-475.26 745.24,-474.48 748.41,-473.69"/>
<polygon fill="midnightblue" stroke="midnightblue" points="545.26,-513.95 536.11,-519.3 546.6,-520.82 545.26,-513.95"/>
</g>
<!-- Node18 -->
<g id="node18" class="node">
<title>Node18</title>
<g id="a_node18"><a xlink:href="interface_2compat_2vsomeip_2runtime_8hpp.html" target="_top" xlink:title=" ">
<polygon fill="white" stroke="black" points="495,-267.5 495,-308.5 629,-308.5 629,-267.5 495,-267.5"/>
<text text-anchor="start" x="503" y="-296.5" font-family="Helvetica" font-size="10.00">/home/ec2&#45;user/workspace</text>
<text text-anchor="start" x="503" y="-285.5" font-family="Helvetica" font-size="10.00">/vsomeip/interface/compat</text>
<text text-anchor="middle" x="562" y="-274.5" font-family="Helvetica" font-size="10.00">/vsomeip/runtime.hpp</text>
</a>
</g>
</g>
<!-- Node1&#45;&gt;Node18 -->
<g id="edge27" class="edge">
<title>Node1&#45;&gt;Node18</title>
<path fill="none" stroke="midnightblue" d="M499.33,-505.16C507.44,-496.58 515.48,-486.55 521,-476 550.28,-420.05 558.68,-344.14 561.07,-308.72"/>
<polygon fill="midnightblue" stroke="midnightblue" points="496.8,-502.74 492.24,-512.31 501.77,-507.67 496.8,-502.74"/>
</g>
<!-- Node3 -->
<g id="node3" class="node">
<title>Node3</title>
<g id="a_node3"><a xlink:href="compat_2message_2include_2message__impl_8hpp.html" target="_top" xlink:title=" ">
<polygon fill="white" stroke="black" points="172,-89.5 172,-141.5 306,-141.5 306,-89.5 172,-89.5"/>
<text text-anchor="start" x="180" y="-129.5" font-family="Helvetica" font-size="10.00">/home/ec2&#45;user/workspace</text>
<text text-anchor="start" x="180" y="-118.5" font-family="Helvetica" font-size="10.00">/vsomeip/implementation</text>
<text text-anchor="start" x="180" y="-107.5" font-family="Helvetica" font-size="10.00">/compat/message/include</text>
<text text-anchor="middle" x="239" y="-96.5" font-family="Helvetica" font-size="10.00">/message_impl.hpp</text>
</a>
</g>
</g>
<!-- Node2&#45;&gt;Node3 -->
<g id="edge2" class="edge">
<title>Node2&#45;&gt;Node3</title>
<path fill="none" stroke="midnightblue" d="M152.95,-172.79C168.56,-162.58 185.74,-151.34 200.62,-141.61"/>
<polygon fill="midnightblue" stroke="midnightblue" points="150.92,-169.93 144.47,-178.34 154.75,-175.79 150.92,-169.93"/>
</g>
<!-- Node7 -->
<g id="node7" class="node">
<title>Node7</title>
<g id="a_node7"><a xlink:href="compat_2message_2src_2message__base__impl_8cpp.html" target="_top" xlink:title=" ">
<polygon fill="white" stroke="black" points="0,-89.5 0,-141.5 154,-141.5 154,-89.5 0,-89.5"/>
<text text-anchor="start" x="8" y="-129.5" font-family="Helvetica" font-size="10.00">/home/ec2&#45;user/workspace</text>
<text text-anchor="start" x="8" y="-118.5" font-family="Helvetica" font-size="10.00">/vsomeip/implementation</text>
<text text-anchor="start" x="8" y="-107.5" font-family="Helvetica" font-size="10.00">/compat/message/src/message</text>
<text text-anchor="middle" x="77" y="-96.5" font-family="Helvetica" font-size="10.00">_base_impl.cpp</text>
</a>
</g>
</g>
<!-- Node2&#45;&gt;Node7 -->
<g id="edge6" class="edge">
<title>Node2&#45;&gt;Node7</title>
<path fill="none" stroke="midnightblue" d="M94.42,-168.77C91.4,-159.69 88.19,-150.08 85.37,-141.61"/>
<polygon fill="midnightblue" stroke="midnightblue" points="91.13,-169.96 97.61,-178.34 97.77,-167.74 91.13,-169.96"/>
</g>
<!-- Node4 -->
<g id="node4" class="node">
<title>Node4</title>
<g id="a_node4"><a xlink:href="compat_2message_2src_2message__impl_8cpp.html" target="_top" xlink:title=" ">
<polygon fill="white" stroke="black" points="85,-0.5 85,-52.5 239,-52.5 239,-0.5 85,-0.5"/>
<text text-anchor="start" x="93" y="-40.5" font-family="Helvetica" font-size="10.00">/home/ec2&#45;user/workspace</text>
<text text-anchor="start" x="93" y="-29.5" font-family="Helvetica" font-size="10.00">/vsomeip/implementation</text>
<text text-anchor="start" x="93" y="-18.5" font-family="Helvetica" font-size="10.00">/compat/message/src/message</text>
<text text-anchor="middle" x="162" y="-7.5" font-family="Helvetica" font-size="10.00">_impl.cpp</text>
</a>
</g>
</g>
<!-- Node3&#45;&gt;Node4 -->
<g id="edge3" class="edge">
<title>Node3&#45;&gt;Node4</title>
<path fill="none" stroke="midnightblue" d="M210.05,-81.79C201.5,-72.13 192.28,-61.71 184.22,-52.61"/>
<polygon fill="midnightblue" stroke="midnightblue" points="207.48,-84.17 216.73,-89.34 212.72,-79.53 207.48,-84.17"/>
</g>
<!-- Node5 -->
<g id="node5" class="node">
<title>Node5</title>
<g id="a_node5"><a xlink:href="compat_2runtime_2src_2application__impl_8cpp.html" target="_top" xlink:title=" ">
<polygon fill="white" stroke="black" points="580.5,-0.5 580.5,-52.5 733.5,-52.5 733.5,-0.5 580.5,-0.5"/>
<text text-anchor="start" x="588.5" y="-40.5" font-family="Helvetica" font-size="10.00">/home/ec2&#45;user/workspace</text>
<text text-anchor="start" x="588.5" y="-29.5" font-family="Helvetica" font-size="10.00">/vsomeip/implementation</text>
<text text-anchor="start" x="588.5" y="-18.5" font-family="Helvetica" font-size="10.00">/compat/runtime/src/application</text>
<text text-anchor="middle" x="657" y="-7.5" font-family="Helvetica" font-size="10.00">_impl.cpp</text>
</a>
</g>
</g>
<!-- Node3&#45;&gt;Node5 -->
<g id="edge4" class="edge">
<title>Node3&#45;&gt;Node5</title>
<path fill="none" stroke="midnightblue" d="M316.15,-90.36C318.12,-89.89 320.07,-89.43 322,-89 431.54,-64.44 462.38,-77.2 572,-53 574.71,-52.4 577.46,-51.76 580.22,-51.09"/>
<polygon fill="midnightblue" stroke="midnightblue" points="315.09,-87.02 306.26,-92.88 316.81,-93.81 315.09,-87.02"/>
</g>
<!-- Node6 -->
<g id="node6" class="node">
<title>Node6</title>
<g id="a_node6"><a xlink:href="compat_2runtime_2src_2runtime__impl_8cpp.html" target="_top" xlink:title=" ">
<polygon fill="white" stroke="black" points="423.5,-0.5 423.5,-52.5 562.5,-52.5 562.5,-0.5 423.5,-0.5"/>
<text text-anchor="start" x="431.5" y="-40.5" font-family="Helvetica" font-size="10.00">/home/ec2&#45;user/workspace</text>
<text text-anchor="start" x="431.5" y="-29.5" font-family="Helvetica" font-size="10.00">/vsomeip/implementation</text>
<text text-anchor="start" x="431.5" y="-18.5" font-family="Helvetica" font-size="10.00">/compat/runtime/src/runtime</text>
<text text-anchor="middle" x="493" y="-7.5" font-family="Helvetica" font-size="10.00">_impl.cpp</text>
</a>
</g>
</g>
<!-- Node3&#45;&gt;Node6 -->
<g id="edge5" class="edge">
<title>Node3&#45;&gt;Node6</title>
<path fill="none" stroke="midnightblue" d="M315.57,-88.27C349.82,-76.54 389.93,-62.8 423.34,-51.36"/>
<polygon fill="midnightblue" stroke="midnightblue" points="314.39,-84.98 306.07,-91.53 316.66,-91.6 314.39,-84.98"/>
</g>
<!-- Node8&#45;&gt;Node9 -->
<g id="edge8" class="edge">
<title>Node8&#45;&gt;Node9</title>
<path fill="none" stroke="midnightblue" d="M229.63,-418.56C229.5,-407.88 229.36,-396.13 229.24,-386.55"/>
<polygon fill="midnightblue" stroke="midnightblue" points="226.14,-418.81 229.76,-428.77 233.13,-418.73 226.14,-418.81"/>
</g>
<!-- Node8&#45;&gt;Node12 -->
<g id="edge13" class="edge">
<title>Node8&#45;&gt;Node12</title>
<path fill="none" stroke="midnightblue" d="M283.82,-424.79C311.42,-412.63 344.63,-398 370.73,-386.5"/>
<polygon fill="midnightblue" stroke="midnightblue" points="282.05,-421.74 274.31,-428.98 284.87,-428.15 282.05,-421.74"/>
</g>
<!-- Node10 -->
<g id="node10" class="node">
<title>Node10</title>
<g id="a_node10"><a xlink:href="compat_2vsomeip_2message_8hpp.html" target="_top" xlink:title=" ">
<polygon fill="white" stroke="black" points="160,-267.5 160,-308.5 294,-308.5 294,-267.5 160,-267.5"/>
<text text-anchor="start" x="168" y="-296.5" font-family="Helvetica" font-size="10.00">/home/ec2&#45;user/workspace</text>
<text text-anchor="start" x="168" y="-285.5" font-family="Helvetica" font-size="10.00">/vsomeip/interface/compat</text>
<text text-anchor="middle" x="227" y="-274.5" font-family="Helvetica" font-size="10.00">/vsomeip/message.hpp</text>
</a>
</g>
</g>
<!-- Node9&#45;&gt;Node10 -->
<g id="edge9" class="edge">
<title>Node9&#45;&gt;Node10</title>
<path fill="none" stroke="midnightblue" d="M228.22,-335.3C227.98,-326.3 227.73,-316.65 227.51,-308.51"/>
<polygon fill="midnightblue" stroke="midnightblue" points="224.72,-335.52 228.48,-345.43 231.72,-335.34 224.72,-335.52"/>
</g>
<!-- Node10&#45;&gt;Node2 -->
<g id="edge10" class="edge">
<title>Node10&#45;&gt;Node2</title>
<path fill="none" stroke="midnightblue" d="M189.65,-261.84C174.97,-251.96 158.15,-240.62 143.46,-230.73"/>
<polygon fill="midnightblue" stroke="midnightblue" points="187.77,-264.8 198.02,-267.48 191.68,-258.99 187.77,-264.8"/>
</g>
<!-- Node10&#45;&gt;Node3 -->
<g id="edge11" class="edge">
<title>Node10&#45;&gt;Node3</title>
<path fill="none" stroke="midnightblue" d="M229.1,-257.13C231.41,-224.36 235.07,-172.36 237.23,-141.61"/>
<polygon fill="midnightblue" stroke="midnightblue" points="225.59,-257.22 228.38,-267.44 232.57,-257.71 225.59,-257.22"/>
</g>
<!-- Node11 -->
<g id="node11" class="node">
<title>Node11</title>
<g id="a_node11"><a xlink:href="compat_2vsomeip_2vsomeip_8hpp.html" target="_top" xlink:title=" ">
<polygon fill="white" stroke="black" points="254,-184 254,-225 388,-225 388,-184 254,-184"/>
<text text-anchor="start" x="262" y="-213" font-family="Helvetica" font-size="10.00">/home/ec2&#45;user/workspace</text>
<text text-anchor="start" x="262" y="-202" font-family="Helvetica" font-size="10.00">/vsomeip/interface/compat</text>
<text text-anchor="middle" x="321" y="-191" font-family="Helvetica" font-size="10.00">/vsomeip/vsomeip.hpp</text>
</a>
</g>
</g>
<!-- Node10&#45;&gt;Node11 -->
<g id="edge12" class="edge">
<title>Node10&#45;&gt;Node11</title>
<path fill="none" stroke="midnightblue" d="M257.35,-260.69C270.71,-249.1 286.14,-235.73 298.45,-225.05"/>
<polygon fill="midnightblue" stroke="midnightblue" points="255.02,-258.08 249.75,-267.27 259.6,-263.36 255.02,-258.08"/>
</g>
<!-- Node12&#45;&gt;Node11 -->
<g id="edge19" class="edge">
<title>Node12&#45;&gt;Node11</title>
<path fill="none" stroke="midnightblue" d="M398.23,-336.55C379.33,-304.47 349.09,-253.17 332.62,-225.22"/>
<polygon fill="midnightblue" stroke="midnightblue" points="395.38,-338.6 403.47,-345.44 401.41,-335.05 395.38,-338.6"/>
</g>
<!-- Node13 -->
<g id="node13" class="node">
<title>Node13</title>
<g id="a_node13"><a xlink:href="compat_2message_2include_2payload__impl_8hpp.html" target="_top" xlink:title=" ">
<polygon fill="white" stroke="black" points="331,-89.5 331,-141.5 465,-141.5 465,-89.5 331,-89.5"/>
<text text-anchor="start" x="339" y="-129.5" font-family="Helvetica" font-size="10.00">/home/ec2&#45;user/workspace</text>
<text text-anchor="start" x="339" y="-118.5" font-family="Helvetica" font-size="10.00">/vsomeip/implementation</text>
<text text-anchor="start" x="339" y="-107.5" font-family="Helvetica" font-size="10.00">/compat/message/include</text>
<text text-anchor="middle" x="398" y="-96.5" font-family="Helvetica" font-size="10.00">/payload_impl.hpp</text>
</a>
</g>
</g>
<!-- Node12&#45;&gt;Node13 -->
<g id="edge14" class="edge">
<title>Node12&#45;&gt;Node13</title>
<path fill="none" stroke="midnightblue" d="M412.95,-335.01C409.56,-285.53 402.87,-187.67 399.72,-141.6"/>
<polygon fill="midnightblue" stroke="midnightblue" points="409.46,-335.35 413.64,-345.08 416.45,-334.87 409.46,-335.35"/>
</g>
<!-- Node13&#45;&gt;Node4 -->
<g id="edge15" class="edge">
<title>Node13&#45;&gt;Node4</title>
<path fill="none" stroke="midnightblue" d="M320.93,-86.09C291.68,-75.3 258.6,-63.11 230.22,-52.65"/>
<polygon fill="midnightblue" stroke="midnightblue" points="320.09,-89.51 330.69,-89.69 322.52,-82.94 320.09,-89.51"/>
</g>
<!-- Node13&#45;&gt;Node5 -->
<g id="edge17" class="edge">
<title>Node13&#45;&gt;Node5</title>
<path fill="none" stroke="midnightblue" d="M474.92,-88.66C508.93,-77.24 548.76,-63.86 582.49,-52.53"/>
<polygon fill="midnightblue" stroke="midnightblue" points="473.4,-85.48 465.04,-91.98 475.63,-92.12 473.4,-85.48"/>
</g>
<!-- Node13&#45;&gt;Node6 -->
<g id="edge18" class="edge">
<title>Node13&#45;&gt;Node6</title>
<path fill="none" stroke="midnightblue" d="M433.09,-82.36C443.82,-72.54 455.45,-61.89 465.58,-52.61"/>
<polygon fill="midnightblue" stroke="midnightblue" points="430.49,-80 425.48,-89.34 435.22,-85.16 430.49,-80"/>
</g>
<!-- Node14 -->
<g id="node14" class="node">
<title>Node14</title>
<g id="a_node14"><a xlink:href="compat_2message_2src_2payload__impl_8cpp.html" target="_top" xlink:title=" ">
<polygon fill="white" stroke="black" points="257,-0.5 257,-52.5 405,-52.5 405,-0.5 257,-0.5"/>
<text text-anchor="start" x="265" y="-40.5" font-family="Helvetica" font-size="10.00">/home/ec2&#45;user/workspace</text>
<text text-anchor="start" x="265" y="-29.5" font-family="Helvetica" font-size="10.00">/vsomeip/implementation</text>
<text text-anchor="start" x="265" y="-18.5" font-family="Helvetica" font-size="10.00">/compat/message/src/payload</text>
<text text-anchor="middle" x="331" y="-7.5" font-family="Helvetica" font-size="10.00">_impl.cpp</text>
</a>
</g>
</g>
<!-- Node13&#45;&gt;Node14 -->
<g id="edge16" class="edge">
<title>Node13&#45;&gt;Node14</title>
<path fill="none" stroke="midnightblue" d="M372.37,-81.22C365.05,-71.72 357.21,-61.53 350.34,-52.61"/>
<polygon fill="midnightblue" stroke="midnightblue" points="369.75,-83.55 378.62,-89.34 375.29,-79.28 369.75,-83.55"/>
</g>
<!-- Node15&#45;&gt;Node9 -->
<g id="edge21" class="edge">
<title>Node15&#45;&gt;Node9</title>
<path fill="none" stroke="midnightblue" d="M361.25,-424.95C333.43,-412.76 299.86,-398.05 273.51,-386.5"/>
<polygon fill="midnightblue" stroke="midnightblue" points="359.88,-428.17 370.45,-428.98 362.69,-421.76 359.88,-428.17"/>
</g>
<!-- Node15&#45;&gt;Node12 -->
<g id="edge22" class="edge">
<title>Node15&#45;&gt;Node12</title>
<path fill="none" stroke="midnightblue" d="M415,-418.56C415,-407.88 415,-396.13 415,-386.55"/>
<polygon fill="midnightblue" stroke="midnightblue" points="411.5,-418.77 415,-428.77 418.5,-418.77 411.5,-418.77"/>
</g>
<!-- Node18&#45;&gt;Node5 -->
<g id="edge31" class="edge">
<title>Node18&#45;&gt;Node5</title>
<path fill="none" stroke="midnightblue" d="M595.75,-260.71C626.45,-234.45 669.67,-191.04 688,-142 696.25,-119.94 693.45,-111.92 688,-89 684.99,-76.32 678.92,-63.29 672.94,-52.5"/>
<polygon fill="midnightblue" stroke="midnightblue" points="593.26,-258.22 587.84,-267.33 597.76,-263.59 593.26,-258.22"/>
</g>
<!-- Node18&#45;&gt;Node11 -->
<g id="edge33" class="edge">
<title>Node18&#45;&gt;Node11</title>
<path fill="none" stroke="midnightblue" d="M494.7,-264.24C458.2,-251.9 413.56,-236.8 378.67,-225"/>
<polygon fill="midnightblue" stroke="midnightblue" points="493.68,-267.59 504.27,-267.48 495.92,-260.96 493.68,-267.59"/>
</g>
<!-- Node19 -->
<g id="node19" class="node">
<title>Node19</title>
<g id="a_node19"><a xlink:href="compat_2runtime_2include_2runtime__impl_8hpp.html" target="_top" xlink:title=" ">
<polygon fill="white" stroke="black" points="444,-178.5 444,-230.5 578,-230.5 578,-178.5 444,-178.5"/>
<text text-anchor="start" x="452" y="-218.5" font-family="Helvetica" font-size="10.00">/home/ec2&#45;user/workspace</text>
<text text-anchor="start" x="452" y="-207.5" font-family="Helvetica" font-size="10.00">/vsomeip/implementation</text>
<text text-anchor="start" x="452" y="-196.5" font-family="Helvetica" font-size="10.00">/compat/runtime/include</text>
<text text-anchor="middle" x="511" y="-185.5" font-family="Helvetica" font-size="10.00">/runtime_impl.hpp</text>
</a>
</g>
</g>
<!-- Node18&#45;&gt;Node19 -->
<g id="edge28" class="edge">
<title>Node18&#45;&gt;Node19</title>
<path fill="none" stroke="midnightblue" d="M544.2,-258.55C538.5,-249.45 532.24,-239.45 526.71,-230.61"/>
<polygon fill="midnightblue" stroke="midnightblue" points="541.38,-260.65 549.65,-267.27 547.32,-256.94 541.38,-260.65"/>
</g>
<!-- Node20 -->
<g id="node20" class="node">
<title>Node20</title>
<g id="a_node20"><a xlink:href="compat_2runtime_2src_2runtime_8cpp.html" target="_top" xlink:title=" ">
<polygon fill="white" stroke="black" points="521,-95 521,-136 679,-136 679,-95 521,-95"/>
<text text-anchor="start" x="529" y="-124" font-family="Helvetica" font-size="10.00">/home/ec2&#45;user/workspace</text>
<text text-anchor="start" x="529" y="-113" font-family="Helvetica" font-size="10.00">/vsomeip/implementation</text>
<text text-anchor="middle" x="600" y="-102" font-family="Helvetica" font-size="10.00">/compat/runtime/src/runtime.cpp</text>
</a>
</g>
</g>
<!-- Node18&#45;&gt;Node20 -->
<g id="edge32" class="edge">
<title>Node18&#45;&gt;Node20</title>
<path fill="none" stroke="midnightblue" d="M576.9,-258.17C580.75,-249.62 584.51,-240.1 587,-231 595.85,-198.58 598.68,-159.4 599.59,-136.29"/>
<polygon fill="midnightblue" stroke="midnightblue" points="573.67,-256.8 572.57,-267.33 580,-259.79 573.67,-256.8"/>
</g>
<!-- Node19&#45;&gt;Node6 -->
<g id="edge30" class="edge">
<title>Node19&#45;&gt;Node6</title>
<path fill="none" stroke="midnightblue" d="M507.39,-168.25C503.9,-134.04 498.67,-82.97 495.57,-52.67"/>
<polygon fill="midnightblue" stroke="midnightblue" points="503.92,-168.69 508.42,-178.28 510.89,-167.98 503.92,-168.69"/>
</g>
<!-- Node19&#45;&gt;Node20 -->
<g id="edge29" class="edge">
<title>Node19&#45;&gt;Node20</title>
<path fill="none" stroke="midnightblue" d="M544.06,-171.18C556.12,-159.39 569.38,-146.43 579.97,-136.08"/>
<polygon fill="midnightblue" stroke="midnightblue" points="541.45,-168.84 536.74,-178.34 546.34,-173.85 541.45,-168.84"/>
</g>
</g>
</svg>
