<?xml version="1.0" encoding="UTF-8" standalone="no"?>
<!DOCTYPE svg PUBLIC "-//W3C//DTD SVG 1.1//EN"
 "http://www.w3.org/Graphics/SVG/1.1/DTD/svg11.dtd">
<!-- Generated by graphviz version 2.44.0 (0)
 -->
<!-- Title: /home/ec2&#45;user/workspace/vsomeip/implementation/compat/message/src/payload_impl.cpp Pages: 1 -->
<svg width="1178pt" height="329pt"
 viewBox="0.00 0.00 1177.50 329.00" xmlns="http://www.w3.org/2000/svg" xmlns:xlink="http://www.w3.org/1999/xlink">
<g id="graph0" class="graph" transform="scale(1 1) rotate(0) translate(4 325)">
<title>/home/ec2&#45;user/workspace/vsomeip/implementation/compat/message/src/payload_impl.cpp</title>
<polygon fill="white" stroke="transparent" points="-4,4 -4,-325 1173.5,-325 1173.5,4 -4,4"/>
<!-- Node1 -->
<g id="node1" class="node">
<title>Node1</title>
<g id="a_node1"><a xlink:title=" ">
<polygon fill="#bfbfbf" stroke="black" points="583.5,-268.5 583.5,-320.5 731.5,-320.5 731.5,-268.5 583.5,-268.5"/>
<text text-anchor="start" x="591.5" y="-308.5" font-family="Helvetica" font-size="10.00">/home/ec2&#45;user/workspace</text>
<text text-anchor="start" x="591.5" y="-297.5" font-family="Helvetica" font-size="10.00">/vsomeip/implementation</text>
<text text-anchor="start" x="591.5" y="-286.5" font-family="Helvetica" font-size="10.00">/compat/message/src/payload</text>
<text text-anchor="middle" x="657.5" y="-275.5" font-family="Helvetica" font-size="10.00">_impl.cpp</text>
</a>
</g>
</g>
<!-- Node2 -->
<g id="node2" class="node">
<title>Node2</title>
<g id="a_node2"><a xlink:title=" ">
<polygon fill="white" stroke="#bfbfbf" points="162,-140 162,-159 271,-159 271,-140 162,-140"/>
<text text-anchor="middle" x="216.5" y="-147" font-family="Helvetica" font-size="10.00">vsomeip/payload.hpp</text>
</a>
</g>
</g>
<!-- Node1&#45;&gt;Node2 -->
<g id="edge1" class="edge">
<title>Node1&#45;&gt;Node2</title>
<path fill="none" stroke="midnightblue" d="M583.35,-292.51C509.44,-288.85 394.42,-275.75 305.5,-232 273.71,-216.36 245.08,-185.82 229.31,-166.89"/>
<polygon fill="midnightblue" stroke="midnightblue" points="232.02,-164.67 223.01,-159.11 226.58,-169.08 232.02,-164.67"/>
</g>
<!-- Node3 -->
<g id="node3" class="node">
<title>Node3</title>
<g id="a_node3"><a xlink:title=" ">
<polygon fill="white" stroke="#bfbfbf" points="956,-207 956,-226 1063,-226 1063,-207 956,-207"/>
<text text-anchor="middle" x="1009.5" y="-214" font-family="Helvetica" font-size="10.00">vsomeip/runtime.hpp</text>
</a>
</g>
</g>
<!-- Node1&#45;&gt;Node3 -->
<g id="edge2" class="edge">
<title>Node1&#45;&gt;Node3</title>
<path fill="none" stroke="midnightblue" d="M731.52,-278.1C789.95,-265.86 873.5,-248.17 946.5,-232 951.84,-230.82 957.43,-229.56 962.99,-228.3"/>
<polygon fill="midnightblue" stroke="midnightblue" points="963.91,-231.68 972.88,-226.04 962.35,-224.85 963.91,-231.68"/>
</g>
<!-- Node4 -->
<g id="node4" class="node">
<title>Node4</title>
<g id="a_node4"><a xlink:href="logger_8hpp.html" target="_top" xlink:title=" ">
<polygon fill="white" stroke="black" points="589.5,-140 589.5,-159 725.5,-159 725.5,-140 589.5,-140"/>
<text text-anchor="middle" x="657.5" y="-147" font-family="Helvetica" font-size="10.00">vsomeip/internal/logger.hpp</text>
</a>
</g>
</g>
<!-- Node1&#45;&gt;Node4 -->
<g id="edge3" class="edge">
<title>Node1&#45;&gt;Node4</title>
<path fill="none" stroke="midnightblue" d="M657.5,-268.26C657.5,-239.89 657.5,-194.5 657.5,-169.15"/>
<polygon fill="midnightblue" stroke="midnightblue" points="661,-169.05 657.5,-159.05 654,-169.05 661,-169.05"/>
</g>
<!-- Node12 -->
<g id="node12" class="node">
<title>Node12</title>
<g id="a_node12"><a xlink:href="compat_2message_2include_2payload__impl_8hpp.html" target="_top" xlink:title=" ">
<polygon fill="white" stroke="black" points="315,-201.5 315,-231.5 408,-231.5 408,-201.5 315,-201.5"/>
<text text-anchor="start" x="323" y="-219.5" font-family="Helvetica" font-size="10.00">../include/payload</text>
<text text-anchor="middle" x="361.5" y="-208.5" font-family="Helvetica" font-size="10.00">_impl.hpp</text>
</a>
</g>
</g>
<!-- Node1&#45;&gt;Node12 -->
<g id="edge11" class="edge">
<title>Node1&#45;&gt;Node12</title>
<path fill="none" stroke="midnightblue" d="M583.19,-274.42C531.87,-261.24 464.67,-243.99 417.77,-231.95"/>
<polygon fill="midnightblue" stroke="midnightblue" points="418.64,-228.56 408.09,-229.46 416.9,-235.34 418.64,-228.56"/>
</g>
<!-- Node20 -->
<g id="node20" class="node">
<title>Node20</title>
<g id="a_node20"><a xlink:href="internal_8hpp.html" target="_top" xlink:title=" ">
<polygon fill="white" stroke="black" points="833.5,-201.5 833.5,-231.5 937.5,-231.5 937.5,-201.5 833.5,-201.5"/>
<text text-anchor="start" x="841.5" y="-219.5" font-family="Helvetica" font-size="10.00">../../../configuration</text>
<text text-anchor="middle" x="885.5" y="-208.5" font-family="Helvetica" font-size="10.00">/include/internal.hpp</text>
</a>
</g>
</g>
<!-- Node1&#45;&gt;Node20 -->
<g id="edge23" class="edge">
<title>Node1&#45;&gt;Node20</title>
<path fill="none" stroke="midnightblue" d="M731.53,-268.82C764.96,-257.68 803.66,-244.78 833.89,-234.7"/>
<polygon fill="midnightblue" stroke="midnightblue" points="835.01,-238.02 843.39,-231.54 832.8,-231.38 835.01,-238.02"/>
</g>
<!-- Node5 -->
<g id="node5" class="node">
<title>Node5</title>
<g id="a_node5"><a xlink:title=" ">
<polygon fill="white" stroke="#bfbfbf" points="953.5,-73 953.5,-92 999.5,-92 999.5,-73 953.5,-73"/>
<text text-anchor="middle" x="976.5" y="-80" font-family="Helvetica" font-size="10.00">chrono</text>
</a>
</g>
</g>
<!-- Node4&#45;&gt;Node5 -->
<g id="edge4" class="edge">
<title>Node4&#45;&gt;Node5</title>
<path fill="none" stroke="midnightblue" d="M702.27,-139.94C712.83,-137.96 724.06,-135.88 734.5,-134 827.7,-117.24 853.97,-125.77 944.5,-98 946.42,-97.41 948.38,-96.73 950.34,-96"/>
<polygon fill="midnightblue" stroke="midnightblue" points="952,-99.09 959.87,-92 949.3,-92.64 952,-99.09"/>
</g>
<!-- Node6 -->
<g id="node6" class="node">
<title>Node6</title>
<g id="a_node6"><a xlink:title=" ">
<polygon fill="white" stroke="#bfbfbf" points="622.5,-6 622.5,-25 668.5,-25 668.5,-6 622.5,-6"/>
<text text-anchor="middle" x="645.5" y="-13" font-family="Helvetica" font-size="10.00">cstdint</text>
</a>
</g>
</g>
<!-- Node4&#45;&gt;Node6 -->
<g id="edge5" class="edge">
<title>Node4&#45;&gt;Node6</title>
<path fill="none" stroke="midnightblue" d="M656.71,-139.84C654.79,-118.67 649.81,-63.95 647.18,-35.03"/>
<polygon fill="midnightblue" stroke="midnightblue" points="650.67,-34.66 646.27,-25.02 643.69,-35.3 650.67,-34.66"/>
</g>
<!-- Node7 -->
<g id="node7" class="node">
<title>Node7</title>
<g id="a_node7"><a xlink:title=" ">
<polygon fill="white" stroke="#bfbfbf" points="673.5,-73 673.5,-92 717.5,-92 717.5,-73 673.5,-73"/>
<text text-anchor="middle" x="695.5" y="-80" font-family="Helvetica" font-size="10.00">mutex</text>
</a>
</g>
</g>
<!-- Node4&#45;&gt;Node7 -->
<g id="edge6" class="edge">
<title>Node4&#45;&gt;Node7</title>
<path fill="none" stroke="midnightblue" d="M662.62,-139.73C668.44,-129.79 678.06,-113.34 685.39,-100.79"/>
<polygon fill="midnightblue" stroke="midnightblue" points="688.43,-102.53 690.46,-92.13 682.39,-98.99 688.43,-102.53"/>
</g>
<!-- Node8 -->
<g id="node8" class="node">
<title>Node8</title>
<g id="a_node8"><a xlink:title=" ">
<polygon fill="white" stroke="#bfbfbf" points="735.5,-73 735.5,-92 787.5,-92 787.5,-73 735.5,-73"/>
<text text-anchor="middle" x="761.5" y="-80" font-family="Helvetica" font-size="10.00">ostream</text>
</a>
</g>
</g>
<!-- Node4&#45;&gt;Node8 -->
<g id="edge7" class="edge">
<title>Node4&#45;&gt;Node8</title>
<path fill="none" stroke="midnightblue" d="M671.53,-139.73C688.83,-128.92 718.49,-110.38 738.99,-97.57"/>
<polygon fill="midnightblue" stroke="midnightblue" points="741.07,-100.4 747.7,-92.13 737.36,-94.46 741.07,-100.4"/>
</g>
<!-- Node9 -->
<g id="node9" class="node">
<title>Node9</title>
<g id="a_node9"><a xlink:title=" ">
<polygon fill="white" stroke="#bfbfbf" points="805.5,-73 805.5,-92 857.5,-92 857.5,-73 805.5,-73"/>
<text text-anchor="middle" x="831.5" y="-80" font-family="Helvetica" font-size="10.00">sstream</text>
</a>
</g>
</g>
<!-- Node4&#45;&gt;Node9 -->
<g id="edge8" class="edge">
<title>Node4&#45;&gt;Node9</title>
<path fill="none" stroke="midnightblue" d="M681.98,-139.98C709.84,-130.19 756.65,-113.48 796.5,-98 798.14,-97.36 799.83,-96.7 801.52,-96.02"/>
<polygon fill="midnightblue" stroke="midnightblue" points="803.26,-99.09 811.2,-92.09 800.62,-92.61 803.26,-99.09"/>
</g>
<!-- Node10 -->
<g id="node10" class="node">
<title>Node10</title>
<g id="a_node10"><a xlink:title=" ">
<polygon fill="white" stroke="#bfbfbf" points="875.5,-73 875.5,-92 935.5,-92 935.5,-73 875.5,-73"/>
<text text-anchor="middle" x="905.5" y="-80" font-family="Helvetica" font-size="10.00">streambuf</text>
</a>
</g>
</g>
<!-- Node4&#45;&gt;Node10 -->
<g id="edge9" class="edge">
<title>Node4&#45;&gt;Node10</title>
<path fill="none" stroke="midnightblue" d="M699.13,-139.97C741.6,-130.91 809.2,-115.51 866.5,-98 869.07,-97.22 871.71,-96.35 874.35,-95.45"/>
<polygon fill="midnightblue" stroke="midnightblue" points="875.55,-98.74 883.79,-92.09 873.2,-92.15 875.55,-98.74"/>
</g>
<!-- Node11 -->
<g id="node11" class="node">
<title>Node11</title>
<g id="a_node11"><a xlink:title=" ">
<polygon fill="white" stroke="#bfbfbf" points="515.5,-73 515.5,-92 617.5,-92 617.5,-73 515.5,-73"/>
<text text-anchor="middle" x="566.5" y="-80" font-family="Helvetica" font-size="10.00">vsomeip/export.hpp</text>
</a>
</g>
</g>
<!-- Node4&#45;&gt;Node11 -->
<g id="edge10" class="edge">
<title>Node4&#45;&gt;Node11</title>
<path fill="none" stroke="midnightblue" d="M645.23,-139.73C630.35,-129.11 605.07,-111.05 587.17,-98.26"/>
<polygon fill="midnightblue" stroke="midnightblue" points="588.75,-95.09 578.58,-92.13 584.68,-100.79 588.75,-95.09"/>
</g>
<!-- Node12&#45;&gt;Node2 -->
<g id="edge22" class="edge">
<title>Node12&#45;&gt;Node2</title>
<path fill="none" stroke="midnightblue" d="M330.04,-201.4C304.6,-189.99 269.1,-174.08 244.6,-163.1"/>
<polygon fill="midnightblue" stroke="midnightblue" points="246.03,-159.9 235.48,-159.01 243.17,-166.29 246.03,-159.9"/>
</g>
<!-- Node13 -->
<g id="node13" class="node">
<title>Node13</title>
<g id="a_node13"><a xlink:href="compat_2vsomeip_2payload_8hpp.html" target="_top" xlink:title=" ">
<polygon fill="white" stroke="black" points="289.5,-140 289.5,-159 433.5,-159 433.5,-140 289.5,-140"/>
<text text-anchor="middle" x="361.5" y="-147" font-family="Helvetica" font-size="10.00">compat/vsomeip/payload.hpp</text>
</a>
</g>
</g>
<!-- Node12&#45;&gt;Node13 -->
<g id="edge12" class="edge">
<title>Node12&#45;&gt;Node13</title>
<path fill="none" stroke="midnightblue" d="M361.5,-201.4C361.5,-192.06 361.5,-179.71 361.5,-169.52"/>
<polygon fill="midnightblue" stroke="midnightblue" points="365,-169.19 361.5,-159.19 358,-169.19 365,-169.19"/>
</g>
<!-- Node14 -->
<g id="node14" class="node">
<title>Node14</title>
<g id="a_node14"><a xlink:title=" ">
<polygon fill="white" stroke="#bfbfbf" points="0,-73 0,-92 43,-92 43,-73 0,-73"/>
<text text-anchor="middle" x="21.5" y="-80" font-family="Helvetica" font-size="10.00">vector</text>
</a>
</g>
</g>
<!-- Node13&#45;&gt;Node14 -->
<g id="edge13" class="edge">
<title>Node13&#45;&gt;Node14</title>
<path fill="none" stroke="midnightblue" d="M314.26,-140C302.88,-137.99 290.76,-135.89 279.5,-134 178.76,-117.11 150.17,-127.93 52.5,-98 50.63,-97.43 48.72,-96.76 46.82,-96.03"/>
<polygon fill="midnightblue" stroke="midnightblue" points="48.14,-92.79 37.57,-92.06 45.38,-99.22 48.14,-92.79"/>
</g>
<!-- Node15 -->
<g id="node15" class="node">
<title>Node15</title>
<g id="a_node15"><a xlink:href="compat_2vsomeip_2export_8hpp.html" target="_top" xlink:title=" ">
<polygon fill="white" stroke="black" points="219,-0.5 219,-30.5 326,-30.5 326,-0.5 219,-0.5"/>
<text text-anchor="start" x="227" y="-18.5" font-family="Helvetica" font-size="10.00">../../compat/vsomeip</text>
<text text-anchor="middle" x="272.5" y="-7.5" font-family="Helvetica" font-size="10.00">/export.hpp</text>
</a>
</g>
</g>
<!-- Node13&#45;&gt;Node15 -->
<g id="edge14" class="edge">
<title>Node13&#45;&gt;Node15</title>
<path fill="none" stroke="midnightblue" d="M361.42,-139.87C360.89,-124.1 357.88,-90.1 342.5,-67 334.21,-54.55 321.75,-44.14 309.63,-36.06"/>
<polygon fill="midnightblue" stroke="midnightblue" points="311.26,-32.95 300.93,-30.6 307.53,-38.88 311.26,-32.95"/>
</g>
<!-- Node16 -->
<g id="node16" class="node">
<title>Node16</title>
<g id="a_node16"><a xlink:href="compat_2vsomeip_2internal_2deserializable_8hpp.html" target="_top" xlink:title=" ">
<polygon fill="white" stroke="black" points="61.5,-67.5 61.5,-97.5 193.5,-97.5 193.5,-67.5 61.5,-67.5"/>
<text text-anchor="start" x="69.5" y="-85.5" font-family="Helvetica" font-size="10.00">../../compat/vsomeip</text>
<text text-anchor="middle" x="127.5" y="-74.5" font-family="Helvetica" font-size="10.00">/internal/deserializable.hpp</text>
</a>
</g>
</g>
<!-- Node13&#45;&gt;Node16 -->
<g id="edge15" class="edge">
<title>Node13&#45;&gt;Node16</title>
<path fill="none" stroke="midnightblue" d="M330.43,-139.87C294.17,-129.8 233.39,-112.91 187.78,-100.24"/>
<polygon fill="midnightblue" stroke="midnightblue" points="188.57,-96.83 178,-97.53 186.7,-103.58 188.57,-96.83"/>
</g>
<!-- Node17 -->
<g id="node17" class="node">
<title>Node17</title>
<g id="a_node17"><a xlink:href="compat_2vsomeip_2internal_2serializable_8hpp.html" target="_top" xlink:title=" ">
<polygon fill="white" stroke="black" points="211.5,-67.5 211.5,-97.5 333.5,-97.5 333.5,-67.5 211.5,-67.5"/>
<text text-anchor="start" x="219.5" y="-85.5" font-family="Helvetica" font-size="10.00">../../compat/vsomeip</text>
<text text-anchor="middle" x="272.5" y="-74.5" font-family="Helvetica" font-size="10.00">/internal/serializable.hpp</text>
</a>
</g>
</g>
<!-- Node13&#45;&gt;Node17 -->
<g id="edge17" class="edge">
<title>Node13&#45;&gt;Node17</title>
<path fill="none" stroke="midnightblue" d="M349.5,-139.73C336.89,-130.53 316.63,-115.73 300.06,-103.63"/>
<polygon fill="midnightblue" stroke="midnightblue" points="301.93,-100.66 291.79,-97.59 297.8,-106.31 301.93,-100.66"/>
</g>
<!-- Node18 -->
<g id="node18" class="node">
<title>Node18</title>
<g id="a_node18"><a xlink:href="interface_2compat_2vsomeip_2primitive__types_8hpp.html" target="_top" xlink:title=" ">
<polygon fill="white" stroke="black" points="390,-67.5 390,-97.5 497,-97.5 497,-67.5 390,-67.5"/>
<text text-anchor="start" x="398" y="-85.5" font-family="Helvetica" font-size="10.00">../../compat/vsomeip</text>
<text text-anchor="middle" x="443.5" y="-74.5" font-family="Helvetica" font-size="10.00">/primitive_types.hpp</text>
</a>
</g>
</g>
<!-- Node13&#45;&gt;Node18 -->
<g id="edge19" class="edge">
<title>Node13&#45;&gt;Node18</title>
<path fill="none" stroke="midnightblue" d="M372.56,-139.73C384.07,-130.61 402.5,-116 417.69,-103.96"/>
<polygon fill="midnightblue" stroke="midnightblue" points="420.06,-106.54 425.73,-97.59 415.72,-101.06 420.06,-106.54"/>
</g>
<!-- Node16&#45;&gt;Node15 -->
<g id="edge16" class="edge">
<title>Node16&#45;&gt;Node15</title>
<path fill="none" stroke="midnightblue" d="M158.96,-67.4C180.34,-57.81 208.81,-45.05 231.9,-34.7"/>
<polygon fill="midnightblue" stroke="midnightblue" points="233.41,-37.86 241.1,-30.58 230.54,-31.47 233.41,-37.86"/>
</g>
<!-- Node17&#45;&gt;Node15 -->
<g id="edge18" class="edge">
<title>Node17&#45;&gt;Node15</title>
<path fill="none" stroke="midnightblue" d="M272.5,-67.4C272.5,-59.64 272.5,-49.81 272.5,-40.86"/>
<polygon fill="midnightblue" stroke="midnightblue" points="276,-40.58 272.5,-30.58 269,-40.58 276,-40.58"/>
</g>
<!-- Node18&#45;&gt;Node6 -->
<g id="edge21" class="edge">
<title>Node18&#45;&gt;Node6</title>
<path fill="none" stroke="midnightblue" d="M487.33,-67.4C524.98,-55.28 578.42,-38.08 612.53,-27.11"/>
<polygon fill="midnightblue" stroke="midnightblue" points="614.01,-30.31 622.45,-23.92 611.86,-23.65 614.01,-30.31"/>
</g>
<!-- Node19 -->
<g id="node19" class="node">
<title>Node19</title>
<g id="a_node19"><a xlink:title=" ">
<polygon fill="white" stroke="#bfbfbf" points="424.5,-6 424.5,-25 462.5,-25 462.5,-6 424.5,-6"/>
<text text-anchor="middle" x="443.5" y="-13" font-family="Helvetica" font-size="10.00">array</text>
</a>
</g>
</g>
<!-- Node18&#45;&gt;Node19 -->
<g id="edge20" class="edge">
<title>Node18&#45;&gt;Node19</title>
<path fill="none" stroke="midnightblue" d="M443.5,-67.4C443.5,-58.06 443.5,-45.71 443.5,-35.52"/>
<polygon fill="midnightblue" stroke="midnightblue" points="447,-35.19 443.5,-25.19 440,-35.19 447,-35.19"/>
</g>
<!-- Node20&#45;&gt;Node6 -->
<g id="edge24" class="edge">
<title>Node20&#45;&gt;Node6</title>
<path fill="none" stroke="midnightblue" d="M937.5,-202.99C995.09,-189.01 1080.21,-167.95 1082.5,-165 1100.51,-141.79 1072.51,-75.44 1062.5,-67 1004.71,-18.27 767.03,-15.35 678.73,-16"/>
<polygon fill="midnightblue" stroke="midnightblue" points="678.69,-12.5 668.72,-16.09 678.76,-19.5 678.69,-12.5"/>
</g>
<!-- Node21 -->
<g id="node21" class="node">
<title>Node21</title>
<g id="a_node21"><a xlink:title=" ">
<polygon fill="white" stroke="#bfbfbf" points="1129.5,-140 1129.5,-159 1169.5,-159 1169.5,-140 1129.5,-140"/>
<text text-anchor="middle" x="1149.5" y="-147" font-family="Helvetica" font-size="10.00">limits</text>
</a>
</g>
</g>
<!-- Node20&#45;&gt;Node21 -->
<g id="edge25" class="edge">
<title>Node20&#45;&gt;Node21</title>
<path fill="none" stroke="midnightblue" d="M937.58,-203.25C940.93,-202.48 944.26,-201.73 947.5,-201 1022.01,-184.3 1042.71,-188.08 1115.5,-165 1117.43,-164.39 1119.39,-163.71 1121.36,-162.99"/>
<polygon fill="midnightblue" stroke="midnightblue" points="1123.04,-166.08 1131.04,-159.13 1120.45,-159.58 1123.04,-166.08"/>
</g>
<!-- Node22 -->
<g id="node22" class="node">
<title>Node22</title>
<g id="a_node22"><a xlink:title=" ">
<polygon fill="white" stroke="#bfbfbf" points="744,-140 744,-159 797,-159 797,-140 744,-140"/>
<text text-anchor="middle" x="770.5" y="-147" font-family="Helvetica" font-size="10.00">memory</text>
</a>
</g>
</g>
<!-- Node20&#45;&gt;Node22 -->
<g id="edge26" class="edge">
<title>Node20&#45;&gt;Node22</title>
<path fill="none" stroke="midnightblue" d="M860.55,-201.4C840.9,-190.29 813.71,-174.92 794.35,-163.98"/>
<polygon fill="midnightblue" stroke="midnightblue" points="795.98,-160.88 785.55,-159.01 792.53,-166.97 795.98,-160.88"/>
</g>
<!-- Node23 -->
<g id="node23" class="node">
<title>Node23</title>
<g id="a_node23"><a xlink:title=" ">
<polygon fill="white" stroke="#bfbfbf" points="815.5,-140 815.5,-159 955.5,-159 955.5,-140 815.5,-140"/>
<text text-anchor="middle" x="885.5" y="-147" font-family="Helvetica" font-size="10.00">vsomeip/primitive_types.hpp</text>
</a>
</g>
</g>
<!-- Node20&#45;&gt;Node23 -->
<g id="edge27" class="edge">
<title>Node20&#45;&gt;Node23</title>
<path fill="none" stroke="midnightblue" d="M885.5,-201.4C885.5,-192.06 885.5,-179.71 885.5,-169.52"/>
<polygon fill="midnightblue" stroke="midnightblue" points="889,-169.19 885.5,-159.19 882,-169.19 889,-169.19"/>
</g>
<!-- Node24 -->
<g id="node24" class="node">
<title>Node24</title>
<g id="a_node24"><a xlink:href="structured__types_8hpp.html" target="_top" xlink:title=" ">
<polygon fill="white" stroke="black" points="973.5,-134.5 973.5,-164.5 1073.5,-164.5 1073.5,-134.5 973.5,-134.5"/>
<text text-anchor="start" x="981.5" y="-152.5" font-family="Helvetica" font-size="10.00">vsomeip/structured</text>
<text text-anchor="middle" x="1023.5" y="-141.5" font-family="Helvetica" font-size="10.00">_types.hpp</text>
</a>
</g>
</g>
<!-- Node20&#45;&gt;Node24 -->
<g id="edge28" class="edge">
<title>Node20&#45;&gt;Node24</title>
<path fill="none" stroke="midnightblue" d="M915.44,-201.4C935.7,-191.86 962.65,-179.16 984.56,-168.84"/>
<polygon fill="midnightblue" stroke="midnightblue" points="986.06,-172 993.61,-164.58 983.08,-165.67 986.06,-172"/>
</g>
<!-- Node24&#45;&gt;Node5 -->
<g id="edge29" class="edge">
<title>Node24&#45;&gt;Node5</title>
<path fill="none" stroke="midnightblue" d="M1013.3,-134.4C1006.12,-124.46 996.46,-111.11 988.84,-100.57"/>
<polygon fill="midnightblue" stroke="midnightblue" points="991.48,-98.25 982.79,-92.19 985.81,-102.35 991.48,-98.25"/>
</g>
<!-- Node25 -->
<g id="node25" class="node">
<title>Node25</title>
<g id="a_node25"><a xlink:title=" ">
<polygon fill="white" stroke="#bfbfbf" points="1018,-73 1018,-92 1053,-92 1053,-73 1018,-73"/>
<text text-anchor="middle" x="1035.5" y="-80" font-family="Helvetica" font-size="10.00">map</text>
</a>
</g>
</g>
<!-- Node24&#45;&gt;Node25 -->
<g id="edge30" class="edge">
<title>Node24&#45;&gt;Node25</title>
<path fill="none" stroke="midnightblue" d="M1026.1,-134.4C1027.85,-124.96 1030.16,-112.45 1032.05,-102.19"/>
<polygon fill="midnightblue" stroke="midnightblue" points="1035.52,-102.66 1033.89,-92.19 1028.64,-101.39 1035.52,-102.66"/>
</g>
</g>
</svg>
