<?xml version="1.0" encoding="UTF-8" standalone="no"?>
<!DOCTYPE svg PUBLIC "-//W3C//DTD SVG 1.1//EN"
 "http://www.w3.org/Graphics/SVG/1.1/DTD/svg11.dtd">
<!-- Generated by graphviz version 2.44.0 (0)
 -->
<!-- Title: /home/ec2&#45;user/workspace/vsomeip/implementation/configuration/include/configuration_plugin.hpp Pages: 1 -->
<svg width="328pt" height="239pt"
 viewBox="0.00 0.00 327.50 239.00" xmlns="http://www.w3.org/2000/svg" xmlns:xlink="http://www.w3.org/1999/xlink">
<g id="graph0" class="graph" transform="scale(1 1) rotate(0) translate(4 235)">
<title>/home/ec2&#45;user/workspace/vsomeip/implementation/configuration/include/configuration_plugin.hpp</title>
<polygon fill="white" stroke="transparent" points="-4,4 -4,-235 323.5,-235 323.5,4 -4,4"/>
<!-- Node1 -->
<g id="node1" class="node">
<title>Node1</title>
<g id="a_node1"><a xlink:title=" ">
<polygon fill="#bfbfbf" stroke="black" points="84,-178.5 84,-230.5 251,-230.5 251,-178.5 84,-178.5"/>
<text text-anchor="start" x="92" y="-218.5" font-family="Helvetica" font-size="10.00">/home/ec2&#45;user/workspace</text>
<text text-anchor="start" x="92" y="-207.5" font-family="Helvetica" font-size="10.00">/vsomeip/implementation</text>
<text text-anchor="start" x="92" y="-196.5" font-family="Helvetica" font-size="10.00">/configuration/include/configuration</text>
<text text-anchor="middle" x="167.5" y="-185.5" font-family="Helvetica" font-size="10.00">_plugin.hpp</text>
</a>
</g>
</g>
<!-- Node2 -->
<g id="node2" class="node">
<title>Node2</title>
<g id="a_node2"><a xlink:href="configuration__plugin__impl_8hpp.html" target="_top" xlink:title=" ">
<polygon fill="white" stroke="black" points="0,-89.5 0,-141.5 167,-141.5 167,-89.5 0,-89.5"/>
<text text-anchor="start" x="8" y="-129.5" font-family="Helvetica" font-size="10.00">/home/ec2&#45;user/workspace</text>
<text text-anchor="start" x="8" y="-118.5" font-family="Helvetica" font-size="10.00">/vsomeip/implementation</text>
<text text-anchor="start" x="8" y="-107.5" font-family="Helvetica" font-size="10.00">/configuration/include/configuration</text>
<text text-anchor="middle" x="83.5" y="-96.5" font-family="Helvetica" font-size="10.00">_plugin_impl.hpp</text>
</a>
</g>
</g>
<!-- Node1&#45;&gt;Node2 -->
<g id="edge1" class="edge">
<title>Node1&#45;&gt;Node2</title>
<path fill="none" stroke="midnightblue" d="M136.19,-171.08C126.79,-161.34 116.62,-150.8 107.74,-141.61"/>
<polygon fill="midnightblue" stroke="midnightblue" points="133.74,-173.57 143.2,-178.34 138.78,-168.71 133.74,-173.57"/>
</g>
<!-- Node4 -->
<g id="node4" class="node">
<title>Node4</title>
<g id="a_node4"><a xlink:href="runtime_2src_2application__impl_8cpp.html" target="_top" xlink:title=" ">
<polygon fill="white" stroke="black" points="185.5,-89.5 185.5,-141.5 319.5,-141.5 319.5,-89.5 185.5,-89.5"/>
<text text-anchor="start" x="193.5" y="-129.5" font-family="Helvetica" font-size="10.00">/home/ec2&#45;user/workspace</text>
<text text-anchor="start" x="193.5" y="-118.5" font-family="Helvetica" font-size="10.00">/vsomeip/implementation</text>
<text text-anchor="start" x="193.5" y="-107.5" font-family="Helvetica" font-size="10.00">/runtime/src/application</text>
<text text-anchor="middle" x="252.5" y="-96.5" font-family="Helvetica" font-size="10.00">_impl.cpp</text>
</a>
</g>
</g>
<!-- Node1&#45;&gt;Node4 -->
<g id="edge3" class="edge">
<title>Node1&#45;&gt;Node4</title>
<path fill="none" stroke="midnightblue" d="M199.18,-171.08C208.7,-161.34 218.99,-150.8 227.97,-141.61"/>
<polygon fill="midnightblue" stroke="midnightblue" points="196.57,-168.74 192.09,-178.34 201.58,-173.63 196.57,-168.74"/>
</g>
<!-- Node3 -->
<g id="node3" class="node">
<title>Node3</title>
<g id="a_node3"><a xlink:href="configuration__plugin__impl_8cpp.html" target="_top" xlink:title=" ">
<polygon fill="white" stroke="black" points="8.5,-0.5 8.5,-52.5 158.5,-52.5 158.5,-0.5 8.5,-0.5"/>
<text text-anchor="start" x="16.5" y="-40.5" font-family="Helvetica" font-size="10.00">/home/ec2&#45;user/workspace</text>
<text text-anchor="start" x="16.5" y="-29.5" font-family="Helvetica" font-size="10.00">/vsomeip/implementation</text>
<text text-anchor="start" x="16.5" y="-18.5" font-family="Helvetica" font-size="10.00">/configuration/src/configuration</text>
<text text-anchor="middle" x="83.5" y="-7.5" font-family="Helvetica" font-size="10.00">_plugin_impl.cpp</text>
</a>
</g>
</g>
<!-- Node2&#45;&gt;Node3 -->
<g id="edge2" class="edge">
<title>Node2&#45;&gt;Node3</title>
<path fill="none" stroke="midnightblue" d="M83.5,-79.19C83.5,-70.28 83.5,-60.9 83.5,-52.61"/>
<polygon fill="midnightblue" stroke="midnightblue" points="80,-79.34 83.5,-89.34 87,-79.34 80,-79.34"/>
</g>
</g>
</svg>
