<?xml version="1.0" encoding="UTF-8" standalone="no"?>
<!DOCTYPE svg PUBLIC "-//W3C//DTD SVG 1.1//EN"
 "http://www.w3.org/Graphics/SVG/1.1/DTD/svg11.dtd">
<!-- Generated by graphviz version 2.44.0 (0)
 -->
<!-- Title: /home/ec2&#45;user/workspace/vsomeip/implementation/service_discovery/src/configuration_option_impl.cpp Pages: 1 -->
<svg width="545pt" height="296pt"
 viewBox="0.00 0.00 544.50 296.00" xmlns="http://www.w3.org/2000/svg" xmlns:xlink="http://www.w3.org/1999/xlink">
<g id="graph0" class="graph" transform="scale(1 1) rotate(0) translate(4 292)">
<title>/home/ec2&#45;user/workspace/vsomeip/implementation/service_discovery/src/configuration_option_impl.cpp</title>
<polygon fill="white" stroke="transparent" points="-4,4 -4,-292 540.5,-292 540.5,4 -4,4"/>
<!-- Node1 -->
<g id="node1" class="node">
<title>Node1</title>
<g id="a_node1"><a xlink:title=" ">
<polygon fill="#bfbfbf" stroke="black" points="108.5,-235.5 108.5,-287.5 282.5,-287.5 282.5,-235.5 108.5,-235.5"/>
<text text-anchor="start" x="116.5" y="-275.5" font-family="Helvetica" font-size="10.00">/home/ec2&#45;user/workspace</text>
<text text-anchor="start" x="116.5" y="-264.5" font-family="Helvetica" font-size="10.00">/vsomeip/implementation</text>
<text text-anchor="start" x="116.5" y="-253.5" font-family="Helvetica" font-size="10.00">/service_discovery/src/configuration</text>
<text text-anchor="middle" x="195.5" y="-242.5" font-family="Helvetica" font-size="10.00">_option_impl.cpp</text>
</a>
</g>
</g>
<!-- Node2 -->
<g id="node2" class="node">
<title>Node2</title>
<g id="a_node2"><a xlink:title=" ">
<polygon fill="white" stroke="#bfbfbf" points="8.5,-174 8.5,-193 54.5,-193 54.5,-174 8.5,-174"/>
<text text-anchor="middle" x="31.5" y="-181" font-family="Helvetica" font-size="10.00">cstring</text>
</a>
</g>
</g>
<!-- Node1&#45;&gt;Node2 -->
<g id="edge1" class="edge">
<title>Node1&#45;&gt;Node2</title>
<path fill="none" stroke="midnightblue" d="M141.35,-235.4C113.88,-222.67 81.67,-207.75 59.27,-197.37"/>
<polygon fill="midnightblue" stroke="midnightblue" points="60.55,-194.11 50.01,-193.08 57.61,-200.46 60.55,-194.11"/>
</g>
<!-- Node3 -->
<g id="node3" class="node">
<title>Node3</title>
<g id="a_node3"><a xlink:href="configuration__option__impl_8hpp.html" target="_top" xlink:title=" ">
<polygon fill="white" stroke="black" points="73,-168.5 73,-198.5 188,-198.5 188,-168.5 73,-168.5"/>
<text text-anchor="start" x="81" y="-186.5" font-family="Helvetica" font-size="10.00">../include/configuration</text>
<text text-anchor="middle" x="130.5" y="-175.5" font-family="Helvetica" font-size="10.00">_option_impl.hpp</text>
</a>
</g>
</g>
<!-- Node1&#45;&gt;Node3 -->
<g id="edge2" class="edge">
<title>Node1&#45;&gt;Node3</title>
<path fill="none" stroke="midnightblue" d="M173.86,-235.19C165.94,-225.94 157.05,-215.54 149.39,-206.59"/>
<polygon fill="midnightblue" stroke="midnightblue" points="151.93,-204.17 142.77,-198.85 146.61,-208.72 151.93,-204.17"/>
</g>
<!-- Node12 -->
<g id="node12" class="node">
<title>Node12</title>
<g id="a_node12"><a xlink:href="message_2include_2deserializer_8hpp.html" target="_top" xlink:title=" ">
<polygon fill="white" stroke="black" points="206.5,-168.5 206.5,-198.5 314.5,-198.5 314.5,-168.5 206.5,-168.5"/>
<text text-anchor="start" x="214.5" y="-186.5" font-family="Helvetica" font-size="10.00">../../message/include</text>
<text text-anchor="middle" x="260.5" y="-175.5" font-family="Helvetica" font-size="10.00">/deserializer.hpp</text>
</a>
</g>
</g>
<!-- Node1&#45;&gt;Node12 -->
<g id="edge12" class="edge">
<title>Node1&#45;&gt;Node12</title>
<path fill="none" stroke="midnightblue" d="M217.14,-235.19C225.06,-225.94 233.95,-215.54 241.61,-206.59"/>
<polygon fill="midnightblue" stroke="midnightblue" points="244.39,-208.72 248.23,-198.85 239.07,-204.17 244.39,-208.72"/>
</g>
<!-- Node15 -->
<g id="node15" class="node">
<title>Node15</title>
<g id="a_node15"><a xlink:href="serializer_8hpp.html" target="_top" xlink:title=" ">
<polygon fill="white" stroke="black" points="332.5,-168.5 332.5,-198.5 440.5,-198.5 440.5,-168.5 332.5,-168.5"/>
<text text-anchor="start" x="340.5" y="-186.5" font-family="Helvetica" font-size="10.00">../../message/include</text>
<text text-anchor="middle" x="386.5" y="-175.5" font-family="Helvetica" font-size="10.00">/serializer.hpp</text>
</a>
</g>
</g>
<!-- Node1&#45;&gt;Node15 -->
<g id="edge16" class="edge">
<title>Node1&#45;&gt;Node15</title>
<path fill="none" stroke="midnightblue" d="M258.57,-235.4C285.72,-224.6 316.83,-212.22 341.58,-202.37"/>
<polygon fill="midnightblue" stroke="midnightblue" points="343.07,-205.55 351.07,-198.6 340.49,-199.04 343.07,-205.55"/>
</g>
<!-- Node4 -->
<g id="node4" class="node">
<title>Node4</title>
<g id="a_node4"><a xlink:title=" ">
<polygon fill="white" stroke="#bfbfbf" points="0,-112.5 0,-131.5 35,-131.5 35,-112.5 0,-112.5"/>
<text text-anchor="middle" x="17.5" y="-119.5" font-family="Helvetica" font-size="10.00">map</text>
</a>
</g>
</g>
<!-- Node3&#45;&gt;Node4 -->
<g id="edge3" class="edge">
<title>Node3&#45;&gt;Node4</title>
<path fill="none" stroke="midnightblue" d="M103.72,-168.4C85.44,-158.77 61.35,-146.09 43.29,-136.58"/>
<polygon fill="midnightblue" stroke="midnightblue" points="44.42,-133.22 33.94,-131.66 41.16,-139.41 44.42,-133.22"/>
</g>
<!-- Node5 -->
<g id="node5" class="node">
<title>Node5</title>
<g id="a_node5"><a xlink:title=" ">
<polygon fill="white" stroke="#bfbfbf" points="53,-112.5 53,-131.5 94,-131.5 94,-112.5 53,-112.5"/>
<text text-anchor="middle" x="73.5" y="-119.5" font-family="Helvetica" font-size="10.00">string</text>
</a>
</g>
</g>
<!-- Node3&#45;&gt;Node5 -->
<g id="edge4" class="edge">
<title>Node3&#45;&gt;Node5</title>
<path fill="none" stroke="midnightblue" d="M116.99,-168.4C108.54,-159.58 97.62,-148.18 88.84,-139.02"/>
<polygon fill="midnightblue" stroke="midnightblue" points="91.24,-136.46 81.79,-131.66 86.18,-141.3 91.24,-136.46"/>
</g>
<!-- Node6 -->
<g id="node6" class="node">
<title>Node6</title>
<g id="a_node6"><a xlink:title=" ">
<polygon fill="white" stroke="#bfbfbf" points="215,-112.5 215,-131.5 258,-131.5 258,-112.5 215,-112.5"/>
<text text-anchor="middle" x="236.5" y="-119.5" font-family="Helvetica" font-size="10.00">vector</text>
</a>
</g>
</g>
<!-- Node3&#45;&gt;Node6 -->
<g id="edge5" class="edge">
<title>Node3&#45;&gt;Node6</title>
<path fill="none" stroke="midnightblue" d="M155.62,-168.4C172.77,-158.77 195.36,-146.09 212.31,-136.58"/>
<polygon fill="midnightblue" stroke="midnightblue" points="214.07,-139.6 221.08,-131.66 210.64,-133.5 214.07,-139.6"/>
</g>
<!-- Node7 -->
<g id="node7" class="node">
<title>Node7</title>
<g id="a_node7"><a xlink:href="option__impl_8hpp.html" target="_top" xlink:title=" ">
<polygon fill="white" stroke="black" points="112,-112.5 112,-131.5 197,-131.5 197,-112.5 112,-112.5"/>
<text text-anchor="middle" x="154.5" y="-119.5" font-family="Helvetica" font-size="10.00">option_impl.hpp</text>
</a>
</g>
</g>
<!-- Node3&#45;&gt;Node7 -->
<g id="edge6" class="edge">
<title>Node3&#45;&gt;Node7</title>
<path fill="none" stroke="midnightblue" d="M136.19,-168.4C139.5,-160.2 143.7,-149.78 147.24,-140.99"/>
<polygon fill="midnightblue" stroke="midnightblue" points="150.51,-142.24 151.01,-131.66 144.02,-139.62 150.51,-142.24"/>
</g>
<!-- Node8 -->
<g id="node8" class="node">
<title>Node8</title>
<g id="a_node8"><a xlink:title=" ">
<polygon fill="white" stroke="#bfbfbf" points="35.5,-0.5 35.5,-19.5 81.5,-19.5 81.5,-0.5 35.5,-0.5"/>
<text text-anchor="middle" x="58.5" y="-7.5" font-family="Helvetica" font-size="10.00">cstdint</text>
</a>
</g>
</g>
<!-- Node7&#45;&gt;Node8 -->
<g id="edge7" class="edge">
<title>Node7&#45;&gt;Node8</title>
<path fill="none" stroke="midnightblue" d="M119.01,-112.46C87.33,-104.03 44.45,-90.36 34.5,-76 24.27,-61.24 34.14,-41.59 44.14,-27.77"/>
<polygon fill="midnightblue" stroke="midnightblue" points="47.09,-29.67 50.52,-19.64 41.59,-25.35 47.09,-29.67"/>
</g>
<!-- Node9 -->
<g id="node9" class="node">
<title>Node9</title>
<g id="a_node9"><a xlink:title=" ">
<polygon fill="white" stroke="#bfbfbf" points="180,-56.5 180,-75.5 233,-75.5 233,-56.5 180,-56.5"/>
<text text-anchor="middle" x="206.5" y="-63.5" font-family="Helvetica" font-size="10.00">memory</text>
</a>
</g>
</g>
<!-- Node7&#45;&gt;Node9 -->
<g id="edge8" class="edge">
<title>Node7&#45;&gt;Node9</title>
<path fill="none" stroke="midnightblue" d="M163.09,-112.08C170.66,-104.22 181.88,-92.57 191.01,-83.08"/>
<polygon fill="midnightblue" stroke="midnightblue" points="193.66,-85.38 198.07,-75.75 188.62,-80.53 193.66,-85.38"/>
</g>
<!-- Node10 -->
<g id="node10" class="node">
<title>Node10</title>
<g id="a_node10"><a xlink:href="implementation_2service__discovery_2include_2enumeration__types_8hpp.html" target="_top" xlink:title=" ">
<polygon fill="white" stroke="black" points="43.5,-56.5 43.5,-75.5 161.5,-75.5 161.5,-56.5 43.5,-56.5"/>
<text text-anchor="middle" x="102.5" y="-63.5" font-family="Helvetica" font-size="10.00">enumeration_types.hpp</text>
</a>
</g>
</g>
<!-- Node7&#45;&gt;Node10 -->
<g id="edge9" class="edge">
<title>Node7&#45;&gt;Node10</title>
<path fill="none" stroke="midnightblue" d="M145.91,-112.08C138.34,-104.22 127.12,-92.57 117.99,-83.08"/>
<polygon fill="midnightblue" stroke="midnightblue" points="120.38,-80.53 110.93,-75.75 115.34,-85.38 120.38,-80.53"/>
</g>
<!-- Node11 -->
<g id="node11" class="node">
<title>Node11</title>
<g id="a_node11"><a xlink:href="message__element__impl_8hpp.html" target="_top" xlink:title=" ">
<polygon fill="white" stroke="black" points="251.5,-56.5 251.5,-75.5 389.5,-75.5 389.5,-56.5 251.5,-56.5"/>
<text text-anchor="middle" x="320.5" y="-63.5" font-family="Helvetica" font-size="10.00">message_element_impl.hpp</text>
</a>
</g>
</g>
<!-- Node7&#45;&gt;Node11 -->
<g id="edge11" class="edge">
<title>Node7&#45;&gt;Node11</title>
<path fill="none" stroke="midnightblue" d="M180.8,-112.44C208.85,-103.32 253.44,-88.81 284.68,-78.65"/>
<polygon fill="midnightblue" stroke="midnightblue" points="285.89,-81.94 294.32,-75.52 283.73,-75.28 285.89,-81.94"/>
</g>
<!-- Node10&#45;&gt;Node8 -->
<g id="edge10" class="edge">
<title>Node10&#45;&gt;Node8</title>
<path fill="none" stroke="midnightblue" d="M95.23,-56.08C88.96,-48.38 79.71,-37.03 72.07,-27.65"/>
<polygon fill="midnightblue" stroke="midnightblue" points="74.66,-25.29 65.63,-19.75 69.23,-29.71 74.66,-25.29"/>
</g>
<!-- Node12&#45;&gt;Node6 -->
<g id="edge13" class="edge">
<title>Node12&#45;&gt;Node6</title>
<path fill="none" stroke="midnightblue" d="M254.81,-168.4C251.5,-160.2 247.3,-149.78 243.76,-140.99"/>
<polygon fill="midnightblue" stroke="midnightblue" points="246.98,-139.62 239.99,-131.66 240.49,-142.24 246.98,-139.62"/>
</g>
<!-- Node13 -->
<g id="node13" class="node">
<title>Node13</title>
<g id="a_node13"><a xlink:title=" ">
<polygon fill="white" stroke="#bfbfbf" points="276.5,-112.5 276.5,-131.5 378.5,-131.5 378.5,-112.5 276.5,-112.5"/>
<text text-anchor="middle" x="327.5" y="-119.5" font-family="Helvetica" font-size="10.00">vsomeip/export.hpp</text>
</a>
</g>
</g>
<!-- Node12&#45;&gt;Node13 -->
<g id="edge14" class="edge">
<title>Node12&#45;&gt;Node13</title>
<path fill="none" stroke="midnightblue" d="M276.38,-168.4C286.52,-159.4 299.66,-147.72 310.09,-138.47"/>
<polygon fill="midnightblue" stroke="midnightblue" points="312.6,-140.92 317.75,-131.66 307.95,-135.68 312.6,-140.92"/>
</g>
<!-- Node14 -->
<g id="node14" class="node">
<title>Node14</title>
<g id="a_node14"><a xlink:title=" ">
<polygon fill="white" stroke="#bfbfbf" points="396.5,-112.5 396.5,-131.5 536.5,-131.5 536.5,-112.5 396.5,-112.5"/>
<text text-anchor="middle" x="466.5" y="-119.5" font-family="Helvetica" font-size="10.00">vsomeip/primitive_types.hpp</text>
</a>
</g>
</g>
<!-- Node12&#45;&gt;Node14 -->
<g id="edge15" class="edge">
<title>Node12&#45;&gt;Node14</title>
<path fill="none" stroke="midnightblue" d="M309.06,-168.47C345.06,-158.08 393.52,-144.08 427.13,-134.37"/>
<polygon fill="midnightblue" stroke="midnightblue" points="428.41,-137.64 437.05,-131.51 426.47,-130.92 428.41,-137.64"/>
</g>
<!-- Node15&#45;&gt;Node6 -->
<g id="edge17" class="edge">
<title>Node15&#45;&gt;Node6</title>
<path fill="none" stroke="midnightblue" d="M350.95,-168.4C325.67,-158.37 292.03,-145.03 267.77,-135.4"/>
<polygon fill="midnightblue" stroke="midnightblue" points="268.91,-132.09 258.33,-131.66 266.33,-138.6 268.91,-132.09"/>
</g>
<!-- Node15&#45;&gt;Node13 -->
<g id="edge18" class="edge">
<title>Node15&#45;&gt;Node13</title>
<path fill="none" stroke="midnightblue" d="M372.52,-168.4C363.77,-159.58 352.47,-148.18 343.38,-139.02"/>
<polygon fill="midnightblue" stroke="midnightblue" points="345.61,-136.29 336.09,-131.66 340.64,-141.22 345.61,-136.29"/>
</g>
<!-- Node15&#45;&gt;Node14 -->
<g id="edge19" class="edge">
<title>Node15&#45;&gt;Node14</title>
<path fill="none" stroke="midnightblue" d="M405.46,-168.4C417.92,-159.13 434.2,-147.03 446.81,-137.65"/>
<polygon fill="midnightblue" stroke="midnightblue" points="448.92,-140.43 454.86,-131.66 444.75,-134.82 448.92,-140.43"/>
</g>
</g>
</svg>
