<?xml version="1.0" encoding="UTF-8" standalone="no"?>
<!DOCTYPE svg PUBLIC "-//W3C//DTD SVG 1.1//EN"
 "http://www.w3.org/Graphics/SVG/1.1/DTD/svg11.dtd">
<!-- Generated by graphviz version 2.44.0 (0)
 -->
<!-- Title: /home/ec2&#45;user/workspace/vsomeip/implementation/configuration/include/configuration_plugin_impl.hpp Pages: 1 -->
<svg width="366pt" height="173pt"
 viewBox="0.00 0.00 365.50 173.00" xmlns="http://www.w3.org/2000/svg" xmlns:xlink="http://www.w3.org/1999/xlink">
<g id="graph0" class="graph" transform="scale(1 1) rotate(0) translate(4 169)">
<title>/home/ec2&#45;user/workspace/vsomeip/implementation/configuration/include/configuration_plugin_impl.hpp</title>
<polygon fill="white" stroke="transparent" points="-4,4 -4,-169 361.5,-169 361.5,4 -4,4"/>
<!-- Node1 -->
<g id="node1" class="node">
<title>Node1</title>
<g id="a_node1"><a xlink:title=" ">
<polygon fill="#bfbfbf" stroke="black" points="37,-112.5 37,-164.5 204,-164.5 204,-112.5 37,-112.5"/>
<text text-anchor="start" x="45" y="-152.5" font-family="Helvetica" font-size="10.00">/home/ec2&#45;user/workspace</text>
<text text-anchor="start" x="45" y="-141.5" font-family="Helvetica" font-size="10.00">/vsomeip/implementation</text>
<text text-anchor="start" x="45" y="-130.5" font-family="Helvetica" font-size="10.00">/configuration/include/configuration</text>
<text text-anchor="middle" x="120.5" y="-119.5" font-family="Helvetica" font-size="10.00">_plugin_impl.hpp</text>
</a>
</g>
</g>
<!-- Node2 -->
<g id="node2" class="node">
<title>Node2</title>
<g id="a_node2"><a xlink:title=" ">
<polygon fill="white" stroke="#bfbfbf" points="0,-56.5 0,-75.5 35,-75.5 35,-56.5 0,-56.5"/>
<text text-anchor="middle" x="17.5" y="-63.5" font-family="Helvetica" font-size="10.00">map</text>
</a>
</g>
</g>
<!-- Node1&#45;&gt;Node2 -->
<g id="edge1" class="edge">
<title>Node1&#45;&gt;Node2</title>
<path fill="none" stroke="midnightblue" d="M83.9,-112.45C68.67,-102.03 51.55,-90.31 38.51,-81.38"/>
<polygon fill="midnightblue" stroke="midnightblue" points="40.43,-78.46 30.2,-75.7 36.48,-84.23 40.43,-78.46"/>
</g>
<!-- Node3 -->
<g id="node3" class="node">
<title>Node3</title>
<g id="a_node3"><a xlink:title=" ">
<polygon fill="white" stroke="#bfbfbf" points="53.5,-56.5 53.5,-75.5 97.5,-75.5 97.5,-56.5 53.5,-56.5"/>
<text text-anchor="middle" x="75.5" y="-63.5" font-family="Helvetica" font-size="10.00">mutex</text>
</a>
</g>
</g>
<!-- Node1&#45;&gt;Node3 -->
<g id="edge2" class="edge">
<title>Node1&#45;&gt;Node3</title>
<path fill="none" stroke="midnightblue" d="M104.51,-112.45C98.56,-103.13 91.95,-92.77 86.54,-84.3"/>
<polygon fill="midnightblue" stroke="midnightblue" points="89.38,-82.24 81.05,-75.7 83.48,-86.01 89.38,-82.24"/>
</g>
<!-- Node4 -->
<g id="node4" class="node">
<title>Node4</title>
<g id="a_node4"><a xlink:title=" ">
<polygon fill="white" stroke="#bfbfbf" points="116,-56.5 116,-75.5 217,-75.5 217,-56.5 116,-56.5"/>
<text text-anchor="middle" x="166.5" y="-63.5" font-family="Helvetica" font-size="10.00">vsomeip/plugin.hpp</text>
</a>
</g>
</g>
<!-- Node1&#45;&gt;Node4 -->
<g id="edge3" class="edge">
<title>Node1&#45;&gt;Node4</title>
<path fill="none" stroke="midnightblue" d="M136.85,-112.45C142.93,-103.13 149.68,-92.77 155.21,-84.3"/>
<polygon fill="midnightblue" stroke="midnightblue" points="158.29,-85.98 160.83,-75.7 152.43,-82.16 158.29,-85.98"/>
</g>
<!-- Node5 -->
<g id="node5" class="node">
<title>Node5</title>
<g id="a_node5"><a xlink:href="configuration__plugin_8hpp.html" target="_top" xlink:title=" ">
<polygon fill="white" stroke="black" points="235.5,-56.5 235.5,-75.5 357.5,-75.5 357.5,-56.5 235.5,-56.5"/>
<text text-anchor="middle" x="296.5" y="-63.5" font-family="Helvetica" font-size="10.00">configuration_plugin.hpp</text>
</a>
</g>
</g>
<!-- Node1&#45;&gt;Node5 -->
<g id="edge4" class="edge">
<title>Node1&#45;&gt;Node5</title>
<path fill="none" stroke="midnightblue" d="M183.05,-112.45C211.1,-101.21 242.94,-88.45 265.73,-79.33"/>
<polygon fill="midnightblue" stroke="midnightblue" points="267.23,-82.49 275.21,-75.53 264.63,-76 267.23,-82.49"/>
</g>
<!-- Node6 -->
<g id="node6" class="node">
<title>Node6</title>
<g id="a_node6"><a xlink:title=" ">
<polygon fill="white" stroke="#bfbfbf" points="243,-0.5 243,-19.5 284,-19.5 284,-0.5 243,-0.5"/>
<text text-anchor="middle" x="263.5" y="-7.5" font-family="Helvetica" font-size="10.00">string</text>
</a>
</g>
</g>
<!-- Node5&#45;&gt;Node6 -->
<g id="edge5" class="edge">
<title>Node5&#45;&gt;Node6</title>
<path fill="none" stroke="midnightblue" d="M291.05,-56.08C286.49,-48.61 279.83,-37.72 274.21,-28.52"/>
<polygon fill="midnightblue" stroke="midnightblue" points="277.05,-26.46 268.85,-19.75 271.08,-30.11 277.05,-26.46"/>
</g>
<!-- Node7 -->
<g id="node7" class="node">
<title>Node7</title>
<g id="a_node7"><a xlink:title=" ">
<polygon fill="white" stroke="#bfbfbf" points="302,-0.5 302,-19.5 355,-19.5 355,-0.5 302,-0.5"/>
<text text-anchor="middle" x="328.5" y="-7.5" font-family="Helvetica" font-size="10.00">memory</text>
</a>
</g>
</g>
<!-- Node5&#45;&gt;Node7 -->
<g id="edge6" class="edge">
<title>Node5&#45;&gt;Node7</title>
<path fill="none" stroke="midnightblue" d="M301.78,-56.08C306.21,-48.61 312.66,-37.72 318.12,-28.52"/>
<polygon fill="midnightblue" stroke="midnightblue" points="321.23,-30.14 323.31,-19.75 315.21,-26.57 321.23,-30.14"/>
</g>
</g>
</svg>
