<?xml version="1.0" encoding="UTF-8" standalone="no"?>
<!DOCTYPE svg PUBLIC "-//W3C//DTD SVG 1.1//EN"
 "http://www.w3.org/Graphics/SVG/1.1/DTD/svg11.dtd">
<!-- Generated by graphviz version 2.44.0 (0)
 -->
<!-- Title: /home/ec2&#45;user/workspace/vsomeip/implementation/configuration/include/configuration_element.hpp Pages: 1 -->
<svg width="411pt" height="239pt"
 viewBox="0.00 0.00 411.00 239.00" xmlns="http://www.w3.org/2000/svg" xmlns:xlink="http://www.w3.org/1999/xlink">
<g id="graph0" class="graph" transform="scale(1 1) rotate(0) translate(4 235)">
<title>/home/ec2&#45;user/workspace/vsomeip/implementation/configuration/include/configuration_element.hpp</title>
<polygon fill="white" stroke="transparent" points="-4,4 -4,-235 407,-235 407,4 -4,4"/>
<!-- Node1 -->
<g id="node1" class="node">
<title>Node1</title>
<g id="a_node1"><a xlink:title=" ">
<polygon fill="#bfbfbf" stroke="black" points="161.5,-178.5 161.5,-230.5 328.5,-230.5 328.5,-178.5 161.5,-178.5"/>
<text text-anchor="start" x="169.5" y="-218.5" font-family="Helvetica" font-size="10.00">/home/ec2&#45;user/workspace</text>
<text text-anchor="start" x="169.5" y="-207.5" font-family="Helvetica" font-size="10.00">/vsomeip/implementation</text>
<text text-anchor="start" x="169.5" y="-196.5" font-family="Helvetica" font-size="10.00">/configuration/include/configuration</text>
<text text-anchor="middle" x="245" y="-185.5" font-family="Helvetica" font-size="10.00">_element.hpp</text>
</a>
</g>
</g>
<!-- Node2 -->
<g id="node2" class="node">
<title>Node2</title>
<g id="a_node2"><a xlink:href="configuration__impl_8hpp.html" target="_top" xlink:title=" ">
<polygon fill="white" stroke="black" points="75.5,-89.5 75.5,-141.5 242.5,-141.5 242.5,-89.5 75.5,-89.5"/>
<text text-anchor="start" x="83.5" y="-129.5" font-family="Helvetica" font-size="10.00">/home/ec2&#45;user/workspace</text>
<text text-anchor="start" x="83.5" y="-118.5" font-family="Helvetica" font-size="10.00">/vsomeip/implementation</text>
<text text-anchor="start" x="83.5" y="-107.5" font-family="Helvetica" font-size="10.00">/configuration/include/configuration</text>
<text text-anchor="middle" x="159" y="-96.5" font-family="Helvetica" font-size="10.00">_impl.hpp</text>
</a>
</g>
</g>
<!-- Node1&#45;&gt;Node2 -->
<g id="edge1" class="edge">
<title>Node1&#45;&gt;Node2</title>
<path fill="none" stroke="midnightblue" d="M212.95,-171.08C203.32,-161.34 192.91,-150.8 183.82,-141.61"/>
<polygon fill="midnightblue" stroke="midnightblue" points="210.61,-173.68 220.13,-178.34 215.58,-168.76 210.61,-173.68"/>
</g>
<!-- Node5 -->
<g id="node5" class="node">
<title>Node5</title>
<g id="a_node5"><a xlink:href="policy__manager__impl_8cpp.html" target="_top" xlink:title=" ">
<polygon fill="white" stroke="black" points="261,-89.5 261,-141.5 403,-141.5 403,-89.5 261,-89.5"/>
<text text-anchor="start" x="269" y="-129.5" font-family="Helvetica" font-size="10.00">/home/ec2&#45;user/workspace</text>
<text text-anchor="start" x="269" y="-118.5" font-family="Helvetica" font-size="10.00">/vsomeip/implementation</text>
<text text-anchor="start" x="269" y="-107.5" font-family="Helvetica" font-size="10.00">/security/src/policy_manager</text>
<text text-anchor="middle" x="332" y="-96.5" font-family="Helvetica" font-size="10.00">_impl.cpp</text>
</a>
</g>
</g>
<!-- Node1&#45;&gt;Node5 -->
<g id="edge4" class="edge">
<title>Node1&#45;&gt;Node5</title>
<path fill="none" stroke="midnightblue" d="M277.42,-171.08C287.16,-161.34 297.7,-150.8 306.89,-141.61"/>
<polygon fill="midnightblue" stroke="midnightblue" points="274.76,-168.79 270.16,-178.34 279.71,-173.74 274.76,-168.79"/>
</g>
<!-- Node3 -->
<g id="node3" class="node">
<title>Node3</title>
<g id="a_node3"><a xlink:href="configuration__impl_8cpp.html" target="_top" xlink:title=" ">
<polygon fill="white" stroke="black" points="0,-0.5 0,-52.5 150,-52.5 150,-0.5 0,-0.5"/>
<text text-anchor="start" x="8" y="-40.5" font-family="Helvetica" font-size="10.00">/home/ec2&#45;user/workspace</text>
<text text-anchor="start" x="8" y="-29.5" font-family="Helvetica" font-size="10.00">/vsomeip/implementation</text>
<text text-anchor="start" x="8" y="-18.5" font-family="Helvetica" font-size="10.00">/configuration/src/configuration</text>
<text text-anchor="middle" x="75" y="-7.5" font-family="Helvetica" font-size="10.00">_impl.cpp</text>
</a>
</g>
</g>
<!-- Node2&#45;&gt;Node3 -->
<g id="edge2" class="edge">
<title>Node2&#45;&gt;Node3</title>
<path fill="none" stroke="midnightblue" d="M127.69,-82.08C118.29,-72.34 108.12,-61.8 99.24,-52.61"/>
<polygon fill="midnightblue" stroke="midnightblue" points="125.24,-84.57 134.7,-89.34 130.28,-79.71 125.24,-84.57"/>
</g>
<!-- Node4 -->
<g id="node4" class="node">
<title>Node4</title>
<g id="a_node4"><a xlink:href="configuration__plugin__impl_8cpp.html" target="_top" xlink:title=" ">
<polygon fill="white" stroke="black" points="168,-0.5 168,-52.5 318,-52.5 318,-0.5 168,-0.5"/>
<text text-anchor="start" x="176" y="-40.5" font-family="Helvetica" font-size="10.00">/home/ec2&#45;user/workspace</text>
<text text-anchor="start" x="176" y="-29.5" font-family="Helvetica" font-size="10.00">/vsomeip/implementation</text>
<text text-anchor="start" x="176" y="-18.5" font-family="Helvetica" font-size="10.00">/configuration/src/configuration</text>
<text text-anchor="middle" x="243" y="-7.5" font-family="Helvetica" font-size="10.00">_plugin_impl.cpp</text>
</a>
</g>
</g>
<!-- Node2&#45;&gt;Node4 -->
<g id="edge3" class="edge">
<title>Node2&#45;&gt;Node4</title>
<path fill="none" stroke="midnightblue" d="M190.31,-82.08C199.71,-72.34 209.88,-61.8 218.76,-52.61"/>
<polygon fill="midnightblue" stroke="midnightblue" points="187.72,-79.71 183.3,-89.34 192.76,-84.57 187.72,-79.71"/>
</g>
</g>
</svg>
