<?xml version="1.0" encoding="UTF-8" standalone="no"?>
<!DOCTYPE svg PUBLIC "-//W3C//DTD SVG 1.1//EN"
 "http://www.w3.org/Graphics/SVG/1.1/DTD/svg11.dtd">
<!-- Generated by graphviz version 2.44.0 (0)
 -->
<!-- Title: /home/ec2&#45;user/workspace/vsomeip/implementation/e2e_protection/src/e2exf/config.cpp Pages: 1 -->
<svg width="514pt" height="318pt"
 viewBox="0.00 0.00 514.00 318.00" xmlns="http://www.w3.org/2000/svg" xmlns:xlink="http://www.w3.org/1999/xlink">
<g id="graph0" class="graph" transform="scale(1 1) rotate(0) translate(4 314)">
<title>/home/ec2&#45;user/workspace/vsomeip/implementation/e2e_protection/src/e2exf/config.cpp</title>
<polygon fill="white" stroke="transparent" points="-4,4 -4,-314 510,-314 510,4 -4,4"/>
<!-- Node1 -->
<g id="node1" class="node">
<title>Node1</title>
<g id="a_node1"><a xlink:title=" ">
<polygon fill="#bfbfbf" stroke="black" points="0,-257.5 0,-309.5 134,-309.5 134,-257.5 0,-257.5"/>
<text text-anchor="start" x="8" y="-297.5" font-family="Helvetica" font-size="10.00">/home/ec2&#45;user/workspace</text>
<text text-anchor="start" x="8" y="-286.5" font-family="Helvetica" font-size="10.00">/vsomeip/implementation</text>
<text text-anchor="start" x="8" y="-275.5" font-family="Helvetica" font-size="10.00">/e2e_protection/src/e2exf</text>
<text text-anchor="middle" x="67" y="-264.5" font-family="Helvetica" font-size="10.00">/config.cpp</text>
</a>
</g>
</g>
<!-- Node2 -->
<g id="node2" class="node">
<title>Node2</title>
<g id="a_node2"><a xlink:title=" ">
<polygon fill="white" stroke="#bfbfbf" points="58,-0.5 58,-19.5 110,-19.5 110,-0.5 58,-0.5"/>
<text text-anchor="middle" x="84" y="-7.5" font-family="Helvetica" font-size="10.00">ostream</text>
</a>
</g>
</g>
<!-- Node1&#45;&gt;Node2 -->
<g id="edge1" class="edge">
<title>Node1&#45;&gt;Node2</title>
<path fill="none" stroke="midnightblue" d="M55.43,-257.22C37.46,-214.11 7.79,-124.4 37,-56 42.15,-43.95 52.28,-33.58 61.83,-25.84"/>
<polygon fill="midnightblue" stroke="midnightblue" points="64.04,-28.55 69.92,-19.74 59.83,-22.96 64.04,-28.55"/>
</g>
<!-- Node3 -->
<g id="node3" class="node">
<title>Node3</title>
<g id="a_node3"><a xlink:href="config_8hpp.html" target="_top" xlink:title=" ">
<polygon fill="white" stroke="black" points="97.5,-190.5 97.5,-220.5 222.5,-220.5 222.5,-190.5 97.5,-190.5"/>
<text text-anchor="start" x="105.5" y="-208.5" font-family="Helvetica" font-size="10.00">../../../e2e_protection</text>
<text text-anchor="middle" x="160" y="-197.5" font-family="Helvetica" font-size="10.00">/include/e2exf/config.hpp</text>
</a>
</g>
</g>
<!-- Node1&#45;&gt;Node3 -->
<g id="edge2" class="edge">
<title>Node1&#45;&gt;Node3</title>
<path fill="none" stroke="midnightblue" d="M97.71,-257.4C109.72,-247.59 123.31,-236.48 134.74,-227.14"/>
<polygon fill="midnightblue" stroke="midnightblue" points="137.09,-229.74 142.62,-220.71 132.66,-224.32 137.09,-229.74"/>
</g>
<!-- Node4 -->
<g id="node4" class="node">
<title>Node4</title>
<g id="a_node4"><a xlink:title=" ">
<polygon fill="white" stroke="#bfbfbf" points="46,-62 46,-81 186,-81 186,-62 46,-62"/>
<text text-anchor="middle" x="116" y="-69" font-family="Helvetica" font-size="10.00">vsomeip/primitive_types.hpp</text>
</a>
</g>
</g>
<!-- Node3&#45;&gt;Node4 -->
<g id="edge3" class="edge">
<title>Node3&#45;&gt;Node4</title>
<path fill="none" stroke="midnightblue" d="M151.87,-190.3C146.47,-180.39 139.56,-166.71 135,-154 127.51,-133.11 122.19,-108.13 119.12,-91.38"/>
<polygon fill="midnightblue" stroke="midnightblue" points="122.52,-90.5 117.36,-81.25 115.63,-91.71 122.52,-90.5"/>
</g>
<!-- Node5 -->
<g id="node5" class="node">
<title>Node5</title>
<g id="a_node5"><a xlink:href="profile__interface_2checker_8hpp.html" target="_top" xlink:title=" ">
<polygon fill="white" stroke="black" points="282,-123.5 282,-153.5 398,-153.5 398,-123.5 282,-123.5"/>
<text text-anchor="start" x="290" y="-141.5" font-family="Helvetica" font-size="10.00">../e2e/profile/profile</text>
<text text-anchor="middle" x="340" y="-130.5" font-family="Helvetica" font-size="10.00">_interface/checker.hpp</text>
</a>
</g>
</g>
<!-- Node3&#45;&gt;Node5 -->
<g id="edge4" class="edge">
<title>Node3&#45;&gt;Node5</title>
<path fill="none" stroke="midnightblue" d="M199.06,-190.4C226.18,-180.6 262.51,-167.48 291.5,-157.02"/>
<polygon fill="midnightblue" stroke="midnightblue" points="292.8,-160.26 301.02,-153.58 290.42,-153.68 292.8,-160.26"/>
</g>
<!-- Node12 -->
<g id="node12" class="node">
<title>Node12</title>
<g id="a_node12"><a xlink:href="profile__interface_2protector_8hpp.html" target="_top" xlink:title=" ">
<polygon fill="white" stroke="black" points="144,-123.5 144,-153.5 264,-153.5 264,-123.5 144,-123.5"/>
<text text-anchor="start" x="152" y="-141.5" font-family="Helvetica" font-size="10.00">../e2e/profile/profile</text>
<text text-anchor="middle" x="204" y="-130.5" font-family="Helvetica" font-size="10.00">_interface/protector.hpp</text>
</a>
</g>
</g>
<!-- Node3&#45;&gt;Node12 -->
<g id="edge14" class="edge">
<title>Node3&#45;&gt;Node12</title>
<path fill="none" stroke="midnightblue" d="M169.55,-190.4C175.14,-182.13 182.33,-171.51 188.7,-162.1"/>
<polygon fill="midnightblue" stroke="midnightblue" points="191.76,-163.82 194.47,-153.58 185.97,-159.9 191.76,-163.82"/>
</g>
<!-- Node13 -->
<g id="node13" class="node">
<title>Node13</title>
<g id="a_node13"><a xlink:title=" ">
<polygon fill="white" stroke="#bfbfbf" points="416.5,-129 416.5,-148 469.5,-148 469.5,-129 416.5,-129"/>
<text text-anchor="middle" x="443" y="-136" font-family="Helvetica" font-size="10.00">memory</text>
</a>
</g>
</g>
<!-- Node3&#45;&gt;Node13 -->
<g id="edge18" class="edge">
<title>Node3&#45;&gt;Node13</title>
<path fill="none" stroke="midnightblue" d="M222.7,-194.91C273.09,-186.44 345.39,-172.54 407,-154 409.29,-153.31 411.63,-152.54 413.97,-151.71"/>
<polygon fill="midnightblue" stroke="midnightblue" points="415.31,-154.95 423.42,-148.13 412.83,-148.4 415.31,-154.95"/>
</g>
<!-- Node14 -->
<g id="node14" class="node">
<title>Node14</title>
<g id="a_node14"><a xlink:title=" ">
<polygon fill="white" stroke="#bfbfbf" points="52.5,-129 52.5,-148 87.5,-148 87.5,-129 52.5,-129"/>
<text text-anchor="middle" x="70" y="-136" font-family="Helvetica" font-size="10.00">map</text>
</a>
</g>
</g>
<!-- Node3&#45;&gt;Node14 -->
<g id="edge19" class="edge">
<title>Node3&#45;&gt;Node14</title>
<path fill="none" stroke="midnightblue" d="M140.47,-190.4C125.52,-179.6 104.97,-164.76 89.92,-153.89"/>
<polygon fill="midnightblue" stroke="midnightblue" points="91.93,-151.02 81.78,-148.01 87.84,-156.7 91.93,-151.02"/>
</g>
<!-- Node5&#45;&gt;Node4 -->
<g id="edge6" class="edge">
<title>Node5&#45;&gt;Node4</title>
<path fill="none" stroke="midnightblue" d="M291.67,-123.48C250.82,-111.62 193.05,-94.86 155.07,-83.84"/>
<polygon fill="midnightblue" stroke="midnightblue" points="155.97,-80.45 145.39,-81.03 154.02,-87.18 155.97,-80.45"/>
</g>
<!-- Node6 -->
<g id="node6" class="node">
<title>Node6</title>
<g id="a_node6"><a xlink:title=" ">
<polygon fill="white" stroke="#bfbfbf" points="462,-62 462,-81 506,-81 506,-62 462,-62"/>
<text text-anchor="middle" x="484" y="-69" font-family="Helvetica" font-size="10.00">mutex</text>
</a>
</g>
</g>
<!-- Node5&#45;&gt;Node6 -->
<g id="edge5" class="edge">
<title>Node5&#45;&gt;Node6</title>
<path fill="none" stroke="midnightblue" d="M371.73,-123.5C394.41,-113.44 425.64,-99.51 453,-87 454.15,-86.47 455.33,-85.93 456.52,-85.38"/>
<polygon fill="midnightblue" stroke="midnightblue" points="458.07,-88.52 465.67,-81.14 455.12,-82.17 458.07,-88.52"/>
</g>
<!-- Node7 -->
<g id="node7" class="node">
<title>Node7</title>
<g id="a_node7"><a xlink:href="profile__interface_8hpp.html" target="_top" xlink:title=" ">
<polygon fill="white" stroke="black" points="336,-56.5 336,-86.5 444,-86.5 444,-56.5 336,-56.5"/>
<text text-anchor="start" x="344" y="-74.5" font-family="Helvetica" font-size="10.00">../profile_interface</text>
<text text-anchor="middle" x="390" y="-63.5" font-family="Helvetica" font-size="10.00">/profile_interface.hpp</text>
</a>
</g>
</g>
<!-- Node5&#45;&gt;Node7 -->
<g id="edge7" class="edge">
<title>Node5&#45;&gt;Node7</title>
<path fill="none" stroke="midnightblue" d="M350.85,-123.4C357.34,-114.96 365.72,-104.07 373.06,-94.52"/>
<polygon fill="midnightblue" stroke="midnightblue" points="375.85,-96.64 379.17,-86.58 370.3,-92.37 375.85,-96.64"/>
</g>
<!-- Node9 -->
<g id="node9" class="node">
<title>Node9</title>
<g id="a_node9"><a xlink:href="e2e__protection_2include_2buffer_2buffer_8hpp.html" target="_top" xlink:title=" ">
<polygon fill="white" stroke="black" points="204.5,-62 204.5,-81 317.5,-81 317.5,-62 204.5,-62"/>
<text text-anchor="middle" x="261" y="-69" font-family="Helvetica" font-size="10.00">../../../buffer/buffer.hpp</text>
</a>
</g>
</g>
<!-- Node5&#45;&gt;Node9 -->
<g id="edge9" class="edge">
<title>Node5&#45;&gt;Node9</title>
<path fill="none" stroke="midnightblue" d="M322.86,-123.4C310.05,-112.86 292.57,-98.48 279.46,-87.69"/>
<polygon fill="midnightblue" stroke="midnightblue" points="281.51,-84.85 271.57,-81.19 277.07,-90.25 281.51,-84.85"/>
</g>
<!-- Node8 -->
<g id="node8" class="node">
<title>Node8</title>
<g id="a_node8"><a xlink:title=" ">
<polygon fill="white" stroke="#bfbfbf" points="350,-0.5 350,-19.5 396,-19.5 396,-0.5 350,-0.5"/>
<text text-anchor="middle" x="373" y="-7.5" font-family="Helvetica" font-size="10.00">cstdint</text>
</a>
</g>
</g>
<!-- Node7&#45;&gt;Node8 -->
<g id="edge8" class="edge">
<title>Node7&#45;&gt;Node8</title>
<path fill="none" stroke="midnightblue" d="M385.97,-56.4C383.65,-48.29 380.72,-38.01 378.22,-29.28"/>
<polygon fill="midnightblue" stroke="midnightblue" points="381.59,-28.31 375.47,-19.66 374.86,-30.23 381.59,-28.31"/>
</g>
<!-- Node9&#45;&gt;Node2 -->
<g id="edge12" class="edge">
<title>Node9&#45;&gt;Node2</title>
<path fill="none" stroke="midnightblue" d="M235.64,-61.98C205.02,-51.68 153.34,-34.31 118.95,-22.75"/>
<polygon fill="midnightblue" stroke="midnightblue" points="119.91,-19.38 109.31,-19.51 117.68,-26.01 119.91,-19.38"/>
</g>
<!-- Node9&#45;&gt;Node8 -->
<g id="edge11" class="edge">
<title>Node9&#45;&gt;Node8</title>
<path fill="none" stroke="midnightblue" d="M277.05,-61.98C295.59,-52.12 326.34,-35.79 348.02,-24.27"/>
<polygon fill="midnightblue" stroke="midnightblue" points="349.79,-27.29 356.98,-19.51 346.51,-21.11 349.79,-27.29"/>
</g>
<!-- Node10 -->
<g id="node10" class="node">
<title>Node10</title>
<g id="a_node10"><a xlink:title=" ">
<polygon fill="white" stroke="#bfbfbf" points="178.5,-0.5 178.5,-19.5 237.5,-19.5 237.5,-0.5 178.5,-0.5"/>
<text text-anchor="middle" x="208" y="-7.5" font-family="Helvetica" font-size="10.00">stdexcept</text>
</a>
</g>
</g>
<!-- Node9&#45;&gt;Node10 -->
<g id="edge10" class="edge">
<title>Node9&#45;&gt;Node10</title>
<path fill="none" stroke="midnightblue" d="M253.41,-61.98C245.3,-52.87 232.27,-38.24 222.24,-26.98"/>
<polygon fill="midnightblue" stroke="midnightblue" points="224.84,-24.65 215.58,-19.51 219.62,-29.3 224.84,-24.65"/>
</g>
<!-- Node11 -->
<g id="node11" class="node">
<title>Node11</title>
<g id="a_node11"><a xlink:title=" ">
<polygon fill="white" stroke="#bfbfbf" points="255.5,-0.5 255.5,-19.5 298.5,-19.5 298.5,-0.5 255.5,-0.5"/>
<text text-anchor="middle" x="277" y="-7.5" font-family="Helvetica" font-size="10.00">vector</text>
</a>
</g>
</g>
<!-- Node9&#45;&gt;Node11 -->
<g id="edge13" class="edge">
<title>Node9&#45;&gt;Node11</title>
<path fill="none" stroke="midnightblue" d="M263.29,-61.98C265.57,-53.49 269.15,-40.2 272.07,-29.32"/>
<polygon fill="midnightblue" stroke="midnightblue" points="275.49,-30.07 274.71,-19.51 268.74,-28.26 275.49,-30.07"/>
</g>
<!-- Node12&#45;&gt;Node4 -->
<g id="edge15" class="edge">
<title>Node12&#45;&gt;Node4</title>
<path fill="none" stroke="midnightblue" d="M184.91,-123.4C170.42,-112.7 150.57,-98.03 135.89,-87.19"/>
<polygon fill="midnightblue" stroke="midnightblue" points="137.64,-84.13 127.52,-81.01 133.48,-89.76 137.64,-84.13"/>
</g>
<!-- Node12&#45;&gt;Node7 -->
<g id="edge17" class="edge">
<title>Node12&#45;&gt;Node7</title>
<path fill="none" stroke="midnightblue" d="M244.36,-123.4C272.51,-113.56 310.26,-100.37 340.27,-89.88"/>
<polygon fill="midnightblue" stroke="midnightblue" points="341.43,-93.18 349.72,-86.58 339.12,-86.57 341.43,-93.18"/>
</g>
<!-- Node12&#45;&gt;Node9 -->
<g id="edge16" class="edge">
<title>Node12&#45;&gt;Node9</title>
<path fill="none" stroke="midnightblue" d="M216.37,-123.4C225.26,-113.26 237.26,-99.57 246.59,-88.94"/>
<polygon fill="midnightblue" stroke="midnightblue" points="249.41,-91.02 253.38,-81.19 244.15,-86.41 249.41,-91.02"/>
</g>
</g>
</svg>
