<?xml version="1.0" encoding="UTF-8" standalone="no"?>
<!DOCTYPE svg PUBLIC "-//W3C//DTD SVG 1.1//EN"
 "http://www.w3.org/Graphics/SVG/1.1/DTD/svg11.dtd">
<!-- Generated by graphviz version 2.44.0 (0)
 -->
<!-- Title: /home/ec2&#45;user/workspace/vsomeip/implementation/configuration/include/configuration.hpp Pages: 1 -->
<svg width="2228pt" height="307pt"
 viewBox="0.00 0.00 2227.50 307.00" xmlns="http://www.w3.org/2000/svg" xmlns:xlink="http://www.w3.org/1999/xlink">
<g id="graph0" class="graph" transform="scale(1 1) rotate(0) translate(4 303)">
<title>/home/ec2&#45;user/workspace/vsomeip/implementation/configuration/include/configuration.hpp</title>
<polygon fill="white" stroke="transparent" points="-4,4 -4,-303 2223.5,-303 2223.5,4 -4,4"/>
<!-- Node1 -->
<g id="node1" class="node">
<title>Node1</title>
<g id="a_node1"><a xlink:title=" ">
<polygon fill="#bfbfbf" stroke="black" points="676.5,-257.5 676.5,-298.5 862.5,-298.5 862.5,-257.5 676.5,-257.5"/>
<text text-anchor="start" x="684.5" y="-286.5" font-family="Helvetica" font-size="10.00">/home/ec2&#45;user/workspace</text>
<text text-anchor="start" x="684.5" y="-275.5" font-family="Helvetica" font-size="10.00">/vsomeip/implementation</text>
<text text-anchor="middle" x="769.5" y="-264.5" font-family="Helvetica" font-size="10.00">/configuration/include/configuration.hpp</text>
</a>
</g>
</g>
<!-- Node2 -->
<g id="node2" class="node">
<title>Node2</title>
<g id="a_node2"><a xlink:title=" ">
<polygon fill="white" stroke="#bfbfbf" points="1189,-62 1189,-81 1224,-81 1224,-62 1189,-62"/>
<text text-anchor="middle" x="1206.5" y="-69" font-family="Helvetica" font-size="10.00">map</text>
</a>
</g>
</g>
<!-- Node1&#45;&gt;Node2 -->
<g id="edge1" class="edge">
<title>Node1&#45;&gt;Node2</title>
<path fill="none" stroke="midnightblue" d="M862.76,-276.57C969.54,-274.03 1135.44,-263.15 1179.5,-221 1215.08,-186.96 1212.97,-122.87 1209.34,-91.2"/>
<polygon fill="midnightblue" stroke="midnightblue" points="1212.78,-90.56 1207.99,-81.11 1205.84,-91.48 1212.78,-90.56"/>
</g>
<!-- Node3 -->
<g id="node3" class="node">
<title>Node3</title>
<g id="a_node3"><a xlink:title=" ">
<polygon fill="white" stroke="#bfbfbf" points="811,-129 811,-148 864,-148 864,-129 811,-129"/>
<text text-anchor="middle" x="837.5" y="-136" font-family="Helvetica" font-size="10.00">memory</text>
</a>
</g>
</g>
<!-- Node1&#45;&gt;Node3 -->
<g id="edge2" class="edge">
<title>Node1&#45;&gt;Node3</title>
<path fill="none" stroke="midnightblue" d="M739.66,-257.44C716.7,-239.89 691.42,-213.38 707.5,-190 732.85,-153.14 759.86,-170.36 801.5,-154 803.14,-153.36 804.82,-152.69 806.51,-152.02"/>
<polygon fill="midnightblue" stroke="midnightblue" points="808.22,-155.11 816.2,-148.15 805.62,-148.61 808.22,-155.11"/>
</g>
<!-- Node4 -->
<g id="node4" class="node">
<title>Node4</title>
<g id="a_node4"><a xlink:title=" ">
<polygon fill="white" stroke="#bfbfbf" points="267.5,-196 267.5,-215 297.5,-215 297.5,-196 267.5,-196"/>
<text text-anchor="middle" x="282.5" y="-203" font-family="Helvetica" font-size="10.00">set</text>
</a>
</g>
</g>
<!-- Node1&#45;&gt;Node4 -->
<g id="edge3" class="edge">
<title>Node1&#45;&gt;Node4</title>
<path fill="none" stroke="midnightblue" d="M676.36,-274.88C582.45,-270.61 434.22,-257.98 311.5,-221 309.83,-220.5 308.14,-219.9 306.47,-219.25"/>
<polygon fill="midnightblue" stroke="midnightblue" points="307.7,-215.97 297.15,-215.04 304.82,-222.35 307.7,-215.97"/>
</g>
<!-- Node5 -->
<g id="node5" class="node">
<title>Node5</title>
<g id="a_node5"><a xlink:title=" ">
<polygon fill="white" stroke="#bfbfbf" points="293,-62 293,-81 334,-81 334,-62 293,-62"/>
<text text-anchor="middle" x="313.5" y="-69" font-family="Helvetica" font-size="10.00">string</text>
</a>
</g>
</g>
<!-- Node1&#45;&gt;Node5 -->
<g id="edge4" class="edge">
<title>Node1&#45;&gt;Node5</title>
<path fill="none" stroke="midnightblue" d="M676.34,-273.41C536.53,-267.04 285.83,-251.49 258.5,-221 223.44,-181.89 271.34,-118.45 297.9,-88.78"/>
<polygon fill="midnightblue" stroke="midnightblue" points="300.54,-91.08 304.74,-81.35 295.39,-86.34 300.54,-91.08"/>
</g>
<!-- Node6 -->
<g id="node6" class="node">
<title>Node6</title>
<g id="a_node6"><a xlink:title=" ">
<polygon fill="white" stroke="#bfbfbf" points="1331.5,-62 1331.5,-81 1377.5,-81 1377.5,-62 1331.5,-62"/>
<text text-anchor="middle" x="1354.5" y="-69" font-family="Helvetica" font-size="10.00">chrono</text>
</a>
</g>
</g>
<!-- Node1&#45;&gt;Node6 -->
<g id="edge5" class="edge">
<title>Node1&#45;&gt;Node6</title>
<path fill="none" stroke="midnightblue" d="M862.88,-274.12C952.11,-269.24 1089.52,-256.14 1203.5,-221 1266.37,-201.62 1294.9,-205.77 1335.5,-154 1349.69,-135.91 1353.6,-109.04 1354.51,-91.16"/>
<polygon fill="midnightblue" stroke="midnightblue" points="1358.01,-91.2 1354.76,-81.12 1351.01,-91.03 1358.01,-91.2"/>
</g>
<!-- Node7 -->
<g id="node7" class="node">
<title>Node7</title>
<g id="a_node7"><a xlink:title=" ">
<polygon fill="white" stroke="#bfbfbf" points="493.5,-196 493.5,-215 621.5,-215 621.5,-196 493.5,-196"/>
<text text-anchor="middle" x="557.5" y="-203" font-family="Helvetica" font-size="10.00">boost/asio/ip/address.hpp</text>
</a>
</g>
</g>
<!-- Node1&#45;&gt;Node7 -->
<g id="edge6" class="edge">
<title>Node1&#45;&gt;Node7</title>
<path fill="none" stroke="midnightblue" d="M710.73,-257.46C672.91,-244.88 625.02,-228.95 592.93,-218.28"/>
<polygon fill="midnightblue" stroke="midnightblue" points="593.69,-214.85 583.1,-215.01 591.48,-221.49 593.69,-214.85"/>
</g>
<!-- Node8 -->
<g id="node8" class="node">
<title>Node8</title>
<g id="a_node8"><a xlink:title=" ">
<polygon fill="white" stroke="#bfbfbf" points="1382.5,-123.5 1382.5,-153.5 1470.5,-153.5 1470.5,-123.5 1382.5,-123.5"/>
<text text-anchor="start" x="1390.5" y="-141.5" font-family="Helvetica" font-size="10.00">boost/icl/interval</text>
<text text-anchor="middle" x="1426.5" y="-130.5" font-family="Helvetica" font-size="10.00">_set.hpp</text>
</a>
</g>
</g>
<!-- Node1&#45;&gt;Node8 -->
<g id="edge7" class="edge">
<title>Node1&#45;&gt;Node8</title>
<path fill="none" stroke="midnightblue" d="M862.55,-277.6C1008.88,-277.01 1284.73,-269.27 1368.5,-221 1391.18,-207.93 1407.26,-182 1416.65,-162.88"/>
<polygon fill="midnightblue" stroke="midnightblue" points="1419.92,-164.15 1420.95,-153.61 1413.57,-161.21 1419.92,-164.15"/>
</g>
<!-- Node9 -->
<g id="node9" class="node">
<title>Node9</title>
<g id="a_node9"><a xlink:title=" ">
<polygon fill="white" stroke="#bfbfbf" points="2117.5,-62 2117.5,-81 2219.5,-81 2219.5,-62 2117.5,-62"/>
<text text-anchor="middle" x="2168.5" y="-69" font-family="Helvetica" font-size="10.00">vsomeip/export.hpp</text>
</a>
</g>
</g>
<!-- Node1&#45;&gt;Node9 -->
<g id="edge8" class="edge">
<title>Node1&#45;&gt;Node9</title>
<path fill="none" stroke="midnightblue" d="M862.78,-273.85C1028.77,-267.69 1386.23,-251.84 1686.5,-221 1893.33,-199.76 1996.34,-294.62 2149.5,-154 2166.69,-138.21 2169.79,-110.14 2169.71,-91.42"/>
<polygon fill="midnightblue" stroke="midnightblue" points="2173.2,-91.04 2169.35,-81.17 2166.2,-91.29 2173.2,-91.04"/>
</g>
<!-- Node10 -->
<g id="node10" class="node">
<title>Node10</title>
<g id="a_node10"><a xlink:title=" ">
<polygon fill="white" stroke="#bfbfbf" points="716,-196 716,-215 823,-215 823,-196 716,-196"/>
<text text-anchor="middle" x="769.5" y="-203" font-family="Helvetica" font-size="10.00">vsomeip/defines.hpp</text>
</a>
</g>
</g>
<!-- Node1&#45;&gt;Node10 -->
<g id="edge9" class="edge">
<title>Node1&#45;&gt;Node10</title>
<path fill="none" stroke="midnightblue" d="M769.5,-257.36C769.5,-247.3 769.5,-235.1 769.5,-225.18"/>
<polygon fill="midnightblue" stroke="midnightblue" points="773,-225.17 769.5,-215.17 766,-225.17 773,-225.17"/>
</g>
<!-- Node11 -->
<g id="node11" class="node">
<title>Node11</title>
<g id="a_node11"><a xlink:title=" ">
<polygon fill="white" stroke="#bfbfbf" points="841,-196 841,-215 942,-215 942,-196 841,-196"/>
<text text-anchor="middle" x="891.5" y="-203" font-family="Helvetica" font-size="10.00">vsomeip/plugin.hpp</text>
</a>
</g>
</g>
<!-- Node1&#45;&gt;Node11 -->
<g id="edge10" class="edge">
<title>Node1&#45;&gt;Node11</title>
<path fill="none" stroke="midnightblue" d="M803.48,-257.36C823.9,-245.57 849.37,-230.85 867.65,-220.28"/>
<polygon fill="midnightblue" stroke="midnightblue" points="869.58,-223.21 876.49,-215.17 866.08,-217.15 869.58,-223.21"/>
</g>
<!-- Node12 -->
<g id="node12" class="node">
<title>Node12</title>
<g id="a_node12"><a xlink:title=" ">
<polygon fill="white" stroke="#bfbfbf" points="633.5,-62 633.5,-81 773.5,-81 773.5,-62 633.5,-62"/>
<text text-anchor="middle" x="703.5" y="-69" font-family="Helvetica" font-size="10.00">vsomeip/primitive_types.hpp</text>
</a>
</g>
</g>
<!-- Node1&#45;&gt;Node12 -->
<g id="edge11" class="edge">
<title>Node1&#45;&gt;Node12</title>
<path fill="none" stroke="midnightblue" d="M738.56,-257.31C708.77,-236.11 666.29,-199.25 652.5,-154 648.48,-140.82 647.2,-135.72 652.5,-123 658.54,-108.52 670.97,-96.07 682.05,-87.15"/>
<polygon fill="midnightblue" stroke="midnightblue" points="684.26,-89.87 690.13,-81.05 680.04,-84.28 684.26,-89.87"/>
</g>
<!-- Node13 -->
<g id="node13" class="node">
<title>Node13</title>
<g id="a_node13"><a xlink:href="vsomeip__sec_8h.html" target="_top" xlink:title=" ">
<polygon fill="white" stroke="black" points="353.5,-196 353.5,-215 475.5,-215 475.5,-196 353.5,-196"/>
<text text-anchor="middle" x="414.5" y="-203" font-family="Helvetica" font-size="10.00">vsomeip/vsomeip_sec.h</text>
</a>
</g>
</g>
<!-- Node1&#45;&gt;Node13 -->
<g id="edge12" class="edge">
<title>Node1&#45;&gt;Node13</title>
<path fill="none" stroke="midnightblue" d="M676.39,-258.95C620.69,-248.1 548.51,-233.92 484.5,-221 478.27,-219.74 471.74,-218.41 465.27,-217.08"/>
<polygon fill="midnightblue" stroke="midnightblue" points="465.7,-213.6 455.2,-215 464.29,-220.45 465.7,-213.6"/>
</g>
<!-- Node16 -->
<g id="node16" class="node">
<title>Node16</title>
<g id="a_node16"><a xlink:href="implementation_2configuration_2include_2trace_8hpp.html" target="_top" xlink:title=" ">
<polygon fill="white" stroke="black" points="159,-129 159,-148 216,-148 216,-129 159,-129"/>
<text text-anchor="middle" x="187.5" y="-136" font-family="Helvetica" font-size="10.00">trace.hpp</text>
</a>
</g>
</g>
<!-- Node1&#45;&gt;Node16 -->
<g id="edge15" class="edge">
<title>Node1&#45;&gt;Node16</title>
<path fill="none" stroke="midnightblue" d="M676.32,-272.39C530.53,-264.44 261.35,-246.51 225.5,-221 204.77,-206.24 195.03,-177.24 190.69,-158.11"/>
<polygon fill="midnightblue" stroke="midnightblue" points="194.1,-157.3 188.72,-148.17 187.23,-158.66 194.1,-157.3"/>
</g>
<!-- Node20 -->
<g id="node20" class="node">
<title>Node20</title>
<g id="a_node20"><a xlink:href="config_8hpp.html" target="_top" xlink:title=" ">
<polygon fill="white" stroke="black" points="960,-190.5 960,-220.5 1085,-220.5 1085,-190.5 960,-190.5"/>
<text text-anchor="start" x="968" y="-208.5" font-family="Helvetica" font-size="10.00">../../e2e_protection</text>
<text text-anchor="middle" x="1022.5" y="-197.5" font-family="Helvetica" font-size="10.00">/include/e2exf/config.hpp</text>
</a>
</g>
</g>
<!-- Node1&#45;&gt;Node20 -->
<g id="edge21" class="edge">
<title>Node1&#45;&gt;Node20</title>
<path fill="none" stroke="midnightblue" d="M839.64,-257.46C878,-246.77 925.06,-233.65 961.83,-223.41"/>
<polygon fill="midnightblue" stroke="midnightblue" points="963.22,-226.65 971.91,-220.6 961.34,-219.91 963.22,-226.65"/>
</g>
<!-- Node29 -->
<g id="node29" class="node">
<title>Node29</title>
<g id="a_node29"><a xlink:href="e2e_8hpp.html" target="_top" xlink:title=" ">
<polygon fill="white" stroke="black" points="321,-129 321,-148 372,-148 372,-129 321,-129"/>
<text text-anchor="middle" x="346.5" y="-136" font-family="Helvetica" font-size="10.00">e2e.hpp</text>
</a>
</g>
</g>
<!-- Node1&#45;&gt;Node29 -->
<g id="edge39" class="edge">
<title>Node1&#45;&gt;Node29</title>
<path fill="none" stroke="midnightblue" d="M676.5,-271.17C558.05,-262.78 366.04,-245.57 344.5,-221 329.52,-203.92 334.11,-176.22 339.62,-157.93"/>
<polygon fill="midnightblue" stroke="midnightblue" points="342.95,-159 342.83,-148.4 336.32,-156.76 342.95,-159"/>
</g>
<!-- Node30 -->
<g id="node30" class="node">
<title>Node30</title>
<g id="a_node30"><a xlink:href="internal_8hpp.html" target="_top" xlink:title=" ">
<polygon fill="white" stroke="black" points="1103,-196 1103,-215 1170,-215 1170,-196 1103,-196"/>
<text text-anchor="middle" x="1136.5" y="-203" font-family="Helvetica" font-size="10.00">internal.hpp</text>
</a>
</g>
</g>
<!-- Node1&#45;&gt;Node30 -->
<g id="edge44" class="edge">
<title>Node1&#45;&gt;Node30</title>
<path fill="none" stroke="midnightblue" d="M862.8,-265.01C928.23,-255.61 1017.42,-240.81 1094.5,-221 1097.71,-220.17 1101.03,-219.22 1104.33,-218.2"/>
<polygon fill="midnightblue" stroke="midnightblue" points="1105.63,-221.45 1114.04,-215.01 1103.44,-214.8 1105.63,-221.45"/>
</g>
<!-- Node33 -->
<g id="node33" class="node">
<title>Node33</title>
<g id="a_node33"><a xlink:href="policy_8hpp.html" target="_top" xlink:title=" ">
<polygon fill="white" stroke="black" points="1574,-190.5 1574,-220.5 1677,-220.5 1677,-190.5 1574,-190.5"/>
<text text-anchor="start" x="1582" y="-208.5" font-family="Helvetica" font-size="10.00">../../security/include</text>
<text text-anchor="middle" x="1625.5" y="-197.5" font-family="Helvetica" font-size="10.00">/policy.hpp</text>
</a>
</g>
</g>
<!-- Node1&#45;&gt;Node33 -->
<g id="edge52" class="edge">
<title>Node1&#45;&gt;Node33</title>
<path fill="none" stroke="midnightblue" d="M862.74,-269.32C1038.66,-254.83 1415.22,-223.82 1563.58,-211.6"/>
<polygon fill="midnightblue" stroke="midnightblue" points="1564.19,-215.06 1573.87,-210.75 1563.61,-208.09 1564.19,-215.06"/>
</g>
<!-- Node14 -->
<g id="node14" class="node">
<title>Node14</title>
<g id="a_node14"><a xlink:title=" ">
<polygon fill="white" stroke="#bfbfbf" points="390.5,-129 390.5,-148 438.5,-148 438.5,-129 390.5,-129"/>
<text text-anchor="middle" x="414.5" y="-136" font-family="Helvetica" font-size="10.00">stdint.h</text>
</a>
</g>
</g>
<!-- Node13&#45;&gt;Node14 -->
<g id="edge13" class="edge">
<title>Node13&#45;&gt;Node14</title>
<path fill="none" stroke="midnightblue" d="M414.5,-195.73C414.5,-186.18 414.5,-170.62 414.5,-158.28"/>
<polygon fill="midnightblue" stroke="midnightblue" points="418,-158.13 414.5,-148.13 411,-158.13 418,-158.13"/>
</g>
<!-- Node15 -->
<g id="node15" class="node">
<title>Node15</title>
<g id="a_node15"><a xlink:title=" ">
<polygon fill="white" stroke="#bfbfbf" points="456.5,-129 456.5,-148 522.5,-148 522.5,-129 456.5,-129"/>
<text text-anchor="middle" x="489.5" y="-136" font-family="Helvetica" font-size="10.00">sys/types.h</text>
</a>
</g>
</g>
<!-- Node13&#45;&gt;Node15 -->
<g id="edge14" class="edge">
<title>Node13&#45;&gt;Node15</title>
<path fill="none" stroke="midnightblue" d="M424.61,-195.73C436.65,-185.31 456.95,-167.71 471.65,-154.97"/>
<polygon fill="midnightblue" stroke="midnightblue" points="474.28,-157.32 479.55,-148.13 469.7,-152.03 474.28,-157.32"/>
</g>
<!-- Node16&#45;&gt;Node5 -->
<g id="edge16" class="edge">
<title>Node16&#45;&gt;Node5</title>
<path fill="none" stroke="midnightblue" d="M204.23,-128.87C225.6,-117.84 262.8,-98.66 287.78,-85.77"/>
<polygon fill="midnightblue" stroke="midnightblue" points="289.42,-88.86 296.7,-81.17 286.21,-82.64 289.42,-88.86"/>
</g>
<!-- Node16&#45;&gt;Node12 -->
<g id="edge18" class="edge">
<title>Node16&#45;&gt;Node12</title>
<path fill="none" stroke="midnightblue" d="M216.35,-133.87C293.99,-124.09 509.39,-96.95 626.05,-82.26"/>
<polygon fill="midnightblue" stroke="midnightblue" points="626.51,-85.73 635.99,-81 625.63,-78.78 626.51,-85.73"/>
</g>
<!-- Node17 -->
<g id="node17" class="node">
<title>Node17</title>
<g id="a_node17"><a xlink:title=" ">
<polygon fill="white" stroke="#bfbfbf" points="625,-0.5 625,-19.5 668,-19.5 668,-0.5 625,-0.5"/>
<text text-anchor="middle" x="646.5" y="-7.5" font-family="Helvetica" font-size="10.00">vector</text>
</a>
</g>
</g>
<!-- Node16&#45;&gt;Node17 -->
<g id="edge17" class="edge">
<title>Node16&#45;&gt;Node17</title>
<path fill="none" stroke="midnightblue" d="M197.49,-128.75C221.03,-108.17 278.42,-58.23 283.5,-56 342.78,-29.98 537.93,-16.86 614.89,-12.6"/>
<polygon fill="midnightblue" stroke="midnightblue" points="615.14,-16.09 624.94,-12.06 614.77,-9.1 615.14,-16.09"/>
</g>
<!-- Node18 -->
<g id="node18" class="node">
<title>Node18</title>
<g id="a_node18"><a xlink:title=" ">
<polygon fill="white" stroke="#bfbfbf" points="139,-62 139,-81 236,-81 236,-62 139,-62"/>
<text text-anchor="middle" x="187.5" y="-69" font-family="Helvetica" font-size="10.00">vsomeip/trace.hpp</text>
</a>
</g>
</g>
<!-- Node16&#45;&gt;Node18 -->
<g id="edge19" class="edge">
<title>Node16&#45;&gt;Node18</title>
<path fill="none" stroke="midnightblue" d="M187.5,-128.73C187.5,-119.18 187.5,-103.62 187.5,-91.28"/>
<polygon fill="midnightblue" stroke="midnightblue" points="191,-91.13 187.5,-81.13 184,-91.13 191,-91.13"/>
</g>
<!-- Node19 -->
<g id="node19" class="node">
<title>Node19</title>
<g id="a_node19"><a xlink:href="implementation_2tracing_2include_2enumeration__types_8hpp.html" target="_top" xlink:title=" ">
<polygon fill="white" stroke="black" points="0,-56.5 0,-86.5 121,-86.5 121,-56.5 0,-56.5"/>
<text text-anchor="start" x="8" y="-74.5" font-family="Helvetica" font-size="10.00">../../tracing/include</text>
<text text-anchor="middle" x="60.5" y="-63.5" font-family="Helvetica" font-size="10.00">/enumeration_types.hpp</text>
</a>
</g>
</g>
<!-- Node16&#45;&gt;Node19 -->
<g id="edge20" class="edge">
<title>Node16&#45;&gt;Node19</title>
<path fill="none" stroke="midnightblue" d="M170.64,-128.87C151.97,-119.31 121.32,-103.63 97.09,-91.22"/>
<polygon fill="midnightblue" stroke="midnightblue" points="98.65,-88.09 88.15,-86.65 95.46,-94.32 98.65,-88.09"/>
</g>
<!-- Node20&#45;&gt;Node2 -->
<g id="edge38" class="edge">
<title>Node20&#45;&gt;Node2</title>
<path fill="none" stroke="midnightblue" d="M1029.96,-190.26C1039.97,-172.36 1059.33,-141.72 1083.5,-123 1112.34,-100.67 1152.44,-86.66 1178.91,-79.21"/>
<polygon fill="midnightblue" stroke="midnightblue" points="1179.93,-82.57 1188.68,-76.59 1178.11,-75.81 1179.93,-82.57"/>
</g>
<!-- Node20&#45;&gt;Node3 -->
<g id="edge37" class="edge">
<title>Node20&#45;&gt;Node3</title>
<path fill="none" stroke="midnightblue" d="M982.45,-190.49C953.55,-180.37 913.61,-166.36 878.5,-154 876.13,-153.17 873.69,-152.3 871.23,-151.44"/>
<polygon fill="midnightblue" stroke="midnightblue" points="872.37,-148.13 861.78,-148.1 870.04,-154.73 872.37,-148.13"/>
</g>
<!-- Node20&#45;&gt;Node12 -->
<g id="edge22" class="edge">
<title>Node20&#45;&gt;Node12</title>
<path fill="none" stroke="midnightblue" d="M959.83,-191.43C957.02,-190.93 954.23,-190.45 951.5,-190 887.86,-179.54 706.18,-202.35 663.5,-154 646.22,-134.43 668.05,-106.07 685.61,-88.48"/>
<polygon fill="midnightblue" stroke="midnightblue" points="688.39,-90.66 693.22,-81.23 683.57,-85.59 688.39,-90.66"/>
</g>
<!-- Node21 -->
<g id="node21" class="node">
<title>Node21</title>
<g id="a_node21"><a xlink:href="profile__interface_2checker_8hpp.html" target="_top" xlink:title=" ">
<polygon fill="white" stroke="black" points="920.5,-123.5 920.5,-153.5 1036.5,-153.5 1036.5,-123.5 920.5,-123.5"/>
<text text-anchor="start" x="928.5" y="-141.5" font-family="Helvetica" font-size="10.00">../e2e/profile/profile</text>
<text text-anchor="middle" x="978.5" y="-130.5" font-family="Helvetica" font-size="10.00">_interface/checker.hpp</text>
</a>
</g>
</g>
<!-- Node20&#45;&gt;Node21 -->
<g id="edge23" class="edge">
<title>Node20&#45;&gt;Node21</title>
<path fill="none" stroke="midnightblue" d="M1012.95,-190.4C1007.36,-182.13 1000.17,-171.51 993.8,-162.1"/>
<polygon fill="midnightblue" stroke="midnightblue" points="996.53,-159.9 988.03,-153.58 990.74,-163.82 996.53,-159.9"/>
</g>
<!-- Node28 -->
<g id="node28" class="node">
<title>Node28</title>
<g id="a_node28"><a xlink:href="profile__interface_2protector_8hpp.html" target="_top" xlink:title=" ">
<polygon fill="white" stroke="black" points="672.5,-123.5 672.5,-153.5 792.5,-153.5 792.5,-123.5 672.5,-123.5"/>
<text text-anchor="start" x="680.5" y="-141.5" font-family="Helvetica" font-size="10.00">../e2e/profile/profile</text>
<text text-anchor="middle" x="732.5" y="-130.5" font-family="Helvetica" font-size="10.00">_interface/protector.hpp</text>
</a>
</g>
</g>
<!-- Node20&#45;&gt;Node28 -->
<g id="edge33" class="edge">
<title>Node20&#45;&gt;Node28</title>
<path fill="none" stroke="midnightblue" d="M959.93,-190.48C913.76,-180.13 850.9,-166.04 802.96,-155.29"/>
<polygon fill="midnightblue" stroke="midnightblue" points="803.49,-151.83 792.97,-153.05 801.96,-158.66 803.49,-151.83"/>
</g>
<!-- Node21&#45;&gt;Node12 -->
<g id="edge25" class="edge">
<title>Node21&#45;&gt;Node12</title>
<path fill="none" stroke="midnightblue" d="M920.18,-123.72C869.36,-111.7 796.64,-94.52 749.75,-83.43"/>
<polygon fill="midnightblue" stroke="midnightblue" points="750.4,-79.99 739.86,-81.09 748.78,-86.8 750.4,-79.99"/>
</g>
<!-- Node22 -->
<g id="node22" class="node">
<title>Node22</title>
<g id="a_node22"><a xlink:title=" ">
<polygon fill="white" stroke="#bfbfbf" points="1831.5,-62 1831.5,-81 1875.5,-81 1875.5,-62 1831.5,-62"/>
<text text-anchor="middle" x="1853.5" y="-69" font-family="Helvetica" font-size="10.00">mutex</text>
</a>
</g>
</g>
<!-- Node21&#45;&gt;Node22 -->
<g id="edge24" class="edge">
<title>Node21&#45;&gt;Node22</title>
<path fill="none" stroke="midnightblue" d="M1036.73,-128.7C1051.93,-126.61 1068.3,-124.55 1083.5,-123 1368.91,-93.97 1715.63,-78.17 1821.37,-73.78"/>
<polygon fill="midnightblue" stroke="midnightblue" points="1821.55,-77.28 1831.4,-73.37 1821.27,-70.28 1821.55,-77.28"/>
</g>
<!-- Node23 -->
<g id="node23" class="node">
<title>Node23</title>
<g id="a_node23"><a xlink:href="profile__interface_8hpp.html" target="_top" xlink:title=" ">
<polygon fill="white" stroke="black" points="953.5,-56.5 953.5,-86.5 1061.5,-86.5 1061.5,-56.5 953.5,-56.5"/>
<text text-anchor="start" x="961.5" y="-74.5" font-family="Helvetica" font-size="10.00">../profile_interface</text>
<text text-anchor="middle" x="1007.5" y="-63.5" font-family="Helvetica" font-size="10.00">/profile_interface.hpp</text>
</a>
</g>
</g>
<!-- Node21&#45;&gt;Node23 -->
<g id="edge26" class="edge">
<title>Node21&#45;&gt;Node23</title>
<path fill="none" stroke="midnightblue" d="M984.79,-123.4C988.36,-115.39 992.93,-105.16 997.03,-95.98"/>
<polygon fill="midnightblue" stroke="midnightblue" points="1000.34,-97.13 1001.22,-86.58 993.95,-94.28 1000.34,-97.13"/>
</g>
<!-- Node25 -->
<g id="node25" class="node">
<title>Node25</title>
<g id="a_node25"><a xlink:href="e2e__protection_2include_2buffer_2buffer_8hpp.html" target="_top" xlink:title=" ">
<polygon fill="white" stroke="black" points="822,-62 822,-81 935,-81 935,-62 822,-62"/>
<text text-anchor="middle" x="878.5" y="-69" font-family="Helvetica" font-size="10.00">../../../buffer/buffer.hpp</text>
</a>
</g>
</g>
<!-- Node21&#45;&gt;Node25 -->
<g id="edge28" class="edge">
<title>Node21&#45;&gt;Node25</title>
<path fill="none" stroke="midnightblue" d="M956.8,-123.4C940.03,-112.5 916.93,-97.48 900.17,-86.58"/>
<polygon fill="midnightblue" stroke="midnightblue" points="901.88,-83.52 891.59,-81.01 898.06,-89.39 901.88,-83.52"/>
</g>
<!-- Node24 -->
<g id="node24" class="node">
<title>Node24</title>
<g id="a_node24"><a xlink:title=" ">
<polygon fill="white" stroke="#bfbfbf" points="1075.5,-0.5 1075.5,-19.5 1121.5,-19.5 1121.5,-0.5 1075.5,-0.5"/>
<text text-anchor="middle" x="1098.5" y="-7.5" font-family="Helvetica" font-size="10.00">cstdint</text>
</a>
</g>
</g>
<!-- Node23&#45;&gt;Node24 -->
<g id="edge27" class="edge">
<title>Node23&#45;&gt;Node24</title>
<path fill="none" stroke="midnightblue" d="M1029.07,-56.4C1043.38,-47.04 1062.11,-34.79 1076.51,-25.38"/>
<polygon fill="midnightblue" stroke="midnightblue" points="1078.8,-28.06 1085.26,-19.66 1074.97,-22.2 1078.8,-28.06"/>
</g>
<!-- Node25&#45;&gt;Node17 -->
<g id="edge32" class="edge">
<title>Node25&#45;&gt;Node17</title>
<path fill="none" stroke="midnightblue" d="M845.26,-61.98C800.6,-50.52 721.8,-30.31 678.03,-19.09"/>
<polygon fill="midnightblue" stroke="midnightblue" points="678.77,-15.66 668.22,-16.57 677.03,-22.44 678.77,-15.66"/>
</g>
<!-- Node25&#45;&gt;Node24 -->
<g id="edge30" class="edge">
<title>Node25&#45;&gt;Node24</title>
<path fill="none" stroke="midnightblue" d="M910.02,-61.98C951.4,-50.78 1023.7,-31.23 1065.7,-19.87"/>
<polygon fill="midnightblue" stroke="midnightblue" points="1066.7,-23.23 1075.44,-17.24 1064.87,-16.47 1066.7,-23.23"/>
</g>
<!-- Node26 -->
<g id="node26" class="node">
<title>Node26</title>
<g id="a_node26"><a xlink:title=" ">
<polygon fill="white" stroke="#bfbfbf" points="849,-0.5 849,-19.5 908,-19.5 908,-0.5 849,-0.5"/>
<text text-anchor="middle" x="878.5" y="-7.5" font-family="Helvetica" font-size="10.00">stdexcept</text>
</a>
</g>
</g>
<!-- Node25&#45;&gt;Node26 -->
<g id="edge29" class="edge">
<title>Node25&#45;&gt;Node26</title>
<path fill="none" stroke="midnightblue" d="M878.5,-61.98C878.5,-53.58 878.5,-40.48 878.5,-29.66"/>
<polygon fill="midnightblue" stroke="midnightblue" points="882,-29.51 878.5,-19.51 875,-29.51 882,-29.51"/>
</g>
<!-- Node27 -->
<g id="node27" class="node">
<title>Node27</title>
<g id="a_node27"><a xlink:title=" ">
<polygon fill="white" stroke="#bfbfbf" points="1626.5,-0.5 1626.5,-19.5 1678.5,-19.5 1678.5,-0.5 1626.5,-0.5"/>
<text text-anchor="middle" x="1652.5" y="-7.5" font-family="Helvetica" font-size="10.00">ostream</text>
</a>
</g>
</g>
<!-- Node25&#45;&gt;Node27 -->
<g id="edge31" class="edge">
<title>Node25&#45;&gt;Node27</title>
<path fill="none" stroke="midnightblue" d="M912.58,-61.97C922.78,-59.7 934.04,-57.47 944.5,-56 1200.08,-20.02 1511.64,-12.79 1616.28,-11.35"/>
<polygon fill="midnightblue" stroke="midnightblue" points="1616.36,-14.85 1626.32,-11.22 1616.27,-7.85 1616.36,-14.85"/>
</g>
<!-- Node28&#45;&gt;Node12 -->
<g id="edge34" class="edge">
<title>Node28&#45;&gt;Node12</title>
<path fill="none" stroke="midnightblue" d="M726.21,-123.4C721.91,-113.76 716.18,-100.91 711.55,-90.54"/>
<polygon fill="midnightblue" stroke="midnightblue" points="714.65,-88.9 707.38,-81.19 708.26,-91.75 714.65,-88.9"/>
</g>
<!-- Node28&#45;&gt;Node23 -->
<g id="edge36" class="edge">
<title>Node28&#45;&gt;Node23</title>
<path fill="none" stroke="midnightblue" d="M791.83,-123.48C836.55,-112.91 897.79,-98.43 943.59,-87.61"/>
<polygon fill="midnightblue" stroke="midnightblue" points="944.48,-90.99 953.4,-85.29 942.87,-84.18 944.48,-90.99"/>
</g>
<!-- Node28&#45;&gt;Node25 -->
<g id="edge35" class="edge">
<title>Node28&#45;&gt;Node25</title>
<path fill="none" stroke="midnightblue" d="M764.18,-123.4C789.8,-111.99 825.54,-96.08 850.2,-85.1"/>
<polygon fill="midnightblue" stroke="midnightblue" points="851.68,-88.27 859.39,-81.01 848.83,-81.88 851.68,-88.27"/>
</g>
<!-- Node29&#45;&gt;Node2 -->
<g id="edge40" class="edge">
<title>Node29&#45;&gt;Node2</title>
<path fill="none" stroke="midnightblue" d="M363.92,-128.92C369.42,-126.58 375.6,-124.34 381.5,-123 680.58,-55.34 764.82,-111.26 1070.5,-87 1108.11,-84.01 1151.43,-79.15 1178.88,-75.89"/>
<polygon fill="midnightblue" stroke="midnightblue" points="1179.41,-79.35 1188.92,-74.68 1178.58,-72.4 1179.41,-79.35"/>
</g>
<!-- Node29&#45;&gt;Node5 -->
<g id="edge41" class="edge">
<title>Node29&#45;&gt;Node5</title>
<path fill="none" stroke="midnightblue" d="M342.05,-128.73C337.05,-118.89 328.81,-102.66 322.47,-90.16"/>
<polygon fill="midnightblue" stroke="midnightblue" points="325.53,-88.46 317.88,-81.13 319.29,-91.63 325.53,-88.46"/>
</g>
<!-- Node29&#45;&gt;Node12 -->
<g id="edge43" class="edge">
<title>Node29&#45;&gt;Node12</title>
<path fill="none" stroke="midnightblue" d="M364.74,-128.99C370.05,-126.77 375.93,-124.57 381.5,-123 462.16,-100.31 557.24,-86.98 623.08,-79.76"/>
<polygon fill="midnightblue" stroke="midnightblue" points="623.82,-83.2 633.39,-78.66 623.07,-76.24 623.82,-83.2"/>
</g>
<!-- Node29&#45;&gt;Node17 -->
<g id="edge42" class="edge">
<title>Node29&#45;&gt;Node17</title>
<path fill="none" stroke="midnightblue" d="M367.12,-128.81C419.16,-106.86 555.99,-49.17 616.72,-23.56"/>
<polygon fill="midnightblue" stroke="midnightblue" points="618.28,-26.7 626.13,-19.59 615.56,-20.25 618.28,-26.7"/>
</g>
<!-- Node30&#45;&gt;Node3 -->
<g id="edge47" class="edge">
<title>Node30&#45;&gt;Node3</title>
<path fill="none" stroke="midnightblue" d="M1114.04,-195.97C1107.78,-193.81 1100.93,-191.63 1094.5,-190 1000.17,-166.04 972.74,-178.32 878.5,-154 875.45,-153.21 872.31,-152.3 869.19,-151.32"/>
<polygon fill="midnightblue" stroke="midnightblue" points="870,-147.9 859.41,-148.04 867.78,-154.54 870,-147.9"/>
</g>
<!-- Node30&#45;&gt;Node12 -->
<g id="edge48" class="edge">
<title>Node30&#45;&gt;Node12</title>
<path fill="none" stroke="midnightblue" d="M1113.57,-195.94C1107.43,-193.83 1100.76,-191.69 1094.5,-190 1014.47,-168.42 986.52,-189.25 911.5,-154 891.77,-144.73 892.77,-133.19 873.5,-123 837.71,-104.07 793.82,-91.26 759.61,-83.28"/>
<polygon fill="midnightblue" stroke="midnightblue" points="760.3,-79.85 749.77,-81.06 758.76,-86.68 760.3,-79.85"/>
</g>
<!-- Node30&#45;&gt;Node24 -->
<g id="edge45" class="edge">
<title>Node30&#45;&gt;Node24</title>
<path fill="none" stroke="midnightblue" d="M1137.61,-195.94C1138.84,-185.91 1140.77,-168.78 1141.5,-154 1142.18,-140.24 1144.01,-136.55 1141.5,-123 1135.04,-88.17 1118.19,-50.19 1107.6,-28.61"/>
<polygon fill="midnightblue" stroke="midnightblue" points="1110.73,-27.04 1103.11,-19.68 1104.47,-30.18 1110.73,-27.04"/>
</g>
<!-- Node31 -->
<g id="node31" class="node">
<title>Node31</title>
<g id="a_node31"><a xlink:title=" ">
<polygon fill="white" stroke="#bfbfbf" points="1092.5,-129 1092.5,-148 1132.5,-148 1132.5,-129 1092.5,-129"/>
<text text-anchor="middle" x="1112.5" y="-136" font-family="Helvetica" font-size="10.00">limits</text>
</a>
</g>
</g>
<!-- Node30&#45;&gt;Node31 -->
<g id="edge46" class="edge">
<title>Node30&#45;&gt;Node31</title>
<path fill="none" stroke="midnightblue" d="M1133.26,-195.73C1129.66,-185.99 1123.75,-169.98 1119.16,-157.53"/>
<polygon fill="midnightblue" stroke="midnightblue" points="1122.43,-156.3 1115.69,-148.13 1115.87,-158.72 1122.43,-156.3"/>
</g>
<!-- Node32 -->
<g id="node32" class="node">
<title>Node32</title>
<g id="a_node32"><a xlink:href="structured__types_8hpp.html" target="_top" xlink:title=" ">
<polygon fill="white" stroke="black" points="1226.5,-123.5 1226.5,-153.5 1326.5,-153.5 1326.5,-123.5 1226.5,-123.5"/>
<text text-anchor="start" x="1234.5" y="-141.5" font-family="Helvetica" font-size="10.00">vsomeip/structured</text>
<text text-anchor="middle" x="1276.5" y="-130.5" font-family="Helvetica" font-size="10.00">_types.hpp</text>
</a>
</g>
</g>
<!-- Node30&#45;&gt;Node32 -->
<g id="edge49" class="edge">
<title>Node30&#45;&gt;Node32</title>
<path fill="none" stroke="midnightblue" d="M1155.09,-195.87C1175.92,-186.2 1210.27,-170.25 1237.13,-157.78"/>
<polygon fill="midnightblue" stroke="midnightblue" points="1238.69,-160.91 1246.29,-153.53 1235.74,-154.56 1238.69,-160.91"/>
</g>
<!-- Node32&#45;&gt;Node2 -->
<g id="edge51" class="edge">
<title>Node32&#45;&gt;Node2</title>
<path fill="none" stroke="midnightblue" d="M1261.31,-123.4C1250.18,-113.06 1235.06,-99.02 1223.53,-88.31"/>
<polygon fill="midnightblue" stroke="midnightblue" points="1225.57,-85.43 1215.86,-81.19 1220.81,-90.56 1225.57,-85.43"/>
</g>
<!-- Node32&#45;&gt;Node6 -->
<g id="edge50" class="edge">
<title>Node32&#45;&gt;Node6</title>
<path fill="none" stroke="midnightblue" d="M1293.42,-123.4C1306.07,-112.86 1323.33,-98.48 1336.27,-87.69"/>
<polygon fill="midnightblue" stroke="midnightblue" points="1338.62,-90.29 1344.07,-81.19 1334.14,-84.91 1338.62,-90.29"/>
</g>
<!-- Node33&#45;&gt;Node2 -->
<g id="edge54" class="edge">
<title>Node33&#45;&gt;Node2</title>
<path fill="none" stroke="midnightblue" d="M1606.63,-190.16C1577.24,-167.95 1522.83,-127.3 1512.5,-123 1486.91,-112.35 1304.48,-86.16 1234.1,-76.32"/>
<polygon fill="midnightblue" stroke="midnightblue" points="1234.57,-72.85 1224.19,-74.94 1233.61,-79.78 1234.57,-72.85"/>
</g>
<!-- Node33&#45;&gt;Node8 -->
<g id="edge59" class="edge">
<title>Node33&#45;&gt;Node8</title>
<path fill="none" stroke="midnightblue" d="M1582.32,-190.4C1552.07,-180.52 1511.47,-167.25 1479.29,-156.74"/>
<polygon fill="midnightblue" stroke="midnightblue" points="1480.19,-153.35 1469.6,-153.58 1478.01,-160.01 1480.19,-153.35"/>
</g>
<!-- Node33&#45;&gt;Node12 -->
<g id="edge61" class="edge">
<title>Node33&#45;&gt;Node12</title>
<path fill="none" stroke="midnightblue" d="M1585.64,-190.47C1563.21,-181.67 1535.22,-169.12 1512.5,-154 1495.75,-142.85 1498,-130.91 1479.5,-123 1343.22,-64.73 961.08,-100.7 813.5,-87 799.92,-85.74 785.43,-84.07 771.58,-82.31"/>
<polygon fill="midnightblue" stroke="midnightblue" points="772,-78.83 761.64,-81.01 771.1,-85.77 772,-78.83"/>
</g>
<!-- Node33&#45;&gt;Node17 -->
<g id="edge57" class="edge">
<title>Node33&#45;&gt;Node17</title>
<path fill="none" stroke="midnightblue" d="M1615.03,-190.39C1601.24,-172.64 1575.45,-142.16 1547.5,-123 1483.57,-79.18 1462.01,-73.48 1386.5,-56 1351.55,-47.91 816.16,-19.78 678.55,-12.65"/>
<polygon fill="midnightblue" stroke="midnightblue" points="678.43,-9.14 668.26,-12.12 678.07,-16.13 678.43,-9.14"/>
</g>
<!-- Node33&#45;&gt;Node22 -->
<g id="edge55" class="edge">
<title>Node33&#45;&gt;Node22</title>
<path fill="none" stroke="midnightblue" d="M1677.11,-204.48C1761.2,-203.23 1921.97,-195.34 1957.5,-154 1966.48,-143.55 1964.81,-134.68 1957.5,-123 1956.38,-121.21 1911.55,-99.84 1881.12,-85.48"/>
<polygon fill="midnightblue" stroke="midnightblue" points="1882.36,-82.19 1871.82,-81.1 1879.38,-88.52 1882.36,-82.19"/>
</g>
<!-- Node34 -->
<g id="node34" class="node">
<title>Node34</title>
<g id="a_node34"><a xlink:title=" ">
<polygon fill="white" stroke="#bfbfbf" points="1602.5,-129 1602.5,-148 1648.5,-148 1648.5,-129 1602.5,-129"/>
<text text-anchor="middle" x="1625.5" y="-136" font-family="Helvetica" font-size="10.00">cstring</text>
</a>
</g>
</g>
<!-- Node33&#45;&gt;Node34 -->
<g id="edge53" class="edge">
<title>Node33&#45;&gt;Node34</title>
<path fill="none" stroke="midnightblue" d="M1625.5,-190.4C1625.5,-181.06 1625.5,-168.71 1625.5,-158.52"/>
<polygon fill="midnightblue" stroke="midnightblue" points="1629,-158.19 1625.5,-148.19 1622,-158.19 1629,-158.19"/>
</g>
<!-- Node35 -->
<g id="node35" class="node">
<title>Node35</title>
<g id="a_node35"><a xlink:title=" ">
<polygon fill="white" stroke="#bfbfbf" points="1666.5,-129 1666.5,-148 1706.5,-148 1706.5,-129 1666.5,-129"/>
<text text-anchor="middle" x="1686.5" y="-136" font-family="Helvetica" font-size="10.00">utility</text>
</a>
</g>
</g>
<!-- Node33&#45;&gt;Node35 -->
<g id="edge56" class="edge">
<title>Node33&#45;&gt;Node35</title>
<path fill="none" stroke="midnightblue" d="M1638.74,-190.4C1648.34,-180.16 1661.35,-166.3 1671.37,-155.62"/>
<polygon fill="midnightblue" stroke="midnightblue" points="1674.05,-157.88 1678.34,-148.19 1668.95,-153.09 1674.05,-157.88"/>
</g>
<!-- Node36 -->
<g id="node36" class="node">
<title>Node36</title>
<g id="a_node36"><a xlink:title=" ">
<polygon fill="white" stroke="#bfbfbf" points="1724.5,-123.5 1724.5,-153.5 1812.5,-153.5 1812.5,-123.5 1724.5,-123.5"/>
<text text-anchor="start" x="1732.5" y="-141.5" font-family="Helvetica" font-size="10.00">boost/icl/interval</text>
<text text-anchor="middle" x="1768.5" y="-130.5" font-family="Helvetica" font-size="10.00">_map.hpp</text>
</a>
</g>
</g>
<!-- Node33&#45;&gt;Node36 -->
<g id="edge58" class="edge">
<title>Node33&#45;&gt;Node36</title>
<path fill="none" stroke="midnightblue" d="M1656.53,-190.4C1677.52,-180.86 1705.44,-168.16 1728.15,-157.84"/>
<polygon fill="midnightblue" stroke="midnightblue" points="1729.88,-160.9 1737.53,-153.58 1726.98,-154.53 1729.88,-160.9"/>
</g>
<!-- Node37 -->
<g id="node37" class="node">
<title>Node37</title>
<g id="a_node37"><a xlink:title=" ">
<polygon fill="white" stroke="#bfbfbf" points="1830.5,-129 1830.5,-148 1948.5,-148 1948.5,-129 1830.5,-129"/>
<text text-anchor="middle" x="1889.5" y="-136" font-family="Helvetica" font-size="10.00">vsomeip/constants.hpp</text>
</a>
</g>
</g>
<!-- Node33&#45;&gt;Node37 -->
<g id="edge60" class="edge">
<title>Node33&#45;&gt;Node37</title>
<path fill="none" stroke="midnightblue" d="M1677.03,-191.81C1725.96,-179.77 1798.74,-161.85 1845.15,-150.42"/>
<polygon fill="midnightblue" stroke="midnightblue" points="1846.05,-153.8 1854.92,-148.01 1844.37,-147.01 1846.05,-153.8"/>
</g>
<!-- Node38 -->
<g id="node38" class="node">
<title>Node38</title>
<g id="a_node38"><a xlink:href="logger_8hpp.html" target="_top" xlink:title=" ">
<polygon fill="white" stroke="black" points="2004.5,-129 2004.5,-148 2140.5,-148 2140.5,-129 2004.5,-129"/>
<text text-anchor="middle" x="2072.5" y="-136" font-family="Helvetica" font-size="10.00">vsomeip/internal/logger.hpp</text>
</a>
</g>
</g>
<!-- Node33&#45;&gt;Node38 -->
<g id="edge62" class="edge">
<title>Node33&#45;&gt;Node38</title>
<path fill="none" stroke="midnightblue" d="M1677.27,-197.96C1748.1,-188.87 1879.12,-171.55 1990.5,-154 1998.81,-152.69 2007.59,-151.23 2016.18,-149.75"/>
<polygon fill="midnightblue" stroke="midnightblue" points="2016.9,-153.17 2026.15,-148.01 2015.7,-146.28 2016.9,-153.17"/>
</g>
<!-- Node38&#45;&gt;Node6 -->
<g id="edge63" class="edge">
<title>Node38&#45;&gt;Node6</title>
<path fill="none" stroke="midnightblue" d="M2008.69,-128.97C1992.04,-126.88 1974.11,-124.74 1957.5,-123 1740.42,-100.23 1478.5,-81.16 1387.52,-74.78"/>
<polygon fill="midnightblue" stroke="midnightblue" points="1387.75,-71.29 1377.54,-74.08 1387.27,-78.27 1387.75,-71.29"/>
</g>
<!-- Node38&#45;&gt;Node9 -->
<g id="edge69" class="edge">
<title>Node38&#45;&gt;Node9</title>
<path fill="none" stroke="midnightblue" d="M2085.45,-128.73C2101.35,-117.96 2128.55,-99.55 2147.47,-86.74"/>
<polygon fill="midnightblue" stroke="midnightblue" points="2149.44,-89.63 2155.76,-81.13 2145.52,-83.84 2149.44,-89.63"/>
</g>
<!-- Node38&#45;&gt;Node22 -->
<g id="edge65" class="edge">
<title>Node38&#45;&gt;Node22</title>
<path fill="none" stroke="midnightblue" d="M2032.63,-128.93C1994.14,-120.16 1934.5,-105.25 1884.5,-87 1882.89,-86.41 1881.25,-85.77 1879.6,-85.1"/>
<polygon fill="midnightblue" stroke="midnightblue" points="1880.89,-81.84 1870.33,-81.02 1878.07,-88.25 1880.89,-81.84"/>
</g>
<!-- Node38&#45;&gt;Node24 -->
<g id="edge64" class="edge">
<title>Node38&#45;&gt;Node24</title>
<path fill="none" stroke="midnightblue" d="M2057.79,-128.91C2041.9,-119.39 2016.09,-103.23 1995.5,-87 1979.69,-74.55 1981.01,-63.89 1962.5,-56 1885.16,-23.02 1282.21,-13.31 1132.2,-11.39"/>
<polygon fill="midnightblue" stroke="midnightblue" points="1131.85,-7.89 1121.81,-11.26 1131.77,-14.88 1131.85,-7.89"/>
</g>
<!-- Node38&#45;&gt;Node27 -->
<g id="edge66" class="edge">
<title>Node38&#45;&gt;Node27</title>
<path fill="none" stroke="midnightblue" d="M2067.23,-128.76C2056.29,-111.51 2029.31,-73.26 1995.5,-56 1942.43,-28.9 1765.58,-16.78 1688.7,-12.69"/>
<polygon fill="midnightblue" stroke="midnightblue" points="1688.71,-9.19 1678.54,-12.17 1688.35,-16.18 1688.71,-9.19"/>
</g>
<!-- Node39 -->
<g id="node39" class="node">
<title>Node39</title>
<g id="a_node39"><a xlink:title=" ">
<polygon fill="white" stroke="#bfbfbf" points="2047.5,-62 2047.5,-81 2099.5,-81 2099.5,-62 2047.5,-62"/>
<text text-anchor="middle" x="2073.5" y="-69" font-family="Helvetica" font-size="10.00">sstream</text>
</a>
</g>
</g>
<!-- Node38&#45;&gt;Node39 -->
<g id="edge67" class="edge">
<title>Node38&#45;&gt;Node39</title>
<path fill="none" stroke="midnightblue" d="M2072.63,-128.73C2072.78,-119.18 2073.02,-103.62 2073.21,-91.28"/>
<polygon fill="midnightblue" stroke="midnightblue" points="2076.71,-91.18 2073.37,-81.13 2069.71,-91.07 2076.71,-91.18"/>
</g>
<!-- Node40 -->
<g id="node40" class="node">
<title>Node40</title>
<g id="a_node40"><a xlink:title=" ">
<polygon fill="white" stroke="#bfbfbf" points="1893.5,-62 1893.5,-81 1953.5,-81 1953.5,-62 1893.5,-62"/>
<text text-anchor="middle" x="1923.5" y="-69" font-family="Helvetica" font-size="10.00">streambuf</text>
</a>
</g>
</g>
<!-- Node38&#45;&gt;Node40 -->
<g id="edge68" class="edge">
<title>Node38&#45;&gt;Node40</title>
<path fill="none" stroke="midnightblue" d="M2052.71,-128.87C2027.11,-117.7 1982.29,-98.15 1952.75,-85.26"/>
<polygon fill="midnightblue" stroke="midnightblue" points="1953.93,-81.96 1943.37,-81.17 1951.13,-88.37 1953.93,-81.96"/>
</g>
</g>
</svg>
