<?xml version="1.0" encoding="UTF-8" standalone="no"?>
<!DOCTYPE svg PUBLIC "-//W3C//DTD SVG 1.1//EN"
 "http://www.w3.org/Graphics/SVG/1.1/DTD/svg11.dtd">
<!-- Generated by graphviz version 2.44.0 (0)
 -->
<!-- Title: /home/ec2&#45;user/workspace/vsomeip/implementation/service_discovery/include/configuration_option_impl.hpp Pages: 1 -->
<svg width="491pt" height="229pt"
 viewBox="0.00 0.00 490.50 229.00" xmlns="http://www.w3.org/2000/svg" xmlns:xlink="http://www.w3.org/1999/xlink">
<g id="graph0" class="graph" transform="scale(1 1) rotate(0) translate(4 225)">
<title>/home/ec2&#45;user/workspace/vsomeip/implementation/service_discovery/include/configuration_option_impl.hpp</title>
<polygon fill="white" stroke="transparent" points="-4,4 -4,-225 486.5,-225 486.5,4 -4,4"/>
<!-- Node1 -->
<g id="node1" class="node">
<title>Node1</title>
<g id="a_node1"><a xlink:title=" ">
<polygon fill="#bfbfbf" stroke="black" points="29,-168.5 29,-220.5 178,-220.5 178,-168.5 29,-168.5"/>
<text text-anchor="start" x="37" y="-208.5" font-family="Helvetica" font-size="10.00">/home/ec2&#45;user/workspace</text>
<text text-anchor="start" x="37" y="-197.5" font-family="Helvetica" font-size="10.00">/vsomeip/implementation</text>
<text text-anchor="start" x="37" y="-186.5" font-family="Helvetica" font-size="10.00">/service_discovery/include</text>
<text text-anchor="middle" x="103.5" y="-175.5" font-family="Helvetica" font-size="10.00">/configuration_option_impl.hpp</text>
</a>
</g>
</g>
<!-- Node2 -->
<g id="node2" class="node">
<title>Node2</title>
<g id="a_node2"><a xlink:title=" ">
<polygon fill="white" stroke="#bfbfbf" points="0,-112.5 0,-131.5 35,-131.5 35,-112.5 0,-112.5"/>
<text text-anchor="middle" x="17.5" y="-119.5" font-family="Helvetica" font-size="10.00">map</text>
</a>
</g>
</g>
<!-- Node1&#45;&gt;Node2 -->
<g id="edge1" class="edge">
<title>Node1&#45;&gt;Node2</title>
<path fill="none" stroke="midnightblue" d="M72.94,-168.45C60.59,-158.33 46.76,-146.98 35.99,-138.16"/>
<polygon fill="midnightblue" stroke="midnightblue" points="38.06,-135.33 28.11,-131.7 33.62,-140.74 38.06,-135.33"/>
</g>
<!-- Node3 -->
<g id="node3" class="node">
<title>Node3</title>
<g id="a_node3"><a xlink:title=" ">
<polygon fill="white" stroke="#bfbfbf" points="53,-112.5 53,-131.5 94,-131.5 94,-112.5 53,-112.5"/>
<text text-anchor="middle" x="73.5" y="-119.5" font-family="Helvetica" font-size="10.00">string</text>
</a>
</g>
</g>
<!-- Node1&#45;&gt;Node3 -->
<g id="edge2" class="edge">
<title>Node1&#45;&gt;Node3</title>
<path fill="none" stroke="midnightblue" d="M92.84,-168.45C89,-159.43 84.75,-149.44 81.21,-141.13"/>
<polygon fill="midnightblue" stroke="midnightblue" points="84.34,-139.53 77.2,-131.7 77.9,-142.27 84.34,-139.53"/>
</g>
<!-- Node4 -->
<g id="node4" class="node">
<title>Node4</title>
<g id="a_node4"><a xlink:title=" ">
<polygon fill="white" stroke="#bfbfbf" points="112,-112.5 112,-131.5 155,-131.5 155,-112.5 112,-112.5"/>
<text text-anchor="middle" x="133.5" y="-119.5" font-family="Helvetica" font-size="10.00">vector</text>
</a>
</g>
</g>
<!-- Node1&#45;&gt;Node4 -->
<g id="edge3" class="edge">
<title>Node1&#45;&gt;Node4</title>
<path fill="none" stroke="midnightblue" d="M114.16,-168.45C118,-159.43 122.25,-149.44 125.79,-141.13"/>
<polygon fill="midnightblue" stroke="midnightblue" points="129.1,-142.27 129.8,-131.7 122.66,-139.53 129.1,-142.27"/>
</g>
<!-- Node5 -->
<g id="node5" class="node">
<title>Node5</title>
<g id="a_node5"><a xlink:href="option__impl_8hpp.html" target="_top" xlink:title=" ">
<polygon fill="white" stroke="black" points="173,-112.5 173,-131.5 258,-131.5 258,-112.5 173,-112.5"/>
<text text-anchor="middle" x="215.5" y="-119.5" font-family="Helvetica" font-size="10.00">option_impl.hpp</text>
</a>
</g>
</g>
<!-- Node1&#45;&gt;Node5 -->
<g id="edge4" class="edge">
<title>Node1&#45;&gt;Node5</title>
<path fill="none" stroke="midnightblue" d="M143.3,-168.45C160.12,-157.86 179.06,-145.94 193.33,-136.96"/>
<polygon fill="midnightblue" stroke="midnightblue" points="195.36,-139.82 201.95,-131.53 191.63,-133.89 195.36,-139.82"/>
</g>
<!-- Node6 -->
<g id="node6" class="node">
<title>Node6</title>
<g id="a_node6"><a xlink:title=" ">
<polygon fill="white" stroke="#bfbfbf" points="164.5,-0.5 164.5,-19.5 210.5,-19.5 210.5,-0.5 164.5,-0.5"/>
<text text-anchor="middle" x="187.5" y="-7.5" font-family="Helvetica" font-size="10.00">cstdint</text>
</a>
</g>
</g>
<!-- Node5&#45;&gt;Node6 -->
<g id="edge5" class="edge">
<title>Node5&#45;&gt;Node6</title>
<path fill="none" stroke="midnightblue" d="M179.65,-112.4C160.62,-105.81 138.87,-94.59 127.5,-76 115.23,-55.94 139.1,-36.62 160.27,-24.34"/>
<polygon fill="midnightblue" stroke="midnightblue" points="161.98,-27.39 169.07,-19.52 158.62,-21.25 161.98,-27.39"/>
</g>
<!-- Node7 -->
<g id="node7" class="node">
<title>Node7</title>
<g id="a_node7"><a xlink:title=" ">
<polygon fill="white" stroke="#bfbfbf" points="137,-56.5 137,-75.5 190,-75.5 190,-56.5 137,-56.5"/>
<text text-anchor="middle" x="163.5" y="-63.5" font-family="Helvetica" font-size="10.00">memory</text>
</a>
</g>
</g>
<!-- Node5&#45;&gt;Node7 -->
<g id="edge6" class="edge">
<title>Node5&#45;&gt;Node7</title>
<path fill="none" stroke="midnightblue" d="M206.91,-112.08C199.34,-104.22 188.12,-92.57 178.99,-83.08"/>
<polygon fill="midnightblue" stroke="midnightblue" points="181.38,-80.53 171.93,-75.75 176.34,-85.38 181.38,-80.53"/>
</g>
<!-- Node8 -->
<g id="node8" class="node">
<title>Node8</title>
<g id="a_node8"><a xlink:href="implementation_2service__discovery_2include_2enumeration__types_8hpp.html" target="_top" xlink:title=" ">
<polygon fill="white" stroke="black" points="208.5,-56.5 208.5,-75.5 326.5,-75.5 326.5,-56.5 208.5,-56.5"/>
<text text-anchor="middle" x="267.5" y="-63.5" font-family="Helvetica" font-size="10.00">enumeration_types.hpp</text>
</a>
</g>
</g>
<!-- Node5&#45;&gt;Node8 -->
<g id="edge7" class="edge">
<title>Node5&#45;&gt;Node8</title>
<path fill="none" stroke="midnightblue" d="M224.09,-112.08C231.66,-104.22 242.88,-92.57 252.01,-83.08"/>
<polygon fill="midnightblue" stroke="midnightblue" points="254.66,-85.38 259.07,-75.75 249.62,-80.53 254.66,-85.38"/>
</g>
<!-- Node9 -->
<g id="node9" class="node">
<title>Node9</title>
<g id="a_node9"><a xlink:href="message__element__impl_8hpp.html" target="_top" xlink:title=" ">
<polygon fill="white" stroke="black" points="344.5,-56.5 344.5,-75.5 482.5,-75.5 482.5,-56.5 344.5,-56.5"/>
<text text-anchor="middle" x="413.5" y="-63.5" font-family="Helvetica" font-size="10.00">message_element_impl.hpp</text>
</a>
</g>
</g>
<!-- Node5&#45;&gt;Node9 -->
<g id="edge9" class="edge">
<title>Node5&#45;&gt;Node9</title>
<path fill="none" stroke="midnightblue" d="M246.87,-112.44C280.76,-103.2 334.9,-88.44 372.22,-78.26"/>
<polygon fill="midnightblue" stroke="midnightblue" points="373.55,-81.52 382.27,-75.52 371.7,-74.77 373.55,-81.52"/>
</g>
<!-- Node8&#45;&gt;Node6 -->
<g id="edge8" class="edge">
<title>Node8&#45;&gt;Node6</title>
<path fill="none" stroke="midnightblue" d="M254.65,-56.32C242.28,-47.98 223.37,-35.21 208.76,-25.35"/>
<polygon fill="midnightblue" stroke="midnightblue" points="210.57,-22.35 200.32,-19.65 206.65,-28.15 210.57,-22.35"/>
</g>
</g>
</svg>
