<?xml version="1.0" encoding="UTF-8" standalone="no"?>
<!DOCTYPE svg PUBLIC "-//W3C//DTD SVG 1.1//EN"
 "http://www.w3.org/Graphics/SVG/1.1/DTD/svg11.dtd">
<!-- Generated by graphviz version 2.44.0 (0)
 -->
<!-- Title: /home/ec2&#45;user/workspace/vsomeip/implementation/e2e_protection/include/e2exf/config.hpp Pages: 1 -->
<svg width="515pt" height="251pt"
 viewBox="0.00 0.00 514.50 251.00" xmlns="http://www.w3.org/2000/svg" xmlns:xlink="http://www.w3.org/1999/xlink">
<g id="graph0" class="graph" transform="scale(1 1) rotate(0) translate(4 247)">
<title>/home/ec2&#45;user/workspace/vsomeip/implementation/e2e_protection/include/e2exf/config.hpp</title>
<polygon fill="white" stroke="transparent" points="-4,4 -4,-247 510.5,-247 510.5,4 -4,4"/>
<!-- Node1 -->
<g id="node1" class="node">
<title>Node1</title>
<g id="a_node1"><a xlink:title=" ">
<polygon fill="#bfbfbf" stroke="black" points="243,-190.5 243,-242.5 377,-242.5 377,-190.5 243,-190.5"/>
<text text-anchor="start" x="251" y="-230.5" font-family="Helvetica" font-size="10.00">/home/ec2&#45;user/workspace</text>
<text text-anchor="start" x="251" y="-219.5" font-family="Helvetica" font-size="10.00">/vsomeip/implementation</text>
<text text-anchor="start" x="251" y="-208.5" font-family="Helvetica" font-size="10.00">/e2e_protection/include</text>
<text text-anchor="middle" x="310" y="-197.5" font-family="Helvetica" font-size="10.00">/e2exf/config.hpp</text>
</a>
</g>
</g>
<!-- Node2 -->
<g id="node2" class="node">
<title>Node2</title>
<g id="a_node2"><a xlink:title=" ">
<polygon fill="white" stroke="#bfbfbf" points="0,-62 0,-81 140,-81 140,-62 0,-62"/>
<text text-anchor="middle" x="70" y="-69" font-family="Helvetica" font-size="10.00">vsomeip/primitive_types.hpp</text>
</a>
</g>
</g>
<!-- Node1&#45;&gt;Node2 -->
<g id="edge1" class="edge">
<title>Node1&#45;&gt;Node2</title>
<path fill="none" stroke="midnightblue" d="M242.84,-209.38C199.61,-202.29 144.67,-187 107,-154 88.13,-137.47 78.35,-109.39 73.69,-90.89"/>
<polygon fill="midnightblue" stroke="midnightblue" points="77.08,-90.01 71.47,-81.03 70.26,-91.56 77.08,-90.01"/>
</g>
<!-- Node3 -->
<g id="node3" class="node">
<title>Node3</title>
<g id="a_node3"><a xlink:href="profile__interface_2checker_8hpp.html" target="_top" xlink:title=" ">
<polygon fill="white" stroke="black" points="116,-123.5 116,-153.5 232,-153.5 232,-123.5 116,-123.5"/>
<text text-anchor="start" x="124" y="-141.5" font-family="Helvetica" font-size="10.00">../e2e/profile/profile</text>
<text text-anchor="middle" x="174" y="-130.5" font-family="Helvetica" font-size="10.00">_interface/checker.hpp</text>
</a>
</g>
</g>
<!-- Node1&#45;&gt;Node3 -->
<g id="edge2" class="edge">
<title>Node1&#45;&gt;Node3</title>
<path fill="none" stroke="midnightblue" d="M265.09,-190.4C246.68,-180.12 225.71,-168.4 208.53,-158.8"/>
<polygon fill="midnightblue" stroke="midnightblue" points="209.86,-155.53 199.42,-153.71 206.44,-161.64 209.86,-155.53"/>
</g>
<!-- Node11 -->
<g id="node11" class="node">
<title>Node11</title>
<g id="a_node11"><a xlink:href="profile__interface_2protector_8hpp.html" target="_top" xlink:title=" ">
<polygon fill="white" stroke="black" points="250,-123.5 250,-153.5 370,-153.5 370,-123.5 250,-123.5"/>
<text text-anchor="start" x="258" y="-141.5" font-family="Helvetica" font-size="10.00">../e2e/profile/profile</text>
<text text-anchor="middle" x="310" y="-130.5" font-family="Helvetica" font-size="10.00">_interface/protector.hpp</text>
</a>
</g>
</g>
<!-- Node1&#45;&gt;Node11 -->
<g id="edge12" class="edge">
<title>Node1&#45;&gt;Node11</title>
<path fill="none" stroke="midnightblue" d="M310,-190.19C310,-181.79 310,-172.44 310,-164.09"/>
<polygon fill="midnightblue" stroke="midnightblue" points="313.5,-163.85 310,-153.85 306.5,-163.85 313.5,-163.85"/>
</g>
<!-- Node12 -->
<g id="node12" class="node">
<title>Node12</title>
<g id="a_node12"><a xlink:title=" ">
<polygon fill="white" stroke="#bfbfbf" points="388.5,-129 388.5,-148 441.5,-148 441.5,-129 388.5,-129"/>
<text text-anchor="middle" x="415" y="-136" font-family="Helvetica" font-size="10.00">memory</text>
</a>
</g>
</g>
<!-- Node1&#45;&gt;Node12 -->
<g id="edge16" class="edge">
<title>Node1&#45;&gt;Node12</title>
<path fill="none" stroke="midnightblue" d="M344.67,-190.4C361.14,-178.49 380.26,-164.65 394.4,-154.41"/>
<polygon fill="midnightblue" stroke="midnightblue" points="396.85,-156.96 402.9,-148.26 392.74,-151.29 396.85,-156.96"/>
</g>
<!-- Node13 -->
<g id="node13" class="node">
<title>Node13</title>
<g id="a_node13"><a xlink:title=" ">
<polygon fill="white" stroke="#bfbfbf" points="459.5,-129 459.5,-148 494.5,-148 494.5,-129 459.5,-129"/>
<text text-anchor="middle" x="477" y="-136" font-family="Helvetica" font-size="10.00">map</text>
</a>
</g>
</g>
<!-- Node1&#45;&gt;Node13 -->
<g id="edge17" class="edge">
<title>Node1&#45;&gt;Node13</title>
<path fill="none" stroke="midnightblue" d="M370.97,-190.44C396.02,-179.75 425.16,-166.81 451,-154 451.81,-153.6 452.63,-153.18 453.46,-152.76"/>
<polygon fill="midnightblue" stroke="midnightblue" points="455.12,-155.84 462.28,-148.03 451.82,-149.67 455.12,-155.84"/>
</g>
<!-- Node3&#45;&gt;Node2 -->
<g id="edge4" class="edge">
<title>Node3&#45;&gt;Node2</title>
<path fill="none" stroke="midnightblue" d="M151.43,-123.4C133.99,-112.5 109.97,-97.48 92.53,-86.58"/>
<polygon fill="midnightblue" stroke="midnightblue" points="93.95,-83.34 83.61,-81.01 90.24,-89.28 93.95,-83.34"/>
</g>
<!-- Node4 -->
<g id="node4" class="node">
<title>Node4</title>
<g id="a_node4"><a xlink:title=" ">
<polygon fill="white" stroke="#bfbfbf" points="158,-62 158,-81 202,-81 202,-62 158,-62"/>
<text text-anchor="middle" x="180" y="-69" font-family="Helvetica" font-size="10.00">mutex</text>
</a>
</g>
</g>
<!-- Node3&#45;&gt;Node4 -->
<g id="edge3" class="edge">
<title>Node3&#45;&gt;Node4</title>
<path fill="none" stroke="midnightblue" d="M175.3,-123.4C176.17,-113.96 177.33,-101.45 178.27,-91.19"/>
<polygon fill="midnightblue" stroke="midnightblue" points="181.76,-91.47 179.2,-81.19 174.79,-90.83 181.76,-91.47"/>
</g>
<!-- Node5 -->
<g id="node5" class="node">
<title>Node5</title>
<g id="a_node5"><a xlink:href="profile__interface_8hpp.html" target="_top" xlink:title=" ">
<polygon fill="white" stroke="black" points="220,-56.5 220,-86.5 328,-86.5 328,-56.5 220,-56.5"/>
<text text-anchor="start" x="228" y="-74.5" font-family="Helvetica" font-size="10.00">../profile_interface</text>
<text text-anchor="middle" x="274" y="-63.5" font-family="Helvetica" font-size="10.00">/profile_interface.hpp</text>
</a>
</g>
</g>
<!-- Node3&#45;&gt;Node5 -->
<g id="edge5" class="edge">
<title>Node3&#45;&gt;Node5</title>
<path fill="none" stroke="midnightblue" d="M195.7,-123.4C209.72,-114.28 228.17,-102.29 243.64,-92.24"/>
<polygon fill="midnightblue" stroke="midnightblue" points="245.87,-94.96 252.34,-86.58 242.05,-89.09 245.87,-94.96"/>
</g>
<!-- Node7 -->
<g id="node7" class="node">
<title>Node7</title>
<g id="a_node7"><a xlink:href="e2e__protection_2include_2buffer_2buffer_8hpp.html" target="_top" xlink:title=" ">
<polygon fill="white" stroke="black" points="346.5,-62 346.5,-81 459.5,-81 459.5,-62 346.5,-62"/>
<text text-anchor="middle" x="403" y="-69" font-family="Helvetica" font-size="10.00">../../../buffer/buffer.hpp</text>
</a>
</g>
</g>
<!-- Node3&#45;&gt;Node7 -->
<g id="edge7" class="edge">
<title>Node3&#45;&gt;Node7</title>
<path fill="none" stroke="midnightblue" d="M223.41,-123.48C265.17,-111.62 324.23,-94.86 363.06,-83.84"/>
<polygon fill="midnightblue" stroke="midnightblue" points="364.29,-87.13 372.95,-81.03 362.38,-80.39 364.29,-87.13"/>
</g>
<!-- Node6 -->
<g id="node6" class="node">
<title>Node6</title>
<g id="a_node6"><a xlink:title=" ">
<polygon fill="white" stroke="#bfbfbf" points="251,-0.5 251,-19.5 297,-19.5 297,-0.5 251,-0.5"/>
<text text-anchor="middle" x="274" y="-7.5" font-family="Helvetica" font-size="10.00">cstdint</text>
</a>
</g>
</g>
<!-- Node5&#45;&gt;Node6 -->
<g id="edge6" class="edge">
<title>Node5&#45;&gt;Node6</title>
<path fill="none" stroke="midnightblue" d="M274,-56.4C274,-48.47 274,-38.46 274,-29.86"/>
<polygon fill="midnightblue" stroke="midnightblue" points="277.5,-29.66 274,-19.66 270.5,-29.66 277.5,-29.66"/>
</g>
<!-- Node7&#45;&gt;Node6 -->
<g id="edge9" class="edge">
<title>Node7&#45;&gt;Node6</title>
<path fill="none" stroke="midnightblue" d="M384.52,-61.98C362.87,-51.99 326.79,-35.35 301.77,-23.81"/>
<polygon fill="midnightblue" stroke="midnightblue" points="302.99,-20.52 292.45,-19.51 300.06,-26.88 302.99,-20.52"/>
</g>
<!-- Node8 -->
<g id="node8" class="node">
<title>Node8</title>
<g id="a_node8"><a xlink:title=" ">
<polygon fill="white" stroke="#bfbfbf" points="315.5,-0.5 315.5,-19.5 374.5,-19.5 374.5,-0.5 315.5,-0.5"/>
<text text-anchor="middle" x="345" y="-7.5" font-family="Helvetica" font-size="10.00">stdexcept</text>
</a>
</g>
</g>
<!-- Node7&#45;&gt;Node8 -->
<g id="edge8" class="edge">
<title>Node7&#45;&gt;Node8</title>
<path fill="none" stroke="midnightblue" d="M394.69,-61.98C385.82,-52.87 371.55,-38.24 360.58,-26.98"/>
<polygon fill="midnightblue" stroke="midnightblue" points="362.78,-24.23 353.29,-19.51 357.77,-29.11 362.78,-24.23"/>
</g>
<!-- Node9 -->
<g id="node9" class="node">
<title>Node9</title>
<g id="a_node9"><a xlink:title=" ">
<polygon fill="white" stroke="#bfbfbf" points="393,-0.5 393,-19.5 445,-19.5 445,-0.5 393,-0.5"/>
<text text-anchor="middle" x="419" y="-7.5" font-family="Helvetica" font-size="10.00">ostream</text>
</a>
</g>
</g>
<!-- Node7&#45;&gt;Node9 -->
<g id="edge10" class="edge">
<title>Node7&#45;&gt;Node9</title>
<path fill="none" stroke="midnightblue" d="M405.29,-61.98C407.57,-53.49 411.15,-40.2 414.07,-29.32"/>
<polygon fill="midnightblue" stroke="midnightblue" points="417.49,-30.07 416.71,-19.51 410.74,-28.26 417.49,-30.07"/>
</g>
<!-- Node10 -->
<g id="node10" class="node">
<title>Node10</title>
<g id="a_node10"><a xlink:title=" ">
<polygon fill="white" stroke="#bfbfbf" points="463.5,-0.5 463.5,-19.5 506.5,-19.5 506.5,-0.5 463.5,-0.5"/>
<text text-anchor="middle" x="485" y="-7.5" font-family="Helvetica" font-size="10.00">vector</text>
</a>
</g>
</g>
<!-- Node7&#45;&gt;Node10 -->
<g id="edge11" class="edge">
<title>Node7&#45;&gt;Node10</title>
<path fill="none" stroke="midnightblue" d="M414.75,-61.98C427.78,-52.52 449.04,-37.1 464.76,-25.69"/>
<polygon fill="midnightblue" stroke="midnightblue" points="467.23,-28.21 473.27,-19.51 463.12,-22.55 467.23,-28.21"/>
</g>
<!-- Node11&#45;&gt;Node2 -->
<g id="edge13" class="edge">
<title>Node11&#45;&gt;Node2</title>
<path fill="none" stroke="midnightblue" d="M258.22,-123.48C214.27,-111.57 152.03,-94.72 111.34,-83.7"/>
<polygon fill="midnightblue" stroke="midnightblue" points="112.06,-80.26 101.49,-81.03 110.23,-87.02 112.06,-80.26"/>
</g>
<!-- Node11&#45;&gt;Node5 -->
<g id="edge15" class="edge">
<title>Node11&#45;&gt;Node5</title>
<path fill="none" stroke="midnightblue" d="M302.19,-123.4C297.66,-115.22 291.85,-104.73 286.68,-95.39"/>
<polygon fill="midnightblue" stroke="midnightblue" points="289.7,-93.63 281.8,-86.58 283.58,-97.02 289.7,-93.63"/>
</g>
<!-- Node11&#45;&gt;Node7 -->
<g id="edge14" class="edge">
<title>Node11&#45;&gt;Node7</title>
<path fill="none" stroke="midnightblue" d="M330.18,-123.4C345.63,-112.6 366.86,-97.76 382.42,-86.89"/>
<polygon fill="midnightblue" stroke="midnightblue" points="384.64,-89.6 390.83,-81.01 380.63,-83.87 384.64,-89.6"/>
</g>
</g>
</svg>
