<?xml version="1.0" encoding="UTF-8" standalone="no"?>
<!DOCTYPE svg PUBLIC "-//W3C//DTD SVG 1.1//EN"
 "http://www.w3.org/Graphics/SVG/1.1/DTD/svg11.dtd">
<!-- Generated by graphviz version 2.44.0 (0)
 -->
<!-- Title: /home/ec2&#45;user/workspace/vsomeip/implementation/tracing/include/connector_impl.hpp Pages: 1 -->
<svg width="986pt" height="195pt"
 viewBox="0.00 0.00 986.00 195.00" xmlns="http://www.w3.org/2000/svg" xmlns:xlink="http://www.w3.org/1999/xlink">
<g id="graph0" class="graph" transform="scale(1 1) rotate(0) translate(4 191)">
<title>/home/ec2&#45;user/workspace/vsomeip/implementation/tracing/include/connector_impl.hpp</title>
<polygon fill="white" stroke="transparent" points="-4,4 -4,-191 982,-191 982,4 -4,4"/>
<!-- Node1 -->
<g id="node1" class="node">
<title>Node1</title>
<g id="a_node1"><a xlink:title=" ">
<polygon fill="#bfbfbf" stroke="black" points="299,-134.5 299,-186.5 433,-186.5 433,-134.5 299,-134.5"/>
<text text-anchor="start" x="307" y="-174.5" font-family="Helvetica" font-size="10.00">/home/ec2&#45;user/workspace</text>
<text text-anchor="start" x="307" y="-163.5" font-family="Helvetica" font-size="10.00">/vsomeip/implementation</text>
<text text-anchor="start" x="307" y="-152.5" font-family="Helvetica" font-size="10.00">/tracing/include/connector</text>
<text text-anchor="middle" x="366" y="-141.5" font-family="Helvetica" font-size="10.00">_impl.hpp</text>
</a>
</g>
</g>
<!-- Node2 -->
<g id="node2" class="node">
<title>Node2</title>
<g id="a_node2"><a xlink:title=" ">
<polygon fill="white" stroke="#bfbfbf" points="0,-73 0,-92 44,-92 44,-73 0,-73"/>
<text text-anchor="middle" x="22" y="-80" font-family="Helvetica" font-size="10.00">mutex</text>
</a>
</g>
</g>
<!-- Node1&#45;&gt;Node2 -->
<g id="edge1" class="edge">
<title>Node1&#45;&gt;Node2</title>
<path fill="none" stroke="midnightblue" d="M298.86,-151.14C234.65,-142.01 135.65,-125 53,-98 51.33,-97.45 49.63,-96.84 47.94,-96.18"/>
<polygon fill="midnightblue" stroke="midnightblue" points="49,-92.83 38.43,-92.09 46.23,-99.26 49,-92.83"/>
</g>
<!-- Node3 -->
<g id="node3" class="node">
<title>Node3</title>
<g id="a_node3"><a xlink:title=" ">
<polygon fill="white" stroke="#bfbfbf" points="62.5,-73 62.5,-92 105.5,-92 105.5,-73 62.5,-73"/>
<text text-anchor="middle" x="84" y="-80" font-family="Helvetica" font-size="10.00">vector</text>
</a>
</g>
</g>
<!-- Node1&#45;&gt;Node3 -->
<g id="edge2" class="edge">
<title>Node1&#45;&gt;Node3</title>
<path fill="none" stroke="midnightblue" d="M298.82,-147.13C247.39,-136.7 175.14,-119.96 114,-98 112.57,-97.49 111.12,-96.93 109.67,-96.33"/>
<polygon fill="midnightblue" stroke="midnightblue" points="110.79,-93 100.24,-92.12 107.94,-99.39 110.79,-93"/>
</g>
<!-- Node4 -->
<g id="node4" class="node">
<title>Node4</title>
<g id="a_node4"><a xlink:title=" ">
<polygon fill="white" stroke="#bfbfbf" points="123.5,-73 123.5,-92 158.5,-92 158.5,-73 123.5,-73"/>
<text text-anchor="middle" x="141" y="-80" font-family="Helvetica" font-size="10.00">map</text>
</a>
</g>
</g>
<!-- Node1&#45;&gt;Node4 -->
<g id="edge3" class="edge">
<title>Node1&#45;&gt;Node4</title>
<path fill="none" stroke="midnightblue" d="M298.87,-142.11C259.99,-131.19 210.49,-115.81 168,-98 166.97,-97.57 165.93,-97.11 164.88,-96.63"/>
<polygon fill="midnightblue" stroke="midnightblue" points="166.12,-93.34 155.6,-92 162.99,-99.6 166.12,-93.34"/>
</g>
<!-- Node5 -->
<g id="node5" class="node">
<title>Node5</title>
<g id="a_node5"><a xlink:title=" ">
<polygon fill="white" stroke="#bfbfbf" points="177,-73 177,-92 285,-92 285,-73 177,-73"/>
<text text-anchor="middle" x="231" y="-80" font-family="Helvetica" font-size="10.00">boost/shared_ptr.hpp</text>
</a>
</g>
</g>
<!-- Node1&#45;&gt;Node5 -->
<g id="edge4" class="edge">
<title>Node1&#45;&gt;Node5</title>
<path fill="none" stroke="midnightblue" d="M321.42,-134.4C299.32,-121.96 273.49,-107.42 255.11,-97.07"/>
<polygon fill="midnightblue" stroke="midnightblue" points="256.67,-93.93 246.24,-92.08 253.23,-100.03 256.67,-93.93"/>
</g>
<!-- Node6 -->
<g id="node6" class="node">
<title>Node6</title>
<g id="a_node6"><a xlink:title=" ">
<polygon fill="white" stroke="#bfbfbf" points="168,-6 168,-25 308,-25 308,-6 168,-6"/>
<text text-anchor="middle" x="238" y="-13" font-family="Helvetica" font-size="10.00">vsomeip/primitive_types.hpp</text>
</a>
</g>
</g>
<!-- Node1&#45;&gt;Node6 -->
<g id="edge5" class="edge">
<title>Node1&#45;&gt;Node6</title>
<path fill="none" stroke="midnightblue" d="M377.96,-134.47C385.61,-114.46 391.77,-86.61 378,-67 367.04,-51.39 322.17,-36.99 286.14,-27.6"/>
<polygon fill="midnightblue" stroke="midnightblue" points="286.8,-24.16 276.24,-25.08 285.07,-30.94 286.8,-24.16"/>
</g>
<!-- Node7 -->
<g id="node7" class="node">
<title>Node7</title>
<g id="a_node7"><a xlink:title=" ">
<polygon fill="white" stroke="#bfbfbf" points="553,-73 553,-92 655,-92 655,-73 553,-73"/>
<text text-anchor="middle" x="604" y="-80" font-family="Helvetica" font-size="10.00">vsomeip/export.hpp</text>
</a>
</g>
</g>
<!-- Node1&#45;&gt;Node7 -->
<g id="edge6" class="edge">
<title>Node1&#45;&gt;Node7</title>
<path fill="none" stroke="midnightblue" d="M433.25,-138.03C476.66,-124.16 531.49,-106.66 567.13,-95.27"/>
<polygon fill="midnightblue" stroke="midnightblue" points="568.63,-98.47 577.09,-92.09 566.5,-91.8 568.63,-98.47"/>
</g>
<!-- Node8 -->
<g id="node8" class="node">
<title>Node8</title>
<g id="a_node8"><a xlink:title=" ">
<polygon fill="white" stroke="#bfbfbf" points="673.5,-73 673.5,-92 770.5,-92 770.5,-73 673.5,-73"/>
<text text-anchor="middle" x="722" y="-80" font-family="Helvetica" font-size="10.00">vsomeip/trace.hpp</text>
</a>
</g>
</g>
<!-- Node1&#45;&gt;Node8 -->
<g id="edge7" class="edge">
<title>Node1&#45;&gt;Node8</title>
<path fill="none" stroke="midnightblue" d="M433.04,-146.49C493.55,-134.55 584.94,-116.03 664,-98 668.93,-96.87 674.09,-95.65 679.21,-94.41"/>
<polygon fill="midnightblue" stroke="midnightblue" points="680.06,-97.81 688.93,-92.02 678.38,-91.01 680.06,-97.81"/>
</g>
<!-- Node9 -->
<g id="node9" class="node">
<title>Node9</title>
<g id="a_node9"><a xlink:href="implementation_2tracing_2include_2enumeration__types_8hpp.html" target="_top" xlink:title=" ">
<polygon fill="white" stroke="black" points="789,-73 789,-92 907,-92 907,-73 789,-73"/>
<text text-anchor="middle" x="848" y="-80" font-family="Helvetica" font-size="10.00">enumeration_types.hpp</text>
</a>
</g>
</g>
<!-- Node1&#45;&gt;Node9 -->
<g id="edge8" class="edge">
<title>Node1&#45;&gt;Node9</title>
<path fill="none" stroke="midnightblue" d="M433.26,-150.83C515.34,-139.94 658.26,-120 780,-98 786.39,-96.84 793.1,-95.53 799.71,-94.19"/>
<polygon fill="midnightblue" stroke="midnightblue" points="800.88,-97.52 809.96,-92.05 799.46,-90.66 800.88,-97.52"/>
</g>
<!-- Node10 -->
<g id="node10" class="node">
<title>Node10</title>
<g id="a_node10"><a xlink:href="header_8hpp.html" target="_top" xlink:title=" ">
<polygon fill="white" stroke="black" points="303.5,-73 303.5,-92 368.5,-92 368.5,-73 303.5,-73"/>
<text text-anchor="middle" x="336" y="-80" font-family="Helvetica" font-size="10.00">header.hpp</text>
</a>
</g>
</g>
<!-- Node1&#45;&gt;Node10 -->
<g id="edge9" class="edge">
<title>Node1&#45;&gt;Node10</title>
<path fill="none" stroke="midnightblue" d="M356.01,-134.19C351.8,-123.54 347,-111.38 343.16,-101.64"/>
<polygon fill="midnightblue" stroke="midnightblue" points="346.36,-100.23 339.44,-92.21 339.85,-102.8 346.36,-100.23"/>
</g>
<!-- Node13 -->
<g id="node13" class="node">
<title>Node13</title>
<g id="a_node13"><a xlink:href="endpoints_2include_2buffer_8hpp.html" target="_top" xlink:title=" ">
<polygon fill="white" stroke="black" points="425,-67.5 425,-97.5 535,-97.5 535,-67.5 425,-67.5"/>
<text text-anchor="start" x="433" y="-85.5" font-family="Helvetica" font-size="10.00">../../endpoints/include</text>
<text text-anchor="middle" x="480" y="-74.5" font-family="Helvetica" font-size="10.00">/buffer.hpp</text>
</a>
</g>
</g>
<!-- Node1&#45;&gt;Node13 -->
<g id="edge13" class="edge">
<title>Node1&#45;&gt;Node13</title>
<path fill="none" stroke="midnightblue" d="M403.64,-134.4C418.79,-124.31 436,-112.83 450.25,-103.33"/>
<polygon fill="midnightblue" stroke="midnightblue" points="452.31,-106.17 458.69,-97.71 448.43,-100.34 452.31,-106.17"/>
</g>
<!-- Node10&#45;&gt;Node6 -->
<g id="edge11" class="edge">
<title>Node10&#45;&gt;Node6</title>
<path fill="none" stroke="midnightblue" d="M322.78,-72.73C306.55,-61.96 278.78,-43.55 259.47,-30.74"/>
<polygon fill="midnightblue" stroke="midnightblue" points="261.28,-27.74 251.01,-25.13 257.41,-33.57 261.28,-27.74"/>
</g>
<!-- Node11 -->
<g id="node11" class="node">
<title>Node11</title>
<g id="a_node11"><a xlink:title=" ">
<polygon fill="white" stroke="#bfbfbf" points="326.5,-6 326.5,-25 379.5,-25 379.5,-6 326.5,-6"/>
<text text-anchor="middle" x="353" y="-13" font-family="Helvetica" font-size="10.00">memory</text>
</a>
</g>
</g>
<!-- Node10&#45;&gt;Node11 -->
<g id="edge10" class="edge">
<title>Node10&#45;&gt;Node11</title>
<path fill="none" stroke="midnightblue" d="M338.29,-72.73C340.82,-63.09 344.94,-47.3 348.19,-34.91"/>
<polygon fill="midnightblue" stroke="midnightblue" points="351.6,-35.69 350.74,-25.13 344.83,-33.92 351.6,-35.69"/>
</g>
<!-- Node12 -->
<g id="node12" class="node">
<title>Node12</title>
<g id="a_node12"><a xlink:title=" ">
<polygon fill="white" stroke="#bfbfbf" points="40,-0.5 40,-30.5 150,-30.5 150,-0.5 40,-0.5"/>
<text text-anchor="start" x="48" y="-18.5" font-family="Helvetica" font-size="10.00">boost/asio/ip/address</text>
<text text-anchor="middle" x="95" y="-7.5" font-family="Helvetica" font-size="10.00">_v4.hpp</text>
</a>
</g>
</g>
<!-- Node10&#45;&gt;Node12 -->
<g id="edge12" class="edge">
<title>Node10&#45;&gt;Node12</title>
<path fill="none" stroke="midnightblue" d="M312.13,-72.87C306.23,-70.85 299.91,-68.77 294,-67 249.8,-53.79 199.42,-41.03 160.42,-31.64"/>
<polygon fill="midnightblue" stroke="midnightblue" points="160.78,-28.13 150.24,-29.2 159.15,-34.93 160.78,-28.13"/>
</g>
<!-- Node13&#45;&gt;Node6 -->
<g id="edge21" class="edge">
<title>Node13&#45;&gt;Node6</title>
<path fill="none" stroke="midnightblue" d="M427.79,-67.48C383.37,-55.55 320.44,-38.64 279.43,-27.63"/>
<polygon fill="midnightblue" stroke="midnightblue" points="280.32,-24.24 269.75,-25.03 278.5,-31 280.32,-24.24"/>
</g>
<!-- Node13&#45;&gt;Node11 -->
<g id="edge16" class="edge">
<title>Node13&#45;&gt;Node11</title>
<path fill="none" stroke="midnightblue" d="M452.44,-67.4C430.55,-56.19 400.17,-40.64 378.76,-29.69"/>
<polygon fill="midnightblue" stroke="midnightblue" points="380.12,-26.45 369.62,-25.01 376.93,-32.68 380.12,-26.45"/>
</g>
<!-- Node14 -->
<g id="node14" class="node">
<title>Node14</title>
<g id="a_node14"><a xlink:title=" ">
<polygon fill="white" stroke="#bfbfbf" points="828,-6 828,-25 866,-25 866,-6 828,-6"/>
<text text-anchor="middle" x="847" y="-13" font-family="Helvetica" font-size="10.00">array</text>
</a>
</g>
</g>
<!-- Node13&#45;&gt;Node14 -->
<g id="edge14" class="edge">
<title>Node13&#45;&gt;Node14</title>
<path fill="none" stroke="midnightblue" d="M535.09,-68.68C538.1,-68.08 541.08,-67.52 544,-67 665.35,-45.36 701.39,-67.9 819,-31 820.47,-30.54 821.95,-30 823.43,-29.42"/>
<polygon fill="midnightblue" stroke="midnightblue" points="825.29,-32.41 832.88,-25.02 822.34,-26.07 825.29,-32.41"/>
</g>
<!-- Node15 -->
<g id="node15" class="node">
<title>Node15</title>
<g id="a_node15"><a xlink:title=" ">
<polygon fill="white" stroke="#bfbfbf" points="884,-6 884,-25 930,-25 930,-6 884,-6"/>
<text text-anchor="middle" x="907" y="-13" font-family="Helvetica" font-size="10.00">chrono</text>
</a>
</g>
</g>
<!-- Node13&#45;&gt;Node15 -->
<g id="edge15" class="edge">
<title>Node13&#45;&gt;Node15</title>
<path fill="none" stroke="midnightblue" d="M535.08,-68.6C538.09,-68.03 541.08,-67.49 544,-67 689.96,-42.61 732.26,-70.03 875,-31 877.15,-30.41 879.34,-29.7 881.51,-28.9"/>
<polygon fill="midnightblue" stroke="midnightblue" points="882.87,-32.13 890.76,-25.06 880.19,-25.66 882.87,-32.13"/>
</g>
<!-- Node16 -->
<g id="node16" class="node">
<title>Node16</title>
<g id="a_node16"><a xlink:title=" ">
<polygon fill="white" stroke="#bfbfbf" points="948,-6 948,-25 978,-25 978,-6 948,-6"/>
<text text-anchor="middle" x="963" y="-13" font-family="Helvetica" font-size="10.00">set</text>
</a>
</g>
</g>
<!-- Node13&#45;&gt;Node16 -->
<g id="edge17" class="edge">
<title>Node13&#45;&gt;Node16</title>
<path fill="none" stroke="midnightblue" d="M535.07,-68.54C538.08,-67.98 541.07,-67.46 544,-67 718.12,-39.46 771.51,-85.98 939,-31 940.06,-30.65 941.13,-30.25 942.19,-29.8"/>
<polygon fill="midnightblue" stroke="midnightblue" points="944.09,-32.76 951.31,-25.01 940.83,-26.56 944.09,-32.76"/>
</g>
<!-- Node17 -->
<g id="node17" class="node">
<title>Node17</title>
<g id="a_node17"><a xlink:title=" ">
<polygon fill="white" stroke="#bfbfbf" points="398,-6 398,-25 526,-25 526,-6 398,-6"/>
<text text-anchor="middle" x="462" y="-13" font-family="Helvetica" font-size="10.00">boost/asio/io_service.hpp</text>
</a>
</g>
</g>
<!-- Node13&#45;&gt;Node17 -->
<g id="edge18" class="edge">
<title>Node13&#45;&gt;Node17</title>
<path fill="none" stroke="midnightblue" d="M476.09,-67.4C473.45,-57.86 469.94,-45.18 467.08,-34.86"/>
<polygon fill="midnightblue" stroke="midnightblue" points="470.45,-33.9 464.41,-25.19 463.7,-35.77 470.45,-33.9"/>
</g>
<!-- Node18 -->
<g id="node18" class="node">
<title>Node18</title>
<g id="a_node18"><a xlink:title=" ">
<polygon fill="white" stroke="#bfbfbf" points="544,-6 544,-25 684,-25 684,-6 544,-6"/>
<text text-anchor="middle" x="614" y="-13" font-family="Helvetica" font-size="10.00">boost/asio/steady_timer.hpp</text>
</a>
</g>
</g>
<!-- Node13&#45;&gt;Node18 -->
<g id="edge19" class="edge">
<title>Node13&#45;&gt;Node18</title>
<path fill="none" stroke="midnightblue" d="M509.08,-67.4C532.38,-56.09 564.81,-40.36 587.43,-29.39"/>
<polygon fill="midnightblue" stroke="midnightblue" points="588.99,-32.52 596.46,-25.01 585.94,-26.22 588.99,-32.52"/>
</g>
<!-- Node19 -->
<g id="node19" class="node">
<title>Node19</title>
<g id="a_node19"><a xlink:title=" ">
<polygon fill="white" stroke="#bfbfbf" points="702.5,-6 702.5,-25 809.5,-25 809.5,-6 702.5,-6"/>
<text text-anchor="middle" x="756" y="-13" font-family="Helvetica" font-size="10.00">vsomeip/defines.hpp</text>
</a>
</g>
</g>
<!-- Node13&#45;&gt;Node19 -->
<g id="edge20" class="edge">
<title>Node13&#45;&gt;Node19</title>
<path fill="none" stroke="midnightblue" d="M535.19,-68.5C586.45,-56.43 661.89,-38.66 709.98,-27.34"/>
<polygon fill="midnightblue" stroke="midnightblue" points="710.87,-30.72 719.8,-25.02 709.27,-23.91 710.87,-30.72"/>
</g>
</g>
</svg>
