<?xml version="1.0" encoding="UTF-8" standalone="no"?>
<!DOCTYPE svg PUBLIC "-//W3C//DTD SVG 1.1//EN"
 "http://www.w3.org/Graphics/SVG/1.1/DTD/svg11.dtd">
<!-- Generated by graphviz version 2.44.0 (0)
 -->
<!-- Title: /home/ec2&#45;user/workspace/vsomeip/implementation/tracing/src/connector_impl.cpp Pages: 1 -->
<svg width="1970pt" height="251pt"
 viewBox="0.00 0.00 1970.00 251.00" xmlns="http://www.w3.org/2000/svg" xmlns:xlink="http://www.w3.org/1999/xlink">
<g id="graph0" class="graph" transform="scale(1 1) rotate(0) translate(4 247)">
<title>/home/ec2&#45;user/workspace/vsomeip/implementation/tracing/src/connector_impl.cpp</title>
<polygon fill="white" stroke="transparent" points="-4,4 -4,-247 1966,-247 1966,4 -4,4"/>
<!-- Node1 -->
<g id="node1" class="node">
<title>Node1</title>
<g id="a_node1"><a xlink:title=" ">
<polygon fill="#bfbfbf" stroke="black" points="1326.5,-201.5 1326.5,-242.5 1479.5,-242.5 1479.5,-201.5 1326.5,-201.5"/>
<text text-anchor="start" x="1334.5" y="-230.5" font-family="Helvetica" font-size="10.00">/home/ec2&#45;user/workspace</text>
<text text-anchor="start" x="1334.5" y="-219.5" font-family="Helvetica" font-size="10.00">/vsomeip/implementation</text>
<text text-anchor="middle" x="1403" y="-208.5" font-family="Helvetica" font-size="10.00">/tracing/src/connector_impl.cpp</text>
</a>
</g>
</g>
<!-- Node2 -->
<g id="node2" class="node">
<title>Node2</title>
<g id="a_node2"><a xlink:title=" ">
<polygon fill="white" stroke="#bfbfbf" points="130,-140 130,-159 248,-159 248,-140 130,-140"/>
<text text-anchor="middle" x="189" y="-147" font-family="Helvetica" font-size="10.00">vsomeip/constants.hpp</text>
</a>
</g>
</g>
<!-- Node1&#45;&gt;Node2 -->
<g id="edge1" class="edge">
<title>Node1&#45;&gt;Node2</title>
<path fill="none" stroke="midnightblue" d="M1326.18,-221.51C1141.24,-221.8 657,-217.07 257,-165 249.43,-164.01 241.44,-162.63 233.71,-161.1"/>
<polygon fill="midnightblue" stroke="midnightblue" points="234.26,-157.64 223.76,-159.04 232.84,-164.5 234.26,-157.64"/>
</g>
<!-- Node3 -->
<g id="node3" class="node">
<title>Node3</title>
<g id="a_node3"><a xlink:href="logger_8hpp.html" target="_top" xlink:title=" ">
<polygon fill="white" stroke="black" points="1195,-140 1195,-159 1331,-159 1331,-140 1195,-140"/>
<text text-anchor="middle" x="1263" y="-147" font-family="Helvetica" font-size="10.00">vsomeip/internal/logger.hpp</text>
</a>
</g>
</g>
<!-- Node1&#45;&gt;Node3 -->
<g id="edge2" class="edge">
<title>Node1&#45;&gt;Node3</title>
<path fill="none" stroke="midnightblue" d="M1364,-201.36C1340.15,-189.35 1310.27,-174.3 1289.22,-163.7"/>
<polygon fill="midnightblue" stroke="midnightblue" points="1290.73,-160.55 1280.22,-159.17 1287.58,-166.8 1290.73,-160.55"/>
</g>
<!-- Node4 -->
<g id="node4" class="node">
<title>Node4</title>
<g id="a_node4"><a xlink:title=" ">
<polygon fill="white" stroke="#bfbfbf" points="1253,-6 1253,-25 1299,-25 1299,-6 1253,-6"/>
<text text-anchor="middle" x="1276" y="-13" font-family="Helvetica" font-size="10.00">chrono</text>
</a>
</g>
</g>
<!-- Node1&#45;&gt;Node4 -->
<g id="edge11" class="edge">
<title>Node1&#45;&gt;Node4</title>
<path fill="none" stroke="midnightblue" d="M1326.3,-211.21C1271.06,-202.41 1203.33,-187.38 1186,-165 1150.62,-119.33 1218.64,-58.82 1255.08,-31.28"/>
<polygon fill="midnightblue" stroke="midnightblue" points="1257.2,-34.07 1263.17,-25.32 1253.04,-28.44 1257.2,-34.07"/>
</g>
<!-- Node11 -->
<g id="node11" class="node">
<title>Node11</title>
<g id="a_node11"><a xlink:title=" ">
<polygon fill="white" stroke="#bfbfbf" points="1349.5,-140 1349.5,-159 1456.5,-159 1456.5,-140 1349.5,-140"/>
<text text-anchor="middle" x="1403" y="-147" font-family="Helvetica" font-size="10.00">vsomeip/runtime.hpp</text>
</a>
</g>
</g>
<!-- Node1&#45;&gt;Node11 -->
<g id="edge10" class="edge">
<title>Node1&#45;&gt;Node11</title>
<path fill="none" stroke="midnightblue" d="M1403,-201.36C1403,-191.3 1403,-179.1 1403,-169.18"/>
<polygon fill="midnightblue" stroke="midnightblue" points="1406.5,-169.17 1403,-159.17 1399.5,-169.17 1406.5,-169.17"/>
</g>
<!-- Node12 -->
<g id="node12" class="node">
<title>Node12</title>
<g id="a_node12"><a xlink:title=" ">
<polygon fill="white" stroke="#bfbfbf" points="1474.5,-140 1474.5,-159 1515.5,-159 1515.5,-140 1474.5,-140"/>
<text text-anchor="middle" x="1495" y="-147" font-family="Helvetica" font-size="10.00">ctime</text>
</a>
</g>
</g>
<!-- Node1&#45;&gt;Node12 -->
<g id="edge12" class="edge">
<title>Node1&#45;&gt;Node12</title>
<path fill="none" stroke="midnightblue" d="M1428.63,-201.36C1443.46,-190 1461.82,-175.92 1475.48,-165.46"/>
<polygon fill="midnightblue" stroke="midnightblue" points="1477.87,-168.03 1483.68,-159.17 1473.62,-162.48 1477.87,-168.03"/>
</g>
<!-- Node13 -->
<g id="node13" class="node">
<title>Node13</title>
<g id="a_node13"><a xlink:title=" ">
<polygon fill="white" stroke="#bfbfbf" points="1534,-140 1534,-159 1584,-159 1584,-140 1534,-140"/>
<text text-anchor="middle" x="1559" y="-147" font-family="Helvetica" font-size="10.00">fstream</text>
</a>
</g>
</g>
<!-- Node1&#45;&gt;Node13 -->
<g id="edge13" class="edge">
<title>Node1&#45;&gt;Node13</title>
<path fill="none" stroke="midnightblue" d="M1446.45,-201.36C1473.28,-189.24 1506.93,-174.03 1530.41,-163.42"/>
<polygon fill="midnightblue" stroke="midnightblue" points="1532.14,-166.48 1539.81,-159.17 1529.25,-160.1 1532.14,-166.48"/>
</g>
<!-- Node14 -->
<g id="node14" class="node">
<title>Node14</title>
<g id="a_node14"><a xlink:title=" ">
<polygon fill="white" stroke="#bfbfbf" points="1602,-140 1602,-159 1652,-159 1652,-140 1602,-140"/>
<text text-anchor="middle" x="1627" y="-147" font-family="Helvetica" font-size="10.00">iomanip</text>
</a>
</g>
</g>
<!-- Node1&#45;&gt;Node14 -->
<g id="edge14" class="edge">
<title>Node1&#45;&gt;Node14</title>
<path fill="none" stroke="midnightblue" d="M1476.73,-201.43C1512.19,-191.47 1555.13,-178.6 1593,-165 1594.86,-164.33 1596.76,-163.62 1598.67,-162.87"/>
<polygon fill="midnightblue" stroke="midnightblue" points="1600.16,-166.04 1608.09,-159.02 1597.51,-159.56 1600.16,-166.04"/>
</g>
<!-- Node15 -->
<g id="node15" class="node">
<title>Node15</title>
<g id="a_node15"><a xlink:title=" ">
<polygon fill="white" stroke="#bfbfbf" points="1670,-140 1670,-159 1724,-159 1724,-140 1670,-140"/>
<text text-anchor="middle" x="1697" y="-147" font-family="Helvetica" font-size="10.00">iostream</text>
</a>
</g>
</g>
<!-- Node1&#45;&gt;Node15 -->
<g id="edge15" class="edge">
<title>Node1&#45;&gt;Node15</title>
<path fill="none" stroke="midnightblue" d="M1479.51,-207.91C1531.31,-198.2 1600.98,-183.46 1661,-165 1663.28,-164.3 1665.62,-163.51 1667.96,-162.68"/>
<polygon fill="midnightblue" stroke="midnightblue" points="1669.31,-165.91 1677.41,-159.09 1666.82,-159.37 1669.31,-165.91"/>
</g>
<!-- Node16 -->
<g id="node16" class="node">
<title>Node16</title>
<g id="a_node16"><a xlink:href="channel__impl_8hpp.html" target="_top" xlink:title=" ">
<polygon fill="white" stroke="black" points="266.5,-134.5 266.5,-164.5 359.5,-164.5 359.5,-134.5 266.5,-134.5"/>
<text text-anchor="start" x="274.5" y="-152.5" font-family="Helvetica" font-size="10.00">../include/channel</text>
<text text-anchor="middle" x="313" y="-141.5" font-family="Helvetica" font-size="10.00">_impl.hpp</text>
</a>
</g>
</g>
<!-- Node1&#45;&gt;Node16 -->
<g id="edge16" class="edge">
<title>Node1&#45;&gt;Node16</title>
<path fill="none" stroke="midnightblue" d="M1326.22,-218.58C1160.7,-212.94 758.04,-196.9 422,-165 405,-163.39 386.58,-161.13 369.8,-158.88"/>
<polygon fill="midnightblue" stroke="midnightblue" points="369.97,-155.37 359.59,-157.48 369.02,-162.3 369.97,-155.37"/>
</g>
<!-- Node23 -->
<g id="node23" class="node">
<title>Node23</title>
<g id="a_node23"><a xlink:href="connector__impl_8hpp.html" target="_top" xlink:title=" ">
<polygon fill="white" stroke="black" points="626,-134.5 626,-164.5 728,-164.5 728,-134.5 626,-134.5"/>
<text text-anchor="start" x="634" y="-152.5" font-family="Helvetica" font-size="10.00">../include/connector</text>
<text text-anchor="middle" x="677" y="-141.5" font-family="Helvetica" font-size="10.00">_impl.hpp</text>
</a>
</g>
</g>
<!-- Node1&#45;&gt;Node23 -->
<g id="edge24" class="edge">
<title>Node1&#45;&gt;Node23</title>
<path fill="none" stroke="midnightblue" d="M1326.34,-213.56C1181.54,-199.49 870.55,-169.3 738.42,-156.46"/>
<polygon fill="midnightblue" stroke="midnightblue" points="738.37,-152.94 728.08,-155.46 737.7,-159.91 738.37,-152.94"/>
</g>
<!-- Node36 -->
<g id="node36" class="node">
<title>Node36</title>
<g id="a_node36"><a xlink:href="implementation_2tracing_2include_2defines_8hpp.html" target="_top" xlink:title=" ">
<polygon fill="white" stroke="black" points="1742,-140 1742,-159 1852,-159 1852,-140 1742,-140"/>
<text text-anchor="middle" x="1797" y="-147" font-family="Helvetica" font-size="10.00">../include/defines.hpp</text>
</a>
</g>
</g>
<!-- Node1&#45;&gt;Node36 -->
<g id="edge46" class="edge">
<title>Node1&#45;&gt;Node36</title>
<path fill="none" stroke="midnightblue" d="M1479.57,-209.22C1546.59,-198.63 1646.5,-182.13 1733,-165 1738.8,-163.85 1744.88,-162.57 1750.88,-161.26"/>
<polygon fill="midnightblue" stroke="midnightblue" points="1751.85,-164.63 1760.86,-159.05 1750.34,-157.8 1751.85,-164.63"/>
</g>
<!-- Node37 -->
<g id="node37" class="node">
<title>Node37</title>
<g id="a_node37"><a xlink:href="implementation_2configuration_2include_2trace_8hpp.html" target="_top" xlink:title=" ">
<polygon fill="white" stroke="black" points="431,-134.5 431,-164.5 525,-164.5 525,-134.5 431,-134.5"/>
<text text-anchor="start" x="439" y="-152.5" font-family="Helvetica" font-size="10.00">../../configuration</text>
<text text-anchor="middle" x="478" y="-141.5" font-family="Helvetica" font-size="10.00">/include/trace.hpp</text>
</a>
</g>
</g>
<!-- Node1&#45;&gt;Node37 -->
<g id="edge47" class="edge">
<title>Node1&#45;&gt;Node37</title>
<path fill="none" stroke="midnightblue" d="M1326.23,-216.37C1185.5,-207.69 876.78,-187.8 617,-165 590.13,-162.64 560.38,-159.6 535.32,-156.91"/>
<polygon fill="midnightblue" stroke="midnightblue" points="535.57,-153.41 525.25,-155.82 534.82,-160.37 535.57,-153.41"/>
</g>
<!-- Node38 -->
<g id="node38" class="node">
<title>Node38</title>
<g id="a_node38"><a xlink:href="byteorder_8hpp.html" target="_top" xlink:title=" ">
<polygon fill="white" stroke="black" points="1870,-134.5 1870,-164.5 1962,-164.5 1962,-134.5 1870,-134.5"/>
<text text-anchor="start" x="1878" y="-152.5" font-family="Helvetica" font-size="10.00">../../utility/include</text>
<text text-anchor="middle" x="1916" y="-141.5" font-family="Helvetica" font-size="10.00">/byteorder.hpp</text>
</a>
</g>
</g>
<!-- Node1&#45;&gt;Node38 -->
<g id="edge53" class="edge">
<title>Node1&#45;&gt;Node38</title>
<path fill="none" stroke="midnightblue" d="M1479.67,-214.84C1568.89,-206.95 1720.73,-191.29 1859.89,-165.05"/>
<polygon fill="midnightblue" stroke="midnightblue" points="1860.72,-168.46 1869.89,-163.14 1859.41,-161.58 1860.72,-168.46"/>
</g>
<!-- Node3&#45;&gt;Node4 -->
<g id="edge3" class="edge">
<title>Node3&#45;&gt;Node4</title>
<path fill="none" stroke="midnightblue" d="M1255.27,-139.96C1242.85,-125.14 1220.83,-93.71 1231,-67 1236.23,-53.28 1247.08,-40.92 1256.81,-31.86"/>
<polygon fill="midnightblue" stroke="midnightblue" points="1259.36,-34.29 1264.58,-25.07 1254.75,-29.02 1259.36,-34.29"/>
</g>
<!-- Node5 -->
<g id="node5" class="node">
<title>Node5</title>
<g id="a_node5"><a xlink:title=" ">
<polygon fill="white" stroke="#bfbfbf" points="1240,-73 1240,-92 1286,-92 1286,-73 1240,-73"/>
<text text-anchor="middle" x="1263" y="-80" font-family="Helvetica" font-size="10.00">cstdint</text>
</a>
</g>
</g>
<!-- Node3&#45;&gt;Node5 -->
<g id="edge4" class="edge">
<title>Node3&#45;&gt;Node5</title>
<path fill="none" stroke="midnightblue" d="M1263,-139.73C1263,-130.18 1263,-114.62 1263,-102.28"/>
<polygon fill="midnightblue" stroke="midnightblue" points="1266.5,-102.13 1263,-92.13 1259.5,-102.13 1266.5,-102.13"/>
</g>
<!-- Node6 -->
<g id="node6" class="node">
<title>Node6</title>
<g id="a_node6"><a xlink:title=" ">
<polygon fill="white" stroke="#bfbfbf" points="856,-73 856,-92 900,-92 900,-73 856,-73"/>
<text text-anchor="middle" x="878" y="-80" font-family="Helvetica" font-size="10.00">mutex</text>
</a>
</g>
</g>
<!-- Node3&#45;&gt;Node6 -->
<g id="edge5" class="edge">
<title>Node3&#45;&gt;Node6</title>
<path fill="none" stroke="midnightblue" d="M1194.85,-144.76C1122.62,-139.43 1005.83,-126.85 909,-98 907.12,-97.44 905.21,-96.78 903.31,-96.06"/>
<polygon fill="midnightblue" stroke="midnightblue" points="904.63,-92.82 894.06,-92.11 901.87,-99.26 904.63,-92.82"/>
</g>
<!-- Node7 -->
<g id="node7" class="node">
<title>Node7</title>
<g id="a_node7"><a xlink:title=" ">
<polygon fill="white" stroke="#bfbfbf" points="1304,-73 1304,-92 1356,-92 1356,-73 1304,-73"/>
<text text-anchor="middle" x="1330" y="-80" font-family="Helvetica" font-size="10.00">ostream</text>
</a>
</g>
</g>
<!-- Node3&#45;&gt;Node7 -->
<g id="edge6" class="edge">
<title>Node3&#45;&gt;Node7</title>
<path fill="none" stroke="midnightblue" d="M1272.04,-139.73C1282.68,-129.4 1300.58,-112.04 1313.68,-99.33"/>
<polygon fill="midnightblue" stroke="midnightblue" points="1316.37,-101.6 1321.11,-92.13 1311.49,-96.58 1316.37,-101.6"/>
</g>
<!-- Node8 -->
<g id="node8" class="node">
<title>Node8</title>
<g id="a_node8"><a xlink:title=" ">
<polygon fill="white" stroke="#bfbfbf" points="1374,-73 1374,-92 1426,-92 1426,-73 1374,-73"/>
<text text-anchor="middle" x="1400" y="-80" font-family="Helvetica" font-size="10.00">sstream</text>
</a>
</g>
</g>
<!-- Node3&#45;&gt;Node8 -->
<g id="edge7" class="edge">
<title>Node3&#45;&gt;Node8</title>
<path fill="none" stroke="midnightblue" d="M1281.19,-139.87C1304.53,-128.8 1345.23,-109.49 1372.39,-96.6"/>
<polygon fill="midnightblue" stroke="midnightblue" points="1374.2,-99.62 1381.73,-92.17 1371.2,-93.29 1374.2,-99.62"/>
</g>
<!-- Node9 -->
<g id="node9" class="node">
<title>Node9</title>
<g id="a_node9"><a xlink:title=" ">
<polygon fill="white" stroke="#bfbfbf" points="1444,-73 1444,-92 1504,-92 1504,-73 1444,-73"/>
<text text-anchor="middle" x="1474" y="-80" font-family="Helvetica" font-size="10.00">streambuf</text>
</a>
</g>
</g>
<!-- Node3&#45;&gt;Node9 -->
<g id="edge8" class="edge">
<title>Node3&#45;&gt;Node9</title>
<path fill="none" stroke="midnightblue" d="M1294.59,-139.94C1329.25,-130.39 1386.42,-114.14 1435,-98 1437.4,-97.2 1439.87,-96.35 1442.35,-95.48"/>
<polygon fill="midnightblue" stroke="midnightblue" points="1443.61,-98.75 1451.82,-92.05 1441.23,-92.16 1443.61,-98.75"/>
</g>
<!-- Node10 -->
<g id="node10" class="node">
<title>Node10</title>
<g id="a_node10"><a xlink:title=" ">
<polygon fill="white" stroke="#bfbfbf" points="1044,-73 1044,-92 1146,-92 1146,-73 1044,-73"/>
<text text-anchor="middle" x="1095" y="-80" font-family="Helvetica" font-size="10.00">vsomeip/export.hpp</text>
</a>
</g>
</g>
<!-- Node3&#45;&gt;Node10 -->
<g id="edge9" class="edge">
<title>Node3&#45;&gt;Node10</title>
<path fill="none" stroke="midnightblue" d="M1240.69,-139.87C1211.49,-128.57 1160.12,-108.7 1126.84,-95.82"/>
<polygon fill="midnightblue" stroke="midnightblue" points="1127.72,-92.41 1117.13,-92.06 1125.2,-98.94 1127.72,-92.41"/>
</g>
<!-- Node16&#45;&gt;Node6 -->
<g id="edge20" class="edge">
<title>Node16&#45;&gt;Node6</title>
<path fill="none" stroke="midnightblue" d="M359.62,-141.8C378.9,-139.16 401.5,-136.23 422,-134 610.45,-113.5 663.86,-146.92 847,-98 848.94,-97.48 850.9,-96.85 852.85,-96.14"/>
<polygon fill="midnightblue" stroke="midnightblue" points="854.47,-99.26 862.32,-92.14 851.74,-92.81 854.47,-99.26"/>
</g>
<!-- Node17 -->
<g id="node17" class="node">
<title>Node17</title>
<g id="a_node17"><a xlink:title=" ">
<polygon fill="white" stroke="#bfbfbf" points="0,-73 0,-92 46,-92 46,-73 0,-73"/>
<text text-anchor="middle" x="23" y="-80" font-family="Helvetica" font-size="10.00">atomic</text>
</a>
</g>
</g>
<!-- Node16&#45;&gt;Node17 -->
<g id="edge17" class="edge">
<title>Node16&#45;&gt;Node17</title>
<path fill="none" stroke="midnightblue" d="M266.31,-136.12C263.17,-135.38 260.04,-134.66 257,-134 167.9,-114.56 142.09,-125.03 55,-98 53.12,-97.42 51.21,-96.75 49.3,-96.03"/>
<polygon fill="midnightblue" stroke="midnightblue" points="50.54,-92.76 39.96,-92.13 47.84,-99.22 50.54,-92.76"/>
</g>
<!-- Node18 -->
<g id="node18" class="node">
<title>Node18</title>
<g id="a_node18"><a xlink:title=" ">
<polygon fill="white" stroke="#bfbfbf" points="64.5,-73 64.5,-92 123.5,-92 123.5,-73 64.5,-73"/>
<text text-anchor="middle" x="94" y="-80" font-family="Helvetica" font-size="10.00">functional</text>
</a>
</g>
</g>
<!-- Node16&#45;&gt;Node18 -->
<g id="edge18" class="edge">
<title>Node16&#45;&gt;Node18</title>
<path fill="none" stroke="midnightblue" d="M266.19,-135.97C221.29,-123.85 156.79,-106.17 132,-98 129.74,-97.25 127.41,-96.45 125.07,-95.62"/>
<polygon fill="midnightblue" stroke="midnightblue" points="126.17,-92.3 115.58,-92.13 123.76,-98.87 126.17,-92.3"/>
</g>
<!-- Node19 -->
<g id="node19" class="node">
<title>Node19</title>
<g id="a_node19"><a xlink:title=" ">
<polygon fill="white" stroke="#bfbfbf" points="200.5,-73 200.5,-92 235.5,-92 235.5,-73 200.5,-73"/>
<text text-anchor="middle" x="218" y="-80" font-family="Helvetica" font-size="10.00">map</text>
</a>
</g>
</g>
<!-- Node16&#45;&gt;Node19 -->
<g id="edge19" class="edge">
<title>Node16&#45;&gt;Node19</title>
<path fill="none" stroke="midnightblue" d="M292.39,-134.4C276.6,-123.6 254.91,-108.76 239.03,-97.89"/>
<polygon fill="midnightblue" stroke="midnightblue" points="240.66,-94.77 230.43,-92.01 236.71,-100.54 240.66,-94.77"/>
</g>
<!-- Node20 -->
<g id="node20" class="node">
<title>Node20</title>
<g id="a_node20"><a xlink:title=" ">
<polygon fill="white" stroke="#bfbfbf" points="141.5,-73 141.5,-92 182.5,-92 182.5,-73 141.5,-73"/>
<text text-anchor="middle" x="162" y="-80" font-family="Helvetica" font-size="10.00">string</text>
</a>
</g>
</g>
<!-- Node16&#45;&gt;Node20 -->
<g id="edge21" class="edge">
<title>Node16&#45;&gt;Node20</title>
<path fill="none" stroke="midnightblue" d="M277.21,-134.47C252.74,-124.68 219.68,-111.08 191,-98 190,-97.54 188.99,-97.07 187.96,-96.59"/>
<polygon fill="midnightblue" stroke="midnightblue" points="189.3,-93.35 178.77,-92.14 186.24,-99.65 189.3,-93.35"/>
</g>
<!-- Node21 -->
<g id="node21" class="node">
<title>Node21</title>
<g id="a_node21"><a xlink:href="implementation_2tracing_2include_2enumeration__types_8hpp.html" target="_top" xlink:title=" ">
<polygon fill="white" stroke="black" points="254,-73 254,-92 372,-92 372,-73 254,-73"/>
<text text-anchor="middle" x="313" y="-80" font-family="Helvetica" font-size="10.00">enumeration_types.hpp</text>
</a>
</g>
</g>
<!-- Node16&#45;&gt;Node21 -->
<g id="edge22" class="edge">
<title>Node16&#45;&gt;Node21</title>
<path fill="none" stroke="midnightblue" d="M313,-134.4C313,-125.06 313,-112.71 313,-102.52"/>
<polygon fill="midnightblue" stroke="midnightblue" points="316.5,-102.19 313,-92.19 309.5,-102.19 316.5,-102.19"/>
</g>
<!-- Node22 -->
<g id="node22" class="node">
<title>Node22</title>
<g id="a_node22"><a xlink:title=" ">
<polygon fill="white" stroke="#bfbfbf" points="390.5,-73 390.5,-92 487.5,-92 487.5,-73 390.5,-73"/>
<text text-anchor="middle" x="439" y="-80" font-family="Helvetica" font-size="10.00">vsomeip/trace.hpp</text>
</a>
</g>
</g>
<!-- Node16&#45;&gt;Node22 -->
<g id="edge23" class="edge">
<title>Node16&#45;&gt;Node22</title>
<path fill="none" stroke="midnightblue" d="M340.34,-134.4C362.06,-123.19 392.2,-107.64 413.44,-96.69"/>
<polygon fill="midnightblue" stroke="midnightblue" points="415.23,-99.7 422.51,-92.01 412.02,-93.48 415.23,-99.7"/>
</g>
<!-- Node23&#45;&gt;Node6 -->
<g id="edge25" class="edge">
<title>Node23&#45;&gt;Node6</title>
<path fill="none" stroke="midnightblue" d="M728.24,-135.42C762.33,-126.2 807.86,-112.87 847,-98 848.42,-97.46 849.87,-96.88 851.33,-96.28"/>
<polygon fill="midnightblue" stroke="midnightblue" points="853.08,-99.33 860.82,-92.09 850.25,-92.93 853.08,-99.33"/>
</g>
<!-- Node23&#45;&gt;Node10 -->
<g id="edge30" class="edge">
<title>Node23&#45;&gt;Node10</title>
<path fill="none" stroke="midnightblue" d="M728.24,-142.86C797.97,-134.82 926.49,-118.71 1035,-98 1040.53,-96.95 1046.31,-95.71 1052.01,-94.42"/>
<polygon fill="midnightblue" stroke="midnightblue" points="1053.18,-97.74 1062.12,-92.06 1051.58,-90.93 1053.18,-97.74"/>
</g>
<!-- Node23&#45;&gt;Node19 -->
<g id="edge27" class="edge">
<title>Node23&#45;&gt;Node19</title>
<path fill="none" stroke="midnightblue" d="M625.79,-143.03C515.28,-131.16 262.96,-103.65 245,-98 243.57,-97.55 242.13,-97.03 240.7,-96.45"/>
<polygon fill="midnightblue" stroke="midnightblue" points="242.1,-93.24 231.57,-92.07 239.08,-99.55 242.1,-93.24"/>
</g>
<!-- Node23&#45;&gt;Node21 -->
<g id="edge32" class="edge">
<title>Node23&#45;&gt;Node21</title>
<path fill="none" stroke="midnightblue" d="M625.81,-140.42C566.71,-130.94 466.63,-114.43 381,-98 374.78,-96.81 368.25,-95.49 361.79,-94.16"/>
<polygon fill="midnightblue" stroke="midnightblue" points="362.29,-90.68 351.78,-92.06 360.85,-97.54 362.29,-90.68"/>
</g>
<!-- Node23&#45;&gt;Node22 -->
<g id="edge31" class="edge">
<title>Node23&#45;&gt;Node22</title>
<path fill="none" stroke="midnightblue" d="M625.94,-134.56C582.38,-122.66 520.54,-105.77 480.1,-94.73"/>
<polygon fill="midnightblue" stroke="midnightblue" points="480.88,-91.31 470.31,-92.05 479.03,-98.06 480.88,-91.31"/>
</g>
<!-- Node24 -->
<g id="node24" class="node">
<title>Node24</title>
<g id="a_node24"><a xlink:title=" ">
<polygon fill="white" stroke="#bfbfbf" points="544.5,-73 544.5,-92 587.5,-92 587.5,-73 544.5,-73"/>
<text text-anchor="middle" x="566" y="-80" font-family="Helvetica" font-size="10.00">vector</text>
</a>
</g>
</g>
<!-- Node23&#45;&gt;Node24 -->
<g id="edge26" class="edge">
<title>Node23&#45;&gt;Node24</title>
<path fill="none" stroke="midnightblue" d="M652.91,-134.4C634.04,-123.34 607.94,-108.06 589.28,-97.13"/>
<polygon fill="midnightblue" stroke="midnightblue" points="590.93,-94.04 580.53,-92.01 587.39,-100.08 590.93,-94.04"/>
</g>
<!-- Node25 -->
<g id="node25" class="node">
<title>Node25</title>
<g id="a_node25"><a xlink:title=" ">
<polygon fill="white" stroke="#bfbfbf" points="918,-73 918,-92 1026,-92 1026,-73 918,-73"/>
<text text-anchor="middle" x="972" y="-80" font-family="Helvetica" font-size="10.00">boost/shared_ptr.hpp</text>
</a>
</g>
</g>
<!-- Node23&#45;&gt;Node25 -->
<g id="edge28" class="edge">
<title>Node23&#45;&gt;Node25</title>
<path fill="none" stroke="midnightblue" d="M728.18,-137.54C775.22,-127.43 846.85,-111.92 909,-98 914.34,-96.8 919.93,-95.54 925.48,-94.27"/>
<polygon fill="midnightblue" stroke="midnightblue" points="926.41,-97.65 935.37,-92.01 924.84,-90.83 926.41,-97.65"/>
</g>
<!-- Node26 -->
<g id="node26" class="node">
<title>Node26</title>
<g id="a_node26"><a xlink:title=" ">
<polygon fill="white" stroke="#bfbfbf" points="361,-6 361,-25 501,-25 501,-6 361,-6"/>
<text text-anchor="middle" x="431" y="-13" font-family="Helvetica" font-size="10.00">vsomeip/primitive_types.hpp</text>
</a>
</g>
</g>
<!-- Node23&#45;&gt;Node26 -->
<g id="edge29" class="edge">
<title>Node23&#45;&gt;Node26</title>
<path fill="none" stroke="midnightblue" d="M666.54,-134.29C652.46,-116.14 625.72,-84.93 596,-67 563.69,-47.51 523.22,-34.97 490.45,-27.27"/>
<polygon fill="midnightblue" stroke="midnightblue" points="491.07,-23.82 480.55,-25.03 489.53,-30.65 491.07,-23.82"/>
</g>
<!-- Node27 -->
<g id="node27" class="node">
<title>Node27</title>
<g id="a_node27"><a xlink:href="header_8hpp.html" target="_top" xlink:title=" ">
<polygon fill="white" stroke="black" points="644.5,-73 644.5,-92 709.5,-92 709.5,-73 644.5,-73"/>
<text text-anchor="middle" x="677" y="-80" font-family="Helvetica" font-size="10.00">header.hpp</text>
</a>
</g>
</g>
<!-- Node23&#45;&gt;Node27 -->
<g id="edge33" class="edge">
<title>Node23&#45;&gt;Node27</title>
<path fill="none" stroke="midnightblue" d="M677,-134.4C677,-125.06 677,-112.71 677,-102.52"/>
<polygon fill="midnightblue" stroke="midnightblue" points="680.5,-102.19 677,-92.19 673.5,-102.19 680.5,-102.19"/>
</g>
<!-- Node30 -->
<g id="node30" class="node">
<title>Node30</title>
<g id="a_node30"><a xlink:href="endpoints_2include_2buffer_8hpp.html" target="_top" xlink:title=" ">
<polygon fill="white" stroke="black" points="728,-67.5 728,-97.5 838,-97.5 838,-67.5 728,-67.5"/>
<text text-anchor="start" x="736" y="-85.5" font-family="Helvetica" font-size="10.00">../../endpoints/include</text>
<text text-anchor="middle" x="783" y="-74.5" font-family="Helvetica" font-size="10.00">/buffer.hpp</text>
</a>
</g>
</g>
<!-- Node23&#45;&gt;Node30 -->
<g id="edge37" class="edge">
<title>Node23&#45;&gt;Node30</title>
<path fill="none" stroke="midnightblue" d="M700,-134.4C715,-125.2 734.79,-113.07 751.27,-102.95"/>
<polygon fill="midnightblue" stroke="midnightblue" points="753.35,-105.79 760.04,-97.58 749.69,-99.82 753.35,-105.79"/>
</g>
<!-- Node27&#45;&gt;Node26 -->
<g id="edge35" class="edge">
<title>Node27&#45;&gt;Node26</title>
<path fill="none" stroke="midnightblue" d="M650.23,-72.98C643.63,-70.96 636.58,-68.85 630,-67 577.8,-52.34 517.38,-37.27 476.93,-27.46"/>
<polygon fill="midnightblue" stroke="midnightblue" points="477.64,-24.03 467.1,-25.08 475.99,-30.83 477.64,-24.03"/>
</g>
<!-- Node28 -->
<g id="node28" class="node">
<title>Node28</title>
<g id="a_node28"><a xlink:title=" ">
<polygon fill="white" stroke="#bfbfbf" points="647.5,-6 647.5,-25 700.5,-25 700.5,-6 647.5,-6"/>
<text text-anchor="middle" x="674" y="-13" font-family="Helvetica" font-size="10.00">memory</text>
</a>
</g>
</g>
<!-- Node27&#45;&gt;Node28 -->
<g id="edge34" class="edge">
<title>Node27&#45;&gt;Node28</title>
<path fill="none" stroke="midnightblue" d="M676.6,-72.73C676.15,-63.18 675.44,-47.62 674.87,-35.28"/>
<polygon fill="midnightblue" stroke="midnightblue" points="678.36,-34.96 674.4,-25.13 671.36,-35.28 678.36,-34.96"/>
</g>
<!-- Node29 -->
<g id="node29" class="node">
<title>Node29</title>
<g id="a_node29"><a xlink:title=" ">
<polygon fill="white" stroke="#bfbfbf" points="519,-0.5 519,-30.5 629,-30.5 629,-0.5 519,-0.5"/>
<text text-anchor="start" x="527" y="-18.5" font-family="Helvetica" font-size="10.00">boost/asio/ip/address</text>
<text text-anchor="middle" x="574" y="-7.5" font-family="Helvetica" font-size="10.00">_v4.hpp</text>
</a>
</g>
</g>
<!-- Node27&#45;&gt;Node29 -->
<g id="edge36" class="edge">
<title>Node27&#45;&gt;Node29</title>
<path fill="none" stroke="midnightblue" d="M663.11,-72.73C648.25,-63.36 624.21,-48.19 604.85,-35.97"/>
<polygon fill="midnightblue" stroke="midnightblue" points="606.65,-32.97 596.33,-30.59 602.91,-38.89 606.65,-32.97"/>
</g>
<!-- Node30&#45;&gt;Node4 -->
<g id="edge39" class="edge">
<title>Node30&#45;&gt;Node4</title>
<path fill="none" stroke="midnightblue" d="M838.07,-68.54C841.08,-67.98 844.07,-67.46 847,-67 1022,-39.37 1072.69,-76.19 1244,-31 1246.16,-30.43 1248.35,-29.73 1250.52,-28.94"/>
<polygon fill="midnightblue" stroke="midnightblue" points="1251.88,-32.17 1259.78,-25.12 1249.2,-25.7 1251.88,-32.17"/>
</g>
<!-- Node30&#45;&gt;Node26 -->
<g id="edge45" class="edge">
<title>Node30&#45;&gt;Node26</title>
<path fill="none" stroke="midnightblue" d="M727.88,-68.82C724.88,-68.19 721.9,-67.58 719,-67 626.56,-48.58 602.8,-47.51 510,-31 502.55,-29.68 494.72,-28.26 486.99,-26.86"/>
<polygon fill="midnightblue" stroke="midnightblue" points="487.4,-23.37 476.94,-25.02 486.14,-30.26 487.4,-23.37"/>
</g>
<!-- Node30&#45;&gt;Node28 -->
<g id="edge40" class="edge">
<title>Node30&#45;&gt;Node28</title>
<path fill="none" stroke="midnightblue" d="M759.35,-67.4C740.82,-56.34 715.19,-41.06 696.86,-30.13"/>
<polygon fill="midnightblue" stroke="midnightblue" points="698.65,-27.12 688.27,-25.01 695.06,-33.13 698.65,-27.12"/>
</g>
<!-- Node31 -->
<g id="node31" class="node">
<title>Node31</title>
<g id="a_node31"><a xlink:title=" ">
<polygon fill="white" stroke="#bfbfbf" points="1149,-6 1149,-25 1187,-25 1187,-6 1149,-6"/>
<text text-anchor="middle" x="1168" y="-13" font-family="Helvetica" font-size="10.00">array</text>
</a>
</g>
</g>
<!-- Node30&#45;&gt;Node31 -->
<g id="edge38" class="edge">
<title>Node30&#45;&gt;Node31</title>
<path fill="none" stroke="midnightblue" d="M838.09,-68.65C841.1,-68.06 844.08,-67.51 847,-67 976.25,-44.48 1014.66,-69.78 1140,-31 1141.47,-30.54 1142.96,-30.01 1144.44,-29.43"/>
<polygon fill="midnightblue" stroke="midnightblue" points="1146.29,-32.43 1153.89,-25.05 1143.34,-26.08 1146.29,-32.43"/>
</g>
<!-- Node32 -->
<g id="node32" class="node">
<title>Node32</title>
<g id="a_node32"><a xlink:title=" ">
<polygon fill="white" stroke="#bfbfbf" points="1205,-6 1205,-25 1235,-25 1235,-6 1205,-6"/>
<text text-anchor="middle" x="1220" y="-13" font-family="Helvetica" font-size="10.00">set</text>
</a>
</g>
</g>
<!-- Node30&#45;&gt;Node32 -->
<g id="edge41" class="edge">
<title>Node30&#45;&gt;Node32</title>
<path fill="none" stroke="midnightblue" d="M838.08,-68.58C841.09,-68.01 844.08,-67.48 847,-67 1000.87,-41.73 1048.14,-80.52 1196,-31 1196.89,-30.7 1197.78,-30.37 1198.67,-30"/>
<polygon fill="midnightblue" stroke="midnightblue" points="1200.53,-32.98 1207.81,-25.28 1197.32,-26.76 1200.53,-32.98"/>
</g>
<!-- Node33 -->
<g id="node33" class="node">
<title>Node33</title>
<g id="a_node33"><a xlink:title=" ">
<polygon fill="white" stroke="#bfbfbf" points="719,-6 719,-25 847,-25 847,-6 719,-6"/>
<text text-anchor="middle" x="783" y="-13" font-family="Helvetica" font-size="10.00">boost/asio/io_service.hpp</text>
</a>
</g>
</g>
<!-- Node30&#45;&gt;Node33 -->
<g id="edge42" class="edge">
<title>Node30&#45;&gt;Node33</title>
<path fill="none" stroke="midnightblue" d="M783,-67.4C783,-58.06 783,-45.71 783,-35.52"/>
<polygon fill="midnightblue" stroke="midnightblue" points="786.5,-35.19 783,-25.19 779.5,-35.19 786.5,-35.19"/>
</g>
<!-- Node34 -->
<g id="node34" class="node">
<title>Node34</title>
<g id="a_node34"><a xlink:title=" ">
<polygon fill="white" stroke="#bfbfbf" points="865,-6 865,-25 1005,-25 1005,-6 865,-6"/>
<text text-anchor="middle" x="935" y="-13" font-family="Helvetica" font-size="10.00">boost/asio/steady_timer.hpp</text>
</a>
</g>
</g>
<!-- Node30&#45;&gt;Node34 -->
<g id="edge43" class="edge">
<title>Node30&#45;&gt;Node34</title>
<path fill="none" stroke="midnightblue" d="M815.98,-67.4C842.77,-55.94 880.19,-39.94 905.88,-28.95"/>
<polygon fill="midnightblue" stroke="midnightblue" points="907.29,-32.16 915.11,-25.01 904.54,-25.72 907.29,-32.16"/>
</g>
<!-- Node35 -->
<g id="node35" class="node">
<title>Node35</title>
<g id="a_node35"><a xlink:title=" ">
<polygon fill="white" stroke="#bfbfbf" points="1023.5,-6 1023.5,-25 1130.5,-25 1130.5,-6 1023.5,-6"/>
<text text-anchor="middle" x="1077" y="-13" font-family="Helvetica" font-size="10.00">vsomeip/defines.hpp</text>
</a>
</g>
</g>
<!-- Node30&#45;&gt;Node35 -->
<g id="edge44" class="edge">
<title>Node30&#45;&gt;Node35</title>
<path fill="none" stroke="midnightblue" d="M838.15,-68.97C841.14,-68.3 844.11,-67.64 847,-67 921.14,-50.61 939.89,-47.52 1014,-31 1019.34,-29.81 1024.93,-28.55 1030.48,-27.28"/>
<polygon fill="midnightblue" stroke="midnightblue" points="1031.41,-30.66 1040.37,-25.02 1029.85,-23.84 1031.41,-30.66"/>
</g>
<!-- Node37&#45;&gt;Node20 -->
<g id="edge48" class="edge">
<title>Node37&#45;&gt;Node20</title>
<path fill="none" stroke="midnightblue" d="M430.88,-141.9C361.33,-131.87 234.72,-112.43 191,-98 189.38,-97.47 187.74,-96.86 186.11,-96.19"/>
<polygon fill="midnightblue" stroke="midnightblue" points="187.55,-93 177,-92.03 184.64,-99.37 187.55,-93"/>
</g>
<!-- Node37&#45;&gt;Node21 -->
<g id="edge52" class="edge">
<title>Node37&#45;&gt;Node21</title>
<path fill="none" stroke="midnightblue" d="M442.2,-134.4C412.99,-122.89 372.14,-106.8 344.24,-95.81"/>
<polygon fill="midnightblue" stroke="midnightblue" points="345.18,-92.42 334.59,-92.01 342.62,-98.93 345.18,-92.42"/>
</g>
<!-- Node37&#45;&gt;Node22 -->
<g id="edge51" class="edge">
<title>Node37&#45;&gt;Node22</title>
<path fill="none" stroke="midnightblue" d="M469.54,-134.4C463.64,-124.56 455.73,-111.38 449.44,-100.89"/>
<polygon fill="midnightblue" stroke="midnightblue" points="452.36,-98.97 444.22,-92.19 446.36,-102.57 452.36,-98.97"/>
</g>
<!-- Node37&#45;&gt;Node24 -->
<g id="edge49" class="edge">
<title>Node37&#45;&gt;Node24</title>
<path fill="none" stroke="midnightblue" d="M497.09,-134.4C511.58,-123.7 531.43,-109.03 546.11,-98.19"/>
<polygon fill="midnightblue" stroke="midnightblue" points="548.52,-100.76 554.48,-92.01 544.36,-95.13 548.52,-100.76"/>
</g>
<!-- Node37&#45;&gt;Node26 -->
<g id="edge50" class="edge">
<title>Node37&#45;&gt;Node26</title>
<path fill="none" stroke="midnightblue" d="M486.55,-134.28C495.47,-117.47 506.76,-89 496,-67 488.17,-51 472.54,-38.6 458.58,-30.1"/>
<polygon fill="midnightblue" stroke="midnightblue" points="460.16,-26.97 449.74,-25.07 456.7,-33.06 460.16,-26.97"/>
</g>
</g>
</svg>
