<?xml version="1.0" encoding="UTF-8" standalone="no"?>
<!DOCTYPE svg PUBLIC "-//W3C//DTD SVG 1.1//EN"
 "http://www.w3.org/Graphics/SVG/1.1/DTD/svg11.dtd">
<!-- Generated by graphviz version 2.44.0 (0)
 -->
<!-- Title: /home/ec2&#45;user/workspace/vsomeip/implementation/e2e_protection/src/crc/crc.cpp Pages: 1 -->
<svg width="328pt" height="229pt"
 viewBox="0.00 0.00 328.00 229.00" xmlns="http://www.w3.org/2000/svg" xmlns:xlink="http://www.w3.org/1999/xlink">
<g id="graph0" class="graph" transform="scale(1 1) rotate(0) translate(4 225)">
<title>/home/ec2&#45;user/workspace/vsomeip/implementation/e2e_protection/src/crc/crc.cpp</title>
<polygon fill="white" stroke="transparent" points="-4,4 -4,-225 324,-225 324,4 -4,4"/>
<!-- Node1 -->
<g id="node1" class="node">
<title>Node1</title>
<g id="a_node1"><a xlink:title=" ">
<polygon fill="#bfbfbf" stroke="black" points="131,-168.5 131,-220.5 265,-220.5 265,-168.5 131,-168.5"/>
<text text-anchor="start" x="139" y="-208.5" font-family="Helvetica" font-size="10.00">/home/ec2&#45;user/workspace</text>
<text text-anchor="start" x="139" y="-197.5" font-family="Helvetica" font-size="10.00">/vsomeip/implementation</text>
<text text-anchor="start" x="139" y="-186.5" font-family="Helvetica" font-size="10.00">/e2e_protection/src/crc</text>
<text text-anchor="middle" x="198" y="-175.5" font-family="Helvetica" font-size="10.00">/crc.cpp</text>
</a>
</g>
</g>
<!-- Node2 -->
<g id="node2" class="node">
<title>Node2</title>
<g id="a_node2"><a xlink:href="crc_8hpp.html" target="_top" xlink:title=" ">
<polygon fill="white" stroke="black" points="2.5,-112.5 2.5,-131.5 119.5,-131.5 119.5,-112.5 2.5,-112.5"/>
<text text-anchor="middle" x="61" y="-119.5" font-family="Helvetica" font-size="10.00">../../include/crc/crc.hpp</text>
</a>
</g>
</g>
<!-- Node1&#45;&gt;Node2 -->
<g id="edge1" class="edge">
<title>Node1&#45;&gt;Node2</title>
<path fill="none" stroke="midnightblue" d="M149.31,-168.45C128.16,-157.56 104.24,-145.25 86.64,-136.2"/>
<polygon fill="midnightblue" stroke="midnightblue" points="88.06,-132.99 77.57,-131.53 84.86,-139.21 88.06,-132.99"/>
</g>
<!-- Node8 -->
<g id="node8" class="node">
<title>Node8</title>
<g id="a_node8"><a xlink:title=" ">
<polygon fill="white" stroke="#bfbfbf" points="138,-112.5 138,-131.5 192,-131.5 192,-112.5 138,-112.5"/>
<text text-anchor="middle" x="165" y="-119.5" font-family="Helvetica" font-size="10.00">iostream</text>
</a>
</g>
</g>
<!-- Node1&#45;&gt;Node8 -->
<g id="edge8" class="edge">
<title>Node1&#45;&gt;Node8</title>
<path fill="none" stroke="midnightblue" d="M186.27,-168.45C182.01,-159.33 177.27,-149.22 173.36,-140.85"/>
<polygon fill="midnightblue" stroke="midnightblue" points="176.48,-139.27 169.07,-131.7 170.14,-142.24 176.48,-139.27"/>
</g>
<!-- Node9 -->
<g id="node9" class="node">
<title>Node9</title>
<g id="a_node9"><a xlink:title=" ">
<polygon fill="white" stroke="#bfbfbf" points="210.5,-112.5 210.5,-131.5 251.5,-131.5 251.5,-112.5 210.5,-112.5"/>
<text text-anchor="middle" x="231" y="-119.5" font-family="Helvetica" font-size="10.00">string</text>
</a>
</g>
</g>
<!-- Node1&#45;&gt;Node9 -->
<g id="edge9" class="edge">
<title>Node1&#45;&gt;Node9</title>
<path fill="none" stroke="midnightblue" d="M209.73,-168.45C213.99,-159.33 218.73,-149.22 222.64,-140.85"/>
<polygon fill="midnightblue" stroke="midnightblue" points="225.86,-142.24 226.93,-131.7 219.52,-139.27 225.86,-142.24"/>
</g>
<!-- Node10 -->
<g id="node10" class="node">
<title>Node10</title>
<g id="a_node10"><a xlink:title=" ">
<polygon fill="white" stroke="#bfbfbf" points="270,-112.5 270,-131.5 320,-131.5 320,-112.5 270,-112.5"/>
<text text-anchor="middle" x="295" y="-119.5" font-family="Helvetica" font-size="10.00">iomanip</text>
</a>
</g>
</g>
<!-- Node1&#45;&gt;Node10 -->
<g id="edge10" class="edge">
<title>Node1&#45;&gt;Node10</title>
<path fill="none" stroke="midnightblue" d="M232.47,-168.45C246.67,-158.13 262.62,-146.53 274.86,-137.64"/>
<polygon fill="midnightblue" stroke="midnightblue" points="277,-140.41 283.04,-131.7 272.89,-134.74 277,-140.41"/>
</g>
<!-- Node3 -->
<g id="node3" class="node">
<title>Node3</title>
<g id="a_node3"><a xlink:title=" ">
<polygon fill="white" stroke="#bfbfbf" points="0,-0.5 0,-19.5 46,-19.5 46,-0.5 0,-0.5"/>
<text text-anchor="middle" x="23" y="-7.5" font-family="Helvetica" font-size="10.00">cstdint</text>
</a>
</g>
</g>
<!-- Node2&#45;&gt;Node3 -->
<g id="edge2" class="edge">
<title>Node2&#45;&gt;Node3</title>
<path fill="none" stroke="midnightblue" d="M57.06,-112.49C52.99,-103.53 46.61,-88.94 42,-76 36.46,-60.42 31.27,-42.35 27.72,-29.22"/>
<polygon fill="midnightblue" stroke="midnightblue" points="31.1,-28.29 25.15,-19.51 24.33,-30.08 31.1,-28.29"/>
</g>
<!-- Node4 -->
<g id="node4" class="node">
<title>Node4</title>
<g id="a_node4"><a xlink:href="e2e__protection_2include_2buffer_2buffer_8hpp.html" target="_top" xlink:title=" ">
<polygon fill="white" stroke="black" points="51.5,-56.5 51.5,-75.5 146.5,-75.5 146.5,-56.5 51.5,-56.5"/>
<text text-anchor="middle" x="99" y="-63.5" font-family="Helvetica" font-size="10.00">../buffer/buffer.hpp</text>
</a>
</g>
</g>
<!-- Node2&#45;&gt;Node4 -->
<g id="edge3" class="edge">
<title>Node2&#45;&gt;Node4</title>
<path fill="none" stroke="midnightblue" d="M67.27,-112.08C72.64,-104.46 80.52,-93.26 87.08,-83.94"/>
<polygon fill="midnightblue" stroke="midnightblue" points="89.95,-85.94 92.84,-75.75 84.22,-81.91 89.95,-85.94"/>
</g>
<!-- Node4&#45;&gt;Node3 -->
<g id="edge5" class="edge">
<title>Node4&#45;&gt;Node3</title>
<path fill="none" stroke="midnightblue" d="M86.79,-56.32C75.22,-48.11 57.62,-35.6 43.84,-25.81"/>
<polygon fill="midnightblue" stroke="midnightblue" points="45.61,-22.77 35.43,-19.83 41.56,-28.48 45.61,-22.77"/>
</g>
<!-- Node5 -->
<g id="node5" class="node">
<title>Node5</title>
<g id="a_node5"><a xlink:title=" ">
<polygon fill="white" stroke="#bfbfbf" points="64.5,-0.5 64.5,-19.5 123.5,-19.5 123.5,-0.5 64.5,-0.5"/>
<text text-anchor="middle" x="94" y="-7.5" font-family="Helvetica" font-size="10.00">stdexcept</text>
</a>
</g>
</g>
<!-- Node4&#45;&gt;Node5 -->
<g id="edge4" class="edge">
<title>Node4&#45;&gt;Node5</title>
<path fill="none" stroke="midnightblue" d="M98.17,-56.08C97.52,-49.01 96.58,-38.86 95.76,-29.99"/>
<polygon fill="midnightblue" stroke="midnightblue" points="99.22,-29.39 94.81,-19.75 92.25,-30.03 99.22,-29.39"/>
</g>
<!-- Node6 -->
<g id="node6" class="node">
<title>Node6</title>
<g id="a_node6"><a xlink:title=" ">
<polygon fill="white" stroke="#bfbfbf" points="142,-0.5 142,-19.5 194,-19.5 194,-0.5 142,-0.5"/>
<text text-anchor="middle" x="168" y="-7.5" font-family="Helvetica" font-size="10.00">ostream</text>
</a>
</g>
</g>
<!-- Node4&#45;&gt;Node6 -->
<g id="edge6" class="edge">
<title>Node4&#45;&gt;Node6</title>
<path fill="none" stroke="midnightblue" d="M110.09,-56.32C120.49,-48.18 136.26,-35.84 148.72,-26.09"/>
<polygon fill="midnightblue" stroke="midnightblue" points="150.99,-28.75 156.71,-19.83 146.68,-23.24 150.99,-28.75"/>
</g>
<!-- Node7 -->
<g id="node7" class="node">
<title>Node7</title>
<g id="a_node7"><a xlink:title=" ">
<polygon fill="white" stroke="#bfbfbf" points="212.5,-0.5 212.5,-19.5 255.5,-19.5 255.5,-0.5 212.5,-0.5"/>
<text text-anchor="middle" x="234" y="-7.5" font-family="Helvetica" font-size="10.00">vector</text>
</a>
</g>
</g>
<!-- Node4&#45;&gt;Node7 -->
<g id="edge7" class="edge">
<title>Node4&#45;&gt;Node7</title>
<path fill="none" stroke="midnightblue" d="M120.39,-56.44C142.71,-47.52 177.9,-33.44 203.21,-23.32"/>
<polygon fill="midnightblue" stroke="midnightblue" points="204.72,-26.48 212.71,-19.52 202.12,-19.98 204.72,-26.48"/>
</g>
</g>
</svg>
