<?xml version="1.0" encoding="UTF-8" standalone="no"?>
<!DOCTYPE svg PUBLIC "-//W3C//DTD SVG 1.1//EN"
 "http://www.w3.org/Graphics/SVG/1.1/DTD/svg11.dtd">
<!-- Generated by graphviz version 2.44.0 (0)
 -->
<!-- Title: /home/ec2&#45;user/workspace/vsomeip/implementation/e2e_protection/include/crc/crc.hpp Pages: 1 -->
<svg width="270pt" height="173pt"
 viewBox="0.00 0.00 269.50 173.00" xmlns="http://www.w3.org/2000/svg" xmlns:xlink="http://www.w3.org/1999/xlink">
<g id="graph0" class="graph" transform="scale(1 1) rotate(0) translate(4 169)">
<title>/home/ec2&#45;user/workspace/vsomeip/implementation/e2e_protection/include/crc/crc.hpp</title>
<polygon fill="white" stroke="transparent" points="-4,4 -4,-169 265.5,-169 265.5,4 -4,4"/>
<!-- Node1 -->
<g id="node1" class="node">
<title>Node1</title>
<g id="a_node1"><a xlink:title=" ">
<polygon fill="#bfbfbf" stroke="black" points="0,-112.5 0,-164.5 134,-164.5 134,-112.5 0,-112.5"/>
<text text-anchor="start" x="8" y="-152.5" font-family="Helvetica" font-size="10.00">/home/ec2&#45;user/workspace</text>
<text text-anchor="start" x="8" y="-141.5" font-family="Helvetica" font-size="10.00">/vsomeip/implementation</text>
<text text-anchor="start" x="8" y="-130.5" font-family="Helvetica" font-size="10.00">/e2e_protection/include</text>
<text text-anchor="middle" x="67" y="-119.5" font-family="Helvetica" font-size="10.00">/crc/crc.hpp</text>
</a>
</g>
</g>
<!-- Node2 -->
<g id="node2" class="node">
<title>Node2</title>
<g id="a_node2"><a xlink:title=" ">
<polygon fill="white" stroke="#bfbfbf" points="6,-0.5 6,-19.5 52,-19.5 52,-0.5 6,-0.5"/>
<text text-anchor="middle" x="29" y="-7.5" font-family="Helvetica" font-size="10.00">cstdint</text>
</a>
</g>
</g>
<!-- Node1&#45;&gt;Node2 -->
<g id="edge1" class="edge">
<title>Node1&#45;&gt;Node2</title>
<path fill="none" stroke="midnightblue" d="M59.15,-112.39C55.69,-101.26 51.6,-87.99 48,-76 43.29,-60.34 38.09,-42.52 34.33,-29.5"/>
<polygon fill="midnightblue" stroke="midnightblue" points="37.68,-28.48 31.54,-19.84 30.95,-30.42 37.68,-28.48"/>
</g>
<!-- Node3 -->
<g id="node3" class="node">
<title>Node3</title>
<g id="a_node3"><a xlink:href="e2e__protection_2include_2buffer_2buffer_8hpp.html" target="_top" xlink:title=" ">
<polygon fill="white" stroke="black" points="57.5,-56.5 57.5,-75.5 152.5,-75.5 152.5,-56.5 57.5,-56.5"/>
<text text-anchor="middle" x="105" y="-63.5" font-family="Helvetica" font-size="10.00">../buffer/buffer.hpp</text>
</a>
</g>
</g>
<!-- Node1&#45;&gt;Node3 -->
<g id="edge2" class="edge">
<title>Node1&#45;&gt;Node3</title>
<path fill="none" stroke="midnightblue" d="M80.5,-112.45C85.47,-103.23 90.99,-93 95.53,-84.58"/>
<polygon fill="midnightblue" stroke="midnightblue" points="98.65,-86.16 100.31,-75.7 92.49,-82.84 98.65,-86.16"/>
</g>
<!-- Node3&#45;&gt;Node2 -->
<g id="edge4" class="edge">
<title>Node3&#45;&gt;Node2</title>
<path fill="none" stroke="midnightblue" d="M92.79,-56.32C81.22,-48.11 63.62,-35.6 49.84,-25.81"/>
<polygon fill="midnightblue" stroke="midnightblue" points="51.61,-22.77 41.43,-19.83 47.56,-28.48 51.61,-22.77"/>
</g>
<!-- Node4 -->
<g id="node4" class="node">
<title>Node4</title>
<g id="a_node4"><a xlink:title=" ">
<polygon fill="white" stroke="#bfbfbf" points="70.5,-0.5 70.5,-19.5 129.5,-19.5 129.5,-0.5 70.5,-0.5"/>
<text text-anchor="middle" x="100" y="-7.5" font-family="Helvetica" font-size="10.00">stdexcept</text>
</a>
</g>
</g>
<!-- Node3&#45;&gt;Node4 -->
<g id="edge3" class="edge">
<title>Node3&#45;&gt;Node4</title>
<path fill="none" stroke="midnightblue" d="M104.17,-56.08C103.52,-49.01 102.58,-38.86 101.76,-29.99"/>
<polygon fill="midnightblue" stroke="midnightblue" points="105.22,-29.39 100.81,-19.75 98.25,-30.03 105.22,-29.39"/>
</g>
<!-- Node5 -->
<g id="node5" class="node">
<title>Node5</title>
<g id="a_node5"><a xlink:title=" ">
<polygon fill="white" stroke="#bfbfbf" points="148,-0.5 148,-19.5 200,-19.5 200,-0.5 148,-0.5"/>
<text text-anchor="middle" x="174" y="-7.5" font-family="Helvetica" font-size="10.00">ostream</text>
</a>
</g>
</g>
<!-- Node3&#45;&gt;Node5 -->
<g id="edge5" class="edge">
<title>Node3&#45;&gt;Node5</title>
<path fill="none" stroke="midnightblue" d="M116.09,-56.32C126.49,-48.18 142.26,-35.84 154.72,-26.09"/>
<polygon fill="midnightblue" stroke="midnightblue" points="156.99,-28.75 162.71,-19.83 152.68,-23.24 156.99,-28.75"/>
</g>
<!-- Node6 -->
<g id="node6" class="node">
<title>Node6</title>
<g id="a_node6"><a xlink:title=" ">
<polygon fill="white" stroke="#bfbfbf" points="218.5,-0.5 218.5,-19.5 261.5,-19.5 261.5,-0.5 218.5,-0.5"/>
<text text-anchor="middle" x="240" y="-7.5" font-family="Helvetica" font-size="10.00">vector</text>
</a>
</g>
</g>
<!-- Node3&#45;&gt;Node6 -->
<g id="edge6" class="edge">
<title>Node3&#45;&gt;Node6</title>
<path fill="none" stroke="midnightblue" d="M126.39,-56.44C148.71,-47.52 183.9,-33.44 209.21,-23.32"/>
<polygon fill="midnightblue" stroke="midnightblue" points="210.72,-26.48 218.71,-19.52 208.12,-19.98 210.72,-26.48"/>
</g>
</g>
</svg>
