<?xml version="1.0" encoding="UTF-8" standalone="no"?>
<!DOCTYPE svg PUBLIC "-//W3C//DTD SVG 1.1//EN"
 "http://www.w3.org/Graphics/SVG/1.1/DTD/svg11.dtd">
<!-- Generated by graphviz version 2.44.0 (0)
 -->
<!-- Title: /home/ec2&#45;user/workspace/vsomeip/implementation/e2e_protection/include/crc/crc.hpp Pages: 1 -->
<svg width="971pt" height="161pt"
 viewBox="0.00 0.00 971.00 161.00" xmlns="http://www.w3.org/2000/svg" xmlns:xlink="http://www.w3.org/1999/xlink">
<g id="graph0" class="graph" transform="scale(1 1) rotate(0) translate(4 157)">
<title>/home/ec2&#45;user/workspace/vsomeip/implementation/e2e_protection/include/crc/crc.hpp</title>
<polygon fill="white" stroke="transparent" points="-4,4 -4,-157 967,-157 967,4 -4,4"/>
<!-- Node1 -->
<g id="node1" class="node">
<title>Node1</title>
<g id="a_node1"><a xlink:title=" ">
<polygon fill="#bfbfbf" stroke="black" points="410,-100.5 410,-152.5 544,-152.5 544,-100.5 410,-100.5"/>
<text text-anchor="start" x="418" y="-140.5" font-family="Helvetica" font-size="10.00">/home/ec2&#45;user/workspace</text>
<text text-anchor="start" x="418" y="-129.5" font-family="Helvetica" font-size="10.00">/vsomeip/implementation</text>
<text text-anchor="start" x="418" y="-118.5" font-family="Helvetica" font-size="10.00">/e2e_protection/include</text>
<text text-anchor="middle" x="477" y="-107.5" font-family="Helvetica" font-size="10.00">/crc/crc.hpp</text>
</a>
</g>
</g>
<!-- Node2 -->
<g id="node2" class="node">
<title>Node2</title>
<g id="a_node2"><a xlink:href="crc_8cpp.html" target="_top" xlink:title=" ">
<polygon fill="white" stroke="black" points="0,-6 0,-58 134,-58 134,-6 0,-6"/>
<text text-anchor="start" x="8" y="-46" font-family="Helvetica" font-size="10.00">/home/ec2&#45;user/workspace</text>
<text text-anchor="start" x="8" y="-35" font-family="Helvetica" font-size="10.00">/vsomeip/implementation</text>
<text text-anchor="start" x="8" y="-24" font-family="Helvetica" font-size="10.00">/e2e_protection/src/crc</text>
<text text-anchor="middle" x="67" y="-13" font-family="Helvetica" font-size="10.00">/crc.cpp</text>
</a>
</g>
</g>
<!-- Node1&#45;&gt;Node2 -->
<g id="edge1" class="edge">
<title>Node1&#45;&gt;Node2</title>
<path fill="none" stroke="midnightblue" d="M399.58,-115.84C331.2,-106.23 229.25,-89.24 143,-64 137.12,-62.28 131.07,-60.26 125.07,-58.1"/>
<polygon fill="midnightblue" stroke="midnightblue" points="399.45,-119.36 409.84,-117.26 400.41,-112.42 399.45,-119.36"/>
</g>
<!-- Node3 -->
<g id="node3" class="node">
<title>Node3</title>
<g id="a_node3"><a xlink:href="profile__01_8cpp.html" target="_top" xlink:title=" ">
<polygon fill="white" stroke="black" points="152.5,-6 152.5,-58 301.5,-58 301.5,-6 152.5,-6"/>
<text text-anchor="start" x="160.5" y="-46" font-family="Helvetica" font-size="10.00">/home/ec2&#45;user/workspace</text>
<text text-anchor="start" x="160.5" y="-35" font-family="Helvetica" font-size="10.00">/vsomeip/implementation</text>
<text text-anchor="start" x="160.5" y="-24" font-family="Helvetica" font-size="10.00">/e2e_protection/src/e2e</text>
<text text-anchor="middle" x="227" y="-13" font-family="Helvetica" font-size="10.00">/profile/profile01/profile_01.cpp</text>
</a>
</g>
</g>
<!-- Node1&#45;&gt;Node3 -->
<g id="edge2" class="edge">
<title>Node1&#45;&gt;Node3</title>
<path fill="none" stroke="midnightblue" d="M400.46,-97.4C372.04,-86.94 339.54,-74.96 310,-64 304.81,-62.07 299.43,-60.08 294.03,-58.07"/>
<polygon fill="midnightblue" stroke="midnightblue" points="399.34,-100.71 409.93,-100.88 401.76,-94.15 399.34,-100.71"/>
</g>
<!-- Node4 -->
<g id="node4" class="node">
<title>Node4</title>
<g id="a_node4"><a xlink:href="profile__04_8cpp.html" target="_top" xlink:title=" ">
<polygon fill="white" stroke="black" points="319.5,-6 319.5,-58 468.5,-58 468.5,-6 319.5,-6"/>
<text text-anchor="start" x="327.5" y="-46" font-family="Helvetica" font-size="10.00">/home/ec2&#45;user/workspace</text>
<text text-anchor="start" x="327.5" y="-35" font-family="Helvetica" font-size="10.00">/vsomeip/implementation</text>
<text text-anchor="start" x="327.5" y="-24" font-family="Helvetica" font-size="10.00">/e2e_protection/src/e2e</text>
<text text-anchor="middle" x="394" y="-13" font-family="Helvetica" font-size="10.00">/profile/profile04/profile_04.cpp</text>
</a>
</g>
</g>
<!-- Node1&#45;&gt;Node4 -->
<g id="edge3" class="edge">
<title>Node1&#45;&gt;Node4</title>
<path fill="none" stroke="midnightblue" d="M447.5,-92.62C437.35,-81.32 426.16,-68.85 416.65,-58.25"/>
<polygon fill="midnightblue" stroke="midnightblue" points="445.04,-95.12 454.32,-100.22 450.25,-90.44 445.04,-95.12"/>
</g>
<!-- Node5 -->
<g id="node5" class="node">
<title>Node5</title>
<g id="a_node5"><a xlink:href="profile__05_8cpp.html" target="_top" xlink:title=" ">
<polygon fill="white" stroke="black" points="486.5,-6 486.5,-58 635.5,-58 635.5,-6 486.5,-6"/>
<text text-anchor="start" x="494.5" y="-46" font-family="Helvetica" font-size="10.00">/home/ec2&#45;user/workspace</text>
<text text-anchor="start" x="494.5" y="-35" font-family="Helvetica" font-size="10.00">/vsomeip/implementation</text>
<text text-anchor="start" x="494.5" y="-24" font-family="Helvetica" font-size="10.00">/e2e_protection/src/e2e</text>
<text text-anchor="middle" x="561" y="-13" font-family="Helvetica" font-size="10.00">/profile/profile05/profile_05.cpp</text>
</a>
</g>
</g>
<!-- Node1&#45;&gt;Node5 -->
<g id="edge4" class="edge">
<title>Node1&#45;&gt;Node5</title>
<path fill="none" stroke="midnightblue" d="M506.86,-92.62C517.12,-81.32 528.45,-68.85 538.07,-58.25"/>
<polygon fill="midnightblue" stroke="midnightblue" points="504.09,-90.47 499.95,-100.22 509.27,-95.17 504.09,-90.47"/>
</g>
<!-- Node6 -->
<g id="node6" class="node">
<title>Node6</title>
<g id="a_node6"><a xlink:href="profile__07_8cpp.html" target="_top" xlink:title=" ">
<polygon fill="white" stroke="black" points="653.5,-6 653.5,-58 802.5,-58 802.5,-6 653.5,-6"/>
<text text-anchor="start" x="661.5" y="-46" font-family="Helvetica" font-size="10.00">/home/ec2&#45;user/workspace</text>
<text text-anchor="start" x="661.5" y="-35" font-family="Helvetica" font-size="10.00">/vsomeip/implementation</text>
<text text-anchor="start" x="661.5" y="-24" font-family="Helvetica" font-size="10.00">/e2e_protection/src/e2e</text>
<text text-anchor="middle" x="728" y="-13" font-family="Helvetica" font-size="10.00">/profile/profile07/profile_07.cpp</text>
</a>
</g>
</g>
<!-- Node1&#45;&gt;Node6 -->
<g id="edge5" class="edge">
<title>Node1&#45;&gt;Node6</title>
<path fill="none" stroke="midnightblue" d="M553.63,-97.57C582.31,-87.08 615.16,-75.03 645,-64 650.19,-62.08 655.57,-60.09 660.97,-58.08"/>
<polygon fill="midnightblue" stroke="midnightblue" points="552.26,-94.34 544.07,-101.06 554.67,-100.92 552.26,-94.34"/>
</g>
<!-- Node7 -->
<g id="node7" class="node">
<title>Node7</title>
<g id="a_node7"><a xlink:href="profile__custom_8cpp.html" target="_top" xlink:title=" ">
<polygon fill="white" stroke="black" points="821,-0.5 821,-63.5 963,-63.5 963,-0.5 821,-0.5"/>
<text text-anchor="start" x="829" y="-51.5" font-family="Helvetica" font-size="10.00">/home/ec2&#45;user/workspace</text>
<text text-anchor="start" x="829" y="-40.5" font-family="Helvetica" font-size="10.00">/vsomeip/implementation</text>
<text text-anchor="start" x="829" y="-29.5" font-family="Helvetica" font-size="10.00">/e2e_protection/src/e2e</text>
<text text-anchor="start" x="829" y="-18.5" font-family="Helvetica" font-size="10.00">/profile/profile_custom/profile</text>
<text text-anchor="middle" x="892" y="-7.5" font-family="Helvetica" font-size="10.00">_custom.cpp</text>
</a>
</g>
</g>
<!-- Node1&#45;&gt;Node7 -->
<g id="edge6" class="edge">
<title>Node1&#45;&gt;Node7</title>
<path fill="none" stroke="midnightblue" d="M554.55,-115.49C623.06,-105.65 725.27,-88.53 812,-64 814.87,-63.19 817.77,-62.32 820.7,-61.39"/>
<polygon fill="midnightblue" stroke="midnightblue" points="553.68,-112.08 544.27,-116.95 554.66,-119.01 553.68,-112.08"/>
</g>
</g>
</svg>
