<?xml version="1.0" encoding="UTF-8" standalone="no"?>
<!DOCTYPE svg PUBLIC "-//W3C//DTD SVG 1.1//EN"
 "http://www.w3.org/Graphics/SVG/1.1/DTD/svg11.dtd">
<!-- Generated by graphviz version 2.44.0 (0)
 -->
<!-- Title: /home/ec2&#45;user/workspace/vsomeip/implementation/endpoints/include/credentials.hpp Pages: 1 -->
<svg width="318pt" height="106pt"
 viewBox="0.00 0.00 318.00 106.00" xmlns="http://www.w3.org/2000/svg" xmlns:xlink="http://www.w3.org/1999/xlink">
<g id="graph0" class="graph" transform="scale(1 1) rotate(0) translate(4 102)">
<title>/home/ec2&#45;user/workspace/vsomeip/implementation/endpoints/include/credentials.hpp</title>
<polygon fill="white" stroke="transparent" points="-4,4 -4,-102 314,-102 314,4 -4,4"/>
<!-- Node1 -->
<g id="node1" class="node">
<title>Node1</title>
<g id="a_node1"><a xlink:title=" ">
<polygon fill="#bfbfbf" stroke="black" points="22,-56.5 22,-97.5 186,-97.5 186,-56.5 22,-56.5"/>
<text text-anchor="start" x="30" y="-85.5" font-family="Helvetica" font-size="10.00">/home/ec2&#45;user/workspace</text>
<text text-anchor="start" x="30" y="-74.5" font-family="Helvetica" font-size="10.00">/vsomeip/implementation</text>
<text text-anchor="middle" x="104" y="-63.5" font-family="Helvetica" font-size="10.00">/endpoints/include/credentials.hpp</text>
</a>
</g>
</g>
<!-- Node2 -->
<g id="node2" class="node">
<title>Node2</title>
<g id="a_node2"><a xlink:title=" ">
<polygon fill="white" stroke="#bfbfbf" points="0,-0.5 0,-19.5 38,-19.5 38,-0.5 0,-0.5"/>
<text text-anchor="middle" x="19" y="-7.5" font-family="Helvetica" font-size="10.00">tuple</text>
</a>
</g>
</g>
<!-- Node1&#45;&gt;Node2 -->
<g id="edge1" class="edge">
<title>Node1&#45;&gt;Node2</title>
<path fill="none" stroke="midnightblue" d="M78.5,-56.5C65.59,-46.63 50.18,-34.84 38.28,-25.74"/>
<polygon fill="midnightblue" stroke="midnightblue" points="40.38,-22.95 30.31,-19.65 36.13,-28.51 40.38,-22.95"/>
</g>
<!-- Node3 -->
<g id="node3" class="node">
<title>Node3</title>
<g id="a_node3"><a xlink:title=" ">
<polygon fill="white" stroke="#bfbfbf" points="56,-0.5 56,-19.5 152,-19.5 152,-0.5 56,-0.5"/>
<text text-anchor="middle" x="104" y="-7.5" font-family="Helvetica" font-size="10.00">boost/optional.hpp</text>
</a>
</g>
</g>
<!-- Node1&#45;&gt;Node3 -->
<g id="edge2" class="edge">
<title>Node1&#45;&gt;Node3</title>
<path fill="none" stroke="midnightblue" d="M104,-56.5C104,-48.07 104,-38.24 104,-29.87"/>
<polygon fill="midnightblue" stroke="midnightblue" points="107.5,-29.65 104,-19.65 100.5,-29.65 107.5,-29.65"/>
</g>
<!-- Node4 -->
<g id="node4" class="node">
<title>Node4</title>
<g id="a_node4"><a xlink:title=" ">
<polygon fill="white" stroke="#bfbfbf" points="170,-0.5 170,-19.5 310,-19.5 310,-0.5 170,-0.5"/>
<text text-anchor="middle" x="240" y="-7.5" font-family="Helvetica" font-size="10.00">vsomeip/primitive_types.hpp</text>
</a>
</g>
</g>
<!-- Node1&#45;&gt;Node4 -->
<g id="edge3" class="edge">
<title>Node1&#45;&gt;Node4</title>
<path fill="none" stroke="midnightblue" d="M144.8,-56.5C166.76,-46.01 193.24,-33.35 212.69,-24.05"/>
<polygon fill="midnightblue" stroke="midnightblue" points="214.38,-27.12 221.9,-19.65 211.36,-20.81 214.38,-27.12"/>
</g>
</g>
</svg>
