<?xml version="1.0" encoding="UTF-8" standalone="no"?>
<!DOCTYPE svg PUBLIC "-//W3C//DTD SVG 1.1//EN"
 "http://www.w3.org/Graphics/SVG/1.1/DTD/svg11.dtd">
<!-- Generated by graphviz version 2.44.0 (0)
 -->
<!-- Title: /home/ec2&#45;user/workspace/vsomeip/implementation/endpoints/include/credentials.hpp Pages: 1 -->
<svg width="294pt" height="139pt"
 viewBox="0.00 0.00 294.00 139.00" xmlns="http://www.w3.org/2000/svg" xmlns:xlink="http://www.w3.org/1999/xlink">
<g id="graph0" class="graph" transform="scale(1 1) rotate(0) translate(4 135)">
<title>/home/ec2&#45;user/workspace/vsomeip/implementation/endpoints/include/credentials.hpp</title>
<polygon fill="white" stroke="transparent" points="-4,4 -4,-135 290,-135 290,4 -4,4"/>
<!-- Node1 -->
<g id="node1" class="node">
<title>Node1</title>
<g id="a_node1"><a xlink:title=" ">
<polygon fill="#bfbfbf" stroke="black" points="61,-89.5 61,-130.5 225,-130.5 225,-89.5 61,-89.5"/>
<text text-anchor="start" x="69" y="-118.5" font-family="Helvetica" font-size="10.00">/home/ec2&#45;user/workspace</text>
<text text-anchor="start" x="69" y="-107.5" font-family="Helvetica" font-size="10.00">/vsomeip/implementation</text>
<text text-anchor="middle" x="143" y="-96.5" font-family="Helvetica" font-size="10.00">/endpoints/include/credentials.hpp</text>
</a>
</g>
</g>
<!-- Node2 -->
<g id="node2" class="node">
<title>Node2</title>
<g id="a_node2"><a xlink:href="local__uds__client__endpoint__impl_8cpp.html" target="_top" xlink:title=" ">
<polygon fill="white" stroke="black" points="0,-0.5 0,-52.5 134,-52.5 134,-0.5 0,-0.5"/>
<text text-anchor="start" x="8" y="-40.5" font-family="Helvetica" font-size="10.00">/home/ec2&#45;user/workspace</text>
<text text-anchor="start" x="8" y="-29.5" font-family="Helvetica" font-size="10.00">/vsomeip/implementation</text>
<text text-anchor="start" x="8" y="-18.5" font-family="Helvetica" font-size="10.00">/endpoints/src/local_uds</text>
<text text-anchor="middle" x="67" y="-7.5" font-family="Helvetica" font-size="10.00">_client_endpoint_impl.cpp</text>
</a>
</g>
</g>
<!-- Node1&#45;&gt;Node2 -->
<g id="edge1" class="edge">
<title>Node1&#45;&gt;Node2</title>
<path fill="none" stroke="midnightblue" d="M117.53,-81.68C108.76,-72.29 99,-61.82 90.41,-52.61"/>
<polygon fill="midnightblue" stroke="midnightblue" points="115.22,-84.34 124.6,-89.27 120.34,-79.57 115.22,-84.34"/>
</g>
<!-- Node3 -->
<g id="node3" class="node">
<title>Node3</title>
<g id="a_node3"><a xlink:href="local__uds__server__endpoint__impl_8cpp.html" target="_top" xlink:title=" ">
<polygon fill="white" stroke="black" points="152,-0.5 152,-52.5 286,-52.5 286,-0.5 152,-0.5"/>
<text text-anchor="start" x="160" y="-40.5" font-family="Helvetica" font-size="10.00">/home/ec2&#45;user/workspace</text>
<text text-anchor="start" x="160" y="-29.5" font-family="Helvetica" font-size="10.00">/vsomeip/implementation</text>
<text text-anchor="start" x="160" y="-18.5" font-family="Helvetica" font-size="10.00">/endpoints/src/local_uds</text>
<text text-anchor="middle" x="219" y="-7.5" font-family="Helvetica" font-size="10.00">_server_endpoint_impl.cpp</text>
</a>
</g>
</g>
<!-- Node1&#45;&gt;Node3 -->
<g id="edge2" class="edge">
<title>Node1&#45;&gt;Node3</title>
<path fill="none" stroke="midnightblue" d="M168.47,-81.68C177.24,-72.29 187,-61.82 195.59,-52.61"/>
<polygon fill="midnightblue" stroke="midnightblue" points="165.66,-79.57 161.4,-89.27 170.78,-84.34 165.66,-79.57"/>
</g>
</g>
</svg>
