<?xml version="1.0" encoding="UTF-8" standalone="no"?>
<!DOCTYPE svg PUBLIC "-//W3C//DTD SVG 1.1//EN"
 "http://www.w3.org/Graphics/SVG/1.1/DTD/svg11.dtd">
<!-- Generated by graphviz version 2.44.0 (0)
 -->
<!-- Title: /home/ec2&#45;user/workspace/vsomeip/implementation/utility/include/criticalsection.hpp Pages: 1 -->
<svg width="2954pt" height="217pt"
 viewBox="0.00 0.00 2954.00 217.00" xmlns="http://www.w3.org/2000/svg" xmlns:xlink="http://www.w3.org/1999/xlink">
<g id="graph0" class="graph" transform="scale(1 1) rotate(0) translate(4 213)">
<title>/home/ec2&#45;user/workspace/vsomeip/implementation/utility/include/criticalsection.hpp</title>
<polygon fill="white" stroke="transparent" points="-4,4 -4,-213 2950,-213 2950,4 -4,4"/>
<!-- Node1 -->
<g id="node1" class="node">
<title>Node1</title>
<g id="a_node1"><a xlink:title=" ">
<polygon fill="#bfbfbf" stroke="black" points="1478,-167.5 1478,-208.5 1636,-208.5 1636,-167.5 1478,-167.5"/>
<text text-anchor="start" x="1486" y="-196.5" font-family="Helvetica" font-size="10.00">/home/ec2&#45;user/workspace</text>
<text text-anchor="start" x="1486" y="-185.5" font-family="Helvetica" font-size="10.00">/vsomeip/implementation</text>
<text text-anchor="middle" x="1557" y="-174.5" font-family="Helvetica" font-size="10.00">/utility/include/criticalsection.hpp</text>
</a>
</g>
</g>
<!-- Node2 -->
<g id="node2" class="node">
<title>Node2</title>
<g id="a_node2"><a xlink:href="utility_8hpp.html" target="_top" xlink:title=" ">
<polygon fill="white" stroke="black" points="1412,-89.5 1412,-130.5 1546,-130.5 1546,-89.5 1412,-89.5"/>
<text text-anchor="start" x="1420" y="-118.5" font-family="Helvetica" font-size="10.00">/home/ec2&#45;user/workspace</text>
<text text-anchor="start" x="1420" y="-107.5" font-family="Helvetica" font-size="10.00">/vsomeip/implementation</text>
<text text-anchor="middle" x="1479" y="-96.5" font-family="Helvetica" font-size="10.00">/utility/include/utility.hpp</text>
</a>
</g>
</g>
<!-- Node1&#45;&gt;Node2 -->
<g id="edge1" class="edge">
<title>Node1&#45;&gt;Node2</title>
<path fill="none" stroke="midnightblue" d="M1529.5,-160.2C1519.45,-150.42 1508.29,-139.54 1499.02,-130.51"/>
<polygon fill="midnightblue" stroke="midnightblue" points="1527.31,-162.96 1536.91,-167.43 1532.19,-157.94 1527.31,-162.96"/>
</g>
<!-- Node22 -->
<g id="node22" class="node">
<title>Node22</title>
<g id="a_node22"><a xlink:href="criticalsection_8cpp.html" target="_top" xlink:title=" ">
<polygon fill="white" stroke="black" points="1564.5,-89.5 1564.5,-130.5 1705.5,-130.5 1705.5,-89.5 1564.5,-89.5"/>
<text text-anchor="start" x="1572.5" y="-118.5" font-family="Helvetica" font-size="10.00">/home/ec2&#45;user/workspace</text>
<text text-anchor="start" x="1572.5" y="-107.5" font-family="Helvetica" font-size="10.00">/vsomeip/implementation</text>
<text text-anchor="middle" x="1635" y="-96.5" font-family="Helvetica" font-size="10.00">/utility/src/criticalsection.cpp</text>
</a>
</g>
</g>
<!-- Node1&#45;&gt;Node22 -->
<g id="edge21" class="edge">
<title>Node1&#45;&gt;Node22</title>
<path fill="none" stroke="midnightblue" d="M1584.5,-160.2C1594.55,-150.42 1605.71,-139.54 1614.98,-130.51"/>
<polygon fill="midnightblue" stroke="midnightblue" points="1581.81,-157.94 1577.09,-167.43 1586.69,-162.96 1581.81,-157.94"/>
</g>
<!-- Node3 -->
<g id="node3" class="node">
<title>Node3</title>
<g id="a_node3"><a xlink:href="configuration__impl_8cpp.html" target="_top" xlink:title=" ">
<polygon fill="white" stroke="black" points="0,-0.5 0,-52.5 150,-52.5 150,-0.5 0,-0.5"/>
<text text-anchor="start" x="8" y="-40.5" font-family="Helvetica" font-size="10.00">/home/ec2&#45;user/workspace</text>
<text text-anchor="start" x="8" y="-29.5" font-family="Helvetica" font-size="10.00">/vsomeip/implementation</text>
<text text-anchor="start" x="8" y="-18.5" font-family="Helvetica" font-size="10.00">/configuration/src/configuration</text>
<text text-anchor="middle" x="75" y="-7.5" font-family="Helvetica" font-size="10.00">_impl.cpp</text>
</a>
</g>
</g>
<!-- Node2&#45;&gt;Node3 -->
<g id="edge2" class="edge">
<title>Node2&#45;&gt;Node3</title>
<path fill="none" stroke="midnightblue" d="M1401.67,-108.28C1156.78,-105.58 400.31,-94.07 159,-53 156.15,-52.51 153.25,-51.96 150.34,-51.35"/>
<polygon fill="midnightblue" stroke="midnightblue" points="1401.87,-111.78 1411.9,-108.39 1401.94,-104.78 1401.87,-111.78"/>
</g>
<!-- Node4 -->
<g id="node4" class="node">
<title>Node4</title>
<g id="a_node4"><a xlink:href="client__endpoint__impl_8cpp.html" target="_top" xlink:title=" ">
<polygon fill="white" stroke="black" points="168,-0.5 168,-52.5 314,-52.5 314,-0.5 168,-0.5"/>
<text text-anchor="start" x="176" y="-40.5" font-family="Helvetica" font-size="10.00">/home/ec2&#45;user/workspace</text>
<text text-anchor="start" x="176" y="-29.5" font-family="Helvetica" font-size="10.00">/vsomeip/implementation</text>
<text text-anchor="start" x="176" y="-18.5" font-family="Helvetica" font-size="10.00">/endpoints/src/client_endpoint</text>
<text text-anchor="middle" x="241" y="-7.5" font-family="Helvetica" font-size="10.00">_impl.cpp</text>
</a>
</g>
</g>
<!-- Node2&#45;&gt;Node4 -->
<g id="edge3" class="edge">
<title>Node2&#45;&gt;Node4</title>
<path fill="none" stroke="midnightblue" d="M1401.82,-107.8C1177.95,-103.93 531.14,-89.79 323,-53 320.06,-52.48 317.09,-51.89 314.09,-51.23"/>
<polygon fill="midnightblue" stroke="midnightblue" points="1401.78,-111.3 1411.84,-107.98 1401.9,-104.3 1401.78,-111.3"/>
</g>
<!-- Node5 -->
<g id="node5" class="node">
<title>Node5</title>
<g id="a_node5"><a xlink:href="endpoint__manager__base_8cpp.html" target="_top" xlink:title=" ">
<polygon fill="white" stroke="black" points="332,-0.5 332,-52.5 466,-52.5 466,-0.5 332,-0.5"/>
<text text-anchor="start" x="340" y="-40.5" font-family="Helvetica" font-size="10.00">/home/ec2&#45;user/workspace</text>
<text text-anchor="start" x="340" y="-29.5" font-family="Helvetica" font-size="10.00">/vsomeip/implementation</text>
<text text-anchor="start" x="340" y="-18.5" font-family="Helvetica" font-size="10.00">/endpoints/src/endpoint</text>
<text text-anchor="middle" x="399" y="-7.5" font-family="Helvetica" font-size="10.00">_manager_base.cpp</text>
</a>
</g>
</g>
<!-- Node2&#45;&gt;Node5 -->
<g id="edge4" class="edge">
<title>Node2&#45;&gt;Node5</title>
<path fill="none" stroke="midnightblue" d="M1401.59,-107.36C1198.2,-102.63 652.26,-87.04 475,-53 472.13,-52.45 469.22,-51.82 466.29,-51.12"/>
<polygon fill="midnightblue" stroke="midnightblue" points="1401.8,-110.87 1411.88,-107.6 1401.96,-103.87 1401.8,-110.87"/>
</g>
<!-- Node6 -->
<g id="node6" class="node">
<title>Node6</title>
<g id="a_node6"><a xlink:href="endpoint__manager__impl_8cpp.html" target="_top" xlink:title=" ">
<polygon fill="white" stroke="black" points="484,-0.5 484,-52.5 618,-52.5 618,-0.5 484,-0.5"/>
<text text-anchor="start" x="492" y="-40.5" font-family="Helvetica" font-size="10.00">/home/ec2&#45;user/workspace</text>
<text text-anchor="start" x="492" y="-29.5" font-family="Helvetica" font-size="10.00">/vsomeip/implementation</text>
<text text-anchor="start" x="492" y="-18.5" font-family="Helvetica" font-size="10.00">/endpoints/src/endpoint</text>
<text text-anchor="middle" x="551" y="-7.5" font-family="Helvetica" font-size="10.00">_manager_impl.cpp</text>
</a>
</g>
</g>
<!-- Node2&#45;&gt;Node6 -->
<g id="edge5" class="edge">
<title>Node2&#45;&gt;Node6</title>
<path fill="none" stroke="midnightblue" d="M1401.74,-106.47C1220.86,-100.14 774.12,-82.01 627,-53 624.13,-52.43 621.22,-51.79 618.3,-51.08"/>
<polygon fill="midnightblue" stroke="midnightblue" points="1401.85,-109.98 1411.97,-106.83 1402.1,-102.98 1401.85,-109.98"/>
</g>
<!-- Node7 -->
<g id="node7" class="node">
<title>Node7</title>
<g id="a_node7"><a xlink:href="local__tcp__server__endpoint__impl_8cpp.html" target="_top" xlink:title=" ">
<polygon fill="white" stroke="black" points="636,-0.5 636,-52.5 770,-52.5 770,-0.5 636,-0.5"/>
<text text-anchor="start" x="644" y="-40.5" font-family="Helvetica" font-size="10.00">/home/ec2&#45;user/workspace</text>
<text text-anchor="start" x="644" y="-29.5" font-family="Helvetica" font-size="10.00">/vsomeip/implementation</text>
<text text-anchor="start" x="644" y="-18.5" font-family="Helvetica" font-size="10.00">/endpoints/src/local_tcp</text>
<text text-anchor="middle" x="703" y="-7.5" font-family="Helvetica" font-size="10.00">_server_endpoint_impl.cpp</text>
</a>
</g>
</g>
<!-- Node2&#45;&gt;Node7 -->
<g id="edge6" class="edge">
<title>Node2&#45;&gt;Node7</title>
<path fill="none" stroke="midnightblue" d="M1401.39,-108.93C1271.32,-107.46 1001.7,-98.56 779,-53 776.14,-52.41 773.23,-51.75 770.31,-51.03"/>
<polygon fill="midnightblue" stroke="midnightblue" points="1401.61,-112.44 1411.64,-109.04 1401.68,-105.44 1401.61,-112.44"/>
</g>
<!-- Node8 -->
<g id="node8" class="node">
<title>Node8</title>
<g id="a_node8"><a xlink:href="local__uds__server__endpoint__impl_8cpp.html" target="_top" xlink:title=" ">
<polygon fill="white" stroke="black" points="788,-0.5 788,-52.5 922,-52.5 922,-0.5 788,-0.5"/>
<text text-anchor="start" x="796" y="-40.5" font-family="Helvetica" font-size="10.00">/home/ec2&#45;user/workspace</text>
<text text-anchor="start" x="796" y="-29.5" font-family="Helvetica" font-size="10.00">/vsomeip/implementation</text>
<text text-anchor="start" x="796" y="-18.5" font-family="Helvetica" font-size="10.00">/endpoints/src/local_uds</text>
<text text-anchor="middle" x="855" y="-7.5" font-family="Helvetica" font-size="10.00">_server_endpoint_impl.cpp</text>
</a>
</g>
</g>
<!-- Node2&#45;&gt;Node8 -->
<g id="edge7" class="edge">
<title>Node2&#45;&gt;Node8</title>
<path fill="none" stroke="midnightblue" d="M1401.55,-106.49C1294.63,-101.8 1096.27,-88.71 931,-53 928.14,-52.38 925.24,-51.7 922.33,-50.95"/>
<polygon fill="midnightblue" stroke="midnightblue" points="1401.47,-109.99 1411.61,-106.92 1401.77,-102.99 1401.47,-109.99"/>
</g>
<!-- Node9 -->
<g id="node9" class="node">
<title>Node9</title>
<g id="a_node9"><a xlink:href="server__endpoint__impl_8cpp.html" target="_top" xlink:title=" ">
<polygon fill="white" stroke="black" points="940,-0.5 940,-52.5 1090,-52.5 1090,-0.5 940,-0.5"/>
<text text-anchor="start" x="948" y="-40.5" font-family="Helvetica" font-size="10.00">/home/ec2&#45;user/workspace</text>
<text text-anchor="start" x="948" y="-29.5" font-family="Helvetica" font-size="10.00">/vsomeip/implementation</text>
<text text-anchor="start" x="948" y="-18.5" font-family="Helvetica" font-size="10.00">/endpoints/src/server_endpoint</text>
<text text-anchor="middle" x="1015" y="-7.5" font-family="Helvetica" font-size="10.00">_impl.cpp</text>
</a>
</g>
</g>
<!-- Node2&#45;&gt;Node9 -->
<g id="edge8" class="edge">
<title>Node2&#45;&gt;Node9</title>
<path fill="none" stroke="midnightblue" d="M1401.74,-101.02C1324.52,-92.25 1202.69,-76.24 1099,-53 1096.17,-52.37 1093.31,-51.69 1090.42,-50.97"/>
<polygon fill="midnightblue" stroke="midnightblue" points="1401.54,-104.52 1411.86,-102.16 1402.32,-97.56 1401.54,-104.52"/>
</g>
<!-- Node10 -->
<g id="node10" class="node">
<title>Node10</title>
<g id="a_node10"><a xlink:href="tcp__client__endpoint__impl_8cpp.html" target="_top" xlink:title=" ">
<polygon fill="white" stroke="black" points="1108,-0.5 1108,-52.5 1242,-52.5 1242,-0.5 1108,-0.5"/>
<text text-anchor="start" x="1116" y="-40.5" font-family="Helvetica" font-size="10.00">/home/ec2&#45;user/workspace</text>
<text text-anchor="start" x="1116" y="-29.5" font-family="Helvetica" font-size="10.00">/vsomeip/implementation</text>
<text text-anchor="start" x="1116" y="-18.5" font-family="Helvetica" font-size="10.00">/endpoints/src/tcp_client</text>
<text text-anchor="middle" x="1175" y="-7.5" font-family="Helvetica" font-size="10.00">_endpoint_impl.cpp</text>
</a>
</g>
</g>
<!-- Node2&#45;&gt;Node10 -->
<g id="edge9" class="edge">
<title>Node2&#45;&gt;Node10</title>
<path fill="none" stroke="midnightblue" d="M1401.92,-91.75C1357.54,-81.39 1300.86,-67.46 1251,-53 1248.06,-52.15 1245.06,-51.25 1242.04,-50.33"/>
<polygon fill="midnightblue" stroke="midnightblue" points="1401.24,-95.18 1411.77,-94.03 1402.82,-88.36 1401.24,-95.18"/>
</g>
<!-- Node11 -->
<g id="node11" class="node">
<title>Node11</title>
<g id="a_node11"><a xlink:href="tcp__server__endpoint__impl_8cpp.html" target="_top" xlink:title=" ">
<polygon fill="white" stroke="black" points="1260,-0.5 1260,-52.5 1394,-52.5 1394,-0.5 1260,-0.5"/>
<text text-anchor="start" x="1268" y="-40.5" font-family="Helvetica" font-size="10.00">/home/ec2&#45;user/workspace</text>
<text text-anchor="start" x="1268" y="-29.5" font-family="Helvetica" font-size="10.00">/vsomeip/implementation</text>
<text text-anchor="start" x="1268" y="-18.5" font-family="Helvetica" font-size="10.00">/endpoints/src/tcp_server</text>
<text text-anchor="middle" x="1327" y="-7.5" font-family="Helvetica" font-size="10.00">_endpoint_impl.cpp</text>
</a>
</g>
</g>
<!-- Node2&#45;&gt;Node11 -->
<g id="edge10" class="edge">
<title>Node2&#45;&gt;Node11</title>
<path fill="none" stroke="midnightblue" d="M1433.59,-84.65C1414.7,-74.53 1392.79,-62.78 1373.77,-52.58"/>
<polygon fill="midnightblue" stroke="midnightblue" points="1432.13,-87.84 1442.59,-89.48 1435.43,-81.67 1432.13,-87.84"/>
</g>
<!-- Node12 -->
<g id="node12" class="node">
<title>Node12</title>
<g id="a_node12"><a xlink:href="udp__client__endpoint__impl_8cpp.html" target="_top" xlink:title=" ">
<polygon fill="white" stroke="black" points="1412,-0.5 1412,-52.5 1546,-52.5 1546,-0.5 1412,-0.5"/>
<text text-anchor="start" x="1420" y="-40.5" font-family="Helvetica" font-size="10.00">/home/ec2&#45;user/workspace</text>
<text text-anchor="start" x="1420" y="-29.5" font-family="Helvetica" font-size="10.00">/vsomeip/implementation</text>
<text text-anchor="start" x="1420" y="-18.5" font-family="Helvetica" font-size="10.00">/endpoints/src/udp_client</text>
<text text-anchor="middle" x="1479" y="-7.5" font-family="Helvetica" font-size="10.00">_endpoint_impl.cpp</text>
</a>
</g>
</g>
<!-- Node2&#45;&gt;Node12 -->
<g id="edge11" class="edge">
<title>Node2&#45;&gt;Node12</title>
<path fill="none" stroke="midnightblue" d="M1479,-79.12C1479,-70.41 1479,-60.99 1479,-52.61"/>
<polygon fill="midnightblue" stroke="midnightblue" points="1475.5,-79.27 1479,-89.27 1482.5,-79.27 1475.5,-79.27"/>
</g>
<!-- Node13 -->
<g id="node13" class="node">
<title>Node13</title>
<g id="a_node13"><a xlink:href="udp__server__endpoint__impl_8cpp.html" target="_top" xlink:title=" ">
<polygon fill="white" stroke="black" points="1564,-0.5 1564,-52.5 1698,-52.5 1698,-0.5 1564,-0.5"/>
<text text-anchor="start" x="1572" y="-40.5" font-family="Helvetica" font-size="10.00">/home/ec2&#45;user/workspace</text>
<text text-anchor="start" x="1572" y="-29.5" font-family="Helvetica" font-size="10.00">/vsomeip/implementation</text>
<text text-anchor="start" x="1572" y="-18.5" font-family="Helvetica" font-size="10.00">/endpoints/src/udp_server</text>
<text text-anchor="middle" x="1631" y="-7.5" font-family="Helvetica" font-size="10.00">_endpoint_impl.cpp</text>
</a>
</g>
</g>
<!-- Node2&#45;&gt;Node13 -->
<g id="edge12" class="edge">
<title>Node2&#45;&gt;Node13</title>
<path fill="none" stroke="midnightblue" d="M1524.41,-84.65C1543.3,-74.53 1565.21,-62.78 1584.23,-52.58"/>
<polygon fill="midnightblue" stroke="midnightblue" points="1522.57,-81.67 1515.41,-89.48 1525.87,-87.84 1522.57,-81.67"/>
</g>
<!-- Node14 -->
<g id="node14" class="node">
<title>Node14</title>
<g id="a_node14"><a xlink:href="plugin__manager__impl_8cpp.html" target="_top" xlink:title=" ">
<polygon fill="white" stroke="black" points="1716,-0.5 1716,-52.5 1850,-52.5 1850,-0.5 1716,-0.5"/>
<text text-anchor="start" x="1724" y="-40.5" font-family="Helvetica" font-size="10.00">/home/ec2&#45;user/workspace</text>
<text text-anchor="start" x="1724" y="-29.5" font-family="Helvetica" font-size="10.00">/vsomeip/implementation</text>
<text text-anchor="start" x="1724" y="-18.5" font-family="Helvetica" font-size="10.00">/plugin/src/plugin_manager</text>
<text text-anchor="middle" x="1783" y="-7.5" font-family="Helvetica" font-size="10.00">_impl.cpp</text>
</a>
</g>
</g>
<!-- Node2&#45;&gt;Node14 -->
<g id="edge13" class="edge">
<title>Node2&#45;&gt;Node14</title>
<path fill="none" stroke="midnightblue" d="M1555.7,-89.08C1555.8,-89.05 1555.9,-89.03 1556,-89 1622.95,-72.33 1640.67,-71.99 1707,-53 1709.94,-52.16 1712.94,-51.27 1715.97,-50.35"/>
<polygon fill="midnightblue" stroke="midnightblue" points="1555.02,-85.64 1546.17,-91.47 1556.72,-92.43 1555.02,-85.64"/>
</g>
<!-- Node15 -->
<g id="node15" class="node">
<title>Node15</title>
<g id="a_node15"><a xlink:href="routing__manager__base_8cpp.html" target="_top" xlink:title=" ">
<polygon fill="white" stroke="black" points="1868,-0.5 1868,-52.5 2008,-52.5 2008,-0.5 1868,-0.5"/>
<text text-anchor="start" x="1876" y="-40.5" font-family="Helvetica" font-size="10.00">/home/ec2&#45;user/workspace</text>
<text text-anchor="start" x="1876" y="-29.5" font-family="Helvetica" font-size="10.00">/vsomeip/implementation</text>
<text text-anchor="start" x="1876" y="-18.5" font-family="Helvetica" font-size="10.00">/routing/src/routing_manager</text>
<text text-anchor="middle" x="1938" y="-7.5" font-family="Helvetica" font-size="10.00">_base.cpp</text>
</a>
</g>
</g>
<!-- Node2&#45;&gt;Node15 -->
<g id="edge14" class="edge">
<title>Node2&#45;&gt;Node15</title>
<path fill="none" stroke="midnightblue" d="M1555.69,-89.06C1555.8,-89.04 1555.9,-89.02 1556,-89 1689.27,-63.9 1726.52,-81.96 1859,-53 1861.96,-52.35 1864.96,-51.64 1867.98,-50.88"/>
<polygon fill="midnightblue" stroke="midnightblue" points="1555.18,-85.59 1546.07,-91.01 1556.57,-92.45 1555.18,-85.59"/>
</g>
<!-- Node16 -->
<g id="node16" class="node">
<title>Node16</title>
<g id="a_node16"><a xlink:href="routing__manager__client_8cpp.html" target="_top" xlink:title=" ">
<polygon fill="white" stroke="black" points="2026,-0.5 2026,-52.5 2166,-52.5 2166,-0.5 2026,-0.5"/>
<text text-anchor="start" x="2034" y="-40.5" font-family="Helvetica" font-size="10.00">/home/ec2&#45;user/workspace</text>
<text text-anchor="start" x="2034" y="-29.5" font-family="Helvetica" font-size="10.00">/vsomeip/implementation</text>
<text text-anchor="start" x="2034" y="-18.5" font-family="Helvetica" font-size="10.00">/routing/src/routing_manager</text>
<text text-anchor="middle" x="2096" y="-7.5" font-family="Helvetica" font-size="10.00">_client.cpp</text>
</a>
</g>
</g>
<!-- Node2&#45;&gt;Node16 -->
<g id="edge15" class="edge">
<title>Node2&#45;&gt;Node16</title>
<path fill="none" stroke="midnightblue" d="M1555.69,-89.05C1555.8,-89.03 1555.9,-89.02 1556,-89 1758.69,-55.04 1815.39,-92.84 2017,-53 2019.83,-52.44 2022.7,-51.81 2025.58,-51.13"/>
<polygon fill="midnightblue" stroke="midnightblue" points="1555.23,-85.58 1546.04,-90.84 1556.51,-92.46 1555.23,-85.58"/>
</g>
<!-- Node17 -->
<g id="node17" class="node">
<title>Node17</title>
<g id="a_node17"><a xlink:href="routing__manager__impl_8cpp.html" target="_top" xlink:title=" ">
<polygon fill="white" stroke="black" points="2184,-0.5 2184,-52.5 2324,-52.5 2324,-0.5 2184,-0.5"/>
<text text-anchor="start" x="2192" y="-40.5" font-family="Helvetica" font-size="10.00">/home/ec2&#45;user/workspace</text>
<text text-anchor="start" x="2192" y="-29.5" font-family="Helvetica" font-size="10.00">/vsomeip/implementation</text>
<text text-anchor="start" x="2192" y="-18.5" font-family="Helvetica" font-size="10.00">/routing/src/routing_manager</text>
<text text-anchor="middle" x="2254" y="-7.5" font-family="Helvetica" font-size="10.00">_impl.cpp</text>
</a>
</g>
</g>
<!-- Node2&#45;&gt;Node17 -->
<g id="edge16" class="edge">
<title>Node2&#45;&gt;Node17</title>
<path fill="none" stroke="midnightblue" d="M1555.69,-89.05C1555.8,-89.03 1555.9,-89.02 1556,-89 1828.22,-46.15 1904.13,-103.73 2175,-53 2177.83,-52.47 2180.71,-51.87 2183.59,-51.2"/>
<polygon fill="midnightblue" stroke="midnightblue" points="1555.26,-85.57 1546.03,-90.76 1556.49,-92.46 1555.26,-85.57"/>
</g>
<!-- Node18 -->
<g id="node18" class="node">
<title>Node18</title>
<g id="a_node18"><a xlink:href="routing__manager__stub_8cpp.html" target="_top" xlink:title=" ">
<polygon fill="white" stroke="black" points="2342,-0.5 2342,-52.5 2482,-52.5 2482,-0.5 2342,-0.5"/>
<text text-anchor="start" x="2350" y="-40.5" font-family="Helvetica" font-size="10.00">/home/ec2&#45;user/workspace</text>
<text text-anchor="start" x="2350" y="-29.5" font-family="Helvetica" font-size="10.00">/vsomeip/implementation</text>
<text text-anchor="start" x="2350" y="-18.5" font-family="Helvetica" font-size="10.00">/routing/src/routing_manager</text>
<text text-anchor="middle" x="2412" y="-7.5" font-family="Helvetica" font-size="10.00">_stub.cpp</text>
</a>
</g>
</g>
<!-- Node2&#45;&gt;Node18 -->
<g id="edge17" class="edge">
<title>Node2&#45;&gt;Node18</title>
<path fill="none" stroke="midnightblue" d="M1555.69,-89.05C1555.8,-89.03 1555.9,-89.02 1556,-89 1897.81,-37.27 1992.84,-114.64 2333,-53 2335.84,-52.49 2338.71,-51.9 2341.6,-51.25"/>
<polygon fill="midnightblue" stroke="midnightblue" points="1555.28,-85.57 1546.02,-90.72 1556.47,-92.46 1555.28,-85.57"/>
</g>
<!-- Node19 -->
<g id="node19" class="node">
<title>Node19</title>
<g id="a_node19"><a xlink:href="runtime_2src_2application__impl_8cpp.html" target="_top" xlink:title=" ">
<polygon fill="white" stroke="black" points="2500,-0.5 2500,-52.5 2634,-52.5 2634,-0.5 2500,-0.5"/>
<text text-anchor="start" x="2508" y="-40.5" font-family="Helvetica" font-size="10.00">/home/ec2&#45;user/workspace</text>
<text text-anchor="start" x="2508" y="-29.5" font-family="Helvetica" font-size="10.00">/vsomeip/implementation</text>
<text text-anchor="start" x="2508" y="-18.5" font-family="Helvetica" font-size="10.00">/runtime/src/application</text>
<text text-anchor="middle" x="2567" y="-7.5" font-family="Helvetica" font-size="10.00">_impl.cpp</text>
</a>
</g>
</g>
<!-- Node2&#45;&gt;Node19 -->
<g id="edge18" class="edge">
<title>Node2&#45;&gt;Node19</title>
<path fill="none" stroke="midnightblue" d="M1555.69,-89.05C1555.79,-89.03 1555.9,-89.02 1556,-89 1967.42,-28.37 2081.94,-127.9 2491,-53 2493.87,-52.47 2496.79,-51.86 2499.72,-51.18"/>
<polygon fill="midnightblue" stroke="midnightblue" points="1555.29,-85.56 1546.02,-90.69 1556.46,-92.47 1555.29,-85.56"/>
</g>
<!-- Node20 -->
<g id="node20" class="node">
<title>Node20</title>
<g id="a_node20"><a xlink:href="policy__manager__impl_8cpp.html" target="_top" xlink:title=" ">
<polygon fill="white" stroke="black" points="2652,-0.5 2652,-52.5 2794,-52.5 2794,-0.5 2652,-0.5"/>
<text text-anchor="start" x="2660" y="-40.5" font-family="Helvetica" font-size="10.00">/home/ec2&#45;user/workspace</text>
<text text-anchor="start" x="2660" y="-29.5" font-family="Helvetica" font-size="10.00">/vsomeip/implementation</text>
<text text-anchor="start" x="2660" y="-18.5" font-family="Helvetica" font-size="10.00">/security/src/policy_manager</text>
<text text-anchor="middle" x="2723" y="-7.5" font-family="Helvetica" font-size="10.00">_impl.cpp</text>
</a>
</g>
</g>
<!-- Node2&#45;&gt;Node20 -->
<g id="edge19" class="edge">
<title>Node2&#45;&gt;Node20</title>
<path fill="none" stroke="midnightblue" d="M1555.69,-89.04C1555.79,-89.03 1555.9,-89.01 1556,-89 2034.4,-19.82 2166.66,-135.18 2643,-53 2645.87,-52.5 2648.79,-51.93 2651.71,-51.29"/>
<polygon fill="midnightblue" stroke="midnightblue" points="1555.3,-85.56 1546.01,-90.66 1556.45,-92.47 1555.3,-85.56"/>
</g>
<!-- Node21 -->
<g id="node21" class="node">
<title>Node21</title>
<g id="a_node21"><a xlink:href="utility_8cpp.html" target="_top" xlink:title=" ">
<polygon fill="white" stroke="black" points="2812,-6 2812,-47 2946,-47 2946,-6 2812,-6"/>
<text text-anchor="start" x="2820" y="-35" font-family="Helvetica" font-size="10.00">/home/ec2&#45;user/workspace</text>
<text text-anchor="start" x="2820" y="-24" font-family="Helvetica" font-size="10.00">/vsomeip/implementation</text>
<text text-anchor="middle" x="2879" y="-13" font-family="Helvetica" font-size="10.00">/utility/src/utility.cpp</text>
</a>
</g>
</g>
<!-- Node2&#45;&gt;Node21 -->
<g id="edge20" class="edge">
<title>Node2&#45;&gt;Node21</title>
<path fill="none" stroke="midnightblue" d="M1555.69,-89.04C1555.79,-89.03 1555.9,-89.01 1556,-89 2104.91,-10.81 2257.14,-150.24 2803,-53 2811.08,-51.56 2819.48,-49.43 2827.61,-47"/>
<polygon fill="midnightblue" stroke="midnightblue" points="1555.31,-85.56 1546.01,-90.65 1556.45,-92.47 1555.31,-85.56"/>
</g>
</g>
</svg>
