<?xml version="1.0" encoding="UTF-8" standalone="no"?>
<!DOCTYPE svg PUBLIC "-//W3C//DTD SVG 1.1//EN"
 "http://www.w3.org/Graphics/SVG/1.1/DTD/svg11.dtd">
<!-- Generated by graphviz version 2.44.0 (0)
 -->
<!-- Title: /home/ec2&#45;user/workspace/vsomeip/implementation/helper/boost/asio/datagram_socket_service_ext.hpp Pages: 1 -->
<svg width="2167pt" height="396pt"
 viewBox="0.00 0.00 2166.57 396.00" xmlns="http://www.w3.org/2000/svg" xmlns:xlink="http://www.w3.org/1999/xlink">
<g id="graph0" class="graph" transform="scale(1 1) rotate(0) translate(4 392)">
<title>/home/ec2&#45;user/workspace/vsomeip/implementation/helper/boost/asio/datagram_socket_service_ext.hpp</title>
<polygon fill="white" stroke="transparent" points="-4,4 -4,-392 2162.57,-392 2162.57,4 -4,4"/>
<!-- Node1 -->
<g id="node1" class="node">
<title>Node1</title>
<g id="a_node1"><a xlink:title=" ">
<polygon fill="#bfbfbf" stroke="black" points="321.47,-335.5 321.47,-387.5 458.47,-387.5 458.47,-335.5 321.47,-335.5"/>
<text text-anchor="start" x="329.47" y="-375.5" font-family="Helvetica" font-size="10.00">/home/ec2&#45;user/workspace</text>
<text text-anchor="start" x="329.47" y="-364.5" font-family="Helvetica" font-size="10.00">/vsomeip/implementation</text>
<text text-anchor="start" x="329.47" y="-353.5" font-family="Helvetica" font-size="10.00">/helper/boost/asio/datagram</text>
<text text-anchor="middle" x="389.97" y="-342.5" font-family="Helvetica" font-size="10.00">_socket_service_ext.hpp</text>
</a>
</g>
</g>
<!-- Node2 -->
<g id="node2" class="node">
<title>Node2</title>
<g id="a_node2"><a xlink:title=" ">
<polygon fill="white" stroke="#bfbfbf" points="70.97,-140 70.97,-159 124.97,-159 124.97,-140 70.97,-140"/>
<text text-anchor="middle" x="97.97" y="-147" font-family="Helvetica" font-size="10.00">iostream</text>
</a>
</g>
</g>
<!-- Node1&#45;&gt;Node2 -->
<g id="edge1" class="edge">
<title>Node1&#45;&gt;Node2</title>
<path fill="none" stroke="midnightblue" d="M321.22,-357.6C234.93,-352.34 94.26,-337.9 61.97,-299 29.87,-260.32 65.02,-197.54 85.45,-167.53"/>
<polygon fill="midnightblue" stroke="midnightblue" points="88.55,-169.2 91.46,-159.01 82.83,-165.16 88.55,-169.2"/>
</g>
<!-- Node3 -->
<g id="node3" class="node">
<title>Node3</title>
<g id="a_node3"><a xlink:title=" ">
<polygon fill="white" stroke="#bfbfbf" points="246.97,-73 246.97,-92 382.97,-92 382.97,-73 246.97,-73"/>
<text text-anchor="middle" x="314.97" y="-80" font-family="Helvetica" font-size="10.00">boost/asio/detail/config.hpp</text>
</a>
</g>
</g>
<!-- Node1&#45;&gt;Node3 -->
<g id="edge2" class="edge">
<title>Node1&#45;&gt;Node3</title>
<path fill="none" stroke="midnightblue" d="M321.38,-358.29C231.26,-353.77 80.39,-340.11 45.97,-299 20.72,-268.83 -46.29,-248.03 52.97,-134 76.62,-106.83 168.23,-94.04 236.5,-88.18"/>
<polygon fill="midnightblue" stroke="midnightblue" points="237.13,-91.64 246.81,-87.33 236.56,-84.66 237.13,-91.64"/>
</g>
<!-- Node4 -->
<g id="node4" class="node">
<title>Node4</title>
<g id="a_node4"><a xlink:title=" ">
<polygon fill="white" stroke="#bfbfbf" points="71.47,-274 71.47,-293 120.47,-293 120.47,-274 71.47,-274"/>
<text text-anchor="middle" x="95.97" y="-281" font-family="Helvetica" font-size="10.00">cstddef</text>
</a>
</g>
</g>
<!-- Node1&#45;&gt;Node4 -->
<g id="edge3" class="edge">
<title>Node1&#45;&gt;Node4</title>
<path fill="none" stroke="midnightblue" d="M321.42,-347.91C268.22,-337.29 192.99,-320.41 128.97,-299 127.1,-298.37 125.19,-297.68 123.28,-296.95"/>
<polygon fill="midnightblue" stroke="midnightblue" points="124.47,-293.66 113.89,-293.08 121.81,-300.13 124.47,-293.66"/>
</g>
<!-- Node5 -->
<g id="node5" class="node">
<title>Node5</title>
<g id="a_node5"><a xlink:title=" ">
<polygon fill="white" stroke="#bfbfbf" points="138.47,-274 138.47,-293 275.47,-293 275.47,-274 138.47,-274"/>
<text text-anchor="middle" x="206.97" y="-281" font-family="Helvetica" font-size="10.00">boost/asio/async_result.hpp</text>
</a>
</g>
</g>
<!-- Node1&#45;&gt;Node5 -->
<g id="edge4" class="edge">
<title>Node1&#45;&gt;Node5</title>
<path fill="none" stroke="midnightblue" d="M329.54,-335.4C298.48,-322.5 261.99,-307.35 236.95,-296.95"/>
<polygon fill="midnightblue" stroke="midnightblue" points="238.2,-293.68 227.63,-293.08 235.52,-300.15 238.2,-293.68"/>
</g>
<!-- Node6 -->
<g id="node6" class="node">
<title>Node6</title>
<g id="a_node6"><a xlink:title=" ">
<polygon fill="white" stroke="#bfbfbf" points="293.97,-268.5 293.97,-298.5 403.97,-298.5 403.97,-268.5 293.97,-268.5"/>
<text text-anchor="start" x="301.97" y="-286.5" font-family="Helvetica" font-size="10.00">boost/asio/detail/type</text>
<text text-anchor="middle" x="348.97" y="-275.5" font-family="Helvetica" font-size="10.00">_traits.hpp</text>
</a>
</g>
</g>
<!-- Node1&#45;&gt;Node6 -->
<g id="edge5" class="edge">
<title>Node1&#45;&gt;Node6</title>
<path fill="none" stroke="midnightblue" d="M376.32,-335.19C371.53,-326.31 366.18,-316.39 361.48,-307.69"/>
<polygon fill="midnightblue" stroke="midnightblue" points="364.54,-305.98 356.71,-298.85 358.38,-309.31 364.54,-305.98"/>
</g>
<!-- Node7 -->
<g id="node7" class="node">
<title>Node7</title>
<g id="a_node7"><a xlink:title=" ">
<polygon fill="white" stroke="#bfbfbf" points="143.47,-140 143.47,-159 246.47,-159 246.47,-140 143.47,-140"/>
<text text-anchor="middle" x="194.97" y="-147" font-family="Helvetica" font-size="10.00">boost/asio/error.hpp</text>
</a>
</g>
</g>
<!-- Node1&#45;&gt;Node7 -->
<g id="edge6" class="edge">
<title>Node1&#45;&gt;Node7</title>
<path fill="none" stroke="midnightblue" d="M407.04,-335.15C418.31,-314.96 428.41,-287.01 412.97,-268 363.73,-207.38 304,-278.12 240.97,-232 219.61,-216.37 206.81,-187.62 200.32,-168.79"/>
<polygon fill="midnightblue" stroke="midnightblue" points="203.65,-167.72 197.28,-159.25 196.98,-169.84 203.65,-167.72"/>
</g>
<!-- Node8 -->
<g id="node8" class="node">
<title>Node8</title>
<g id="a_node8"><a xlink:title=" ">
<polygon fill="white" stroke="#bfbfbf" points="264.97,-140 264.97,-159 392.97,-159 392.97,-140 264.97,-140"/>
<text text-anchor="middle" x="328.97" y="-147" font-family="Helvetica" font-size="10.00">boost/asio/io_service.hpp</text>
</a>
</g>
</g>
<!-- Node1&#45;&gt;Node8 -->
<g id="edge7" class="edge">
<title>Node1&#45;&gt;Node8</title>
<path fill="none" stroke="midnightblue" d="M421.98,-335.42C442.7,-316.15 462.92,-289.3 445.97,-268 401.67,-212.32 334.27,-287.68 289.97,-232 273.8,-211.67 294.88,-183.53 311.78,-166.2"/>
<polygon fill="midnightblue" stroke="midnightblue" points="314.38,-168.55 319.1,-159.06 309.5,-163.53 314.38,-168.55"/>
</g>
<!-- Node9 -->
<g id="node9" class="node">
<title>Node9</title>
<g id="a_node9"><a xlink:href="reactive__socket__service__ext_8hpp.html" target="_top" xlink:title=" ">
<polygon fill="white" stroke="black" points="836.97,-268.5 836.97,-298.5 946.97,-298.5 946.97,-268.5 836.97,-268.5"/>
<text text-anchor="start" x="844.97" y="-286.5" font-family="Helvetica" font-size="10.00">detail/reactive_socket</text>
<text text-anchor="middle" x="891.97" y="-275.5" font-family="Helvetica" font-size="10.00">_service_ext.hpp</text>
</a>
</g>
</g>
<!-- Node1&#45;&gt;Node9 -->
<g id="edge8" class="edge">
<title>Node1&#45;&gt;Node9</title>
<path fill="none" stroke="midnightblue" d="M458.72,-350.09C555.75,-335.4 731.61,-308.78 826.71,-294.38"/>
<polygon fill="midnightblue" stroke="midnightblue" points="827.41,-297.81 836.77,-292.86 826.36,-290.89 827.41,-297.81"/>
</g>
<!-- Node25 -->
<g id="node25" class="node">
<title>Node25</title>
<g id="a_node25"><a xlink:title=" ">
<polygon fill="white" stroke="#bfbfbf" points="1251.97,-67.5 1251.97,-97.5 1363.97,-97.5 1363.97,-67.5 1251.97,-67.5"/>
<text text-anchor="start" x="1259.97" y="-85.5" font-family="Helvetica" font-size="10.00">boost/asio/detail/push</text>
<text text-anchor="middle" x="1307.97" y="-74.5" font-family="Helvetica" font-size="10.00">_options.hpp</text>
</a>
</g>
</g>
<!-- Node1&#45;&gt;Node25 -->
<g id="edge80" class="edge">
<title>Node1&#45;&gt;Node25</title>
<path fill="none" stroke="midnightblue" d="M458.71,-358.65C768.31,-349.53 2022.46,-304.17 2118.97,-165 2126.82,-153.68 2128.48,-143.97 2118.97,-134 2090.39,-104 1415.05,-103.47 1373.97,-98 1373.87,-97.99 1373.77,-97.97 1373.67,-97.96"/>
<polygon fill="midnightblue" stroke="midnightblue" points="1374.44,-94.54 1364.03,-96.49 1373.38,-101.46 1374.44,-94.54"/>
</g>
<!-- Node26 -->
<g id="node26" class="node">
<title>Node26</title>
<g id="a_node26"><a xlink:title=" ">
<polygon fill="white" stroke="#bfbfbf" points="1382.47,-67.5 1382.47,-97.5 1489.47,-97.5 1489.47,-67.5 1382.47,-67.5"/>
<text text-anchor="start" x="1390.47" y="-85.5" font-family="Helvetica" font-size="10.00">boost/asio/detail/pop</text>
<text text-anchor="middle" x="1435.97" y="-74.5" font-family="Helvetica" font-size="10.00">_options.hpp</text>
</a>
</g>
</g>
<!-- Node1&#45;&gt;Node26 -->
<g id="edge81" class="edge">
<title>Node1&#45;&gt;Node26</title>
<path fill="none" stroke="midnightblue" d="M458.52,-360.13C647.83,-358.48 1193.67,-349.33 1643.97,-299 1869.2,-273.82 2024.97,-362.59 2135.97,-165 2142.72,-152.99 2145.42,-144.03 2135.97,-134 2090.26,-85.46 1603.31,-104.74 1536.97,-98 1524.92,-96.78 1512.11,-95.17 1499.8,-93.48"/>
<polygon fill="midnightblue" stroke="midnightblue" points="1499.99,-89.97 1489.6,-92.04 1499.01,-96.9 1499.99,-89.97"/>
</g>
<!-- Node9&#45;&gt;Node2 -->
<g id="edge9" class="edge">
<title>Node9&#45;&gt;Node2</title>
<path fill="none" stroke="midnightblue" d="M836.49,-281.31C700.12,-277.88 351.65,-265.96 240.97,-232 193.08,-217.3 143.71,-184.51 117.35,-165.3"/>
<polygon fill="midnightblue" stroke="midnightblue" points="119.15,-162.27 109.03,-159.12 114.98,-167.89 119.15,-162.27"/>
</g>
<!-- Node9&#45;&gt;Node3 -->
<g id="edge10" class="edge">
<title>Node9&#45;&gt;Node3</title>
<path fill="none" stroke="midnightblue" d="M836.78,-281.99C690.51,-280.11 295.62,-271.41 171.97,-232 117.43,-214.62 90.01,-214.91 61.97,-165 55.22,-152.99 53.24,-144.65 61.97,-134 83.82,-107.36 170.79,-94.5 236.71,-88.48"/>
<polygon fill="midnightblue" stroke="midnightblue" points="237.03,-91.97 246.69,-87.61 236.42,-84.99 237.03,-91.97"/>
</g>
<!-- Node9&#45;&gt;Node7 -->
<g id="edge12" class="edge">
<title>Node9&#45;&gt;Node7</title>
<path fill="none" stroke="midnightblue" d="M836.92,-282.18C707.59,-280.73 387.93,-273 289.97,-232 255.75,-217.68 224.92,-186.21 208.18,-166.83"/>
<polygon fill="midnightblue" stroke="midnightblue" points="210.82,-164.53 201.71,-159.12 205.45,-169.03 210.82,-164.53"/>
</g>
<!-- Node9&#45;&gt;Node8 -->
<g id="edge13" class="edge">
<title>Node9&#45;&gt;Node8</title>
<path fill="none" stroke="midnightblue" d="M836.92,-278.93C745.7,-272.4 567.54,-256.88 509.97,-232 489.96,-223.35 490.97,-211.68 471.97,-201 440.76,-183.46 402.36,-170.31 373.22,-161.83"/>
<polygon fill="midnightblue" stroke="midnightblue" points="373.9,-158.38 363.32,-159.03 371.99,-165.12 373.9,-158.38"/>
</g>
<!-- Node10 -->
<g id="node10" class="node">
<title>Node10</title>
<g id="a_node10"><a xlink:title=" ">
<polygon fill="white" stroke="#bfbfbf" points="1985.47,-140 1985.47,-159 2092.47,-159 2092.47,-140 1985.47,-140"/>
<text text-anchor="middle" x="2038.97" y="-147" font-family="Helvetica" font-size="10.00">boost/asio/buffer.hpp</text>
</a>
</g>
</g>
<!-- Node9&#45;&gt;Node10 -->
<g id="edge11" class="edge">
<title>Node9&#45;&gt;Node10</title>
<path fill="none" stroke="midnightblue" d="M947.17,-279.99C1062.43,-274.39 1337,-259.19 1565.97,-232 1749.76,-210.18 1795.43,-200.98 1976.97,-165 1982.67,-163.87 1988.64,-162.59 1994.53,-161.28"/>
<polygon fill="midnightblue" stroke="midnightblue" points="1995.33,-164.69 2004.3,-159.05 1993.78,-157.86 1995.33,-164.69"/>
</g>
<!-- Node11 -->
<g id="node11" class="node">
<title>Node11</title>
<g id="a_node11"><a xlink:title=" ">
<polygon fill="white" stroke="#bfbfbf" points="1545.97,-73 1545.97,-92 1683.97,-92 1683.97,-73 1545.97,-73"/>
<text text-anchor="middle" x="1614.97" y="-80" font-family="Helvetica" font-size="10.00">boost/asio/socket_base.hpp</text>
</a>
</g>
</g>
<!-- Node9&#45;&gt;Node11 -->
<g id="edge14" class="edge">
<title>Node9&#45;&gt;Node11</title>
<path fill="none" stroke="midnightblue" d="M947.1,-281.64C1159.94,-278.1 1921.38,-263.34 2024.97,-232 2080.13,-215.31 2107.65,-215.18 2135.97,-165 2142.74,-153 2145.23,-144.2 2135.97,-134 2106.89,-101.96 1832.63,-89.64 1694.16,-85.43"/>
<polygon fill="midnightblue" stroke="midnightblue" points="1694.13,-81.93 1684.03,-85.13 1693.92,-88.93 1694.13,-81.93"/>
</g>
<!-- Node12 -->
<g id="node12" class="node">
<title>Node12</title>
<g id="a_node12"><a xlink:title=" ">
<polygon fill="white" stroke="#bfbfbf" points="400.97,-73 400.97,-92 552.97,-92 552.97,-73 400.97,-73"/>
<text text-anchor="middle" x="476.97" y="-80" font-family="Helvetica" font-size="10.00">boost/asio/detail/addressof.hpp</text>
</a>
</g>
</g>
<!-- Node9&#45;&gt;Node12 -->
<g id="edge15" class="edge">
<title>Node9&#45;&gt;Node12</title>
<path fill="none" stroke="midnightblue" d="M874.12,-268.39C861.61,-258.4 844.59,-244.6 829.97,-232 814.48,-218.65 814.61,-209.42 795.97,-201 729.15,-170.81 516.91,-219.6 467.97,-165 452.65,-147.91 460.2,-120.01 467.89,-101.7"/>
<polygon fill="midnightblue" stroke="midnightblue" points="471.16,-102.97 472.15,-92.42 464.8,-100.05 471.16,-102.97"/>
</g>
<!-- Node13 -->
<g id="node13" class="node">
<title>Node13</title>
<g id="a_node13"><a xlink:title=" ">
<polygon fill="white" stroke="#bfbfbf" points="570.97,-67.5 570.97,-97.5 690.97,-97.5 690.97,-67.5 570.97,-67.5"/>
<text text-anchor="start" x="578.97" y="-85.5" font-family="Helvetica" font-size="10.00">boost/asio/detail/buffer</text>
<text text-anchor="middle" x="630.97" y="-74.5" font-family="Helvetica" font-size="10.00">_sequence_adapter.hpp</text>
</a>
</g>
</g>
<!-- Node9&#45;&gt;Node13 -->
<g id="edge16" class="edge">
<title>Node9&#45;&gt;Node13</title>
<path fill="none" stroke="midnightblue" d="M885.74,-268.4C876.55,-249.46 857.42,-216.39 829.97,-201 761.39,-162.53 530.67,-223.36 477.97,-165 468.74,-154.77 469.9,-145.17 477.97,-134 483.71,-126.07 528.9,-111.72 568.7,-100.33"/>
<polygon fill="midnightblue" stroke="midnightblue" points="569.74,-103.68 578.41,-97.58 567.83,-96.94 569.74,-103.68"/>
</g>
<!-- Node14 -->
<g id="node14" class="node">
<title>Node14</title>
<g id="a_node14"><a xlink:title=" ">
<polygon fill="white" stroke="#bfbfbf" points="298.97,-207 298.97,-226 462.97,-226 462.97,-207 298.97,-207"/>
<text text-anchor="middle" x="380.97" y="-214" font-family="Helvetica" font-size="10.00">boost/asio/detail/noncopyable.hpp</text>
</a>
</g>
</g>
<!-- Node9&#45;&gt;Node14 -->
<g id="edge17" class="edge">
<title>Node9&#45;&gt;Node14</title>
<path fill="none" stroke="midnightblue" d="M836.86,-276.31C757.31,-267.25 605.7,-249.55 476.97,-232 466.78,-230.61 456,-229.06 445.48,-227.5"/>
<polygon fill="midnightblue" stroke="midnightblue" points="445.92,-224.03 435.51,-226.02 444.88,-230.95 445.92,-224.03"/>
</g>
<!-- Node15 -->
<g id="node15" class="node">
<title>Node15</title>
<g id="a_node15"><a xlink:title=" ">
<polygon fill="white" stroke="#bfbfbf" points="487.47,-134.5 487.47,-164.5 612.47,-164.5 612.47,-134.5 487.47,-134.5"/>
<text text-anchor="start" x="495.47" y="-152.5" font-family="Helvetica" font-size="10.00">boost/asio/detail/reactive</text>
<text text-anchor="middle" x="549.97" y="-141.5" font-family="Helvetica" font-size="10.00">_null_buffers_op.hpp</text>
</a>
</g>
</g>
<!-- Node9&#45;&gt;Node15 -->
<g id="edge18" class="edge">
<title>Node9&#45;&gt;Node15</title>
<path fill="none" stroke="midnightblue" d="M892.13,-268.28C891.51,-249.81 887.44,-217.95 867.97,-201 827.13,-165.44 680.37,-174.01 626.97,-165 625.51,-164.75 624.02,-164.5 622.53,-164.24"/>
<polygon fill="midnightblue" stroke="midnightblue" points="623.01,-160.77 612.55,-162.49 621.8,-167.67 623.01,-160.77"/>
</g>
<!-- Node16 -->
<g id="node16" class="node">
<title>Node16</title>
<g id="a_node16"><a xlink:title=" ">
<polygon fill="white" stroke="#bfbfbf" points="519.47,-201.5 519.47,-231.5 644.47,-231.5 644.47,-201.5 519.47,-201.5"/>
<text text-anchor="start" x="527.47" y="-219.5" font-family="Helvetica" font-size="10.00">boost/asio/detail/reactive</text>
<text text-anchor="middle" x="581.97" y="-208.5" font-family="Helvetica" font-size="10.00">_socket_accept_op.hpp</text>
</a>
</g>
</g>
<!-- Node9&#45;&gt;Node16 -->
<g id="edge19" class="edge">
<title>Node9&#45;&gt;Node16</title>
<path fill="none" stroke="midnightblue" d="M836.91,-270.95C786.03,-260.29 710.1,-244.37 654.34,-232.67"/>
<polygon fill="midnightblue" stroke="midnightblue" points="655.03,-229.24 644.52,-230.61 653.59,-236.09 655.03,-229.24"/>
</g>
<!-- Node17 -->
<g id="node17" class="node">
<title>Node17</title>
<g id="a_node17"><a xlink:title=" ">
<polygon fill="white" stroke="#bfbfbf" points="662.47,-201.5 662.47,-231.5 787.47,-231.5 787.47,-201.5 662.47,-201.5"/>
<text text-anchor="start" x="670.47" y="-219.5" font-family="Helvetica" font-size="10.00">boost/asio/detail/reactive</text>
<text text-anchor="middle" x="724.97" y="-208.5" font-family="Helvetica" font-size="10.00">_socket_connect_op.hpp</text>
</a>
</g>
</g>
<!-- Node9&#45;&gt;Node17 -->
<g id="edge20" class="edge">
<title>Node9&#45;&gt;Node17</title>
<path fill="none" stroke="midnightblue" d="M855.74,-268.4C830.79,-258.69 797.45,-245.71 770.68,-235.29"/>
<polygon fill="midnightblue" stroke="midnightblue" points="771.73,-231.94 761.14,-231.58 769.19,-238.47 771.73,-231.94"/>
</g>
<!-- Node18 -->
<g id="node18" class="node">
<title>Node18</title>
<g id="a_node18"><a xlink:href="reactive__socket__recvfrom__op__ext_8hpp.html" target="_top" xlink:title=" ">
<polygon fill="white" stroke="black" points="782.97,-134.5 782.97,-164.5 928.97,-164.5 928.97,-134.5 782.97,-134.5"/>
<text text-anchor="start" x="790.97" y="-152.5" font-family="Helvetica" font-size="10.00">boost/asio/detail/reactive</text>
<text text-anchor="middle" x="855.97" y="-141.5" font-family="Helvetica" font-size="10.00">_socket_recvfrom_op_ext.hpp</text>
</a>
</g>
</g>
<!-- Node9&#45;&gt;Node18 -->
<g id="edge21" class="edge">
<title>Node9&#45;&gt;Node18</title>
<path fill="none" stroke="midnightblue" d="M947.22,-275.13C1006.04,-264.95 1086.52,-242.89 1053.97,-201 1046.46,-191.33 989.47,-177.41 938.56,-166.63"/>
<polygon fill="midnightblue" stroke="midnightblue" points="938.98,-163.14 928.47,-164.51 937.54,-169.99 938.98,-163.14"/>
</g>
<!-- Node22 -->
<g id="node22" class="node">
<title>Node22</title>
<g id="a_node22"><a xlink:title=" ">
<polygon fill="white" stroke="#bfbfbf" points="1457.47,-0.5 1457.47,-30.5 1578.47,-30.5 1578.47,-0.5 1457.47,-0.5"/>
<text text-anchor="start" x="1465.47" y="-18.5" font-family="Helvetica" font-size="10.00">boost/asio/detail/reactor</text>
<text text-anchor="middle" x="1517.97" y="-7.5" font-family="Helvetica" font-size="10.00">_op.hpp</text>
</a>
</g>
</g>
<!-- Node9&#45;&gt;Node22 -->
<g id="edge74" class="edge">
<title>Node9&#45;&gt;Node22</title>
<path fill="none" stroke="midnightblue" d="M947.3,-282.35C1167.35,-281.44 1973.65,-275.19 2078.97,-232 2120.02,-215.17 2134.98,-205.56 2152.97,-165 2158.56,-152.41 2161.78,-144.59 2152.97,-134 2081.78,-48.43 1739.01,-24.91 1588.77,-18.67"/>
<polygon fill="midnightblue" stroke="midnightblue" points="1588.86,-15.17 1578.73,-18.26 1588.58,-22.16 1588.86,-15.17"/>
</g>
<!-- Node24 -->
<g id="node24" class="node">
<title>Node24</title>
<g id="a_node24"><a xlink:title=" ">
<polygon fill="white" stroke="#bfbfbf" points="301.47,-0.5 301.47,-30.5 420.47,-30.5 420.47,-0.5 301.47,-0.5"/>
<text text-anchor="start" x="309.47" y="-18.5" font-family="Helvetica" font-size="10.00">boost/asio/detail/socket</text>
<text text-anchor="middle" x="360.97" y="-7.5" font-family="Helvetica" font-size="10.00">_ops.hpp</text>
</a>
</g>
</g>
<!-- Node9&#45;&gt;Node24 -->
<g id="edge76" class="edge">
<title>Node9&#45;&gt;Node24</title>
<path fill="none" stroke="midnightblue" d="M836.68,-280.51C660.1,-273.98 119.35,-252.38 87.97,-232 49.19,-206.81 26.74,-172.09 52.97,-134 106.3,-56.57 218.02,-30.13 291.22,-21.12"/>
<polygon fill="midnightblue" stroke="midnightblue" points="291.75,-24.59 301.29,-19.97 290.95,-17.63 291.75,-24.59"/>
</g>
<!-- Node9&#45;&gt;Node25 -->
<g id="edge78" class="edge">
<title>Node9&#45;&gt;Node25</title>
<path fill="none" stroke="midnightblue" d="M947.08,-281.54C1173.8,-277.01 2026.17,-254.13 2101.97,-165 2110.9,-154.5 2111.47,-143.98 2101.97,-134 2046.14,-75.34 1454.25,-108.73 1373.97,-98 1373.87,-97.99 1373.77,-97.97 1373.67,-97.96"/>
<polygon fill="midnightblue" stroke="midnightblue" points="1374.44,-94.54 1364.03,-96.48 1373.38,-101.46 1374.44,-94.54"/>
</g>
<!-- Node9&#45;&gt;Node26 -->
<g id="edge79" class="edge">
<title>Node9&#45;&gt;Node26</title>
<path fill="none" stroke="midnightblue" d="M947.27,-282.09C1135.09,-280.34 1747.51,-271.65 1939.97,-232 2023.17,-214.86 2070.57,-234.8 2118.97,-165 2126.82,-153.68 2128.41,-144.04 2118.97,-134 2074.6,-86.79 1601.42,-104.61 1536.97,-98 1524.93,-96.76 1512.11,-95.16 1499.8,-93.46"/>
<polygon fill="midnightblue" stroke="midnightblue" points="1499.99,-89.95 1489.6,-92.02 1499.01,-96.88 1499.99,-89.95"/>
</g>
<!-- Node27 -->
<g id="node27" class="node">
<title>Node27</title>
<g id="a_node27"><a xlink:title=" ">
<polygon fill="white" stroke="#bfbfbf" points="920.47,-201.5 920.47,-231.5 1045.47,-231.5 1045.47,-201.5 920.47,-201.5"/>
<text text-anchor="start" x="928.47" y="-219.5" font-family="Helvetica" font-size="10.00">boost/asio/detail/reactive</text>
<text text-anchor="middle" x="982.97" y="-208.5" font-family="Helvetica" font-size="10.00">_socket_sendto_op.hpp</text>
</a>
</g>
</g>
<!-- Node9&#45;&gt;Node27 -->
<g id="edge33" class="edge">
<title>Node9&#45;&gt;Node27</title>
<path fill="none" stroke="midnightblue" d="M911.72,-268.4C924.36,-259.37 940.95,-247.51 954.95,-237.52"/>
<polygon fill="midnightblue" stroke="midnightblue" points="957.16,-240.24 963.27,-231.58 953.09,-234.54 957.16,-240.24"/>
</g>
<!-- Node28 -->
<g id="node28" class="node">
<title>Node28</title>
<g id="a_node28"><a xlink:href="reactive__socket__service__base__ext_8hpp.html" target="_top" xlink:title=" ">
<polygon fill="white" stroke="black" points="1102.47,-201.5 1102.47,-231.5 1253.47,-231.5 1253.47,-201.5 1102.47,-201.5"/>
<text text-anchor="start" x="1110.47" y="-219.5" font-family="Helvetica" font-size="10.00">boost/asio/detail/reactive</text>
<text text-anchor="middle" x="1177.97" y="-208.5" font-family="Helvetica" font-size="10.00">_socket_service_base_ext.hpp</text>
</a>
</g>
</g>
<!-- Node9&#45;&gt;Node28 -->
<g id="edge34" class="edge">
<title>Node9&#45;&gt;Node28</title>
<path fill="none" stroke="midnightblue" d="M947.12,-269.97C992.45,-259.67 1057.01,-244.99 1106.33,-233.78"/>
<polygon fill="midnightblue" stroke="midnightblue" points="1107.32,-237.15 1116.3,-231.52 1105.77,-230.32 1107.32,-237.15"/>
</g>
<!-- Node32 -->
<g id="node32" class="node">
<title>Node32</title>
<g id="a_node32"><a xlink:title=" ">
<polygon fill="white" stroke="#bfbfbf" points="1552.97,-140 1552.97,-159 1692.97,-159 1692.97,-140 1552.97,-140"/>
<text text-anchor="middle" x="1622.97" y="-147" font-family="Helvetica" font-size="10.00">boost/asio/detail/reactor.hpp</text>
</a>
</g>
</g>
<!-- Node9&#45;&gt;Node32 -->
<g id="edge73" class="edge">
<title>Node9&#45;&gt;Node32</title>
<path fill="none" stroke="midnightblue" d="M947.06,-276.49C1019.55,-268.23 1150.81,-252.1 1261.97,-232 1377.44,-211.13 1511.88,-178.56 1579.46,-161.6"/>
<polygon fill="midnightblue" stroke="midnightblue" points="1580.48,-164.96 1589.33,-159.12 1578.78,-158.17 1580.48,-164.96"/>
</g>
<!-- Node33 -->
<g id="node33" class="node">
<title>Node33</title>
<g id="a_node33"><a xlink:title=" ">
<polygon fill="white" stroke="#bfbfbf" points="1711.47,-134.5 1711.47,-164.5 1830.47,-164.5 1830.47,-134.5 1711.47,-134.5"/>
<text text-anchor="start" x="1719.47" y="-152.5" font-family="Helvetica" font-size="10.00">boost/asio/detail/socket</text>
<text text-anchor="middle" x="1770.97" y="-141.5" font-family="Helvetica" font-size="10.00">_holder.hpp</text>
</a>
</g>
</g>
<!-- Node9&#45;&gt;Node33 -->
<g id="edge75" class="edge">
<title>Node9&#45;&gt;Node33</title>
<path fill="none" stroke="midnightblue" d="M947.14,-277.82C1033.37,-270.2 1205.2,-253.73 1349.97,-232 1504.23,-208.85 1544.2,-196.77 1701.13,-165.16"/>
<polygon fill="midnightblue" stroke="midnightblue" points="1702.03,-168.55 1711.15,-163.14 1700.65,-161.68 1702.03,-168.55"/>
</g>
<!-- Node34 -->
<g id="node34" class="node">
<title>Node34</title>
<g id="a_node34"><a xlink:title=" ">
<polygon fill="white" stroke="#bfbfbf" points="1848.47,-134.5 1848.47,-164.5 1967.47,-164.5 1967.47,-134.5 1848.47,-134.5"/>
<text text-anchor="start" x="1856.47" y="-152.5" font-family="Helvetica" font-size="10.00">boost/asio/detail/socket</text>
<text text-anchor="middle" x="1907.97" y="-141.5" font-family="Helvetica" font-size="10.00">_types.hpp</text>
</a>
</g>
</g>
<!-- Node9&#45;&gt;Node34 -->
<g id="edge77" class="edge">
<title>Node9&#45;&gt;Node34</title>
<path fill="none" stroke="midnightblue" d="M946.98,-279.03C1047.52,-272.34 1267.59,-256.19 1451.97,-232 1622.26,-209.66 1666.51,-198.56 1838.41,-165.27"/>
<polygon fill="midnightblue" stroke="midnightblue" points="1839.14,-168.7 1848.3,-163.36 1837.81,-161.83 1839.14,-168.7"/>
</g>
<!-- Node18&#45;&gt;Node3 -->
<g id="edge22" class="edge">
<title>Node18&#45;&gt;Node3</title>
<path fill="none" stroke="midnightblue" d="M782.62,-142.29C690.96,-134.13 529.44,-118.39 391.97,-98 383.94,-96.81 375.46,-95.38 367.19,-93.9"/>
<polygon fill="midnightblue" stroke="midnightblue" points="367.7,-90.44 357.24,-92.07 366.44,-97.32 367.7,-90.44"/>
</g>
<!-- Node18&#45;&gt;Node12 -->
<g id="edge23" class="edge">
<title>Node18&#45;&gt;Node12</title>
<path fill="none" stroke="midnightblue" d="M782.9,-135.97C711.18,-123.67 603.15,-105.14 536.51,-93.71"/>
<polygon fill="midnightblue" stroke="midnightblue" points="537.03,-90.25 526.58,-92.01 535.85,-97.15 537.03,-90.25"/>
</g>
<!-- Node18&#45;&gt;Node13 -->
<g id="edge25" class="edge">
<title>Node18&#45;&gt;Node13</title>
<path fill="none" stroke="midnightblue" d="M807.43,-134.48C772.95,-124.51 726.46,-111.09 689.86,-100.51"/>
<polygon fill="midnightblue" stroke="midnightblue" points="690.4,-97.02 679.82,-97.61 688.45,-103.75 690.4,-97.02"/>
</g>
<!-- Node19 -->
<g id="node19" class="node">
<title>Node19</title>
<g id="a_node19"><a xlink:title=" ">
<polygon fill="white" stroke="#bfbfbf" points="1124.47,-67.5 1124.47,-97.5 1233.47,-97.5 1233.47,-67.5 1124.47,-67.5"/>
<text text-anchor="start" x="1132.47" y="-85.5" font-family="Helvetica" font-size="10.00">boost/asio/detail/bind</text>
<text text-anchor="middle" x="1178.97" y="-74.5" font-family="Helvetica" font-size="10.00">_handler.hpp</text>
</a>
</g>
</g>
<!-- Node18&#45;&gt;Node19 -->
<g id="edge24" class="edge">
<title>Node18&#45;&gt;Node19</title>
<path fill="none" stroke="midnightblue" d="M929.22,-134.83C978.71,-125.45 1045.8,-112.46 1114.1,-98.15"/>
<polygon fill="midnightblue" stroke="midnightblue" points="1115.12,-101.51 1124.18,-96.03 1113.68,-94.66 1115.12,-101.51"/>
</g>
<!-- Node20 -->
<g id="node20" class="node">
<title>Node20</title>
<g id="a_node20"><a xlink:title=" ">
<polygon fill="white" stroke="#bfbfbf" points="846.97,-67.5 846.97,-97.5 966.97,-97.5 966.97,-67.5 846.97,-67.5"/>
<text text-anchor="start" x="854.97" y="-85.5" font-family="Helvetica" font-size="10.00">boost/asio/detail/fenced</text>
<text text-anchor="middle" x="906.97" y="-74.5" font-family="Helvetica" font-size="10.00">_block.hpp</text>
</a>
</g>
</g>
<!-- Node18&#45;&gt;Node20 -->
<g id="edge26" class="edge">
<title>Node18&#45;&gt;Node20</title>
<path fill="none" stroke="midnightblue" d="M867.04,-134.4C873.65,-125.96 882.2,-115.07 889.69,-105.52"/>
<polygon fill="midnightblue" stroke="midnightblue" points="892.51,-107.6 895.93,-97.58 887,-103.28 892.51,-107.6"/>
</g>
<!-- Node21 -->
<g id="node21" class="node">
<title>Node21</title>
<g id="a_node21"><a xlink:href="reactor__op__ext_8hpp.html" target="_top" xlink:title=" ">
<polygon fill="white" stroke="black" points="985.47,-67.5 985.47,-97.5 1106.47,-97.5 1106.47,-67.5 985.47,-67.5"/>
<text text-anchor="start" x="993.47" y="-85.5" font-family="Helvetica" font-size="10.00">boost/asio/detail/reactor</text>
<text text-anchor="middle" x="1045.97" y="-74.5" font-family="Helvetica" font-size="10.00">_op_ext.hpp</text>
</a>
</g>
</g>
<!-- Node18&#45;&gt;Node21 -->
<g id="edge27" class="edge">
<title>Node18&#45;&gt;Node21</title>
<path fill="none" stroke="midnightblue" d="M897.2,-134.4C925.96,-124.56 964.52,-111.37 995.17,-100.88"/>
<polygon fill="midnightblue" stroke="midnightblue" points="996.5,-104.13 1004.83,-97.58 994.23,-97.5 996.5,-104.13"/>
</g>
<!-- Node23 -->
<g id="node23" class="node">
<title>Node23</title>
<g id="a_node23"><a xlink:href="socket__ops__ext_8hpp.html" target="_top" xlink:title=" ">
<polygon fill="white" stroke="black" points="709.47,-67.5 709.47,-97.5 828.47,-97.5 828.47,-67.5 709.47,-67.5"/>
<text text-anchor="start" x="717.47" y="-85.5" font-family="Helvetica" font-size="10.00">boost/asio/detail/socket</text>
<text text-anchor="middle" x="768.97" y="-74.5" font-family="Helvetica" font-size="10.00">_ops_ext.hpp</text>
</a>
</g>
</g>
<!-- Node18&#45;&gt;Node23 -->
<g id="edge29" class="edge">
<title>Node18&#45;&gt;Node23</title>
<path fill="none" stroke="midnightblue" d="M837.09,-134.4C825.12,-125.45 809.44,-113.74 796.15,-103.8"/>
<polygon fill="midnightblue" stroke="midnightblue" points="797.92,-100.76 787.81,-97.58 793.73,-106.37 797.92,-100.76"/>
</g>
<!-- Node18&#45;&gt;Node25 -->
<g id="edge31" class="edge">
<title>Node18&#45;&gt;Node25</title>
<path fill="none" stroke="midnightblue" d="M929.26,-135.33C932.2,-134.87 935.11,-134.42 937.97,-134 1072.57,-114.15 1107.81,-120.62 1241.97,-98 1242.07,-97.98 1242.17,-97.97 1242.28,-97.95"/>
<polygon fill="midnightblue" stroke="midnightblue" points="1242.66,-101.44 1251.88,-96.22 1241.41,-94.55 1242.66,-101.44"/>
</g>
<!-- Node18&#45;&gt;Node26 -->
<g id="edge32" class="edge">
<title>Node18&#45;&gt;Node26</title>
<path fill="none" stroke="midnightblue" d="M929.24,-135.2C932.19,-134.77 935.1,-134.37 937.97,-134 1127.17,-109.5 1179.56,-127.22 1372.56,-97.89"/>
<polygon fill="midnightblue" stroke="midnightblue" points="1373.11,-101.35 1382.46,-96.37 1372.04,-94.43 1373.11,-101.35"/>
</g>
<!-- Node21&#45;&gt;Node22 -->
<g id="edge28" class="edge">
<title>Node21&#45;&gt;Node22</title>
<path fill="none" stroke="midnightblue" d="M1106.5,-68.49C1109.36,-67.96 1112.2,-67.46 1114.97,-67 1230.85,-47.6 1366.61,-32.06 1447.28,-23.57"/>
<polygon fill="midnightblue" stroke="midnightblue" points="1447.74,-27.04 1457.32,-22.52 1447.01,-20.08 1447.74,-27.04"/>
</g>
<!-- Node23&#45;&gt;Node24 -->
<g id="edge30" class="edge">
<title>Node23&#45;&gt;Node24</title>
<path fill="none" stroke="midnightblue" d="M709.18,-68.71C706.07,-68.11 702.98,-67.54 699.97,-67 607.22,-50.36 499.49,-34.98 430.81,-25.67"/>
<polygon fill="midnightblue" stroke="midnightblue" points="430.93,-22.16 420.55,-24.29 429.99,-29.09 430.93,-22.16"/>
</g>
<!-- Node28&#45;&gt;Node2 -->
<g id="edge35" class="edge">
<title>Node28&#45;&gt;Node2</title>
<path fill="none" stroke="midnightblue" d="M1102.32,-205.71C1086.38,-203.91 1069.64,-202.22 1053.97,-201 849.99,-185.11 334.04,-207.85 133.97,-165 131.13,-164.39 128.23,-163.58 125.36,-162.64"/>
<polygon fill="midnightblue" stroke="midnightblue" points="126.5,-159.33 115.9,-159.13 124.06,-165.89 126.5,-159.33"/>
</g>
<!-- Node28&#45;&gt;Node3 -->
<g id="edge36" class="edge">
<title>Node28&#45;&gt;Node3</title>
<path fill="none" stroke="midnightblue" d="M1102.27,-206.33C1086.33,-204.48 1069.6,-202.62 1053.97,-201 965.42,-191.83 736.46,-200.86 654.97,-165 636.26,-156.76 639.41,-142.85 620.97,-134 528.09,-89.41 493.5,-115.54 391.97,-98 384.52,-96.71 376.66,-95.3 368.94,-93.88"/>
<polygon fill="midnightblue" stroke="midnightblue" points="369.38,-90.4 358.91,-92.01 368.1,-97.28 369.38,-90.4"/>
</g>
<!-- Node28&#45;&gt;Node7 -->
<g id="edge38" class="edge">
<title>Node28&#45;&gt;Node7</title>
<path fill="none" stroke="midnightblue" d="M1102.32,-205.78C1086.37,-203.98 1069.64,-202.27 1053.97,-201 700.1,-172.36 607.56,-214.27 255.97,-165 249.46,-164.09 242.63,-162.8 235.99,-161.36"/>
<polygon fill="midnightblue" stroke="midnightblue" points="236.32,-157.85 225.79,-159.02 234.75,-164.67 236.32,-157.85"/>
</g>
<!-- Node28&#45;&gt;Node8 -->
<g id="edge39" class="edge">
<title>Node28&#45;&gt;Node8</title>
<path fill="none" stroke="midnightblue" d="M1102.3,-205.99C1086.36,-204.17 1069.62,-202.4 1053.97,-201 798.5,-178.1 733.66,-185.43 477.97,-165 453.6,-163.05 427.03,-160.58 403.15,-158.23"/>
<polygon fill="midnightblue" stroke="midnightblue" points="403.4,-154.74 393.1,-157.23 402.71,-161.7 403.4,-154.74"/>
</g>
<!-- Node28&#45;&gt;Node10 -->
<g id="edge37" class="edge">
<title>Node28&#45;&gt;Node10</title>
<path fill="none" stroke="midnightblue" d="M1253.59,-214.91C1395.94,-212.86 1713.14,-203.91 1976.97,-165 1983.43,-164.05 1990.21,-162.76 1996.82,-161.35"/>
<polygon fill="midnightblue" stroke="midnightblue" points="1998.01,-164.67 2006.99,-159.05 1996.46,-157.84 1998.01,-164.67"/>
</g>
<!-- Node28&#45;&gt;Node11 -->
<g id="edge40" class="edge">
<title>Node28&#45;&gt;Node11</title>
<path fill="none" stroke="midnightblue" d="M1253.75,-213.58C1320.96,-209.6 1420.65,-198 1500.97,-165 1522.76,-156.05 1524.82,-147.72 1543.97,-134 1560.92,-121.86 1580.2,-108.16 1594.38,-98.09"/>
<polygon fill="midnightblue" stroke="midnightblue" points="1596.76,-100.69 1602.9,-92.05 1592.71,-94.99 1596.76,-100.69"/>
</g>
<!-- Node28&#45;&gt;Node12 -->
<g id="edge41" class="edge">
<title>Node28&#45;&gt;Node12</title>
<path fill="none" stroke="midnightblue" d="M1102.25,-206.45C1086.31,-204.6 1069.59,-202.7 1053.97,-201 895,-183.71 844.84,-223.39 695.97,-165 674.71,-156.66 675.42,-144.18 654.97,-134 616.86,-115.03 570.5,-102.16 534.65,-94.17"/>
<polygon fill="midnightblue" stroke="midnightblue" points="535.34,-90.74 524.83,-92.04 533.86,-97.58 535.34,-90.74"/>
</g>
<!-- Node28&#45;&gt;Node13 -->
<g id="edge42" class="edge">
<title>Node28&#45;&gt;Node13</title>
<path fill="none" stroke="midnightblue" d="M1102.32,-206.62C982.48,-192.52 761.99,-166.45 757.97,-165 718.94,-150.97 679.61,-123.12 655.28,-103.91"/>
<polygon fill="midnightblue" stroke="midnightblue" points="657.31,-101.05 647.32,-97.51 652.92,-106.51 657.31,-101.05"/>
</g>
<!-- Node28&#45;&gt;Node15 -->
<g id="edge43" class="edge">
<title>Node28&#45;&gt;Node15</title>
<path fill="none" stroke="midnightblue" d="M1102.27,-206.25C1086.33,-204.42 1069.61,-202.57 1053.97,-201 864.48,-181.94 815.69,-190.66 626.97,-165 625.5,-164.8 624.01,-164.59 622.51,-164.37"/>
<polygon fill="midnightblue" stroke="midnightblue" points="622.92,-160.89 612.5,-162.83 621.85,-167.81 622.92,-160.89"/>
</g>
<!-- Node28&#45;&gt;Node22 -->
<g id="edge67" class="edge">
<title>Node28&#45;&gt;Node22</title>
<path fill="none" stroke="midnightblue" d="M1253.77,-201.72C1333.2,-187.22 1446.86,-166.31 1448.97,-165 1492.31,-138.02 1508.8,-75.82 1514.78,-41.09"/>
<polygon fill="midnightblue" stroke="midnightblue" points="1518.29,-41.28 1516.38,-30.86 1511.38,-40.2 1518.29,-41.28"/>
</g>
<!-- Node28&#45;&gt;Node23 -->
<g id="edge69" class="edge">
<title>Node28&#45;&gt;Node23</title>
<path fill="none" stroke="midnightblue" d="M1102.16,-206.63C985.94,-192.96 776.77,-167.98 773.97,-165 759.86,-149.97 760.17,-125.71 763.07,-107.56"/>
<polygon fill="midnightblue" stroke="midnightblue" points="766.51,-108.18 764.99,-97.69 759.64,-106.84 766.51,-108.18"/>
</g>
<!-- Node28&#45;&gt;Node25 -->
<g id="edge71" class="edge">
<title>Node28&#45;&gt;Node25</title>
<path fill="none" stroke="midnightblue" d="M1201.12,-201.44C1215.47,-192.11 1233.81,-179.02 1247.97,-165 1265.88,-147.27 1282.56,-123.82 1293.76,-106.63"/>
<polygon fill="midnightblue" stroke="midnightblue" points="1296.97,-108.11 1299.39,-97.8 1291.06,-104.34 1296.97,-108.11"/>
</g>
<!-- Node28&#45;&gt;Node26 -->
<g id="edge72" class="edge">
<title>Node28&#45;&gt;Node26</title>
<path fill="none" stroke="midnightblue" d="M1253.69,-210.26C1319.25,-204.01 1407.05,-190.97 1429.97,-165 1443.57,-149.6 1443.7,-125.56 1441.26,-107.57"/>
<polygon fill="midnightblue" stroke="midnightblue" points="1444.68,-106.8 1439.55,-97.53 1437.78,-107.98 1444.68,-106.8"/>
</g>
<!-- Node29 -->
<g id="node29" class="node">
<title>Node29</title>
<g id="a_node29"><a xlink:href="reactive__socket__recv__op__ext_8hpp.html" target="_top" xlink:title=" ">
<polygon fill="white" stroke="black" points="947.47,-134.5 947.47,-164.5 1074.47,-164.5 1074.47,-134.5 947.47,-134.5"/>
<text text-anchor="start" x="955.47" y="-152.5" font-family="Helvetica" font-size="10.00">boost/asio/detail/reactive</text>
<text text-anchor="middle" x="1010.97" y="-141.5" font-family="Helvetica" font-size="10.00">_socket_recv_op_ext.hpp</text>
</a>
</g>
</g>
<!-- Node28&#45;&gt;Node29 -->
<g id="edge44" class="edge">
<title>Node28&#45;&gt;Node29</title>
<path fill="none" stroke="midnightblue" d="M1141.74,-201.4C1116.79,-191.69 1083.45,-178.71 1056.68,-168.29"/>
<polygon fill="midnightblue" stroke="midnightblue" points="1057.73,-164.94 1047.14,-164.58 1055.19,-171.47 1057.73,-164.94"/>
</g>
<!-- Node30 -->
<g id="node30" class="node">
<title>Node30</title>
<g id="a_node30"><a xlink:href="reactive__socket__recvmsg__op__ext_8hpp.html" target="_top" xlink:title=" ">
<polygon fill="white" stroke="black" points="1092.97,-134.5 1092.97,-164.5 1238.97,-164.5 1238.97,-134.5 1092.97,-134.5"/>
<text text-anchor="start" x="1100.97" y="-152.5" font-family="Helvetica" font-size="10.00">boost/asio/detail/reactive</text>
<text text-anchor="middle" x="1165.97" y="-141.5" font-family="Helvetica" font-size="10.00">_socket_recvmsg_op_ext.hpp</text>
</a>
</g>
</g>
<!-- Node28&#45;&gt;Node30 -->
<g id="edge54" class="edge">
<title>Node28&#45;&gt;Node30</title>
<path fill="none" stroke="midnightblue" d="M1175.37,-201.4C1173.92,-193.56 1172.08,-183.6 1170.42,-174.57"/>
<polygon fill="midnightblue" stroke="midnightblue" points="1173.83,-173.77 1168.57,-164.58 1166.94,-175.05 1173.83,-173.77"/>
</g>
<!-- Node31 -->
<g id="node31" class="node">
<title>Node31</title>
<g id="a_node31"><a xlink:title=" ">
<polygon fill="white" stroke="#bfbfbf" points="1295.47,-134.5 1295.47,-164.5 1420.47,-164.5 1420.47,-134.5 1295.47,-134.5"/>
<text text-anchor="start" x="1303.47" y="-152.5" font-family="Helvetica" font-size="10.00">boost/asio/detail/reactive</text>
<text text-anchor="middle" x="1357.97" y="-141.5" font-family="Helvetica" font-size="10.00">_socket_send_op.hpp</text>
</a>
</g>
</g>
<!-- Node28&#45;&gt;Node31 -->
<g id="edge65" class="edge">
<title>Node28&#45;&gt;Node31</title>
<path fill="none" stroke="midnightblue" d="M1217.03,-201.4C1244.16,-191.6 1280.49,-178.48 1309.47,-168.02"/>
<polygon fill="midnightblue" stroke="midnightblue" points="1310.77,-171.26 1318.99,-164.58 1308.4,-164.68 1310.77,-171.26"/>
</g>
<!-- Node28&#45;&gt;Node32 -->
<g id="edge66" class="edge">
<title>Node28&#45;&gt;Node32</title>
<path fill="none" stroke="midnightblue" d="M1253.79,-205.61C1326.91,-195.9 1440.65,-180.36 1538.97,-165 1547.38,-163.69 1556.25,-162.23 1564.95,-160.77"/>
<polygon fill="midnightblue" stroke="midnightblue" points="1565.77,-164.18 1575.04,-159.05 1564.6,-157.27 1565.77,-164.18"/>
</g>
<!-- Node28&#45;&gt;Node33 -->
<g id="edge68" class="edge">
<title>Node28&#45;&gt;Node33</title>
<path fill="none" stroke="midnightblue" d="M1253.79,-210.85C1353.89,-204.11 1535.76,-189.83 1700.86,-165.05"/>
<polygon fill="midnightblue" stroke="midnightblue" points="1701.85,-168.44 1711.21,-163.48 1700.8,-161.52 1701.85,-168.44"/>
</g>
<!-- Node28&#45;&gt;Node34 -->
<g id="edge70" class="edge">
<title>Node28&#45;&gt;Node34</title>
<path fill="none" stroke="midnightblue" d="M1253.79,-213.02C1375.31,-208.31 1621.32,-195.8 1838.36,-165.11"/>
<polygon fill="midnightblue" stroke="midnightblue" points="1838.95,-168.57 1848.35,-163.69 1837.95,-161.64 1838.95,-168.57"/>
</g>
<!-- Node29&#45;&gt;Node3 -->
<g id="edge45" class="edge">
<title>Node29&#45;&gt;Node3</title>
<path fill="none" stroke="midnightblue" d="M947.35,-135.36C944.19,-134.86 941.05,-134.4 937.97,-134 696.86,-102.24 633.24,-128.56 391.97,-98 383.25,-96.89 374.01,-95.42 365.09,-93.84"/>
<polygon fill="midnightblue" stroke="midnightblue" points="365.66,-90.39 355.19,-92.02 364.39,-97.27 365.66,-90.39"/>
</g>
<!-- Node29&#45;&gt;Node12 -->
<g id="edge46" class="edge">
<title>Node29&#45;&gt;Node12</title>
<path fill="none" stroke="midnightblue" d="M947.34,-135.47C944.18,-134.94 941.04,-134.45 937.97,-134 771.88,-109.62 728.38,-120.13 561.97,-98 552.61,-96.76 542.7,-95.24 533.08,-93.67"/>
<polygon fill="midnightblue" stroke="midnightblue" points="533.64,-90.22 523.2,-92.02 532.49,-97.12 533.64,-90.22"/>
</g>
<!-- Node29&#45;&gt;Node13 -->
<g id="edge48" class="edge">
<title>Node29&#45;&gt;Node13</title>
<path fill="none" stroke="midnightblue" d="M947.3,-135.67C944.15,-135.1 941.03,-134.53 937.97,-134 835.78,-116.13 806.98,-116.94 701.27,-98.17"/>
<polygon fill="midnightblue" stroke="midnightblue" points="701.6,-94.68 691.14,-96.36 700.37,-101.57 701.6,-94.68"/>
</g>
<!-- Node29&#45;&gt;Node19 -->
<g id="edge47" class="edge">
<title>Node29&#45;&gt;Node19</title>
<path fill="none" stroke="midnightblue" d="M1047.43,-134.4C1072.52,-124.69 1106.06,-111.71 1132.99,-101.29"/>
<polygon fill="midnightblue" stroke="midnightblue" points="1134.53,-104.45 1142.59,-97.58 1132,-97.92 1134.53,-104.45"/>
</g>
<!-- Node29&#45;&gt;Node20 -->
<g id="edge49" class="edge">
<title>Node29&#45;&gt;Node20</title>
<path fill="none" stroke="midnightblue" d="M988.41,-134.4C973.69,-125.2 954.28,-113.07 938.1,-102.95"/>
<polygon fill="midnightblue" stroke="midnightblue" points="939.83,-99.91 929.49,-97.58 936.12,-105.84 939.83,-99.91"/>
</g>
<!-- Node29&#45;&gt;Node21 -->
<g id="edge50" class="edge">
<title>Node29&#45;&gt;Node21</title>
<path fill="none" stroke="midnightblue" d="M1018.57,-134.4C1022.97,-126.22 1028.62,-115.73 1033.65,-106.39"/>
<polygon fill="midnightblue" stroke="midnightblue" points="1036.73,-108.04 1038.39,-97.58 1030.57,-104.72 1036.73,-108.04"/>
</g>
<!-- Node29&#45;&gt;Node23 -->
<g id="edge51" class="edge">
<title>Node29&#45;&gt;Node23</title>
<path fill="none" stroke="midnightblue" d="M958.76,-134.48C921.36,-124.43 870.82,-110.86 831.3,-100.24"/>
<polygon fill="midnightblue" stroke="midnightblue" points="832.07,-96.82 821.51,-97.61 830.26,-103.59 832.07,-96.82"/>
</g>
<!-- Node29&#45;&gt;Node25 -->
<g id="edge52" class="edge">
<title>Node29&#45;&gt;Node25</title>
<path fill="none" stroke="midnightblue" d="M1074.71,-134.58C1121.1,-124.45 1185.43,-110.39 1241.97,-98 1242.07,-97.98 1242.17,-97.96 1242.27,-97.93"/>
<polygon fill="midnightblue" stroke="midnightblue" points="1242.79,-101.4 1251.8,-95.84 1241.29,-94.57 1242.79,-101.4"/>
</g>
<!-- Node29&#45;&gt;Node26 -->
<g id="edge53" class="edge">
<title>Node29&#45;&gt;Node26</title>
<path fill="none" stroke="midnightblue" d="M1074.62,-135.58C1077.78,-135.02 1080.91,-134.49 1083.97,-134 1208.51,-113.9 1243.74,-120.2 1372.2,-98.01"/>
<polygon fill="midnightblue" stroke="midnightblue" points="1373.19,-101.39 1382.43,-96.22 1371.98,-94.49 1373.19,-101.39"/>
</g>
<!-- Node30&#45;&gt;Node3 -->
<g id="edge55" class="edge">
<title>Node30&#45;&gt;Node3</title>
<path fill="none" stroke="midnightblue" d="M1092.72,-135.21C1089.43,-134.77 1086.17,-134.36 1082.97,-134 777.39,-99.48 697.32,-134.54 391.97,-98 383.14,-96.94 373.8,-95.48 364.78,-93.89"/>
<polygon fill="midnightblue" stroke="midnightblue" points="365.25,-90.42 354.78,-92.05 363.98,-97.3 365.25,-90.42"/>
</g>
<!-- Node30&#45;&gt;Node11 -->
<g id="edge62" class="edge">
<title>Node30&#45;&gt;Node11</title>
<path fill="none" stroke="midnightblue" d="M1239.11,-137.91C1324.03,-125.62 1463.04,-105.49 1546.1,-93.47"/>
<polygon fill="midnightblue" stroke="midnightblue" points="1546.8,-96.91 1556.19,-92.01 1545.8,-89.98 1546.8,-96.91"/>
</g>
<!-- Node30&#45;&gt;Node12 -->
<g id="edge56" class="edge">
<title>Node30&#45;&gt;Node12</title>
<path fill="none" stroke="midnightblue" d="M1092.71,-135.28C1089.43,-134.82 1086.17,-134.39 1082.97,-134 852.56,-105.99 792.44,-125.55 561.97,-98 552.16,-96.83 541.76,-95.3 531.72,-93.67"/>
<polygon fill="midnightblue" stroke="midnightblue" points="532.29,-90.21 521.85,-92.02 531.13,-97.12 532.29,-90.21"/>
</g>
<!-- Node30&#45;&gt;Node13 -->
<g id="edge58" class="edge">
<title>Node30&#45;&gt;Node13</title>
<path fill="none" stroke="midnightblue" d="M1092.7,-135.38C1089.42,-134.89 1086.16,-134.43 1082.97,-134 916.74,-111.7 870.75,-123.16 701.13,-98.06"/>
<polygon fill="midnightblue" stroke="midnightblue" points="701.52,-94.58 691.11,-96.56 700.48,-101.5 701.52,-94.58"/>
</g>
<!-- Node30&#45;&gt;Node19 -->
<g id="edge57" class="edge">
<title>Node30&#45;&gt;Node19</title>
<path fill="none" stroke="midnightblue" d="M1168.79,-134.4C1170.36,-126.56 1172.35,-116.6 1174.16,-107.57"/>
<polygon fill="midnightblue" stroke="midnightblue" points="1177.63,-108.07 1176.16,-97.58 1170.76,-106.7 1177.63,-108.07"/>
</g>
<!-- Node30&#45;&gt;Node20 -->
<g id="edge59" class="edge">
<title>Node30&#45;&gt;Node20</title>
<path fill="none" stroke="midnightblue" d="M1110.09,-134.48C1069.89,-124.39 1015.52,-110.74 973.15,-100.11"/>
<polygon fill="midnightblue" stroke="midnightblue" points="973.75,-96.65 963.2,-97.61 972.05,-103.44 973.75,-96.65"/>
</g>
<!-- Node30&#45;&gt;Node21 -->
<g id="edge60" class="edge">
<title>Node30&#45;&gt;Node21</title>
<path fill="none" stroke="midnightblue" d="M1139.93,-134.4C1122.64,-125.03 1099.72,-112.62 1080.86,-102.39"/>
<polygon fill="midnightblue" stroke="midnightblue" points="1082.42,-99.26 1071.96,-97.58 1079.09,-105.42 1082.42,-99.26"/>
</g>
<!-- Node30&#45;&gt;Node23 -->
<g id="edge61" class="edge">
<title>Node30&#45;&gt;Node23</title>
<path fill="none" stroke="midnightblue" d="M1092.67,-135.58C1089.39,-135.04 1086.15,-134.51 1082.97,-134 977.49,-117.04 948.03,-117.29 838.87,-98.09"/>
<polygon fill="midnightblue" stroke="midnightblue" points="839.23,-94.6 828.77,-96.3 838,-101.49 839.23,-94.6"/>
</g>
<!-- Node30&#45;&gt;Node25 -->
<g id="edge63" class="edge">
<title>Node30&#45;&gt;Node25</title>
<path fill="none" stroke="midnightblue" d="M1196.78,-134.4C1217.63,-124.86 1245.35,-112.16 1267.91,-101.84"/>
<polygon fill="midnightblue" stroke="midnightblue" points="1269.58,-104.92 1277.22,-97.58 1266.67,-98.56 1269.58,-104.92"/>
</g>
<!-- Node30&#45;&gt;Node26 -->
<g id="edge64" class="edge">
<title>Node30&#45;&gt;Node26</title>
<path fill="none" stroke="midnightblue" d="M1224.23,-134.48C1267.9,-123.96 1327.61,-109.59 1372.49,-98.78"/>
<polygon fill="midnightblue" stroke="midnightblue" points="1373.51,-102.14 1382.41,-96.39 1371.87,-95.33 1373.51,-102.14"/>
</g>
</g>
</svg>
