<?xml version="1.0" encoding="UTF-8" standalone="no"?>
<!DOCTYPE svg PUBLIC "-//W3C//DTD SVG 1.1//EN"
 "http://www.w3.org/Graphics/SVG/1.1/DTD/svg11.dtd">
<!-- Generated by graphviz version 2.44.0 (0)
 -->
<!-- Title: /home/ec2&#45;user/workspace/vsomeip/implementation/configuration/include/debounce_filter_impl.hpp Pages: 1 -->
<svg width="162pt" height="184pt"
 viewBox="0.00 0.00 162.00 184.00" xmlns="http://www.w3.org/2000/svg" xmlns:xlink="http://www.w3.org/1999/xlink">
<g id="graph0" class="graph" transform="scale(1 1) rotate(0) translate(4 180)">
<title>/home/ec2&#45;user/workspace/vsomeip/implementation/configuration/include/debounce_filter_impl.hpp</title>
<polygon fill="white" stroke="transparent" points="-4,4 -4,-180 158,-180 158,4 -4,4"/>
<!-- Node1 -->
<g id="node1" class="node">
<title>Node1</title>
<g id="a_node1"><a xlink:title=" ">
<polygon fill="#bfbfbf" stroke="black" points="0,-123.5 0,-175.5 154,-175.5 154,-123.5 0,-123.5"/>
<text text-anchor="start" x="8" y="-163.5" font-family="Helvetica" font-size="10.00">/home/ec2&#45;user/workspace</text>
<text text-anchor="start" x="8" y="-152.5" font-family="Helvetica" font-size="10.00">/vsomeip/implementation</text>
<text text-anchor="start" x="8" y="-141.5" font-family="Helvetica" font-size="10.00">/configuration/include/debounce</text>
<text text-anchor="middle" x="77" y="-130.5" font-family="Helvetica" font-size="10.00">_filter_impl.hpp</text>
</a>
</g>
</g>
<!-- Node2 -->
<g id="node2" class="node">
<title>Node2</title>
<g id="a_node2"><a xlink:href="structured__types_8hpp.html" target="_top" xlink:title=" ">
<polygon fill="white" stroke="black" points="27,-56.5 27,-86.5 127,-86.5 127,-56.5 27,-56.5"/>
<text text-anchor="start" x="35" y="-74.5" font-family="Helvetica" font-size="10.00">vsomeip/structured</text>
<text text-anchor="middle" x="77" y="-63.5" font-family="Helvetica" font-size="10.00">_types.hpp</text>
</a>
</g>
</g>
<!-- Node1&#45;&gt;Node2 -->
<g id="edge1" class="edge">
<title>Node1&#45;&gt;Node2</title>
<path fill="none" stroke="midnightblue" d="M77,-123.19C77,-114.79 77,-105.44 77,-97.09"/>
<polygon fill="midnightblue" stroke="midnightblue" points="80.5,-96.85 77,-86.85 73.5,-96.85 80.5,-96.85"/>
</g>
<!-- Node3 -->
<g id="node3" class="node">
<title>Node3</title>
<g id="a_node3"><a xlink:title=" ">
<polygon fill="white" stroke="#bfbfbf" points="25,-0.5 25,-19.5 71,-19.5 71,-0.5 25,-0.5"/>
<text text-anchor="middle" x="48" y="-7.5" font-family="Helvetica" font-size="10.00">chrono</text>
</a>
</g>
</g>
<!-- Node2&#45;&gt;Node3 -->
<g id="edge2" class="edge">
<title>Node2&#45;&gt;Node3</title>
<path fill="none" stroke="midnightblue" d="M70.13,-56.4C66.09,-48.11 60.94,-37.55 56.63,-28.71"/>
<polygon fill="midnightblue" stroke="midnightblue" points="59.75,-27.11 52.22,-19.66 53.45,-30.18 59.75,-27.11"/>
</g>
<!-- Node4 -->
<g id="node4" class="node">
<title>Node4</title>
<g id="a_node4"><a xlink:title=" ">
<polygon fill="white" stroke="#bfbfbf" points="89.5,-0.5 89.5,-19.5 124.5,-19.5 124.5,-0.5 89.5,-0.5"/>
<text text-anchor="middle" x="107" y="-7.5" font-family="Helvetica" font-size="10.00">map</text>
</a>
</g>
</g>
<!-- Node2&#45;&gt;Node4 -->
<g id="edge3" class="edge">
<title>Node2&#45;&gt;Node4</title>
<path fill="none" stroke="midnightblue" d="M84.11,-56.4C88.29,-48.11 93.61,-37.55 98.07,-28.71"/>
<polygon fill="midnightblue" stroke="midnightblue" points="101.26,-30.16 102.63,-19.66 95.01,-27.01 101.26,-30.16"/>
</g>
</g>
</svg>
