<?xml version="1.0" encoding="UTF-8" standalone="no"?>
<!DOCTYPE svg PUBLIC "-//W3C//DTD SVG 1.1//EN"
 "http://www.w3.org/Graphics/SVG/1.1/DTD/svg11.dtd">
<!-- Generated by graphviz version 2.44.0 (0)
 -->
<!-- Title: /home/ec2&#45;user/workspace/vsomeip/implementation/configuration/include/debounce_filter_impl.hpp Pages: 1 -->
<svg width="978pt" height="417pt"
 viewBox="0.00 0.00 978.00 417.00" xmlns="http://www.w3.org/2000/svg" xmlns:xlink="http://www.w3.org/1999/xlink">
<g id="graph0" class="graph" transform="scale(1 1) rotate(0) translate(4 413)">
<title>/home/ec2&#45;user/workspace/vsomeip/implementation/configuration/include/debounce_filter_impl.hpp</title>
<polygon fill="white" stroke="transparent" points="-4,4 -4,-413 974,-413 974,4 -4,4"/>
<!-- Node1 -->
<g id="node1" class="node">
<title>Node1</title>
<g id="a_node1"><a xlink:title=" ">
<polygon fill="#bfbfbf" stroke="black" points="516,-356.5 516,-408.5 670,-408.5 670,-356.5 516,-356.5"/>
<text text-anchor="start" x="524" y="-396.5" font-family="Helvetica" font-size="10.00">/home/ec2&#45;user/workspace</text>
<text text-anchor="start" x="524" y="-385.5" font-family="Helvetica" font-size="10.00">/vsomeip/implementation</text>
<text text-anchor="start" x="524" y="-374.5" font-family="Helvetica" font-size="10.00">/configuration/include/debounce</text>
<text text-anchor="middle" x="593" y="-363.5" font-family="Helvetica" font-size="10.00">_filter_impl.hpp</text>
</a>
</g>
</g>
<!-- Node2 -->
<g id="node2" class="node">
<title>Node2</title>
<g id="a_node2"><a xlink:href="application__configuration_8hpp.html" target="_top" xlink:title=" ">
<polygon fill="white" stroke="black" points="219,-267.5 219,-319.5 377,-319.5 377,-267.5 219,-267.5"/>
<text text-anchor="start" x="227" y="-307.5" font-family="Helvetica" font-size="10.00">/home/ec2&#45;user/workspace</text>
<text text-anchor="start" x="227" y="-296.5" font-family="Helvetica" font-size="10.00">/vsomeip/implementation</text>
<text text-anchor="start" x="227" y="-285.5" font-family="Helvetica" font-size="10.00">/configuration/include/application</text>
<text text-anchor="middle" x="298" y="-274.5" font-family="Helvetica" font-size="10.00">_configuration.hpp</text>
</a>
</g>
</g>
<!-- Node1&#45;&gt;Node2 -->
<g id="edge1" class="edge">
<title>Node1&#45;&gt;Node2</title>
<path fill="none" stroke="midnightblue" d="M506.21,-355.91C465.39,-343.87 417.06,-329.61 377.24,-317.87"/>
<polygon fill="midnightblue" stroke="midnightblue" points="505.3,-359.28 515.88,-358.76 507.28,-352.57 505.3,-359.28"/>
</g>
<!-- Node6 -->
<g id="node6" class="node">
<title>Node6</title>
<g id="a_node6"><a xlink:href="subscribe__command_8cpp.html" target="_top" xlink:title=" ">
<polygon fill="white" stroke="black" points="450,-267.5 450,-319.5 584,-319.5 584,-267.5 450,-267.5"/>
<text text-anchor="start" x="458" y="-307.5" font-family="Helvetica" font-size="10.00">/home/ec2&#45;user/workspace</text>
<text text-anchor="start" x="458" y="-296.5" font-family="Helvetica" font-size="10.00">/vsomeip/implementation</text>
<text text-anchor="start" x="458" y="-285.5" font-family="Helvetica" font-size="10.00">/protocol/src/subscribe</text>
<text text-anchor="middle" x="517" y="-274.5" font-family="Helvetica" font-size="10.00">_command.cpp</text>
</a>
</g>
</g>
<!-- Node1&#45;&gt;Node6 -->
<g id="edge5" class="edge">
<title>Node1&#45;&gt;Node6</title>
<path fill="none" stroke="midnightblue" d="M564.43,-348.79C555.99,-339.13 546.88,-328.71 538.93,-319.61"/>
<polygon fill="midnightblue" stroke="midnightblue" points="561.8,-351.11 571.02,-356.34 567.07,-346.5 561.8,-351.11"/>
</g>
<!-- Node7 -->
<g id="node7" class="node">
<title>Node7</title>
<g id="a_node7"><a xlink:href="routing__manager_8hpp.html" target="_top" xlink:title=" ">
<polygon fill="white" stroke="black" points="602,-267.5 602,-319.5 736,-319.5 736,-267.5 602,-267.5"/>
<text text-anchor="start" x="610" y="-307.5" font-family="Helvetica" font-size="10.00">/home/ec2&#45;user/workspace</text>
<text text-anchor="start" x="610" y="-296.5" font-family="Helvetica" font-size="10.00">/vsomeip/implementation</text>
<text text-anchor="start" x="610" y="-285.5" font-family="Helvetica" font-size="10.00">/routing/include/routing</text>
<text text-anchor="middle" x="669" y="-274.5" font-family="Helvetica" font-size="10.00">_manager.hpp</text>
</a>
</g>
</g>
<!-- Node1&#45;&gt;Node7 -->
<g id="edge6" class="edge">
<title>Node1&#45;&gt;Node7</title>
<path fill="none" stroke="midnightblue" d="M621.57,-348.79C630.01,-339.13 639.12,-328.71 647.07,-319.61"/>
<polygon fill="midnightblue" stroke="midnightblue" points="618.93,-346.5 614.98,-356.34 624.2,-351.11 618.93,-346.5"/>
</g>
<!-- Node16 -->
<g id="node16" class="node">
<title>Node16</title>
<g id="a_node16"><a xlink:href="routing__manager__base_8cpp.html" target="_top" xlink:title=" ">
<polygon fill="white" stroke="black" points="830,-89.5 830,-141.5 970,-141.5 970,-89.5 830,-89.5"/>
<text text-anchor="start" x="838" y="-129.5" font-family="Helvetica" font-size="10.00">/home/ec2&#45;user/workspace</text>
<text text-anchor="start" x="838" y="-118.5" font-family="Helvetica" font-size="10.00">/vsomeip/implementation</text>
<text text-anchor="start" x="838" y="-107.5" font-family="Helvetica" font-size="10.00">/routing/src/routing_manager</text>
<text text-anchor="middle" x="900" y="-96.5" font-family="Helvetica" font-size="10.00">_base.cpp</text>
</a>
</g>
</g>
<!-- Node1&#45;&gt;Node16 -->
<g id="edge19" class="edge">
<title>Node1&#45;&gt;Node16</title>
<path fill="none" stroke="midnightblue" d="M679.67,-354.73C702.08,-345.64 725.4,-334.12 745,-320 812.75,-271.2 864.58,-184.33 887.34,-141.62"/>
<polygon fill="midnightblue" stroke="midnightblue" points="678.17,-351.56 670.14,-358.48 680.73,-358.08 678.17,-351.56"/>
</g>
<!-- Node3 -->
<g id="node3" class="node">
<title>Node3</title>
<g id="a_node3"><a xlink:href="configuration__impl_8hpp.html" target="_top" xlink:title=" ">
<polygon fill="white" stroke="black" points="159.5,-178.5 159.5,-230.5 326.5,-230.5 326.5,-178.5 159.5,-178.5"/>
<text text-anchor="start" x="167.5" y="-218.5" font-family="Helvetica" font-size="10.00">/home/ec2&#45;user/workspace</text>
<text text-anchor="start" x="167.5" y="-207.5" font-family="Helvetica" font-size="10.00">/vsomeip/implementation</text>
<text text-anchor="start" x="167.5" y="-196.5" font-family="Helvetica" font-size="10.00">/configuration/include/configuration</text>
<text text-anchor="middle" x="243" y="-185.5" font-family="Helvetica" font-size="10.00">_impl.hpp</text>
</a>
</g>
</g>
<!-- Node2&#45;&gt;Node3 -->
<g id="edge2" class="edge">
<title>Node2&#45;&gt;Node3</title>
<path fill="none" stroke="midnightblue" d="M276.59,-258.64C270.69,-249.31 264.4,-239.35 258.87,-230.61"/>
<polygon fill="midnightblue" stroke="midnightblue" points="273.79,-260.75 282.09,-267.34 279.71,-257.01 273.79,-260.75"/>
</g>
<!-- Node4 -->
<g id="node4" class="node">
<title>Node4</title>
<g id="a_node4"><a xlink:href="configuration__impl_8cpp.html" target="_top" xlink:title=" ">
<polygon fill="white" stroke="black" points="168,-89.5 168,-141.5 318,-141.5 318,-89.5 168,-89.5"/>
<text text-anchor="start" x="176" y="-129.5" font-family="Helvetica" font-size="10.00">/home/ec2&#45;user/workspace</text>
<text text-anchor="start" x="176" y="-118.5" font-family="Helvetica" font-size="10.00">/vsomeip/implementation</text>
<text text-anchor="start" x="176" y="-107.5" font-family="Helvetica" font-size="10.00">/configuration/src/configuration</text>
<text text-anchor="middle" x="243" y="-96.5" font-family="Helvetica" font-size="10.00">_impl.cpp</text>
</a>
</g>
</g>
<!-- Node3&#45;&gt;Node4 -->
<g id="edge3" class="edge">
<title>Node3&#45;&gt;Node4</title>
<path fill="none" stroke="midnightblue" d="M243,-168.19C243,-159.28 243,-149.9 243,-141.61"/>
<polygon fill="midnightblue" stroke="midnightblue" points="239.5,-168.34 243,-178.34 246.5,-168.34 239.5,-168.34"/>
</g>
<!-- Node5 -->
<g id="node5" class="node">
<title>Node5</title>
<g id="a_node5"><a xlink:href="configuration__plugin__impl_8cpp.html" target="_top" xlink:title=" ">
<polygon fill="white" stroke="black" points="0,-89.5 0,-141.5 150,-141.5 150,-89.5 0,-89.5"/>
<text text-anchor="start" x="8" y="-129.5" font-family="Helvetica" font-size="10.00">/home/ec2&#45;user/workspace</text>
<text text-anchor="start" x="8" y="-118.5" font-family="Helvetica" font-size="10.00">/vsomeip/implementation</text>
<text text-anchor="start" x="8" y="-107.5" font-family="Helvetica" font-size="10.00">/configuration/src/configuration</text>
<text text-anchor="middle" x="75" y="-96.5" font-family="Helvetica" font-size="10.00">_plugin_impl.cpp</text>
</a>
</g>
</g>
<!-- Node3&#45;&gt;Node5 -->
<g id="edge4" class="edge">
<title>Node3&#45;&gt;Node5</title>
<path fill="none" stroke="midnightblue" d="M185.33,-173.64C165.19,-163.2 142.8,-151.61 123.48,-141.61"/>
<polygon fill="midnightblue" stroke="midnightblue" points="183.92,-176.85 194.41,-178.34 187.14,-170.63 183.92,-176.85"/>
</g>
<!-- Node8 -->
<g id="node8" class="node">
<title>Node8</title>
<g id="a_node8"><a xlink:href="routing__manager__base_8hpp.html" target="_top" xlink:title=" ">
<polygon fill="white" stroke="black" points="526,-178.5 526,-230.5 660,-230.5 660,-178.5 526,-178.5"/>
<text text-anchor="start" x="534" y="-218.5" font-family="Helvetica" font-size="10.00">/home/ec2&#45;user/workspace</text>
<text text-anchor="start" x="534" y="-207.5" font-family="Helvetica" font-size="10.00">/vsomeip/implementation</text>
<text text-anchor="start" x="534" y="-196.5" font-family="Helvetica" font-size="10.00">/routing/include/routing</text>
<text text-anchor="middle" x="593" y="-185.5" font-family="Helvetica" font-size="10.00">_manager_base.hpp</text>
</a>
</g>
</g>
<!-- Node7&#45;&gt;Node8 -->
<g id="edge7" class="edge">
<title>Node7&#45;&gt;Node8</title>
<path fill="none" stroke="midnightblue" d="M640.43,-259.79C631.99,-250.13 622.88,-239.71 614.93,-230.61"/>
<polygon fill="midnightblue" stroke="midnightblue" points="637.8,-262.11 647.02,-267.34 643.07,-257.5 637.8,-262.11"/>
</g>
<!-- Node17 -->
<g id="node17" class="node">
<title>Node17</title>
<g id="a_node17"><a xlink:href="event_8cpp.html" target="_top" xlink:title=" ">
<polygon fill="white" stroke="black" points="678,-184 678,-225 812,-225 812,-184 678,-184"/>
<text text-anchor="start" x="686" y="-213" font-family="Helvetica" font-size="10.00">/home/ec2&#45;user/workspace</text>
<text text-anchor="start" x="686" y="-202" font-family="Helvetica" font-size="10.00">/vsomeip/implementation</text>
<text text-anchor="middle" x="745" y="-191" font-family="Helvetica" font-size="10.00">/routing/src/event.cpp</text>
</a>
</g>
</g>
<!-- Node7&#45;&gt;Node17 -->
<g id="edge18" class="edge">
<title>Node7&#45;&gt;Node17</title>
<path fill="none" stroke="midnightblue" d="M697.82,-259.51C707.96,-247.9 719.03,-235.23 727.89,-225.08"/>
<polygon fill="midnightblue" stroke="midnightblue" points="694.93,-257.5 690.98,-267.34 700.2,-262.11 694.93,-257.5"/>
</g>
<!-- Node9 -->
<g id="node9" class="node">
<title>Node9</title>
<g id="a_node9"><a xlink:href="endpoint__manager__base_8cpp.html" target="_top" xlink:title=" ">
<polygon fill="white" stroke="black" points="374,-89.5 374,-141.5 508,-141.5 508,-89.5 374,-89.5"/>
<text text-anchor="start" x="382" y="-129.5" font-family="Helvetica" font-size="10.00">/home/ec2&#45;user/workspace</text>
<text text-anchor="start" x="382" y="-118.5" font-family="Helvetica" font-size="10.00">/vsomeip/implementation</text>
<text text-anchor="start" x="382" y="-107.5" font-family="Helvetica" font-size="10.00">/endpoints/src/endpoint</text>
<text text-anchor="middle" x="441" y="-96.5" font-family="Helvetica" font-size="10.00">_manager_base.cpp</text>
</a>
</g>
</g>
<!-- Node8&#45;&gt;Node9 -->
<g id="edge8" class="edge">
<title>Node8&#45;&gt;Node9</title>
<path fill="none" stroke="midnightblue" d="M540.33,-173.35C522.23,-163 502.19,-151.52 484.87,-141.61"/>
<polygon fill="midnightblue" stroke="midnightblue" points="538.62,-176.41 549.04,-178.34 542.1,-170.33 538.62,-176.41"/>
</g>
<!-- Node10 -->
<g id="node10" class="node">
<title>Node10</title>
<g id="a_node10"><a xlink:href="endpoint__manager__impl_8cpp.html" target="_top" xlink:title=" ">
<polygon fill="white" stroke="black" points="323,-0.5 323,-52.5 457,-52.5 457,-0.5 323,-0.5"/>
<text text-anchor="start" x="331" y="-40.5" font-family="Helvetica" font-size="10.00">/home/ec2&#45;user/workspace</text>
<text text-anchor="start" x="331" y="-29.5" font-family="Helvetica" font-size="10.00">/vsomeip/implementation</text>
<text text-anchor="start" x="331" y="-18.5" font-family="Helvetica" font-size="10.00">/endpoints/src/endpoint</text>
<text text-anchor="middle" x="390" y="-7.5" font-family="Helvetica" font-size="10.00">_manager_impl.cpp</text>
</a>
</g>
</g>
<!-- Node8&#45;&gt;Node10 -->
<g id="edge9" class="edge">
<title>Node8&#45;&gt;Node10</title>
<path fill="none" stroke="midnightblue" d="M515.84,-192.84C457.18,-182.97 383.5,-166.15 365,-142 345.2,-116.16 359.92,-77.89 373.74,-52.83"/>
<polygon fill="midnightblue" stroke="midnightblue" points="515.43,-196.32 525.86,-194.48 516.56,-189.41 515.43,-196.32"/>
</g>
<!-- Node11 -->
<g id="node11" class="node">
<title>Node11</title>
<g id="a_node11"><a xlink:href="routing__manager__client_8hpp.html" target="_top" xlink:title=" ">
<polygon fill="white" stroke="black" points="678,-89.5 678,-141.5 812,-141.5 812,-89.5 678,-89.5"/>
<text text-anchor="start" x="686" y="-129.5" font-family="Helvetica" font-size="10.00">/home/ec2&#45;user/workspace</text>
<text text-anchor="start" x="686" y="-118.5" font-family="Helvetica" font-size="10.00">/vsomeip/implementation</text>
<text text-anchor="start" x="686" y="-107.5" font-family="Helvetica" font-size="10.00">/routing/include/routing</text>
<text text-anchor="middle" x="745" y="-96.5" font-family="Helvetica" font-size="10.00">_manager_client.hpp</text>
</a>
</g>
</g>
<!-- Node8&#45;&gt;Node11 -->
<g id="edge10" class="edge">
<title>Node8&#45;&gt;Node11</title>
<path fill="none" stroke="midnightblue" d="M645.67,-173.35C663.77,-163 683.81,-151.52 701.13,-141.61"/>
<polygon fill="midnightblue" stroke="midnightblue" points="643.9,-170.33 636.96,-178.34 647.38,-176.41 643.9,-170.33"/>
</g>
<!-- Node14 -->
<g id="node14" class="node">
<title>Node14</title>
<g id="a_node14"><a xlink:href="routing__manager__impl_8hpp.html" target="_top" xlink:title=" ">
<polygon fill="white" stroke="black" points="526,-89.5 526,-141.5 660,-141.5 660,-89.5 526,-89.5"/>
<text text-anchor="start" x="534" y="-129.5" font-family="Helvetica" font-size="10.00">/home/ec2&#45;user/workspace</text>
<text text-anchor="start" x="534" y="-118.5" font-family="Helvetica" font-size="10.00">/vsomeip/implementation</text>
<text text-anchor="start" x="534" y="-107.5" font-family="Helvetica" font-size="10.00">/routing/include/routing</text>
<text text-anchor="middle" x="593" y="-96.5" font-family="Helvetica" font-size="10.00">_manager_impl.hpp</text>
</a>
</g>
</g>
<!-- Node8&#45;&gt;Node14 -->
<g id="edge13" class="edge">
<title>Node8&#45;&gt;Node14</title>
<path fill="none" stroke="midnightblue" d="M593,-168.19C593,-159.28 593,-149.9 593,-141.61"/>
<polygon fill="midnightblue" stroke="midnightblue" points="589.5,-168.34 593,-178.34 596.5,-168.34 589.5,-168.34"/>
</g>
<!-- Node8&#45;&gt;Node16 -->
<g id="edge17" class="edge">
<title>Node8&#45;&gt;Node16</title>
<path fill="none" stroke="midnightblue" d="M669.9,-177.85C737.51,-159.05 757.14,-159.84 821,-142 823.91,-141.19 826.88,-140.33 829.88,-139.45"/>
<polygon fill="midnightblue" stroke="midnightblue" points="668.71,-174.55 660.03,-180.64 670.61,-181.29 668.71,-174.55"/>
</g>
<!-- Node12 -->
<g id="node12" class="node">
<title>Node12</title>
<g id="a_node12"><a xlink:href="routing__manager__client_8cpp.html" target="_top" xlink:title=" ">
<polygon fill="white" stroke="black" points="807,-0.5 807,-52.5 947,-52.5 947,-0.5 807,-0.5"/>
<text text-anchor="start" x="815" y="-40.5" font-family="Helvetica" font-size="10.00">/home/ec2&#45;user/workspace</text>
<text text-anchor="start" x="815" y="-29.5" font-family="Helvetica" font-size="10.00">/vsomeip/implementation</text>
<text text-anchor="start" x="815" y="-18.5" font-family="Helvetica" font-size="10.00">/routing/src/routing_manager</text>
<text text-anchor="middle" x="877" y="-7.5" font-family="Helvetica" font-size="10.00">_client.cpp</text>
</a>
</g>
</g>
<!-- Node11&#45;&gt;Node12 -->
<g id="edge11" class="edge">
<title>Node11&#45;&gt;Node12</title>
<path fill="none" stroke="midnightblue" d="M791.6,-83.79C807.09,-73.58 824.14,-62.34 838.91,-52.61"/>
<polygon fill="midnightblue" stroke="midnightblue" points="789.6,-80.91 783.18,-89.34 793.46,-86.76 789.6,-80.91"/>
</g>
<!-- Node13 -->
<g id="node13" class="node">
<title>Node13</title>
<g id="a_node13"><a xlink:href="runtime_2src_2application__impl_8cpp.html" target="_top" xlink:title=" ">
<polygon fill="white" stroke="black" points="655,-0.5 655,-52.5 789,-52.5 789,-0.5 655,-0.5"/>
<text text-anchor="start" x="663" y="-40.5" font-family="Helvetica" font-size="10.00">/home/ec2&#45;user/workspace</text>
<text text-anchor="start" x="663" y="-29.5" font-family="Helvetica" font-size="10.00">/vsomeip/implementation</text>
<text text-anchor="start" x="663" y="-18.5" font-family="Helvetica" font-size="10.00">/runtime/src/application</text>
<text text-anchor="middle" x="722" y="-7.5" font-family="Helvetica" font-size="10.00">_impl.cpp</text>
</a>
</g>
</g>
<!-- Node11&#45;&gt;Node13 -->
<g id="edge12" class="edge">
<title>Node11&#45;&gt;Node13</title>
<path fill="none" stroke="midnightblue" d="M735.74,-79.48C733.36,-70.49 730.85,-60.99 728.64,-52.61"/>
<polygon fill="midnightblue" stroke="midnightblue" points="732.41,-80.56 738.35,-89.34 739.18,-78.77 732.41,-80.56"/>
</g>
<!-- Node14&#45;&gt;Node10 -->
<g id="edge14" class="edge">
<title>Node14&#45;&gt;Node10</title>
<path fill="none" stroke="midnightblue" d="M525.18,-85.44C500.3,-74.77 472.37,-62.8 448.38,-52.52"/>
<polygon fill="midnightblue" stroke="midnightblue" points="523.99,-88.73 534.56,-89.45 526.74,-82.3 523.99,-88.73"/>
</g>
<!-- Node14&#45;&gt;Node13 -->
<g id="edge16" class="edge">
<title>Node14&#45;&gt;Node13</title>
<path fill="none" stroke="midnightblue" d="M638.96,-83.5C653.98,-73.37 670.47,-62.25 684.77,-52.61"/>
<polygon fill="midnightblue" stroke="midnightblue" points="636.65,-80.84 630.31,-89.34 640.56,-86.65 636.65,-80.84"/>
</g>
<!-- Node15 -->
<g id="node15" class="node">
<title>Node15</title>
<g id="a_node15"><a xlink:href="routing__manager__impl_8cpp.html" target="_top" xlink:title=" ">
<polygon fill="white" stroke="black" points="497,-0.5 497,-52.5 637,-52.5 637,-0.5 497,-0.5"/>
<text text-anchor="start" x="505" y="-40.5" font-family="Helvetica" font-size="10.00">/home/ec2&#45;user/workspace</text>
<text text-anchor="start" x="505" y="-29.5" font-family="Helvetica" font-size="10.00">/vsomeip/implementation</text>
<text text-anchor="start" x="505" y="-18.5" font-family="Helvetica" font-size="10.00">/routing/src/routing_manager</text>
<text text-anchor="middle" x="567" y="-7.5" font-family="Helvetica" font-size="10.00">_impl.cpp</text>
</a>
</g>
</g>
<!-- Node14&#45;&gt;Node15 -->
<g id="edge15" class="edge">
<title>Node14&#45;&gt;Node15</title>
<path fill="none" stroke="midnightblue" d="M582.53,-79.48C579.85,-70.49 577.01,-60.99 574.5,-52.61"/>
<polygon fill="midnightblue" stroke="midnightblue" points="579.26,-80.76 585.48,-89.34 585.97,-78.75 579.26,-80.76"/>
</g>
</g>
</svg>
