<?xml version="1.0" encoding="UTF-8" standalone="no"?>
<!DOCTYPE svg PUBLIC "-//W3C//DTD SVG 1.1//EN"
 "http://www.w3.org/Graphics/SVG/1.1/DTD/svg11.dtd">
<!-- Generated by graphviz version 2.44.0 (0)
 -->
<!-- Title: /home/ec2&#45;user/workspace/vsomeip/interface/vsomeip/deprecated.hpp Pages: 1 -->
<svg width="1428pt" height="306pt"
 viewBox="0.00 0.00 1428.00 306.00" xmlns="http://www.w3.org/2000/svg" xmlns:xlink="http://www.w3.org/1999/xlink">
<g id="graph0" class="graph" transform="scale(1 1) rotate(0) translate(4 302)">
<title>/home/ec2&#45;user/workspace/vsomeip/interface/vsomeip/deprecated.hpp</title>
<polygon fill="white" stroke="transparent" points="-4,4 -4,-302 1424,-302 1424,4 -4,4"/>
<!-- Node1 -->
<g id="node1" class="node">
<title>Node1</title>
<g id="a_node1"><a xlink:title=" ">
<polygon fill="#bfbfbf" stroke="black" points="552.5,-256.5 552.5,-297.5 689.5,-297.5 689.5,-256.5 552.5,-256.5"/>
<text text-anchor="start" x="560.5" y="-285.5" font-family="Helvetica" font-size="10.00">/home/ec2&#45;user/workspace</text>
<text text-anchor="start" x="560.5" y="-274.5" font-family="Helvetica" font-size="10.00">/vsomeip/interface/vsomeip</text>
<text text-anchor="middle" x="621" y="-263.5" font-family="Helvetica" font-size="10.00">/deprecated.hpp</text>
</a>
</g>
</g>
<!-- Node2 -->
<g id="node2" class="node">
<title>Node2</title>
<g id="a_node2"><a xlink:href="vsomeip_2application_8hpp.html" target="_top" xlink:title=" ">
<polygon fill="white" stroke="black" points="319.5,-178.5 319.5,-219.5 456.5,-219.5 456.5,-178.5 319.5,-178.5"/>
<text text-anchor="start" x="327.5" y="-207.5" font-family="Helvetica" font-size="10.00">/home/ec2&#45;user/workspace</text>
<text text-anchor="start" x="327.5" y="-196.5" font-family="Helvetica" font-size="10.00">/vsomeip/interface/vsomeip</text>
<text text-anchor="middle" x="388" y="-185.5" font-family="Helvetica" font-size="10.00">/application.hpp</text>
</a>
</g>
</g>
<!-- Node1&#45;&gt;Node2 -->
<g id="edge1" class="edge">
<title>Node1&#45;&gt;Node2</title>
<path fill="none" stroke="midnightblue" d="M551.42,-253.3C518.44,-242.55 479.43,-229.82 447.8,-219.51"/>
<polygon fill="midnightblue" stroke="midnightblue" points="550.4,-256.65 561,-256.43 552.58,-250 550.4,-256.65"/>
</g>
<!-- Node3 -->
<g id="node3" class="node">
<title>Node3</title>
<g id="a_node3"><a xlink:href="vsomeip_2handler_8hpp.html" target="_top" xlink:title=" ">
<polygon fill="white" stroke="black" points="474.5,-178.5 474.5,-219.5 611.5,-219.5 611.5,-178.5 474.5,-178.5"/>
<text text-anchor="start" x="482.5" y="-207.5" font-family="Helvetica" font-size="10.00">/home/ec2&#45;user/workspace</text>
<text text-anchor="start" x="482.5" y="-196.5" font-family="Helvetica" font-size="10.00">/vsomeip/interface/vsomeip</text>
<text text-anchor="middle" x="543" y="-185.5" font-family="Helvetica" font-size="10.00">/handler.hpp</text>
</a>
</g>
</g>
<!-- Node1&#45;&gt;Node3 -->
<g id="edge2" class="edge">
<title>Node1&#45;&gt;Node3</title>
<path fill="none" stroke="midnightblue" d="M593.5,-249.2C583.45,-239.42 572.29,-228.54 563.02,-219.51"/>
<polygon fill="midnightblue" stroke="midnightblue" points="591.31,-251.96 600.91,-256.43 596.19,-246.94 591.31,-251.96"/>
</g>
<!-- Node4 -->
<g id="node4" class="node">
<title>Node4</title>
<g id="a_node4"><a xlink:href="policy__manager_8hpp.html" target="_top" xlink:title=" ">
<polygon fill="white" stroke="black" points="629.5,-178.5 629.5,-219.5 770.5,-219.5 770.5,-178.5 629.5,-178.5"/>
<text text-anchor="start" x="637.5" y="-207.5" font-family="Helvetica" font-size="10.00">/home/ec2&#45;user/workspace</text>
<text text-anchor="start" x="637.5" y="-196.5" font-family="Helvetica" font-size="10.00">/vsomeip/interface/vsomeip</text>
<text text-anchor="middle" x="700" y="-185.5" font-family="Helvetica" font-size="10.00">/internal/policy_manager.hpp</text>
</a>
</g>
</g>
<!-- Node1&#45;&gt;Node4 -->
<g id="edge3" class="edge">
<title>Node1&#45;&gt;Node4</title>
<path fill="none" stroke="midnightblue" d="M648.55,-249.49C658.81,-239.63 670.24,-228.63 679.72,-219.51"/>
<polygon fill="midnightblue" stroke="midnightblue" points="646.12,-246.97 641.34,-256.43 650.98,-252.02 646.12,-246.97"/>
</g>
<!-- Node15 -->
<g id="node15" class="node">
<title>Node15</title>
<g id="a_node15"><a xlink:href="vsomeip_2message_8hpp.html" target="_top" xlink:title=" ">
<polygon fill="white" stroke="black" points="788.5,-178.5 788.5,-219.5 925.5,-219.5 925.5,-178.5 788.5,-178.5"/>
<text text-anchor="start" x="796.5" y="-207.5" font-family="Helvetica" font-size="10.00">/home/ec2&#45;user/workspace</text>
<text text-anchor="start" x="796.5" y="-196.5" font-family="Helvetica" font-size="10.00">/vsomeip/interface/vsomeip</text>
<text text-anchor="middle" x="857" y="-185.5" font-family="Helvetica" font-size="10.00">/message.hpp</text>
</a>
</g>
</g>
<!-- Node1&#45;&gt;Node15 -->
<g id="edge14" class="edge">
<title>Node1&#45;&gt;Node15</title>
<path fill="none" stroke="midnightblue" d="M691.48,-253.3C724.88,-242.55 764.39,-229.82 796.43,-219.51"/>
<polygon fill="midnightblue" stroke="midnightblue" points="690.22,-250.03 681.78,-256.43 692.37,-256.69 690.22,-250.03"/>
</g>
<!-- Node5 -->
<g id="node5" class="node">
<title>Node5</title>
<g id="a_node5"><a xlink:href="policy__manager__impl_8hpp.html" target="_top" xlink:title=" ">
<polygon fill="white" stroke="black" points="633,-89.5 633,-141.5 767,-141.5 767,-89.5 633,-89.5"/>
<text text-anchor="start" x="641" y="-129.5" font-family="Helvetica" font-size="10.00">/home/ec2&#45;user/workspace</text>
<text text-anchor="start" x="641" y="-118.5" font-family="Helvetica" font-size="10.00">/vsomeip/implementation</text>
<text text-anchor="start" x="641" y="-107.5" font-family="Helvetica" font-size="10.00">/security/include/policy</text>
<text text-anchor="middle" x="700" y="-96.5" font-family="Helvetica" font-size="10.00">_manager_impl.hpp</text>
</a>
</g>
</g>
<!-- Node4&#45;&gt;Node5 -->
<g id="edge4" class="edge">
<title>Node4&#45;&gt;Node5</title>
<path fill="none" stroke="midnightblue" d="M700,-168.12C700,-159.41 700,-149.99 700,-141.61"/>
<polygon fill="midnightblue" stroke="midnightblue" points="696.5,-168.27 700,-178.27 703.5,-168.27 696.5,-168.27"/>
</g>
<!-- Node6 -->
<g id="node6" class="node">
<title>Node6</title>
<g id="a_node6"><a xlink:href="configuration__impl_8cpp.html" target="_top" xlink:title=" ">
<polygon fill="white" stroke="black" points="0,-0.5 0,-52.5 150,-52.5 150,-0.5 0,-0.5"/>
<text text-anchor="start" x="8" y="-40.5" font-family="Helvetica" font-size="10.00">/home/ec2&#45;user/workspace</text>
<text text-anchor="start" x="8" y="-29.5" font-family="Helvetica" font-size="10.00">/vsomeip/implementation</text>
<text text-anchor="start" x="8" y="-18.5" font-family="Helvetica" font-size="10.00">/configuration/src/configuration</text>
<text text-anchor="middle" x="75" y="-7.5" font-family="Helvetica" font-size="10.00">_impl.cpp</text>
</a>
</g>
</g>
<!-- Node5&#45;&gt;Node6 -->
<g id="edge5" class="edge">
<title>Node5&#45;&gt;Node6</title>
<path fill="none" stroke="midnightblue" d="M622.5,-110.12C516.83,-103.15 322.05,-86.72 159,-53 156.16,-52.41 153.29,-51.77 150.39,-51.09"/>
<polygon fill="midnightblue" stroke="midnightblue" points="622.55,-113.64 632.75,-110.79 623,-106.65 622.55,-113.64"/>
</g>
<!-- Node7 -->
<g id="node7" class="node">
<title>Node7</title>
<g id="a_node7"><a xlink:href="local__tcp__server__endpoint__impl_8cpp.html" target="_top" xlink:title=" ">
<polygon fill="white" stroke="black" points="168,-0.5 168,-52.5 302,-52.5 302,-0.5 168,-0.5"/>
<text text-anchor="start" x="176" y="-40.5" font-family="Helvetica" font-size="10.00">/home/ec2&#45;user/workspace</text>
<text text-anchor="start" x="176" y="-29.5" font-family="Helvetica" font-size="10.00">/vsomeip/implementation</text>
<text text-anchor="start" x="176" y="-18.5" font-family="Helvetica" font-size="10.00">/endpoints/src/local_tcp</text>
<text text-anchor="middle" x="235" y="-7.5" font-family="Helvetica" font-size="10.00">_server_endpoint_impl.cpp</text>
</a>
</g>
</g>
<!-- Node5&#45;&gt;Node7 -->
<g id="edge6" class="edge">
<title>Node5&#45;&gt;Node7</title>
<path fill="none" stroke="midnightblue" d="M622.55,-106.12C543.49,-96.67 417.62,-79.12 311,-53 308.16,-52.3 305.28,-51.55 302.37,-50.76"/>
<polygon fill="midnightblue" stroke="midnightblue" points="622.56,-109.65 632.91,-107.34 623.39,-102.69 622.56,-109.65"/>
</g>
<!-- Node8 -->
<g id="node8" class="node">
<title>Node8</title>
<g id="a_node8"><a xlink:href="local__uds__server__endpoint__impl_8cpp.html" target="_top" xlink:title=" ">
<polygon fill="white" stroke="black" points="320,-0.5 320,-52.5 454,-52.5 454,-0.5 320,-0.5"/>
<text text-anchor="start" x="328" y="-40.5" font-family="Helvetica" font-size="10.00">/home/ec2&#45;user/workspace</text>
<text text-anchor="start" x="328" y="-29.5" font-family="Helvetica" font-size="10.00">/vsomeip/implementation</text>
<text text-anchor="start" x="328" y="-18.5" font-family="Helvetica" font-size="10.00">/endpoints/src/local_uds</text>
<text text-anchor="middle" x="387" y="-7.5" font-family="Helvetica" font-size="10.00">_server_endpoint_impl.cpp</text>
</a>
</g>
</g>
<!-- Node5&#45;&gt;Node8 -->
<g id="edge7" class="edge">
<title>Node5&#45;&gt;Node8</title>
<path fill="none" stroke="midnightblue" d="M623.28,-96.03C576.7,-84.47 516.16,-68.8 463,-53 460.06,-52.13 457.07,-51.22 454.06,-50.28"/>
<polygon fill="midnightblue" stroke="midnightblue" points="622.45,-99.43 633,-98.44 624.13,-92.64 622.45,-99.43"/>
</g>
<!-- Node9 -->
<g id="node9" class="node">
<title>Node9</title>
<g id="a_node9"><a xlink:href="routing__manager__base_8cpp.html" target="_top" xlink:title=" ">
<polygon fill="white" stroke="black" points="472,-0.5 472,-52.5 612,-52.5 612,-0.5 472,-0.5"/>
<text text-anchor="start" x="480" y="-40.5" font-family="Helvetica" font-size="10.00">/home/ec2&#45;user/workspace</text>
<text text-anchor="start" x="480" y="-29.5" font-family="Helvetica" font-size="10.00">/vsomeip/implementation</text>
<text text-anchor="start" x="480" y="-18.5" font-family="Helvetica" font-size="10.00">/routing/src/routing_manager</text>
<text text-anchor="middle" x="542" y="-7.5" font-family="Helvetica" font-size="10.00">_base.cpp</text>
</a>
</g>
</g>
<!-- Node5&#45;&gt;Node9 -->
<g id="edge8" class="edge">
<title>Node5&#45;&gt;Node9</title>
<path fill="none" stroke="midnightblue" d="M645.51,-84.49C626.63,-74.1 605.68,-62.57 587.6,-52.61"/>
<polygon fill="midnightblue" stroke="midnightblue" points="643.85,-87.58 654.3,-89.34 647.23,-81.45 643.85,-87.58"/>
</g>
<!-- Node10 -->
<g id="node10" class="node">
<title>Node10</title>
<g id="a_node10"><a xlink:href="routing__manager__client_8cpp.html" target="_top" xlink:title=" ">
<polygon fill="white" stroke="black" points="630,-0.5 630,-52.5 770,-52.5 770,-0.5 630,-0.5"/>
<text text-anchor="start" x="638" y="-40.5" font-family="Helvetica" font-size="10.00">/home/ec2&#45;user/workspace</text>
<text text-anchor="start" x="638" y="-29.5" font-family="Helvetica" font-size="10.00">/vsomeip/implementation</text>
<text text-anchor="start" x="638" y="-18.5" font-family="Helvetica" font-size="10.00">/routing/src/routing_manager</text>
<text text-anchor="middle" x="700" y="-7.5" font-family="Helvetica" font-size="10.00">_client.cpp</text>
</a>
</g>
</g>
<!-- Node5&#45;&gt;Node10 -->
<g id="edge9" class="edge">
<title>Node5&#45;&gt;Node10</title>
<path fill="none" stroke="midnightblue" d="M700,-79.19C700,-70.28 700,-60.9 700,-52.61"/>
<polygon fill="midnightblue" stroke="midnightblue" points="696.5,-79.34 700,-89.34 703.5,-79.34 696.5,-79.34"/>
</g>
<!-- Node11 -->
<g id="node11" class="node">
<title>Node11</title>
<g id="a_node11"><a xlink:href="routing__manager__stub_8cpp.html" target="_top" xlink:title=" ">
<polygon fill="white" stroke="black" points="788,-0.5 788,-52.5 928,-52.5 928,-0.5 788,-0.5"/>
<text text-anchor="start" x="796" y="-40.5" font-family="Helvetica" font-size="10.00">/home/ec2&#45;user/workspace</text>
<text text-anchor="start" x="796" y="-29.5" font-family="Helvetica" font-size="10.00">/vsomeip/implementation</text>
<text text-anchor="start" x="796" y="-18.5" font-family="Helvetica" font-size="10.00">/routing/src/routing_manager</text>
<text text-anchor="middle" x="858" y="-7.5" font-family="Helvetica" font-size="10.00">_stub.cpp</text>
</a>
</g>
</g>
<!-- Node5&#45;&gt;Node11 -->
<g id="edge10" class="edge">
<title>Node5&#45;&gt;Node11</title>
<path fill="none" stroke="midnightblue" d="M754.49,-84.49C773.37,-74.1 794.32,-62.57 812.4,-52.61"/>
<polygon fill="midnightblue" stroke="midnightblue" points="752.77,-81.45 745.7,-89.34 756.15,-87.58 752.77,-81.45"/>
</g>
<!-- Node12 -->
<g id="node12" class="node">
<title>Node12</title>
<g id="a_node12"><a xlink:href="policy__manager_8cpp.html" target="_top" xlink:title=" ">
<polygon fill="white" stroke="black" points="946.5,-6 946.5,-47 1107.5,-47 1107.5,-6 946.5,-6"/>
<text text-anchor="start" x="954.5" y="-35" font-family="Helvetica" font-size="10.00">/home/ec2&#45;user/workspace</text>
<text text-anchor="start" x="954.5" y="-24" font-family="Helvetica" font-size="10.00">/vsomeip/implementation</text>
<text text-anchor="middle" x="1027" y="-13" font-family="Helvetica" font-size="10.00">/security/src/policy_manager.cpp</text>
</a>
</g>
</g>
<!-- Node5&#45;&gt;Node12 -->
<g id="edge11" class="edge">
<title>Node5&#45;&gt;Node12</title>
<path fill="none" stroke="midnightblue" d="M776.71,-95.05C823.17,-83.16 883.57,-67.5 937,-53 944.05,-51.09 951.41,-49.06 958.74,-47.01"/>
<polygon fill="midnightblue" stroke="midnightblue" points="775.84,-91.66 767.02,-97.53 777.57,-98.45 775.84,-91.66"/>
</g>
<!-- Node13 -->
<g id="node13" class="node">
<title>Node13</title>
<g id="a_node13"><a xlink:href="policy__manager__impl_8cpp.html" target="_top" xlink:title=" ">
<polygon fill="white" stroke="black" points="1126,-0.5 1126,-52.5 1268,-52.5 1268,-0.5 1126,-0.5"/>
<text text-anchor="start" x="1134" y="-40.5" font-family="Helvetica" font-size="10.00">/home/ec2&#45;user/workspace</text>
<text text-anchor="start" x="1134" y="-29.5" font-family="Helvetica" font-size="10.00">/vsomeip/implementation</text>
<text text-anchor="start" x="1134" y="-18.5" font-family="Helvetica" font-size="10.00">/security/src/policy_manager</text>
<text text-anchor="middle" x="1197" y="-7.5" font-family="Helvetica" font-size="10.00">_impl.cpp</text>
</a>
</g>
</g>
<!-- Node5&#45;&gt;Node13 -->
<g id="edge12" class="edge">
<title>Node5&#45;&gt;Node13</title>
<path fill="none" stroke="midnightblue" d="M777.06,-106.92C861.29,-97.76 999.85,-80.12 1117,-53 1119.84,-52.34 1122.73,-51.63 1125.63,-50.88"/>
<polygon fill="midnightblue" stroke="midnightblue" points="776.64,-103.45 767.07,-108 777.38,-110.41 776.64,-103.45"/>
</g>
<!-- Node14 -->
<g id="node14" class="node">
<title>Node14</title>
<g id="a_node14"><a xlink:href="security_8cpp.html" target="_top" xlink:title=" ">
<polygon fill="white" stroke="black" points="1286,-6 1286,-47 1420,-47 1420,-6 1286,-6"/>
<text text-anchor="start" x="1294" y="-35" font-family="Helvetica" font-size="10.00">/home/ec2&#45;user/workspace</text>
<text text-anchor="start" x="1294" y="-24" font-family="Helvetica" font-size="10.00">/vsomeip/implementation</text>
<text text-anchor="middle" x="1353" y="-13" font-family="Helvetica" font-size="10.00">/security/src/security.cpp</text>
</a>
</g>
</g>
<!-- Node5&#45;&gt;Node14 -->
<g id="edge13" class="edge">
<title>Node5&#45;&gt;Node14</title>
<path fill="none" stroke="midnightblue" d="M777.54,-111.59C889.12,-106.19 1100.91,-91.45 1277,-53 1284.34,-51.4 1291.97,-49.34 1299.43,-47.08"/>
<polygon fill="midnightblue" stroke="midnightblue" points="777.22,-108.1 767.39,-112.07 777.55,-115.09 777.22,-108.1"/>
</g>
</g>
</svg>
