<?xml version="1.0" encoding="UTF-8" standalone="no"?>
<!DOCTYPE svg PUBLIC "-//W3C//DTD SVG 1.1//EN"
 "http://www.w3.org/Graphics/SVG/1.1/DTD/svg11.dtd">
<!-- Generated by graphviz version 2.44.0 (0)
 -->
<!-- Title: /home/ec2&#45;user/workspace/vsomeip/implementation/protocol/src/deregister_application_command.cpp Pages: 1 -->
<svg width="365pt" height="352pt"
 viewBox="0.00 0.00 365.00 352.00" xmlns="http://www.w3.org/2000/svg" xmlns:xlink="http://www.w3.org/1999/xlink">
<g id="graph0" class="graph" transform="scale(1 1) rotate(0) translate(4 348)">
<title>/home/ec2&#45;user/workspace/vsomeip/implementation/protocol/src/deregister_application_command.cpp</title>
<polygon fill="white" stroke="transparent" points="-4,4 -4,-348 361,-348 361,4 -4,4"/>
<!-- Node1 -->
<g id="node1" class="node">
<title>Node1</title>
<g id="a_node1"><a xlink:title=" ">
<polygon fill="#bfbfbf" stroke="black" points="5.5,-291.5 5.5,-343.5 140.5,-343.5 140.5,-291.5 5.5,-291.5"/>
<text text-anchor="start" x="13.5" y="-331.5" font-family="Helvetica" font-size="10.00">/home/ec2&#45;user/workspace</text>
<text text-anchor="start" x="13.5" y="-320.5" font-family="Helvetica" font-size="10.00">/vsomeip/implementation</text>
<text text-anchor="start" x="13.5" y="-309.5" font-family="Helvetica" font-size="10.00">/protocol/src/deregister</text>
<text text-anchor="middle" x="73" y="-298.5" font-family="Helvetica" font-size="10.00">_application_command.cpp</text>
</a>
</g>
</g>
<!-- Node2 -->
<g id="node2" class="node">
<title>Node2</title>
<g id="a_node2"><a xlink:title=" ">
<polygon fill="white" stroke="#bfbfbf" points="0,-230 0,-249 40,-249 40,-230 0,-230"/>
<text text-anchor="middle" x="20" y="-237" font-family="Helvetica" font-size="10.00">limits</text>
</a>
</g>
</g>
<!-- Node1&#45;&gt;Node2 -->
<g id="edge1" class="edge">
<title>Node1&#45;&gt;Node2</title>
<path fill="none" stroke="midnightblue" d="M55.35,-291.19C47.68,-280.2 38.9,-267.6 32.01,-257.72"/>
<polygon fill="midnightblue" stroke="midnightblue" points="34.66,-255.41 26.07,-249.21 28.92,-259.41 34.66,-255.41"/>
</g>
<!-- Node3 -->
<g id="node3" class="node">
<title>Node3</title>
<g id="a_node3"><a xlink:href="deregister__application__command_8hpp.html" target="_top" xlink:title=" ">
<polygon fill="white" stroke="black" points="58.5,-224.5 58.5,-254.5 193.5,-254.5 193.5,-224.5 58.5,-224.5"/>
<text text-anchor="start" x="66.5" y="-242.5" font-family="Helvetica" font-size="10.00">../include/deregister</text>
<text text-anchor="middle" x="126" y="-231.5" font-family="Helvetica" font-size="10.00">_application_command.hpp</text>
</a>
</g>
</g>
<!-- Node1&#45;&gt;Node3 -->
<g id="edge2" class="edge">
<title>Node1&#45;&gt;Node3</title>
<path fill="none" stroke="midnightblue" d="M90.65,-291.19C96.97,-282.13 104.06,-271.97 110.21,-263.14"/>
<polygon fill="midnightblue" stroke="midnightblue" points="113.15,-265.05 116,-254.85 107.41,-261.05 113.15,-265.05"/>
</g>
<!-- Node4 -->
<g id="node4" class="node">
<title>Node4</title>
<g id="a_node4"><a xlink:href="simple__command_8hpp.html" target="_top" xlink:title=" ">
<polygon fill="white" stroke="black" points="70,-168.5 70,-187.5 182,-187.5 182,-168.5 70,-168.5"/>
<text text-anchor="middle" x="126" y="-175.5" font-family="Helvetica" font-size="10.00">simple_command.hpp</text>
</a>
</g>
</g>
<!-- Node3&#45;&gt;Node4 -->
<g id="edge3" class="edge">
<title>Node3&#45;&gt;Node4</title>
<path fill="none" stroke="midnightblue" d="M126,-224.4C126,-216.47 126,-206.46 126,-197.86"/>
<polygon fill="midnightblue" stroke="midnightblue" points="129.5,-197.66 126,-187.66 122.5,-197.66 129.5,-197.66"/>
</g>
<!-- Node5 -->
<g id="node5" class="node">
<title>Node5</title>
<g id="a_node5"><a xlink:href="command_8hpp.html" target="_top" xlink:title=" ">
<polygon fill="white" stroke="black" points="87,-112.5 87,-131.5 165,-131.5 165,-112.5 87,-112.5"/>
<text text-anchor="middle" x="126" y="-119.5" font-family="Helvetica" font-size="10.00">command.hpp</text>
</a>
</g>
</g>
<!-- Node4&#45;&gt;Node5 -->
<g id="edge4" class="edge">
<title>Node4&#45;&gt;Node5</title>
<path fill="none" stroke="midnightblue" d="M126,-168.08C126,-161.01 126,-150.86 126,-141.99"/>
<polygon fill="midnightblue" stroke="midnightblue" points="129.5,-141.75 126,-131.75 122.5,-141.75 129.5,-141.75"/>
</g>
<!-- Node6 -->
<g id="node6" class="node">
<title>Node6</title>
<g id="a_node6"><a xlink:title=" ">
<polygon fill="white" stroke="#bfbfbf" points="15,-56.5 15,-75.5 61,-75.5 61,-56.5 15,-56.5"/>
<text text-anchor="middle" x="38" y="-63.5" font-family="Helvetica" font-size="10.00">cstring</text>
</a>
</g>
</g>
<!-- Node5&#45;&gt;Node6 -->
<g id="edge5" class="edge">
<title>Node5&#45;&gt;Node6</title>
<path fill="none" stroke="midnightblue" d="M111.86,-112.32C98.13,-103.9 77.06,-90.97 60.94,-81.07"/>
<polygon fill="midnightblue" stroke="midnightblue" points="62.46,-77.9 52.1,-75.65 58.8,-83.87 62.46,-77.9"/>
</g>
<!-- Node7 -->
<g id="node7" class="node">
<title>Node7</title>
<g id="a_node7"><a xlink:title=" ">
<polygon fill="white" stroke="#bfbfbf" points="79.5,-56.5 79.5,-75.5 122.5,-75.5 122.5,-56.5 79.5,-56.5"/>
<text text-anchor="middle" x="101" y="-63.5" font-family="Helvetica" font-size="10.00">vector</text>
</a>
</g>
</g>
<!-- Node5&#45;&gt;Node7 -->
<g id="edge6" class="edge">
<title>Node5&#45;&gt;Node7</title>
<path fill="none" stroke="midnightblue" d="M121.87,-112.08C118.49,-104.77 113.58,-94.18 109.38,-85.1"/>
<polygon fill="midnightblue" stroke="midnightblue" points="112.43,-83.36 105.05,-75.75 106.08,-86.3 112.43,-83.36"/>
</g>
<!-- Node8 -->
<g id="node8" class="node">
<title>Node8</title>
<g id="a_node8"><a xlink:title=" ">
<polygon fill="white" stroke="#bfbfbf" points="81,-0.5 81,-19.5 221,-19.5 221,-0.5 81,-0.5"/>
<text text-anchor="middle" x="151" y="-7.5" font-family="Helvetica" font-size="10.00">vsomeip/primitive_types.hpp</text>
</a>
</g>
</g>
<!-- Node5&#45;&gt;Node8 -->
<g id="edge7" class="edge">
<title>Node5&#45;&gt;Node8</title>
<path fill="none" stroke="midnightblue" d="M127.96,-112.37C132,-94.62 141.3,-53.67 146.77,-29.6"/>
<polygon fill="midnightblue" stroke="midnightblue" points="150.24,-30.12 149.05,-19.59 143.42,-28.57 150.24,-30.12"/>
</g>
<!-- Node9 -->
<g id="node9" class="node">
<title>Node9</title>
<g id="a_node9"><a xlink:href="protocol_8hpp.html" target="_top" xlink:title=" ">
<polygon fill="white" stroke="black" points="179,-56.5 179,-75.5 249,-75.5 249,-56.5 179,-56.5"/>
<text text-anchor="middle" x="214" y="-63.5" font-family="Helvetica" font-size="10.00">protocol.hpp</text>
</a>
</g>
</g>
<!-- Node5&#45;&gt;Node9 -->
<g id="edge8" class="edge">
<title>Node5&#45;&gt;Node9</title>
<path fill="none" stroke="midnightblue" d="M140.14,-112.32C153.87,-103.9 174.94,-90.97 191.06,-81.07"/>
<polygon fill="midnightblue" stroke="midnightblue" points="193.2,-83.87 199.9,-75.65 189.54,-77.9 193.2,-83.87"/>
</g>
<!-- Node9&#45;&gt;Node8 -->
<g id="edge10" class="edge">
<title>Node9&#45;&gt;Node8</title>
<path fill="none" stroke="midnightblue" d="M203.88,-56.32C194.47,-48.26 180.26,-36.08 168.93,-26.37"/>
<polygon fill="midnightblue" stroke="midnightblue" points="171.18,-23.68 161.31,-19.83 166.62,-29 171.18,-23.68"/>
</g>
<!-- Node10 -->
<g id="node10" class="node">
<title>Node10</title>
<g id="a_node10"><a xlink:title=" ">
<polygon fill="white" stroke="#bfbfbf" points="239,-0.5 239,-19.5 357,-19.5 357,-0.5 239,-0.5"/>
<text text-anchor="middle" x="298" y="-7.5" font-family="Helvetica" font-size="10.00">vsomeip/constants.hpp</text>
</a>
</g>
</g>
<!-- Node9&#45;&gt;Node10 -->
<g id="edge9" class="edge">
<title>Node9&#45;&gt;Node10</title>
<path fill="none" stroke="midnightblue" d="M227.5,-56.32C240.6,-47.9 260.71,-34.97 276.11,-25.07"/>
<polygon fill="midnightblue" stroke="midnightblue" points="278.02,-28.01 284.54,-19.65 274.23,-22.12 278.02,-28.01"/>
</g>
</g>
</svg>
