<?xml version="1.0" encoding="UTF-8" standalone="no"?>
<!DOCTYPE svg PUBLIC "-//W3C//DTD SVG 1.1//EN"
 "http://www.w3.org/Graphics/SVG/1.1/DTD/svg11.dtd">
<!-- Generated by graphviz version 2.44.0 (0)
 -->
<!-- Title: /home/ec2&#45;user/workspace/vsomeip/implementation/routing/include Pages: 1 -->
<svg width="491pt" height="151pt"
 viewBox="0.00 0.00 490.50 151.00" xmlns="http://www.w3.org/2000/svg" xmlns:xlink="http://www.w3.org/1999/xlink">
<g id="graph0" class="graph" transform="scale(1 1) rotate(0) translate(4 147)">
<title>/home/ec2&#45;user/workspace/vsomeip/implementation/routing/include</title>
<polygon fill="white" stroke="transparent" points="-4,4 -4,-147 486.5,-147 486.5,4 -4,4"/>
<g id="clust1" class="cluster">
<title>clusterdir_cf72682d9b1c0bc1c562a1f19b8defa0</title>
<g id="a_clust1"><a xlink:href="dir_cf72682d9b1c0bc1c562a1f19b8defa0.html" target="_top" xlink:title="routing">
<polygon fill="#edf0f7" stroke="#7f7f7f" stroke-dasharray="5,2" points="220,-64 220,-135 290,-135 290,-64 220,-64"/>
<text text-anchor="middle" x="255" y="-123" font-family="Helvetica" font-size="10.00">routing</text>
</a>
</g>
</g>
<!-- dir_3bfeaedfdd72f75729bfd36e2baddd74 -->
<g id="node1" class="node">
<title>dir_3bfeaedfdd72f75729bfd36e2baddd74</title>
<g id="a_node1"><a xlink:href="dir_3bfeaedfdd72f75729bfd36e2baddd74.html" target="_top" xlink:title="include">
<polygon fill="#edf0f7" stroke="#404040" stroke-width="2" points="282,-108 228,-108 228,-72 282,-72 282,-108"/>
<text text-anchor="middle" x="255" y="-87.5" font-family="Helvetica" font-size="10.00">include</text>
</a>
</g>
</g>
<!-- dir_061a1b0a0a40a7427f2461ed2f520013 -->
<g id="node2" class="node">
<title>dir_061a1b0a0a40a7427f2461ed2f520013</title>
<g id="a_node2"><a xlink:href="dir_061a1b0a0a40a7427f2461ed2f520013.html" target="_top" xlink:title="service_discovery">
<polygon fill="none" stroke="red" stroke-dasharray="5,2" points="96,-36 0,-36 0,0 96,0 96,-36"/>
<text text-anchor="middle" x="48" y="-15.5" font-family="Helvetica" font-size="10.00">service_discovery</text>
</a>
</g>
</g>
<!-- dir_3bfeaedfdd72f75729bfd36e2baddd74&#45;&gt;dir_061a1b0a0a40a7427f2461ed2f520013 -->
<g id="edge1" class="edge">
<title>dir_3bfeaedfdd72f75729bfd36e2baddd74&#45;&gt;dir_061a1b0a0a40a7427f2461ed2f520013</title>
<path fill="none" stroke="black" d="M227.94,-79.85C197.06,-69.41 145.67,-52.03 105.7,-38.51"/>
<polygon fill="black" stroke="black" points="106.66,-35.14 96.06,-35.25 104.41,-41.77 106.66,-35.14"/>
<g id="a_edge1&#45;headlabel"><a xlink:href="dir_000028_000063.html" target="_top" xlink:title="1">
<text text-anchor="middle" x="110.97" y="-31.1" font-family="Helvetica" font-size="10.00">1</text>
</a>
</g>
</g>
<!-- dir_3ce07147fcbac31fc4d5892a851f6627 -->
<g id="node3" class="node">
<title>dir_3ce07147fcbac31fc4d5892a851f6627</title>
<g id="a_node3"><a xlink:href="dir_3ce07147fcbac31fc4d5892a851f6627.html" target="_top" xlink:title="message">
<polygon fill="none" stroke="red" stroke-dasharray="5,2" points="170,-36 114,-36 114,0 170,0 170,-36"/>
<text text-anchor="middle" x="142" y="-15.5" font-family="Helvetica" font-size="10.00">message</text>
</a>
</g>
</g>
<!-- dir_3bfeaedfdd72f75729bfd36e2baddd74&#45;&gt;dir_3ce07147fcbac31fc4d5892a851f6627 -->
<g id="edge2" class="edge">
<title>dir_3bfeaedfdd72f75729bfd36e2baddd74&#45;&gt;dir_3ce07147fcbac31fc4d5892a851f6627</title>
<path fill="none" stroke="black" d="M227.93,-72.23C213.06,-63.02 194.41,-51.47 178.29,-41.48"/>
<polygon fill="black" stroke="black" points="179.97,-38.41 169.63,-36.12 176.29,-44.36 179.97,-38.41"/>
<g id="a_edge2&#45;headlabel"><a xlink:href="dir_000028_000041.html" target="_top" xlink:title="2">
<text text-anchor="middle" x="184.53" y="-35.39" font-family="Helvetica" font-size="10.00">2</text>
</a>
</g>
</g>
<!-- dir_43cc1d4eb251b5d8cbfdd5909fd3ba45 -->
<g id="node4" class="node">
<title>dir_43cc1d4eb251b5d8cbfdd5909fd3ba45</title>
<g id="a_node4"><a xlink:href="dir_43cc1d4eb251b5d8cbfdd5909fd3ba45.html" target="_top" xlink:title="protocol">
<polygon fill="none" stroke="red" stroke-dasharray="5,2" points="242,-36 188,-36 188,0 242,0 242,-36"/>
<text text-anchor="middle" x="215" y="-15.5" font-family="Helvetica" font-size="10.00">protocol</text>
</a>
</g>
</g>
<!-- dir_3bfeaedfdd72f75729bfd36e2baddd74&#45;&gt;dir_43cc1d4eb251b5d8cbfdd5909fd3ba45 -->
<g id="edge3" class="edge">
<title>dir_3bfeaedfdd72f75729bfd36e2baddd74&#45;&gt;dir_43cc1d4eb251b5d8cbfdd5909fd3ba45</title>
<path fill="none" stroke="black" d="M245.11,-71.7C240.51,-63.64 234.94,-53.89 229.85,-44.98"/>
<polygon fill="black" stroke="black" points="232.77,-43.05 224.77,-36.1 226.7,-46.52 232.77,-43.05"/>
<g id="a_edge3&#45;headlabel"><a xlink:href="dir_000028_000058.html" target="_top" xlink:title="4">
<text text-anchor="middle" x="237.02" y="-42.26" font-family="Helvetica" font-size="10.00">4</text>
</a>
</g>
</g>
<!-- dir_56126a1d848d4a1832817232e79a5a18 -->
<g id="node5" class="node">
<title>dir_56126a1d848d4a1832817232e79a5a18</title>
<g id="a_node5"><a xlink:href="dir_56126a1d848d4a1832817232e79a5a18.html" target="_top" xlink:title="configuration">
<polygon fill="none" stroke="red" stroke-dasharray="5,2" points="332,-36 260,-36 260,0 332,0 332,-36"/>
<text text-anchor="middle" x="296" y="-15.5" font-family="Helvetica" font-size="10.00">configuration</text>
</a>
</g>
</g>
<!-- dir_3bfeaedfdd72f75729bfd36e2baddd74&#45;&gt;dir_56126a1d848d4a1832817232e79a5a18 -->
<g id="edge4" class="edge">
<title>dir_3bfeaedfdd72f75729bfd36e2baddd74&#45;&gt;dir_56126a1d848d4a1832817232e79a5a18</title>
<path fill="none" stroke="black" d="M265.13,-71.7C269.85,-63.64 275.56,-53.89 280.78,-44.98"/>
<polygon fill="black" stroke="black" points="283.95,-46.5 285.98,-36.1 277.91,-42.96 283.95,-46.5"/>
<g id="a_edge4&#45;headlabel"><a xlink:href="dir_000028_000006.html" target="_top" xlink:title="4">
<text text-anchor="middle" x="284.58" y="-48.54" font-family="Helvetica" font-size="10.00">4</text>
</a>
</g>
</g>
<!-- dir_9c7b9d609ec855ab7fbf064b0ccf8e4e -->
<g id="node6" class="node">
<title>dir_9c7b9d609ec855ab7fbf064b0ccf8e4e</title>
<g id="a_node6"><a xlink:href="dir_9c7b9d609ec855ab7fbf064b0ccf8e4e.html" target="_top" xlink:title="endpoints">
<polygon fill="none" stroke="red" stroke-dasharray="5,2" points="409.5,-36 350.5,-36 350.5,0 409.5,0 409.5,-36"/>
<text text-anchor="middle" x="380" y="-15.5" font-family="Helvetica" font-size="10.00">endpoints</text>
</a>
</g>
</g>
<!-- dir_3bfeaedfdd72f75729bfd36e2baddd74&#45;&gt;dir_9c7b9d609ec855ab7fbf064b0ccf8e4e -->
<g id="edge5" class="edge">
<title>dir_3bfeaedfdd72f75729bfd36e2baddd74&#45;&gt;dir_9c7b9d609ec855ab7fbf064b0ccf8e4e</title>
<path fill="none" stroke="black" d="M282.12,-73.81C299.48,-64.09 322.26,-51.33 341.48,-40.57"/>
<polygon fill="black" stroke="black" points="343.29,-43.57 350.31,-35.63 339.87,-37.46 343.29,-43.57"/>
<g id="a_edge5&#45;headlabel"><a xlink:href="dir_000028_000015.html" target="_top" xlink:title="5">
<text text-anchor="middle" x="341.54" y="-45.3" font-family="Helvetica" font-size="10.00">5</text>
</a>
</g>
</g>
<!-- dir_b31d54d5631803016a26f28213a41162 -->
<g id="node7" class="node">
<title>dir_b31d54d5631803016a26f28213a41162</title>
<g id="a_node7"><a xlink:href="dir_b31d54d5631803016a26f28213a41162.html" target="_top" xlink:title="interface">
<polygon fill="none" stroke="red" points="482.5,-36 427.5,-36 427.5,0 482.5,0 482.5,-36"/>
<text text-anchor="middle" x="455" y="-15.5" font-family="Helvetica" font-size="10.00">interface</text>
</a>
</g>
</g>
<!-- dir_3bfeaedfdd72f75729bfd36e2baddd74&#45;&gt;dir_b31d54d5631803016a26f28213a41162 -->
<g id="edge6" class="edge">
<title>dir_3bfeaedfdd72f75729bfd36e2baddd74&#45;&gt;dir_b31d54d5631803016a26f28213a41162</title>
<path fill="none" stroke="black" d="M282.08,-81.41C313.04,-72.49 365.34,-56.65 417.8,-36.26"/>
<polygon fill="black" stroke="black" points="419.23,-39.46 427.25,-32.54 416.66,-32.95 419.23,-39.46"/>
<g id="a_edge6&#45;headlabel"><a xlink:href="dir_000028_000034.html" target="_top" xlink:title="7">
<text text-anchor="middle" x="416.92" y="-40.92" font-family="Helvetica" font-size="10.00">7</text>
</a>
</g>
</g>
</g>
</svg>
