<?xml version="1.0" encoding="UTF-8" standalone="no"?>
<!DOCTYPE svg PUBLIC "-//W3C//DTD SVG 1.1//EN"
 "http://www.w3.org/Graphics/SVG/1.1/DTD/svg11.dtd">
<!-- Generated by graphviz version 2.44.0 (0)
 -->
<!-- Title: /home/ec2&#45;user/workspace/vsomeip/implementation/e2e_protection/include/e2e/profile/profile_interface Pages: 1 -->
<svg width="126pt" height="151pt"
 viewBox="0.00 0.00 126.00 151.00" xmlns="http://www.w3.org/2000/svg" xmlns:xlink="http://www.w3.org/1999/xlink">
<g id="graph0" class="graph" transform="scale(1 1) rotate(0) translate(4 147)">
<title>/home/ec2&#45;user/workspace/vsomeip/implementation/e2e_protection/include/e2e/profile/profile_interface</title>
<polygon fill="white" stroke="transparent" points="-4,4 -4,-147 122,-147 122,4 -4,4"/>
<g id="clust1" class="cluster">
<title>clusterdir_6430ed959aa6e92f798ce09450cbb0e0</title>
<g id="a_clust1"><a xlink:href="dir_6430ed959aa6e92f798ce09450cbb0e0.html" target="_top" xlink:title="profile">
<polygon fill="#edf0f7" stroke="#7f7f7f" stroke-dasharray="5,2" points="8,-64 8,-135 110,-135 110,-64 8,-64"/>
<text text-anchor="middle" x="59" y="-123" font-family="Helvetica" font-size="10.00">profile</text>
</a>
</g>
</g>
<!-- dir_14b89642d47e591ba61a09b9ab23b291 -->
<g id="node1" class="node">
<title>dir_14b89642d47e591ba61a09b9ab23b291</title>
<g id="a_node1"><a xlink:href="dir_14b89642d47e591ba61a09b9ab23b291.html" target="_top" xlink:title="profile_interface">
<polygon fill="#edf0f7" stroke="#404040" stroke-width="2" points="102,-108 16,-108 16,-72 102,-72 102,-108"/>
<text text-anchor="middle" x="59" y="-87.5" font-family="Helvetica" font-size="10.00">profile_interface</text>
</a>
</g>
</g>
<!-- dir_8c17fa292750306381d606ba00a14046 -->
<g id="node2" class="node">
<title>dir_8c17fa292750306381d606ba00a14046</title>
<g id="a_node2"><a xlink:href="dir_8c17fa292750306381d606ba00a14046.html" target="_top" xlink:title="buffer">
<polygon fill="none" stroke="#7f7f7f" points="86,-36 32,-36 32,0 86,0 86,-36"/>
<text text-anchor="middle" x="59" y="-15.5" font-family="Helvetica" font-size="10.00">buffer</text>
</a>
</g>
</g>
<!-- dir_14b89642d47e591ba61a09b9ab23b291&#45;&gt;dir_8c17fa292750306381d606ba00a14046 -->
<g id="edge1" class="edge">
<title>dir_14b89642d47e591ba61a09b9ab23b291&#45;&gt;dir_8c17fa292750306381d606ba00a14046</title>
<path fill="none" stroke="black" d="M59,-71.7C59,-63.98 59,-54.71 59,-46.11"/>
<polygon fill="black" stroke="black" points="62.5,-46.1 59,-36.1 55.5,-46.1 62.5,-46.1"/>
<g id="a_edge1&#45;headlabel"><a xlink:href="dir_000057_000002.html" target="_top" xlink:title="2">
<text text-anchor="middle" x="65.34" y="-47.2" font-family="Helvetica" font-size="10.00">2</text>
</a>
</g>
</g>
</g>
</svg>
