<?xml version="1.0" encoding="UTF-8" standalone="no"?>
<!DOCTYPE svg PUBLIC "-//W3C//DTD SVG 1.1//EN"
 "http://www.w3.org/Graphics/SVG/1.1/DTD/svg11.dtd">
<!-- Generated by graphviz version 2.44.0 (0)
 -->
<!-- Title: /home/ec2&#45;user/workspace/vsomeip/implementation/configuration/src Pages: 1 -->
<svg width="698pt" height="167pt"
 viewBox="0.00 0.00 698.00 167.00" xmlns="http://www.w3.org/2000/svg" xmlns:xlink="http://www.w3.org/1999/xlink">
<g id="graph0" class="graph" transform="scale(1 1) rotate(0) translate(4 163)">
<title>/home/ec2&#45;user/workspace/vsomeip/implementation/configuration/src</title>
<polygon fill="white" stroke="transparent" points="-4,4 -4,-163 694,-163 694,4 -4,4"/>
<g id="clust1" class="cluster">
<title>clusterdir_56126a1d848d4a1832817232e79a5a18</title>
<g id="a_clust1"><a xlink:href="dir_56126a1d848d4a1832817232e79a5a18.html" target="_top" xlink:title="configuration">
<polygon fill="#edf0f7" stroke="#7f7f7f" stroke-dasharray="5,2" points="8,-8 8,-151 80,-151 80,-8 8,-8"/>
<text text-anchor="middle" x="44" y="-139" font-family="Helvetica" font-size="10.00">configuration</text>
</a>
</g>
</g>
<!-- dir_dca01e643b0ec4b7c70c70c593767eaa -->
<g id="node1" class="node">
<title>dir_dca01e643b0ec4b7c70c70c593767eaa</title>
<g id="a_node1"><a xlink:href="dir_dca01e643b0ec4b7c70c70c593767eaa.html" target="_top" xlink:title="include">
<polygon fill="#a2b4d6" stroke="#404040" points="70,-52 16,-52 16,-16 70,-16 70,-52"/>
<text text-anchor="middle" x="43" y="-31.5" font-family="Helvetica" font-size="10.00">include</text>
</a>
</g>
</g>
<!-- dir_2358b23896e7c9ac9fc7fa42dba11fd1 -->
<g id="node2" class="node">
<title>dir_2358b23896e7c9ac9fc7fa42dba11fd1</title>
<g id="a_node2"><a xlink:href="dir_2358b23896e7c9ac9fc7fa42dba11fd1.html" target="_top" xlink:title="src">
<polygon fill="#edf0f7" stroke="#404040" stroke-width="2" points="72,-124 18,-124 18,-88 72,-88 72,-124"/>
<text text-anchor="middle" x="45" y="-103.5" font-family="Helvetica" font-size="10.00">src</text>
</a>
</g>
</g>
<!-- dir_2358b23896e7c9ac9fc7fa42dba11fd1&#45;&gt;dir_dca01e643b0ec4b7c70c70c593767eaa -->
<g id="edge8" class="edge">
<title>dir_2358b23896e7c9ac9fc7fa42dba11fd1&#45;&gt;dir_dca01e643b0ec4b7c70c70c593767eaa</title>
<path fill="none" stroke="black" d="M44.51,-87.7C44.29,-79.98 44.02,-70.71 43.77,-62.11"/>
<polygon fill="black" stroke="black" points="47.27,-62 43.49,-52.1 40.28,-62.2 47.27,-62"/>
<g id="a_edge8&#45;headlabel"><a xlink:href="dir_000066_000021.html" target="_top" xlink:title="7">
<text text-anchor="middle" x="50.21" y="-63.01" font-family="Helvetica" font-size="10.00">7</text>
</a>
</g>
</g>
<!-- dir_061a1b0a0a40a7427f2461ed2f520013 -->
<g id="node3" class="node">
<title>dir_061a1b0a0a40a7427f2461ed2f520013</title>
<g id="a_node3"><a xlink:href="dir_061a1b0a0a40a7427f2461ed2f520013.html" target="_top" xlink:title="service_discovery">
<polygon fill="none" stroke="red" stroke-dasharray="5,2" points="184,-52 88,-52 88,-16 184,-16 184,-52"/>
<text text-anchor="middle" x="136" y="-31.5" font-family="Helvetica" font-size="10.00">service_discovery</text>
</a>
</g>
</g>
<!-- dir_2358b23896e7c9ac9fc7fa42dba11fd1&#45;&gt;dir_061a1b0a0a40a7427f2461ed2f520013 -->
<g id="edge1" class="edge">
<title>dir_2358b23896e7c9ac9fc7fa42dba11fd1&#45;&gt;dir_061a1b0a0a40a7427f2461ed2f520013</title>
<path fill="none" stroke="black" d="M67.49,-87.7C78.96,-78.88 93.06,-68.03 105.48,-58.47"/>
<polygon fill="black" stroke="black" points="107.97,-60.98 113.76,-52.1 103.7,-55.43 107.97,-60.98"/>
<g id="a_edge1&#45;headlabel"><a xlink:href="dir_000066_000063.html" target="_top" xlink:title="1">
<text text-anchor="middle" x="106.85" y="-62.92" font-family="Helvetica" font-size="10.00">1</text>
</a>
</g>
</g>
<!-- dir_43cc1d4eb251b5d8cbfdd5909fd3ba45 -->
<g id="node4" class="node">
<title>dir_43cc1d4eb251b5d8cbfdd5909fd3ba45</title>
<g id="a_node4"><a xlink:href="dir_43cc1d4eb251b5d8cbfdd5909fd3ba45.html" target="_top" xlink:title="protocol">
<polygon fill="none" stroke="red" stroke-dasharray="5,2" points="256,-52 202,-52 202,-16 256,-16 256,-52"/>
<text text-anchor="middle" x="229" y="-31.5" font-family="Helvetica" font-size="10.00">protocol</text>
</a>
</g>
</g>
<!-- dir_2358b23896e7c9ac9fc7fa42dba11fd1&#45;&gt;dir_43cc1d4eb251b5d8cbfdd5909fd3ba45 -->
<g id="edge2" class="edge">
<title>dir_2358b23896e7c9ac9fc7fa42dba11fd1&#45;&gt;dir_43cc1d4eb251b5d8cbfdd5909fd3ba45</title>
<path fill="none" stroke="black" d="M72.04,-96.2C100.07,-86.88 145.29,-71.33 192.53,-52.01"/>
<polygon fill="black" stroke="black" points="194.09,-55.15 202,-48.1 191.42,-48.68 194.09,-55.15"/>
<g id="a_edge2&#45;headlabel"><a xlink:href="dir_000066_000058.html" target="_top" xlink:title="1">
<text text-anchor="middle" x="191.86" y="-56.65" font-family="Helvetica" font-size="10.00">1</text>
</a>
</g>
</g>
<!-- dir_6972051101bc5f8d68d31d49f06d7aaf -->
<g id="node5" class="node">
<title>dir_6972051101bc5f8d68d31d49f06d7aaf</title>
<g id="a_node5"><a xlink:href="dir_6972051101bc5f8d68d31d49f06d7aaf.html" target="_top" xlink:title="utility">
<polygon fill="none" stroke="red" stroke-dasharray="5,2" points="328,-52 274,-52 274,-16 328,-16 328,-52"/>
<text text-anchor="middle" x="301" y="-31.5" font-family="Helvetica" font-size="10.00">utility</text>
</a>
</g>
</g>
<!-- dir_2358b23896e7c9ac9fc7fa42dba11fd1&#45;&gt;dir_6972051101bc5f8d68d31d49f06d7aaf -->
<g id="edge3" class="edge">
<title>dir_2358b23896e7c9ac9fc7fa42dba11fd1&#45;&gt;dir_6972051101bc5f8d68d31d49f06d7aaf</title>
<path fill="none" stroke="black" d="M72.27,-100.29C112.55,-92.95 190.32,-77.26 263.85,-52.04"/>
<polygon fill="black" stroke="black" points="265.44,-55.19 273.73,-48.59 263.13,-48.58 265.44,-55.19"/>
<g id="a_edge3&#45;headlabel"><a xlink:href="dir_000066_000080.html" target="_top" xlink:title="1">
<text text-anchor="middle" x="262.99" y="-56.56" font-family="Helvetica" font-size="10.00">1</text>
</a>
</g>
</g>
<!-- dir_96312f6272b562b103a6f862042db4a4 -->
<g id="node6" class="node">
<title>dir_96312f6272b562b103a6f862042db4a4</title>
<g id="a_node6"><a xlink:href="dir_96312f6272b562b103a6f862042db4a4.html" target="_top" xlink:title="security">
<polygon fill="none" stroke="red" stroke-dasharray="5,2" points="400,-52 346,-52 346,-16 400,-16 400,-52"/>
<text text-anchor="middle" x="373" y="-31.5" font-family="Helvetica" font-size="10.00">security</text>
</a>
</g>
</g>
<!-- dir_2358b23896e7c9ac9fc7fa42dba11fd1&#45;&gt;dir_96312f6272b562b103a6f862042db4a4 -->
<g id="edge4" class="edge">
<title>dir_2358b23896e7c9ac9fc7fa42dba11fd1&#45;&gt;dir_96312f6272b562b103a6f862042db4a4</title>
<path fill="none" stroke="black" d="M72.15,-102.47C122.8,-97.24 235.01,-83.28 336.04,-51.85"/>
<polygon fill="black" stroke="black" points="337.31,-55.12 345.78,-48.76 335.19,-48.45 337.31,-55.12"/>
<g id="a_edge4&#45;headlabel"><a xlink:href="dir_000066_000062.html" target="_top" xlink:title="2">
<text text-anchor="middle" x="334.75" y="-56.41" font-family="Helvetica" font-size="10.00">2</text>
</a>
</g>
</g>
<!-- dir_a341cf5cf1894ba060679bdee57be3d6 -->
<g id="node7" class="node">
<title>dir_a341cf5cf1894ba060679bdee57be3d6</title>
<g id="a_node7"><a xlink:href="dir_a341cf5cf1894ba060679bdee57be3d6.html" target="_top" xlink:title="logger">
<polygon fill="none" stroke="red" stroke-dasharray="5,2" points="472,-52 418,-52 418,-16 472,-16 472,-52"/>
<text text-anchor="middle" x="445" y="-31.5" font-family="Helvetica" font-size="10.00">logger</text>
</a>
</g>
</g>
<!-- dir_2358b23896e7c9ac9fc7fa42dba11fd1&#45;&gt;dir_a341cf5cf1894ba060679bdee57be3d6 -->
<g id="edge5" class="edge">
<title>dir_2358b23896e7c9ac9fc7fa42dba11fd1&#45;&gt;dir_a341cf5cf1894ba060679bdee57be3d6</title>
<path fill="none" stroke="black" d="M72.08,-103.79C131.84,-100.56 279.28,-89.44 408.18,-51.74"/>
<polygon fill="black" stroke="black" points="409.24,-55.08 417.82,-48.86 407.23,-48.37 409.24,-55.08"/>
<g id="a_edge5&#45;headlabel"><a xlink:href="dir_000066_000039.html" target="_top" xlink:title="1">
<text text-anchor="middle" x="406.6" y="-56.33" font-family="Helvetica" font-size="10.00">1</text>
</a>
</g>
</g>
<!-- dir_b31d54d5631803016a26f28213a41162 -->
<g id="node8" class="node">
<title>dir_b31d54d5631803016a26f28213a41162</title>
<g id="a_node8"><a xlink:href="dir_b31d54d5631803016a26f28213a41162.html" target="_top" xlink:title="interface">
<polygon fill="none" stroke="red" points="545.5,-52 490.5,-52 490.5,-16 545.5,-16 545.5,-52"/>
<text text-anchor="middle" x="518" y="-31.5" font-family="Helvetica" font-size="10.00">interface</text>
</a>
</g>
</g>
<!-- dir_2358b23896e7c9ac9fc7fa42dba11fd1&#45;&gt;dir_b31d54d5631803016a26f28213a41162 -->
<g id="edge6" class="edge">
<title>dir_2358b23896e7c9ac9fc7fa42dba11fd1&#45;&gt;dir_b31d54d5631803016a26f28213a41162</title>
<path fill="none" stroke="black" d="M72.11,-104.6C141.49,-102.95 330.59,-94.57 481,-52 481.1,-51.97 481.2,-51.94 481.29,-51.92"/>
<polygon fill="black" stroke="black" points="482.15,-55.32 490.47,-48.76 479.88,-48.7 482.15,-55.32"/>
<g id="a_edge6&#45;headlabel"><a xlink:href="dir_000066_000034.html" target="_top" xlink:title="3">
<text text-anchor="middle" x="479.67" y="-56.68" font-family="Helvetica" font-size="10.00">3</text>
</a>
</g>
</g>
<!-- dir_cf72682d9b1c0bc1c562a1f19b8defa0 -->
<g id="node9" class="node">
<title>dir_cf72682d9b1c0bc1c562a1f19b8defa0</title>
<g id="a_node9"><a xlink:href="dir_cf72682d9b1c0bc1c562a1f19b8defa0.html" target="_top" xlink:title="routing">
<polygon fill="none" stroke="red" stroke-dasharray="5,2" points="618,-52 564,-52 564,-16 618,-16 618,-52"/>
<text text-anchor="middle" x="591" y="-31.5" font-family="Helvetica" font-size="10.00">routing</text>
</a>
</g>
</g>
<!-- dir_2358b23896e7c9ac9fc7fa42dba11fd1&#45;&gt;dir_cf72682d9b1c0bc1c562a1f19b8defa0 -->
<g id="edge7" class="edge">
<title>dir_2358b23896e7c9ac9fc7fa42dba11fd1&#45;&gt;dir_cf72682d9b1c0bc1c562a1f19b8defa0</title>
<path fill="none" stroke="black" d="M72.14,-105.36C147.96,-105.7 368.11,-102.17 554.18,-51.66"/>
<polygon fill="black" stroke="black" points="555.15,-55.02 563.85,-48.98 553.28,-48.28 555.15,-55.02"/>
<g id="a_edge7&#45;headlabel"><a xlink:href="dir_000066_000059.html" target="_top" xlink:title="1">
<text text-anchor="middle" x="552.44" y="-56.22" font-family="Helvetica" font-size="10.00">1</text>
</a>
</g>
</g>
<!-- dir_f132f3c082319ace6827058f7d1d886d -->
<g id="node10" class="node">
<title>dir_f132f3c082319ace6827058f7d1d886d</title>
<g id="a_node10"><a xlink:href="dir_f132f3c082319ace6827058f7d1d886d.html" target="_top" xlink:title="plugin">
<polygon fill="none" stroke="red" stroke-dasharray="5,2" points="690,-52 636,-52 636,-16 690,-16 690,-52"/>
<text text-anchor="middle" x="663" y="-31.5" font-family="Helvetica" font-size="10.00">plugin</text>
</a>
</g>
</g>
<!-- dir_2358b23896e7c9ac9fc7fa42dba11fd1&#45;&gt;dir_f132f3c082319ace6827058f7d1d886d -->
<g id="edge9" class="edge">
<title>dir_2358b23896e7c9ac9fc7fa42dba11fd1&#45;&gt;dir_f132f3c082319ace6827058f7d1d886d</title>
<path fill="none" stroke="black" d="M72.27,-103.78C169.74,-99.23 501.35,-82.08 625.86,-51.62"/>
<polygon fill="black" stroke="black" points="627.06,-54.93 635.86,-49.02 625.3,-48.15 627.06,-54.93"/>
<g id="a_edge9&#45;headlabel"><a xlink:href="dir_000066_000042.html" target="_top" xlink:title="1">
<text text-anchor="middle" x="624.3" y="-56.08" font-family="Helvetica" font-size="10.00">1</text>
</a>
</g>
</g>
</g>
</svg>
