<?xml version="1.0" encoding="UTF-8" standalone="no"?>
<!DOCTYPE svg PUBLIC "-//W3C//DTD SVG 1.1//EN"
 "http://www.w3.org/Graphics/SVG/1.1/DTD/svg11.dtd">
<!-- Generated by graphviz version 2.44.0 (0)
 -->
<!-- Title: /home/ec2&#45;user/workspace/vsomeip/implementation/e2e_protection/include/e2e/profile/profile04 Pages: 1 -->
<svg width="182pt" height="167pt"
 viewBox="0.00 0.00 182.00 167.00" xmlns="http://www.w3.org/2000/svg" xmlns:xlink="http://www.w3.org/1999/xlink">
<g id="graph0" class="graph" transform="scale(1 1) rotate(0) translate(4 163)">
<title>/home/ec2&#45;user/workspace/vsomeip/implementation/e2e_protection/include/e2e/profile/profile04</title>
<polygon fill="white" stroke="transparent" points="-4,4 -4,-163 178,-163 178,4 -4,4"/>
<g id="clust1" class="cluster">
<title>clusterdir_6430ed959aa6e92f798ce09450cbb0e0</title>
<g id="a_clust1"><a xlink:href="dir_6430ed959aa6e92f798ce09450cbb0e0.html" target="_top" xlink:title="profile">
<polygon fill="#edf0f7" stroke="#7f7f7f" stroke-dasharray="5,2" points="8,-8 8,-151 110,-151 110,-8 8,-8"/>
<text text-anchor="middle" x="59" y="-139" font-family="Helvetica" font-size="10.00">profile</text>
</a>
</g>
</g>
<!-- dir_14b89642d47e591ba61a09b9ab23b291 -->
<g id="node1" class="node">
<title>dir_14b89642d47e591ba61a09b9ab23b291</title>
<g id="a_node1"><a xlink:href="dir_14b89642d47e591ba61a09b9ab23b291.html" target="_top" xlink:title="profile_interface">
<polygon fill="#a2b4d6" stroke="#404040" points="102,-52 16,-52 16,-16 102,-16 102,-52"/>
<text text-anchor="middle" x="59" y="-31.5" font-family="Helvetica" font-size="10.00">profile_interface</text>
</a>
</g>
</g>
<!-- dir_2fc21bbfaf82912f4f6012ed6053ba99 -->
<g id="node2" class="node">
<title>dir_2fc21bbfaf82912f4f6012ed6053ba99</title>
<g id="a_node2"><a xlink:href="dir_2fc21bbfaf82912f4f6012ed6053ba99.html" target="_top" xlink:title="profile04">
<polygon fill="#edf0f7" stroke="#404040" stroke-width="2" points="94,-124 40,-124 40,-88 94,-88 94,-124"/>
<text text-anchor="middle" x="67" y="-103.5" font-family="Helvetica" font-size="10.00">profile04</text>
</a>
</g>
</g>
<!-- dir_2fc21bbfaf82912f4f6012ed6053ba99&#45;&gt;dir_14b89642d47e591ba61a09b9ab23b291 -->
<g id="edge1" class="edge">
<title>dir_2fc21bbfaf82912f4f6012ed6053ba99&#45;&gt;dir_14b89642d47e591ba61a09b9ab23b291</title>
<path fill="none" stroke="black" d="M65.02,-87.7C64.14,-79.98 63.08,-70.71 62.1,-62.11"/>
<polygon fill="black" stroke="black" points="65.57,-61.64 60.95,-52.1 58.61,-62.44 65.57,-61.64"/>
<g id="a_edge1&#45;headlabel"><a xlink:href="dir_000049_000057.html" target="_top" xlink:title="2">
<text text-anchor="middle" x="68.8" y="-62.39" font-family="Helvetica" font-size="10.00">2</text>
</a>
</g>
</g>
<!-- dir_8c17fa292750306381d606ba00a14046 -->
<g id="node3" class="node">
<title>dir_8c17fa292750306381d606ba00a14046</title>
<g id="a_node3"><a xlink:href="dir_8c17fa292750306381d606ba00a14046.html" target="_top" xlink:title="buffer">
<polygon fill="none" stroke="#7f7f7f" points="174,-52 120,-52 120,-16 174,-16 174,-52"/>
<text text-anchor="middle" x="147" y="-31.5" font-family="Helvetica" font-size="10.00">buffer</text>
</a>
</g>
</g>
<!-- dir_2fc21bbfaf82912f4f6012ed6053ba99&#45;&gt;dir_8c17fa292750306381d606ba00a14046 -->
<g id="edge2" class="edge">
<title>dir_2fc21bbfaf82912f4f6012ed6053ba99&#45;&gt;dir_8c17fa292750306381d606ba00a14046</title>
<path fill="none" stroke="black" d="M86.78,-87.7C96.75,-78.97 109.01,-68.24 119.86,-58.75"/>
<polygon fill="black" stroke="black" points="122.23,-61.32 127.45,-52.1 117.62,-56.06 122.23,-61.32"/>
<g id="a_edge2&#45;headlabel"><a xlink:href="dir_000049_000002.html" target="_top" xlink:title="1">
<text text-anchor="middle" x="121.4" y="-63.33" font-family="Helvetica" font-size="10.00">1</text>
</a>
</g>
</g>
</g>
</svg>
