<?xml version="1.0" encoding="UTF-8" standalone="no"?>
<!DOCTYPE svg PUBLIC "-//W3C//DTD SVG 1.1//EN"
 "http://www.w3.org/Graphics/SVG/1.1/DTD/svg11.dtd">
<!-- Generated by graphviz version 2.44.0 (0)
 -->
<!-- Title: /home/ec2&#45;user/workspace/vsomeip/implementation/helper/boost/asio Pages: 1 -->
<svg width="254pt" height="183pt"
 viewBox="0.00 0.00 254.00 183.00" xmlns="http://www.w3.org/2000/svg" xmlns:xlink="http://www.w3.org/1999/xlink">
<g id="graph0" class="graph" transform="scale(1 1) rotate(0) translate(4 179)">
<title>/home/ec2&#45;user/workspace/vsomeip/implementation/helper/boost/asio</title>
<polygon fill="white" stroke="transparent" points="-4,4 -4,-179 250,-179 250,4 -4,4"/>
<g id="clust1" class="cluster">
<title>clusterdir_5e83b401f06533b69de395f534a66d8c</title>
<g id="a_clust1"><a xlink:href="dir_5e83b401f06533b69de395f534a66d8c.html" target="_top" xlink:title="boost">
<polygon fill="#edf0f7" stroke="#7f7f7f" stroke-dasharray="5,2" points="8,-8 8,-167 238,-167 238,-8 8,-8"/>
<text text-anchor="middle" x="123" y="-155" font-family="Helvetica" font-size="10.00">boost</text>
</a>
</g>
</g>
<g id="clust2" class="cluster">
<title>clusterdir_9509a3cfe2a3ca70916a6d337d3b6ac4</title>
<g id="a_clust2"><a xlink:href="dir_9509a3cfe2a3ca70916a6d337d3b6ac4.html" target="_top">
<polygon fill="#edf0f7" stroke="#404040" stroke-width="2" points="16,-16 16,-140 230,-140 230,-16 16,-16"/>
</a>
</g>
</g>
<!-- dir_9509a3cfe2a3ca70916a6d337d3b6ac4 -->
<g id="node1" class="node">
<title>dir_9509a3cfe2a3ca70916a6d337d3b6ac4</title>
<text text-anchor="middle" x="195" y="-111.5" font-family="Helvetica" font-size="10.00">asio</text>
</g>
<!-- dir_ec1d95a5ec550f2aa00b467bef366423 -->
<g id="node2" class="node">
<title>dir_ec1d95a5ec550f2aa00b467bef366423</title>
<g id="a_node2"><a xlink:href="dir_ec1d95a5ec550f2aa00b467bef366423.html" target="_top" xlink:title="detail">
<polygon fill="#a2b4d6" stroke="#404040" points="222,-60 168,-60 168,-24 222,-24 222,-60"/>
<text text-anchor="middle" x="195" y="-39.5" font-family="Helvetica" font-size="10.00">detail</text>
</a>
</g>
</g>
<!-- dir_9509a3cfe2a3ca70916a6d337d3b6ac4&#45;&gt;dir_ec1d95a5ec550f2aa00b467bef366423 -->
<g id="edge1" class="edge">
<title>dir_9509a3cfe2a3ca70916a6d337d3b6ac4&#45;&gt;dir_ec1d95a5ec550f2aa00b467bef366423</title>
<path fill="none" stroke="black" d="M195,-95.7C195,-87.98 195,-78.71 195,-70.11"/>
<polygon fill="black" stroke="black" points="198.5,-70.1 195,-60.1 191.5,-70.1 198.5,-70.1"/>
<g id="a_edge1&#45;headlabel"><a xlink:href="dir_000000_000009.html" target="_top" xlink:title="5">
<text text-anchor="middle" x="201.34" y="-71.2" font-family="Helvetica" font-size="10.00">5</text>
</a>
</g>
</g>
<!-- dir_8f52cca74b4e8d4c4f5d15e7b53a3a39 -->
<g id="node3" class="node">
<title>dir_8f52cca74b4e8d4c4f5d15e7b53a3a39</title>
<g id="a_node3"><a xlink:href="dir_8f52cca74b4e8d4c4f5d15e7b53a3a39.html" target="_top" xlink:title="ip">
<polygon fill="#a2b4d6" stroke="#404040" points="150,-132 96,-132 96,-96 150,-96 150,-132"/>
<text text-anchor="middle" x="123" y="-111.5" font-family="Helvetica" font-size="10.00">ip</text>
</a>
</g>
</g>
<!-- dir_7de59925cbd4d7efdbfa16b793ee0cbc -->
<g id="node4" class="node">
<title>dir_7de59925cbd4d7efdbfa16b793ee0cbc</title>
<g id="a_node4"><a xlink:href="dir_7de59925cbd4d7efdbfa16b793ee0cbc.html" target="_top" xlink:title="local">
<polygon fill="#a2b4d6" stroke="#404040" points="78,-132 24,-132 24,-96 78,-96 78,-132"/>
<text text-anchor="middle" x="51" y="-111.5" font-family="Helvetica" font-size="10.00">local</text>
</a>
</g>
</g>
</g>
</svg>
