<?xml version="1.0" encoding="UTF-8" standalone="no"?>
<!DOCTYPE svg PUBLIC "-//W3C//DTD SVG 1.1//EN"
 "http://www.w3.org/Graphics/SVG/1.1/DTD/svg11.dtd">
<!-- Generated by graphviz version 2.44.0 (0)
 -->
<!-- Title: /home/ec2&#45;user/workspace/vsomeip/implementation/service_discovery/src Pages: 1 -->
<svg width="633pt" height="167pt"
 viewBox="0.00 0.00 633.00 167.00" xmlns="http://www.w3.org/2000/svg" xmlns:xlink="http://www.w3.org/1999/xlink">
<g id="graph0" class="graph" transform="scale(1 1) rotate(0) translate(4 163)">
<title>/home/ec2&#45;user/workspace/vsomeip/implementation/service_discovery/src</title>
<polygon fill="white" stroke="transparent" points="-4,4 -4,-163 629,-163 629,4 -4,4"/>
<g id="clust1" class="cluster">
<title>clusterdir_061a1b0a0a40a7427f2461ed2f520013</title>
<g id="a_clust1"><a xlink:href="dir_061a1b0a0a40a7427f2461ed2f520013.html" target="_top" xlink:title="service_discovery">
<polygon fill="#edf0f7" stroke="#7f7f7f" stroke-dasharray="5,2" points="8,-8 8,-151 104,-151 104,-8 8,-8"/>
<text text-anchor="middle" x="56" y="-139" font-family="Helvetica" font-size="10.00">service_discovery</text>
</a>
</g>
</g>
<!-- dir_e536cd6c38eff7239838b1bcd538af89 -->
<g id="node1" class="node">
<title>dir_e536cd6c38eff7239838b1bcd538af89</title>
<g id="a_node1"><a xlink:href="dir_e536cd6c38eff7239838b1bcd538af89.html" target="_top" xlink:title="include">
<polygon fill="#a2b4d6" stroke="#404040" points="94,-52 40,-52 40,-16 94,-16 94,-52"/>
<text text-anchor="middle" x="67" y="-31.5" font-family="Helvetica" font-size="10.00">include</text>
</a>
</g>
</g>
<!-- dir_b9897dd8b4337efdb18d6c26c10007d0 -->
<g id="node2" class="node">
<title>dir_b9897dd8b4337efdb18d6c26c10007d0</title>
<g id="a_node2"><a xlink:href="dir_b9897dd8b4337efdb18d6c26c10007d0.html" target="_top" xlink:title="src">
<polygon fill="#edf0f7" stroke="#404040" stroke-width="2" points="96,-124 42,-124 42,-88 96,-88 96,-124"/>
<text text-anchor="middle" x="69" y="-103.5" font-family="Helvetica" font-size="10.00">src</text>
</a>
</g>
</g>
<!-- dir_b9897dd8b4337efdb18d6c26c10007d0&#45;&gt;dir_e536cd6c38eff7239838b1bcd538af89 -->
<g id="edge7" class="edge">
<title>dir_b9897dd8b4337efdb18d6c26c10007d0&#45;&gt;dir_e536cd6c38eff7239838b1bcd538af89</title>
<path fill="none" stroke="black" d="M68.51,-87.7C68.29,-79.98 68.02,-70.71 67.77,-62.11"/>
<polygon fill="black" stroke="black" points="71.27,-62 67.49,-52.1 64.28,-62.2 71.27,-62"/>
<g id="a_edge7&#45;headlabel"><a xlink:href="dir_000076_000031.html" target="_top" xlink:title="63">
<text text-anchor="middle" x="74.21" y="-63.01" font-family="Helvetica" font-size="10.00">63</text>
</a>
</g>
</g>
<!-- dir_3ce07147fcbac31fc4d5892a851f6627 -->
<g id="node3" class="node">
<title>dir_3ce07147fcbac31fc4d5892a851f6627</title>
<g id="a_node3"><a xlink:href="dir_3ce07147fcbac31fc4d5892a851f6627.html" target="_top" xlink:title="message">
<polygon fill="none" stroke="red" stroke-dasharray="5,2" points="168,-52 112,-52 112,-16 168,-16 168,-52"/>
<text text-anchor="middle" x="140" y="-31.5" font-family="Helvetica" font-size="10.00">message</text>
</a>
</g>
</g>
<!-- dir_b9897dd8b4337efdb18d6c26c10007d0&#45;&gt;dir_3ce07147fcbac31fc4d5892a851f6627 -->
<g id="edge1" class="edge">
<title>dir_b9897dd8b4337efdb18d6c26c10007d0&#45;&gt;dir_3ce07147fcbac31fc4d5892a851f6627</title>
<path fill="none" stroke="black" d="M86.55,-87.7C95.23,-79.14 105.86,-68.66 115.35,-59.3"/>
<polygon fill="black" stroke="black" points="117.99,-61.62 122.65,-52.1 113.07,-56.63 117.99,-61.62"/>
<g id="a_edge1&#45;headlabel"><a xlink:href="dir_000076_000041.html" target="_top" xlink:title="27">
<text text-anchor="middle" x="117.42" y="-63.66" font-family="Helvetica" font-size="10.00">27</text>
</a>
</g>
</g>
<!-- dir_56126a1d848d4a1832817232e79a5a18 -->
<g id="node4" class="node">
<title>dir_56126a1d848d4a1832817232e79a5a18</title>
<g id="a_node4"><a xlink:href="dir_56126a1d848d4a1832817232e79a5a18.html" target="_top" xlink:title="configuration">
<polygon fill="none" stroke="red" stroke-dasharray="5,2" points="258,-52 186,-52 186,-16 258,-16 258,-52"/>
<text text-anchor="middle" x="222" y="-31.5" font-family="Helvetica" font-size="10.00">configuration</text>
</a>
</g>
</g>
<!-- dir_b9897dd8b4337efdb18d6c26c10007d0&#45;&gt;dir_56126a1d848d4a1832817232e79a5a18 -->
<g id="edge2" class="edge">
<title>dir_b9897dd8b4337efdb18d6c26c10007d0&#45;&gt;dir_56126a1d848d4a1832817232e79a5a18</title>
<path fill="none" stroke="black" d="M96,-92.65C118.23,-82.47 150.24,-67.83 176.44,-55.85"/>
<polygon fill="black" stroke="black" points="178.16,-58.91 185.79,-51.57 175.24,-52.54 178.16,-58.91"/>
<g id="a_edge2&#45;headlabel"><a xlink:href="dir_000076_000006.html" target="_top" xlink:title="2">
<text text-anchor="middle" x="176.07" y="-60.49" font-family="Helvetica" font-size="10.00">2</text>
</a>
</g>
</g>
<!-- dir_6972051101bc5f8d68d31d49f06d7aaf -->
<g id="node5" class="node">
<title>dir_6972051101bc5f8d68d31d49f06d7aaf</title>
<g id="a_node5"><a xlink:href="dir_6972051101bc5f8d68d31d49f06d7aaf.html" target="_top" xlink:title="utility">
<polygon fill="none" stroke="red" stroke-dasharray="5,2" points="330,-52 276,-52 276,-16 330,-16 330,-52"/>
<text text-anchor="middle" x="303" y="-31.5" font-family="Helvetica" font-size="10.00">utility</text>
</a>
</g>
</g>
<!-- dir_b9897dd8b4337efdb18d6c26c10007d0&#45;&gt;dir_6972051101bc5f8d68d31d49f06d7aaf -->
<g id="edge3" class="edge">
<title>dir_b9897dd8b4337efdb18d6c26c10007d0&#45;&gt;dir_6972051101bc5f8d68d31d49f06d7aaf</title>
<path fill="none" stroke="black" d="M96.05,-99.38C132.82,-91.4 200.62,-75.45 266.06,-52.02"/>
<polygon fill="black" stroke="black" points="267.5,-55.22 275.7,-48.51 265.11,-48.65 267.5,-55.22"/>
<g id="a_edge3&#45;headlabel"><a xlink:href="dir_000076_000080.html" target="_top" xlink:title="1">
<text text-anchor="middle" x="265.1" y="-56.62" font-family="Helvetica" font-size="10.00">1</text>
</a>
</g>
</g>
<!-- dir_9c7b9d609ec855ab7fbf064b0ccf8e4e -->
<g id="node6" class="node">
<title>dir_9c7b9d609ec855ab7fbf064b0ccf8e4e</title>
<g id="a_node6"><a xlink:href="dir_9c7b9d609ec855ab7fbf064b0ccf8e4e.html" target="_top" xlink:title="endpoints">
<polygon fill="none" stroke="red" stroke-dasharray="5,2" points="407.5,-52 348.5,-52 348.5,-16 407.5,-16 407.5,-52"/>
<text text-anchor="middle" x="378" y="-31.5" font-family="Helvetica" font-size="10.00">endpoints</text>
</a>
</g>
</g>
<!-- dir_b9897dd8b4337efdb18d6c26c10007d0&#45;&gt;dir_9c7b9d609ec855ab7fbf064b0ccf8e4e -->
<g id="edge4" class="edge">
<title>dir_b9897dd8b4337efdb18d6c26c10007d0&#45;&gt;dir_9c7b9d609ec855ab7fbf064b0ccf8e4e</title>
<path fill="none" stroke="black" d="M96.31,-101.64C145.6,-95.13 252.36,-79.03 339,-52 339.1,-51.97 339.19,-51.94 339.29,-51.91"/>
<polygon fill="black" stroke="black" points="340.18,-55.31 348.44,-48.67 337.85,-48.71 340.18,-55.31"/>
<g id="a_edge4&#45;headlabel"><a xlink:href="dir_000076_000015.html" target="_top" xlink:title="5">
<text text-anchor="middle" x="337.74" y="-56.68" font-family="Helvetica" font-size="10.00">5</text>
</a>
</g>
</g>
<!-- dir_b31d54d5631803016a26f28213a41162 -->
<g id="node7" class="node">
<title>dir_b31d54d5631803016a26f28213a41162</title>
<g id="a_node7"><a xlink:href="dir_b31d54d5631803016a26f28213a41162.html" target="_top" xlink:title="interface">
<polygon fill="none" stroke="red" points="480.5,-52 425.5,-52 425.5,-16 480.5,-16 480.5,-52"/>
<text text-anchor="middle" x="453" y="-31.5" font-family="Helvetica" font-size="10.00">interface</text>
</a>
</g>
</g>
<!-- dir_b9897dd8b4337efdb18d6c26c10007d0&#45;&gt;dir_b31d54d5631803016a26f28213a41162 -->
<g id="edge5" class="edge">
<title>dir_b9897dd8b4337efdb18d6c26c10007d0&#45;&gt;dir_b31d54d5631803016a26f28213a41162</title>
<path fill="none" stroke="black" d="M96.22,-103.54C154.08,-99.87 293.37,-88.05 415.52,-51.99"/>
<polygon fill="black" stroke="black" points="416.85,-55.24 425.41,-49 414.82,-48.54 416.85,-55.24"/>
<g id="a_edge5&#45;headlabel"><a xlink:href="dir_000076_000034.html" target="_top" xlink:title="6">
<text text-anchor="middle" x="414.23" y="-56.5" font-family="Helvetica" font-size="10.00">6</text>
</a>
</g>
</g>
<!-- dir_cf72682d9b1c0bc1c562a1f19b8defa0 -->
<g id="node8" class="node">
<title>dir_cf72682d9b1c0bc1c562a1f19b8defa0</title>
<g id="a_node8"><a xlink:href="dir_cf72682d9b1c0bc1c562a1f19b8defa0.html" target="_top" xlink:title="routing">
<polygon fill="none" stroke="red" stroke-dasharray="5,2" points="553,-52 499,-52 499,-16 553,-16 553,-52"/>
<text text-anchor="middle" x="526" y="-31.5" font-family="Helvetica" font-size="10.00">routing</text>
</a>
</g>
</g>
<!-- dir_b9897dd8b4337efdb18d6c26c10007d0&#45;&gt;dir_cf72682d9b1c0bc1c562a1f19b8defa0 -->
<g id="edge6" class="edge">
<title>dir_b9897dd8b4337efdb18d6c26c10007d0&#45;&gt;dir_cf72682d9b1c0bc1c562a1f19b8defa0</title>
<path fill="none" stroke="black" d="M96.19,-104.53C162.58,-102.75 337.95,-94.37 488.92,-51.77"/>
<polygon fill="black" stroke="black" points="490.19,-55.05 498.83,-48.92 488.25,-48.32 490.19,-55.05"/>
<g id="a_edge6&#45;headlabel"><a xlink:href="dir_000076_000059.html" target="_top" xlink:title="4">
<text text-anchor="middle" x="487.52" y="-56.27" font-family="Helvetica" font-size="10.00">4</text>
</a>
</g>
</g>
<!-- dir_f132f3c082319ace6827058f7d1d886d -->
<g id="node9" class="node">
<title>dir_f132f3c082319ace6827058f7d1d886d</title>
<g id="a_node9"><a xlink:href="dir_f132f3c082319ace6827058f7d1d886d.html" target="_top" xlink:title="plugin">
<polygon fill="none" stroke="red" stroke-dasharray="5,2" points="625,-52 571,-52 571,-16 625,-16 625,-52"/>
<text text-anchor="middle" x="598" y="-31.5" font-family="Helvetica" font-size="10.00">plugin</text>
</a>
</g>
</g>
<!-- dir_b9897dd8b4337efdb18d6c26c10007d0&#45;&gt;dir_f132f3c082319ace6827058f7d1d886d -->
<g id="edge8" class="edge">
<title>dir_b9897dd8b4337efdb18d6c26c10007d0&#45;&gt;dir_f132f3c082319ace6827058f7d1d886d</title>
<path fill="none" stroke="black" d="M96.05,-105.22C170.02,-105.18 381.59,-100.7 560.98,-51.72"/>
<polygon fill="black" stroke="black" points="562.15,-55.03 570.85,-48.97 560.28,-48.28 562.15,-55.03"/>
<g id="a_edge8&#45;headlabel"><a xlink:href="dir_000076_000042.html" target="_top" xlink:title="1">
<text text-anchor="middle" x="559.45" y="-56.23" font-family="Helvetica" font-size="10.00">1</text>
</a>
</g>
</g>
</g>
</svg>
