<?xml version="1.0" encoding="UTF-8" standalone="no"?>
<!DOCTYPE svg PUBLIC "-//W3C//DTD SVG 1.1//EN"
 "http://www.w3.org/Graphics/SVG/1.1/DTD/svg11.dtd">
<!-- Generated by graphviz version 2.44.0 (0)
 -->
<!-- Title: /home/ec2&#45;user/workspace/vsomeip/implementation/tracing Pages: 1 -->
<svg width="412pt" height="247pt"
 viewBox="0.00 0.00 411.50 247.00" xmlns="http://www.w3.org/2000/svg" xmlns:xlink="http://www.w3.org/1999/xlink">
<g id="graph0" class="graph" transform="scale(1 1) rotate(0) translate(4 243)">
<title>/home/ec2&#45;user/workspace/vsomeip/implementation/tracing</title>
<polygon fill="white" stroke="transparent" points="-4,4 -4,-243 407.5,-243 407.5,4 -4,4"/>
<g id="clust1" class="cluster">
<title>clusterdir_ed7c47a03c091bb19436c59342bc9555</title>
<g id="a_clust1"><a xlink:href="dir_ed7c47a03c091bb19436c59342bc9555.html" target="_top" xlink:title="implementation">
<polygon fill="#edf0f7" stroke="#404040" stroke-dasharray="5,2" points="8,-8 8,-231 338,-231 338,-8 8,-8"/>
<text text-anchor="middle" x="173" y="-219" font-family="Helvetica" font-size="10.00">implementation</text>
</a>
</g>
</g>
<g id="clust2" class="cluster">
<title>clusterdir_282dd5a982ba644edb6efcfaee8b7735</title>
<g id="a_clust2"><a xlink:href="dir_282dd5a982ba644edb6efcfaee8b7735.html" target="_top">
<polygon fill="#edf0f7" stroke="#404040" stroke-width="2" points="16,-80 16,-204 158,-204 158,-80 16,-80"/>
</a>
</g>
</g>
<!-- dir_56126a1d848d4a1832817232e79a5a18 -->
<g id="node1" class="node">
<title>dir_56126a1d848d4a1832817232e79a5a18</title>
<g id="a_node1"><a xlink:href="dir_56126a1d848d4a1832817232e79a5a18.html" target="_top" xlink:title="configuration">
<polygon fill="#a2b4d6" stroke="red" points="238,-124 166,-124 166,-88 238,-88 238,-124"/>
<text text-anchor="middle" x="202" y="-103.5" font-family="Helvetica" font-size="10.00">configuration</text>
</a>
</g>
</g>
<!-- dir_6972051101bc5f8d68d31d49f06d7aaf -->
<g id="node2" class="node">
<title>dir_6972051101bc5f8d68d31d49f06d7aaf</title>
<g id="a_node2"><a xlink:href="dir_6972051101bc5f8d68d31d49f06d7aaf.html" target="_top" xlink:title="utility">
<polygon fill="#a2b4d6" stroke="red" points="310,-124 256,-124 256,-88 310,-88 310,-124"/>
<text text-anchor="middle" x="283" y="-103.5" font-family="Helvetica" font-size="10.00">utility</text>
</a>
</g>
</g>
<!-- dir_9c7b9d609ec855ab7fbf064b0ccf8e4e -->
<g id="node3" class="node">
<title>dir_9c7b9d609ec855ab7fbf064b0ccf8e4e</title>
<g id="a_node3"><a xlink:href="dir_9c7b9d609ec855ab7fbf064b0ccf8e4e.html" target="_top" xlink:title="endpoints">
<polygon fill="#a2b4d6" stroke="red" points="222.5,-52 163.5,-52 163.5,-16 222.5,-16 222.5,-52"/>
<text text-anchor="middle" x="193" y="-31.5" font-family="Helvetica" font-size="10.00">endpoints</text>
</a>
</g>
</g>
<!-- dir_282dd5a982ba644edb6efcfaee8b7735 -->
<g id="node4" class="node">
<title>dir_282dd5a982ba644edb6efcfaee8b7735</title>
<text text-anchor="middle" x="123" y="-175.5" font-family="Helvetica" font-size="10.00">tracing</text>
</g>
<!-- dir_911aeb358d99ffd76b27feafb34c9b43 -->
<g id="node5" class="node">
<title>dir_911aeb358d99ffd76b27feafb34c9b43</title>
<g id="a_node5"><a xlink:href="dir_911aeb358d99ffd76b27feafb34c9b43.html" target="_top" xlink:title="include">
<polygon fill="#a2b4d6" stroke="#404040" points="113,-124 59,-124 59,-88 113,-88 113,-124"/>
<text text-anchor="middle" x="86" y="-103.5" font-family="Helvetica" font-size="10.00">include</text>
</a>
</g>
</g>
<!-- dir_911aeb358d99ffd76b27feafb34c9b43&#45;&gt;dir_9c7b9d609ec855ab7fbf064b0ccf8e4e -->
<g id="edge1" class="edge">
<title>dir_911aeb358d99ffd76b27feafb34c9b43&#45;&gt;dir_9c7b9d609ec855ab7fbf064b0ccf8e4e</title>
<path fill="none" stroke="black" d="M106.36,-87.9C109.84,-85.17 113.48,-82.44 117,-80 128.75,-71.85 142.02,-63.67 154.14,-56.56"/>
<polygon fill="black" stroke="black" points="156.25,-59.38 163.15,-51.35 152.74,-53.32 156.25,-59.38"/>
<g id="a_edge1&#45;headlabel"><a xlink:href="dir_000032_000015.html" target="_top" xlink:title="1">
<text text-anchor="middle" x="154.56" y="-61.14" font-family="Helvetica" font-size="10.00">1</text>
</a>
</g>
</g>
<!-- dir_633334f18749e8a1fd92a1b128266678 -->
<g id="node6" class="node">
<title>dir_633334f18749e8a1fd92a1b128266678</title>
<g id="a_node6"><a xlink:href="dir_633334f18749e8a1fd92a1b128266678.html" target="_top" xlink:title="src">
<polygon fill="#a2b4d6" stroke="#404040" points="78,-196 24,-196 24,-160 78,-160 78,-196"/>
<text text-anchor="middle" x="51" y="-175.5" font-family="Helvetica" font-size="10.00">src</text>
</a>
</g>
</g>
<!-- dir_633334f18749e8a1fd92a1b128266678&#45;&gt;dir_56126a1d848d4a1832817232e79a5a18 -->
<g id="edge2" class="edge">
<title>dir_633334f18749e8a1fd92a1b128266678&#45;&gt;dir_56126a1d848d4a1832817232e79a5a18</title>
<path fill="none" stroke="black" d="M78.11,-164.16C81.11,-162.75 84.12,-161.34 87,-160 109.99,-149.27 135.63,-137.44 156.85,-127.69"/>
<polygon fill="black" stroke="black" points="158.34,-130.86 165.96,-123.5 155.41,-124.5 158.34,-130.86"/>
<g id="a_edge2&#45;headlabel"><a xlink:href="dir_000077_000006.html" target="_top" xlink:title="1">
<text text-anchor="middle" x="156.25" y="-132.44" font-family="Helvetica" font-size="10.00">1</text>
</a>
</g>
</g>
<!-- dir_633334f18749e8a1fd92a1b128266678&#45;&gt;dir_6972051101bc5f8d68d31d49f06d7aaf -->
<g id="edge3" class="edge">
<title>dir_633334f18749e8a1fd92a1b128266678&#45;&gt;dir_6972051101bc5f8d68d31d49f06d7aaf</title>
<path fill="none" stroke="black" d="M78.26,-163.37C81.17,-162.14 84.12,-160.99 87,-160 152.96,-137.31 176.08,-146.79 246.03,-123.91"/>
<polygon fill="black" stroke="black" points="247.39,-127.15 255.74,-120.63 245.15,-120.52 247.39,-127.15"/>
<g id="a_edge3&#45;headlabel"><a xlink:href="dir_000077_000080.html" target="_top" xlink:title="2">
<text text-anchor="middle" x="244.89" y="-128.49" font-family="Helvetica" font-size="10.00">2</text>
</a>
</g>
</g>
<!-- dir_633334f18749e8a1fd92a1b128266678&#45;&gt;dir_9c7b9d609ec855ab7fbf064b0ccf8e4e -->
<g id="edge5" class="edge">
<title>dir_633334f18749e8a1fd92a1b128266678&#45;&gt;dir_9c7b9d609ec855ab7fbf064b0ccf8e4e</title>
<path fill="none" stroke="black" d="M78.19,-163.17C81.12,-161.98 84.09,-160.89 87,-160 136.88,-144.7 285.05,-163.62 319,-124 331.72,-109.15 330.26,-95.99 319,-80 299.69,-52.61 262.13,-41.8 233.01,-37.58"/>
<polygon fill="black" stroke="black" points="233.08,-34.06 222.72,-36.3 232.22,-41.01 233.08,-34.06"/>
<g id="a_edge5&#45;headlabel"><a xlink:href="dir_000077_000015.html" target="_top" xlink:title="2">
<text text-anchor="middle" x="236.99" y="-29.18" font-family="Helvetica" font-size="10.00">2</text>
</a>
</g>
</g>
<!-- dir_633334f18749e8a1fd92a1b128266678&#45;&gt;dir_911aeb358d99ffd76b27feafb34c9b43 -->
<g id="edge4" class="edge">
<title>dir_633334f18749e8a1fd92a1b128266678&#45;&gt;dir_911aeb358d99ffd76b27feafb34c9b43</title>
<path fill="none" stroke="black" d="M59.65,-159.7C63.64,-151.73 68.45,-142.1 72.87,-133.26"/>
<polygon fill="black" stroke="black" points="76.11,-134.61 77.45,-124.1 69.85,-131.48 76.11,-134.61"/>
<g id="a_edge4&#45;headlabel"><a xlink:href="dir_000077_000032.html" target="_top" xlink:title="5">
<text text-anchor="middle" x="77.04" y="-136.6" font-family="Helvetica" font-size="10.00">5</text>
</a>
</g>
</g>
<!-- dir_b31d54d5631803016a26f28213a41162 -->
<g id="node7" class="node">
<title>dir_b31d54d5631803016a26f28213a41162</title>
<g id="a_node7"><a xlink:href="dir_b31d54d5631803016a26f28213a41162.html" target="_top" xlink:title="interface">
<polygon fill="none" stroke="red" points="403.5,-124 348.5,-124 348.5,-88 403.5,-88 403.5,-124"/>
<text text-anchor="middle" x="376" y="-103.5" font-family="Helvetica" font-size="10.00">interface</text>
</a>
</g>
</g>
<!-- dir_633334f18749e8a1fd92a1b128266678&#45;&gt;dir_b31d54d5631803016a26f28213a41162 -->
<g id="edge6" class="edge">
<title>dir_633334f18749e8a1fd92a1b128266678&#45;&gt;dir_b31d54d5631803016a26f28213a41162</title>
<path fill="none" stroke="black" d="M78.18,-163.13C81.11,-161.95 84.09,-160.87 87,-160 193.55,-128.12 230.62,-156.34 338.83,-124.61"/>
<polygon fill="black" stroke="black" points="339.92,-127.93 348.47,-121.67 337.89,-121.23 339.92,-127.93"/>
<g id="a_edge6&#45;headlabel"><a xlink:href="dir_000077_000034.html" target="_top" xlink:title="2">
<text text-anchor="middle" x="337.31" y="-129.19" font-family="Helvetica" font-size="10.00">2</text>
</a>
</g>
</g>
</g>
</svg>
