<?xml version="1.0" encoding="UTF-8" standalone="no"?>
<!DOCTYPE svg PUBLIC "-//W3C//DTD SVG 1.1//EN"
 "http://www.w3.org/Graphics/SVG/1.1/DTD/svg11.dtd">
<!-- Generated by graphviz version 2.44.0 (0)
 -->
<!-- Title: /home/ec2&#45;user/workspace/vsomeip/implementation/e2e_protection/src/e2e/profile Pages: 1 -->
<svg width="496pt" height="159pt"
 viewBox="0.00 0.00 496.00 159.00" xmlns="http://www.w3.org/2000/svg" xmlns:xlink="http://www.w3.org/1999/xlink">
<g id="graph0" class="graph" transform="scale(1 1) rotate(0) translate(4 155)">
<title>/home/ec2&#45;user/workspace/vsomeip/implementation/e2e_protection/src/e2e/profile</title>
<polygon fill="white" stroke="transparent" points="-4,4 -4,-155 492,-155 492,4 -4,4"/>
<g id="clust1" class="cluster">
<title>clusterdir_4c5cb071900c74e64eb69201ab76a37a</title>
<g id="a_clust1"><a xlink:href="dir_4c5cb071900c74e64eb69201ab76a37a.html" target="_top" xlink:title="e2e">
<polygon fill="#edf0f7" stroke="#7f7f7f" stroke-dasharray="5,2" points="8,-56 8,-143 480,-143 480,-56 8,-56"/>
<text text-anchor="middle" x="244" y="-131" font-family="Helvetica" font-size="10.00">e2e</text>
</a>
</g>
</g>
<g id="clust2" class="cluster">
<title>clusterdir_1a314ca59dd122efcbdf7cfcbe800b87</title>
<g id="a_clust2"><a xlink:href="dir_1a314ca59dd122efcbdf7cfcbe800b87.html" target="_top">
<polygon fill="#edf0f7" stroke="#404040" stroke-width="2" points="16,-64 16,-116 472,-116 472,-64 16,-64"/>
</a>
</g>
</g>
<!-- dir_1a314ca59dd122efcbdf7cfcbe800b87 -->
<g id="node1" class="node">
<title>dir_1a314ca59dd122efcbdf7cfcbe800b87</title>
<text text-anchor="middle" x="123" y="-87.5" font-family="Helvetica" font-size="10.00">profile</text>
</g>
<!-- dir_261f67b82c2cb416f656d185a1fa5017 -->
<g id="node7" class="node">
<title>dir_261f67b82c2cb416f656d185a1fa5017</title>
<g id="a_node7"><a xlink:href="dir_261f67b82c2cb416f656d185a1fa5017.html" target="_top" xlink:title="include">
<polygon fill="none" stroke="red" stroke-dasharray="5,2" points="238,-36 184,-36 184,0 238,0 238,-36"/>
<text text-anchor="middle" x="211" y="-15.5" font-family="Helvetica" font-size="10.00">include</text>
</a>
</g>
</g>
<!-- dir_1a314ca59dd122efcbdf7cfcbe800b87&#45;&gt;dir_261f67b82c2cb416f656d185a1fa5017 -->
<g id="edge1" class="edge">
<title>dir_1a314ca59dd122efcbdf7cfcbe800b87&#45;&gt;dir_261f67b82c2cb416f656d185a1fa5017</title>
<path fill="none" stroke="black" d="M140.93,-71.76C146.58,-66.55 152.94,-60.91 159,-56 164.8,-51.3 171.15,-46.52 177.36,-42.01"/>
<polygon fill="black" stroke="black" points="179.57,-44.74 185.67,-36.08 175.5,-39.04 179.57,-44.74"/>
<g id="a_edge1&#45;headlabel"><a xlink:href="dir_000046_000022.html" target="_top" xlink:title="36">
<text text-anchor="middle" x="178.29" y="-46.64" font-family="Helvetica" font-size="10.00">36</text>
</a>
</g>
</g>
<!-- dir_b31d54d5631803016a26f28213a41162 -->
<g id="node8" class="node">
<title>dir_b31d54d5631803016a26f28213a41162</title>
<g id="a_node8"><a xlink:href="dir_b31d54d5631803016a26f28213a41162.html" target="_top" xlink:title="interface">
<polygon fill="none" stroke="red" points="316.5,-36 261.5,-36 261.5,0 316.5,0 316.5,-36"/>
<text text-anchor="middle" x="289" y="-15.5" font-family="Helvetica" font-size="10.00">interface</text>
</a>
</g>
</g>
<!-- dir_1a314ca59dd122efcbdf7cfcbe800b87&#45;&gt;dir_b31d54d5631803016a26f28213a41162 -->
<g id="edge2" class="edge">
<title>dir_1a314ca59dd122efcbdf7cfcbe800b87&#45;&gt;dir_b31d54d5631803016a26f28213a41162</title>
<path fill="none" stroke="black" d="M138.09,-71.9C144.07,-66.07 151.34,-60.01 159,-56 194.53,-37.38 208.73,-48.01 247,-36 248.45,-35.54 249.93,-35.06 251.41,-34.55"/>
<polygon fill="black" stroke="black" points="253.02,-37.69 261.21,-30.98 250.62,-31.12 253.02,-37.69"/>
<g id="a_edge2&#45;headlabel"><a xlink:href="dir_000046_000034.html" target="_top" xlink:title="10">
<text text-anchor="middle" x="250.62" y="-39.09" font-family="Helvetica" font-size="10.00">10</text>
</a>
</g>
</g>
<!-- dir_c8b1b2a2c6d715b391bbebd6d5e164d5 -->
<g id="node2" class="node">
<title>dir_c8b1b2a2c6d715b391bbebd6d5e164d5</title>
<g id="a_node2"><a xlink:href="dir_c8b1b2a2c6d715b391bbebd6d5e164d5.html" target="_top" xlink:title="profile01">
<polygon fill="#a2b4d6" stroke="#404040" points="78,-108 24,-108 24,-72 78,-72 78,-108"/>
<text text-anchor="middle" x="51" y="-87.5" font-family="Helvetica" font-size="10.00">profile01</text>
</a>
</g>
</g>
<!-- dir_c8b1b2a2c6d715b391bbebd6d5e164d5&#45;&gt;dir_261f67b82c2cb416f656d185a1fa5017 -->
<g id="edge3" class="edge">
<title>dir_c8b1b2a2c6d715b391bbebd6d5e164d5&#45;&gt;dir_261f67b82c2cb416f656d185a1fa5017</title>
<path fill="none" stroke="black" d="M66.6,-71.83C72.52,-66.13 79.63,-60.18 87,-56 114.14,-40.61 148.32,-31.03 173.92,-25.48"/>
<polygon fill="black" stroke="black" points="174.88,-28.86 183.97,-23.42 173.47,-22 174.88,-28.86"/>
<g id="a_edge3&#45;headlabel"><a xlink:href="dir_000048_000022.html" target="_top" xlink:title="4">
<text text-anchor="middle" x="171.93" y="-29.86" font-family="Helvetica" font-size="10.00">4</text>
</a>
</g>
</g>
<!-- dir_c8b1b2a2c6d715b391bbebd6d5e164d5&#45;&gt;dir_b31d54d5631803016a26f28213a41162 -->
<g id="edge4" class="edge">
<title>dir_c8b1b2a2c6d715b391bbebd6d5e164d5&#45;&gt;dir_b31d54d5631803016a26f28213a41162</title>
<path fill="none" stroke="black" d="M65.54,-71.83C71.55,-65.84 79,-59.7 87,-56 152.05,-25.92 177.64,-54.04 247,-36 248.48,-35.62 249.97,-35.19 251.47,-34.74"/>
<polygon fill="black" stroke="black" points="252.99,-37.92 261.33,-31.38 250.73,-31.29 252.99,-37.92"/>
<g id="a_edge4&#45;headlabel"><a xlink:href="dir_000048_000034.html" target="_top" xlink:title="2">
<text text-anchor="middle" x="250.51" y="-39.26" font-family="Helvetica" font-size="10.00">2</text>
</a>
</g>
</g>
<!-- dir_59eeb17f1a610b36d7482110bd017406 -->
<g id="node3" class="node">
<title>dir_59eeb17f1a610b36d7482110bd017406</title>
<g id="a_node3"><a xlink:href="dir_59eeb17f1a610b36d7482110bd017406.html" target="_top" xlink:title="profile04">
<polygon fill="#a2b4d6" stroke="#404040" points="392,-108 338,-108 338,-72 392,-72 392,-108"/>
<text text-anchor="middle" x="365" y="-87.5" font-family="Helvetica" font-size="10.00">profile04</text>
</a>
</g>
</g>
<!-- dir_59eeb17f1a610b36d7482110bd017406&#45;&gt;dir_261f67b82c2cb416f656d185a1fa5017 -->
<g id="edge5" class="edge">
<title>dir_59eeb17f1a610b36d7482110bd017406&#45;&gt;dir_261f67b82c2cb416f656d185a1fa5017</title>
<path fill="none" stroke="black" d="M349.48,-71.7C343.56,-65.99 336.44,-60.06 329,-56 298.34,-39.27 286.14,-47.02 253,-36 251.36,-35.45 249.69,-34.88 248.01,-34.28"/>
<polygon fill="black" stroke="black" points="248.97,-30.9 238.38,-30.66 246.51,-37.45 248.97,-30.9"/>
<g id="a_edge5&#45;headlabel"><a xlink:href="dir_000050_000022.html" target="_top" xlink:title="4">
<text text-anchor="middle" x="253.33" y="-27" font-family="Helvetica" font-size="10.00">4</text>
</a>
</g>
</g>
<!-- dir_59eeb17f1a610b36d7482110bd017406&#45;&gt;dir_b31d54d5631803016a26f28213a41162 -->
<g id="edge7" class="edge">
<title>dir_59eeb17f1a610b36d7482110bd017406&#45;&gt;dir_b31d54d5631803016a26f28213a41162</title>
<path fill="none" stroke="black" d="M346.21,-71.7C336.83,-63.05 325.32,-52.45 315.09,-43.03"/>
<polygon fill="black" stroke="black" points="317.3,-40.3 307.57,-36.1 312.55,-45.45 317.3,-40.3"/>
<g id="a_edge7&#45;headlabel"><a xlink:href="dir_000050_000034.html" target="_top" xlink:title="2">
<text text-anchor="middle" x="321.86" y="-38.15" font-family="Helvetica" font-size="10.00">2</text>
</a>
</g>
</g>
<!-- dir_6972051101bc5f8d68d31d49f06d7aaf -->
<g id="node9" class="node">
<title>dir_6972051101bc5f8d68d31d49f06d7aaf</title>
<g id="a_node9"><a xlink:href="dir_6972051101bc5f8d68d31d49f06d7aaf.html" target="_top" xlink:title="utility">
<polygon fill="none" stroke="red" stroke-dasharray="5,2" points="392,-36 338,-36 338,0 392,0 392,-36"/>
<text text-anchor="middle" x="365" y="-15.5" font-family="Helvetica" font-size="10.00">utility</text>
</a>
</g>
</g>
<!-- dir_59eeb17f1a610b36d7482110bd017406&#45;&gt;dir_6972051101bc5f8d68d31d49f06d7aaf -->
<g id="edge6" class="edge">
<title>dir_59eeb17f1a610b36d7482110bd017406&#45;&gt;dir_6972051101bc5f8d68d31d49f06d7aaf</title>
<path fill="none" stroke="black" d="M365,-71.7C365,-63.98 365,-54.71 365,-46.11"/>
<polygon fill="black" stroke="black" points="368.5,-46.1 365,-36.1 361.5,-46.1 368.5,-46.1"/>
<g id="a_edge6&#45;headlabel"><a xlink:href="dir_000050_000080.html" target="_top" xlink:title="2">
<text text-anchor="middle" x="371.34" y="-47.2" font-family="Helvetica" font-size="10.00">2</text>
</a>
</g>
</g>
<!-- dir_baedb73a9c4bc70abdd980c28ad5582e -->
<g id="node4" class="node">
<title>dir_baedb73a9c4bc70abdd980c28ad5582e</title>
<g id="a_node4"><a xlink:href="dir_baedb73a9c4bc70abdd980c28ad5582e.html" target="_top" xlink:title="profile05">
<polygon fill="#a2b4d6" stroke="#404040" points="320,-108 266,-108 266,-72 320,-72 320,-108"/>
<text text-anchor="middle" x="293" y="-87.5" font-family="Helvetica" font-size="10.00">profile05</text>
</a>
</g>
</g>
<!-- dir_baedb73a9c4bc70abdd980c28ad5582e&#45;&gt;dir_261f67b82c2cb416f656d185a1fa5017 -->
<g id="edge8" class="edge">
<title>dir_baedb73a9c4bc70abdd980c28ad5582e&#45;&gt;dir_261f67b82c2cb416f656d185a1fa5017</title>
<path fill="none" stroke="black" d="M274.89,-71.98C269.23,-66.77 262.92,-61.08 257,-56 251.78,-51.51 246.13,-46.83 240.63,-42.37"/>
<polygon fill="black" stroke="black" points="242.75,-39.58 232.77,-36.03 238.36,-45.03 242.75,-39.58"/>
<g id="a_edge8&#45;headlabel"><a xlink:href="dir_000052_000022.html" target="_top" xlink:title="4">
<text text-anchor="middle" x="247.33" y="-37.12" font-family="Helvetica" font-size="10.00">4</text>
</a>
</g>
</g>
<!-- dir_baedb73a9c4bc70abdd980c28ad5582e&#45;&gt;dir_b31d54d5631803016a26f28213a41162 -->
<g id="edge10" class="edge">
<title>dir_baedb73a9c4bc70abdd980c28ad5582e&#45;&gt;dir_b31d54d5631803016a26f28213a41162</title>
<path fill="none" stroke="black" d="M292.01,-71.7C291.57,-63.98 291.04,-54.71 290.55,-46.11"/>
<polygon fill="black" stroke="black" points="294.04,-45.89 289.98,-36.1 287.05,-46.29 294.04,-45.89"/>
<g id="a_edge10&#45;headlabel"><a xlink:href="dir_000052_000034.html" target="_top" xlink:title="2">
<text text-anchor="middle" x="297.08" y="-46.82" font-family="Helvetica" font-size="10.00">2</text>
</a>
</g>
</g>
<!-- dir_baedb73a9c4bc70abdd980c28ad5582e&#45;&gt;dir_6972051101bc5f8d68d31d49f06d7aaf -->
<g id="edge9" class="edge">
<title>dir_baedb73a9c4bc70abdd980c28ad5582e&#45;&gt;dir_6972051101bc5f8d68d31d49f06d7aaf</title>
<path fill="none" stroke="black" d="M310.8,-71.7C319.6,-63.14 330.38,-52.66 340,-43.3"/>
<polygon fill="black" stroke="black" points="342.68,-45.58 347.41,-36.1 337.8,-40.57 342.68,-45.58"/>
<g id="a_edge9&#45;headlabel"><a xlink:href="dir_000052_000080.html" target="_top" xlink:title="2">
<text text-anchor="middle" x="342.08" y="-47.63" font-family="Helvetica" font-size="10.00">2</text>
</a>
</g>
</g>
<!-- dir_89248154258d763c30cfee3d946cb78f -->
<g id="node5" class="node">
<title>dir_89248154258d763c30cfee3d946cb78f</title>
<g id="a_node5"><a xlink:href="dir_89248154258d763c30cfee3d946cb78f.html" target="_top" xlink:title="profile07">
<polygon fill="#a2b4d6" stroke="#404040" points="464,-108 410,-108 410,-72 464,-72 464,-108"/>
<text text-anchor="middle" x="437" y="-87.5" font-family="Helvetica" font-size="10.00">profile07</text>
</a>
</g>
</g>
<!-- dir_89248154258d763c30cfee3d946cb78f&#45;&gt;dir_261f67b82c2cb416f656d185a1fa5017 -->
<g id="edge11" class="edge">
<title>dir_89248154258d763c30cfee3d946cb78f&#45;&gt;dir_261f67b82c2cb416f656d185a1fa5017</title>
<path fill="none" stroke="black" d="M422.44,-71.87C416.42,-65.89 408.98,-59.74 401,-56 340.89,-27.84 317.15,-53.03 253,-36 251.33,-35.56 249.63,-35.06 247.93,-34.53"/>
<polygon fill="black" stroke="black" points="248.82,-31.14 238.23,-31.16 246.53,-37.75 248.82,-31.14"/>
<g id="a_edge11&#45;headlabel"><a xlink:href="dir_000054_000022.html" target="_top" xlink:title="4">
<text text-anchor="middle" x="253.15" y="-27.13" font-family="Helvetica" font-size="10.00">4</text>
</a>
</g>
</g>
<!-- dir_89248154258d763c30cfee3d946cb78f&#45;&gt;dir_b31d54d5631803016a26f28213a41162 -->
<g id="edge13" class="edge">
<title>dir_89248154258d763c30cfee3d946cb78f&#45;&gt;dir_b31d54d5631803016a26f28213a41162</title>
<path fill="none" stroke="black" d="M421.45,-71.75C415.53,-66.05 408.41,-60.11 401,-56 371.96,-39.89 360.35,-46.96 329,-36 328.13,-35.69 327.25,-35.38 326.36,-35.06"/>
<polygon fill="black" stroke="black" points="327.38,-31.7 316.79,-31.36 324.86,-38.23 327.38,-31.7"/>
<g id="a_edge13&#45;headlabel"><a xlink:href="dir_000054_000034.html" target="_top" xlink:title="2">
<text text-anchor="middle" x="331.76" y="-27.85" font-family="Helvetica" font-size="10.00">2</text>
</a>
</g>
</g>
<!-- dir_89248154258d763c30cfee3d946cb78f&#45;&gt;dir_6972051101bc5f8d68d31d49f06d7aaf -->
<g id="edge12" class="edge">
<title>dir_89248154258d763c30cfee3d946cb78f&#45;&gt;dir_6972051101bc5f8d68d31d49f06d7aaf</title>
<path fill="none" stroke="black" d="M419.2,-71.7C410.4,-63.14 399.62,-52.66 390,-43.3"/>
<polygon fill="black" stroke="black" points="392.2,-40.57 382.59,-36.1 387.32,-45.58 392.2,-40.57"/>
<g id="a_edge12&#45;headlabel"><a xlink:href="dir_000054_000080.html" target="_top" xlink:title="2">
<text text-anchor="middle" x="396.76" y="-38.54" font-family="Helvetica" font-size="10.00">2</text>
</a>
</g>
</g>
<!-- dir_6779bea9991003ae841a4b19c94369b9 -->
<g id="node6" class="node">
<title>dir_6779bea9991003ae841a4b19c94369b9</title>
<g id="a_node6"><a xlink:href="dir_6779bea9991003ae841a4b19c94369b9.html" target="_top" xlink:title="profile_custom">
<polygon fill="#a2b4d6" stroke="#404040" points="248,-108 168,-108 168,-72 248,-72 248,-108"/>
<text text-anchor="middle" x="208" y="-87.5" font-family="Helvetica" font-size="10.00">profile_custom</text>
</a>
</g>
</g>
<!-- dir_6779bea9991003ae841a4b19c94369b9&#45;&gt;dir_261f67b82c2cb416f656d185a1fa5017 -->
<g id="edge14" class="edge">
<title>dir_6779bea9991003ae841a4b19c94369b9&#45;&gt;dir_261f67b82c2cb416f656d185a1fa5017</title>
<path fill="none" stroke="black" d="M208.74,-71.7C209.07,-63.98 209.47,-54.71 209.84,-46.11"/>
<polygon fill="black" stroke="black" points="213.34,-46.25 210.27,-36.1 206.34,-45.95 213.34,-46.25"/>
<g id="a_edge14&#45;headlabel"><a xlink:href="dir_000056_000022.html" target="_top" xlink:title="4">
<text text-anchor="middle" x="216.02" y="-47.46" font-family="Helvetica" font-size="10.00">4</text>
</a>
</g>
</g>
<!-- dir_6779bea9991003ae841a4b19c94369b9&#45;&gt;dir_b31d54d5631803016a26f28213a41162 -->
<g id="edge15" class="edge">
<title>dir_6779bea9991003ae841a4b19c94369b9&#45;&gt;dir_b31d54d5631803016a26f28213a41162</title>
<path fill="none" stroke="black" d="M228.02,-71.7C238.13,-62.97 250.54,-52.24 261.52,-42.75"/>
<polygon fill="black" stroke="black" points="263.93,-45.29 269.21,-36.1 259.35,-39.99 263.93,-45.29"/>
<g id="a_edge15&#45;headlabel"><a xlink:href="dir_000056_000034.html" target="_top" xlink:title="1">
<text text-anchor="middle" x="263.07" y="-47.29" font-family="Helvetica" font-size="10.00">1</text>
</a>
</g>
</g>
</g>
</svg>
