<?xml version="1.0" encoding="UTF-8" standalone="no"?>
<!DOCTYPE svg PUBLIC "-//W3C//DTD SVG 1.1//EN"
 "http://www.w3.org/Graphics/SVG/1.1/DTD/svg11.dtd">
<!-- Generated by graphviz version 2.44.0 (0)
 -->
<!-- Title: /home/ec2&#45;user/workspace/vsomeip/implementation/e2e_protection/src/e2e/profile/profile05 Pages: 1 -->
<svg width="208pt" height="151pt"
 viewBox="0.00 0.00 207.50 151.00" xmlns="http://www.w3.org/2000/svg" xmlns:xlink="http://www.w3.org/1999/xlink">
<g id="graph0" class="graph" transform="scale(1 1) rotate(0) translate(4 147)">
<title>/home/ec2&#45;user/workspace/vsomeip/implementation/e2e_protection/src/e2e/profile/profile05</title>
<polygon fill="white" stroke="transparent" points="-4,4 -4,-147 203.5,-147 203.5,4 -4,4"/>
<g id="clust1" class="cluster">
<title>clusterdir_1a314ca59dd122efcbdf7cfcbe800b87</title>
<g id="a_clust1"><a xlink:href="dir_1a314ca59dd122efcbdf7cfcbe800b87.html" target="_top" xlink:title="profile">
<polygon fill="#edf0f7" stroke="#7f7f7f" stroke-dasharray="5,2" points="64,-64 64,-135 134,-135 134,-64 64,-64"/>
<text text-anchor="middle" x="99" y="-123" font-family="Helvetica" font-size="10.00">profile</text>
</a>
</g>
</g>
<!-- dir_baedb73a9c4bc70abdd980c28ad5582e -->
<g id="node1" class="node">
<title>dir_baedb73a9c4bc70abdd980c28ad5582e</title>
<g id="a_node1"><a xlink:href="dir_baedb73a9c4bc70abdd980c28ad5582e.html" target="_top" xlink:title="profile05">
<polygon fill="#edf0f7" stroke="#404040" stroke-width="2" points="126,-108 72,-108 72,-72 126,-72 126,-108"/>
<text text-anchor="middle" x="99" y="-87.5" font-family="Helvetica" font-size="10.00">profile05</text>
</a>
</g>
</g>
<!-- dir_261f67b82c2cb416f656d185a1fa5017 -->
<g id="node2" class="node">
<title>dir_261f67b82c2cb416f656d185a1fa5017</title>
<g id="a_node2"><a xlink:href="dir_261f67b82c2cb416f656d185a1fa5017.html" target="_top" xlink:title="include">
<polygon fill="none" stroke="red" stroke-dasharray="5,2" points="54,-36 0,-36 0,0 54,0 54,-36"/>
<text text-anchor="middle" x="27" y="-15.5" font-family="Helvetica" font-size="10.00">include</text>
</a>
</g>
</g>
<!-- dir_baedb73a9c4bc70abdd980c28ad5582e&#45;&gt;dir_261f67b82c2cb416f656d185a1fa5017 -->
<g id="edge1" class="edge">
<title>dir_baedb73a9c4bc70abdd980c28ad5582e&#45;&gt;dir_261f67b82c2cb416f656d185a1fa5017</title>
<path fill="none" stroke="black" d="M81.2,-71.7C72.4,-63.14 61.62,-52.66 52,-43.3"/>
<polygon fill="black" stroke="black" points="54.2,-40.57 44.59,-36.1 49.32,-45.58 54.2,-40.57"/>
<g id="a_edge1&#45;headlabel"><a xlink:href="dir_000052_000022.html" target="_top" xlink:title="4">
<text text-anchor="middle" x="58.76" y="-38.54" font-family="Helvetica" font-size="10.00">4</text>
</a>
</g>
</g>
<!-- dir_6972051101bc5f8d68d31d49f06d7aaf -->
<g id="node3" class="node">
<title>dir_6972051101bc5f8d68d31d49f06d7aaf</title>
<g id="a_node3"><a xlink:href="dir_6972051101bc5f8d68d31d49f06d7aaf.html" target="_top" xlink:title="utility">
<polygon fill="none" stroke="red" stroke-dasharray="5,2" points="126,-36 72,-36 72,0 126,0 126,-36"/>
<text text-anchor="middle" x="99" y="-15.5" font-family="Helvetica" font-size="10.00">utility</text>
</a>
</g>
</g>
<!-- dir_baedb73a9c4bc70abdd980c28ad5582e&#45;&gt;dir_6972051101bc5f8d68d31d49f06d7aaf -->
<g id="edge2" class="edge">
<title>dir_baedb73a9c4bc70abdd980c28ad5582e&#45;&gt;dir_6972051101bc5f8d68d31d49f06d7aaf</title>
<path fill="none" stroke="black" d="M99,-71.7C99,-63.98 99,-54.71 99,-46.11"/>
<polygon fill="black" stroke="black" points="102.5,-46.1 99,-36.1 95.5,-46.1 102.5,-46.1"/>
<g id="a_edge2&#45;headlabel"><a xlink:href="dir_000052_000080.html" target="_top" xlink:title="2">
<text text-anchor="middle" x="105.34" y="-47.2" font-family="Helvetica" font-size="10.00">2</text>
</a>
</g>
</g>
<!-- dir_b31d54d5631803016a26f28213a41162 -->
<g id="node4" class="node">
<title>dir_b31d54d5631803016a26f28213a41162</title>
<g id="a_node4"><a xlink:href="dir_b31d54d5631803016a26f28213a41162.html" target="_top" xlink:title="interface">
<polygon fill="none" stroke="red" points="199.5,-36 144.5,-36 144.5,0 199.5,0 199.5,-36"/>
<text text-anchor="middle" x="172" y="-15.5" font-family="Helvetica" font-size="10.00">interface</text>
</a>
</g>
</g>
<!-- dir_baedb73a9c4bc70abdd980c28ad5582e&#45;&gt;dir_b31d54d5631803016a26f28213a41162 -->
<g id="edge3" class="edge">
<title>dir_baedb73a9c4bc70abdd980c28ad5582e&#45;&gt;dir_b31d54d5631803016a26f28213a41162</title>
<path fill="none" stroke="black" d="M117.04,-71.7C126.06,-63.05 137.12,-52.45 146.94,-43.03"/>
<polygon fill="black" stroke="black" points="149.37,-45.55 154.16,-36.1 144.52,-40.5 149.37,-45.55"/>
<g id="a_edge3&#45;headlabel"><a xlink:href="dir_000052_000034.html" target="_top" xlink:title="2">
<text text-anchor="middle" x="148.74" y="-47.59" font-family="Helvetica" font-size="10.00">2</text>
</a>
</g>
</g>
</g>
</svg>
