<?xml version="1.0" encoding="UTF-8" standalone="no"?>
<!DOCTYPE svg PUBLIC "-//W3C//DTD SVG 1.1//EN"
 "http://www.w3.org/Graphics/SVG/1.1/DTD/svg11.dtd">
<!-- Generated by graphviz version 2.44.0 (0)
 -->
<!-- Title: /home/ec2&#45;user/workspace/vsomeip/implementation/configuration/include Pages: 1 -->
<svg width="306pt" height="151pt"
 viewBox="0.00 0.00 305.50 151.00" xmlns="http://www.w3.org/2000/svg" xmlns:xlink="http://www.w3.org/1999/xlink">
<g id="graph0" class="graph" transform="scale(1 1) rotate(0) translate(4 147)">
<title>/home/ec2&#45;user/workspace/vsomeip/implementation/configuration/include</title>
<polygon fill="white" stroke="transparent" points="-4,4 -4,-147 301.5,-147 301.5,4 -4,4"/>
<g id="clust1" class="cluster">
<title>clusterdir_56126a1d848d4a1832817232e79a5a18</title>
<g id="a_clust1"><a xlink:href="dir_56126a1d848d4a1832817232e79a5a18.html" target="_top" xlink:title="configuration">
<polygon fill="#edf0f7" stroke="#7f7f7f" stroke-dasharray="5,2" points="118,-64 118,-135 190,-135 190,-64 118,-64"/>
<text text-anchor="middle" x="154" y="-123" font-family="Helvetica" font-size="10.00">configuration</text>
</a>
</g>
</g>
<!-- dir_dca01e643b0ec4b7c70c70c593767eaa -->
<g id="node1" class="node">
<title>dir_dca01e643b0ec4b7c70c70c593767eaa</title>
<g id="a_node1"><a xlink:href="dir_dca01e643b0ec4b7c70c70c593767eaa.html" target="_top" xlink:title="include">
<polygon fill="#edf0f7" stroke="#404040" stroke-width="2" points="181,-108 127,-108 127,-72 181,-72 181,-108"/>
<text text-anchor="middle" x="154" y="-87.5" font-family="Helvetica" font-size="10.00">include</text>
</a>
</g>
</g>
<!-- dir_282dd5a982ba644edb6efcfaee8b7735 -->
<g id="node2" class="node">
<title>dir_282dd5a982ba644edb6efcfaee8b7735</title>
<g id="a_node2"><a xlink:href="dir_282dd5a982ba644edb6efcfaee8b7735.html" target="_top" xlink:title="tracing">
<polygon fill="none" stroke="red" stroke-dasharray="5,2" points="54,-36 0,-36 0,0 54,0 54,-36"/>
<text text-anchor="middle" x="27" y="-15.5" font-family="Helvetica" font-size="10.00">tracing</text>
</a>
</g>
</g>
<!-- dir_dca01e643b0ec4b7c70c70c593767eaa&#45;&gt;dir_282dd5a982ba644edb6efcfaee8b7735 -->
<g id="edge1" class="edge">
<title>dir_dca01e643b0ec4b7c70c70c593767eaa&#45;&gt;dir_282dd5a982ba644edb6efcfaee8b7735</title>
<path fill="none" stroke="black" d="M126.76,-73.98C108.17,-63.74 83.36,-50.07 63.13,-38.92"/>
<polygon fill="black" stroke="black" points="64.65,-35.75 54.2,-33.99 61.27,-41.88 64.65,-35.75"/>
<g id="a_edge1&#45;headlabel"><a xlink:href="dir_000021_000079.html" target="_top" xlink:title="1">
<text text-anchor="middle" x="69.17" y="-32.5" font-family="Helvetica" font-size="10.00">1</text>
</a>
</g>
</g>
<!-- dir_476f23a9d8d07b93b910130c774b1932 -->
<g id="node3" class="node">
<title>dir_476f23a9d8d07b93b910130c774b1932</title>
<g id="a_node3"><a xlink:href="dir_476f23a9d8d07b93b910130c774b1932.html" target="_top" xlink:title="e2e_protection">
<polygon fill="none" stroke="red" stroke-dasharray="5,2" points="152,-36 72,-36 72,0 152,0 152,-36"/>
<text text-anchor="middle" x="112" y="-15.5" font-family="Helvetica" font-size="10.00">e2e_protection</text>
</a>
</g>
</g>
<!-- dir_dca01e643b0ec4b7c70c70c593767eaa&#45;&gt;dir_476f23a9d8d07b93b910130c774b1932 -->
<g id="edge2" class="edge">
<title>dir_dca01e643b0ec4b7c70c70c593767eaa&#45;&gt;dir_476f23a9d8d07b93b910130c774b1932</title>
<path fill="none" stroke="black" d="M143.62,-71.7C138.74,-63.56 132.81,-53.69 127.42,-44.7"/>
<polygon fill="black" stroke="black" points="130.41,-42.88 122.26,-36.1 124.41,-46.48 130.41,-42.88"/>
<g id="a_edge2&#45;headlabel"><a xlink:href="dir_000021_000012.html" target="_top" xlink:title="2">
<text text-anchor="middle" x="134.69" y="-42" font-family="Helvetica" font-size="10.00">2</text>
</a>
</g>
</g>
<!-- dir_96312f6272b562b103a6f862042db4a4 -->
<g id="node4" class="node">
<title>dir_96312f6272b562b103a6f862042db4a4</title>
<g id="a_node4"><a xlink:href="dir_96312f6272b562b103a6f862042db4a4.html" target="_top" xlink:title="security">
<polygon fill="none" stroke="red" stroke-dasharray="5,2" points="224,-36 170,-36 170,0 224,0 224,-36"/>
<text text-anchor="middle" x="197" y="-15.5" font-family="Helvetica" font-size="10.00">security</text>
</a>
</g>
</g>
<!-- dir_dca01e643b0ec4b7c70c70c593767eaa&#45;&gt;dir_96312f6272b562b103a6f862042db4a4 -->
<g id="edge3" class="edge">
<title>dir_dca01e643b0ec4b7c70c70c593767eaa&#45;&gt;dir_96312f6272b562b103a6f862042db4a4</title>
<path fill="none" stroke="black" d="M164.63,-71.7C169.63,-63.56 175.69,-53.69 181.21,-44.7"/>
<polygon fill="black" stroke="black" points="184.24,-46.46 186.49,-36.1 178.28,-42.79 184.24,-46.46"/>
<g id="a_edge3&#45;headlabel"><a xlink:href="dir_000021_000062.html" target="_top" xlink:title="2">
<text text-anchor="middle" x="184.78" y="-48.51" font-family="Helvetica" font-size="10.00">2</text>
</a>
</g>
</g>
<!-- dir_b31d54d5631803016a26f28213a41162 -->
<g id="node5" class="node">
<title>dir_b31d54d5631803016a26f28213a41162</title>
<g id="a_node5"><a xlink:href="dir_b31d54d5631803016a26f28213a41162.html" target="_top" xlink:title="interface">
<polygon fill="none" stroke="red" points="297.5,-36 242.5,-36 242.5,0 297.5,0 297.5,-36"/>
<text text-anchor="middle" x="270" y="-15.5" font-family="Helvetica" font-size="10.00">interface</text>
</a>
</g>
</g>
<!-- dir_dca01e643b0ec4b7c70c70c593767eaa&#45;&gt;dir_b31d54d5631803016a26f28213a41162 -->
<g id="edge4" class="edge">
<title>dir_dca01e643b0ec4b7c70c70c593767eaa&#45;&gt;dir_b31d54d5631803016a26f28213a41162</title>
<path fill="none" stroke="black" d="M181.2,-72.59C196.82,-63.16 216.65,-51.2 233.6,-40.96"/>
<polygon fill="black" stroke="black" points="235.41,-43.96 242.17,-35.8 231.8,-37.97 235.41,-43.96"/>
<g id="a_edge4&#45;headlabel"><a xlink:href="dir_000021_000034.html" target="_top" xlink:title="5">
<text text-anchor="middle" x="233.8" y="-45.75" font-family="Helvetica" font-size="10.00">5</text>
</a>
</g>
</g>
</g>
</svg>
