<?xml version="1.0" encoding="UTF-8" standalone="no"?>
<!DOCTYPE svg PUBLIC "-//W3C//DTD SVG 1.1//EN"
 "http://www.w3.org/Graphics/SVG/1.1/DTD/svg11.dtd">
<!-- Generated by graphviz version 2.44.0 (0)
 -->
<!-- Title: /home/ec2&#45;user/workspace/vsomeip/implementation/service_discovery Pages: 1 -->
<svg width="416pt" height="247pt"
 viewBox="0.00 0.00 415.50 247.00" xmlns="http://www.w3.org/2000/svg" xmlns:xlink="http://www.w3.org/1999/xlink">
<g id="graph0" class="graph" transform="scale(1 1) rotate(0) translate(4 243)">
<title>/home/ec2&#45;user/workspace/vsomeip/implementation/service_discovery</title>
<polygon fill="white" stroke="transparent" points="-4,4 -4,-243 411.5,-243 411.5,4 -4,4"/>
<g id="clust1" class="cluster">
<title>clusterdir_ed7c47a03c091bb19436c59342bc9555</title>
<g id="a_clust1"><a xlink:href="dir_ed7c47a03c091bb19436c59342bc9555.html" target="_top" xlink:title="implementation">
<polygon fill="#edf0f7" stroke="#404040" stroke-dasharray="5,2" points="8,-8 8,-231 342,-231 342,-8 8,-8"/>
<text text-anchor="middle" x="175" y="-219" font-family="Helvetica" font-size="10.00">implementation</text>
</a>
</g>
</g>
<g id="clust2" class="cluster">
<title>clusterdir_061a1b0a0a40a7427f2461ed2f520013</title>
<g id="a_clust2"><a xlink:href="dir_061a1b0a0a40a7427f2461ed2f520013.html" target="_top">
<polygon fill="#edf0f7" stroke="#404040" stroke-width="2" points="16,-80 16,-204 200,-204 200,-80 16,-80"/>
</a>
</g>
</g>
<!-- dir_3ce07147fcbac31fc4d5892a851f6627 -->
<g id="node1" class="node">
<title>dir_3ce07147fcbac31fc4d5892a851f6627</title>
<g id="a_node1"><a xlink:href="dir_3ce07147fcbac31fc4d5892a851f6627.html" target="_top" xlink:title="message">
<polygon fill="#a2b4d6" stroke="red" points="72,-52 16,-52 16,-16 72,-16 72,-52"/>
<text text-anchor="middle" x="44" y="-31.5" font-family="Helvetica" font-size="10.00">message</text>
</a>
</g>
</g>
<!-- dir_56126a1d848d4a1832817232e79a5a18 -->
<g id="node2" class="node">
<title>dir_56126a1d848d4a1832817232e79a5a18</title>
<g id="a_node2"><a xlink:href="dir_56126a1d848d4a1832817232e79a5a18.html" target="_top" xlink:title="configuration">
<polygon fill="#a2b4d6" stroke="red" points="162,-52 90,-52 90,-16 162,-16 162,-52"/>
<text text-anchor="middle" x="126" y="-31.5" font-family="Helvetica" font-size="10.00">configuration</text>
</a>
</g>
</g>
<!-- dir_9c7b9d609ec855ab7fbf064b0ccf8e4e -->
<g id="node3" class="node">
<title>dir_9c7b9d609ec855ab7fbf064b0ccf8e4e</title>
<g id="a_node3"><a xlink:href="dir_9c7b9d609ec855ab7fbf064b0ccf8e4e.html" target="_top" xlink:title="endpoints">
<polygon fill="#a2b4d6" stroke="red" points="239.5,-52 180.5,-52 180.5,-16 239.5,-16 239.5,-52"/>
<text text-anchor="middle" x="210" y="-31.5" font-family="Helvetica" font-size="10.00">endpoints</text>
</a>
</g>
</g>
<!-- dir_cf72682d9b1c0bc1c562a1f19b8defa0 -->
<g id="node4" class="node">
<title>dir_cf72682d9b1c0bc1c562a1f19b8defa0</title>
<g id="a_node4"><a xlink:href="dir_cf72682d9b1c0bc1c562a1f19b8defa0.html" target="_top" xlink:title="routing">
<polygon fill="#a2b4d6" stroke="red" points="312,-52 258,-52 258,-16 312,-16 312,-52"/>
<text text-anchor="middle" x="285" y="-31.5" font-family="Helvetica" font-size="10.00">routing</text>
</a>
</g>
</g>
<!-- dir_f132f3c082319ace6827058f7d1d886d -->
<g id="node5" class="node">
<title>dir_f132f3c082319ace6827058f7d1d886d</title>
<g id="a_node5"><a xlink:href="dir_f132f3c082319ace6827058f7d1d886d.html" target="_top" xlink:title="plugin">
<polygon fill="#a2b4d6" stroke="red" points="262,-124 208,-124 208,-88 262,-88 262,-124"/>
<text text-anchor="middle" x="235" y="-103.5" font-family="Helvetica" font-size="10.00">plugin</text>
</a>
</g>
</g>
<!-- dir_6972051101bc5f8d68d31d49f06d7aaf -->
<g id="node6" class="node">
<title>dir_6972051101bc5f8d68d31d49f06d7aaf</title>
<g id="a_node6"><a xlink:href="dir_6972051101bc5f8d68d31d49f06d7aaf.html" target="_top" xlink:title="utility">
<polygon fill="#a2b4d6" stroke="red" points="334,-124 280,-124 280,-88 334,-88 334,-124"/>
<text text-anchor="middle" x="307" y="-103.5" font-family="Helvetica" font-size="10.00">utility</text>
</a>
</g>
</g>
<!-- dir_061a1b0a0a40a7427f2461ed2f520013 -->
<g id="node7" class="node">
<title>dir_061a1b0a0a40a7427f2461ed2f520013</title>
<text text-anchor="middle" x="144" y="-175.5" font-family="Helvetica" font-size="10.00">service_discovery</text>
</g>
<!-- dir_e536cd6c38eff7239838b1bcd538af89 -->
<g id="node8" class="node">
<title>dir_e536cd6c38eff7239838b1bcd538af89</title>
<g id="a_node8"><a xlink:href="dir_e536cd6c38eff7239838b1bcd538af89.html" target="_top" xlink:title="include">
<polygon fill="#a2b4d6" stroke="#404040" points="150,-124 96,-124 96,-88 150,-88 150,-124"/>
<text text-anchor="middle" x="123" y="-103.5" font-family="Helvetica" font-size="10.00">include</text>
</a>
</g>
</g>
<!-- dir_e536cd6c38eff7239838b1bcd538af89&#45;&gt;dir_3ce07147fcbac31fc4d5892a851f6627 -->
<g id="edge1" class="edge">
<title>dir_e536cd6c38eff7239838b1bcd538af89&#45;&gt;dir_3ce07147fcbac31fc4d5892a851f6627</title>
<path fill="none" stroke="black" d="M103.47,-87.7C93.62,-78.97 81.51,-68.24 70.8,-58.75"/>
<polygon fill="black" stroke="black" points="73.11,-56.12 63.3,-52.1 68.47,-61.36 73.11,-56.12"/>
<g id="a_edge1&#45;headlabel"><a xlink:href="dir_000031_000041.html" target="_top" xlink:title="2">
<text text-anchor="middle" x="77.68" y="-53.88" font-family="Helvetica" font-size="10.00">2</text>
</a>
</g>
</g>
<!-- dir_e536cd6c38eff7239838b1bcd538af89&#45;&gt;dir_56126a1d848d4a1832817232e79a5a18 -->
<g id="edge2" class="edge">
<title>dir_e536cd6c38eff7239838b1bcd538af89&#45;&gt;dir_56126a1d848d4a1832817232e79a5a18</title>
<path fill="none" stroke="black" d="M123.74,-87.7C124.07,-79.98 124.47,-70.71 124.84,-62.11"/>
<polygon fill="black" stroke="black" points="128.34,-62.25 125.27,-52.1 121.34,-61.95 128.34,-62.25"/>
<g id="a_edge2&#45;headlabel"><a xlink:href="dir_000031_000006.html" target="_top" xlink:title="1">
<text text-anchor="middle" x="131.02" y="-63.46" font-family="Helvetica" font-size="10.00">1</text>
</a>
</g>
</g>
<!-- dir_e536cd6c38eff7239838b1bcd538af89&#45;&gt;dir_9c7b9d609ec855ab7fbf064b0ccf8e4e -->
<g id="edge3" class="edge">
<title>dir_e536cd6c38eff7239838b1bcd538af89&#45;&gt;dir_9c7b9d609ec855ab7fbf064b0ccf8e4e</title>
<path fill="none" stroke="black" d="M144.34,-87.78C147.58,-85.17 150.88,-82.51 154,-80 162.69,-73.01 172.14,-65.41 180.76,-58.48"/>
<polygon fill="black" stroke="black" points="183.12,-61.08 188.72,-52.09 178.73,-55.62 183.12,-61.08"/>
<g id="a_edge3&#45;headlabel"><a xlink:href="dir_000031_000015.html" target="_top" xlink:title="4">
<text text-anchor="middle" x="182.09" y="-63.04" font-family="Helvetica" font-size="10.00">4</text>
</a>
</g>
</g>
<!-- dir_e536cd6c38eff7239838b1bcd538af89&#45;&gt;dir_cf72682d9b1c0bc1c562a1f19b8defa0 -->
<g id="edge4" class="edge">
<title>dir_e536cd6c38eff7239838b1bcd538af89&#45;&gt;dir_cf72682d9b1c0bc1c562a1f19b8defa0</title>
<path fill="none" stroke="black" d="M141.86,-87.89C145.7,-84.97 149.84,-82.18 154,-80 190.4,-60.93 205.78,-66.72 248.19,-51.92"/>
<polygon fill="black" stroke="black" points="249.49,-55.18 257.67,-48.44 247.08,-48.61 249.49,-55.18"/>
<g id="a_edge4&#45;headlabel"><a xlink:href="dir_000031_000059.html" target="_top" xlink:title="5">
<text text-anchor="middle" x="247.1" y="-56.58" font-family="Helvetica" font-size="10.00">5</text>
</a>
</g>
</g>
<!-- dir_b9897dd8b4337efdb18d6c26c10007d0 -->
<g id="node9" class="node">
<title>dir_b9897dd8b4337efdb18d6c26c10007d0</title>
<g id="a_node9"><a xlink:href="dir_b9897dd8b4337efdb18d6c26c10007d0.html" target="_top" xlink:title="src">
<polygon fill="#a2b4d6" stroke="#404040" points="78,-196 24,-196 24,-160 78,-160 78,-196"/>
<text text-anchor="middle" x="51" y="-175.5" font-family="Helvetica" font-size="10.00">src</text>
</a>
</g>
</g>
<!-- dir_b9897dd8b4337efdb18d6c26c10007d0&#45;&gt;dir_3ce07147fcbac31fc4d5892a851f6627 -->
<g id="edge5" class="edge">
<title>dir_b9897dd8b4337efdb18d6c26c10007d0&#45;&gt;dir_3ce07147fcbac31fc4d5892a851f6627</title>
<path fill="none" stroke="black" d="M50.16,-159.87C48.96,-135.67 46.77,-91.21 45.35,-62.39"/>
<polygon fill="black" stroke="black" points="48.84,-62 44.85,-52.19 41.84,-62.35 48.84,-62"/>
<g id="a_edge5&#45;headlabel"><a xlink:href="dir_000076_000041.html" target="_top" xlink:title="27">
<text text-anchor="middle" x="51.85" y="-62.96" font-family="Helvetica" font-size="10.00">27</text>
</a>
</g>
</g>
<!-- dir_b9897dd8b4337efdb18d6c26c10007d0&#45;&gt;dir_56126a1d848d4a1832817232e79a5a18 -->
<g id="edge6" class="edge">
<title>dir_b9897dd8b4337efdb18d6c26c10007d0&#45;&gt;dir_56126a1d848d4a1832817232e79a5a18</title>
<path fill="none" stroke="black" d="M55.39,-159.7C60.92,-139.63 71.62,-105.96 87,-80 91.15,-73 96.44,-66.04 101.77,-59.77"/>
<polygon fill="black" stroke="black" points="104.43,-62.04 108.46,-52.24 99.2,-57.39 104.43,-62.04"/>
<g id="a_edge6&#45;headlabel"><a xlink:href="dir_000076_000006.html" target="_top" xlink:title="2">
<text text-anchor="middle" x="104.17" y="-64.11" font-family="Helvetica" font-size="10.00">2</text>
</a>
</g>
</g>
<!-- dir_b9897dd8b4337efdb18d6c26c10007d0&#45;&gt;dir_9c7b9d609ec855ab7fbf064b0ccf8e4e -->
<g id="edge8" class="edge">
<title>dir_b9897dd8b4337efdb18d6c26c10007d0&#45;&gt;dir_9c7b9d609ec855ab7fbf064b0ccf8e4e</title>
<path fill="none" stroke="black" d="M78.01,-164.23C108.93,-149.55 155.76,-127.05 159,-124 175.38,-108.58 172.82,-99.52 184,-80 187.56,-73.79 191.4,-67.11 195.02,-60.85"/>
<polygon fill="black" stroke="black" points="198.12,-62.49 200.09,-52.08 192.06,-58.98 198.12,-62.49"/>
<g id="a_edge8&#45;headlabel"><a xlink:href="dir_000076_000015.html" target="_top" xlink:title="5">
<text text-anchor="middle" x="198.78" y="-64.52" font-family="Helvetica" font-size="10.00">5</text>
</a>
</g>
</g>
<!-- dir_b9897dd8b4337efdb18d6c26c10007d0&#45;&gt;dir_cf72682d9b1c0bc1c562a1f19b8defa0 -->
<g id="edge10" class="edge">
<title>dir_b9897dd8b4337efdb18d6c26c10007d0&#45;&gt;dir_cf72682d9b1c0bc1c562a1f19b8defa0</title>
<path fill="none" stroke="black" d="M78.05,-164.02C81.06,-162.64 84.09,-161.28 87,-160 126.09,-142.88 144.4,-152.67 176,-124 192.34,-109.17 183.4,-95.61 199,-80 203.04,-75.96 226.94,-63.57 248.52,-52.81"/>
<polygon fill="black" stroke="black" points="250.15,-55.91 257.56,-48.33 247.05,-49.63 250.15,-55.91"/>
<g id="a_edge10&#45;headlabel"><a xlink:href="dir_000076_000059.html" target="_top" xlink:title="4">
<text text-anchor="middle" x="248.19" y="-57.55" font-family="Helvetica" font-size="10.00">4</text>
</a>
</g>
</g>
<!-- dir_b9897dd8b4337efdb18d6c26c10007d0&#45;&gt;dir_f132f3c082319ace6827058f7d1d886d -->
<g id="edge12" class="edge">
<title>dir_b9897dd8b4337efdb18d6c26c10007d0&#45;&gt;dir_f132f3c082319ace6827058f7d1d886d</title>
<path fill="none" stroke="black" d="M78.34,-163.6C81.24,-162.32 84.16,-161.1 87,-160 134.66,-141.52 151.81,-144.69 198.38,-126.19"/>
<polygon fill="black" stroke="black" points="199.85,-129.37 207.76,-122.33 197.19,-122.89 199.85,-129.37"/>
<g id="a_edge12&#45;headlabel"><a xlink:href="dir_000076_000042.html" target="_top" xlink:title="1">
<text text-anchor="middle" x="197.6" y="-130.86" font-family="Helvetica" font-size="10.00">1</text>
</a>
</g>
</g>
<!-- dir_b9897dd8b4337efdb18d6c26c10007d0&#45;&gt;dir_6972051101bc5f8d68d31d49f06d7aaf -->
<g id="edge7" class="edge">
<title>dir_b9897dd8b4337efdb18d6c26c10007d0&#45;&gt;dir_6972051101bc5f8d68d31d49f06d7aaf</title>
<path fill="none" stroke="black" d="M78.23,-163.29C81.15,-162.07 84.11,-160.95 87,-160 163.23,-134.97 189.85,-148.86 270.23,-123.79"/>
<polygon fill="black" stroke="black" points="271.33,-127.12 279.77,-120.71 269.18,-120.45 271.33,-127.12"/>
<g id="a_edge7&#45;headlabel"><a xlink:href="dir_000076_000080.html" target="_top" xlink:title="1">
<text text-anchor="middle" x="268.78" y="-128.42" font-family="Helvetica" font-size="10.00">1</text>
</a>
</g>
</g>
<!-- dir_b9897dd8b4337efdb18d6c26c10007d0&#45;&gt;dir_e536cd6c38eff7239838b1bcd538af89 -->
<g id="edge11" class="edge">
<title>dir_b9897dd8b4337efdb18d6c26c10007d0&#45;&gt;dir_e536cd6c38eff7239838b1bcd538af89</title>
<path fill="none" stroke="black" d="M68.8,-159.7C77.6,-151.14 88.38,-140.66 98,-131.3"/>
<polygon fill="black" stroke="black" points="100.68,-133.58 105.41,-124.1 95.8,-128.57 100.68,-133.58"/>
<g id="a_edge11&#45;headlabel"><a xlink:href="dir_000076_000031.html" target="_top" xlink:title="63">
<text text-anchor="middle" x="100.08" y="-135.63" font-family="Helvetica" font-size="10.00">63</text>
</a>
</g>
</g>
<!-- dir_b31d54d5631803016a26f28213a41162 -->
<g id="node10" class="node">
<title>dir_b31d54d5631803016a26f28213a41162</title>
<g id="a_node10"><a xlink:href="dir_b31d54d5631803016a26f28213a41162.html" target="_top" xlink:title="interface">
<polygon fill="none" stroke="red" points="407.5,-124 352.5,-124 352.5,-88 407.5,-88 407.5,-124"/>
<text text-anchor="middle" x="380" y="-103.5" font-family="Helvetica" font-size="10.00">interface</text>
</a>
</g>
</g>
<!-- dir_b9897dd8b4337efdb18d6c26c10007d0&#45;&gt;dir_b31d54d5631803016a26f28213a41162 -->
<g id="edge9" class="edge">
<title>dir_b9897dd8b4337efdb18d6c26c10007d0&#45;&gt;dir_b31d54d5631803016a26f28213a41162</title>
<path fill="none" stroke="black" d="M78.18,-163.12C81.11,-161.94 84.09,-160.87 87,-160 195.22,-127.75 232.87,-156.7 342.69,-124.64"/>
<polygon fill="black" stroke="black" points="343.92,-127.93 352.47,-121.68 341.89,-121.23 343.92,-127.93"/>
<g id="a_edge9&#45;headlabel"><a xlink:href="dir_000076_000034.html" target="_top" xlink:title="6">
<text text-anchor="middle" x="341.3" y="-129.18" font-family="Helvetica" font-size="10.00">6</text>
</a>
</g>
</g>
</g>
</svg>
