<?xml version="1.0" encoding="UTF-8" standalone="no"?>
<!DOCTYPE svg PUBLIC "-//W3C//DTD SVG 1.1//EN"
 "http://www.w3.org/Graphics/SVG/1.1/DTD/svg11.dtd">
<!-- Generated by graphviz version 2.44.0 (0)
 -->
<!-- Title: /home/ec2&#45;user/workspace/vsomeip/implementation/security Pages: 1 -->
<svg width="413pt" height="231pt"
 viewBox="0.00 0.00 413.16 231.00" xmlns="http://www.w3.org/2000/svg" xmlns:xlink="http://www.w3.org/1999/xlink">
<g id="graph0" class="graph" transform="scale(1 1) rotate(0) translate(4 227)">
<title>/home/ec2&#45;user/workspace/vsomeip/implementation/security</title>
<polygon fill="white" stroke="transparent" points="-4,4 -4,-227 409.16,-227 409.16,4 -4,4"/>
<g id="clust1" class="cluster">
<title>clusterdir_ed7c47a03c091bb19436c59342bc9555</title>
<g id="a_clust1"><a xlink:href="dir_ed7c47a03c091bb19436c59342bc9555.html" target="_top" xlink:title="implementation">
<polygon fill="#edf0f7" stroke="#404040" stroke-dasharray="5,2" points="8,-56 8,-215 390,-215 390,-56 8,-56"/>
<text text-anchor="middle" x="199" y="-203" font-family="Helvetica" font-size="10.00">implementation</text>
</a>
</g>
</g>
<g id="clust2" class="cluster">
<title>clusterdir_96312f6272b562b103a6f862042db4a4</title>
<g id="a_clust2"><a xlink:href="dir_96312f6272b562b103a6f862042db4a4.html" target="_top">
<polygon fill="#edf0f7" stroke="#404040" stroke-width="2" points="16,-64 16,-188 158,-188 158,-64 16,-64"/>
</a>
</g>
</g>
<!-- dir_6972051101bc5f8d68d31d49f06d7aaf -->
<g id="node1" class="node">
<title>dir_6972051101bc5f8d68d31d49f06d7aaf</title>
<g id="a_node1"><a xlink:href="dir_6972051101bc5f8d68d31d49f06d7aaf.html" target="_top" xlink:title="utility">
<polygon fill="#a2b4d6" stroke="red" points="220,-108 166,-108 166,-72 220,-72 220,-108"/>
<text text-anchor="middle" x="193" y="-87.5" font-family="Helvetica" font-size="10.00">utility</text>
</a>
</g>
</g>
<!-- dir_56126a1d848d4a1832817232e79a5a18 -->
<g id="node2" class="node">
<title>dir_56126a1d848d4a1832817232e79a5a18</title>
<g id="a_node2"><a xlink:href="dir_56126a1d848d4a1832817232e79a5a18.html" target="_top" xlink:title="configuration">
<polygon fill="#a2b4d6" stroke="red" points="310,-108 238,-108 238,-72 310,-72 310,-108"/>
<text text-anchor="middle" x="274" y="-87.5" font-family="Helvetica" font-size="10.00">configuration</text>
</a>
</g>
</g>
<!-- dir_f132f3c082319ace6827058f7d1d886d -->
<g id="node3" class="node">
<title>dir_f132f3c082319ace6827058f7d1d886d</title>
<g id="a_node3"><a xlink:href="dir_f132f3c082319ace6827058f7d1d886d.html" target="_top" xlink:title="plugin">
<polygon fill="#a2b4d6" stroke="red" points="382,-108 328,-108 328,-72 382,-72 382,-108"/>
<text text-anchor="middle" x="355" y="-87.5" font-family="Helvetica" font-size="10.00">plugin</text>
</a>
</g>
</g>
<!-- dir_96312f6272b562b103a6f862042db4a4 -->
<g id="node4" class="node">
<title>dir_96312f6272b562b103a6f862042db4a4</title>
<text text-anchor="middle" x="123" y="-159.5" font-family="Helvetica" font-size="10.00">security</text>
</g>
<!-- dir_f5ab083958794ec7315e2b961124b3af -->
<g id="node5" class="node">
<title>dir_f5ab083958794ec7315e2b961124b3af</title>
<g id="a_node5"><a xlink:href="dir_f5ab083958794ec7315e2b961124b3af.html" target="_top" xlink:title="include">
<polygon fill="#a2b4d6" stroke="#404040" points="113,-108 59,-108 59,-72 113,-72 113,-108"/>
<text text-anchor="middle" x="86" y="-87.5" font-family="Helvetica" font-size="10.00">include</text>
</a>
</g>
</g>
<!-- dir_b31d54d5631803016a26f28213a41162 -->
<g id="node7" class="node">
<title>dir_b31d54d5631803016a26f28213a41162</title>
<g id="a_node7"><a xlink:href="dir_b31d54d5631803016a26f28213a41162.html" target="_top" xlink:title="interface">
<polygon fill="none" stroke="red" points="275.5,-36 220.5,-36 220.5,0 275.5,0 275.5,-36"/>
<text text-anchor="middle" x="248" y="-15.5" font-family="Helvetica" font-size="10.00">interface</text>
</a>
</g>
</g>
<!-- dir_f5ab083958794ec7315e2b961124b3af&#45;&gt;dir_b31d54d5631803016a26f28213a41162 -->
<g id="edge1" class="edge">
<title>dir_f5ab083958794ec7315e2b961124b3af&#45;&gt;dir_b31d54d5631803016a26f28213a41162</title>
<path fill="none" stroke="black" d="M99.02,-71.72C104.08,-66.01 110.28,-60.08 117,-56 145.74,-38.54 183.02,-29.05 210.45,-24.08"/>
<polygon fill="black" stroke="black" points="211.17,-27.51 220.44,-22.38 210,-20.6 211.17,-27.51"/>
<g id="a_edge1&#45;headlabel"><a xlink:href="dir_000030_000034.html" target="_top" xlink:title="4">
<text text-anchor="middle" x="208.1" y="-28.41" font-family="Helvetica" font-size="10.00">4</text>
</a>
</g>
</g>
<!-- dir_1aacc3a99dadc0b8818ecdf033c96ef3 -->
<g id="node6" class="node">
<title>dir_1aacc3a99dadc0b8818ecdf033c96ef3</title>
<g id="a_node6"><a xlink:href="dir_1aacc3a99dadc0b8818ecdf033c96ef3.html" target="_top" xlink:title="src">
<polygon fill="#a2b4d6" stroke="#404040" points="78,-180 24,-180 24,-144 78,-144 78,-180"/>
<text text-anchor="middle" x="51" y="-159.5" font-family="Helvetica" font-size="10.00">src</text>
</a>
</g>
</g>
<!-- dir_1aacc3a99dadc0b8818ecdf033c96ef3&#45;&gt;dir_6972051101bc5f8d68d31d49f06d7aaf -->
<g id="edge3" class="edge">
<title>dir_1aacc3a99dadc0b8818ecdf033c96ef3&#45;&gt;dir_6972051101bc5f8d68d31d49f06d7aaf</title>
<path fill="none" stroke="black" d="M78.23,-148.1C103.13,-136.28 138.45,-119.49 156.82,-110.49"/>
<polygon fill="black" stroke="black" points="158.61,-113.52 166,-105.92 155.48,-107.25 158.61,-113.52"/>
<g id="a_edge3&#45;headlabel"><a xlink:href="dir_000075_000080.html" target="_top" xlink:title="2">
<text text-anchor="middle" x="156.65" y="-115.16" font-family="Helvetica" font-size="10.00">2</text>
</a>
</g>
</g>
<!-- dir_1aacc3a99dadc0b8818ecdf033c96ef3&#45;&gt;dir_56126a1d848d4a1832817232e79a5a18 -->
<g id="edge2" class="edge">
<title>dir_1aacc3a99dadc0b8818ecdf033c96ef3&#45;&gt;dir_56126a1d848d4a1832817232e79a5a18</title>
<path fill="none" stroke="black" d="M78.29,-147.45C81.2,-146.2 84.14,-145.03 87,-144 145.4,-123.03 165.05,-127.08 228.14,-108.07"/>
<polygon fill="black" stroke="black" points="229.25,-111.38 237.77,-105.09 227.19,-104.7 229.25,-111.38"/>
<g id="a_edge2&#45;headlabel"><a xlink:href="dir_000075_000006.html" target="_top" xlink:title="3">
<text text-anchor="middle" x="226.66" y="-112.66" font-family="Helvetica" font-size="10.00">3</text>
</a>
</g>
</g>
<!-- dir_1aacc3a99dadc0b8818ecdf033c96ef3&#45;&gt;dir_f132f3c082319ace6827058f7d1d886d -->
<g id="edge5" class="edge">
<title>dir_1aacc3a99dadc0b8818ecdf033c96ef3&#45;&gt;dir_f132f3c082319ace6827058f7d1d886d</title>
<path fill="none" stroke="black" d="M78.19,-147.17C81.12,-145.98 84.09,-144.89 87,-144 183.74,-114.33 217.21,-137.12 318.15,-107.74"/>
<polygon fill="black" stroke="black" points="319.24,-111.07 327.81,-104.83 317.22,-104.36 319.24,-111.07"/>
<g id="a_edge5&#45;headlabel"><a xlink:href="dir_000075_000042.html" target="_top" xlink:title="1">
<text text-anchor="middle" x="316.62" y="-112.32" font-family="Helvetica" font-size="10.00">1</text>
</a>
</g>
</g>
<!-- dir_1aacc3a99dadc0b8818ecdf033c96ef3&#45;&gt;dir_f5ab083958794ec7315e2b961124b3af -->
<g id="edge6" class="edge">
<title>dir_1aacc3a99dadc0b8818ecdf033c96ef3&#45;&gt;dir_f5ab083958794ec7315e2b961124b3af</title>
<path fill="none" stroke="black" d="M59.65,-143.7C63.64,-135.73 68.45,-126.1 72.87,-117.26"/>
<polygon fill="black" stroke="black" points="76.11,-118.61 77.45,-108.1 69.85,-115.48 76.11,-118.61"/>
<g id="a_edge6&#45;headlabel"><a xlink:href="dir_000075_000030.html" target="_top" xlink:title="5">
<text text-anchor="middle" x="77.04" y="-120.6" font-family="Helvetica" font-size="10.00">5</text>
</a>
</g>
</g>
<!-- dir_1aacc3a99dadc0b8818ecdf033c96ef3&#45;&gt;dir_b31d54d5631803016a26f28213a41162 -->
<g id="edge4" class="edge">
<title>dir_1aacc3a99dadc0b8818ecdf033c96ef3&#45;&gt;dir_b31d54d5631803016a26f28213a41162</title>
<path fill="none" stroke="black" d="M78.16,-147.06C81.09,-145.89 84.08,-144.84 87,-144 153.03,-125.09 348.35,-159.32 394,-108 409.36,-90.73 408.19,-74.24 394,-56 380.86,-39.12 324.88,-28.7 286.18,-23.38"/>
<polygon fill="black" stroke="black" points="286.15,-19.85 275.78,-22.02 285.24,-26.79 286.15,-19.85"/>
<g id="a_edge4&#45;headlabel"><a xlink:href="dir_000075_000034.html" target="_top" xlink:title="2">
<text text-anchor="middle" x="290.08" y="-15" font-family="Helvetica" font-size="10.00">2</text>
</a>
</g>
</g>
</g>
</svg>
