<?xml version="1.0" encoding="UTF-8" standalone="no"?>
<!DOCTYPE svg PUBLIC "-//W3C//DTD SVG 1.1//EN"
 "http://www.w3.org/Graphics/SVG/1.1/DTD/svg11.dtd">
<!-- Generated by graphviz version 2.44.0 (0)
 -->
<!-- Title: /home/ec2&#45;user/workspace/vsomeip/implementation/service_discovery/include Pages: 1 -->
<svg width="304pt" height="151pt"
 viewBox="0.00 0.00 304.00 151.00" xmlns="http://www.w3.org/2000/svg" xmlns:xlink="http://www.w3.org/1999/xlink">
<g id="graph0" class="graph" transform="scale(1 1) rotate(0) translate(4 147)">
<title>/home/ec2&#45;user/workspace/vsomeip/implementation/service_discovery/include</title>
<polygon fill="white" stroke="transparent" points="-4,4 -4,-147 300,-147 300,4 -4,4"/>
<g id="clust1" class="cluster">
<title>clusterdir_061a1b0a0a40a7427f2461ed2f520013</title>
<g id="a_clust1"><a xlink:href="dir_061a1b0a0a40a7427f2461ed2f520013.html" target="_top" xlink:title="service_discovery">
<polygon fill="#edf0f7" stroke="#7f7f7f" stroke-dasharray="5,2" points="104,-64 104,-135 200,-135 200,-64 104,-64"/>
<text text-anchor="middle" x="152" y="-123" font-family="Helvetica" font-size="10.00">service_discovery</text>
</a>
</g>
</g>
<!-- dir_e536cd6c38eff7239838b1bcd538af89 -->
<g id="node1" class="node">
<title>dir_e536cd6c38eff7239838b1bcd538af89</title>
<g id="a_node1"><a xlink:href="dir_e536cd6c38eff7239838b1bcd538af89.html" target="_top" xlink:title="include">
<polygon fill="#edf0f7" stroke="#404040" stroke-width="2" points="179,-108 125,-108 125,-72 179,-72 179,-108"/>
<text text-anchor="middle" x="152" y="-87.5" font-family="Helvetica" font-size="10.00">include</text>
</a>
</g>
</g>
<!-- dir_3ce07147fcbac31fc4d5892a851f6627 -->
<g id="node2" class="node">
<title>dir_3ce07147fcbac31fc4d5892a851f6627</title>
<g id="a_node2"><a xlink:href="dir_3ce07147fcbac31fc4d5892a851f6627.html" target="_top" xlink:title="message">
<polygon fill="none" stroke="red" stroke-dasharray="5,2" points="56,-36 0,-36 0,0 56,0 56,-36"/>
<text text-anchor="middle" x="28" y="-15.5" font-family="Helvetica" font-size="10.00">message</text>
</a>
</g>
</g>
<!-- dir_e536cd6c38eff7239838b1bcd538af89&#45;&gt;dir_3ce07147fcbac31fc4d5892a851f6627 -->
<g id="edge1" class="edge">
<title>dir_e536cd6c38eff7239838b1bcd538af89&#45;&gt;dir_3ce07147fcbac31fc4d5892a851f6627</title>
<path fill="none" stroke="black" d="M124.79,-73.64C107.19,-63.7 84.05,-50.64 64.82,-39.78"/>
<polygon fill="black" stroke="black" points="66.44,-36.68 56.01,-34.81 63,-42.77 66.44,-36.68"/>
<g id="a_edge1&#45;headlabel"><a xlink:href="dir_000031_000041.html" target="_top" xlink:title="2">
<text text-anchor="middle" x="70.96" y="-33.47" font-family="Helvetica" font-size="10.00">2</text>
</a>
</g>
</g>
<!-- dir_56126a1d848d4a1832817232e79a5a18 -->
<g id="node3" class="node">
<title>dir_56126a1d848d4a1832817232e79a5a18</title>
<g id="a_node3"><a xlink:href="dir_56126a1d848d4a1832817232e79a5a18.html" target="_top" xlink:title="configuration">
<polygon fill="none" stroke="red" stroke-dasharray="5,2" points="146,-36 74,-36 74,0 146,0 146,-36"/>
<text text-anchor="middle" x="110" y="-15.5" font-family="Helvetica" font-size="10.00">configuration</text>
</a>
</g>
</g>
<!-- dir_e536cd6c38eff7239838b1bcd538af89&#45;&gt;dir_56126a1d848d4a1832817232e79a5a18 -->
<g id="edge2" class="edge">
<title>dir_e536cd6c38eff7239838b1bcd538af89&#45;&gt;dir_56126a1d848d4a1832817232e79a5a18</title>
<path fill="none" stroke="black" d="M141.62,-71.7C136.74,-63.56 130.81,-53.69 125.42,-44.7"/>
<polygon fill="black" stroke="black" points="128.41,-42.88 120.26,-36.1 122.41,-46.48 128.41,-42.88"/>
<g id="a_edge2&#45;headlabel"><a xlink:href="dir_000031_000006.html" target="_top" xlink:title="1">
<text text-anchor="middle" x="132.69" y="-42" font-family="Helvetica" font-size="10.00">1</text>
</a>
</g>
</g>
<!-- dir_9c7b9d609ec855ab7fbf064b0ccf8e4e -->
<g id="node4" class="node">
<title>dir_9c7b9d609ec855ab7fbf064b0ccf8e4e</title>
<g id="a_node4"><a xlink:href="dir_9c7b9d609ec855ab7fbf064b0ccf8e4e.html" target="_top" xlink:title="endpoints">
<polygon fill="none" stroke="red" stroke-dasharray="5,2" points="223.5,-36 164.5,-36 164.5,0 223.5,0 223.5,-36"/>
<text text-anchor="middle" x="194" y="-15.5" font-family="Helvetica" font-size="10.00">endpoints</text>
</a>
</g>
</g>
<!-- dir_e536cd6c38eff7239838b1bcd538af89&#45;&gt;dir_9c7b9d609ec855ab7fbf064b0ccf8e4e -->
<g id="edge3" class="edge">
<title>dir_e536cd6c38eff7239838b1bcd538af89&#45;&gt;dir_9c7b9d609ec855ab7fbf064b0ccf8e4e</title>
<path fill="none" stroke="black" d="M162.38,-71.7C167.26,-63.56 173.19,-53.69 178.58,-44.7"/>
<polygon fill="black" stroke="black" points="181.59,-46.48 183.74,-36.1 175.59,-42.88 181.59,-46.48"/>
<g id="a_edge3&#45;headlabel"><a xlink:href="dir_000031_000015.html" target="_top" xlink:title="4">
<text text-anchor="middle" x="182.18" y="-48.52" font-family="Helvetica" font-size="10.00">4</text>
</a>
</g>
</g>
<!-- dir_cf72682d9b1c0bc1c562a1f19b8defa0 -->
<g id="node5" class="node">
<title>dir_cf72682d9b1c0bc1c562a1f19b8defa0</title>
<g id="a_node5"><a xlink:href="dir_cf72682d9b1c0bc1c562a1f19b8defa0.html" target="_top" xlink:title="routing">
<polygon fill="none" stroke="red" stroke-dasharray="5,2" points="296,-36 242,-36 242,0 296,0 296,-36"/>
<text text-anchor="middle" x="269" y="-15.5" font-family="Helvetica" font-size="10.00">routing</text>
</a>
</g>
</g>
<!-- dir_e536cd6c38eff7239838b1bcd538af89&#45;&gt;dir_cf72682d9b1c0bc1c562a1f19b8defa0 -->
<g id="edge4" class="edge">
<title>dir_e536cd6c38eff7239838b1bcd538af89&#45;&gt;dir_cf72682d9b1c0bc1c562a1f19b8defa0</title>
<path fill="none" stroke="black" d="M179.14,-72.76C195.12,-63.2 215.53,-50.99 232.86,-40.62"/>
<polygon fill="black" stroke="black" points="234.82,-43.53 241.61,-35.39 231.23,-37.52 234.82,-43.53"/>
<g id="a_edge4&#45;headlabel"><a xlink:href="dir_000031_000059.html" target="_top" xlink:title="5">
<text text-anchor="middle" x="233.19" y="-45.31" font-family="Helvetica" font-size="10.00">5</text>
</a>
</g>
</g>
</g>
</svg>
