<?xml version="1.0" encoding="UTF-8" standalone="no"?>
<!DOCTYPE svg PUBLIC "-//W3C//DTD SVG 1.1//EN"
 "http://www.w3.org/Graphics/SVG/1.1/DTD/svg11.dtd">
<!-- Generated by graphviz version 2.44.0 (0)
 -->
<!-- Title: /home/ec2&#45;user/workspace/vsomeip/implementation/e2e_protection/include Pages: 1 -->
<svg width="400pt" height="183pt"
 viewBox="0.00 0.00 399.50 183.00" xmlns="http://www.w3.org/2000/svg" xmlns:xlink="http://www.w3.org/1999/xlink">
<g id="graph0" class="graph" transform="scale(1 1) rotate(0) translate(4 179)">
<title>/home/ec2&#45;user/workspace/vsomeip/implementation/e2e_protection/include</title>
<polygon fill="white" stroke="transparent" points="-4,4 -4,-179 395.5,-179 395.5,4 -4,4"/>
<g id="clust1" class="cluster">
<title>clusterdir_476f23a9d8d07b93b910130c774b1932</title>
<g id="a_clust1"><a xlink:href="dir_476f23a9d8d07b93b910130c774b1932.html" target="_top" xlink:title="e2e_protection">
<polygon fill="#edf0f7" stroke="#7f7f7f" stroke-dasharray="5,2" points="8,-8 8,-167 238,-167 238,-8 8,-8"/>
<text text-anchor="middle" x="123" y="-155" font-family="Helvetica" font-size="10.00">e2e_protection</text>
</a>
</g>
</g>
<g id="clust2" class="cluster">
<title>clusterdir_261f67b82c2cb416f656d185a1fa5017</title>
<g id="a_clust2"><a xlink:href="dir_261f67b82c2cb416f656d185a1fa5017.html" target="_top">
<polygon fill="#edf0f7" stroke="#404040" stroke-width="2" points="16,-16 16,-140 230,-140 230,-16 16,-16"/>
</a>
</g>
</g>
<!-- dir_261f67b82c2cb416f656d185a1fa5017 -->
<g id="node1" class="node">
<title>dir_261f67b82c2cb416f656d185a1fa5017</title>
<text text-anchor="middle" x="195" y="-111.5" font-family="Helvetica" font-size="10.00">include</text>
</g>
<!-- dir_8c17fa292750306381d606ba00a14046 -->
<g id="node2" class="node">
<title>dir_8c17fa292750306381d606ba00a14046</title>
<g id="a_node2"><a xlink:href="dir_8c17fa292750306381d606ba00a14046.html" target="_top" xlink:title="buffer">
<polygon fill="#a2b4d6" stroke="#404040" points="78,-60 24,-60 24,-24 78,-24 78,-60"/>
<text text-anchor="middle" x="51" y="-39.5" font-family="Helvetica" font-size="10.00">buffer</text>
</a>
</g>
</g>
<!-- dir_fd20ba390aaf7f3a760d7509c6009741 -->
<g id="node3" class="node">
<title>dir_fd20ba390aaf7f3a760d7509c6009741</title>
<g id="a_node3"><a xlink:href="dir_fd20ba390aaf7f3a760d7509c6009741.html" target="_top" xlink:title="crc">
<polygon fill="#a2b4d6" stroke="#404040" points="78,-132 24,-132 24,-96 78,-96 78,-132"/>
<text text-anchor="middle" x="51" y="-111.5" font-family="Helvetica" font-size="10.00">crc</text>
</a>
</g>
</g>
<!-- dir_fd20ba390aaf7f3a760d7509c6009741&#45;&gt;dir_8c17fa292750306381d606ba00a14046 -->
<g id="edge1" class="edge">
<title>dir_fd20ba390aaf7f3a760d7509c6009741&#45;&gt;dir_8c17fa292750306381d606ba00a14046</title>
<path fill="none" stroke="black" d="M51,-95.7C51,-87.98 51,-78.71 51,-70.11"/>
<polygon fill="black" stroke="black" points="54.5,-70.1 51,-60.1 47.5,-70.1 54.5,-70.1"/>
<g id="a_edge1&#45;headlabel"><a xlink:href="dir_000007_000002.html" target="_top" xlink:title="1">
<text text-anchor="middle" x="57.34" y="-71.2" font-family="Helvetica" font-size="10.00">1</text>
</a>
</g>
</g>
<!-- dir_2c10f7dfbcf013b1b190c8d753008e6d -->
<g id="node4" class="node">
<title>dir_2c10f7dfbcf013b1b190c8d753008e6d</title>
<g id="a_node4"><a xlink:href="dir_2c10f7dfbcf013b1b190c8d753008e6d.html" target="_top" xlink:title="e2e">
<polygon fill="#a2b4d6" stroke="#404040" points="150,-132 96,-132 96,-96 150,-96 150,-132"/>
<text text-anchor="middle" x="123" y="-111.5" font-family="Helvetica" font-size="10.00">e2e</text>
</a>
</g>
</g>
<!-- dir_2c10f7dfbcf013b1b190c8d753008e6d&#45;&gt;dir_8c17fa292750306381d606ba00a14046 -->
<g id="edge2" class="edge">
<title>dir_2c10f7dfbcf013b1b190c8d753008e6d&#45;&gt;dir_8c17fa292750306381d606ba00a14046</title>
<path fill="none" stroke="black" d="M105.2,-95.7C96.4,-87.14 85.62,-76.66 76,-67.3"/>
<polygon fill="black" stroke="black" points="78.2,-64.57 68.59,-60.1 73.32,-69.58 78.2,-64.57"/>
<g id="a_edge2&#45;headlabel"><a xlink:href="dir_000010_000002.html" target="_top" xlink:title="8">
<text text-anchor="middle" x="82.76" y="-62.54" font-family="Helvetica" font-size="10.00">8</text>
</a>
</g>
</g>
<!-- dir_a17baa2740823ba34f3b0e33cb8a14f6 -->
<g id="node5" class="node">
<title>dir_a17baa2740823ba34f3b0e33cb8a14f6</title>
<g id="a_node5"><a xlink:href="dir_a17baa2740823ba34f3b0e33cb8a14f6.html" target="_top" xlink:title="e2exf">
<polygon fill="#a2b4d6" stroke="#404040" points="150,-60 96,-60 96,-24 150,-24 150,-60"/>
<text text-anchor="middle" x="123" y="-39.5" font-family="Helvetica" font-size="10.00">e2exf</text>
</a>
</g>
</g>
<!-- dir_2c10f7dfbcf013b1b190c8d753008e6d&#45;&gt;dir_a17baa2740823ba34f3b0e33cb8a14f6 -->
<g id="edge3" class="edge">
<title>dir_2c10f7dfbcf013b1b190c8d753008e6d&#45;&gt;dir_a17baa2740823ba34f3b0e33cb8a14f6</title>
<path fill="none" stroke="black" d="M117.08,-95.7C116.29,-87.98 116.06,-78.71 116.4,-70.11"/>
<polygon fill="black" stroke="black" points="119.9,-70.32 117.1,-60.1 112.92,-69.84 119.9,-70.32"/>
<g id="a_edge3&#45;headlabel"><a xlink:href="dir_000010_000013.html" target="_top" xlink:title="1">
<text text-anchor="middle" x="122.48" y="-71.61" font-family="Helvetica" font-size="10.00">1</text>
</a>
</g>
</g>
<!-- dir_56126a1d848d4a1832817232e79a5a18 -->
<g id="node6" class="node">
<title>dir_56126a1d848d4a1832817232e79a5a18</title>
<g id="a_node6"><a xlink:href="dir_56126a1d848d4a1832817232e79a5a18.html" target="_top" xlink:title="configuration">
<polygon fill="none" stroke="red" stroke-dasharray="5,2" points="318,-60 246,-60 246,-24 318,-24 318,-60"/>
<text text-anchor="middle" x="282" y="-39.5" font-family="Helvetica" font-size="10.00">configuration</text>
</a>
</g>
</g>
<!-- dir_2c10f7dfbcf013b1b190c8d753008e6d&#45;&gt;dir_56126a1d848d4a1832817232e79a5a18 -->
<g id="edge4" class="edge">
<title>dir_2c10f7dfbcf013b1b190c8d753008e6d&#45;&gt;dir_56126a1d848d4a1832817232e79a5a18</title>
<path fill="none" stroke="black" d="M150.08,-100.09C153.08,-98.69 156.1,-97.31 159,-96 184.52,-84.48 213.24,-72.07 236.51,-62.16"/>
<polygon fill="black" stroke="black" points="237.96,-65.35 245.8,-58.21 235.22,-58.9 237.96,-65.35"/>
<g id="a_edge4&#45;headlabel"><a xlink:href="dir_000010_000006.html" target="_top" xlink:title="1">
<text text-anchor="middle" x="235.77" y="-66.87" font-family="Helvetica" font-size="10.00">1</text>
</a>
</g>
</g>
<!-- dir_b31d54d5631803016a26f28213a41162 -->
<g id="node7" class="node">
<title>dir_b31d54d5631803016a26f28213a41162</title>
<g id="a_node7"><a xlink:href="dir_b31d54d5631803016a26f28213a41162.html" target="_top" xlink:title="interface">
<polygon fill="none" stroke="red" points="391.5,-60 336.5,-60 336.5,-24 391.5,-24 391.5,-60"/>
<text text-anchor="middle" x="364" y="-39.5" font-family="Helvetica" font-size="10.00">interface</text>
</a>
</g>
</g>
<!-- dir_2c10f7dfbcf013b1b190c8d753008e6d&#45;&gt;dir_b31d54d5631803016a26f28213a41162 -->
<g id="edge5" class="edge">
<title>dir_2c10f7dfbcf013b1b190c8d753008e6d&#45;&gt;dir_b31d54d5631803016a26f28213a41162</title>
<path fill="none" stroke="black" d="M150.25,-99.34C153.17,-98.12 156.12,-96.97 159,-96 231.34,-71.53 254.54,-84.09 327,-60 327.1,-59.97 327.19,-59.94 327.29,-59.9"/>
<polygon fill="black" stroke="black" points="328.26,-63.28 336.38,-56.48 325.79,-56.73 328.26,-63.28"/>
<g id="a_edge5&#45;headlabel"><a xlink:href="dir_000010_000034.html" target="_top" xlink:title="2">
<text text-anchor="middle" x="325.89" y="-64.7" font-family="Helvetica" font-size="10.00">2</text>
</a>
</g>
</g>
<!-- dir_a17baa2740823ba34f3b0e33cb8a14f6&#45;&gt;dir_2c10f7dfbcf013b1b190c8d753008e6d -->
<g id="edge6" class="edge">
<title>dir_a17baa2740823ba34f3b0e33cb8a14f6&#45;&gt;dir_2c10f7dfbcf013b1b190c8d753008e6d</title>
<path fill="none" stroke="black" d="M128.9,-60.1C129.7,-67.79 129.94,-77.05 129.6,-85.67"/>
<polygon fill="black" stroke="black" points="126.11,-85.48 128.92,-95.7 133.09,-85.96 126.11,-85.48"/>
<g id="a_edge6&#45;headlabel"><a xlink:href="dir_000013_000010.html" target="_top" xlink:title="2">
<text text-anchor="middle" x="123.52" y="-79.2" font-family="Helvetica" font-size="10.00">2</text>
</a>
</g>
</g>
</g>
</svg>
