<?xml version="1.0" encoding="UTF-8" standalone="no"?>
<!DOCTYPE svg PUBLIC "-//W3C//DTD SVG 1.1//EN"
 "http://www.w3.org/Graphics/SVG/1.1/DTD/svg11.dtd">
<!-- Generated by graphviz version 2.44.0 (0)
 -->
<!-- Title: /home/ec2&#45;user/workspace/vsomeip/implementation/compat Pages: 1 -->
<svg width="244pt" height="247pt"
 viewBox="0.00 0.00 243.50 247.00" xmlns="http://www.w3.org/2000/svg" xmlns:xlink="http://www.w3.org/1999/xlink">
<g id="graph0" class="graph" transform="scale(1 1) rotate(0) translate(4 243)">
<title>/home/ec2&#45;user/workspace/vsomeip/implementation/compat</title>
<polygon fill="white" stroke="transparent" points="-4,4 -4,-243 239.5,-243 239.5,4 -4,4"/>
<g id="clust1" class="cluster">
<title>clusterdir_ed7c47a03c091bb19436c59342bc9555</title>
<g id="a_clust1"><a xlink:href="dir_ed7c47a03c091bb19436c59342bc9555.html" target="_top" xlink:title="implementation">
<polygon fill="#edf0f7" stroke="#404040" stroke-dasharray="5,2" points="8,-8 8,-231 170,-231 170,-8 8,-8"/>
<text text-anchor="middle" x="89" y="-219" font-family="Helvetica" font-size="10.00">implementation</text>
</a>
</g>
</g>
<g id="clust2" class="cluster">
<title>clusterdir_2c8ea7a53eee326c363d0456e064cb96</title>
<g id="a_clust2"><a xlink:href="dir_2c8ea7a53eee326c363d0456e064cb96.html" target="_top">
<polygon fill="#edf0f7" stroke="#404040" stroke-width="2" points="20,-80 20,-204 162,-204 162,-80 20,-80"/>
</a>
</g>
</g>
<!-- dir_3ce07147fcbac31fc4d5892a851f6627 -->
<g id="node1" class="node">
<title>dir_3ce07147fcbac31fc4d5892a851f6627</title>
<g id="a_node1"><a xlink:href="dir_3ce07147fcbac31fc4d5892a851f6627.html" target="_top" xlink:title="message">
<polygon fill="#a2b4d6" stroke="red" points="162,-52 106,-52 106,-16 162,-16 162,-52"/>
<text text-anchor="middle" x="134" y="-31.5" font-family="Helvetica" font-size="10.00">message</text>
</a>
</g>
</g>
<!-- dir_56126a1d848d4a1832817232e79a5a18 -->
<g id="node2" class="node">
<title>dir_56126a1d848d4a1832817232e79a5a18</title>
<g id="a_node2"><a xlink:href="dir_56126a1d848d4a1832817232e79a5a18.html" target="_top" xlink:title="configuration">
<polygon fill="#a2b4d6" stroke="red" points="88,-52 16,-52 16,-16 88,-16 88,-52"/>
<text text-anchor="middle" x="52" y="-31.5" font-family="Helvetica" font-size="10.00">configuration</text>
</a>
</g>
</g>
<!-- dir_2c8ea7a53eee326c363d0456e064cb96 -->
<g id="node3" class="node">
<title>dir_2c8ea7a53eee326c363d0456e064cb96</title>
<text text-anchor="middle" x="127" y="-175.5" font-family="Helvetica" font-size="10.00">compat</text>
</g>
<!-- dir_25d20213550c54e1074ad9cd78db84af -->
<g id="node4" class="node">
<title>dir_25d20213550c54e1074ad9cd78db84af</title>
<g id="a_node4"><a xlink:href="dir_25d20213550c54e1074ad9cd78db84af.html" target="_top" xlink:title="message">
<polygon fill="#a2b4d6" stroke="#404040" points="141,-124 85,-124 85,-88 141,-88 141,-124"/>
<text text-anchor="middle" x="113" y="-103.5" font-family="Helvetica" font-size="10.00">message</text>
</a>
</g>
</g>
<!-- dir_25d20213550c54e1074ad9cd78db84af&#45;&gt;dir_3ce07147fcbac31fc4d5892a851f6627 -->
<g id="edge2" class="edge">
<title>dir_25d20213550c54e1074ad9cd78db84af&#45;&gt;dir_3ce07147fcbac31fc4d5892a851f6627</title>
<path fill="none" stroke="black" d="M118.19,-87.7C120.53,-79.9 123.35,-70.51 125.95,-61.83"/>
<polygon fill="black" stroke="black" points="129.35,-62.69 128.87,-52.1 122.64,-60.68 129.35,-62.69"/>
<g id="a_edge2&#45;headlabel"><a xlink:href="dir_000040_000041.html" target="_top" xlink:title="2">
<text text-anchor="middle" x="131.03" y="-64.45" font-family="Helvetica" font-size="10.00">2</text>
</a>
</g>
</g>
<!-- dir_25d20213550c54e1074ad9cd78db84af&#45;&gt;dir_56126a1d848d4a1832817232e79a5a18 -->
<g id="edge3" class="edge">
<title>dir_25d20213550c54e1074ad9cd78db84af&#45;&gt;dir_56126a1d848d4a1832817232e79a5a18</title>
<path fill="none" stroke="black" d="M97.92,-87.7C90.61,-79.3 81.69,-69.07 73.66,-59.86"/>
<polygon fill="black" stroke="black" points="76.11,-57.34 66.91,-52.1 70.84,-61.94 76.11,-57.34"/>
<g id="a_edge3&#45;headlabel"><a xlink:href="dir_000040_000006.html" target="_top" xlink:title="2">
<text text-anchor="middle" x="80.62" y="-55.69" font-family="Helvetica" font-size="10.00">2</text>
</a>
</g>
</g>
<!-- dir_b31d54d5631803016a26f28213a41162 -->
<g id="node6" class="node">
<title>dir_b31d54d5631803016a26f28213a41162</title>
<g id="a_node6"><a xlink:href="dir_b31d54d5631803016a26f28213a41162.html" target="_top" xlink:title="interface">
<polygon fill="none" stroke="red" points="235.5,-52 180.5,-52 180.5,-16 235.5,-16 235.5,-52"/>
<text text-anchor="middle" x="208" y="-31.5" font-family="Helvetica" font-size="10.00">interface</text>
</a>
</g>
</g>
<!-- dir_25d20213550c54e1074ad9cd78db84af&#45;&gt;dir_b31d54d5631803016a26f28213a41162 -->
<g id="edge1" class="edge">
<title>dir_25d20213550c54e1074ad9cd78db84af&#45;&gt;dir_b31d54d5631803016a26f28213a41162</title>
<path fill="none" stroke="black" d="M136.48,-87.7C148.56,-78.8 163.45,-67.82 176.52,-58.2"/>
<polygon fill="black" stroke="black" points="178.81,-60.85 184.79,-52.1 174.66,-55.22 178.81,-60.85"/>
<g id="a_edge1&#45;headlabel"><a xlink:href="dir_000040_000034.html" target="_top" xlink:title="6">
<text text-anchor="middle" x="177.6" y="-62.77" font-family="Helvetica" font-size="10.00">6</text>
</a>
</g>
</g>
<!-- dir_38888aae6fdef4a4dee3fcee8dbbcc7c -->
<g id="node5" class="node">
<title>dir_38888aae6fdef4a4dee3fcee8dbbcc7c</title>
<g id="a_node5"><a xlink:href="dir_38888aae6fdef4a4dee3fcee8dbbcc7c.html" target="_top" xlink:title="runtime">
<polygon fill="#a2b4d6" stroke="#404040" points="82,-196 28,-196 28,-160 82,-160 82,-196"/>
<text text-anchor="middle" x="55" y="-175.5" font-family="Helvetica" font-size="10.00">runtime</text>
</a>
</g>
</g>
<!-- dir_38888aae6fdef4a4dee3fcee8dbbcc7c&#45;&gt;dir_56126a1d848d4a1832817232e79a5a18 -->
<g id="edge5" class="edge">
<title>dir_38888aae6fdef4a4dee3fcee8dbbcc7c&#45;&gt;dir_56126a1d848d4a1832817232e79a5a18</title>
<path fill="none" stroke="black" d="M54.64,-159.87C54.13,-135.67 53.19,-91.21 52.58,-62.39"/>
<polygon fill="black" stroke="black" points="56.07,-62.11 52.36,-52.19 49.08,-62.26 56.07,-62.11"/>
<g id="a_edge5&#45;headlabel"><a xlink:href="dir_000060_000006.html" target="_top" xlink:title="1">
<text text-anchor="middle" x="58.99" y="-63.15" font-family="Helvetica" font-size="10.00">1</text>
</a>
</g>
</g>
<!-- dir_38888aae6fdef4a4dee3fcee8dbbcc7c&#45;&gt;dir_25d20213550c54e1074ad9cd78db84af -->
<g id="edge6" class="edge">
<title>dir_38888aae6fdef4a4dee3fcee8dbbcc7c&#45;&gt;dir_25d20213550c54e1074ad9cd78db84af</title>
<path fill="none" stroke="black" d="M69.34,-159.7C76.29,-151.3 84.77,-141.07 92.4,-131.86"/>
<polygon fill="black" stroke="black" points="95.14,-134.04 98.83,-124.1 89.75,-129.57 95.14,-134.04"/>
<g id="a_edge6&#45;headlabel"><a xlink:href="dir_000060_000040.html" target="_top" xlink:title="4">
<text text-anchor="middle" x="95.04" y="-136.12" font-family="Helvetica" font-size="10.00">4</text>
</a>
</g>
</g>
<!-- dir_38888aae6fdef4a4dee3fcee8dbbcc7c&#45;&gt;dir_b31d54d5631803016a26f28213a41162 -->
<g id="edge4" class="edge">
<title>dir_38888aae6fdef4a4dee3fcee8dbbcc7c&#45;&gt;dir_b31d54d5631803016a26f28213a41162</title>
<path fill="none" stroke="black" d="M82.23,-163.66C106.31,-151.53 139.23,-134.05 150,-124 169.26,-106.02 185.09,-80.39 195.31,-61.25"/>
<polygon fill="black" stroke="black" points="198.52,-62.66 200.01,-52.17 192.31,-59.45 198.52,-62.66"/>
<g id="a_edge4&#45;headlabel"><a xlink:href="dir_000060_000034.html" target="_top" xlink:title="6">
<text text-anchor="middle" x="199.39" y="-64.66" font-family="Helvetica" font-size="10.00">6</text>
</a>
</g>
</g>
</g>
</svg>
