<?xml version="1.0" encoding="UTF-8" standalone="no"?>
<!DOCTYPE svg PUBLIC "-//W3C//DTD SVG 1.1//EN"
 "http://www.w3.org/Graphics/SVG/1.1/DTD/svg11.dtd">
<!-- Generated by graphviz version 2.44.0 (0)
 -->
<!-- Title: /home/ec2&#45;user/workspace/vsomeip/implementation/compat/message/src Pages: 1 -->
<svg width="316pt" height="167pt"
 viewBox="0.00 0.00 315.50 167.00" xmlns="http://www.w3.org/2000/svg" xmlns:xlink="http://www.w3.org/1999/xlink">
<g id="graph0" class="graph" transform="scale(1 1) rotate(0) translate(4 163)">
<title>/home/ec2&#45;user/workspace/vsomeip/implementation/compat/message/src</title>
<polygon fill="white" stroke="transparent" points="-4,4 -4,-163 311.5,-163 311.5,4 -4,4"/>
<g id="clust1" class="cluster">
<title>clusterdir_25d20213550c54e1074ad9cd78db84af</title>
<g id="a_clust1"><a xlink:href="dir_25d20213550c54e1074ad9cd78db84af.html" target="_top" xlink:title="message">
<polygon fill="#edf0f7" stroke="#7f7f7f" stroke-dasharray="5,2" points="8,-8 8,-151 78,-151 78,-8 8,-8"/>
<text text-anchor="middle" x="43" y="-139" font-family="Helvetica" font-size="10.00">message</text>
</a>
</g>
</g>
<!-- dir_1e3e28526c45d59d0708447f2d8b0732 -->
<g id="node1" class="node">
<title>dir_1e3e28526c45d59d0708447f2d8b0732</title>
<g id="a_node1"><a xlink:href="dir_1e3e28526c45d59d0708447f2d8b0732.html" target="_top" xlink:title="include">
<polygon fill="#a2b4d6" stroke="#404040" points="70,-52 16,-52 16,-16 70,-16 70,-52"/>
<text text-anchor="middle" x="43" y="-31.5" font-family="Helvetica" font-size="10.00">include</text>
</a>
</g>
</g>
<!-- dir_8ed1fcc0951a626d632bb57b8cd116e3 -->
<g id="node2" class="node">
<title>dir_8ed1fcc0951a626d632bb57b8cd116e3</title>
<g id="a_node2"><a xlink:href="dir_8ed1fcc0951a626d632bb57b8cd116e3.html" target="_top" xlink:title="src">
<polygon fill="#edf0f7" stroke="#404040" stroke-width="2" points="70,-124 16,-124 16,-88 70,-88 70,-124"/>
<text text-anchor="middle" x="43" y="-103.5" font-family="Helvetica" font-size="10.00">src</text>
</a>
</g>
</g>
<!-- dir_8ed1fcc0951a626d632bb57b8cd116e3&#45;&gt;dir_1e3e28526c45d59d0708447f2d8b0732 -->
<g id="edge1" class="edge">
<title>dir_8ed1fcc0951a626d632bb57b8cd116e3&#45;&gt;dir_1e3e28526c45d59d0708447f2d8b0732</title>
<path fill="none" stroke="black" d="M43,-87.7C43,-79.98 43,-70.71 43,-62.11"/>
<polygon fill="black" stroke="black" points="46.5,-62.1 43,-52.1 39.5,-62.1 46.5,-62.1"/>
<g id="a_edge1&#45;headlabel"><a xlink:href="dir_000064_000019.html" target="_top" xlink:title="4">
<text text-anchor="middle" x="49.34" y="-63.2" font-family="Helvetica" font-size="10.00">4</text>
</a>
</g>
</g>
<!-- dir_3ce07147fcbac31fc4d5892a851f6627 -->
<g id="node3" class="node">
<title>dir_3ce07147fcbac31fc4d5892a851f6627</title>
<g id="a_node3"><a xlink:href="dir_3ce07147fcbac31fc4d5892a851f6627.html" target="_top" xlink:title="message">
<polygon fill="none" stroke="red" stroke-dasharray="5,2" points="144,-52 88,-52 88,-16 144,-16 144,-52"/>
<text text-anchor="middle" x="116" y="-31.5" font-family="Helvetica" font-size="10.00">message</text>
</a>
</g>
</g>
<!-- dir_8ed1fcc0951a626d632bb57b8cd116e3&#45;&gt;dir_3ce07147fcbac31fc4d5892a851f6627 -->
<g id="edge2" class="edge">
<title>dir_8ed1fcc0951a626d632bb57b8cd116e3&#45;&gt;dir_3ce07147fcbac31fc4d5892a851f6627</title>
<path fill="none" stroke="black" d="M61.04,-87.7C70.06,-79.05 81.12,-68.45 90.94,-59.03"/>
<polygon fill="black" stroke="black" points="93.37,-61.55 98.16,-52.1 88.52,-56.5 93.37,-61.55"/>
<g id="a_edge2&#45;headlabel"><a xlink:href="dir_000064_000041.html" target="_top" xlink:title="2">
<text text-anchor="middle" x="92.74" y="-63.59" font-family="Helvetica" font-size="10.00">2</text>
</a>
</g>
</g>
<!-- dir_56126a1d848d4a1832817232e79a5a18 -->
<g id="node4" class="node">
<title>dir_56126a1d848d4a1832817232e79a5a18</title>
<g id="a_node4"><a xlink:href="dir_56126a1d848d4a1832817232e79a5a18.html" target="_top" xlink:title="configuration">
<polygon fill="none" stroke="red" stroke-dasharray="5,2" points="234,-52 162,-52 162,-16 234,-16 234,-52"/>
<text text-anchor="middle" x="198" y="-31.5" font-family="Helvetica" font-size="10.00">configuration</text>
</a>
</g>
</g>
<!-- dir_8ed1fcc0951a626d632bb57b8cd116e3&#45;&gt;dir_56126a1d848d4a1832817232e79a5a18 -->
<g id="edge3" class="edge">
<title>dir_8ed1fcc0951a626d632bb57b8cd116e3&#45;&gt;dir_56126a1d848d4a1832817232e79a5a18</title>
<path fill="none" stroke="black" d="M70.35,-92.65C93.13,-82.36 126.04,-67.5 152.74,-55.44"/>
<polygon fill="black" stroke="black" points="154.22,-58.61 161.89,-51.31 151.34,-52.23 154.22,-58.61"/>
<g id="a_edge3&#45;headlabel"><a xlink:href="dir_000064_000006.html" target="_top" xlink:title="2">
<text text-anchor="middle" x="152.11" y="-60.18" font-family="Helvetica" font-size="10.00">2</text>
</a>
</g>
</g>
<!-- dir_b31d54d5631803016a26f28213a41162 -->
<g id="node5" class="node">
<title>dir_b31d54d5631803016a26f28213a41162</title>
<g id="a_node5"><a xlink:href="dir_b31d54d5631803016a26f28213a41162.html" target="_top" xlink:title="interface">
<polygon fill="none" stroke="red" points="307.5,-52 252.5,-52 252.5,-16 307.5,-16 307.5,-52"/>
<text text-anchor="middle" x="280" y="-31.5" font-family="Helvetica" font-size="10.00">interface</text>
</a>
</g>
</g>
<!-- dir_8ed1fcc0951a626d632bb57b8cd116e3&#45;&gt;dir_b31d54d5631803016a26f28213a41162 -->
<g id="edge4" class="edge">
<title>dir_8ed1fcc0951a626d632bb57b8cd116e3&#45;&gt;dir_b31d54d5631803016a26f28213a41162</title>
<path fill="none" stroke="black" d="M70.3,-99.33C109.23,-90.89 182.66,-73.68 243,-52 243.1,-51.97 243.19,-51.93 243.29,-51.9"/>
<polygon fill="black" stroke="black" points="244.31,-55.25 252.33,-48.33 241.75,-48.74 244.31,-55.25"/>
<g id="a_edge4&#45;headlabel"><a xlink:href="dir_000064_000034.html" target="_top" xlink:title="2">
<text text-anchor="middle" x="242.01" y="-56.71" font-family="Helvetica" font-size="10.00">2</text>
</a>
</g>
</g>
</g>
</svg>
