<?xml version="1.0" encoding="UTF-8" standalone="no"?>
<!DOCTYPE svg PUBLIC "-//W3C//DTD SVG 1.1//EN"
 "http://www.w3.org/Graphics/SVG/1.1/DTD/svg11.dtd">
<!-- Generated by graphviz version 2.44.0 (0)
 -->
<!-- Title: /home/ec2&#45;user/workspace/vsomeip/implementation/runtime Pages: 1 -->
<svg width="670pt" height="247pt"
 viewBox="0.00 0.00 669.50 247.00" xmlns="http://www.w3.org/2000/svg" xmlns:xlink="http://www.w3.org/1999/xlink">
<g id="graph0" class="graph" transform="scale(1 1) rotate(0) translate(4 243)">
<title>/home/ec2&#45;user/workspace/vsomeip/implementation/runtime</title>
<polygon fill="white" stroke="transparent" points="-4,4 -4,-243 665.5,-243 665.5,4 -4,4"/>
<g id="clust1" class="cluster">
<title>clusterdir_ed7c47a03c091bb19436c59342bc9555</title>
<g id="a_clust1"><a xlink:href="dir_ed7c47a03c091bb19436c59342bc9555.html" target="_top" xlink:title="implementation">
<polygon fill="#edf0f7" stroke="#404040" stroke-dasharray="5,2" points="8,-8 8,-231 596,-231 596,-8 8,-8"/>
<text text-anchor="middle" x="302" y="-219" font-family="Helvetica" font-size="10.00">implementation</text>
</a>
</g>
</g>
<g id="clust2" class="cluster">
<title>clusterdir_edcd78c7944f950aad2a7d808a095802</title>
<g id="a_clust2"><a xlink:href="dir_edcd78c7944f950aad2a7d808a095802.html" target="_top">
<polygon fill="#edf0f7" stroke="#404040" stroke-width="2" points="16,-80 16,-204 158,-204 158,-80 16,-80"/>
</a>
</g>
</g>
<!-- dir_56126a1d848d4a1832817232e79a5a18 -->
<g id="node1" class="node">
<title>dir_56126a1d848d4a1832817232e79a5a18</title>
<g id="a_node1"><a xlink:href="dir_56126a1d848d4a1832817232e79a5a18.html" target="_top" xlink:title="configuration">
<polygon fill="#a2b4d6" stroke="red" points="88,-52 16,-52 16,-16 88,-16 88,-52"/>
<text text-anchor="middle" x="52" y="-31.5" font-family="Helvetica" font-size="10.00">configuration</text>
</a>
</g>
</g>
<!-- dir_cf72682d9b1c0bc1c562a1f19b8defa0 -->
<g id="node2" class="node">
<title>dir_cf72682d9b1c0bc1c562a1f19b8defa0</title>
<g id="a_node2"><a xlink:href="dir_cf72682d9b1c0bc1c562a1f19b8defa0.html" target="_top" xlink:title="routing">
<polygon fill="#a2b4d6" stroke="red" points="160,-52 106,-52 106,-16 160,-16 160,-52"/>
<text text-anchor="middle" x="133" y="-31.5" font-family="Helvetica" font-size="10.00">routing</text>
</a>
</g>
</g>
<!-- dir_9c7b9d609ec855ab7fbf064b0ccf8e4e -->
<g id="node3" class="node">
<title>dir_9c7b9d609ec855ab7fbf064b0ccf8e4e</title>
<g id="a_node3"><a xlink:href="dir_9c7b9d609ec855ab7fbf064b0ccf8e4e.html" target="_top" xlink:title="endpoints">
<polygon fill="#a2b4d6" stroke="red" points="225.5,-124 166.5,-124 166.5,-88 225.5,-88 225.5,-124"/>
<text text-anchor="middle" x="196" y="-103.5" font-family="Helvetica" font-size="10.00">endpoints</text>
</a>
</g>
</g>
<!-- dir_3ce07147fcbac31fc4d5892a851f6627 -->
<g id="node4" class="node">
<title>dir_3ce07147fcbac31fc4d5892a851f6627</title>
<g id="a_node4"><a xlink:href="dir_3ce07147fcbac31fc4d5892a851f6627.html" target="_top" xlink:title="message">
<polygon fill="#a2b4d6" stroke="red" points="300,-124 244,-124 244,-88 300,-88 300,-124"/>
<text text-anchor="middle" x="272" y="-103.5" font-family="Helvetica" font-size="10.00">message</text>
</a>
</g>
</g>
<!-- dir_f132f3c082319ace6827058f7d1d886d -->
<g id="node5" class="node">
<title>dir_f132f3c082319ace6827058f7d1d886d</title>
<g id="a_node5"><a xlink:href="dir_f132f3c082319ace6827058f7d1d886d.html" target="_top" xlink:title="plugin">
<polygon fill="#a2b4d6" stroke="red" points="372,-124 318,-124 318,-88 372,-88 372,-124"/>
<text text-anchor="middle" x="345" y="-103.5" font-family="Helvetica" font-size="10.00">plugin</text>
</a>
</g>
</g>
<!-- dir_96312f6272b562b103a6f862042db4a4 -->
<g id="node6" class="node">
<title>dir_96312f6272b562b103a6f862042db4a4</title>
<g id="a_node6"><a xlink:href="dir_96312f6272b562b103a6f862042db4a4.html" target="_top" xlink:title="security">
<polygon fill="#a2b4d6" stroke="red" points="444,-124 390,-124 390,-88 444,-88 444,-124"/>
<text text-anchor="middle" x="417" y="-103.5" font-family="Helvetica" font-size="10.00">security</text>
</a>
</g>
</g>
<!-- dir_282dd5a982ba644edb6efcfaee8b7735 -->
<g id="node7" class="node">
<title>dir_282dd5a982ba644edb6efcfaee8b7735</title>
<g id="a_node7"><a xlink:href="dir_282dd5a982ba644edb6efcfaee8b7735.html" target="_top" xlink:title="tracing">
<polygon fill="#a2b4d6" stroke="red" points="516,-124 462,-124 462,-88 516,-88 516,-124"/>
<text text-anchor="middle" x="489" y="-103.5" font-family="Helvetica" font-size="10.00">tracing</text>
</a>
</g>
</g>
<!-- dir_6972051101bc5f8d68d31d49f06d7aaf -->
<g id="node8" class="node">
<title>dir_6972051101bc5f8d68d31d49f06d7aaf</title>
<g id="a_node8"><a xlink:href="dir_6972051101bc5f8d68d31d49f06d7aaf.html" target="_top" xlink:title="utility">
<polygon fill="#a2b4d6" stroke="red" points="588,-124 534,-124 534,-88 588,-88 588,-124"/>
<text text-anchor="middle" x="561" y="-103.5" font-family="Helvetica" font-size="10.00">utility</text>
</a>
</g>
</g>
<!-- dir_edcd78c7944f950aad2a7d808a095802 -->
<g id="node9" class="node">
<title>dir_edcd78c7944f950aad2a7d808a095802</title>
<text text-anchor="middle" x="123" y="-175.5" font-family="Helvetica" font-size="10.00">runtime</text>
</g>
<!-- dir_09d934579f160da0a50cec206544f0b7 -->
<g id="node10" class="node">
<title>dir_09d934579f160da0a50cec206544f0b7</title>
<g id="a_node10"><a xlink:href="dir_09d934579f160da0a50cec206544f0b7.html" target="_top" xlink:title="include">
<polygon fill="#a2b4d6" stroke="#404040" points="114,-124 60,-124 60,-88 114,-88 114,-124"/>
<text text-anchor="middle" x="87" y="-103.5" font-family="Helvetica" font-size="10.00">include</text>
</a>
</g>
</g>
<!-- dir_09d934579f160da0a50cec206544f0b7&#45;&gt;dir_56126a1d848d4a1832817232e79a5a18 -->
<g id="edge1" class="edge">
<title>dir_09d934579f160da0a50cec206544f0b7&#45;&gt;dir_56126a1d848d4a1832817232e79a5a18</title>
<path fill="none" stroke="black" d="M78.35,-87.7C74.36,-79.73 69.55,-70.1 65.13,-61.26"/>
<polygon fill="black" stroke="black" points="68.15,-59.48 60.55,-52.1 61.89,-62.61 68.15,-59.48"/>
<g id="a_edge1&#45;headlabel"><a xlink:href="dir_000029_000006.html" target="_top" xlink:title="1">
<text text-anchor="middle" x="72.3" y="-58.93" font-family="Helvetica" font-size="10.00">1</text>
</a>
</g>
</g>
<!-- dir_09d934579f160da0a50cec206544f0b7&#45;&gt;dir_cf72682d9b1c0bc1c562a1f19b8defa0 -->
<g id="edge2" class="edge">
<title>dir_09d934579f160da0a50cec206544f0b7&#45;&gt;dir_cf72682d9b1c0bc1c562a1f19b8defa0</title>
<path fill="none" stroke="black" d="M98.37,-87.7C103.72,-79.56 110.2,-69.69 116.11,-60.7"/>
<polygon fill="black" stroke="black" points="119.19,-62.38 121.76,-52.1 113.34,-58.54 119.19,-62.38"/>
<g id="a_edge2&#45;headlabel"><a xlink:href="dir_000029_000059.html" target="_top" xlink:title="1">
<text text-anchor="middle" x="119.59" y="-64.45" font-family="Helvetica" font-size="10.00">1</text>
</a>
</g>
</g>
<!-- dir_271001906c846293f255e34446db3cb4 -->
<g id="node11" class="node">
<title>dir_271001906c846293f255e34446db3cb4</title>
<g id="a_node11"><a xlink:href="dir_271001906c846293f255e34446db3cb4.html" target="_top" xlink:title="src">
<polygon fill="#a2b4d6" stroke="#404040" points="78,-196 24,-196 24,-160 78,-160 78,-196"/>
<text text-anchor="middle" x="51" y="-175.5" font-family="Helvetica" font-size="10.00">src</text>
</a>
</g>
</g>
<!-- dir_271001906c846293f255e34446db3cb4&#45;&gt;dir_56126a1d848d4a1832817232e79a5a18 -->
<g id="edge6" class="edge">
<title>dir_271001906c846293f255e34446db3cb4&#45;&gt;dir_56126a1d848d4a1832817232e79a5a18</title>
<path fill="none" stroke="black" d="M50.88,-159.83C50.78,-140.44 50.69,-107.95 51,-80 51.06,-74.24 51.17,-68.06 51.3,-62.19"/>
<polygon fill="black" stroke="black" points="54.8,-62.17 51.53,-52.09 47.8,-62.01 54.8,-62.17"/>
<g id="a_edge6&#45;headlabel"><a xlink:href="dir_000074_000006.html" target="_top" xlink:title="2">
<text text-anchor="middle" x="57.56" y="-63.33" font-family="Helvetica" font-size="10.00">2</text>
</a>
</g>
</g>
<!-- dir_271001906c846293f255e34446db3cb4&#45;&gt;dir_cf72682d9b1c0bc1c562a1f19b8defa0 -->
<g id="edge11" class="edge">
<title>dir_271001906c846293f255e34446db3cb4&#45;&gt;dir_cf72682d9b1c0bc1c562a1f19b8defa0</title>
<path fill="none" stroke="black" d="M78.1,-164.23C93.93,-155.28 112.75,-141.74 123,-124 133.73,-105.43 135.8,-81.04 135.43,-62.48"/>
<polygon fill="black" stroke="black" points="138.92,-62.16 134.97,-52.32 131.93,-62.47 138.92,-62.16"/>
<g id="a_edge11&#45;headlabel"><a xlink:href="dir_000074_000059.html" target="_top" xlink:title="2">
<text text-anchor="middle" x="141.92" y="-63.12" font-family="Helvetica" font-size="10.00">2</text>
</a>
</g>
</g>
<!-- dir_271001906c846293f255e34446db3cb4&#45;&gt;dir_9c7b9d609ec855ab7fbf064b0ccf8e4e -->
<g id="edge9" class="edge">
<title>dir_271001906c846293f255e34446db3cb4&#45;&gt;dir_9c7b9d609ec855ab7fbf064b0ccf8e4e</title>
<path fill="none" stroke="black" d="M78.44,-164.07C98.83,-154.42 127.57,-140.75 157.15,-126.35"/>
<polygon fill="black" stroke="black" points="158.89,-129.4 166.35,-121.87 155.82,-123.1 158.89,-129.4"/>
<g id="a_edge9&#45;headlabel"><a xlink:href="dir_000074_000015.html" target="_top" xlink:title="1">
<text text-anchor="middle" x="156.91" y="-131.02" font-family="Helvetica" font-size="10.00">1</text>
</a>
</g>
</g>
<!-- dir_271001906c846293f255e34446db3cb4&#45;&gt;dir_3ce07147fcbac31fc4d5892a851f6627 -->
<g id="edge5" class="edge">
<title>dir_271001906c846293f255e34446db3cb4&#45;&gt;dir_3ce07147fcbac31fc4d5892a851f6627</title>
<path fill="none" stroke="black" d="M78.28,-163.42C81.19,-162.18 84.13,-161.01 87,-160 147.96,-138.44 169.15,-145.51 234.43,-123.82"/>
<polygon fill="black" stroke="black" points="235.62,-127.11 243.95,-120.56 233.35,-120.49 235.62,-127.11"/>
<g id="a_edge5&#45;headlabel"><a xlink:href="dir_000074_000041.html" target="_top" xlink:title="3">
<text text-anchor="middle" x="233.14" y="-128.46" font-family="Helvetica" font-size="10.00">3</text>
</a>
</g>
</g>
<!-- dir_271001906c846293f255e34446db3cb4&#45;&gt;dir_f132f3c082319ace6827058f7d1d886d -->
<g id="edge12" class="edge">
<title>dir_271001906c846293f255e34446db3cb4&#45;&gt;dir_f132f3c082319ace6827058f7d1d886d</title>
<path fill="none" stroke="black" d="M78.2,-163.19C81.13,-162 84.1,-160.9 87,-160 179.39,-131.32 211.47,-152.19 307.94,-123.81"/>
<polygon fill="black" stroke="black" points="309.25,-127.07 317.8,-120.81 307.21,-120.38 309.25,-127.07"/>
<g id="a_edge12&#45;headlabel"><a xlink:href="dir_000074_000042.html" target="_top" xlink:title="1">
<text text-anchor="middle" x="306.64" y="-128.34" font-family="Helvetica" font-size="10.00">1</text>
</a>
</g>
</g>
<!-- dir_271001906c846293f255e34446db3cb4&#45;&gt;dir_96312f6272b562b103a6f862042db4a4 -->
<g id="edge8" class="edge">
<title>dir_271001906c846293f255e34446db3cb4&#45;&gt;dir_96312f6272b562b103a6f862042db4a4</title>
<path fill="none" stroke="black" d="M78.16,-163.07C81.1,-161.9 84.08,-160.84 87,-160 210.37,-124.32 252.48,-158.8 380.09,-123.7"/>
<polygon fill="black" stroke="black" points="381.17,-127.03 389.84,-120.93 379.26,-120.29 381.17,-127.03"/>
<g id="a_edge8&#45;headlabel"><a xlink:href="dir_000074_000062.html" target="_top" xlink:title="1">
<text text-anchor="middle" x="378.49" y="-128.24" font-family="Helvetica" font-size="10.00">1</text>
</a>
</g>
</g>
<!-- dir_271001906c846293f255e34446db3cb4&#45;&gt;dir_282dd5a982ba644edb6efcfaee8b7735 -->
<g id="edge4" class="edge">
<title>dir_271001906c846293f255e34446db3cb4&#45;&gt;dir_282dd5a982ba644edb6efcfaee8b7735</title>
<path fill="none" stroke="black" d="M78.14,-163C81.08,-161.84 84.07,-160.81 87,-160 241.32,-117.36 293.32,-165.48 451.76,-123.74"/>
<polygon fill="black" stroke="black" points="453.12,-127 461.86,-121 451.29,-120.24 453.12,-127"/>
<g id="a_edge4&#45;headlabel"><a xlink:href="dir_000074_000079.html" target="_top" xlink:title="1">
<text text-anchor="middle" x="450.4" y="-128.18" font-family="Helvetica" font-size="10.00">1</text>
</a>
</g>
</g>
<!-- dir_271001906c846293f255e34446db3cb4&#45;&gt;dir_6972051101bc5f8d68d31d49f06d7aaf -->
<g id="edge7" class="edge">
<title>dir_271001906c846293f255e34446db3cb4&#45;&gt;dir_6972051101bc5f8d68d31d49f06d7aaf</title>
<path fill="none" stroke="black" d="M78.13,-162.95C81.07,-161.8 84.06,-160.79 87,-160 272.55,-110.32 334.27,-172.39 524.14,-123.61"/>
<polygon fill="black" stroke="black" points="525.09,-126.98 533.87,-121.05 523.31,-120.21 525.09,-126.98"/>
<g id="a_edge7&#45;headlabel"><a xlink:href="dir_000074_000080.html" target="_top" xlink:title="1">
<text text-anchor="middle" x="522.34" y="-128.15" font-family="Helvetica" font-size="10.00">1</text>
</a>
</g>
</g>
<!-- dir_271001906c846293f255e34446db3cb4&#45;&gt;dir_09d934579f160da0a50cec206544f0b7 -->
<g id="edge3" class="edge">
<title>dir_271001906c846293f255e34446db3cb4&#45;&gt;dir_09d934579f160da0a50cec206544f0b7</title>
<path fill="none" stroke="black" d="M59.9,-159.7C64,-151.73 68.95,-142.1 73.49,-133.26"/>
<polygon fill="black" stroke="black" points="76.74,-134.6 78.2,-124.1 70.52,-131.4 76.74,-134.6"/>
<g id="a_edge3&#45;headlabel"><a xlink:href="dir_000074_000029.html" target="_top" xlink:title="4">
<text text-anchor="middle" x="77.62" y="-136.59" font-family="Helvetica" font-size="10.00">4</text>
</a>
</g>
</g>
<!-- dir_b31d54d5631803016a26f28213a41162 -->
<g id="node12" class="node">
<title>dir_b31d54d5631803016a26f28213a41162</title>
<g id="a_node12"><a xlink:href="dir_b31d54d5631803016a26f28213a41162.html" target="_top" xlink:title="interface">
<polygon fill="none" stroke="red" points="661.5,-124 606.5,-124 606.5,-88 661.5,-88 661.5,-124"/>
<text text-anchor="middle" x="634" y="-103.5" font-family="Helvetica" font-size="10.00">interface</text>
</a>
</g>
</g>
<!-- dir_271001906c846293f255e34446db3cb4&#45;&gt;dir_b31d54d5631803016a26f28213a41162 -->
<g id="edge10" class="edge">
<title>dir_271001906c846293f255e34446db3cb4&#45;&gt;dir_b31d54d5631803016a26f28213a41162</title>
<path fill="none" stroke="black" d="M78.12,-162.92C81.06,-161.78 84.06,-160.77 87,-160 304.89,-103.06 377.41,-181.9 596.28,-124.64"/>
<polygon fill="black" stroke="black" points="597.39,-127.96 606.14,-121.99 595.57,-121.2 597.39,-127.96"/>
<g id="a_edge10&#45;headlabel"><a xlink:href="dir_000074_000034.html" target="_top" xlink:title="1">
<text text-anchor="middle" x="594.65" y="-129.14" font-family="Helvetica" font-size="10.00">1</text>
</a>
</g>
</g>
</g>
</svg>
