<?xml version="1.0" encoding="UTF-8" standalone="no"?>
<!DOCTYPE svg PUBLIC "-//W3C//DTD SVG 1.1//EN"
 "http://www.w3.org/Graphics/SVG/1.1/DTD/svg11.dtd">
<!-- Generated by graphviz version 2.44.0 (0)
 -->
<!-- Title: /home/ec2&#45;user/workspace/vsomeip/implementation/plugin/src Pages: 1 -->
<svg width="314pt" height="167pt"
 viewBox="0.00 0.00 313.50 167.00" xmlns="http://www.w3.org/2000/svg" xmlns:xlink="http://www.w3.org/1999/xlink">
<g id="graph0" class="graph" transform="scale(1 1) rotate(0) translate(4 163)">
<title>/home/ec2&#45;user/workspace/vsomeip/implementation/plugin/src</title>
<polygon fill="white" stroke="transparent" points="-4,4 -4,-163 309.5,-163 309.5,4 -4,4"/>
<g id="clust1" class="cluster">
<title>clusterdir_f132f3c082319ace6827058f7d1d886d</title>
<g id="a_clust1"><a xlink:href="dir_f132f3c082319ace6827058f7d1d886d.html" target="_top" xlink:title="plugin">
<polygon fill="#edf0f7" stroke="#7f7f7f" stroke-dasharray="5,2" points="8,-8 8,-151 78,-151 78,-8 8,-8"/>
<text text-anchor="middle" x="43" y="-139" font-family="Helvetica" font-size="10.00">plugin</text>
</a>
</g>
</g>
<!-- dir_6934c5d6106915e4b5f85649d83ca745 -->
<g id="node1" class="node">
<title>dir_6934c5d6106915e4b5f85649d83ca745</title>
<g id="a_node1"><a xlink:href="dir_6934c5d6106915e4b5f85649d83ca745.html" target="_top" xlink:title="include">
<polygon fill="#a2b4d6" stroke="#404040" points="70,-52 16,-52 16,-16 70,-16 70,-52"/>
<text text-anchor="middle" x="43" y="-31.5" font-family="Helvetica" font-size="10.00">include</text>
</a>
</g>
</g>
<!-- dir_c39954b8d6a494a0104c2c88eccb2a6d -->
<g id="node2" class="node">
<title>dir_c39954b8d6a494a0104c2c88eccb2a6d</title>
<g id="a_node2"><a xlink:href="dir_c39954b8d6a494a0104c2c88eccb2a6d.html" target="_top" xlink:title="src">
<polygon fill="#edf0f7" stroke="#404040" stroke-width="2" points="70,-124 16,-124 16,-88 70,-88 70,-124"/>
<text text-anchor="middle" x="43" y="-103.5" font-family="Helvetica" font-size="10.00">src</text>
</a>
</g>
</g>
<!-- dir_c39954b8d6a494a0104c2c88eccb2a6d&#45;&gt;dir_6934c5d6106915e4b5f85649d83ca745 -->
<g id="edge2" class="edge">
<title>dir_c39954b8d6a494a0104c2c88eccb2a6d&#45;&gt;dir_6934c5d6106915e4b5f85649d83ca745</title>
<path fill="none" stroke="black" d="M43,-87.7C43,-79.98 43,-70.71 43,-62.11"/>
<polygon fill="black" stroke="black" points="46.5,-62.1 43,-52.1 39.5,-62.1 46.5,-62.1"/>
<g id="a_edge2&#45;headlabel"><a xlink:href="dir_000071_000026.html" target="_top" xlink:title="2">
<text text-anchor="middle" x="49.34" y="-63.2" font-family="Helvetica" font-size="10.00">2</text>
</a>
</g>
</g>
<!-- dir_56126a1d848d4a1832817232e79a5a18 -->
<g id="node3" class="node">
<title>dir_56126a1d848d4a1832817232e79a5a18</title>
<g id="a_node3"><a xlink:href="dir_56126a1d848d4a1832817232e79a5a18.html" target="_top" xlink:title="configuration">
<polygon fill="none" stroke="red" stroke-dasharray="5,2" points="160,-52 88,-52 88,-16 160,-16 160,-52"/>
<text text-anchor="middle" x="124" y="-31.5" font-family="Helvetica" font-size="10.00">configuration</text>
</a>
</g>
</g>
<!-- dir_c39954b8d6a494a0104c2c88eccb2a6d&#45;&gt;dir_56126a1d848d4a1832817232e79a5a18 -->
<g id="edge1" class="edge">
<title>dir_c39954b8d6a494a0104c2c88eccb2a6d&#45;&gt;dir_56126a1d848d4a1832817232e79a5a18</title>
<path fill="none" stroke="black" d="M63.02,-87.7C73.13,-78.97 85.54,-68.24 96.52,-58.75"/>
<polygon fill="black" stroke="black" points="98.93,-61.29 104.21,-52.1 94.35,-55.99 98.93,-61.29"/>
<g id="a_edge1&#45;headlabel"><a xlink:href="dir_000071_000006.html" target="_top" xlink:title="1">
<text text-anchor="middle" x="98.07" y="-63.29" font-family="Helvetica" font-size="10.00">1</text>
</a>
</g>
</g>
<!-- dir_6972051101bc5f8d68d31d49f06d7aaf -->
<g id="node4" class="node">
<title>dir_6972051101bc5f8d68d31d49f06d7aaf</title>
<g id="a_node4"><a xlink:href="dir_6972051101bc5f8d68d31d49f06d7aaf.html" target="_top" xlink:title="utility">
<polygon fill="none" stroke="red" stroke-dasharray="5,2" points="232,-52 178,-52 178,-16 232,-16 232,-52"/>
<text text-anchor="middle" x="205" y="-31.5" font-family="Helvetica" font-size="10.00">utility</text>
</a>
</g>
</g>
<!-- dir_c39954b8d6a494a0104c2c88eccb2a6d&#45;&gt;dir_6972051101bc5f8d68d31d49f06d7aaf -->
<g id="edge3" class="edge">
<title>dir_c39954b8d6a494a0104c2c88eccb2a6d&#45;&gt;dir_6972051101bc5f8d68d31d49f06d7aaf</title>
<path fill="none" stroke="black" d="M70.18,-93.96C93.9,-84.24 129.42,-69.48 168.47,-52.15"/>
<polygon fill="black" stroke="black" points="170.22,-55.2 177.93,-47.94 167.37,-48.81 170.22,-55.2"/>
<g id="a_edge3&#45;headlabel"><a xlink:href="dir_000071_000080.html" target="_top" xlink:title="1">
<text text-anchor="middle" x="168.1" y="-56.76" font-family="Helvetica" font-size="10.00">1</text>
</a>
</g>
</g>
<!-- dir_b31d54d5631803016a26f28213a41162 -->
<g id="node5" class="node">
<title>dir_b31d54d5631803016a26f28213a41162</title>
<g id="a_node5"><a xlink:href="dir_b31d54d5631803016a26f28213a41162.html" target="_top" xlink:title="interface">
<polygon fill="none" stroke="red" points="305.5,-52 250.5,-52 250.5,-16 305.5,-16 305.5,-52"/>
<text text-anchor="middle" x="278" y="-31.5" font-family="Helvetica" font-size="10.00">interface</text>
</a>
</g>
</g>
<!-- dir_c39954b8d6a494a0104c2c88eccb2a6d&#45;&gt;dir_b31d54d5631803016a26f28213a41162 -->
<g id="edge4" class="edge">
<title>dir_c39954b8d6a494a0104c2c88eccb2a6d&#45;&gt;dir_b31d54d5631803016a26f28213a41162</title>
<path fill="none" stroke="black" d="M70.02,-99.29C108.56,-90.81 181.25,-73.55 241,-52 241.1,-51.97 241.19,-51.93 241.29,-51.9"/>
<polygon fill="black" stroke="black" points="242.32,-55.25 250.33,-48.32 239.74,-48.74 242.32,-55.25"/>
<g id="a_edge4&#45;headlabel"><a xlink:href="dir_000071_000034.html" target="_top" xlink:title="1">
<text text-anchor="middle" x="240.02" y="-56.71" font-family="Helvetica" font-size="10.00">1</text>
</a>
</g>
</g>
</g>
</svg>
