<?xml version="1.0" encoding="UTF-8" standalone="no"?>
<!DOCTYPE svg PUBLIC "-//W3C//DTD SVG 1.1//EN"
 "http://www.w3.org/Graphics/SVG/1.1/DTD/svg11.dtd">
<!-- Generated by graphviz version 2.44.0 (0)
 -->
<!-- Title: /home/ec2&#45;user/workspace/vsomeip/implementation/e2e_protection/include/e2e/profile/profile_custom Pages: 1 -->
<svg width="182pt" height="167pt"
 viewBox="0.00 0.00 182.00 167.00" xmlns="http://www.w3.org/2000/svg" xmlns:xlink="http://www.w3.org/1999/xlink">
<g id="graph0" class="graph" transform="scale(1 1) rotate(0) translate(4 163)">
<title>/home/ec2&#45;user/workspace/vsomeip/implementation/e2e_protection/include/e2e/profile/profile_custom</title>
<polygon fill="white" stroke="transparent" points="-4,4 -4,-163 178,-163 178,4 -4,4"/>
<g id="clust1" class="cluster">
<title>clusterdir_6430ed959aa6e92f798ce09450cbb0e0</title>
<g id="a_clust1"><a xlink:href="dir_6430ed959aa6e92f798ce09450cbb0e0.html" target="_top" xlink:title="profile">
<polygon fill="#edf0f7" stroke="#7f7f7f" stroke-dasharray="5,2" points="8,-8 8,-151 110,-151 110,-8 8,-8"/>
<text text-anchor="middle" x="59" y="-139" font-family="Helvetica" font-size="10.00">profile</text>
</a>
</g>
</g>
<!-- dir_14b89642d47e591ba61a09b9ab23b291 -->
<g id="node1" class="node">
<title>dir_14b89642d47e591ba61a09b9ab23b291</title>
<g id="a_node1"><a xlink:href="dir_14b89642d47e591ba61a09b9ab23b291.html" target="_top" xlink:title="profile_interface">
<polygon fill="#a2b4d6" stroke="#404040" points="102,-52 16,-52 16,-16 102,-16 102,-52"/>
<text text-anchor="middle" x="59" y="-31.5" font-family="Helvetica" font-size="10.00">profile_interface</text>
</a>
</g>
</g>
<!-- dir_c7e5b7921587376004b7d6a891f3b675 -->
<g id="node2" class="node">
<title>dir_c7e5b7921587376004b7d6a891f3b675</title>
<g id="a_node2"><a xlink:href="dir_c7e5b7921587376004b7d6a891f3b675.html" target="_top" xlink:title="profile_custom">
<polygon fill="#edf0f7" stroke="#404040" stroke-width="2" points="100,-124 20,-124 20,-88 100,-88 100,-124"/>
<text text-anchor="middle" x="60" y="-103.5" font-family="Helvetica" font-size="10.00">profile_custom</text>
</a>
</g>
</g>
<!-- dir_c7e5b7921587376004b7d6a891f3b675&#45;&gt;dir_14b89642d47e591ba61a09b9ab23b291 -->
<g id="edge1" class="edge">
<title>dir_c7e5b7921587376004b7d6a891f3b675&#45;&gt;dir_14b89642d47e591ba61a09b9ab23b291</title>
<path fill="none" stroke="black" d="M59.75,-87.7C59.64,-79.98 59.51,-70.71 59.39,-62.11"/>
<polygon fill="black" stroke="black" points="62.89,-62.05 59.24,-52.1 55.89,-62.15 62.89,-62.05"/>
<g id="a_edge1&#45;headlabel"><a xlink:href="dir_000055_000057.html" target="_top" xlink:title="2">
<text text-anchor="middle" x="65.78" y="-63.11" font-family="Helvetica" font-size="10.00">2</text>
</a>
</g>
</g>
<!-- dir_8c17fa292750306381d606ba00a14046 -->
<g id="node3" class="node">
<title>dir_8c17fa292750306381d606ba00a14046</title>
<g id="a_node3"><a xlink:href="dir_8c17fa292750306381d606ba00a14046.html" target="_top" xlink:title="buffer">
<polygon fill="none" stroke="#7f7f7f" points="174,-52 120,-52 120,-16 174,-16 174,-52"/>
<text text-anchor="middle" x="147" y="-31.5" font-family="Helvetica" font-size="10.00">buffer</text>
</a>
</g>
</g>
<!-- dir_c7e5b7921587376004b7d6a891f3b675&#45;&gt;dir_8c17fa292750306381d606ba00a14046 -->
<g id="edge2" class="edge">
<title>dir_c7e5b7921587376004b7d6a891f3b675&#45;&gt;dir_8c17fa292750306381d606ba00a14046</title>
<path fill="none" stroke="black" d="M81.51,-87.7C92.46,-78.88 105.95,-68.03 117.82,-58.47"/>
<polygon fill="black" stroke="black" points="120.14,-61.1 125.74,-52.1 115.76,-55.65 120.14,-61.1"/>
<g id="a_edge2&#45;headlabel"><a xlink:href="dir_000055_000002.html" target="_top" xlink:title="1">
<text text-anchor="middle" x="119.12" y="-63.07" font-family="Helvetica" font-size="10.00">1</text>
</a>
</g>
</g>
</g>
</svg>
