<?xml version="1.0" encoding="UTF-8" standalone="no"?>
<!DOCTYPE svg PUBLIC "-//W3C//DTD SVG 1.1//EN"
 "http://www.w3.org/Graphics/SVG/1.1/DTD/svg11.dtd">
<!-- Generated by graphviz version 2.44.0 (0)
 -->
<!-- Title: /home/ec2&#45;user/workspace/vsomeip/interface/compat/vsomeip Pages: 1 -->
<svg width="182pt" height="183pt"
 viewBox="0.00 0.00 182.00 183.00" xmlns="http://www.w3.org/2000/svg" xmlns:xlink="http://www.w3.org/1999/xlink">
<g id="graph0" class="graph" transform="scale(1 1) rotate(0) translate(4 179)">
<title>/home/ec2&#45;user/workspace/vsomeip/interface/compat/vsomeip</title>
<polygon fill="white" stroke="transparent" points="-4,4 -4,-179 178,-179 178,4 -4,4"/>
<g id="clust1" class="cluster">
<title>clusterdir_9b830e92543b5dfe83149d10ba205a6b</title>
<g id="a_clust1"><a xlink:href="dir_9b830e92543b5dfe83149d10ba205a6b.html" target="_top" xlink:title="compat">
<polygon fill="#edf0f7" stroke="#7f7f7f" stroke-dasharray="5,2" points="8,-8 8,-167 166,-167 166,-8 8,-8"/>
<text text-anchor="middle" x="87" y="-155" font-family="Helvetica" font-size="10.00">compat</text>
</a>
</g>
</g>
<g id="clust2" class="cluster">
<title>clusterdir_1ec857c4c7d10a9083c87b3a2c176ad6</title>
<g id="a_clust2"><a xlink:href="dir_1ec857c4c7d10a9083c87b3a2c176ad6.html" target="_top">
<polygon fill="#edf0f7" stroke="#404040" stroke-width="2" points="16,-16 16,-140 158,-140 158,-16 16,-16"/>
</a>
</g>
</g>
<!-- dir_1ec857c4c7d10a9083c87b3a2c176ad6 -->
<g id="node1" class="node">
<title>dir_1ec857c4c7d10a9083c87b3a2c176ad6</title>
<text text-anchor="middle" x="123" y="-111.5" font-family="Helvetica" font-size="10.00">vsomeip</text>
</g>
<!-- dir_cd77e0c09e0e93493cf907246bf69ec8 -->
<g id="node2" class="node">
<title>dir_cd77e0c09e0e93493cf907246bf69ec8</title>
<g id="a_node2"><a xlink:href="dir_cd77e0c09e0e93493cf907246bf69ec8.html" target="_top" xlink:title="internal">
<polygon fill="#a2b4d6" stroke="#404040" points="150,-60 96,-60 96,-24 150,-24 150,-60"/>
<text text-anchor="middle" x="123" y="-39.5" font-family="Helvetica" font-size="10.00">internal</text>
</a>
</g>
</g>
<!-- dir_1ec857c4c7d10a9083c87b3a2c176ad6&#45;&gt;dir_cd77e0c09e0e93493cf907246bf69ec8 -->
<g id="edge1" class="edge">
<title>dir_1ec857c4c7d10a9083c87b3a2c176ad6&#45;&gt;dir_cd77e0c09e0e93493cf907246bf69ec8</title>
<path fill="none" stroke="black" d="M123,-95.7C123,-87.98 123,-78.71 123,-70.11"/>
<polygon fill="black" stroke="black" points="126.5,-70.1 123,-60.1 119.5,-70.1 126.5,-70.1"/>
<g id="a_edge1&#45;headlabel"><a xlink:href="dir_000081_000035.html" target="_top" xlink:title="4">
<text text-anchor="middle" x="129.34" y="-71.2" font-family="Helvetica" font-size="10.00">4</text>
</a>
</g>
</g>
<!-- dir_6111fafc347be196409e15bbadeaf851 -->
<g id="node3" class="node">
<title>dir_6111fafc347be196409e15bbadeaf851</title>
<g id="a_node3"><a xlink:href="dir_6111fafc347be196409e15bbadeaf851.html" target="_top" xlink:title="plugins">
<polygon fill="#a2b4d6" stroke="#404040" points="78,-132 24,-132 24,-96 78,-96 78,-132"/>
<text text-anchor="middle" x="51" y="-111.5" font-family="Helvetica" font-size="10.00">plugins</text>
</a>
</g>
</g>
</g>
</svg>
