<?xml version="1.0" encoding="UTF-8" standalone="no"?>
<!DOCTYPE svg PUBLIC "-//W3C//DTD SVG 1.1//EN"
 "http://www.w3.org/Graphics/SVG/1.1/DTD/svg11.dtd">
<!-- Generated by graphviz version 2.44.0 (0)
 -->
<!-- Title: /home/ec2&#45;user/workspace/vsomeip/implementation/protocol Pages: 1 -->
<svg width="341pt" height="231pt"
 viewBox="0.00 0.00 340.80 231.00" xmlns="http://www.w3.org/2000/svg" xmlns:xlink="http://www.w3.org/1999/xlink">
<g id="graph0" class="graph" transform="scale(1 1) rotate(0) translate(4 227)">
<title>/home/ec2&#45;user/workspace/vsomeip/implementation/protocol</title>
<polygon fill="white" stroke="transparent" points="-4,4 -4,-227 336.8,-227 336.8,4 -4,4"/>
<g id="clust1" class="cluster">
<title>clusterdir_ed7c47a03c091bb19436c59342bc9555</title>
<g id="a_clust1"><a xlink:href="dir_ed7c47a03c091bb19436c59342bc9555.html" target="_top" xlink:title="implementation">
<polygon fill="#edf0f7" stroke="#404040" stroke-dasharray="5,2" points="8,-56 8,-215 318,-215 318,-56 8,-56"/>
<text text-anchor="middle" x="163" y="-203" font-family="Helvetica" font-size="10.00">implementation</text>
</a>
</g>
</g>
<g id="clust2" class="cluster">
<title>clusterdir_43cc1d4eb251b5d8cbfdd5909fd3ba45</title>
<g id="a_clust2"><a xlink:href="dir_43cc1d4eb251b5d8cbfdd5909fd3ba45.html" target="_top">
<polygon fill="#edf0f7" stroke="#404040" stroke-width="2" points="16,-64 16,-188 158,-188 158,-64 16,-64"/>
</a>
</g>
</g>
<!-- dir_96312f6272b562b103a6f862042db4a4 -->
<g id="node1" class="node">
<title>dir_96312f6272b562b103a6f862042db4a4</title>
<g id="a_node1"><a xlink:href="dir_96312f6272b562b103a6f862042db4a4.html" target="_top" xlink:title="security">
<polygon fill="#a2b4d6" stroke="red" points="220,-108 166,-108 166,-72 220,-72 220,-108"/>
<text text-anchor="middle" x="193" y="-87.5" font-family="Helvetica" font-size="10.00">security</text>
</a>
</g>
</g>
<!-- dir_56126a1d848d4a1832817232e79a5a18 -->
<g id="node2" class="node">
<title>dir_56126a1d848d4a1832817232e79a5a18</title>
<g id="a_node2"><a xlink:href="dir_56126a1d848d4a1832817232e79a5a18.html" target="_top" xlink:title="configuration">
<polygon fill="#a2b4d6" stroke="red" points="310,-108 238,-108 238,-72 310,-72 310,-108"/>
<text text-anchor="middle" x="274" y="-87.5" font-family="Helvetica" font-size="10.00">configuration</text>
</a>
</g>
</g>
<!-- dir_43cc1d4eb251b5d8cbfdd5909fd3ba45 -->
<g id="node3" class="node">
<title>dir_43cc1d4eb251b5d8cbfdd5909fd3ba45</title>
<text text-anchor="middle" x="123" y="-159.5" font-family="Helvetica" font-size="10.00">protocol</text>
</g>
<!-- dir_a7033e5b5cf6dede7e52befdcf42fd7e -->
<g id="node4" class="node">
<title>dir_a7033e5b5cf6dede7e52befdcf42fd7e</title>
<g id="a_node4"><a xlink:href="dir_a7033e5b5cf6dede7e52befdcf42fd7e.html" target="_top" xlink:title="include">
<polygon fill="#a2b4d6" stroke="#404040" points="113,-108 59,-108 59,-72 113,-72 113,-108"/>
<text text-anchor="middle" x="86" y="-87.5" font-family="Helvetica" font-size="10.00">include</text>
</a>
</g>
</g>
<!-- dir_b31d54d5631803016a26f28213a41162 -->
<g id="node6" class="node">
<title>dir_b31d54d5631803016a26f28213a41162</title>
<g id="a_node6"><a xlink:href="dir_b31d54d5631803016a26f28213a41162.html" target="_top" xlink:title="interface">
<polygon fill="none" stroke="red" points="239.5,-36 184.5,-36 184.5,0 239.5,0 239.5,-36"/>
<text text-anchor="middle" x="212" y="-15.5" font-family="Helvetica" font-size="10.00">interface</text>
</a>
</g>
</g>
<!-- dir_a7033e5b5cf6dede7e52befdcf42fd7e&#45;&gt;dir_b31d54d5631803016a26f28213a41162 -->
<g id="edge1" class="edge">
<title>dir_a7033e5b5cf6dede7e52befdcf42fd7e&#45;&gt;dir_b31d54d5631803016a26f28213a41162</title>
<path fill="none" stroke="black" d="M99.55,-71.73C104.58,-66.16 110.62,-60.31 117,-56 134.45,-44.21 156.2,-35.39 174.48,-29.32"/>
<polygon fill="black" stroke="black" points="175.76,-32.59 184.23,-26.24 173.64,-25.92 175.76,-32.59"/>
<g id="a_edge1&#45;headlabel"><a xlink:href="dir_000027_000034.html" target="_top" xlink:title="3">
<text text-anchor="middle" x="173.19" y="-33.88" font-family="Helvetica" font-size="10.00">3</text>
</a>
</g>
</g>
<!-- dir_9ea4e586f66390a322fbb0c5dd82a394 -->
<g id="node5" class="node">
<title>dir_9ea4e586f66390a322fbb0c5dd82a394</title>
<g id="a_node5"><a xlink:href="dir_9ea4e586f66390a322fbb0c5dd82a394.html" target="_top" xlink:title="src">
<polygon fill="#a2b4d6" stroke="#404040" points="78,-180 24,-180 24,-144 78,-144 78,-180"/>
<text text-anchor="middle" x="51" y="-159.5" font-family="Helvetica" font-size="10.00">src</text>
</a>
</g>
</g>
<!-- dir_9ea4e586f66390a322fbb0c5dd82a394&#45;&gt;dir_96312f6272b562b103a6f862042db4a4 -->
<g id="edge3" class="edge">
<title>dir_9ea4e586f66390a322fbb0c5dd82a394&#45;&gt;dir_96312f6272b562b103a6f862042db4a4</title>
<path fill="none" stroke="black" d="M78.23,-148.1C103.13,-136.28 138.45,-119.49 156.82,-110.49"/>
<polygon fill="black" stroke="black" points="158.61,-113.52 166,-105.92 155.48,-107.25 158.61,-113.52"/>
<g id="a_edge3&#45;headlabel"><a xlink:href="dir_000072_000062.html" target="_top" xlink:title="4">
<text text-anchor="middle" x="156.65" y="-115.16" font-family="Helvetica" font-size="10.00">4</text>
</a>
</g>
</g>
<!-- dir_9ea4e586f66390a322fbb0c5dd82a394&#45;&gt;dir_56126a1d848d4a1832817232e79a5a18 -->
<g id="edge2" class="edge">
<title>dir_9ea4e586f66390a322fbb0c5dd82a394&#45;&gt;dir_56126a1d848d4a1832817232e79a5a18</title>
<path fill="none" stroke="black" d="M78.29,-147.45C81.2,-146.2 84.14,-145.03 87,-144 145.4,-123.03 165.05,-127.08 228.14,-108.07"/>
<polygon fill="black" stroke="black" points="229.25,-111.38 237.77,-105.09 227.19,-104.7 229.25,-111.38"/>
<g id="a_edge2&#45;headlabel"><a xlink:href="dir_000072_000006.html" target="_top" xlink:title="1">
<text text-anchor="middle" x="226.66" y="-112.66" font-family="Helvetica" font-size="10.00">1</text>
</a>
</g>
</g>
<!-- dir_9ea4e586f66390a322fbb0c5dd82a394&#45;&gt;dir_a7033e5b5cf6dede7e52befdcf42fd7e -->
<g id="edge4" class="edge">
<title>dir_9ea4e586f66390a322fbb0c5dd82a394&#45;&gt;dir_a7033e5b5cf6dede7e52befdcf42fd7e</title>
<path fill="none" stroke="black" d="M59.65,-143.7C63.64,-135.73 68.45,-126.1 72.87,-117.26"/>
<polygon fill="black" stroke="black" points="76.11,-118.61 77.45,-108.1 69.85,-115.48 76.11,-118.61"/>
<g id="a_edge4&#45;headlabel"><a xlink:href="dir_000072_000027.html" target="_top" xlink:title="41">
<text text-anchor="middle" x="77.04" y="-120.6" font-family="Helvetica" font-size="10.00">41</text>
</a>
</g>
</g>
<!-- dir_9ea4e586f66390a322fbb0c5dd82a394&#45;&gt;dir_b31d54d5631803016a26f28213a41162 -->
<g id="edge5" class="edge">
<title>dir_9ea4e586f66390a322fbb0c5dd82a394&#45;&gt;dir_b31d54d5631803016a26f28213a41162</title>
<path fill="none" stroke="black" d="M78.19,-147.16C81.12,-145.97 84.09,-144.89 87,-144 137.52,-128.56 287.59,-148.09 322,-108 337.05,-90.46 335.49,-74.77 322,-56 305.74,-33.38 274.96,-24.4 250.09,-20.93"/>
<polygon fill="black" stroke="black" points="250.18,-17.41 239.85,-19.75 249.39,-24.37 250.18,-17.41"/>
<g id="a_edge5&#45;headlabel"><a xlink:href="dir_000072_000034.html" target="_top" xlink:title="3">
<text text-anchor="middle" x="254.08" y="-12.5" font-family="Helvetica" font-size="10.00">3</text>
</a>
</g>
</g>
</g>
</svg>
