<?xml version="1.0" encoding="UTF-8" standalone="no"?>
<!DOCTYPE svg PUBLIC "-//W3C//DTD SVG 1.1//EN"
 "http://www.w3.org/Graphics/SVG/1.1/DTD/svg11.dtd">
<!-- Generated by graphviz version 2.44.0 (0)
 -->
<!-- Title: /home/ec2&#45;user/workspace/vsomeip/implementation/plugin Pages: 1 -->
<svg width="392pt" height="183pt"
 viewBox="0.00 0.00 391.50 183.00" xmlns="http://www.w3.org/2000/svg" xmlns:xlink="http://www.w3.org/1999/xlink">
<g id="graph0" class="graph" transform="scale(1 1) rotate(0) translate(4 179)">
<title>/home/ec2&#45;user/workspace/vsomeip/implementation/plugin</title>
<polygon fill="white" stroke="transparent" points="-4,4 -4,-179 387.5,-179 387.5,4 -4,4"/>
<g id="clust1" class="cluster">
<title>clusterdir_ed7c47a03c091bb19436c59342bc9555</title>
<g id="a_clust1"><a xlink:href="dir_ed7c47a03c091bb19436c59342bc9555.html" target="_top" xlink:title="implementation">
<polygon fill="#edf0f7" stroke="#404040" stroke-dasharray="5,2" points="8,-8 8,-167 318,-167 318,-8 8,-8"/>
<text text-anchor="middle" x="163" y="-155" font-family="Helvetica" font-size="10.00">implementation</text>
</a>
</g>
</g>
<g id="clust2" class="cluster">
<title>clusterdir_f132f3c082319ace6827058f7d1d886d</title>
<g id="a_clust2"><a xlink:href="dir_f132f3c082319ace6827058f7d1d886d.html" target="_top">
<polygon fill="#edf0f7" stroke="#404040" stroke-width="2" points="16,-16 16,-140 158,-140 158,-16 16,-16"/>
</a>
</g>
</g>
<!-- dir_56126a1d848d4a1832817232e79a5a18 -->
<g id="node1" class="node">
<title>dir_56126a1d848d4a1832817232e79a5a18</title>
<g id="a_node1"><a xlink:href="dir_56126a1d848d4a1832817232e79a5a18.html" target="_top" xlink:title="configuration">
<polygon fill="#a2b4d6" stroke="red" points="238,-60 166,-60 166,-24 238,-24 238,-60"/>
<text text-anchor="middle" x="202" y="-39.5" font-family="Helvetica" font-size="10.00">configuration</text>
</a>
</g>
</g>
<!-- dir_6972051101bc5f8d68d31d49f06d7aaf -->
<g id="node2" class="node">
<title>dir_6972051101bc5f8d68d31d49f06d7aaf</title>
<g id="a_node2"><a xlink:href="dir_6972051101bc5f8d68d31d49f06d7aaf.html" target="_top" xlink:title="utility">
<polygon fill="#a2b4d6" stroke="red" points="310,-60 256,-60 256,-24 310,-24 310,-60"/>
<text text-anchor="middle" x="283" y="-39.5" font-family="Helvetica" font-size="10.00">utility</text>
</a>
</g>
</g>
<!-- dir_f132f3c082319ace6827058f7d1d886d -->
<g id="node3" class="node">
<title>dir_f132f3c082319ace6827058f7d1d886d</title>
<text text-anchor="middle" x="123" y="-111.5" font-family="Helvetica" font-size="10.00">plugin</text>
</g>
<!-- dir_6934c5d6106915e4b5f85649d83ca745 -->
<g id="node4" class="node">
<title>dir_6934c5d6106915e4b5f85649d83ca745</title>
<g id="a_node4"><a xlink:href="dir_6934c5d6106915e4b5f85649d83ca745.html" target="_top" xlink:title="include">
<polygon fill="#a2b4d6" stroke="#404040" points="78,-60 24,-60 24,-24 78,-24 78,-60"/>
<text text-anchor="middle" x="51" y="-39.5" font-family="Helvetica" font-size="10.00">include</text>
</a>
</g>
</g>
<!-- dir_c39954b8d6a494a0104c2c88eccb2a6d -->
<g id="node5" class="node">
<title>dir_c39954b8d6a494a0104c2c88eccb2a6d</title>
<g id="a_node5"><a xlink:href="dir_c39954b8d6a494a0104c2c88eccb2a6d.html" target="_top" xlink:title="src">
<polygon fill="#a2b4d6" stroke="#404040" points="78,-132 24,-132 24,-96 78,-96 78,-132"/>
<text text-anchor="middle" x="51" y="-111.5" font-family="Helvetica" font-size="10.00">src</text>
</a>
</g>
</g>
<!-- dir_c39954b8d6a494a0104c2c88eccb2a6d&#45;&gt;dir_56126a1d848d4a1832817232e79a5a18 -->
<g id="edge1" class="edge">
<title>dir_c39954b8d6a494a0104c2c88eccb2a6d&#45;&gt;dir_56126a1d848d4a1832817232e79a5a18</title>
<path fill="none" stroke="black" d="M78.11,-100.16C81.11,-98.75 84.12,-97.34 87,-96 109.99,-85.27 135.63,-73.44 156.85,-63.69"/>
<polygon fill="black" stroke="black" points="158.34,-66.86 165.96,-59.5 155.41,-60.5 158.34,-66.86"/>
<g id="a_edge1&#45;headlabel"><a xlink:href="dir_000071_000006.html" target="_top" xlink:title="1">
<text text-anchor="middle" x="156.25" y="-68.44" font-family="Helvetica" font-size="10.00">1</text>
</a>
</g>
</g>
<!-- dir_c39954b8d6a494a0104c2c88eccb2a6d&#45;&gt;dir_6972051101bc5f8d68d31d49f06d7aaf -->
<g id="edge3" class="edge">
<title>dir_c39954b8d6a494a0104c2c88eccb2a6d&#45;&gt;dir_6972051101bc5f8d68d31d49f06d7aaf</title>
<path fill="none" stroke="black" d="M78.26,-99.37C81.17,-98.14 84.12,-96.99 87,-96 152.96,-73.31 176.08,-82.79 246.03,-59.91"/>
<polygon fill="black" stroke="black" points="247.39,-63.15 255.74,-56.63 245.15,-56.52 247.39,-63.15"/>
<g id="a_edge3&#45;headlabel"><a xlink:href="dir_000071_000080.html" target="_top" xlink:title="1">
<text text-anchor="middle" x="244.89" y="-64.49" font-family="Helvetica" font-size="10.00">1</text>
</a>
</g>
</g>
<!-- dir_c39954b8d6a494a0104c2c88eccb2a6d&#45;&gt;dir_6934c5d6106915e4b5f85649d83ca745 -->
<g id="edge2" class="edge">
<title>dir_c39954b8d6a494a0104c2c88eccb2a6d&#45;&gt;dir_6934c5d6106915e4b5f85649d83ca745</title>
<path fill="none" stroke="black" d="M51,-95.7C51,-87.98 51,-78.71 51,-70.11"/>
<polygon fill="black" stroke="black" points="54.5,-70.1 51,-60.1 47.5,-70.1 54.5,-70.1"/>
<g id="a_edge2&#45;headlabel"><a xlink:href="dir_000071_000026.html" target="_top" xlink:title="2">
<text text-anchor="middle" x="57.34" y="-71.2" font-family="Helvetica" font-size="10.00">2</text>
</a>
</g>
</g>
<!-- dir_b31d54d5631803016a26f28213a41162 -->
<g id="node6" class="node">
<title>dir_b31d54d5631803016a26f28213a41162</title>
<g id="a_node6"><a xlink:href="dir_b31d54d5631803016a26f28213a41162.html" target="_top" xlink:title="interface">
<polygon fill="none" stroke="red" points="383.5,-60 328.5,-60 328.5,-24 383.5,-24 383.5,-60"/>
<text text-anchor="middle" x="356" y="-39.5" font-family="Helvetica" font-size="10.00">interface</text>
</a>
</g>
</g>
<!-- dir_c39954b8d6a494a0104c2c88eccb2a6d&#45;&gt;dir_b31d54d5631803016a26f28213a41162 -->
<g id="edge4" class="edge">
<title>dir_c39954b8d6a494a0104c2c88eccb2a6d&#45;&gt;dir_b31d54d5631803016a26f28213a41162</title>
<path fill="none" stroke="black" d="M78.19,-99.16C81.12,-97.97 84.09,-96.89 87,-96 184.89,-66.08 219.16,-90.39 318.63,-60.69"/>
<polygon fill="black" stroke="black" points="319.95,-63.95 328.46,-57.65 317.88,-57.26 319.95,-63.95"/>
<g id="a_edge4&#45;headlabel"><a xlink:href="dir_000071_000034.html" target="_top" xlink:title="1">
<text text-anchor="middle" x="317.35" y="-65.22" font-family="Helvetica" font-size="10.00">1</text>
</a>
</g>
</g>
</g>
</svg>
