<?xml version="1.0" encoding="UTF-8" standalone="no"?>
<!DOCTYPE svg PUBLIC "-//W3C//DTD SVG 1.1//EN"
 "http://www.w3.org/Graphics/SVG/1.1/DTD/svg11.dtd">
<!-- Generated by graphviz version 2.44.0 (0)
 -->
<!-- Title: /home/ec2&#45;user/workspace/vsomeip/implementation/compat/runtime Pages: 1 -->
<svg width="358pt" height="231pt"
 viewBox="0.00 0.00 358.00 231.00" xmlns="http://www.w3.org/2000/svg" xmlns:xlink="http://www.w3.org/1999/xlink">
<g id="graph0" class="graph" transform="scale(1 1) rotate(0) translate(4 227)">
<title>/home/ec2&#45;user/workspace/vsomeip/implementation/compat/runtime</title>
<polygon fill="white" stroke="transparent" points="-4,4 -4,-227 354,-227 354,4 -4,4"/>
<g id="clust1" class="cluster">
<title>clusterdir_2c8ea7a53eee326c363d0456e064cb96</title>
<g id="a_clust1"><a xlink:href="dir_2c8ea7a53eee326c363d0456e064cb96.html" target="_top" xlink:title="compat">
<polygon fill="#edf0f7" stroke="#7f7f7f" stroke-dasharray="5,2" points="8,-56 8,-215 230,-215 230,-56 8,-56"/>
<text text-anchor="middle" x="119" y="-203" font-family="Helvetica" font-size="10.00">compat</text>
</a>
</g>
</g>
<g id="clust2" class="cluster">
<title>clusterdir_38888aae6fdef4a4dee3fcee8dbbcc7c</title>
<g id="a_clust2"><a xlink:href="dir_38888aae6fdef4a4dee3fcee8dbbcc7c.html" target="_top">
<polygon fill="#edf0f7" stroke="#404040" stroke-width="2" points="16,-64 16,-188 158,-188 158,-64 16,-64"/>
</a>
</g>
</g>
<!-- dir_25d20213550c54e1074ad9cd78db84af -->
<g id="node1" class="node">
<title>dir_25d20213550c54e1074ad9cd78db84af</title>
<g id="a_node1"><a xlink:href="dir_25d20213550c54e1074ad9cd78db84af.html" target="_top" xlink:title="message">
<polygon fill="#a2b4d6" stroke="red" points="222,-108 166,-108 166,-72 222,-72 222,-108"/>
<text text-anchor="middle" x="194" y="-87.5" font-family="Helvetica" font-size="10.00">message</text>
</a>
</g>
</g>
<!-- dir_38888aae6fdef4a4dee3fcee8dbbcc7c -->
<g id="node2" class="node">
<title>dir_38888aae6fdef4a4dee3fcee8dbbcc7c</title>
<text text-anchor="middle" x="123" y="-159.5" font-family="Helvetica" font-size="10.00">runtime</text>
</g>
<!-- dir_7245577b1f7bfaf28853ada6e265b9c5 -->
<g id="node3" class="node">
<title>dir_7245577b1f7bfaf28853ada6e265b9c5</title>
<g id="a_node3"><a xlink:href="dir_7245577b1f7bfaf28853ada6e265b9c5.html" target="_top" xlink:title="include">
<polygon fill="#a2b4d6" stroke="#404040" points="113,-108 59,-108 59,-72 113,-72 113,-108"/>
<text text-anchor="middle" x="86" y="-87.5" font-family="Helvetica" font-size="10.00">include</text>
</a>
</g>
</g>
<!-- dir_b31d54d5631803016a26f28213a41162 -->
<g id="node5" class="node">
<title>dir_b31d54d5631803016a26f28213a41162</title>
<g id="a_node5"><a xlink:href="dir_b31d54d5631803016a26f28213a41162.html" target="_top" xlink:title="interface">
<polygon fill="none" stroke="red" points="195.5,-36 140.5,-36 140.5,0 195.5,0 195.5,-36"/>
<text text-anchor="middle" x="168" y="-15.5" font-family="Helvetica" font-size="10.00">interface</text>
</a>
</g>
</g>
<!-- dir_7245577b1f7bfaf28853ada6e265b9c5&#45;&gt;dir_b31d54d5631803016a26f28213a41162 -->
<g id="edge1" class="edge">
<title>dir_7245577b1f7bfaf28853ada6e265b9c5&#45;&gt;dir_b31d54d5631803016a26f28213a41162</title>
<path fill="none" stroke="black" d="M100.87,-71.95C105.8,-66.63 111.46,-60.88 117,-56 122.29,-51.34 128.16,-46.67 133.97,-42.31"/>
<polygon fill="black" stroke="black" points="136.37,-44.89 142.37,-36.16 132.23,-39.24 136.37,-44.89"/>
<g id="a_edge1&#45;headlabel"><a xlink:href="dir_000020_000034.html" target="_top" xlink:title="2">
<text text-anchor="middle" x="135.15" y="-46.8" font-family="Helvetica" font-size="10.00">2</text>
</a>
</g>
</g>
<!-- dir_0f6e7415bbcc6155900bcd8fb95f616a -->
<g id="node4" class="node">
<title>dir_0f6e7415bbcc6155900bcd8fb95f616a</title>
<g id="a_node4"><a xlink:href="dir_0f6e7415bbcc6155900bcd8fb95f616a.html" target="_top" xlink:title="src">
<polygon fill="#a2b4d6" stroke="#404040" points="78,-180 24,-180 24,-144 78,-144 78,-180"/>
<text text-anchor="middle" x="51" y="-159.5" font-family="Helvetica" font-size="10.00">src</text>
</a>
</g>
</g>
<!-- dir_0f6e7415bbcc6155900bcd8fb95f616a&#45;&gt;dir_25d20213550c54e1074ad9cd78db84af -->
<g id="edge2" class="edge">
<title>dir_0f6e7415bbcc6155900bcd8fb95f616a&#45;&gt;dir_25d20213550c54e1074ad9cd78db84af</title>
<path fill="none" stroke="black" d="M78.22,-148.08C103.11,-136.25 138.43,-119.44 156.68,-110.56"/>
<polygon fill="black" stroke="black" points="158.34,-113.64 165.77,-106.08 155.25,-107.37 158.34,-113.64"/>
<g id="a_edge2&#45;headlabel"><a xlink:href="dir_000065_000040.html" target="_top" xlink:title="4">
<text text-anchor="middle" x="156.37" y="-115.28" font-family="Helvetica" font-size="10.00">4</text>
</a>
</g>
</g>
<!-- dir_0f6e7415bbcc6155900bcd8fb95f616a&#45;&gt;dir_7245577b1f7bfaf28853ada6e265b9c5 -->
<g id="edge4" class="edge">
<title>dir_0f6e7415bbcc6155900bcd8fb95f616a&#45;&gt;dir_7245577b1f7bfaf28853ada6e265b9c5</title>
<path fill="none" stroke="black" d="M59.65,-143.7C63.64,-135.73 68.45,-126.1 72.87,-117.26"/>
<polygon fill="black" stroke="black" points="76.11,-118.61 77.45,-108.1 69.85,-115.48 76.11,-118.61"/>
<g id="a_edge4&#45;headlabel"><a xlink:href="dir_000065_000020.html" target="_top" xlink:title="4">
<text text-anchor="middle" x="77.04" y="-120.6" font-family="Helvetica" font-size="10.00">4</text>
</a>
</g>
</g>
<!-- dir_0f6e7415bbcc6155900bcd8fb95f616a&#45;&gt;dir_b31d54d5631803016a26f28213a41162 -->
<g id="edge5" class="edge">
<title>dir_0f6e7415bbcc6155900bcd8fb95f616a&#45;&gt;dir_b31d54d5631803016a26f28213a41162</title>
<path fill="none" stroke="black" d="M78.28,-147.42C81.19,-146.19 84.13,-145.02 87,-144 150.4,-121.53 192.48,-160.92 234,-108 248.27,-89.82 245.68,-75.94 234,-56 227.52,-44.93 216.37,-36.92 205.07,-31.25"/>
<polygon fill="black" stroke="black" points="206.2,-27.92 195.64,-27.02 203.33,-34.31 206.2,-27.92"/>
<g id="a_edge5&#45;headlabel"><a xlink:href="dir_000065_000034.html" target="_top" xlink:title="4">
<text text-anchor="middle" x="210.64" y="-24.3" font-family="Helvetica" font-size="10.00">4</text>
</a>
</g>
</g>
<!-- dir_56126a1d848d4a1832817232e79a5a18 -->
<g id="node6" class="node">
<title>dir_56126a1d848d4a1832817232e79a5a18</title>
<g id="a_node6"><a xlink:href="dir_56126a1d848d4a1832817232e79a5a18.html" target="_top" xlink:title="configuration">
<polygon fill="none" stroke="red" stroke-dasharray="5,2" points="350,-108 278,-108 278,-72 350,-72 350,-108"/>
<text text-anchor="middle" x="314" y="-87.5" font-family="Helvetica" font-size="10.00">configuration</text>
</a>
</g>
</g>
<!-- dir_0f6e7415bbcc6155900bcd8fb95f616a&#45;&gt;dir_56126a1d848d4a1832817232e79a5a18 -->
<g id="edge3" class="edge">
<title>dir_0f6e7415bbcc6155900bcd8fb95f616a&#45;&gt;dir_56126a1d848d4a1832817232e79a5a18</title>
<path fill="none" stroke="black" d="M78.24,-147.31C81.16,-146.09 84.11,-144.96 87,-144 163.18,-118.68 186.51,-128.96 264,-108 265.27,-107.66 266.55,-107.3 267.85,-106.93"/>
<polygon fill="black" stroke="black" points="269.29,-110.15 277.85,-103.9 267.26,-103.45 269.29,-110.15"/>
<g id="a_edge3&#45;headlabel"><a xlink:href="dir_000065_000006.html" target="_top" xlink:title="1">
<text text-anchor="middle" x="266.68" y="-111.41" font-family="Helvetica" font-size="10.00">1</text>
</a>
</g>
</g>
</g>
</svg>
