<?xml version="1.0" encoding="UTF-8" standalone="no"?>
<!DOCTYPE svg PUBLIC "-//W3C//DTD SVG 1.1//EN"
 "http://www.w3.org/Graphics/SVG/1.1/DTD/svg11.dtd">
<!-- Generated by graphviz version 2.44.0 (0)
 -->
<!-- Title: /home/ec2&#45;user/workspace/vsomeip/implementation/message Pages: 1 -->
<svg width="394pt" height="183pt"
 viewBox="0.00 0.00 393.50 183.00" xmlns="http://www.w3.org/2000/svg" xmlns:xlink="http://www.w3.org/1999/xlink">
<g id="graph0" class="graph" transform="scale(1 1) rotate(0) translate(4 179)">
<title>/home/ec2&#45;user/workspace/vsomeip/implementation/message</title>
<polygon fill="white" stroke="transparent" points="-4,4 -4,-179 389.5,-179 389.5,4 -4,4"/>
<g id="clust1" class="cluster">
<title>clusterdir_ed7c47a03c091bb19436c59342bc9555</title>
<g id="a_clust1"><a xlink:href="dir_ed7c47a03c091bb19436c59342bc9555.html" target="_top" xlink:title="implementation">
<polygon fill="#edf0f7" stroke="#404040" stroke-dasharray="5,2" points="8,-8 8,-167 320,-167 320,-8 8,-8"/>
<text text-anchor="middle" x="164" y="-155" font-family="Helvetica" font-size="10.00">implementation</text>
</a>
</g>
</g>
<g id="clust2" class="cluster">
<title>clusterdir_3ce07147fcbac31fc4d5892a851f6627</title>
<g id="a_clust2"><a xlink:href="dir_3ce07147fcbac31fc4d5892a851f6627.html" target="_top">
<polygon fill="#edf0f7" stroke="#404040" stroke-width="2" points="16,-16 16,-140 160,-140 160,-16 16,-16"/>
</a>
</g>
</g>
<!-- dir_6972051101bc5f8d68d31d49f06d7aaf -->
<g id="node1" class="node">
<title>dir_6972051101bc5f8d68d31d49f06d7aaf</title>
<g id="a_node1"><a xlink:href="dir_6972051101bc5f8d68d31d49f06d7aaf.html" target="_top" xlink:title="utility">
<polygon fill="#a2b4d6" stroke="red" points="222,-60 168,-60 168,-24 222,-24 222,-60"/>
<text text-anchor="middle" x="195" y="-39.5" font-family="Helvetica" font-size="10.00">utility</text>
</a>
</g>
</g>
<!-- dir_56126a1d848d4a1832817232e79a5a18 -->
<g id="node2" class="node">
<title>dir_56126a1d848d4a1832817232e79a5a18</title>
<g id="a_node2"><a xlink:href="dir_56126a1d848d4a1832817232e79a5a18.html" target="_top" xlink:title="configuration">
<polygon fill="#a2b4d6" stroke="red" points="312,-60 240,-60 240,-24 312,-24 312,-60"/>
<text text-anchor="middle" x="276" y="-39.5" font-family="Helvetica" font-size="10.00">configuration</text>
</a>
</g>
</g>
<!-- dir_3ce07147fcbac31fc4d5892a851f6627 -->
<g id="node3" class="node">
<title>dir_3ce07147fcbac31fc4d5892a851f6627</title>
<text text-anchor="middle" x="124" y="-111.5" font-family="Helvetica" font-size="10.00">message</text>
</g>
<!-- dir_df1b5d51384876831697d874df01bc5a -->
<g id="node4" class="node">
<title>dir_df1b5d51384876831697d874df01bc5a</title>
<g id="a_node4"><a xlink:href="dir_df1b5d51384876831697d874df01bc5a.html" target="_top" xlink:title="include">
<polygon fill="#a2b4d6" stroke="#404040" points="78,-60 24,-60 24,-24 78,-24 78,-60"/>
<text text-anchor="middle" x="51" y="-39.5" font-family="Helvetica" font-size="10.00">include</text>
</a>
</g>
</g>
<!-- dir_1d85b942c888c2d8fe3d3a213459b801 -->
<g id="node5" class="node">
<title>dir_1d85b942c888c2d8fe3d3a213459b801</title>
<g id="a_node5"><a xlink:href="dir_1d85b942c888c2d8fe3d3a213459b801.html" target="_top" xlink:title="src">
<polygon fill="#a2b4d6" stroke="#404040" points="78,-132 24,-132 24,-96 78,-96 78,-132"/>
<text text-anchor="middle" x="51" y="-111.5" font-family="Helvetica" font-size="10.00">src</text>
</a>
</g>
</g>
<!-- dir_1d85b942c888c2d8fe3d3a213459b801&#45;&gt;dir_6972051101bc5f8d68d31d49f06d7aaf -->
<g id="edge2" class="edge">
<title>dir_1d85b942c888c2d8fe3d3a213459b801&#45;&gt;dir_6972051101bc5f8d68d31d49f06d7aaf</title>
<path fill="none" stroke="black" d="M78.12,-100.18C81.12,-98.77 84.12,-97.35 87,-96 118.25,-81.31 128.56,-77.68 158.63,-62.67"/>
<polygon fill="black" stroke="black" points="160.31,-65.74 167.67,-58.11 157.16,-59.49 160.31,-65.74"/>
<g id="a_edge2&#45;headlabel"><a xlink:href="dir_000070_000080.html" target="_top" xlink:title="4">
<text text-anchor="middle" x="158.38" y="-67.39" font-family="Helvetica" font-size="10.00">4</text>
</a>
</g>
</g>
<!-- dir_1d85b942c888c2d8fe3d3a213459b801&#45;&gt;dir_56126a1d848d4a1832817232e79a5a18 -->
<g id="edge1" class="edge">
<title>dir_1d85b942c888c2d8fe3d3a213459b801&#45;&gt;dir_56126a1d848d4a1832817232e79a5a18</title>
<path fill="none" stroke="black" d="M78.28,-99.44C81.19,-98.2 84.14,-97.02 87,-96 146.21,-74.85 166.17,-79.2 230.03,-60.09"/>
<polygon fill="black" stroke="black" points="231.25,-63.38 239.78,-57.1 229.19,-56.69 231.25,-63.38"/>
<g id="a_edge1&#45;headlabel"><a xlink:href="dir_000070_000006.html" target="_top" xlink:title="1">
<text text-anchor="middle" x="228.64" y="-64.65" font-family="Helvetica" font-size="10.00">1</text>
</a>
</g>
</g>
<!-- dir_1d85b942c888c2d8fe3d3a213459b801&#45;&gt;dir_df1b5d51384876831697d874df01bc5a -->
<g id="edge4" class="edge">
<title>dir_1d85b942c888c2d8fe3d3a213459b801&#45;&gt;dir_df1b5d51384876831697d874df01bc5a</title>
<path fill="none" stroke="black" d="M51,-95.7C51,-87.98 51,-78.71 51,-70.11"/>
<polygon fill="black" stroke="black" points="54.5,-70.1 51,-60.1 47.5,-70.1 54.5,-70.1"/>
<g id="a_edge4&#45;headlabel"><a xlink:href="dir_000070_000025.html" target="_top" xlink:title="12">
<text text-anchor="middle" x="57.34" y="-71.2" font-family="Helvetica" font-size="10.00">12</text>
</a>
</g>
</g>
<!-- dir_b31d54d5631803016a26f28213a41162 -->
<g id="node6" class="node">
<title>dir_b31d54d5631803016a26f28213a41162</title>
<g id="a_node6"><a xlink:href="dir_b31d54d5631803016a26f28213a41162.html" target="_top" xlink:title="interface">
<polygon fill="none" stroke="red" points="385.5,-60 330.5,-60 330.5,-24 385.5,-24 385.5,-60"/>
<text text-anchor="middle" x="358" y="-39.5" font-family="Helvetica" font-size="10.00">interface</text>
</a>
</g>
</g>
<!-- dir_1d85b942c888c2d8fe3d3a213459b801&#45;&gt;dir_b31d54d5631803016a26f28213a41162 -->
<g id="edge3" class="edge">
<title>dir_1d85b942c888c2d8fe3d3a213459b801&#45;&gt;dir_b31d54d5631803016a26f28213a41162</title>
<path fill="none" stroke="black" d="M78.19,-99.16C81.12,-97.97 84.09,-96.89 87,-96 185.82,-65.87 220.35,-90.62 320.86,-60.62"/>
<polygon fill="black" stroke="black" points="321.95,-63.95 330.47,-57.65 319.88,-57.26 321.95,-63.95"/>
<g id="a_edge3&#45;headlabel"><a xlink:href="dir_000070_000034.html" target="_top" xlink:title="2">
<text text-anchor="middle" x="319.35" y="-65.22" font-family="Helvetica" font-size="10.00">2</text>
</a>
</g>
</g>
</g>
</svg>
