<?xml version="1.0" encoding="UTF-8" standalone="no"?>
<!DOCTYPE svg PUBLIC "-//W3C//DTD SVG 1.1//EN"
 "http://www.w3.org/Graphics/SVG/1.1/DTD/svg11.dtd">
<!-- Generated by graphviz version 2.44.0 (0)
 -->
<!-- Title: /home/ec2&#45;user/workspace/vsomeip/implementation/configuration Pages: 1 -->
<svg width="740pt" height="247pt"
 viewBox="0.00 0.00 739.50 247.00" xmlns="http://www.w3.org/2000/svg" xmlns:xlink="http://www.w3.org/1999/xlink">
<g id="graph0" class="graph" transform="scale(1 1) rotate(0) translate(4 243)">
<title>/home/ec2&#45;user/workspace/vsomeip/implementation/configuration</title>
<polygon fill="white" stroke="transparent" points="-4,4 -4,-243 735.5,-243 735.5,4 -4,4"/>
<g id="clust1" class="cluster">
<title>clusterdir_ed7c47a03c091bb19436c59342bc9555</title>
<g id="a_clust1"><a xlink:href="dir_ed7c47a03c091bb19436c59342bc9555.html" target="_top" xlink:title="implementation">
<polygon fill="#edf0f7" stroke="#404040" stroke-dasharray="5,2" points="8,-8 8,-231 668,-231 668,-8 8,-8"/>
<text text-anchor="middle" x="338" y="-219" font-family="Helvetica" font-size="10.00">implementation</text>
</a>
</g>
</g>
<g id="clust2" class="cluster">
<title>clusterdir_56126a1d848d4a1832817232e79a5a18</title>
<g id="a_clust2"><a xlink:href="dir_56126a1d848d4a1832817232e79a5a18.html" target="_top">
<polygon fill="#edf0f7" stroke="#404040" stroke-width="2" points="16,-80 16,-204 176,-204 176,-80 16,-80"/>
</a>
</g>
</g>
<!-- dir_476f23a9d8d07b93b910130c774b1932 -->
<g id="node1" class="node">
<title>dir_476f23a9d8d07b93b910130c774b1932</title>
<g id="a_node1"><a xlink:href="dir_476f23a9d8d07b93b910130c774b1932.html" target="_top" xlink:title="e2e_protection">
<polygon fill="#a2b4d6" stroke="red" points="138,-52 58,-52 58,-16 138,-16 138,-52"/>
<text text-anchor="middle" x="98" y="-31.5" font-family="Helvetica" font-size="10.00">e2e_protection</text>
</a>
</g>
</g>
<!-- dir_96312f6272b562b103a6f862042db4a4 -->
<g id="node2" class="node">
<title>dir_96312f6272b562b103a6f862042db4a4</title>
<g id="a_node2"><a xlink:href="dir_96312f6272b562b103a6f862042db4a4.html" target="_top" xlink:title="security">
<polygon fill="#a2b4d6" stroke="red" points="355,-52 301,-52 301,-16 355,-16 355,-52"/>
<text text-anchor="middle" x="328" y="-31.5" font-family="Helvetica" font-size="10.00">security</text>
</a>
</g>
</g>
<!-- dir_282dd5a982ba644edb6efcfaee8b7735 -->
<g id="node3" class="node">
<title>dir_282dd5a982ba644edb6efcfaee8b7735</title>
<g id="a_node3"><a xlink:href="dir_282dd5a982ba644edb6efcfaee8b7735.html" target="_top" xlink:title="tracing">
<polygon fill="#a2b4d6" stroke="red" points="210,-52 156,-52 156,-16 210,-16 210,-52"/>
<text text-anchor="middle" x="183" y="-31.5" font-family="Helvetica" font-size="10.00">tracing</text>
</a>
</g>
</g>
<!-- dir_a341cf5cf1894ba060679bdee57be3d6 -->
<g id="node4" class="node">
<title>dir_a341cf5cf1894ba060679bdee57be3d6</title>
<g id="a_node4"><a xlink:href="dir_a341cf5cf1894ba060679bdee57be3d6.html" target="_top" xlink:title="logger">
<polygon fill="#a2b4d6" stroke="red" points="516,-124 462,-124 462,-88 516,-88 516,-124"/>
<text text-anchor="middle" x="489" y="-103.5" font-family="Helvetica" font-size="10.00">logger</text>
</a>
</g>
</g>
<!-- dir_43cc1d4eb251b5d8cbfdd5909fd3ba45 -->
<g id="node5" class="node">
<title>dir_43cc1d4eb251b5d8cbfdd5909fd3ba45</title>
<g id="a_node5"><a xlink:href="dir_43cc1d4eb251b5d8cbfdd5909fd3ba45.html" target="_top" xlink:title="protocol">
<polygon fill="#a2b4d6" stroke="red" points="588,-124 534,-124 534,-88 588,-88 588,-124"/>
<text text-anchor="middle" x="561" y="-103.5" font-family="Helvetica" font-size="10.00">protocol</text>
</a>
</g>
</g>
<!-- dir_cf72682d9b1c0bc1c562a1f19b8defa0 -->
<g id="node6" class="node">
<title>dir_cf72682d9b1c0bc1c562a1f19b8defa0</title>
<g id="a_node6"><a xlink:href="dir_cf72682d9b1c0bc1c562a1f19b8defa0.html" target="_top" xlink:title="routing">
<polygon fill="#a2b4d6" stroke="red" points="660,-124 606,-124 606,-88 660,-88 660,-124"/>
<text text-anchor="middle" x="633" y="-103.5" font-family="Helvetica" font-size="10.00">routing</text>
</a>
</g>
</g>
<!-- dir_061a1b0a0a40a7427f2461ed2f520013 -->
<g id="node7" class="node">
<title>dir_061a1b0a0a40a7427f2461ed2f520013</title>
<g id="a_node7"><a xlink:href="dir_061a1b0a0a40a7427f2461ed2f520013.html" target="_top" xlink:title="service_discovery">
<polygon fill="#a2b4d6" stroke="red" points="280,-124 184,-124 184,-88 280,-88 280,-124"/>
<text text-anchor="middle" x="232" y="-103.5" font-family="Helvetica" font-size="10.00">service_discovery</text>
</a>
</g>
</g>
<!-- dir_6972051101bc5f8d68d31d49f06d7aaf -->
<g id="node8" class="node">
<title>dir_6972051101bc5f8d68d31d49f06d7aaf</title>
<g id="a_node8"><a xlink:href="dir_6972051101bc5f8d68d31d49f06d7aaf.html" target="_top" xlink:title="utility">
<polygon fill="#a2b4d6" stroke="red" points="352,-124 298,-124 298,-88 352,-88 352,-124"/>
<text text-anchor="middle" x="325" y="-103.5" font-family="Helvetica" font-size="10.00">utility</text>
</a>
</g>
</g>
<!-- dir_f132f3c082319ace6827058f7d1d886d -->
<g id="node9" class="node">
<title>dir_f132f3c082319ace6827058f7d1d886d</title>
<g id="a_node9"><a xlink:href="dir_f132f3c082319ace6827058f7d1d886d.html" target="_top" xlink:title="plugin">
<polygon fill="#a2b4d6" stroke="red" points="424,-124 370,-124 370,-88 424,-88 424,-124"/>
<text text-anchor="middle" x="397" y="-103.5" font-family="Helvetica" font-size="10.00">plugin</text>
</a>
</g>
</g>
<!-- dir_56126a1d848d4a1832817232e79a5a18 -->
<g id="node10" class="node">
<title>dir_56126a1d848d4a1832817232e79a5a18</title>
<text text-anchor="middle" x="132" y="-175.5" font-family="Helvetica" font-size="10.00">configuration</text>
</g>
<!-- dir_dca01e643b0ec4b7c70c70c593767eaa -->
<g id="node11" class="node">
<title>dir_dca01e643b0ec4b7c70c70c593767eaa</title>
<g id="a_node11"><a xlink:href="dir_dca01e643b0ec4b7c70c70c593767eaa.html" target="_top" xlink:title="include">
<polygon fill="#a2b4d6" stroke="#404040" points="166,-124 112,-124 112,-88 166,-88 166,-124"/>
<text text-anchor="middle" x="139" y="-103.5" font-family="Helvetica" font-size="10.00">include</text>
</a>
</g>
</g>
<!-- dir_dca01e643b0ec4b7c70c70c593767eaa&#45;&gt;dir_476f23a9d8d07b93b910130c774b1932 -->
<g id="edge2" class="edge">
<title>dir_dca01e643b0ec4b7c70c70c593767eaa&#45;&gt;dir_476f23a9d8d07b93b910130c774b1932</title>
<path fill="none" stroke="black" d="M128.87,-87.7C124.15,-79.64 118.44,-69.89 113.22,-60.98"/>
<polygon fill="black" stroke="black" points="116.09,-58.96 108.02,-52.1 110.05,-62.5 116.09,-58.96"/>
<g id="a_edge2&#45;headlabel"><a xlink:href="dir_000021_000012.html" target="_top" xlink:title="2">
<text text-anchor="middle" x="120.36" y="-58.13" font-family="Helvetica" font-size="10.00">2</text>
</a>
</g>
</g>
<!-- dir_dca01e643b0ec4b7c70c70c593767eaa&#45;&gt;dir_96312f6272b562b103a6f862042db4a4 -->
<g id="edge3" class="edge">
<title>dir_dca01e643b0ec4b7c70c70c593767eaa&#45;&gt;dir_96312f6272b562b103a6f862042db4a4</title>
<path fill="none" stroke="black" d="M157.85,-87.85C161.68,-84.94 165.83,-82.16 170,-80 208.73,-59.93 257.58,-47.78 290.63,-41.25"/>
<polygon fill="black" stroke="black" points="291.6,-44.63 300.78,-39.32 290.3,-37.75 291.6,-44.63"/>
<g id="a_edge3&#45;headlabel"><a xlink:href="dir_000021_000062.html" target="_top" xlink:title="2">
<text text-anchor="middle" x="288.6" y="-45.59" font-family="Helvetica" font-size="10.00">2</text>
</a>
</g>
</g>
<!-- dir_dca01e643b0ec4b7c70c70c593767eaa&#45;&gt;dir_282dd5a982ba644edb6efcfaee8b7735 -->
<g id="edge1" class="edge">
<title>dir_dca01e643b0ec4b7c70c70c593767eaa&#45;&gt;dir_282dd5a982ba644edb6efcfaee8b7735</title>
<path fill="none" stroke="black" d="M149.88,-87.7C154.99,-79.56 161.2,-69.69 166.84,-60.7"/>
<polygon fill="black" stroke="black" points="169.89,-62.43 172.25,-52.1 163.96,-58.71 169.89,-62.43"/>
<g id="a_edge1&#45;headlabel"><a xlink:href="dir_000021_000079.html" target="_top" xlink:title="1">
<text text-anchor="middle" x="170.38" y="-64.49" font-family="Helvetica" font-size="10.00">1</text>
</a>
</g>
</g>
<!-- dir_b31d54d5631803016a26f28213a41162 -->
<g id="node13" class="node">
<title>dir_b31d54d5631803016a26f28213a41162</title>
<g id="a_node13"><a xlink:href="dir_b31d54d5631803016a26f28213a41162.html" target="_top" xlink:title="interface">
<polygon fill="none" stroke="red" points="731.5,-52 676.5,-52 676.5,-16 731.5,-16 731.5,-52"/>
<text text-anchor="middle" x="704" y="-31.5" font-family="Helvetica" font-size="10.00">interface</text>
</a>
</g>
</g>
<!-- dir_dca01e643b0ec4b7c70c70c593767eaa&#45;&gt;dir_b31d54d5631803016a26f28213a41162 -->
<g id="edge4" class="edge">
<title>dir_dca01e643b0ec4b7c70c70c593767eaa&#45;&gt;dir_b31d54d5631803016a26f28213a41162</title>
<path fill="none" stroke="black" d="M156.49,-87.84C160.62,-84.7 165.22,-81.84 170,-80 271.33,-41.03 548.1,-79.7 666.44,-53.08"/>
<polygon fill="black" stroke="black" points="667.53,-56.41 676.37,-50.58 665.82,-49.62 667.53,-56.41"/>
<g id="a_edge4&#45;headlabel"><a xlink:href="dir_000021_000034.html" target="_top" xlink:title="5">
<text text-anchor="middle" x="664.74" y="-57.54" font-family="Helvetica" font-size="10.00">5</text>
</a>
</g>
</g>
<!-- dir_2358b23896e7c9ac9fc7fa42dba11fd1 -->
<g id="node12" class="node">
<title>dir_2358b23896e7c9ac9fc7fa42dba11fd1</title>
<g id="a_node12"><a xlink:href="dir_2358b23896e7c9ac9fc7fa42dba11fd1.html" target="_top" xlink:title="src">
<polygon fill="#a2b4d6" stroke="#404040" points="78,-196 24,-196 24,-160 78,-160 78,-196"/>
<text text-anchor="middle" x="51" y="-175.5" font-family="Helvetica" font-size="10.00">src</text>
</a>
</g>
</g>
<!-- dir_2358b23896e7c9ac9fc7fa42dba11fd1&#45;&gt;dir_96312f6272b562b103a6f862042db4a4 -->
<g id="edge8" class="edge">
<title>dir_2358b23896e7c9ac9fc7fa42dba11fd1&#45;&gt;dir_96312f6272b562b103a6f862042db4a4</title>
<path fill="none" stroke="black" d="M78.15,-163.02C81.09,-161.86 84.07,-160.82 87,-160 161.45,-139.2 381.24,-181.42 433,-124 446.09,-109.47 443.77,-96.33 433,-80 418,-57.25 388.86,-45.96 365.08,-40.38"/>
<polygon fill="black" stroke="black" points="365.78,-36.95 355.27,-38.32 364.34,-43.8 365.78,-36.95"/>
<g id="a_edge8&#45;headlabel"><a xlink:href="dir_000066_000062.html" target="_top" xlink:title="2">
<text text-anchor="middle" x="369.88" y="-32.41" font-family="Helvetica" font-size="10.00">2</text>
</a>
</g>
</g>
<!-- dir_2358b23896e7c9ac9fc7fa42dba11fd1&#45;&gt;dir_a341cf5cf1894ba060679bdee57be3d6 -->
<g id="edge9" class="edge">
<title>dir_2358b23896e7c9ac9fc7fa42dba11fd1&#45;&gt;dir_a341cf5cf1894ba060679bdee57be3d6</title>
<path fill="none" stroke="black" d="M78.15,-163C81.08,-161.85 84.07,-160.81 87,-160 242.39,-116.95 291.62,-163.3 448,-124 449.26,-123.68 450.53,-123.33 451.81,-122.96"/>
<polygon fill="black" stroke="black" points="453.23,-126.17 461.59,-119.65 450.99,-119.54 453.23,-126.17"/>
<g id="a_edge9&#45;headlabel"><a xlink:href="dir_000066_000039.html" target="_top" xlink:title="1">
<text text-anchor="middle" x="450.74" y="-127.51" font-family="Helvetica" font-size="10.00">1</text>
</a>
</g>
</g>
<!-- dir_2358b23896e7c9ac9fc7fa42dba11fd1&#45;&gt;dir_43cc1d4eb251b5d8cbfdd5909fd3ba45 -->
<g id="edge6" class="edge">
<title>dir_2358b23896e7c9ac9fc7fa42dba11fd1&#45;&gt;dir_43cc1d4eb251b5d8cbfdd5909fd3ba45</title>
<path fill="none" stroke="black" d="M78.13,-162.95C81.07,-161.8 84.06,-160.79 87,-160 272.55,-110.32 334.27,-172.39 524.14,-123.61"/>
<polygon fill="black" stroke="black" points="525.09,-126.98 533.87,-121.05 523.31,-120.21 525.09,-126.98"/>
<g id="a_edge6&#45;headlabel"><a xlink:href="dir_000066_000058.html" target="_top" xlink:title="1">
<text text-anchor="middle" x="522.34" y="-128.15" font-family="Helvetica" font-size="10.00">1</text>
</a>
</g>
</g>
<!-- dir_2358b23896e7c9ac9fc7fa42dba11fd1&#45;&gt;dir_cf72682d9b1c0bc1c562a1f19b8defa0 -->
<g id="edge11" class="edge">
<title>dir_2358b23896e7c9ac9fc7fa42dba11fd1&#45;&gt;dir_cf72682d9b1c0bc1c562a1f19b8defa0</title>
<path fill="none" stroke="black" d="M78.12,-162.92C81.06,-161.78 84.06,-160.77 87,-160 303.62,-103.34 375.07,-179.21 595.93,-123.65"/>
<polygon fill="black" stroke="black" points="597.07,-126.97 605.88,-121.08 595.32,-120.19 597.07,-126.97"/>
<g id="a_edge11&#45;headlabel"><a xlink:href="dir_000066_000059.html" target="_top" xlink:title="1">
<text text-anchor="middle" x="594.3" y="-128.12" font-family="Helvetica" font-size="10.00">1</text>
</a>
</g>
</g>
<!-- dir_2358b23896e7c9ac9fc7fa42dba11fd1&#45;&gt;dir_061a1b0a0a40a7427f2461ed2f520013 -->
<g id="edge5" class="edge">
<title>dir_2358b23896e7c9ac9fc7fa42dba11fd1&#45;&gt;dir_061a1b0a0a40a7427f2461ed2f520013</title>
<path fill="none" stroke="black" d="M78.01,-163.92C81.02,-162.56 84.07,-161.23 87,-160 115.41,-148.13 147.53,-136.24 174.3,-126.74"/>
<polygon fill="black" stroke="black" points="175.64,-129.97 183.9,-123.35 173.31,-123.37 175.64,-129.97"/>
<g id="a_edge5&#45;headlabel"><a xlink:href="dir_000066_000063.html" target="_top" xlink:title="1">
<text text-anchor="middle" x="173.19" y="-131.35" font-family="Helvetica" font-size="10.00">1</text>
</a>
</g>
</g>
<!-- dir_2358b23896e7c9ac9fc7fa42dba11fd1&#45;&gt;dir_6972051101bc5f8d68d31d49f06d7aaf -->
<g id="edge7" class="edge">
<title>dir_2358b23896e7c9ac9fc7fa42dba11fd1&#45;&gt;dir_6972051101bc5f8d68d31d49f06d7aaf</title>
<path fill="none" stroke="black" d="M78.21,-163.24C81.14,-162.03 84.1,-160.92 87,-160 170.91,-133.23 200.12,-150.44 288.21,-123.77"/>
<polygon fill="black" stroke="black" points="289.29,-127.09 297.79,-120.76 287.2,-120.41 289.29,-127.09"/>
<g id="a_edge7&#45;headlabel"><a xlink:href="dir_000066_000080.html" target="_top" xlink:title="1">
<text text-anchor="middle" x="286.71" y="-128.38" font-family="Helvetica" font-size="10.00">1</text>
</a>
</g>
</g>
<!-- dir_2358b23896e7c9ac9fc7fa42dba11fd1&#45;&gt;dir_f132f3c082319ace6827058f7d1d886d -->
<g id="edge13" class="edge">
<title>dir_2358b23896e7c9ac9fc7fa42dba11fd1&#45;&gt;dir_f132f3c082319ace6827058f7d1d886d</title>
<path fill="none" stroke="black" d="M78.17,-163.1C81.1,-161.92 84.08,-160.86 87,-160 201.73,-126.27 241.09,-156.93 359.99,-123.74"/>
<polygon fill="black" stroke="black" points="361.19,-127.04 369.83,-120.9 359.25,-120.31 361.19,-127.04"/>
<g id="a_edge13&#45;headlabel"><a xlink:href="dir_000066_000042.html" target="_top" xlink:title="1">
<text text-anchor="middle" x="358.52" y="-128.26" font-family="Helvetica" font-size="10.00">1</text>
</a>
</g>
</g>
<!-- dir_2358b23896e7c9ac9fc7fa42dba11fd1&#45;&gt;dir_dca01e643b0ec4b7c70c70c593767eaa -->
<g id="edge12" class="edge">
<title>dir_2358b23896e7c9ac9fc7fa42dba11fd1&#45;&gt;dir_dca01e643b0ec4b7c70c70c593767eaa</title>
<path fill="none" stroke="black" d="M72.75,-159.7C83.84,-150.88 97.47,-140.03 109.49,-130.47"/>
<polygon fill="black" stroke="black" points="111.85,-133.07 117.5,-124.1 107.49,-127.59 111.85,-133.07"/>
<g id="a_edge12&#45;headlabel"><a xlink:href="dir_000066_000021.html" target="_top" xlink:title="7">
<text text-anchor="middle" x="110.8" y="-135.03" font-family="Helvetica" font-size="10.00">7</text>
</a>
</g>
</g>
<!-- dir_2358b23896e7c9ac9fc7fa42dba11fd1&#45;&gt;dir_b31d54d5631803016a26f28213a41162 -->
<g id="edge10" class="edge">
<title>dir_2358b23896e7c9ac9fc7fa42dba11fd1&#45;&gt;dir_b31d54d5631803016a26f28213a41162</title>
<path fill="none" stroke="black" d="M78.11,-162.89C81.06,-161.75 84.05,-160.76 87,-160 150.08,-143.81 619.9,-163.08 672,-124 691.13,-109.65 698.85,-82.83 701.95,-62.37"/>
<polygon fill="black" stroke="black" points="705.44,-62.7 703.19,-52.35 698.49,-61.84 705.44,-62.7"/>
<g id="a_edge10&#45;headlabel"><a xlink:href="dir_000066_000034.html" target="_top" xlink:title="3">
<text text-anchor="middle" x="707.81" y="-64.12" font-family="Helvetica" font-size="10.00">3</text>
</a>
</g>
</g>
</g>
</svg>
