<?xml version="1.0" encoding="UTF-8" standalone="no"?>
<!DOCTYPE svg PUBLIC "-//W3C//DTD SVG 1.1//EN"
 "http://www.w3.org/Graphics/SVG/1.1/DTD/svg11.dtd">
<!-- Generated by graphviz version 2.44.0 (0)
 -->
<!-- Title: /home/ec2&#45;user/workspace/vsomeip/implementation/logger/src Pages: 1 -->
<svg width="242pt" height="167pt"
 viewBox="0.00 0.00 241.50 167.00" xmlns="http://www.w3.org/2000/svg" xmlns:xlink="http://www.w3.org/1999/xlink">
<g id="graph0" class="graph" transform="scale(1 1) rotate(0) translate(4 163)">
<title>/home/ec2&#45;user/workspace/vsomeip/implementation/logger/src</title>
<polygon fill="white" stroke="transparent" points="-4,4 -4,-163 237.5,-163 237.5,4 -4,4"/>
<g id="clust1" class="cluster">
<title>clusterdir_a341cf5cf1894ba060679bdee57be3d6</title>
<g id="a_clust1"><a xlink:href="dir_a341cf5cf1894ba060679bdee57be3d6.html" target="_top" xlink:title="logger">
<polygon fill="#edf0f7" stroke="#7f7f7f" stroke-dasharray="5,2" points="8,-8 8,-151 78,-151 78,-8 8,-8"/>
<text text-anchor="middle" x="43" y="-139" font-family="Helvetica" font-size="10.00">logger</text>
</a>
</g>
</g>
<!-- dir_6cde8a76a7b9710bb9effaebf7807632 -->
<g id="node1" class="node">
<title>dir_6cde8a76a7b9710bb9effaebf7807632</title>
<g id="a_node1"><a xlink:href="dir_6cde8a76a7b9710bb9effaebf7807632.html" target="_top" xlink:title="include">
<polygon fill="#a2b4d6" stroke="#404040" points="70,-52 16,-52 16,-16 70,-16 70,-52"/>
<text text-anchor="middle" x="43" y="-31.5" font-family="Helvetica" font-size="10.00">include</text>
</a>
</g>
</g>
<!-- dir_064d93804a587f65af727aa3b21cc5d8 -->
<g id="node2" class="node">
<title>dir_064d93804a587f65af727aa3b21cc5d8</title>
<g id="a_node2"><a xlink:href="dir_064d93804a587f65af727aa3b21cc5d8.html" target="_top" xlink:title="src">
<polygon fill="#edf0f7" stroke="#404040" stroke-width="2" points="70,-124 16,-124 16,-88 70,-88 70,-124"/>
<text text-anchor="middle" x="43" y="-103.5" font-family="Helvetica" font-size="10.00">src</text>
</a>
</g>
</g>
<!-- dir_064d93804a587f65af727aa3b21cc5d8&#45;&gt;dir_6cde8a76a7b9710bb9effaebf7807632 -->
<g id="edge2" class="edge">
<title>dir_064d93804a587f65af727aa3b21cc5d8&#45;&gt;dir_6cde8a76a7b9710bb9effaebf7807632</title>
<path fill="none" stroke="black" d="M43,-87.7C43,-79.98 43,-70.71 43,-62.11"/>
<polygon fill="black" stroke="black" points="46.5,-62.1 43,-52.1 39.5,-62.1 46.5,-62.1"/>
<g id="a_edge2&#45;headlabel"><a xlink:href="dir_000069_000024.html" target="_top" xlink:title="2">
<text text-anchor="middle" x="49.34" y="-63.2" font-family="Helvetica" font-size="10.00">2</text>
</a>
</g>
</g>
<!-- dir_56126a1d848d4a1832817232e79a5a18 -->
<g id="node3" class="node">
<title>dir_56126a1d848d4a1832817232e79a5a18</title>
<g id="a_node3"><a xlink:href="dir_56126a1d848d4a1832817232e79a5a18.html" target="_top" xlink:title="configuration">
<polygon fill="none" stroke="red" stroke-dasharray="5,2" points="160,-52 88,-52 88,-16 160,-16 160,-52"/>
<text text-anchor="middle" x="124" y="-31.5" font-family="Helvetica" font-size="10.00">configuration</text>
</a>
</g>
</g>
<!-- dir_064d93804a587f65af727aa3b21cc5d8&#45;&gt;dir_56126a1d848d4a1832817232e79a5a18 -->
<g id="edge1" class="edge">
<title>dir_064d93804a587f65af727aa3b21cc5d8&#45;&gt;dir_56126a1d848d4a1832817232e79a5a18</title>
<path fill="none" stroke="black" d="M63.02,-87.7C73.13,-78.97 85.54,-68.24 96.52,-58.75"/>
<polygon fill="black" stroke="black" points="98.93,-61.29 104.21,-52.1 94.35,-55.99 98.93,-61.29"/>
<g id="a_edge1&#45;headlabel"><a xlink:href="dir_000069_000006.html" target="_top" xlink:title="2">
<text text-anchor="middle" x="98.07" y="-63.29" font-family="Helvetica" font-size="10.00">2</text>
</a>
</g>
</g>
<!-- dir_b31d54d5631803016a26f28213a41162 -->
<g id="node4" class="node">
<title>dir_b31d54d5631803016a26f28213a41162</title>
<g id="a_node4"><a xlink:href="dir_b31d54d5631803016a26f28213a41162.html" target="_top" xlink:title="interface">
<polygon fill="none" stroke="red" points="233.5,-52 178.5,-52 178.5,-16 233.5,-16 233.5,-52"/>
<text text-anchor="middle" x="206" y="-31.5" font-family="Helvetica" font-size="10.00">interface</text>
</a>
</g>
</g>
<!-- dir_064d93804a587f65af727aa3b21cc5d8&#45;&gt;dir_b31d54d5631803016a26f28213a41162 -->
<g id="edge3" class="edge">
<title>dir_064d93804a587f65af727aa3b21cc5d8&#45;&gt;dir_b31d54d5631803016a26f28213a41162</title>
<path fill="none" stroke="black" d="M70.15,-93.88C95.74,-83.33 135.11,-66.91 169,-52 169.09,-51.96 169.19,-51.92 169.28,-51.88"/>
<polygon fill="black" stroke="black" points="170.46,-55.18 178.16,-47.91 167.61,-48.79 170.46,-55.18"/>
<g id="a_edge3&#45;headlabel"><a xlink:href="dir_000069_000034.html" target="_top" xlink:title="1">
<text text-anchor="middle" x="168.34" y="-56.74" font-family="Helvetica" font-size="10.00">1</text>
</a>
</g>
</g>
</g>
</svg>
