<?xml version="1.0" encoding="UTF-8" standalone="no"?>
<!DOCTYPE svg PUBLIC "-//W3C//DTD SVG 1.1//EN"
 "http://www.w3.org/Graphics/SVG/1.1/DTD/svg11.dtd">
<!-- Generated by graphviz version 2.44.0 (0)
 -->
<!-- Title: /home/ec2&#45;user/workspace/vsomeip/implementation/endpoints/include Pages: 1 -->
<svg width="226pt" height="151pt"
 viewBox="0.00 0.00 225.50 151.00" xmlns="http://www.w3.org/2000/svg" xmlns:xlink="http://www.w3.org/1999/xlink">
<g id="graph0" class="graph" transform="scale(1 1) rotate(0) translate(4 147)">
<title>/home/ec2&#45;user/workspace/vsomeip/implementation/endpoints/include</title>
<polygon fill="white" stroke="transparent" points="-4,4 -4,-147 221.5,-147 221.5,4 -4,4"/>
<g id="clust1" class="cluster">
<title>clusterdir_9c7b9d609ec855ab7fbf064b0ccf8e4e</title>
<g id="a_clust1"><a xlink:href="dir_9c7b9d609ec855ab7fbf064b0ccf8e4e.html" target="_top" xlink:title="endpoints">
<polygon fill="#edf0f7" stroke="#7f7f7f" stroke-dasharray="5,2" points="82,-64 82,-135 152,-135 152,-64 82,-64"/>
<text text-anchor="middle" x="117" y="-123" font-family="Helvetica" font-size="10.00">endpoints</text>
</a>
</g>
</g>
<!-- dir_8aaf58c2a1b20b8bdef59baa467903fa -->
<g id="node1" class="node">
<title>dir_8aaf58c2a1b20b8bdef59baa467903fa</title>
<g id="a_node1"><a xlink:href="dir_8aaf58c2a1b20b8bdef59baa467903fa.html" target="_top" xlink:title="include">
<polygon fill="#edf0f7" stroke="#404040" stroke-width="2" points="144,-108 90,-108 90,-72 144,-72 144,-108"/>
<text text-anchor="middle" x="117" y="-87.5" font-family="Helvetica" font-size="10.00">include</text>
</a>
</g>
</g>
<!-- dir_56126a1d848d4a1832817232e79a5a18 -->
<g id="node2" class="node">
<title>dir_56126a1d848d4a1832817232e79a5a18</title>
<g id="a_node2"><a xlink:href="dir_56126a1d848d4a1832817232e79a5a18.html" target="_top" xlink:title="configuration">
<polygon fill="none" stroke="red" stroke-dasharray="5,2" points="72,-36 0,-36 0,0 72,0 72,-36"/>
<text text-anchor="middle" x="36" y="-15.5" font-family="Helvetica" font-size="10.00">configuration</text>
</a>
</g>
</g>
<!-- dir_8aaf58c2a1b20b8bdef59baa467903fa&#45;&gt;dir_56126a1d848d4a1832817232e79a5a18 -->
<g id="edge1" class="edge">
<title>dir_8aaf58c2a1b20b8bdef59baa467903fa&#45;&gt;dir_56126a1d848d4a1832817232e79a5a18</title>
<path fill="none" stroke="black" d="M96.98,-71.7C86.87,-62.97 74.46,-52.24 63.48,-42.75"/>
<polygon fill="black" stroke="black" points="65.65,-39.99 55.79,-36.1 61.07,-45.29 65.65,-39.99"/>
<g id="a_edge1&#45;headlabel"><a xlink:href="dir_000023_000006.html" target="_top" xlink:title="2">
<text text-anchor="middle" x="70.22" y="-37.7" font-family="Helvetica" font-size="10.00">2</text>
</a>
</g>
</g>
<!-- dir_865b81be71567c7497d9335ceceb92d8 -->
<g id="node3" class="node">
<title>dir_865b81be71567c7497d9335ceceb92d8</title>
<g id="a_node3"><a xlink:href="dir_865b81be71567c7497d9335ceceb92d8.html" target="_top" xlink:title="helper">
<polygon fill="none" stroke="red" stroke-dasharray="5,2" points="144,-36 90,-36 90,0 144,0 144,-36"/>
<text text-anchor="middle" x="117" y="-15.5" font-family="Helvetica" font-size="10.00">helper</text>
</a>
</g>
</g>
<!-- dir_8aaf58c2a1b20b8bdef59baa467903fa&#45;&gt;dir_865b81be71567c7497d9335ceceb92d8 -->
<g id="edge2" class="edge">
<title>dir_8aaf58c2a1b20b8bdef59baa467903fa&#45;&gt;dir_865b81be71567c7497d9335ceceb92d8</title>
<path fill="none" stroke="black" d="M117,-71.7C117,-63.98 117,-54.71 117,-46.11"/>
<polygon fill="black" stroke="black" points="120.5,-46.1 117,-36.1 113.5,-46.1 120.5,-46.1"/>
<g id="a_edge2&#45;headlabel"><a xlink:href="dir_000023_000016.html" target="_top" xlink:title="2">
<text text-anchor="middle" x="123.34" y="-47.2" font-family="Helvetica" font-size="10.00">2</text>
</a>
</g>
</g>
<!-- dir_b31d54d5631803016a26f28213a41162 -->
<g id="node4" class="node">
<title>dir_b31d54d5631803016a26f28213a41162</title>
<g id="a_node4"><a xlink:href="dir_b31d54d5631803016a26f28213a41162.html" target="_top" xlink:title="interface">
<polygon fill="none" stroke="red" points="217.5,-36 162.5,-36 162.5,0 217.5,0 217.5,-36"/>
<text text-anchor="middle" x="190" y="-15.5" font-family="Helvetica" font-size="10.00">interface</text>
</a>
</g>
</g>
<!-- dir_8aaf58c2a1b20b8bdef59baa467903fa&#45;&gt;dir_b31d54d5631803016a26f28213a41162 -->
<g id="edge3" class="edge">
<title>dir_8aaf58c2a1b20b8bdef59baa467903fa&#45;&gt;dir_b31d54d5631803016a26f28213a41162</title>
<path fill="none" stroke="black" d="M135.04,-71.7C144.06,-63.05 155.12,-52.45 164.94,-43.03"/>
<polygon fill="black" stroke="black" points="167.37,-45.55 172.16,-36.1 162.52,-40.5 167.37,-45.55"/>
<g id="a_edge3&#45;headlabel"><a xlink:href="dir_000023_000034.html" target="_top" xlink:title="1">
<text text-anchor="middle" x="166.74" y="-47.59" font-family="Helvetica" font-size="10.00">1</text>
</a>
</g>
</g>
</g>
</svg>
