<?xml version="1.0" encoding="UTF-8" standalone="no"?>
<!DOCTYPE svg PUBLIC "-//W3C//DTD SVG 1.1//EN"
 "http://www.w3.org/Graphics/SVG/1.1/DTD/svg11.dtd">
<!-- Generated by graphviz version 2.44.0 (0)
 -->
<!-- Title: /home/ec2&#45;user/workspace/vsomeip/implementation/logger Pages: 1 -->
<svg width="268pt" height="231pt"
 viewBox="0.00 0.00 268.13 231.00" xmlns="http://www.w3.org/2000/svg" xmlns:xlink="http://www.w3.org/1999/xlink">
<g id="graph0" class="graph" transform="scale(1 1) rotate(0) translate(4 227)">
<title>/home/ec2&#45;user/workspace/vsomeip/implementation/logger</title>
<polygon fill="white" stroke="transparent" points="-4,4 -4,-227 264.13,-227 264.13,4 -4,4"/>
<g id="clust1" class="cluster">
<title>clusterdir_ed7c47a03c091bb19436c59342bc9555</title>
<g id="a_clust1"><a xlink:href="dir_ed7c47a03c091bb19436c59342bc9555.html" target="_top" xlink:title="implementation">
<polygon fill="#edf0f7" stroke="#404040" stroke-dasharray="5,2" points="8,-56 8,-215 246,-215 246,-56 8,-56"/>
<text text-anchor="middle" x="127" y="-203" font-family="Helvetica" font-size="10.00">implementation</text>
</a>
</g>
</g>
<g id="clust2" class="cluster">
<title>clusterdir_a341cf5cf1894ba060679bdee57be3d6</title>
<g id="a_clust2"><a xlink:href="dir_a341cf5cf1894ba060679bdee57be3d6.html" target="_top">
<polygon fill="#edf0f7" stroke="#404040" stroke-width="2" points="16,-64 16,-188 158,-188 158,-64 16,-64"/>
</a>
</g>
</g>
<!-- dir_56126a1d848d4a1832817232e79a5a18 -->
<g id="node1" class="node">
<title>dir_56126a1d848d4a1832817232e79a5a18</title>
<g id="a_node1"><a xlink:href="dir_56126a1d848d4a1832817232e79a5a18.html" target="_top" xlink:title="configuration">
<polygon fill="#a2b4d6" stroke="red" points="238,-108 166,-108 166,-72 238,-72 238,-108"/>
<text text-anchor="middle" x="202" y="-87.5" font-family="Helvetica" font-size="10.00">configuration</text>
</a>
</g>
</g>
<!-- dir_a341cf5cf1894ba060679bdee57be3d6 -->
<g id="node2" class="node">
<title>dir_a341cf5cf1894ba060679bdee57be3d6</title>
<text text-anchor="middle" x="123" y="-159.5" font-family="Helvetica" font-size="10.00">logger</text>
</g>
<!-- dir_6cde8a76a7b9710bb9effaebf7807632 -->
<g id="node3" class="node">
<title>dir_6cde8a76a7b9710bb9effaebf7807632</title>
<g id="a_node3"><a xlink:href="dir_6cde8a76a7b9710bb9effaebf7807632.html" target="_top" xlink:title="include">
<polygon fill="#a2b4d6" stroke="#404040" points="113,-108 59,-108 59,-72 113,-72 113,-108"/>
<text text-anchor="middle" x="86" y="-87.5" font-family="Helvetica" font-size="10.00">include</text>
</a>
</g>
</g>
<!-- dir_b31d54d5631803016a26f28213a41162 -->
<g id="node5" class="node">
<title>dir_b31d54d5631803016a26f28213a41162</title>
<g id="a_node5"><a xlink:href="dir_b31d54d5631803016a26f28213a41162.html" target="_top" xlink:title="interface">
<polygon fill="none" stroke="red" points="203.5,-36 148.5,-36 148.5,0 203.5,0 203.5,-36"/>
<text text-anchor="middle" x="176" y="-15.5" font-family="Helvetica" font-size="10.00">interface</text>
</a>
</g>
</g>
<!-- dir_6cde8a76a7b9710bb9effaebf7807632&#45;&gt;dir_b31d54d5631803016a26f28213a41162 -->
<g id="edge1" class="edge">
<title>dir_6cde8a76a7b9710bb9effaebf7807632&#45;&gt;dir_b31d54d5631803016a26f28213a41162</title>
<path fill="none" stroke="black" d="M100.68,-71.72C105.6,-66.39 111.29,-60.69 117,-56 123.91,-50.31 131.76,-44.82 139.43,-39.89"/>
<polygon fill="black" stroke="black" points="141.64,-42.63 148.27,-34.37 137.94,-36.69 141.64,-42.63"/>
<g id="a_edge1&#45;headlabel"><a xlink:href="dir_000024_000034.html" target="_top" xlink:title="1">
<text text-anchor="middle" x="140.09" y="-44.44" font-family="Helvetica" font-size="10.00">1</text>
</a>
</g>
</g>
<!-- dir_064d93804a587f65af727aa3b21cc5d8 -->
<g id="node4" class="node">
<title>dir_064d93804a587f65af727aa3b21cc5d8</title>
<g id="a_node4"><a xlink:href="dir_064d93804a587f65af727aa3b21cc5d8.html" target="_top" xlink:title="src">
<polygon fill="#a2b4d6" stroke="#404040" points="78,-180 24,-180 24,-144 78,-144 78,-180"/>
<text text-anchor="middle" x="51" y="-159.5" font-family="Helvetica" font-size="10.00">src</text>
</a>
</g>
</g>
<!-- dir_064d93804a587f65af727aa3b21cc5d8&#45;&gt;dir_56126a1d848d4a1832817232e79a5a18 -->
<g id="edge2" class="edge">
<title>dir_064d93804a587f65af727aa3b21cc5d8&#45;&gt;dir_56126a1d848d4a1832817232e79a5a18</title>
<path fill="none" stroke="black" d="M78.11,-148.16C81.11,-146.75 84.12,-145.34 87,-144 109.99,-133.27 135.63,-121.44 156.85,-111.69"/>
<polygon fill="black" stroke="black" points="158.34,-114.86 165.96,-107.5 155.41,-108.5 158.34,-114.86"/>
<g id="a_edge2&#45;headlabel"><a xlink:href="dir_000069_000006.html" target="_top" xlink:title="2">
<text text-anchor="middle" x="156.25" y="-116.44" font-family="Helvetica" font-size="10.00">2</text>
</a>
</g>
</g>
<!-- dir_064d93804a587f65af727aa3b21cc5d8&#45;&gt;dir_6cde8a76a7b9710bb9effaebf7807632 -->
<g id="edge3" class="edge">
<title>dir_064d93804a587f65af727aa3b21cc5d8&#45;&gt;dir_6cde8a76a7b9710bb9effaebf7807632</title>
<path fill="none" stroke="black" d="M59.65,-143.7C63.64,-135.73 68.45,-126.1 72.87,-117.26"/>
<polygon fill="black" stroke="black" points="76.11,-118.61 77.45,-108.1 69.85,-115.48 76.11,-118.61"/>
<g id="a_edge3&#45;headlabel"><a xlink:href="dir_000069_000024.html" target="_top" xlink:title="2">
<text text-anchor="middle" x="77.04" y="-120.6" font-family="Helvetica" font-size="10.00">2</text>
</a>
</g>
</g>
<!-- dir_064d93804a587f65af727aa3b21cc5d8&#45;&gt;dir_b31d54d5631803016a26f28213a41162 -->
<g id="edge4" class="edge">
<title>dir_064d93804a587f65af727aa3b21cc5d8&#45;&gt;dir_b31d54d5631803016a26f28213a41162</title>
<path fill="none" stroke="black" d="M78.25,-147.36C81.17,-146.13 84.12,-144.98 87,-144 157.2,-120.01 203.54,-165.84 250,-108 264.47,-89.98 262.15,-75.66 250,-56 241.78,-42.7 227.17,-34.02 213.08,-28.43"/>
<polygon fill="black" stroke="black" points="214.1,-25.08 203.51,-25.04 211.77,-31.68 214.1,-25.08"/>
<g id="a_edge4&#45;headlabel"><a xlink:href="dir_000069_000034.html" target="_top" xlink:title="1">
<text text-anchor="middle" x="218.44" y="-21.1" font-family="Helvetica" font-size="10.00">1</text>
</a>
</g>
</g>
</g>
</svg>
