<?xml version="1.0" encoding="UTF-8" standalone="no"?>
<!DOCTYPE svg PUBLIC "-//W3C//DTD SVG 1.1//EN"
 "http://www.w3.org/Graphics/SVG/1.1/DTD/svg11.dtd">
<!-- Generated by graphviz version 2.44.0 (0)
 -->
<!-- Title: /home/ec2&#45;user/workspace/vsomeip/implementation/e2e_protection/src/e2e Pages: 1 -->
<svg width="232pt" height="159pt"
 viewBox="0.00 0.00 231.50 159.00" xmlns="http://www.w3.org/2000/svg" xmlns:xlink="http://www.w3.org/1999/xlink">
<g id="graph0" class="graph" transform="scale(1 1) rotate(0) translate(4 155)">
<title>/home/ec2&#45;user/workspace/vsomeip/implementation/e2e_protection/src/e2e</title>
<polygon fill="white" stroke="transparent" points="-4,4 -4,-155 227.5,-155 227.5,4 -4,4"/>
<g id="clust1" class="cluster">
<title>clusterdir_26072f771e90755e0dd5d6c321b33fcc</title>
<g id="a_clust1"><a xlink:href="dir_26072f771e90755e0dd5d6c321b33fcc.html" target="_top" xlink:title="src">
<polygon fill="#edf0f7" stroke="#7f7f7f" stroke-dasharray="5,2" points="57.5,-56 57.5,-143 215.5,-143 215.5,-56 57.5,-56"/>
<text text-anchor="middle" x="136.5" y="-131" font-family="Helvetica" font-size="10.00">src</text>
</a>
</g>
</g>
<g id="clust2" class="cluster">
<title>clusterdir_4c5cb071900c74e64eb69201ab76a37a</title>
<g id="a_clust2"><a xlink:href="dir_4c5cb071900c74e64eb69201ab76a37a.html" target="_top">
<polygon fill="#edf0f7" stroke="#404040" stroke-width="2" points="65.5,-64 65.5,-116 207.5,-116 207.5,-64 65.5,-64"/>
</a>
</g>
</g>
<!-- dir_4c5cb071900c74e64eb69201ab76a37a -->
<g id="node1" class="node">
<title>dir_4c5cb071900c74e64eb69201ab76a37a</title>
<text text-anchor="middle" x="172.5" y="-87.5" font-family="Helvetica" font-size="10.00">e2e</text>
</g>
<!-- dir_1a314ca59dd122efcbdf7cfcbe800b87 -->
<g id="node2" class="node">
<title>dir_1a314ca59dd122efcbdf7cfcbe800b87</title>
<g id="a_node2"><a xlink:href="dir_1a314ca59dd122efcbdf7cfcbe800b87.html" target="_top" xlink:title="profile">
<polygon fill="#a2b4d6" stroke="#404040" points="127.5,-108 73.5,-108 73.5,-72 127.5,-72 127.5,-108"/>
<text text-anchor="middle" x="100.5" y="-87.5" font-family="Helvetica" font-size="10.00">profile</text>
</a>
</g>
</g>
<!-- dir_b31d54d5631803016a26f28213a41162 -->
<g id="node3" class="node">
<title>dir_b31d54d5631803016a26f28213a41162</title>
<g id="a_node3"><a xlink:href="dir_b31d54d5631803016a26f28213a41162.html" target="_top" xlink:title="interface">
<polygon fill="none" stroke="red" points="55,-36 0,-36 0,0 55,0 55,-36"/>
<text text-anchor="middle" x="27.5" y="-15.5" font-family="Helvetica" font-size="10.00">interface</text>
</a>
</g>
</g>
<!-- dir_1a314ca59dd122efcbdf7cfcbe800b87&#45;&gt;dir_b31d54d5631803016a26f28213a41162 -->
<g id="edge2" class="edge">
<title>dir_1a314ca59dd122efcbdf7cfcbe800b87&#45;&gt;dir_b31d54d5631803016a26f28213a41162</title>
<path fill="none" stroke="black" d="M82.46,-71.7C73.44,-63.05 62.38,-52.45 52.56,-43.03"/>
<polygon fill="black" stroke="black" points="54.98,-40.5 45.34,-36.1 50.13,-45.55 54.98,-40.5"/>
<g id="a_edge2&#45;headlabel"><a xlink:href="dir_000046_000034.html" target="_top" xlink:title="10">
<text text-anchor="middle" x="59.54" y="-38.44" font-family="Helvetica" font-size="10.00">10</text>
</a>
</g>
</g>
<!-- dir_261f67b82c2cb416f656d185a1fa5017 -->
<g id="node4" class="node">
<title>dir_261f67b82c2cb416f656d185a1fa5017</title>
<g id="a_node4"><a xlink:href="dir_261f67b82c2cb416f656d185a1fa5017.html" target="_top" xlink:title="include">
<polygon fill="none" stroke="red" stroke-dasharray="5,2" points="127.5,-36 73.5,-36 73.5,0 127.5,0 127.5,-36"/>
<text text-anchor="middle" x="100.5" y="-15.5" font-family="Helvetica" font-size="10.00">include</text>
</a>
</g>
</g>
<!-- dir_1a314ca59dd122efcbdf7cfcbe800b87&#45;&gt;dir_261f67b82c2cb416f656d185a1fa5017 -->
<g id="edge1" class="edge">
<title>dir_1a314ca59dd122efcbdf7cfcbe800b87&#45;&gt;dir_261f67b82c2cb416f656d185a1fa5017</title>
<path fill="none" stroke="black" d="M100.5,-71.7C100.5,-63.98 100.5,-54.71 100.5,-46.11"/>
<polygon fill="black" stroke="black" points="104,-46.1 100.5,-36.1 97,-46.1 104,-46.1"/>
<g id="a_edge1&#45;headlabel"><a xlink:href="dir_000046_000022.html" target="_top" xlink:title="36">
<text text-anchor="middle" x="106.84" y="-47.2" font-family="Helvetica" font-size="10.00">36</text>
</a>
</g>
</g>
<!-- dir_6972051101bc5f8d68d31d49f06d7aaf -->
<g id="node5" class="node">
<title>dir_6972051101bc5f8d68d31d49f06d7aaf</title>
<g id="a_node5"><a xlink:href="dir_6972051101bc5f8d68d31d49f06d7aaf.html" target="_top" xlink:title="utility">
<polygon fill="none" stroke="red" stroke-dasharray="5,2" points="199.5,-36 145.5,-36 145.5,0 199.5,0 199.5,-36"/>
<text text-anchor="middle" x="172.5" y="-15.5" font-family="Helvetica" font-size="10.00">utility</text>
</a>
</g>
</g>
<!-- dir_1a314ca59dd122efcbdf7cfcbe800b87&#45;&gt;dir_6972051101bc5f8d68d31d49f06d7aaf -->
<g id="edge3" class="edge">
<title>dir_1a314ca59dd122efcbdf7cfcbe800b87&#45;&gt;dir_6972051101bc5f8d68d31d49f06d7aaf</title>
<path fill="none" stroke="black" d="M118.3,-71.7C127.1,-63.14 137.88,-52.66 147.5,-43.3"/>
<polygon fill="black" stroke="black" points="150.18,-45.58 154.91,-36.1 145.3,-40.57 150.18,-45.58"/>
<g id="a_edge3&#45;headlabel"><a xlink:href="dir_000046_000080.html" target="_top" xlink:title="6">
<text text-anchor="middle" x="149.58" y="-47.63" font-family="Helvetica" font-size="10.00">6</text>
</a>
</g>
</g>
</g>
</svg>
