<?xml version="1.0" encoding="UTF-8" standalone="no"?>
<!DOCTYPE svg PUBLIC "-//W3C//DTD SVG 1.1//EN"
 "http://www.w3.org/Graphics/SVG/1.1/DTD/svg11.dtd">
<!-- Generated by graphviz version 2.44.0 (0)
 -->
<!-- Title: /home/ec2&#45;user/workspace/vsomeip/implementation/endpoints Pages: 1 -->
<svg width="636pt" height="247pt"
 viewBox="0.00 0.00 635.50 247.00" xmlns="http://www.w3.org/2000/svg" xmlns:xlink="http://www.w3.org/1999/xlink">
<g id="graph0" class="graph" transform="scale(1 1) rotate(0) translate(4 243)">
<title>/home/ec2&#45;user/workspace/vsomeip/implementation/endpoints</title>
<polygon fill="white" stroke="transparent" points="-4,4 -4,-243 631.5,-243 631.5,4 -4,4"/>
<g id="clust1" class="cluster">
<title>clusterdir_ed7c47a03c091bb19436c59342bc9555</title>
<g id="a_clust1"><a xlink:href="dir_ed7c47a03c091bb19436c59342bc9555.html" target="_top" xlink:title="implementation">
<polygon fill="#edf0f7" stroke="#404040" stroke-dasharray="5,2" points="8,-8 8,-231 564,-231 564,-8 8,-8"/>
<text text-anchor="middle" x="286" y="-219" font-family="Helvetica" font-size="10.00">implementation</text>
</a>
</g>
</g>
<g id="clust2" class="cluster">
<title>clusterdir_9c7b9d609ec855ab7fbf064b0ccf8e4e</title>
<g id="a_clust2"><a xlink:href="dir_9c7b9d609ec855ab7fbf064b0ccf8e4e.html" target="_top">
<polygon fill="#edf0f7" stroke="#404040" stroke-width="2" points="16,-80 16,-204 164,-204 164,-80 16,-80"/>
</a>
</g>
</g>
<!-- dir_56126a1d848d4a1832817232e79a5a18 -->
<g id="node1" class="node">
<title>dir_56126a1d848d4a1832817232e79a5a18</title>
<g id="a_node1"><a xlink:href="dir_56126a1d848d4a1832817232e79a5a18.html" target="_top" xlink:title="configuration">
<polygon fill="#a2b4d6" stroke="red" points="93,-52 21,-52 21,-16 93,-16 93,-52"/>
<text text-anchor="middle" x="57" y="-31.5" font-family="Helvetica" font-size="10.00">configuration</text>
</a>
</g>
</g>
<!-- dir_865b81be71567c7497d9335ceceb92d8 -->
<g id="node2" class="node">
<title>dir_865b81be71567c7497d9335ceceb92d8</title>
<g id="a_node2"><a xlink:href="dir_865b81be71567c7497d9335ceceb92d8.html" target="_top" xlink:title="helper">
<polygon fill="#a2b4d6" stroke="red" points="167,-52 113,-52 113,-16 167,-16 167,-52"/>
<text text-anchor="middle" x="140" y="-31.5" font-family="Helvetica" font-size="10.00">helper</text>
</a>
</g>
</g>
<!-- dir_6972051101bc5f8d68d31d49f06d7aaf -->
<g id="node3" class="node">
<title>dir_6972051101bc5f8d68d31d49f06d7aaf</title>
<g id="a_node3"><a xlink:href="dir_6972051101bc5f8d68d31d49f06d7aaf.html" target="_top" xlink:title="utility">
<polygon fill="#a2b4d6" stroke="red" points="226,-124 172,-124 172,-88 226,-88 226,-124"/>
<text text-anchor="middle" x="199" y="-103.5" font-family="Helvetica" font-size="10.00">utility</text>
</a>
</g>
</g>
<!-- dir_cf72682d9b1c0bc1c562a1f19b8defa0 -->
<g id="node4" class="node">
<title>dir_cf72682d9b1c0bc1c562a1f19b8defa0</title>
<g id="a_node4"><a xlink:href="dir_cf72682d9b1c0bc1c562a1f19b8defa0.html" target="_top" xlink:title="routing">
<polygon fill="#a2b4d6" stroke="red" points="298,-124 244,-124 244,-88 298,-88 298,-124"/>
<text text-anchor="middle" x="271" y="-103.5" font-family="Helvetica" font-size="10.00">routing</text>
</a>
</g>
</g>
<!-- dir_43cc1d4eb251b5d8cbfdd5909fd3ba45 -->
<g id="node5" class="node">
<title>dir_43cc1d4eb251b5d8cbfdd5909fd3ba45</title>
<g id="a_node5"><a xlink:href="dir_43cc1d4eb251b5d8cbfdd5909fd3ba45.html" target="_top" xlink:title="protocol">
<polygon fill="#a2b4d6" stroke="red" points="370,-124 316,-124 316,-88 370,-88 370,-124"/>
<text text-anchor="middle" x="343" y="-103.5" font-family="Helvetica" font-size="10.00">protocol</text>
</a>
</g>
</g>
<!-- dir_96312f6272b562b103a6f862042db4a4 -->
<g id="node6" class="node">
<title>dir_96312f6272b562b103a6f862042db4a4</title>
<g id="a_node6"><a xlink:href="dir_96312f6272b562b103a6f862042db4a4.html" target="_top" xlink:title="security">
<polygon fill="#a2b4d6" stroke="red" points="442,-124 388,-124 388,-88 442,-88 442,-124"/>
<text text-anchor="middle" x="415" y="-103.5" font-family="Helvetica" font-size="10.00">security</text>
</a>
</g>
</g>
<!-- dir_061a1b0a0a40a7427f2461ed2f520013 -->
<g id="node7" class="node">
<title>dir_061a1b0a0a40a7427f2461ed2f520013</title>
<g id="a_node7"><a xlink:href="dir_061a1b0a0a40a7427f2461ed2f520013.html" target="_top" xlink:title="service_discovery">
<polygon fill="#a2b4d6" stroke="red" points="556,-124 460,-124 460,-88 556,-88 556,-124"/>
<text text-anchor="middle" x="508" y="-103.5" font-family="Helvetica" font-size="10.00">service_discovery</text>
</a>
</g>
</g>
<!-- dir_9c7b9d609ec855ab7fbf064b0ccf8e4e -->
<g id="node8" class="node">
<title>dir_9c7b9d609ec855ab7fbf064b0ccf8e4e</title>
<text text-anchor="middle" x="126" y="-175.5" font-family="Helvetica" font-size="10.00">endpoints</text>
</g>
<!-- dir_8aaf58c2a1b20b8bdef59baa467903fa -->
<g id="node9" class="node">
<title>dir_8aaf58c2a1b20b8bdef59baa467903fa</title>
<g id="a_node9"><a xlink:href="dir_8aaf58c2a1b20b8bdef59baa467903fa.html" target="_top" xlink:title="include">
<polygon fill="#a2b4d6" stroke="#404040" points="122,-124 68,-124 68,-88 122,-88 122,-124"/>
<text text-anchor="middle" x="95" y="-103.5" font-family="Helvetica" font-size="10.00">include</text>
</a>
</g>
</g>
<!-- dir_8aaf58c2a1b20b8bdef59baa467903fa&#45;&gt;dir_56126a1d848d4a1832817232e79a5a18 -->
<g id="edge1" class="edge">
<title>dir_8aaf58c2a1b20b8bdef59baa467903fa&#45;&gt;dir_56126a1d848d4a1832817232e79a5a18</title>
<path fill="none" stroke="black" d="M85.61,-87.7C81.24,-79.64 75.94,-69.89 71.1,-60.98"/>
<polygon fill="black" stroke="black" points="74.13,-59.22 66.29,-52.1 67.98,-62.56 74.13,-59.22"/>
<g id="a_edge1&#45;headlabel"><a xlink:href="dir_000023_000006.html" target="_top" xlink:title="2">
<text text-anchor="middle" x="78.34" y="-58.53" font-family="Helvetica" font-size="10.00">2</text>
</a>
</g>
</g>
<!-- dir_8aaf58c2a1b20b8bdef59baa467903fa&#45;&gt;dir_865b81be71567c7497d9335ceceb92d8 -->
<g id="edge2" class="edge">
<title>dir_8aaf58c2a1b20b8bdef59baa467903fa&#45;&gt;dir_865b81be71567c7497d9335ceceb92d8</title>
<path fill="none" stroke="black" d="M106.12,-87.7C111.36,-79.56 117.7,-69.69 123.48,-60.7"/>
<polygon fill="black" stroke="black" points="126.54,-62.41 129,-52.1 120.65,-58.62 126.54,-62.41"/>
<g id="a_edge2&#45;headlabel"><a xlink:href="dir_000023_000016.html" target="_top" xlink:title="2">
<text text-anchor="middle" x="126.99" y="-64.47" font-family="Helvetica" font-size="10.00">2</text>
</a>
</g>
</g>
<!-- dir_b31d54d5631803016a26f28213a41162 -->
<g id="node11" class="node">
<title>dir_b31d54d5631803016a26f28213a41162</title>
<g id="a_node11"><a xlink:href="dir_b31d54d5631803016a26f28213a41162.html" target="_top" xlink:title="interface">
<polygon fill="none" stroke="red" points="627.5,-52 572.5,-52 572.5,-16 627.5,-16 627.5,-52"/>
<text text-anchor="middle" x="600" y="-31.5" font-family="Helvetica" font-size="10.00">interface</text>
</a>
</g>
</g>
<!-- dir_8aaf58c2a1b20b8bdef59baa467903fa&#45;&gt;dir_b31d54d5631803016a26f28213a41162 -->
<g id="edge3" class="edge">
<title>dir_8aaf58c2a1b20b8bdef59baa467903fa&#45;&gt;dir_b31d54d5631803016a26f28213a41162</title>
<path fill="none" stroke="black" d="M112.5,-87.87C116.63,-84.73 121.23,-81.85 126,-80 306.31,-9.86 376.2,-102.34 562.54,-53.26"/>
<polygon fill="black" stroke="black" points="563.65,-56.58 572.37,-50.57 561.8,-49.83 563.65,-56.58"/>
<g id="a_edge3&#45;headlabel"><a xlink:href="dir_000023_000034.html" target="_top" xlink:title="1">
<text text-anchor="middle" x="560.93" y="-57.77" font-family="Helvetica" font-size="10.00">1</text>
</a>
</g>
</g>
<!-- dir_fb9e29b304053fe32bd398f2f401d305 -->
<g id="node10" class="node">
<title>dir_fb9e29b304053fe32bd398f2f401d305</title>
<g id="a_node10"><a xlink:href="dir_fb9e29b304053fe32bd398f2f401d305.html" target="_top" xlink:title="src">
<polygon fill="#a2b4d6" stroke="#404040" points="78,-196 24,-196 24,-160 78,-160 78,-196"/>
<text text-anchor="middle" x="51" y="-175.5" font-family="Helvetica" font-size="10.00">src</text>
</a>
</g>
</g>
<!-- dir_fb9e29b304053fe32bd398f2f401d305&#45;&gt;dir_56126a1d848d4a1832817232e79a5a18 -->
<g id="edge6" class="edge">
<title>dir_fb9e29b304053fe32bd398f2f401d305&#45;&gt;dir_56126a1d848d4a1832817232e79a5a18</title>
<path fill="none" stroke="black" d="M51.72,-159.87C52.75,-135.67 54.62,-91.21 55.84,-62.39"/>
<polygon fill="black" stroke="black" points="59.35,-62.33 56.27,-52.19 52.35,-62.03 59.35,-62.33"/>
<g id="a_edge6&#45;headlabel"><a xlink:href="dir_000068_000006.html" target="_top" xlink:title="7">
<text text-anchor="middle" x="62.03" y="-63.54" font-family="Helvetica" font-size="10.00">7</text>
</a>
</g>
</g>
<!-- dir_fb9e29b304053fe32bd398f2f401d305&#45;&gt;dir_865b81be71567c7497d9335ceceb92d8 -->
<g id="edge8" class="edge">
<title>dir_fb9e29b304053fe32bd398f2f401d305&#45;&gt;dir_865b81be71567c7497d9335ceceb92d8</title>
<path fill="none" stroke="black" d="M78.3,-162.3C98.88,-150.62 124.63,-134.55 131,-124 142.14,-105.55 143.85,-80.95 143.07,-62.29"/>
<polygon fill="black" stroke="black" points="146.55,-61.82 142.39,-52.08 139.57,-62.3 146.55,-61.82"/>
<g id="a_edge8&#45;headlabel"><a xlink:href="dir_000068_000016.html" target="_top" xlink:title="4">
<text text-anchor="middle" x="149.63" y="-62.72" font-family="Helvetica" font-size="10.00">4</text>
</a>
</g>
</g>
<!-- dir_fb9e29b304053fe32bd398f2f401d305&#45;&gt;dir_6972051101bc5f8d68d31d49f06d7aaf -->
<g id="edge7" class="edge">
<title>dir_fb9e29b304053fe32bd398f2f401d305&#45;&gt;dir_6972051101bc5f8d68d31d49f06d7aaf</title>
<path fill="none" stroke="black" d="M78.1,-164.12C81.1,-162.72 84.11,-161.32 87,-160 119.88,-144.93 130.9,-141.93 162.64,-126.57"/>
<polygon fill="black" stroke="black" points="164.24,-129.69 171.68,-122.14 161.16,-123.4 164.24,-129.69"/>
<g id="a_edge7&#45;headlabel"><a xlink:href="dir_000068_000080.html" target="_top" xlink:title="22">
<text text-anchor="middle" x="162.26" y="-131.32" font-family="Helvetica" font-size="10.00">22</text>
</a>
</g>
</g>
<!-- dir_fb9e29b304053fe32bd398f2f401d305&#45;&gt;dir_cf72682d9b1c0bc1c562a1f19b8defa0 -->
<g id="edge12" class="edge">
<title>dir_fb9e29b304053fe32bd398f2f401d305&#45;&gt;dir_cf72682d9b1c0bc1c562a1f19b8defa0</title>
<path fill="none" stroke="black" d="M78.28,-163.42C81.19,-162.18 84.13,-161.01 87,-160 147.96,-138.44 169.26,-145.81 234.25,-123.88"/>
<polygon fill="black" stroke="black" points="235.43,-127.17 243.72,-120.58 233.13,-120.56 235.43,-127.17"/>
<g id="a_edge12&#45;headlabel"><a xlink:href="dir_000068_000059.html" target="_top" xlink:title="13">
<text text-anchor="middle" x="232.97" y="-128.54" font-family="Helvetica" font-size="10.00">13</text>
</a>
</g>
</g>
<!-- dir_fb9e29b304053fe32bd398f2f401d305&#45;&gt;dir_43cc1d4eb251b5d8cbfdd5909fd3ba45 -->
<g id="edge5" class="edge">
<title>dir_fb9e29b304053fe32bd398f2f401d305&#45;&gt;dir_43cc1d4eb251b5d8cbfdd5909fd3ba45</title>
<path fill="none" stroke="black" d="M78.2,-163.19C81.13,-162 84.1,-160.9 87,-160 178.55,-131.51 210.35,-152.02 306.02,-123.79"/>
<polygon fill="black" stroke="black" points="307.26,-127.08 315.8,-120.81 305.21,-120.38 307.26,-127.08"/>
<g id="a_edge5&#45;headlabel"><a xlink:href="dir_000068_000058.html" target="_top" xlink:title="6">
<text text-anchor="middle" x="304.65" y="-128.34" font-family="Helvetica" font-size="10.00">6</text>
</a>
</g>
</g>
<!-- dir_fb9e29b304053fe32bd398f2f401d305&#45;&gt;dir_96312f6272b562b103a6f862042db4a4 -->
<g id="edge10" class="edge">
<title>dir_fb9e29b304053fe32bd398f2f401d305&#45;&gt;dir_96312f6272b562b103a6f862042db4a4</title>
<path fill="none" stroke="black" d="M78.17,-163.07C81.1,-161.9 84.08,-160.85 87,-160 209.53,-124.51 251.36,-158.63 378.15,-123.68"/>
<polygon fill="black" stroke="black" points="379.17,-127.03 387.83,-120.93 377.26,-120.3 379.17,-127.03"/>
<g id="a_edge10&#45;headlabel"><a xlink:href="dir_000068_000062.html" target="_top" xlink:title="3">
<text text-anchor="middle" x="376.49" y="-128.24" font-family="Helvetica" font-size="10.00">3</text>
</a>
</g>
</g>
<!-- dir_fb9e29b304053fe32bd398f2f401d305&#45;&gt;dir_061a1b0a0a40a7427f2461ed2f520013 -->
<g id="edge4" class="edge">
<title>dir_fb9e29b304053fe32bd398f2f401d305&#45;&gt;dir_061a1b0a0a40a7427f2461ed2f520013</title>
<path fill="none" stroke="black" d="M78.14,-163C81.08,-161.85 84.07,-160.81 87,-160 240.47,-117.55 289.48,-153.82 449.75,-123.99"/>
<polygon fill="black" stroke="black" points="450.8,-127.36 459.96,-122.03 449.48,-120.48 450.8,-127.36"/>
<g id="a_edge4&#45;headlabel"><a xlink:href="dir_000068_000063.html" target="_top" xlink:title="2">
<text text-anchor="middle" x="447.8" y="-128.32" font-family="Helvetica" font-size="10.00">2</text>
</a>
</g>
</g>
<!-- dir_fb9e29b304053fe32bd398f2f401d305&#45;&gt;dir_8aaf58c2a1b20b8bdef59baa467903fa -->
<g id="edge9" class="edge">
<title>dir_fb9e29b304053fe32bd398f2f401d305&#45;&gt;dir_8aaf58c2a1b20b8bdef59baa467903fa</title>
<path fill="none" stroke="black" d="M61.88,-159.7C66.99,-151.56 73.2,-141.69 78.84,-132.7"/>
<polygon fill="black" stroke="black" points="81.89,-134.43 84.25,-124.1 75.96,-130.71 81.89,-134.43"/>
<g id="a_edge9&#45;headlabel"><a xlink:href="dir_000068_000023.html" target="_top" xlink:title="51">
<text text-anchor="middle" x="82.38" y="-136.49" font-family="Helvetica" font-size="10.00">51</text>
</a>
</g>
</g>
<!-- dir_fb9e29b304053fe32bd398f2f401d305&#45;&gt;dir_b31d54d5631803016a26f28213a41162 -->
<g id="edge11" class="edge">
<title>dir_fb9e29b304053fe32bd398f2f401d305&#45;&gt;dir_b31d54d5631803016a26f28213a41162</title>
<path fill="none" stroke="black" d="M78.13,-162.93C81.07,-161.79 84.06,-160.78 87,-160 190.64,-132.66 482.68,-188.88 568,-124 587.03,-109.53 594.77,-82.72 597.9,-62.3"/>
<polygon fill="black" stroke="black" points="601.38,-62.66 599.15,-52.3 594.43,-61.79 601.38,-62.66"/>
<g id="a_edge11&#45;headlabel"><a xlink:href="dir_000068_000034.html" target="_top" xlink:title="17">
<text text-anchor="middle" x="603.75" y="-64.08" font-family="Helvetica" font-size="10.00">17</text>
</a>
</g>
</g>
</g>
</svg>
