<?xml version="1.0" encoding="UTF-8" standalone="no"?>
<!DOCTYPE svg PUBLIC "-//W3C//DTD SVG 1.1//EN"
 "http://www.w3.org/Graphics/SVG/1.1/DTD/svg11.dtd">
<!-- Generated by graphviz version 2.44.0 (0)
 -->
<!-- Title: /home/ec2&#45;user/workspace/vsomeip/implementation/e2e_protection/include/e2e/profile Pages: 1 -->
<svg width="843pt" height="231pt"
 viewBox="0.00 0.00 842.67 231.00" xmlns="http://www.w3.org/2000/svg" xmlns:xlink="http://www.w3.org/1999/xlink">
<g id="graph0" class="graph" transform="scale(1 1) rotate(0) translate(4 227)">
<title>/home/ec2&#45;user/workspace/vsomeip/implementation/e2e_protection/include/e2e/profile</title>
<polygon fill="white" stroke="transparent" points="-4,4 -4,-227 838.67,-227 838.67,4 -4,4"/>
<g id="clust1" class="cluster">
<title>clusterdir_2c10f7dfbcf013b1b190c8d753008e6d</title>
<g id="a_clust1"><a xlink:href="dir_2c10f7dfbcf013b1b190c8d753008e6d.html" target="_top" xlink:title="e2e">
<polygon fill="#edf0f7" stroke="#7f7f7f" stroke-dasharray="5,2" points="8,-56 8,-215 480,-215 480,-56 8,-56"/>
<text text-anchor="middle" x="244" y="-203" font-family="Helvetica" font-size="10.00">e2e</text>
</a>
</g>
</g>
<g id="clust2" class="cluster">
<title>clusterdir_6430ed959aa6e92f798ce09450cbb0e0</title>
<g id="a_clust2"><a xlink:href="dir_6430ed959aa6e92f798ce09450cbb0e0.html" target="_top">
<polygon fill="#edf0f7" stroke="#404040" stroke-width="2" points="16,-64 16,-188 472,-188 472,-64 16,-64"/>
</a>
</g>
</g>
<!-- dir_6430ed959aa6e92f798ce09450cbb0e0 -->
<g id="node1" class="node">
<title>dir_6430ed959aa6e92f798ce09450cbb0e0</title>
<text text-anchor="middle" x="221" y="-159.5" font-family="Helvetica" font-size="10.00">profile</text>
</g>
<!-- dir_14b89642d47e591ba61a09b9ab23b291 -->
<g id="node7" class="node">
<title>dir_14b89642d47e591ba61a09b9ab23b291</title>
<g id="a_node7"><a xlink:href="dir_14b89642d47e591ba61a09b9ab23b291.html" target="_top" xlink:title="profile_interface">
<polygon fill="#a2b4d6" stroke="#404040" points="336,-108 250,-108 250,-72 336,-72 336,-108"/>
<text text-anchor="middle" x="293" y="-87.5" font-family="Helvetica" font-size="10.00">profile_interface</text>
</a>
</g>
</g>
<!-- dir_6430ed959aa6e92f798ce09450cbb0e0&#45;&gt;dir_14b89642d47e591ba61a09b9ab23b291 -->
<g id="edge1" class="edge">
<title>dir_6430ed959aa6e92f798ce09450cbb0e0&#45;&gt;dir_14b89642d47e591ba61a09b9ab23b291</title>
<path fill="none" stroke="black" d="M238.8,-143.7C247.6,-135.14 258.38,-124.66 268,-115.3"/>
<polygon fill="black" stroke="black" points="270.68,-117.58 275.41,-108.1 265.8,-112.57 270.68,-117.58"/>
<g id="a_edge1&#45;headlabel"><a xlink:href="dir_000045_000057.html" target="_top" xlink:title="13">
<text text-anchor="middle" x="270.08" y="-119.63" font-family="Helvetica" font-size="10.00">13</text>
</a>
</g>
</g>
<!-- dir_56126a1d848d4a1832817232e79a5a18 -->
<g id="node8" class="node">
<title>dir_56126a1d848d4a1832817232e79a5a18</title>
<g id="a_node8"><a xlink:href="dir_56126a1d848d4a1832817232e79a5a18.html" target="_top" xlink:title="configuration">
<polygon fill="none" stroke="red" stroke-dasharray="5,2" points="706,-108 634,-108 634,-72 706,-72 706,-108"/>
<text text-anchor="middle" x="670" y="-87.5" font-family="Helvetica" font-size="10.00">configuration</text>
</a>
</g>
</g>
<!-- dir_6430ed959aa6e92f798ce09450cbb0e0&#45;&gt;dir_56126a1d848d4a1832817232e79a5a18 -->
<g id="edge2" class="edge">
<title>dir_6430ed959aa6e92f798ce09450cbb0e0&#45;&gt;dir_56126a1d848d4a1832817232e79a5a18</title>
<path fill="none" stroke="black" d="M248.14,-147C251.08,-145.84 254.07,-144.81 257,-144 412.32,-101.12 462.99,-143.63 624.14,-107.81"/>
<polygon fill="black" stroke="black" points="624.94,-111.22 633.91,-105.57 623.38,-104.39 624.94,-111.22"/>
<g id="a_edge2&#45;headlabel"><a xlink:href="dir_000045_000006.html" target="_top" xlink:title="1">
<text text-anchor="middle" x="622.07" y="-112.29" font-family="Helvetica" font-size="10.00">1</text>
</a>
</g>
</g>
<!-- dir_8c17fa292750306381d606ba00a14046 -->
<g id="node9" class="node">
<title>dir_8c17fa292750306381d606ba00a14046</title>
<g id="a_node9"><a xlink:href="dir_8c17fa292750306381d606ba00a14046.html" target="_top" xlink:title="buffer">
<polygon fill="none" stroke="#7f7f7f" points="761,-36 707,-36 707,0 761,0 761,-36"/>
<text text-anchor="middle" x="734" y="-15.5" font-family="Helvetica" font-size="10.00">buffer</text>
</a>
</g>
</g>
<!-- dir_6430ed959aa6e92f798ce09450cbb0e0&#45;&gt;dir_8c17fa292750306381d606ba00a14046 -->
<g id="edge3" class="edge">
<title>dir_6430ed959aa6e92f798ce09450cbb0e0&#45;&gt;dir_8c17fa292750306381d606ba00a14046</title>
<path fill="none" stroke="black" d="M248.13,-146.94C251.07,-145.8 254.06,-144.78 257,-144 355.67,-117.77 638.21,-175.28 715,-108 732.23,-92.91 736.04,-66.37 736.1,-46.19"/>
<polygon fill="black" stroke="black" points="739.59,-45.93 735.83,-36.03 732.6,-46.12 739.59,-45.93"/>
<g id="a_edge3&#45;headlabel"><a xlink:href="dir_000045_000002.html" target="_top" xlink:title="8">
<text text-anchor="middle" x="742.53" y="-46.95" font-family="Helvetica" font-size="10.00">8</text>
</a>
</g>
</g>
<!-- dir_a17baa2740823ba34f3b0e33cb8a14f6 -->
<g id="node10" class="node">
<title>dir_a17baa2740823ba34f3b0e33cb8a14f6</title>
<g id="a_node10"><a xlink:href="dir_a17baa2740823ba34f3b0e33cb8a14f6.html" target="_top" xlink:title="e2exf">
<polygon fill="none" stroke="#7f7f7f" points="542,-108 488,-108 488,-72 542,-72 542,-108"/>
<text text-anchor="middle" x="515" y="-87.5" font-family="Helvetica" font-size="10.00">e2exf</text>
</a>
</g>
</g>
<!-- dir_6430ed959aa6e92f798ce09450cbb0e0&#45;&gt;dir_a17baa2740823ba34f3b0e33cb8a14f6 -->
<g id="edge4" class="edge">
<title>dir_6430ed959aa6e92f798ce09450cbb0e0&#45;&gt;dir_a17baa2740823ba34f3b0e33cb8a14f6</title>
<path fill="none" stroke="black" d="M248.2,-147.2C251.13,-146 254.1,-144.9 257,-144 351.17,-114.66 381.39,-135.92 476,-108 476.72,-107.79 477.44,-107.57 478.16,-107.34"/>
<polygon fill="black" stroke="black" points="479.39,-110.61 487.62,-103.94 477.02,-104.03 479.39,-110.61"/>
<g id="a_edge4&#45;headlabel"><a xlink:href="dir_000045_000013.html" target="_top" xlink:title="1">
<text text-anchor="middle" x="476.97" y="-112" font-family="Helvetica" font-size="10.00">1</text>
</a>
</g>
</g>
<!-- dir_b31d54d5631803016a26f28213a41162 -->
<g id="node11" class="node">
<title>dir_b31d54d5631803016a26f28213a41162</title>
<g id="a_node11"><a xlink:href="dir_b31d54d5631803016a26f28213a41162.html" target="_top" xlink:title="interface">
<polygon fill="none" stroke="red" points="615.5,-108 560.5,-108 560.5,-72 615.5,-72 615.5,-108"/>
<text text-anchor="middle" x="588" y="-87.5" font-family="Helvetica" font-size="10.00">interface</text>
</a>
</g>
</g>
<!-- dir_6430ed959aa6e92f798ce09450cbb0e0&#45;&gt;dir_b31d54d5631803016a26f28213a41162 -->
<g id="edge5" class="edge">
<title>dir_6430ed959aa6e92f798ce09450cbb0e0&#45;&gt;dir_b31d54d5631803016a26f28213a41162</title>
<path fill="none" stroke="black" d="M248.16,-147.07C251.1,-145.9 254.08,-144.84 257,-144 383.46,-107.43 424.35,-143.91 551,-108 551.1,-107.97 551.2,-107.94 551.29,-107.92"/>
<polygon fill="black" stroke="black" points="552.15,-111.32 560.47,-104.76 549.88,-104.7 552.15,-111.32"/>
<g id="a_edge5&#45;headlabel"><a xlink:href="dir_000045_000034.html" target="_top" xlink:title="2">
<text text-anchor="middle" x="549.68" y="-112.68" font-family="Helvetica" font-size="10.00">2</text>
</a>
</g>
</g>
<!-- dir_ca256a27f8d6663651602c44f3c38f3f -->
<g id="node2" class="node">
<title>dir_ca256a27f8d6663651602c44f3c38f3f</title>
<g id="a_node2"><a xlink:href="dir_ca256a27f8d6663651602c44f3c38f3f.html" target="_top" xlink:title="profile01">
<polygon fill="#a2b4d6" stroke="#404040" points="320,-180 266,-180 266,-144 320,-144 320,-180"/>
<text text-anchor="middle" x="293" y="-159.5" font-family="Helvetica" font-size="10.00">profile01</text>
</a>
</g>
</g>
<!-- dir_ca256a27f8d6663651602c44f3c38f3f&#45;&gt;dir_14b89642d47e591ba61a09b9ab23b291 -->
<g id="edge6" class="edge">
<title>dir_ca256a27f8d6663651602c44f3c38f3f&#45;&gt;dir_14b89642d47e591ba61a09b9ab23b291</title>
<path fill="none" stroke="black" d="M293,-143.7C293,-135.98 293,-126.71 293,-118.11"/>
<polygon fill="black" stroke="black" points="296.5,-118.1 293,-108.1 289.5,-118.1 296.5,-118.1"/>
<g id="a_edge6&#45;headlabel"><a xlink:href="dir_000047_000057.html" target="_top" xlink:title="2">
<text text-anchor="middle" x="299.34" y="-119.2" font-family="Helvetica" font-size="10.00">2</text>
</a>
</g>
</g>
<!-- dir_ca256a27f8d6663651602c44f3c38f3f&#45;&gt;dir_8c17fa292750306381d606ba00a14046 -->
<g id="edge7" class="edge">
<title>dir_ca256a27f8d6663651602c44f3c38f3f&#45;&gt;dir_8c17fa292750306381d606ba00a14046</title>
<path fill="none" stroke="black" d="M320.13,-146.96C323.07,-145.81 326.06,-144.79 329,-144 419.23,-119.66 684.81,-176.85 748,-108 763.36,-91.26 756.79,-64.87 748.22,-45.17"/>
<polygon fill="black" stroke="black" points="751.38,-43.65 743.94,-36.1 745.05,-46.64 751.38,-43.65"/>
<g id="a_edge7&#45;headlabel"><a xlink:href="dir_000047_000002.html" target="_top" xlink:title="1">
<text text-anchor="middle" x="755.48" y="-43.19" font-family="Helvetica" font-size="10.00">1</text>
</a>
</g>
</g>
<!-- dir_2fc21bbfaf82912f4f6012ed6053ba99 -->
<g id="node3" class="node">
<title>dir_2fc21bbfaf82912f4f6012ed6053ba99</title>
<g id="a_node3"><a xlink:href="dir_2fc21bbfaf82912f4f6012ed6053ba99.html" target="_top" xlink:title="profile04">
<polygon fill="#a2b4d6" stroke="#404040" points="392,-180 338,-180 338,-144 392,-144 392,-180"/>
<text text-anchor="middle" x="365" y="-159.5" font-family="Helvetica" font-size="10.00">profile04</text>
</a>
</g>
</g>
<!-- dir_2fc21bbfaf82912f4f6012ed6053ba99&#45;&gt;dir_14b89642d47e591ba61a09b9ab23b291 -->
<g id="edge8" class="edge">
<title>dir_2fc21bbfaf82912f4f6012ed6053ba99&#45;&gt;dir_14b89642d47e591ba61a09b9ab23b291</title>
<path fill="none" stroke="black" d="M347.2,-143.7C338.4,-135.14 327.62,-124.66 318,-115.3"/>
<polygon fill="black" stroke="black" points="320.2,-112.57 310.59,-108.1 315.32,-117.58 320.2,-112.57"/>
<g id="a_edge8&#45;headlabel"><a xlink:href="dir_000049_000057.html" target="_top" xlink:title="2">
<text text-anchor="middle" x="324.76" y="-110.54" font-family="Helvetica" font-size="10.00">2</text>
</a>
</g>
</g>
<!-- dir_2fc21bbfaf82912f4f6012ed6053ba99&#45;&gt;dir_8c17fa292750306381d606ba00a14046 -->
<g id="edge9" class="edge">
<title>dir_2fc21bbfaf82912f4f6012ed6053ba99&#45;&gt;dir_8c17fa292750306381d606ba00a14046</title>
<path fill="none" stroke="black" d="M392.14,-146.99C395.08,-145.83 398.07,-144.8 401,-144 483.88,-121.31 728.14,-171.53 786,-108 801.56,-90.91 796.59,-76.54 786,-56 782.21,-48.66 776.23,-42.46 769.64,-37.35"/>
<polygon fill="black" stroke="black" points="771.31,-34.26 761.09,-31.47 767.34,-40.02 771.31,-34.26"/>
<g id="a_edge9&#45;headlabel"><a xlink:href="dir_000049_000002.html" target="_top" xlink:title="1">
<text text-anchor="middle" x="775.88" y="-31.46" font-family="Helvetica" font-size="10.00">1</text>
</a>
</g>
</g>
<!-- dir_6ecac2e08db170bd9bddcddec9d07b49 -->
<g id="node4" class="node">
<title>dir_6ecac2e08db170bd9bddcddec9d07b49</title>
<g id="a_node4"><a xlink:href="dir_6ecac2e08db170bd9bddcddec9d07b49.html" target="_top" xlink:title="profile05">
<polygon fill="#a2b4d6" stroke="#404040" points="464,-180 410,-180 410,-144 464,-144 464,-180"/>
<text text-anchor="middle" x="437" y="-159.5" font-family="Helvetica" font-size="10.00">profile05</text>
</a>
</g>
</g>
<!-- dir_6ecac2e08db170bd9bddcddec9d07b49&#45;&gt;dir_14b89642d47e591ba61a09b9ab23b291 -->
<g id="edge10" class="edge">
<title>dir_6ecac2e08db170bd9bddcddec9d07b49&#45;&gt;dir_14b89642d47e591ba61a09b9ab23b291</title>
<path fill="none" stroke="black" d="M409.91,-147.83C389.49,-137.9 361.03,-124.07 337.31,-112.54"/>
<polygon fill="black" stroke="black" points="338.66,-109.31 328.14,-108.08 335.6,-115.6 338.66,-109.31"/>
<g id="a_edge10&#45;headlabel"><a xlink:href="dir_000051_000057.html" target="_top" xlink:title="2">
<text text-anchor="middle" x="343.14" y="-105.82" font-family="Helvetica" font-size="10.00">2</text>
</a>
</g>
</g>
<!-- dir_6ecac2e08db170bd9bddcddec9d07b49&#45;&gt;dir_8c17fa292750306381d606ba00a14046 -->
<g id="edge11" class="edge">
<title>dir_6ecac2e08db170bd9bddcddec9d07b49&#45;&gt;dir_8c17fa292750306381d606ba00a14046</title>
<path fill="none" stroke="black" d="M464.03,-161.66C544.01,-162.96 776.91,-161.98 824,-108 839.19,-90.58 836.87,-75.2 824,-56 812.2,-38.39 790.35,-29.16 771.14,-24.32"/>
<polygon fill="black" stroke="black" points="771.63,-20.84 761.11,-22.11 770.12,-27.68 771.63,-20.84"/>
<g id="a_edge11&#45;headlabel"><a xlink:href="dir_000051_000002.html" target="_top" xlink:title="1">
<text text-anchor="middle" x="775.75" y="-16.34" font-family="Helvetica" font-size="10.00">1</text>
</a>
</g>
</g>
<!-- dir_c11058a4d62f6bec29c1fd8d5ef74132 -->
<g id="node5" class="node">
<title>dir_c11058a4d62f6bec29c1fd8d5ef74132</title>
<g id="a_node5"><a xlink:href="dir_c11058a4d62f6bec29c1fd8d5ef74132.html" target="_top" xlink:title="profile07">
<polygon fill="#a2b4d6" stroke="#404040" points="78,-180 24,-180 24,-144 78,-144 78,-180"/>
<text text-anchor="middle" x="51" y="-159.5" font-family="Helvetica" font-size="10.00">profile07</text>
</a>
</g>
</g>
<!-- dir_c11058a4d62f6bec29c1fd8d5ef74132&#45;&gt;dir_14b89642d47e591ba61a09b9ab23b291 -->
<g id="edge12" class="edge">
<title>dir_c11058a4d62f6bec29c1fd8d5ef74132&#45;&gt;dir_14b89642d47e591ba61a09b9ab23b291</title>
<path fill="none" stroke="black" d="M78.29,-147.46C81.2,-146.21 84.14,-145.03 87,-144 137.7,-125.69 197.55,-111.03 239.64,-101.81"/>
<polygon fill="black" stroke="black" points="240.64,-105.18 249.67,-99.64 239.16,-98.33 240.64,-105.18"/>
<g id="a_edge12&#45;headlabel"><a xlink:href="dir_000053_000057.html" target="_top" xlink:title="2">
<text text-anchor="middle" x="237.73" y="-106.21" font-family="Helvetica" font-size="10.00">2</text>
</a>
</g>
</g>
<!-- dir_c11058a4d62f6bec29c1fd8d5ef74132&#45;&gt;dir_8c17fa292750306381d606ba00a14046 -->
<g id="edge13" class="edge">
<title>dir_c11058a4d62f6bec29c1fd8d5ef74132&#45;&gt;dir_8c17fa292750306381d606ba00a14046</title>
<path fill="none" stroke="black" d="M78.18,-147.12C81.11,-145.94 84.09,-144.87 87,-144 197.95,-110.9 242.41,-161.67 345,-108 372.87,-93.42 364.91,-70.15 393,-56 445.44,-29.58 619.47,-21.91 696.62,-19.78"/>
<polygon fill="black" stroke="black" points="696.94,-23.27 706.84,-19.51 696.75,-16.27 696.94,-23.27"/>
<g id="a_edge13&#45;headlabel"><a xlink:href="dir_000053_000002.html" target="_top" xlink:title="1">
<text text-anchor="middle" x="693.42" y="-23.7" font-family="Helvetica" font-size="10.00">1</text>
</a>
</g>
</g>
<!-- dir_c7e5b7921587376004b7d6a891f3b675 -->
<g id="node6" class="node">
<title>dir_c7e5b7921587376004b7d6a891f3b675</title>
<g id="a_node6"><a xlink:href="dir_c7e5b7921587376004b7d6a891f3b675.html" target="_top" xlink:title="profile_custom">
<polygon fill="#a2b4d6" stroke="#404040" points="176,-180 96,-180 96,-144 176,-144 176,-180"/>
<text text-anchor="middle" x="136" y="-159.5" font-family="Helvetica" font-size="10.00">profile_custom</text>
</a>
</g>
</g>
<!-- dir_c7e5b7921587376004b7d6a891f3b675&#45;&gt;dir_14b89642d47e591ba61a09b9ab23b291 -->
<g id="edge14" class="edge">
<title>dir_c7e5b7921587376004b7d6a891f3b675&#45;&gt;dir_14b89642d47e591ba61a09b9ab23b291</title>
<path fill="none" stroke="black" d="M174.41,-143.88C195.87,-134.31 222.8,-122.3 245.57,-112.15"/>
<polygon fill="black" stroke="black" points="247.01,-115.34 254.72,-108.07 244.16,-108.94 247.01,-115.34"/>
<g id="a_edge14&#45;headlabel"><a xlink:href="dir_000055_000057.html" target="_top" xlink:title="2">
<text text-anchor="middle" x="244.88" y="-116.89" font-family="Helvetica" font-size="10.00">2</text>
</a>
</g>
</g>
<!-- dir_c7e5b7921587376004b7d6a891f3b675&#45;&gt;dir_8c17fa292750306381d606ba00a14046 -->
<g id="edge15" class="edge">
<title>dir_c7e5b7921587376004b7d6a891f3b675&#45;&gt;dir_8c17fa292750306381d606ba00a14046</title>
<path fill="none" stroke="black" d="M176.22,-146.47C179.17,-145.58 182.12,-144.74 185,-144 275.84,-120.55 305.12,-140.84 393,-108 434.84,-92.37 436.95,-71.06 479,-56 553.11,-29.45 645.83,-21.92 696.56,-19.8"/>
<polygon fill="black" stroke="black" points="696.86,-23.3 706.72,-19.43 696.6,-16.3 696.86,-23.3"/>
<g id="a_edge15&#45;headlabel"><a xlink:href="dir_000055_000002.html" target="_top" xlink:title="1">
<text text-anchor="middle" x="693.37" y="-23.76" font-family="Helvetica" font-size="10.00">1</text>
</a>
</g>
</g>
<!-- dir_14b89642d47e591ba61a09b9ab23b291&#45;&gt;dir_8c17fa292750306381d606ba00a14046 -->
<g id="edge16" class="edge">
<title>dir_14b89642d47e591ba61a09b9ab23b291&#45;&gt;dir_8c17fa292750306381d606ba00a14046</title>
<path fill="none" stroke="black" d="M324.41,-71.87C336.73,-65.89 351.2,-59.74 365,-56 482.97,-24 628.9,-19.12 696.44,-18.73"/>
<polygon fill="black" stroke="black" points="696.6,-22.23 706.59,-18.7 696.58,-15.23 696.6,-22.23"/>
<g id="a_edge16&#45;headlabel"><a xlink:href="dir_000057_000002.html" target="_top" xlink:title="2">
<text text-anchor="middle" x="693.02" y="-22.57" font-family="Helvetica" font-size="10.00">2</text>
</a>
</g>
</g>
</g>
</svg>
