<?xml version="1.0" encoding="UTF-8" standalone="no"?>
<!DOCTYPE svg PUBLIC "-//W3C//DTD SVG 1.1//EN"
 "http://www.w3.org/Graphics/SVG/1.1/DTD/svg11.dtd">
<!-- Generated by graphviz version 2.44.0 (0)
 -->
<!-- Title: /home/ec2&#45;user/workspace/vsomeip/implementation/e2e_protection Pages: 1 -->
<svg width="326pt" height="247pt"
 viewBox="0.00 0.00 325.50 247.00" xmlns="http://www.w3.org/2000/svg" xmlns:xlink="http://www.w3.org/1999/xlink">
<g id="graph0" class="graph" transform="scale(1 1) rotate(0) translate(4 243)">
<title>/home/ec2&#45;user/workspace/vsomeip/implementation/e2e_protection</title>
<polygon fill="white" stroke="transparent" points="-4,4 -4,-243 321.5,-243 321.5,4 -4,4"/>
<g id="clust1" class="cluster">
<title>clusterdir_ed7c47a03c091bb19436c59342bc9555</title>
<g id="a_clust1"><a xlink:href="dir_ed7c47a03c091bb19436c59342bc9555.html" target="_top" xlink:title="implementation">
<polygon fill="#edf0f7" stroke="#404040" stroke-dasharray="5,2" points="8,-8 8,-231 254,-231 254,-8 8,-8"/>
<text text-anchor="middle" x="131" y="-219" font-family="Helvetica" font-size="10.00">implementation</text>
</a>
</g>
</g>
<g id="clust2" class="cluster">
<title>clusterdir_476f23a9d8d07b93b910130c774b1932</title>
<g id="a_clust2"><a xlink:href="dir_476f23a9d8d07b93b910130c774b1932.html" target="_top">
<polygon fill="#edf0f7" stroke="#404040" stroke-width="2" points="16,-80 16,-204 184,-204 184,-80 16,-80"/>
</a>
</g>
</g>
<!-- dir_56126a1d848d4a1832817232e79a5a18 -->
<g id="node1" class="node">
<title>dir_56126a1d848d4a1832817232e79a5a18</title>
<g id="a_node1"><a xlink:href="dir_56126a1d848d4a1832817232e79a5a18.html" target="_top" xlink:title="configuration">
<polygon fill="#a2b4d6" stroke="red" points="135,-52 63,-52 63,-16 135,-16 135,-52"/>
<text text-anchor="middle" x="99" y="-31.5" font-family="Helvetica" font-size="10.00">configuration</text>
</a>
</g>
</g>
<!-- dir_6972051101bc5f8d68d31d49f06d7aaf -->
<g id="node2" class="node">
<title>dir_6972051101bc5f8d68d31d49f06d7aaf</title>
<g id="a_node2"><a xlink:href="dir_6972051101bc5f8d68d31d49f06d7aaf.html" target="_top" xlink:title="utility">
<polygon fill="#a2b4d6" stroke="red" points="246,-124 192,-124 192,-88 246,-88 246,-124"/>
<text text-anchor="middle" x="219" y="-103.5" font-family="Helvetica" font-size="10.00">utility</text>
</a>
</g>
</g>
<!-- dir_476f23a9d8d07b93b910130c774b1932 -->
<g id="node3" class="node">
<title>dir_476f23a9d8d07b93b910130c774b1932</title>
<text text-anchor="middle" x="136" y="-175.5" font-family="Helvetica" font-size="10.00">e2e_protection</text>
</g>
<!-- dir_261f67b82c2cb416f656d185a1fa5017 -->
<g id="node4" class="node">
<title>dir_261f67b82c2cb416f656d185a1fa5017</title>
<g id="a_node4"><a xlink:href="dir_261f67b82c2cb416f656d185a1fa5017.html" target="_top" xlink:title="include">
<polygon fill="#a2b4d6" stroke="#404040" points="126,-124 72,-124 72,-88 126,-88 126,-124"/>
<text text-anchor="middle" x="99" y="-103.5" font-family="Helvetica" font-size="10.00">include</text>
</a>
</g>
</g>
<!-- dir_261f67b82c2cb416f656d185a1fa5017&#45;&gt;dir_56126a1d848d4a1832817232e79a5a18 -->
<g id="edge1" class="edge">
<title>dir_261f67b82c2cb416f656d185a1fa5017&#45;&gt;dir_56126a1d848d4a1832817232e79a5a18</title>
<path fill="none" stroke="black" d="M99,-87.7C99,-79.98 99,-70.71 99,-62.11"/>
<polygon fill="black" stroke="black" points="102.5,-62.1 99,-52.1 95.5,-62.1 102.5,-62.1"/>
<g id="a_edge1&#45;headlabel"><a xlink:href="dir_000022_000006.html" target="_top" xlink:title="1">
<text text-anchor="middle" x="105.34" y="-63.2" font-family="Helvetica" font-size="10.00">1</text>
</a>
</g>
</g>
<!-- dir_b31d54d5631803016a26f28213a41162 -->
<g id="node6" class="node">
<title>dir_b31d54d5631803016a26f28213a41162</title>
<g id="a_node6"><a xlink:href="dir_b31d54d5631803016a26f28213a41162.html" target="_top" xlink:title="interface">
<polygon fill="none" stroke="red" points="317.5,-52 262.5,-52 262.5,-16 317.5,-16 317.5,-52"/>
<text text-anchor="middle" x="290" y="-31.5" font-family="Helvetica" font-size="10.00">interface</text>
</a>
</g>
</g>
<!-- dir_261f67b82c2cb416f656d185a1fa5017&#45;&gt;dir_b31d54d5631803016a26f28213a41162 -->
<g id="edge2" class="edge">
<title>dir_261f67b82c2cb416f656d185a1fa5017&#45;&gt;dir_b31d54d5631803016a26f28213a41162</title>
<path fill="none" stroke="black" d="M117.4,-87.9C121.34,-84.91 125.64,-82.09 130,-80 179.54,-56.25 200.87,-70.25 252.62,-53.64"/>
<polygon fill="black" stroke="black" points="253.97,-56.87 262.28,-50.3 251.69,-50.26 253.97,-56.87"/>
<g id="a_edge2&#45;headlabel"><a xlink:href="dir_000022_000034.html" target="_top" xlink:title="2">
<text text-anchor="middle" x="251.5" y="-58.23" font-family="Helvetica" font-size="10.00">2</text>
</a>
</g>
</g>
<!-- dir_26072f771e90755e0dd5d6c321b33fcc -->
<g id="node5" class="node">
<title>dir_26072f771e90755e0dd5d6c321b33fcc</title>
<g id="a_node5"><a xlink:href="dir_26072f771e90755e0dd5d6c321b33fcc.html" target="_top" xlink:title="src">
<polygon fill="#a2b4d6" stroke="#404040" points="78,-196 24,-196 24,-160 78,-160 78,-196"/>
<text text-anchor="middle" x="51" y="-175.5" font-family="Helvetica" font-size="10.00">src</text>
</a>
</g>
</g>
<!-- dir_26072f771e90755e0dd5d6c321b33fcc&#45;&gt;dir_6972051101bc5f8d68d31d49f06d7aaf -->
<g id="edge4" class="edge">
<title>dir_26072f771e90755e0dd5d6c321b33fcc&#45;&gt;dir_6972051101bc5f8d68d31d49f06d7aaf</title>
<path fill="none" stroke="black" d="M78.39,-163.72C81.28,-162.43 84.19,-161.16 87,-160 128.03,-143.05 142.54,-143.38 182.51,-126.31"/>
<polygon fill="black" stroke="black" points="183.99,-129.48 191.74,-122.26 181.17,-123.07 183.99,-129.48"/>
<g id="a_edge4&#45;headlabel"><a xlink:href="dir_000067_000080.html" target="_top" xlink:title="6">
<text text-anchor="middle" x="181.84" y="-131.03" font-family="Helvetica" font-size="10.00">6</text>
</a>
</g>
</g>
<!-- dir_26072f771e90755e0dd5d6c321b33fcc&#45;&gt;dir_261f67b82c2cb416f656d185a1fa5017 -->
<g id="edge3" class="edge">
<title>dir_26072f771e90755e0dd5d6c321b33fcc&#45;&gt;dir_261f67b82c2cb416f656d185a1fa5017</title>
<path fill="none" stroke="black" d="M62.87,-159.7C68.5,-151.47 75.35,-141.48 81.57,-132.42"/>
<polygon fill="black" stroke="black" points="84.5,-134.33 87.27,-124.1 78.73,-130.37 84.5,-134.33"/>
<g id="a_edge3&#45;headlabel"><a xlink:href="dir_000067_000022.html" target="_top" xlink:title="39">
<text text-anchor="middle" x="84.81" y="-136.4" font-family="Helvetica" font-size="10.00">39</text>
</a>
</g>
</g>
<!-- dir_26072f771e90755e0dd5d6c321b33fcc&#45;&gt;dir_b31d54d5631803016a26f28213a41162 -->
<g id="edge5" class="edge">
<title>dir_26072f771e90755e0dd5d6c321b33fcc&#45;&gt;dir_b31d54d5631803016a26f28213a41162</title>
<path fill="none" stroke="black" d="M78.24,-163.33C81.16,-162.11 84.12,-160.97 87,-160 160.62,-135.25 199.43,-175.01 258,-124 275.84,-108.46 283.74,-82.21 287.23,-62.24"/>
<polygon fill="black" stroke="black" points="290.72,-62.58 288.72,-52.18 283.79,-61.56 290.72,-62.58"/>
<g id="a_edge5&#45;headlabel"><a xlink:href="dir_000067_000034.html" target="_top" xlink:title="10">
<text text-anchor="middle" x="293" y="-64.05" font-family="Helvetica" font-size="10.00">10</text>
</a>
</g>
</g>
</g>
</svg>
