<?xml version="1.0" encoding="UTF-8" standalone="no"?>
<!DOCTYPE svg PUBLIC "-//W3C//DTD SVG 1.1//EN"
 "http://www.w3.org/Graphics/SVG/1.1/DTD/svg11.dtd">
<!-- Generated by graphviz version 2.44.0 (0)
 -->
<!-- Title: /home/ec2&#45;user/workspace/vsomeip/implementation/runtime/src Pages: 1 -->
<svg width="753pt" height="167pt"
 viewBox="0.00 0.00 753.00 167.00" xmlns="http://www.w3.org/2000/svg" xmlns:xlink="http://www.w3.org/1999/xlink">
<g id="graph0" class="graph" transform="scale(1 1) rotate(0) translate(4 163)">
<title>/home/ec2&#45;user/workspace/vsomeip/implementation/runtime/src</title>
<polygon fill="white" stroke="transparent" points="-4,4 -4,-163 749,-163 749,4 -4,4"/>
<g id="clust1" class="cluster">
<title>clusterdir_edcd78c7944f950aad2a7d808a095802</title>
<g id="a_clust1"><a xlink:href="dir_edcd78c7944f950aad2a7d808a095802.html" target="_top" xlink:title="runtime">
<polygon fill="#edf0f7" stroke="#7f7f7f" stroke-dasharray="5,2" points="8,-8 8,-151 78,-151 78,-8 8,-8"/>
<text text-anchor="middle" x="43" y="-139" font-family="Helvetica" font-size="10.00">runtime</text>
</a>
</g>
</g>
<!-- dir_09d934579f160da0a50cec206544f0b7 -->
<g id="node1" class="node">
<title>dir_09d934579f160da0a50cec206544f0b7</title>
<g id="a_node1"><a xlink:href="dir_09d934579f160da0a50cec206544f0b7.html" target="_top" xlink:title="include">
<polygon fill="#a2b4d6" stroke="#404040" points="70,-52 16,-52 16,-16 70,-16 70,-52"/>
<text text-anchor="middle" x="43" y="-31.5" font-family="Helvetica" font-size="10.00">include</text>
</a>
</g>
</g>
<!-- dir_271001906c846293f255e34446db3cb4 -->
<g id="node2" class="node">
<title>dir_271001906c846293f255e34446db3cb4</title>
<g id="a_node2"><a xlink:href="dir_271001906c846293f255e34446db3cb4.html" target="_top" xlink:title="src">
<polygon fill="#edf0f7" stroke="#404040" stroke-width="2" points="70,-124 16,-124 16,-88 70,-88 70,-124"/>
<text text-anchor="middle" x="43" y="-103.5" font-family="Helvetica" font-size="10.00">src</text>
</a>
</g>
</g>
<!-- dir_271001906c846293f255e34446db3cb4&#45;&gt;dir_09d934579f160da0a50cec206544f0b7 -->
<g id="edge1" class="edge">
<title>dir_271001906c846293f255e34446db3cb4&#45;&gt;dir_09d934579f160da0a50cec206544f0b7</title>
<path fill="none" stroke="black" d="M43,-87.7C43,-79.98 43,-70.71 43,-62.11"/>
<polygon fill="black" stroke="black" points="46.5,-62.1 43,-52.1 39.5,-62.1 46.5,-62.1"/>
<g id="a_edge1&#45;headlabel"><a xlink:href="dir_000074_000029.html" target="_top" xlink:title="4">
<text text-anchor="middle" x="49.34" y="-63.2" font-family="Helvetica" font-size="10.00">4</text>
</a>
</g>
</g>
<!-- dir_282dd5a982ba644edb6efcfaee8b7735 -->
<g id="node3" class="node">
<title>dir_282dd5a982ba644edb6efcfaee8b7735</title>
<g id="a_node3"><a xlink:href="dir_282dd5a982ba644edb6efcfaee8b7735.html" target="_top" xlink:title="tracing">
<polygon fill="none" stroke="red" stroke-dasharray="5,2" points="142,-52 88,-52 88,-16 142,-16 142,-52"/>
<text text-anchor="middle" x="115" y="-31.5" font-family="Helvetica" font-size="10.00">tracing</text>
</a>
</g>
</g>
<!-- dir_271001906c846293f255e34446db3cb4&#45;&gt;dir_282dd5a982ba644edb6efcfaee8b7735 -->
<g id="edge2" class="edge">
<title>dir_271001906c846293f255e34446db3cb4&#45;&gt;dir_282dd5a982ba644edb6efcfaee8b7735</title>
<path fill="none" stroke="black" d="M60.8,-87.7C69.6,-79.14 80.38,-68.66 90,-59.3"/>
<polygon fill="black" stroke="black" points="92.68,-61.58 97.41,-52.1 87.8,-56.57 92.68,-61.58"/>
<g id="a_edge2&#45;headlabel"><a xlink:href="dir_000074_000079.html" target="_top" xlink:title="1">
<text text-anchor="middle" x="92.08" y="-63.63" font-family="Helvetica" font-size="10.00">1</text>
</a>
</g>
</g>
<!-- dir_3ce07147fcbac31fc4d5892a851f6627 -->
<g id="node4" class="node">
<title>dir_3ce07147fcbac31fc4d5892a851f6627</title>
<g id="a_node4"><a xlink:href="dir_3ce07147fcbac31fc4d5892a851f6627.html" target="_top" xlink:title="message">
<polygon fill="none" stroke="red" stroke-dasharray="5,2" points="216,-52 160,-52 160,-16 216,-16 216,-52"/>
<text text-anchor="middle" x="188" y="-31.5" font-family="Helvetica" font-size="10.00">message</text>
</a>
</g>
</g>
<!-- dir_271001906c846293f255e34446db3cb4&#45;&gt;dir_3ce07147fcbac31fc4d5892a851f6627 -->
<g id="edge3" class="edge">
<title>dir_271001906c846293f255e34446db3cb4&#45;&gt;dir_3ce07147fcbac31fc4d5892a851f6627</title>
<path fill="none" stroke="black" d="M70.27,-91.83C92.97,-80.88 125.51,-65.17 150.63,-53.04"/>
<polygon fill="black" stroke="black" points="152.38,-56.08 159.86,-48.58 149.33,-49.78 152.38,-56.08"/>
<g id="a_edge3&#45;headlabel"><a xlink:href="dir_000074_000041.html" target="_top" xlink:title="3">
<text text-anchor="middle" x="150.37" y="-57.7" font-family="Helvetica" font-size="10.00">3</text>
</a>
</g>
</g>
<!-- dir_56126a1d848d4a1832817232e79a5a18 -->
<g id="node5" class="node">
<title>dir_56126a1d848d4a1832817232e79a5a18</title>
<g id="a_node5"><a xlink:href="dir_56126a1d848d4a1832817232e79a5a18.html" target="_top" xlink:title="configuration">
<polygon fill="none" stroke="red" stroke-dasharray="5,2" points="306,-52 234,-52 234,-16 306,-16 306,-52"/>
<text text-anchor="middle" x="270" y="-31.5" font-family="Helvetica" font-size="10.00">configuration</text>
</a>
</g>
</g>
<!-- dir_271001906c846293f255e34446db3cb4&#45;&gt;dir_56126a1d848d4a1832817232e79a5a18 -->
<g id="edge4" class="edge">
<title>dir_271001906c846293f255e34446db3cb4&#45;&gt;dir_56126a1d848d4a1832817232e79a5a18</title>
<path fill="none" stroke="black" d="M70.03,-97.84C103.94,-88.7 164.03,-72 224.1,-52.18"/>
<polygon fill="black" stroke="black" points="225.35,-55.45 233.74,-48.98 223.14,-48.81 225.35,-55.45"/>
<g id="a_edge4&#45;headlabel"><a xlink:href="dir_000074_000006.html" target="_top" xlink:title="2">
<text text-anchor="middle" x="222.84" y="-56.78" font-family="Helvetica" font-size="10.00">2</text>
</a>
</g>
</g>
<!-- dir_6972051101bc5f8d68d31d49f06d7aaf -->
<g id="node6" class="node">
<title>dir_6972051101bc5f8d68d31d49f06d7aaf</title>
<g id="a_node6"><a xlink:href="dir_6972051101bc5f8d68d31d49f06d7aaf.html" target="_top" xlink:title="utility">
<polygon fill="none" stroke="red" stroke-dasharray="5,2" points="378,-52 324,-52 324,-16 378,-16 378,-52"/>
<text text-anchor="middle" x="351" y="-31.5" font-family="Helvetica" font-size="10.00">utility</text>
</a>
</g>
</g>
<!-- dir_271001906c846293f255e34446db3cb4&#45;&gt;dir_6972051101bc5f8d68d31d49f06d7aaf -->
<g id="edge5" class="edge">
<title>dir_271001906c846293f255e34446db3cb4&#45;&gt;dir_6972051101bc5f8d68d31d49f06d7aaf</title>
<path fill="none" stroke="black" d="M70.2,-101.97C118.17,-96.16 220.8,-81.57 314.18,-51.83"/>
<polygon fill="black" stroke="black" points="315.34,-55.14 323.77,-48.72 313.18,-48.48 315.34,-55.14"/>
<g id="a_edge5&#45;headlabel"><a xlink:href="dir_000074_000080.html" target="_top" xlink:title="1">
<text text-anchor="middle" x="312.8" y="-56.45" font-family="Helvetica" font-size="10.00">1</text>
</a>
</g>
</g>
<!-- dir_96312f6272b562b103a6f862042db4a4 -->
<g id="node7" class="node">
<title>dir_96312f6272b562b103a6f862042db4a4</title>
<g id="a_node7"><a xlink:href="dir_96312f6272b562b103a6f862042db4a4.html" target="_top" xlink:title="security">
<polygon fill="none" stroke="red" stroke-dasharray="5,2" points="450,-52 396,-52 396,-16 450,-16 450,-52"/>
<text text-anchor="middle" x="423" y="-31.5" font-family="Helvetica" font-size="10.00">security</text>
</a>
</g>
</g>
<!-- dir_271001906c846293f255e34446db3cb4&#45;&gt;dir_96312f6272b562b103a6f862042db4a4 -->
<g id="edge6" class="edge">
<title>dir_271001906c846293f255e34446db3cb4&#45;&gt;dir_96312f6272b562b103a6f862042db4a4</title>
<path fill="none" stroke="black" d="M70.35,-103.46C127.82,-99.67 265.1,-87.67 386.02,-51.8"/>
<polygon fill="black" stroke="black" points="387.25,-55.09 395.81,-48.83 385.22,-48.39 387.25,-55.09"/>
<g id="a_edge6&#45;headlabel"><a xlink:href="dir_000074_000062.html" target="_top" xlink:title="1">
<text text-anchor="middle" x="384.64" y="-56.35" font-family="Helvetica" font-size="10.00">1</text>
</a>
</g>
</g>
<!-- dir_9c7b9d609ec855ab7fbf064b0ccf8e4e -->
<g id="node8" class="node">
<title>dir_9c7b9d609ec855ab7fbf064b0ccf8e4e</title>
<g id="a_node8"><a xlink:href="dir_9c7b9d609ec855ab7fbf064b0ccf8e4e.html" target="_top" xlink:title="endpoints">
<polygon fill="none" stroke="red" stroke-dasharray="5,2" points="527.5,-52 468.5,-52 468.5,-16 527.5,-16 527.5,-52"/>
<text text-anchor="middle" x="498" y="-31.5" font-family="Helvetica" font-size="10.00">endpoints</text>
</a>
</g>
</g>
<!-- dir_271001906c846293f255e34446db3cb4&#45;&gt;dir_9c7b9d609ec855ab7fbf064b0ccf8e4e -->
<g id="edge7" class="edge">
<title>dir_271001906c846293f255e34446db3cb4&#45;&gt;dir_9c7b9d609ec855ab7fbf064b0ccf8e4e</title>
<path fill="none" stroke="black" d="M70.29,-104.19C136.1,-101.69 308.54,-91.8 458.25,-51.73"/>
<polygon fill="black" stroke="black" points="459.35,-55.06 468.07,-49.05 457.51,-48.31 459.35,-55.06"/>
<g id="a_edge7&#45;headlabel"><a xlink:href="dir_000074_000015.html" target="_top" xlink:title="1">
<text text-anchor="middle" x="456.63" y="-56.25" font-family="Helvetica" font-size="10.00">1</text>
</a>
</g>
</g>
<!-- dir_b31d54d5631803016a26f28213a41162 -->
<g id="node9" class="node">
<title>dir_b31d54d5631803016a26f28213a41162</title>
<g id="a_node9"><a xlink:href="dir_b31d54d5631803016a26f28213a41162.html" target="_top" xlink:title="interface">
<polygon fill="none" stroke="red" points="600.5,-52 545.5,-52 545.5,-16 600.5,-16 600.5,-52"/>
<text text-anchor="middle" x="573" y="-31.5" font-family="Helvetica" font-size="10.00">interface</text>
</a>
</g>
</g>
<!-- dir_271001906c846293f255e34446db3cb4&#45;&gt;dir_b31d54d5631803016a26f28213a41162 -->
<g id="edge8" class="edge">
<title>dir_271001906c846293f255e34446db3cb4&#45;&gt;dir_b31d54d5631803016a26f28213a41162</title>
<path fill="none" stroke="black" d="M70.1,-105.23C144.23,-105.21 356.23,-100.77 535.58,-51.88"/>
<polygon fill="black" stroke="black" points="536.75,-55.18 545.45,-49.13 534.88,-48.44 536.75,-55.18"/>
<g id="a_edge8&#45;headlabel"><a xlink:href="dir_000074_000034.html" target="_top" xlink:title="1">
<text text-anchor="middle" x="534.05" y="-56.38" font-family="Helvetica" font-size="10.00">1</text>
</a>
</g>
</g>
<!-- dir_cf72682d9b1c0bc1c562a1f19b8defa0 -->
<g id="node10" class="node">
<title>dir_cf72682d9b1c0bc1c562a1f19b8defa0</title>
<g id="a_node10"><a xlink:href="dir_cf72682d9b1c0bc1c562a1f19b8defa0.html" target="_top" xlink:title="routing">
<polygon fill="none" stroke="red" stroke-dasharray="5,2" points="673,-52 619,-52 619,-16 673,-16 673,-52"/>
<text text-anchor="middle" x="646" y="-31.5" font-family="Helvetica" font-size="10.00">routing</text>
</a>
</g>
</g>
<!-- dir_271001906c846293f255e34446db3cb4&#45;&gt;dir_cf72682d9b1c0bc1c562a1f19b8defa0 -->
<g id="edge9" class="edge">
<title>dir_271001906c846293f255e34446db3cb4&#45;&gt;dir_cf72682d9b1c0bc1c562a1f19b8defa0</title>
<path fill="none" stroke="black" d="M70.24,-103.71C166.06,-98.97 487.9,-81.42 609.12,-51.56"/>
<polygon fill="black" stroke="black" points="610.07,-54.93 618.86,-49.01 608.3,-48.16 610.07,-54.93"/>
<g id="a_edge9&#45;headlabel"><a xlink:href="dir_000074_000059.html" target="_top" xlink:title="2">
<text text-anchor="middle" x="607.31" y="-56.09" font-family="Helvetica" font-size="10.00">2</text>
</a>
</g>
</g>
<!-- dir_f132f3c082319ace6827058f7d1d886d -->
<g id="node11" class="node">
<title>dir_f132f3c082319ace6827058f7d1d886d</title>
<g id="a_node11"><a xlink:href="dir_f132f3c082319ace6827058f7d1d886d.html" target="_top" xlink:title="plugin">
<polygon fill="none" stroke="red" stroke-dasharray="5,2" points="745,-52 691,-52 691,-16 745,-16 745,-52"/>
<text text-anchor="middle" x="718" y="-31.5" font-family="Helvetica" font-size="10.00">plugin</text>
</a>
</g>
</g>
<!-- dir_271001906c846293f255e34446db3cb4&#45;&gt;dir_f132f3c082319ace6827058f7d1d886d -->
<g id="edge10" class="edge">
<title>dir_271001906c846293f255e34446db3cb4&#45;&gt;dir_f132f3c082319ace6827058f7d1d886d</title>
<path fill="none" stroke="black" d="M70.34,-104.03C174.22,-100.16 545,-84.5 681.1,-51.55"/>
<polygon fill="black" stroke="black" points="682.05,-54.92 690.87,-49.05 680.31,-48.14 682.05,-54.92"/>
<g id="a_edge10&#45;headlabel"><a xlink:href="dir_000074_000042.html" target="_top" xlink:title="1">
<text text-anchor="middle" x="679.28" y="-56.06" font-family="Helvetica" font-size="10.00">1</text>
</a>
</g>
</g>
</g>
</svg>
