<?xml version="1.0" encoding="UTF-8" standalone="no"?>
<!DOCTYPE svg PUBLIC "-//W3C//DTD SVG 1.1//EN"
 "http://www.w3.org/Graphics/SVG/1.1/DTD/svg11.dtd">
<!-- Generated by graphviz version 2.44.0 (0)
 -->
<!-- Title: /home/ec2&#45;user/workspace/vsomeip/implementation/e2e_protection/src/e2e/profile/profile_custom Pages: 1 -->
<svg width="136pt" height="151pt"
 viewBox="0.00 0.00 135.50 151.00" xmlns="http://www.w3.org/2000/svg" xmlns:xlink="http://www.w3.org/1999/xlink">
<g id="graph0" class="graph" transform="scale(1 1) rotate(0) translate(4 147)">
<title>/home/ec2&#45;user/workspace/vsomeip/implementation/e2e_protection/src/e2e/profile/profile_custom</title>
<polygon fill="white" stroke="transparent" points="-4,4 -4,-147 131.5,-147 131.5,4 -4,4"/>
<g id="clust1" class="cluster">
<title>clusterdir_1a314ca59dd122efcbdf7cfcbe800b87</title>
<g id="a_clust1"><a xlink:href="dir_1a314ca59dd122efcbdf7cfcbe800b87.html" target="_top" xlink:title="profile">
<polygon fill="#edf0f7" stroke="#7f7f7f" stroke-dasharray="5,2" points="15,-64 15,-135 111,-135 111,-64 15,-64"/>
<text text-anchor="middle" x="63" y="-123" font-family="Helvetica" font-size="10.00">profile</text>
</a>
</g>
</g>
<!-- dir_6779bea9991003ae841a4b19c94369b9 -->
<g id="node1" class="node">
<title>dir_6779bea9991003ae841a4b19c94369b9</title>
<g id="a_node1"><a xlink:href="dir_6779bea9991003ae841a4b19c94369b9.html" target="_top" xlink:title="profile_custom">
<polygon fill="#edf0f7" stroke="#404040" stroke-width="2" points="103,-108 23,-108 23,-72 103,-72 103,-108"/>
<text text-anchor="middle" x="63" y="-87.5" font-family="Helvetica" font-size="10.00">profile_custom</text>
</a>
</g>
</g>
<!-- dir_261f67b82c2cb416f656d185a1fa5017 -->
<g id="node2" class="node">
<title>dir_261f67b82c2cb416f656d185a1fa5017</title>
<g id="a_node2"><a xlink:href="dir_261f67b82c2cb416f656d185a1fa5017.html" target="_top" xlink:title="include">
<polygon fill="none" stroke="red" stroke-dasharray="5,2" points="54,-36 0,-36 0,0 54,0 54,-36"/>
<text text-anchor="middle" x="27" y="-15.5" font-family="Helvetica" font-size="10.00">include</text>
</a>
</g>
</g>
<!-- dir_6779bea9991003ae841a4b19c94369b9&#45;&gt;dir_261f67b82c2cb416f656d185a1fa5017 -->
<g id="edge1" class="edge">
<title>dir_6779bea9991003ae841a4b19c94369b9&#45;&gt;dir_261f67b82c2cb416f656d185a1fa5017</title>
<path fill="none" stroke="black" d="M54.1,-71.7C50,-63.73 45.05,-54.1 40.51,-45.26"/>
<polygon fill="black" stroke="black" points="43.48,-43.4 35.8,-36.1 37.26,-46.6 43.48,-43.4"/>
<g id="a_edge1&#45;headlabel"><a xlink:href="dir_000056_000022.html" target="_top" xlink:title="4">
<text text-anchor="middle" x="47.65" y="-42.79" font-family="Helvetica" font-size="10.00">4</text>
</a>
</g>
</g>
<!-- dir_b31d54d5631803016a26f28213a41162 -->
<g id="node3" class="node">
<title>dir_b31d54d5631803016a26f28213a41162</title>
<g id="a_node3"><a xlink:href="dir_b31d54d5631803016a26f28213a41162.html" target="_top" xlink:title="interface">
<polygon fill="none" stroke="red" points="127.5,-36 72.5,-36 72.5,0 127.5,0 127.5,-36"/>
<text text-anchor="middle" x="100" y="-15.5" font-family="Helvetica" font-size="10.00">interface</text>
</a>
</g>
</g>
<!-- dir_6779bea9991003ae841a4b19c94369b9&#45;&gt;dir_b31d54d5631803016a26f28213a41162 -->
<g id="edge2" class="edge">
<title>dir_6779bea9991003ae841a4b19c94369b9&#45;&gt;dir_b31d54d5631803016a26f28213a41162</title>
<path fill="none" stroke="black" d="M72.15,-71.7C76.4,-63.64 81.56,-53.89 86.27,-44.98"/>
<polygon fill="black" stroke="black" points="89.38,-46.58 90.96,-36.1 83.19,-43.31 89.38,-46.58"/>
<g id="a_edge2&#45;headlabel"><a xlink:href="dir_000056_000034.html" target="_top" xlink:title="1">
<text text-anchor="middle" x="90.21" y="-48.59" font-family="Helvetica" font-size="10.00">1</text>
</a>
</g>
</g>
</g>
</svg>
