<?xml version="1.0" encoding="UTF-8" standalone="no"?>
<!DOCTYPE svg PUBLIC "-//W3C//DTD SVG 1.1//EN"
 "http://www.w3.org/Graphics/SVG/1.1/DTD/svg11.dtd">
<!-- Generated by graphviz version 2.44.0 (0)
 -->
<!-- Title: /home/ec2&#45;user/workspace/vsomeip/implementation/routing Pages: 1 -->
<svg width="582pt" height="247pt"
 viewBox="0.00 0.00 581.50 247.00" xmlns="http://www.w3.org/2000/svg" xmlns:xlink="http://www.w3.org/1999/xlink">
<g id="graph0" class="graph" transform="scale(1 1) rotate(0) translate(4 243)">
<title>/home/ec2&#45;user/workspace/vsomeip/implementation/routing</title>
<polygon fill="white" stroke="transparent" points="-4,4 -4,-243 577.5,-243 577.5,4 -4,4"/>
<g id="clust1" class="cluster">
<title>clusterdir_ed7c47a03c091bb19436c59342bc9555</title>
<g id="a_clust1"><a xlink:href="dir_ed7c47a03c091bb19436c59342bc9555.html" target="_top" xlink:title="implementation">
<polygon fill="#edf0f7" stroke="#404040" stroke-dasharray="5,2" points="8,-8 8,-231 510,-231 510,-8 8,-8"/>
<text text-anchor="middle" x="259" y="-219" font-family="Helvetica" font-size="10.00">implementation</text>
</a>
</g>
</g>
<g id="clust2" class="cluster">
<title>clusterdir_cf72682d9b1c0bc1c562a1f19b8defa0</title>
<g id="a_clust2"><a xlink:href="dir_cf72682d9b1c0bc1c562a1f19b8defa0.html" target="_top">
<polygon fill="#edf0f7" stroke="#404040" stroke-width="2" points="16,-80 16,-204 158,-204 158,-80 16,-80"/>
</a>
</g>
</g>
<!-- dir_061a1b0a0a40a7427f2461ed2f520013 -->
<g id="node1" class="node">
<title>dir_061a1b0a0a40a7427f2461ed2f520013</title>
<g id="a_node1"><a xlink:href="dir_061a1b0a0a40a7427f2461ed2f520013.html" target="_top" xlink:title="service_discovery">
<polygon fill="#a2b4d6" stroke="red" points="258,-52 162,-52 162,-16 258,-16 258,-52"/>
<text text-anchor="middle" x="210" y="-31.5" font-family="Helvetica" font-size="10.00">service_discovery</text>
</a>
</g>
</g>
<!-- dir_3ce07147fcbac31fc4d5892a851f6627 -->
<g id="node2" class="node">
<title>dir_3ce07147fcbac31fc4d5892a851f6627</title>
<g id="a_node2"><a xlink:href="dir_3ce07147fcbac31fc4d5892a851f6627.html" target="_top" xlink:title="message">
<polygon fill="#a2b4d6" stroke="red" points="72,-52 16,-52 16,-16 72,-16 72,-52"/>
<text text-anchor="middle" x="44" y="-31.5" font-family="Helvetica" font-size="10.00">message</text>
</a>
</g>
</g>
<!-- dir_43cc1d4eb251b5d8cbfdd5909fd3ba45 -->
<g id="node3" class="node">
<title>dir_43cc1d4eb251b5d8cbfdd5909fd3ba45</title>
<g id="a_node3"><a xlink:href="dir_43cc1d4eb251b5d8cbfdd5909fd3ba45.html" target="_top" xlink:title="protocol">
<polygon fill="#a2b4d6" stroke="red" points="144,-52 90,-52 90,-16 144,-16 144,-52"/>
<text text-anchor="middle" x="117" y="-31.5" font-family="Helvetica" font-size="10.00">protocol</text>
</a>
</g>
</g>
<!-- dir_56126a1d848d4a1832817232e79a5a18 -->
<g id="node4" class="node">
<title>dir_56126a1d848d4a1832817232e79a5a18</title>
<g id="a_node4"><a xlink:href="dir_56126a1d848d4a1832817232e79a5a18.html" target="_top" xlink:title="configuration">
<polygon fill="#a2b4d6" stroke="red" points="348,-52 276,-52 276,-16 348,-16 348,-52"/>
<text text-anchor="middle" x="312" y="-31.5" font-family="Helvetica" font-size="10.00">configuration</text>
</a>
</g>
</g>
<!-- dir_9c7b9d609ec855ab7fbf064b0ccf8e4e -->
<g id="node5" class="node">
<title>dir_9c7b9d609ec855ab7fbf064b0ccf8e4e</title>
<g id="a_node5"><a xlink:href="dir_9c7b9d609ec855ab7fbf064b0ccf8e4e.html" target="_top" xlink:title="endpoints">
<polygon fill="#a2b4d6" stroke="red" points="425.5,-52 366.5,-52 366.5,-16 425.5,-16 425.5,-52"/>
<text text-anchor="middle" x="396" y="-31.5" font-family="Helvetica" font-size="10.00">endpoints</text>
</a>
</g>
</g>
<!-- dir_96312f6272b562b103a6f862042db4a4 -->
<g id="node6" class="node">
<title>dir_96312f6272b562b103a6f862042db4a4</title>
<g id="a_node6"><a xlink:href="dir_96312f6272b562b103a6f862042db4a4.html" target="_top" xlink:title="security">
<polygon fill="#a2b4d6" stroke="red" points="430,-124 376,-124 376,-88 430,-88 430,-124"/>
<text text-anchor="middle" x="403" y="-103.5" font-family="Helvetica" font-size="10.00">security</text>
</a>
</g>
</g>
<!-- dir_6972051101bc5f8d68d31d49f06d7aaf -->
<g id="node7" class="node">
<title>dir_6972051101bc5f8d68d31d49f06d7aaf</title>
<g id="a_node7"><a xlink:href="dir_6972051101bc5f8d68d31d49f06d7aaf.html" target="_top" xlink:title="utility">
<polygon fill="#a2b4d6" stroke="red" points="502,-124 448,-124 448,-88 502,-88 502,-124"/>
<text text-anchor="middle" x="475" y="-103.5" font-family="Helvetica" font-size="10.00">utility</text>
</a>
</g>
</g>
<!-- dir_f132f3c082319ace6827058f7d1d886d -->
<g id="node8" class="node">
<title>dir_f132f3c082319ace6827058f7d1d886d</title>
<g id="a_node8"><a xlink:href="dir_f132f3c082319ace6827058f7d1d886d.html" target="_top" xlink:title="plugin">
<polygon fill="#a2b4d6" stroke="red" points="220,-124 166,-124 166,-88 220,-88 220,-124"/>
<text text-anchor="middle" x="193" y="-103.5" font-family="Helvetica" font-size="10.00">plugin</text>
</a>
</g>
</g>
<!-- dir_476f23a9d8d07b93b910130c774b1932 -->
<g id="node9" class="node">
<title>dir_476f23a9d8d07b93b910130c774b1932</title>
<g id="a_node9"><a xlink:href="dir_476f23a9d8d07b93b910130c774b1932.html" target="_top" xlink:title="e2e_protection">
<polygon fill="#a2b4d6" stroke="red" points="318,-124 238,-124 238,-88 318,-88 318,-124"/>
<text text-anchor="middle" x="278" y="-103.5" font-family="Helvetica" font-size="10.00">e2e_protection</text>
</a>
</g>
</g>
<!-- dir_cf72682d9b1c0bc1c562a1f19b8defa0 -->
<g id="node10" class="node">
<title>dir_cf72682d9b1c0bc1c562a1f19b8defa0</title>
<text text-anchor="middle" x="123" y="-175.5" font-family="Helvetica" font-size="10.00">routing</text>
</g>
<!-- dir_3bfeaedfdd72f75729bfd36e2baddd74 -->
<g id="node11" class="node">
<title>dir_3bfeaedfdd72f75729bfd36e2baddd74</title>
<g id="a_node11"><a xlink:href="dir_3bfeaedfdd72f75729bfd36e2baddd74.html" target="_top" xlink:title="include">
<polygon fill="#a2b4d6" stroke="#404040" points="148,-124 94,-124 94,-88 148,-88 148,-124"/>
<text text-anchor="middle" x="121" y="-103.5" font-family="Helvetica" font-size="10.00">include</text>
</a>
</g>
</g>
<!-- dir_3bfeaedfdd72f75729bfd36e2baddd74&#45;&gt;dir_061a1b0a0a40a7427f2461ed2f520013 -->
<g id="edge1" class="edge">
<title>dir_3bfeaedfdd72f75729bfd36e2baddd74&#45;&gt;dir_061a1b0a0a40a7427f2461ed2f520013</title>
<path fill="none" stroke="black" d="M142.3,-87.73C145.54,-85.13 148.85,-82.49 152,-80 160.95,-72.92 170.74,-65.28 179.69,-58.35"/>
<polygon fill="black" stroke="black" points="181.85,-61.1 187.61,-52.21 177.56,-55.56 181.85,-61.1"/>
<g id="a_edge1&#45;headlabel"><a xlink:href="dir_000028_000063.html" target="_top" xlink:title="1">
<text text-anchor="middle" x="180.74" y="-63.04" font-family="Helvetica" font-size="10.00">1</text>
</a>
</g>
</g>
<!-- dir_3bfeaedfdd72f75729bfd36e2baddd74&#45;&gt;dir_3ce07147fcbac31fc4d5892a851f6627 -->
<g id="edge2" class="edge">
<title>dir_3bfeaedfdd72f75729bfd36e2baddd74&#45;&gt;dir_3ce07147fcbac31fc4d5892a851f6627</title>
<path fill="none" stroke="black" d="M101.97,-87.7C92.46,-79.05 80.79,-68.45 70.43,-59.03"/>
<polygon fill="black" stroke="black" points="72.57,-56.24 62.81,-52.1 67.86,-61.42 72.57,-56.24"/>
<g id="a_edge2&#45;headlabel"><a xlink:href="dir_000028_000041.html" target="_top" xlink:title="2">
<text text-anchor="middle" x="77.14" y="-54.06" font-family="Helvetica" font-size="10.00">2</text>
</a>
</g>
</g>
<!-- dir_3bfeaedfdd72f75729bfd36e2baddd74&#45;&gt;dir_43cc1d4eb251b5d8cbfdd5909fd3ba45 -->
<g id="edge3" class="edge">
<title>dir_3bfeaedfdd72f75729bfd36e2baddd74&#45;&gt;dir_43cc1d4eb251b5d8cbfdd5909fd3ba45</title>
<path fill="none" stroke="black" d="M120.01,-87.7C119.57,-79.98 119.04,-70.71 118.55,-62.11"/>
<polygon fill="black" stroke="black" points="122.04,-61.89 117.98,-52.1 115.05,-62.29 122.04,-61.89"/>
<g id="a_edge3&#45;headlabel"><a xlink:href="dir_000028_000058.html" target="_top" xlink:title="4">
<text text-anchor="middle" x="125.08" y="-62.82" font-family="Helvetica" font-size="10.00">4</text>
</a>
</g>
</g>
<!-- dir_3bfeaedfdd72f75729bfd36e2baddd74&#45;&gt;dir_56126a1d848d4a1832817232e79a5a18 -->
<g id="edge4" class="edge">
<title>dir_3bfeaedfdd72f75729bfd36e2baddd74&#45;&gt;dir_56126a1d848d4a1832817232e79a5a18</title>
<path fill="none" stroke="black" d="M139.44,-87.98C143.38,-84.98 147.66,-82.14 152,-80 196.49,-58.02 214.66,-66.43 266.14,-51.98"/>
<polygon fill="black" stroke="black" points="267.19,-55.32 275.78,-49.12 265.2,-48.61 267.19,-55.32"/>
<g id="a_edge4&#45;headlabel"><a xlink:href="dir_000028_000006.html" target="_top" xlink:title="4">
<text text-anchor="middle" x="264.55" y="-56.56" font-family="Helvetica" font-size="10.00">4</text>
</a>
</g>
</g>
<!-- dir_3bfeaedfdd72f75729bfd36e2baddd74&#45;&gt;dir_9c7b9d609ec855ab7fbf064b0ccf8e4e -->
<g id="edge5" class="edge">
<title>dir_3bfeaedfdd72f75729bfd36e2baddd74&#45;&gt;dir_9c7b9d609ec855ab7fbf064b0ccf8e4e</title>
<path fill="none" stroke="black" d="M138.94,-87.88C142.98,-84.81 147.43,-81.97 152,-80 236.44,-43.58 268.46,-76.83 357,-52 357.1,-51.97 357.2,-51.94 357.29,-51.92"/>
<polygon fill="black" stroke="black" points="358.11,-55.33 366.5,-48.86 355.9,-48.69 358.11,-55.33"/>
<g id="a_edge5&#45;headlabel"><a xlink:href="dir_000028_000015.html" target="_top" xlink:title="5">
<text text-anchor="middle" x="355.59" y="-56.66" font-family="Helvetica" font-size="10.00">5</text>
</a>
</g>
</g>
<!-- dir_b31d54d5631803016a26f28213a41162 -->
<g id="node13" class="node">
<title>dir_b31d54d5631803016a26f28213a41162</title>
<g id="a_node13"><a xlink:href="dir_b31d54d5631803016a26f28213a41162.html" target="_top" xlink:title="interface">
<polygon fill="none" stroke="red" points="573.5,-52 518.5,-52 518.5,-16 573.5,-16 573.5,-52"/>
<text text-anchor="middle" x="546" y="-31.5" font-family="Helvetica" font-size="10.00">interface</text>
</a>
</g>
</g>
<!-- dir_3bfeaedfdd72f75729bfd36e2baddd74&#45;&gt;dir_b31d54d5631803016a26f28213a41162 -->
<g id="edge6" class="edge">
<title>dir_3bfeaedfdd72f75729bfd36e2baddd74&#45;&gt;dir_b31d54d5631803016a26f28213a41162</title>
<path fill="none" stroke="black" d="M138.52,-87.92C142.65,-84.77 147.24,-81.89 152,-80 298.91,-21.68 356.66,-93.94 508.69,-53.25"/>
<polygon fill="black" stroke="black" points="509.68,-56.61 518.36,-50.54 507.79,-49.87 509.68,-56.61"/>
<g id="a_edge6&#45;headlabel"><a xlink:href="dir_000028_000034.html" target="_top" xlink:title="7">
<text text-anchor="middle" x="506.98" y="-57.81" font-family="Helvetica" font-size="10.00">7</text>
</a>
</g>
</g>
<!-- dir_f26bb66bf46917193111165ea70066a5 -->
<g id="node12" class="node">
<title>dir_f26bb66bf46917193111165ea70066a5</title>
<g id="a_node12"><a xlink:href="dir_f26bb66bf46917193111165ea70066a5.html" target="_top" xlink:title="src">
<polygon fill="#a2b4d6" stroke="#404040" points="78,-196 24,-196 24,-160 78,-160 78,-196"/>
<text text-anchor="middle" x="51" y="-175.5" font-family="Helvetica" font-size="10.00">src</text>
</a>
</g>
</g>
<!-- dir_f26bb66bf46917193111165ea70066a5&#45;&gt;dir_061a1b0a0a40a7427f2461ed2f520013 -->
<g id="edge7" class="edge">
<title>dir_f26bb66bf46917193111165ea70066a5&#45;&gt;dir_061a1b0a0a40a7427f2461ed2f520013</title>
<path fill="none" stroke="black" d="M56.58,-159.87C65.45,-132.82 82.08,-82.95 85,-80 90.24,-74.72 121.95,-63.33 152.12,-53.33"/>
<polygon fill="black" stroke="black" points="153.42,-56.59 161.83,-50.14 151.24,-49.94 153.42,-56.59"/>
<g id="a_edge7&#45;headlabel"><a xlink:href="dir_000073_000063.html" target="_top" xlink:title="5">
<text text-anchor="middle" x="150.89" y="-57.91" font-family="Helvetica" font-size="10.00">5</text>
</a>
</g>
</g>
<!-- dir_f26bb66bf46917193111165ea70066a5&#45;&gt;dir_3ce07147fcbac31fc4d5892a851f6627 -->
<g id="edge9" class="edge">
<title>dir_f26bb66bf46917193111165ea70066a5&#45;&gt;dir_3ce07147fcbac31fc4d5892a851f6627</title>
<path fill="none" stroke="black" d="M50.16,-159.87C48.96,-135.67 46.77,-91.21 45.35,-62.39"/>
<polygon fill="black" stroke="black" points="48.84,-62 44.85,-52.19 41.84,-62.35 48.84,-62"/>
<g id="a_edge9&#45;headlabel"><a xlink:href="dir_000073_000041.html" target="_top" xlink:title="7">
<text text-anchor="middle" x="51.85" y="-62.96" font-family="Helvetica" font-size="10.00">7</text>
</a>
</g>
</g>
<!-- dir_f26bb66bf46917193111165ea70066a5&#45;&gt;dir_43cc1d4eb251b5d8cbfdd5909fd3ba45 -->
<g id="edge10" class="edge">
<title>dir_f26bb66bf46917193111165ea70066a5&#45;&gt;dir_43cc1d4eb251b5d8cbfdd5909fd3ba45</title>
<path fill="none" stroke="black" d="M51.27,-159.82C52.26,-139.57 56.09,-105.45 70,-80 74.04,-72.61 79.71,-65.71 85.72,-59.64"/>
<polygon fill="black" stroke="black" points="88.52,-61.82 93.42,-52.42 83.73,-56.71 88.52,-61.82"/>
<g id="a_edge10&#45;headlabel"><a xlink:href="dir_000073_000058.html" target="_top" xlink:title="63">
<text text-anchor="middle" x="87.84" y="-63.85" font-family="Helvetica" font-size="10.00">63</text>
</a>
</g>
</g>
<!-- dir_f26bb66bf46917193111165ea70066a5&#45;&gt;dir_56126a1d848d4a1832817232e79a5a18 -->
<g id="edge12" class="edge">
<title>dir_f26bb66bf46917193111165ea70066a5&#45;&gt;dir_56126a1d848d4a1832817232e79a5a18</title>
<path fill="none" stroke="black" d="M78.19,-163.15C81.12,-161.97 84.09,-160.88 87,-160 138.6,-144.32 291.81,-164.86 327,-124 341.7,-106.94 335.16,-80.98 326.61,-61.5"/>
<polygon fill="black" stroke="black" points="329.66,-59.76 322.19,-52.25 323.34,-62.78 329.66,-59.76"/>
<g id="a_edge12&#45;headlabel"><a xlink:href="dir_000073_000006.html" target="_top" xlink:title="5">
<text text-anchor="middle" x="333.77" y="-59.28" font-family="Helvetica" font-size="10.00">5</text>
</a>
</g>
</g>
<!-- dir_f26bb66bf46917193111165ea70066a5&#45;&gt;dir_9c7b9d609ec855ab7fbf064b0ccf8e4e -->
<g id="edge15" class="edge">
<title>dir_f26bb66bf46917193111165ea70066a5&#45;&gt;dir_9c7b9d609ec855ab7fbf064b0ccf8e4e</title>
<path fill="none" stroke="black" d="M78.18,-163.14C81.11,-161.95 84.09,-160.88 87,-160 194.5,-127.67 242.14,-184.03 337,-124 338.6,-122.99 362.28,-86.88 379.15,-60.97"/>
<polygon fill="black" stroke="black" points="382.26,-62.6 384.78,-52.31 376.39,-58.78 382.26,-62.6"/>
<g id="a_edge15&#45;headlabel"><a xlink:href="dir_000073_000015.html" target="_top" xlink:title="11">
<text text-anchor="middle" x="382.68" y="-64.66" font-family="Helvetica" font-size="10.00">11</text>
</a>
</g>
</g>
<!-- dir_f26bb66bf46917193111165ea70066a5&#45;&gt;dir_96312f6272b562b103a6f862042db4a4 -->
<g id="edge14" class="edge">
<title>dir_f26bb66bf46917193111165ea70066a5&#45;&gt;dir_96312f6272b562b103a6f862042db4a4</title>
<path fill="none" stroke="black" d="M78.17,-163.1C81.1,-161.92 84.08,-160.86 87,-160 205.27,-125.26 242.93,-155.88 362,-124 363.26,-123.66 364.52,-123.3 365.8,-122.91"/>
<polygon fill="black" stroke="black" points="367.25,-126.11 375.55,-119.53 364.96,-119.49 367.25,-126.11"/>
<g id="a_edge14&#45;headlabel"><a xlink:href="dir_000073_000062.html" target="_top" xlink:title="8">
<text text-anchor="middle" x="364.78" y="-127.47" font-family="Helvetica" font-size="10.00">8</text>
</a>
</g>
</g>
<!-- dir_f26bb66bf46917193111165ea70066a5&#45;&gt;dir_6972051101bc5f8d68d31d49f06d7aaf -->
<g id="edge13" class="edge">
<title>dir_f26bb66bf46917193111165ea70066a5&#45;&gt;dir_6972051101bc5f8d68d31d49f06d7aaf</title>
<path fill="none" stroke="black" d="M78.15,-163.01C81.08,-161.85 84.07,-160.82 87,-160 235.39,-118.68 285.45,-164.24 438.13,-123.65"/>
<polygon fill="black" stroke="black" points="439.13,-127.01 447.85,-120.99 437.28,-120.25 439.13,-127.01"/>
<g id="a_edge13&#45;headlabel"><a xlink:href="dir_000073_000080.html" target="_top" xlink:title="8">
<text text-anchor="middle" x="436.42" y="-128.19" font-family="Helvetica" font-size="10.00">8</text>
</a>
</g>
</g>
<!-- dir_f26bb66bf46917193111165ea70066a5&#45;&gt;dir_f132f3c082319ace6827058f7d1d886d -->
<g id="edge17" class="edge">
<title>dir_f26bb66bf46917193111165ea70066a5&#45;&gt;dir_f132f3c082319ace6827058f7d1d886d</title>
<path fill="none" stroke="black" d="M78.23,-164.1C103.13,-152.28 138.45,-135.49 156.82,-126.49"/>
<polygon fill="black" stroke="black" points="158.61,-129.52 166,-121.92 155.48,-123.25 158.61,-129.52"/>
<g id="a_edge17&#45;headlabel"><a xlink:href="dir_000073_000042.html" target="_top" xlink:title="1">
<text text-anchor="middle" x="156.65" y="-131.16" font-family="Helvetica" font-size="10.00">1</text>
</a>
</g>
</g>
<!-- dir_f26bb66bf46917193111165ea70066a5&#45;&gt;dir_476f23a9d8d07b93b910130c774b1932 -->
<g id="edge11" class="edge">
<title>dir_f26bb66bf46917193111165ea70066a5&#45;&gt;dir_476f23a9d8d07b93b910130c774b1932</title>
<path fill="none" stroke="black" d="M78.29,-163.45C81.2,-162.2 84.14,-161.03 87,-160 145.4,-139.03 164.82,-142.31 228.29,-124.05"/>
<polygon fill="black" stroke="black" points="229.38,-127.38 237.98,-121.2 227.4,-120.67 229.38,-127.38"/>
<g id="a_edge11&#45;headlabel"><a xlink:href="dir_000073_000012.html" target="_top" xlink:title="3">
<text text-anchor="middle" x="226.73" y="-128.62" font-family="Helvetica" font-size="10.00">3</text>
</a>
</g>
</g>
<!-- dir_f26bb66bf46917193111165ea70066a5&#45;&gt;dir_3bfeaedfdd72f75729bfd36e2baddd74 -->
<g id="edge8" class="edge">
<title>dir_f26bb66bf46917193111165ea70066a5&#45;&gt;dir_3bfeaedfdd72f75729bfd36e2baddd74</title>
<path fill="none" stroke="black" d="M68.3,-159.7C76.86,-151.14 87.34,-140.66 96.7,-131.3"/>
<polygon fill="black" stroke="black" points="99.3,-133.65 103.9,-124.1 94.35,-128.7 99.3,-133.65"/>
<g id="a_edge8&#45;headlabel"><a xlink:href="dir_000073_000028.html" target="_top" xlink:title="21">
<text text-anchor="middle" x="98.77" y="-135.7" font-family="Helvetica" font-size="10.00">21</text>
</a>
</g>
</g>
<!-- dir_f26bb66bf46917193111165ea70066a5&#45;&gt;dir_b31d54d5631803016a26f28213a41162 -->
<g id="edge16" class="edge">
<title>dir_f26bb66bf46917193111165ea70066a5&#45;&gt;dir_b31d54d5631803016a26f28213a41162</title>
<path fill="none" stroke="black" d="M78.13,-162.96C81.07,-161.81 84.06,-160.79 87,-160 178.96,-135.28 438.47,-182 514,-124 532.96,-109.44 540.71,-82.65 543.86,-62.25"/>
<polygon fill="black" stroke="black" points="547.34,-62.62 545.12,-52.26 540.4,-61.74 547.34,-62.62"/>
<g id="a_edge16&#45;headlabel"><a xlink:href="dir_000073_000034.html" target="_top" xlink:title="8">
<text text-anchor="middle" x="549.7" y="-64.05" font-family="Helvetica" font-size="10.00">8</text>
</a>
</g>
</g>
</g>
</svg>
