<?xml version="1.0" encoding="UTF-8" standalone="no"?>
<!DOCTYPE svg PUBLIC "-//W3C//DTD SVG 1.1//EN"
 "http://www.w3.org/Graphics/SVG/1.1/DTD/svg11.dtd">
<!-- Generated by graphviz version 2.44.0 (0)
 -->
<!-- Title: /home/ec2&#45;user/workspace/vsomeip/implementation/routing/src Pages: 1 -->
<svg width="893pt" height="167pt"
 viewBox="0.00 0.00 893.00 167.00" xmlns="http://www.w3.org/2000/svg" xmlns:xlink="http://www.w3.org/1999/xlink">
<g id="graph0" class="graph" transform="scale(1 1) rotate(0) translate(4 163)">
<title>/home/ec2&#45;user/workspace/vsomeip/implementation/routing/src</title>
<polygon fill="white" stroke="transparent" points="-4,4 -4,-163 889,-163 889,4 -4,4"/>
<g id="clust1" class="cluster">
<title>clusterdir_cf72682d9b1c0bc1c562a1f19b8defa0</title>
<g id="a_clust1"><a xlink:href="dir_cf72682d9b1c0bc1c562a1f19b8defa0.html" target="_top" xlink:title="routing">
<polygon fill="#edf0f7" stroke="#7f7f7f" stroke-dasharray="5,2" points="8,-8 8,-151 78,-151 78,-8 8,-8"/>
<text text-anchor="middle" x="43" y="-139" font-family="Helvetica" font-size="10.00">routing</text>
</a>
</g>
</g>
<!-- dir_3bfeaedfdd72f75729bfd36e2baddd74 -->
<g id="node1" class="node">
<title>dir_3bfeaedfdd72f75729bfd36e2baddd74</title>
<g id="a_node1"><a xlink:href="dir_3bfeaedfdd72f75729bfd36e2baddd74.html" target="_top" xlink:title="include">
<polygon fill="#a2b4d6" stroke="#404040" points="70,-52 16,-52 16,-16 70,-16 70,-52"/>
<text text-anchor="middle" x="43" y="-31.5" font-family="Helvetica" font-size="10.00">include</text>
</a>
</g>
</g>
<!-- dir_f26bb66bf46917193111165ea70066a5 -->
<g id="node2" class="node">
<title>dir_f26bb66bf46917193111165ea70066a5</title>
<g id="a_node2"><a xlink:href="dir_f26bb66bf46917193111165ea70066a5.html" target="_top" xlink:title="src">
<polygon fill="#edf0f7" stroke="#404040" stroke-width="2" points="70,-124 16,-124 16,-88 70,-88 70,-124"/>
<text text-anchor="middle" x="43" y="-103.5" font-family="Helvetica" font-size="10.00">src</text>
</a>
</g>
</g>
<!-- dir_f26bb66bf46917193111165ea70066a5&#45;&gt;dir_3bfeaedfdd72f75729bfd36e2baddd74 -->
<g id="edge2" class="edge">
<title>dir_f26bb66bf46917193111165ea70066a5&#45;&gt;dir_3bfeaedfdd72f75729bfd36e2baddd74</title>
<path fill="none" stroke="black" d="M43,-87.7C43,-79.98 43,-70.71 43,-62.11"/>
<polygon fill="black" stroke="black" points="46.5,-62.1 43,-52.1 39.5,-62.1 46.5,-62.1"/>
<g id="a_edge2&#45;headlabel"><a xlink:href="dir_000073_000028.html" target="_top" xlink:title="21">
<text text-anchor="middle" x="49.34" y="-63.2" font-family="Helvetica" font-size="10.00">21</text>
</a>
</g>
</g>
<!-- dir_061a1b0a0a40a7427f2461ed2f520013 -->
<g id="node3" class="node">
<title>dir_061a1b0a0a40a7427f2461ed2f520013</title>
<g id="a_node3"><a xlink:href="dir_061a1b0a0a40a7427f2461ed2f520013.html" target="_top" xlink:title="service_discovery">
<polygon fill="none" stroke="red" stroke-dasharray="5,2" points="184,-52 88,-52 88,-16 184,-16 184,-52"/>
<text text-anchor="middle" x="136" y="-31.5" font-family="Helvetica" font-size="10.00">service_discovery</text>
</a>
</g>
</g>
<!-- dir_f26bb66bf46917193111165ea70066a5&#45;&gt;dir_061a1b0a0a40a7427f2461ed2f520013 -->
<g id="edge1" class="edge">
<title>dir_f26bb66bf46917193111165ea70066a5&#45;&gt;dir_061a1b0a0a40a7427f2461ed2f520013</title>
<path fill="none" stroke="black" d="M65.99,-87.7C77.81,-78.8 92.39,-67.82 105.18,-58.2"/>
<polygon fill="black" stroke="black" points="107.39,-60.91 113.28,-52.1 103.18,-55.32 107.39,-60.91"/>
<g id="a_edge1&#45;headlabel"><a xlink:href="dir_000073_000063.html" target="_top" xlink:title="5">
<text text-anchor="middle" x="106.23" y="-62.84" font-family="Helvetica" font-size="10.00">5</text>
</a>
</g>
</g>
<!-- dir_3ce07147fcbac31fc4d5892a851f6627 -->
<g id="node4" class="node">
<title>dir_3ce07147fcbac31fc4d5892a851f6627</title>
<g id="a_node4"><a xlink:href="dir_3ce07147fcbac31fc4d5892a851f6627.html" target="_top" xlink:title="message">
<polygon fill="none" stroke="red" stroke-dasharray="5,2" points="258,-52 202,-52 202,-16 258,-16 258,-52"/>
<text text-anchor="middle" x="230" y="-31.5" font-family="Helvetica" font-size="10.00">message</text>
</a>
</g>
</g>
<!-- dir_f26bb66bf46917193111165ea70066a5&#45;&gt;dir_3ce07147fcbac31fc4d5892a851f6627 -->
<g id="edge3" class="edge">
<title>dir_f26bb66bf46917193111165ea70066a5&#45;&gt;dir_3ce07147fcbac31fc4d5892a851f6627</title>
<path fill="none" stroke="black" d="M70.1,-96.25C98.53,-86.9 144.62,-71.22 192.55,-52.02"/>
<polygon fill="black" stroke="black" points="193.88,-55.26 201.83,-48.26 191.25,-48.77 193.88,-55.26"/>
<g id="a_edge3&#45;headlabel"><a xlink:href="dir_000073_000041.html" target="_top" xlink:title="7">
<text text-anchor="middle" x="191.61" y="-56.74" font-family="Helvetica" font-size="10.00">7</text>
</a>
</g>
</g>
<!-- dir_43cc1d4eb251b5d8cbfdd5909fd3ba45 -->
<g id="node5" class="node">
<title>dir_43cc1d4eb251b5d8cbfdd5909fd3ba45</title>
<g id="a_node5"><a xlink:href="dir_43cc1d4eb251b5d8cbfdd5909fd3ba45.html" target="_top" xlink:title="protocol">
<polygon fill="none" stroke="red" stroke-dasharray="5,2" points="330,-52 276,-52 276,-16 330,-16 330,-52"/>
<text text-anchor="middle" x="303" y="-31.5" font-family="Helvetica" font-size="10.00">protocol</text>
</a>
</g>
</g>
<!-- dir_f26bb66bf46917193111165ea70066a5&#45;&gt;dir_43cc1d4eb251b5d8cbfdd5909fd3ba45 -->
<g id="edge4" class="edge">
<title>dir_f26bb66bf46917193111165ea70066a5&#45;&gt;dir_43cc1d4eb251b5d8cbfdd5909fd3ba45</title>
<path fill="none" stroke="black" d="M70.07,-100.49C110.96,-93.26 190.88,-77.59 266.11,-51.94"/>
<polygon fill="black" stroke="black" points="267.43,-55.19 275.73,-48.6 265.14,-48.58 267.43,-55.19"/>
<g id="a_edge4&#45;headlabel"><a xlink:href="dir_000073_000058.html" target="_top" xlink:title="63">
<text text-anchor="middle" x="264.97" y="-56.55" font-family="Helvetica" font-size="10.00">63</text>
</a>
</g>
</g>
<!-- dir_476f23a9d8d07b93b910130c774b1932 -->
<g id="node6" class="node">
<title>dir_476f23a9d8d07b93b910130c774b1932</title>
<g id="a_node6"><a xlink:href="dir_476f23a9d8d07b93b910130c774b1932.html" target="_top" xlink:title="e2e_protection">
<polygon fill="none" stroke="red" stroke-dasharray="5,2" points="428,-52 348,-52 348,-16 428,-16 428,-52"/>
<text text-anchor="middle" x="388" y="-31.5" font-family="Helvetica" font-size="10.00">e2e_protection</text>
</a>
</g>
</g>
<!-- dir_f26bb66bf46917193111165ea70066a5&#45;&gt;dir_476f23a9d8d07b93b910130c774b1932 -->
<g id="edge5" class="edge">
<title>dir_f26bb66bf46917193111165ea70066a5&#45;&gt;dir_476f23a9d8d07b93b910130c774b1932</title>
<path fill="none" stroke="black" d="M70.24,-101.58C121.19,-94.87 234.39,-78.5 338.09,-52.02"/>
<polygon fill="black" stroke="black" points="338.98,-55.41 347.78,-49.52 337.22,-48.64 338.98,-55.41"/>
<g id="a_edge5&#45;headlabel"><a xlink:href="dir_000073_000012.html" target="_top" xlink:title="3">
<text text-anchor="middle" x="336.21" y="-56.56" font-family="Helvetica" font-size="10.00">3</text>
</a>
</g>
</g>
<!-- dir_56126a1d848d4a1832817232e79a5a18 -->
<g id="node7" class="node">
<title>dir_56126a1d848d4a1832817232e79a5a18</title>
<g id="a_node7"><a xlink:href="dir_56126a1d848d4a1832817232e79a5a18.html" target="_top" xlink:title="configuration">
<polygon fill="none" stroke="red" stroke-dasharray="5,2" points="518,-52 446,-52 446,-16 518,-16 518,-52"/>
<text text-anchor="middle" x="482" y="-31.5" font-family="Helvetica" font-size="10.00">configuration</text>
</a>
</g>
</g>
<!-- dir_f26bb66bf46917193111165ea70066a5&#45;&gt;dir_56126a1d848d4a1832817232e79a5a18 -->
<g id="edge6" class="edge">
<title>dir_f26bb66bf46917193111165ea70066a5&#45;&gt;dir_56126a1d848d4a1832817232e79a5a18</title>
<path fill="none" stroke="black" d="M70.15,-103.48C133.21,-99.5 294.37,-86.74 436.14,-51.89"/>
<polygon fill="black" stroke="black" points="437.03,-55.28 445.88,-49.45 435.33,-48.49 437.03,-55.28"/>
<g id="a_edge6&#45;headlabel"><a xlink:href="dir_000073_000006.html" target="_top" xlink:title="5">
<text text-anchor="middle" x="434.23" y="-56.4" font-family="Helvetica" font-size="10.00">5</text>
</a>
</g>
</g>
<!-- dir_6972051101bc5f8d68d31d49f06d7aaf -->
<g id="node8" class="node">
<title>dir_6972051101bc5f8d68d31d49f06d7aaf</title>
<g id="a_node8"><a xlink:href="dir_6972051101bc5f8d68d31d49f06d7aaf.html" target="_top" xlink:title="utility">
<polygon fill="none" stroke="red" stroke-dasharray="5,2" points="590,-52 536,-52 536,-16 590,-16 590,-52"/>
<text text-anchor="middle" x="563" y="-31.5" font-family="Helvetica" font-size="10.00">utility</text>
</a>
</g>
</g>
<!-- dir_f26bb66bf46917193111165ea70066a5&#45;&gt;dir_6972051101bc5f8d68d31d49f06d7aaf -->
<g id="edge7" class="edge">
<title>dir_f26bb66bf46917193111165ea70066a5&#45;&gt;dir_6972051101bc5f8d68d31d49f06d7aaf</title>
<path fill="none" stroke="black" d="M70.09,-105.15C143.2,-104.89 350.33,-99.89 526.17,-51.67"/>
<polygon fill="black" stroke="black" points="527.16,-55.03 535.85,-48.97 525.27,-48.29 527.16,-55.03"/>
<g id="a_edge7&#45;headlabel"><a xlink:href="dir_000073_000080.html" target="_top" xlink:title="8">
<text text-anchor="middle" x="524.46" y="-56.23" font-family="Helvetica" font-size="10.00">8</text>
</a>
</g>
</g>
<!-- dir_96312f6272b562b103a6f862042db4a4 -->
<g id="node9" class="node">
<title>dir_96312f6272b562b103a6f862042db4a4</title>
<g id="a_node9"><a xlink:href="dir_96312f6272b562b103a6f862042db4a4.html" target="_top" xlink:title="security">
<polygon fill="none" stroke="red" stroke-dasharray="5,2" points="662,-52 608,-52 608,-16 662,-16 662,-52"/>
<text text-anchor="middle" x="635" y="-31.5" font-family="Helvetica" font-size="10.00">security</text>
</a>
</g>
</g>
<!-- dir_f26bb66bf46917193111165ea70066a5&#45;&gt;dir_96312f6272b562b103a6f862042db4a4 -->
<g id="edge8" class="edge">
<title>dir_f26bb66bf46917193111165ea70066a5&#45;&gt;dir_96312f6272b562b103a6f862042db4a4</title>
<path fill="none" stroke="black" d="M70.21,-105.69C150.65,-107.04 393.95,-106.23 598.16,-51.65"/>
<polygon fill="black" stroke="black" points="599.13,-55.01 607.86,-49.01 597.29,-48.26 599.13,-55.01"/>
<g id="a_edge8&#45;headlabel"><a xlink:href="dir_000073_000062.html" target="_top" xlink:title="8">
<text text-anchor="middle" x="596.41" y="-56.2" font-family="Helvetica" font-size="10.00">8</text>
</a>
</g>
</g>
<!-- dir_9c7b9d609ec855ab7fbf064b0ccf8e4e -->
<g id="node10" class="node">
<title>dir_9c7b9d609ec855ab7fbf064b0ccf8e4e</title>
<g id="a_node10"><a xlink:href="dir_9c7b9d609ec855ab7fbf064b0ccf8e4e.html" target="_top" xlink:title="endpoints">
<polygon fill="none" stroke="red" stroke-dasharray="5,2" points="739.5,-52 680.5,-52 680.5,-16 739.5,-16 739.5,-52"/>
<text text-anchor="middle" x="710" y="-31.5" font-family="Helvetica" font-size="10.00">endpoints</text>
</a>
</g>
</g>
<!-- dir_f26bb66bf46917193111165ea70066a5&#45;&gt;dir_9c7b9d609ec855ab7fbf064b0ccf8e4e -->
<g id="edge9" class="edge">
<title>dir_f26bb66bf46917193111165ea70066a5&#45;&gt;dir_9c7b9d609ec855ab7fbf064b0ccf8e4e</title>
<path fill="none" stroke="black" d="M70.2,-103.89C172.58,-99.51 535.37,-82.37 670.06,-51.61"/>
<polygon fill="black" stroke="black" points="671.21,-54.94 680.11,-49.18 669.57,-48.13 671.21,-54.94"/>
<g id="a_edge9&#45;headlabel"><a xlink:href="dir_000073_000015.html" target="_top" xlink:title="11">
<text text-anchor="middle" x="668.39" y="-56.04" font-family="Helvetica" font-size="10.00">11</text>
</a>
</g>
</g>
<!-- dir_b31d54d5631803016a26f28213a41162 -->
<g id="node11" class="node">
<title>dir_b31d54d5631803016a26f28213a41162</title>
<g id="a_node11"><a xlink:href="dir_b31d54d5631803016a26f28213a41162.html" target="_top" xlink:title="interface">
<polygon fill="none" stroke="red" points="812.5,-52 757.5,-52 757.5,-16 812.5,-16 812.5,-52"/>
<text text-anchor="middle" x="785" y="-31.5" font-family="Helvetica" font-size="10.00">interface</text>
</a>
</g>
</g>
<!-- dir_f26bb66bf46917193111165ea70066a5&#45;&gt;dir_b31d54d5631803016a26f28213a41162 -->
<g id="edge10" class="edge">
<title>dir_f26bb66bf46917193111165ea70066a5&#45;&gt;dir_b31d54d5631803016a26f28213a41162</title>
<path fill="none" stroke="black" d="M70.07,-104.29C180.5,-101.18 597.75,-87.45 747.58,-51.72"/>
<polygon fill="black" stroke="black" points="748.63,-55.07 757.47,-49.22 746.92,-48.28 748.63,-55.07"/>
<g id="a_edge10&#45;headlabel"><a xlink:href="dir_000073_000034.html" target="_top" xlink:title="8">
<text text-anchor="middle" x="745.84" y="-56.2" font-family="Helvetica" font-size="10.00">8</text>
</a>
</g>
</g>
<!-- dir_f132f3c082319ace6827058f7d1d886d -->
<g id="node12" class="node">
<title>dir_f132f3c082319ace6827058f7d1d886d</title>
<g id="a_node12"><a xlink:href="dir_f132f3c082319ace6827058f7d1d886d.html" target="_top" xlink:title="plugin">
<polygon fill="none" stroke="red" stroke-dasharray="5,2" points="885,-52 831,-52 831,-16 885,-16 885,-52"/>
<text text-anchor="middle" x="858" y="-31.5" font-family="Helvetica" font-size="10.00">plugin</text>
</a>
</g>
</g>
<!-- dir_f26bb66bf46917193111165ea70066a5&#45;&gt;dir_f132f3c082319ace6827058f7d1d886d -->
<g id="edge11" class="edge">
<title>dir_f26bb66bf46917193111165ea70066a5&#45;&gt;dir_f132f3c082319ace6827058f7d1d886d</title>
<path fill="none" stroke="black" d="M70.39,-104.5C188.54,-102.13 655.68,-90.63 820.91,-51.58"/>
<polygon fill="black" stroke="black" points="822.03,-54.91 830.88,-49.09 820.33,-48.12 822.03,-54.91"/>
<g id="a_edge11&#45;headlabel"><a xlink:href="dir_000073_000042.html" target="_top" xlink:title="1">
<text text-anchor="middle" x="819.22" y="-56.03" font-family="Helvetica" font-size="10.00">1</text>
</a>
</g>
</g>
</g>
</svg>
