<?xml version="1.0" encoding="UTF-8" standalone="no"?>
<!DOCTYPE svg PUBLIC "-//W3C//DTD SVG 1.1//EN"
 "http://www.w3.org/Graphics/SVG/1.1/DTD/svg11.dtd">
<!-- Generated by graphviz version 2.44.0 (0)
 -->
<!-- Title: /home/ec2&#45;user/workspace/vsomeip/implementation/endpoints/src Pages: 1 -->
<svg width="716pt" height="167pt"
 viewBox="0.00 0.00 716.00 167.00" xmlns="http://www.w3.org/2000/svg" xmlns:xlink="http://www.w3.org/1999/xlink">
<g id="graph0" class="graph" transform="scale(1 1) rotate(0) translate(4 163)">
<title>/home/ec2&#45;user/workspace/vsomeip/implementation/endpoints/src</title>
<polygon fill="white" stroke="transparent" points="-4,4 -4,-163 712,-163 712,4 -4,4"/>
<g id="clust1" class="cluster">
<title>clusterdir_9c7b9d609ec855ab7fbf064b0ccf8e4e</title>
<g id="a_clust1"><a xlink:href="dir_9c7b9d609ec855ab7fbf064b0ccf8e4e.html" target="_top" xlink:title="endpoints">
<polygon fill="#edf0f7" stroke="#7f7f7f" stroke-dasharray="5,2" points="8,-8 8,-151 78,-151 78,-8 8,-8"/>
<text text-anchor="middle" x="43" y="-139" font-family="Helvetica" font-size="10.00">endpoints</text>
</a>
</g>
</g>
<!-- dir_8aaf58c2a1b20b8bdef59baa467903fa -->
<g id="node1" class="node">
<title>dir_8aaf58c2a1b20b8bdef59baa467903fa</title>
<g id="a_node1"><a xlink:href="dir_8aaf58c2a1b20b8bdef59baa467903fa.html" target="_top" xlink:title="include">
<polygon fill="#a2b4d6" stroke="#404040" points="70,-52 16,-52 16,-16 70,-16 70,-52"/>
<text text-anchor="middle" x="43" y="-31.5" font-family="Helvetica" font-size="10.00">include</text>
</a>
</g>
</g>
<!-- dir_fb9e29b304053fe32bd398f2f401d305 -->
<g id="node2" class="node">
<title>dir_fb9e29b304053fe32bd398f2f401d305</title>
<g id="a_node2"><a xlink:href="dir_fb9e29b304053fe32bd398f2f401d305.html" target="_top" xlink:title="src">
<polygon fill="#edf0f7" stroke="#404040" stroke-width="2" points="70,-124 16,-124 16,-88 70,-88 70,-124"/>
<text text-anchor="middle" x="43" y="-103.5" font-family="Helvetica" font-size="10.00">src</text>
</a>
</g>
</g>
<!-- dir_fb9e29b304053fe32bd398f2f401d305&#45;&gt;dir_8aaf58c2a1b20b8bdef59baa467903fa -->
<g id="edge6" class="edge">
<title>dir_fb9e29b304053fe32bd398f2f401d305&#45;&gt;dir_8aaf58c2a1b20b8bdef59baa467903fa</title>
<path fill="none" stroke="black" d="M43,-87.7C43,-79.98 43,-70.71 43,-62.11"/>
<polygon fill="black" stroke="black" points="46.5,-62.1 43,-52.1 39.5,-62.1 46.5,-62.1"/>
<g id="a_edge6&#45;headlabel"><a xlink:href="dir_000068_000023.html" target="_top" xlink:title="51">
<text text-anchor="middle" x="49.34" y="-63.2" font-family="Helvetica" font-size="10.00">51</text>
</a>
</g>
</g>
<!-- dir_061a1b0a0a40a7427f2461ed2f520013 -->
<g id="node3" class="node">
<title>dir_061a1b0a0a40a7427f2461ed2f520013</title>
<g id="a_node3"><a xlink:href="dir_061a1b0a0a40a7427f2461ed2f520013.html" target="_top" xlink:title="service_discovery">
<polygon fill="none" stroke="red" stroke-dasharray="5,2" points="184,-52 88,-52 88,-16 184,-16 184,-52"/>
<text text-anchor="middle" x="136" y="-31.5" font-family="Helvetica" font-size="10.00">service_discovery</text>
</a>
</g>
</g>
<!-- dir_fb9e29b304053fe32bd398f2f401d305&#45;&gt;dir_061a1b0a0a40a7427f2461ed2f520013 -->
<g id="edge1" class="edge">
<title>dir_fb9e29b304053fe32bd398f2f401d305&#45;&gt;dir_061a1b0a0a40a7427f2461ed2f520013</title>
<path fill="none" stroke="black" d="M65.99,-87.7C77.81,-78.8 92.39,-67.82 105.18,-58.2"/>
<polygon fill="black" stroke="black" points="107.39,-60.91 113.28,-52.1 103.18,-55.32 107.39,-60.91"/>
<g id="a_edge1&#45;headlabel"><a xlink:href="dir_000068_000063.html" target="_top" xlink:title="2">
<text text-anchor="middle" x="106.23" y="-62.84" font-family="Helvetica" font-size="10.00">2</text>
</a>
</g>
</g>
<!-- dir_43cc1d4eb251b5d8cbfdd5909fd3ba45 -->
<g id="node4" class="node">
<title>dir_43cc1d4eb251b5d8cbfdd5909fd3ba45</title>
<g id="a_node4"><a xlink:href="dir_43cc1d4eb251b5d8cbfdd5909fd3ba45.html" target="_top" xlink:title="protocol">
<polygon fill="none" stroke="red" stroke-dasharray="5,2" points="256,-52 202,-52 202,-16 256,-16 256,-52"/>
<text text-anchor="middle" x="229" y="-31.5" font-family="Helvetica" font-size="10.00">protocol</text>
</a>
</g>
</g>
<!-- dir_fb9e29b304053fe32bd398f2f401d305&#45;&gt;dir_43cc1d4eb251b5d8cbfdd5909fd3ba45 -->
<g id="edge2" class="edge">
<title>dir_fb9e29b304053fe32bd398f2f401d305&#45;&gt;dir_43cc1d4eb251b5d8cbfdd5909fd3ba45</title>
<path fill="none" stroke="black" d="M70.14,-96.33C98.53,-87.07 144.52,-71.5 192.08,-52.19"/>
<polygon fill="black" stroke="black" points="193.69,-55.32 201.61,-48.28 191.03,-48.84 193.69,-55.32"/>
<g id="a_edge2&#45;headlabel"><a xlink:href="dir_000068_000058.html" target="_top" xlink:title="6">
<text text-anchor="middle" x="191.44" y="-56.81" font-family="Helvetica" font-size="10.00">6</text>
</a>
</g>
</g>
<!-- dir_56126a1d848d4a1832817232e79a5a18 -->
<g id="node5" class="node">
<title>dir_56126a1d848d4a1832817232e79a5a18</title>
<g id="a_node5"><a xlink:href="dir_56126a1d848d4a1832817232e79a5a18.html" target="_top" xlink:title="configuration">
<polygon fill="none" stroke="red" stroke-dasharray="5,2" points="346,-52 274,-52 274,-16 346,-16 346,-52"/>
<text text-anchor="middle" x="310" y="-31.5" font-family="Helvetica" font-size="10.00">configuration</text>
</a>
</g>
</g>
<!-- dir_fb9e29b304053fe32bd398f2f401d305&#45;&gt;dir_56126a1d848d4a1832817232e79a5a18 -->
<g id="edge3" class="edge">
<title>dir_fb9e29b304053fe32bd398f2f401d305&#45;&gt;dir_56126a1d848d4a1832817232e79a5a18</title>
<path fill="none" stroke="black" d="M70.3,-99.65C110.75,-91.47 189.1,-74.67 264.18,-52.06"/>
<polygon fill="black" stroke="black" points="265.24,-55.4 273.79,-49.13 263.2,-48.7 265.24,-55.4"/>
<g id="a_edge3&#45;headlabel"><a xlink:href="dir_000068_000006.html" target="_top" xlink:title="7">
<text text-anchor="middle" x="262.63" y="-56.66" font-family="Helvetica" font-size="10.00">7</text>
</a>
</g>
</g>
<!-- dir_6972051101bc5f8d68d31d49f06d7aaf -->
<g id="node6" class="node">
<title>dir_6972051101bc5f8d68d31d49f06d7aaf</title>
<g id="a_node6"><a xlink:href="dir_6972051101bc5f8d68d31d49f06d7aaf.html" target="_top" xlink:title="utility">
<polygon fill="none" stroke="red" stroke-dasharray="5,2" points="418,-52 364,-52 364,-16 418,-16 418,-52"/>
<text text-anchor="middle" x="391" y="-31.5" font-family="Helvetica" font-size="10.00">utility</text>
</a>
</g>
</g>
<!-- dir_fb9e29b304053fe32bd398f2f401d305&#45;&gt;dir_6972051101bc5f8d68d31d49f06d7aaf -->
<g id="edge4" class="edge">
<title>dir_fb9e29b304053fe32bd398f2f401d305&#45;&gt;dir_6972051101bc5f8d68d31d49f06d7aaf</title>
<path fill="none" stroke="black" d="M70.29,-102.88C123.66,-98.21 245.39,-84.95 354,-51.84"/>
<polygon fill="black" stroke="black" points="355.29,-55.11 363.79,-48.79 353.2,-48.42 355.29,-55.11"/>
<g id="a_edge4&#45;headlabel"><a xlink:href="dir_000068_000080.html" target="_top" xlink:title="22">
<text text-anchor="middle" x="352.7" y="-56.39" font-family="Helvetica" font-size="10.00">22</text>
</a>
</g>
</g>
<!-- dir_865b81be71567c7497d9335ceceb92d8 -->
<g id="node7" class="node">
<title>dir_865b81be71567c7497d9335ceceb92d8</title>
<g id="a_node7"><a xlink:href="dir_865b81be71567c7497d9335ceceb92d8.html" target="_top" xlink:title="helper">
<polygon fill="none" stroke="red" stroke-dasharray="5,2" points="490,-52 436,-52 436,-16 490,-16 490,-52"/>
<text text-anchor="middle" x="463" y="-31.5" font-family="Helvetica" font-size="10.00">helper</text>
</a>
</g>
</g>
<!-- dir_fb9e29b304053fe32bd398f2f401d305&#45;&gt;dir_865b81be71567c7497d9335ceceb92d8 -->
<g id="edge5" class="edge">
<title>dir_fb9e29b304053fe32bd398f2f401d305&#45;&gt;dir_865b81be71567c7497d9335ceceb92d8</title>
<path fill="none" stroke="black" d="M70.13,-104.07C132.26,-101.37 289.42,-91.16 426.02,-51.77"/>
<polygon fill="black" stroke="black" points="427.22,-55.07 435.82,-48.88 425.24,-48.35 427.22,-55.07"/>
<g id="a_edge5&#45;headlabel"><a xlink:href="dir_000068_000016.html" target="_top" xlink:title="4">
<text text-anchor="middle" x="424.57" y="-56.31" font-family="Helvetica" font-size="10.00">4</text>
</a>
</g>
</g>
<!-- dir_96312f6272b562b103a6f862042db4a4 -->
<g id="node8" class="node">
<title>dir_96312f6272b562b103a6f862042db4a4</title>
<g id="a_node8"><a xlink:href="dir_96312f6272b562b103a6f862042db4a4.html" target="_top" xlink:title="security">
<polygon fill="none" stroke="red" stroke-dasharray="5,2" points="562,-52 508,-52 508,-16 562,-16 562,-52"/>
<text text-anchor="middle" x="535" y="-31.5" font-family="Helvetica" font-size="10.00">security</text>
</a>
</g>
</g>
<!-- dir_fb9e29b304053fe32bd398f2f401d305&#45;&gt;dir_96312f6272b562b103a6f862042db4a4 -->
<g id="edge7" class="edge">
<title>dir_fb9e29b304053fe32bd398f2f401d305&#45;&gt;dir_96312f6272b562b103a6f862042db4a4</title>
<path fill="none" stroke="black" d="M70.06,-104.89C140.19,-103.98 333.21,-97.44 498.03,-51.73"/>
<polygon fill="black" stroke="black" points="499.17,-55.04 507.84,-48.95 497.27,-48.3 499.17,-55.04"/>
<g id="a_edge7&#45;headlabel"><a xlink:href="dir_000068_000062.html" target="_top" xlink:title="3">
<text text-anchor="middle" x="496.49" y="-56.25" font-family="Helvetica" font-size="10.00">3</text>
</a>
</g>
</g>
<!-- dir_b31d54d5631803016a26f28213a41162 -->
<g id="node9" class="node">
<title>dir_b31d54d5631803016a26f28213a41162</title>
<g id="a_node9"><a xlink:href="dir_b31d54d5631803016a26f28213a41162.html" target="_top" xlink:title="interface">
<polygon fill="none" stroke="red" points="635.5,-52 580.5,-52 580.5,-16 635.5,-16 635.5,-52"/>
<text text-anchor="middle" x="608" y="-31.5" font-family="Helvetica" font-size="10.00">interface</text>
</a>
</g>
</g>
<!-- dir_fb9e29b304053fe32bd398f2f401d305&#45;&gt;dir_b31d54d5631803016a26f28213a41162 -->
<g id="edge8" class="edge">
<title>dir_fb9e29b304053fe32bd398f2f401d305&#45;&gt;dir_b31d54d5631803016a26f28213a41162</title>
<path fill="none" stroke="black" d="M70.21,-105.4C149.17,-105.89 384.53,-102.68 571,-52 571.1,-51.97 571.2,-51.95 571.29,-51.92"/>
<polygon fill="black" stroke="black" points="572.13,-55.33 580.49,-48.83 569.9,-48.7 572.13,-55.33"/>
<g id="a_edge8&#45;headlabel"><a xlink:href="dir_000068_000034.html" target="_top" xlink:title="17">
<text text-anchor="middle" x="569.62" y="-56.67" font-family="Helvetica" font-size="10.00">17</text>
</a>
</g>
</g>
<!-- dir_cf72682d9b1c0bc1c562a1f19b8defa0 -->
<g id="node10" class="node">
<title>dir_cf72682d9b1c0bc1c562a1f19b8defa0</title>
<g id="a_node10"><a xlink:href="dir_cf72682d9b1c0bc1c562a1f19b8defa0.html" target="_top" xlink:title="routing">
<polygon fill="none" stroke="red" stroke-dasharray="5,2" points="708,-52 654,-52 654,-16 708,-16 708,-52"/>
<text text-anchor="middle" x="681" y="-31.5" font-family="Helvetica" font-size="10.00">routing</text>
</a>
</g>
</g>
<!-- dir_fb9e29b304053fe32bd398f2f401d305&#45;&gt;dir_cf72682d9b1c0bc1c562a1f19b8defa0 -->
<g id="edge9" class="edge">
<title>dir_fb9e29b304053fe32bd398f2f401d305&#45;&gt;dir_cf72682d9b1c0bc1c562a1f19b8defa0</title>
<path fill="none" stroke="black" d="M70.14,-103.88C169.69,-99.58 515.21,-82.94 643.9,-51.61"/>
<polygon fill="black" stroke="black" points="645.06,-54.92 653.86,-49.03 643.31,-48.15 645.06,-54.92"/>
<g id="a_edge9&#45;headlabel"><a xlink:href="dir_000068_000059.html" target="_top" xlink:title="13">
<text text-anchor="middle" x="642.29" y="-56.07" font-family="Helvetica" font-size="10.00">13</text>
</a>
</g>
</g>
</g>
</svg>
