<?xml version="1.0" encoding="UTF-8" standalone="no"?>
<!DOCTYPE svg PUBLIC "-//W3C//DTD SVG 1.1//EN"
 "http://www.w3.org/Graphics/SVG/1.1/DTD/svg11.dtd">
<!-- Generated by graphviz version 2.44.0 (0)
 -->
<!-- Title: /home/ec2&#45;user/workspace/vsomeip/implementation/tracing/src Pages: 1 -->
<svg width="391pt" height="167pt"
 viewBox="0.00 0.00 390.50 167.00" xmlns="http://www.w3.org/2000/svg" xmlns:xlink="http://www.w3.org/1999/xlink">
<g id="graph0" class="graph" transform="scale(1 1) rotate(0) translate(4 163)">
<title>/home/ec2&#45;user/workspace/vsomeip/implementation/tracing/src</title>
<polygon fill="white" stroke="transparent" points="-4,4 -4,-163 386.5,-163 386.5,4 -4,4"/>
<g id="clust1" class="cluster">
<title>clusterdir_282dd5a982ba644edb6efcfaee8b7735</title>
<g id="a_clust1"><a xlink:href="dir_282dd5a982ba644edb6efcfaee8b7735.html" target="_top" xlink:title="tracing">
<polygon fill="#edf0f7" stroke="#7f7f7f" stroke-dasharray="5,2" points="8,-8 8,-151 78,-151 78,-8 8,-8"/>
<text text-anchor="middle" x="43" y="-139" font-family="Helvetica" font-size="10.00">tracing</text>
</a>
</g>
</g>
<!-- dir_911aeb358d99ffd76b27feafb34c9b43 -->
<g id="node1" class="node">
<title>dir_911aeb358d99ffd76b27feafb34c9b43</title>
<g id="a_node1"><a xlink:href="dir_911aeb358d99ffd76b27feafb34c9b43.html" target="_top" xlink:title="include">
<polygon fill="#a2b4d6" stroke="#404040" points="70,-52 16,-52 16,-16 70,-16 70,-52"/>
<text text-anchor="middle" x="43" y="-31.5" font-family="Helvetica" font-size="10.00">include</text>
</a>
</g>
</g>
<!-- dir_633334f18749e8a1fd92a1b128266678 -->
<g id="node2" class="node">
<title>dir_633334f18749e8a1fd92a1b128266678</title>
<g id="a_node2"><a xlink:href="dir_633334f18749e8a1fd92a1b128266678.html" target="_top" xlink:title="src">
<polygon fill="#edf0f7" stroke="#404040" stroke-width="2" points="70,-124 16,-124 16,-88 70,-88 70,-124"/>
<text text-anchor="middle" x="43" y="-103.5" font-family="Helvetica" font-size="10.00">src</text>
</a>
</g>
</g>
<!-- dir_633334f18749e8a1fd92a1b128266678&#45;&gt;dir_911aeb358d99ffd76b27feafb34c9b43 -->
<g id="edge3" class="edge">
<title>dir_633334f18749e8a1fd92a1b128266678&#45;&gt;dir_911aeb358d99ffd76b27feafb34c9b43</title>
<path fill="none" stroke="black" d="M43,-87.7C43,-79.98 43,-70.71 43,-62.11"/>
<polygon fill="black" stroke="black" points="46.5,-62.1 43,-52.1 39.5,-62.1 46.5,-62.1"/>
<g id="a_edge3&#45;headlabel"><a xlink:href="dir_000077_000032.html" target="_top" xlink:title="5">
<text text-anchor="middle" x="49.34" y="-63.2" font-family="Helvetica" font-size="10.00">5</text>
</a>
</g>
</g>
<!-- dir_56126a1d848d4a1832817232e79a5a18 -->
<g id="node3" class="node">
<title>dir_56126a1d848d4a1832817232e79a5a18</title>
<g id="a_node3"><a xlink:href="dir_56126a1d848d4a1832817232e79a5a18.html" target="_top" xlink:title="configuration">
<polygon fill="none" stroke="red" stroke-dasharray="5,2" points="160,-52 88,-52 88,-16 160,-16 160,-52"/>
<text text-anchor="middle" x="124" y="-31.5" font-family="Helvetica" font-size="10.00">configuration</text>
</a>
</g>
</g>
<!-- dir_633334f18749e8a1fd92a1b128266678&#45;&gt;dir_56126a1d848d4a1832817232e79a5a18 -->
<g id="edge1" class="edge">
<title>dir_633334f18749e8a1fd92a1b128266678&#45;&gt;dir_56126a1d848d4a1832817232e79a5a18</title>
<path fill="none" stroke="black" d="M63.02,-87.7C73.13,-78.97 85.54,-68.24 96.52,-58.75"/>
<polygon fill="black" stroke="black" points="98.93,-61.29 104.21,-52.1 94.35,-55.99 98.93,-61.29"/>
<g id="a_edge1&#45;headlabel"><a xlink:href="dir_000077_000006.html" target="_top" xlink:title="1">
<text text-anchor="middle" x="98.07" y="-63.29" font-family="Helvetica" font-size="10.00">1</text>
</a>
</g>
</g>
<!-- dir_6972051101bc5f8d68d31d49f06d7aaf -->
<g id="node4" class="node">
<title>dir_6972051101bc5f8d68d31d49f06d7aaf</title>
<g id="a_node4"><a xlink:href="dir_6972051101bc5f8d68d31d49f06d7aaf.html" target="_top" xlink:title="utility">
<polygon fill="none" stroke="red" stroke-dasharray="5,2" points="232,-52 178,-52 178,-16 232,-16 232,-52"/>
<text text-anchor="middle" x="205" y="-31.5" font-family="Helvetica" font-size="10.00">utility</text>
</a>
</g>
</g>
<!-- dir_633334f18749e8a1fd92a1b128266678&#45;&gt;dir_6972051101bc5f8d68d31d49f06d7aaf -->
<g id="edge2" class="edge">
<title>dir_633334f18749e8a1fd92a1b128266678&#45;&gt;dir_6972051101bc5f8d68d31d49f06d7aaf</title>
<path fill="none" stroke="black" d="M70.18,-93.96C93.9,-84.24 129.42,-69.48 168.47,-52.15"/>
<polygon fill="black" stroke="black" points="170.22,-55.2 177.93,-47.94 167.37,-48.81 170.22,-55.2"/>
<g id="a_edge2&#45;headlabel"><a xlink:href="dir_000077_000080.html" target="_top" xlink:title="2">
<text text-anchor="middle" x="168.1" y="-56.76" font-family="Helvetica" font-size="10.00">2</text>
</a>
</g>
</g>
<!-- dir_9c7b9d609ec855ab7fbf064b0ccf8e4e -->
<g id="node5" class="node">
<title>dir_9c7b9d609ec855ab7fbf064b0ccf8e4e</title>
<g id="a_node5"><a xlink:href="dir_9c7b9d609ec855ab7fbf064b0ccf8e4e.html" target="_top" xlink:title="endpoints">
<polygon fill="none" stroke="red" stroke-dasharray="5,2" points="309.5,-52 250.5,-52 250.5,-16 309.5,-16 309.5,-52"/>
<text text-anchor="middle" x="280" y="-31.5" font-family="Helvetica" font-size="10.00">endpoints</text>
</a>
</g>
</g>
<!-- dir_633334f18749e8a1fd92a1b128266678&#45;&gt;dir_9c7b9d609ec855ab7fbf064b0ccf8e4e -->
<g id="edge4" class="edge">
<title>dir_633334f18749e8a1fd92a1b128266678&#45;&gt;dir_9c7b9d609ec855ab7fbf064b0ccf8e4e</title>
<path fill="none" stroke="black" d="M70.29,-99.06C108.84,-90.36 181.21,-72.9 241,-52 241.1,-51.97 241.19,-51.93 241.29,-51.9"/>
<polygon fill="black" stroke="black" points="242.26,-55.27 250.37,-48.46 239.78,-48.73 242.26,-55.27"/>
<g id="a_edge4&#45;headlabel"><a xlink:href="dir_000077_000015.html" target="_top" xlink:title="2">
<text text-anchor="middle" x="239.9" y="-56.7" font-family="Helvetica" font-size="10.00">2</text>
</a>
</g>
</g>
<!-- dir_b31d54d5631803016a26f28213a41162 -->
<g id="node6" class="node">
<title>dir_b31d54d5631803016a26f28213a41162</title>
<g id="a_node6"><a xlink:href="dir_b31d54d5631803016a26f28213a41162.html" target="_top" xlink:title="interface">
<polygon fill="none" stroke="red" points="382.5,-52 327.5,-52 327.5,-16 382.5,-16 382.5,-52"/>
<text text-anchor="middle" x="355" y="-31.5" font-family="Helvetica" font-size="10.00">interface</text>
</a>
</g>
</g>
<!-- dir_633334f18749e8a1fd92a1b128266678&#45;&gt;dir_b31d54d5631803016a26f28213a41162 -->
<g id="edge5" class="edge">
<title>dir_633334f18749e8a1fd92a1b128266678&#45;&gt;dir_b31d54d5631803016a26f28213a41162</title>
<path fill="none" stroke="black" d="M70.21,-102.08C118.71,-96.38 223.16,-81.92 317.67,-52.02"/>
<polygon fill="black" stroke="black" points="318.94,-55.29 327.37,-48.89 316.78,-48.63 318.94,-55.29"/>
<g id="a_edge5&#45;headlabel"><a xlink:href="dir_000077_000034.html" target="_top" xlink:title="2">
<text text-anchor="middle" x="316.39" y="-56.6" font-family="Helvetica" font-size="10.00">2</text>
</a>
</g>
</g>
</g>
</svg>
