<?xml version="1.0" encoding="UTF-8" standalone="no"?>
<!DOCTYPE svg PUBLIC "-//W3C//DTD SVG 1.1//EN"
 "http://www.w3.org/Graphics/SVG/1.1/DTD/svg11.dtd">
<!-- Generated by graphviz version 2.44.0 (0)
 -->
<!-- Title: /home/ec2&#45;user/workspace/vsomeip/implementation/runtime/include Pages: 1 -->
<svg width="152pt" height="151pt"
 viewBox="0.00 0.00 152.00 151.00" xmlns="http://www.w3.org/2000/svg" xmlns:xlink="http://www.w3.org/1999/xlink">
<g id="graph0" class="graph" transform="scale(1 1) rotate(0) translate(4 147)">
<title>/home/ec2&#45;user/workspace/vsomeip/implementation/runtime/include</title>
<polygon fill="white" stroke="transparent" points="-4,4 -4,-147 148,-147 148,4 -4,4"/>
<g id="clust1" class="cluster">
<title>clusterdir_edcd78c7944f950aad2a7d808a095802</title>
<g id="a_clust1"><a xlink:href="dir_edcd78c7944f950aad2a7d808a095802.html" target="_top" xlink:title="runtime">
<polygon fill="#edf0f7" stroke="#7f7f7f" stroke-dasharray="5,2" points="41,-64 41,-135 111,-135 111,-64 41,-64"/>
<text text-anchor="middle" x="76" y="-123" font-family="Helvetica" font-size="10.00">runtime</text>
</a>
</g>
</g>
<!-- dir_09d934579f160da0a50cec206544f0b7 -->
<g id="node1" class="node">
<title>dir_09d934579f160da0a50cec206544f0b7</title>
<g id="a_node1"><a xlink:href="dir_09d934579f160da0a50cec206544f0b7.html" target="_top" xlink:title="include">
<polygon fill="#edf0f7" stroke="#404040" stroke-width="2" points="103,-108 49,-108 49,-72 103,-72 103,-108"/>
<text text-anchor="middle" x="76" y="-87.5" font-family="Helvetica" font-size="10.00">include</text>
</a>
</g>
</g>
<!-- dir_56126a1d848d4a1832817232e79a5a18 -->
<g id="node2" class="node">
<title>dir_56126a1d848d4a1832817232e79a5a18</title>
<g id="a_node2"><a xlink:href="dir_56126a1d848d4a1832817232e79a5a18.html" target="_top" xlink:title="configuration">
<polygon fill="none" stroke="red" stroke-dasharray="5,2" points="72,-36 0,-36 0,0 72,0 72,-36"/>
<text text-anchor="middle" x="36" y="-15.5" font-family="Helvetica" font-size="10.00">configuration</text>
</a>
</g>
</g>
<!-- dir_09d934579f160da0a50cec206544f0b7&#45;&gt;dir_56126a1d848d4a1832817232e79a5a18 -->
<g id="edge1" class="edge">
<title>dir_09d934579f160da0a50cec206544f0b7&#45;&gt;dir_56126a1d848d4a1832817232e79a5a18</title>
<path fill="none" stroke="black" d="M66.11,-71.7C61.51,-63.64 55.94,-53.89 50.85,-44.98"/>
<polygon fill="black" stroke="black" points="53.77,-43.05 45.77,-36.1 47.7,-46.52 53.77,-43.05"/>
<g id="a_edge1&#45;headlabel"><a xlink:href="dir_000029_000006.html" target="_top" xlink:title="1">
<text text-anchor="middle" x="58.02" y="-42.26" font-family="Helvetica" font-size="10.00">1</text>
</a>
</g>
</g>
<!-- dir_cf72682d9b1c0bc1c562a1f19b8defa0 -->
<g id="node3" class="node">
<title>dir_cf72682d9b1c0bc1c562a1f19b8defa0</title>
<g id="a_node3"><a xlink:href="dir_cf72682d9b1c0bc1c562a1f19b8defa0.html" target="_top" xlink:title="routing">
<polygon fill="none" stroke="red" stroke-dasharray="5,2" points="144,-36 90,-36 90,0 144,0 144,-36"/>
<text text-anchor="middle" x="117" y="-15.5" font-family="Helvetica" font-size="10.00">routing</text>
</a>
</g>
</g>
<!-- dir_09d934579f160da0a50cec206544f0b7&#45;&gt;dir_cf72682d9b1c0bc1c562a1f19b8defa0 -->
<g id="edge2" class="edge">
<title>dir_09d934579f160da0a50cec206544f0b7&#45;&gt;dir_cf72682d9b1c0bc1c562a1f19b8defa0</title>
<path fill="none" stroke="black" d="M86.13,-71.7C90.85,-63.64 96.56,-53.89 101.78,-44.98"/>
<polygon fill="black" stroke="black" points="104.95,-46.5 106.98,-36.1 98.91,-42.96 104.95,-46.5"/>
<g id="a_edge2&#45;headlabel"><a xlink:href="dir_000029_000059.html" target="_top" xlink:title="1">
<text text-anchor="middle" x="105.58" y="-48.54" font-family="Helvetica" font-size="10.00">1</text>
</a>
</g>
</g>
</g>
</svg>
