<?xml version="1.0" encoding="UTF-8" standalone="no"?>
<!DOCTYPE svg PUBLIC "-//W3C//DTD SVG 1.1//EN"
 "http://www.w3.org/Graphics/SVG/1.1/DTD/svg11.dtd">
<!-- Generated by graphviz version 2.44.0 (0)
 -->
<!-- Title: /home/ec2&#45;user/workspace/vsomeip/implementation/protocol/include/distribute_security_policies_command.hpp Pages: 1 -->
<svg width="486pt" height="150pt"
 viewBox="0.00 0.00 485.50 150.00" xmlns="http://www.w3.org/2000/svg" xmlns:xlink="http://www.w3.org/1999/xlink">
<g id="graph0" class="graph" transform="scale(1 1) rotate(0) translate(4 146)">
<title>/home/ec2&#45;user/workspace/vsomeip/implementation/protocol/include/distribute_security_policies_command.hpp</title>
<polygon fill="white" stroke="transparent" points="-4,4 -4,-146 481.5,-146 481.5,4 -4,4"/>
<!-- Node1 -->
<g id="node1" class="node">
<title>Node1</title>
<g id="a_node1"><a xlink:title=" ">
<polygon fill="#bfbfbf" stroke="black" points="169,-89.5 169,-141.5 330,-141.5 330,-89.5 169,-89.5"/>
<text text-anchor="start" x="177" y="-129.5" font-family="Helvetica" font-size="10.00">/home/ec2&#45;user/workspace</text>
<text text-anchor="start" x="177" y="-118.5" font-family="Helvetica" font-size="10.00">/vsomeip/implementation</text>
<text text-anchor="start" x="177" y="-107.5" font-family="Helvetica" font-size="10.00">/protocol/include/distribute</text>
<text text-anchor="middle" x="249.5" y="-96.5" font-family="Helvetica" font-size="10.00">_security_policies_command.hpp</text>
</a>
</g>
</g>
<!-- Node2 -->
<g id="node2" class="node">
<title>Node2</title>
<g id="a_node2"><a xlink:href="distribute__security__policies__command_8cpp.html" target="_top" xlink:title=" ">
<polygon fill="white" stroke="black" points="0,-0.5 0,-52.5 161,-52.5 161,-0.5 0,-0.5"/>
<text text-anchor="start" x="8" y="-40.5" font-family="Helvetica" font-size="10.00">/home/ec2&#45;user/workspace</text>
<text text-anchor="start" x="8" y="-29.5" font-family="Helvetica" font-size="10.00">/vsomeip/implementation</text>
<text text-anchor="start" x="8" y="-18.5" font-family="Helvetica" font-size="10.00">/protocol/src/distribute</text>
<text text-anchor="middle" x="80.5" y="-7.5" font-family="Helvetica" font-size="10.00">_security_policies_command.cpp</text>
</a>
</g>
</g>
<!-- Node1&#45;&gt;Node2 -->
<g id="edge1" class="edge">
<title>Node1&#45;&gt;Node2</title>
<path fill="none" stroke="midnightblue" d="M191.49,-84.64C171.23,-74.2 148.7,-62.61 129.27,-52.61"/>
<polygon fill="midnightblue" stroke="midnightblue" points="190.13,-87.87 200.62,-89.34 193.33,-81.65 190.13,-87.87"/>
</g>
<!-- Node3 -->
<g id="node3" class="node">
<title>Node3</title>
<g id="a_node3"><a xlink:href="routing__manager__client_8cpp.html" target="_top" xlink:title=" ">
<polygon fill="white" stroke="black" points="179.5,-0.5 179.5,-52.5 319.5,-52.5 319.5,-0.5 179.5,-0.5"/>
<text text-anchor="start" x="187.5" y="-40.5" font-family="Helvetica" font-size="10.00">/home/ec2&#45;user/workspace</text>
<text text-anchor="start" x="187.5" y="-29.5" font-family="Helvetica" font-size="10.00">/vsomeip/implementation</text>
<text text-anchor="start" x="187.5" y="-18.5" font-family="Helvetica" font-size="10.00">/routing/src/routing_manager</text>
<text text-anchor="middle" x="249.5" y="-7.5" font-family="Helvetica" font-size="10.00">_client.cpp</text>
</a>
</g>
</g>
<!-- Node1&#45;&gt;Node3 -->
<g id="edge2" class="edge">
<title>Node1&#45;&gt;Node3</title>
<path fill="none" stroke="midnightblue" d="M249.5,-79.19C249.5,-70.28 249.5,-60.9 249.5,-52.61"/>
<polygon fill="midnightblue" stroke="midnightblue" points="246,-79.34 249.5,-89.34 253,-79.34 246,-79.34"/>
</g>
<!-- Node4 -->
<g id="node4" class="node">
<title>Node4</title>
<g id="a_node4"><a xlink:href="routing__manager__stub_8cpp.html" target="_top" xlink:title=" ">
<polygon fill="white" stroke="black" points="337.5,-0.5 337.5,-52.5 477.5,-52.5 477.5,-0.5 337.5,-0.5"/>
<text text-anchor="start" x="345.5" y="-40.5" font-family="Helvetica" font-size="10.00">/home/ec2&#45;user/workspace</text>
<text text-anchor="start" x="345.5" y="-29.5" font-family="Helvetica" font-size="10.00">/vsomeip/implementation</text>
<text text-anchor="start" x="345.5" y="-18.5" font-family="Helvetica" font-size="10.00">/routing/src/routing_manager</text>
<text text-anchor="middle" x="407.5" y="-7.5" font-family="Helvetica" font-size="10.00">_stub.cpp</text>
</a>
</g>
</g>
<!-- Node1&#45;&gt;Node4 -->
<g id="edge3" class="edge">
<title>Node1&#45;&gt;Node4</title>
<path fill="none" stroke="midnightblue" d="M303.99,-84.49C322.87,-74.1 343.82,-62.57 361.9,-52.61"/>
<polygon fill="midnightblue" stroke="midnightblue" points="302.27,-81.45 295.2,-89.34 305.65,-87.58 302.27,-81.45"/>
</g>
</g>
</svg>
