<?xml version="1.0" encoding="UTF-8" standalone="no"?>
<!DOCTYPE svg PUBLIC "-//W3C//DTD SVG 1.1//EN"
 "http://www.w3.org/Graphics/SVG/1.1/DTD/svg11.dtd">
<!-- Generated by graphviz version 2.44.0 (0)
 -->
<!-- Title: /home/ec2&#45;user/workspace/vsomeip/implementation/protocol/include/distribute_security_policies_command.hpp Pages: 1 -->
<svg width="511pt" height="229pt"
 viewBox="0.00 0.00 510.50 229.00" xmlns="http://www.w3.org/2000/svg" xmlns:xlink="http://www.w3.org/1999/xlink">
<g id="graph0" class="graph" transform="scale(1 1) rotate(0) translate(4 225)">
<title>/home/ec2&#45;user/workspace/vsomeip/implementation/protocol/include/distribute_security_policies_command.hpp</title>
<polygon fill="white" stroke="transparent" points="-4,4 -4,-225 506.5,-225 506.5,4 -4,4"/>
<!-- Node1 -->
<g id="node1" class="node">
<title>Node1</title>
<g id="a_node1"><a xlink:title=" ">
<polygon fill="#bfbfbf" stroke="black" points="59,-168.5 59,-220.5 220,-220.5 220,-168.5 59,-168.5"/>
<text text-anchor="start" x="67" y="-208.5" font-family="Helvetica" font-size="10.00">/home/ec2&#45;user/workspace</text>
<text text-anchor="start" x="67" y="-197.5" font-family="Helvetica" font-size="10.00">/vsomeip/implementation</text>
<text text-anchor="start" x="67" y="-186.5" font-family="Helvetica" font-size="10.00">/protocol/include/distribute</text>
<text text-anchor="middle" x="139.5" y="-175.5" font-family="Helvetica" font-size="10.00">_security_policies_command.hpp</text>
</a>
</g>
</g>
<!-- Node2 -->
<g id="node2" class="node">
<title>Node2</title>
<g id="a_node2"><a xlink:title=" ">
<polygon fill="white" stroke="#bfbfbf" points="0,-112.5 0,-131.5 35,-131.5 35,-112.5 0,-112.5"/>
<text text-anchor="middle" x="17.5" y="-119.5" font-family="Helvetica" font-size="10.00">map</text>
</a>
</g>
</g>
<!-- Node1&#45;&gt;Node2 -->
<g id="edge1" class="edge">
<title>Node1&#45;&gt;Node2</title>
<path fill="none" stroke="midnightblue" d="M96.14,-168.45C77.65,-157.76 56.8,-145.71 41.21,-136.7"/>
<polygon fill="midnightblue" stroke="midnightblue" points="42.67,-133.5 32.26,-131.53 39.16,-139.56 42.67,-133.5"/>
</g>
<!-- Node3 -->
<g id="node3" class="node">
<title>Node3</title>
<g id="a_node3"><a xlink:title=" ">
<polygon fill="white" stroke="#bfbfbf" points="53,-112.5 53,-131.5 106,-131.5 106,-112.5 53,-112.5"/>
<text text-anchor="middle" x="79.5" y="-119.5" font-family="Helvetica" font-size="10.00">memory</text>
</a>
</g>
</g>
<!-- Node1&#45;&gt;Node3 -->
<g id="edge2" class="edge">
<title>Node1&#45;&gt;Node3</title>
<path fill="none" stroke="midnightblue" d="M118.18,-168.45C109.99,-158.83 100.86,-148.1 93.53,-139.49"/>
<polygon fill="midnightblue" stroke="midnightblue" points="96.05,-137.04 86.9,-131.7 90.72,-141.58 96.05,-137.04"/>
</g>
<!-- Node4 -->
<g id="node4" class="node">
<title>Node4</title>
<g id="a_node4"><a xlink:title=" ">
<polygon fill="white" stroke="#bfbfbf" points="124.5,-112.5 124.5,-131.5 154.5,-131.5 154.5,-112.5 124.5,-112.5"/>
<text text-anchor="middle" x="139.5" y="-119.5" font-family="Helvetica" font-size="10.00">set</text>
</a>
</g>
</g>
<!-- Node1&#45;&gt;Node4 -->
<g id="edge3" class="edge">
<title>Node1&#45;&gt;Node4</title>
<path fill="none" stroke="midnightblue" d="M139.5,-168.45C139.5,-159.73 139.5,-150.1 139.5,-141.96"/>
<polygon fill="midnightblue" stroke="midnightblue" points="143,-141.7 139.5,-131.7 136,-141.7 143,-141.7"/>
</g>
<!-- Node5 -->
<g id="node5" class="node">
<title>Node5</title>
<g id="a_node5"><a xlink:title=" ">
<polygon fill="white" stroke="#bfbfbf" points="161,-56.5 161,-75.5 204,-75.5 204,-56.5 161,-56.5"/>
<text text-anchor="middle" x="182.5" y="-63.5" font-family="Helvetica" font-size="10.00">vector</text>
</a>
</g>
</g>
<!-- Node1&#45;&gt;Node5 -->
<g id="edge4" class="edge">
<title>Node1&#45;&gt;Node5</title>
<path fill="none" stroke="midnightblue" d="M149.93,-168.25C154.34,-157.2 159.4,-144.04 163.5,-132 168.77,-116.52 173.92,-98.68 177.53,-85.61"/>
<polygon fill="midnightblue" stroke="midnightblue" points="180.92,-86.48 180.16,-75.91 174.16,-84.64 180.92,-86.48"/>
</g>
<!-- Node6 -->
<g id="node6" class="node">
<title>Node6</title>
<g id="a_node6"><a xlink:href="command_8hpp.html" target="_top" xlink:title=" ">
<polygon fill="white" stroke="black" points="210.5,-112.5 210.5,-131.5 288.5,-131.5 288.5,-112.5 210.5,-112.5"/>
<text text-anchor="middle" x="249.5" y="-119.5" font-family="Helvetica" font-size="10.00">command.hpp</text>
</a>
</g>
</g>
<!-- Node1&#45;&gt;Node6 -->
<g id="edge5" class="edge">
<title>Node1&#45;&gt;Node6</title>
<path fill="none" stroke="midnightblue" d="M178.59,-168.45C195.11,-157.86 213.71,-145.94 227.72,-136.96"/>
<polygon fill="midnightblue" stroke="midnightblue" points="229.66,-139.87 236.2,-131.53 225.89,-133.98 229.66,-139.87"/>
</g>
<!-- Node6&#45;&gt;Node5 -->
<g id="edge7" class="edge">
<title>Node6&#45;&gt;Node5</title>
<path fill="none" stroke="midnightblue" d="M238.74,-112.32C228.73,-104.26 213.61,-92.08 201.57,-82.37"/>
<polygon fill="midnightblue" stroke="midnightblue" points="203.44,-79.38 193.46,-75.83 199.05,-84.83 203.44,-79.38"/>
</g>
<!-- Node7 -->
<g id="node7" class="node">
<title>Node7</title>
<g id="a_node7"><a xlink:title=" ">
<polygon fill="white" stroke="#bfbfbf" points="222.5,-56.5 222.5,-75.5 268.5,-75.5 268.5,-56.5 222.5,-56.5"/>
<text text-anchor="middle" x="245.5" y="-63.5" font-family="Helvetica" font-size="10.00">cstring</text>
</a>
</g>
</g>
<!-- Node6&#45;&gt;Node7 -->
<g id="edge6" class="edge">
<title>Node6&#45;&gt;Node7</title>
<path fill="none" stroke="midnightblue" d="M248.84,-112.08C248.32,-105.01 247.56,-94.86 246.91,-85.99"/>
<polygon fill="midnightblue" stroke="midnightblue" points="250.38,-85.47 246.15,-75.75 243.4,-85.98 250.38,-85.47"/>
</g>
<!-- Node8 -->
<g id="node8" class="node">
<title>Node8</title>
<g id="a_node8"><a xlink:title=" ">
<polygon fill="white" stroke="#bfbfbf" points="226.5,-0.5 226.5,-19.5 366.5,-19.5 366.5,-0.5 226.5,-0.5"/>
<text text-anchor="middle" x="296.5" y="-7.5" font-family="Helvetica" font-size="10.00">vsomeip/primitive_types.hpp</text>
</a>
</g>
</g>
<!-- Node6&#45;&gt;Node8 -->
<g id="edge8" class="edge">
<title>Node6&#45;&gt;Node8</title>
<path fill="none" stroke="midnightblue" d="M255.82,-112.43C262.06,-103.66 271.49,-89.44 277.5,-76 284.25,-60.91 289.32,-42.78 292.51,-29.51"/>
<polygon fill="midnightblue" stroke="midnightblue" points="295.94,-30.2 294.75,-19.68 289.12,-28.65 295.94,-30.2"/>
</g>
<!-- Node9 -->
<g id="node9" class="node">
<title>Node9</title>
<g id="a_node9"><a xlink:href="protocol_8hpp.html" target="_top" xlink:title=" ">
<polygon fill="white" stroke="black" points="324.5,-56.5 324.5,-75.5 394.5,-75.5 394.5,-56.5 324.5,-56.5"/>
<text text-anchor="middle" x="359.5" y="-63.5" font-family="Helvetica" font-size="10.00">protocol.hpp</text>
</a>
</g>
</g>
<!-- Node6&#45;&gt;Node9 -->
<g id="edge9" class="edge">
<title>Node6&#45;&gt;Node9</title>
<path fill="none" stroke="midnightblue" d="M267.17,-112.32C284.89,-103.62 312.4,-90.12 332.79,-80.11"/>
<polygon fill="midnightblue" stroke="midnightblue" points="334.44,-83.2 341.87,-75.65 331.35,-76.92 334.44,-83.2"/>
</g>
<!-- Node9&#45;&gt;Node8 -->
<g id="edge11" class="edge">
<title>Node9&#45;&gt;Node8</title>
<path fill="none" stroke="midnightblue" d="M349.38,-56.32C339.97,-48.26 325.76,-36.08 314.43,-26.37"/>
<polygon fill="midnightblue" stroke="midnightblue" points="316.68,-23.68 306.81,-19.83 312.12,-29 316.68,-23.68"/>
</g>
<!-- Node10 -->
<g id="node10" class="node">
<title>Node10</title>
<g id="a_node10"><a xlink:title=" ">
<polygon fill="white" stroke="#bfbfbf" points="384.5,-0.5 384.5,-19.5 502.5,-19.5 502.5,-0.5 384.5,-0.5"/>
<text text-anchor="middle" x="443.5" y="-7.5" font-family="Helvetica" font-size="10.00">vsomeip/constants.hpp</text>
</a>
</g>
</g>
<!-- Node9&#45;&gt;Node10 -->
<g id="edge10" class="edge">
<title>Node9&#45;&gt;Node10</title>
<path fill="none" stroke="midnightblue" d="M373,-56.32C386.1,-47.9 406.21,-34.97 421.61,-25.07"/>
<polygon fill="midnightblue" stroke="midnightblue" points="423.52,-28.01 430.04,-19.65 419.73,-22.12 423.52,-28.01"/>
</g>
</g>
</svg>
