<?xml version="1.0" encoding="UTF-8" standalone="no"?>
<!DOCTYPE svg PUBLIC "-//W3C//DTD SVG 1.1//EN"
 "http://www.w3.org/Graphics/SVG/1.1/DTD/svg11.dtd">
<!-- Generated by graphviz version 2.44.0 (0)
 -->
<!-- Title: /home/ec2&#45;user/workspace/vsomeip/implementation/protocol/src/distribute_security_policies_command.cpp Pages: 1 -->
<svg width="1110pt" height="318pt"
 viewBox="0.00 0.00 1110.00 318.00" xmlns="http://www.w3.org/2000/svg" xmlns:xlink="http://www.w3.org/1999/xlink">
<g id="graph0" class="graph" transform="scale(1 1) rotate(0) translate(4 314)">
<title>/home/ec2&#45;user/workspace/vsomeip/implementation/protocol/src/distribute_security_policies_command.cpp</title>
<polygon fill="white" stroke="transparent" points="-4,4 -4,-314 1106,-314 1106,4 -4,4"/>
<!-- Node1 -->
<g id="node1" class="node">
<title>Node1</title>
<g id="a_node1"><a xlink:title=" ">
<polygon fill="#bfbfbf" stroke="black" points="108.5,-257.5 108.5,-309.5 269.5,-309.5 269.5,-257.5 108.5,-257.5"/>
<text text-anchor="start" x="116.5" y="-297.5" font-family="Helvetica" font-size="10.00">/home/ec2&#45;user/workspace</text>
<text text-anchor="start" x="116.5" y="-286.5" font-family="Helvetica" font-size="10.00">/vsomeip/implementation</text>
<text text-anchor="start" x="116.5" y="-275.5" font-family="Helvetica" font-size="10.00">/protocol/src/distribute</text>
<text text-anchor="middle" x="189" y="-264.5" font-family="Helvetica" font-size="10.00">_security_policies_command.cpp</text>
</a>
</g>
</g>
<!-- Node2 -->
<g id="node2" class="node">
<title>Node2</title>
<g id="a_node2"><a xlink:title=" ">
<polygon fill="white" stroke="#bfbfbf" points="0,-196 0,-215 40,-215 40,-196 0,-196"/>
<text text-anchor="middle" x="20" y="-203" font-family="Helvetica" font-size="10.00">limits</text>
</a>
</g>
</g>
<!-- Node1&#45;&gt;Node2 -->
<g id="edge1" class="edge">
<title>Node1&#45;&gt;Node2</title>
<path fill="none" stroke="midnightblue" d="M130.13,-257.41C105,-246.51 75.44,-233.41 49,-221 48.01,-220.53 47,-220.05 45.98,-219.57"/>
<polygon fill="midnightblue" stroke="midnightblue" points="47.32,-216.33 36.8,-215.08 44.24,-222.62 47.32,-216.33"/>
</g>
<!-- Node3 -->
<g id="node3" class="node">
<title>Node3</title>
<g id="a_node3"><a xlink:title=" ">
<polygon fill="white" stroke="#bfbfbf" points="58.5,-196 58.5,-215 167.5,-215 167.5,-196 58.5,-196"/>
<text text-anchor="middle" x="113" y="-203" font-family="Helvetica" font-size="10.00">vsomeip/payload.hpp</text>
</a>
</g>
</g>
<!-- Node1&#45;&gt;Node3 -->
<g id="edge2" class="edge">
<title>Node1&#45;&gt;Node3</title>
<path fill="none" stroke="midnightblue" d="M163.69,-257.19C152.24,-245.74 139.06,-232.56 129.01,-222.51"/>
<polygon fill="midnightblue" stroke="midnightblue" points="131.25,-219.81 121.71,-215.21 126.31,-224.75 131.25,-219.81"/>
</g>
<!-- Node4 -->
<g id="node4" class="node">
<title>Node4</title>
<g id="a_node4"><a xlink:href="distribute__security__policies__command_8hpp.html" target="_top" xlink:title=" ">
<polygon fill="white" stroke="black" points="185.5,-190.5 185.5,-220.5 346.5,-220.5 346.5,-190.5 185.5,-190.5"/>
<text text-anchor="start" x="193.5" y="-208.5" font-family="Helvetica" font-size="10.00">../include/distribute</text>
<text text-anchor="middle" x="266" y="-197.5" font-family="Helvetica" font-size="10.00">_security_policies_command.hpp</text>
</a>
</g>
</g>
<!-- Node1&#45;&gt;Node4 -->
<g id="edge3" class="edge">
<title>Node1&#45;&gt;Node4</title>
<path fill="none" stroke="midnightblue" d="M214.64,-257.19C224.21,-247.75 234.98,-237.12 244.17,-228.04"/>
<polygon fill="midnightblue" stroke="midnightblue" points="246.81,-230.36 251.47,-220.85 241.89,-225.38 246.81,-230.36"/>
</g>
<!-- Node14 -->
<g id="node14" class="node">
<title>Node14</title>
<g id="a_node14"><a xlink:href="policy_8hpp.html" target="_top" xlink:title=" ">
<polygon fill="white" stroke="black" points="436.5,-123.5 436.5,-153.5 539.5,-153.5 539.5,-123.5 436.5,-123.5"/>
<text text-anchor="start" x="444.5" y="-141.5" font-family="Helvetica" font-size="10.00">../../security/include</text>
<text text-anchor="middle" x="488" y="-130.5" font-family="Helvetica" font-size="10.00">/policy.hpp</text>
</a>
</g>
</g>
<!-- Node1&#45;&gt;Node14 -->
<g id="edge15" class="edge">
<title>Node1&#45;&gt;Node14</title>
<path fill="none" stroke="midnightblue" d="M266.33,-257.38C294.72,-247.25 326.8,-234.7 355,-221 392.42,-202.82 432.83,-177.11 459.16,-159.45"/>
<polygon fill="midnightblue" stroke="midnightblue" points="461.2,-162.3 467.52,-153.8 457.28,-156.5 461.2,-162.3"/>
</g>
<!-- Node5 -->
<g id="node5" class="node">
<title>Node5</title>
<g id="a_node5"><a xlink:title=" ">
<polygon fill="white" stroke="#bfbfbf" points="284.5,-62 284.5,-81 319.5,-81 319.5,-62 284.5,-62"/>
<text text-anchor="middle" x="302" y="-69" font-family="Helvetica" font-size="10.00">map</text>
</a>
</g>
</g>
<!-- Node4&#45;&gt;Node5 -->
<g id="edge4" class="edge">
<title>Node4&#45;&gt;Node5</title>
<path fill="none" stroke="midnightblue" d="M269.85,-190.37C276.39,-166.4 289.66,-117.75 296.94,-91.06"/>
<polygon fill="midnightblue" stroke="midnightblue" points="300.4,-91.67 299.66,-81.1 293.65,-89.82 300.4,-91.67"/>
</g>
<!-- Node6 -->
<g id="node6" class="node">
<title>Node6</title>
<g id="a_node6"><a xlink:title=" ">
<polygon fill="white" stroke="#bfbfbf" points="313.5,-129 313.5,-148 366.5,-148 366.5,-129 313.5,-129"/>
<text text-anchor="middle" x="340" y="-136" font-family="Helvetica" font-size="10.00">memory</text>
</a>
</g>
</g>
<!-- Node4&#45;&gt;Node6 -->
<g id="edge5" class="edge">
<title>Node4&#45;&gt;Node6</title>
<path fill="none" stroke="midnightblue" d="M282.06,-190.4C293.94,-179.96 310.11,-165.75 322.36,-155"/>
<polygon fill="midnightblue" stroke="midnightblue" points="324.9,-157.42 330.1,-148.19 320.28,-152.16 324.9,-157.42"/>
</g>
<!-- Node7 -->
<g id="node7" class="node">
<title>Node7</title>
<g id="a_node7"><a xlink:title=" ">
<polygon fill="white" stroke="#bfbfbf" points="93,-129 93,-148 123,-148 123,-129 93,-129"/>
<text text-anchor="middle" x="108" y="-136" font-family="Helvetica" font-size="10.00">set</text>
</a>
</g>
</g>
<!-- Node4&#45;&gt;Node7 -->
<g id="edge6" class="edge">
<title>Node4&#45;&gt;Node7</title>
<path fill="none" stroke="midnightblue" d="M222.62,-190.42C195.96,-181.21 161.41,-168.28 132,-154 131.45,-153.73 130.9,-153.46 130.35,-153.18"/>
<polygon fill="midnightblue" stroke="midnightblue" points="131.9,-150.04 121.47,-148.23 128.5,-156.15 131.9,-150.04"/>
</g>
<!-- Node8 -->
<g id="node8" class="node">
<title>Node8</title>
<g id="a_node8"><a xlink:title=" ">
<polygon fill="white" stroke="#bfbfbf" points="158.5,-62 158.5,-81 201.5,-81 201.5,-62 158.5,-62"/>
<text text-anchor="middle" x="180" y="-69" font-family="Helvetica" font-size="10.00">vector</text>
</a>
</g>
</g>
<!-- Node4&#45;&gt;Node8 -->
<g id="edge7" class="edge">
<title>Node4&#45;&gt;Node8</title>
<path fill="none" stroke="midnightblue" d="M260.96,-190.21C254.66,-173.34 242.86,-144.8 228,-123 219.19,-110.06 207.02,-97.3 197.14,-87.84"/>
<polygon fill="midnightblue" stroke="midnightblue" points="199.52,-85.28 189.81,-81.03 194.75,-90.4 199.52,-85.28"/>
</g>
<!-- Node9 -->
<g id="node9" class="node">
<title>Node9</title>
<g id="a_node9"><a xlink:href="command_8hpp.html" target="_top" xlink:title=" ">
<polygon fill="white" stroke="black" points="141,-129 141,-148 219,-148 219,-129 141,-129"/>
<text text-anchor="middle" x="180" y="-136" font-family="Helvetica" font-size="10.00">command.hpp</text>
</a>
</g>
</g>
<!-- Node4&#45;&gt;Node9 -->
<g id="edge8" class="edge">
<title>Node4&#45;&gt;Node9</title>
<path fill="none" stroke="midnightblue" d="M247.34,-190.4C233.27,-179.76 214.01,-165.2 199.69,-154.38"/>
<polygon fill="midnightblue" stroke="midnightblue" points="201.59,-151.43 191.5,-148.19 197.37,-157.02 201.59,-151.43"/>
</g>
<!-- Node9&#45;&gt;Node8 -->
<g id="edge10" class="edge">
<title>Node9&#45;&gt;Node8</title>
<path fill="none" stroke="midnightblue" d="M180,-128.73C180,-119.18 180,-103.62 180,-91.28"/>
<polygon fill="midnightblue" stroke="midnightblue" points="183.5,-91.13 180,-81.13 176.5,-91.13 183.5,-91.13"/>
</g>
<!-- Node10 -->
<g id="node10" class="node">
<title>Node10</title>
<g id="a_node10"><a xlink:title=" ">
<polygon fill="white" stroke="#bfbfbf" points="220,-62 220,-81 266,-81 266,-62 220,-62"/>
<text text-anchor="middle" x="243" y="-69" font-family="Helvetica" font-size="10.00">cstring</text>
</a>
</g>
</g>
<!-- Node9&#45;&gt;Node10 -->
<g id="edge9" class="edge">
<title>Node9&#45;&gt;Node10</title>
<path fill="none" stroke="midnightblue" d="M188.5,-128.73C198.51,-118.4 215.34,-101.04 227.66,-88.33"/>
<polygon fill="midnightblue" stroke="midnightblue" points="230.19,-90.74 234.64,-81.13 225.17,-85.87 230.19,-90.74"/>
</g>
<!-- Node11 -->
<g id="node11" class="node">
<title>Node11</title>
<g id="a_node11"><a xlink:title=" ">
<polygon fill="white" stroke="#bfbfbf" points="35,-0.5 35,-19.5 175,-19.5 175,-0.5 35,-0.5"/>
<text text-anchor="middle" x="105" y="-7.5" font-family="Helvetica" font-size="10.00">vsomeip/primitive_types.hpp</text>
</a>
</g>
</g>
<!-- Node9&#45;&gt;Node11 -->
<g id="edge11" class="edge">
<title>Node9&#45;&gt;Node11</title>
<path fill="none" stroke="midnightblue" d="M155.96,-128.92C122.83,-116.85 66.56,-95.4 61,-87 53.4,-75.51 55.8,-68.76 61,-56 65.8,-44.23 75.33,-33.86 84.29,-26.05"/>
<polygon fill="midnightblue" stroke="midnightblue" points="86.65,-28.64 92.22,-19.63 82.25,-23.2 86.65,-28.64"/>
</g>
<!-- Node12 -->
<g id="node12" class="node">
<title>Node12</title>
<g id="a_node12"><a xlink:href="protocol_8hpp.html" target="_top" xlink:title=" ">
<polygon fill="white" stroke="black" points="70,-62 70,-81 140,-81 140,-62 70,-62"/>
<text text-anchor="middle" x="105" y="-69" font-family="Helvetica" font-size="10.00">protocol.hpp</text>
</a>
</g>
</g>
<!-- Node9&#45;&gt;Node12 -->
<g id="edge12" class="edge">
<title>Node9&#45;&gt;Node12</title>
<path fill="none" stroke="midnightblue" d="M169.89,-128.73C157.85,-118.31 137.55,-100.71 122.85,-87.97"/>
<polygon fill="midnightblue" stroke="midnightblue" points="124.8,-85.03 114.95,-81.13 120.22,-90.32 124.8,-85.03"/>
</g>
<!-- Node12&#45;&gt;Node11 -->
<g id="edge14" class="edge">
<title>Node12&#45;&gt;Node11</title>
<path fill="none" stroke="midnightblue" d="M105,-61.98C105,-53.58 105,-40.48 105,-29.66"/>
<polygon fill="midnightblue" stroke="midnightblue" points="108.5,-29.51 105,-19.51 101.5,-29.51 108.5,-29.51"/>
</g>
<!-- Node13 -->
<g id="node13" class="node">
<title>Node13</title>
<g id="a_node13"><a xlink:title=" ">
<polygon fill="white" stroke="#bfbfbf" points="335,-0.5 335,-19.5 453,-19.5 453,-0.5 335,-0.5"/>
<text text-anchor="middle" x="394" y="-7.5" font-family="Helvetica" font-size="10.00">vsomeip/constants.hpp</text>
</a>
</g>
</g>
<!-- Node12&#45;&gt;Node13 -->
<g id="edge13" class="edge">
<title>Node12&#45;&gt;Node13</title>
<path fill="none" stroke="midnightblue" d="M129.03,-61.92C135.47,-59.81 142.45,-57.67 149,-56 207.8,-40.99 275.76,-28.91 325.16,-21.06"/>
<polygon fill="midnightblue" stroke="midnightblue" points="325.76,-24.51 335.1,-19.5 324.68,-17.6 325.76,-24.51"/>
</g>
<!-- Node14&#45;&gt;Node5 -->
<g id="edge17" class="edge">
<title>Node14&#45;&gt;Node5</title>
<path fill="none" stroke="midnightblue" d="M436.29,-123.71C404.76,-114.66 363.94,-101.78 329,-87 328,-86.58 326.98,-86.13 325.96,-85.66"/>
<polygon fill="midnightblue" stroke="midnightblue" points="327.41,-82.47 316.9,-81.13 324.28,-88.73 327.41,-82.47"/>
</g>
<!-- Node14&#45;&gt;Node8 -->
<g id="edge20" class="edge">
<title>Node14&#45;&gt;Node8</title>
<path fill="none" stroke="midnightblue" d="M436.34,-129.71C368.2,-119.15 252.1,-100.12 211,-87 209.33,-86.47 207.63,-85.86 205.93,-85.21"/>
<polygon fill="midnightblue" stroke="midnightblue" points="206.99,-81.86 196.42,-81.14 204.23,-88.29 206.99,-81.86"/>
</g>
<!-- Node14&#45;&gt;Node10 -->
<g id="edge16" class="edge">
<title>Node14&#45;&gt;Node10</title>
<path fill="none" stroke="midnightblue" d="M436.43,-128.17C392.8,-119.6 328.95,-105.43 275,-87 273.33,-86.43 271.64,-85.81 269.93,-85.14"/>
<polygon fill="midnightblue" stroke="midnightblue" points="270.93,-81.77 260.36,-81.1 268.21,-88.21 270.93,-81.77"/>
</g>
<!-- Node14&#45;&gt;Node11 -->
<g id="edge24" class="edge">
<title>Node14&#45;&gt;Node11</title>
<path fill="none" stroke="midnightblue" d="M508.43,-123.3C530.54,-106.25 560.22,-77.3 541,-56 517.69,-30.16 305.09,-18.27 185.61,-13.59"/>
<polygon fill="midnightblue" stroke="midnightblue" points="185.53,-10.09 175.41,-13.2 185.27,-17.08 185.53,-10.09"/>
</g>
<!-- Node14&#45;&gt;Node13 -->
<g id="edge23" class="edge">
<title>Node14&#45;&gt;Node13</title>
<path fill="none" stroke="midnightblue" d="M530.33,-123.3C547.02,-115.39 564.45,-103.68 574,-87 580.84,-75.04 582.48,-66.86 574,-56 560.18,-38.3 508,-26.53 463.36,-19.48"/>
<polygon fill="midnightblue" stroke="midnightblue" points="463.79,-16.01 453.38,-17.96 462.74,-22.93 463.79,-16.01"/>
</g>
<!-- Node15 -->
<g id="node15" class="node">
<title>Node15</title>
<g id="a_node15"><a xlink:title=" ">
<polygon fill="white" stroke="#bfbfbf" points="592,-0.5 592,-19.5 636,-19.5 636,-0.5 592,-0.5"/>
<text text-anchor="middle" x="614" y="-7.5" font-family="Helvetica" font-size="10.00">mutex</text>
</a>
</g>
</g>
<!-- Node14&#45;&gt;Node15 -->
<g id="edge18" class="edge">
<title>Node14&#45;&gt;Node15</title>
<path fill="none" stroke="midnightblue" d="M535.92,-123.46C555.42,-115.58 576.68,-103.84 591,-87 604.78,-70.78 610.31,-46.49 612.52,-29.75"/>
<polygon fill="midnightblue" stroke="midnightblue" points="616.03,-29.88 613.58,-19.57 609.06,-29.15 616.03,-29.88"/>
</g>
<!-- Node16 -->
<g id="node16" class="node">
<title>Node16</title>
<g id="a_node16"><a xlink:title=" ">
<polygon fill="white" stroke="#bfbfbf" points="664,-62 664,-81 704,-81 704,-62 664,-62"/>
<text text-anchor="middle" x="684" y="-69" font-family="Helvetica" font-size="10.00">utility</text>
</a>
</g>
</g>
<!-- Node14&#45;&gt;Node16 -->
<g id="edge19" class="edge">
<title>Node14&#45;&gt;Node16</title>
<path fill="none" stroke="midnightblue" d="M537.71,-123.42C569.99,-113.93 612.81,-100.69 650,-87 651.66,-86.39 653.35,-85.74 655.05,-85.08"/>
<polygon fill="midnightblue" stroke="midnightblue" points="656.79,-88.15 664.72,-81.12 654.14,-81.67 656.79,-88.15"/>
</g>
<!-- Node17 -->
<g id="node17" class="node">
<title>Node17</title>
<g id="a_node17"><a xlink:title=" ">
<polygon fill="white" stroke="#bfbfbf" points="338,-56.5 338,-86.5 426,-86.5 426,-56.5 338,-56.5"/>
<text text-anchor="start" x="346" y="-74.5" font-family="Helvetica" font-size="10.00">boost/icl/interval</text>
<text text-anchor="middle" x="382" y="-63.5" font-family="Helvetica" font-size="10.00">_map.hpp</text>
</a>
</g>
</g>
<!-- Node14&#45;&gt;Node17 -->
<g id="edge21" class="edge">
<title>Node14&#45;&gt;Node17</title>
<path fill="none" stroke="midnightblue" d="M465,-123.4C450,-114.2 430.21,-102.07 413.73,-91.95"/>
<polygon fill="midnightblue" stroke="midnightblue" points="415.31,-88.82 404.96,-86.58 411.65,-94.79 415.31,-88.82"/>
</g>
<!-- Node18 -->
<g id="node18" class="node">
<title>Node18</title>
<g id="a_node18"><a xlink:title=" ">
<polygon fill="white" stroke="#bfbfbf" points="444,-56.5 444,-86.5 532,-86.5 532,-56.5 444,-56.5"/>
<text text-anchor="start" x="452" y="-74.5" font-family="Helvetica" font-size="10.00">boost/icl/interval</text>
<text text-anchor="middle" x="488" y="-63.5" font-family="Helvetica" font-size="10.00">_set.hpp</text>
</a>
</g>
</g>
<!-- Node14&#45;&gt;Node18 -->
<g id="edge22" class="edge">
<title>Node14&#45;&gt;Node18</title>
<path fill="none" stroke="midnightblue" d="M488,-123.4C488,-115.64 488,-105.81 488,-96.86"/>
<polygon fill="midnightblue" stroke="midnightblue" points="491.5,-96.58 488,-86.58 484.5,-96.58 491.5,-96.58"/>
</g>
<!-- Node19 -->
<g id="node19" class="node">
<title>Node19</title>
<g id="a_node19"><a xlink:href="logger_8hpp.html" target="_top" xlink:title=" ">
<polygon fill="white" stroke="black" points="764,-62 764,-81 900,-81 900,-62 764,-62"/>
<text text-anchor="middle" x="832" y="-69" font-family="Helvetica" font-size="10.00">vsomeip/internal/logger.hpp</text>
</a>
</g>
</g>
<!-- Node14&#45;&gt;Node19 -->
<g id="edge25" class="edge">
<title>Node14&#45;&gt;Node19</title>
<path fill="none" stroke="midnightblue" d="M539.5,-127.77C603.28,-115.72 711.49,-95.27 776.89,-82.91"/>
<polygon fill="midnightblue" stroke="midnightblue" points="777.83,-86.3 787.01,-81 776.53,-79.42 777.83,-86.3"/>
</g>
<!-- Node19&#45;&gt;Node15 -->
<g id="edge28" class="edge">
<title>Node19&#45;&gt;Node15</title>
<path fill="none" stroke="midnightblue" d="M799.52,-61.93C764.15,-52.55 705.66,-36.91 645.98,-20.24"/>
<polygon fill="midnightblue" stroke="midnightblue" points="646.57,-16.77 636,-17.44 644.69,-23.51 646.57,-16.77"/>
</g>
<!-- Node20 -->
<g id="node20" class="node">
<title>Node20</title>
<g id="a_node20"><a xlink:title=" ">
<polygon fill="white" stroke="#bfbfbf" points="922,-0.5 922,-19.5 968,-19.5 968,-0.5 922,-0.5"/>
<text text-anchor="middle" x="945" y="-7.5" font-family="Helvetica" font-size="10.00">chrono</text>
</a>
</g>
</g>
<!-- Node19&#45;&gt;Node20 -->
<g id="edge26" class="edge">
<title>Node19&#45;&gt;Node20</title>
<path fill="none" stroke="midnightblue" d="M848.19,-61.98C866.9,-52.12 897.92,-35.79 919.8,-24.27"/>
<polygon fill="midnightblue" stroke="midnightblue" points="921.62,-27.27 928.84,-19.51 918.36,-21.07 921.62,-27.27"/>
</g>
<!-- Node21 -->
<g id="node21" class="node">
<title>Node21</title>
<g id="a_node21"><a xlink:title=" ">
<polygon fill="white" stroke="#bfbfbf" points="986,-0.5 986,-19.5 1032,-19.5 1032,-0.5 986,-0.5"/>
<text text-anchor="middle" x="1009" y="-7.5" font-family="Helvetica" font-size="10.00">cstdint</text>
</a>
</g>
</g>
<!-- Node19&#45;&gt;Node21 -->
<g id="edge27" class="edge">
<title>Node19&#45;&gt;Node21</title>
<path fill="none" stroke="midnightblue" d="M857.36,-61.98C888.68,-51.45 942.02,-33.52 976.36,-21.97"/>
<polygon fill="midnightblue" stroke="midnightblue" points="977.58,-25.26 985.94,-18.75 975.35,-18.62 977.58,-25.26"/>
</g>
<!-- Node22 -->
<g id="node22" class="node">
<title>Node22</title>
<g id="a_node22"><a xlink:title=" ">
<polygon fill="white" stroke="#bfbfbf" points="1050,-0.5 1050,-19.5 1102,-19.5 1102,-0.5 1050,-0.5"/>
<text text-anchor="middle" x="1076" y="-7.5" font-family="Helvetica" font-size="10.00">ostream</text>
</a>
</g>
</g>
<!-- Node19&#45;&gt;Node22 -->
<g id="edge29" class="edge">
<title>Node19&#45;&gt;Node22</title>
<path fill="none" stroke="midnightblue" d="M867.91,-61.99C907.63,-52.54 973.76,-36.7 1039.88,-20.25"/>
<polygon fill="midnightblue" stroke="midnightblue" points="1040.78,-23.64 1049.64,-17.82 1039.09,-16.85 1040.78,-23.64"/>
</g>
<!-- Node23 -->
<g id="node23" class="node">
<title>Node23</title>
<g id="a_node23"><a xlink:title=" ">
<polygon fill="white" stroke="#bfbfbf" points="654,-0.5 654,-19.5 706,-19.5 706,-0.5 654,-0.5"/>
<text text-anchor="middle" x="680" y="-7.5" font-family="Helvetica" font-size="10.00">sstream</text>
</a>
</g>
</g>
<!-- Node19&#45;&gt;Node23 -->
<g id="edge30" class="edge">
<title>Node19&#45;&gt;Node23</title>
<path fill="none" stroke="midnightblue" d="M810.22,-61.98C784.26,-51.81 740.69,-34.76 711.17,-23.2"/>
<polygon fill="midnightblue" stroke="midnightblue" points="712.33,-19.9 701.74,-19.51 709.77,-26.41 712.33,-19.9"/>
</g>
<!-- Node24 -->
<g id="node24" class="node">
<title>Node24</title>
<g id="a_node24"><a xlink:title=" ">
<polygon fill="white" stroke="#bfbfbf" points="724,-0.5 724,-19.5 784,-19.5 784,-0.5 724,-0.5"/>
<text text-anchor="middle" x="754" y="-7.5" font-family="Helvetica" font-size="10.00">streambuf</text>
</a>
</g>
</g>
<!-- Node19&#45;&gt;Node24 -->
<g id="edge31" class="edge">
<title>Node19&#45;&gt;Node24</title>
<path fill="none" stroke="midnightblue" d="M820.82,-61.98C808.43,-52.52 788.21,-37.1 773.25,-25.69"/>
<polygon fill="midnightblue" stroke="midnightblue" points="775.23,-22.79 765.15,-19.51 770.98,-28.36 775.23,-22.79"/>
</g>
<!-- Node25 -->
<g id="node25" class="node">
<title>Node25</title>
<g id="a_node25"><a xlink:title=" ">
<polygon fill="white" stroke="#bfbfbf" points="802,-0.5 802,-19.5 904,-19.5 904,-0.5 802,-0.5"/>
<text text-anchor="middle" x="853" y="-7.5" font-family="Helvetica" font-size="10.00">vsomeip/export.hpp</text>
</a>
</g>
</g>
<!-- Node19&#45;&gt;Node25 -->
<g id="edge32" class="edge">
<title>Node19&#45;&gt;Node25</title>
<path fill="none" stroke="midnightblue" d="M835.01,-61.98C838.03,-53.4 842.79,-39.93 846.65,-28.98"/>
<polygon fill="midnightblue" stroke="midnightblue" points="849.97,-30.1 850,-19.51 843.37,-27.77 849.97,-30.1"/>
</g>
</g>
</svg>
