<?xml version="1.0" encoding="UTF-8" standalone="no"?>
<!DOCTYPE svg PUBLIC "-//W3C//DTD SVG 1.1//EN"
 "http://www.w3.org/Graphics/SVG/1.1/DTD/svg11.dtd">
<!-- Generated by graphviz version 2.44.0 (0)
 -->
<!-- Title: /home/ec2&#45;user/workspace/vsomeip/implementation/protocol/src/dummy_command.cpp Pages: 1 -->
<svg width="385pt" height="274pt"
 viewBox="0.00 0.00 384.50 274.00" xmlns="http://www.w3.org/2000/svg" xmlns:xlink="http://www.w3.org/1999/xlink">
<g id="graph0" class="graph" transform="scale(1 1) rotate(0) translate(4 270)">
<title>/home/ec2&#45;user/workspace/vsomeip/implementation/protocol/src/dummy_command.cpp</title>
<polygon fill="white" stroke="transparent" points="-4,4 -4,-270 380.5,-270 380.5,4 -4,4"/>
<!-- Node1 -->
<g id="node1" class="node">
<title>Node1</title>
<g id="a_node1"><a xlink:title=" ">
<polygon fill="#bfbfbf" stroke="black" points="0,-224.5 0,-265.5 173,-265.5 173,-224.5 0,-224.5"/>
<text text-anchor="start" x="8" y="-253.5" font-family="Helvetica" font-size="10.00">/home/ec2&#45;user/workspace</text>
<text text-anchor="start" x="8" y="-242.5" font-family="Helvetica" font-size="10.00">/vsomeip/implementation</text>
<text text-anchor="middle" x="86.5" y="-231.5" font-family="Helvetica" font-size="10.00">/protocol/src/dummy_command.cpp</text>
</a>
</g>
</g>
<!-- Node2 -->
<g id="node2" class="node">
<title>Node2</title>
<g id="a_node2"><a xlink:title=" ">
<polygon fill="white" stroke="#bfbfbf" points="8.5,-168.5 8.5,-187.5 48.5,-187.5 48.5,-168.5 8.5,-168.5"/>
<text text-anchor="middle" x="28.5" y="-175.5" font-family="Helvetica" font-size="10.00">limits</text>
</a>
</g>
</g>
<!-- Node1&#45;&gt;Node2 -->
<g id="edge1" class="edge">
<title>Node1&#45;&gt;Node2</title>
<path fill="none" stroke="midnightblue" d="M69.1,-224.5C60.8,-215.2 50.99,-204.21 43.1,-195.36"/>
<polygon fill="midnightblue" stroke="midnightblue" points="45.49,-192.78 36.22,-187.65 40.27,-197.44 45.49,-192.78"/>
</g>
<!-- Node3 -->
<g id="node3" class="node">
<title>Node3</title>
<g id="a_node3"><a xlink:href="dummy__command_8hpp.html" target="_top" xlink:title=" ">
<polygon fill="white" stroke="black" points="66.5,-168.5 66.5,-187.5 224.5,-187.5 224.5,-168.5 66.5,-168.5"/>
<text text-anchor="middle" x="145.5" y="-175.5" font-family="Helvetica" font-size="10.00">../include/dummy_command.hpp</text>
</a>
</g>
</g>
<!-- Node1&#45;&gt;Node3 -->
<g id="edge2" class="edge">
<title>Node1&#45;&gt;Node3</title>
<path fill="none" stroke="midnightblue" d="M104.2,-224.5C112.73,-215.11 122.82,-203.98 130.9,-195.08"/>
<polygon fill="midnightblue" stroke="midnightblue" points="133.52,-197.41 137.65,-187.65 128.33,-192.7 133.52,-197.41"/>
</g>
<!-- Node4 -->
<g id="node4" class="node">
<title>Node4</title>
<g id="a_node4"><a xlink:href="command_8hpp.html" target="_top" xlink:title=" ">
<polygon fill="white" stroke="black" points="106.5,-112.5 106.5,-131.5 184.5,-131.5 184.5,-112.5 106.5,-112.5"/>
<text text-anchor="middle" x="145.5" y="-119.5" font-family="Helvetica" font-size="10.00">command.hpp</text>
</a>
</g>
</g>
<!-- Node3&#45;&gt;Node4 -->
<g id="edge3" class="edge">
<title>Node3&#45;&gt;Node4</title>
<path fill="none" stroke="midnightblue" d="M145.5,-168.08C145.5,-161.01 145.5,-150.86 145.5,-141.99"/>
<polygon fill="midnightblue" stroke="midnightblue" points="149,-141.75 145.5,-131.75 142,-141.75 149,-141.75"/>
</g>
<!-- Node5 -->
<g id="node5" class="node">
<title>Node5</title>
<g id="a_node5"><a xlink:title=" ">
<polygon fill="white" stroke="#bfbfbf" points="34.5,-56.5 34.5,-75.5 80.5,-75.5 80.5,-56.5 34.5,-56.5"/>
<text text-anchor="middle" x="57.5" y="-63.5" font-family="Helvetica" font-size="10.00">cstring</text>
</a>
</g>
</g>
<!-- Node4&#45;&gt;Node5 -->
<g id="edge4" class="edge">
<title>Node4&#45;&gt;Node5</title>
<path fill="none" stroke="midnightblue" d="M131.36,-112.32C117.63,-103.9 96.56,-90.97 80.44,-81.07"/>
<polygon fill="midnightblue" stroke="midnightblue" points="81.96,-77.9 71.6,-75.65 78.3,-83.87 81.96,-77.9"/>
</g>
<!-- Node6 -->
<g id="node6" class="node">
<title>Node6</title>
<g id="a_node6"><a xlink:title=" ">
<polygon fill="white" stroke="#bfbfbf" points="99,-56.5 99,-75.5 142,-75.5 142,-56.5 99,-56.5"/>
<text text-anchor="middle" x="120.5" y="-63.5" font-family="Helvetica" font-size="10.00">vector</text>
</a>
</g>
</g>
<!-- Node4&#45;&gt;Node6 -->
<g id="edge5" class="edge">
<title>Node4&#45;&gt;Node6</title>
<path fill="none" stroke="midnightblue" d="M141.37,-112.08C137.99,-104.77 133.08,-94.18 128.88,-85.1"/>
<polygon fill="midnightblue" stroke="midnightblue" points="131.93,-83.36 124.55,-75.75 125.58,-86.3 131.93,-83.36"/>
</g>
<!-- Node7 -->
<g id="node7" class="node">
<title>Node7</title>
<g id="a_node7"><a xlink:title=" ">
<polygon fill="white" stroke="#bfbfbf" points="100.5,-0.5 100.5,-19.5 240.5,-19.5 240.5,-0.5 100.5,-0.5"/>
<text text-anchor="middle" x="170.5" y="-7.5" font-family="Helvetica" font-size="10.00">vsomeip/primitive_types.hpp</text>
</a>
</g>
</g>
<!-- Node4&#45;&gt;Node7 -->
<g id="edge6" class="edge">
<title>Node4&#45;&gt;Node7</title>
<path fill="none" stroke="midnightblue" d="M147.46,-112.37C151.5,-94.62 160.8,-53.67 166.27,-29.6"/>
<polygon fill="midnightblue" stroke="midnightblue" points="169.74,-30.12 168.55,-19.59 162.92,-28.57 169.74,-30.12"/>
</g>
<!-- Node8 -->
<g id="node8" class="node">
<title>Node8</title>
<g id="a_node8"><a xlink:href="protocol_8hpp.html" target="_top" xlink:title=" ">
<polygon fill="white" stroke="black" points="198.5,-56.5 198.5,-75.5 268.5,-75.5 268.5,-56.5 198.5,-56.5"/>
<text text-anchor="middle" x="233.5" y="-63.5" font-family="Helvetica" font-size="10.00">protocol.hpp</text>
</a>
</g>
</g>
<!-- Node4&#45;&gt;Node8 -->
<g id="edge7" class="edge">
<title>Node4&#45;&gt;Node8</title>
<path fill="none" stroke="midnightblue" d="M159.64,-112.32C173.37,-103.9 194.44,-90.97 210.56,-81.07"/>
<polygon fill="midnightblue" stroke="midnightblue" points="212.7,-83.87 219.4,-75.65 209.04,-77.9 212.7,-83.87"/>
</g>
<!-- Node8&#45;&gt;Node7 -->
<g id="edge9" class="edge">
<title>Node8&#45;&gt;Node7</title>
<path fill="none" stroke="midnightblue" d="M223.38,-56.32C213.97,-48.26 199.76,-36.08 188.43,-26.37"/>
<polygon fill="midnightblue" stroke="midnightblue" points="190.68,-23.68 180.81,-19.83 186.12,-29 190.68,-23.68"/>
</g>
<!-- Node9 -->
<g id="node9" class="node">
<title>Node9</title>
<g id="a_node9"><a xlink:title=" ">
<polygon fill="white" stroke="#bfbfbf" points="258.5,-0.5 258.5,-19.5 376.5,-19.5 376.5,-0.5 258.5,-0.5"/>
<text text-anchor="middle" x="317.5" y="-7.5" font-family="Helvetica" font-size="10.00">vsomeip/constants.hpp</text>
</a>
</g>
</g>
<!-- Node8&#45;&gt;Node9 -->
<g id="edge8" class="edge">
<title>Node8&#45;&gt;Node9</title>
<path fill="none" stroke="midnightblue" d="M247,-56.32C260.1,-47.9 280.21,-34.97 295.61,-25.07"/>
<polygon fill="midnightblue" stroke="midnightblue" points="297.52,-28.01 304.04,-19.65 293.73,-22.12 297.52,-28.01"/>
</g>
</g>
</svg>
