<?xml version="1.0" encoding="UTF-8" standalone="no"?>
<!DOCTYPE svg PUBLIC "-//W3C//DTD SVG 1.1//EN"
 "http://www.w3.org/Graphics/SVG/1.1/DTD/svg11.dtd">
<!-- Generated by graphviz version 2.44.0 (0)
 -->
<!-- Title: /home/ec2&#45;user/workspace/vsomeip/implementation/e2e_protection/include/e2e/profile/e2e_provider_impl.hpp Pages: 1 -->
<svg width="861pt" height="396pt"
 viewBox="0.00 0.00 861.17 396.00" xmlns="http://www.w3.org/2000/svg" xmlns:xlink="http://www.w3.org/1999/xlink">
<g id="graph0" class="graph" transform="scale(1 1) rotate(0) translate(4 392)">
<title>/home/ec2&#45;user/workspace/vsomeip/implementation/e2e_protection/include/e2e/profile/e2e_provider_impl.hpp</title>
<polygon fill="white" stroke="transparent" points="-4,4 -4,-392 857.17,-392 857.17,4 -4,4"/>
<!-- Node1 -->
<g id="node1" class="node">
<title>Node1</title>
<g id="a_node1"><a xlink:title=" ">
<polygon fill="#bfbfbf" stroke="black" points="359.67,-324.5 359.67,-387.5 493.67,-387.5 493.67,-324.5 359.67,-324.5"/>
<text text-anchor="start" x="367.67" y="-375.5" font-family="Helvetica" font-size="10.00">/home/ec2&#45;user/workspace</text>
<text text-anchor="start" x="367.67" y="-364.5" font-family="Helvetica" font-size="10.00">/vsomeip/implementation</text>
<text text-anchor="start" x="367.67" y="-353.5" font-family="Helvetica" font-size="10.00">/e2e_protection/include</text>
<text text-anchor="start" x="367.67" y="-342.5" font-family="Helvetica" font-size="10.00">/e2e/profile/e2e_provider</text>
<text text-anchor="middle" x="426.67" y="-331.5" font-family="Helvetica" font-size="10.00">_impl.hpp</text>
</a>
</g>
</g>
<!-- Node2 -->
<g id="node2" class="node">
<title>Node2</title>
<g id="a_node2"><a xlink:title=" ">
<polygon fill="white" stroke="#bfbfbf" points="332.17,-129 332.17,-148 367.17,-148 367.17,-129 332.17,-129"/>
<text text-anchor="middle" x="349.67" y="-136" font-family="Helvetica" font-size="10.00">map</text>
</a>
</g>
</g>
<!-- Node1&#45;&gt;Node2 -->
<g id="edge1" class="edge">
<title>Node1&#45;&gt;Node2</title>
<path fill="none" stroke="midnightblue" d="M396.27,-324.24C387.32,-313.56 378.41,-300.98 372.67,-288 353.49,-244.58 349.96,-187.88 349.52,-158.7"/>
<polygon fill="midnightblue" stroke="midnightblue" points="353.02,-158.3 349.48,-148.31 346.02,-158.32 353.02,-158.3"/>
</g>
<!-- Node3 -->
<g id="node3" class="node">
<title>Node3</title>
<g id="a_node3"><a xlink:title=" ">
<polygon fill="white" stroke="#bfbfbf" points="67.17,-129 67.17,-148 120.17,-148 120.17,-129 67.17,-129"/>
<text text-anchor="middle" x="93.67" y="-136" font-family="Helvetica" font-size="10.00">memory</text>
</a>
</g>
</g>
<!-- Node1&#45;&gt;Node3 -->
<g id="edge2" class="edge">
<title>Node1&#45;&gt;Node3</title>
<path fill="none" stroke="midnightblue" d="M359.49,-343.7C251.36,-323.95 46.64,-279.63 5.67,-221 -2.22,-209.71 -1.23,-201.92 5.67,-190 16.85,-170.7 38.49,-158.14 57.52,-150.37"/>
<polygon fill="midnightblue" stroke="midnightblue" points="58.76,-153.64 66.88,-146.83 56.28,-147.1 58.76,-153.64"/>
</g>
<!-- Node4 -->
<g id="node4" class="node">
<title>Node4</title>
<g id="a_node4"><a xlink:href="e2e__provider_8hpp.html" target="_top" xlink:title=" ">
<polygon fill="white" stroke="black" points="381.17,-263 381.17,-282 472.17,-282 472.17,-263 381.17,-263"/>
<text text-anchor="middle" x="426.67" y="-270" font-family="Helvetica" font-size="10.00">e2e_provider.hpp</text>
</a>
</g>
</g>
<!-- Node1&#45;&gt;Node4 -->
<g id="edge3" class="edge">
<title>Node1&#45;&gt;Node4</title>
<path fill="none" stroke="midnightblue" d="M426.67,-324.19C426.67,-313.55 426.67,-301.95 426.67,-292.53"/>
<polygon fill="midnightblue" stroke="midnightblue" points="430.17,-292.34 426.67,-282.34 423.17,-292.34 430.17,-292.34"/>
</g>
<!-- Node13 -->
<g id="node13" class="node">
<title>Node13</title>
<g id="a_node13"><a xlink:href="profile__interface_2checker_8hpp.html" target="_top" xlink:title=" ">
<polygon fill="white" stroke="black" points="599.67,-123.5 599.67,-153.5 715.67,-153.5 715.67,-123.5 599.67,-123.5"/>
<text text-anchor="start" x="607.67" y="-141.5" font-family="Helvetica" font-size="10.00">../e2e/profile/profile</text>
<text text-anchor="middle" x="657.67" y="-130.5" font-family="Helvetica" font-size="10.00">_interface/checker.hpp</text>
</a>
</g>
</g>
<!-- Node1&#45;&gt;Node13 -->
<g id="edge31" class="edge">
<title>Node1&#45;&gt;Node13</title>
<path fill="none" stroke="midnightblue" d="M469.8,-324.24C484.43,-313.27 500.62,-300.51 514.67,-288 561.83,-246.01 611.9,-191.37 638.48,-161.46"/>
<polygon fill="midnightblue" stroke="midnightblue" points="641.33,-163.52 645.33,-153.71 636.08,-158.88 641.33,-163.52"/>
</g>
<!-- Node16 -->
<g id="node16" class="node">
<title>Node16</title>
<g id="a_node16"><a xlink:href="profile__interface_2protector_8hpp.html" target="_top" xlink:title=" ">
<polygon fill="white" stroke="black" points="461.67,-123.5 461.67,-153.5 581.67,-153.5 581.67,-123.5 461.67,-123.5"/>
<text text-anchor="start" x="469.67" y="-141.5" font-family="Helvetica" font-size="10.00">../e2e/profile/profile</text>
<text text-anchor="middle" x="521.67" y="-130.5" font-family="Helvetica" font-size="10.00">_interface/protector.hpp</text>
</a>
</g>
</g>
<!-- Node1&#45;&gt;Node16 -->
<g id="edge32" class="edge">
<title>Node1&#45;&gt;Node16</title>
<path fill="none" stroke="midnightblue" d="M459.35,-324.5C483.53,-299.42 514.32,-261.54 526.67,-221 532.37,-202.31 530.48,-180.13 527.53,-163.62"/>
<polygon fill="midnightblue" stroke="midnightblue" points="530.93,-162.79 525.5,-153.69 524.07,-164.19 530.93,-162.79"/>
</g>
<!-- Node18 -->
<g id="node18" class="node">
<title>Node18</title>
<g id="a_node18"><a xlink:href="vsomeip_2export_8hpp.html" target="_top" xlink:title=" ">
<polygon fill="white" stroke="black" points="748.17,-257.5 748.17,-287.5 853.17,-287.5 853.17,-257.5 748.17,-257.5"/>
<text text-anchor="start" x="756.17" y="-275.5" font-family="Helvetica" font-size="10.00">../../../../../interface</text>
<text text-anchor="middle" x="800.67" y="-264.5" font-family="Helvetica" font-size="10.00">/vsomeip/export.hpp</text>
</a>
</g>
</g>
<!-- Node1&#45;&gt;Node18 -->
<g id="edge33" class="edge">
<title>Node1&#45;&gt;Node18</title>
<path fill="none" stroke="midnightblue" d="M493.97,-340.34C563.28,-325.23 670.45,-301.88 738.01,-287.15"/>
<polygon fill="midnightblue" stroke="midnightblue" points="739.07,-290.51 748.09,-284.96 737.58,-283.67 739.07,-290.51"/>
</g>
<!-- Node19 -->
<g id="node19" class="node">
<title>Node19</title>
<g id="a_node19"><a xlink:href="vsomeip_2plugin_8hpp.html" target="_top" xlink:title=" ">
<polygon fill="white" stroke="black" points="14.67,-190.5 14.67,-220.5 118.67,-220.5 118.67,-190.5 14.67,-190.5"/>
<text text-anchor="start" x="22.67" y="-208.5" font-family="Helvetica" font-size="10.00">../../../../../interface</text>
<text text-anchor="middle" x="66.67" y="-197.5" font-family="Helvetica" font-size="10.00">/vsomeip/plugin.hpp</text>
</a>
</g>
</g>
<!-- Node1&#45;&gt;Node19 -->
<g id="edge34" class="edge">
<title>Node1&#45;&gt;Node19</title>
<path fill="none" stroke="midnightblue" d="M359.38,-327.24C286.55,-297.2 172.54,-250.17 110.49,-224.57"/>
<polygon fill="midnightblue" stroke="midnightblue" points="111.57,-221.23 100.99,-220.66 108.9,-227.7 111.57,-221.23"/>
</g>
<!-- Node4&#45;&gt;Node3 -->
<g id="edge5" class="edge">
<title>Node4&#45;&gt;Node3</title>
<path fill="none" stroke="midnightblue" d="M380.87,-269.15C330.18,-264.96 247.24,-253.32 183.67,-221 151.9,-204.84 122.83,-174.47 106.76,-155.71"/>
<polygon fill="midnightblue" stroke="midnightblue" points="109.42,-153.44 100.33,-148 104.05,-157.92 109.42,-153.44"/>
</g>
<!-- Node5 -->
<g id="node5" class="node">
<title>Node5</title>
<g id="a_node5"><a xlink:title=" ">
<polygon fill="white" stroke="#bfbfbf" points="164.17,-129 164.17,-148 205.17,-148 205.17,-129 164.17,-129"/>
<text text-anchor="middle" x="184.67" y="-136" font-family="Helvetica" font-size="10.00">string</text>
</a>
</g>
</g>
<!-- Node4&#45;&gt;Node5 -->
<g id="edge4" class="edge">
<title>Node4&#45;&gt;Node5</title>
<path fill="none" stroke="midnightblue" d="M380.73,-266.83C322.93,-260.01 228.24,-245.41 203.67,-221 187.12,-204.55 183.86,-176.65 183.73,-158.15"/>
<polygon fill="midnightblue" stroke="midnightblue" points="187.23,-158.11 183.96,-148.03 180.23,-157.95 187.23,-158.11"/>
</g>
<!-- Node6 -->
<g id="node6" class="node">
<title>Node6</title>
<g id="a_node6"><a xlink:href="e2e__protection_2include_2buffer_2buffer_8hpp.html" target="_top" xlink:title=" ">
<polygon fill="white" stroke="black" points="663.67,-62 663.67,-81 767.67,-81 767.67,-62 663.67,-62"/>
<text text-anchor="middle" x="715.67" y="-69" font-family="Helvetica" font-size="10.00">../../buffer/buffer.hpp</text>
</a>
</g>
</g>
<!-- Node4&#45;&gt;Node6 -->
<g id="edge6" class="edge">
<title>Node4&#45;&gt;Node6</title>
<path fill="none" stroke="midnightblue" d="M472.42,-268.72C540.78,-261.83 667.64,-237.79 724.67,-154 737.34,-135.39 730.92,-108.66 724.16,-90.95"/>
<polygon fill="midnightblue" stroke="midnightblue" points="727.18,-89.11 720.08,-81.25 720.73,-91.82 727.18,-89.11"/>
</g>
<!-- Node11 -->
<g id="node11" class="node">
<title>Node11</title>
<g id="a_node11"><a xlink:href="config_8hpp.html" target="_top" xlink:title=" ">
<polygon fill="white" stroke="black" points="377.17,-196 377.17,-215 484.17,-215 484.17,-196 377.17,-196"/>
<text text-anchor="middle" x="430.67" y="-203" font-family="Helvetica" font-size="10.00">../../e2exf/config.hpp</text>
</a>
</g>
</g>
<!-- Node4&#45;&gt;Node11 -->
<g id="edge11" class="edge">
<title>Node4&#45;&gt;Node11</title>
<path fill="none" stroke="midnightblue" d="M427.21,-262.73C427.8,-253.18 428.76,-237.62 429.52,-225.28"/>
<polygon fill="midnightblue" stroke="midnightblue" points="433.02,-225.32 430.14,-215.13 426.03,-224.89 433.02,-225.32"/>
</g>
<!-- Node15 -->
<g id="node15" class="node">
<title>Node15</title>
<g id="a_node15"><a xlink:href="profile__interface_8hpp.html" target="_top" xlink:title=" ">
<polygon fill="white" stroke="black" points="475.67,-56.5 475.67,-86.5 583.67,-86.5 583.67,-56.5 475.67,-56.5"/>
<text text-anchor="start" x="483.67" y="-74.5" font-family="Helvetica" font-size="10.00">../profile_interface</text>
<text text-anchor="middle" x="529.67" y="-63.5" font-family="Helvetica" font-size="10.00">/profile_interface.hpp</text>
</a>
</g>
</g>
<!-- Node4&#45;&gt;Node15 -->
<g id="edge30" class="edge">
<title>Node4&#45;&gt;Node15</title>
<path fill="none" stroke="midnightblue" d="M446.29,-262.92C462.31,-254.72 483.86,-240.68 493.67,-221 499.82,-208.67 499.35,-202.55 493.67,-190 483.67,-167.91 462.67,-176.09 452.67,-154 446.99,-141.45 446.13,-135.12 452.67,-123 459.83,-109.74 472.16,-99.4 484.87,-91.63"/>
<polygon fill="midnightblue" stroke="midnightblue" points="486.7,-94.62 493.68,-86.65 483.25,-88.52 486.7,-94.62"/>
</g>
<!-- Node17 -->
<g id="node17" class="node">
<title>Node17</title>
<g id="a_node17"><a xlink:href="e2e_8hpp.html" target="_top" xlink:title=" ">
<polygon fill="white" stroke="black" points="212.67,-190.5 212.67,-220.5 320.67,-220.5 320.67,-190.5 212.67,-190.5"/>
<text text-anchor="start" x="220.67" y="-208.5" font-family="Helvetica" font-size="10.00">../../../../configuration</text>
<text text-anchor="middle" x="266.67" y="-197.5" font-family="Helvetica" font-size="10.00">/include/e2e.hpp</text>
</a>
</g>
</g>
<!-- Node4&#45;&gt;Node17 -->
<g id="edge25" class="edge">
<title>Node4&#45;&gt;Node17</title>
<path fill="none" stroke="midnightblue" d="M405.43,-262.87C381.42,-253.12 341.67,-236.97 310.86,-224.45"/>
<polygon fill="midnightblue" stroke="midnightblue" points="311.78,-221.05 301.2,-220.53 309.15,-227.53 311.78,-221.05"/>
</g>
<!-- Node7 -->
<g id="node7" class="node">
<title>Node7</title>
<g id="a_node7"><a xlink:title=" ">
<polygon fill="white" stroke="#bfbfbf" points="649.17,-0.5 649.17,-19.5 708.17,-19.5 708.17,-0.5 649.17,-0.5"/>
<text text-anchor="middle" x="678.67" y="-7.5" font-family="Helvetica" font-size="10.00">stdexcept</text>
</a>
</g>
</g>
<!-- Node6&#45;&gt;Node7 -->
<g id="edge7" class="edge">
<title>Node6&#45;&gt;Node7</title>
<path fill="none" stroke="midnightblue" d="M710.37,-61.98C704.93,-53.23 696.31,-39.37 689.44,-28.31"/>
<polygon fill="midnightblue" stroke="midnightblue" points="692.22,-26.15 683.96,-19.51 686.27,-29.85 692.22,-26.15"/>
</g>
<!-- Node8 -->
<g id="node8" class="node">
<title>Node8</title>
<g id="a_node8"><a xlink:title=" ">
<polygon fill="white" stroke="#bfbfbf" points="545.67,-0.5 545.67,-19.5 591.67,-19.5 591.67,-0.5 545.67,-0.5"/>
<text text-anchor="middle" x="568.67" y="-7.5" font-family="Helvetica" font-size="10.00">cstdint</text>
</a>
</g>
</g>
<!-- Node6&#45;&gt;Node8 -->
<g id="edge8" class="edge">
<title>Node6&#45;&gt;Node8</title>
<path fill="none" stroke="midnightblue" d="M694.61,-61.98C669.61,-51.86 627.73,-34.9 599.19,-23.35"/>
<polygon fill="midnightblue" stroke="midnightblue" points="600.28,-20.02 589.69,-19.51 597.65,-26.51 600.28,-20.02"/>
</g>
<!-- Node9 -->
<g id="node9" class="node">
<title>Node9</title>
<g id="a_node9"><a xlink:title=" ">
<polygon fill="white" stroke="#bfbfbf" points="726.67,-0.5 726.67,-19.5 778.67,-19.5 778.67,-0.5 726.67,-0.5"/>
<text text-anchor="middle" x="752.67" y="-7.5" font-family="Helvetica" font-size="10.00">ostream</text>
</a>
</g>
</g>
<!-- Node6&#45;&gt;Node9 -->
<g id="edge9" class="edge">
<title>Node6&#45;&gt;Node9</title>
<path fill="none" stroke="midnightblue" d="M720.97,-61.98C726.41,-53.23 735.03,-39.37 741.91,-28.31"/>
<polygon fill="midnightblue" stroke="midnightblue" points="745.07,-29.85 747.38,-19.51 739.13,-26.15 745.07,-29.85"/>
</g>
<!-- Node10 -->
<g id="node10" class="node">
<title>Node10</title>
<g id="a_node10"><a xlink:title=" ">
<polygon fill="white" stroke="#bfbfbf" points="388.17,-0.5 388.17,-19.5 431.17,-19.5 431.17,-0.5 388.17,-0.5"/>
<text text-anchor="middle" x="409.67" y="-7.5" font-family="Helvetica" font-size="10.00">vector</text>
</a>
</g>
</g>
<!-- Node6&#45;&gt;Node10 -->
<g id="edge10" class="edge">
<title>Node6&#45;&gt;Node10</title>
<path fill="none" stroke="midnightblue" d="M681.22,-61.98C672.58,-59.94 663.3,-57.82 654.67,-56 578.51,-39.96 488.34,-24.23 441.5,-16.31"/>
<polygon fill="midnightblue" stroke="midnightblue" points="441.82,-12.81 431.38,-14.6 440.66,-19.71 441.82,-12.81"/>
</g>
<!-- Node11&#45;&gt;Node2 -->
<g id="edge24" class="edge">
<title>Node11&#45;&gt;Node2</title>
<path fill="none" stroke="midnightblue" d="M419.75,-195.73C406.63,-185.21 384.41,-167.38 368.51,-154.62"/>
<polygon fill="midnightblue" stroke="midnightblue" points="370.41,-151.66 360.42,-148.13 366.03,-157.12 370.41,-151.66"/>
</g>
<!-- Node11&#45;&gt;Node3 -->
<g id="edge23" class="edge">
<title>Node11&#45;&gt;Node3</title>
<path fill="none" stroke="midnightblue" d="M380.1,-195.96C324.82,-186.46 233.72,-170.28 155.67,-154 147.44,-152.28 138.63,-150.31 130.3,-148.37"/>
<polygon fill="midnightblue" stroke="midnightblue" points="131,-144.94 120.47,-146.06 129.4,-151.76 131,-144.94"/>
</g>
<!-- Node12 -->
<g id="node12" class="node">
<title>Node12</title>
<g id="a_node12"><a xlink:title=" ">
<polygon fill="white" stroke="#bfbfbf" points="317.67,-62 317.67,-81 457.67,-81 457.67,-62 317.67,-62"/>
<text text-anchor="middle" x="387.67" y="-69" font-family="Helvetica" font-size="10.00">vsomeip/primitive_types.hpp</text>
</a>
</g>
</g>
<!-- Node11&#45;&gt;Node12 -->
<g id="edge12" class="edge">
<title>Node11&#45;&gt;Node12</title>
<path fill="none" stroke="midnightblue" d="M427.85,-195.84C420.93,-174.58 402.97,-119.46 393.58,-90.65"/>
<polygon fill="midnightblue" stroke="midnightblue" points="396.87,-89.45 390.45,-81.02 390.22,-91.61 396.87,-89.45"/>
</g>
<!-- Node11&#45;&gt;Node13 -->
<g id="edge13" class="edge">
<title>Node11&#45;&gt;Node13</title>
<path fill="none" stroke="midnightblue" d="M460.82,-195.87C495.91,-185.82 554.7,-168.99 598.92,-156.32"/>
<polygon fill="midnightblue" stroke="midnightblue" points="600.03,-159.65 608.68,-153.53 598.1,-152.92 600.03,-159.65"/>
</g>
<!-- Node11&#45;&gt;Node16 -->
<g id="edge19" class="edge">
<title>Node11&#45;&gt;Node16</title>
<path fill="none" stroke="midnightblue" d="M442.94,-195.73C455.83,-186.53 476.55,-171.73 493.49,-159.63"/>
<polygon fill="midnightblue" stroke="midnightblue" points="495.84,-162.25 501.95,-153.59 491.78,-156.55 495.84,-162.25"/>
</g>
<!-- Node13&#45;&gt;Node6 -->
<g id="edge18" class="edge">
<title>Node13&#45;&gt;Node6</title>
<path fill="none" stroke="midnightblue" d="M670.26,-123.4C679.3,-113.26 691.52,-99.57 701.01,-88.94"/>
<polygon fill="midnightblue" stroke="midnightblue" points="703.87,-90.99 707.91,-81.19 698.64,-86.33 703.87,-90.99"/>
</g>
<!-- Node13&#45;&gt;Node12 -->
<g id="edge15" class="edge">
<title>Node13&#45;&gt;Node12</title>
<path fill="none" stroke="midnightblue" d="M599.42,-123.48C549.55,-111.47 478.76,-94.43 433.03,-83.42"/>
<polygon fill="midnightblue" stroke="midnightblue" points="433.64,-79.97 423.1,-81.03 432,-86.77 433.64,-79.97"/>
</g>
<!-- Node14 -->
<g id="node14" class="node">
<title>Node14</title>
<g id="a_node14"><a xlink:title=" ">
<polygon fill="white" stroke="#bfbfbf" points="601.67,-62 601.67,-81 645.67,-81 645.67,-62 601.67,-62"/>
<text text-anchor="middle" x="623.67" y="-69" font-family="Helvetica" font-size="10.00">mutex</text>
</a>
</g>
</g>
<!-- Node13&#45;&gt;Node14 -->
<g id="edge14" class="edge">
<title>Node13&#45;&gt;Node14</title>
<path fill="none" stroke="midnightblue" d="M650.29,-123.4C645.2,-113.66 638.39,-100.65 632.94,-90.21"/>
<polygon fill="midnightblue" stroke="midnightblue" points="635.96,-88.43 628.22,-81.19 629.75,-91.68 635.96,-88.43"/>
</g>
<!-- Node13&#45;&gt;Node15 -->
<g id="edge16" class="edge">
<title>Node13&#45;&gt;Node15</title>
<path fill="none" stroke="midnightblue" d="M629.9,-123.4C611.28,-113.94 586.56,-101.39 566.33,-91.12"/>
<polygon fill="midnightblue" stroke="midnightblue" points="567.89,-87.98 557.39,-86.58 564.72,-94.23 567.89,-87.98"/>
</g>
<!-- Node15&#45;&gt;Node8 -->
<g id="edge17" class="edge">
<title>Node15&#45;&gt;Node8</title>
<path fill="none" stroke="midnightblue" d="M538.91,-56.4C544.46,-47.93 551.57,-37.1 557.44,-28.14"/>
<polygon fill="midnightblue" stroke="midnightblue" points="560.44,-29.94 563,-19.66 554.59,-26.1 560.44,-29.94"/>
</g>
<!-- Node16&#45;&gt;Node6 -->
<g id="edge21" class="edge">
<title>Node16&#45;&gt;Node6</title>
<path fill="none" stroke="midnightblue" d="M563.77,-123.4C598.71,-111.69 647.83,-95.23 680.65,-84.23"/>
<polygon fill="midnightblue" stroke="midnightblue" points="681.91,-87.5 690.28,-81.01 679.69,-80.87 681.91,-87.5"/>
</g>
<!-- Node16&#45;&gt;Node12 -->
<g id="edge20" class="edge">
<title>Node16&#45;&gt;Node12</title>
<path fill="none" stroke="midnightblue" d="M492.6,-123.4C469.29,-112.09 436.86,-96.36 414.25,-85.39"/>
<polygon fill="midnightblue" stroke="midnightblue" points="415.73,-82.22 405.21,-81.01 412.68,-88.52 415.73,-82.22"/>
</g>
<!-- Node16&#45;&gt;Node15 -->
<g id="edge22" class="edge">
<title>Node16&#45;&gt;Node15</title>
<path fill="none" stroke="midnightblue" d="M523.41,-123.4C524.37,-115.56 525.6,-105.6 526.71,-96.57"/>
<polygon fill="midnightblue" stroke="midnightblue" points="530.19,-96.93 527.94,-86.58 523.24,-96.07 530.19,-96.93"/>
</g>
<!-- Node17&#45;&gt;Node2 -->
<g id="edge26" class="edge">
<title>Node17&#45;&gt;Node2</title>
<path fill="none" stroke="midnightblue" d="M284.68,-190.4C298.26,-179.76 316.85,-165.2 330.67,-154.38"/>
<polygon fill="midnightblue" stroke="midnightblue" points="332.85,-157.12 338.57,-148.19 328.54,-151.6 332.85,-157.12"/>
</g>
<!-- Node17&#45;&gt;Node5 -->
<g id="edge27" class="edge">
<title>Node17&#45;&gt;Node5</title>
<path fill="none" stroke="midnightblue" d="M248.88,-190.4C235.59,-179.86 217.44,-165.48 203.83,-154.69"/>
<polygon fill="midnightblue" stroke="midnightblue" points="205.65,-151.66 195.64,-148.19 201.3,-157.15 205.65,-151.66"/>
</g>
<!-- Node17&#45;&gt;Node10 -->
<g id="edge28" class="edge">
<title>Node17&#45;&gt;Node10</title>
<path fill="none" stroke="midnightblue" d="M266.85,-190.39C267.94,-161.66 274.3,-95.7 308.67,-56 326.54,-35.36 355.73,-23.77 378.14,-17.54"/>
<polygon fill="midnightblue" stroke="midnightblue" points="379.08,-20.91 387.9,-15.04 377.34,-14.13 379.08,-20.91"/>
</g>
<!-- Node17&#45;&gt;Node12 -->
<g id="edge29" class="edge">
<title>Node17&#45;&gt;Node12</title>
<path fill="none" stroke="midnightblue" d="M274.83,-190.31C285,-173.28 303.52,-144.35 323.67,-123 336.54,-109.37 353.22,-96.33 366.33,-86.91"/>
<polygon fill="midnightblue" stroke="midnightblue" points="368.56,-89.62 374.74,-81.01 364.54,-83.89 368.56,-89.62"/>
</g>
<!-- Node19&#45;&gt;Node3 -->
<g id="edge35" class="edge">
<title>Node19&#45;&gt;Node3</title>
<path fill="none" stroke="midnightblue" d="M72.53,-190.4C76.53,-180.76 81.87,-167.91 86.18,-157.54"/>
<polygon fill="midnightblue" stroke="midnightblue" points="89.46,-158.77 90.06,-148.19 82.99,-156.09 89.46,-158.77"/>
</g>
<!-- Node19&#45;&gt;Node5 -->
<g id="edge36" class="edge">
<title>Node19&#45;&gt;Node5</title>
<path fill="none" stroke="midnightblue" d="M92.28,-190.4C112.52,-179.24 140.59,-163.78 160.47,-152.83"/>
<polygon fill="midnightblue" stroke="midnightblue" points="162.16,-155.9 169.23,-148.01 158.78,-149.77 162.16,-155.9"/>
</g>
</g>
</svg>
