<?xml version="1.0" encoding="UTF-8" standalone="no"?>
<!DOCTYPE svg PUBLIC "-//W3C//DTD SVG 1.1//EN"
 "http://www.w3.org/Graphics/SVG/1.1/DTD/svg11.dtd">
<!-- Generated by graphviz version 2.44.0 (0)
 -->
<!-- Title: /home/ec2&#45;user/workspace/vsomeip/implementation/e2e_protection/include/e2e/profile/e2e_provider.hpp Pages: 1 -->
<svg width="577pt" height="318pt"
 viewBox="0.00 0.00 576.81 318.00" xmlns="http://www.w3.org/2000/svg" xmlns:xlink="http://www.w3.org/1999/xlink">
<g id="graph0" class="graph" transform="scale(1 1) rotate(0) translate(4 314)">
<title>/home/ec2&#45;user/workspace/vsomeip/implementation/e2e_protection/include/e2e/profile/e2e_provider.hpp</title>
<polygon fill="white" stroke="transparent" points="-4,4 -4,-314 572.81,-314 572.81,4 -4,4"/>
<!-- Node1 -->
<g id="node1" class="node">
<title>Node1</title>
<g id="a_node1"><a xlink:title=" ">
<polygon fill="#bfbfbf" stroke="black" points="77.81,-257.5 77.81,-309.5 219.81,-309.5 219.81,-257.5 77.81,-257.5"/>
<text text-anchor="start" x="85.81" y="-297.5" font-family="Helvetica" font-size="10.00">/home/ec2&#45;user/workspace</text>
<text text-anchor="start" x="85.81" y="-286.5" font-family="Helvetica" font-size="10.00">/vsomeip/implementation</text>
<text text-anchor="start" x="85.81" y="-275.5" font-family="Helvetica" font-size="10.00">/e2e_protection/include</text>
<text text-anchor="middle" x="148.81" y="-264.5" font-family="Helvetica" font-size="10.00">/e2e/profile/e2e_provider.hpp</text>
</a>
</g>
</g>
<!-- Node2 -->
<g id="node2" class="node">
<title>Node2</title>
<g id="a_node2"><a xlink:title=" ">
<polygon fill="white" stroke="#bfbfbf" points="494.31,-129 494.31,-148 535.31,-148 535.31,-129 494.31,-129"/>
<text text-anchor="middle" x="514.81" y="-136" font-family="Helvetica" font-size="10.00">string</text>
</a>
</g>
</g>
<!-- Node1&#45;&gt;Node2 -->
<g id="edge1" class="edge">
<title>Node1&#45;&gt;Node2</title>
<path fill="none" stroke="midnightblue" d="M219.99,-257.69C288.77,-233.17 395.52,-193.67 485.81,-154 486.97,-153.49 488.15,-152.96 489.34,-152.41"/>
<polygon fill="midnightblue" stroke="midnightblue" points="490.89,-155.55 498.38,-148.07 487.86,-149.24 490.89,-155.55"/>
</g>
<!-- Node3 -->
<g id="node3" class="node">
<title>Node3</title>
<g id="a_node3"><a xlink:title=" ">
<polygon fill="white" stroke="#bfbfbf" points="59.31,-129 59.31,-148 112.31,-148 112.31,-129 59.31,-129"/>
<text text-anchor="middle" x="85.81" y="-136" font-family="Helvetica" font-size="10.00">memory</text>
</a>
</g>
</g>
<!-- Node1&#45;&gt;Node3 -->
<g id="edge2" class="edge">
<title>Node1&#45;&gt;Node3</title>
<path fill="none" stroke="midnightblue" d="M137.69,-257.26C125.08,-228.64 104.84,-182.68 93.73,-157.47"/>
<polygon fill="midnightblue" stroke="midnightblue" points="96.82,-155.79 89.58,-148.05 90.41,-158.62 96.82,-155.79"/>
</g>
<!-- Node4 -->
<g id="node4" class="node">
<title>Node4</title>
<g id="a_node4"><a xlink:href="e2e__protection_2include_2buffer_2buffer_8hpp.html" target="_top" xlink:title=" ">
<polygon fill="white" stroke="black" points="44.81,-62 44.81,-81 148.81,-81 148.81,-62 44.81,-62"/>
<text text-anchor="middle" x="96.81" y="-69" font-family="Helvetica" font-size="10.00">../../buffer/buffer.hpp</text>
</a>
</g>
</g>
<!-- Node1&#45;&gt;Node4 -->
<g id="edge3" class="edge">
<title>Node1&#45;&gt;Node4</title>
<path fill="none" stroke="midnightblue" d="M77.68,-265.98C54.21,-256.79 30.6,-242.64 16.81,-221 -6.6,-184.27 -4.22,-161.14 16.81,-123 26.36,-105.69 44.62,-93.49 61.28,-85.42"/>
<polygon fill="midnightblue" stroke="midnightblue" points="63.14,-88.43 70.83,-81.15 60.27,-82.04 63.14,-88.43"/>
</g>
<!-- Node9 -->
<g id="node9" class="node">
<title>Node9</title>
<g id="a_node9"><a xlink:href="config_8hpp.html" target="_top" xlink:title=" ">
<polygon fill="white" stroke="black" points="177.31,-196 177.31,-215 284.31,-215 284.31,-196 177.31,-196"/>
<text text-anchor="middle" x="230.81" y="-203" font-family="Helvetica" font-size="10.00">../../e2exf/config.hpp</text>
</a>
</g>
</g>
<!-- Node1&#45;&gt;Node9 -->
<g id="edge8" class="edge">
<title>Node1&#45;&gt;Node9</title>
<path fill="none" stroke="midnightblue" d="M176.12,-257.19C188.59,-245.63 202.98,-232.3 213.86,-222.21"/>
<polygon fill="midnightblue" stroke="midnightblue" points="216.46,-224.57 221.42,-215.21 211.7,-219.44 216.46,-224.57"/>
</g>
<!-- Node13 -->
<g id="node13" class="node">
<title>Node13</title>
<g id="a_node13"><a xlink:href="profile__interface_8hpp.html" target="_top" xlink:title=" ">
<polygon fill="white" stroke="black" points="166.81,-56.5 166.81,-86.5 274.81,-86.5 274.81,-56.5 166.81,-56.5"/>
<text text-anchor="start" x="174.81" y="-74.5" font-family="Helvetica" font-size="10.00">../profile_interface</text>
<text text-anchor="middle" x="220.81" y="-63.5" font-family="Helvetica" font-size="10.00">/profile_interface.hpp</text>
</a>
</g>
</g>
<!-- Node1&#45;&gt;Node13 -->
<g id="edge27" class="edge">
<title>Node1&#45;&gt;Node13</title>
<path fill="none" stroke="midnightblue" d="M113.7,-257.32C73.14,-225.13 16.06,-168.16 49.81,-123 56.57,-113.96 111.1,-98.84 156.79,-87.49"/>
<polygon fill="midnightblue" stroke="midnightblue" points="157.81,-90.85 166.68,-85.06 156.14,-84.05 157.81,-90.85"/>
</g>
<!-- Node16 -->
<g id="node16" class="node">
<title>Node16</title>
<g id="a_node16"><a xlink:href="e2e_8hpp.html" target="_top" xlink:title=" ">
<polygon fill="white" stroke="black" points="460.81,-190.5 460.81,-220.5 568.81,-220.5 568.81,-190.5 460.81,-190.5"/>
<text text-anchor="start" x="468.81" y="-208.5" font-family="Helvetica" font-size="10.00">../../../../configuration</text>
<text text-anchor="middle" x="514.81" y="-197.5" font-family="Helvetica" font-size="10.00">/include/e2e.hpp</text>
</a>
</g>
</g>
<!-- Node1&#45;&gt;Node16 -->
<g id="edge22" class="edge">
<title>Node1&#45;&gt;Node16</title>
<path fill="none" stroke="midnightblue" d="M219.82,-267.76C286.71,-253.87 386.04,-233.24 450.62,-219.83"/>
<polygon fill="midnightblue" stroke="midnightblue" points="451.59,-223.2 460.67,-217.74 450.17,-216.35 451.59,-223.2"/>
</g>
<!-- Node5 -->
<g id="node5" class="node">
<title>Node5</title>
<g id="a_node5"><a xlink:title=" ">
<polygon fill="white" stroke="#bfbfbf" points="8.31,-0.5 8.31,-19.5 67.31,-19.5 67.31,-0.5 8.31,-0.5"/>
<text text-anchor="middle" x="37.81" y="-7.5" font-family="Helvetica" font-size="10.00">stdexcept</text>
</a>
</g>
</g>
<!-- Node4&#45;&gt;Node5 -->
<g id="edge4" class="edge">
<title>Node4&#45;&gt;Node5</title>
<path fill="none" stroke="midnightblue" d="M88.36,-61.98C79.25,-52.78 64.54,-37.96 53.34,-26.66"/>
<polygon fill="midnightblue" stroke="midnightblue" points="55.78,-24.15 46.25,-19.51 50.81,-29.07 55.78,-24.15"/>
</g>
<!-- Node6 -->
<g id="node6" class="node">
<title>Node6</title>
<g id="a_node6"><a xlink:title=" ">
<polygon fill="white" stroke="#bfbfbf" points="183.81,-0.5 183.81,-19.5 229.81,-19.5 229.81,-0.5 183.81,-0.5"/>
<text text-anchor="middle" x="206.81" y="-7.5" font-family="Helvetica" font-size="10.00">cstdint</text>
</a>
</g>
</g>
<!-- Node4&#45;&gt;Node6 -->
<g id="edge5" class="edge">
<title>Node4&#45;&gt;Node6</title>
<path fill="none" stroke="midnightblue" d="M112.57,-61.98C130.79,-52.12 160.99,-35.79 182.28,-24.27"/>
<polygon fill="midnightblue" stroke="midnightblue" points="183.95,-27.35 191.08,-19.51 180.62,-21.19 183.95,-27.35"/>
</g>
<!-- Node7 -->
<g id="node7" class="node">
<title>Node7</title>
<g id="a_node7"><a xlink:title=" ">
<polygon fill="white" stroke="#bfbfbf" points="85.81,-0.5 85.81,-19.5 137.81,-19.5 137.81,-0.5 85.81,-0.5"/>
<text text-anchor="middle" x="111.81" y="-7.5" font-family="Helvetica" font-size="10.00">ostream</text>
</a>
</g>
</g>
<!-- Node4&#45;&gt;Node7 -->
<g id="edge6" class="edge">
<title>Node4&#45;&gt;Node7</title>
<path fill="none" stroke="midnightblue" d="M98.96,-61.98C101.1,-53.49 104.45,-40.2 107.19,-29.32"/>
<polygon fill="midnightblue" stroke="midnightblue" points="110.62,-30.06 109.67,-19.51 103.83,-28.35 110.62,-30.06"/>
</g>
<!-- Node8 -->
<g id="node8" class="node">
<title>Node8</title>
<g id="a_node8"><a xlink:title=" ">
<polygon fill="white" stroke="#bfbfbf" points="413.31,-0.5 413.31,-19.5 456.31,-19.5 456.31,-0.5 413.31,-0.5"/>
<text text-anchor="middle" x="434.81" y="-7.5" font-family="Helvetica" font-size="10.00">vector</text>
</a>
</g>
</g>
<!-- Node4&#45;&gt;Node8 -->
<g id="edge7" class="edge">
<title>Node4&#45;&gt;Node8</title>
<path fill="none" stroke="midnightblue" d="M130.92,-61.93C139.66,-59.87 149.06,-57.75 157.81,-56 246.13,-38.35 351.33,-22.73 402.98,-15.41"/>
<polygon fill="midnightblue" stroke="midnightblue" points="403.75,-18.83 413.17,-13.97 402.78,-11.9 403.75,-18.83"/>
</g>
<!-- Node9&#45;&gt;Node3 -->
<g id="edge20" class="edge">
<title>Node9&#45;&gt;Node3</title>
<path fill="none" stroke="midnightblue" d="M211.56,-195.87C186.64,-184.7 143.02,-165.15 114.28,-152.26"/>
<polygon fill="midnightblue" stroke="midnightblue" points="115.7,-149.06 105.15,-148.17 112.84,-155.45 115.7,-149.06"/>
</g>
<!-- Node10 -->
<g id="node10" class="node">
<title>Node10</title>
<g id="a_node10"><a xlink:title=" ">
<polygon fill="white" stroke="#bfbfbf" points="354.81,-62 354.81,-81 494.81,-81 494.81,-62 354.81,-62"/>
<text text-anchor="middle" x="424.81" y="-69" font-family="Helvetica" font-size="10.00">vsomeip/primitive_types.hpp</text>
</a>
</g>
</g>
<!-- Node9&#45;&gt;Node10 -->
<g id="edge9" class="edge">
<title>Node9&#45;&gt;Node10</title>
<path fill="none" stroke="midnightblue" d="M284.55,-199.92C319.62,-194.29 364.22,-181.78 393.81,-154 411.45,-137.44 419.15,-109.79 422.44,-91.35"/>
<polygon fill="midnightblue" stroke="midnightblue" points="425.94,-91.66 423.97,-81.24 419.02,-90.61 425.94,-91.66"/>
</g>
<!-- Node11 -->
<g id="node11" class="node">
<title>Node11</title>
<g id="a_node11"><a xlink:href="profile__interface_2checker_8hpp.html" target="_top" xlink:title=" ">
<polygon fill="white" stroke="black" points="268.81,-123.5 268.81,-153.5 384.81,-153.5 384.81,-123.5 268.81,-123.5"/>
<text text-anchor="start" x="276.81" y="-141.5" font-family="Helvetica" font-size="10.00">../e2e/profile/profile</text>
<text text-anchor="middle" x="326.81" y="-130.5" font-family="Helvetica" font-size="10.00">_interface/checker.hpp</text>
</a>
</g>
</g>
<!-- Node9&#45;&gt;Node11 -->
<g id="edge10" class="edge">
<title>Node9&#45;&gt;Node11</title>
<path fill="none" stroke="midnightblue" d="M243.76,-195.73C257.48,-186.44 279.61,-171.46 297.57,-159.3"/>
<polygon fill="midnightblue" stroke="midnightblue" points="299.69,-162.09 306,-153.59 295.76,-156.3 299.69,-162.09"/>
</g>
<!-- Node14 -->
<g id="node14" class="node">
<title>Node14</title>
<g id="a_node14"><a xlink:href="profile__interface_2protector_8hpp.html" target="_top" xlink:title=" ">
<polygon fill="white" stroke="black" points="130.81,-123.5 130.81,-153.5 250.81,-153.5 250.81,-123.5 130.81,-123.5"/>
<text text-anchor="start" x="138.81" y="-141.5" font-family="Helvetica" font-size="10.00">../e2e/profile/profile</text>
<text text-anchor="middle" x="190.81" y="-130.5" font-family="Helvetica" font-size="10.00">_interface/protector.hpp</text>
</a>
</g>
</g>
<!-- Node9&#45;&gt;Node14 -->
<g id="edge16" class="edge">
<title>Node9&#45;&gt;Node14</title>
<path fill="none" stroke="midnightblue" d="M225.42,-195.73C220.17,-187.2 211.97,-173.87 204.86,-162.33"/>
<polygon fill="midnightblue" stroke="midnightblue" points="207.7,-160.27 199.48,-153.59 201.74,-163.94 207.7,-160.27"/>
</g>
<!-- Node15 -->
<g id="node15" class="node">
<title>Node15</title>
<g id="a_node15"><a xlink:title=" ">
<polygon fill="white" stroke="#bfbfbf" points="441.31,-129 441.31,-148 476.31,-148 476.31,-129 441.31,-129"/>
<text text-anchor="middle" x="458.81" y="-136" font-family="Helvetica" font-size="10.00">map</text>
</a>
</g>
</g>
<!-- Node9&#45;&gt;Node15 -->
<g id="edge21" class="edge">
<title>Node9&#45;&gt;Node15</title>
<path fill="none" stroke="midnightblue" d="M272.35,-195.99C312.46,-187.27 374.61,-172.39 426.81,-154 428.47,-153.41 430.17,-152.78 431.86,-152.11"/>
<polygon fill="midnightblue" stroke="midnightblue" points="433.6,-155.17 441.43,-148.03 430.86,-148.73 433.6,-155.17"/>
</g>
<!-- Node11&#45;&gt;Node4 -->
<g id="edge15" class="edge">
<title>Node11&#45;&gt;Node4</title>
<path fill="none" stroke="midnightblue" d="M277.19,-123.48C235.25,-111.62 175.93,-94.86 136.93,-83.84"/>
<polygon fill="midnightblue" stroke="midnightblue" points="137.57,-80.38 126.99,-81.03 135.66,-87.12 137.57,-80.38"/>
</g>
<!-- Node11&#45;&gt;Node10 -->
<g id="edge12" class="edge">
<title>Node11&#45;&gt;Node10</title>
<path fill="none" stroke="midnightblue" d="M348.08,-123.4C364.51,-112.5 387.15,-97.48 403.58,-86.58"/>
<polygon fill="midnightblue" stroke="midnightblue" points="405.59,-89.45 411.99,-81.01 401.72,-83.62 405.59,-89.45"/>
</g>
<!-- Node12 -->
<g id="node12" class="node">
<title>Node12</title>
<g id="a_node12"><a xlink:title=" ">
<polygon fill="white" stroke="#bfbfbf" points="292.81,-62 292.81,-81 336.81,-81 336.81,-62 292.81,-62"/>
<text text-anchor="middle" x="314.81" y="-69" font-family="Helvetica" font-size="10.00">mutex</text>
</a>
</g>
</g>
<!-- Node11&#45;&gt;Node12 -->
<g id="edge11" class="edge">
<title>Node11&#45;&gt;Node12</title>
<path fill="none" stroke="midnightblue" d="M324.21,-123.4C322.47,-113.96 320.16,-101.45 318.26,-91.19"/>
<polygon fill="midnightblue" stroke="midnightblue" points="321.68,-90.39 316.42,-81.19 314.79,-91.66 321.68,-90.39"/>
</g>
<!-- Node11&#45;&gt;Node13 -->
<g id="edge13" class="edge">
<title>Node11&#45;&gt;Node13</title>
<path fill="none" stroke="midnightblue" d="M303.81,-123.4C288.81,-114.2 269.03,-102.07 252.54,-91.95"/>
<polygon fill="midnightblue" stroke="midnightblue" points="254.12,-88.82 243.77,-86.58 250.46,-94.79 254.12,-88.82"/>
</g>
<!-- Node13&#45;&gt;Node6 -->
<g id="edge14" class="edge">
<title>Node13&#45;&gt;Node6</title>
<path fill="none" stroke="midnightblue" d="M217.49,-56.4C215.61,-48.38 213.22,-38.23 211.18,-29.57"/>
<polygon fill="midnightblue" stroke="midnightblue" points="214.55,-28.59 208.85,-19.66 207.73,-30.19 214.55,-28.59"/>
</g>
<!-- Node14&#45;&gt;Node4 -->
<g id="edge18" class="edge">
<title>Node14&#45;&gt;Node4</title>
<path fill="none" stroke="midnightblue" d="M170.42,-123.4C154.8,-112.6 133.34,-97.76 117.62,-86.89"/>
<polygon fill="midnightblue" stroke="midnightblue" points="119.33,-83.82 109.12,-81.01 115.35,-89.57 119.33,-83.82"/>
</g>
<!-- Node14&#45;&gt;Node10 -->
<g id="edge17" class="edge">
<title>Node14&#45;&gt;Node10</title>
<path fill="none" stroke="midnightblue" d="M241.3,-123.48C284.06,-111.6 344.58,-94.79 384.25,-83.77"/>
<polygon fill="midnightblue" stroke="midnightblue" points="385.41,-87.08 394.11,-81.03 383.54,-80.33 385.41,-87.08"/>
</g>
<!-- Node14&#45;&gt;Node13 -->
<g id="edge19" class="edge">
<title>Node14&#45;&gt;Node13</title>
<path fill="none" stroke="midnightblue" d="M197.32,-123.4C201.06,-115.3 205.84,-104.94 210.11,-95.69"/>
<polygon fill="midnightblue" stroke="midnightblue" points="213.3,-97.12 214.32,-86.58 206.95,-94.19 213.3,-97.12"/>
</g>
<!-- Node16&#45;&gt;Node2 -->
<g id="edge24" class="edge">
<title>Node16&#45;&gt;Node2</title>
<path fill="none" stroke="midnightblue" d="M514.81,-190.4C514.81,-181.06 514.81,-168.71 514.81,-158.52"/>
<polygon fill="midnightblue" stroke="midnightblue" points="518.31,-158.19 514.81,-148.19 511.31,-158.19 518.31,-158.19"/>
</g>
<!-- Node16&#45;&gt;Node8 -->
<g id="edge25" class="edge">
<title>Node16&#45;&gt;Node8</title>
<path fill="none" stroke="midnightblue" d="M533.23,-190.29C543.47,-181.18 555.25,-168.38 560.81,-154 565.79,-141.15 565.57,-135.93 560.81,-123 543.6,-76.2 493.49,-42.09 461.89,-24.5"/>
<polygon fill="midnightblue" stroke="midnightblue" points="463.2,-21.23 452.74,-19.58 459.89,-27.4 463.2,-21.23"/>
</g>
<!-- Node16&#45;&gt;Node10 -->
<g id="edge26" class="edge">
<title>Node16&#45;&gt;Node10</title>
<path fill="none" stroke="midnightblue" d="M527.5,-190.32C541.11,-173.29 558.99,-144.35 544.81,-123 531.8,-103.4 509.52,-91.39 487.68,-84.04"/>
<polygon fill="midnightblue" stroke="midnightblue" points="488.62,-80.67 478.04,-81.07 486.56,-87.36 488.62,-80.67"/>
</g>
<!-- Node16&#45;&gt;Node15 -->
<g id="edge23" class="edge">
<title>Node16&#45;&gt;Node15</title>
<path fill="none" stroke="midnightblue" d="M502.66,-190.4C493.93,-180.26 482.13,-166.57 472.97,-155.94"/>
<polygon fill="midnightblue" stroke="midnightblue" points="475.48,-153.49 466.3,-148.19 470.18,-158.06 475.48,-153.49"/>
</g>
</g>
</svg>
