<?xml version="1.0" encoding="UTF-8" standalone="no"?>
<!DOCTYPE svg PUBLIC "-//W3C//DTD SVG 1.1//EN"
 "http://www.w3.org/Graphics/SVG/1.1/DTD/svg11.dtd">
<!-- Generated by graphviz version 2.44.0 (0)
 -->
<!-- Title: /home/ec2&#45;user/workspace/vsomeip/implementation/e2e_protection/include/e2e/profile/e2e_provider.hpp Pages: 1 -->
<svg width="306pt" height="250pt"
 viewBox="0.00 0.00 306.00 250.00" xmlns="http://www.w3.org/2000/svg" xmlns:xlink="http://www.w3.org/1999/xlink">
<g id="graph0" class="graph" transform="scale(1 1) rotate(0) translate(4 246)">
<title>/home/ec2&#45;user/workspace/vsomeip/implementation/e2e_protection/include/e2e/profile/e2e_provider.hpp</title>
<polygon fill="white" stroke="transparent" points="-4,4 -4,-246 302,-246 302,4 -4,4"/>
<!-- Node1 -->
<g id="node1" class="node">
<title>Node1</title>
<g id="a_node1"><a xlink:title=" ">
<polygon fill="#bfbfbf" stroke="black" points="79,-189.5 79,-241.5 221,-241.5 221,-189.5 79,-189.5"/>
<text text-anchor="start" x="87" y="-229.5" font-family="Helvetica" font-size="10.00">/home/ec2&#45;user/workspace</text>
<text text-anchor="start" x="87" y="-218.5" font-family="Helvetica" font-size="10.00">/vsomeip/implementation</text>
<text text-anchor="start" x="87" y="-207.5" font-family="Helvetica" font-size="10.00">/e2e_protection/include</text>
<text text-anchor="middle" x="150" y="-196.5" font-family="Helvetica" font-size="10.00">/e2e/profile/e2e_provider.hpp</text>
</a>
</g>
</g>
<!-- Node2 -->
<g id="node2" class="node">
<title>Node2</title>
<g id="a_node2"><a xlink:href="e2e__provider__impl_8hpp.html" target="_top" xlink:title=" ">
<polygon fill="white" stroke="black" points="6,-89.5 6,-152.5 140,-152.5 140,-89.5 6,-89.5"/>
<text text-anchor="start" x="14" y="-140.5" font-family="Helvetica" font-size="10.00">/home/ec2&#45;user/workspace</text>
<text text-anchor="start" x="14" y="-129.5" font-family="Helvetica" font-size="10.00">/vsomeip/implementation</text>
<text text-anchor="start" x="14" y="-118.5" font-family="Helvetica" font-size="10.00">/e2e_protection/include</text>
<text text-anchor="start" x="14" y="-107.5" font-family="Helvetica" font-size="10.00">/e2e/profile/e2e_provider</text>
<text text-anchor="middle" x="73" y="-96.5" font-family="Helvetica" font-size="10.00">_impl.hpp</text>
</a>
</g>
</g>
<!-- Node1&#45;&gt;Node2 -->
<g id="edge1" class="edge">
<title>Node1&#45;&gt;Node2</title>
<path fill="none" stroke="midnightblue" d="M122.54,-181.51C114.68,-172.06 106.14,-161.81 98.4,-152.51"/>
<polygon fill="midnightblue" stroke="midnightblue" points="119.87,-183.78 128.96,-189.22 125.25,-179.3 119.87,-183.78"/>
</g>
<!-- Node4 -->
<g id="node4" class="node">
<title>Node4</title>
<g id="a_node4"><a xlink:href="routing__manager__impl_8cpp.html" target="_top" xlink:title=" ">
<polygon fill="white" stroke="black" points="158,-95 158,-147 298,-147 298,-95 158,-95"/>
<text text-anchor="start" x="166" y="-135" font-family="Helvetica" font-size="10.00">/home/ec2&#45;user/workspace</text>
<text text-anchor="start" x="166" y="-124" font-family="Helvetica" font-size="10.00">/vsomeip/implementation</text>
<text text-anchor="start" x="166" y="-113" font-family="Helvetica" font-size="10.00">/routing/src/routing_manager</text>
<text text-anchor="middle" x="228" y="-102" font-family="Helvetica" font-size="10.00">_impl.cpp</text>
</a>
</g>
</g>
<!-- Node1&#45;&gt;Node4 -->
<g id="edge3" class="edge">
<title>Node1&#45;&gt;Node4</title>
<path fill="none" stroke="midnightblue" d="M178,-181.29C187.46,-170.08 197.86,-157.74 206.71,-147.25"/>
<polygon fill="midnightblue" stroke="midnightblue" points="175.08,-179.32 171.31,-189.22 180.44,-183.84 175.08,-179.32"/>
</g>
<!-- Node3 -->
<g id="node3" class="node">
<title>Node3</title>
<g id="a_node3"><a xlink:href="e2e__provider__impl_8cpp.html" target="_top" xlink:title=" ">
<polygon fill="white" stroke="black" points="0,-0.5 0,-52.5 146,-52.5 146,-0.5 0,-0.5"/>
<text text-anchor="start" x="8" y="-40.5" font-family="Helvetica" font-size="10.00">/home/ec2&#45;user/workspace</text>
<text text-anchor="start" x="8" y="-29.5" font-family="Helvetica" font-size="10.00">/vsomeip/implementation</text>
<text text-anchor="start" x="8" y="-18.5" font-family="Helvetica" font-size="10.00">/e2e_protection/src/e2e</text>
<text text-anchor="middle" x="73" y="-7.5" font-family="Helvetica" font-size="10.00">/profile/e2e_provider_impl.cpp</text>
</a>
</g>
</g>
<!-- Node2&#45;&gt;Node3 -->
<g id="edge2" class="edge">
<title>Node2&#45;&gt;Node3</title>
<path fill="none" stroke="midnightblue" d="M73,-79.42C73,-70.36 73,-61 73,-52.77"/>
<polygon fill="midnightblue" stroke="midnightblue" points="69.5,-79.46 73,-89.46 76.5,-79.46 69.5,-79.46"/>
</g>
</g>
</svg>
