<?xml version="1.0" encoding="UTF-8" standalone="no"?>
<!DOCTYPE svg PUBLIC "-//W3C//DTD SVG 1.1//EN"
 "http://www.w3.org/Graphics/SVG/1.1/DTD/svg11.dtd">
<!-- Generated by graphviz version 2.44.0 (0)
 -->
<!-- Title: /home/ec2&#45;user/workspace/vsomeip/implementation/endpoints/include/endpoint_host.hpp Pages: 1 -->
<svg width="1849pt" height="417pt"
 viewBox="0.00 0.00 1849.04 417.00" xmlns="http://www.w3.org/2000/svg" xmlns:xlink="http://www.w3.org/1999/xlink">
<g id="graph0" class="graph" transform="scale(1 1) rotate(0) translate(4 413)">
<title>/home/ec2&#45;user/workspace/vsomeip/implementation/endpoints/include/endpoint_host.hpp</title>
<polygon fill="white" stroke="transparent" points="-4,4 -4,-413 1845.04,-413 1845.04,4 -4,4"/>
<!-- Node1 -->
<g id="node1" class="node">
<title>Node1</title>
<g id="a_node1"><a xlink:title=" ">
<polygon fill="#bfbfbf" stroke="black" points="1001.5,-356.5 1001.5,-408.5 1136.5,-408.5 1136.5,-356.5 1001.5,-356.5"/>
<text text-anchor="start" x="1009.5" y="-396.5" font-family="Helvetica" font-size="10.00">/home/ec2&#45;user/workspace</text>
<text text-anchor="start" x="1009.5" y="-385.5" font-family="Helvetica" font-size="10.00">/vsomeip/implementation</text>
<text text-anchor="start" x="1009.5" y="-374.5" font-family="Helvetica" font-size="10.00">/endpoints/include/endpoint</text>
<text text-anchor="middle" x="1069" y="-363.5" font-family="Helvetica" font-size="10.00">_host.hpp</text>
</a>
</g>
</g>
<!-- Node2 -->
<g id="node2" class="node">
<title>Node2</title>
<g id="a_node2"><a xlink:href="endpoint__manager__base_8hpp.html" target="_top" xlink:title=" ">
<polygon fill="white" stroke="black" points="152.5,-267.5 152.5,-319.5 287.5,-319.5 287.5,-267.5 152.5,-267.5"/>
<text text-anchor="start" x="160.5" y="-307.5" font-family="Helvetica" font-size="10.00">/home/ec2&#45;user/workspace</text>
<text text-anchor="start" x="160.5" y="-296.5" font-family="Helvetica" font-size="10.00">/vsomeip/implementation</text>
<text text-anchor="start" x="160.5" y="-285.5" font-family="Helvetica" font-size="10.00">/endpoints/include/endpoint</text>
<text text-anchor="middle" x="220" y="-274.5" font-family="Helvetica" font-size="10.00">_manager_base.hpp</text>
</a>
</g>
</g>
<!-- Node1&#45;&gt;Node2 -->
<g id="edge1" class="edge">
<title>Node1&#45;&gt;Node2</title>
<path fill="none" stroke="midnightblue" d="M991.17,-381.44C850.95,-379.99 547.22,-370.63 297,-320 293.96,-319.39 290.88,-318.69 287.78,-317.93"/>
<polygon fill="midnightblue" stroke="midnightblue" points="991.35,-384.95 1001.38,-381.54 991.42,-377.95 991.35,-384.95"/>
</g>
<!-- Node14 -->
<g id="node14" class="node">
<title>Node14</title>
<g id="a_node14"><a xlink:href="client__endpoint__impl_8cpp.html" target="_top" xlink:title=" ">
<polygon fill="white" stroke="black" points="306,-267.5 306,-319.5 452,-319.5 452,-267.5 306,-267.5"/>
<text text-anchor="start" x="314" y="-307.5" font-family="Helvetica" font-size="10.00">/home/ec2&#45;user/workspace</text>
<text text-anchor="start" x="314" y="-296.5" font-family="Helvetica" font-size="10.00">/vsomeip/implementation</text>
<text text-anchor="start" x="314" y="-285.5" font-family="Helvetica" font-size="10.00">/endpoints/src/client_endpoint</text>
<text text-anchor="middle" x="379" y="-274.5" font-family="Helvetica" font-size="10.00">_impl.cpp</text>
</a>
</g>
</g>
<!-- Node1&#45;&gt;Node14 -->
<g id="edge18" class="edge">
<title>Node1&#45;&gt;Node14</title>
<path fill="none" stroke="midnightblue" d="M991.07,-378.62C874.67,-373.19 648.94,-358.32 461,-320 458.08,-319.4 455.11,-318.75 452.13,-318.04"/>
<polygon fill="midnightblue" stroke="midnightblue" points="991.16,-382.13 1001.31,-379.08 991.48,-375.13 991.16,-382.13"/>
</g>
<!-- Node15 -->
<g id="node15" class="node">
<title>Node15</title>
<g id="a_node15"><a xlink:href="endpoint__impl_8cpp.html" target="_top" xlink:title=" ">
<polygon fill="white" stroke="black" points="470,-267.5 470,-319.5 604,-319.5 604,-267.5 470,-267.5"/>
<text text-anchor="start" x="478" y="-307.5" font-family="Helvetica" font-size="10.00">/home/ec2&#45;user/workspace</text>
<text text-anchor="start" x="478" y="-296.5" font-family="Helvetica" font-size="10.00">/vsomeip/implementation</text>
<text text-anchor="start" x="478" y="-285.5" font-family="Helvetica" font-size="10.00">/endpoints/src/endpoint</text>
<text text-anchor="middle" x="537" y="-274.5" font-family="Helvetica" font-size="10.00">_impl.cpp</text>
</a>
</g>
</g>
<!-- Node1&#45;&gt;Node15 -->
<g id="edge19" class="edge">
<title>Node1&#45;&gt;Node15</title>
<path fill="none" stroke="midnightblue" d="M991.44,-375.55C900.05,-367.51 744.04,-350.53 613,-320 610.15,-319.34 607.26,-318.61 604.35,-317.84"/>
<polygon fill="midnightblue" stroke="midnightblue" points="991.18,-379.04 1001.44,-376.42 991.78,-372.07 991.18,-379.04"/>
</g>
<!-- Node16 -->
<g id="node16" class="node">
<title>Node16</title>
<g id="a_node16"><a xlink:href="local__tcp__client__endpoint__impl_8cpp.html" target="_top" xlink:title=" ">
<polygon fill="white" stroke="black" points="622,-267.5 622,-319.5 756,-319.5 756,-267.5 622,-267.5"/>
<text text-anchor="start" x="630" y="-307.5" font-family="Helvetica" font-size="10.00">/home/ec2&#45;user/workspace</text>
<text text-anchor="start" x="630" y="-296.5" font-family="Helvetica" font-size="10.00">/vsomeip/implementation</text>
<text text-anchor="start" x="630" y="-285.5" font-family="Helvetica" font-size="10.00">/endpoints/src/local_tcp</text>
<text text-anchor="middle" x="689" y="-274.5" font-family="Helvetica" font-size="10.00">_client_endpoint_impl.cpp</text>
</a>
</g>
</g>
<!-- Node1&#45;&gt;Node16 -->
<g id="edge20" class="edge">
<title>Node1&#45;&gt;Node16</title>
<path fill="none" stroke="midnightblue" d="M991.36,-368.54C929.57,-357.56 841.12,-340.39 765,-320 762.18,-319.24 759.31,-318.44 756.41,-317.6"/>
<polygon fill="midnightblue" stroke="midnightblue" points="990.97,-372.02 1001.43,-370.31 992.19,-365.13 990.97,-372.02"/>
</g>
<!-- Node17 -->
<g id="node17" class="node">
<title>Node17</title>
<g id="a_node17"><a xlink:href="local__tcp__server__endpoint__impl_8cpp.html" target="_top" xlink:title=" ">
<polygon fill="white" stroke="black" points="774,-267.5 774,-319.5 908,-319.5 908,-267.5 774,-267.5"/>
<text text-anchor="start" x="782" y="-307.5" font-family="Helvetica" font-size="10.00">/home/ec2&#45;user/workspace</text>
<text text-anchor="start" x="782" y="-296.5" font-family="Helvetica" font-size="10.00">/vsomeip/implementation</text>
<text text-anchor="start" x="782" y="-285.5" font-family="Helvetica" font-size="10.00">/endpoints/src/local_tcp</text>
<text text-anchor="middle" x="841" y="-274.5" font-family="Helvetica" font-size="10.00">_server_endpoint_impl.cpp</text>
</a>
</g>
</g>
<!-- Node1&#45;&gt;Node17 -->
<g id="edge21" class="edge">
<title>Node1&#45;&gt;Node17</title>
<path fill="none" stroke="midnightblue" d="M993.94,-352.86C965.71,-342.09 933.87,-329.94 906.57,-319.52"/>
<polygon fill="midnightblue" stroke="midnightblue" points="992.77,-356.16 1003.36,-356.45 995.26,-349.62 992.77,-356.16"/>
</g>
<!-- Node18 -->
<g id="node18" class="node">
<title>Node18</title>
<g id="a_node18"><a xlink:href="local__uds__client__endpoint__impl_8cpp.html" target="_top" xlink:title=" ">
<polygon fill="white" stroke="black" points="926,-267.5 926,-319.5 1060,-319.5 1060,-267.5 926,-267.5"/>
<text text-anchor="start" x="934" y="-307.5" font-family="Helvetica" font-size="10.00">/home/ec2&#45;user/workspace</text>
<text text-anchor="start" x="934" y="-296.5" font-family="Helvetica" font-size="10.00">/vsomeip/implementation</text>
<text text-anchor="start" x="934" y="-285.5" font-family="Helvetica" font-size="10.00">/endpoints/src/local_uds</text>
<text text-anchor="middle" x="993" y="-274.5" font-family="Helvetica" font-size="10.00">_client_endpoint_impl.cpp</text>
</a>
</g>
</g>
<!-- Node1&#45;&gt;Node18 -->
<g id="edge22" class="edge">
<title>Node1&#45;&gt;Node18</title>
<path fill="none" stroke="midnightblue" d="M1040.43,-348.79C1031.99,-339.13 1022.88,-328.71 1014.93,-319.61"/>
<polygon fill="midnightblue" stroke="midnightblue" points="1037.8,-351.11 1047.02,-356.34 1043.07,-346.5 1037.8,-351.11"/>
</g>
<!-- Node19 -->
<g id="node19" class="node">
<title>Node19</title>
<g id="a_node19"><a xlink:href="local__uds__server__endpoint__impl_8cpp.html" target="_top" xlink:title=" ">
<polygon fill="white" stroke="black" points="1078,-267.5 1078,-319.5 1212,-319.5 1212,-267.5 1078,-267.5"/>
<text text-anchor="start" x="1086" y="-307.5" font-family="Helvetica" font-size="10.00">/home/ec2&#45;user/workspace</text>
<text text-anchor="start" x="1086" y="-296.5" font-family="Helvetica" font-size="10.00">/vsomeip/implementation</text>
<text text-anchor="start" x="1086" y="-285.5" font-family="Helvetica" font-size="10.00">/endpoints/src/local_uds</text>
<text text-anchor="middle" x="1145" y="-274.5" font-family="Helvetica" font-size="10.00">_server_endpoint_impl.cpp</text>
</a>
</g>
</g>
<!-- Node1&#45;&gt;Node19 -->
<g id="edge23" class="edge">
<title>Node1&#45;&gt;Node19</title>
<path fill="none" stroke="midnightblue" d="M1097.57,-348.79C1106.01,-339.13 1115.12,-328.71 1123.07,-319.61"/>
<polygon fill="midnightblue" stroke="midnightblue" points="1094.93,-346.5 1090.98,-356.34 1100.2,-351.11 1094.93,-346.5"/>
</g>
<!-- Node20 -->
<g id="node20" class="node">
<title>Node20</title>
<g id="a_node20"><a xlink:href="tcp__client__endpoint__impl_8cpp.html" target="_top" xlink:title=" ">
<polygon fill="white" stroke="black" points="1230,-267.5 1230,-319.5 1364,-319.5 1364,-267.5 1230,-267.5"/>
<text text-anchor="start" x="1238" y="-307.5" font-family="Helvetica" font-size="10.00">/home/ec2&#45;user/workspace</text>
<text text-anchor="start" x="1238" y="-296.5" font-family="Helvetica" font-size="10.00">/vsomeip/implementation</text>
<text text-anchor="start" x="1238" y="-285.5" font-family="Helvetica" font-size="10.00">/endpoints/src/tcp_client</text>
<text text-anchor="middle" x="1297" y="-274.5" font-family="Helvetica" font-size="10.00">_endpoint_impl.cpp</text>
</a>
</g>
</g>
<!-- Node1&#45;&gt;Node20 -->
<g id="edge24" class="edge">
<title>Node1&#45;&gt;Node20</title>
<path fill="none" stroke="midnightblue" d="M1144.06,-352.86C1172.29,-342.09 1204.13,-329.94 1231.43,-319.52"/>
<polygon fill="midnightblue" stroke="midnightblue" points="1142.74,-349.62 1134.64,-356.45 1145.23,-356.16 1142.74,-349.62"/>
</g>
<!-- Node21 -->
<g id="node21" class="node">
<title>Node21</title>
<g id="a_node21"><a xlink:href="tcp__server__endpoint__impl_8cpp.html" target="_top" xlink:title=" ">
<polygon fill="white" stroke="black" points="1382,-267.5 1382,-319.5 1516,-319.5 1516,-267.5 1382,-267.5"/>
<text text-anchor="start" x="1390" y="-307.5" font-family="Helvetica" font-size="10.00">/home/ec2&#45;user/workspace</text>
<text text-anchor="start" x="1390" y="-296.5" font-family="Helvetica" font-size="10.00">/vsomeip/implementation</text>
<text text-anchor="start" x="1390" y="-285.5" font-family="Helvetica" font-size="10.00">/endpoints/src/tcp_server</text>
<text text-anchor="middle" x="1449" y="-274.5" font-family="Helvetica" font-size="10.00">_endpoint_impl.cpp</text>
</a>
</g>
</g>
<!-- Node1&#45;&gt;Node21 -->
<g id="edge25" class="edge">
<title>Node1&#45;&gt;Node21</title>
<path fill="none" stroke="midnightblue" d="M1146.64,-368.54C1208.43,-357.56 1296.88,-340.39 1373,-320 1375.82,-319.24 1378.69,-318.44 1381.59,-317.6"/>
<polygon fill="midnightblue" stroke="midnightblue" points="1145.81,-365.13 1136.57,-370.31 1147.03,-372.02 1145.81,-365.13"/>
</g>
<!-- Node22 -->
<g id="node22" class="node">
<title>Node22</title>
<g id="a_node22"><a xlink:href="udp__client__endpoint__impl_8cpp.html" target="_top" xlink:title=" ">
<polygon fill="white" stroke="black" points="1534,-267.5 1534,-319.5 1668,-319.5 1668,-267.5 1534,-267.5"/>
<text text-anchor="start" x="1542" y="-307.5" font-family="Helvetica" font-size="10.00">/home/ec2&#45;user/workspace</text>
<text text-anchor="start" x="1542" y="-296.5" font-family="Helvetica" font-size="10.00">/vsomeip/implementation</text>
<text text-anchor="start" x="1542" y="-285.5" font-family="Helvetica" font-size="10.00">/endpoints/src/udp_client</text>
<text text-anchor="middle" x="1601" y="-274.5" font-family="Helvetica" font-size="10.00">_endpoint_impl.cpp</text>
</a>
</g>
</g>
<!-- Node1&#45;&gt;Node22 -->
<g id="edge26" class="edge">
<title>Node1&#45;&gt;Node22</title>
<path fill="none" stroke="midnightblue" d="M1146.56,-375.55C1237.95,-367.51 1393.96,-350.53 1525,-320 1527.85,-319.34 1530.74,-318.61 1533.65,-317.84"/>
<polygon fill="midnightblue" stroke="midnightblue" points="1146.22,-372.07 1136.56,-376.42 1146.82,-379.04 1146.22,-372.07"/>
</g>
<!-- Node23 -->
<g id="node23" class="node">
<title>Node23</title>
<g id="a_node23"><a xlink:href="udp__server__endpoint__impl_8cpp.html" target="_top" xlink:title=" ">
<polygon fill="white" stroke="black" points="1686,-267.5 1686,-319.5 1820,-319.5 1820,-267.5 1686,-267.5"/>
<text text-anchor="start" x="1694" y="-307.5" font-family="Helvetica" font-size="10.00">/home/ec2&#45;user/workspace</text>
<text text-anchor="start" x="1694" y="-296.5" font-family="Helvetica" font-size="10.00">/vsomeip/implementation</text>
<text text-anchor="start" x="1694" y="-285.5" font-family="Helvetica" font-size="10.00">/endpoints/src/udp_server</text>
<text text-anchor="middle" x="1753" y="-274.5" font-family="Helvetica" font-size="10.00">_endpoint_impl.cpp</text>
</a>
</g>
</g>
<!-- Node1&#45;&gt;Node23 -->
<g id="edge27" class="edge">
<title>Node1&#45;&gt;Node23</title>
<path fill="none" stroke="midnightblue" d="M1147.04,-379.16C1263.59,-374.42 1489.49,-360.41 1677,-320 1679.86,-319.38 1682.76,-318.7 1685.67,-317.96"/>
<polygon fill="midnightblue" stroke="midnightblue" points="1146.64,-375.67 1136.79,-379.56 1146.92,-382.67 1146.64,-375.67"/>
</g>
<!-- Node24 -->
<g id="node24" class="node">
<title>Node24</title>
<g id="a_node24"><a xlink:href="routing__manager__stub_8hpp.html" target="_top" xlink:title=" ">
<polygon fill="white" stroke="black" points="791,-178.5 791,-230.5 925,-230.5 925,-178.5 791,-178.5"/>
<text text-anchor="start" x="799" y="-218.5" font-family="Helvetica" font-size="10.00">/home/ec2&#45;user/workspace</text>
<text text-anchor="start" x="799" y="-207.5" font-family="Helvetica" font-size="10.00">/vsomeip/implementation</text>
<text text-anchor="start" x="799" y="-196.5" font-family="Helvetica" font-size="10.00">/routing/include/routing</text>
<text text-anchor="middle" x="858" y="-185.5" font-family="Helvetica" font-size="10.00">_manager_stub.hpp</text>
</a>
</g>
</g>
<!-- Node1&#45;&gt;Node24 -->
<g id="edge28" class="edge">
<title>Node1&#45;&gt;Node24</title>
<path fill="none" stroke="midnightblue" d="M1146.95,-381.04C1331.54,-379.13 1783.42,-369.42 1829,-320 1844.97,-302.69 1845.12,-284.17 1829,-267 1798.08,-234.06 1140.33,-213.21 925.33,-207.26"/>
<polygon fill="midnightblue" stroke="midnightblue" points="1146.73,-377.54 1136.77,-381.14 1146.8,-384.54 1146.73,-377.54"/>
</g>
<!-- Node3 -->
<g id="node3" class="node">
<title>Node3</title>
<g id="a_node3"><a xlink:href="endpoint__manager__impl_8hpp.html" target="_top" xlink:title=" ">
<polygon fill="white" stroke="black" points="546.5,-178.5 546.5,-230.5 681.5,-230.5 681.5,-178.5 546.5,-178.5"/>
<text text-anchor="start" x="554.5" y="-218.5" font-family="Helvetica" font-size="10.00">/home/ec2&#45;user/workspace</text>
<text text-anchor="start" x="554.5" y="-207.5" font-family="Helvetica" font-size="10.00">/vsomeip/implementation</text>
<text text-anchor="start" x="554.5" y="-196.5" font-family="Helvetica" font-size="10.00">/endpoints/include/endpoint</text>
<text text-anchor="middle" x="614" y="-185.5" font-family="Helvetica" font-size="10.00">_manager_impl.hpp</text>
</a>
</g>
</g>
<!-- Node2&#45;&gt;Node3 -->
<g id="edge2" class="edge">
<title>Node2&#45;&gt;Node3</title>
<path fill="none" stroke="midnightblue" d="M297.83,-266.91C388.99,-243.51 484.04,-226.33 546.34,-216.04"/>
<polygon fill="midnightblue" stroke="midnightblue" points="296.68,-263.6 287.88,-269.5 298.44,-270.37 296.68,-263.6"/>
</g>
<!-- Node9 -->
<g id="node9" class="node">
<title>Node9</title>
<g id="a_node9"><a xlink:href="endpoint__manager__base_8cpp.html" target="_top" xlink:title=" ">
<polygon fill="white" stroke="black" points="0,-89.5 0,-141.5 134,-141.5 134,-89.5 0,-89.5"/>
<text text-anchor="start" x="8" y="-129.5" font-family="Helvetica" font-size="10.00">/home/ec2&#45;user/workspace</text>
<text text-anchor="start" x="8" y="-118.5" font-family="Helvetica" font-size="10.00">/vsomeip/implementation</text>
<text text-anchor="start" x="8" y="-107.5" font-family="Helvetica" font-size="10.00">/endpoints/src/endpoint</text>
<text text-anchor="middle" x="67" y="-96.5" font-family="Helvetica" font-size="10.00">_manager_base.cpp</text>
</a>
</g>
</g>
<!-- Node2&#45;&gt;Node9 -->
<g id="edge9" class="edge">
<title>Node2&#45;&gt;Node9</title>
<path fill="none" stroke="midnightblue" d="M191.26,-259.44C161.54,-225.25 115.79,-172.62 88.88,-141.67"/>
<polygon fill="midnightblue" stroke="midnightblue" points="188.88,-262.03 198.08,-267.28 194.16,-257.44 188.88,-262.03"/>
</g>
<!-- Node10 -->
<g id="node10" class="node">
<title>Node10</title>
<g id="a_node10"><a xlink:href="routing__manager__base_8hpp.html" target="_top" xlink:title=" ">
<polygon fill="white" stroke="black" points="229,-178.5 229,-230.5 363,-230.5 363,-178.5 229,-178.5"/>
<text text-anchor="start" x="237" y="-218.5" font-family="Helvetica" font-size="10.00">/home/ec2&#45;user/workspace</text>
<text text-anchor="start" x="237" y="-207.5" font-family="Helvetica" font-size="10.00">/vsomeip/implementation</text>
<text text-anchor="start" x="237" y="-196.5" font-family="Helvetica" font-size="10.00">/routing/include/routing</text>
<text text-anchor="middle" x="296" y="-185.5" font-family="Helvetica" font-size="10.00">_manager_base.hpp</text>
</a>
</g>
</g>
<!-- Node2&#45;&gt;Node10 -->
<g id="edge10" class="edge">
<title>Node2&#45;&gt;Node10</title>
<path fill="none" stroke="midnightblue" d="M248.57,-259.79C257.01,-250.13 266.12,-239.71 274.07,-230.61"/>
<polygon fill="midnightblue" stroke="midnightblue" points="245.93,-257.5 241.98,-267.34 251.2,-262.11 245.93,-257.5"/>
</g>
<!-- Node4 -->
<g id="node4" class="node">
<title>Node4</title>
<g id="a_node4"><a xlink:href="endpoint__manager__impl_8cpp.html" target="_top" xlink:title=" ">
<polygon fill="white" stroke="black" points="500,-0.5 500,-52.5 634,-52.5 634,-0.5 500,-0.5"/>
<text text-anchor="start" x="508" y="-40.5" font-family="Helvetica" font-size="10.00">/home/ec2&#45;user/workspace</text>
<text text-anchor="start" x="508" y="-29.5" font-family="Helvetica" font-size="10.00">/vsomeip/implementation</text>
<text text-anchor="start" x="508" y="-18.5" font-family="Helvetica" font-size="10.00">/endpoints/src/endpoint</text>
<text text-anchor="middle" x="567" y="-7.5" font-family="Helvetica" font-size="10.00">_manager_impl.cpp</text>
</a>
</g>
</g>
<!-- Node3&#45;&gt;Node4 -->
<g id="edge3" class="edge">
<title>Node3&#45;&gt;Node4</title>
<path fill="none" stroke="midnightblue" d="M634.58,-169.22C645.81,-145.81 655.19,-114.54 643,-89 636.06,-74.45 623.8,-62.23 611.13,-52.61"/>
<polygon fill="midnightblue" stroke="midnightblue" points="631.31,-167.91 629.88,-178.41 637.55,-171.1 631.31,-167.91"/>
</g>
<!-- Node5 -->
<g id="node5" class="node">
<title>Node5</title>
<g id="a_node5"><a xlink:href="routing__manager__impl_8hpp.html" target="_top" xlink:title=" ">
<polygon fill="white" stroke="black" points="500,-89.5 500,-141.5 634,-141.5 634,-89.5 500,-89.5"/>
<text text-anchor="start" x="508" y="-129.5" font-family="Helvetica" font-size="10.00">/home/ec2&#45;user/workspace</text>
<text text-anchor="start" x="508" y="-118.5" font-family="Helvetica" font-size="10.00">/vsomeip/implementation</text>
<text text-anchor="start" x="508" y="-107.5" font-family="Helvetica" font-size="10.00">/routing/include/routing</text>
<text text-anchor="middle" x="567" y="-96.5" font-family="Helvetica" font-size="10.00">_manager_impl.hpp</text>
</a>
</g>
</g>
<!-- Node3&#45;&gt;Node5 -->
<g id="edge4" class="edge">
<title>Node3&#45;&gt;Node5</title>
<path fill="none" stroke="midnightblue" d="M595.55,-169.35C590.55,-160.1 585.24,-150.26 580.56,-141.61"/>
<polygon fill="midnightblue" stroke="midnightblue" points="592.57,-171.2 600.41,-178.34 598.73,-167.87 592.57,-171.2"/>
</g>
<!-- Node8 -->
<g id="node8" class="node">
<title>Node8</title>
<g id="a_node8"><a xlink:href="routing__manager__stub_8cpp.html" target="_top" xlink:title=" ">
<polygon fill="white" stroke="black" points="690,-89.5 690,-141.5 830,-141.5 830,-89.5 690,-89.5"/>
<text text-anchor="start" x="698" y="-129.5" font-family="Helvetica" font-size="10.00">/home/ec2&#45;user/workspace</text>
<text text-anchor="start" x="698" y="-118.5" font-family="Helvetica" font-size="10.00">/vsomeip/implementation</text>
<text text-anchor="start" x="698" y="-107.5" font-family="Helvetica" font-size="10.00">/routing/src/routing_manager</text>
<text text-anchor="middle" x="760" y="-96.5" font-family="Helvetica" font-size="10.00">_stub.cpp</text>
</a>
</g>
</g>
<!-- Node3&#45;&gt;Node8 -->
<g id="edge8" class="edge">
<title>Node3&#45;&gt;Node8</title>
<path fill="none" stroke="midnightblue" d="M665.07,-173.07C682.32,-162.79 701.38,-151.43 717.87,-141.61"/>
<polygon fill="midnightblue" stroke="midnightblue" points="663.03,-170.21 656.23,-178.34 666.61,-176.22 663.03,-170.21"/>
</g>
<!-- Node5&#45;&gt;Node4 -->
<g id="edge5" class="edge">
<title>Node5&#45;&gt;Node4</title>
<path fill="none" stroke="midnightblue" d="M567,-79.19C567,-70.28 567,-60.9 567,-52.61"/>
<polygon fill="midnightblue" stroke="midnightblue" points="563.5,-79.34 567,-89.34 570.5,-79.34 563.5,-79.34"/>
</g>
<!-- Node6 -->
<g id="node6" class="node">
<title>Node6</title>
<g id="a_node6"><a xlink:href="routing__manager__impl_8cpp.html" target="_top" xlink:title=" ">
<polygon fill="white" stroke="black" points="720,-0.5 720,-52.5 860,-52.5 860,-0.5 720,-0.5"/>
<text text-anchor="start" x="728" y="-40.5" font-family="Helvetica" font-size="10.00">/home/ec2&#45;user/workspace</text>
<text text-anchor="start" x="728" y="-29.5" font-family="Helvetica" font-size="10.00">/vsomeip/implementation</text>
<text text-anchor="start" x="728" y="-18.5" font-family="Helvetica" font-size="10.00">/routing/src/routing_manager</text>
<text text-anchor="middle" x="790" y="-7.5" font-family="Helvetica" font-size="10.00">_impl.cpp</text>
</a>
</g>
</g>
<!-- Node5&#45;&gt;Node6 -->
<g id="edge6" class="edge">
<title>Node5&#45;&gt;Node6</title>
<path fill="none" stroke="midnightblue" d="M640.78,-85.72C668.29,-74.98 699.29,-62.89 725.87,-52.52"/>
<polygon fill="midnightblue" stroke="midnightblue" points="639.25,-82.56 631.2,-89.45 641.79,-89.08 639.25,-82.56"/>
</g>
<!-- Node7 -->
<g id="node7" class="node">
<title>Node7</title>
<g id="a_node7"><a xlink:href="runtime_2src_2application__impl_8cpp.html" target="_top" xlink:title=" ">
<polygon fill="white" stroke="black" points="328,-0.5 328,-52.5 462,-52.5 462,-0.5 328,-0.5"/>
<text text-anchor="start" x="336" y="-40.5" font-family="Helvetica" font-size="10.00">/home/ec2&#45;user/workspace</text>
<text text-anchor="start" x="336" y="-29.5" font-family="Helvetica" font-size="10.00">/vsomeip/implementation</text>
<text text-anchor="start" x="336" y="-18.5" font-family="Helvetica" font-size="10.00">/runtime/src/application</text>
<text text-anchor="middle" x="395" y="-7.5" font-family="Helvetica" font-size="10.00">_impl.cpp</text>
</a>
</g>
</g>
<!-- Node5&#45;&gt;Node7 -->
<g id="edge7" class="edge">
<title>Node5&#45;&gt;Node7</title>
<path fill="none" stroke="midnightblue" d="M508.24,-84.78C487.54,-74.31 464.5,-62.66 444.64,-52.61"/>
<polygon fill="midnightblue" stroke="midnightblue" points="506.75,-87.95 517.25,-89.34 509.91,-81.7 506.75,-87.95"/>
</g>
<!-- Node10&#45;&gt;Node4 -->
<g id="edge12" class="edge">
<title>Node10&#45;&gt;Node4</title>
<path fill="none" stroke="midnightblue" d="M372.52,-183.4C399.73,-173.81 429.44,-160.33 453,-142 475.88,-124.2 471.11,-110.08 491,-89 503.35,-75.91 518.5,-63.12 532.02,-52.62"/>
<polygon fill="midnightblue" stroke="midnightblue" points="371.35,-180.1 363.01,-186.64 373.61,-186.73 371.35,-180.1"/>
</g>
<!-- Node10&#45;&gt;Node5 -->
<g id="edge16" class="edge">
<title>Node10&#45;&gt;Node5</title>
<path fill="none" stroke="midnightblue" d="M373.02,-178.77C412.9,-165.97 461.14,-150.48 499.54,-138.16"/>
<polygon fill="midnightblue" stroke="midnightblue" points="371.79,-175.49 363.34,-181.88 373.93,-182.16 371.79,-175.49"/>
</g>
<!-- Node10&#45;&gt;Node9 -->
<g id="edge11" class="edge">
<title>Node10&#45;&gt;Node9</title>
<path fill="none" stroke="midnightblue" d="M220.61,-174.86C192.26,-164.09 160.27,-151.94 132.86,-141.52"/>
<polygon fill="midnightblue" stroke="midnightblue" points="219.48,-178.17 230.07,-178.45 221.97,-171.63 219.48,-178.17"/>
</g>
<!-- Node11 -->
<g id="node11" class="node">
<title>Node11</title>
<g id="a_node11"><a xlink:href="routing__manager__client_8hpp.html" target="_top" xlink:title=" ">
<polygon fill="white" stroke="black" points="152,-89.5 152,-141.5 286,-141.5 286,-89.5 152,-89.5"/>
<text text-anchor="start" x="160" y="-129.5" font-family="Helvetica" font-size="10.00">/home/ec2&#45;user/workspace</text>
<text text-anchor="start" x="160" y="-118.5" font-family="Helvetica" font-size="10.00">/vsomeip/implementation</text>
<text text-anchor="start" x="160" y="-107.5" font-family="Helvetica" font-size="10.00">/routing/include/routing</text>
<text text-anchor="middle" x="219" y="-96.5" font-family="Helvetica" font-size="10.00">_manager_client.hpp</text>
</a>
</g>
</g>
<!-- Node10&#45;&gt;Node11 -->
<g id="edge13" class="edge">
<title>Node10&#45;&gt;Node11</title>
<path fill="none" stroke="midnightblue" d="M267.05,-170.79C258.5,-161.13 249.28,-150.71 241.22,-141.61"/>
<polygon fill="midnightblue" stroke="midnightblue" points="264.48,-173.17 273.73,-178.34 269.72,-168.53 264.48,-173.17"/>
</g>
<!-- Node13 -->
<g id="node13" class="node">
<title>Node13</title>
<g id="a_node13"><a xlink:href="routing__manager__base_8cpp.html" target="_top" xlink:title=" ">
<polygon fill="white" stroke="black" points="304,-89.5 304,-141.5 444,-141.5 444,-89.5 304,-89.5"/>
<text text-anchor="start" x="312" y="-129.5" font-family="Helvetica" font-size="10.00">/home/ec2&#45;user/workspace</text>
<text text-anchor="start" x="312" y="-118.5" font-family="Helvetica" font-size="10.00">/vsomeip/implementation</text>
<text text-anchor="start" x="312" y="-107.5" font-family="Helvetica" font-size="10.00">/routing/src/routing_manager</text>
<text text-anchor="middle" x="374" y="-96.5" font-family="Helvetica" font-size="10.00">_base.cpp</text>
</a>
</g>
</g>
<!-- Node10&#45;&gt;Node13 -->
<g id="edge17" class="edge">
<title>Node10&#45;&gt;Node13</title>
<path fill="none" stroke="midnightblue" d="M325.33,-170.79C333.99,-161.13 343.33,-150.71 351.49,-141.61"/>
<polygon fill="midnightblue" stroke="midnightblue" points="322.63,-168.55 318.56,-178.34 327.84,-173.23 322.63,-168.55"/>
</g>
<!-- Node11&#45;&gt;Node7 -->
<g id="edge15" class="edge">
<title>Node11&#45;&gt;Node7</title>
<path fill="none" stroke="midnightblue" d="M279.13,-84.78C300.31,-74.31 323.88,-62.66 344.21,-52.61"/>
<polygon fill="midnightblue" stroke="midnightblue" points="277.32,-81.77 269.91,-89.34 280.42,-88.04 277.32,-81.77"/>
</g>
<!-- Node12 -->
<g id="node12" class="node">
<title>Node12</title>
<g id="a_node12"><a xlink:href="routing__manager__client_8cpp.html" target="_top" xlink:title=" ">
<polygon fill="white" stroke="black" points="149,-0.5 149,-52.5 289,-52.5 289,-0.5 149,-0.5"/>
<text text-anchor="start" x="157" y="-40.5" font-family="Helvetica" font-size="10.00">/home/ec2&#45;user/workspace</text>
<text text-anchor="start" x="157" y="-29.5" font-family="Helvetica" font-size="10.00">/vsomeip/implementation</text>
<text text-anchor="start" x="157" y="-18.5" font-family="Helvetica" font-size="10.00">/routing/src/routing_manager</text>
<text text-anchor="middle" x="219" y="-7.5" font-family="Helvetica" font-size="10.00">_client.cpp</text>
</a>
</g>
</g>
<!-- Node11&#45;&gt;Node12 -->
<g id="edge14" class="edge">
<title>Node11&#45;&gt;Node12</title>
<path fill="none" stroke="midnightblue" d="M219,-79.19C219,-70.28 219,-60.9 219,-52.61"/>
<polygon fill="midnightblue" stroke="midnightblue" points="215.5,-79.34 219,-89.34 222.5,-79.34 215.5,-79.34"/>
</g>
<!-- Node24&#45;&gt;Node6 -->
<g id="edge29" class="edge">
<title>Node24&#45;&gt;Node6</title>
<path fill="none" stroke="midnightblue" d="M856.74,-168.19C854.82,-144.86 850.15,-114.07 839,-89 833.17,-75.9 823.88,-63.2 814.95,-52.78"/>
<polygon fill="midnightblue" stroke="midnightblue" points="853.26,-168.61 857.44,-178.34 860.24,-168.12 853.26,-168.61"/>
</g>
<!-- Node24&#45;&gt;Node8 -->
<g id="edge30" class="edge">
<title>Node24&#45;&gt;Node8</title>
<path fill="none" stroke="midnightblue" d="M822.12,-171.65C810.97,-161.75 798.84,-150.98 788.28,-141.61"/>
<polygon fill="midnightblue" stroke="midnightblue" points="819.85,-174.31 829.65,-178.34 824.5,-169.08 819.85,-174.31"/>
</g>
</g>
</svg>
