<?xml version="1.0" encoding="UTF-8" standalone="no"?>
<!DOCTYPE svg PUBLIC "-//W3C//DTD SVG 1.1//EN"
 "http://www.w3.org/Graphics/SVG/1.1/DTD/svg11.dtd">
<!-- Generated by graphviz version 2.44.0 (0)
 -->
<!-- Title: /home/ec2&#45;user/workspace/vsomeip/implementation/endpoints/include/endpoint_impl.hpp Pages: 1 -->
<svg width="1861pt" height="328pt"
 viewBox="0.00 0.00 1861.00 328.00" xmlns="http://www.w3.org/2000/svg" xmlns:xlink="http://www.w3.org/1999/xlink">
<g id="graph0" class="graph" transform="scale(1 1) rotate(0) translate(4 324)">
<title>/home/ec2&#45;user/workspace/vsomeip/implementation/endpoints/include/endpoint_impl.hpp</title>
<polygon fill="white" stroke="transparent" points="-4,4 -4,-324 1857,-324 1857,4 -4,4"/>
<!-- Node1 -->
<g id="node1" class="node">
<title>Node1</title>
<g id="a_node1"><a xlink:title=" ">
<polygon fill="#bfbfbf" stroke="black" points="1115.5,-267.5 1115.5,-319.5 1250.5,-319.5 1250.5,-267.5 1115.5,-267.5"/>
<text text-anchor="start" x="1123.5" y="-307.5" font-family="Helvetica" font-size="10.00">/home/ec2&#45;user/workspace</text>
<text text-anchor="start" x="1123.5" y="-296.5" font-family="Helvetica" font-size="10.00">/vsomeip/implementation</text>
<text text-anchor="start" x="1123.5" y="-285.5" font-family="Helvetica" font-size="10.00">/endpoints/include/endpoint</text>
<text text-anchor="middle" x="1183" y="-274.5" font-family="Helvetica" font-size="10.00">_impl.hpp</text>
</a>
</g>
</g>
<!-- Node2 -->
<g id="node2" class="node">
<title>Node2</title>
<g id="a_node2"><a xlink:href="client__endpoint__impl_8hpp.html" target="_top" xlink:title=" ">
<polygon fill="white" stroke="black" points="784,-178.5 784,-230.5 918,-230.5 918,-178.5 784,-178.5"/>
<text text-anchor="start" x="792" y="-218.5" font-family="Helvetica" font-size="10.00">/home/ec2&#45;user/workspace</text>
<text text-anchor="start" x="792" y="-207.5" font-family="Helvetica" font-size="10.00">/vsomeip/implementation</text>
<text text-anchor="start" x="792" y="-196.5" font-family="Helvetica" font-size="10.00">/endpoints/include/client</text>
<text text-anchor="middle" x="851" y="-185.5" font-family="Helvetica" font-size="10.00">_endpoint_impl.hpp</text>
</a>
</g>
</g>
<!-- Node1&#45;&gt;Node2 -->
<g id="edge1" class="edge">
<title>Node1&#45;&gt;Node2</title>
<path fill="none" stroke="midnightblue" d="M1105.41,-272.17C1048.64,-257.29 972.39,-237.31 918.21,-223.11"/>
<polygon fill="midnightblue" stroke="midnightblue" points="1104.85,-275.64 1115.41,-274.79 1106.63,-268.87 1104.85,-275.64"/>
</g>
<!-- Node15 -->
<g id="node15" class="node">
<title>Node15</title>
<g id="a_node15"><a xlink:href="server__endpoint__impl_8hpp.html" target="_top" xlink:title=" ">
<polygon fill="white" stroke="black" points="1116,-178.5 1116,-230.5 1250,-230.5 1250,-178.5 1116,-178.5"/>
<text text-anchor="start" x="1124" y="-218.5" font-family="Helvetica" font-size="10.00">/home/ec2&#45;user/workspace</text>
<text text-anchor="start" x="1124" y="-207.5" font-family="Helvetica" font-size="10.00">/vsomeip/implementation</text>
<text text-anchor="start" x="1124" y="-196.5" font-family="Helvetica" font-size="10.00">/endpoints/include/server</text>
<text text-anchor="middle" x="1183" y="-185.5" font-family="Helvetica" font-size="10.00">_endpoint_impl.hpp</text>
</a>
</g>
</g>
<!-- Node1&#45;&gt;Node15 -->
<g id="edge16" class="edge">
<title>Node1&#45;&gt;Node15</title>
<path fill="none" stroke="midnightblue" d="M1183,-257.19C1183,-248.28 1183,-238.9 1183,-230.61"/>
<polygon fill="midnightblue" stroke="midnightblue" points="1179.5,-257.34 1183,-267.34 1186.5,-257.34 1179.5,-257.34"/>
</g>
<!-- Node26 -->
<g id="node26" class="node">
<title>Node26</title>
<g id="a_node26"><a xlink:href="endpoint__impl_8cpp.html" target="_top" xlink:title=" ">
<polygon fill="white" stroke="black" points="1268,-178.5 1268,-230.5 1402,-230.5 1402,-178.5 1268,-178.5"/>
<text text-anchor="start" x="1276" y="-218.5" font-family="Helvetica" font-size="10.00">/home/ec2&#45;user/workspace</text>
<text text-anchor="start" x="1276" y="-207.5" font-family="Helvetica" font-size="10.00">/vsomeip/implementation</text>
<text text-anchor="start" x="1276" y="-196.5" font-family="Helvetica" font-size="10.00">/endpoints/src/endpoint</text>
<text text-anchor="middle" x="1335" y="-185.5" font-family="Helvetica" font-size="10.00">_impl.cpp</text>
</a>
</g>
</g>
<!-- Node1&#45;&gt;Node26 -->
<g id="edge36" class="edge">
<title>Node1&#45;&gt;Node26</title>
<path fill="none" stroke="midnightblue" d="M1235.67,-262.35C1253.77,-252 1273.81,-240.52 1291.13,-230.61"/>
<polygon fill="midnightblue" stroke="midnightblue" points="1233.9,-259.33 1226.96,-267.34 1237.38,-265.41 1233.9,-259.33"/>
</g>
<!-- Node3 -->
<g id="node3" class="node">
<title>Node3</title>
<g id="a_node3"><a xlink:href="local__tcp__client__endpoint__impl_8hpp.html" target="_top" xlink:title=" ">
<polygon fill="white" stroke="black" points="145,-89.5 145,-141.5 293,-141.5 293,-89.5 145,-89.5"/>
<text text-anchor="start" x="153" y="-129.5" font-family="Helvetica" font-size="10.00">/home/ec2&#45;user/workspace</text>
<text text-anchor="start" x="153" y="-118.5" font-family="Helvetica" font-size="10.00">/vsomeip/implementation</text>
<text text-anchor="start" x="153" y="-107.5" font-family="Helvetica" font-size="10.00">/endpoints/include/local</text>
<text text-anchor="middle" x="219" y="-96.5" font-family="Helvetica" font-size="10.00">_tcp_client_endpoint_impl.hpp</text>
</a>
</g>
</g>
<!-- Node2&#45;&gt;Node3 -->
<g id="edge2" class="edge">
<title>Node2&#45;&gt;Node3</title>
<path fill="none" stroke="midnightblue" d="M773.56,-196.39C673.02,-186.65 492.27,-167.44 339,-142 324.08,-139.52 308.21,-136.46 293.06,-133.32"/>
<polygon fill="midnightblue" stroke="midnightblue" points="773.34,-199.88 783.63,-197.36 774.02,-192.91 773.34,-199.88"/>
</g>
<!-- Node6 -->
<g id="node6" class="node">
<title>Node6</title>
<g id="a_node6"><a xlink:href="local__uds__client__endpoint__impl_8hpp.html" target="_top" xlink:title=" ">
<polygon fill="white" stroke="black" points="1361,-89.5 1361,-141.5 1511,-141.5 1511,-89.5 1361,-89.5"/>
<text text-anchor="start" x="1369" y="-129.5" font-family="Helvetica" font-size="10.00">/home/ec2&#45;user/workspace</text>
<text text-anchor="start" x="1369" y="-118.5" font-family="Helvetica" font-size="10.00">/vsomeip/implementation</text>
<text text-anchor="start" x="1369" y="-107.5" font-family="Helvetica" font-size="10.00">/endpoints/include/local</text>
<text text-anchor="middle" x="1436" y="-96.5" font-family="Helvetica" font-size="10.00">_uds_client_endpoint_impl.hpp</text>
</a>
</g>
</g>
<!-- Node2&#45;&gt;Node6 -->
<g id="edge5" class="edge">
<title>Node2&#45;&gt;Node6</title>
<path fill="none" stroke="midnightblue" d="M928.28,-195.41C1047.03,-182.72 1268.83,-157.94 1347,-142 1351.57,-141.07 1356.24,-140.02 1360.94,-138.9"/>
<polygon fill="midnightblue" stroke="midnightblue" points="927.74,-191.94 918.17,-196.48 928.48,-198.9 927.74,-191.94"/>
</g>
<!-- Node8 -->
<g id="node8" class="node">
<title>Node8</title>
<g id="a_node8"><a xlink:href="tcp__client__endpoint__impl_8hpp.html" target="_top" xlink:title=" ">
<polygon fill="white" stroke="black" points="701,-89.5 701,-141.5 841,-141.5 841,-89.5 701,-89.5"/>
<text text-anchor="start" x="709" y="-129.5" font-family="Helvetica" font-size="10.00">/home/ec2&#45;user/workspace</text>
<text text-anchor="start" x="709" y="-118.5" font-family="Helvetica" font-size="10.00">/vsomeip/implementation</text>
<text text-anchor="start" x="709" y="-107.5" font-family="Helvetica" font-size="10.00">/endpoints/include/tcp_client</text>
<text text-anchor="middle" x="771" y="-96.5" font-family="Helvetica" font-size="10.00">_endpoint_impl.hpp</text>
</a>
</g>
</g>
<!-- Node2&#45;&gt;Node8 -->
<g id="edge7" class="edge">
<title>Node2&#45;&gt;Node8</title>
<path fill="none" stroke="midnightblue" d="M820.92,-170.79C812.04,-161.13 802.46,-150.71 794.09,-141.61"/>
<polygon fill="midnightblue" stroke="midnightblue" points="818.52,-173.34 827.86,-178.34 823.67,-168.61 818.52,-173.34"/>
</g>
<!-- Node12 -->
<g id="node12" class="node">
<title>Node12</title>
<g id="a_node12"><a xlink:href="udp__client__endpoint__impl_8hpp.html" target="_top" xlink:title=" ">
<polygon fill="white" stroke="black" points="859.5,-89.5 859.5,-141.5 1002.5,-141.5 1002.5,-89.5 859.5,-89.5"/>
<text text-anchor="start" x="867.5" y="-129.5" font-family="Helvetica" font-size="10.00">/home/ec2&#45;user/workspace</text>
<text text-anchor="start" x="867.5" y="-118.5" font-family="Helvetica" font-size="10.00">/vsomeip/implementation</text>
<text text-anchor="start" x="867.5" y="-107.5" font-family="Helvetica" font-size="10.00">/endpoints/include/udp_client</text>
<text text-anchor="middle" x="931" y="-96.5" font-family="Helvetica" font-size="10.00">_endpoint_impl.hpp</text>
</a>
</g>
</g>
<!-- Node2&#45;&gt;Node12 -->
<g id="edge11" class="edge">
<title>Node2&#45;&gt;Node12</title>
<path fill="none" stroke="midnightblue" d="M881.08,-170.79C889.96,-161.13 899.54,-150.71 907.91,-141.61"/>
<polygon fill="midnightblue" stroke="midnightblue" points="878.33,-168.61 874.14,-178.34 883.48,-173.34 878.33,-168.61"/>
</g>
<!-- Node14 -->
<g id="node14" class="node">
<title>Node14</title>
<g id="a_node14"><a xlink:href="client__endpoint__impl_8cpp.html" target="_top" xlink:title=" ">
<polygon fill="white" stroke="black" points="348,-89.5 348,-141.5 494,-141.5 494,-89.5 348,-89.5"/>
<text text-anchor="start" x="356" y="-129.5" font-family="Helvetica" font-size="10.00">/home/ec2&#45;user/workspace</text>
<text text-anchor="start" x="356" y="-118.5" font-family="Helvetica" font-size="10.00">/vsomeip/implementation</text>
<text text-anchor="start" x="356" y="-107.5" font-family="Helvetica" font-size="10.00">/endpoints/src/client_endpoint</text>
<text text-anchor="middle" x="421" y="-96.5" font-family="Helvetica" font-size="10.00">_impl.cpp</text>
</a>
</g>
</g>
<!-- Node2&#45;&gt;Node14 -->
<g id="edge15" class="edge">
<title>Node2&#45;&gt;Node14</title>
<path fill="none" stroke="midnightblue" d="M773.57,-192.69C702.66,-182.11 595.06,-164.35 503,-142 500.1,-141.3 497.16,-140.55 494.19,-139.76"/>
<polygon fill="midnightblue" stroke="midnightblue" points="773.36,-196.2 783.76,-194.2 774.38,-189.27 773.36,-196.2"/>
</g>
<!-- Node4 -->
<g id="node4" class="node">
<title>Node4</title>
<g id="a_node4"><a xlink:href="endpoint__manager__base_8cpp.html" target="_top" xlink:title=" ">
<polygon fill="white" stroke="black" points="0,-0.5 0,-52.5 134,-52.5 134,-0.5 0,-0.5"/>
<text text-anchor="start" x="8" y="-40.5" font-family="Helvetica" font-size="10.00">/home/ec2&#45;user/workspace</text>
<text text-anchor="start" x="8" y="-29.5" font-family="Helvetica" font-size="10.00">/vsomeip/implementation</text>
<text text-anchor="start" x="8" y="-18.5" font-family="Helvetica" font-size="10.00">/endpoints/src/endpoint</text>
<text text-anchor="middle" x="67" y="-7.5" font-family="Helvetica" font-size="10.00">_manager_base.cpp</text>
</a>
</g>
</g>
<!-- Node3&#45;&gt;Node4 -->
<g id="edge3" class="edge">
<title>Node3&#45;&gt;Node4</title>
<path fill="none" stroke="midnightblue" d="M166.33,-84.35C148.23,-74 128.19,-62.52 110.87,-52.61"/>
<polygon fill="midnightblue" stroke="midnightblue" points="164.62,-87.41 175.04,-89.34 168.1,-81.33 164.62,-87.41"/>
</g>
<!-- Node5 -->
<g id="node5" class="node">
<title>Node5</title>
<g id="a_node5"><a xlink:href="local__tcp__client__endpoint__impl_8cpp.html" target="_top" xlink:title=" ">
<polygon fill="white" stroke="black" points="152,-0.5 152,-52.5 286,-52.5 286,-0.5 152,-0.5"/>
<text text-anchor="start" x="160" y="-40.5" font-family="Helvetica" font-size="10.00">/home/ec2&#45;user/workspace</text>
<text text-anchor="start" x="160" y="-29.5" font-family="Helvetica" font-size="10.00">/vsomeip/implementation</text>
<text text-anchor="start" x="160" y="-18.5" font-family="Helvetica" font-size="10.00">/endpoints/src/local_tcp</text>
<text text-anchor="middle" x="219" y="-7.5" font-family="Helvetica" font-size="10.00">_client_endpoint_impl.cpp</text>
</a>
</g>
</g>
<!-- Node3&#45;&gt;Node5 -->
<g id="edge4" class="edge">
<title>Node3&#45;&gt;Node5</title>
<path fill="none" stroke="midnightblue" d="M219,-79.19C219,-70.28 219,-60.9 219,-52.61"/>
<polygon fill="midnightblue" stroke="midnightblue" points="215.5,-79.34 219,-89.34 222.5,-79.34 215.5,-79.34"/>
</g>
<!-- Node7 -->
<g id="node7" class="node">
<title>Node7</title>
<g id="a_node7"><a xlink:href="local__uds__client__endpoint__impl_8cpp.html" target="_top" xlink:title=" ">
<polygon fill="white" stroke="black" points="1544,-0.5 1544,-52.5 1678,-52.5 1678,-0.5 1544,-0.5"/>
<text text-anchor="start" x="1552" y="-40.5" font-family="Helvetica" font-size="10.00">/home/ec2&#45;user/workspace</text>
<text text-anchor="start" x="1552" y="-29.5" font-family="Helvetica" font-size="10.00">/vsomeip/implementation</text>
<text text-anchor="start" x="1552" y="-18.5" font-family="Helvetica" font-size="10.00">/endpoints/src/local_uds</text>
<text text-anchor="middle" x="1611" y="-7.5" font-family="Helvetica" font-size="10.00">_client_endpoint_impl.cpp</text>
</a>
</g>
</g>
<!-- Node6&#45;&gt;Node7 -->
<g id="edge6" class="edge">
<title>Node6&#45;&gt;Node7</title>
<path fill="none" stroke="midnightblue" d="M1495.79,-84.78C1516.84,-74.31 1540.28,-62.66 1560.5,-52.61"/>
<polygon fill="midnightblue" stroke="midnightblue" points="1494.01,-81.75 1486.62,-89.34 1497.13,-88.02 1494.01,-81.75"/>
</g>
<!-- Node9 -->
<g id="node9" class="node">
<title>Node9</title>
<g id="a_node9"><a xlink:href="endpoint__manager__impl_8cpp.html" target="_top" xlink:title=" ">
<polygon fill="white" stroke="black" points="760,-0.5 760,-52.5 894,-52.5 894,-0.5 760,-0.5"/>
<text text-anchor="start" x="768" y="-40.5" font-family="Helvetica" font-size="10.00">/home/ec2&#45;user/workspace</text>
<text text-anchor="start" x="768" y="-29.5" font-family="Helvetica" font-size="10.00">/vsomeip/implementation</text>
<text text-anchor="start" x="768" y="-18.5" font-family="Helvetica" font-size="10.00">/endpoints/src/endpoint</text>
<text text-anchor="middle" x="827" y="-7.5" font-family="Helvetica" font-size="10.00">_manager_impl.cpp</text>
</a>
</g>
</g>
<!-- Node8&#45;&gt;Node9 -->
<g id="edge8" class="edge">
<title>Node8&#45;&gt;Node9</title>
<path fill="none" stroke="midnightblue" d="M792.61,-80.93C798.67,-71.51 805.15,-61.44 810.84,-52.61"/>
<polygon fill="midnightblue" stroke="midnightblue" points="789.67,-79.03 787.2,-89.34 795.55,-82.82 789.67,-79.03"/>
</g>
<!-- Node10 -->
<g id="node10" class="node">
<title>Node10</title>
<g id="a_node10"><a xlink:href="tcp__client__endpoint__impl_8cpp.html" target="_top" xlink:title=" ">
<polygon fill="white" stroke="black" points="456,-0.5 456,-52.5 590,-52.5 590,-0.5 456,-0.5"/>
<text text-anchor="start" x="464" y="-40.5" font-family="Helvetica" font-size="10.00">/home/ec2&#45;user/workspace</text>
<text text-anchor="start" x="464" y="-29.5" font-family="Helvetica" font-size="10.00">/vsomeip/implementation</text>
<text text-anchor="start" x="464" y="-18.5" font-family="Helvetica" font-size="10.00">/endpoints/src/tcp_client</text>
<text text-anchor="middle" x="523" y="-7.5" font-family="Helvetica" font-size="10.00">_endpoint_impl.cpp</text>
</a>
</g>
</g>
<!-- Node8&#45;&gt;Node10 -->
<g id="edge9" class="edge">
<title>Node8&#45;&gt;Node10</title>
<path fill="none" stroke="midnightblue" d="M691.43,-86.58C658.84,-75.15 621.54,-62.07 590.34,-51.12"/>
<polygon fill="midnightblue" stroke="midnightblue" points="690.33,-89.91 700.93,-89.92 692.65,-83.31 690.33,-89.91"/>
</g>
<!-- Node11 -->
<g id="node11" class="node">
<title>Node11</title>
<g id="a_node11"><a xlink:href="routing__manager__impl_8cpp.html" target="_top" xlink:title=" ">
<polygon fill="white" stroke="black" points="912,-0.5 912,-52.5 1052,-52.5 1052,-0.5 912,-0.5"/>
<text text-anchor="start" x="920" y="-40.5" font-family="Helvetica" font-size="10.00">/home/ec2&#45;user/workspace</text>
<text text-anchor="start" x="920" y="-29.5" font-family="Helvetica" font-size="10.00">/vsomeip/implementation</text>
<text text-anchor="start" x="920" y="-18.5" font-family="Helvetica" font-size="10.00">/routing/src/routing_manager</text>
<text text-anchor="middle" x="982" y="-7.5" font-family="Helvetica" font-size="10.00">_impl.cpp</text>
</a>
</g>
</g>
<!-- Node8&#45;&gt;Node11 -->
<g id="edge10" class="edge">
<title>Node8&#45;&gt;Node11</title>
<path fill="none" stroke="midnightblue" d="M841.15,-85.58C867.1,-74.88 896.28,-62.85 921.32,-52.52"/>
<polygon fill="midnightblue" stroke="midnightblue" points="839.66,-82.41 831.75,-89.45 842.33,-88.88 839.66,-82.41"/>
</g>
<!-- Node12&#45;&gt;Node9 -->
<g id="edge12" class="edge">
<title>Node12&#45;&gt;Node9</title>
<path fill="none" stroke="midnightblue" d="M892.93,-82.65C881.09,-72.75 868.22,-61.98 857.01,-52.61"/>
<polygon fill="midnightblue" stroke="midnightblue" points="891,-85.6 900.92,-89.34 895.49,-80.24 891,-85.6"/>
</g>
<!-- Node12&#45;&gt;Node11 -->
<g id="edge14" class="edge">
<title>Node12&#45;&gt;Node11</title>
<path fill="none" stroke="midnightblue" d="M950.85,-80.64C956.32,-71.31 962.16,-61.35 967.28,-52.61"/>
<polygon fill="midnightblue" stroke="midnightblue" points="947.79,-78.94 945.75,-89.34 953.83,-82.48 947.79,-78.94"/>
</g>
<!-- Node13 -->
<g id="node13" class="node">
<title>Node13</title>
<g id="a_node13"><a xlink:href="udp__client__endpoint__impl_8cpp.html" target="_top" xlink:title=" ">
<polygon fill="white" stroke="black" points="608,-0.5 608,-52.5 742,-52.5 742,-0.5 608,-0.5"/>
<text text-anchor="start" x="616" y="-40.5" font-family="Helvetica" font-size="10.00">/home/ec2&#45;user/workspace</text>
<text text-anchor="start" x="616" y="-29.5" font-family="Helvetica" font-size="10.00">/vsomeip/implementation</text>
<text text-anchor="start" x="616" y="-18.5" font-family="Helvetica" font-size="10.00">/endpoints/src/udp_client</text>
<text text-anchor="middle" x="675" y="-7.5" font-family="Helvetica" font-size="10.00">_endpoint_impl.cpp</text>
</a>
</g>
</g>
<!-- Node12&#45;&gt;Node13 -->
<g id="edge13" class="edge">
<title>Node12&#45;&gt;Node13</title>
<path fill="none" stroke="midnightblue" d="M849.73,-86.88C815.1,-75.11 775.17,-61.54 742.23,-50.35"/>
<polygon fill="midnightblue" stroke="midnightblue" points="848.75,-90.25 859.35,-90.15 851.01,-83.62 848.75,-90.25"/>
</g>
<!-- Node16 -->
<g id="node16" class="node">
<title>Node16</title>
<g id="a_node16"><a xlink:href="local__tcp__server__endpoint__impl_8hpp.html" target="_top" xlink:title=" ">
<polygon fill="white" stroke="black" points="512,-89.5 512,-141.5 664,-141.5 664,-89.5 512,-89.5"/>
<text text-anchor="start" x="520" y="-129.5" font-family="Helvetica" font-size="10.00">/home/ec2&#45;user/workspace</text>
<text text-anchor="start" x="520" y="-118.5" font-family="Helvetica" font-size="10.00">/vsomeip/implementation</text>
<text text-anchor="start" x="520" y="-107.5" font-family="Helvetica" font-size="10.00">/endpoints/include/local</text>
<text text-anchor="middle" x="588" y="-96.5" font-family="Helvetica" font-size="10.00">_tcp_server_endpoint_impl.hpp</text>
</a>
</g>
</g>
<!-- Node15&#45;&gt;Node16 -->
<g id="edge17" class="edge">
<title>Node15&#45;&gt;Node16</title>
<path fill="none" stroke="midnightblue" d="M1105.89,-196.63C1008.84,-187.35 837.24,-168.81 692,-142 682.95,-140.33 673.51,-138.35 664.17,-136.25"/>
<polygon fill="midnightblue" stroke="midnightblue" points="1105.63,-200.12 1115.91,-197.58 1106.29,-193.15 1105.63,-200.12"/>
</g>
<!-- Node18 -->
<g id="node18" class="node">
<title>Node18</title>
<g id="a_node18"><a xlink:href="local__uds__server__endpoint__impl_8hpp.html" target="_top" xlink:title=" ">
<polygon fill="white" stroke="black" points="1531,-89.5 1531,-141.5 1685,-141.5 1685,-89.5 1531,-89.5"/>
<text text-anchor="start" x="1539" y="-129.5" font-family="Helvetica" font-size="10.00">/home/ec2&#45;user/workspace</text>
<text text-anchor="start" x="1539" y="-118.5" font-family="Helvetica" font-size="10.00">/vsomeip/implementation</text>
<text text-anchor="start" x="1539" y="-107.5" font-family="Helvetica" font-size="10.00">/endpoints/include/local</text>
<text text-anchor="middle" x="1608" y="-96.5" font-family="Helvetica" font-size="10.00">_uds_server_endpoint_impl.hpp</text>
</a>
</g>
</g>
<!-- Node15&#45;&gt;Node18 -->
<g id="edge22" class="edge">
<title>Node15&#45;&gt;Node18</title>
<path fill="none" stroke="midnightblue" d="M1260.22,-177.9C1374.84,-152.06 1408.6,-165.69 1520,-142 1523.58,-141.24 1527.22,-140.41 1530.9,-139.53"/>
<polygon fill="midnightblue" stroke="midnightblue" points="1259.31,-174.52 1250.36,-180.17 1260.89,-181.34 1259.31,-174.52"/>
</g>
<!-- Node20 -->
<g id="node20" class="node">
<title>Node20</title>
<g id="a_node20"><a xlink:href="tcp__server__endpoint__impl_8hpp.html" target="_top" xlink:title=" ">
<polygon fill="white" stroke="black" points="1030,-89.5 1030,-141.5 1174,-141.5 1174,-89.5 1030,-89.5"/>
<text text-anchor="start" x="1038" y="-129.5" font-family="Helvetica" font-size="10.00">/home/ec2&#45;user/workspace</text>
<text text-anchor="start" x="1038" y="-118.5" font-family="Helvetica" font-size="10.00">/vsomeip/implementation</text>
<text text-anchor="start" x="1038" y="-107.5" font-family="Helvetica" font-size="10.00">/endpoints/include/tcp_server</text>
<text text-anchor="middle" x="1102" y="-96.5" font-family="Helvetica" font-size="10.00">_endpoint_impl.hpp</text>
</a>
</g>
</g>
<!-- Node15&#45;&gt;Node20 -->
<g id="edge25" class="edge">
<title>Node15&#45;&gt;Node20</title>
<path fill="none" stroke="midnightblue" d="M1152.55,-170.79C1143.55,-161.13 1133.85,-150.71 1125.38,-141.61"/>
<polygon fill="midnightblue" stroke="midnightblue" points="1150.2,-173.4 1159.57,-178.34 1155.32,-168.63 1150.2,-173.4"/>
</g>
<!-- Node23 -->
<g id="node23" class="node">
<title>Node23</title>
<g id="a_node23"><a xlink:href="udp__server__endpoint__impl_8hpp.html" target="_top" xlink:title=" ">
<polygon fill="white" stroke="black" points="1192,-89.5 1192,-141.5 1338,-141.5 1338,-89.5 1192,-89.5"/>
<text text-anchor="start" x="1200" y="-129.5" font-family="Helvetica" font-size="10.00">/home/ec2&#45;user/workspace</text>
<text text-anchor="start" x="1200" y="-118.5" font-family="Helvetica" font-size="10.00">/vsomeip/implementation</text>
<text text-anchor="start" x="1200" y="-107.5" font-family="Helvetica" font-size="10.00">/endpoints/include/udp_server</text>
<text text-anchor="middle" x="1265" y="-96.5" font-family="Helvetica" font-size="10.00">_endpoint_impl.hpp</text>
</a>
</g>
</g>
<!-- Node15&#45;&gt;Node23 -->
<g id="edge30" class="edge">
<title>Node15&#45;&gt;Node23</title>
<path fill="none" stroke="midnightblue" d="M1213.83,-170.79C1222.94,-161.13 1232.76,-150.71 1241.34,-141.61"/>
<polygon fill="midnightblue" stroke="midnightblue" points="1211.03,-168.66 1206.72,-178.34 1216.12,-173.46 1211.03,-168.66"/>
</g>
<!-- Node25 -->
<g id="node25" class="node">
<title>Node25</title>
<g id="a_node25"><a xlink:href="server__endpoint__impl_8cpp.html" target="_top" xlink:title=" ">
<polygon fill="white" stroke="black" points="1703,-89.5 1703,-141.5 1853,-141.5 1853,-89.5 1703,-89.5"/>
<text text-anchor="start" x="1711" y="-129.5" font-family="Helvetica" font-size="10.00">/home/ec2&#45;user/workspace</text>
<text text-anchor="start" x="1711" y="-118.5" font-family="Helvetica" font-size="10.00">/vsomeip/implementation</text>
<text text-anchor="start" x="1711" y="-107.5" font-family="Helvetica" font-size="10.00">/endpoints/src/server_endpoint</text>
<text text-anchor="middle" x="1778" y="-96.5" font-family="Helvetica" font-size="10.00">_impl.cpp</text>
</a>
</g>
</g>
<!-- Node15&#45;&gt;Node25 -->
<g id="edge35" class="edge">
<title>Node15&#45;&gt;Node25</title>
<path fill="none" stroke="midnightblue" d="M1260.38,-177.94C1450.91,-140.19 1506.7,-177.76 1694,-142 1696.84,-141.46 1699.73,-140.85 1702.63,-140.2"/>
<polygon fill="midnightblue" stroke="midnightblue" points="1259.42,-174.56 1250.31,-179.98 1260.81,-181.42 1259.42,-174.56"/>
</g>
<!-- Node16&#45;&gt;Node4 -->
<g id="edge18" class="edge">
<title>Node16&#45;&gt;Node4</title>
<path fill="none" stroke="midnightblue" d="M501.63,-88.9C343.37,-58.92 296.98,-86.09 143,-53 140.14,-52.39 137.24,-51.7 134.33,-50.96"/>
<polygon fill="midnightblue" stroke="midnightblue" points="501.23,-92.39 511.72,-90.86 502.57,-85.52 501.23,-92.39"/>
</g>
<!-- Node16&#45;&gt;Node5 -->
<g id="edge20" class="edge">
<title>Node16&#45;&gt;Node5</title>
<path fill="none" stroke="midnightblue" d="M501.66,-88.81C409.85,-68.03 382.85,-75.2 295,-53 292.17,-52.28 289.29,-51.51 286.39,-50.7"/>
<polygon fill="midnightblue" stroke="midnightblue" points="501.13,-92.28 511.66,-91.13 502.71,-85.46 501.13,-92.28"/>
</g>
<!-- Node16&#45;&gt;Node9 -->
<g id="edge19" class="edge">
<title>Node16&#45;&gt;Node9</title>
<path fill="none" stroke="midnightblue" d="M666.47,-85.94C696.68,-74.94 730.87,-62.49 759.91,-51.92"/>
<polygon fill="midnightblue" stroke="midnightblue" points="665.01,-82.74 656.81,-89.45 667.4,-89.32 665.01,-82.74"/>
</g>
<!-- Node17 -->
<g id="node17" class="node">
<title>Node17</title>
<g id="a_node17"><a xlink:href="local__tcp__server__endpoint__impl_8cpp.html" target="_top" xlink:title=" ">
<polygon fill="white" stroke="black" points="304,-0.5 304,-52.5 438,-52.5 438,-0.5 304,-0.5"/>
<text text-anchor="start" x="312" y="-40.5" font-family="Helvetica" font-size="10.00">/home/ec2&#45;user/workspace</text>
<text text-anchor="start" x="312" y="-29.5" font-family="Helvetica" font-size="10.00">/vsomeip/implementation</text>
<text text-anchor="start" x="312" y="-18.5" font-family="Helvetica" font-size="10.00">/endpoints/src/local_tcp</text>
<text text-anchor="middle" x="371" y="-7.5" font-family="Helvetica" font-size="10.00">_server_endpoint_impl.cpp</text>
</a>
</g>
</g>
<!-- Node16&#45;&gt;Node17 -->
<g id="edge21" class="edge">
<title>Node16&#45;&gt;Node17</title>
<path fill="none" stroke="midnightblue" d="M516.21,-85.72C489.43,-74.98 459.27,-62.89 433.41,-52.52"/>
<polygon fill="midnightblue" stroke="midnightblue" points="514.94,-88.98 525.53,-89.45 517.55,-82.48 514.94,-88.98"/>
</g>
<!-- Node18&#45;&gt;Node7 -->
<g id="edge23" class="edge">
<title>Node18&#45;&gt;Node7</title>
<path fill="none" stroke="midnightblue" d="M1609.22,-79.19C1609.52,-70.28 1609.85,-60.9 1610.13,-52.61"/>
<polygon fill="midnightblue" stroke="midnightblue" points="1605.71,-79.22 1608.87,-89.34 1612.71,-79.46 1605.71,-79.22"/>
</g>
<!-- Node19 -->
<g id="node19" class="node">
<title>Node19</title>
<g id="a_node19"><a xlink:href="local__uds__server__endpoint__impl_8cpp.html" target="_top" xlink:title=" ">
<polygon fill="white" stroke="black" points="1696,-0.5 1696,-52.5 1830,-52.5 1830,-0.5 1696,-0.5"/>
<text text-anchor="start" x="1704" y="-40.5" font-family="Helvetica" font-size="10.00">/home/ec2&#45;user/workspace</text>
<text text-anchor="start" x="1704" y="-29.5" font-family="Helvetica" font-size="10.00">/vsomeip/implementation</text>
<text text-anchor="start" x="1704" y="-18.5" font-family="Helvetica" font-size="10.00">/endpoints/src/local_uds</text>
<text text-anchor="middle" x="1763" y="-7.5" font-family="Helvetica" font-size="10.00">_server_endpoint_impl.cpp</text>
</a>
</g>
</g>
<!-- Node18&#45;&gt;Node19 -->
<g id="edge24" class="edge">
<title>Node18&#45;&gt;Node19</title>
<path fill="none" stroke="midnightblue" d="M1661.71,-84.35C1680.16,-74 1700.61,-62.52 1718.27,-52.61"/>
<polygon fill="midnightblue" stroke="midnightblue" points="1659.84,-81.39 1652.83,-89.34 1663.27,-87.49 1659.84,-81.39"/>
</g>
<!-- Node20&#45;&gt;Node9 -->
<g id="edge26" class="edge">
<title>Node20&#45;&gt;Node9</title>
<path fill="none" stroke="midnightblue" d="M1019.62,-89.53C983.74,-78.52 941.22,-65.32 903,-53 900.09,-52.06 897.11,-51.09 894.11,-50.11"/>
<polygon fill="midnightblue" stroke="midnightblue" points="1018.97,-92.99 1029.56,-92.57 1021.02,-86.29 1018.97,-92.99"/>
</g>
<!-- Node20&#45;&gt;Node11 -->
<g id="edge28" class="edge">
<title>Node20&#45;&gt;Node11</title>
<path fill="none" stroke="midnightblue" d="M1058.85,-83.22C1044.98,-73.16 1029.81,-62.16 1016.63,-52.61"/>
<polygon fill="midnightblue" stroke="midnightblue" points="1057.14,-86.3 1067.29,-89.34 1061.25,-80.63 1057.14,-86.3"/>
</g>
<!-- Node21 -->
<g id="node21" class="node">
<title>Node21</title>
<g id="a_node21"><a xlink:href="tcp__server__endpoint__impl_8cpp.html" target="_top" xlink:title=" ">
<polygon fill="white" stroke="black" points="1070,-0.5 1070,-52.5 1204,-52.5 1204,-0.5 1070,-0.5"/>
<text text-anchor="start" x="1078" y="-40.5" font-family="Helvetica" font-size="10.00">/home/ec2&#45;user/workspace</text>
<text text-anchor="start" x="1078" y="-29.5" font-family="Helvetica" font-size="10.00">/vsomeip/implementation</text>
<text text-anchor="start" x="1078" y="-18.5" font-family="Helvetica" font-size="10.00">/endpoints/src/tcp_server</text>
<text text-anchor="middle" x="1137" y="-7.5" font-family="Helvetica" font-size="10.00">_endpoint_impl.cpp</text>
</a>
</g>
</g>
<!-- Node20&#45;&gt;Node21 -->
<g id="edge27" class="edge">
<title>Node20&#45;&gt;Node21</title>
<path fill="none" stroke="midnightblue" d="M1115.97,-79.77C1119.62,-70.69 1123.49,-61.08 1126.9,-52.61"/>
<polygon fill="midnightblue" stroke="midnightblue" points="1112.61,-78.75 1112.12,-89.34 1119.1,-81.36 1112.61,-78.75"/>
</g>
<!-- Node22 -->
<g id="node22" class="node">
<title>Node22</title>
<g id="a_node22"><a xlink:href="service__discovery__impl_8cpp.html" target="_top" xlink:title=" ">
<polygon fill="white" stroke="black" points="1222.5,-0.5 1222.5,-52.5 1373.5,-52.5 1373.5,-0.5 1222.5,-0.5"/>
<text text-anchor="start" x="1230.5" y="-40.5" font-family="Helvetica" font-size="10.00">/home/ec2&#45;user/workspace</text>
<text text-anchor="start" x="1230.5" y="-29.5" font-family="Helvetica" font-size="10.00">/vsomeip/implementation</text>
<text text-anchor="start" x="1230.5" y="-18.5" font-family="Helvetica" font-size="10.00">/service_discovery/src/service</text>
<text text-anchor="middle" x="1298" y="-7.5" font-family="Helvetica" font-size="10.00">_discovery_impl.cpp</text>
</a>
</g>
</g>
<!-- Node20&#45;&gt;Node22 -->
<g id="edge29" class="edge">
<title>Node20&#45;&gt;Node22</title>
<path fill="none" stroke="midnightblue" d="M1167.8,-85.29C1191.74,-74.67 1218.57,-62.76 1241.63,-52.52"/>
<polygon fill="midnightblue" stroke="midnightblue" points="1166.15,-82.2 1158.43,-89.45 1168.99,-88.59 1166.15,-82.2"/>
</g>
<!-- Node23&#45;&gt;Node9 -->
<g id="edge31" class="edge">
<title>Node23&#45;&gt;Node9</title>
<path fill="none" stroke="midnightblue" d="M1182.02,-88.96C1058.57,-63.2 1022.18,-80.38 903,-53 900.15,-52.35 897.26,-51.63 894.35,-50.86"/>
<polygon fill="midnightblue" stroke="midnightblue" points="1181.34,-92.39 1191.85,-91.06 1182.8,-85.55 1181.34,-92.39"/>
</g>
<!-- Node23&#45;&gt;Node11 -->
<g id="edge33" class="edge">
<title>Node23&#45;&gt;Node11</title>
<path fill="none" stroke="midnightblue" d="M1181.82,-88.66C1127.26,-72.25 1112.06,-68.77 1061,-53 1058.11,-52.11 1055.16,-51.19 1052.18,-50.26"/>
<polygon fill="midnightblue" stroke="midnightblue" points="1181.11,-92.11 1191.7,-91.65 1183.14,-85.4 1181.11,-92.11"/>
</g>
<!-- Node23&#45;&gt;Node22 -->
<g id="edge34" class="edge">
<title>Node23&#45;&gt;Node22</title>
<path fill="none" stroke="midnightblue" d="M1278.17,-79.77C1281.62,-70.69 1285.26,-61.08 1288.48,-52.61"/>
<polygon fill="midnightblue" stroke="midnightblue" points="1274.82,-78.74 1274.54,-89.34 1281.36,-81.23 1274.82,-78.74"/>
</g>
<!-- Node24 -->
<g id="node24" class="node">
<title>Node24</title>
<g id="a_node24"><a xlink:href="udp__server__endpoint__impl_8cpp.html" target="_top" xlink:title=" ">
<polygon fill="white" stroke="black" points="1392,-0.5 1392,-52.5 1526,-52.5 1526,-0.5 1392,-0.5"/>
<text text-anchor="start" x="1400" y="-40.5" font-family="Helvetica" font-size="10.00">/home/ec2&#45;user/workspace</text>
<text text-anchor="start" x="1400" y="-29.5" font-family="Helvetica" font-size="10.00">/vsomeip/implementation</text>
<text text-anchor="start" x="1400" y="-18.5" font-family="Helvetica" font-size="10.00">/endpoints/src/udp_server</text>
<text text-anchor="middle" x="1459" y="-7.5" font-family="Helvetica" font-size="10.00">_endpoint_impl.cpp</text>
</a>
</g>
</g>
<!-- Node23&#45;&gt;Node24 -->
<g id="edge32" class="edge">
<title>Node23&#45;&gt;Node24</title>
<path fill="none" stroke="midnightblue" d="M1330.12,-85.29C1353.83,-74.67 1380.39,-62.76 1403.21,-52.52"/>
<polygon fill="midnightblue" stroke="midnightblue" points="1328.54,-82.17 1320.85,-89.45 1331.41,-88.55 1328.54,-82.17"/>
</g>
</g>
</svg>
