<?xml version="1.0" encoding="UTF-8" standalone="no"?>
<!DOCTYPE svg PUBLIC "-//W3C//DTD SVG 1.1//EN"
 "http://www.w3.org/Graphics/SVG/1.1/DTD/svg11.dtd">
<!-- Generated by graphviz version 2.44.0 (0)
 -->
<!-- Title: /home/ec2&#45;user/workspace/vsomeip/implementation/endpoints/include/buffer.hpp Pages: 1 -->
<svg width="2456pt" height="406pt"
 viewBox="0.00 0.00 2455.50 406.00" xmlns="http://www.w3.org/2000/svg" xmlns:xlink="http://www.w3.org/1999/xlink">
<g id="graph0" class="graph" transform="scale(1 1) rotate(0) translate(4 402)">
<title>/home/ec2&#45;user/workspace/vsomeip/implementation/endpoints/include/buffer.hpp</title>
<polygon fill="white" stroke="transparent" points="-4,4 -4,-402 2451.5,-402 2451.5,4 -4,4"/>
<!-- Node1 -->
<g id="node1" class="node">
<title>Node1</title>
<g id="a_node1"><a xlink:title=" ">
<polygon fill="#bfbfbf" stroke="black" points="985.5,-356.5 985.5,-397.5 1126.5,-397.5 1126.5,-356.5 985.5,-356.5"/>
<text text-anchor="start" x="993.5" y="-385.5" font-family="Helvetica" font-size="10.00">/home/ec2&#45;user/workspace</text>
<text text-anchor="start" x="993.5" y="-374.5" font-family="Helvetica" font-size="10.00">/vsomeip/implementation</text>
<text text-anchor="middle" x="1056" y="-363.5" font-family="Helvetica" font-size="10.00">/endpoints/include/buffer.hpp</text>
</a>
</g>
</g>
<!-- Node2 -->
<g id="node2" class="node">
<title>Node2</title>
<g id="a_node2"><a xlink:href="client__endpoint__impl_8hpp.html" target="_top" xlink:title=" ">
<polygon fill="white" stroke="black" points="854,-178.5 854,-230.5 988,-230.5 988,-178.5 854,-178.5"/>
<text text-anchor="start" x="862" y="-218.5" font-family="Helvetica" font-size="10.00">/home/ec2&#45;user/workspace</text>
<text text-anchor="start" x="862" y="-207.5" font-family="Helvetica" font-size="10.00">/vsomeip/implementation</text>
<text text-anchor="start" x="862" y="-196.5" font-family="Helvetica" font-size="10.00">/endpoints/include/client</text>
<text text-anchor="middle" x="921" y="-185.5" font-family="Helvetica" font-size="10.00">_endpoint_impl.hpp</text>
</a>
</g>
</g>
<!-- Node1&#45;&gt;Node2 -->
<g id="edge1" class="edge">
<title>Node1&#45;&gt;Node2</title>
<path fill="none" stroke="midnightblue" d="M1044.87,-347.1C1035.05,-323.9 1019.16,-291.3 999,-267 987.77,-253.46 973.11,-240.95 959.53,-230.79"/>
<polygon fill="midnightblue" stroke="midnightblue" points="1041.67,-348.5 1048.71,-356.41 1048.14,-345.83 1041.67,-348.5"/>
</g>
<!-- Node15 -->
<g id="node15" class="node">
<title>Node15</title>
<g id="a_node15"><a xlink:href="endpoint__impl_8hpp.html" target="_top" xlink:title=" ">
<polygon fill="white" stroke="black" points="855.5,-267.5 855.5,-319.5 990.5,-319.5 990.5,-267.5 855.5,-267.5"/>
<text text-anchor="start" x="863.5" y="-307.5" font-family="Helvetica" font-size="10.00">/home/ec2&#45;user/workspace</text>
<text text-anchor="start" x="863.5" y="-296.5" font-family="Helvetica" font-size="10.00">/vsomeip/implementation</text>
<text text-anchor="start" x="863.5" y="-285.5" font-family="Helvetica" font-size="10.00">/endpoints/include/endpoint</text>
<text text-anchor="middle" x="923" y="-274.5" font-family="Helvetica" font-size="10.00">_impl.hpp</text>
</a>
</g>
</g>
<!-- Node1&#45;&gt;Node15 -->
<g id="edge16" class="edge">
<title>Node1&#45;&gt;Node15</title>
<path fill="none" stroke="midnightblue" d="M1015.4,-351.12C999.16,-341.17 980.47,-329.72 964.17,-319.73"/>
<polygon fill="midnightblue" stroke="midnightblue" points="1013.79,-354.24 1024.14,-356.48 1017.45,-348.27 1013.79,-354.24"/>
</g>
<!-- Node16 -->
<g id="node16" class="node">
<title>Node16</title>
<g id="a_node16"><a xlink:href="server__endpoint__impl_8hpp.html" target="_top" xlink:title=" ">
<polygon fill="white" stroke="black" points="1006,-178.5 1006,-230.5 1140,-230.5 1140,-178.5 1006,-178.5"/>
<text text-anchor="start" x="1014" y="-218.5" font-family="Helvetica" font-size="10.00">/home/ec2&#45;user/workspace</text>
<text text-anchor="start" x="1014" y="-207.5" font-family="Helvetica" font-size="10.00">/vsomeip/implementation</text>
<text text-anchor="start" x="1014" y="-196.5" font-family="Helvetica" font-size="10.00">/endpoints/include/server</text>
<text text-anchor="middle" x="1073" y="-185.5" font-family="Helvetica" font-size="10.00">_endpoint_impl.hpp</text>
</a>
</g>
</g>
<!-- Node1&#45;&gt;Node16 -->
<g id="edge41" class="edge">
<title>Node1&#45;&gt;Node16</title>
<path fill="none" stroke="midnightblue" d="M1058.98,-346.13C1062.25,-313.36 1067.43,-261.36 1070.5,-230.61"/>
<polygon fill="midnightblue" stroke="midnightblue" points="1055.46,-346.14 1057.95,-356.44 1062.43,-346.84 1055.46,-346.14"/>
</g>
<!-- Node17 -->
<g id="node17" class="node">
<title>Node17</title>
<g id="a_node17"><a xlink:href="local__tcp__server__endpoint__impl_8hpp.html" target="_top" xlink:title=" ">
<polygon fill="white" stroke="black" points="506,-89.5 506,-141.5 658,-141.5 658,-89.5 506,-89.5"/>
<text text-anchor="start" x="514" y="-129.5" font-family="Helvetica" font-size="10.00">/home/ec2&#45;user/workspace</text>
<text text-anchor="start" x="514" y="-118.5" font-family="Helvetica" font-size="10.00">/vsomeip/implementation</text>
<text text-anchor="start" x="514" y="-107.5" font-family="Helvetica" font-size="10.00">/endpoints/include/local</text>
<text text-anchor="middle" x="582" y="-96.5" font-family="Helvetica" font-size="10.00">_tcp_server_endpoint_impl.hpp</text>
</a>
</g>
</g>
<!-- Node1&#45;&gt;Node17 -->
<g id="edge39" class="edge">
<title>Node1&#45;&gt;Node17</title>
<path fill="none" stroke="midnightblue" d="M975.49,-359.83C935.69,-350.52 887.44,-337.21 846,-320 773.35,-289.82 754.96,-279.47 693,-231 658.33,-203.88 623.91,-166.28 602.8,-141.68"/>
<polygon fill="midnightblue" stroke="midnightblue" points="974.89,-363.29 985.42,-362.12 976.46,-356.46 974.89,-363.29"/>
</g>
<!-- Node19 -->
<g id="node19" class="node">
<title>Node19</title>
<g id="a_node19"><a xlink:href="local__uds__server__endpoint__impl_8hpp.html" target="_top" xlink:title=" ">
<polygon fill="white" stroke="black" points="0,-89.5 0,-141.5 154,-141.5 154,-89.5 0,-89.5"/>
<text text-anchor="start" x="8" y="-129.5" font-family="Helvetica" font-size="10.00">/home/ec2&#45;user/workspace</text>
<text text-anchor="start" x="8" y="-118.5" font-family="Helvetica" font-size="10.00">/vsomeip/implementation</text>
<text text-anchor="start" x="8" y="-107.5" font-family="Helvetica" font-size="10.00">/endpoints/include/local</text>
<text text-anchor="middle" x="77" y="-96.5" font-family="Helvetica" font-size="10.00">_uds_server_endpoint_impl.hpp</text>
</a>
</g>
</g>
<!-- Node1&#45;&gt;Node19 -->
<g id="edge40" class="edge">
<title>Node1&#45;&gt;Node19</title>
<path fill="none" stroke="midnightblue" d="M975.26,-364.62C910.64,-354.83 817.92,-339.26 738,-320 520.01,-267.46 268.3,-183.28 148.08,-141.58"/>
<polygon fill="midnightblue" stroke="midnightblue" points="974.97,-368.12 985.38,-366.14 976.01,-361.19 974.97,-368.12"/>
</g>
<!-- Node28 -->
<g id="node28" class="node">
<title>Node28</title>
<g id="a_node28"><a xlink:href="tp_8hpp.html" target="_top" xlink:title=" ">
<polygon fill="white" stroke="black" points="1536,-273 1536,-314 1670,-314 1670,-273 1536,-273"/>
<text text-anchor="start" x="1544" y="-302" font-family="Helvetica" font-size="10.00">/home/ec2&#45;user/workspace</text>
<text text-anchor="start" x="1544" y="-291" font-family="Helvetica" font-size="10.00">/vsomeip/implementation</text>
<text text-anchor="middle" x="1603" y="-280" font-family="Helvetica" font-size="10.00">/endpoints/include/tp.hpp</text>
</a>
</g>
</g>
<!-- Node1&#45;&gt;Node28 -->
<g id="edge42" class="edge">
<title>Node1&#45;&gt;Node28</title>
<path fill="none" stroke="midnightblue" d="M1136.89,-363.95C1245.16,-347.82 1435.23,-319.5 1535.96,-304.49"/>
<polygon fill="midnightblue" stroke="midnightblue" points="1136.05,-360.53 1126.67,-365.47 1137.08,-367.46 1136.05,-360.53"/>
</g>
<!-- Node32 -->
<g id="node32" class="node">
<title>Node32</title>
<g id="a_node32"><a xlink:href="tp__message_8hpp.html" target="_top" xlink:title=" ">
<polygon fill="white" stroke="black" points="1722,-273 1722,-314 1892,-314 1892,-273 1722,-273"/>
<text text-anchor="start" x="1730" y="-302" font-family="Helvetica" font-size="10.00">/home/ec2&#45;user/workspace</text>
<text text-anchor="start" x="1730" y="-291" font-family="Helvetica" font-size="10.00">/vsomeip/implementation</text>
<text text-anchor="middle" x="1807" y="-280" font-family="Helvetica" font-size="10.00">/endpoints/include/tp_message.hpp</text>
</a>
</g>
</g>
<!-- Node1&#45;&gt;Node32 -->
<g id="edge50" class="edge">
<title>Node1&#45;&gt;Node32</title>
<path fill="none" stroke="midnightblue" d="M1136.96,-371.5C1256.11,-364.24 1485.52,-347.89 1679,-320 1692.9,-318 1707.58,-315.47 1721.84,-312.78"/>
<polygon fill="midnightblue" stroke="midnightblue" points="1136.6,-368.01 1126.83,-372.11 1137.02,-375 1136.6,-368.01"/>
</g>
<!-- Node34 -->
<g id="node34" class="node">
<title>Node34</title>
<g id="a_node34"><a xlink:href="connector__impl_8hpp.html" target="_top" xlink:title=" ">
<polygon fill="white" stroke="black" points="2142,-267.5 2142,-319.5 2276,-319.5 2276,-267.5 2142,-267.5"/>
<text text-anchor="start" x="2150" y="-307.5" font-family="Helvetica" font-size="10.00">/home/ec2&#45;user/workspace</text>
<text text-anchor="start" x="2150" y="-296.5" font-family="Helvetica" font-size="10.00">/vsomeip/implementation</text>
<text text-anchor="start" x="2150" y="-285.5" font-family="Helvetica" font-size="10.00">/tracing/include/connector</text>
<text text-anchor="middle" x="2209" y="-274.5" font-family="Helvetica" font-size="10.00">_impl.hpp</text>
</a>
</g>
</g>
<!-- Node1&#45;&gt;Node34 -->
<g id="edge56" class="edge">
<title>Node1&#45;&gt;Node34</title>
<path fill="none" stroke="midnightblue" d="M1136.77,-371.09C1287.19,-361.85 1620.44,-340.91 1901,-320 1983.94,-313.82 2079.35,-305.77 2141.73,-300.39"/>
<polygon fill="midnightblue" stroke="midnightblue" points="1136.46,-367.6 1126.69,-371.71 1136.89,-374.59 1136.46,-367.6"/>
</g>
<!-- Node3 -->
<g id="node3" class="node">
<title>Node3</title>
<g id="a_node3"><a xlink:href="local__tcp__client__endpoint__impl_8hpp.html" target="_top" xlink:title=" ">
<polygon fill="white" stroke="black" points="340,-89.5 340,-141.5 488,-141.5 488,-89.5 340,-89.5"/>
<text text-anchor="start" x="348" y="-129.5" font-family="Helvetica" font-size="10.00">/home/ec2&#45;user/workspace</text>
<text text-anchor="start" x="348" y="-118.5" font-family="Helvetica" font-size="10.00">/vsomeip/implementation</text>
<text text-anchor="start" x="348" y="-107.5" font-family="Helvetica" font-size="10.00">/endpoints/include/local</text>
<text text-anchor="middle" x="414" y="-96.5" font-family="Helvetica" font-size="10.00">_tcp_client_endpoint_impl.hpp</text>
</a>
</g>
</g>
<!-- Node2&#45;&gt;Node3 -->
<g id="edge2" class="edge">
<title>Node2&#45;&gt;Node3</title>
<path fill="none" stroke="midnightblue" d="M843.48,-177.88C691.11,-146.24 646.1,-172.31 497,-142 494.05,-141.4 491.05,-140.74 488.03,-140.03"/>
<polygon fill="midnightblue" stroke="midnightblue" points="843.16,-181.39 853.67,-180.05 844.62,-174.55 843.16,-181.39"/>
</g>
<!-- Node6 -->
<g id="node6" class="node">
<title>Node6</title>
<g id="a_node6"><a xlink:href="local__uds__client__endpoint__impl_8hpp.html" target="_top" xlink:title=" ">
<polygon fill="white" stroke="black" points="172,-89.5 172,-141.5 322,-141.5 322,-89.5 172,-89.5"/>
<text text-anchor="start" x="180" y="-129.5" font-family="Helvetica" font-size="10.00">/home/ec2&#45;user/workspace</text>
<text text-anchor="start" x="180" y="-118.5" font-family="Helvetica" font-size="10.00">/vsomeip/implementation</text>
<text text-anchor="start" x="180" y="-107.5" font-family="Helvetica" font-size="10.00">/endpoints/include/local</text>
<text text-anchor="middle" x="247" y="-96.5" font-family="Helvetica" font-size="10.00">_uds_client_endpoint_impl.hpp</text>
</a>
</g>
</g>
<!-- Node2&#45;&gt;Node6 -->
<g id="edge5" class="edge">
<title>Node2&#45;&gt;Node6</title>
<path fill="none" stroke="midnightblue" d="M843.55,-177.94C618.5,-134.67 552.91,-182.91 331,-142 328.15,-141.47 325.26,-140.89 322.36,-140.25"/>
<polygon fill="midnightblue" stroke="midnightblue" points="843.21,-181.44 853.7,-179.93 844.56,-174.57 843.21,-181.44"/>
</g>
<!-- Node8 -->
<g id="node8" class="node">
<title>Node8</title>
<g id="a_node8"><a xlink:href="tcp__client__endpoint__impl_8hpp.html" target="_top" xlink:title=" ">
<polygon fill="white" stroke="black" points="840,-89.5 840,-141.5 980,-141.5 980,-89.5 840,-89.5"/>
<text text-anchor="start" x="848" y="-129.5" font-family="Helvetica" font-size="10.00">/home/ec2&#45;user/workspace</text>
<text text-anchor="start" x="848" y="-118.5" font-family="Helvetica" font-size="10.00">/vsomeip/implementation</text>
<text text-anchor="start" x="848" y="-107.5" font-family="Helvetica" font-size="10.00">/endpoints/include/tcp_client</text>
<text text-anchor="middle" x="910" y="-96.5" font-family="Helvetica" font-size="10.00">_endpoint_impl.hpp</text>
</a>
</g>
</g>
<!-- Node2&#45;&gt;Node8 -->
<g id="edge7" class="edge">
<title>Node2&#45;&gt;Node8</title>
<path fill="none" stroke="midnightblue" d="M916.54,-168.19C915.41,-159.28 914.22,-149.9 913.17,-141.61"/>
<polygon fill="midnightblue" stroke="midnightblue" points="913.09,-168.85 917.82,-178.34 920.04,-167.98 913.09,-168.85"/>
</g>
<!-- Node12 -->
<g id="node12" class="node">
<title>Node12</title>
<g id="a_node12"><a xlink:href="udp__client__endpoint__impl_8hpp.html" target="_top" xlink:title=" ">
<polygon fill="white" stroke="black" points="1328.5,-89.5 1328.5,-141.5 1471.5,-141.5 1471.5,-89.5 1328.5,-89.5"/>
<text text-anchor="start" x="1336.5" y="-129.5" font-family="Helvetica" font-size="10.00">/home/ec2&#45;user/workspace</text>
<text text-anchor="start" x="1336.5" y="-118.5" font-family="Helvetica" font-size="10.00">/vsomeip/implementation</text>
<text text-anchor="start" x="1336.5" y="-107.5" font-family="Helvetica" font-size="10.00">/endpoints/include/udp_client</text>
<text text-anchor="middle" x="1400" y="-96.5" font-family="Helvetica" font-size="10.00">_endpoint_impl.hpp</text>
</a>
</g>
</g>
<!-- Node2&#45;&gt;Node12 -->
<g id="edge11" class="edge">
<title>Node2&#45;&gt;Node12</title>
<path fill="none" stroke="midnightblue" d="M998.23,-177.93C1139.48,-148.01 1181.27,-171.09 1319,-142 1322.03,-141.36 1325.11,-140.65 1328.2,-139.9"/>
<polygon fill="midnightblue" stroke="midnightblue" points="997.37,-174.54 988.34,-180.08 998.85,-181.38 997.37,-174.54"/>
</g>
<!-- Node14 -->
<g id="node14" class="node">
<title>Node14</title>
<g id="a_node14"><a xlink:href="client__endpoint__impl_8cpp.html" target="_top" xlink:title=" ">
<polygon fill="white" stroke="black" points="676,-89.5 676,-141.5 822,-141.5 822,-89.5 676,-89.5"/>
<text text-anchor="start" x="684" y="-129.5" font-family="Helvetica" font-size="10.00">/home/ec2&#45;user/workspace</text>
<text text-anchor="start" x="684" y="-118.5" font-family="Helvetica" font-size="10.00">/vsomeip/implementation</text>
<text text-anchor="start" x="684" y="-107.5" font-family="Helvetica" font-size="10.00">/endpoints/src/client_endpoint</text>
<text text-anchor="middle" x="749" y="-96.5" font-family="Helvetica" font-size="10.00">_impl.cpp</text>
</a>
</g>
</g>
<!-- Node2&#45;&gt;Node14 -->
<g id="edge15" class="edge">
<title>Node2&#45;&gt;Node14</title>
<path fill="none" stroke="midnightblue" d="M862.24,-173.78C841.54,-163.31 818.5,-151.66 798.64,-141.61"/>
<polygon fill="midnightblue" stroke="midnightblue" points="860.75,-176.95 871.25,-178.34 863.91,-170.7 860.75,-176.95"/>
</g>
<!-- Node4 -->
<g id="node4" class="node">
<title>Node4</title>
<g id="a_node4"><a xlink:href="endpoint__manager__base_8cpp.html" target="_top" xlink:title=" ">
<polygon fill="white" stroke="black" points="347,-0.5 347,-52.5 481,-52.5 481,-0.5 347,-0.5"/>
<text text-anchor="start" x="355" y="-40.5" font-family="Helvetica" font-size="10.00">/home/ec2&#45;user/workspace</text>
<text text-anchor="start" x="355" y="-29.5" font-family="Helvetica" font-size="10.00">/vsomeip/implementation</text>
<text text-anchor="start" x="355" y="-18.5" font-family="Helvetica" font-size="10.00">/endpoints/src/endpoint</text>
<text text-anchor="middle" x="414" y="-7.5" font-family="Helvetica" font-size="10.00">_manager_base.cpp</text>
</a>
</g>
</g>
<!-- Node3&#45;&gt;Node4 -->
<g id="edge3" class="edge">
<title>Node3&#45;&gt;Node4</title>
<path fill="none" stroke="midnightblue" d="M414,-79.19C414,-70.28 414,-60.9 414,-52.61"/>
<polygon fill="midnightblue" stroke="midnightblue" points="410.5,-79.34 414,-89.34 417.5,-79.34 410.5,-79.34"/>
</g>
<!-- Node5 -->
<g id="node5" class="node">
<title>Node5</title>
<g id="a_node5"><a xlink:href="local__tcp__client__endpoint__impl_8cpp.html" target="_top" xlink:title=" ">
<polygon fill="white" stroke="black" points="499,-0.5 499,-52.5 633,-52.5 633,-0.5 499,-0.5"/>
<text text-anchor="start" x="507" y="-40.5" font-family="Helvetica" font-size="10.00">/home/ec2&#45;user/workspace</text>
<text text-anchor="start" x="507" y="-29.5" font-family="Helvetica" font-size="10.00">/vsomeip/implementation</text>
<text text-anchor="start" x="507" y="-18.5" font-family="Helvetica" font-size="10.00">/endpoints/src/local_tcp</text>
<text text-anchor="middle" x="566" y="-7.5" font-family="Helvetica" font-size="10.00">_client_endpoint_impl.cpp</text>
</a>
</g>
</g>
<!-- Node3&#45;&gt;Node5 -->
<g id="edge4" class="edge">
<title>Node3&#45;&gt;Node5</title>
<path fill="none" stroke="midnightblue" d="M466.67,-84.35C484.77,-74 504.81,-62.52 522.13,-52.61"/>
<polygon fill="midnightblue" stroke="midnightblue" points="464.9,-81.33 457.96,-89.34 468.38,-87.41 464.9,-81.33"/>
</g>
<!-- Node7 -->
<g id="node7" class="node">
<title>Node7</title>
<g id="a_node7"><a xlink:href="local__uds__client__endpoint__impl_8cpp.html" target="_top" xlink:title=" ">
<polygon fill="white" stroke="black" points="171,-0.5 171,-52.5 305,-52.5 305,-0.5 171,-0.5"/>
<text text-anchor="start" x="179" y="-40.5" font-family="Helvetica" font-size="10.00">/home/ec2&#45;user/workspace</text>
<text text-anchor="start" x="179" y="-29.5" font-family="Helvetica" font-size="10.00">/vsomeip/implementation</text>
<text text-anchor="start" x="179" y="-18.5" font-family="Helvetica" font-size="10.00">/endpoints/src/local_uds</text>
<text text-anchor="middle" x="238" y="-7.5" font-family="Helvetica" font-size="10.00">_client_endpoint_impl.cpp</text>
</a>
</g>
</g>
<!-- Node6&#45;&gt;Node7 -->
<g id="edge6" class="edge">
<title>Node6&#45;&gt;Node7</title>
<path fill="none" stroke="midnightblue" d="M243.35,-79.19C242.43,-70.28 241.46,-60.9 240.6,-52.61"/>
<polygon fill="midnightblue" stroke="midnightblue" points="239.89,-79.75 244.4,-89.34 246.85,-79.03 239.89,-79.75"/>
</g>
<!-- Node9 -->
<g id="node9" class="node">
<title>Node9</title>
<g id="a_node9"><a xlink:href="endpoint__manager__impl_8cpp.html" target="_top" xlink:title=" ">
<polygon fill="white" stroke="black" points="965,-0.5 965,-52.5 1099,-52.5 1099,-0.5 965,-0.5"/>
<text text-anchor="start" x="973" y="-40.5" font-family="Helvetica" font-size="10.00">/home/ec2&#45;user/workspace</text>
<text text-anchor="start" x="973" y="-29.5" font-family="Helvetica" font-size="10.00">/vsomeip/implementation</text>
<text text-anchor="start" x="973" y="-18.5" font-family="Helvetica" font-size="10.00">/endpoints/src/endpoint</text>
<text text-anchor="middle" x="1032" y="-7.5" font-family="Helvetica" font-size="10.00">_manager_impl.cpp</text>
</a>
</g>
</g>
<!-- Node8&#45;&gt;Node9 -->
<g id="edge8" class="edge">
<title>Node8&#45;&gt;Node9</title>
<path fill="none" stroke="midnightblue" d="M953.47,-83.5C967.67,-73.37 983.27,-62.25 996.79,-52.61"/>
<polygon fill="midnightblue" stroke="midnightblue" points="951.4,-80.68 945.29,-89.34 955.46,-86.38 951.4,-80.68"/>
</g>
<!-- Node10 -->
<g id="node10" class="node">
<title>Node10</title>
<g id="a_node10"><a xlink:href="tcp__client__endpoint__impl_8cpp.html" target="_top" xlink:title=" ">
<polygon fill="white" stroke="black" points="813,-0.5 813,-52.5 947,-52.5 947,-0.5 813,-0.5"/>
<text text-anchor="start" x="821" y="-40.5" font-family="Helvetica" font-size="10.00">/home/ec2&#45;user/workspace</text>
<text text-anchor="start" x="821" y="-29.5" font-family="Helvetica" font-size="10.00">/vsomeip/implementation</text>
<text text-anchor="start" x="821" y="-18.5" font-family="Helvetica" font-size="10.00">/endpoints/src/tcp_client</text>
<text text-anchor="middle" x="880" y="-7.5" font-family="Helvetica" font-size="10.00">_endpoint_impl.cpp</text>
</a>
</g>
</g>
<!-- Node8&#45;&gt;Node10 -->
<g id="edge9" class="edge">
<title>Node8&#45;&gt;Node10</title>
<path fill="none" stroke="midnightblue" d="M898.02,-79.77C894.89,-70.69 891.58,-61.08 888.66,-52.61"/>
<polygon fill="midnightblue" stroke="midnightblue" points="894.75,-81.02 901.32,-89.34 901.37,-78.74 894.75,-81.02"/>
</g>
<!-- Node11 -->
<g id="node11" class="node">
<title>Node11</title>
<g id="a_node11"><a xlink:href="routing__manager__impl_8cpp.html" target="_top" xlink:title=" ">
<polygon fill="white" stroke="black" points="1269,-0.5 1269,-52.5 1409,-52.5 1409,-0.5 1269,-0.5"/>
<text text-anchor="start" x="1277" y="-40.5" font-family="Helvetica" font-size="10.00">/home/ec2&#45;user/workspace</text>
<text text-anchor="start" x="1277" y="-29.5" font-family="Helvetica" font-size="10.00">/vsomeip/implementation</text>
<text text-anchor="start" x="1277" y="-18.5" font-family="Helvetica" font-size="10.00">/routing/src/routing_manager</text>
<text text-anchor="middle" x="1339" y="-7.5" font-family="Helvetica" font-size="10.00">_impl.cpp</text>
</a>
</g>
</g>
<!-- Node8&#45;&gt;Node11 -->
<g id="edge10" class="edge">
<title>Node8&#45;&gt;Node11</title>
<path fill="none" stroke="midnightblue" d="M989.92,-88.98C1109.37,-63.12 1144.61,-79.06 1260,-53 1262.95,-52.33 1265.95,-51.6 1268.97,-50.83"/>
<polygon fill="midnightblue" stroke="midnightblue" points="989.03,-85.59 980.03,-91.17 990.55,-92.42 989.03,-85.59"/>
</g>
<!-- Node12&#45;&gt;Node9 -->
<g id="edge12" class="edge">
<title>Node12&#45;&gt;Node9</title>
<path fill="none" stroke="midnightblue" d="M1318.27,-88.98C1224.71,-67.26 1197.2,-75.43 1108,-53 1105.17,-52.29 1102.28,-51.52 1099.38,-50.71"/>
<polygon fill="midnightblue" stroke="midnightblue" points="1317.62,-92.42 1328.15,-91.32 1319.23,-85.61 1317.62,-92.42"/>
</g>
<!-- Node12&#45;&gt;Node11 -->
<g id="edge14" class="edge">
<title>Node12&#45;&gt;Node11</title>
<path fill="none" stroke="midnightblue" d="M1376.46,-80.93C1369.86,-71.51 1362.8,-61.44 1356.6,-52.61"/>
<polygon fill="midnightblue" stroke="midnightblue" points="1373.75,-83.16 1382.36,-89.34 1379.48,-79.14 1373.75,-83.16"/>
</g>
<!-- Node13 -->
<g id="node13" class="node">
<title>Node13</title>
<g id="a_node13"><a xlink:href="udp__client__endpoint__impl_8cpp.html" target="_top" xlink:title=" ">
<polygon fill="white" stroke="black" points="1597,-0.5 1597,-52.5 1731,-52.5 1731,-0.5 1597,-0.5"/>
<text text-anchor="start" x="1605" y="-40.5" font-family="Helvetica" font-size="10.00">/home/ec2&#45;user/workspace</text>
<text text-anchor="start" x="1605" y="-29.5" font-family="Helvetica" font-size="10.00">/vsomeip/implementation</text>
<text text-anchor="start" x="1605" y="-18.5" font-family="Helvetica" font-size="10.00">/endpoints/src/udp_client</text>
<text text-anchor="middle" x="1664" y="-7.5" font-family="Helvetica" font-size="10.00">_endpoint_impl.cpp</text>
</a>
</g>
</g>
<!-- Node12&#45;&gt;Node13 -->
<g id="edge13" class="edge">
<title>Node12&#45;&gt;Node13</title>
<path fill="none" stroke="midnightblue" d="M1481.48,-87.74C1514.28,-76.96 1552.44,-64.41 1587,-53 1590.21,-51.94 1593.49,-50.86 1596.81,-49.76"/>
<polygon fill="midnightblue" stroke="midnightblue" points="1480.35,-84.43 1471.94,-90.88 1482.53,-91.08 1480.35,-84.43"/>
</g>
<!-- Node15&#45;&gt;Node2 -->
<g id="edge17" class="edge">
<title>Node15&#45;&gt;Node2</title>
<path fill="none" stroke="midnightblue" d="M922.19,-257.19C921.98,-248.28 921.77,-238.9 921.58,-230.61"/>
<polygon fill="midnightblue" stroke="midnightblue" points="918.69,-257.42 922.42,-267.34 925.69,-257.26 918.69,-257.42"/>
</g>
<!-- Node15&#45;&gt;Node16 -->
<g id="edge18" class="edge">
<title>Node15&#45;&gt;Node16</title>
<path fill="none" stroke="midnightblue" d="M975.46,-262.07C993.19,-251.79 1012.77,-240.43 1029.71,-230.61"/>
<polygon fill="midnightblue" stroke="midnightblue" points="973.28,-259.29 966.39,-267.34 976.79,-265.35 973.28,-259.29"/>
</g>
<!-- Node27 -->
<g id="node27" class="node">
<title>Node27</title>
<g id="a_node27"><a xlink:href="endpoint__impl_8cpp.html" target="_top" xlink:title=" ">
<polygon fill="white" stroke="black" points="702,-178.5 702,-230.5 836,-230.5 836,-178.5 702,-178.5"/>
<text text-anchor="start" x="710" y="-218.5" font-family="Helvetica" font-size="10.00">/home/ec2&#45;user/workspace</text>
<text text-anchor="start" x="710" y="-207.5" font-family="Helvetica" font-size="10.00">/vsomeip/implementation</text>
<text text-anchor="start" x="710" y="-196.5" font-family="Helvetica" font-size="10.00">/endpoints/src/endpoint</text>
<text text-anchor="middle" x="769" y="-185.5" font-family="Helvetica" font-size="10.00">_impl.cpp</text>
</a>
</g>
</g>
<!-- Node15&#45;&gt;Node27 -->
<g id="edge38" class="edge">
<title>Node15&#45;&gt;Node27</title>
<path fill="none" stroke="midnightblue" d="M869.64,-262.35C851.3,-252 830.99,-240.52 813.44,-230.61"/>
<polygon fill="midnightblue" stroke="midnightblue" points="868.03,-265.46 878.46,-267.34 871.47,-259.37 868.03,-265.46"/>
</g>
<!-- Node16&#45;&gt;Node17 -->
<g id="edge19" class="edge">
<title>Node16&#45;&gt;Node17</title>
<path fill="none" stroke="midnightblue" d="M995.54,-177.89C850.99,-147.45 808.35,-170.66 667,-142 664.13,-141.42 661.22,-140.78 658.29,-140.1"/>
<polygon fill="midnightblue" stroke="midnightblue" points="995.15,-181.38 1005.67,-180.07 996.63,-174.54 995.15,-181.38"/>
</g>
<!-- Node16&#45;&gt;Node19 -->
<g id="edge24" class="edge">
<title>Node16&#45;&gt;Node19</title>
<path fill="none" stroke="midnightblue" d="M995.66,-177.99C630.33,-111.99 525.62,-202.64 163,-142 160.08,-141.51 157.12,-140.96 154.15,-140.34"/>
<polygon fill="midnightblue" stroke="midnightblue" points="995.25,-181.47 1005.71,-179.83 996.51,-174.59 995.25,-181.47"/>
</g>
<!-- Node21 -->
<g id="node21" class="node">
<title>Node21</title>
<g id="a_node21"><a xlink:href="tcp__server__endpoint__impl_8hpp.html" target="_top" xlink:title=" ">
<polygon fill="white" stroke="black" points="1166,-89.5 1166,-141.5 1310,-141.5 1310,-89.5 1166,-89.5"/>
<text text-anchor="start" x="1174" y="-129.5" font-family="Helvetica" font-size="10.00">/home/ec2&#45;user/workspace</text>
<text text-anchor="start" x="1174" y="-118.5" font-family="Helvetica" font-size="10.00">/vsomeip/implementation</text>
<text text-anchor="start" x="1174" y="-107.5" font-family="Helvetica" font-size="10.00">/endpoints/include/tcp_server</text>
<text text-anchor="middle" x="1238" y="-96.5" font-family="Helvetica" font-size="10.00">_endpoint_impl.hpp</text>
</a>
</g>
</g>
<!-- Node16&#45;&gt;Node21 -->
<g id="edge27" class="edge">
<title>Node16&#45;&gt;Node21</title>
<path fill="none" stroke="midnightblue" d="M1129.64,-173.64C1149.42,-163.2 1171.41,-151.61 1190.38,-141.61"/>
<polygon fill="midnightblue" stroke="midnightblue" points="1127.94,-170.58 1120.72,-178.34 1131.2,-176.77 1127.94,-170.58"/>
</g>
<!-- Node24 -->
<g id="node24" class="node">
<title>Node24</title>
<g id="a_node24"><a xlink:href="udp__server__endpoint__impl_8hpp.html" target="_top" xlink:title=" ">
<polygon fill="white" stroke="black" points="1490,-89.5 1490,-141.5 1636,-141.5 1636,-89.5 1490,-89.5"/>
<text text-anchor="start" x="1498" y="-129.5" font-family="Helvetica" font-size="10.00">/home/ec2&#45;user/workspace</text>
<text text-anchor="start" x="1498" y="-118.5" font-family="Helvetica" font-size="10.00">/vsomeip/implementation</text>
<text text-anchor="start" x="1498" y="-107.5" font-family="Helvetica" font-size="10.00">/endpoints/include/udp_server</text>
<text text-anchor="middle" x="1563" y="-96.5" font-family="Helvetica" font-size="10.00">_endpoint_impl.hpp</text>
</a>
</g>
</g>
<!-- Node16&#45;&gt;Node24 -->
<g id="edge32" class="edge">
<title>Node16&#45;&gt;Node24</title>
<path fill="none" stroke="midnightblue" d="M1150.22,-195.29C1232.56,-185.72 1366.46,-167.87 1480,-142 1483.23,-141.26 1486.52,-140.46 1489.84,-139.62"/>
<polygon fill="midnightblue" stroke="midnightblue" points="1149.72,-191.82 1140.19,-196.44 1150.52,-198.77 1149.72,-191.82"/>
</g>
<!-- Node26 -->
<g id="node26" class="node">
<title>Node26</title>
<g id="a_node26"><a xlink:href="server__endpoint__impl_8cpp.html" target="_top" xlink:title=" ">
<polygon fill="white" stroke="black" points="998,-89.5 998,-141.5 1148,-141.5 1148,-89.5 998,-89.5"/>
<text text-anchor="start" x="1006" y="-129.5" font-family="Helvetica" font-size="10.00">/home/ec2&#45;user/workspace</text>
<text text-anchor="start" x="1006" y="-118.5" font-family="Helvetica" font-size="10.00">/vsomeip/implementation</text>
<text text-anchor="start" x="1006" y="-107.5" font-family="Helvetica" font-size="10.00">/endpoints/src/server_endpoint</text>
<text text-anchor="middle" x="1073" y="-96.5" font-family="Helvetica" font-size="10.00">_impl.cpp</text>
</a>
</g>
</g>
<!-- Node16&#45;&gt;Node26 -->
<g id="edge37" class="edge">
<title>Node16&#45;&gt;Node26</title>
<path fill="none" stroke="midnightblue" d="M1073,-168.19C1073,-159.28 1073,-149.9 1073,-141.61"/>
<polygon fill="midnightblue" stroke="midnightblue" points="1069.5,-168.34 1073,-178.34 1076.5,-168.34 1069.5,-168.34"/>
</g>
<!-- Node17&#45;&gt;Node4 -->
<g id="edge20" class="edge">
<title>Node17&#45;&gt;Node4</title>
<path fill="none" stroke="midnightblue" d="M524.33,-84.64C504.19,-74.2 481.8,-62.61 462.48,-52.61"/>
<polygon fill="midnightblue" stroke="midnightblue" points="522.92,-87.85 533.41,-89.34 526.14,-81.63 522.92,-87.85"/>
</g>
<!-- Node17&#45;&gt;Node5 -->
<g id="edge22" class="edge">
<title>Node17&#45;&gt;Node5</title>
<path fill="none" stroke="midnightblue" d="M575.56,-79.48C573.91,-70.49 572.16,-60.99 570.62,-52.61"/>
<polygon fill="midnightblue" stroke="midnightblue" points="572.12,-80.13 577.37,-89.34 579.01,-78.87 572.12,-80.13"/>
</g>
<!-- Node17&#45;&gt;Node9 -->
<g id="edge21" class="edge">
<title>Node17&#45;&gt;Node9</title>
<path fill="none" stroke="midnightblue" d="M668.42,-88.86C795.55,-63.26 833,-81 956,-53 958.85,-52.35 961.74,-51.64 964.65,-50.87"/>
<polygon fill="midnightblue" stroke="midnightblue" points="667.39,-85.5 658.3,-90.95 668.8,-92.36 667.39,-85.5"/>
</g>
<!-- Node18 -->
<g id="node18" class="node">
<title>Node18</title>
<g id="a_node18"><a xlink:href="local__tcp__server__endpoint__impl_8cpp.html" target="_top" xlink:title=" ">
<polygon fill="white" stroke="black" points="651,-0.5 651,-52.5 785,-52.5 785,-0.5 651,-0.5"/>
<text text-anchor="start" x="659" y="-40.5" font-family="Helvetica" font-size="10.00">/home/ec2&#45;user/workspace</text>
<text text-anchor="start" x="659" y="-29.5" font-family="Helvetica" font-size="10.00">/vsomeip/implementation</text>
<text text-anchor="start" x="659" y="-18.5" font-family="Helvetica" font-size="10.00">/endpoints/src/local_tcp</text>
<text text-anchor="middle" x="718" y="-7.5" font-family="Helvetica" font-size="10.00">_server_endpoint_impl.cpp</text>
</a>
</g>
</g>
<!-- Node17&#45;&gt;Node18 -->
<g id="edge23" class="edge">
<title>Node17&#45;&gt;Node18</title>
<path fill="none" stroke="midnightblue" d="M630.01,-83.79C645.97,-73.58 663.54,-62.34 678.75,-52.61"/>
<polygon fill="midnightblue" stroke="midnightblue" points="627.87,-81 621.34,-89.34 631.65,-86.9 627.87,-81"/>
</g>
<!-- Node19&#45;&gt;Node7 -->
<g id="edge25" class="edge">
<title>Node19&#45;&gt;Node7</title>
<path fill="none" stroke="midnightblue" d="M132.53,-84.49C151.76,-74.1 173.11,-62.57 191.54,-52.61"/>
<polygon fill="midnightblue" stroke="midnightblue" points="130.7,-81.5 123.57,-89.34 134.03,-87.66 130.7,-81.5"/>
</g>
<!-- Node20 -->
<g id="node20" class="node">
<title>Node20</title>
<g id="a_node20"><a xlink:href="local__uds__server__endpoint__impl_8cpp.html" target="_top" xlink:title=" ">
<polygon fill="white" stroke="black" points="10,-0.5 10,-52.5 144,-52.5 144,-0.5 10,-0.5"/>
<text text-anchor="start" x="18" y="-40.5" font-family="Helvetica" font-size="10.00">/home/ec2&#45;user/workspace</text>
<text text-anchor="start" x="18" y="-29.5" font-family="Helvetica" font-size="10.00">/vsomeip/implementation</text>
<text text-anchor="start" x="18" y="-18.5" font-family="Helvetica" font-size="10.00">/endpoints/src/local_uds</text>
<text text-anchor="middle" x="77" y="-7.5" font-family="Helvetica" font-size="10.00">_server_endpoint_impl.cpp</text>
</a>
</g>
</g>
<!-- Node19&#45;&gt;Node20 -->
<g id="edge26" class="edge">
<title>Node19&#45;&gt;Node20</title>
<path fill="none" stroke="midnightblue" d="M77,-79.19C77,-70.28 77,-60.9 77,-52.61"/>
<polygon fill="midnightblue" stroke="midnightblue" points="73.5,-79.34 77,-89.34 80.5,-79.34 73.5,-79.34"/>
</g>
<!-- Node21&#45;&gt;Node9 -->
<g id="edge28" class="edge">
<title>Node21&#45;&gt;Node9</title>
<path fill="none" stroke="midnightblue" d="M1169.18,-85.44C1143.93,-74.77 1115.58,-62.8 1091.25,-52.52"/>
<polygon fill="midnightblue" stroke="midnightblue" points="1168.12,-88.79 1178.69,-89.45 1170.84,-82.34 1168.12,-88.79"/>
</g>
<!-- Node21&#45;&gt;Node11 -->
<g id="edge30" class="edge">
<title>Node21&#45;&gt;Node11</title>
<path fill="none" stroke="midnightblue" d="M1274.98,-82.65C1286.47,-72.75 1298.97,-61.98 1309.85,-52.61"/>
<polygon fill="midnightblue" stroke="midnightblue" points="1272.51,-80.16 1267.21,-89.34 1277.07,-85.46 1272.51,-80.16"/>
</g>
<!-- Node22 -->
<g id="node22" class="node">
<title>Node22</title>
<g id="a_node22"><a xlink:href="tcp__server__endpoint__impl_8cpp.html" target="_top" xlink:title=" ">
<polygon fill="white" stroke="black" points="1117,-0.5 1117,-52.5 1251,-52.5 1251,-0.5 1117,-0.5"/>
<text text-anchor="start" x="1125" y="-40.5" font-family="Helvetica" font-size="10.00">/home/ec2&#45;user/workspace</text>
<text text-anchor="start" x="1125" y="-29.5" font-family="Helvetica" font-size="10.00">/vsomeip/implementation</text>
<text text-anchor="start" x="1125" y="-18.5" font-family="Helvetica" font-size="10.00">/endpoints/src/tcp_server</text>
<text text-anchor="middle" x="1184" y="-7.5" font-family="Helvetica" font-size="10.00">_endpoint_impl.cpp</text>
</a>
</g>
</g>
<!-- Node21&#45;&gt;Node22 -->
<g id="edge29" class="edge">
<title>Node21&#45;&gt;Node22</title>
<path fill="none" stroke="midnightblue" d="M1216.98,-80.64C1211.19,-71.31 1205.01,-61.35 1199.58,-52.61"/>
<polygon fill="midnightblue" stroke="midnightblue" points="1214.13,-82.69 1222.38,-89.34 1220.08,-78.99 1214.13,-82.69"/>
</g>
<!-- Node23 -->
<g id="node23" class="node">
<title>Node23</title>
<g id="a_node23"><a xlink:href="service__discovery__impl_8cpp.html" target="_top" xlink:title=" ">
<polygon fill="white" stroke="black" points="1427.5,-0.5 1427.5,-52.5 1578.5,-52.5 1578.5,-0.5 1427.5,-0.5"/>
<text text-anchor="start" x="1435.5" y="-40.5" font-family="Helvetica" font-size="10.00">/home/ec2&#45;user/workspace</text>
<text text-anchor="start" x="1435.5" y="-29.5" font-family="Helvetica" font-size="10.00">/vsomeip/implementation</text>
<text text-anchor="start" x="1435.5" y="-18.5" font-family="Helvetica" font-size="10.00">/service_discovery/src/service</text>
<text text-anchor="middle" x="1503" y="-7.5" font-family="Helvetica" font-size="10.00">_discovery_impl.cpp</text>
</a>
</g>
</g>
<!-- Node21&#45;&gt;Node23 -->
<g id="edge31" class="edge">
<title>Node21&#45;&gt;Node23</title>
<path fill="none" stroke="midnightblue" d="M1319.59,-87.71C1353.9,-76.45 1393.59,-63.42 1427.25,-52.37"/>
<polygon fill="midnightblue" stroke="midnightblue" points="1318.47,-84.4 1310.06,-90.84 1320.66,-91.05 1318.47,-84.4"/>
</g>
<!-- Node24&#45;&gt;Node9 -->
<g id="edge33" class="edge">
<title>Node24&#45;&gt;Node9</title>
<path fill="none" stroke="midnightblue" d="M1480.31,-89.06C1480.2,-89.04 1480.1,-89.02 1480,-89 1317.12,-56.44 1270.45,-87.64 1108,-53 1105.14,-52.39 1102.24,-51.71 1099.32,-50.97"/>
<polygon fill="midnightblue" stroke="midnightblue" points="1479.37,-92.44 1489.88,-91.16 1480.87,-85.6 1479.37,-92.44"/>
</g>
<!-- Node24&#45;&gt;Node11 -->
<g id="edge35" class="edge">
<title>Node24&#45;&gt;Node11</title>
<path fill="none" stroke="midnightblue" d="M1488.89,-85.72C1461.25,-74.98 1430.12,-62.89 1403.42,-52.52"/>
<polygon fill="midnightblue" stroke="midnightblue" points="1487.92,-89.09 1498.51,-89.45 1490.46,-82.57 1487.92,-89.09"/>
</g>
<!-- Node24&#45;&gt;Node23 -->
<g id="edge36" class="edge">
<title>Node24&#45;&gt;Node23</title>
<path fill="none" stroke="midnightblue" d="M1539.85,-80.93C1533.35,-71.51 1526.41,-61.44 1520.32,-52.61"/>
<polygon fill="midnightblue" stroke="midnightblue" points="1537.09,-83.09 1545.65,-89.34 1542.85,-79.12 1537.09,-83.09"/>
</g>
<!-- Node25 -->
<g id="node25" class="node">
<title>Node25</title>
<g id="a_node25"><a xlink:href="udp__server__endpoint__impl_8cpp.html" target="_top" xlink:title=" ">
<polygon fill="white" stroke="black" points="1749,-0.5 1749,-52.5 1883,-52.5 1883,-0.5 1749,-0.5"/>
<text text-anchor="start" x="1757" y="-40.5" font-family="Helvetica" font-size="10.00">/home/ec2&#45;user/workspace</text>
<text text-anchor="start" x="1757" y="-29.5" font-family="Helvetica" font-size="10.00">/vsomeip/implementation</text>
<text text-anchor="start" x="1757" y="-18.5" font-family="Helvetica" font-size="10.00">/endpoints/src/udp_server</text>
<text text-anchor="middle" x="1816" y="-7.5" font-family="Helvetica" font-size="10.00">_endpoint_impl.cpp</text>
</a>
</g>
</g>
<!-- Node24&#45;&gt;Node25 -->
<g id="edge34" class="edge">
<title>Node24&#45;&gt;Node25</title>
<path fill="none" stroke="midnightblue" d="M1645.6,-86.1C1679.05,-74.59 1717.17,-61.48 1748.87,-50.59"/>
<polygon fill="midnightblue" stroke="midnightblue" points="1644.16,-82.89 1635.84,-89.45 1646.43,-89.51 1644.16,-82.89"/>
</g>
<!-- Node28&#45;&gt;Node2 -->
<g id="edge43" class="edge">
<title>Node28&#45;&gt;Node2</title>
<path fill="none" stroke="midnightblue" d="M1525.68,-290.15C1409.66,-285.39 1184.14,-271.36 997,-231 994.14,-230.38 991.24,-229.7 988.33,-228.96"/>
<polygon fill="midnightblue" stroke="midnightblue" points="1525.75,-293.66 1535.89,-290.56 1526.03,-286.66 1525.75,-293.66"/>
</g>
<!-- Node28&#45;&gt;Node13 -->
<g id="edge48" class="edge">
<title>Node28&#45;&gt;Node13</title>
<path fill="none" stroke="midnightblue" d="M1626.24,-264.89C1633.47,-254.83 1640.68,-242.97 1645,-231 1667.03,-169.92 1667.27,-92.17 1665.62,-52.8"/>
<polygon fill="midnightblue" stroke="midnightblue" points="1623.44,-262.79 1620.22,-272.88 1629.03,-267 1623.44,-262.79"/>
</g>
<!-- Node28&#45;&gt;Node16 -->
<g id="edge44" class="edge">
<title>Node28&#45;&gt;Node16</title>
<path fill="none" stroke="midnightblue" d="M1525.77,-279.82C1421.93,-262.78 1238.97,-232.74 1140.41,-216.57"/>
<polygon fill="midnightblue" stroke="midnightblue" points="1525.44,-283.32 1535.88,-281.48 1526.57,-276.41 1525.44,-283.32"/>
</g>
<!-- Node28&#45;&gt;Node25 -->
<g id="edge49" class="edge">
<title>Node28&#45;&gt;Node25</title>
<path fill="none" stroke="midnightblue" d="M1632.22,-265.88C1643.21,-255.39 1655.56,-242.99 1666,-231 1718.88,-170.26 1773.02,-92.04 1799.45,-52.6"/>
<polygon fill="midnightblue" stroke="midnightblue" points="1629.74,-263.41 1624.87,-272.82 1634.54,-268.5 1629.74,-263.41"/>
</g>
<!-- Node29 -->
<g id="node29" class="node">
<title>Node29</title>
<g id="a_node29"><a xlink:href="tp_8cpp.html" target="_top" xlink:title=" ">
<polygon fill="white" stroke="black" points="1502,-184 1502,-225 1636,-225 1636,-184 1502,-184"/>
<text text-anchor="start" x="1510" y="-213" font-family="Helvetica" font-size="10.00">/home/ec2&#45;user/workspace</text>
<text text-anchor="start" x="1510" y="-202" font-family="Helvetica" font-size="10.00">/vsomeip/implementation</text>
<text text-anchor="middle" x="1569" y="-191" font-family="Helvetica" font-size="10.00">/endpoints/src/tp.cpp</text>
</a>
</g>
</g>
<!-- Node28&#45;&gt;Node29 -->
<g id="edge45" class="edge">
<title>Node28&#45;&gt;Node29</title>
<path fill="none" stroke="midnightblue" d="M1591.54,-263.19C1586.65,-250.67 1581.07,-236.38 1576.68,-225.16"/>
<polygon fill="midnightblue" stroke="midnightblue" points="1588.38,-264.72 1595.28,-272.76 1594.9,-262.17 1588.38,-264.72"/>
</g>
<!-- Node30 -->
<g id="node30" class="node">
<title>Node30</title>
<g id="a_node30"><a xlink:href="tp__message_8cpp.html" target="_top" xlink:title=" ">
<polygon fill="white" stroke="black" points="1730.5,-184 1730.5,-225 1883.5,-225 1883.5,-184 1730.5,-184"/>
<text text-anchor="start" x="1738.5" y="-213" font-family="Helvetica" font-size="10.00">/home/ec2&#45;user/workspace</text>
<text text-anchor="start" x="1738.5" y="-202" font-family="Helvetica" font-size="10.00">/vsomeip/implementation</text>
<text text-anchor="middle" x="1807" y="-191" font-family="Helvetica" font-size="10.00">/endpoints/src/tp_message.cpp</text>
</a>
</g>
</g>
<!-- Node28&#45;&gt;Node30 -->
<g id="edge46" class="edge">
<title>Node28&#45;&gt;Node30</title>
<path fill="none" stroke="midnightblue" d="M1658.07,-269.01C1690.29,-255.27 1730.5,-238.12 1761.02,-225.11"/>
<polygon fill="midnightblue" stroke="midnightblue" points="1656.61,-265.83 1648.78,-272.98 1659.35,-272.27 1656.61,-265.83"/>
</g>
<!-- Node31 -->
<g id="node31" class="node">
<title>Node31</title>
<g id="a_node31"><a xlink:href="tp__reassembler_8cpp.html" target="_top" xlink:title=" ">
<polygon fill="white" stroke="black" points="1970.5,-95 1970.5,-136 2137.5,-136 2137.5,-95 1970.5,-95"/>
<text text-anchor="start" x="1978.5" y="-124" font-family="Helvetica" font-size="10.00">/home/ec2&#45;user/workspace</text>
<text text-anchor="start" x="1978.5" y="-113" font-family="Helvetica" font-size="10.00">/vsomeip/implementation</text>
<text text-anchor="middle" x="2054" y="-102" font-family="Helvetica" font-size="10.00">/endpoints/src/tp_reassembler.cpp</text>
</a>
</g>
</g>
<!-- Node28&#45;&gt;Node31 -->
<g id="edge47" class="edge">
<title>Node28&#45;&gt;Node31</title>
<path fill="none" stroke="midnightblue" d="M1680.19,-273.24C1691.16,-270.9 1702.33,-268.73 1713,-267 1755.08,-260.17 2066.3,-262.53 2095,-231 2119.59,-203.99 2092.22,-161.19 2071.89,-136.28"/>
<polygon fill="midnightblue" stroke="midnightblue" points="1679.22,-269.87 1670.2,-275.42 1680.72,-276.7 1679.22,-269.87"/>
</g>
<!-- Node32&#45;&gt;Node30 -->
<g id="edge55" class="edge">
<title>Node32&#45;&gt;Node30</title>
<path fill="none" stroke="midnightblue" d="M1807,-262.44C1807,-250.1 1807,-236.16 1807,-225.16"/>
<polygon fill="midnightblue" stroke="midnightblue" points="1803.5,-262.76 1807,-272.76 1810.5,-262.76 1803.5,-262.76"/>
</g>
<!-- Node33 -->
<g id="node33" class="node">
<title>Node33</title>
<g id="a_node33"><a xlink:href="tp__reassembler_8hpp.html" target="_top" xlink:title=" ">
<polygon fill="white" stroke="black" points="1902,-184 1902,-225 2086,-225 2086,-184 1902,-184"/>
<text text-anchor="start" x="1910" y="-213" font-family="Helvetica" font-size="10.00">/home/ec2&#45;user/workspace</text>
<text text-anchor="start" x="1910" y="-202" font-family="Helvetica" font-size="10.00">/vsomeip/implementation</text>
<text text-anchor="middle" x="1994" y="-191" font-family="Helvetica" font-size="10.00">/endpoints/include/tp_reassembler.hpp</text>
</a>
</g>
</g>
<!-- Node32&#45;&gt;Node33 -->
<g id="edge51" class="edge">
<title>Node32&#45;&gt;Node33</title>
<path fill="none" stroke="midnightblue" d="M1858.25,-268.66C1887.65,-254.98 1924.12,-238.01 1951.85,-225.11"/>
<polygon fill="midnightblue" stroke="midnightblue" points="1856.56,-265.58 1848.97,-272.98 1859.51,-271.93 1856.56,-265.58"/>
</g>
<!-- Node33&#45;&gt;Node12 -->
<g id="edge52" class="edge">
<title>Node33&#45;&gt;Node12</title>
<path fill="none" stroke="midnightblue" d="M1912,-181.81C1905.26,-180.39 1898.53,-179.1 1892,-178 1711.16,-147.67 1660.85,-177.74 1481,-142 1477.96,-141.4 1474.88,-140.72 1471.78,-139.99"/>
<polygon fill="midnightblue" stroke="midnightblue" points="1911.34,-185.25 1921.86,-183.97 1912.84,-178.41 1911.34,-185.25"/>
</g>
<!-- Node33&#45;&gt;Node24 -->
<g id="edge53" class="edge">
<title>Node33&#45;&gt;Node24</title>
<path fill="none" stroke="midnightblue" d="M1908.21,-181.66C1902.73,-180.39 1897.29,-179.16 1892,-178 1804.43,-158.89 1702.94,-140.48 1636.11,-128.87"/>
<polygon fill="midnightblue" stroke="midnightblue" points="1907.55,-185.1 1918.09,-183.99 1909.16,-178.29 1907.55,-185.1"/>
</g>
<!-- Node33&#45;&gt;Node31 -->
<g id="edge54" class="edge">
<title>Node33&#45;&gt;Node31</title>
<path fill="none" stroke="midnightblue" d="M2013.45,-175.3C2022.26,-162.52 2032.47,-147.72 2040.44,-136.16"/>
<polygon fill="midnightblue" stroke="midnightblue" points="2010.41,-173.54 2007.61,-183.76 2016.17,-177.51 2010.41,-173.54"/>
</g>
<!-- Node35 -->
<g id="node35" class="node">
<title>Node35</title>
<g id="a_node35"><a xlink:href="runtime_2src_2application__impl_8cpp.html" target="_top" xlink:title=" ">
<polygon fill="white" stroke="black" points="2142,-178.5 2142,-230.5 2276,-230.5 2276,-178.5 2142,-178.5"/>
<text text-anchor="start" x="2150" y="-218.5" font-family="Helvetica" font-size="10.00">/home/ec2&#45;user/workspace</text>
<text text-anchor="start" x="2150" y="-207.5" font-family="Helvetica" font-size="10.00">/vsomeip/implementation</text>
<text text-anchor="start" x="2150" y="-196.5" font-family="Helvetica" font-size="10.00">/runtime/src/application</text>
<text text-anchor="middle" x="2209" y="-185.5" font-family="Helvetica" font-size="10.00">_impl.cpp</text>
</a>
</g>
</g>
<!-- Node34&#45;&gt;Node35 -->
<g id="edge57" class="edge">
<title>Node34&#45;&gt;Node35</title>
<path fill="none" stroke="midnightblue" d="M2209,-257.19C2209,-248.28 2209,-238.9 2209,-230.61"/>
<polygon fill="midnightblue" stroke="midnightblue" points="2205.5,-257.34 2209,-267.34 2212.5,-257.34 2205.5,-257.34"/>
</g>
<!-- Node36 -->
<g id="node36" class="node">
<title>Node36</title>
<g id="a_node36"><a xlink:href="connector__impl_8cpp.html" target="_top" xlink:title=" ">
<polygon fill="white" stroke="black" points="2294.5,-184 2294.5,-225 2447.5,-225 2447.5,-184 2294.5,-184"/>
<text text-anchor="start" x="2302.5" y="-213" font-family="Helvetica" font-size="10.00">/home/ec2&#45;user/workspace</text>
<text text-anchor="start" x="2302.5" y="-202" font-family="Helvetica" font-size="10.00">/vsomeip/implementation</text>
<text text-anchor="middle" x="2371" y="-191" font-family="Helvetica" font-size="10.00">/tracing/src/connector_impl.cpp</text>
</a>
</g>
</g>
<!-- Node34&#45;&gt;Node36 -->
<g id="edge58" class="edge">
<title>Node34&#45;&gt;Node36</title>
<path fill="none" stroke="midnightblue" d="M2264.86,-262.5C2287.92,-250.12 2314,-236.11 2334.54,-225.08"/>
<polygon fill="midnightblue" stroke="midnightblue" points="2263.01,-259.52 2255.86,-267.34 2266.32,-265.69 2263.01,-259.52"/>
</g>
</g>
</svg>
