<?xml version="1.0" encoding="UTF-8" standalone="no"?>
<!DOCTYPE svg PUBLIC "-//W3C//DTD SVG 1.1//EN"
 "http://www.w3.org/Graphics/SVG/1.1/DTD/svg11.dtd">
<!-- Generated by graphviz version 2.44.0 (0)
 -->
<!-- Title: /home/ec2&#45;user/workspace/vsomeip/implementation/endpoints/include/endpoint_definition.hpp Pages: 1 -->
<svg width="665pt" height="117pt"
 viewBox="0.00 0.00 664.50 117.00" xmlns="http://www.w3.org/2000/svg" xmlns:xlink="http://www.w3.org/1999/xlink">
<g id="graph0" class="graph" transform="scale(1 1) rotate(0) translate(4 113)">
<title>/home/ec2&#45;user/workspace/vsomeip/implementation/endpoints/include/endpoint_definition.hpp</title>
<polygon fill="white" stroke="transparent" points="-4,4 -4,-113 660.5,-113 660.5,4 -4,4"/>
<!-- Node1 -->
<g id="node1" class="node">
<title>Node1</title>
<g id="a_node1"><a xlink:title=" ">
<polygon fill="#bfbfbf" stroke="black" points="143,-56.5 143,-108.5 278,-108.5 278,-56.5 143,-56.5"/>
<text text-anchor="start" x="151" y="-96.5" font-family="Helvetica" font-size="10.00">/home/ec2&#45;user/workspace</text>
<text text-anchor="start" x="151" y="-85.5" font-family="Helvetica" font-size="10.00">/vsomeip/implementation</text>
<text text-anchor="start" x="151" y="-74.5" font-family="Helvetica" font-size="10.00">/endpoints/include/endpoint</text>
<text text-anchor="middle" x="210.5" y="-63.5" font-family="Helvetica" font-size="10.00">_definition.hpp</text>
</a>
</g>
</g>
<!-- Node2 -->
<g id="node2" class="node">
<title>Node2</title>
<g id="a_node2"><a xlink:title=" ">
<polygon fill="white" stroke="#bfbfbf" points="0,-0.5 0,-19.5 35,-19.5 35,-0.5 0,-0.5"/>
<text text-anchor="middle" x="17.5" y="-7.5" font-family="Helvetica" font-size="10.00">map</text>
</a>
</g>
</g>
<!-- Node1&#45;&gt;Node2 -->
<g id="edge1" class="edge">
<title>Node1&#45;&gt;Node2</title>
<path fill="none" stroke="midnightblue" d="M143,-56.84C109.37,-44.56 70.56,-30.38 45.11,-21.08"/>
<polygon fill="midnightblue" stroke="midnightblue" points="45.99,-17.68 35.4,-17.54 43.59,-24.26 45.99,-17.68"/>
</g>
<!-- Node3 -->
<g id="node3" class="node">
<title>Node3</title>
<g id="a_node3"><a xlink:title=" ">
<polygon fill="white" stroke="#bfbfbf" points="53,-0.5 53,-19.5 106,-19.5 106,-0.5 53,-0.5"/>
<text text-anchor="middle" x="79.5" y="-7.5" font-family="Helvetica" font-size="10.00">memory</text>
</a>
</g>
</g>
<!-- Node1&#45;&gt;Node3 -->
<g id="edge2" class="edge">
<title>Node1&#45;&gt;Node3</title>
<path fill="none" stroke="midnightblue" d="M163.95,-56.45C143.9,-45.66 121.27,-33.48 104.49,-24.45"/>
<polygon fill="midnightblue" stroke="midnightblue" points="105.81,-21.18 95.34,-19.53 102.49,-27.35 105.81,-21.18"/>
</g>
<!-- Node4 -->
<g id="node4" class="node">
<title>Node4</title>
<g id="a_node4"><a xlink:title=" ">
<polygon fill="white" stroke="#bfbfbf" points="124.5,-0.5 124.5,-19.5 170.5,-19.5 170.5,-0.5 124.5,-0.5"/>
<text text-anchor="middle" x="147.5" y="-7.5" font-family="Helvetica" font-size="10.00">atomic</text>
</a>
</g>
</g>
<!-- Node1&#45;&gt;Node4 -->
<g id="edge3" class="edge">
<title>Node1&#45;&gt;Node4</title>
<path fill="none" stroke="midnightblue" d="M188.11,-56.45C179.43,-46.73 169.73,-35.88 161.99,-27.22"/>
<polygon fill="midnightblue" stroke="midnightblue" points="164.54,-24.82 155.27,-19.7 159.32,-29.48 164.54,-24.82"/>
</g>
<!-- Node5 -->
<g id="node5" class="node">
<title>Node5</title>
<g id="a_node5"><a xlink:title=" ">
<polygon fill="white" stroke="#bfbfbf" points="188.5,-0.5 188.5,-19.5 232.5,-19.5 232.5,-0.5 188.5,-0.5"/>
<text text-anchor="middle" x="210.5" y="-7.5" font-family="Helvetica" font-size="10.00">mutex</text>
</a>
</g>
</g>
<!-- Node1&#45;&gt;Node5 -->
<g id="edge4" class="edge">
<title>Node1&#45;&gt;Node5</title>
<path fill="none" stroke="midnightblue" d="M210.5,-56.45C210.5,-47.73 210.5,-38.1 210.5,-29.96"/>
<polygon fill="midnightblue" stroke="midnightblue" points="214,-29.7 210.5,-19.7 207,-29.7 214,-29.7"/>
</g>
<!-- Node6 -->
<g id="node6" class="node">
<title>Node6</title>
<g id="a_node6"><a xlink:title=" ">
<polygon fill="white" stroke="#bfbfbf" points="250.5,-0.5 250.5,-19.5 378.5,-19.5 378.5,-0.5 250.5,-0.5"/>
<text text-anchor="middle" x="314.5" y="-7.5" font-family="Helvetica" font-size="10.00">boost/asio/ip/address.hpp</text>
</a>
</g>
</g>
<!-- Node1&#45;&gt;Node6 -->
<g id="edge5" class="edge">
<title>Node1&#45;&gt;Node6</title>
<path fill="none" stroke="midnightblue" d="M247.46,-56.45C262.83,-46.03 280.12,-34.31 293.29,-25.38"/>
<polygon fill="midnightblue" stroke="midnightblue" points="295.36,-28.2 301.67,-19.7 291.43,-22.41 295.36,-28.2"/>
</g>
<!-- Node7 -->
<g id="node7" class="node">
<title>Node7</title>
<g id="a_node7"><a xlink:title=" ">
<polygon fill="white" stroke="#bfbfbf" points="396.5,-0.5 396.5,-19.5 536.5,-19.5 536.5,-0.5 396.5,-0.5"/>
<text text-anchor="middle" x="466.5" y="-7.5" font-family="Helvetica" font-size="10.00">vsomeip/primitive_types.hpp</text>
</a>
</g>
</g>
<!-- Node1&#45;&gt;Node7 -->
<g id="edge6" class="edge">
<title>Node1&#45;&gt;Node7</title>
<path fill="none" stroke="midnightblue" d="M278.1,-62.88C324.97,-49.98 385.88,-33.2 425.56,-22.27"/>
<polygon fill="midnightblue" stroke="midnightblue" points="426.71,-25.59 435.42,-19.56 424.85,-18.84 426.71,-25.59"/>
</g>
<!-- Node8 -->
<g id="node8" class="node">
<title>Node8</title>
<g id="a_node8"><a xlink:title=" ">
<polygon fill="white" stroke="#bfbfbf" points="554.5,-0.5 554.5,-19.5 656.5,-19.5 656.5,-0.5 554.5,-0.5"/>
<text text-anchor="middle" x="605.5" y="-7.5" font-family="Helvetica" font-size="10.00">vsomeip/export.hpp</text>
</a>
</g>
</g>
<!-- Node1&#45;&gt;Node8 -->
<g id="edge7" class="edge">
<title>Node1&#45;&gt;Node8</title>
<path fill="none" stroke="midnightblue" d="M278.4,-69.38C354.3,-55.83 475.91,-34.13 547.52,-21.35"/>
<polygon fill="midnightblue" stroke="midnightblue" points="548.48,-24.73 557.71,-19.53 547.25,-17.84 548.48,-24.73"/>
</g>
</g>
</svg>
