<?xml version="1.0" encoding="UTF-8" standalone="no"?>
<!DOCTYPE svg PUBLIC "-//W3C//DTD SVG 1.1//EN"
 "http://www.w3.org/Graphics/SVG/1.1/DTD/svg11.dtd">
<!-- Generated by graphviz version 2.44.0 (0)
 -->
<!-- Title: /home/ec2&#45;user/workspace/vsomeip/implementation/endpoints/include/endpoint_manager_base.hpp Pages: 1 -->
<svg width="869pt" height="307pt"
 viewBox="0.00 0.00 868.50 307.00" xmlns="http://www.w3.org/2000/svg" xmlns:xlink="http://www.w3.org/1999/xlink">
<g id="graph0" class="graph" transform="scale(1 1) rotate(0) translate(4 303)">
<title>/home/ec2&#45;user/workspace/vsomeip/implementation/endpoints/include/endpoint_manager_base.hpp</title>
<polygon fill="white" stroke="transparent" points="-4,4 -4,-303 864.5,-303 864.5,4 -4,4"/>
<!-- Node1 -->
<g id="node1" class="node">
<title>Node1</title>
<g id="a_node1"><a xlink:title=" ">
<polygon fill="#bfbfbf" stroke="black" points="186.5,-246.5 186.5,-298.5 321.5,-298.5 321.5,-246.5 186.5,-246.5"/>
<text text-anchor="start" x="194.5" y="-286.5" font-family="Helvetica" font-size="10.00">/home/ec2&#45;user/workspace</text>
<text text-anchor="start" x="194.5" y="-275.5" font-family="Helvetica" font-size="10.00">/vsomeip/implementation</text>
<text text-anchor="start" x="194.5" y="-264.5" font-family="Helvetica" font-size="10.00">/endpoints/include/endpoint</text>
<text text-anchor="middle" x="254" y="-253.5" font-family="Helvetica" font-size="10.00">_manager_base.hpp</text>
</a>
</g>
</g>
<!-- Node2 -->
<g id="node2" class="node">
<title>Node2</title>
<g id="a_node2"><a xlink:title=" ">
<polygon fill="white" stroke="#bfbfbf" points="0,-190.5 0,-209.5 44,-209.5 44,-190.5 0,-190.5"/>
<text text-anchor="middle" x="22" y="-197.5" font-family="Helvetica" font-size="10.00">mutex</text>
</a>
</g>
</g>
<!-- Node1&#45;&gt;Node2 -->
<g id="edge1" class="edge">
<title>Node1&#45;&gt;Node2</title>
<path fill="none" stroke="midnightblue" d="M186.27,-250.92C142.64,-237.66 87.91,-221.03 53.95,-210.71"/>
<polygon fill="midnightblue" stroke="midnightblue" points="54.69,-207.28 44.11,-207.72 52.66,-213.97 54.69,-207.28"/>
</g>
<!-- Node3 -->
<g id="node3" class="node">
<title>Node3</title>
<g id="a_node3"><a xlink:title=" ">
<polygon fill="white" stroke="#bfbfbf" points="326.5,-0.5 326.5,-19.5 361.5,-19.5 361.5,-0.5 326.5,-0.5"/>
<text text-anchor="middle" x="344" y="-7.5" font-family="Helvetica" font-size="10.00">map</text>
</a>
</g>
</g>
<!-- Node1&#45;&gt;Node3 -->
<g id="edge2" class="edge">
<title>Node1&#45;&gt;Node3</title>
<path fill="none" stroke="midnightblue" d="M186.33,-263.6C132.14,-253.98 68.61,-233.27 91,-190 139.44,-96.4 261.87,-41.24 316.7,-20.49"/>
<polygon fill="midnightblue" stroke="midnightblue" points="318.25,-23.65 326.43,-16.91 315.83,-17.08 318.25,-23.65"/>
</g>
<!-- Node4 -->
<g id="node4" class="node">
<title>Node4</title>
<g id="a_node4"><a xlink:title=" ">
<polygon fill="white" stroke="#bfbfbf" points="100,-190.5 100,-209.5 130,-209.5 130,-190.5 100,-190.5"/>
<text text-anchor="middle" x="115" y="-197.5" font-family="Helvetica" font-size="10.00">set</text>
</a>
</g>
</g>
<!-- Node1&#45;&gt;Node4 -->
<g id="edge3" class="edge">
<title>Node1&#45;&gt;Node4</title>
<path fill="none" stroke="midnightblue" d="M204.6,-246.45C182.48,-235.23 157.38,-222.5 139.39,-213.37"/>
<polygon fill="midnightblue" stroke="midnightblue" points="140.69,-210.11 130.19,-208.7 137.53,-216.35 140.69,-210.11"/>
</g>
<!-- Node5 -->
<g id="node5" class="node">
<title>Node5</title>
<g id="a_node5"><a xlink:title=" ">
<polygon fill="white" stroke="#bfbfbf" points="148,-190.5 148,-209.5 226,-209.5 226,-190.5 148,-190.5"/>
<text text-anchor="middle" x="187" y="-197.5" font-family="Helvetica" font-size="10.00">unordered_set</text>
</a>
</g>
</g>
<!-- Node1&#45;&gt;Node5 -->
<g id="edge4" class="edge">
<title>Node1&#45;&gt;Node5</title>
<path fill="none" stroke="midnightblue" d="M230.19,-246.45C220.86,-236.63 210.43,-225.66 202.16,-216.95"/>
<polygon fill="midnightblue" stroke="midnightblue" points="204.69,-214.53 195.26,-209.7 199.62,-219.36 204.69,-214.53"/>
</g>
<!-- Node6 -->
<g id="node6" class="node">
<title>Node6</title>
<g id="a_node6"><a xlink:title=" ">
<polygon fill="white" stroke="#bfbfbf" points="807.5,-62 807.5,-81 860.5,-81 860.5,-62 807.5,-62"/>
<text text-anchor="middle" x="834" y="-69" font-family="Helvetica" font-size="10.00">memory</text>
</a>
</g>
</g>
<!-- Node1&#45;&gt;Node6 -->
<g id="edge5" class="edge">
<title>Node1&#45;&gt;Node6</title>
<path fill="none" stroke="midnightblue" d="M321.62,-270.4C415.59,-267.18 590.01,-255.02 731,-210 781.38,-193.91 808.79,-199.35 836,-154 847.41,-134.98 844.1,-108.72 839.82,-91.2"/>
<polygon fill="midnightblue" stroke="midnightblue" points="843.07,-89.8 837.01,-81.11 836.32,-91.68 843.07,-89.8"/>
</g>
<!-- Node7 -->
<g id="node7" class="node">
<title>Node7</title>
<g id="a_node7"><a xlink:title=" ">
<polygon fill="white" stroke="#bfbfbf" points="282,-190.5 282,-209.5 410,-209.5 410,-190.5 282,-190.5"/>
<text text-anchor="middle" x="346" y="-197.5" font-family="Helvetica" font-size="10.00">boost/asio/io_service.hpp</text>
</a>
</g>
</g>
<!-- Node1&#45;&gt;Node7 -->
<g id="edge6" class="edge">
<title>Node1&#45;&gt;Node7</title>
<path fill="none" stroke="midnightblue" d="M286.69,-246.45C300.03,-236.23 315,-224.76 326.56,-215.9"/>
<polygon fill="midnightblue" stroke="midnightblue" points="328.84,-218.56 334.65,-209.7 324.59,-213 328.84,-218.56"/>
</g>
<!-- Node8 -->
<g id="node8" class="node">
<title>Node8</title>
<g id="a_node8"><a xlink:title=" ">
<polygon fill="white" stroke="#bfbfbf" points="316,-62 316,-81 456,-81 456,-62 316,-62"/>
<text text-anchor="middle" x="386" y="-69" font-family="Helvetica" font-size="10.00">vsomeip/primitive_types.hpp</text>
</a>
</g>
</g>
<!-- Node1&#45;&gt;Node8 -->
<g id="edge7" class="edge">
<title>Node1&#45;&gt;Node8</title>
<path fill="none" stroke="midnightblue" d="M256.06,-246.47C259.93,-214.33 270.95,-158.47 302,-123 316.37,-106.58 337.43,-93.94 354.86,-85.41"/>
<polygon fill="midnightblue" stroke="midnightblue" points="356.52,-88.49 364.11,-81.1 353.57,-82.15 356.52,-88.49"/>
</g>
<!-- Node9 -->
<g id="node9" class="node">
<title>Node9</title>
<g id="a_node9"><a xlink:href="endpoint_8hpp.html" target="_top" xlink:title=" ">
<polygon fill="white" stroke="black" points="428.5,-190.5 428.5,-209.5 499.5,-209.5 499.5,-190.5 428.5,-190.5"/>
<text text-anchor="middle" x="464" y="-197.5" font-family="Helvetica" font-size="10.00">endpoint.hpp</text>
</a>
</g>
</g>
<!-- Node1&#45;&gt;Node9 -->
<g id="edge8" class="edge">
<title>Node1&#45;&gt;Node9</title>
<path fill="none" stroke="midnightblue" d="M321.6,-248.81C357.32,-236.81 399.67,-222.59 428.86,-212.8"/>
<polygon fill="midnightblue" stroke="midnightblue" points="430.23,-216.03 438.6,-209.53 428,-209.39 430.23,-216.03"/>
</g>
<!-- Node13 -->
<g id="node13" class="node">
<title>Node13</title>
<g id="a_node13"><a xlink:href="endpoint__host_8hpp.html" target="_top" xlink:title=" ">
<polygon fill="white" stroke="black" points="626.5,-190.5 626.5,-209.5 721.5,-209.5 721.5,-190.5 626.5,-190.5"/>
<text text-anchor="middle" x="674" y="-197.5" font-family="Helvetica" font-size="10.00">endpoint_host.hpp</text>
</a>
</g>
</g>
<!-- Node1&#45;&gt;Node13 -->
<g id="edge13" class="edge">
<title>Node1&#45;&gt;Node13</title>
<path fill="none" stroke="midnightblue" d="M321.95,-260.09C403.71,-246.37 539.57,-223.57 616.41,-210.67"/>
<polygon fill="midnightblue" stroke="midnightblue" points="617.11,-214.1 626.4,-208.99 615.95,-207.19 617.11,-214.1"/>
</g>
<!-- Node9&#45;&gt;Node8 -->
<g id="edge10" class="edge">
<title>Node9&#45;&gt;Node8</title>
<path fill="none" stroke="midnightblue" d="M428.44,-190.9C385.52,-180.77 318.17,-163.59 311,-154 302.75,-142.97 304.53,-135.16 311,-123 320.06,-105.97 337.71,-93.66 353.6,-85.45"/>
<polygon fill="midnightblue" stroke="midnightblue" points="355.18,-88.57 362.68,-81.09 352.15,-82.26 355.18,-88.57"/>
</g>
<!-- Node10 -->
<g id="node10" class="node">
<title>Node10</title>
<g id="a_node10"><a xlink:title=" ">
<polygon fill="white" stroke="#bfbfbf" points="518,-129 518,-148 646,-148 646,-129 518,-129"/>
<text text-anchor="middle" x="582" y="-136" font-family="Helvetica" font-size="10.00">boost/asio/ip/address.hpp</text>
</a>
</g>
</g>
<!-- Node9&#45;&gt;Node10 -->
<g id="edge9" class="edge">
<title>Node9&#45;&gt;Node10</title>
<path fill="none" stroke="midnightblue" d="M480.91,-190.48C500.53,-180.58 533.13,-164.14 555.99,-152.62"/>
<polygon fill="midnightblue" stroke="midnightblue" points="557.77,-155.64 565.12,-148.01 554.62,-149.39 557.77,-155.64"/>
</g>
<!-- Node11 -->
<g id="node11" class="node">
<title>Node11</title>
<g id="a_node11"><a xlink:title=" ">
<polygon fill="white" stroke="#bfbfbf" points="320,-129 320,-148 438,-148 438,-129 320,-129"/>
<text text-anchor="middle" x="379" y="-136" font-family="Helvetica" font-size="10.00">vsomeip/constants.hpp</text>
</a>
</g>
</g>
<!-- Node9&#45;&gt;Node11 -->
<g id="edge11" class="edge">
<title>Node9&#45;&gt;Node11</title>
<path fill="none" stroke="midnightblue" d="M451.82,-190.48C438.19,-180.93 415.87,-165.31 399.53,-153.87"/>
<polygon fill="midnightblue" stroke="midnightblue" points="401.36,-150.88 391.16,-148.01 397.34,-156.61 401.36,-150.88"/>
</g>
<!-- Node12 -->
<g id="node12" class="node">
<title>Node12</title>
<g id="a_node12"><a xlink:title=" ">
<polygon fill="white" stroke="#bfbfbf" points="456.5,-129 456.5,-148 499.5,-148 499.5,-129 456.5,-129"/>
<text text-anchor="middle" x="478" y="-136" font-family="Helvetica" font-size="10.00">vector</text>
</a>
</g>
</g>
<!-- Node9&#45;&gt;Node12 -->
<g id="edge12" class="edge">
<title>Node9&#45;&gt;Node12</title>
<path fill="none" stroke="midnightblue" d="M466.01,-190.48C468,-181.99 471.13,-168.7 473.69,-157.82"/>
<polygon fill="midnightblue" stroke="midnightblue" points="477.11,-158.54 476,-148.01 470.3,-156.94 477.11,-158.54"/>
</g>
<!-- Node13&#45;&gt;Node6 -->
<g id="edge14" class="edge">
<title>Node13&#45;&gt;Node6</title>
<path fill="none" stroke="midnightblue" d="M721.6,-195.64C752.42,-190.94 791.12,-179.87 815,-154 830.67,-137.03 834.2,-109.7 834.63,-91.42"/>
<polygon fill="midnightblue" stroke="midnightblue" points="838.13,-91.37 834.58,-81.39 831.13,-91.41 838.13,-91.37"/>
</g>
<!-- Node13&#45;&gt;Node8 -->
<g id="edge16" class="edge">
<title>Node13&#45;&gt;Node8</title>
<path fill="none" stroke="midnightblue" d="M674.59,-190.48C675.19,-174.7 674,-140.91 655,-123 628.22,-97.76 535.38,-84.58 466.22,-78.1"/>
<polygon fill="midnightblue" stroke="midnightblue" points="466.47,-74.61 456.19,-77.19 465.84,-81.58 466.47,-74.61"/>
</g>
<!-- Node13&#45;&gt;Node10 -->
<g id="edge15" class="edge">
<title>Node13&#45;&gt;Node10</title>
<path fill="none" stroke="midnightblue" d="M660.82,-190.48C645.93,-180.84 621.46,-165.02 603.73,-153.55"/>
<polygon fill="midnightblue" stroke="midnightblue" points="605.45,-150.5 595.16,-148.01 601.65,-156.38 605.45,-150.5"/>
</g>
<!-- Node14 -->
<g id="node14" class="node">
<title>Node14</title>
<g id="a_node14"><a xlink:href="internal_8hpp.html" target="_top" xlink:title=" ">
<polygon fill="white" stroke="black" points="702,-123.5 702,-153.5 806,-153.5 806,-123.5 702,-123.5"/>
<text text-anchor="start" x="710" y="-141.5" font-family="Helvetica" font-size="10.00">../../configuration</text>
<text text-anchor="middle" x="754" y="-130.5" font-family="Helvetica" font-size="10.00">/include/internal.hpp</text>
</a>
</g>
</g>
<!-- Node13&#45;&gt;Node14 -->
<g id="edge17" class="edge">
<title>Node13&#45;&gt;Node14</title>
<path fill="none" stroke="midnightblue" d="M685.46,-190.48C696.2,-182.49 712.65,-170.25 726.75,-159.77"/>
<polygon fill="midnightblue" stroke="midnightblue" points="729.21,-162.3 735.15,-153.52 725.03,-156.68 729.21,-162.3"/>
</g>
<!-- Node14&#45;&gt;Node6 -->
<g id="edge20" class="edge">
<title>Node14&#45;&gt;Node6</title>
<path fill="none" stroke="midnightblue" d="M771.36,-123.4C784.33,-112.86 802.03,-98.48 815.31,-87.69"/>
<polygon fill="midnightblue" stroke="midnightblue" points="817.74,-90.22 823.3,-81.19 813.33,-84.78 817.74,-90.22"/>
</g>
<!-- Node14&#45;&gt;Node8 -->
<g id="edge21" class="edge">
<title>Node14&#45;&gt;Node8</title>
<path fill="none" stroke="midnightblue" d="M701.81,-125.78C697.15,-124.81 692.49,-123.87 688,-123 607.04,-107.35 513.32,-92.12 452.02,-82.55"/>
<polygon fill="midnightblue" stroke="midnightblue" points="452.51,-79.09 442.09,-81.01 451.43,-86.01 452.51,-79.09"/>
</g>
<!-- Node15 -->
<g id="node15" class="node">
<title>Node15</title>
<g id="a_node15"><a xlink:title=" ">
<polygon fill="white" stroke="#bfbfbf" points="737,-62 737,-81 783,-81 783,-62 737,-62"/>
<text text-anchor="middle" x="760" y="-69" font-family="Helvetica" font-size="10.00">cstdint</text>
</a>
</g>
</g>
<!-- Node14&#45;&gt;Node15 -->
<g id="edge18" class="edge">
<title>Node14&#45;&gt;Node15</title>
<path fill="none" stroke="midnightblue" d="M755.3,-123.4C756.17,-113.96 757.33,-101.45 758.27,-91.19"/>
<polygon fill="midnightblue" stroke="midnightblue" points="761.76,-91.47 759.2,-81.19 754.79,-90.83 761.76,-91.47"/>
</g>
<!-- Node16 -->
<g id="node16" class="node">
<title>Node16</title>
<g id="a_node16"><a xlink:title=" ">
<polygon fill="white" stroke="#bfbfbf" points="561,-62 561,-81 601,-81 601,-62 561,-62"/>
<text text-anchor="middle" x="581" y="-69" font-family="Helvetica" font-size="10.00">limits</text>
</a>
</g>
</g>
<!-- Node14&#45;&gt;Node16 -->
<g id="edge19" class="edge">
<title>Node14&#45;&gt;Node16</title>
<path fill="none" stroke="midnightblue" d="M709.33,-123.45C680.61,-114.03 642.69,-100.84 610,-87 608.83,-86.51 607.65,-85.99 606.46,-85.45"/>
<polygon fill="midnightblue" stroke="midnightblue" points="607.93,-82.28 597.39,-81.15 604.93,-88.6 607.93,-82.28"/>
</g>
<!-- Node17 -->
<g id="node17" class="node">
<title>Node17</title>
<g id="a_node17"><a xlink:href="structured__types_8hpp.html" target="_top" xlink:title=" ">
<polygon fill="white" stroke="black" points="619,-56.5 619,-86.5 719,-86.5 719,-56.5 619,-56.5"/>
<text text-anchor="start" x="627" y="-74.5" font-family="Helvetica" font-size="10.00">vsomeip/structured</text>
<text text-anchor="middle" x="669" y="-63.5" font-family="Helvetica" font-size="10.00">_types.hpp</text>
</a>
</g>
</g>
<!-- Node14&#45;&gt;Node17 -->
<g id="edge22" class="edge">
<title>Node14&#45;&gt;Node17</title>
<path fill="none" stroke="midnightblue" d="M735.56,-123.4C723.86,-114.45 708.54,-102.74 695.55,-92.8"/>
<polygon fill="midnightblue" stroke="midnightblue" points="697.48,-89.87 687.41,-86.58 693.23,-95.43 697.48,-89.87"/>
</g>
<!-- Node17&#45;&gt;Node3 -->
<g id="edge24" class="edge">
<title>Node17&#45;&gt;Node3</title>
<path fill="none" stroke="midnightblue" d="M618.84,-57.91C615.86,-57.24 612.89,-56.6 610,-56 523.44,-38.07 419.94,-22.12 371.52,-14.97"/>
<polygon fill="midnightblue" stroke="midnightblue" points="371.91,-11.49 361.51,-13.51 370.9,-18.42 371.91,-11.49"/>
</g>
<!-- Node18 -->
<g id="node18" class="node">
<title>Node18</title>
<g id="a_node18"><a xlink:title=" ">
<polygon fill="white" stroke="#bfbfbf" points="646,-0.5 646,-19.5 692,-19.5 692,-0.5 646,-0.5"/>
<text text-anchor="middle" x="669" y="-7.5" font-family="Helvetica" font-size="10.00">chrono</text>
</a>
</g>
</g>
<!-- Node17&#45;&gt;Node18 -->
<g id="edge23" class="edge">
<title>Node17&#45;&gt;Node18</title>
<path fill="none" stroke="midnightblue" d="M669,-56.4C669,-48.47 669,-38.46 669,-29.86"/>
<polygon fill="midnightblue" stroke="midnightblue" points="672.5,-29.66 669,-19.66 665.5,-29.66 672.5,-29.66"/>
</g>
</g>
</svg>
