<?xml version="1.0" encoding="UTF-8" standalone="no"?>
<!DOCTYPE svg PUBLIC "-//W3C//DTD SVG 1.1//EN"
 "http://www.w3.org/Graphics/SVG/1.1/DTD/svg11.dtd">
<!-- Generated by graphviz version 2.44.0 (0)
 -->
<!-- Title: /home/ec2&#45;user/workspace/vsomeip/implementation/endpoints/include/endpoint_host.hpp Pages: 1 -->
<svg width="460pt" height="251pt"
 viewBox="0.00 0.00 459.50 251.00" xmlns="http://www.w3.org/2000/svg" xmlns:xlink="http://www.w3.org/1999/xlink">
<g id="graph0" class="graph" transform="scale(1 1) rotate(0) translate(4 247)">
<title>/home/ec2&#45;user/workspace/vsomeip/implementation/endpoints/include/endpoint_host.hpp</title>
<polygon fill="white" stroke="transparent" points="-4,4 -4,-247 455.5,-247 455.5,4 -4,4"/>
<!-- Node1 -->
<g id="node1" class="node">
<title>Node1</title>
<g id="a_node1"><a xlink:title=" ">
<polygon fill="#bfbfbf" stroke="black" points="114,-190.5 114,-242.5 249,-242.5 249,-190.5 114,-190.5"/>
<text text-anchor="start" x="122" y="-230.5" font-family="Helvetica" font-size="10.00">/home/ec2&#45;user/workspace</text>
<text text-anchor="start" x="122" y="-219.5" font-family="Helvetica" font-size="10.00">/vsomeip/implementation</text>
<text text-anchor="start" x="122" y="-208.5" font-family="Helvetica" font-size="10.00">/endpoints/include/endpoint</text>
<text text-anchor="middle" x="181.5" y="-197.5" font-family="Helvetica" font-size="10.00">_host.hpp</text>
</a>
</g>
</g>
<!-- Node2 -->
<g id="node2" class="node">
<title>Node2</title>
<g id="a_node2"><a xlink:title=" ">
<polygon fill="white" stroke="#bfbfbf" points="0,-62 0,-81 53,-81 53,-62 0,-62"/>
<text text-anchor="middle" x="26.5" y="-69" font-family="Helvetica" font-size="10.00">memory</text>
</a>
</g>
</g>
<!-- Node1&#45;&gt;Node2 -->
<g id="edge1" class="edge">
<title>Node1&#45;&gt;Node2</title>
<path fill="none" stroke="midnightblue" d="M154.15,-190.26C122.01,-160.62 69.72,-112.37 43.14,-87.85"/>
<polygon fill="midnightblue" stroke="midnightblue" points="45.49,-85.26 35.77,-81.05 40.75,-90.41 45.49,-85.26"/>
</g>
<!-- Node3 -->
<g id="node3" class="node">
<title>Node3</title>
<g id="a_node3"><a xlink:title=" ">
<polygon fill="white" stroke="#bfbfbf" points="291.5,-129 291.5,-148 419.5,-148 419.5,-129 291.5,-129"/>
<text text-anchor="middle" x="355.5" y="-136" font-family="Helvetica" font-size="10.00">boost/asio/ip/address.hpp</text>
</a>
</g>
</g>
<!-- Node1&#45;&gt;Node3 -->
<g id="edge2" class="edge">
<title>Node1&#45;&gt;Node3</title>
<path fill="none" stroke="midnightblue" d="M238.96,-190.4C268.36,-177.56 302.88,-162.48 326.68,-152.09"/>
<polygon fill="midnightblue" stroke="midnightblue" points="328.1,-155.29 335.86,-148.08 325.3,-148.87 328.1,-155.29"/>
</g>
<!-- Node4 -->
<g id="node4" class="node">
<title>Node4</title>
<g id="a_node4"><a xlink:title=" ">
<polygon fill="white" stroke="#bfbfbf" points="71.5,-62 71.5,-81 211.5,-81 211.5,-62 71.5,-62"/>
<text text-anchor="middle" x="141.5" y="-69" font-family="Helvetica" font-size="10.00">vsomeip/primitive_types.hpp</text>
</a>
</g>
</g>
<!-- Node1&#45;&gt;Node4 -->
<g id="edge3" class="edge">
<title>Node1&#45;&gt;Node4</title>
<path fill="none" stroke="midnightblue" d="M172.24,-190.25C168.36,-179.2 163.95,-166.04 160.5,-154 154.39,-132.67 148.8,-107.77 145.3,-91.17"/>
<polygon fill="midnightblue" stroke="midnightblue" points="148.67,-90.22 143.22,-81.14 141.82,-91.64 148.67,-90.22"/>
</g>
<!-- Node5 -->
<g id="node5" class="node">
<title>Node5</title>
<g id="a_node5"><a xlink:href="internal_8hpp.html" target="_top" xlink:title=" ">
<polygon fill="white" stroke="black" points="169.5,-123.5 169.5,-153.5 273.5,-153.5 273.5,-123.5 169.5,-123.5"/>
<text text-anchor="start" x="177.5" y="-141.5" font-family="Helvetica" font-size="10.00">../../configuration</text>
<text text-anchor="middle" x="221.5" y="-130.5" font-family="Helvetica" font-size="10.00">/include/internal.hpp</text>
</a>
</g>
</g>
<!-- Node1&#45;&gt;Node5 -->
<g id="edge4" class="edge">
<title>Node1&#45;&gt;Node5</title>
<path fill="none" stroke="midnightblue" d="M194.82,-190.19C199.44,-181.41 204.6,-171.6 209.15,-162.97"/>
<polygon fill="midnightblue" stroke="midnightblue" points="212.39,-164.32 213.95,-153.85 206.2,-161.06 212.39,-164.32"/>
</g>
<!-- Node5&#45;&gt;Node2 -->
<g id="edge7" class="edge">
<title>Node5&#45;&gt;Node2</title>
<path fill="none" stroke="midnightblue" d="M173.88,-123.4C142.12,-113.75 99.57,-100.33 62.5,-87 60.6,-86.32 58.65,-85.59 56.69,-84.85"/>
<polygon fill="midnightblue" stroke="midnightblue" points="57.55,-81.43 46.96,-81.05 55,-87.95 57.55,-81.43"/>
</g>
<!-- Node5&#45;&gt;Node4 -->
<g id="edge8" class="edge">
<title>Node5&#45;&gt;Node4</title>
<path fill="none" stroke="midnightblue" d="M204.14,-123.4C191.17,-112.86 173.47,-98.48 160.19,-87.69"/>
<polygon fill="midnightblue" stroke="midnightblue" points="162.17,-84.78 152.2,-81.19 157.76,-90.22 162.17,-84.78"/>
</g>
<!-- Node6 -->
<g id="node6" class="node">
<title>Node6</title>
<g id="a_node6"><a xlink:title=" ">
<polygon fill="white" stroke="#bfbfbf" points="229.5,-62 229.5,-81 275.5,-81 275.5,-62 229.5,-62"/>
<text text-anchor="middle" x="252.5" y="-69" font-family="Helvetica" font-size="10.00">cstdint</text>
</a>
</g>
</g>
<!-- Node5&#45;&gt;Node6 -->
<g id="edge5" class="edge">
<title>Node5&#45;&gt;Node6</title>
<path fill="none" stroke="midnightblue" d="M228.23,-123.4C232.82,-113.76 238.95,-100.91 243.9,-90.54"/>
<polygon fill="midnightblue" stroke="midnightblue" points="247.21,-91.73 248.35,-81.19 240.89,-88.71 247.21,-91.73"/>
</g>
<!-- Node7 -->
<g id="node7" class="node">
<title>Node7</title>
<g id="a_node7"><a xlink:title=" ">
<polygon fill="white" stroke="#bfbfbf" points="293.5,-62 293.5,-81 333.5,-81 333.5,-62 293.5,-62"/>
<text text-anchor="middle" x="313.5" y="-69" font-family="Helvetica" font-size="10.00">limits</text>
</a>
</g>
</g>
<!-- Node5&#45;&gt;Node7 -->
<g id="edge6" class="edge">
<title>Node5&#45;&gt;Node7</title>
<path fill="none" stroke="midnightblue" d="M241.46,-123.4C256.75,-112.6 277.75,-97.76 293.14,-86.89"/>
<polygon fill="midnightblue" stroke="midnightblue" points="295.31,-89.64 301.46,-81.01 291.27,-83.92 295.31,-89.64"/>
</g>
<!-- Node8 -->
<g id="node8" class="node">
<title>Node8</title>
<g id="a_node8"><a xlink:href="structured__types_8hpp.html" target="_top" xlink:title=" ">
<polygon fill="white" stroke="black" points="351.5,-56.5 351.5,-86.5 451.5,-86.5 451.5,-56.5 351.5,-56.5"/>
<text text-anchor="start" x="359.5" y="-74.5" font-family="Helvetica" font-size="10.00">vsomeip/structured</text>
<text text-anchor="middle" x="401.5" y="-63.5" font-family="Helvetica" font-size="10.00">_types.hpp</text>
</a>
</g>
</g>
<!-- Node5&#45;&gt;Node8 -->
<g id="edge9" class="edge">
<title>Node5&#45;&gt;Node8</title>
<path fill="none" stroke="midnightblue" d="M260.56,-123.4C287.68,-113.6 324.01,-100.48 353,-90.02"/>
<polygon fill="midnightblue" stroke="midnightblue" points="354.3,-93.26 362.52,-86.58 351.92,-86.68 354.3,-93.26"/>
</g>
<!-- Node9 -->
<g id="node9" class="node">
<title>Node9</title>
<g id="a_node9"><a xlink:title=" ">
<polygon fill="white" stroke="#bfbfbf" points="348.5,-0.5 348.5,-19.5 394.5,-19.5 394.5,-0.5 348.5,-0.5"/>
<text text-anchor="middle" x="371.5" y="-7.5" font-family="Helvetica" font-size="10.00">chrono</text>
</a>
</g>
</g>
<!-- Node8&#45;&gt;Node9 -->
<g id="edge10" class="edge">
<title>Node8&#45;&gt;Node9</title>
<path fill="none" stroke="midnightblue" d="M394.39,-56.4C390.21,-48.11 384.89,-37.55 380.43,-28.71"/>
<polygon fill="midnightblue" stroke="midnightblue" points="383.49,-27.01 375.87,-19.66 377.24,-30.16 383.49,-27.01"/>
</g>
<!-- Node10 -->
<g id="node10" class="node">
<title>Node10</title>
<g id="a_node10"><a xlink:title=" ">
<polygon fill="white" stroke="#bfbfbf" points="413,-0.5 413,-19.5 448,-19.5 448,-0.5 413,-0.5"/>
<text text-anchor="middle" x="430.5" y="-7.5" font-family="Helvetica" font-size="10.00">map</text>
</a>
</g>
</g>
<!-- Node8&#45;&gt;Node10 -->
<g id="edge11" class="edge">
<title>Node8&#45;&gt;Node10</title>
<path fill="none" stroke="midnightblue" d="M408.37,-56.4C412.41,-48.11 417.56,-37.55 421.87,-28.71"/>
<polygon fill="midnightblue" stroke="midnightblue" points="425.05,-30.18 426.28,-19.66 418.75,-27.11 425.05,-30.18"/>
</g>
</g>
</svg>
