<?xml version="1.0" encoding="UTF-8" standalone="no"?>
<!DOCTYPE svg PUBLIC "-//W3C//DTD SVG 1.1//EN"
 "http://www.w3.org/Graphics/SVG/1.1/DTD/svg11.dtd">
<!-- Generated by graphviz version 2.44.0 (0)
 -->
<!-- Title: /home/ec2&#45;user/workspace/vsomeip/implementation/endpoints/include/endpoint_manager_impl.hpp Pages: 1 -->
<svg width="903pt" height="374pt"
 viewBox="0.00 0.00 902.50 374.00" xmlns="http://www.w3.org/2000/svg" xmlns:xlink="http://www.w3.org/1999/xlink">
<g id="graph0" class="graph" transform="scale(1 1) rotate(0) translate(4 370)">
<title>/home/ec2&#45;user/workspace/vsomeip/implementation/endpoints/include/endpoint_manager_impl.hpp</title>
<polygon fill="white" stroke="transparent" points="-4,4 -4,-370 898.5,-370 898.5,4 -4,4"/>
<!-- Node1 -->
<g id="node1" class="node">
<title>Node1</title>
<g id="a_node1"><a xlink:title=" ">
<polygon fill="#bfbfbf" stroke="black" points="97.5,-313.5 97.5,-365.5 232.5,-365.5 232.5,-313.5 97.5,-313.5"/>
<text text-anchor="start" x="105.5" y="-353.5" font-family="Helvetica" font-size="10.00">/home/ec2&#45;user/workspace</text>
<text text-anchor="start" x="105.5" y="-342.5" font-family="Helvetica" font-size="10.00">/vsomeip/implementation</text>
<text text-anchor="start" x="105.5" y="-331.5" font-family="Helvetica" font-size="10.00">/endpoints/include/endpoint</text>
<text text-anchor="middle" x="165" y="-320.5" font-family="Helvetica" font-size="10.00">_manager_impl.hpp</text>
</a>
</g>
</g>
<!-- Node2 -->
<g id="node2" class="node">
<title>Node2</title>
<g id="a_node2"><a xlink:title=" ">
<polygon fill="white" stroke="#bfbfbf" points="0,-252 0,-271 94,-271 94,-252 0,-252"/>
<text text-anchor="middle" x="47" y="-259" font-family="Helvetica" font-size="10.00">condition_variable</text>
</a>
</g>
</g>
<!-- Node1&#45;&gt;Node2 -->
<g id="edge1" class="edge">
<title>Node1&#45;&gt;Node2</title>
<path fill="none" stroke="midnightblue" d="M126.04,-313.4C107.07,-301.19 84.97,-286.95 68.96,-276.65"/>
<polygon fill="midnightblue" stroke="midnightblue" points="70.62,-273.55 60.32,-271.08 66.83,-279.44 70.62,-273.55"/>
</g>
<!-- Node3 -->
<g id="node3" class="node">
<title>Node3</title>
<g id="a_node3"><a xlink:title=" ">
<polygon fill="white" stroke="#bfbfbf" points="112.5,-252 112.5,-271 155.5,-271 155.5,-252 112.5,-252"/>
<text text-anchor="middle" x="134" y="-259" font-family="Helvetica" font-size="10.00">queue</text>
</a>
</g>
</g>
<!-- Node1&#45;&gt;Node3 -->
<g id="edge2" class="edge">
<title>Node1&#45;&gt;Node3</title>
<path fill="none" stroke="midnightblue" d="M154.68,-313.19C150.33,-302.54 145.37,-290.38 141.4,-280.64"/>
<polygon fill="midnightblue" stroke="midnightblue" points="144.57,-279.15 137.55,-271.21 138.09,-281.79 144.57,-279.15"/>
</g>
<!-- Node4 -->
<g id="node4" class="node">
<title>Node4</title>
<g id="a_node4"><a xlink:title=" ">
<polygon fill="white" stroke="#bfbfbf" points="174,-252 174,-271 218,-271 218,-252 174,-252"/>
<text text-anchor="middle" x="196" y="-259" font-family="Helvetica" font-size="10.00">thread</text>
</a>
</g>
</g>
<!-- Node1&#45;&gt;Node4 -->
<g id="edge3" class="edge">
<title>Node1&#45;&gt;Node4</title>
<path fill="none" stroke="midnightblue" d="M175.32,-313.19C179.67,-302.54 184.63,-290.38 188.6,-280.64"/>
<polygon fill="midnightblue" stroke="midnightblue" points="191.91,-281.79 192.45,-271.21 185.43,-279.15 191.91,-281.79"/>
</g>
<!-- Node5 -->
<g id="node5" class="node">
<title>Node5</title>
<g id="a_node5"><a xlink:href="endpoint__manager__base_8hpp.html" target="_top" xlink:title=" ">
<polygon fill="white" stroke="black" points="236,-246.5 236,-276.5 340,-276.5 340,-246.5 236,-246.5"/>
<text text-anchor="start" x="244" y="-264.5" font-family="Helvetica" font-size="10.00">../include/endpoint</text>
<text text-anchor="middle" x="288" y="-253.5" font-family="Helvetica" font-size="10.00">_manager_base.hpp</text>
</a>
</g>
</g>
<!-- Node1&#45;&gt;Node5 -->
<g id="edge4" class="edge">
<title>Node1&#45;&gt;Node5</title>
<path fill="none" stroke="midnightblue" d="M205.62,-313.4C222.11,-303.21 240.88,-291.61 256.33,-282.07"/>
<polygon fill="midnightblue" stroke="midnightblue" points="258.34,-284.94 265.01,-276.71 254.66,-278.99 258.34,-284.94"/>
</g>
<!-- Node6 -->
<g id="node6" class="node">
<title>Node6</title>
<g id="a_node6"><a xlink:title=" ">
<polygon fill="white" stroke="#bfbfbf" points="34,-190.5 34,-209.5 78,-209.5 78,-190.5 34,-190.5"/>
<text text-anchor="middle" x="56" y="-197.5" font-family="Helvetica" font-size="10.00">mutex</text>
</a>
</g>
</g>
<!-- Node5&#45;&gt;Node6 -->
<g id="edge5" class="edge">
<title>Node5&#45;&gt;Node6</title>
<path fill="none" stroke="midnightblue" d="M235.93,-247.15C190.63,-235.53 126.4,-219.06 88.2,-209.26"/>
<polygon fill="midnightblue" stroke="midnightblue" points="88.7,-205.77 78.15,-206.68 86.96,-212.55 88.7,-205.77"/>
</g>
<!-- Node7 -->
<g id="node7" class="node">
<title>Node7</title>
<g id="a_node7"><a xlink:title=" ">
<polygon fill="white" stroke="#bfbfbf" points="360.5,-0.5 360.5,-19.5 395.5,-19.5 395.5,-0.5 360.5,-0.5"/>
<text text-anchor="middle" x="378" y="-7.5" font-family="Helvetica" font-size="10.00">map</text>
</a>
</g>
</g>
<!-- Node5&#45;&gt;Node7 -->
<g id="edge6" class="edge">
<title>Node5&#45;&gt;Node7</title>
<path fill="none" stroke="midnightblue" d="M235.95,-247.66C190.88,-236.02 131.86,-219.3 125,-210 119.73,-202.84 120.91,-197.89 125,-190 173.44,-96.4 295.87,-41.24 350.7,-20.49"/>
<polygon fill="midnightblue" stroke="midnightblue" points="352.25,-23.65 360.43,-16.91 349.83,-17.08 352.25,-23.65"/>
</g>
<!-- Node8 -->
<g id="node8" class="node">
<title>Node8</title>
<g id="a_node8"><a xlink:title=" ">
<polygon fill="white" stroke="#bfbfbf" points="134,-190.5 134,-209.5 164,-209.5 164,-190.5 134,-190.5"/>
<text text-anchor="middle" x="149" y="-197.5" font-family="Helvetica" font-size="10.00">set</text>
</a>
</g>
</g>
<!-- Node5&#45;&gt;Node8 -->
<g id="edge7" class="edge">
<title>Node5&#45;&gt;Node8</title>
<path fill="none" stroke="midnightblue" d="M255.06,-246.4C230.02,-235.68 196.14,-221.18 173.47,-211.48"/>
<polygon fill="midnightblue" stroke="midnightblue" points="174.78,-208.23 164.21,-207.51 172.03,-214.66 174.78,-208.23"/>
</g>
<!-- Node9 -->
<g id="node9" class="node">
<title>Node9</title>
<g id="a_node9"><a xlink:title=" ">
<polygon fill="white" stroke="#bfbfbf" points="182,-190.5 182,-209.5 260,-209.5 260,-190.5 182,-190.5"/>
<text text-anchor="middle" x="221" y="-197.5" font-family="Helvetica" font-size="10.00">unordered_set</text>
</a>
</g>
</g>
<!-- Node5&#45;&gt;Node9 -->
<g id="edge8" class="edge">
<title>Node5&#45;&gt;Node9</title>
<path fill="none" stroke="midnightblue" d="M272.12,-246.4C261.98,-237.4 248.84,-225.72 238.41,-216.47"/>
<polygon fill="midnightblue" stroke="midnightblue" points="240.55,-213.68 230.75,-209.66 235.9,-218.92 240.55,-213.68"/>
</g>
<!-- Node10 -->
<g id="node10" class="node">
<title>Node10</title>
<g id="a_node10"><a xlink:title=" ">
<polygon fill="white" stroke="#bfbfbf" points="841.5,-62 841.5,-81 894.5,-81 894.5,-62 841.5,-62"/>
<text text-anchor="middle" x="868" y="-69" font-family="Helvetica" font-size="10.00">memory</text>
</a>
</g>
</g>
<!-- Node5&#45;&gt;Node10 -->
<g id="edge9" class="edge">
<title>Node5&#45;&gt;Node10</title>
<path fill="none" stroke="midnightblue" d="M340.12,-261.43C429.23,-261.6 615.73,-255.8 765,-210 815.56,-194.49 842.79,-199.35 870,-154 881.41,-134.98 878.1,-108.72 873.82,-91.2"/>
<polygon fill="midnightblue" stroke="midnightblue" points="877.07,-89.8 871.01,-81.11 870.32,-91.68 877.07,-89.8"/>
</g>
<!-- Node11 -->
<g id="node11" class="node">
<title>Node11</title>
<g id="a_node11"><a xlink:title=" ">
<polygon fill="white" stroke="#bfbfbf" points="316,-190.5 316,-209.5 444,-209.5 444,-190.5 316,-190.5"/>
<text text-anchor="middle" x="380" y="-197.5" font-family="Helvetica" font-size="10.00">boost/asio/io_service.hpp</text>
</a>
</g>
</g>
<!-- Node5&#45;&gt;Node11 -->
<g id="edge10" class="edge">
<title>Node5&#45;&gt;Node11</title>
<path fill="none" stroke="midnightblue" d="M309.8,-246.4C324.41,-236.95 343.57,-224.56 358.18,-215.11"/>
<polygon fill="midnightblue" stroke="midnightblue" points="360.12,-218.03 366.61,-209.66 356.32,-212.15 360.12,-218.03"/>
</g>
<!-- Node12 -->
<g id="node12" class="node">
<title>Node12</title>
<g id="a_node12"><a xlink:title=" ">
<polygon fill="white" stroke="#bfbfbf" points="350,-62 350,-81 490,-81 490,-62 350,-62"/>
<text text-anchor="middle" x="420" y="-69" font-family="Helvetica" font-size="10.00">vsomeip/primitive_types.hpp</text>
</a>
</g>
</g>
<!-- Node5&#45;&gt;Node12 -->
<g id="edge11" class="edge">
<title>Node5&#45;&gt;Node12</title>
<path fill="none" stroke="midnightblue" d="M289.45,-246.29C292.9,-219.22 303.86,-159.72 336,-123 350.37,-106.58 371.43,-93.94 388.86,-85.41"/>
<polygon fill="midnightblue" stroke="midnightblue" points="390.52,-88.49 398.11,-81.1 387.57,-82.15 390.52,-88.49"/>
</g>
<!-- Node13 -->
<g id="node13" class="node">
<title>Node13</title>
<g id="a_node13"><a xlink:href="endpoint_8hpp.html" target="_top" xlink:title=" ">
<polygon fill="white" stroke="black" points="462.5,-190.5 462.5,-209.5 533.5,-209.5 533.5,-190.5 462.5,-190.5"/>
<text text-anchor="middle" x="498" y="-197.5" font-family="Helvetica" font-size="10.00">endpoint.hpp</text>
</a>
</g>
</g>
<!-- Node5&#45;&gt;Node13 -->
<g id="edge12" class="edge">
<title>Node5&#45;&gt;Node13</title>
<path fill="none" stroke="midnightblue" d="M337.5,-246.47C374.36,-236.03 424.03,-221.96 458.31,-212.25"/>
<polygon fill="midnightblue" stroke="midnightblue" points="459.31,-215.6 467.98,-209.51 457.4,-208.87 459.31,-215.6"/>
</g>
<!-- Node17 -->
<g id="node17" class="node">
<title>Node17</title>
<g id="a_node17"><a xlink:href="endpoint__host_8hpp.html" target="_top" xlink:title=" ">
<polygon fill="white" stroke="black" points="660.5,-190.5 660.5,-209.5 755.5,-209.5 755.5,-190.5 660.5,-190.5"/>
<text text-anchor="middle" x="708" y="-197.5" font-family="Helvetica" font-size="10.00">endpoint_host.hpp</text>
</a>
</g>
</g>
<!-- Node5&#45;&gt;Node17 -->
<g id="edge17" class="edge">
<title>Node5&#45;&gt;Node17</title>
<path fill="none" stroke="midnightblue" d="M340.34,-253.08C419.21,-241.91 568,-220.83 650.04,-209.21"/>
<polygon fill="midnightblue" stroke="midnightblue" points="650.78,-212.64 660.19,-207.77 649.8,-205.71 650.78,-212.64"/>
</g>
<!-- Node13&#45;&gt;Node12 -->
<g id="edge14" class="edge">
<title>Node13&#45;&gt;Node12</title>
<path fill="none" stroke="midnightblue" d="M462.44,-190.9C419.52,-180.77 352.17,-163.59 345,-154 336.75,-142.97 338.53,-135.16 345,-123 354.06,-105.97 371.71,-93.66 387.6,-85.45"/>
<polygon fill="midnightblue" stroke="midnightblue" points="389.18,-88.57 396.68,-81.09 386.15,-82.26 389.18,-88.57"/>
</g>
<!-- Node14 -->
<g id="node14" class="node">
<title>Node14</title>
<g id="a_node14"><a xlink:title=" ">
<polygon fill="white" stroke="#bfbfbf" points="552,-129 552,-148 680,-148 680,-129 552,-129"/>
<text text-anchor="middle" x="616" y="-136" font-family="Helvetica" font-size="10.00">boost/asio/ip/address.hpp</text>
</a>
</g>
</g>
<!-- Node13&#45;&gt;Node14 -->
<g id="edge13" class="edge">
<title>Node13&#45;&gt;Node14</title>
<path fill="none" stroke="midnightblue" d="M514.91,-190.48C534.53,-180.58 567.13,-164.14 589.99,-152.62"/>
<polygon fill="midnightblue" stroke="midnightblue" points="591.77,-155.64 599.12,-148.01 588.62,-149.39 591.77,-155.64"/>
</g>
<!-- Node15 -->
<g id="node15" class="node">
<title>Node15</title>
<g id="a_node15"><a xlink:title=" ">
<polygon fill="white" stroke="#bfbfbf" points="354,-129 354,-148 472,-148 472,-129 354,-129"/>
<text text-anchor="middle" x="413" y="-136" font-family="Helvetica" font-size="10.00">vsomeip/constants.hpp</text>
</a>
</g>
</g>
<!-- Node13&#45;&gt;Node15 -->
<g id="edge15" class="edge">
<title>Node13&#45;&gt;Node15</title>
<path fill="none" stroke="midnightblue" d="M485.82,-190.48C472.19,-180.93 449.87,-165.31 433.53,-153.87"/>
<polygon fill="midnightblue" stroke="midnightblue" points="435.36,-150.88 425.16,-148.01 431.34,-156.61 435.36,-150.88"/>
</g>
<!-- Node16 -->
<g id="node16" class="node">
<title>Node16</title>
<g id="a_node16"><a xlink:title=" ">
<polygon fill="white" stroke="#bfbfbf" points="490.5,-129 490.5,-148 533.5,-148 533.5,-129 490.5,-129"/>
<text text-anchor="middle" x="512" y="-136" font-family="Helvetica" font-size="10.00">vector</text>
</a>
</g>
</g>
<!-- Node13&#45;&gt;Node16 -->
<g id="edge16" class="edge">
<title>Node13&#45;&gt;Node16</title>
<path fill="none" stroke="midnightblue" d="M500.01,-190.48C502,-181.99 505.13,-168.7 507.69,-157.82"/>
<polygon fill="midnightblue" stroke="midnightblue" points="511.11,-158.54 510,-148.01 504.3,-156.94 511.11,-158.54"/>
</g>
<!-- Node17&#45;&gt;Node10 -->
<g id="edge18" class="edge">
<title>Node17&#45;&gt;Node10</title>
<path fill="none" stroke="midnightblue" d="M755.6,-195.64C786.42,-190.94 825.12,-179.87 849,-154 864.67,-137.03 868.2,-109.7 868.63,-91.42"/>
<polygon fill="midnightblue" stroke="midnightblue" points="872.13,-91.37 868.58,-81.39 865.13,-91.41 872.13,-91.37"/>
</g>
<!-- Node17&#45;&gt;Node12 -->
<g id="edge20" class="edge">
<title>Node17&#45;&gt;Node12</title>
<path fill="none" stroke="midnightblue" d="M708.59,-190.48C709.19,-174.7 708,-140.91 689,-123 662.22,-97.76 569.38,-84.58 500.22,-78.1"/>
<polygon fill="midnightblue" stroke="midnightblue" points="500.47,-74.61 490.19,-77.19 499.84,-81.58 500.47,-74.61"/>
</g>
<!-- Node17&#45;&gt;Node14 -->
<g id="edge19" class="edge">
<title>Node17&#45;&gt;Node14</title>
<path fill="none" stroke="midnightblue" d="M694.82,-190.48C679.93,-180.84 655.46,-165.02 637.73,-153.55"/>
<polygon fill="midnightblue" stroke="midnightblue" points="639.45,-150.5 629.16,-148.01 635.65,-156.38 639.45,-150.5"/>
</g>
<!-- Node18 -->
<g id="node18" class="node">
<title>Node18</title>
<g id="a_node18"><a xlink:href="internal_8hpp.html" target="_top" xlink:title=" ">
<polygon fill="white" stroke="black" points="736,-123.5 736,-153.5 840,-153.5 840,-123.5 736,-123.5"/>
<text text-anchor="start" x="744" y="-141.5" font-family="Helvetica" font-size="10.00">../../configuration</text>
<text text-anchor="middle" x="788" y="-130.5" font-family="Helvetica" font-size="10.00">/include/internal.hpp</text>
</a>
</g>
</g>
<!-- Node17&#45;&gt;Node18 -->
<g id="edge21" class="edge">
<title>Node17&#45;&gt;Node18</title>
<path fill="none" stroke="midnightblue" d="M719.46,-190.48C730.2,-182.49 746.65,-170.25 760.75,-159.77"/>
<polygon fill="midnightblue" stroke="midnightblue" points="763.21,-162.3 769.15,-153.52 759.03,-156.68 763.21,-162.3"/>
</g>
<!-- Node18&#45;&gt;Node10 -->
<g id="edge24" class="edge">
<title>Node18&#45;&gt;Node10</title>
<path fill="none" stroke="midnightblue" d="M805.36,-123.4C818.33,-112.86 836.03,-98.48 849.31,-87.69"/>
<polygon fill="midnightblue" stroke="midnightblue" points="851.74,-90.22 857.3,-81.19 847.33,-84.78 851.74,-90.22"/>
</g>
<!-- Node18&#45;&gt;Node12 -->
<g id="edge25" class="edge">
<title>Node18&#45;&gt;Node12</title>
<path fill="none" stroke="midnightblue" d="M735.81,-125.78C731.15,-124.81 726.49,-123.87 722,-123 641.04,-107.35 547.32,-92.12 486.02,-82.55"/>
<polygon fill="midnightblue" stroke="midnightblue" points="486.51,-79.09 476.09,-81.01 485.43,-86.01 486.51,-79.09"/>
</g>
<!-- Node19 -->
<g id="node19" class="node">
<title>Node19</title>
<g id="a_node19"><a xlink:title=" ">
<polygon fill="white" stroke="#bfbfbf" points="771,-62 771,-81 817,-81 817,-62 771,-62"/>
<text text-anchor="middle" x="794" y="-69" font-family="Helvetica" font-size="10.00">cstdint</text>
</a>
</g>
</g>
<!-- Node18&#45;&gt;Node19 -->
<g id="edge22" class="edge">
<title>Node18&#45;&gt;Node19</title>
<path fill="none" stroke="midnightblue" d="M789.3,-123.4C790.17,-113.96 791.33,-101.45 792.27,-91.19"/>
<polygon fill="midnightblue" stroke="midnightblue" points="795.76,-91.47 793.2,-81.19 788.79,-90.83 795.76,-91.47"/>
</g>
<!-- Node20 -->
<g id="node20" class="node">
<title>Node20</title>
<g id="a_node20"><a xlink:title=" ">
<polygon fill="white" stroke="#bfbfbf" points="595,-62 595,-81 635,-81 635,-62 595,-62"/>
<text text-anchor="middle" x="615" y="-69" font-family="Helvetica" font-size="10.00">limits</text>
</a>
</g>
</g>
<!-- Node18&#45;&gt;Node20 -->
<g id="edge23" class="edge">
<title>Node18&#45;&gt;Node20</title>
<path fill="none" stroke="midnightblue" d="M743.33,-123.45C714.61,-114.03 676.69,-100.84 644,-87 642.83,-86.51 641.65,-85.99 640.46,-85.45"/>
<polygon fill="midnightblue" stroke="midnightblue" points="641.93,-82.28 631.39,-81.15 638.93,-88.6 641.93,-82.28"/>
</g>
<!-- Node21 -->
<g id="node21" class="node">
<title>Node21</title>
<g id="a_node21"><a xlink:href="structured__types_8hpp.html" target="_top" xlink:title=" ">
<polygon fill="white" stroke="black" points="653,-56.5 653,-86.5 753,-86.5 753,-56.5 653,-56.5"/>
<text text-anchor="start" x="661" y="-74.5" font-family="Helvetica" font-size="10.00">vsomeip/structured</text>
<text text-anchor="middle" x="703" y="-63.5" font-family="Helvetica" font-size="10.00">_types.hpp</text>
</a>
</g>
</g>
<!-- Node18&#45;&gt;Node21 -->
<g id="edge26" class="edge">
<title>Node18&#45;&gt;Node21</title>
<path fill="none" stroke="midnightblue" d="M769.56,-123.4C757.86,-114.45 742.54,-102.74 729.55,-92.8"/>
<polygon fill="midnightblue" stroke="midnightblue" points="731.48,-89.87 721.41,-86.58 727.23,-95.43 731.48,-89.87"/>
</g>
<!-- Node21&#45;&gt;Node7 -->
<g id="edge28" class="edge">
<title>Node21&#45;&gt;Node7</title>
<path fill="none" stroke="midnightblue" d="M652.84,-57.91C649.86,-57.24 646.89,-56.6 644,-56 557.44,-38.07 453.94,-22.12 405.52,-14.97"/>
<polygon fill="midnightblue" stroke="midnightblue" points="405.91,-11.49 395.51,-13.51 404.9,-18.42 405.91,-11.49"/>
</g>
<!-- Node22 -->
<g id="node22" class="node">
<title>Node22</title>
<g id="a_node22"><a xlink:title=" ">
<polygon fill="white" stroke="#bfbfbf" points="680,-0.5 680,-19.5 726,-19.5 726,-0.5 680,-0.5"/>
<text text-anchor="middle" x="703" y="-7.5" font-family="Helvetica" font-size="10.00">chrono</text>
</a>
</g>
</g>
<!-- Node21&#45;&gt;Node22 -->
<g id="edge27" class="edge">
<title>Node21&#45;&gt;Node22</title>
<path fill="none" stroke="midnightblue" d="M703,-56.4C703,-48.47 703,-38.46 703,-29.86"/>
<polygon fill="midnightblue" stroke="midnightblue" points="706.5,-29.66 703,-19.66 699.5,-29.66 706.5,-29.66"/>
</g>
</g>
</svg>
