<?xml version="1.0" encoding="UTF-8" standalone="no"?>
<!DOCTYPE svg PUBLIC "-//W3C//DTD SVG 1.1//EN"
 "http://www.w3.org/Graphics/SVG/1.1/DTD/svg11.dtd">
<!-- Generated by graphviz version 2.44.0 (0)
 -->
<!-- Title: /home/ec2&#45;user/workspace/vsomeip/implementation/endpoints/include/buffer.hpp Pages: 1 -->
<svg width="818pt" height="106pt"
 viewBox="0.00 0.00 818.00 106.00" xmlns="http://www.w3.org/2000/svg" xmlns:xlink="http://www.w3.org/1999/xlink">
<g id="graph0" class="graph" transform="scale(1 1) rotate(0) translate(4 102)">
<title>/home/ec2&#45;user/workspace/vsomeip/implementation/endpoints/include/buffer.hpp</title>
<polygon fill="white" stroke="transparent" points="-4,4 -4,-102 814,-102 814,4 -4,4"/>
<!-- Node1 -->
<g id="node1" class="node">
<title>Node1</title>
<g id="a_node1"><a xlink:title=" ">
<polygon fill="#bfbfbf" stroke="black" points="184.5,-56.5 184.5,-97.5 325.5,-97.5 325.5,-56.5 184.5,-56.5"/>
<text text-anchor="start" x="192.5" y="-85.5" font-family="Helvetica" font-size="10.00">/home/ec2&#45;user/workspace</text>
<text text-anchor="start" x="192.5" y="-74.5" font-family="Helvetica" font-size="10.00">/vsomeip/implementation</text>
<text text-anchor="middle" x="255" y="-63.5" font-family="Helvetica" font-size="10.00">/endpoints/include/buffer.hpp</text>
</a>
</g>
</g>
<!-- Node2 -->
<g id="node2" class="node">
<title>Node2</title>
<g id="a_node2"><a xlink:title=" ">
<polygon fill="white" stroke="#bfbfbf" points="0,-0.5 0,-19.5 38,-19.5 38,-0.5 0,-0.5"/>
<text text-anchor="middle" x="19" y="-7.5" font-family="Helvetica" font-size="10.00">array</text>
</a>
</g>
</g>
<!-- Node1&#45;&gt;Node2 -->
<g id="edge1" class="edge">
<title>Node1&#45;&gt;Node2</title>
<path fill="none" stroke="midnightblue" d="M184.48,-57.91C146.54,-47.97 98.75,-35.11 48.07,-20.22"/>
<polygon fill="midnightblue" stroke="midnightblue" points="48.82,-16.8 38.24,-17.32 46.84,-23.51 48.82,-16.8"/>
</g>
<!-- Node3 -->
<g id="node3" class="node">
<title>Node3</title>
<g id="a_node3"><a xlink:title=" ">
<polygon fill="white" stroke="#bfbfbf" points="56,-0.5 56,-19.5 102,-19.5 102,-0.5 56,-0.5"/>
<text text-anchor="middle" x="79" y="-7.5" font-family="Helvetica" font-size="10.00">chrono</text>
</a>
</g>
</g>
<!-- Node1&#45;&gt;Node3 -->
<g id="edge2" class="edge">
<title>Node1&#45;&gt;Node3</title>
<path fill="none" stroke="midnightblue" d="M202.19,-56.5C172.87,-45.67 137.32,-32.54 111.95,-23.17"/>
<polygon fill="midnightblue" stroke="midnightblue" points="113.02,-19.83 102.43,-19.65 110.6,-26.4 113.02,-19.83"/>
</g>
<!-- Node4 -->
<g id="node4" class="node">
<title>Node4</title>
<g id="a_node4"><a xlink:title=" ">
<polygon fill="white" stroke="#bfbfbf" points="120.5,-0.5 120.5,-19.5 173.5,-19.5 173.5,-0.5 120.5,-0.5"/>
<text text-anchor="middle" x="147" y="-7.5" font-family="Helvetica" font-size="10.00">memory</text>
</a>
</g>
</g>
<!-- Node1&#45;&gt;Node4 -->
<g id="edge3" class="edge">
<title>Node1&#45;&gt;Node4</title>
<path fill="none" stroke="midnightblue" d="M222.6,-56.5C205.72,-46.34 185.47,-34.16 170.18,-24.95"/>
<polygon fill="midnightblue" stroke="midnightblue" points="171.75,-21.81 161.38,-19.65 168.14,-27.81 171.75,-21.81"/>
</g>
<!-- Node5 -->
<g id="node5" class="node">
<title>Node5</title>
<g id="a_node5"><a xlink:title=" ">
<polygon fill="white" stroke="#bfbfbf" points="192,-0.5 192,-19.5 222,-19.5 222,-0.5 192,-0.5"/>
<text text-anchor="middle" x="207" y="-7.5" font-family="Helvetica" font-size="10.00">set</text>
</a>
</g>
</g>
<!-- Node1&#45;&gt;Node5 -->
<g id="edge4" class="edge">
<title>Node1&#45;&gt;Node5</title>
<path fill="none" stroke="midnightblue" d="M240.6,-56.5C233.88,-47.39 225.95,-36.66 219.49,-27.91"/>
<polygon fill="midnightblue" stroke="midnightblue" points="222.15,-25.62 213.39,-19.65 216.51,-29.78 222.15,-25.62"/>
</g>
<!-- Node6 -->
<g id="node6" class="node">
<title>Node6</title>
<g id="a_node6"><a xlink:title=" ">
<polygon fill="white" stroke="#bfbfbf" points="240,-0.5 240,-19.5 368,-19.5 368,-0.5 240,-0.5"/>
<text text-anchor="middle" x="304" y="-7.5" font-family="Helvetica" font-size="10.00">boost/asio/io_service.hpp</text>
</a>
</g>
</g>
<!-- Node1&#45;&gt;Node6 -->
<g id="edge5" class="edge">
<title>Node1&#45;&gt;Node6</title>
<path fill="none" stroke="midnightblue" d="M269.7,-56.5C276.56,-47.39 284.65,-36.66 291.25,-27.91"/>
<polygon fill="midnightblue" stroke="midnightblue" points="294.25,-29.74 297.48,-19.65 288.66,-25.53 294.25,-29.74"/>
</g>
<!-- Node7 -->
<g id="node7" class="node">
<title>Node7</title>
<g id="a_node7"><a xlink:title=" ">
<polygon fill="white" stroke="#bfbfbf" points="386,-0.5 386,-19.5 526,-19.5 526,-0.5 386,-0.5"/>
<text text-anchor="middle" x="456" y="-7.5" font-family="Helvetica" font-size="10.00">boost/asio/steady_timer.hpp</text>
</a>
</g>
</g>
<!-- Node1&#45;&gt;Node7 -->
<g id="edge6" class="edge">
<title>Node1&#45;&gt;Node7</title>
<path fill="none" stroke="midnightblue" d="M315.31,-56.5C349.34,-45.49 390.73,-32.11 419.78,-22.71"/>
<polygon fill="midnightblue" stroke="midnightblue" points="421.07,-25.97 429.51,-19.57 418.92,-19.31 421.07,-25.97"/>
</g>
<!-- Node8 -->
<g id="node8" class="node">
<title>Node8</title>
<g id="a_node8"><a xlink:title=" ">
<polygon fill="white" stroke="#bfbfbf" points="544.5,-0.5 544.5,-19.5 651.5,-19.5 651.5,-0.5 544.5,-0.5"/>
<text text-anchor="middle" x="598" y="-7.5" font-family="Helvetica" font-size="10.00">vsomeip/defines.hpp</text>
</a>
</g>
</g>
<!-- Node1&#45;&gt;Node8 -->
<g id="edge7" class="edge">
<title>Node1&#45;&gt;Node8</title>
<path fill="none" stroke="midnightblue" d="M325.65,-62.61C390.17,-50.39 484.21,-32.56 543.2,-21.38"/>
<polygon fill="midnightblue" stroke="midnightblue" points="543.91,-24.81 553.08,-19.51 542.6,-17.94 543.91,-24.81"/>
</g>
<!-- Node9 -->
<g id="node9" class="node">
<title>Node9</title>
<g id="a_node9"><a xlink:title=" ">
<polygon fill="white" stroke="#bfbfbf" points="670,-0.5 670,-19.5 810,-19.5 810,-0.5 670,-0.5"/>
<text text-anchor="middle" x="740" y="-7.5" font-family="Helvetica" font-size="10.00">vsomeip/primitive_types.hpp</text>
</a>
</g>
</g>
<!-- Node1&#45;&gt;Node9 -->
<g id="edge8" class="edge">
<title>Node1&#45;&gt;Node9</title>
<path fill="none" stroke="midnightblue" d="M325.52,-66.55C416.43,-54.36 573.78,-33.28 666.23,-20.89"/>
<polygon fill="midnightblue" stroke="midnightblue" points="666.9,-24.33 676.35,-19.53 665.98,-17.39 666.9,-24.33"/>
</g>
</g>
</svg>
