<?xml version="1.0" encoding="UTF-8" standalone="no"?>
<!DOCTYPE svg PUBLIC "-//W3C//DTD SVG 1.1//EN"
 "http://www.w3.org/Graphics/SVG/1.1/DTD/svg11.dtd">
<!-- Generated by graphviz version 2.44.0 (0)
 -->
<!-- Title: /home/ec2&#45;user/workspace/vsomeip/implementation/endpoints/include/endpoint_definition.hpp Pages: 1 -->
<svg width="2239pt" height="506pt"
 viewBox="0.00 0.00 2239.00 506.00" xmlns="http://www.w3.org/2000/svg" xmlns:xlink="http://www.w3.org/1999/xlink">
<g id="graph0" class="graph" transform="scale(1 1) rotate(0) translate(4 502)">
<title>/home/ec2&#45;user/workspace/vsomeip/implementation/endpoints/include/endpoint_definition.hpp</title>
<polygon fill="white" stroke="transparent" points="-4,4 -4,-502 2235,-502 2235,4 -4,4"/>
<!-- Node1 -->
<g id="node1" class="node">
<title>Node1</title>
<g id="a_node1"><a xlink:title=" ">
<polygon fill="#bfbfbf" stroke="black" points="645.5,-445.5 645.5,-497.5 780.5,-497.5 780.5,-445.5 645.5,-445.5"/>
<text text-anchor="start" x="653.5" y="-485.5" font-family="Helvetica" font-size="10.00">/home/ec2&#45;user/workspace</text>
<text text-anchor="start" x="653.5" y="-474.5" font-family="Helvetica" font-size="10.00">/vsomeip/implementation</text>
<text text-anchor="start" x="653.5" y="-463.5" font-family="Helvetica" font-size="10.00">/endpoints/include/endpoint</text>
<text text-anchor="middle" x="713" y="-452.5" font-family="Helvetica" font-size="10.00">_definition.hpp</text>
</a>
</g>
</g>
<!-- Node2 -->
<g id="node2" class="node">
<title>Node2</title>
<g id="a_node2"><a xlink:href="endpoint__definition_8cpp.html" target="_top" xlink:title=" ">
<polygon fill="white" stroke="black" points="0,-356.5 0,-408.5 134,-408.5 134,-356.5 0,-356.5"/>
<text text-anchor="start" x="8" y="-396.5" font-family="Helvetica" font-size="10.00">/home/ec2&#45;user/workspace</text>
<text text-anchor="start" x="8" y="-385.5" font-family="Helvetica" font-size="10.00">/vsomeip/implementation</text>
<text text-anchor="start" x="8" y="-374.5" font-family="Helvetica" font-size="10.00">/endpoints/src/endpoint</text>
<text text-anchor="middle" x="67" y="-363.5" font-family="Helvetica" font-size="10.00">_definition.cpp</text>
</a>
</g>
</g>
<!-- Node1&#45;&gt;Node2 -->
<g id="edge1" class="edge">
<title>Node1&#45;&gt;Node2</title>
<path fill="none" stroke="midnightblue" d="M635.05,-466.87C525.36,-460.66 319.67,-445 148,-409 143.53,-408.06 138.95,-406.98 134.36,-405.8"/>
<polygon fill="midnightblue" stroke="midnightblue" points="635.18,-470.38 645.36,-467.44 635.57,-463.39 635.18,-470.38"/>
</g>
<!-- Node3 -->
<g id="node3" class="node">
<title>Node3</title>
<g id="a_node3"><a xlink:href="endpoint__manager__impl_8cpp.html" target="_top" xlink:title=" ">
<polygon fill="white" stroke="black" points="114,-0.5 114,-52.5 248,-52.5 248,-0.5 114,-0.5"/>
<text text-anchor="start" x="122" y="-40.5" font-family="Helvetica" font-size="10.00">/home/ec2&#45;user/workspace</text>
<text text-anchor="start" x="122" y="-29.5" font-family="Helvetica" font-size="10.00">/vsomeip/implementation</text>
<text text-anchor="start" x="122" y="-18.5" font-family="Helvetica" font-size="10.00">/endpoints/src/endpoint</text>
<text text-anchor="middle" x="181" y="-7.5" font-family="Helvetica" font-size="10.00">_manager_impl.cpp</text>
</a>
</g>
</g>
<!-- Node1&#45;&gt;Node3 -->
<g id="edge2" class="edge">
<title>Node1&#45;&gt;Node3</title>
<path fill="none" stroke="midnightblue" d="M635.1,-466.52C495.77,-458.68 215.37,-439.3 183,-409 145.23,-373.64 162,-346.24 162,-294.5 162,-294.5 162,-294.5 162,-203.5 162,-149.56 170.93,-86.86 176.55,-52.76"/>
<polygon fill="midnightblue" stroke="midnightblue" points="635.11,-470.03 645.28,-467.09 635.49,-463.04 635.11,-470.03"/>
</g>
<!-- Node4 -->
<g id="node4" class="node">
<title>Node4</title>
<g id="a_node4"><a xlink:href="server__endpoint__impl_8cpp.html" target="_top" xlink:title=" ">
<polygon fill="white" stroke="black" points="192,-356.5 192,-408.5 342,-408.5 342,-356.5 192,-356.5"/>
<text text-anchor="start" x="200" y="-396.5" font-family="Helvetica" font-size="10.00">/home/ec2&#45;user/workspace</text>
<text text-anchor="start" x="200" y="-385.5" font-family="Helvetica" font-size="10.00">/vsomeip/implementation</text>
<text text-anchor="start" x="200" y="-374.5" font-family="Helvetica" font-size="10.00">/endpoints/src/server_endpoint</text>
<text text-anchor="middle" x="267" y="-363.5" font-family="Helvetica" font-size="10.00">_impl.cpp</text>
</a>
</g>
</g>
<!-- Node1&#45;&gt;Node4 -->
<g id="edge3" class="edge">
<title>Node1&#45;&gt;Node4</title>
<path fill="none" stroke="midnightblue" d="M635.31,-460.2C561.62,-449.75 448.04,-431.88 351,-409 348.18,-408.34 345.32,-407.63 342.43,-406.89"/>
<polygon fill="midnightblue" stroke="midnightblue" points="635.05,-463.7 645.44,-461.63 636.02,-456.77 635.05,-463.7"/>
</g>
<!-- Node5 -->
<g id="node5" class="node">
<title>Node5</title>
<g id="a_node5"><a xlink:href="tcp__server__endpoint__impl_8cpp.html" target="_top" xlink:title=" ">
<polygon fill="white" stroke="black" points="360,-356.5 360,-408.5 494,-408.5 494,-356.5 360,-356.5"/>
<text text-anchor="start" x="368" y="-396.5" font-family="Helvetica" font-size="10.00">/home/ec2&#45;user/workspace</text>
<text text-anchor="start" x="368" y="-385.5" font-family="Helvetica" font-size="10.00">/vsomeip/implementation</text>
<text text-anchor="start" x="368" y="-374.5" font-family="Helvetica" font-size="10.00">/endpoints/src/tcp_server</text>
<text text-anchor="middle" x="427" y="-363.5" font-family="Helvetica" font-size="10.00">_endpoint_impl.cpp</text>
</a>
</g>
</g>
<!-- Node1&#45;&gt;Node5 -->
<g id="edge4" class="edge">
<title>Node1&#45;&gt;Node5</title>
<path fill="none" stroke="midnightblue" d="M635.55,-448.6C595.81,-437.16 546.7,-422.72 503,-409 500.08,-408.08 497.1,-407.13 494.09,-406.17"/>
<polygon fill="midnightblue" stroke="midnightblue" points="634.6,-451.96 645.18,-451.36 636.53,-445.24 634.6,-451.96"/>
</g>
<!-- Node6 -->
<g id="node6" class="node">
<title>Node6</title>
<g id="a_node6"><a xlink:href="udp__server__endpoint__impl_8cpp.html" target="_top" xlink:title=" ">
<polygon fill="white" stroke="black" points="512,-356.5 512,-408.5 646,-408.5 646,-356.5 512,-356.5"/>
<text text-anchor="start" x="520" y="-396.5" font-family="Helvetica" font-size="10.00">/home/ec2&#45;user/workspace</text>
<text text-anchor="start" x="520" y="-385.5" font-family="Helvetica" font-size="10.00">/vsomeip/implementation</text>
<text text-anchor="start" x="520" y="-374.5" font-family="Helvetica" font-size="10.00">/endpoints/src/udp_server</text>
<text text-anchor="middle" x="579" y="-363.5" font-family="Helvetica" font-size="10.00">_endpoint_impl.cpp</text>
</a>
</g>
</g>
<!-- Node1&#45;&gt;Node6 -->
<g id="edge5" class="edge">
<title>Node1&#45;&gt;Node6</title>
<path fill="none" stroke="midnightblue" d="M665.7,-439.79C649.97,-429.58 632.66,-418.34 617.67,-408.61"/>
<polygon fill="midnightblue" stroke="midnightblue" points="663.95,-442.83 674.24,-445.34 667.76,-436.95 663.95,-442.83"/>
</g>
<!-- Node7 -->
<g id="node7" class="node">
<title>Node7</title>
<g id="a_node7"><a xlink:href="remote__subscription_8hpp.html" target="_top" xlink:title=" ">
<polygon fill="white" stroke="black" points="832,-356.5 832,-408.5 966,-408.5 966,-356.5 832,-356.5"/>
<text text-anchor="start" x="840" y="-396.5" font-family="Helvetica" font-size="10.00">/home/ec2&#45;user/workspace</text>
<text text-anchor="start" x="840" y="-385.5" font-family="Helvetica" font-size="10.00">/vsomeip/implementation</text>
<text text-anchor="start" x="840" y="-374.5" font-family="Helvetica" font-size="10.00">/routing/include/remote</text>
<text text-anchor="middle" x="899" y="-363.5" font-family="Helvetica" font-size="10.00">_subscription.hpp</text>
</a>
</g>
</g>
<!-- Node1&#45;&gt;Node7 -->
<g id="edge6" class="edge">
<title>Node1&#45;&gt;Node7</title>
<path fill="none" stroke="midnightblue" d="M775.95,-441.06C798.48,-430.52 823.65,-418.75 845.32,-408.61"/>
<polygon fill="midnightblue" stroke="midnightblue" points="774.37,-437.93 766.8,-445.34 777.34,-444.27 774.37,-437.93"/>
</g>
<!-- Node15 -->
<g id="node15" class="node">
<title>Node15</title>
<g id="a_node15"><a xlink:href="routing__manager__impl_8cpp.html" target="_top" xlink:title=" ">
<polygon fill="white" stroke="black" points="801,-0.5 801,-52.5 941,-52.5 941,-0.5 801,-0.5"/>
<text text-anchor="start" x="809" y="-40.5" font-family="Helvetica" font-size="10.00">/home/ec2&#45;user/workspace</text>
<text text-anchor="start" x="809" y="-29.5" font-family="Helvetica" font-size="10.00">/vsomeip/implementation</text>
<text text-anchor="start" x="809" y="-18.5" font-family="Helvetica" font-size="10.00">/routing/src/routing_manager</text>
<text text-anchor="middle" x="871" y="-7.5" font-family="Helvetica" font-size="10.00">_impl.cpp</text>
</a>
</g>
</g>
<!-- Node1&#45;&gt;Node15 -->
<g id="edge32" class="edge">
<title>Node1&#45;&gt;Node15</title>
<path fill="none" stroke="midnightblue" d="M708.15,-435.32C704.02,-392.67 702.72,-319.96 732,-267 744.73,-243.97 759.62,-248.8 779,-231 818.39,-194.82 838.33,-190.9 860,-142 872.7,-113.33 873.96,-76.76 873.04,-52.77"/>
<polygon fill="midnightblue" stroke="midnightblue" points="704.69,-435.91 709.24,-445.48 711.65,-435.16 704.69,-435.91"/>
</g>
<!-- Node17 -->
<g id="node17" class="node">
<title>Node17</title>
<g id="a_node17"><a xlink:href="eventgroupinfo_8cpp.html" target="_top" xlink:title=" ">
<polygon fill="white" stroke="black" points="367,-184 367,-225 517,-225 517,-184 367,-184"/>
<text text-anchor="start" x="375" y="-213" font-family="Helvetica" font-size="10.00">/home/ec2&#45;user/workspace</text>
<text text-anchor="start" x="375" y="-202" font-family="Helvetica" font-size="10.00">/vsomeip/implementation</text>
<text text-anchor="middle" x="442" y="-191" font-family="Helvetica" font-size="10.00">/routing/src/eventgroupinfo.cpp</text>
</a>
</g>
</g>
<!-- Node1&#45;&gt;Node17 -->
<g id="edge31" class="edge">
<title>Node1&#45;&gt;Node17</title>
<path fill="none" stroke="midnightblue" d="M704.25,-435.45C695.93,-409.51 680.75,-375.44 655,-356 587.79,-305.27 529.73,-378.32 469,-320 443.22,-295.24 440.07,-250.83 440.66,-225.2"/>
<polygon fill="midnightblue" stroke="midnightblue" points="700.98,-436.73 707.21,-445.3 707.68,-434.71 700.98,-436.73"/>
</g>
<!-- Node18 -->
<g id="node18" class="node">
<title>Node18</title>
<g id="a_node18"><a xlink:href="service__discovery__impl_8cpp.html" target="_top" xlink:title=" ">
<polygon fill="white" stroke="black" points="1164.5,-178.5 1164.5,-230.5 1315.5,-230.5 1315.5,-178.5 1164.5,-178.5"/>
<text text-anchor="start" x="1172.5" y="-218.5" font-family="Helvetica" font-size="10.00">/home/ec2&#45;user/workspace</text>
<text text-anchor="start" x="1172.5" y="-207.5" font-family="Helvetica" font-size="10.00">/vsomeip/implementation</text>
<text text-anchor="start" x="1172.5" y="-196.5" font-family="Helvetica" font-size="10.00">/service_discovery/src/service</text>
<text text-anchor="middle" x="1240" y="-185.5" font-family="Helvetica" font-size="10.00">_discovery_impl.cpp</text>
</a>
</g>
</g>
<!-- Node1&#45;&gt;Node18 -->
<g id="edge47" class="edge">
<title>Node1&#45;&gt;Node18</title>
<path fill="none" stroke="midnightblue" d="M790.64,-459.19C843.9,-449.78 915.45,-433.84 975,-409 1043.74,-380.32 1061.23,-369.37 1117,-320 1139.71,-299.9 1138.27,-288.17 1160,-267 1173.3,-254.04 1189.3,-241.27 1203.49,-230.75"/>
<polygon fill="midnightblue" stroke="midnightblue" points="789.83,-455.78 780.57,-460.93 791.02,-462.67 789.83,-455.78"/>
</g>
<!-- Node21 -->
<g id="node21" class="node">
<title>Node21</title>
<g id="a_node21"><a xlink:href="service__discovery__impl_8hpp.html" target="_top" xlink:title=" ">
<polygon fill="white" stroke="black" points="1169.5,-267.5 1169.5,-319.5 1310.5,-319.5 1310.5,-267.5 1169.5,-267.5"/>
<text text-anchor="start" x="1177.5" y="-307.5" font-family="Helvetica" font-size="10.00">/home/ec2&#45;user/workspace</text>
<text text-anchor="start" x="1177.5" y="-296.5" font-family="Helvetica" font-size="10.00">/vsomeip/implementation</text>
<text text-anchor="start" x="1177.5" y="-285.5" font-family="Helvetica" font-size="10.00">/service_discovery/include</text>
<text text-anchor="middle" x="1240" y="-274.5" font-family="Helvetica" font-size="10.00">/service_discovery_impl.hpp</text>
</a>
</g>
</g>
<!-- Node1&#45;&gt;Node21 -->
<g id="edge46" class="edge">
<title>Node1&#45;&gt;Node21</title>
<path fill="none" stroke="midnightblue" d="M790.65,-466.87C900.6,-460.54 1094.98,-444.59 1155,-409 1164.34,-403.46 1200.82,-351.7 1222.84,-319.7"/>
<polygon fill="midnightblue" stroke="midnightblue" points="790.39,-463.38 780.6,-467.44 790.78,-470.37 790.39,-463.38"/>
</g>
<!-- Node24 -->
<g id="node24" class="node">
<title>Node24</title>
<g id="a_node24"><a xlink:href="event_8cpp.html" target="_top" xlink:title=" ">
<polygon fill="white" stroke="black" points="1207,-362 1207,-403 1341,-403 1341,-362 1207,-362"/>
<text text-anchor="start" x="1215" y="-391" font-family="Helvetica" font-size="10.00">/home/ec2&#45;user/workspace</text>
<text text-anchor="start" x="1215" y="-380" font-family="Helvetica" font-size="10.00">/vsomeip/implementation</text>
<text text-anchor="middle" x="1274" y="-369" font-family="Helvetica" font-size="10.00">/routing/src/event.cpp</text>
</a>
</g>
</g>
<!-- Node1&#45;&gt;Node24 -->
<g id="edge30" class="edge">
<title>Node1&#45;&gt;Node24</title>
<path fill="none" stroke="midnightblue" d="M790.98,-464.79C886.56,-456.81 1053.06,-439.74 1193,-409 1200.63,-407.32 1208.58,-405.25 1216.37,-403.01"/>
<polygon fill="midnightblue" stroke="midnightblue" points="790.5,-461.32 780.82,-465.63 791.07,-468.29 790.5,-461.32"/>
</g>
<!-- Node25 -->
<g id="node25" class="node">
<title>Node25</title>
<g id="a_node25"><a xlink:href="eventgroupentry__impl_8hpp.html" target="_top" xlink:title=" ">
<polygon fill="white" stroke="black" points="1974,-267.5 1974,-319.5 2108,-319.5 2108,-267.5 1974,-267.5"/>
<text text-anchor="start" x="1982" y="-307.5" font-family="Helvetica" font-size="10.00">/home/ec2&#45;user/workspace</text>
<text text-anchor="start" x="1982" y="-296.5" font-family="Helvetica" font-size="10.00">/vsomeip/implementation</text>
<text text-anchor="start" x="1982" y="-285.5" font-family="Helvetica" font-size="10.00">/service_discovery/include</text>
<text text-anchor="middle" x="2041" y="-274.5" font-family="Helvetica" font-size="10.00">/eventgroupentry_impl.hpp</text>
</a>
</g>
</g>
<!-- Node1&#45;&gt;Node25 -->
<g id="edge33" class="edge">
<title>Node1&#45;&gt;Node25</title>
<path fill="none" stroke="midnightblue" d="M790.78,-468.32C992.47,-462.26 1528.72,-443.3 1703,-409 1804.06,-389.11 1916.41,-346.76 1982.76,-319.52"/>
<polygon fill="midnightblue" stroke="midnightblue" points="790.46,-464.83 780.57,-468.63 790.67,-471.83 790.46,-464.83"/>
</g>
<!-- Node28 -->
<g id="node28" class="node">
<title>Node28</title>
<g id="a_node28"><a xlink:href="service__discovery_2include_2message__impl_8hpp.html" target="_top" xlink:title=" ">
<polygon fill="white" stroke="black" points="1560,-356.5 1560,-408.5 1694,-408.5 1694,-356.5 1560,-356.5"/>
<text text-anchor="start" x="1568" y="-396.5" font-family="Helvetica" font-size="10.00">/home/ec2&#45;user/workspace</text>
<text text-anchor="start" x="1568" y="-385.5" font-family="Helvetica" font-size="10.00">/vsomeip/implementation</text>
<text text-anchor="start" x="1568" y="-374.5" font-family="Helvetica" font-size="10.00">/service_discovery/include</text>
<text text-anchor="middle" x="1627" y="-363.5" font-family="Helvetica" font-size="10.00">/message_impl.hpp</text>
</a>
</g>
</g>
<!-- Node1&#45;&gt;Node28 -->
<g id="edge37" class="edge">
<title>Node1&#45;&gt;Node28</title>
<path fill="none" stroke="midnightblue" d="M790.54,-463.12C966.6,-446.36 1394.03,-405.68 1559.77,-389.9"/>
<polygon fill="midnightblue" stroke="midnightblue" points="790.2,-459.64 780.58,-464.07 790.87,-466.6 790.2,-459.64"/>
</g>
<!-- Node8 -->
<g id="node8" class="node">
<title>Node8</title>
<g id="a_node8"><a xlink:href="eventgroupinfo_8hpp.html" target="_top" xlink:title=" ">
<polygon fill="white" stroke="black" points="517.5,-273 517.5,-314 684.5,-314 684.5,-273 517.5,-273"/>
<text text-anchor="start" x="525.5" y="-302" font-family="Helvetica" font-size="10.00">/home/ec2&#45;user/workspace</text>
<text text-anchor="start" x="525.5" y="-291" font-family="Helvetica" font-size="10.00">/vsomeip/implementation</text>
<text text-anchor="middle" x="601" y="-280" font-family="Helvetica" font-size="10.00">/routing/include/eventgroupinfo.hpp</text>
</a>
</g>
</g>
<!-- Node7&#45;&gt;Node8 -->
<g id="edge7" class="edge">
<title>Node7&#45;&gt;Node8</title>
<path fill="none" stroke="midnightblue" d="M822.09,-359.05C774.4,-345.12 713.72,-327.41 668,-314.06"/>
<polygon fill="midnightblue" stroke="midnightblue" points="821.17,-362.42 831.75,-361.87 823.13,-355.7 821.17,-362.42"/>
</g>
<!-- Node7&#45;&gt;Node15 -->
<g id="edge24" class="edge">
<title>Node7&#45;&gt;Node15</title>
<path fill="none" stroke="midnightblue" d="M975.7,-354.77C1024.37,-341.81 1054.07,-359.69 1083,-320 1096.88,-300.97 1091.35,-289.03 1083,-267 1047.28,-172.76 955.65,-91.76 905.34,-52.6"/>
<polygon fill="midnightblue" stroke="midnightblue" points="974.61,-351.44 966.05,-357.68 976.63,-358.14 974.61,-351.44"/>
</g>
<!-- Node7&#45;&gt;Node17 -->
<g id="edge22" class="edge">
<title>Node7&#45;&gt;Node17</title>
<path fill="none" stroke="midnightblue" d="M821.9,-371.11C711.68,-356 520.84,-328.82 508,-320 490.7,-308.11 464.41,-254.71 450.82,-225.22"/>
<polygon fill="midnightblue" stroke="midnightblue" points="821.6,-374.6 831.98,-372.49 822.55,-367.66 821.6,-374.6"/>
</g>
<!-- Node19 -->
<g id="node19" class="node">
<title>Node19</title>
<g id="a_node19"><a xlink:href="remote__subscription_8cpp.html" target="_top" xlink:title=" ">
<polygon fill="white" stroke="black" points="899.5,-273 899.5,-314 1074.5,-314 1074.5,-273 899.5,-273"/>
<text text-anchor="start" x="907.5" y="-302" font-family="Helvetica" font-size="10.00">/home/ec2&#45;user/workspace</text>
<text text-anchor="start" x="907.5" y="-291" font-family="Helvetica" font-size="10.00">/vsomeip/implementation</text>
<text text-anchor="middle" x="987" y="-280" font-family="Helvetica" font-size="10.00">/routing/src/remote_subscription.cpp</text>
</a>
</g>
</g>
<!-- Node7&#45;&gt;Node19 -->
<g id="edge23" class="edge">
<title>Node7&#45;&gt;Node19</title>
<path fill="none" stroke="midnightblue" d="M931.69,-349.18C943.61,-337.39 956.73,-324.43 967.19,-314.08"/>
<polygon fill="midnightblue" stroke="midnightblue" points="929.1,-346.82 924.45,-356.34 934.03,-351.79 929.1,-346.82"/>
</g>
<!-- Node20 -->
<g id="node20" class="node">
<title>Node20</title>
<g id="a_node20"><a xlink:href="routing__manager__stub_8cpp.html" target="_top" xlink:title=" ">
<polygon fill="white" stroke="black" points="741,-267.5 741,-319.5 881,-319.5 881,-267.5 741,-267.5"/>
<text text-anchor="start" x="749" y="-307.5" font-family="Helvetica" font-size="10.00">/home/ec2&#45;user/workspace</text>
<text text-anchor="start" x="749" y="-296.5" font-family="Helvetica" font-size="10.00">/vsomeip/implementation</text>
<text text-anchor="start" x="749" y="-285.5" font-family="Helvetica" font-size="10.00">/routing/src/routing_manager</text>
<text text-anchor="middle" x="811" y="-274.5" font-family="Helvetica" font-size="10.00">_stub.cpp</text>
</a>
</g>
</g>
<!-- Node7&#45;&gt;Node20 -->
<g id="edge25" class="edge">
<title>Node7&#45;&gt;Node20</title>
<path fill="none" stroke="midnightblue" d="M866.2,-349.08C856.35,-339.34 845.69,-328.8 836.4,-319.61"/>
<polygon fill="midnightblue" stroke="midnightblue" points="863.97,-351.79 873.55,-356.34 868.9,-346.82 863.97,-351.79"/>
</g>
<!-- Node7&#45;&gt;Node21 -->
<g id="edge26" class="edge">
<title>Node7&#45;&gt;Node21</title>
<path fill="none" stroke="midnightblue" d="M976.21,-361.8C1034.17,-347.01 1112.91,-326.92 1169.25,-312.55"/>
<polygon fill="midnightblue" stroke="midnightblue" points="975.19,-358.45 966.37,-364.31 976.93,-365.23 975.19,-358.45"/>
</g>
<!-- Node23 -->
<g id="node23" class="node">
<title>Node23</title>
<g id="a_node23"><a xlink:href="remote__subscription__ack_8cpp.html" target="_top" xlink:title=" ">
<polygon fill="white" stroke="black" points="1328.5,-267.5 1328.5,-319.5 1477.5,-319.5 1477.5,-267.5 1328.5,-267.5"/>
<text text-anchor="start" x="1336.5" y="-307.5" font-family="Helvetica" font-size="10.00">/home/ec2&#45;user/workspace</text>
<text text-anchor="start" x="1336.5" y="-296.5" font-family="Helvetica" font-size="10.00">/vsomeip/implementation</text>
<text text-anchor="start" x="1336.5" y="-285.5" font-family="Helvetica" font-size="10.00">/service_discovery/src/remote</text>
<text text-anchor="middle" x="1403" y="-274.5" font-family="Helvetica" font-size="10.00">_subscription_ack.cpp</text>
</a>
</g>
</g>
<!-- Node7&#45;&gt;Node23 -->
<g id="edge29" class="edge">
<title>Node7&#45;&gt;Node23</title>
<path fill="none" stroke="midnightblue" d="M976.18,-373.7C1060.91,-364.32 1200.65,-346.47 1319,-320 1322.12,-319.3 1325.3,-318.55 1328.5,-317.75"/>
<polygon fill="midnightblue" stroke="midnightblue" points="975.68,-370.23 966.12,-374.8 976.44,-377.19 975.68,-370.23"/>
</g>
<!-- Node9 -->
<g id="node9" class="node">
<title>Node9</title>
<g id="a_node9"><a xlink:href="routing__manager__base_8hpp.html" target="_top" xlink:title=" ">
<polygon fill="white" stroke="black" points="535,-178.5 535,-230.5 669,-230.5 669,-178.5 535,-178.5"/>
<text text-anchor="start" x="543" y="-218.5" font-family="Helvetica" font-size="10.00">/home/ec2&#45;user/workspace</text>
<text text-anchor="start" x="543" y="-207.5" font-family="Helvetica" font-size="10.00">/vsomeip/implementation</text>
<text text-anchor="start" x="543" y="-196.5" font-family="Helvetica" font-size="10.00">/routing/include/routing</text>
<text text-anchor="middle" x="602" y="-185.5" font-family="Helvetica" font-size="10.00">_manager_base.hpp</text>
</a>
</g>
</g>
<!-- Node8&#45;&gt;Node9 -->
<g id="edge8" class="edge">
<title>Node8&#45;&gt;Node9</title>
<path fill="none" stroke="midnightblue" d="M601.34,-262.51C601.46,-252.17 601.6,-240.71 601.71,-230.79"/>
<polygon fill="midnightblue" stroke="midnightblue" points="597.84,-262.72 601.23,-272.76 604.84,-262.8 597.84,-262.72"/>
</g>
<!-- Node8&#45;&gt;Node15 -->
<g id="edge20" class="edge">
<title>Node8&#45;&gt;Node15</title>
<path fill="none" stroke="midnightblue" d="M658.45,-268.74C710.95,-244.26 787.17,-201.31 833,-142 853.49,-115.48 863.21,-77.39 867.62,-52.54"/>
<polygon fill="midnightblue" stroke="midnightblue" points="656.9,-265.6 649.27,-272.95 659.82,-271.96 656.9,-265.6"/>
</g>
<!-- Node8&#45;&gt;Node17 -->
<g id="edge19" class="edge">
<title>Node8&#45;&gt;Node17</title>
<path fill="none" stroke="midnightblue" d="M556.45,-268.12C531.62,-254.54 501.11,-237.84 477.84,-225.11"/>
<polygon fill="midnightblue" stroke="midnightblue" points="554.86,-271.25 565.32,-272.98 558.22,-265.1 554.86,-271.25"/>
</g>
<!-- Node8&#45;&gt;Node18 -->
<g id="edge21" class="edge">
<title>Node8&#45;&gt;Node18</title>
<path fill="none" stroke="midnightblue" d="M694.69,-273.42C707.21,-271.11 719.9,-268.91 732,-267 884.91,-242.89 1065.02,-223.11 1164.45,-212.93"/>
<polygon fill="midnightblue" stroke="midnightblue" points="693.89,-270.01 684.7,-275.28 695.18,-276.89 693.89,-270.01"/>
</g>
<!-- Node9&#45;&gt;Node3 -->
<g id="edge10" class="edge">
<title>Node9&#45;&gt;Node3</title>
<path fill="none" stroke="midnightblue" d="M524.8,-178.19C443.88,-164.72 270.07,-183.6 219,-142 192.37,-120.31 184.26,-79.42 181.88,-52.83"/>
<polygon fill="midnightblue" stroke="midnightblue" points="524.18,-181.63 534.66,-180.1 525.51,-174.76 524.18,-181.63"/>
</g>
<!-- Node10 -->
<g id="node10" class="node">
<title>Node10</title>
<g id="a_node10"><a xlink:href="endpoint__manager__base_8cpp.html" target="_top" xlink:title=" ">
<polygon fill="white" stroke="black" points="690,-89.5 690,-141.5 824,-141.5 824,-89.5 690,-89.5"/>
<text text-anchor="start" x="698" y="-129.5" font-family="Helvetica" font-size="10.00">/home/ec2&#45;user/workspace</text>
<text text-anchor="start" x="698" y="-118.5" font-family="Helvetica" font-size="10.00">/vsomeip/implementation</text>
<text text-anchor="start" x="698" y="-107.5" font-family="Helvetica" font-size="10.00">/endpoints/src/endpoint</text>
<text text-anchor="middle" x="757" y="-96.5" font-family="Helvetica" font-size="10.00">_manager_base.cpp</text>
</a>
</g>
</g>
<!-- Node9&#45;&gt;Node10 -->
<g id="edge9" class="edge">
<title>Node9&#45;&gt;Node10</title>
<path fill="none" stroke="midnightblue" d="M655.71,-173.35C674.16,-163 694.61,-151.52 712.27,-141.61"/>
<polygon fill="midnightblue" stroke="midnightblue" points="653.84,-170.39 646.83,-178.34 657.27,-176.49 653.84,-170.39"/>
</g>
<!-- Node11 -->
<g id="node11" class="node">
<title>Node11</title>
<g id="a_node11"><a xlink:href="routing__manager__client_8hpp.html" target="_top" xlink:title=" ">
<polygon fill="white" stroke="black" points="380,-89.5 380,-141.5 514,-141.5 514,-89.5 380,-89.5"/>
<text text-anchor="start" x="388" y="-129.5" font-family="Helvetica" font-size="10.00">/home/ec2&#45;user/workspace</text>
<text text-anchor="start" x="388" y="-118.5" font-family="Helvetica" font-size="10.00">/vsomeip/implementation</text>
<text text-anchor="start" x="388" y="-107.5" font-family="Helvetica" font-size="10.00">/routing/include/routing</text>
<text text-anchor="middle" x="447" y="-96.5" font-family="Helvetica" font-size="10.00">_manager_client.hpp</text>
</a>
</g>
</g>
<!-- Node9&#45;&gt;Node11 -->
<g id="edge11" class="edge">
<title>Node9&#45;&gt;Node11</title>
<path fill="none" stroke="midnightblue" d="M548.29,-173.35C529.84,-163 509.39,-151.52 491.73,-141.61"/>
<polygon fill="midnightblue" stroke="midnightblue" points="546.73,-176.49 557.17,-178.34 550.16,-170.39 546.73,-176.49"/>
</g>
<!-- Node14 -->
<g id="node14" class="node">
<title>Node14</title>
<g id="a_node14"><a xlink:href="routing__manager__impl_8hpp.html" target="_top" xlink:title=" ">
<polygon fill="white" stroke="black" points="228,-89.5 228,-141.5 362,-141.5 362,-89.5 228,-89.5"/>
<text text-anchor="start" x="236" y="-129.5" font-family="Helvetica" font-size="10.00">/home/ec2&#45;user/workspace</text>
<text text-anchor="start" x="236" y="-118.5" font-family="Helvetica" font-size="10.00">/vsomeip/implementation</text>
<text text-anchor="start" x="236" y="-107.5" font-family="Helvetica" font-size="10.00">/routing/include/routing</text>
<text text-anchor="middle" x="295" y="-96.5" font-family="Helvetica" font-size="10.00">_manager_impl.hpp</text>
</a>
</g>
</g>
<!-- Node9&#45;&gt;Node14 -->
<g id="edge14" class="edge">
<title>Node9&#45;&gt;Node14</title>
<path fill="none" stroke="midnightblue" d="M524.93,-177.82C456.16,-158.91 435.99,-160.4 371,-142 368.05,-141.17 365.05,-140.29 362.03,-139.38"/>
<polygon fill="midnightblue" stroke="midnightblue" points="524.4,-181.3 534.97,-180.62 526.28,-174.56 524.4,-181.3"/>
</g>
<!-- Node16 -->
<g id="node16" class="node">
<title>Node16</title>
<g id="a_node16"><a xlink:href="routing__manager__base_8cpp.html" target="_top" xlink:title=" ">
<polygon fill="white" stroke="black" points="532,-89.5 532,-141.5 672,-141.5 672,-89.5 532,-89.5"/>
<text text-anchor="start" x="540" y="-129.5" font-family="Helvetica" font-size="10.00">/home/ec2&#45;user/workspace</text>
<text text-anchor="start" x="540" y="-118.5" font-family="Helvetica" font-size="10.00">/vsomeip/implementation</text>
<text text-anchor="start" x="540" y="-107.5" font-family="Helvetica" font-size="10.00">/routing/src/routing_manager</text>
<text text-anchor="middle" x="602" y="-96.5" font-family="Helvetica" font-size="10.00">_base.cpp</text>
</a>
</g>
</g>
<!-- Node9&#45;&gt;Node16 -->
<g id="edge18" class="edge">
<title>Node9&#45;&gt;Node16</title>
<path fill="none" stroke="midnightblue" d="M602,-168.19C602,-159.28 602,-149.9 602,-141.61"/>
<polygon fill="midnightblue" stroke="midnightblue" points="598.5,-168.34 602,-178.34 605.5,-168.34 598.5,-168.34"/>
</g>
<!-- Node12 -->
<g id="node12" class="node">
<title>Node12</title>
<g id="a_node12"><a xlink:href="routing__manager__client_8cpp.html" target="_top" xlink:title=" ">
<polygon fill="white" stroke="black" points="418,-0.5 418,-52.5 558,-52.5 558,-0.5 418,-0.5"/>
<text text-anchor="start" x="426" y="-40.5" font-family="Helvetica" font-size="10.00">/home/ec2&#45;user/workspace</text>
<text text-anchor="start" x="426" y="-29.5" font-family="Helvetica" font-size="10.00">/vsomeip/implementation</text>
<text text-anchor="start" x="426" y="-18.5" font-family="Helvetica" font-size="10.00">/routing/src/routing_manager</text>
<text text-anchor="middle" x="488" y="-7.5" font-family="Helvetica" font-size="10.00">_client.cpp</text>
</a>
</g>
</g>
<!-- Node11&#45;&gt;Node12 -->
<g id="edge12" class="edge">
<title>Node11&#45;&gt;Node12</title>
<path fill="none" stroke="midnightblue" d="M463.23,-80.06C467.55,-70.9 472.13,-61.17 476.17,-52.61"/>
<polygon fill="midnightblue" stroke="midnightblue" points="459.96,-78.8 458.86,-89.34 466.29,-81.78 459.96,-78.8"/>
</g>
<!-- Node13 -->
<g id="node13" class="node">
<title>Node13</title>
<g id="a_node13"><a xlink:href="runtime_2src_2application__impl_8cpp.html" target="_top" xlink:title=" ">
<polygon fill="white" stroke="black" points="266,-0.5 266,-52.5 400,-52.5 400,-0.5 266,-0.5"/>
<text text-anchor="start" x="274" y="-40.5" font-family="Helvetica" font-size="10.00">/home/ec2&#45;user/workspace</text>
<text text-anchor="start" x="274" y="-29.5" font-family="Helvetica" font-size="10.00">/vsomeip/implementation</text>
<text text-anchor="start" x="274" y="-18.5" font-family="Helvetica" font-size="10.00">/runtime/src/application</text>
<text text-anchor="middle" x="333" y="-7.5" font-family="Helvetica" font-size="10.00">_impl.cpp</text>
</a>
</g>
</g>
<!-- Node11&#45;&gt;Node13 -->
<g id="edge13" class="edge">
<title>Node11&#45;&gt;Node13</title>
<path fill="none" stroke="midnightblue" d="M406.01,-83.22C392.84,-73.16 378.42,-62.16 365.9,-52.61"/>
<polygon fill="midnightblue" stroke="midnightblue" points="403.95,-86.05 414.03,-89.34 408.2,-80.49 403.95,-86.05"/>
</g>
<!-- Node14&#45;&gt;Node3 -->
<g id="edge15" class="edge">
<title>Node14&#45;&gt;Node3</title>
<path fill="none" stroke="midnightblue" d="M254.01,-83.22C240.84,-73.16 226.42,-62.16 213.9,-52.61"/>
<polygon fill="midnightblue" stroke="midnightblue" points="251.95,-86.05 262.03,-89.34 256.2,-80.49 251.95,-86.05"/>
</g>
<!-- Node14&#45;&gt;Node13 -->
<g id="edge17" class="edge">
<title>Node14&#45;&gt;Node13</title>
<path fill="none" stroke="midnightblue" d="M310.04,-80.06C314.05,-70.9 318.29,-61.17 322.03,-52.61"/>
<polygon fill="midnightblue" stroke="midnightblue" points="306.79,-78.77 305.99,-89.34 313.2,-81.57 306.79,-78.77"/>
</g>
<!-- Node14&#45;&gt;Node15 -->
<g id="edge16" class="edge">
<title>Node14&#45;&gt;Node15</title>
<path fill="none" stroke="midnightblue" d="M372.19,-88.91C529.37,-54.09 705.2,-38.33 800.67,-31.67"/>
<polygon fill="midnightblue" stroke="midnightblue" points="371.33,-85.51 362.34,-91.12 372.87,-92.34 371.33,-85.51"/>
</g>
<!-- Node21&#45;&gt;Node18 -->
<g id="edge28" class="edge">
<title>Node21&#45;&gt;Node18</title>
<path fill="none" stroke="midnightblue" d="M1240,-257.19C1240,-248.28 1240,-238.9 1240,-230.61"/>
<polygon fill="midnightblue" stroke="midnightblue" points="1236.5,-257.34 1240,-267.34 1243.5,-257.34 1236.5,-257.34"/>
</g>
<!-- Node22 -->
<g id="node22" class="node">
<title>Node22</title>
<g id="a_node22"><a xlink:href="service__discovery_2src_2runtime__impl_8cpp.html" target="_top" xlink:title=" ">
<polygon fill="white" stroke="black" points="1503.5,-178.5 1503.5,-230.5 1654.5,-230.5 1654.5,-178.5 1503.5,-178.5"/>
<text text-anchor="start" x="1511.5" y="-218.5" font-family="Helvetica" font-size="10.00">/home/ec2&#45;user/workspace</text>
<text text-anchor="start" x="1511.5" y="-207.5" font-family="Helvetica" font-size="10.00">/vsomeip/implementation</text>
<text text-anchor="start" x="1511.5" y="-196.5" font-family="Helvetica" font-size="10.00">/service_discovery/src/runtime</text>
<text text-anchor="middle" x="1579" y="-185.5" font-family="Helvetica" font-size="10.00">_impl.cpp</text>
</a>
</g>
</g>
<!-- Node21&#45;&gt;Node22 -->
<g id="edge27" class="edge">
<title>Node21&#45;&gt;Node22</title>
<path fill="none" stroke="midnightblue" d="M1320.4,-266.68C1387.12,-248.28 1453.57,-232.78 1503.22,-221.75"/>
<polygon fill="midnightblue" stroke="midnightblue" points="1319.25,-263.37 1310.55,-269.42 1321.12,-270.11 1319.25,-263.37"/>
</g>
<!-- Node25&#45;&gt;Node18 -->
<g id="edge36" class="edge">
<title>Node25&#45;&gt;Node18</title>
<path fill="none" stroke="midnightblue" d="M1963.99,-273.77C1951.67,-271.21 1939.02,-268.84 1927,-267 1736.1,-237.85 1686.3,-248.65 1494,-231 1433.98,-225.49 1366.04,-218.64 1315.54,-213.43"/>
<polygon fill="midnightblue" stroke="midnightblue" points="1963.27,-277.2 1973.78,-275.86 1964.72,-270.35 1963.27,-277.2"/>
</g>
<!-- Node26 -->
<g id="node26" class="node">
<title>Node26</title>
<g id="a_node26"><a xlink:href="eventgroupentry__impl_8cpp.html" target="_top" xlink:title=" ">
<polygon fill="white" stroke="black" points="2043,-178.5 2043,-230.5 2231,-230.5 2231,-178.5 2043,-178.5"/>
<text text-anchor="start" x="2051" y="-218.5" font-family="Helvetica" font-size="10.00">/home/ec2&#45;user/workspace</text>
<text text-anchor="start" x="2051" y="-207.5" font-family="Helvetica" font-size="10.00">/vsomeip/implementation</text>
<text text-anchor="start" x="2051" y="-196.5" font-family="Helvetica" font-size="10.00">/service_discovery/src/eventgroupentry</text>
<text text-anchor="middle" x="2137" y="-185.5" font-family="Helvetica" font-size="10.00">_impl.cpp</text>
</a>
</g>
</g>
<!-- Node25&#45;&gt;Node26 -->
<g id="edge34" class="edge">
<title>Node25&#45;&gt;Node26</title>
<path fill="none" stroke="midnightblue" d="M2076.46,-260.36C2087.3,-250.54 2099.05,-239.89 2109.3,-230.61"/>
<polygon fill="midnightblue" stroke="midnightblue" points="2073.83,-258.03 2068.77,-267.34 2078.53,-263.21 2073.83,-258.03"/>
</g>
<!-- Node27 -->
<g id="node27" class="node">
<title>Node27</title>
<g id="a_node27"><a xlink:href="service__discovery_2src_2message__impl_8cpp.html" target="_top" xlink:title=" ">
<polygon fill="white" stroke="black" points="1867,-178.5 1867,-230.5 2025,-230.5 2025,-178.5 1867,-178.5"/>
<text text-anchor="start" x="1875" y="-218.5" font-family="Helvetica" font-size="10.00">/home/ec2&#45;user/workspace</text>
<text text-anchor="start" x="1875" y="-207.5" font-family="Helvetica" font-size="10.00">/vsomeip/implementation</text>
<text text-anchor="start" x="1875" y="-196.5" font-family="Helvetica" font-size="10.00">/service_discovery/src/message</text>
<text text-anchor="middle" x="1946" y="-185.5" font-family="Helvetica" font-size="10.00">_impl.cpp</text>
</a>
</g>
</g>
<!-- Node25&#45;&gt;Node27 -->
<g id="edge35" class="edge">
<title>Node25&#45;&gt;Node27</title>
<path fill="none" stroke="midnightblue" d="M2005.91,-260.36C1995.18,-250.54 1983.55,-239.89 1973.42,-230.61"/>
<polygon fill="midnightblue" stroke="midnightblue" points="2003.78,-263.16 2013.52,-267.34 2008.51,-258 2003.78,-263.16"/>
</g>
<!-- Node28&#45;&gt;Node18 -->
<g id="edge45" class="edge">
<title>Node28&#45;&gt;Node18</title>
<path fill="none" stroke="midnightblue" d="M1568.12,-351.38C1553.23,-342.35 1537.83,-331.71 1525,-320 1503.39,-300.29 1510.29,-283.29 1486,-267 1435.27,-232.98 1367.27,-217.77 1315.62,-210.98"/>
<polygon fill="midnightblue" stroke="midnightblue" points="1566.42,-354.43 1576.81,-356.49 1569.97,-348.4 1566.42,-354.43"/>
</g>
<!-- Node28&#45;&gt;Node21 -->
<g id="edge39" class="edge">
<title>Node28&#45;&gt;Node21</title>
<path fill="none" stroke="midnightblue" d="M1549.61,-368.6C1486.98,-357.54 1396.73,-340.23 1319,-320 1316.21,-319.27 1313.37,-318.51 1310.52,-317.71"/>
<polygon fill="midnightblue" stroke="midnightblue" points="1549.35,-372.1 1559.8,-370.38 1550.56,-365.21 1549.35,-372.1"/>
</g>
<!-- Node28&#45;&gt;Node22 -->
<g id="edge44" class="edge">
<title>Node28&#45;&gt;Node22</title>
<path fill="none" stroke="midnightblue" d="M1699.64,-350.81C1711.4,-342.56 1722,-332.39 1729,-320 1740.58,-299.49 1742.12,-286.56 1729,-267 1712.15,-241.87 1683,-227 1654.85,-218.21"/>
<polygon fill="midnightblue" stroke="midnightblue" points="1697.38,-348.1 1690.9,-356.48 1701.19,-353.97 1697.38,-348.1"/>
</g>
<!-- Node28&#45;&gt;Node23 -->
<g id="edge43" class="edge">
<title>Node28&#45;&gt;Node23</title>
<path fill="none" stroke="midnightblue" d="M1552.89,-352.72C1525.25,-341.98 1494.12,-329.89 1467.42,-319.52"/>
<polygon fill="midnightblue" stroke="midnightblue" points="1551.92,-356.09 1562.51,-356.45 1554.46,-349.57 1551.92,-356.09"/>
</g>
<!-- Node28&#45;&gt;Node25 -->
<g id="edge38" class="edge">
<title>Node28&#45;&gt;Node25</title>
<path fill="none" stroke="midnightblue" d="M1704.35,-369.97C1772.21,-359.2 1873.31,-341.56 1960,-320 1964.58,-318.86 1969.28,-317.61 1974,-316.29"/>
<polygon fill="midnightblue" stroke="midnightblue" points="1703.5,-366.56 1694.17,-371.57 1704.59,-373.47 1703.5,-366.56"/>
</g>
<!-- Node28&#45;&gt;Node27 -->
<g id="edge42" class="edge">
<title>Node28&#45;&gt;Node27</title>
<path fill="none" stroke="midnightblue" d="M1704.51,-375.46C1782.96,-367.69 1896.87,-351.29 1927,-320 1949.64,-296.49 1951.24,-256.88 1949.35,-230.96"/>
<polygon fill="midnightblue" stroke="midnightblue" points="1703.79,-372.02 1694.17,-376.46 1704.46,-378.99 1703.79,-372.02"/>
</g>
<!-- Node29 -->
<g id="node29" class="node">
<title>Node29</title>
<g id="a_node29"><a xlink:href="service__discovery_2src_2deserializer_8cpp.html" target="_top" xlink:title=" ">
<polygon fill="white" stroke="black" points="1534,-273 1534,-314 1720,-314 1720,-273 1534,-273"/>
<text text-anchor="start" x="1542" y="-302" font-family="Helvetica" font-size="10.00">/home/ec2&#45;user/workspace</text>
<text text-anchor="start" x="1542" y="-291" font-family="Helvetica" font-size="10.00">/vsomeip/implementation</text>
<text text-anchor="middle" x="1627" y="-280" font-family="Helvetica" font-size="10.00">/service_discovery/src/deserializer.cpp</text>
</a>
</g>
</g>
<!-- Node28&#45;&gt;Node29 -->
<g id="edge40" class="edge">
<title>Node28&#45;&gt;Node29</title>
<path fill="none" stroke="midnightblue" d="M1627,-346.16C1627,-335.21 1627,-323.55 1627,-314.08"/>
<polygon fill="midnightblue" stroke="midnightblue" points="1623.5,-346.34 1627,-356.34 1630.5,-346.34 1623.5,-346.34"/>
</g>
<!-- Node30 -->
<g id="node30" class="node">
<title>Node30</title>
<g id="a_node30"><a xlink:href="entry__impl_8cpp.html" target="_top" xlink:title=" ">
<polygon fill="white" stroke="black" points="1776.5,-267.5 1776.5,-319.5 1917.5,-319.5 1917.5,-267.5 1776.5,-267.5"/>
<text text-anchor="start" x="1784.5" y="-307.5" font-family="Helvetica" font-size="10.00">/home/ec2&#45;user/workspace</text>
<text text-anchor="start" x="1784.5" y="-296.5" font-family="Helvetica" font-size="10.00">/vsomeip/implementation</text>
<text text-anchor="start" x="1784.5" y="-285.5" font-family="Helvetica" font-size="10.00">/service_discovery/src/entry</text>
<text text-anchor="middle" x="1847" y="-274.5" font-family="Helvetica" font-size="10.00">_impl.cpp</text>
</a>
</g>
</g>
<!-- Node28&#45;&gt;Node30 -->
<g id="edge41" class="edge">
<title>Node28&#45;&gt;Node30</title>
<path fill="none" stroke="midnightblue" d="M1699.78,-352.72C1726.93,-341.98 1757.51,-329.89 1783.73,-319.52"/>
<polygon fill="midnightblue" stroke="midnightblue" points="1698.35,-349.52 1690.34,-356.45 1700.92,-356.03 1698.35,-349.52"/>
</g>
</g>
</svg>
