<?xml version="1.0" encoding="UTF-8" standalone="no"?>
<!DOCTYPE svg PUBLIC "-//W3C//DTD SVG 1.1//EN"
 "http://www.w3.org/Graphics/SVG/1.1/DTD/svg11.dtd">
<!-- Generated by graphviz version 2.44.0 (0)
 -->
<!-- Title: /home/ec2&#45;user/workspace/vsomeip/implementation/endpoints/src/endpoint_definition.cpp Pages: 1 -->
<svg width="665pt" height="184pt"
 viewBox="0.00 0.00 664.50 184.00" xmlns="http://www.w3.org/2000/svg" xmlns:xlink="http://www.w3.org/1999/xlink">
<g id="graph0" class="graph" transform="scale(1 1) rotate(0) translate(4 180)">
<title>/home/ec2&#45;user/workspace/vsomeip/implementation/endpoints/src/endpoint_definition.cpp</title>
<polygon fill="white" stroke="transparent" points="-4,4 -4,-180 660.5,-180 660.5,4 -4,4"/>
<!-- Node1 -->
<g id="node1" class="node">
<title>Node1</title>
<g id="a_node1"><a xlink:title=" ">
<polygon fill="#bfbfbf" stroke="black" points="80.5,-123.5 80.5,-175.5 214.5,-175.5 214.5,-123.5 80.5,-123.5"/>
<text text-anchor="start" x="88.5" y="-163.5" font-family="Helvetica" font-size="10.00">/home/ec2&#45;user/workspace</text>
<text text-anchor="start" x="88.5" y="-152.5" font-family="Helvetica" font-size="10.00">/vsomeip/implementation</text>
<text text-anchor="start" x="88.5" y="-141.5" font-family="Helvetica" font-size="10.00">/endpoints/src/endpoint</text>
<text text-anchor="middle" x="147.5" y="-130.5" font-family="Helvetica" font-size="10.00">_definition.cpp</text>
</a>
</g>
</g>
<!-- Node2 -->
<g id="node2" class="node">
<title>Node2</title>
<g id="a_node2"><a xlink:title=" ">
<polygon fill="white" stroke="#bfbfbf" points="26.5,-62 26.5,-81 144.5,-81 144.5,-62 26.5,-62"/>
<text text-anchor="middle" x="85.5" y="-69" font-family="Helvetica" font-size="10.00">vsomeip/constants.hpp</text>
</a>
</g>
</g>
<!-- Node1&#45;&gt;Node2 -->
<g id="edge1" class="edge">
<title>Node1&#45;&gt;Node2</title>
<path fill="none" stroke="midnightblue" d="M126.85,-123.19C117.7,-111.97 107.18,-99.08 99.05,-89.11"/>
<polygon fill="midnightblue" stroke="midnightblue" points="101.64,-86.75 92.6,-81.21 96.21,-91.17 101.64,-86.75"/>
</g>
<!-- Node3 -->
<g id="node3" class="node">
<title>Node3</title>
<g id="a_node3"><a xlink:href="endpoint__definition_8hpp.html" target="_top" xlink:title=" ">
<polygon fill="white" stroke="black" points="162.5,-56.5 162.5,-86.5 258.5,-86.5 258.5,-56.5 162.5,-56.5"/>
<text text-anchor="start" x="170.5" y="-74.5" font-family="Helvetica" font-size="10.00">../include/endpoint</text>
<text text-anchor="middle" x="210.5" y="-63.5" font-family="Helvetica" font-size="10.00">_definition.hpp</text>
</a>
</g>
</g>
<!-- Node1&#45;&gt;Node3 -->
<g id="edge2" class="edge">
<title>Node1&#45;&gt;Node3</title>
<path fill="none" stroke="midnightblue" d="M168.48,-123.19C176.15,-113.94 184.77,-103.54 192.19,-94.59"/>
<polygon fill="midnightblue" stroke="midnightblue" points="194.92,-96.78 198.61,-86.85 189.53,-92.31 194.92,-96.78"/>
</g>
<!-- Node4 -->
<g id="node4" class="node">
<title>Node4</title>
<g id="a_node4"><a xlink:title=" ">
<polygon fill="white" stroke="#bfbfbf" points="0,-0.5 0,-19.5 35,-19.5 35,-0.5 0,-0.5"/>
<text text-anchor="middle" x="17.5" y="-7.5" font-family="Helvetica" font-size="10.00">map</text>
</a>
</g>
</g>
<!-- Node3&#45;&gt;Node4 -->
<g id="edge3" class="edge">
<title>Node3&#45;&gt;Node4</title>
<path fill="none" stroke="midnightblue" d="M162.47,-56.53C131.24,-47.31 89.41,-34.74 44.68,-20.3"/>
<polygon fill="midnightblue" stroke="midnightblue" points="45.68,-16.95 35.09,-17.19 43.52,-23.61 45.68,-16.95"/>
</g>
<!-- Node5 -->
<g id="node5" class="node">
<title>Node5</title>
<g id="a_node5"><a xlink:title=" ">
<polygon fill="white" stroke="#bfbfbf" points="53,-0.5 53,-19.5 106,-19.5 106,-0.5 53,-0.5"/>
<text text-anchor="middle" x="79.5" y="-7.5" font-family="Helvetica" font-size="10.00">memory</text>
</a>
</g>
</g>
<!-- Node3&#45;&gt;Node5 -->
<g id="edge4" class="edge">
<title>Node3&#45;&gt;Node5</title>
<path fill="none" stroke="midnightblue" d="M179.45,-56.4C157.77,-46.55 129.04,-33.5 107.95,-23.92"/>
<polygon fill="midnightblue" stroke="midnightblue" points="109.11,-20.61 98.56,-19.66 106.22,-26.98 109.11,-20.61"/>
</g>
<!-- Node6 -->
<g id="node6" class="node">
<title>Node6</title>
<g id="a_node6"><a xlink:title=" ">
<polygon fill="white" stroke="#bfbfbf" points="124.5,-0.5 124.5,-19.5 170.5,-19.5 170.5,-0.5 124.5,-0.5"/>
<text text-anchor="middle" x="147.5" y="-7.5" font-family="Helvetica" font-size="10.00">atomic</text>
</a>
</g>
</g>
<!-- Node3&#45;&gt;Node6 -->
<g id="edge5" class="edge">
<title>Node3&#45;&gt;Node6</title>
<path fill="none" stroke="midnightblue" d="M195.57,-56.4C186.13,-47.49 173.92,-35.95 164.17,-26.74"/>
<polygon fill="midnightblue" stroke="midnightblue" points="166.34,-23.98 156.67,-19.66 161.53,-29.07 166.34,-23.98"/>
</g>
<!-- Node7 -->
<g id="node7" class="node">
<title>Node7</title>
<g id="a_node7"><a xlink:title=" ">
<polygon fill="white" stroke="#bfbfbf" points="188.5,-0.5 188.5,-19.5 232.5,-19.5 232.5,-0.5 188.5,-0.5"/>
<text text-anchor="middle" x="210.5" y="-7.5" font-family="Helvetica" font-size="10.00">mutex</text>
</a>
</g>
</g>
<!-- Node3&#45;&gt;Node7 -->
<g id="edge6" class="edge">
<title>Node3&#45;&gt;Node7</title>
<path fill="none" stroke="midnightblue" d="M210.5,-56.4C210.5,-48.47 210.5,-38.46 210.5,-29.86"/>
<polygon fill="midnightblue" stroke="midnightblue" points="214,-29.66 210.5,-19.66 207,-29.66 214,-29.66"/>
</g>
<!-- Node8 -->
<g id="node8" class="node">
<title>Node8</title>
<g id="a_node8"><a xlink:title=" ">
<polygon fill="white" stroke="#bfbfbf" points="250.5,-0.5 250.5,-19.5 378.5,-19.5 378.5,-0.5 250.5,-0.5"/>
<text text-anchor="middle" x="314.5" y="-7.5" font-family="Helvetica" font-size="10.00">boost/asio/ip/address.hpp</text>
</a>
</g>
</g>
<!-- Node3&#45;&gt;Node8 -->
<g id="edge7" class="edge">
<title>Node3&#45;&gt;Node8</title>
<path fill="none" stroke="midnightblue" d="M235.15,-56.4C251.82,-46.86 273.73,-34.32 290.31,-24.84"/>
<polygon fill="midnightblue" stroke="midnightblue" points="292.43,-27.66 299.37,-19.66 288.95,-21.59 292.43,-27.66"/>
</g>
<!-- Node9 -->
<g id="node9" class="node">
<title>Node9</title>
<g id="a_node9"><a xlink:title=" ">
<polygon fill="white" stroke="#bfbfbf" points="396.5,-0.5 396.5,-19.5 536.5,-19.5 536.5,-0.5 396.5,-0.5"/>
<text text-anchor="middle" x="466.5" y="-7.5" font-family="Helvetica" font-size="10.00">vsomeip/primitive_types.hpp</text>
</a>
</g>
</g>
<!-- Node3&#45;&gt;Node9 -->
<g id="edge8" class="edge">
<title>Node3&#45;&gt;Node9</title>
<path fill="none" stroke="midnightblue" d="M258.65,-59.31C304.84,-48.57 374.12,-32.47 419.81,-21.85"/>
<polygon fill="midnightblue" stroke="midnightblue" points="420.8,-25.21 429.75,-19.54 419.22,-18.4 420.8,-25.21"/>
</g>
<!-- Node10 -->
<g id="node10" class="node">
<title>Node10</title>
<g id="a_node10"><a xlink:title=" ">
<polygon fill="white" stroke="#bfbfbf" points="554.5,-0.5 554.5,-19.5 656.5,-19.5 656.5,-0.5 554.5,-0.5"/>
<text text-anchor="middle" x="605.5" y="-7.5" font-family="Helvetica" font-size="10.00">vsomeip/export.hpp</text>
</a>
</g>
</g>
<!-- Node3&#45;&gt;Node10 -->
<g id="edge9" class="edge">
<title>Node3&#45;&gt;Node10</title>
<path fill="none" stroke="midnightblue" d="M258.54,-63.26C330.26,-52.46 465.31,-32.12 544.1,-20.25"/>
<polygon fill="midnightblue" stroke="midnightblue" points="545,-23.65 554.36,-18.7 543.95,-16.73 545,-23.65"/>
</g>
</g>
</svg>
