<?xml version="1.0" encoding="UTF-8" standalone="no"?>
<!DOCTYPE svg PUBLIC "-//W3C//DTD SVG 1.1//EN"
 "http://www.w3.org/Graphics/SVG/1.1/DTD/svg11.dtd">
<!-- Generated by graphviz version 2.44.0 (0)
 -->
<!-- Title: /home/ec2&#45;user/workspace/vsomeip/implementation/endpoints/include/endpoint_manager_base.hpp Pages: 1 -->
<svg width="838pt" height="328pt"
 viewBox="0.00 0.00 838.00 328.00" xmlns="http://www.w3.org/2000/svg" xmlns:xlink="http://www.w3.org/1999/xlink">
<g id="graph0" class="graph" transform="scale(1 1) rotate(0) translate(4 324)">
<title>/home/ec2&#45;user/workspace/vsomeip/implementation/endpoints/include/endpoint_manager_base.hpp</title>
<polygon fill="white" stroke="transparent" points="-4,4 -4,-324 834,-324 834,4 -4,4"/>
<!-- Node1 -->
<g id="node1" class="node">
<title>Node1</title>
<g id="a_node1"><a xlink:title=" ">
<polygon fill="#bfbfbf" stroke="black" points="388.5,-267.5 388.5,-319.5 523.5,-319.5 523.5,-267.5 388.5,-267.5"/>
<text text-anchor="start" x="396.5" y="-307.5" font-family="Helvetica" font-size="10.00">/home/ec2&#45;user/workspace</text>
<text text-anchor="start" x="396.5" y="-296.5" font-family="Helvetica" font-size="10.00">/vsomeip/implementation</text>
<text text-anchor="start" x="396.5" y="-285.5" font-family="Helvetica" font-size="10.00">/endpoints/include/endpoint</text>
<text text-anchor="middle" x="456" y="-274.5" font-family="Helvetica" font-size="10.00">_manager_base.hpp</text>
</a>
</g>
</g>
<!-- Node2 -->
<g id="node2" class="node">
<title>Node2</title>
<g id="a_node2"><a xlink:href="endpoint__manager__impl_8hpp.html" target="_top" xlink:title=" ">
<polygon fill="white" stroke="black" points="167.5,-178.5 167.5,-230.5 302.5,-230.5 302.5,-178.5 167.5,-178.5"/>
<text text-anchor="start" x="175.5" y="-218.5" font-family="Helvetica" font-size="10.00">/home/ec2&#45;user/workspace</text>
<text text-anchor="start" x="175.5" y="-207.5" font-family="Helvetica" font-size="10.00">/vsomeip/implementation</text>
<text text-anchor="start" x="175.5" y="-196.5" font-family="Helvetica" font-size="10.00">/endpoints/include/endpoint</text>
<text text-anchor="middle" x="235" y="-185.5" font-family="Helvetica" font-size="10.00">_manager_impl.hpp</text>
</a>
</g>
</g>
<!-- Node1&#45;&gt;Node2 -->
<g id="edge1" class="edge">
<title>Node1&#45;&gt;Node2</title>
<path fill="none" stroke="midnightblue" d="M382.88,-263.72C355.61,-252.98 324.9,-240.89 298.56,-230.52"/>
<polygon fill="midnightblue" stroke="midnightblue" points="381.79,-267.05 392.37,-267.45 384.35,-260.53 381.79,-267.05"/>
</g>
<!-- Node8 -->
<g id="node8" class="node">
<title>Node8</title>
<g id="a_node8"><a xlink:href="endpoint__manager__base_8cpp.html" target="_top" xlink:title=" ">
<polygon fill="white" stroke="black" points="696,-89.5 696,-141.5 830,-141.5 830,-89.5 696,-89.5"/>
<text text-anchor="start" x="704" y="-129.5" font-family="Helvetica" font-size="10.00">/home/ec2&#45;user/workspace</text>
<text text-anchor="start" x="704" y="-118.5" font-family="Helvetica" font-size="10.00">/vsomeip/implementation</text>
<text text-anchor="start" x="704" y="-107.5" font-family="Helvetica" font-size="10.00">/endpoints/src/endpoint</text>
<text text-anchor="middle" x="763" y="-96.5" font-family="Helvetica" font-size="10.00">_manager_base.cpp</text>
</a>
</g>
</g>
<!-- Node1&#45;&gt;Node8 -->
<g id="edge8" class="edge">
<title>Node1&#45;&gt;Node8</title>
<path fill="none" stroke="midnightblue" d="M508.5,-262.4C567.85,-228.38 663.4,-173.6 718.99,-141.73"/>
<polygon fill="midnightblue" stroke="midnightblue" points="506.59,-259.46 499.66,-267.47 510.08,-265.53 506.59,-259.46"/>
</g>
<!-- Node9 -->
<g id="node9" class="node">
<title>Node9</title>
<g id="a_node9"><a xlink:href="routing__manager__base_8hpp.html" target="_top" xlink:title=" ">
<polygon fill="white" stroke="black" points="389,-178.5 389,-230.5 523,-230.5 523,-178.5 389,-178.5"/>
<text text-anchor="start" x="397" y="-218.5" font-family="Helvetica" font-size="10.00">/home/ec2&#45;user/workspace</text>
<text text-anchor="start" x="397" y="-207.5" font-family="Helvetica" font-size="10.00">/vsomeip/implementation</text>
<text text-anchor="start" x="397" y="-196.5" font-family="Helvetica" font-size="10.00">/routing/include/routing</text>
<text text-anchor="middle" x="456" y="-185.5" font-family="Helvetica" font-size="10.00">_manager_base.hpp</text>
</a>
</g>
</g>
<!-- Node1&#45;&gt;Node9 -->
<g id="edge9" class="edge">
<title>Node1&#45;&gt;Node9</title>
<path fill="none" stroke="midnightblue" d="M456,-257.19C456,-248.28 456,-238.9 456,-230.61"/>
<polygon fill="midnightblue" stroke="midnightblue" points="452.5,-257.34 456,-267.34 459.5,-257.34 452.5,-257.34"/>
</g>
<!-- Node3 -->
<g id="node3" class="node">
<title>Node3</title>
<g id="a_node3"><a xlink:href="endpoint__manager__impl_8cpp.html" target="_top" xlink:title=" ">
<polygon fill="white" stroke="black" points="101,-0.5 101,-52.5 235,-52.5 235,-0.5 101,-0.5"/>
<text text-anchor="start" x="109" y="-40.5" font-family="Helvetica" font-size="10.00">/home/ec2&#45;user/workspace</text>
<text text-anchor="start" x="109" y="-29.5" font-family="Helvetica" font-size="10.00">/vsomeip/implementation</text>
<text text-anchor="start" x="109" y="-18.5" font-family="Helvetica" font-size="10.00">/endpoints/src/endpoint</text>
<text text-anchor="middle" x="168" y="-7.5" font-family="Helvetica" font-size="10.00">_manager_impl.cpp</text>
</a>
</g>
</g>
<!-- Node2&#45;&gt;Node3 -->
<g id="edge2" class="edge">
<title>Node2&#45;&gt;Node3</title>
<path fill="none" stroke="midnightblue" d="M207.9,-169.91C201.93,-161.22 196.15,-151.6 192,-142 179.42,-112.92 173.26,-76.76 170.37,-52.95"/>
<polygon fill="midnightblue" stroke="midnightblue" points="205.21,-172.17 213.88,-178.25 210.9,-168.09 205.21,-172.17"/>
</g>
<!-- Node4 -->
<g id="node4" class="node">
<title>Node4</title>
<g id="a_node4"><a xlink:href="routing__manager__impl_8hpp.html" target="_top" xlink:title=" ">
<polygon fill="white" stroke="black" points="234,-89.5 234,-141.5 368,-141.5 368,-89.5 234,-89.5"/>
<text text-anchor="start" x="242" y="-129.5" font-family="Helvetica" font-size="10.00">/home/ec2&#45;user/workspace</text>
<text text-anchor="start" x="242" y="-118.5" font-family="Helvetica" font-size="10.00">/vsomeip/implementation</text>
<text text-anchor="start" x="242" y="-107.5" font-family="Helvetica" font-size="10.00">/routing/include/routing</text>
<text text-anchor="middle" x="301" y="-96.5" font-family="Helvetica" font-size="10.00">_manager_impl.hpp</text>
</a>
</g>
</g>
<!-- Node2&#45;&gt;Node4 -->
<g id="edge3" class="edge">
<title>Node2&#45;&gt;Node4</title>
<path fill="none" stroke="midnightblue" d="M260.25,-170.22C267.46,-160.72 275.18,-150.53 281.95,-141.61"/>
<polygon fill="midnightblue" stroke="midnightblue" points="257.35,-168.25 254.09,-178.34 262.92,-172.48 257.35,-168.25"/>
</g>
<!-- Node7 -->
<g id="node7" class="node">
<title>Node7</title>
<g id="a_node7"><a xlink:href="routing__manager__stub_8cpp.html" target="_top" xlink:title=" ">
<polygon fill="white" stroke="black" points="0,-89.5 0,-141.5 140,-141.5 140,-89.5 0,-89.5"/>
<text text-anchor="start" x="8" y="-129.5" font-family="Helvetica" font-size="10.00">/home/ec2&#45;user/workspace</text>
<text text-anchor="start" x="8" y="-118.5" font-family="Helvetica" font-size="10.00">/vsomeip/implementation</text>
<text text-anchor="start" x="8" y="-107.5" font-family="Helvetica" font-size="10.00">/routing/src/routing_manager</text>
<text text-anchor="middle" x="70" y="-96.5" font-family="Helvetica" font-size="10.00">_stub.cpp</text>
</a>
</g>
</g>
<!-- Node2&#45;&gt;Node7 -->
<g id="edge7" class="edge">
<title>Node2&#45;&gt;Node7</title>
<path fill="none" stroke="midnightblue" d="M178.36,-173.64C158.58,-163.2 136.59,-151.61 117.62,-141.61"/>
<polygon fill="midnightblue" stroke="midnightblue" points="176.8,-176.77 187.28,-178.34 180.06,-170.58 176.8,-176.77"/>
</g>
<!-- Node4&#45;&gt;Node3 -->
<g id="edge4" class="edge">
<title>Node4&#45;&gt;Node3</title>
<path fill="none" stroke="midnightblue" d="M254.05,-83.79C238.44,-73.58 221.26,-62.34 206.38,-52.61"/>
<polygon fill="midnightblue" stroke="midnightblue" points="252.25,-86.79 262.53,-89.34 256.08,-80.93 252.25,-86.79"/>
</g>
<!-- Node5 -->
<g id="node5" class="node">
<title>Node5</title>
<g id="a_node5"><a xlink:href="routing__manager__impl_8cpp.html" target="_top" xlink:title=" ">
<polygon fill="white" stroke="black" points="253,-0.5 253,-52.5 393,-52.5 393,-0.5 253,-0.5"/>
<text text-anchor="start" x="261" y="-40.5" font-family="Helvetica" font-size="10.00">/home/ec2&#45;user/workspace</text>
<text text-anchor="start" x="261" y="-29.5" font-family="Helvetica" font-size="10.00">/vsomeip/implementation</text>
<text text-anchor="start" x="261" y="-18.5" font-family="Helvetica" font-size="10.00">/routing/src/routing_manager</text>
<text text-anchor="middle" x="323" y="-7.5" font-family="Helvetica" font-size="10.00">_impl.cpp</text>
</a>
</g>
</g>
<!-- Node4&#45;&gt;Node5 -->
<g id="edge5" class="edge">
<title>Node4&#45;&gt;Node5</title>
<path fill="none" stroke="midnightblue" d="M309.86,-79.48C312.13,-70.49 314.53,-60.99 316.65,-52.61"/>
<polygon fill="midnightblue" stroke="midnightblue" points="306.42,-78.78 307.36,-89.34 313.21,-80.5 306.42,-78.78"/>
</g>
<!-- Node6 -->
<g id="node6" class="node">
<title>Node6</title>
<g id="a_node6"><a xlink:href="runtime_2src_2application__impl_8cpp.html" target="_top" xlink:title=" ">
<polygon fill="white" stroke="black" points="411,-0.5 411,-52.5 545,-52.5 545,-0.5 411,-0.5"/>
<text text-anchor="start" x="419" y="-40.5" font-family="Helvetica" font-size="10.00">/home/ec2&#45;user/workspace</text>
<text text-anchor="start" x="419" y="-29.5" font-family="Helvetica" font-size="10.00">/vsomeip/implementation</text>
<text text-anchor="start" x="419" y="-18.5" font-family="Helvetica" font-size="10.00">/runtime/src/application</text>
<text text-anchor="middle" x="478" y="-7.5" font-family="Helvetica" font-size="10.00">_impl.cpp</text>
</a>
</g>
</g>
<!-- Node4&#45;&gt;Node6 -->
<g id="edge6" class="edge">
<title>Node4&#45;&gt;Node6</title>
<path fill="none" stroke="midnightblue" d="M361.19,-84.92C382.55,-74.41 406.38,-62.7 426.92,-52.61"/>
<polygon fill="midnightblue" stroke="midnightblue" points="359.63,-81.78 352.2,-89.34 362.71,-88.07 359.63,-81.78"/>
</g>
<!-- Node9&#45;&gt;Node3 -->
<g id="edge11" class="edge">
<title>Node9&#45;&gt;Node3</title>
<path fill="none" stroke="midnightblue" d="M379.15,-190.09C321.52,-178.76 248.67,-161.32 225,-142 210.25,-129.96 189.68,-82.66 177.71,-52.75"/>
<polygon fill="midnightblue" stroke="midnightblue" points="378.51,-193.53 388.99,-191.99 379.84,-186.66 378.51,-193.53"/>
</g>
<!-- Node9&#45;&gt;Node4 -->
<g id="edge15" class="edge">
<title>Node9&#45;&gt;Node4</title>
<path fill="none" stroke="midnightblue" d="M402.29,-173.35C383.84,-163 363.39,-151.52 345.73,-141.61"/>
<polygon fill="midnightblue" stroke="midnightblue" points="400.73,-176.49 411.17,-178.34 404.16,-170.39 400.73,-176.49"/>
</g>
<!-- Node9&#45;&gt;Node8 -->
<g id="edge10" class="edge">
<title>Node9&#45;&gt;Node8</title>
<path fill="none" stroke="midnightblue" d="M532.75,-184.37C577.87,-172.8 635.9,-157.36 687,-142 689.93,-141.12 692.92,-140.2 695.94,-139.26"/>
<polygon fill="midnightblue" stroke="midnightblue" points="531.85,-180.99 523.03,-186.85 533.59,-187.77 531.85,-180.99"/>
</g>
<!-- Node10 -->
<g id="node10" class="node">
<title>Node10</title>
<g id="a_node10"><a xlink:href="routing__manager__client_8hpp.html" target="_top" xlink:title=" ">
<polygon fill="white" stroke="black" points="544,-89.5 544,-141.5 678,-141.5 678,-89.5 544,-89.5"/>
<text text-anchor="start" x="552" y="-129.5" font-family="Helvetica" font-size="10.00">/home/ec2&#45;user/workspace</text>
<text text-anchor="start" x="552" y="-118.5" font-family="Helvetica" font-size="10.00">/vsomeip/implementation</text>
<text text-anchor="start" x="552" y="-107.5" font-family="Helvetica" font-size="10.00">/routing/include/routing</text>
<text text-anchor="middle" x="611" y="-96.5" font-family="Helvetica" font-size="10.00">_manager_client.hpp</text>
</a>
</g>
</g>
<!-- Node9&#45;&gt;Node10 -->
<g id="edge12" class="edge">
<title>Node9&#45;&gt;Node10</title>
<path fill="none" stroke="midnightblue" d="M509.71,-173.35C528.16,-163 548.61,-151.52 566.27,-141.61"/>
<polygon fill="midnightblue" stroke="midnightblue" points="507.84,-170.39 500.83,-178.34 511.27,-176.49 507.84,-170.39"/>
</g>
<!-- Node12 -->
<g id="node12" class="node">
<title>Node12</title>
<g id="a_node12"><a xlink:href="routing__manager__base_8cpp.html" target="_top" xlink:title=" ">
<polygon fill="white" stroke="black" points="386,-89.5 386,-141.5 526,-141.5 526,-89.5 386,-89.5"/>
<text text-anchor="start" x="394" y="-129.5" font-family="Helvetica" font-size="10.00">/home/ec2&#45;user/workspace</text>
<text text-anchor="start" x="394" y="-118.5" font-family="Helvetica" font-size="10.00">/vsomeip/implementation</text>
<text text-anchor="start" x="394" y="-107.5" font-family="Helvetica" font-size="10.00">/routing/src/routing_manager</text>
<text text-anchor="middle" x="456" y="-96.5" font-family="Helvetica" font-size="10.00">_base.cpp</text>
</a>
</g>
</g>
<!-- Node9&#45;&gt;Node12 -->
<g id="edge16" class="edge">
<title>Node9&#45;&gt;Node12</title>
<path fill="none" stroke="midnightblue" d="M456,-168.19C456,-159.28 456,-149.9 456,-141.61"/>
<polygon fill="midnightblue" stroke="midnightblue" points="452.5,-168.34 456,-178.34 459.5,-168.34 452.5,-168.34"/>
</g>
<!-- Node10&#45;&gt;Node6 -->
<g id="edge14" class="edge">
<title>Node10&#45;&gt;Node6</title>
<path fill="none" stroke="midnightblue" d="M564.05,-83.79C548.44,-73.58 531.26,-62.34 516.38,-52.61"/>
<polygon fill="midnightblue" stroke="midnightblue" points="562.25,-86.79 572.53,-89.34 566.08,-80.93 562.25,-86.79"/>
</g>
<!-- Node11 -->
<g id="node11" class="node">
<title>Node11</title>
<g id="a_node11"><a xlink:href="routing__manager__client_8cpp.html" target="_top" xlink:title=" ">
<polygon fill="white" stroke="black" points="563,-0.5 563,-52.5 703,-52.5 703,-0.5 563,-0.5"/>
<text text-anchor="start" x="571" y="-40.5" font-family="Helvetica" font-size="10.00">/home/ec2&#45;user/workspace</text>
<text text-anchor="start" x="571" y="-29.5" font-family="Helvetica" font-size="10.00">/vsomeip/implementation</text>
<text text-anchor="start" x="571" y="-18.5" font-family="Helvetica" font-size="10.00">/routing/src/routing_manager</text>
<text text-anchor="middle" x="633" y="-7.5" font-family="Helvetica" font-size="10.00">_client.cpp</text>
</a>
</g>
</g>
<!-- Node10&#45;&gt;Node11 -->
<g id="edge13" class="edge">
<title>Node10&#45;&gt;Node11</title>
<path fill="none" stroke="midnightblue" d="M619.86,-79.48C622.13,-70.49 624.53,-60.99 626.65,-52.61"/>
<polygon fill="midnightblue" stroke="midnightblue" points="616.42,-78.78 617.36,-89.34 623.21,-80.5 616.42,-78.78"/>
</g>
</g>
</svg>
