<?xml version="1.0" encoding="UTF-8" standalone="no"?>
<!DOCTYPE svg PUBLIC "-//W3C//DTD SVG 1.1//EN"
 "http://www.w3.org/Graphics/SVG/1.1/DTD/svg11.dtd">
<!-- Generated by graphviz version 2.44.0 (0)
 -->
<!-- Title: /home/ec2&#45;user/workspace/vsomeip/implementation/endpoints/include/endpoint.hpp Pages: 1 -->
<svg width="492pt" height="106pt"
 viewBox="0.00 0.00 491.50 106.00" xmlns="http://www.w3.org/2000/svg" xmlns:xlink="http://www.w3.org/1999/xlink">
<g id="graph0" class="graph" transform="scale(1 1) rotate(0) translate(4 102)">
<title>/home/ec2&#45;user/workspace/vsomeip/implementation/endpoints/include/endpoint.hpp</title>
<polygon fill="white" stroke="transparent" points="-4,4 -4,-102 487.5,-102 487.5,4 -4,4"/>
<!-- Node1 -->
<g id="node1" class="node">
<title>Node1</title>
<g id="a_node1"><a xlink:title=" ">
<polygon fill="#bfbfbf" stroke="black" points="212.5,-56.5 212.5,-97.5 365.5,-97.5 365.5,-56.5 212.5,-56.5"/>
<text text-anchor="start" x="220.5" y="-85.5" font-family="Helvetica" font-size="10.00">/home/ec2&#45;user/workspace</text>
<text text-anchor="start" x="220.5" y="-74.5" font-family="Helvetica" font-size="10.00">/vsomeip/implementation</text>
<text text-anchor="middle" x="289" y="-63.5" font-family="Helvetica" font-size="10.00">/endpoints/include/endpoint.hpp</text>
</a>
</g>
</g>
<!-- Node2 -->
<g id="node2" class="node">
<title>Node2</title>
<g id="a_node2"><a xlink:title=" ">
<polygon fill="white" stroke="#bfbfbf" points="0,-0.5 0,-19.5 128,-19.5 128,-0.5 0,-0.5"/>
<text text-anchor="middle" x="64" y="-7.5" font-family="Helvetica" font-size="10.00">boost/asio/ip/address.hpp</text>
</a>
</g>
</g>
<!-- Node1&#45;&gt;Node2 -->
<g id="edge1" class="edge">
<title>Node1&#45;&gt;Node2</title>
<path fill="none" stroke="midnightblue" d="M221.49,-56.5C182.9,-45.35 135.85,-31.76 103.27,-22.35"/>
<polygon fill="midnightblue" stroke="midnightblue" points="104.23,-18.98 93.66,-19.57 102.29,-25.71 104.23,-18.98"/>
</g>
<!-- Node3 -->
<g id="node3" class="node">
<title>Node3</title>
<g id="a_node3"><a xlink:title=" ">
<polygon fill="white" stroke="#bfbfbf" points="146,-0.5 146,-19.5 286,-19.5 286,-0.5 146,-0.5"/>
<text text-anchor="middle" x="216" y="-7.5" font-family="Helvetica" font-size="10.00">vsomeip/primitive_types.hpp</text>
</a>
</g>
</g>
<!-- Node1&#45;&gt;Node3 -->
<g id="edge2" class="edge">
<title>Node1&#45;&gt;Node3</title>
<path fill="none" stroke="midnightblue" d="M267.1,-56.5C256.34,-46.92 243.55,-35.53 233.46,-26.54"/>
<polygon fill="midnightblue" stroke="midnightblue" points="235.51,-23.69 225.72,-19.65 230.86,-28.92 235.51,-23.69"/>
</g>
<!-- Node4 -->
<g id="node4" class="node">
<title>Node4</title>
<g id="a_node4"><a xlink:title=" ">
<polygon fill="white" stroke="#bfbfbf" points="304,-0.5 304,-19.5 422,-19.5 422,-0.5 304,-0.5"/>
<text text-anchor="middle" x="363" y="-7.5" font-family="Helvetica" font-size="10.00">vsomeip/constants.hpp</text>
</a>
</g>
</g>
<!-- Node1&#45;&gt;Node4 -->
<g id="edge3" class="edge">
<title>Node1&#45;&gt;Node4</title>
<path fill="none" stroke="midnightblue" d="M311.2,-56.5C322.22,-46.82 335.34,-35.3 345.61,-26.27"/>
<polygon fill="midnightblue" stroke="midnightblue" points="347.95,-28.88 353.15,-19.65 343.33,-23.62 347.95,-28.88"/>
</g>
<!-- Node5 -->
<g id="node5" class="node">
<title>Node5</title>
<g id="a_node5"><a xlink:title=" ">
<polygon fill="white" stroke="#bfbfbf" points="440.5,-0.5 440.5,-19.5 483.5,-19.5 483.5,-0.5 440.5,-0.5"/>
<text text-anchor="middle" x="462" y="-7.5" font-family="Helvetica" font-size="10.00">vector</text>
</a>
</g>
</g>
<!-- Node1&#45;&gt;Node5 -->
<g id="edge4" class="edge">
<title>Node1&#45;&gt;Node5</title>
<path fill="none" stroke="midnightblue" d="M340.91,-56.5C370.12,-45.52 405.64,-32.17 430.64,-22.78"/>
<polygon fill="midnightblue" stroke="midnightblue" points="432.19,-25.94 440.32,-19.14 429.73,-19.39 432.19,-25.94"/>
</g>
</g>
</svg>
