<?xml version="1.0" encoding="UTF-8" standalone="no"?>
<!DOCTYPE svg PUBLIC "-//W3C//DTD SVG 1.1//EN"
 "http://www.w3.org/Graphics/SVG/1.1/DTD/svg11.dtd">
<!-- Generated by graphviz version 2.44.0 (0)
 -->
<!-- Title: /home/ec2&#45;user/workspace/vsomeip/implementation/endpoints/include/endpoint_manager_impl.hpp Pages: 1 -->
<svg width="452pt" height="239pt"
 viewBox="0.00 0.00 452.00 239.00" xmlns="http://www.w3.org/2000/svg" xmlns:xlink="http://www.w3.org/1999/xlink">
<g id="graph0" class="graph" transform="scale(1 1) rotate(0) translate(4 235)">
<title>/home/ec2&#45;user/workspace/vsomeip/implementation/endpoints/include/endpoint_manager_impl.hpp</title>
<polygon fill="white" stroke="transparent" points="-4,4 -4,-235 448,-235 448,4 -4,4"/>
<!-- Node1 -->
<g id="node1" class="node">
<title>Node1</title>
<g id="a_node1"><a xlink:title=" ">
<polygon fill="#bfbfbf" stroke="black" points="139.5,-178.5 139.5,-230.5 274.5,-230.5 274.5,-178.5 139.5,-178.5"/>
<text text-anchor="start" x="147.5" y="-218.5" font-family="Helvetica" font-size="10.00">/home/ec2&#45;user/workspace</text>
<text text-anchor="start" x="147.5" y="-207.5" font-family="Helvetica" font-size="10.00">/vsomeip/implementation</text>
<text text-anchor="start" x="147.5" y="-196.5" font-family="Helvetica" font-size="10.00">/endpoints/include/endpoint</text>
<text text-anchor="middle" x="207" y="-185.5" font-family="Helvetica" font-size="10.00">_manager_impl.hpp</text>
</a>
</g>
</g>
<!-- Node2 -->
<g id="node2" class="node">
<title>Node2</title>
<g id="a_node2"><a xlink:href="endpoint__manager__impl_8cpp.html" target="_top" xlink:title=" ">
<polygon fill="white" stroke="black" points="0,-0.5 0,-52.5 134,-52.5 134,-0.5 0,-0.5"/>
<text text-anchor="start" x="8" y="-40.5" font-family="Helvetica" font-size="10.00">/home/ec2&#45;user/workspace</text>
<text text-anchor="start" x="8" y="-29.5" font-family="Helvetica" font-size="10.00">/vsomeip/implementation</text>
<text text-anchor="start" x="8" y="-18.5" font-family="Helvetica" font-size="10.00">/endpoints/src/endpoint</text>
<text text-anchor="middle" x="67" y="-7.5" font-family="Helvetica" font-size="10.00">_manager_impl.cpp</text>
</a>
</g>
</g>
<!-- Node1&#45;&gt;Node2 -->
<g id="edge1" class="edge">
<title>Node1&#45;&gt;Node2</title>
<path fill="none" stroke="midnightblue" d="M162.49,-172.19C151.44,-163.2 140.15,-152.86 131,-142 107.82,-114.48 88.87,-77.32 77.76,-52.89"/>
<polygon fill="midnightblue" stroke="midnightblue" points="160.45,-175.03 170.47,-178.48 164.79,-169.54 160.45,-175.03"/>
</g>
<!-- Node3 -->
<g id="node3" class="node">
<title>Node3</title>
<g id="a_node3"><a xlink:href="routing__manager__impl_8hpp.html" target="_top" xlink:title=" ">
<polygon fill="white" stroke="black" points="140,-89.5 140,-141.5 274,-141.5 274,-89.5 140,-89.5"/>
<text text-anchor="start" x="148" y="-129.5" font-family="Helvetica" font-size="10.00">/home/ec2&#45;user/workspace</text>
<text text-anchor="start" x="148" y="-118.5" font-family="Helvetica" font-size="10.00">/vsomeip/implementation</text>
<text text-anchor="start" x="148" y="-107.5" font-family="Helvetica" font-size="10.00">/routing/include/routing</text>
<text text-anchor="middle" x="207" y="-96.5" font-family="Helvetica" font-size="10.00">_manager_impl.hpp</text>
</a>
</g>
</g>
<!-- Node1&#45;&gt;Node3 -->
<g id="edge2" class="edge">
<title>Node1&#45;&gt;Node3</title>
<path fill="none" stroke="midnightblue" d="M207,-168.19C207,-159.28 207,-149.9 207,-141.61"/>
<polygon fill="midnightblue" stroke="midnightblue" points="203.5,-168.34 207,-178.34 210.5,-168.34 203.5,-168.34"/>
</g>
<!-- Node6 -->
<g id="node6" class="node">
<title>Node6</title>
<g id="a_node6"><a xlink:href="routing__manager__stub_8cpp.html" target="_top" xlink:title=" ">
<polygon fill="white" stroke="black" points="292,-89.5 292,-141.5 432,-141.5 432,-89.5 292,-89.5"/>
<text text-anchor="start" x="300" y="-129.5" font-family="Helvetica" font-size="10.00">/home/ec2&#45;user/workspace</text>
<text text-anchor="start" x="300" y="-118.5" font-family="Helvetica" font-size="10.00">/vsomeip/implementation</text>
<text text-anchor="start" x="300" y="-107.5" font-family="Helvetica" font-size="10.00">/routing/src/routing_manager</text>
<text text-anchor="middle" x="362" y="-96.5" font-family="Helvetica" font-size="10.00">_stub.cpp</text>
</a>
</g>
</g>
<!-- Node1&#45;&gt;Node6 -->
<g id="edge6" class="edge">
<title>Node1&#45;&gt;Node6</title>
<path fill="none" stroke="midnightblue" d="M260.71,-173.35C279.16,-163 299.61,-151.52 317.27,-141.61"/>
<polygon fill="midnightblue" stroke="midnightblue" points="258.84,-170.39 251.83,-178.34 262.27,-176.49 258.84,-170.39"/>
</g>
<!-- Node3&#45;&gt;Node2 -->
<g id="edge3" class="edge">
<title>Node3&#45;&gt;Node2</title>
<path fill="none" stroke="midnightblue" d="M157.58,-83.79C141.15,-73.58 123.07,-62.34 107.4,-52.61"/>
<polygon fill="midnightblue" stroke="midnightblue" points="156.17,-87.03 166.51,-89.34 159.86,-81.09 156.17,-87.03"/>
</g>
<!-- Node4 -->
<g id="node4" class="node">
<title>Node4</title>
<g id="a_node4"><a xlink:href="routing__manager__impl_8cpp.html" target="_top" xlink:title=" ">
<polygon fill="white" stroke="black" points="152,-0.5 152,-52.5 292,-52.5 292,-0.5 152,-0.5"/>
<text text-anchor="start" x="160" y="-40.5" font-family="Helvetica" font-size="10.00">/home/ec2&#45;user/workspace</text>
<text text-anchor="start" x="160" y="-29.5" font-family="Helvetica" font-size="10.00">/vsomeip/implementation</text>
<text text-anchor="start" x="160" y="-18.5" font-family="Helvetica" font-size="10.00">/routing/src/routing_manager</text>
<text text-anchor="middle" x="222" y="-7.5" font-family="Helvetica" font-size="10.00">_impl.cpp</text>
</a>
</g>
</g>
<!-- Node3&#45;&gt;Node4 -->
<g id="edge4" class="edge">
<title>Node3&#45;&gt;Node4</title>
<path fill="none" stroke="midnightblue" d="M213.04,-79.48C214.59,-70.49 216.23,-60.99 217.67,-52.61"/>
<polygon fill="midnightblue" stroke="midnightblue" points="209.59,-78.89 211.34,-89.34 216.49,-80.08 209.59,-78.89"/>
</g>
<!-- Node5 -->
<g id="node5" class="node">
<title>Node5</title>
<g id="a_node5"><a xlink:href="runtime_2src_2application__impl_8cpp.html" target="_top" xlink:title=" ">
<polygon fill="white" stroke="black" points="310,-0.5 310,-52.5 444,-52.5 444,-0.5 310,-0.5"/>
<text text-anchor="start" x="318" y="-40.5" font-family="Helvetica" font-size="10.00">/home/ec2&#45;user/workspace</text>
<text text-anchor="start" x="318" y="-29.5" font-family="Helvetica" font-size="10.00">/vsomeip/implementation</text>
<text text-anchor="start" x="318" y="-18.5" font-family="Helvetica" font-size="10.00">/runtime/src/application</text>
<text text-anchor="middle" x="377" y="-7.5" font-family="Helvetica" font-size="10.00">_impl.cpp</text>
</a>
</g>
</g>
<!-- Node3&#45;&gt;Node5 -->
<g id="edge5" class="edge">
<title>Node3&#45;&gt;Node5</title>
<path fill="none" stroke="midnightblue" d="M265.08,-84.78C285.53,-74.31 308.3,-62.66 327.94,-52.61"/>
<polygon fill="midnightblue" stroke="midnightblue" points="263.48,-81.66 256.17,-89.34 266.67,-87.9 263.48,-81.66"/>
</g>
</g>
</svg>
