<?xml version="1.0" encoding="UTF-8" standalone="no"?>
<!DOCTYPE svg PUBLIC "-//W3C//DTD SVG 1.1//EN"
 "http://www.w3.org/Graphics/SVG/1.1/DTD/svg11.dtd">
<!-- Generated by graphviz version 2.44.0 (0)
 -->
<!-- Title: /home/ec2&#45;user/workspace/vsomeip/implementation/service_discovery/src/entry_impl.cpp Pages: 1 -->
<svg width="1858pt" height="318pt"
 viewBox="0.00 0.00 1858.00 318.00" xmlns="http://www.w3.org/2000/svg" xmlns:xlink="http://www.w3.org/1999/xlink">
<g id="graph0" class="graph" transform="scale(1 1) rotate(0) translate(4 314)">
<title>/home/ec2&#45;user/workspace/vsomeip/implementation/service_discovery/src/entry_impl.cpp</title>
<polygon fill="white" stroke="transparent" points="-4,4 -4,-314 1854,-314 1854,4 -4,4"/>
<!-- Node1 -->
<g id="node1" class="node">
<title>Node1</title>
<g id="a_node1"><a xlink:title=" ">
<polygon fill="#bfbfbf" stroke="black" points="1038.5,-257.5 1038.5,-309.5 1179.5,-309.5 1179.5,-257.5 1038.5,-257.5"/>
<text text-anchor="start" x="1046.5" y="-297.5" font-family="Helvetica" font-size="10.00">/home/ec2&#45;user/workspace</text>
<text text-anchor="start" x="1046.5" y="-286.5" font-family="Helvetica" font-size="10.00">/vsomeip/implementation</text>
<text text-anchor="start" x="1046.5" y="-275.5" font-family="Helvetica" font-size="10.00">/service_discovery/src/entry</text>
<text text-anchor="middle" x="1109" y="-264.5" font-family="Helvetica" font-size="10.00">_impl.cpp</text>
</a>
</g>
</g>
<!-- Node2 -->
<g id="node2" class="node">
<title>Node2</title>
<g id="a_node2"><a xlink:title=" ">
<polygon fill="white" stroke="#bfbfbf" points="948,-196 948,-215 1004,-215 1004,-196 948,-196"/>
<text text-anchor="middle" x="976" y="-203" font-family="Helvetica" font-size="10.00">algorithm</text>
</a>
</g>
</g>
<!-- Node1&#45;&gt;Node2 -->
<g id="edge1" class="edge">
<title>Node1&#45;&gt;Node2</title>
<path fill="none" stroke="midnightblue" d="M1065.08,-257.4C1043.3,-244.96 1017.86,-230.42 999.75,-220.07"/>
<polygon fill="midnightblue" stroke="midnightblue" points="1001.43,-217 991.01,-215.08 997.96,-223.08 1001.43,-217"/>
</g>
<!-- Node3 -->
<g id="node3" class="node">
<title>Node3</title>
<g id="a_node3"><a xlink:href="logger_8hpp.html" target="_top" xlink:title=" ">
<polygon fill="white" stroke="black" points="195,-129 195,-148 331,-148 331,-129 195,-129"/>
<text text-anchor="middle" x="263" y="-136" font-family="Helvetica" font-size="10.00">vsomeip/internal/logger.hpp</text>
</a>
</g>
</g>
<!-- Node1&#45;&gt;Node3 -->
<g id="edge2" class="edge">
<title>Node1&#45;&gt;Node3</title>
<path fill="none" stroke="midnightblue" d="M1083.06,-257.09C1055.39,-230.04 1015.21,-190.98 1013,-190 952.79,-163.33 521.33,-147.32 341.44,-141.74"/>
<polygon fill="midnightblue" stroke="midnightblue" points="341.36,-138.24 331.25,-141.43 341.14,-145.24 341.36,-138.24"/>
</g>
<!-- Node11 -->
<g id="node11" class="node">
<title>Node11</title>
<g id="a_node11"><a xlink:href="entry__impl_8hpp.html" target="_top" xlink:title=" ">
<polygon fill="white" stroke="black" points="674,-129 674,-148 798,-148 798,-129 674,-129"/>
<text text-anchor="middle" x="736" y="-136" font-family="Helvetica" font-size="10.00">../include/entry_impl.hpp</text>
</a>
</g>
</g>
<!-- Node1&#45;&gt;Node11 -->
<g id="edge10" class="edge">
<title>Node1&#45;&gt;Node11</title>
<path fill="none" stroke="midnightblue" d="M1098.83,-257.32C1088.74,-235.79 1071.15,-205.84 1046,-190 956.22,-133.45 914.53,-172.21 810,-154 802.82,-152.75 795.26,-151.36 787.83,-149.94"/>
<polygon fill="midnightblue" stroke="midnightblue" points="788.3,-146.47 777.82,-148.01 786.97,-153.34 788.3,-146.47"/>
</g>
<!-- Node18 -->
<g id="node18" class="node">
<title>Node18</title>
<g id="a_node18"><a xlink:href="service__discovery_2include_2message__impl_8hpp.html" target="_top" xlink:title=" ">
<polygon fill="white" stroke="black" points="1098.5,-190.5 1098.5,-220.5 1197.5,-220.5 1197.5,-190.5 1098.5,-190.5"/>
<text text-anchor="start" x="1106.5" y="-208.5" font-family="Helvetica" font-size="10.00">../include/message</text>
<text text-anchor="middle" x="1148" y="-197.5" font-family="Helvetica" font-size="10.00">_impl.hpp</text>
</a>
</g>
</g>
<!-- Node1&#45;&gt;Node18 -->
<g id="edge18" class="edge">
<title>Node1&#45;&gt;Node18</title>
<path fill="none" stroke="midnightblue" d="M1121.99,-257.19C1126.49,-248.41 1131.53,-238.6 1135.96,-229.97"/>
<polygon fill="midnightblue" stroke="midnightblue" points="1139.19,-231.34 1140.64,-220.85 1132.96,-228.14 1139.19,-231.34"/>
</g>
<!-- Node29 -->
<g id="node29" class="node">
<title>Node29</title>
<g id="a_node29"><a xlink:href="message_2include_2deserializer_8hpp.html" target="_top" xlink:title=" ">
<polygon fill="white" stroke="black" points="1742,-123.5 1742,-153.5 1850,-153.5 1850,-123.5 1742,-123.5"/>
<text text-anchor="start" x="1750" y="-141.5" font-family="Helvetica" font-size="10.00">../../message/include</text>
<text text-anchor="middle" x="1796" y="-130.5" font-family="Helvetica" font-size="10.00">/deserializer.hpp</text>
</a>
</g>
</g>
<!-- Node1&#45;&gt;Node29 -->
<g id="edge43" class="edge">
<title>Node1&#45;&gt;Node29</title>
<path fill="none" stroke="midnightblue" d="M1179.78,-268.83C1242.85,-256.57 1337.66,-237.95 1420,-221 1556.21,-192.96 1592.51,-185.19 1731.94,-154.22"/>
<polygon fill="midnightblue" stroke="midnightblue" points="1732.71,-157.64 1741.72,-152.05 1731.19,-150.8 1732.71,-157.64"/>
</g>
<!-- Node30 -->
<g id="node30" class="node">
<title>Node30</title>
<g id="a_node30"><a xlink:href="serializer_8hpp.html" target="_top" xlink:title=" ">
<polygon fill="white" stroke="black" points="1616,-123.5 1616,-153.5 1724,-153.5 1724,-123.5 1616,-123.5"/>
<text text-anchor="start" x="1624" y="-141.5" font-family="Helvetica" font-size="10.00">../../message/include</text>
<text text-anchor="middle" x="1670" y="-130.5" font-family="Helvetica" font-size="10.00">/serializer.hpp</text>
</a>
</g>
</g>
<!-- Node1&#45;&gt;Node30 -->
<g id="edge47" class="edge">
<title>Node1&#45;&gt;Node30</title>
<path fill="none" stroke="midnightblue" d="M1179.77,-264.46C1289.77,-236.42 1500.12,-182.8 1605.9,-155.84"/>
<polygon fill="midnightblue" stroke="midnightblue" points="1606.98,-159.18 1615.81,-153.31 1605.25,-152.39 1606.98,-159.18"/>
</g>
<!-- Node4 -->
<g id="node4" class="node">
<title>Node4</title>
<g id="a_node4"><a xlink:title=" ">
<polygon fill="white" stroke="#bfbfbf" points="0,-67.5 0,-86.5 46,-86.5 46,-67.5 0,-67.5"/>
<text text-anchor="middle" x="23" y="-74.5" font-family="Helvetica" font-size="10.00">chrono</text>
</a>
</g>
</g>
<!-- Node3&#45;&gt;Node4 -->
<g id="edge3" class="edge">
<title>Node3&#45;&gt;Node4</title>
<path fill="none" stroke="midnightblue" d="M226.08,-128.96C186.45,-119.7 121.42,-104.23 56.1,-87.22"/>
<polygon fill="midnightblue" stroke="midnightblue" points="56.61,-83.73 46.05,-84.59 54.83,-90.51 56.61,-83.73"/>
</g>
<!-- Node5 -->
<g id="node5" class="node">
<title>Node5</title>
<g id="a_node5"><a xlink:title=" ">
<polygon fill="white" stroke="#bfbfbf" points="394,-6 394,-25 440,-25 440,-6 394,-6"/>
<text text-anchor="middle" x="417" y="-13" font-family="Helvetica" font-size="10.00">cstdint</text>
</a>
</g>
</g>
<!-- Node3&#45;&gt;Node5 -->
<g id="edge4" class="edge">
<title>Node3&#45;&gt;Node5</title>
<path fill="none" stroke="midnightblue" d="M267.81,-128.66C276.06,-114.19 294.12,-85.24 316,-67 336.41,-49.99 363.52,-36.83 384.51,-28.22"/>
<polygon fill="midnightblue" stroke="midnightblue" points="385.97,-31.41 393.98,-24.47 383.39,-24.9 385.97,-31.41"/>
</g>
<!-- Node6 -->
<g id="node6" class="node">
<title>Node6</title>
<g id="a_node6"><a xlink:title=" ">
<polygon fill="white" stroke="#bfbfbf" points="764,-67.5 764,-86.5 808,-86.5 808,-67.5 764,-67.5"/>
<text text-anchor="middle" x="786" y="-74.5" font-family="Helvetica" font-size="10.00">mutex</text>
</a>
</g>
</g>
<!-- Node3&#45;&gt;Node6 -->
<g id="edge5" class="edge">
<title>Node3&#45;&gt;Node6</title>
<path fill="none" stroke="midnightblue" d="M331.1,-129.75C445.06,-116.79 670.12,-91.18 753.73,-81.67"/>
<polygon fill="midnightblue" stroke="midnightblue" points="754.35,-85.12 763.89,-80.52 753.56,-78.17 754.35,-85.12"/>
</g>
<!-- Node7 -->
<g id="node7" class="node">
<title>Node7</title>
<g id="a_node7"><a xlink:title=" ">
<polygon fill="white" stroke="#bfbfbf" points="64,-67.5 64,-86.5 116,-86.5 116,-67.5 64,-67.5"/>
<text text-anchor="middle" x="90" y="-74.5" font-family="Helvetica" font-size="10.00">ostream</text>
</a>
</g>
</g>
<!-- Node3&#45;&gt;Node7 -->
<g id="edge6" class="edge">
<title>Node3&#45;&gt;Node7</title>
<path fill="none" stroke="midnightblue" d="M238.21,-128.98C208.41,-118.72 158.21,-101.46 124.6,-89.9"/>
<polygon fill="midnightblue" stroke="midnightblue" points="125.34,-86.45 114.74,-86.51 123.06,-93.07 125.34,-86.45"/>
</g>
<!-- Node8 -->
<g id="node8" class="node">
<title>Node8</title>
<g id="a_node8"><a xlink:title=" ">
<polygon fill="white" stroke="#bfbfbf" points="134,-67.5 134,-86.5 186,-86.5 186,-67.5 134,-67.5"/>
<text text-anchor="middle" x="160" y="-74.5" font-family="Helvetica" font-size="10.00">sstream</text>
</a>
</g>
</g>
<!-- Node3&#45;&gt;Node8 -->
<g id="edge7" class="edge">
<title>Node3&#45;&gt;Node8</title>
<path fill="none" stroke="midnightblue" d="M248.24,-128.98C231.34,-119.21 203.42,-103.08 183.51,-91.58"/>
<polygon fill="midnightblue" stroke="midnightblue" points="185.14,-88.48 174.73,-86.51 181.64,-94.54 185.14,-88.48"/>
</g>
<!-- Node9 -->
<g id="node9" class="node">
<title>Node9</title>
<g id="a_node9"><a xlink:title=" ">
<polygon fill="white" stroke="#bfbfbf" points="204,-67.5 204,-86.5 264,-86.5 264,-67.5 204,-67.5"/>
<text text-anchor="middle" x="234" y="-74.5" font-family="Helvetica" font-size="10.00">streambuf</text>
</a>
</g>
</g>
<!-- Node3&#45;&gt;Node9 -->
<g id="edge8" class="edge">
<title>Node3&#45;&gt;Node9</title>
<path fill="none" stroke="midnightblue" d="M258.85,-128.98C254.62,-120.32 247.96,-106.65 242.6,-95.65"/>
<polygon fill="midnightblue" stroke="midnightblue" points="245.67,-93.96 238.15,-86.51 239.38,-97.03 245.67,-93.96"/>
</g>
<!-- Node10 -->
<g id="node10" class="node">
<title>Node10</title>
<g id="a_node10"><a xlink:title=" ">
<polygon fill="white" stroke="#bfbfbf" points="1495,-6 1495,-25 1597,-25 1597,-6 1495,-6"/>
<text text-anchor="middle" x="1546" y="-13" font-family="Helvetica" font-size="10.00">vsomeip/export.hpp</text>
</a>
</g>
</g>
<!-- Node3&#45;&gt;Node10 -->
<g id="edge9" class="edge">
<title>Node3&#45;&gt;Node10</title>
<path fill="none" stroke="midnightblue" d="M272.04,-128.79C290.29,-111.44 331.29,-73.65 349,-67 467.33,-22.57 1360.74,-47.93 1486,-31 1492.48,-30.12 1499.28,-28.84 1505.88,-27.4"/>
<polygon fill="midnightblue" stroke="midnightblue" points="1507.07,-30.71 1516.01,-25.03 1505.48,-23.9 1507.07,-30.71"/>
</g>
<!-- Node12 -->
<g id="node12" class="node">
<title>Node12</title>
<g id="a_node12"><a xlink:title=" ">
<polygon fill="white" stroke="#bfbfbf" points="826.5,-67.5 826.5,-86.5 879.5,-86.5 879.5,-67.5 826.5,-67.5"/>
<text text-anchor="middle" x="853" y="-74.5" font-family="Helvetica" font-size="10.00">memory</text>
</a>
</g>
</g>
<!-- Node11&#45;&gt;Node12 -->
<g id="edge11" class="edge">
<title>Node11&#45;&gt;Node12</title>
<path fill="none" stroke="midnightblue" d="M752.76,-128.98C772.22,-119.08 804.55,-102.64 827.21,-91.12"/>
<polygon fill="midnightblue" stroke="midnightblue" points="828.94,-94.16 836.27,-86.51 825.77,-87.92 828.94,-94.16"/>
</g>
<!-- Node13 -->
<g id="node13" class="node">
<title>Node13</title>
<g id="a_node13"><a xlink:title=" ">
<polygon fill="white" stroke="#bfbfbf" points="1667.5,-67.5 1667.5,-86.5 1710.5,-86.5 1710.5,-67.5 1667.5,-67.5"/>
<text text-anchor="middle" x="1689" y="-74.5" font-family="Helvetica" font-size="10.00">vector</text>
</a>
</g>
</g>
<!-- Node11&#45;&gt;Node13 -->
<g id="edge12" class="edge">
<title>Node11&#45;&gt;Node13</title>
<path fill="none" stroke="midnightblue" d="M773.85,-128.94C785.4,-126.64 798.17,-124.4 810,-123 1181.75,-78.95 1284.77,-148.51 1657.22,-86.9"/>
<polygon fill="midnightblue" stroke="midnightblue" points="1657.91,-90.33 1667.19,-85.23 1656.75,-83.43 1657.91,-90.33"/>
</g>
<!-- Node14 -->
<g id="node14" class="node">
<title>Node14</title>
<g id="a_node14"><a xlink:title=" ">
<polygon fill="white" stroke="#bfbfbf" points="1209,-6 1209,-25 1349,-25 1349,-6 1209,-6"/>
<text text-anchor="middle" x="1279" y="-13" font-family="Helvetica" font-size="10.00">vsomeip/primitive_types.hpp</text>
</a>
</g>
</g>
<!-- Node11&#45;&gt;Node14 -->
<g id="edge13" class="edge">
<title>Node11&#45;&gt;Node14</title>
<path fill="none" stroke="midnightblue" d="M735.47,-128.96C735.05,-113.85 736.61,-82.55 755,-67 788.13,-38.99 1060.37,-24.75 1198.81,-19.26"/>
<polygon fill="midnightblue" stroke="midnightblue" points="1199.09,-22.75 1208.94,-18.87 1198.81,-15.76 1199.09,-22.75"/>
</g>
<!-- Node15 -->
<g id="node15" class="node">
<title>Node15</title>
<g id="a_node15"><a xlink:title=" ">
<polygon fill="white" stroke="#bfbfbf" points="753,-6 753,-25 911,-25 911,-6 753,-6"/>
<text text-anchor="middle" x="832" y="-13" font-family="Helvetica" font-size="10.00">vsomeip/internal/serializable.hpp</text>
</a>
</g>
</g>
<!-- Node11&#45;&gt;Node15 -->
<g id="edge14" class="edge">
<title>Node11&#45;&gt;Node15</title>
<path fill="none" stroke="midnightblue" d="M673.92,-136.47C596.26,-133.01 478.54,-119.31 523,-67 550.77,-34.33 661.65,-22.75 742.67,-18.67"/>
<polygon fill="midnightblue" stroke="midnightblue" points="743.07,-22.15 752.89,-18.19 742.74,-15.16 743.07,-22.15"/>
</g>
<!-- Node16 -->
<g id="node16" class="node">
<title>Node16</title>
<g id="a_node16"><a xlink:href="implementation_2service__discovery_2include_2enumeration__types_8hpp.html" target="_top" xlink:title=" ">
<polygon fill="white" stroke="black" points="358,-67.5 358,-86.5 476,-86.5 476,-67.5 358,-67.5"/>
<text text-anchor="middle" x="417" y="-74.5" font-family="Helvetica" font-size="10.00">enumeration_types.hpp</text>
</a>
</g>
</g>
<!-- Node11&#45;&gt;Node16 -->
<g id="edge15" class="edge">
<title>Node11&#45;&gt;Node16</title>
<path fill="none" stroke="midnightblue" d="M690.3,-128.98C632.85,-118.26 534.32,-99.88 472.58,-88.37"/>
<polygon fill="midnightblue" stroke="midnightblue" points="473.09,-84.9 462.62,-86.51 471.81,-91.78 473.09,-84.9"/>
</g>
<!-- Node17 -->
<g id="node17" class="node">
<title>Node17</title>
<g id="a_node17"><a xlink:href="message__element__impl_8hpp.html" target="_top" xlink:title=" ">
<polygon fill="white" stroke="black" points="532,-67.5 532,-86.5 670,-86.5 670,-67.5 532,-67.5"/>
<text text-anchor="middle" x="601" y="-74.5" font-family="Helvetica" font-size="10.00">message_element_impl.hpp</text>
</a>
</g>
</g>
<!-- Node11&#45;&gt;Node17 -->
<g id="edge17" class="edge">
<title>Node11&#45;&gt;Node17</title>
<path fill="none" stroke="midnightblue" d="M716.66,-128.98C693.9,-118.95 655.91,-102.2 629.71,-90.65"/>
<polygon fill="midnightblue" stroke="midnightblue" points="630.87,-87.34 620.31,-86.51 628.05,-93.74 630.87,-87.34"/>
</g>
<!-- Node16&#45;&gt;Node5 -->
<g id="edge16" class="edge">
<title>Node16&#45;&gt;Node5</title>
<path fill="none" stroke="midnightblue" d="M417,-67.48C417,-59.08 417,-45.98 417,-35.16"/>
<polygon fill="midnightblue" stroke="midnightblue" points="420.5,-35.01 417,-25.01 413.5,-35.01 420.5,-35.01"/>
</g>
<!-- Node18&#45;&gt;Node6 -->
<g id="edge21" class="edge">
<title>Node18&#45;&gt;Node6</title>
<path fill="none" stroke="midnightblue" d="M1098.24,-193.2C1063.51,-184.5 1016.49,-171.08 977,-154 951.95,-143.17 948.89,-134.18 924,-123 904.86,-114.4 852.21,-97.94 817.75,-87.49"/>
<polygon fill="midnightblue" stroke="midnightblue" points="818.72,-84.13 808.13,-84.59 816.69,-90.83 818.72,-84.13"/>
</g>
<!-- Node18&#45;&gt;Node12 -->
<g id="edge20" class="edge">
<title>Node18&#45;&gt;Node12</title>
<path fill="none" stroke="midnightblue" d="M1115.41,-190.43C1092.94,-180.57 1062.46,-166.9 1036,-154 1009.38,-141.02 1004.1,-134.97 977,-123 948.09,-110.23 914.32,-98.15 889.33,-89.73"/>
<polygon fill="midnightblue" stroke="midnightblue" points="890.13,-86.31 879.53,-86.47 887.91,-92.95 890.13,-86.31"/>
</g>
<!-- Node18&#45;&gt;Node13 -->
<g id="edge22" class="edge">
<title>Node18&#45;&gt;Node13</title>
<path fill="none" stroke="midnightblue" d="M1197.73,-201.71C1268.28,-196.81 1400.99,-184.18 1510,-154 1566.86,-138.26 1629.5,-108.6 1663.54,-91.35"/>
<polygon fill="midnightblue" stroke="midnightblue" points="1665.44,-94.31 1672.74,-86.63 1662.25,-88.08 1665.44,-94.31"/>
</g>
<!-- Node19 -->
<g id="node19" class="node">
<title>Node19</title>
<g id="a_node19"><a xlink:title=" ">
<polygon fill="white" stroke="#bfbfbf" points="1173,-67.5 1173,-86.5 1219,-86.5 1219,-67.5 1173,-67.5"/>
<text text-anchor="middle" x="1196" y="-74.5" font-family="Helvetica" font-size="10.00">atomic</text>
</a>
</g>
</g>
<!-- Node18&#45;&gt;Node19 -->
<g id="edge19" class="edge">
<title>Node18&#45;&gt;Node19</title>
<path fill="none" stroke="midnightblue" d="M1155.87,-190.2C1161.16,-180.25 1168.03,-166.55 1173,-154 1180.59,-134.81 1187.17,-112.08 1191.32,-96.51"/>
<polygon fill="midnightblue" stroke="midnightblue" points="1194.77,-97.15 1193.9,-86.59 1188,-95.39 1194.77,-97.15"/>
</g>
<!-- Node20 -->
<g id="node20" class="node">
<title>Node20</title>
<g id="a_node20"><a xlink:title=" ">
<polygon fill="white" stroke="#bfbfbf" points="1237.5,-67.5 1237.5,-86.5 1352.5,-86.5 1352.5,-67.5 1237.5,-67.5"/>
<text text-anchor="middle" x="1295" y="-74.5" font-family="Helvetica" font-size="10.00">vsomeip/message.hpp</text>
</a>
</g>
</g>
<!-- Node18&#45;&gt;Node20 -->
<g id="edge23" class="edge">
<title>Node18&#45;&gt;Node20</title>
<path fill="none" stroke="midnightblue" d="M1164.29,-190.48C1192.05,-166.59 1248.3,-118.19 1277.11,-93.39"/>
<polygon fill="midnightblue" stroke="midnightblue" points="1279.49,-95.96 1284.79,-86.79 1274.92,-90.66 1279.49,-95.96"/>
</g>
<!-- Node21 -->
<g id="node21" class="node">
<title>Node21</title>
<g id="a_node21"><a xlink:href="implementation_2service__discovery_2include_2primitive__types_8hpp.html" target="_top" xlink:title=" ">
<polygon fill="white" stroke="black" points="819.5,-123.5 819.5,-153.5 914.5,-153.5 914.5,-123.5 819.5,-123.5"/>
<text text-anchor="start" x="827.5" y="-141.5" font-family="Helvetica" font-size="10.00">../include/primitive</text>
<text text-anchor="middle" x="867" y="-130.5" font-family="Helvetica" font-size="10.00">_types.hpp</text>
</a>
</g>
</g>
<!-- Node18&#45;&gt;Node21 -->
<g id="edge24" class="edge">
<title>Node18&#45;&gt;Node21</title>
<path fill="none" stroke="midnightblue" d="M1098.41,-193.03C1049.81,-181.79 975.79,-164.66 924.61,-152.83"/>
<polygon fill="midnightblue" stroke="midnightblue" points="925.22,-149.38 914.69,-150.53 923.64,-156.19 925.22,-149.38"/>
</g>
<!-- Node22 -->
<g id="node22" class="node">
<title>Node22</title>
<g id="a_node22"><a xlink:href="message_2include_2message__base__impl_8hpp.html" target="_top" xlink:title=" ">
<polygon fill="white" stroke="black" points="1373,-123.5 1373,-153.5 1501,-153.5 1501,-123.5 1373,-123.5"/>
<text text-anchor="start" x="1381" y="-141.5" font-family="Helvetica" font-size="10.00">../../message/include</text>
<text text-anchor="middle" x="1437" y="-130.5" font-family="Helvetica" font-size="10.00">/message_base_impl.hpp</text>
</a>
</g>
</g>
<!-- Node18&#45;&gt;Node22 -->
<g id="edge26" class="edge">
<title>Node18&#45;&gt;Node22</title>
<path fill="none" stroke="midnightblue" d="M1197.68,-193.33C1243.7,-182.98 1312.68,-167.46 1364.78,-155.74"/>
<polygon fill="midnightblue" stroke="midnightblue" points="1365.64,-159.14 1374.63,-153.53 1364.11,-152.31 1365.64,-159.14"/>
</g>
<!-- Node26 -->
<g id="node26" class="node">
<title>Node26</title>
<g id="a_node26"><a xlink:href="endpoint__definition_8hpp.html" target="_top" xlink:title=" ">
<polygon fill="white" stroke="black" points="1044.5,-123.5 1044.5,-153.5 1163.5,-153.5 1163.5,-123.5 1044.5,-123.5"/>
<text text-anchor="start" x="1052.5" y="-141.5" font-family="Helvetica" font-size="10.00">../../endpoints/include</text>
<text text-anchor="middle" x="1104" y="-130.5" font-family="Helvetica" font-size="10.00">/endpoint_definition.hpp</text>
</a>
</g>
</g>
<!-- Node18&#45;&gt;Node26 -->
<g id="edge35" class="edge">
<title>Node18&#45;&gt;Node26</title>
<path fill="none" stroke="midnightblue" d="M1138.45,-190.4C1132.86,-182.13 1125.67,-171.51 1119.3,-162.1"/>
<polygon fill="midnightblue" stroke="midnightblue" points="1122.03,-159.9 1113.53,-153.58 1116.24,-163.82 1122.03,-159.9"/>
</g>
<!-- Node21&#45;&gt;Node5 -->
<g id="edge25" class="edge">
<title>Node21&#45;&gt;Node5</title>
<path fill="none" stroke="midnightblue" d="M834.62,-123.44C797.59,-107.83 734.86,-82.74 679,-67 598.04,-44.19 500.11,-28.33 450.02,-21.04"/>
<polygon fill="midnightblue" stroke="midnightblue" points="450.48,-17.57 440.08,-19.61 449.48,-24.5 450.48,-17.57"/>
</g>
<!-- Node22&#45;&gt;Node10 -->
<g id="edge28" class="edge">
<title>Node22&#45;&gt;Node10</title>
<path fill="none" stroke="midnightblue" d="M1465.81,-123.36C1481.36,-114.59 1499.97,-102.12 1513,-87 1526.2,-71.67 1535.25,-50.17 1540.48,-34.95"/>
<polygon fill="midnightblue" stroke="midnightblue" points="1543.9,-35.75 1543.63,-25.16 1537.24,-33.61 1543.9,-35.75"/>
</g>
<!-- Node22&#45;&gt;Node20 -->
<g id="edge29" class="edge">
<title>Node22&#45;&gt;Node20</title>
<path fill="none" stroke="midnightblue" d="M1403.35,-123.4C1379.52,-113.42 1347.85,-100.15 1324.91,-90.53"/>
<polygon fill="midnightblue" stroke="midnightblue" points="1326.24,-87.29 1315.66,-86.66 1323.53,-93.75 1326.24,-87.29"/>
</g>
<!-- Node23 -->
<g id="node23" class="node">
<title>Node23</title>
<g id="a_node23"><a xlink:title=" ">
<polygon fill="white" stroke="#bfbfbf" points="1560.5,-67.5 1560.5,-86.5 1649.5,-86.5 1649.5,-67.5 1560.5,-67.5"/>
<text text-anchor="middle" x="1605" y="-74.5" font-family="Helvetica" font-size="10.00">boost/thread.hpp</text>
</a>
</g>
</g>
<!-- Node22&#45;&gt;Node23 -->
<g id="edge27" class="edge">
<title>Node22&#45;&gt;Node23</title>
<path fill="none" stroke="midnightblue" d="M1476.81,-123.4C1505.5,-113.24 1543.81,-99.67 1571.06,-90.02"/>
<polygon fill="midnightblue" stroke="midnightblue" points="1572.3,-93.3 1580.55,-86.66 1569.96,-86.7 1572.3,-93.3"/>
</g>
<!-- Node24 -->
<g id="node24" class="node">
<title>Node24</title>
<g id="a_node24"><a xlink:href="message__header__impl_8hpp.html" target="_top" xlink:title=" ">
<polygon fill="white" stroke="black" points="1370.5,-67.5 1370.5,-86.5 1503.5,-86.5 1503.5,-67.5 1370.5,-67.5"/>
<text text-anchor="middle" x="1437" y="-74.5" font-family="Helvetica" font-size="10.00">message_header_impl.hpp</text>
</a>
</g>
</g>
<!-- Node22&#45;&gt;Node24 -->
<g id="edge30" class="edge">
<title>Node22&#45;&gt;Node24</title>
<path fill="none" stroke="midnightblue" d="M1437,-123.4C1437,-115.47 1437,-105.46 1437,-96.86"/>
<polygon fill="midnightblue" stroke="midnightblue" points="1440.5,-96.66 1437,-86.66 1433.5,-96.66 1440.5,-96.66"/>
</g>
<!-- Node24&#45;&gt;Node10 -->
<g id="edge31" class="edge">
<title>Node24&#45;&gt;Node10</title>
<path fill="none" stroke="midnightblue" d="M1452.62,-67.48C1470.59,-57.67 1500.32,-41.43 1521.41,-29.92"/>
<polygon fill="midnightblue" stroke="midnightblue" points="1523.31,-32.87 1530.41,-25.01 1519.96,-26.73 1523.31,-32.87"/>
</g>
<!-- Node24&#45;&gt;Node14 -->
<g id="edge32" class="edge">
<title>Node24&#45;&gt;Node14</title>
<path fill="none" stroke="midnightblue" d="M1414.36,-67.48C1387.26,-57.27 1341.69,-40.11 1311,-28.55"/>
<polygon fill="midnightblue" stroke="midnightblue" points="1312.19,-25.26 1301.6,-25.01 1309.72,-31.81 1312.19,-25.26"/>
</g>
<!-- Node24&#45;&gt;Node15 -->
<g id="edge34" class="edge">
<title>Node24&#45;&gt;Node15</title>
<path fill="none" stroke="midnightblue" d="M1370.35,-67.92C1367.53,-67.6 1364.74,-67.29 1362,-67 1207.25,-50.34 1026.76,-33.75 921.36,-24.34"/>
<polygon fill="midnightblue" stroke="midnightblue" points="921.35,-20.83 911.08,-23.43 920.73,-27.8 921.35,-20.83"/>
</g>
<!-- Node25 -->
<g id="node25" class="node">
<title>Node25</title>
<g id="a_node25"><a xlink:title=" ">
<polygon fill="white" stroke="#bfbfbf" points="1367,-0.5 1367,-30.5 1477,-30.5 1477,-0.5 1367,-0.5"/>
<text text-anchor="start" x="1375" y="-18.5" font-family="Helvetica" font-size="10.00">vsomeip/enumeration</text>
<text text-anchor="middle" x="1422" y="-7.5" font-family="Helvetica" font-size="10.00">_types.hpp</text>
</a>
</g>
</g>
<!-- Node24&#45;&gt;Node25 -->
<g id="edge33" class="edge">
<title>Node24&#45;&gt;Node25</title>
<path fill="none" stroke="midnightblue" d="M1434.85,-67.48C1433.07,-60.4 1430.44,-49.97 1428.02,-40.39"/>
<polygon fill="midnightblue" stroke="midnightblue" points="1431.37,-39.36 1425.54,-30.52 1424.59,-41.08 1431.37,-39.36"/>
</g>
<!-- Node26&#45;&gt;Node6 -->
<g id="edge39" class="edge">
<title>Node26&#45;&gt;Node6</title>
<path fill="none" stroke="midnightblue" d="M1044.26,-128.92C988.16,-120.43 901.75,-106.23 818.19,-87.08"/>
<polygon fill="midnightblue" stroke="midnightblue" points="818.81,-83.63 808.28,-84.78 817.23,-90.45 818.81,-83.63"/>
</g>
<!-- Node26&#45;&gt;Node10 -->
<g id="edge42" class="edge">
<title>Node26&#45;&gt;Node10</title>
<path fill="none" stroke="midnightblue" d="M1111.6,-123.32C1121.33,-106.7 1139.87,-79.82 1164,-67 1291.16,0.58 1344.18,-55.96 1486,-31 1491.88,-29.96 1498.05,-28.69 1504.09,-27.34"/>
<polygon fill="midnightblue" stroke="midnightblue" points="1505.14,-30.69 1514.08,-25 1503.55,-23.87 1505.14,-30.69"/>
</g>
<!-- Node26&#45;&gt;Node12 -->
<g id="edge37" class="edge">
<title>Node26&#45;&gt;Node12</title>
<path fill="none" stroke="midnightblue" d="M1044.17,-123.69C1003.28,-114.19 947.6,-101.15 889.46,-87.09"/>
<polygon fill="midnightblue" stroke="midnightblue" points="890.27,-83.68 879.73,-84.73 888.62,-90.48 890.27,-83.68"/>
</g>
<!-- Node26&#45;&gt;Node14 -->
<g id="edge41" class="edge">
<title>Node26&#45;&gt;Node14</title>
<path fill="none" stroke="midnightblue" d="M1105.81,-123.37C1108.55,-107.56 1115.24,-82.19 1131,-67 1151.81,-46.95 1180.89,-34.84 1207.78,-27.54"/>
<polygon fill="midnightblue" stroke="midnightblue" points="1208.73,-30.91 1217.56,-25.06 1207.01,-24.12 1208.73,-30.91"/>
</g>
<!-- Node26&#45;&gt;Node19 -->
<g id="edge38" class="edge">
<title>Node26&#45;&gt;Node19</title>
<path fill="none" stroke="midnightblue" d="M1125.8,-123.4C1140.41,-113.95 1159.57,-101.56 1174.18,-92.11"/>
<polygon fill="midnightblue" stroke="midnightblue" points="1176.12,-95.03 1182.61,-86.66 1172.32,-89.15 1176.12,-95.03"/>
</g>
<!-- Node27 -->
<g id="node27" class="node">
<title>Node27</title>
<g id="a_node27"><a xlink:title=" ">
<polygon fill="white" stroke="#bfbfbf" points="897.5,-67.5 897.5,-86.5 932.5,-86.5 932.5,-67.5 897.5,-67.5"/>
<text text-anchor="middle" x="915" y="-74.5" font-family="Helvetica" font-size="10.00">map</text>
</a>
</g>
</g>
<!-- Node26&#45;&gt;Node27 -->
<g id="edge36" class="edge">
<title>Node26&#45;&gt;Node27</title>
<path fill="none" stroke="midnightblue" d="M1058.19,-123.48C1027.86,-114.14 986.98,-101.44 942.29,-87.05"/>
<polygon fill="midnightblue" stroke="midnightblue" points="943.29,-83.7 932.7,-83.96 941.14,-90.36 943.29,-83.7"/>
</g>
<!-- Node28 -->
<g id="node28" class="node">
<title>Node28</title>
<g id="a_node28"><a xlink:title=" ">
<polygon fill="white" stroke="#bfbfbf" points="951,-67.5 951,-86.5 1079,-86.5 1079,-67.5 951,-67.5"/>
<text text-anchor="middle" x="1015" y="-74.5" font-family="Helvetica" font-size="10.00">boost/asio/ip/address.hpp</text>
</a>
</g>
</g>
<!-- Node26&#45;&gt;Node28 -->
<g id="edge40" class="edge">
<title>Node26&#45;&gt;Node28</title>
<path fill="none" stroke="midnightblue" d="M1082.91,-123.4C1068.91,-114.04 1050.59,-101.79 1036.51,-92.38"/>
<polygon fill="midnightblue" stroke="midnightblue" points="1038.21,-89.31 1027.95,-86.66 1034.32,-95.13 1038.21,-89.31"/>
</g>
<!-- Node29&#45;&gt;Node10 -->
<g id="edge45" class="edge">
<title>Node29&#45;&gt;Node10</title>
<path fill="none" stroke="midnightblue" d="M1794.52,-123.35C1792.07,-107.27 1785.64,-81.42 1769,-67 1745.12,-46.31 1664.71,-31.83 1607.3,-23.83"/>
<polygon fill="midnightblue" stroke="midnightblue" points="1607.61,-20.34 1597.23,-22.46 1606.67,-27.27 1607.61,-20.34"/>
</g>
<!-- Node29&#45;&gt;Node13 -->
<g id="edge44" class="edge">
<title>Node29&#45;&gt;Node13</title>
<path fill="none" stroke="midnightblue" d="M1770.64,-123.4C1753.33,-113.77 1730.52,-101.09 1713.42,-91.58"/>
<polygon fill="midnightblue" stroke="midnightblue" points="1715.01,-88.46 1704.57,-86.66 1711.61,-94.58 1715.01,-88.46"/>
</g>
<!-- Node29&#45;&gt;Node14 -->
<g id="edge46" class="edge">
<title>Node29&#45;&gt;Node14</title>
<path fill="none" stroke="midnightblue" d="M1788.44,-123.25C1778.74,-106.57 1760.23,-79.62 1736,-67 1661.17,-28.01 1441.58,-42.63 1358,-31 1349.37,-29.8 1340.25,-28.32 1331.38,-26.77"/>
<polygon fill="midnightblue" stroke="midnightblue" points="1331.99,-23.33 1321.53,-25 1330.75,-30.22 1331.99,-23.33"/>
</g>
<!-- Node30&#45;&gt;Node10 -->
<g id="edge49" class="edge">
<title>Node30&#45;&gt;Node10</title>
<path fill="none" stroke="midnightblue" d="M1708.17,-123.49C1737.73,-110.49 1770.87,-89.75 1753,-67 1735.13,-44.25 1661.82,-30.45 1607.49,-23.15"/>
<polygon fill="midnightblue" stroke="midnightblue" points="1607.6,-19.64 1597.24,-21.82 1606.7,-26.58 1607.6,-19.64"/>
</g>
<!-- Node30&#45;&gt;Node13 -->
<g id="edge48" class="edge">
<title>Node30&#45;&gt;Node13</title>
<path fill="none" stroke="midnightblue" d="M1674.5,-123.4C1677.09,-115.29 1680.38,-105.01 1683.16,-96.28"/>
<polygon fill="midnightblue" stroke="midnightblue" points="1686.53,-97.25 1686.24,-86.66 1679.86,-95.12 1686.53,-97.25"/>
</g>
<!-- Node30&#45;&gt;Node14 -->
<g id="edge50" class="edge">
<title>Node30&#45;&gt;Node14</title>
<path fill="none" stroke="midnightblue" d="M1691.87,-123.25C1711.96,-108.46 1736.32,-85.02 1720,-67 1692.87,-37.04 1398.02,-36.65 1358,-31 1349.56,-29.81 1340.66,-28.36 1331.98,-26.84"/>
<polygon fill="midnightblue" stroke="midnightblue" points="1332.41,-23.37 1321.95,-25.05 1331.17,-30.26 1332.41,-23.37"/>
</g>
</g>
</svg>
