<?xml version="1.0" encoding="UTF-8" standalone="no"?>
<!DOCTYPE svg PUBLIC "-//W3C//DTD SVG 1.1//EN"
 "http://www.w3.org/Graphics/SVG/1.1/DTD/svg11.dtd">
<!-- Generated by graphviz version 2.44.0 (0)
 -->
<!-- Title: /home/ec2&#45;user/workspace/vsomeip/implementation/service_discovery/include/entry_impl.hpp Pages: 1 -->
<svg width="733pt" height="239pt"
 viewBox="0.00 0.00 732.50 239.00" xmlns="http://www.w3.org/2000/svg" xmlns:xlink="http://www.w3.org/1999/xlink">
<g id="graph0" class="graph" transform="scale(1 1) rotate(0) translate(4 235)">
<title>/home/ec2&#45;user/workspace/vsomeip/implementation/service_discovery/include/entry_impl.hpp</title>
<polygon fill="white" stroke="transparent" points="-4,4 -4,-235 728.5,-235 728.5,4 -4,4"/>
<!-- Node1 -->
<g id="node1" class="node">
<title>Node1</title>
<g id="a_node1"><a xlink:title=" ">
<polygon fill="#bfbfbf" stroke="black" points="385,-178.5 385,-230.5 519,-230.5 519,-178.5 385,-178.5"/>
<text text-anchor="start" x="393" y="-218.5" font-family="Helvetica" font-size="10.00">/home/ec2&#45;user/workspace</text>
<text text-anchor="start" x="393" y="-207.5" font-family="Helvetica" font-size="10.00">/vsomeip/implementation</text>
<text text-anchor="start" x="393" y="-196.5" font-family="Helvetica" font-size="10.00">/service_discovery/include</text>
<text text-anchor="middle" x="452" y="-185.5" font-family="Helvetica" font-size="10.00">/entry_impl.hpp</text>
</a>
</g>
</g>
<!-- Node2 -->
<g id="node2" class="node">
<title>Node2</title>
<g id="a_node2"><a xlink:href="eventgroupentry__impl_8hpp.html" target="_top" xlink:title=" ">
<polygon fill="white" stroke="black" points="228,-89.5 228,-141.5 362,-141.5 362,-89.5 228,-89.5"/>
<text text-anchor="start" x="236" y="-129.5" font-family="Helvetica" font-size="10.00">/home/ec2&#45;user/workspace</text>
<text text-anchor="start" x="236" y="-118.5" font-family="Helvetica" font-size="10.00">/vsomeip/implementation</text>
<text text-anchor="start" x="236" y="-107.5" font-family="Helvetica" font-size="10.00">/service_discovery/include</text>
<text text-anchor="middle" x="295" y="-96.5" font-family="Helvetica" font-size="10.00">/eventgroupentry_impl.hpp</text>
</a>
</g>
</g>
<!-- Node1&#45;&gt;Node2 -->
<g id="edge1" class="edge">
<title>Node1&#45;&gt;Node2</title>
<path fill="none" stroke="midnightblue" d="M397.6,-173.35C378.91,-163 358.2,-151.52 340.31,-141.61"/>
<polygon fill="midnightblue" stroke="midnightblue" points="396.15,-176.55 406.59,-178.34 399.54,-170.43 396.15,-176.55"/>
</g>
<!-- Node6 -->
<g id="node6" class="node">
<title>Node6</title>
<g id="a_node6"><a xlink:href="serviceentry__impl_8hpp.html" target="_top" xlink:title=" ">
<polygon fill="white" stroke="black" points="385,-89.5 385,-141.5 519,-141.5 519,-89.5 385,-89.5"/>
<text text-anchor="start" x="393" y="-129.5" font-family="Helvetica" font-size="10.00">/home/ec2&#45;user/workspace</text>
<text text-anchor="start" x="393" y="-118.5" font-family="Helvetica" font-size="10.00">/vsomeip/implementation</text>
<text text-anchor="start" x="393" y="-107.5" font-family="Helvetica" font-size="10.00">/service_discovery/include</text>
<text text-anchor="middle" x="452" y="-96.5" font-family="Helvetica" font-size="10.00">/serviceentry_impl.hpp</text>
</a>
</g>
</g>
<!-- Node1&#45;&gt;Node6 -->
<g id="edge5" class="edge">
<title>Node1&#45;&gt;Node6</title>
<path fill="none" stroke="midnightblue" d="M452,-168.19C452,-159.28 452,-149.9 452,-141.61"/>
<polygon fill="midnightblue" stroke="midnightblue" points="448.5,-168.34 452,-178.34 455.5,-168.34 448.5,-168.34"/>
</g>
<!-- Node8 -->
<g id="node8" class="node">
<title>Node8</title>
<g id="a_node8"><a xlink:href="entry__impl_8cpp.html" target="_top" xlink:title=" ">
<polygon fill="white" stroke="black" points="537.5,-89.5 537.5,-141.5 678.5,-141.5 678.5,-89.5 537.5,-89.5"/>
<text text-anchor="start" x="545.5" y="-129.5" font-family="Helvetica" font-size="10.00">/home/ec2&#45;user/workspace</text>
<text text-anchor="start" x="545.5" y="-118.5" font-family="Helvetica" font-size="10.00">/vsomeip/implementation</text>
<text text-anchor="start" x="545.5" y="-107.5" font-family="Helvetica" font-size="10.00">/service_discovery/src/entry</text>
<text text-anchor="middle" x="608" y="-96.5" font-family="Helvetica" font-size="10.00">_impl.cpp</text>
</a>
</g>
</g>
<!-- Node1&#45;&gt;Node8 -->
<g id="edge9" class="edge">
<title>Node1&#45;&gt;Node8</title>
<path fill="none" stroke="midnightblue" d="M506.06,-173.35C524.63,-163 545.2,-151.52 562.98,-141.61"/>
<polygon fill="midnightblue" stroke="midnightblue" points="504.15,-170.41 497.12,-178.34 507.56,-176.52 504.15,-170.41"/>
</g>
<!-- Node3 -->
<g id="node3" class="node">
<title>Node3</title>
<g id="a_node3"><a xlink:href="eventgroupentry__impl_8cpp.html" target="_top" xlink:title=" ">
<polygon fill="white" stroke="black" points="0,-0.5 0,-52.5 188,-52.5 188,-0.5 0,-0.5"/>
<text text-anchor="start" x="8" y="-40.5" font-family="Helvetica" font-size="10.00">/home/ec2&#45;user/workspace</text>
<text text-anchor="start" x="8" y="-29.5" font-family="Helvetica" font-size="10.00">/vsomeip/implementation</text>
<text text-anchor="start" x="8" y="-18.5" font-family="Helvetica" font-size="10.00">/service_discovery/src/eventgroupentry</text>
<text text-anchor="middle" x="94" y="-7.5" font-family="Helvetica" font-size="10.00">_impl.cpp</text>
</a>
</g>
</g>
<!-- Node2&#45;&gt;Node3 -->
<g id="edge2" class="edge">
<title>Node2&#45;&gt;Node3</title>
<path fill="none" stroke="midnightblue" d="M227.85,-85.44C203.21,-74.77 175.56,-62.8 151.81,-52.52"/>
<polygon fill="midnightblue" stroke="midnightblue" points="226.56,-88.69 237.13,-89.45 229.35,-82.27 226.56,-88.69"/>
</g>
<!-- Node4 -->
<g id="node4" class="node">
<title>Node4</title>
<g id="a_node4"><a xlink:href="service__discovery_2src_2message__impl_8cpp.html" target="_top" xlink:title=" ">
<polygon fill="white" stroke="black" points="206,-0.5 206,-52.5 364,-52.5 364,-0.5 206,-0.5"/>
<text text-anchor="start" x="214" y="-40.5" font-family="Helvetica" font-size="10.00">/home/ec2&#45;user/workspace</text>
<text text-anchor="start" x="214" y="-29.5" font-family="Helvetica" font-size="10.00">/vsomeip/implementation</text>
<text text-anchor="start" x="214" y="-18.5" font-family="Helvetica" font-size="10.00">/service_discovery/src/message</text>
<text text-anchor="middle" x="285" y="-7.5" font-family="Helvetica" font-size="10.00">_impl.cpp</text>
</a>
</g>
</g>
<!-- Node2&#45;&gt;Node4 -->
<g id="edge3" class="edge">
<title>Node2&#45;&gt;Node4</title>
<path fill="none" stroke="midnightblue" d="M290.94,-79.19C289.92,-70.28 288.84,-60.9 287.89,-52.61"/>
<polygon fill="midnightblue" stroke="midnightblue" points="287.49,-79.8 292.11,-89.34 294.44,-79 287.49,-79.8"/>
</g>
<!-- Node5 -->
<g id="node5" class="node">
<title>Node5</title>
<g id="a_node5"><a xlink:href="service__discovery__impl_8cpp.html" target="_top" xlink:title=" ">
<polygon fill="white" stroke="black" points="382.5,-0.5 382.5,-52.5 533.5,-52.5 533.5,-0.5 382.5,-0.5"/>
<text text-anchor="start" x="390.5" y="-40.5" font-family="Helvetica" font-size="10.00">/home/ec2&#45;user/workspace</text>
<text text-anchor="start" x="390.5" y="-29.5" font-family="Helvetica" font-size="10.00">/vsomeip/implementation</text>
<text text-anchor="start" x="390.5" y="-18.5" font-family="Helvetica" font-size="10.00">/service_discovery/src/service</text>
<text text-anchor="middle" x="458" y="-7.5" font-family="Helvetica" font-size="10.00">_discovery_impl.cpp</text>
</a>
</g>
</g>
<!-- Node2&#45;&gt;Node5 -->
<g id="edge4" class="edge">
<title>Node2&#45;&gt;Node5</title>
<path fill="none" stroke="midnightblue" d="M351.22,-84.49C370.69,-74.1 392.3,-62.57 410.96,-52.61"/>
<polygon fill="midnightblue" stroke="midnightblue" points="349.32,-81.54 342.15,-89.34 352.62,-87.71 349.32,-81.54"/>
</g>
<!-- Node6&#45;&gt;Node4 -->
<g id="edge6" class="edge">
<title>Node6&#45;&gt;Node4</title>
<path fill="none" stroke="midnightblue" d="M394.67,-84.64C374.65,-74.2 352.4,-62.61 333.19,-52.61"/>
<polygon fill="midnightblue" stroke="midnightblue" points="393.21,-87.82 403.7,-89.34 396.45,-81.61 393.21,-87.82"/>
</g>
<!-- Node6&#45;&gt;Node5 -->
<g id="edge7" class="edge">
<title>Node6&#45;&gt;Node5</title>
<path fill="none" stroke="midnightblue" d="M454.44,-79.19C455.05,-70.28 455.7,-60.9 456.27,-52.61"/>
<polygon fill="midnightblue" stroke="midnightblue" points="450.93,-79.12 453.74,-89.34 457.92,-79.6 450.93,-79.12"/>
</g>
<!-- Node7 -->
<g id="node7" class="node">
<title>Node7</title>
<g id="a_node7"><a xlink:href="serviceentry__impl_8cpp.html" target="_top" xlink:title=" ">
<polygon fill="white" stroke="black" points="551.5,-0.5 551.5,-52.5 724.5,-52.5 724.5,-0.5 551.5,-0.5"/>
<text text-anchor="start" x="559.5" y="-40.5" font-family="Helvetica" font-size="10.00">/home/ec2&#45;user/workspace</text>
<text text-anchor="start" x="559.5" y="-29.5" font-family="Helvetica" font-size="10.00">/vsomeip/implementation</text>
<text text-anchor="start" x="559.5" y="-18.5" font-family="Helvetica" font-size="10.00">/service_discovery/src/serviceentry</text>
<text text-anchor="middle" x="638" y="-7.5" font-family="Helvetica" font-size="10.00">_impl.cpp</text>
</a>
</g>
</g>
<!-- Node6&#45;&gt;Node7 -->
<g id="edge8" class="edge">
<title>Node6&#45;&gt;Node7</title>
<path fill="none" stroke="midnightblue" d="M514.95,-85.06C537.48,-74.52 562.65,-62.75 584.32,-52.61"/>
<polygon fill="midnightblue" stroke="midnightblue" points="513.37,-81.93 505.8,-89.34 516.34,-88.27 513.37,-81.93"/>
</g>
</g>
</svg>
