<?xml version="1.0" encoding="UTF-8" standalone="no"?>
<!DOCTYPE svg PUBLIC "-//W3C//DTD SVG 1.1//EN"
 "http://www.w3.org/Graphics/SVG/1.1/DTD/svg11.dtd">
<!-- Generated by graphviz version 2.44.0 (0)
 -->
<!-- Title: /home/ec2&#45;user/workspace/vsomeip/implementation/service_discovery/include/entry_impl.hpp Pages: 1 -->
<svg width="749pt" height="173pt"
 viewBox="0.00 0.00 748.50 173.00" xmlns="http://www.w3.org/2000/svg" xmlns:xlink="http://www.w3.org/1999/xlink">
<g id="graph0" class="graph" transform="scale(1 1) rotate(0) translate(4 169)">
<title>/home/ec2&#45;user/workspace/vsomeip/implementation/service_discovery/include/entry_impl.hpp</title>
<polygon fill="white" stroke="transparent" points="-4,4 -4,-169 744.5,-169 744.5,4 -4,4"/>
<!-- Node1 -->
<g id="node1" class="node">
<title>Node1</title>
<g id="a_node1"><a xlink:title=" ">
<polygon fill="#bfbfbf" stroke="black" points="218.5,-112.5 218.5,-164.5 352.5,-164.5 352.5,-112.5 218.5,-112.5"/>
<text text-anchor="start" x="226.5" y="-152.5" font-family="Helvetica" font-size="10.00">/home/ec2&#45;user/workspace</text>
<text text-anchor="start" x="226.5" y="-141.5" font-family="Helvetica" font-size="10.00">/vsomeip/implementation</text>
<text text-anchor="start" x="226.5" y="-130.5" font-family="Helvetica" font-size="10.00">/service_discovery/include</text>
<text text-anchor="middle" x="285.5" y="-119.5" font-family="Helvetica" font-size="10.00">/entry_impl.hpp</text>
</a>
</g>
</g>
<!-- Node2 -->
<g id="node2" class="node">
<title>Node2</title>
<g id="a_node2"><a xlink:title=" ">
<polygon fill="white" stroke="#bfbfbf" points="0,-56.5 0,-75.5 53,-75.5 53,-56.5 0,-56.5"/>
<text text-anchor="middle" x="26.5" y="-63.5" font-family="Helvetica" font-size="10.00">memory</text>
</a>
</g>
</g>
<!-- Node1&#45;&gt;Node2 -->
<g id="edge1" class="edge">
<title>Node1&#45;&gt;Node2</title>
<path fill="none" stroke="midnightblue" d="M218.46,-119.25C168.86,-105.75 103.18,-87.87 62.93,-76.92"/>
<polygon fill="midnightblue" stroke="midnightblue" points="63.83,-73.54 53.27,-74.29 62,-80.29 63.83,-73.54"/>
</g>
<!-- Node3 -->
<g id="node3" class="node">
<title>Node3</title>
<g id="a_node3"><a xlink:title=" ">
<polygon fill="white" stroke="#bfbfbf" points="71,-56.5 71,-75.5 114,-75.5 114,-56.5 71,-56.5"/>
<text text-anchor="middle" x="92.5" y="-63.5" font-family="Helvetica" font-size="10.00">vector</text>
</a>
</g>
</g>
<!-- Node1&#45;&gt;Node3 -->
<g id="edge2" class="edge">
<title>Node1&#45;&gt;Node3</title>
<path fill="none" stroke="midnightblue" d="M218.27,-112.94C186.19,-101.22 149.35,-87.77 123.87,-78.46"/>
<polygon fill="midnightblue" stroke="midnightblue" points="124.95,-75.13 114.36,-74.98 122.55,-81.7 124.95,-75.13"/>
</g>
<!-- Node4 -->
<g id="node4" class="node">
<title>Node4</title>
<g id="a_node4"><a xlink:title=" ">
<polygon fill="white" stroke="#bfbfbf" points="132.5,-56.5 132.5,-75.5 272.5,-75.5 272.5,-56.5 132.5,-56.5"/>
<text text-anchor="middle" x="202.5" y="-63.5" font-family="Helvetica" font-size="10.00">vsomeip/primitive_types.hpp</text>
</a>
</g>
</g>
<!-- Node1&#45;&gt;Node4 -->
<g id="edge3" class="edge">
<title>Node1&#45;&gt;Node4</title>
<path fill="none" stroke="midnightblue" d="M256,-112.45C244.21,-102.43 231,-91.21 220.66,-82.42"/>
<polygon fill="midnightblue" stroke="midnightblue" points="222.62,-79.5 212.74,-75.7 218.09,-84.84 222.62,-79.5"/>
</g>
<!-- Node5 -->
<g id="node5" class="node">
<title>Node5</title>
<g id="a_node5"><a xlink:title=" ">
<polygon fill="white" stroke="#bfbfbf" points="290.5,-56.5 290.5,-75.5 448.5,-75.5 448.5,-56.5 290.5,-56.5"/>
<text text-anchor="middle" x="369.5" y="-63.5" font-family="Helvetica" font-size="10.00">vsomeip/internal/serializable.hpp</text>
</a>
</g>
</g>
<!-- Node1&#45;&gt;Node5 -->
<g id="edge4" class="edge">
<title>Node1&#45;&gt;Node5</title>
<path fill="none" stroke="midnightblue" d="M315.35,-112.45C327.41,-102.33 340.92,-90.98 351.44,-82.16"/>
<polygon fill="midnightblue" stroke="midnightblue" points="353.73,-84.81 359.14,-75.7 349.23,-79.44 353.73,-84.81"/>
</g>
<!-- Node6 -->
<g id="node6" class="node">
<title>Node6</title>
<g id="a_node6"><a xlink:href="implementation_2service__discovery_2include_2enumeration__types_8hpp.html" target="_top" xlink:title=" ">
<polygon fill="white" stroke="black" points="466.5,-56.5 466.5,-75.5 584.5,-75.5 584.5,-56.5 466.5,-56.5"/>
<text text-anchor="middle" x="525.5" y="-63.5" font-family="Helvetica" font-size="10.00">enumeration_types.hpp</text>
</a>
</g>
</g>
<!-- Node1&#45;&gt;Node6 -->
<g id="edge5" class="edge">
<title>Node1&#45;&gt;Node6</title>
<path fill="none" stroke="midnightblue" d="M352.67,-117.77C395.9,-105.07 450.54,-89.02 486.69,-78.4"/>
<polygon fill="midnightblue" stroke="midnightblue" points="487.76,-81.73 496.37,-75.56 485.79,-75.02 487.76,-81.73"/>
</g>
<!-- Node8 -->
<g id="node8" class="node">
<title>Node8</title>
<g id="a_node8"><a xlink:href="message__element__impl_8hpp.html" target="_top" xlink:title=" ">
<polygon fill="white" stroke="black" points="602.5,-56.5 602.5,-75.5 740.5,-75.5 740.5,-56.5 602.5,-56.5"/>
<text text-anchor="middle" x="671.5" y="-63.5" font-family="Helvetica" font-size="10.00">message_element_impl.hpp</text>
</a>
</g>
</g>
<!-- Node1&#45;&gt;Node8 -->
<g id="edge7" class="edge">
<title>Node1&#45;&gt;Node8</title>
<path fill="none" stroke="midnightblue" d="M352.74,-125.22C426.95,-111.66 545.12,-90.08 614.82,-77.35"/>
<polygon fill="midnightblue" stroke="midnightblue" points="615.53,-80.78 624.74,-75.54 614.28,-73.89 615.53,-80.78"/>
</g>
<!-- Node7 -->
<g id="node7" class="node">
<title>Node7</title>
<g id="a_node7"><a xlink:title=" ">
<polygon fill="white" stroke="#bfbfbf" points="502.5,-0.5 502.5,-19.5 548.5,-19.5 548.5,-0.5 502.5,-0.5"/>
<text text-anchor="middle" x="525.5" y="-7.5" font-family="Helvetica" font-size="10.00">cstdint</text>
</a>
</g>
</g>
<!-- Node6&#45;&gt;Node7 -->
<g id="edge6" class="edge">
<title>Node6&#45;&gt;Node7</title>
<path fill="none" stroke="midnightblue" d="M525.5,-56.08C525.5,-49.01 525.5,-38.86 525.5,-29.99"/>
<polygon fill="midnightblue" stroke="midnightblue" points="529,-29.75 525.5,-19.75 522,-29.75 529,-29.75"/>
</g>
</g>
</svg>
