<?xml version="1.0" encoding="UTF-8" standalone="no"?>
<!DOCTYPE svg PUBLIC "-//W3C//DTD SVG 1.1//EN"
 "http://www.w3.org/Graphics/SVG/1.1/DTD/svg11.dtd">
<!-- Generated by graphviz version 2.44.0 (0)
 -->
<!-- Title: /home/ec2&#45;user/workspace/vsomeip/implementation/routing/include/eventgroupinfo.hpp Pages: 1 -->
<svg width="1081pt" height="317pt"
 viewBox="0.00 0.00 1080.50 317.00" xmlns="http://www.w3.org/2000/svg" xmlns:xlink="http://www.w3.org/1999/xlink">
<g id="graph0" class="graph" transform="scale(1 1) rotate(0) translate(4 313)">
<title>/home/ec2&#45;user/workspace/vsomeip/implementation/routing/include/eventgroupinfo.hpp</title>
<polygon fill="white" stroke="transparent" points="-4,4 -4,-313 1076.5,-313 1076.5,4 -4,4"/>
<!-- Node1 -->
<g id="node1" class="node">
<title>Node1</title>
<g id="a_node1"><a xlink:title=" ">
<polygon fill="#bfbfbf" stroke="black" points="692.5,-267.5 692.5,-308.5 859.5,-308.5 859.5,-267.5 692.5,-267.5"/>
<text text-anchor="start" x="700.5" y="-296.5" font-family="Helvetica" font-size="10.00">/home/ec2&#45;user/workspace</text>
<text text-anchor="start" x="700.5" y="-285.5" font-family="Helvetica" font-size="10.00">/vsomeip/implementation</text>
<text text-anchor="middle" x="776" y="-274.5" font-family="Helvetica" font-size="10.00">/routing/include/eventgroupinfo.hpp</text>
</a>
</g>
</g>
<!-- Node2 -->
<g id="node2" class="node">
<title>Node2</title>
<g id="a_node2"><a xlink:href="routing__manager__base_8hpp.html" target="_top" xlink:title=" ">
<polygon fill="white" stroke="black" points="359,-178.5 359,-230.5 493,-230.5 493,-178.5 359,-178.5"/>
<text text-anchor="start" x="367" y="-218.5" font-family="Helvetica" font-size="10.00">/home/ec2&#45;user/workspace</text>
<text text-anchor="start" x="367" y="-207.5" font-family="Helvetica" font-size="10.00">/vsomeip/implementation</text>
<text text-anchor="start" x="367" y="-196.5" font-family="Helvetica" font-size="10.00">/routing/include/routing</text>
<text text-anchor="middle" x="426" y="-185.5" font-family="Helvetica" font-size="10.00">_manager_base.hpp</text>
</a>
</g>
</g>
<!-- Node1&#45;&gt;Node2 -->
<g id="edge1" class="edge">
<title>Node1&#45;&gt;Node2</title>
<path fill="none" stroke="midnightblue" d="M682.36,-265.19C622.67,-251.3 546.74,-233.62 493.06,-221.11"/>
<polygon fill="midnightblue" stroke="midnightblue" points="681.63,-268.62 692.17,-267.48 683.22,-261.8 681.63,-268.62"/>
</g>
<!-- Node9 -->
<g id="node9" class="node">
<title>Node9</title>
<g id="a_node9"><a xlink:href="routing__manager__impl_8cpp.html" target="_top" xlink:title=" ">
<polygon fill="white" stroke="black" points="558,-0.5 558,-52.5 698,-52.5 698,-0.5 558,-0.5"/>
<text text-anchor="start" x="566" y="-40.5" font-family="Helvetica" font-size="10.00">/home/ec2&#45;user/workspace</text>
<text text-anchor="start" x="566" y="-29.5" font-family="Helvetica" font-size="10.00">/vsomeip/implementation</text>
<text text-anchor="start" x="566" y="-18.5" font-family="Helvetica" font-size="10.00">/routing/src/routing_manager</text>
<text text-anchor="middle" x="628" y="-7.5" font-family="Helvetica" font-size="10.00">_impl.cpp</text>
</a>
</g>
</g>
<!-- Node1&#45;&gt;Node9 -->
<g id="edge13" class="edge">
<title>Node1&#45;&gt;Node9</title>
<path fill="none" stroke="midnightblue" d="M758.01,-258.81C752.99,-250.13 747.86,-240.38 744,-231 719.14,-170.58 741.93,-143.56 706,-89 696.71,-74.89 683.1,-62.56 669.84,-52.73"/>
<polygon fill="midnightblue" stroke="midnightblue" points="755.02,-260.62 763.15,-267.42 761.03,-257.04 755.02,-260.62"/>
</g>
<!-- Node11 -->
<g id="node11" class="node">
<title>Node11</title>
<g id="a_node11"><a xlink:href="eventgroupinfo_8cpp.html" target="_top" xlink:title=" ">
<polygon fill="white" stroke="black" points="753,-184 753,-225 903,-225 903,-184 753,-184"/>
<text text-anchor="start" x="761" y="-213" font-family="Helvetica" font-size="10.00">/home/ec2&#45;user/workspace</text>
<text text-anchor="start" x="761" y="-202" font-family="Helvetica" font-size="10.00">/vsomeip/implementation</text>
<text text-anchor="middle" x="828" y="-191" font-family="Helvetica" font-size="10.00">/routing/src/eventgroupinfo.cpp</text>
</a>
</g>
</g>
<!-- Node1&#45;&gt;Node11 -->
<g id="edge12" class="edge">
<title>Node1&#45;&gt;Node11</title>
<path fill="none" stroke="midnightblue" d="M794.04,-258.72C801.13,-247.61 809.1,-235.13 815.53,-225.05"/>
<polygon fill="midnightblue" stroke="midnightblue" points="791.02,-256.96 788.59,-267.27 796.92,-260.72 791.02,-256.96"/>
</g>
<!-- Node12 -->
<g id="node12" class="node">
<title>Node12</title>
<g id="a_node12"><a xlink:href="service__discovery__impl_8cpp.html" target="_top" xlink:title=" ">
<polygon fill="white" stroke="black" points="921.5,-178.5 921.5,-230.5 1072.5,-230.5 1072.5,-178.5 921.5,-178.5"/>
<text text-anchor="start" x="929.5" y="-218.5" font-family="Helvetica" font-size="10.00">/home/ec2&#45;user/workspace</text>
<text text-anchor="start" x="929.5" y="-207.5" font-family="Helvetica" font-size="10.00">/vsomeip/implementation</text>
<text text-anchor="start" x="929.5" y="-196.5" font-family="Helvetica" font-size="10.00">/service_discovery/src/service</text>
<text text-anchor="middle" x="997" y="-185.5" font-family="Helvetica" font-size="10.00">_discovery_impl.cpp</text>
</a>
</g>
</g>
<!-- Node1&#45;&gt;Node12 -->
<g id="edge14" class="edge">
<title>Node1&#45;&gt;Node12</title>
<path fill="none" stroke="midnightblue" d="M838.68,-263.89C866.87,-253.49 900.21,-241.2 929,-230.58"/>
<polygon fill="midnightblue" stroke="midnightblue" points="837.11,-260.73 828.94,-267.48 839.53,-267.3 837.11,-260.73"/>
</g>
<!-- Node3 -->
<g id="node3" class="node">
<title>Node3</title>
<g id="a_node3"><a xlink:href="endpoint__manager__base_8cpp.html" target="_top" xlink:title=" ">
<polygon fill="white" stroke="black" points="563,-89.5 563,-141.5 697,-141.5 697,-89.5 563,-89.5"/>
<text text-anchor="start" x="571" y="-129.5" font-family="Helvetica" font-size="10.00">/home/ec2&#45;user/workspace</text>
<text text-anchor="start" x="571" y="-118.5" font-family="Helvetica" font-size="10.00">/vsomeip/implementation</text>
<text text-anchor="start" x="571" y="-107.5" font-family="Helvetica" font-size="10.00">/endpoints/src/endpoint</text>
<text text-anchor="middle" x="630" y="-96.5" font-family="Helvetica" font-size="10.00">_manager_base.cpp</text>
</a>
</g>
</g>
<!-- Node2&#45;&gt;Node3 -->
<g id="edge2" class="edge">
<title>Node2&#45;&gt;Node3</title>
<path fill="none" stroke="midnightblue" d="M494.15,-174.44C519.16,-163.77 547.23,-151.8 571.33,-141.52"/>
<polygon fill="midnightblue" stroke="midnightblue" points="492.56,-171.31 484.73,-178.45 495.3,-177.75 492.56,-171.31"/>
</g>
<!-- Node4 -->
<g id="node4" class="node">
<title>Node4</title>
<g id="a_node4"><a xlink:href="endpoint__manager__impl_8cpp.html" target="_top" xlink:title=" ">
<polygon fill="white" stroke="black" points="310,-0.5 310,-52.5 444,-52.5 444,-0.5 310,-0.5"/>
<text text-anchor="start" x="318" y="-40.5" font-family="Helvetica" font-size="10.00">/home/ec2&#45;user/workspace</text>
<text text-anchor="start" x="318" y="-29.5" font-family="Helvetica" font-size="10.00">/vsomeip/implementation</text>
<text text-anchor="start" x="318" y="-18.5" font-family="Helvetica" font-size="10.00">/endpoints/src/endpoint</text>
<text text-anchor="middle" x="377" y="-7.5" font-family="Helvetica" font-size="10.00">_manager_impl.cpp</text>
</a>
</g>
</g>
<!-- Node2&#45;&gt;Node4 -->
<g id="edge3" class="edge">
<title>Node2&#45;&gt;Node4</title>
<path fill="none" stroke="midnightblue" d="M407.18,-169.35C402.98,-160.64 398.92,-151.14 396,-142 386.44,-112.06 381.47,-76.09 379.05,-52.56"/>
<polygon fill="midnightblue" stroke="midnightblue" points="404.13,-171.08 411.74,-178.45 410.39,-167.94 404.13,-171.08"/>
</g>
<!-- Node5 -->
<g id="node5" class="node">
<title>Node5</title>
<g id="a_node5"><a xlink:href="routing__manager__client_8hpp.html" target="_top" xlink:title=" ">
<polygon fill="white" stroke="black" points="63,-89.5 63,-141.5 197,-141.5 197,-89.5 63,-89.5"/>
<text text-anchor="start" x="71" y="-129.5" font-family="Helvetica" font-size="10.00">/home/ec2&#45;user/workspace</text>
<text text-anchor="start" x="71" y="-118.5" font-family="Helvetica" font-size="10.00">/vsomeip/implementation</text>
<text text-anchor="start" x="71" y="-107.5" font-family="Helvetica" font-size="10.00">/routing/include/routing</text>
<text text-anchor="middle" x="130" y="-96.5" font-family="Helvetica" font-size="10.00">_manager_client.hpp</text>
</a>
</g>
</g>
<!-- Node2&#45;&gt;Node5 -->
<g id="edge4" class="edge">
<title>Node2&#45;&gt;Node5</title>
<path fill="none" stroke="midnightblue" d="M349.13,-183.05C306.76,-171.51 253.3,-156.54 206,-142 203.07,-141.1 200.09,-140.17 197.08,-139.21"/>
<polygon fill="midnightblue" stroke="midnightblue" points="348.26,-186.44 358.83,-185.68 350.09,-179.68 348.26,-186.44"/>
</g>
<!-- Node8 -->
<g id="node8" class="node">
<title>Node8</title>
<g id="a_node8"><a xlink:href="routing__manager__impl_8hpp.html" target="_top" xlink:title=" ">
<polygon fill="white" stroke="black" points="215,-89.5 215,-141.5 349,-141.5 349,-89.5 215,-89.5"/>
<text text-anchor="start" x="223" y="-129.5" font-family="Helvetica" font-size="10.00">/home/ec2&#45;user/workspace</text>
<text text-anchor="start" x="223" y="-118.5" font-family="Helvetica" font-size="10.00">/vsomeip/implementation</text>
<text text-anchor="start" x="223" y="-107.5" font-family="Helvetica" font-size="10.00">/routing/include/routing</text>
<text text-anchor="middle" x="282" y="-96.5" font-family="Helvetica" font-size="10.00">_manager_impl.hpp</text>
</a>
</g>
</g>
<!-- Node2&#45;&gt;Node8 -->
<g id="edge7" class="edge">
<title>Node2&#45;&gt;Node8</title>
<path fill="none" stroke="midnightblue" d="M375.63,-173.07C358.61,-162.79 339.82,-151.43 323.56,-141.61"/>
<polygon fill="midnightblue" stroke="midnightblue" points="373.98,-176.16 384.35,-178.34 377.6,-170.17 373.98,-176.16"/>
</g>
<!-- Node10 -->
<g id="node10" class="node">
<title>Node10</title>
<g id="a_node10"><a xlink:href="routing__manager__base_8cpp.html" target="_top" xlink:title=" ">
<polygon fill="white" stroke="black" points="405,-89.5 405,-141.5 545,-141.5 545,-89.5 405,-89.5"/>
<text text-anchor="start" x="413" y="-129.5" font-family="Helvetica" font-size="10.00">/home/ec2&#45;user/workspace</text>
<text text-anchor="start" x="413" y="-118.5" font-family="Helvetica" font-size="10.00">/vsomeip/implementation</text>
<text text-anchor="start" x="413" y="-107.5" font-family="Helvetica" font-size="10.00">/routing/src/routing_manager</text>
<text text-anchor="middle" x="475" y="-96.5" font-family="Helvetica" font-size="10.00">_base.cpp</text>
</a>
</g>
</g>
<!-- Node2&#45;&gt;Node10 -->
<g id="edge11" class="edge">
<title>Node2&#45;&gt;Node10</title>
<path fill="none" stroke="midnightblue" d="M445.23,-169.35C450.44,-160.1 455.99,-150.26 460.86,-141.61"/>
<polygon fill="midnightblue" stroke="midnightblue" points="442.03,-167.91 440.17,-178.34 448.13,-171.34 442.03,-167.91"/>
</g>
<!-- Node6 -->
<g id="node6" class="node">
<title>Node6</title>
<g id="a_node6"><a xlink:href="routing__manager__client_8cpp.html" target="_top" xlink:title=" ">
<polygon fill="white" stroke="black" points="0,-0.5 0,-52.5 140,-52.5 140,-0.5 0,-0.5"/>
<text text-anchor="start" x="8" y="-40.5" font-family="Helvetica" font-size="10.00">/home/ec2&#45;user/workspace</text>
<text text-anchor="start" x="8" y="-29.5" font-family="Helvetica" font-size="10.00">/vsomeip/implementation</text>
<text text-anchor="start" x="8" y="-18.5" font-family="Helvetica" font-size="10.00">/routing/src/routing_manager</text>
<text text-anchor="middle" x="70" y="-7.5" font-family="Helvetica" font-size="10.00">_client.cpp</text>
</a>
</g>
</g>
<!-- Node5&#45;&gt;Node6 -->
<g id="edge5" class="edge">
<title>Node5&#45;&gt;Node6</title>
<path fill="none" stroke="midnightblue" d="M106.85,-80.93C100.35,-71.51 93.41,-61.44 87.32,-52.61"/>
<polygon fill="midnightblue" stroke="midnightblue" points="104.09,-83.09 112.65,-89.34 109.85,-79.12 104.09,-83.09"/>
</g>
<!-- Node7 -->
<g id="node7" class="node">
<title>Node7</title>
<g id="a_node7"><a xlink:href="runtime_2src_2application__impl_8cpp.html" target="_top" xlink:title=" ">
<polygon fill="white" stroke="black" points="158,-0.5 158,-52.5 292,-52.5 292,-0.5 158,-0.5"/>
<text text-anchor="start" x="166" y="-40.5" font-family="Helvetica" font-size="10.00">/home/ec2&#45;user/workspace</text>
<text text-anchor="start" x="166" y="-29.5" font-family="Helvetica" font-size="10.00">/vsomeip/implementation</text>
<text text-anchor="start" x="166" y="-18.5" font-family="Helvetica" font-size="10.00">/runtime/src/application</text>
<text text-anchor="middle" x="225" y="-7.5" font-family="Helvetica" font-size="10.00">_impl.cpp</text>
</a>
</g>
</g>
<!-- Node5&#45;&gt;Node7 -->
<g id="edge6" class="edge">
<title>Node5&#45;&gt;Node7</title>
<path fill="none" stroke="midnightblue" d="M165.09,-82.36C175.82,-72.54 187.45,-61.89 197.58,-52.61"/>
<polygon fill="midnightblue" stroke="midnightblue" points="162.49,-80 157.48,-89.34 167.22,-85.16 162.49,-80"/>
</g>
<!-- Node8&#45;&gt;Node4 -->
<g id="edge8" class="edge">
<title>Node8&#45;&gt;Node4</title>
<path fill="none" stroke="midnightblue" d="M317.09,-82.36C327.82,-72.54 339.45,-61.89 349.58,-52.61"/>
<polygon fill="midnightblue" stroke="midnightblue" points="314.49,-80 309.48,-89.34 319.22,-85.16 314.49,-80"/>
</g>
<!-- Node8&#45;&gt;Node7 -->
<g id="edge10" class="edge">
<title>Node8&#45;&gt;Node7</title>
<path fill="none" stroke="midnightblue" d="M260,-80.93C253.83,-71.51 247.24,-61.44 241.45,-52.61"/>
<polygon fill="midnightblue" stroke="midnightblue" points="257.11,-82.89 265.51,-89.34 262.96,-79.05 257.11,-82.89"/>
</g>
<!-- Node8&#45;&gt;Node9 -->
<g id="edge9" class="edge">
<title>Node8&#45;&gt;Node9</title>
<path fill="none" stroke="midnightblue" d="M358.84,-95.18C418.33,-80.22 500.05,-59.67 557.8,-45.15"/>
<polygon fill="midnightblue" stroke="midnightblue" points="357.97,-91.79 349.12,-97.62 359.67,-98.58 357.97,-91.79"/>
</g>
</g>
</svg>
