<?xml version="1.0" encoding="UTF-8" standalone="no"?>
<!DOCTYPE svg PUBLIC "-//W3C//DTD SVG 1.1//EN"
 "http://www.w3.org/Graphics/SVG/1.1/DTD/svg11.dtd">
<!-- Generated by graphviz version 2.44.0 (0)
 -->
<!-- Title: /home/ec2&#45;user/workspace/vsomeip/implementation/routing/src/event.cpp Pages: 1 -->
<svg width="2068pt" height="318pt"
 viewBox="0.00 0.00 2068.43 318.00" xmlns="http://www.w3.org/2000/svg" xmlns:xlink="http://www.w3.org/1999/xlink">
<g id="graph0" class="graph" transform="scale(1 1) rotate(0) translate(4 314)">
<title>/home/ec2&#45;user/workspace/vsomeip/implementation/routing/src/event.cpp</title>
<polygon fill="white" stroke="transparent" points="-4,4 -4,-314 2064.43,-314 2064.43,4 -4,4"/>
<!-- Node1 -->
<g id="node1" class="node">
<title>Node1</title>
<g id="a_node1"><a xlink:title=" ">
<polygon fill="#bfbfbf" stroke="black" points="927.43,-268.5 927.43,-309.5 1061.43,-309.5 1061.43,-268.5 927.43,-268.5"/>
<text text-anchor="start" x="935.43" y="-297.5" font-family="Helvetica" font-size="10.00">/home/ec2&#45;user/workspace</text>
<text text-anchor="start" x="935.43" y="-286.5" font-family="Helvetica" font-size="10.00">/vsomeip/implementation</text>
<text text-anchor="middle" x="994.43" y="-275.5" font-family="Helvetica" font-size="10.00">/routing/src/event.cpp</text>
</a>
</g>
</g>
<!-- Node2 -->
<g id="node2" class="node">
<title>Node2</title>
<g id="a_node2"><a xlink:title=" ">
<polygon fill="white" stroke="#bfbfbf" points="225.43,-0.5 225.43,-19.5 271.43,-19.5 271.43,-0.5 225.43,-0.5"/>
<text text-anchor="middle" x="248.43" y="-7.5" font-family="Helvetica" font-size="10.00">chrono</text>
</a>
</g>
</g>
<!-- Node1&#45;&gt;Node2 -->
<g id="edge1" class="edge">
<title>Node1&#45;&gt;Node2</title>
<path fill="none" stroke="midnightblue" d="M927.37,-287.28C760.97,-284.86 332.81,-274.57 197.43,-232 142.09,-214.6 130.7,-201.27 85.43,-165 39.73,-128.39 -25.92,-101.1 11.43,-56 36.89,-25.25 155.85,-15.34 214.94,-12.29"/>
<polygon fill="midnightblue" stroke="midnightblue" points="215.42,-15.77 225.24,-11.8 215.09,-8.78 215.42,-15.77"/>
</g>
<!-- Node3 -->
<g id="node3" class="node">
<title>Node3</title>
<g id="a_node3"><a xlink:title=" ">
<polygon fill="white" stroke="#bfbfbf" points="1292.43,-207 1292.43,-226 1342.43,-226 1342.43,-207 1292.43,-207"/>
<text text-anchor="middle" x="1317.43" y="-214" font-family="Helvetica" font-size="10.00">iomanip</text>
</a>
</g>
</g>
<!-- Node1&#45;&gt;Node3 -->
<g id="edge2" class="edge">
<title>Node1&#45;&gt;Node3</title>
<path fill="none" stroke="midnightblue" d="M1061.71,-277.88C1119.71,-268.41 1205.4,-252.63 1278.43,-232 1281.07,-231.25 1283.79,-230.41 1286.51,-229.51"/>
<polygon fill="midnightblue" stroke="midnightblue" points="1287.9,-232.73 1296.18,-226.11 1285.58,-226.12 1287.9,-232.73"/>
</g>
<!-- Node4 -->
<g id="node4" class="node">
<title>Node4</title>
<g id="a_node4"><a xlink:title=" ">
<polygon fill="white" stroke="#bfbfbf" points="20.43,-62 20.43,-81 72.43,-81 72.43,-62 20.43,-62"/>
<text text-anchor="middle" x="46.43" y="-69" font-family="Helvetica" font-size="10.00">sstream</text>
</a>
</g>
</g>
<!-- Node1&#45;&gt;Node4 -->
<g id="edge3" class="edge">
<title>Node1&#45;&gt;Node4</title>
<path fill="none" stroke="midnightblue" d="M927.12,-288.97C802.93,-289.34 530.11,-283.52 307.43,-232 227.9,-213.6 204.42,-210.16 136.43,-165 104.4,-143.73 74.87,-109.41 58.88,-89.09"/>
<polygon fill="midnightblue" stroke="midnightblue" points="61.58,-86.87 52.71,-81.08 56.04,-91.14 61.58,-86.87"/>
</g>
<!-- Node5 -->
<g id="node5" class="node">
<title>Node5</title>
<g id="a_node5"><a xlink:title=" ">
<polygon fill="white" stroke="#bfbfbf" points="1360.43,-207 1360.43,-226 1404.43,-226 1404.43,-207 1360.43,-207"/>
<text text-anchor="middle" x="1382.43" y="-214" font-family="Helvetica" font-size="10.00">thread</text>
</a>
</g>
</g>
<!-- Node1&#45;&gt;Node5 -->
<g id="edge4" class="edge">
<title>Node1&#45;&gt;Node5</title>
<path fill="none" stroke="midnightblue" d="M1061.48,-283.15C1134.19,-276.59 1253.03,-262.07 1351.43,-232 1353.3,-231.43 1355.21,-230.76 1357.11,-230.03"/>
<polygon fill="midnightblue" stroke="midnightblue" points="1358.55,-233.22 1366.36,-226.06 1355.79,-226.79 1358.55,-233.22"/>
</g>
<!-- Node6 -->
<g id="node6" class="node">
<title>Node6</title>
<g id="a_node6"><a xlink:title=" ">
<polygon fill="white" stroke="#bfbfbf" points="1792.43,-62 1792.43,-81 1910.43,-81 1910.43,-62 1792.43,-62"/>
<text text-anchor="middle" x="1851.43" y="-69" font-family="Helvetica" font-size="10.00">vsomeip/constants.hpp</text>
</a>
</g>
</g>
<!-- Node1&#45;&gt;Node6 -->
<g id="edge5" class="edge">
<title>Node1&#45;&gt;Node6</title>
<path fill="none" stroke="midnightblue" d="M1061.68,-281.56C1113.89,-274.58 1186.98,-260.37 1245.43,-232 1265.03,-222.48 1263.28,-209.31 1283.43,-201 1434.95,-138.53 1492.23,-207.85 1650.43,-165 1718.16,-146.65 1791.57,-107.39 1828.07,-86.4"/>
<polygon fill="midnightblue" stroke="midnightblue" points="1830.06,-89.3 1836.94,-81.24 1826.54,-83.25 1830.06,-89.3"/>
</g>
<!-- Node7 -->
<g id="node7" class="node">
<title>Node7</title>
<g id="a_node7"><a xlink:title=" ">
<polygon fill="white" stroke="#bfbfbf" points="1422.93,-207 1422.93,-226 1529.93,-226 1529.93,-207 1422.93,-207"/>
<text text-anchor="middle" x="1476.43" y="-214" font-family="Helvetica" font-size="10.00">vsomeip/defines.hpp</text>
</a>
</g>
</g>
<!-- Node1&#45;&gt;Node7 -->
<g id="edge6" class="edge">
<title>Node1&#45;&gt;Node7</title>
<path fill="none" stroke="midnightblue" d="M1061.49,-280.99C1144.48,-271.87 1289.95,-254.41 1413.43,-232 1419.37,-230.92 1425.6,-229.66 1431.73,-228.33"/>
<polygon fill="midnightblue" stroke="midnightblue" points="1432.89,-231.66 1441.89,-226.06 1431.36,-224.82 1432.89,-231.66"/>
</g>
<!-- Node8 -->
<g id="node8" class="node">
<title>Node8</title>
<g id="a_node8"><a xlink:title=" ">
<polygon fill="white" stroke="#bfbfbf" points="463.93,-134.5 463.93,-153.5 578.93,-153.5 578.93,-134.5 463.93,-134.5"/>
<text text-anchor="middle" x="521.43" y="-141.5" font-family="Helvetica" font-size="10.00">vsomeip/message.hpp</text>
</a>
</g>
</g>
<!-- Node1&#45;&gt;Node8 -->
<g id="edge7" class="edge">
<title>Node1&#45;&gt;Node8</title>
<path fill="none" stroke="midnightblue" d="M929.65,-268.42C829.44,-238.12 639.99,-180.84 559.33,-156.46"/>
<polygon fill="midnightblue" stroke="midnightblue" points="560.18,-153.06 549.59,-153.51 558.15,-159.76 560.18,-153.06"/>
</g>
<!-- Node9 -->
<g id="node9" class="node">
<title>Node9</title>
<g id="a_node9"><a xlink:title=" ">
<polygon fill="white" stroke="#bfbfbf" points="460.93,-62 460.93,-81 569.93,-81 569.93,-62 460.93,-62"/>
<text text-anchor="middle" x="515.43" y="-69" font-family="Helvetica" font-size="10.00">vsomeip/payload.hpp</text>
</a>
</g>
</g>
<!-- Node1&#45;&gt;Node9 -->
<g id="edge8" class="edge">
<title>Node1&#45;&gt;Node9</title>
<path fill="none" stroke="midnightblue" d="M927.19,-283.02C795.78,-271.71 512.65,-239.13 455.43,-165 444.02,-150.22 447.55,-139.92 455.43,-123 462.61,-107.55 477.11,-95.14 490.05,-86.49"/>
<polygon fill="midnightblue" stroke="midnightblue" points="492.03,-89.38 498.65,-81.11 488.32,-83.44 492.03,-89.38"/>
</g>
<!-- Node10 -->
<g id="node10" class="node">
<title>Node10</title>
<g id="a_node10"><a xlink:title=" ">
<polygon fill="white" stroke="#bfbfbf" points="1547.93,-207 1547.93,-226 1654.93,-226 1654.93,-207 1547.93,-207"/>
<text text-anchor="middle" x="1601.43" y="-214" font-family="Helvetica" font-size="10.00">vsomeip/runtime.hpp</text>
</a>
</g>
</g>
<!-- Node1&#45;&gt;Node10 -->
<g id="edge9" class="edge">
<title>Node1&#45;&gt;Node10</title>
<path fill="none" stroke="midnightblue" d="M1061.49,-283.87C1164.7,-276.89 1368.46,-260.66 1539.43,-232 1545.65,-230.96 1552.18,-229.66 1558.58,-228.27"/>
<polygon fill="midnightblue" stroke="midnightblue" points="1559.46,-231.66 1568.44,-226.04 1557.92,-224.83 1559.46,-231.66"/>
</g>
<!-- Node11 -->
<g id="node11" class="node">
<title>Node11</title>
<g id="a_node11"><a xlink:href="logger_8hpp.html" target="_top" xlink:title=" ">
<polygon fill="white" stroke="black" points="145.43,-134.5 145.43,-153.5 281.43,-153.5 281.43,-134.5 145.43,-134.5"/>
<text text-anchor="middle" x="213.43" y="-141.5" font-family="Helvetica" font-size="10.00">vsomeip/internal/logger.hpp</text>
</a>
</g>
</g>
<!-- Node1&#45;&gt;Node11 -->
<g id="edge10" class="edge">
<title>Node1&#45;&gt;Node11</title>
<path fill="none" stroke="midnightblue" d="M927.42,-285.04C790.88,-278.49 484.88,-261 384.43,-232 327,-215.42 266.07,-179.34 234.75,-159.24"/>
<polygon fill="midnightblue" stroke="midnightblue" points="236.31,-156.08 226.02,-153.56 232.49,-161.95 236.31,-156.08"/>
</g>
<!-- Node17 -->
<g id="node17" class="node">
<title>Node17</title>
<g id="a_node17"><a xlink:href="routing_2include_2event_8hpp.html" target="_top" xlink:title=" ">
<polygon fill="white" stroke="black" points="1071.93,-134.5 1071.93,-153.5 1172.93,-153.5 1172.93,-134.5 1071.93,-134.5"/>
<text text-anchor="middle" x="1122.43" y="-141.5" font-family="Helvetica" font-size="10.00">../include/event.hpp</text>
</a>
</g>
</g>
<!-- Node1&#45;&gt;Node17 -->
<g id="edge18" class="edge">
<title>Node1&#45;&gt;Node17</title>
<path fill="none" stroke="midnightblue" d="M1011.96,-268.42C1037.41,-239.98 1084.14,-187.77 1107.83,-161.3"/>
<polygon fill="midnightblue" stroke="midnightblue" points="1110.6,-163.46 1114.66,-153.68 1105.38,-158.79 1110.6,-163.46"/>
</g>
<!-- Node27 -->
<g id="node27" class="node">
<title>Node27</title>
<g id="a_node27"><a xlink:href="routing__manager_8hpp.html" target="_top" xlink:title=" ">
<polygon fill="white" stroke="black" points="1146.93,-201.5 1146.93,-231.5 1235.93,-231.5 1235.93,-201.5 1146.93,-201.5"/>
<text text-anchor="start" x="1154.93" y="-219.5" font-family="Helvetica" font-size="10.00">../include/routing</text>
<text text-anchor="middle" x="1191.43" y="-208.5" font-family="Helvetica" font-size="10.00">_manager.hpp</text>
</a>
</g>
</g>
<!-- Node1&#45;&gt;Node27 -->
<g id="edge30" class="edge">
<title>Node1&#45;&gt;Node27</title>
<path fill="none" stroke="midnightblue" d="M1049.04,-268.46C1078.27,-257.99 1113.99,-245.21 1142.34,-235.07"/>
<polygon fill="midnightblue" stroke="midnightblue" points="1143.8,-238.26 1152.04,-231.6 1141.44,-231.67 1143.8,-238.26"/>
</g>
<!-- Node39 -->
<g id="node39" class="node">
<title>Node39</title>
<g id="a_node39"><a xlink:href="endpoint__definition_8hpp.html" target="_top" xlink:title=" ">
<polygon fill="white" stroke="black" points="895.93,-129 895.93,-159 1014.93,-159 1014.93,-129 895.93,-129"/>
<text text-anchor="start" x="903.93" y="-147" font-family="Helvetica" font-size="10.00">../../endpoints/include</text>
<text text-anchor="middle" x="955.43" y="-136" font-family="Helvetica" font-size="10.00">/endpoint_definition.hpp</text>
</a>
</g>
</g>
<!-- Node1&#45;&gt;Node39 -->
<g id="edge58" class="edge">
<title>Node1&#45;&gt;Node39</title>
<path fill="none" stroke="midnightblue" d="M989.09,-268.42C982.02,-242.51 969.57,-196.86 961.95,-168.94"/>
<polygon fill="midnightblue" stroke="midnightblue" points="965.3,-167.9 959.29,-159.18 958.55,-169.75 965.3,-167.9"/>
</g>
<!-- Node40 -->
<g id="node40" class="node">
<title>Node40</title>
<g id="a_node40"><a xlink:href="message_2include_2payload__impl_8hpp.html" target="_top" xlink:title=" ">
<polygon fill="white" stroke="black" points="299.43,-129 299.43,-159 407.43,-159 407.43,-129 299.43,-129"/>
<text text-anchor="start" x="307.43" y="-147" font-family="Helvetica" font-size="10.00">../../message/include</text>
<text text-anchor="middle" x="353.43" y="-136" font-family="Helvetica" font-size="10.00">/payload_impl.hpp</text>
</a>
</g>
</g>
<!-- Node1&#45;&gt;Node40 -->
<g id="edge66" class="edge">
<title>Node1&#45;&gt;Node40</title>
<path fill="none" stroke="midnightblue" d="M927.39,-287.97C795.33,-286.88 506.95,-278.99 421.43,-232 395.32,-217.66 375.85,-188.67 364.58,-168.1"/>
<polygon fill="midnightblue" stroke="midnightblue" points="367.59,-166.3 359.85,-159.06 361.38,-169.54 367.59,-166.3"/>
</g>
<!-- Node11&#45;&gt;Node2 -->
<g id="edge11" class="edge">
<title>Node11&#45;&gt;Node2</title>
<path fill="none" stroke="midnightblue" d="M216.01,-134.3C219.25,-123.3 224.93,-103.8 229.43,-87 234.64,-67.55 240.17,-45.17 243.92,-29.77"/>
<polygon fill="midnightblue" stroke="midnightblue" points="247.35,-30.46 246.3,-19.92 240.55,-28.82 247.35,-30.46"/>
</g>
<!-- Node11&#45;&gt;Node4 -->
<g id="edge15" class="edge">
<title>Node11&#45;&gt;Node4</title>
<path fill="none" stroke="midnightblue" d="M193.28,-134.5C164.07,-122.16 109.75,-99.23 75.99,-84.98"/>
<polygon fill="midnightblue" stroke="midnightblue" points="77.22,-81.7 66.64,-81.03 74.49,-88.15 77.22,-81.7"/>
</g>
<!-- Node12 -->
<g id="node12" class="node">
<title>Node12</title>
<g id="a_node12"><a xlink:title=" ">
<polygon fill="white" stroke="#bfbfbf" points="276.43,-62 276.43,-81 322.43,-81 322.43,-62 276.43,-62"/>
<text text-anchor="middle" x="299.43" y="-69" font-family="Helvetica" font-size="10.00">cstdint</text>
</a>
</g>
</g>
<!-- Node11&#45;&gt;Node12 -->
<g id="edge12" class="edge">
<title>Node11&#45;&gt;Node12</title>
<path fill="none" stroke="midnightblue" d="M223.97,-134.36C238.16,-122.73 263.61,-101.86 280.99,-87.61"/>
<polygon fill="midnightblue" stroke="midnightblue" points="283.28,-90.26 288.79,-81.22 278.84,-84.85 283.28,-90.26"/>
</g>
<!-- Node13 -->
<g id="node13" class="node">
<title>Node13</title>
<g id="a_node13"><a xlink:title=" ">
<polygon fill="white" stroke="#bfbfbf" points="802.43,-62 802.43,-81 846.43,-81 846.43,-62 802.43,-62"/>
<text text-anchor="middle" x="824.43" y="-69" font-family="Helvetica" font-size="10.00">mutex</text>
</a>
</g>
</g>
<!-- Node11&#45;&gt;Node13 -->
<g id="edge13" class="edge">
<title>Node11&#45;&gt;Node13</title>
<path fill="none" stroke="midnightblue" d="M241.33,-134.48C255.84,-130.38 273.94,-125.76 290.43,-123 494.87,-88.81 550.23,-116.38 755.43,-87 767.49,-85.27 780.6,-82.7 792.12,-80.19"/>
<polygon fill="midnightblue" stroke="midnightblue" points="793.19,-83.54 802.18,-77.94 791.66,-76.71 793.19,-83.54"/>
</g>
<!-- Node14 -->
<g id="node14" class="node">
<title>Node14</title>
<g id="a_node14"><a xlink:title=" ">
<polygon fill="white" stroke="#bfbfbf" points="90.43,-62 90.43,-81 142.43,-81 142.43,-62 90.43,-62"/>
<text text-anchor="middle" x="116.43" y="-69" font-family="Helvetica" font-size="10.00">ostream</text>
</a>
</g>
</g>
<!-- Node11&#45;&gt;Node14 -->
<g id="edge14" class="edge">
<title>Node11&#45;&gt;Node14</title>
<path fill="none" stroke="midnightblue" d="M201.53,-134.36C185.39,-122.62 156.31,-101.48 136.69,-87.22"/>
<polygon fill="midnightblue" stroke="midnightblue" points="138.56,-84.26 128.42,-81.22 134.45,-89.93 138.56,-84.26"/>
</g>
<!-- Node15 -->
<g id="node15" class="node">
<title>Node15</title>
<g id="a_node15"><a xlink:title=" ">
<polygon fill="white" stroke="#bfbfbf" points="160.43,-62 160.43,-81 220.43,-81 220.43,-62 160.43,-62"/>
<text text-anchor="middle" x="190.43" y="-69" font-family="Helvetica" font-size="10.00">streambuf</text>
</a>
</g>
</g>
<!-- Node11&#45;&gt;Node15 -->
<g id="edge16" class="edge">
<title>Node11&#45;&gt;Node15</title>
<path fill="none" stroke="midnightblue" d="M210.61,-134.36C207.09,-123.57 200.98,-104.85 196.4,-90.82"/>
<polygon fill="midnightblue" stroke="midnightblue" points="199.7,-89.64 193.27,-81.22 193.04,-91.81 199.7,-89.64"/>
</g>
<!-- Node16 -->
<g id="node16" class="node">
<title>Node16</title>
<g id="a_node16"><a xlink:title=" ">
<polygon fill="white" stroke="#bfbfbf" points="340.43,-62 340.43,-81 442.43,-81 442.43,-62 340.43,-62"/>
<text text-anchor="middle" x="391.43" y="-69" font-family="Helvetica" font-size="10.00">vsomeip/export.hpp</text>
</a>
</g>
</g>
<!-- Node11&#45;&gt;Node16 -->
<g id="edge17" class="edge">
<title>Node11&#45;&gt;Node16</title>
<path fill="none" stroke="midnightblue" d="M234.9,-134.5C266.17,-122.11 324.43,-99.04 360.37,-84.8"/>
<polygon fill="midnightblue" stroke="midnightblue" points="361.87,-87.97 369.88,-81.03 359.29,-81.46 361.87,-87.97"/>
</g>
<!-- Node17&#45;&gt;Node9 -->
<g id="edge29" class="edge">
<title>Node17&#45;&gt;Node9</title>
<path fill="none" stroke="midnightblue" d="M1085.84,-134.44C1067.5,-130.43 1044.89,-125.9 1024.43,-123 827.97,-95.11 775.57,-117 579.43,-87 572.69,-85.97 565.61,-84.63 558.72,-83.18"/>
<polygon fill="midnightblue" stroke="midnightblue" points="559.32,-79.73 548.8,-81 557.82,-86.57 559.32,-79.73"/>
</g>
<!-- Node17&#45;&gt;Node13 -->
<g id="edge22" class="edge">
<title>Node17&#45;&gt;Node13</title>
<path fill="none" stroke="midnightblue" d="M1080.46,-134.46C1008,-119.68 866.1,-90.56 855.43,-87 853.76,-86.44 852.07,-85.82 850.37,-85.16"/>
<polygon fill="midnightblue" stroke="midnightblue" points="851.44,-81.81 840.87,-81.05 848.66,-88.23 851.44,-81.81"/>
</g>
<!-- Node18 -->
<g id="node18" class="node">
<title>Node18</title>
<g id="a_node18"><a xlink:title=" ">
<polygon fill="white" stroke="#bfbfbf" points="1316.93,-62 1316.93,-81 1345.93,-81 1345.93,-62 1316.93,-62"/>
<text text-anchor="middle" x="1331.43" y="-69" font-family="Helvetica" font-size="10.00">list</text>
</a>
</g>
</g>
<!-- Node17&#45;&gt;Node18 -->
<g id="edge19" class="edge">
<title>Node17&#45;&gt;Node18</title>
<path fill="none" stroke="midnightblue" d="M1147.17,-134.5C1157.96,-130.85 1170.79,-126.61 1182.43,-123 1237.64,-105.86 1254.45,-110.15 1307.43,-87 1308.13,-86.69 1308.84,-86.37 1309.54,-86.03"/>
<polygon fill="midnightblue" stroke="midnightblue" points="1311.45,-88.98 1318.56,-81.12 1308.1,-82.83 1311.45,-88.98"/>
</g>
<!-- Node19 -->
<g id="node19" class="node">
<title>Node19</title>
<g id="a_node19"><a xlink:title=" ">
<polygon fill="white" stroke="#bfbfbf" points="1129.93,-0.5 1129.93,-19.5 1164.93,-19.5 1164.93,-0.5 1129.93,-0.5"/>
<text text-anchor="middle" x="1147.43" y="-7.5" font-family="Helvetica" font-size="10.00">map</text>
</a>
</g>
</g>
<!-- Node17&#45;&gt;Node19 -->
<g id="edge20" class="edge">
<title>Node17&#45;&gt;Node19</title>
<path fill="none" stroke="midnightblue" d="M1144.34,-134.47C1155.57,-130.41 1169.56,-125.84 1182.43,-123 1252.09,-107.64 1453.89,-140.2 1501.43,-87 1510.61,-76.73 1510.53,-66.34 1501.43,-56 1479.91,-31.58 1255.24,-16.93 1175.39,-12.47"/>
<polygon fill="midnightblue" stroke="midnightblue" points="1175.3,-8.95 1165.12,-11.9 1174.92,-15.94 1175.3,-8.95"/>
</g>
<!-- Node20 -->
<g id="node20" class="node">
<title>Node20</title>
<g id="a_node20"><a xlink:title=" ">
<polygon fill="white" stroke="#bfbfbf" points="928.93,-62 928.93,-81 981.93,-81 981.93,-62 928.93,-62"/>
<text text-anchor="middle" x="955.43" y="-69" font-family="Helvetica" font-size="10.00">memory</text>
</a>
</g>
</g>
<!-- Node17&#45;&gt;Node20 -->
<g id="edge21" class="edge">
<title>Node17&#45;&gt;Node20</title>
<path fill="none" stroke="midnightblue" d="M1102.28,-134.5C1073.07,-122.16 1018.75,-99.23 984.99,-84.98"/>
<polygon fill="midnightblue" stroke="midnightblue" points="986.22,-81.7 975.64,-81.03 983.49,-88.15 986.22,-81.7"/>
</g>
<!-- Node21 -->
<g id="node21" class="node">
<title>Node21</title>
<g id="a_node21"><a xlink:title=" ">
<polygon fill="white" stroke="#bfbfbf" points="1548.43,-62 1548.43,-81 1578.43,-81 1578.43,-62 1548.43,-62"/>
<text text-anchor="middle" x="1563.43" y="-69" font-family="Helvetica" font-size="10.00">set</text>
</a>
</g>
</g>
<!-- Node17&#45;&gt;Node21 -->
<g id="edge23" class="edge">
<title>Node17&#45;&gt;Node21</title>
<path fill="none" stroke="midnightblue" d="M1144.33,-134.41C1155.56,-130.34 1169.54,-125.77 1182.43,-123 1336.17,-89.94 1383.41,-130.88 1534.43,-87 1536.1,-86.51 1537.79,-85.93 1539.47,-85.29"/>
<polygon fill="midnightblue" stroke="midnightblue" points="1541.11,-88.39 1548.8,-81.1 1538.24,-82.01 1541.11,-88.39"/>
</g>
<!-- Node22 -->
<g id="node22" class="node">
<title>Node22</title>
<g id="a_node22"><a xlink:title=" ">
<polygon fill="white" stroke="#bfbfbf" points="864.43,-62 864.43,-81 910.43,-81 910.43,-62 864.43,-62"/>
<text text-anchor="middle" x="887.43" y="-69" font-family="Helvetica" font-size="10.00">atomic</text>
</a>
</g>
</g>
<!-- Node17&#45;&gt;Node22 -->
<g id="edge24" class="edge">
<title>Node17&#45;&gt;Node22</title>
<path fill="none" stroke="midnightblue" d="M1085.44,-134.44C1044.56,-124.59 976.99,-107.15 920.43,-87 918.76,-86.41 917.07,-85.77 915.37,-85.11"/>
<polygon fill="midnightblue" stroke="midnightblue" points="916.32,-81.71 905.74,-81.1 913.63,-88.17 916.32,-81.71"/>
</g>
<!-- Node23 -->
<g id="node23" class="node">
<title>Node23</title>
<g id="a_node23"><a xlink:title=" ">
<polygon fill="white" stroke="#bfbfbf" points="1364.43,-62 1364.43,-81 1492.43,-81 1492.43,-62 1364.43,-62"/>
<text text-anchor="middle" x="1428.43" y="-69" font-family="Helvetica" font-size="10.00">boost/asio/ip/address.hpp</text>
</a>
</g>
</g>
<!-- Node17&#45;&gt;Node23 -->
<g id="edge25" class="edge">
<title>Node17&#45;&gt;Node23</title>
<path fill="none" stroke="midnightblue" d="M1145.88,-134.46C1156.88,-130.64 1170.23,-126.27 1182.43,-123 1200.85,-118.06 1309.06,-96.27 1375.68,-82.98"/>
<polygon fill="midnightblue" stroke="midnightblue" points="1376.47,-86.39 1385.59,-81 1375.1,-79.53 1376.47,-86.39"/>
</g>
<!-- Node24 -->
<g id="node24" class="node">
<title>Node24</title>
<g id="a_node24"><a xlink:title=" ">
<polygon fill="white" stroke="#bfbfbf" points="1158.43,-62 1158.43,-81 1298.43,-81 1298.43,-62 1158.43,-62"/>
<text text-anchor="middle" x="1228.43" y="-69" font-family="Helvetica" font-size="10.00">boost/asio/steady_timer.hpp</text>
</a>
</g>
</g>
<!-- Node17&#45;&gt;Node24 -->
<g id="edge26" class="edge">
<title>Node17&#45;&gt;Node24</title>
<path fill="none" stroke="midnightblue" d="M1135.42,-134.36C1153.23,-122.52 1185.42,-101.1 1206.86,-86.84"/>
<polygon fill="midnightblue" stroke="midnightblue" points="1208.93,-89.67 1215.32,-81.22 1205.06,-83.84 1208.93,-89.67"/>
</g>
<!-- Node25 -->
<g id="node25" class="node">
<title>Node25</title>
<g id="a_node25"><a xlink:title=" ">
<polygon fill="white" stroke="#bfbfbf" points="1000.43,-62 1000.43,-81 1140.43,-81 1140.43,-62 1000.43,-62"/>
<text text-anchor="middle" x="1070.43" y="-69" font-family="Helvetica" font-size="10.00">vsomeip/primitive_types.hpp</text>
</a>
</g>
</g>
<!-- Node17&#45;&gt;Node25 -->
<g id="edge27" class="edge">
<title>Node17&#45;&gt;Node25</title>
<path fill="none" stroke="midnightblue" d="M1116.05,-134.36C1107.86,-123.26 1093.47,-103.74 1083.04,-89.59"/>
<polygon fill="midnightblue" stroke="midnightblue" points="1085.61,-87.19 1076.85,-81.22 1079.97,-91.34 1085.61,-87.19"/>
</g>
<!-- Node26 -->
<g id="node26" class="node">
<title>Node26</title>
<g id="a_node26"><a xlink:title=" ">
<polygon fill="white" stroke="#bfbfbf" points="1634.93,-62 1634.93,-81 1773.93,-81 1773.93,-62 1634.93,-62"/>
<text text-anchor="middle" x="1704.43" y="-69" font-family="Helvetica" font-size="10.00">vsomeip/function_types.hpp</text>
</a>
</g>
</g>
<!-- Node17&#45;&gt;Node26 -->
<g id="edge28" class="edge">
<title>Node17&#45;&gt;Node26</title>
<path fill="none" stroke="midnightblue" d="M1144.03,-134.44C1155.3,-130.32 1169.42,-125.71 1182.43,-123 1359.34,-86.18 1407.73,-106.12 1587.43,-87 1600.86,-85.57 1615.14,-83.92 1628.94,-82.25"/>
<polygon fill="midnightblue" stroke="midnightblue" points="1629.38,-85.72 1638.88,-81.03 1628.53,-78.77 1629.38,-85.72"/>
</g>
<!-- Node27&#45;&gt;Node8 -->
<g id="edge39" class="edge">
<title>Node27&#45;&gt;Node8</title>
<path fill="none" stroke="midnightblue" d="M1146.79,-214.57C1046.9,-211.88 798.01,-201.72 593.43,-165 581.48,-162.86 568.64,-159.61 557.16,-156.35"/>
<polygon fill="midnightblue" stroke="midnightblue" points="558.07,-152.96 547.49,-153.51 556.1,-159.68 558.07,-152.96"/>
</g>
<!-- Node27&#45;&gt;Node20 -->
<g id="edge31" class="edge">
<title>Node27&#45;&gt;Node20</title>
<path fill="none" stroke="midnightblue" d="M1146.67,-203.28C1120.93,-194.97 1088.78,-182.31 1063.43,-165 1042.39,-150.64 1043.46,-139.93 1024.43,-123 1009.51,-109.73 991.21,-96.46 977.21,-86.85"/>
<polygon fill="midnightblue" stroke="midnightblue" points="978.95,-83.81 968.71,-81.11 975.03,-89.61 978.95,-83.81"/>
</g>
<!-- Node27&#45;&gt;Node21 -->
<g id="edge32" class="edge">
<title>Node27&#45;&gt;Node21</title>
<path fill="none" stroke="midnightblue" d="M1236.07,-203.85C1240.9,-202.79 1245.75,-201.82 1250.43,-201 1325.71,-187.85 1541.3,-221.8 1592.43,-165 1611.75,-143.54 1592.14,-109.28 1577.1,-89.03"/>
<polygon fill="midnightblue" stroke="midnightblue" points="1579.78,-86.78 1570.87,-81.05 1574.27,-91.09 1579.78,-86.78"/>
</g>
<!-- Node27&#45;&gt;Node26 -->
<g id="edge35" class="edge">
<title>Node27&#45;&gt;Node26</title>
<path fill="none" stroke="midnightblue" d="M1236.06,-203.83C1240.89,-202.77 1245.75,-201.8 1250.43,-201 1408.9,-173.74 1464.84,-233.27 1610.43,-165 1646.7,-147.99 1677.31,-111.01 1693.04,-89.31"/>
<polygon fill="midnightblue" stroke="midnightblue" points="1695.96,-91.24 1698.85,-81.05 1690.24,-87.22 1695.96,-91.24"/>
</g>
<!-- Node28 -->
<g id="node28" class="node">
<title>Node28</title>
<g id="a_node28"><a xlink:title=" ">
<polygon fill="white" stroke="#bfbfbf" points="1190.93,-134.5 1190.93,-153.5 1233.93,-153.5 1233.93,-134.5 1190.93,-134.5"/>
<text text-anchor="middle" x="1212.43" y="-141.5" font-family="Helvetica" font-size="10.00">vector</text>
</a>
</g>
</g>
<!-- Node27&#45;&gt;Node28 -->
<g id="edge33" class="edge">
<title>Node27&#45;&gt;Node28</title>
<path fill="none" stroke="midnightblue" d="M1195.68,-201.23C1198.91,-190.39 1203.38,-175.38 1206.89,-163.6"/>
<polygon fill="midnightblue" stroke="midnightblue" points="1210.28,-164.48 1209.78,-153.89 1203.57,-162.48 1210.28,-164.48"/>
</g>
<!-- Node29 -->
<g id="node29" class="node">
<title>Node29</title>
<g id="a_node29"><a xlink:title=" ">
<polygon fill="white" stroke="#bfbfbf" points="1252.43,-134.5 1252.43,-153.5 1380.43,-153.5 1380.43,-134.5 1252.43,-134.5"/>
<text text-anchor="middle" x="1316.43" y="-141.5" font-family="Helvetica" font-size="10.00">boost/asio/io_service.hpp</text>
</a>
</g>
</g>
<!-- Node27&#45;&gt;Node29 -->
<g id="edge34" class="edge">
<title>Node27&#45;&gt;Node29</title>
<path fill="none" stroke="midnightblue" d="M1216.42,-201.4C1238.52,-188.94 1270.53,-170.88 1292.35,-158.58"/>
<polygon fill="midnightblue" stroke="midnightblue" points="1294.31,-161.49 1301.3,-153.53 1290.87,-155.4 1294.31,-161.49"/>
</g>
<!-- Node30 -->
<g id="node30" class="node">
<title>Node30</title>
<g id="a_node30"><a xlink:href="structured__types_8hpp.html" target="_top" xlink:title=" ">
<polygon fill="white" stroke="black" points="588.43,-56.5 588.43,-86.5 688.43,-86.5 688.43,-56.5 588.43,-56.5"/>
<text text-anchor="start" x="596.43" y="-74.5" font-family="Helvetica" font-size="10.00">vsomeip/structured</text>
<text text-anchor="middle" x="638.43" y="-63.5" font-family="Helvetica" font-size="10.00">_types.hpp</text>
</a>
</g>
</g>
<!-- Node27&#45;&gt;Node30 -->
<g id="edge36" class="edge">
<title>Node27&#45;&gt;Node30</title>
<path fill="none" stroke="midnightblue" d="M1146.71,-214.88C1019.47,-212.67 662.26,-203.09 627.43,-165 610.64,-146.64 618,-116.95 626.55,-96.17"/>
<polygon fill="midnightblue" stroke="midnightblue" points="629.86,-97.33 630.74,-86.77 623.47,-94.48 629.86,-97.33"/>
</g>
<!-- Node31 -->
<g id="node31" class="node">
<title>Node31</title>
<g id="a_node31"><a xlink:title=" ">
<polygon fill="white" stroke="#bfbfbf" points="1398.93,-134.5 1398.93,-153.5 1505.93,-153.5 1505.93,-134.5 1398.93,-134.5"/>
<text text-anchor="middle" x="1452.43" y="-141.5" font-family="Helvetica" font-size="10.00">vsomeip/handler.hpp</text>
</a>
</g>
</g>
<!-- Node27&#45;&gt;Node31 -->
<g id="edge40" class="edge">
<title>Node27&#45;&gt;Node31</title>
<path fill="none" stroke="midnightblue" d="M1236.25,-204.39C1285.36,-192.15 1360.95,-173.15 1389.43,-165 1398.4,-162.43 1408.04,-159.48 1417.01,-156.64"/>
<polygon fill="midnightblue" stroke="midnightblue" points="1418.32,-159.89 1426.78,-153.51 1416.19,-153.23 1418.32,-159.89"/>
</g>
<!-- Node32 -->
<g id="node32" class="node">
<title>Node32</title>
<g id="a_node32"><a xlink:href="vsomeip__sec_8h.html" target="_top" xlink:title=" ">
<polygon fill="white" stroke="black" points="1900.43,-134.5 1900.43,-153.5 2022.43,-153.5 2022.43,-134.5 1900.43,-134.5"/>
<text text-anchor="middle" x="1961.43" y="-141.5" font-family="Helvetica" font-size="10.00">vsomeip/vsomeip_sec.h</text>
</a>
</g>
</g>
<!-- Node27&#45;&gt;Node32 -->
<g id="edge41" class="edge">
<title>Node27&#45;&gt;Node32</title>
<path fill="none" stroke="midnightblue" d="M1236.26,-207.75C1251.22,-205.35 1268.01,-202.85 1283.43,-201 1399.42,-187.09 1741.03,-161.24 1890.28,-150.21"/>
<polygon fill="midnightblue" stroke="midnightblue" points="1890.55,-153.7 1900.26,-149.47 1890.03,-146.71 1890.55,-153.7"/>
</g>
<!-- Node35 -->
<g id="node35" class="node">
<title>Node35</title>
<g id="a_node35"><a xlink:href="types_8hpp.html" target="_top" xlink:title=" ">
<polygon fill="white" stroke="black" points="1523.93,-134.5 1523.93,-153.5 1582.93,-153.5 1582.93,-134.5 1523.93,-134.5"/>
<text text-anchor="middle" x="1553.43" y="-141.5" font-family="Helvetica" font-size="10.00">types.hpp</text>
</a>
</g>
</g>
<!-- Node27&#45;&gt;Node35 -->
<g id="edge44" class="edge">
<title>Node27&#45;&gt;Node35</title>
<path fill="none" stroke="midnightblue" d="M1236.1,-203.99C1240.92,-202.91 1245.76,-201.89 1250.43,-201 1367.19,-178.79 1402.22,-201.23 1515.43,-165 1520.62,-163.34 1525.94,-160.99 1530.91,-158.49"/>
<polygon fill="midnightblue" stroke="midnightblue" points="1532.75,-161.48 1539.86,-153.63 1529.4,-155.33 1532.75,-161.48"/>
</g>
<!-- Node36 -->
<g id="node36" class="node">
<title>Node36</title>
<g id="a_node36"><a xlink:href="debounce__filter__impl_8hpp.html" target="_top" xlink:title=" ">
<polygon fill="white" stroke="black" points="635.93,-123.5 635.93,-164.5 754.93,-164.5 754.93,-123.5 635.93,-123.5"/>
<text text-anchor="start" x="643.93" y="-152.5" font-family="Helvetica" font-size="10.00">../../configuration</text>
<text text-anchor="start" x="643.93" y="-141.5" font-family="Helvetica" font-size="10.00">/include/debounce_filter</text>
<text text-anchor="middle" x="695.43" y="-130.5" font-family="Helvetica" font-size="10.00">_impl.hpp</text>
</a>
</g>
</g>
<!-- Node27&#45;&gt;Node36 -->
<g id="edge50" class="edge">
<title>Node27&#45;&gt;Node36</title>
<path fill="none" stroke="midnightblue" d="M1146.79,-212.65C1070.42,-207.24 909.76,-193.58 765.06,-164.95"/>
<polygon fill="midnightblue" stroke="midnightblue" points="765.61,-161.49 755.12,-162.95 764.23,-168.35 765.61,-161.49"/>
</g>
<!-- Node37 -->
<g id="node37" class="node">
<title>Node37</title>
<g id="a_node37"><a xlink:href="internal_8hpp.html" target="_top" xlink:title=" ">
<polygon fill="white" stroke="black" points="773.43,-129 773.43,-159 877.43,-159 877.43,-129 773.43,-129"/>
<text text-anchor="start" x="781.43" y="-147" font-family="Helvetica" font-size="10.00">../../configuration</text>
<text text-anchor="middle" x="825.43" y="-136" font-family="Helvetica" font-size="10.00">/include/internal.hpp</text>
</a>
</g>
</g>
<!-- Node27&#45;&gt;Node37 -->
<g id="edge52" class="edge">
<title>Node27&#45;&gt;Node37</title>
<path fill="none" stroke="midnightblue" d="M1146.71,-210.17C1087.06,-202.59 978.41,-187.1 887.43,-165 883.64,-164.08 879.75,-163.05 875.85,-161.94"/>
<polygon fill="midnightblue" stroke="midnightblue" points="876.79,-158.57 866.2,-159.09 874.8,-165.28 876.79,-158.57"/>
</g>
<!-- Node30&#45;&gt;Node2 -->
<g id="edge37" class="edge">
<title>Node30&#45;&gt;Node2</title>
<path fill="none" stroke="midnightblue" d="M588.29,-57.8C585.3,-57.16 582.33,-56.55 579.43,-56 471.13,-35.39 341.16,-20.58 281.42,-14.31"/>
<polygon fill="midnightblue" stroke="midnightblue" points="281.74,-10.83 271.44,-13.28 281.02,-17.79 281.74,-10.83"/>
</g>
<!-- Node30&#45;&gt;Node19 -->
<g id="edge38" class="edge">
<title>Node30&#45;&gt;Node19</title>
<path fill="none" stroke="midnightblue" d="M688.54,-57.67C691.54,-57.07 694.52,-56.5 697.43,-56 855.71,-28.78 1048.36,-16.33 1119.39,-12.42"/>
<polygon fill="midnightblue" stroke="midnightblue" points="1119.92,-15.9 1129.72,-11.87 1119.55,-8.91 1119.92,-15.9"/>
</g>
<!-- Node33 -->
<g id="node33" class="node">
<title>Node33</title>
<g id="a_node33"><a xlink:title=" ">
<polygon fill="white" stroke="#bfbfbf" points="2012.43,-62 2012.43,-81 2060.43,-81 2060.43,-62 2012.43,-62"/>
<text text-anchor="middle" x="2036.43" y="-69" font-family="Helvetica" font-size="10.00">stdint.h</text>
</a>
</g>
</g>
<!-- Node32&#45;&gt;Node33 -->
<g id="edge42" class="edge">
<title>Node32&#45;&gt;Node33</title>
<path fill="none" stroke="midnightblue" d="M1970.62,-134.36C1982.77,-122.94 2004.38,-102.62 2019.52,-88.4"/>
<polygon fill="midnightblue" stroke="midnightblue" points="2022.27,-90.61 2027.15,-81.22 2017.47,-85.51 2022.27,-90.61"/>
</g>
<!-- Node34 -->
<g id="node34" class="node">
<title>Node34</title>
<g id="a_node34"><a xlink:title=" ">
<polygon fill="white" stroke="#bfbfbf" points="1928.43,-62 1928.43,-81 1994.43,-81 1994.43,-62 1928.43,-62"/>
<text text-anchor="middle" x="1961.43" y="-69" font-family="Helvetica" font-size="10.00">sys/types.h</text>
</a>
</g>
</g>
<!-- Node32&#45;&gt;Node34 -->
<g id="edge43" class="edge">
<title>Node32&#45;&gt;Node34</title>
<path fill="none" stroke="midnightblue" d="M1961.43,-134.36C1961.43,-123.68 1961.43,-105.22 1961.43,-91.23"/>
<polygon fill="midnightblue" stroke="midnightblue" points="1964.93,-91.22 1961.43,-81.22 1957.93,-91.22 1964.93,-91.22"/>
</g>
<!-- Node35&#45;&gt;Node6 -->
<g id="edge49" class="edge">
<title>Node35&#45;&gt;Node6</title>
<path fill="none" stroke="midnightblue" d="M1583.09,-135.98C1635.25,-123.64 1743.7,-97.99 1805.57,-83.35"/>
<polygon fill="midnightblue" stroke="midnightblue" points="1806.53,-86.72 1815.45,-81.01 1804.92,-79.91 1806.53,-86.72"/>
</g>
<!-- Node35&#45;&gt;Node19 -->
<g id="edge45" class="edge">
<title>Node35&#45;&gt;Node19</title>
<path fill="none" stroke="midnightblue" d="M1562.15,-134.27C1578.11,-117.27 1608.51,-79.35 1587.43,-56 1559.73,-25.33 1267.54,-14.42 1175.22,-11.73"/>
<polygon fill="midnightblue" stroke="midnightblue" points="1175.08,-8.22 1164.98,-11.44 1174.88,-15.22 1175.08,-8.22"/>
</g>
<!-- Node35&#45;&gt;Node20 -->
<g id="edge46" class="edge">
<title>Node35&#45;&gt;Node20</title>
<path fill="none" stroke="midnightblue" d="M1540.28,-134.34C1533.22,-130.14 1524.18,-125.48 1515.43,-123 1290.86,-59.27 1218.94,-139.25 991.43,-87 988.59,-86.35 985.69,-85.51 982.83,-84.56"/>
<polygon fill="midnightblue" stroke="midnightblue" points="983.97,-81.25 973.38,-81.02 981.52,-87.8 983.97,-81.25"/>
</g>
<!-- Node35&#45;&gt;Node23 -->
<g id="edge47" class="edge">
<title>Node35&#45;&gt;Node23</title>
<path fill="none" stroke="midnightblue" d="M1538.1,-134.36C1516.83,-122.36 1478.12,-100.53 1452.84,-86.27"/>
<polygon fill="midnightblue" stroke="midnightblue" points="1454.31,-83.08 1443.88,-81.22 1450.87,-89.18 1454.31,-83.08"/>
</g>
<!-- Node35&#45;&gt;Node25 -->
<g id="edge48" class="edge">
<title>Node35&#45;&gt;Node25</title>
<path fill="none" stroke="midnightblue" d="M1540.25,-134.44C1533.18,-130.28 1524.14,-125.61 1515.43,-123 1358.86,-76.06 1311.28,-109.77 1149.43,-87 1140.99,-85.81 1132.08,-84.37 1123.41,-82.85"/>
<polygon fill="midnightblue" stroke="midnightblue" points="1123.83,-79.37 1113.37,-81.06 1122.6,-86.26 1123.83,-79.37"/>
</g>
<!-- Node36&#45;&gt;Node30 -->
<g id="edge51" class="edge">
<title>Node36&#45;&gt;Node30</title>
<path fill="none" stroke="midnightblue" d="M679.55,-123.36C672.39,-114.5 663.89,-104 656.49,-94.84"/>
<polygon fill="midnightblue" stroke="midnightblue" points="659.07,-92.47 650.06,-86.89 653.63,-96.87 659.07,-92.47"/>
</g>
<!-- Node37&#45;&gt;Node12 -->
<g id="edge53" class="edge">
<title>Node37&#45;&gt;Node12</title>
<path fill="none" stroke="midnightblue" d="M787.07,-128.92C779.64,-126.62 771.85,-124.5 764.43,-123 575.16,-84.66 518.33,-135.56 331.43,-87 329.27,-86.44 327.07,-85.74 324.9,-84.96"/>
<polygon fill="midnightblue" stroke="midnightblue" points="326.22,-81.72 315.64,-81.14 323.55,-88.19 326.22,-81.72"/>
</g>
<!-- Node37&#45;&gt;Node20 -->
<g id="edge55" class="edge">
<title>Node37&#45;&gt;Node20</title>
<path fill="none" stroke="midnightblue" d="M851.42,-128.9C874.5,-116.39 908,-98.22 930.69,-85.92"/>
<polygon fill="midnightblue" stroke="midnightblue" points="932.57,-88.88 939.69,-81.03 929.23,-82.72 932.57,-88.88"/>
</g>
<!-- Node37&#45;&gt;Node25 -->
<g id="edge56" class="edge">
<title>Node37&#45;&gt;Node25</title>
<path fill="none" stroke="midnightblue" d="M868.04,-128.99C874.52,-126.93 881.14,-124.88 887.43,-123 935.34,-108.67 990.74,-93.59 1027.93,-83.68"/>
<polygon fill="midnightblue" stroke="midnightblue" points="1029.14,-86.97 1037.91,-81.02 1027.35,-80.21 1029.14,-86.97"/>
</g>
<!-- Node37&#45;&gt;Node30 -->
<g id="edge57" class="edge">
<title>Node37&#45;&gt;Node30</title>
<path fill="none" stroke="midnightblue" d="M788.03,-128.9C758.48,-117.76 717.05,-102.14 685.28,-90.16"/>
<polygon fill="midnightblue" stroke="midnightblue" points="686.35,-86.83 675.75,-86.57 683.88,-93.38 686.35,-86.83"/>
</g>
<!-- Node38 -->
<g id="node38" class="node">
<title>Node38</title>
<g id="a_node38"><a xlink:title=" ">
<polygon fill="white" stroke="#bfbfbf" points="706.43,-62 706.43,-81 746.43,-81 746.43,-62 706.43,-62"/>
<text text-anchor="middle" x="726.43" y="-69" font-family="Helvetica" font-size="10.00">limits</text>
</a>
</g>
</g>
<!-- Node37&#45;&gt;Node38 -->
<g id="edge54" class="edge">
<title>Node37&#45;&gt;Node38</title>
<path fill="none" stroke="midnightblue" d="M805.39,-128.73C788.36,-116.6 764.01,-99.26 746.86,-87.05"/>
<polygon fill="midnightblue" stroke="midnightblue" points="748.81,-84.14 738.63,-81.19 744.75,-89.84 748.81,-84.14"/>
</g>
<!-- Node39&#45;&gt;Node13 -->
<g id="edge62" class="edge">
<title>Node39&#45;&gt;Node13</title>
<path fill="none" stroke="midnightblue" d="M929.23,-128.9C905.97,-116.39 872.22,-98.22 849.35,-85.92"/>
<polygon fill="midnightblue" stroke="midnightblue" points="850.75,-82.69 840.28,-81.03 847.43,-88.85 850.75,-82.69"/>
</g>
<!-- Node39&#45;&gt;Node16 -->
<g id="edge65" class="edge">
<title>Node39&#45;&gt;Node16</title>
<path fill="none" stroke="midnightblue" d="M911.94,-128.97C903.54,-126.67 894.77,-124.54 886.43,-123 696.09,-87.88 643.56,-117.47 452.43,-87 446.15,-86 439.56,-84.7 433.13,-83.29"/>
<polygon fill="midnightblue" stroke="midnightblue" points="433.75,-79.84 423.22,-81.01 432.18,-86.67 433.75,-79.84"/>
</g>
<!-- Node39&#45;&gt;Node19 -->
<g id="edge59" class="edge">
<title>Node39&#45;&gt;Node19</title>
<path fill="none" stroke="midnightblue" d="M910.77,-128.97C864.06,-114.08 797.01,-92.03 793.43,-87 785.43,-75.78 784.32,-66.34 793.43,-56 814.94,-31.58 1039.61,-16.93 1119.46,-12.47"/>
<polygon fill="midnightblue" stroke="midnightblue" points="1119.94,-15.94 1129.73,-11.9 1119.55,-8.95 1119.94,-15.94"/>
</g>
<!-- Node39&#45;&gt;Node20 -->
<g id="edge60" class="edge">
<title>Node39&#45;&gt;Node20</title>
<path fill="none" stroke="midnightblue" d="M955.43,-128.73C955.43,-118 955.43,-103.19 955.43,-91.46"/>
<polygon fill="midnightblue" stroke="midnightblue" points="958.93,-91.39 955.43,-81.39 951.93,-91.39 958.93,-91.39"/>
</g>
<!-- Node39&#45;&gt;Node22 -->
<g id="edge61" class="edge">
<title>Node39&#45;&gt;Node22</title>
<path fill="none" stroke="midnightblue" d="M941.67,-128.73C930.46,-117.12 914.64,-100.72 902.98,-88.62"/>
<polygon fill="midnightblue" stroke="midnightblue" points="905.47,-86.16 896,-81.39 900.43,-91.02 905.47,-86.16"/>
</g>
<!-- Node39&#45;&gt;Node23 -->
<g id="edge63" class="edge">
<title>Node39&#45;&gt;Node23</title>
<path fill="none" stroke="midnightblue" d="M1015.02,-131.3C1030.73,-128.4 1047.69,-125.42 1063.43,-123 1192.66,-103.09 1226.32,-107.75 1355.43,-87 1362.88,-85.8 1370.73,-84.4 1378.41,-82.94"/>
<polygon fill="midnightblue" stroke="midnightblue" points="1379.21,-86.35 1388.36,-81.01 1377.88,-79.48 1379.21,-86.35"/>
</g>
<!-- Node39&#45;&gt;Node25 -->
<g id="edge64" class="edge">
<title>Node39&#45;&gt;Node25</title>
<path fill="none" stroke="midnightblue" d="M978.42,-128.9C998.57,-116.55 1027.68,-98.71 1047.73,-86.41"/>
<polygon fill="midnightblue" stroke="midnightblue" points="1049.81,-89.24 1056.51,-81.03 1046.15,-83.28 1049.81,-89.24"/>
</g>
<!-- Node40&#45;&gt;Node9 -->
<g id="edge68" class="edge">
<title>Node40&#45;&gt;Node9</title>
<path fill="none" stroke="midnightblue" d="M385.82,-128.9C415.22,-116.11 458.19,-97.41 486.47,-85.1"/>
<polygon fill="midnightblue" stroke="midnightblue" points="488.04,-88.23 495.82,-81.03 485.25,-81.81 488.04,-88.23"/>
</g>
<!-- Node40&#45;&gt;Node16 -->
<g id="edge67" class="edge">
<title>Node40&#45;&gt;Node16</title>
<path fill="none" stroke="midnightblue" d="M361.12,-128.73C367.08,-117.67 375.38,-102.27 381.79,-90.38"/>
<polygon fill="midnightblue" stroke="midnightblue" points="384.97,-91.86 386.63,-81.39 378.81,-88.54 384.97,-91.86"/>
</g>
</g>
</svg>
