<?xml version="1.0" encoding="UTF-8" standalone="no"?>
<!DOCTYPE svg PUBLIC "-//W3C//DTD SVG 1.1//EN"
 "http://www.w3.org/Graphics/SVG/1.1/DTD/svg11.dtd">
<!-- Generated by graphviz version 2.44.0 (0)
 -->
<!-- Title: /home/ec2&#45;user/workspace/vsomeip/implementation/service_discovery/src/eventgroupentry_impl.cpp Pages: 1 -->
<svg width="2163pt" height="452pt"
 viewBox="0.00 0.00 2162.53 452.00" xmlns="http://www.w3.org/2000/svg" xmlns:xlink="http://www.w3.org/1999/xlink">
<g id="graph0" class="graph" transform="scale(1 1) rotate(0) translate(4 448)">
<title>/home/ec2&#45;user/workspace/vsomeip/implementation/service_discovery/src/eventgroupentry_impl.cpp</title>
<polygon fill="white" stroke="transparent" points="-4,4 -4,-448 2158.53,-448 2158.53,4 -4,4"/>
<!-- Node1 -->
<g id="node1" class="node">
<title>Node1</title>
<g id="a_node1"><a xlink:title=" ">
<polygon fill="#bfbfbf" stroke="black" points="1235,-391.5 1235,-443.5 1423,-443.5 1423,-391.5 1235,-391.5"/>
<text text-anchor="start" x="1243" y="-431.5" font-family="Helvetica" font-size="10.00">/home/ec2&#45;user/workspace</text>
<text text-anchor="start" x="1243" y="-420.5" font-family="Helvetica" font-size="10.00">/vsomeip/implementation</text>
<text text-anchor="start" x="1243" y="-409.5" font-family="Helvetica" font-size="10.00">/service_discovery/src/eventgroupentry</text>
<text text-anchor="middle" x="1329" y="-398.5" font-family="Helvetica" font-size="10.00">_impl.cpp</text>
</a>
</g>
</g>
<!-- Node2 -->
<g id="node2" class="node">
<title>Node2</title>
<g id="a_node2"><a xlink:href="logger_8hpp.html" target="_top" xlink:title=" ">
<polygon fill="white" stroke="black" points="195,-196 195,-215 331,-215 331,-196 195,-196"/>
<text text-anchor="middle" x="263" y="-203" font-family="Helvetica" font-size="10.00">vsomeip/internal/logger.hpp</text>
</a>
</g>
</g>
<!-- Node1&#45;&gt;Node2 -->
<g id="edge1" class="edge">
<title>Node1&#45;&gt;Node2</title>
<path fill="none" stroke="midnightblue" d="M1234.84,-414.64C1050.69,-410.15 649.38,-395.86 518,-355 421.38,-324.95 322.06,-252.88 281.72,-221.51"/>
<polygon fill="midnightblue" stroke="midnightblue" points="283.84,-218.72 273.82,-215.29 279.52,-224.23 283.84,-218.72"/>
</g>
<!-- Node10 -->
<g id="node10" class="node">
<title>Node10</title>
<g id="a_node10"><a xlink:href="implementation_2service__discovery_2include_2constants_8hpp.html" target="_top" xlink:title=" ">
<polygon fill="white" stroke="black" points="1216.5,-129 1216.5,-148 1337.5,-148 1337.5,-129 1216.5,-129"/>
<text text-anchor="middle" x="1277" y="-136" font-family="Helvetica" font-size="10.00">../include/constants.hpp</text>
</a>
</g>
</g>
<!-- Node1&#45;&gt;Node10 -->
<g id="edge9" class="edge">
<title>Node1&#45;&gt;Node10</title>
<path fill="none" stroke="midnightblue" d="M1314.2,-391.27C1308.52,-380.45 1302.55,-367.45 1299,-355 1278.91,-284.53 1276.65,-196.5 1276.73,-158.45"/>
<polygon fill="midnightblue" stroke="midnightblue" points="1280.23,-158.36 1276.81,-148.33 1273.23,-158.3 1280.23,-158.36"/>
</g>
<!-- Node13 -->
<g id="node13" class="node">
<title>Node13</title>
<g id="a_node13"><a xlink:href="eventgroupentry__impl_8hpp.html" target="_top" xlink:title=" ">
<polygon fill="white" stroke="black" points="1308.5,-324.5 1308.5,-354.5 1437.5,-354.5 1437.5,-324.5 1308.5,-324.5"/>
<text text-anchor="start" x="1316.5" y="-342.5" font-family="Helvetica" font-size="10.00">../include/eventgroupentry</text>
<text text-anchor="middle" x="1373" y="-331.5" font-family="Helvetica" font-size="10.00">_impl.hpp</text>
</a>
</g>
</g>
<!-- Node1&#45;&gt;Node13 -->
<g id="edge12" class="edge">
<title>Node1&#45;&gt;Node13</title>
<path fill="none" stroke="midnightblue" d="M1343.65,-391.19C1348.79,-382.31 1354.54,-372.39 1359.57,-363.69"/>
<polygon fill="midnightblue" stroke="midnightblue" points="1362.71,-365.25 1364.69,-354.85 1356.66,-361.75 1362.71,-365.25"/>
</g>
<!-- Node30 -->
<g id="node30" class="node">
<title>Node30</title>
<g id="a_node30"><a xlink:href="message_2include_2deserializer_8hpp.html" target="_top" xlink:title=" ">
<polygon fill="white" stroke="black" points="560,-123.5 560,-153.5 668,-153.5 668,-123.5 560,-123.5"/>
<text text-anchor="start" x="568" y="-141.5" font-family="Helvetica" font-size="10.00">../../message/include</text>
<text text-anchor="middle" x="614" y="-130.5" font-family="Helvetica" font-size="10.00">/deserializer.hpp</text>
</a>
</g>
</g>
<!-- Node1&#45;&gt;Node30 -->
<g id="edge47" class="edge">
<title>Node1&#45;&gt;Node30</title>
<path fill="none" stroke="midnightblue" d="M1234.87,-398.56C1109.83,-372.13 884.67,-315.39 712,-221 682.44,-204.84 653.38,-179.07 634.68,-160.85"/>
<polygon fill="midnightblue" stroke="midnightblue" points="636.89,-158.11 627.32,-153.54 631.95,-163.07 636.89,-158.11"/>
</g>
<!-- Node31 -->
<g id="node31" class="node">
<title>Node31</title>
<g id="a_node31"><a xlink:href="serializer_8hpp.html" target="_top" xlink:title=" ">
<polygon fill="white" stroke="black" points="434,-123.5 434,-153.5 542,-153.5 542,-123.5 434,-123.5"/>
<text text-anchor="start" x="442" y="-141.5" font-family="Helvetica" font-size="10.00">../../message/include</text>
<text text-anchor="middle" x="488" y="-130.5" font-family="Helvetica" font-size="10.00">/serializer.hpp</text>
</a>
</g>
</g>
<!-- Node1&#45;&gt;Node31 -->
<g id="edge51" class="edge">
<title>Node1&#45;&gt;Node31</title>
<path fill="none" stroke="midnightblue" d="M1234.65,-406.94C1157.84,-397.76 1047.11,-381.34 953,-355 876.38,-333.56 859.57,-320.61 787,-288 690.3,-244.55 579.13,-187.38 523.55,-158.27"/>
<polygon fill="midnightblue" stroke="midnightblue" points="524.95,-155.06 514.47,-153.51 521.7,-161.26 524.95,-155.06"/>
</g>
<!-- Node32 -->
<g id="node32" class="node">
<title>Node32</title>
<g id="a_node32"><a xlink:href="ipv4__option__impl_8hpp.html" target="_top" xlink:title=" ">
<polygon fill="white" stroke="black" points="1496.5,-257.5 1496.5,-287.5 1605.5,-287.5 1605.5,-257.5 1496.5,-257.5"/>
<text text-anchor="start" x="1504.5" y="-275.5" font-family="Helvetica" font-size="10.00">../include/ipv4_option</text>
<text text-anchor="middle" x="1551" y="-264.5" font-family="Helvetica" font-size="10.00">_impl.hpp</text>
</a>
</g>
</g>
<!-- Node1&#45;&gt;Node32 -->
<g id="edge55" class="edge">
<title>Node1&#45;&gt;Node32</title>
<path fill="none" stroke="midnightblue" d="M1382.16,-391.42C1402.87,-380.97 1426.52,-368.2 1447,-355 1475.81,-336.43 1506.42,-311.77 1526.91,-294.46"/>
<polygon fill="midnightblue" stroke="midnightblue" points="1529.43,-296.91 1534.77,-287.76 1524.89,-291.58 1529.43,-296.91"/>
</g>
<!-- Node35 -->
<g id="node35" class="node">
<title>Node35</title>
<g id="a_node35"><a xlink:href="ipv6__option__impl_8hpp.html" target="_top" xlink:title=" ">
<polygon fill="white" stroke="black" points="1632.5,-257.5 1632.5,-287.5 1741.5,-287.5 1741.5,-257.5 1632.5,-257.5"/>
<text text-anchor="start" x="1640.5" y="-275.5" font-family="Helvetica" font-size="10.00">../include/ipv6_option</text>
<text text-anchor="middle" x="1687" y="-264.5" font-family="Helvetica" font-size="10.00">_impl.hpp</text>
</a>
</g>
</g>
<!-- Node1&#45;&gt;Node35 -->
<g id="edge65" class="edge">
<title>Node1&#45;&gt;Node35</title>
<path fill="none" stroke="midnightblue" d="M1391.77,-391.43C1463.49,-362.78 1579.06,-316.61 1642.23,-291.38"/>
<polygon fill="midnightblue" stroke="midnightblue" points="1643.55,-294.63 1651.53,-287.67 1640.95,-288.13 1643.55,-294.63"/>
</g>
<!-- Node36 -->
<g id="node36" class="node">
<title>Node36</title>
<g id="a_node36"><a xlink:href="selective__option__impl_8hpp.html" target="_top" xlink:title=" ">
<polygon fill="white" stroke="black" points="1950,-190.5 1950,-220.5 2048,-220.5 2048,-190.5 1950,-190.5"/>
<text text-anchor="start" x="1958" y="-208.5" font-family="Helvetica" font-size="10.00">../include/selective</text>
<text text-anchor="middle" x="1999" y="-197.5" font-family="Helvetica" font-size="10.00">_option_impl.hpp</text>
</a>
</g>
</g>
<!-- Node1&#45;&gt;Node36 -->
<g id="edge69" class="edge">
<title>Node1&#45;&gt;Node36</title>
<path fill="none" stroke="midnightblue" d="M1423.42,-393.37C1517.61,-369.59 1666.02,-330.16 1792,-288 1850.11,-268.56 1915.69,-241.91 1957.17,-224.46"/>
<polygon fill="midnightblue" stroke="midnightblue" points="1958.56,-227.67 1966.41,-220.56 1955.83,-221.22 1958.56,-227.67"/>
</g>
<!-- Node3 -->
<g id="node3" class="node">
<title>Node3</title>
<g id="a_node3"><a xlink:title=" ">
<polygon fill="white" stroke="#bfbfbf" points="0,-129 0,-148 46,-148 46,-129 0,-129"/>
<text text-anchor="middle" x="23" y="-136" font-family="Helvetica" font-size="10.00">chrono</text>
</a>
</g>
</g>
<!-- Node2&#45;&gt;Node3 -->
<g id="edge2" class="edge">
<title>Node2&#45;&gt;Node3</title>
<path fill="none" stroke="midnightblue" d="M217.26,-195.97C174.64,-187.41 109.63,-172.82 55,-154 53.33,-153.43 51.64,-152.8 49.94,-152.13"/>
<polygon fill="midnightblue" stroke="midnightblue" points="50.94,-148.76 40.37,-148.08 48.21,-155.2 50.94,-148.76"/>
</g>
<!-- Node4 -->
<g id="node4" class="node">
<title>Node4</title>
<g id="a_node4"><a xlink:title=" ">
<polygon fill="white" stroke="#bfbfbf" points="1306,-0.5 1306,-19.5 1352,-19.5 1352,-0.5 1306,-0.5"/>
<text text-anchor="middle" x="1329" y="-7.5" font-family="Helvetica" font-size="10.00">cstdint</text>
</a>
</g>
</g>
<!-- Node2&#45;&gt;Node4 -->
<g id="edge3" class="edge">
<title>Node2&#45;&gt;Node4</title>
<path fill="none" stroke="midnightblue" d="M266.73,-195.67C278.98,-168.05 320.97,-83.54 387,-56 472.21,-20.46 1138.61,-12.61 1295.84,-11.25"/>
<polygon fill="midnightblue" stroke="midnightblue" points="1295.89,-14.75 1305.86,-11.17 1295.83,-7.75 1295.89,-14.75"/>
</g>
<!-- Node5 -->
<g id="node5" class="node">
<title>Node5</title>
<g id="a_node5"><a xlink:title=" ">
<polygon fill="white" stroke="#bfbfbf" points="1154,-129 1154,-148 1198,-148 1198,-129 1154,-129"/>
<text text-anchor="middle" x="1176" y="-136" font-family="Helvetica" font-size="10.00">mutex</text>
</a>
</g>
</g>
<!-- Node2&#45;&gt;Node5 -->
<g id="edge4" class="edge">
<title>Node2&#45;&gt;Node5</title>
<path fill="none" stroke="midnightblue" d="M331.24,-202.03C524.39,-194.84 1065.99,-173.2 1144,-154 1146.21,-153.46 1148.46,-152.76 1150.69,-151.97"/>
<polygon fill="midnightblue" stroke="midnightblue" points="1152.23,-155.12 1160.14,-148.08 1149.56,-148.65 1152.23,-155.12"/>
</g>
<!-- Node6 -->
<g id="node6" class="node">
<title>Node6</title>
<g id="a_node6"><a xlink:title=" ">
<polygon fill="white" stroke="#bfbfbf" points="64,-129 64,-148 116,-148 116,-129 64,-129"/>
<text text-anchor="middle" x="90" y="-136" font-family="Helvetica" font-size="10.00">ostream</text>
</a>
</g>
</g>
<!-- Node2&#45;&gt;Node6 -->
<g id="edge5" class="edge">
<title>Node2&#45;&gt;Node6</title>
<path fill="none" stroke="midnightblue" d="M238.45,-195.87C210.77,-186.05 164.46,-169.38 125,-154 123.36,-153.36 121.67,-152.69 119.98,-152.02"/>
<polygon fill="midnightblue" stroke="midnightblue" points="120.88,-148.6 110.3,-148.08 118.24,-155.09 120.88,-148.6"/>
</g>
<!-- Node7 -->
<g id="node7" class="node">
<title>Node7</title>
<g id="a_node7"><a xlink:title=" ">
<polygon fill="white" stroke="#bfbfbf" points="134,-129 134,-148 186,-148 186,-129 134,-129"/>
<text text-anchor="middle" x="160" y="-136" font-family="Helvetica" font-size="10.00">sstream</text>
</a>
</g>
</g>
<!-- Node2&#45;&gt;Node7 -->
<g id="edge6" class="edge">
<title>Node2&#45;&gt;Node7</title>
<path fill="none" stroke="midnightblue" d="M249.11,-195.73C231.97,-184.92 202.6,-166.38 182.29,-153.57"/>
<polygon fill="midnightblue" stroke="midnightblue" points="184,-150.5 173.67,-148.13 180.26,-156.42 184,-150.5"/>
</g>
<!-- Node8 -->
<g id="node8" class="node">
<title>Node8</title>
<g id="a_node8"><a xlink:title=" ">
<polygon fill="white" stroke="#bfbfbf" points="204,-129 204,-148 264,-148 264,-129 204,-129"/>
<text text-anchor="middle" x="234" y="-136" font-family="Helvetica" font-size="10.00">streambuf</text>
</a>
</g>
</g>
<!-- Node2&#45;&gt;Node8 -->
<g id="edge7" class="edge">
<title>Node2&#45;&gt;Node8</title>
<path fill="none" stroke="midnightblue" d="M259.09,-195.73C254.74,-185.99 247.6,-169.98 242.04,-157.53"/>
<polygon fill="midnightblue" stroke="midnightblue" points="245.12,-155.83 237.85,-148.13 238.73,-158.69 245.12,-155.83"/>
</g>
<!-- Node9 -->
<g id="node9" class="node">
<title>Node9</title>
<g id="a_node9"><a xlink:title=" ">
<polygon fill="white" stroke="#bfbfbf" points="396,-62 396,-81 498,-81 498,-62 396,-62"/>
<text text-anchor="middle" x="447" y="-69" font-family="Helvetica" font-size="10.00">vsomeip/export.hpp</text>
</a>
</g>
</g>
<!-- Node2&#45;&gt;Node9 -->
<g id="edge8" class="edge">
<title>Node2&#45;&gt;Node9</title>
<path fill="none" stroke="midnightblue" d="M271.22,-195.92C286.53,-180.22 320.89,-146.34 354,-123 374.68,-108.42 400.03,-94.91 419.04,-85.54"/>
<polygon fill="midnightblue" stroke="midnightblue" points="420.6,-88.67 428.07,-81.16 417.55,-82.37 420.6,-88.67"/>
</g>
<!-- Node11 -->
<g id="node11" class="node">
<title>Node11</title>
<g id="a_node11"><a xlink:title=" ">
<polygon fill="white" stroke="#bfbfbf" points="1052,-56.5 1052,-86.5 1162,-86.5 1162,-56.5 1052,-56.5"/>
<text text-anchor="start" x="1060" y="-74.5" font-family="Helvetica" font-size="10.00">vsomeip/enumeration</text>
<text text-anchor="middle" x="1107" y="-63.5" font-family="Helvetica" font-size="10.00">_types.hpp</text>
</a>
</g>
</g>
<!-- Node10&#45;&gt;Node11 -->
<g id="edge10" class="edge">
<title>Node10&#45;&gt;Node11</title>
<path fill="none" stroke="midnightblue" d="M1254.43,-128.87C1228.7,-119.03 1185.96,-102.69 1153.1,-90.13"/>
<polygon fill="midnightblue" stroke="midnightblue" points="1154.28,-86.83 1143.69,-86.53 1151.78,-93.37 1154.28,-86.83"/>
</g>
<!-- Node12 -->
<g id="node12" class="node">
<title>Node12</title>
<g id="a_node12"><a xlink:title=" ">
<polygon fill="white" stroke="#bfbfbf" points="1406,-62 1406,-81 1546,-81 1546,-62 1406,-62"/>
<text text-anchor="middle" x="1476" y="-69" font-family="Helvetica" font-size="10.00">vsomeip/primitive_types.hpp</text>
</a>
</g>
</g>
<!-- Node10&#45;&gt;Node12 -->
<g id="edge11" class="edge">
<title>Node10&#45;&gt;Node12</title>
<path fill="none" stroke="midnightblue" d="M1303.43,-128.87C1338.54,-117.4 1400.7,-97.09 1440.06,-84.24"/>
<polygon fill="midnightblue" stroke="midnightblue" points="1441.36,-87.5 1449.78,-81.06 1439.19,-80.84 1441.36,-87.5"/>
</g>
<!-- Node14 -->
<g id="node14" class="node">
<title>Node14</title>
<g id="a_node14"><a xlink:href="entry__impl_8hpp.html" target="_top" xlink:title=" ">
<polygon fill="white" stroke="black" points="1886.5,-129 1886.5,-148 1967.5,-148 1967.5,-129 1886.5,-129"/>
<text text-anchor="middle" x="1927" y="-136" font-family="Helvetica" font-size="10.00">entry_impl.hpp</text>
</a>
</g>
</g>
<!-- Node13&#45;&gt;Node14 -->
<g id="edge13" class="edge">
<title>Node13&#45;&gt;Node14</title>
<path fill="none" stroke="midnightblue" d="M1437.8,-333.79C1530.44,-326.39 1695.65,-310.52 1751,-288 1822.76,-258.81 1886.73,-188.72 1913.58,-156.38"/>
<polygon fill="midnightblue" stroke="midnightblue" points="1916.54,-158.28 1920.15,-148.32 1911.12,-153.86 1916.54,-158.28"/>
</g>
<!-- Node20 -->
<g id="node20" class="node">
<title>Node20</title>
<g id="a_node20"><a xlink:href="endpoint__definition_8hpp.html" target="_top" xlink:title=" ">
<polygon fill="white" stroke="black" points="1319.5,-190.5 1319.5,-220.5 1438.5,-220.5 1438.5,-190.5 1319.5,-190.5"/>
<text text-anchor="start" x="1327.5" y="-208.5" font-family="Helvetica" font-size="10.00">../../endpoints/include</text>
<text text-anchor="middle" x="1379" y="-197.5" font-family="Helvetica" font-size="10.00">/endpoint_definition.hpp</text>
</a>
</g>
</g>
<!-- Node13&#45;&gt;Node20 -->
<g id="edge21" class="edge">
<title>Node13&#45;&gt;Node20</title>
<path fill="none" stroke="midnightblue" d="M1373.64,-324.37C1374.66,-302.04 1376.64,-258.31 1377.89,-230.85"/>
<polygon fill="midnightblue" stroke="midnightblue" points="1381.4,-230.67 1378.36,-220.52 1374.41,-230.36 1381.4,-230.67"/>
</g>
<!-- Node24 -->
<g id="node24" class="node">
<title>Node24</title>
<g id="a_node24"><a xlink:href="service__discovery_2include_2message__impl_8hpp.html" target="_top" xlink:title=" ">
<polygon fill="white" stroke="black" points="1127,-263 1127,-282 1225,-282 1225,-263 1127,-263"/>
<text text-anchor="middle" x="1176" y="-270" font-family="Helvetica" font-size="10.00">message_impl.hpp</text>
</a>
</g>
</g>
<!-- Node13&#45;&gt;Node24 -->
<g id="edge29" class="edge">
<title>Node13&#45;&gt;Node24</title>
<path fill="none" stroke="midnightblue" d="M1330.25,-324.4C1294.77,-312.69 1244.89,-296.23 1211.56,-285.23"/>
<polygon fill="midnightblue" stroke="midnightblue" points="1212.38,-281.82 1201.78,-282.01 1210.18,-288.46 1212.38,-281.82"/>
</g>
<!-- Node14&#45;&gt;Node12 -->
<g id="edge16" class="edge">
<title>Node14&#45;&gt;Node12</title>
<path fill="none" stroke="midnightblue" d="M1886.18,-131.62C1808.88,-120.48 1640.35,-96.19 1545.13,-82.46"/>
<polygon fill="midnightblue" stroke="midnightblue" points="1545.41,-78.97 1535.02,-81.01 1544.41,-85.9 1545.41,-78.97"/>
</g>
<!-- Node15 -->
<g id="node15" class="node">
<title>Node15</title>
<g id="a_node15"><a xlink:title=" ">
<polygon fill="white" stroke="#bfbfbf" points="1793.5,-62 1793.5,-81 1846.5,-81 1846.5,-62 1793.5,-62"/>
<text text-anchor="middle" x="1820" y="-69" font-family="Helvetica" font-size="10.00">memory</text>
</a>
</g>
</g>
<!-- Node14&#45;&gt;Node15 -->
<g id="edge14" class="edge">
<title>Node14&#45;&gt;Node15</title>
<path fill="none" stroke="midnightblue" d="M1912.57,-128.73C1894.68,-117.87 1863.98,-99.22 1842.87,-86.39"/>
<polygon fill="midnightblue" stroke="midnightblue" points="1844.57,-83.33 1834.2,-81.13 1840.93,-89.31 1844.57,-83.33"/>
</g>
<!-- Node16 -->
<g id="node16" class="node">
<title>Node16</title>
<g id="a_node16"><a xlink:title=" ">
<polygon fill="white" stroke="#bfbfbf" points="627.5,-62 627.5,-81 670.5,-81 670.5,-62 627.5,-62"/>
<text text-anchor="middle" x="649" y="-69" font-family="Helvetica" font-size="10.00">vector</text>
</a>
</g>
</g>
<!-- Node14&#45;&gt;Node16 -->
<g id="edge15" class="edge">
<title>Node14&#45;&gt;Node16</title>
<path fill="none" stroke="midnightblue" d="M1886.24,-134.89C1838.5,-131.87 1757.02,-126.82 1687,-123 1290.07,-101.35 807.5,-79.56 680.72,-73.91"/>
<polygon fill="midnightblue" stroke="midnightblue" points="680.7,-70.4 670.56,-73.45 680.39,-77.4 680.7,-70.4"/>
</g>
<!-- Node17 -->
<g id="node17" class="node">
<title>Node17</title>
<g id="a_node17"><a xlink:title=" ">
<polygon fill="white" stroke="#bfbfbf" points="1614,-62 1614,-81 1772,-81 1772,-62 1614,-62"/>
<text text-anchor="middle" x="1693" y="-69" font-family="Helvetica" font-size="10.00">vsomeip/internal/serializable.hpp</text>
</a>
</g>
</g>
<!-- Node14&#45;&gt;Node17 -->
<g id="edge17" class="edge">
<title>Node14&#45;&gt;Node17</title>
<path fill="none" stroke="midnightblue" d="M1895.93,-128.87C1854.11,-117.25 1779.67,-96.58 1733.51,-83.75"/>
<polygon fill="midnightblue" stroke="midnightblue" points="1734.4,-80.37 1723.83,-81.06 1732.53,-87.11 1734.4,-80.37"/>
</g>
<!-- Node18 -->
<g id="node18" class="node">
<title>Node18</title>
<g id="a_node18"><a xlink:href="implementation_2service__discovery_2include_2enumeration__types_8hpp.html" target="_top" xlink:title=" ">
<polygon fill="white" stroke="black" points="1865,-62 1865,-81 1983,-81 1983,-62 1865,-62"/>
<text text-anchor="middle" x="1924" y="-69" font-family="Helvetica" font-size="10.00">enumeration_types.hpp</text>
</a>
</g>
</g>
<!-- Node14&#45;&gt;Node18 -->
<g id="edge18" class="edge">
<title>Node14&#45;&gt;Node18</title>
<path fill="none" stroke="midnightblue" d="M1926.6,-128.73C1926.15,-119.18 1925.44,-103.62 1924.87,-91.28"/>
<polygon fill="midnightblue" stroke="midnightblue" points="1928.36,-90.96 1924.4,-81.13 1921.36,-91.28 1928.36,-90.96"/>
</g>
<!-- Node19 -->
<g id="node19" class="node">
<title>Node19</title>
<g id="a_node19"><a xlink:href="message__element__impl_8hpp.html" target="_top" xlink:title=" ">
<polygon fill="white" stroke="black" points="2001,-62 2001,-81 2139,-81 2139,-62 2001,-62"/>
<text text-anchor="middle" x="2070" y="-69" font-family="Helvetica" font-size="10.00">message_element_impl.hpp</text>
</a>
</g>
</g>
<!-- Node14&#45;&gt;Node19 -->
<g id="edge20" class="edge">
<title>Node14&#45;&gt;Node19</title>
<path fill="none" stroke="midnightblue" d="M1945.99,-128.87C1970.46,-117.75 2013.2,-98.32 2041.56,-85.43"/>
<polygon fill="midnightblue" stroke="midnightblue" points="2043.28,-88.49 2050.93,-81.17 2040.38,-82.12 2043.28,-88.49"/>
</g>
<!-- Node18&#45;&gt;Node4 -->
<g id="edge19" class="edge">
<title>Node18&#45;&gt;Node4</title>
<path fill="none" stroke="midnightblue" d="M1888.16,-61.98C1877.83,-59.76 1866.51,-57.56 1856,-56 1670.66,-28.44 1445.95,-16.22 1362.4,-12.4"/>
<polygon fill="midnightblue" stroke="midnightblue" points="1362.38,-8.9 1352.24,-11.95 1362.07,-15.89 1362.38,-8.9"/>
</g>
<!-- Node20&#45;&gt;Node5 -->
<g id="edge25" class="edge">
<title>Node20&#45;&gt;Node5</title>
<path fill="none" stroke="midnightblue" d="M1323.3,-190.45C1289.28,-181.31 1245.13,-168.42 1207,-154 1205.58,-153.46 1204.13,-152.89 1202.67,-152.28"/>
<polygon fill="midnightblue" stroke="midnightblue" points="1203.74,-148.93 1193.18,-148.1 1200.92,-155.34 1203.74,-148.93"/>
</g>
<!-- Node20&#45;&gt;Node9 -->
<g id="edge28" class="edge">
<title>Node20&#45;&gt;Node9</title>
<path fill="none" stroke="midnightblue" d="M1319.14,-201.88C1111.26,-192.7 432.73,-162.15 425,-154 408.43,-136.53 422.18,-107.93 434.16,-89.67"/>
<polygon fill="midnightblue" stroke="midnightblue" points="437.08,-91.61 439.93,-81.41 431.34,-87.6 437.08,-91.61"/>
</g>
<!-- Node20&#45;&gt;Node12 -->
<g id="edge27" class="edge">
<title>Node20&#45;&gt;Node12</title>
<path fill="none" stroke="midnightblue" d="M1389.38,-190.37C1407.39,-165.86 1444.35,-115.56 1463.65,-89.3"/>
<polygon fill="midnightblue" stroke="midnightblue" points="1466.58,-91.23 1469.68,-81.1 1460.94,-87.08 1466.58,-91.23"/>
</g>
<!-- Node20&#45;&gt;Node15 -->
<g id="edge23" class="edge">
<title>Node20&#45;&gt;Node15</title>
<path fill="none" stroke="midnightblue" d="M1438.64,-201.54C1501.99,-196.85 1604.22,-184.79 1687,-154 1731.08,-137.6 1776.56,-105.94 1801.26,-87.28"/>
<polygon fill="midnightblue" stroke="midnightblue" points="1803.58,-89.91 1809.37,-81.04 1799.31,-84.36 1803.58,-89.91"/>
</g>
<!-- Node21 -->
<g id="node21" class="node">
<title>Node21</title>
<g id="a_node21"><a xlink:title=" ">
<polygon fill="white" stroke="#bfbfbf" points="1458.5,-129 1458.5,-148 1493.5,-148 1493.5,-129 1458.5,-129"/>
<text text-anchor="middle" x="1476" y="-136" font-family="Helvetica" font-size="10.00">map</text>
</a>
</g>
</g>
<!-- Node20&#45;&gt;Node21 -->
<g id="edge22" class="edge">
<title>Node20&#45;&gt;Node21</title>
<path fill="none" stroke="midnightblue" d="M1400.05,-190.4C1416.31,-179.5 1438.72,-164.48 1454.98,-153.58"/>
<polygon fill="midnightblue" stroke="midnightblue" points="1456.95,-156.48 1463.3,-148.01 1453.05,-150.67 1456.95,-156.48"/>
</g>
<!-- Node22 -->
<g id="node22" class="node">
<title>Node22</title>
<g id="a_node22"><a xlink:title=" ">
<polygon fill="white" stroke="#bfbfbf" points="1356,-129 1356,-148 1402,-148 1402,-129 1356,-129"/>
<text text-anchor="middle" x="1379" y="-136" font-family="Helvetica" font-size="10.00">atomic</text>
</a>
</g>
</g>
<!-- Node20&#45;&gt;Node22 -->
<g id="edge24" class="edge">
<title>Node20&#45;&gt;Node22</title>
<path fill="none" stroke="midnightblue" d="M1379,-190.4C1379,-181.06 1379,-168.71 1379,-158.52"/>
<polygon fill="midnightblue" stroke="midnightblue" points="1382.5,-158.19 1379,-148.19 1375.5,-158.19 1382.5,-158.19"/>
</g>
<!-- Node23 -->
<g id="node23" class="node">
<title>Node23</title>
<g id="a_node23"><a xlink:title=" ">
<polygon fill="white" stroke="#bfbfbf" points="1550,-129 1550,-148 1678,-148 1678,-129 1550,-129"/>
<text text-anchor="middle" x="1614" y="-136" font-family="Helvetica" font-size="10.00">boost/asio/ip/address.hpp</text>
</a>
</g>
</g>
<!-- Node20&#45;&gt;Node23 -->
<g id="edge26" class="edge">
<title>Node20&#45;&gt;Node23</title>
<path fill="none" stroke="midnightblue" d="M1429.7,-190.48C1472.74,-178.57 1533.68,-161.72 1573.52,-150.7"/>
<polygon fill="midnightblue" stroke="midnightblue" points="1574.46,-154.07 1583.17,-148.03 1572.59,-147.32 1574.46,-154.07"/>
</g>
<!-- Node24&#45;&gt;Node5 -->
<g id="edge32" class="edge">
<title>Node24&#45;&gt;Node5</title>
<path fill="none" stroke="midnightblue" d="M1176,-262.84C1176,-241.67 1176,-186.95 1176,-158.03"/>
<polygon fill="midnightblue" stroke="midnightblue" points="1179.5,-158.02 1176,-148.02 1172.5,-158.02 1179.5,-158.02"/>
</g>
<!-- Node24&#45;&gt;Node15 -->
<g id="edge31" class="edge">
<title>Node24&#45;&gt;Node15</title>
<path fill="none" stroke="midnightblue" d="M1225.06,-270.05C1325.7,-265.22 1560.4,-244.33 1731,-154 1762.15,-137.51 1790.79,-107.49 1806.77,-88.85"/>
<polygon fill="midnightblue" stroke="midnightblue" points="1809.46,-91.1 1813.19,-81.18 1804.09,-86.61 1809.46,-91.1"/>
</g>
<!-- Node24&#45;&gt;Node16 -->
<g id="edge33" class="edge">
<title>Node24&#45;&gt;Node16</title>
<path fill="none" stroke="midnightblue" d="M1126.65,-271.44C1024.83,-270.44 795.7,-263.39 732,-221 731.23,-220.49 680.52,-129.26 658.75,-90.07"/>
<polygon fill="midnightblue" stroke="midnightblue" points="661.8,-88.35 653.89,-81.31 655.68,-91.75 661.8,-88.35"/>
</g>
<!-- Node24&#45;&gt;Node20 -->
<g id="edge46" class="edge">
<title>Node24&#45;&gt;Node20</title>
<path fill="none" stroke="midnightblue" d="M1202.96,-262.87C1234.08,-252.9 1286.03,-236.27 1325.46,-223.64"/>
<polygon fill="midnightblue" stroke="midnightblue" points="1326.73,-226.91 1335.19,-220.53 1324.6,-220.24 1326.73,-226.91"/>
</g>
<!-- Node24&#45;&gt;Node22 -->
<g id="edge30" class="edge">
<title>Node24&#45;&gt;Node22</title>
<path fill="none" stroke="midnightblue" d="M1189.32,-262.84C1223.67,-240.5 1315.5,-180.79 1357.5,-153.48"/>
<polygon fill="midnightblue" stroke="midnightblue" points="1359.42,-156.41 1365.9,-148.02 1355.6,-150.54 1359.42,-156.41"/>
</g>
<!-- Node25 -->
<g id="node25" class="node">
<title>Node25</title>
<g id="a_node25"><a xlink:title=" ">
<polygon fill="white" stroke="#bfbfbf" points="1020.5,-129 1020.5,-148 1135.5,-148 1135.5,-129 1020.5,-129"/>
<text text-anchor="middle" x="1078" y="-136" font-family="Helvetica" font-size="10.00">vsomeip/message.hpp</text>
</a>
</g>
</g>
<!-- Node24&#45;&gt;Node25 -->
<g id="edge34" class="edge">
<title>Node24&#45;&gt;Node25</title>
<path fill="none" stroke="midnightblue" d="M1169.57,-262.84C1153.51,-241.21 1111.42,-184.51 1090.36,-156.15"/>
<polygon fill="midnightblue" stroke="midnightblue" points="1093.1,-153.96 1084.33,-148.02 1087.48,-158.14 1093.1,-153.96"/>
</g>
<!-- Node26 -->
<g id="node26" class="node">
<title>Node26</title>
<g id="a_node26"><a xlink:href="implementation_2service__discovery_2include_2primitive__types_8hpp.html" target="_top" xlink:title=" ">
<polygon fill="white" stroke="black" points="741.5,-190.5 741.5,-220.5 836.5,-220.5 836.5,-190.5 741.5,-190.5"/>
<text text-anchor="start" x="749.5" y="-208.5" font-family="Helvetica" font-size="10.00">../include/primitive</text>
<text text-anchor="middle" x="789" y="-197.5" font-family="Helvetica" font-size="10.00">_types.hpp</text>
</a>
</g>
</g>
<!-- Node24&#45;&gt;Node26 -->
<g id="edge35" class="edge">
<title>Node24&#45;&gt;Node26</title>
<path fill="none" stroke="midnightblue" d="M1126.85,-264.09C1065.14,-254.67 956.06,-237.62 863,-221 857.68,-220.05 852.16,-219.03 846.63,-217.99"/>
<polygon fill="midnightblue" stroke="midnightblue" points="847.2,-214.53 836.72,-216.1 845.89,-221.41 847.2,-214.53"/>
</g>
<!-- Node27 -->
<g id="node27" class="node">
<title>Node27</title>
<g id="a_node27"><a xlink:href="message_2include_2message__base__impl_8hpp.html" target="_top" xlink:title=" ">
<polygon fill="white" stroke="black" points="872,-190.5 872,-220.5 1000,-220.5 1000,-190.5 872,-190.5"/>
<text text-anchor="start" x="880" y="-208.5" font-family="Helvetica" font-size="10.00">../../message/include</text>
<text text-anchor="middle" x="936" y="-197.5" font-family="Helvetica" font-size="10.00">/message_base_impl.hpp</text>
</a>
</g>
</g>
<!-- Node24&#45;&gt;Node27 -->
<g id="edge37" class="edge">
<title>Node24&#45;&gt;Node27</title>
<path fill="none" stroke="midnightblue" d="M1144.13,-262.87C1106.87,-252.78 1044.35,-235.84 997.53,-223.16"/>
<polygon fill="midnightblue" stroke="midnightblue" points="998.36,-219.76 987.8,-220.53 996.53,-226.52 998.36,-219.76"/>
</g>
<!-- Node26&#45;&gt;Node4 -->
<g id="edge36" class="edge">
<title>Node26&#45;&gt;Node4</title>
<path fill="none" stroke="midnightblue" d="M774.28,-190.36C758.13,-173.11 736.54,-143.7 753,-123 821.42,-36.97 1183.76,-16.4 1295.89,-12.05"/>
<polygon fill="midnightblue" stroke="midnightblue" points="1296.08,-15.55 1305.95,-11.68 1295.83,-8.55 1296.08,-15.55"/>
</g>
<!-- Node27&#45;&gt;Node9 -->
<g id="edge39" class="edge">
<title>Node27&#45;&gt;Node9</title>
<path fill="none" stroke="midnightblue" d="M871.95,-193.65C862.92,-192.3 853.74,-191.04 845,-190 794.86,-184.02 426.26,-191.09 392,-154 372.49,-132.87 402.48,-104.26 425.27,-87.16"/>
<polygon fill="midnightblue" stroke="midnightblue" points="427.46,-89.89 433.53,-81.21 423.37,-84.21 427.46,-89.89"/>
</g>
<!-- Node27&#45;&gt;Node25 -->
<g id="edge40" class="edge">
<title>Node27&#45;&gt;Node25</title>
<path fill="none" stroke="midnightblue" d="M966.81,-190.4C991.62,-179.04 1026.18,-163.22 1050.16,-152.24"/>
<polygon fill="midnightblue" stroke="midnightblue" points="1051.78,-155.35 1059.42,-148.01 1048.87,-148.99 1051.78,-155.35"/>
</g>
<!-- Node28 -->
<g id="node28" class="node">
<title>Node28</title>
<g id="a_node28"><a xlink:title=" ">
<polygon fill="white" stroke="#bfbfbf" points="762.5,-129 762.5,-148 851.5,-148 851.5,-129 762.5,-129"/>
<text text-anchor="middle" x="807" y="-136" font-family="Helvetica" font-size="10.00">boost/thread.hpp</text>
</a>
</g>
</g>
<!-- Node27&#45;&gt;Node28 -->
<g id="edge38" class="edge">
<title>Node27&#45;&gt;Node28</title>
<path fill="none" stroke="midnightblue" d="M908.01,-190.4C885.67,-179.14 854.63,-163.5 832.87,-152.54"/>
<polygon fill="midnightblue" stroke="midnightblue" points="834.39,-149.38 823.88,-148.01 831.24,-155.63 834.39,-149.38"/>
</g>
<!-- Node29 -->
<g id="node29" class="node">
<title>Node29</title>
<g id="a_node29"><a xlink:href="message__header__impl_8hpp.html" target="_top" xlink:title=" ">
<polygon fill="white" stroke="black" points="869.5,-129 869.5,-148 1002.5,-148 1002.5,-129 869.5,-129"/>
<text text-anchor="middle" x="936" y="-136" font-family="Helvetica" font-size="10.00">message_header_impl.hpp</text>
</a>
</g>
</g>
<!-- Node27&#45;&gt;Node29 -->
<g id="edge41" class="edge">
<title>Node27&#45;&gt;Node29</title>
<path fill="none" stroke="midnightblue" d="M936,-190.4C936,-181.06 936,-168.71 936,-158.52"/>
<polygon fill="midnightblue" stroke="midnightblue" points="939.5,-158.19 936,-148.19 932.5,-158.19 939.5,-158.19"/>
</g>
<!-- Node29&#45;&gt;Node9 -->
<g id="edge42" class="edge">
<title>Node29&#45;&gt;Node9</title>
<path fill="none" stroke="midnightblue" d="M893.88,-128.94C882.88,-126.85 871.02,-124.72 860,-123 735.44,-103.52 588.75,-87.13 508.01,-78.67"/>
<polygon fill="midnightblue" stroke="midnightblue" points="508.33,-75.18 498.02,-77.63 507.6,-82.15 508.33,-75.18"/>
</g>
<!-- Node29&#45;&gt;Node11 -->
<g id="edge44" class="edge">
<title>Node29&#45;&gt;Node11</title>
<path fill="none" stroke="midnightblue" d="M958.71,-128.87C984.59,-119.03 1027.58,-102.69 1060.63,-90.13"/>
<polygon fill="midnightblue" stroke="midnightblue" points="1061.99,-93.35 1070.1,-86.53 1059.5,-86.81 1061.99,-93.35"/>
</g>
<!-- Node29&#45;&gt;Node12 -->
<g id="edge43" class="edge">
<title>Node29&#45;&gt;Node12</title>
<path fill="none" stroke="midnightblue" d="M976.77,-128.98C987.84,-126.84 999.85,-124.68 1011,-123 1145.28,-102.76 1302.55,-87.42 1395.48,-79.21"/>
<polygon fill="midnightblue" stroke="midnightblue" points="1396,-82.67 1405.65,-78.31 1395.39,-75.7 1396,-82.67"/>
</g>
<!-- Node29&#45;&gt;Node17 -->
<g id="edge45" class="edge">
<title>Node29&#45;&gt;Node17</title>
<path fill="none" stroke="midnightblue" d="M975.16,-128.97C986.66,-126.73 999.29,-124.51 1011,-123 1251.31,-91.94 1313.58,-107.66 1555,-87 1571.85,-85.56 1589.85,-83.82 1607.08,-82.05"/>
<polygon fill="midnightblue" stroke="midnightblue" points="1607.54,-85.52 1617.13,-81 1606.82,-78.55 1607.54,-85.52"/>
</g>
<!-- Node30&#45;&gt;Node9 -->
<g id="edge49" class="edge">
<title>Node30&#45;&gt;Node9</title>
<path fill="none" stroke="midnightblue" d="M577.76,-123.4C548.07,-111.84 506.49,-95.66 478.25,-84.66"/>
<polygon fill="midnightblue" stroke="midnightblue" points="479.44,-81.37 468.86,-81.01 476.91,-87.9 479.44,-81.37"/>
</g>
<!-- Node30&#45;&gt;Node12 -->
<g id="edge50" class="edge">
<title>Node30&#45;&gt;Node12</title>
<path fill="none" stroke="midnightblue" d="M668.09,-131.42C693.79,-128.65 724.96,-125.44 753,-123 986.19,-102.7 1262.26,-85.24 1395.75,-77.21"/>
<polygon fill="midnightblue" stroke="midnightblue" points="1396.12,-80.69 1405.89,-76.6 1395.7,-73.7 1396.12,-80.69"/>
</g>
<!-- Node30&#45;&gt;Node16 -->
<g id="edge48" class="edge">
<title>Node30&#45;&gt;Node16</title>
<path fill="none" stroke="midnightblue" d="M621.59,-123.4C626.84,-113.66 633.84,-100.65 639.46,-90.21"/>
<polygon fill="midnightblue" stroke="midnightblue" points="642.66,-91.66 644.32,-81.19 636.5,-88.34 642.66,-91.66"/>
</g>
<!-- Node31&#45;&gt;Node9 -->
<g id="edge53" class="edge">
<title>Node31&#45;&gt;Node9</title>
<path fill="none" stroke="midnightblue" d="M479.1,-123.4C472.9,-113.56 464.58,-100.38 457.97,-89.89"/>
<polygon fill="midnightblue" stroke="midnightblue" points="460.78,-87.79 452.48,-81.19 454.86,-91.52 460.78,-87.79"/>
</g>
<!-- Node31&#45;&gt;Node12 -->
<g id="edge54" class="edge">
<title>Node31&#45;&gt;Node12</title>
<path fill="none" stroke="midnightblue" d="M542.19,-124.41C545.16,-123.88 548.11,-123.41 551,-123 592.44,-117.14 1178.27,-87.41 1395.62,-76.51"/>
<polygon fill="midnightblue" stroke="midnightblue" points="1395.87,-80 1405.68,-76.01 1395.52,-73.01 1395.87,-80"/>
</g>
<!-- Node31&#45;&gt;Node16 -->
<g id="edge52" class="edge">
<title>Node31&#45;&gt;Node16</title>
<path fill="none" stroke="midnightblue" d="M522.93,-123.4C551.43,-111.89 591.29,-95.8 618.52,-84.81"/>
<polygon fill="midnightblue" stroke="midnightblue" points="619.97,-88 627.93,-81.01 617.35,-81.51 619.97,-88"/>
</g>
<!-- Node32&#45;&gt;Node12 -->
<g id="edge57" class="edge">
<title>Node32&#45;&gt;Node12</title>
<path fill="none" stroke="midnightblue" d="M1547.31,-257.27C1540.17,-230.47 1523.34,-170.88 1503,-123 1498.21,-111.73 1491.78,-99.61 1486.39,-90.07"/>
<polygon fill="midnightblue" stroke="midnightblue" points="1489.3,-88.11 1481.27,-81.2 1483.24,-91.61 1489.3,-88.11"/>
</g>
<!-- Node32&#45;&gt;Node23 -->
<g id="edge56" class="edge">
<title>Node32&#45;&gt;Node23</title>
<path fill="none" stroke="midnightblue" d="M1557.74,-257.37C1569.29,-233.18 1592.82,-183.88 1605.48,-157.35"/>
<polygon fill="midnightblue" stroke="midnightblue" points="1608.75,-158.63 1609.9,-148.1 1602.43,-155.61 1608.75,-158.63"/>
</g>
<!-- Node33 -->
<g id="node33" class="node">
<title>Node33</title>
<g id="a_node33"><a xlink:href="ip__option__impl_8hpp.html" target="_top" xlink:title=" ">
<polygon fill="white" stroke="black" points="1734,-196 1734,-215 1832,-215 1832,-196 1734,-196"/>
<text text-anchor="middle" x="1783" y="-203" font-family="Helvetica" font-size="10.00">ip_option_impl.hpp</text>
</a>
</g>
</g>
<!-- Node32&#45;&gt;Node33 -->
<g id="edge58" class="edge">
<title>Node32&#45;&gt;Node33</title>
<path fill="none" stroke="midnightblue" d="M1601.05,-257.48C1643.45,-245.6 1703.45,-228.79 1742.78,-217.77"/>
<polygon fill="midnightblue" stroke="midnightblue" points="1743.87,-221.1 1752.56,-215.03 1741.99,-214.36 1743.87,-221.1"/>
</g>
<!-- Node33&#45;&gt;Node12 -->
<g id="edge59" class="edge">
<title>Node33&#45;&gt;Node12</title>
<path fill="none" stroke="midnightblue" d="M1779.01,-195.97C1770.65,-179.09 1749.58,-141.48 1720,-123 1692.5,-105.82 1613.54,-91.44 1552.82,-82.48"/>
<polygon fill="midnightblue" stroke="midnightblue" points="1553.26,-79.01 1542.86,-81.03 1552.25,-85.93 1553.26,-79.01"/>
</g>
<!-- Node34 -->
<g id="node34" class="node">
<title>Node34</title>
<g id="a_node34"><a xlink:href="option__impl_8hpp.html" target="_top" xlink:title=" ">
<polygon fill="white" stroke="black" points="1985.5,-129 1985.5,-148 2070.5,-148 2070.5,-129 1985.5,-129"/>
<text text-anchor="middle" x="2028" y="-136" font-family="Helvetica" font-size="10.00">option_impl.hpp</text>
</a>
</g>
</g>
<!-- Node33&#45;&gt;Node34 -->
<g id="edge60" class="edge">
<title>Node33&#45;&gt;Node34</title>
<path fill="none" stroke="midnightblue" d="M1816.71,-195.97C1855.45,-186.11 1920.92,-169.27 1977,-154 1980.79,-152.97 1984.73,-151.88 1988.67,-150.78"/>
<polygon fill="midnightblue" stroke="midnightblue" points="1989.69,-154.13 1998.37,-148.05 1987.79,-147.39 1989.69,-154.13"/>
</g>
<!-- Node34&#45;&gt;Node4 -->
<g id="edge61" class="edge">
<title>Node34&#45;&gt;Node4</title>
<path fill="none" stroke="midnightblue" d="M2058.22,-128.96C2090.25,-119.22 2137.62,-102.63 2148,-87 2155.62,-75.52 2157.47,-66.01 2148,-56 2120.57,-27.02 1513.34,-14.29 1362.62,-11.57"/>
<polygon fill="midnightblue" stroke="midnightblue" points="1362.24,-8.06 1352.18,-11.39 1362.12,-15.06 1362.24,-8.06"/>
</g>
<!-- Node34&#45;&gt;Node15 -->
<g id="edge62" class="edge">
<title>Node34&#45;&gt;Node15</title>
<path fill="none" stroke="midnightblue" d="M1998.42,-128.98C1952.91,-115.86 1869.56,-91.71 1856,-87 1854.09,-86.34 1852.13,-85.63 1850.17,-84.9"/>
<polygon fill="midnightblue" stroke="midnightblue" points="1851.02,-81.48 1840.43,-81.13 1848.49,-88 1851.02,-81.48"/>
</g>
<!-- Node34&#45;&gt;Node18 -->
<g id="edge63" class="edge">
<title>Node34&#45;&gt;Node18</title>
<path fill="none" stroke="midnightblue" d="M2013.97,-128.73C1996.67,-117.92 1967.01,-99.38 1946.51,-86.57"/>
<polygon fill="midnightblue" stroke="midnightblue" points="1948.14,-83.46 1937.8,-81.13 1944.43,-89.4 1948.14,-83.46"/>
</g>
<!-- Node34&#45;&gt;Node19 -->
<g id="edge64" class="edge">
<title>Node34&#45;&gt;Node19</title>
<path fill="none" stroke="midnightblue" d="M2033.66,-128.73C2040.09,-118.79 2050.72,-102.34 2058.83,-89.79"/>
<polygon fill="midnightblue" stroke="midnightblue" points="2061.94,-91.43 2064.43,-81.13 2056.06,-87.63 2061.94,-91.43"/>
</g>
<!-- Node35&#45;&gt;Node12 -->
<g id="edge67" class="edge">
<title>Node35&#45;&gt;Node12</title>
<path fill="none" stroke="midnightblue" d="M1692.16,-257.39C1701.67,-228.64 1718.3,-162.67 1687,-123 1670.62,-102.23 1608.7,-89.05 1556.14,-81.39"/>
<polygon fill="midnightblue" stroke="midnightblue" points="1556.51,-77.9 1546.11,-79.97 1555.53,-84.83 1556.51,-77.9"/>
</g>
<!-- Node35&#45;&gt;Node23 -->
<g id="edge66" class="edge">
<title>Node35&#45;&gt;Node23</title>
<path fill="none" stroke="midnightblue" d="M1679.19,-257.37C1665.75,-233.08 1638.3,-183.44 1623.68,-157"/>
<polygon fill="midnightblue" stroke="midnightblue" points="1626.66,-155.15 1618.75,-148.1 1620.53,-158.54 1626.66,-155.15"/>
</g>
<!-- Node35&#45;&gt;Node33 -->
<g id="edge68" class="edge">
<title>Node35&#45;&gt;Node33</title>
<path fill="none" stroke="midnightblue" d="M1707.83,-257.4C1723.78,-246.6 1745.7,-231.76 1761.75,-220.89"/>
<polygon fill="midnightblue" stroke="midnightblue" points="1764.12,-223.51 1770.44,-215.01 1760.19,-217.72 1764.12,-223.51"/>
</g>
<!-- Node36&#45;&gt;Node12 -->
<g id="edge71" class="edge">
<title>Node36&#45;&gt;Node12</title>
<path fill="none" stroke="midnightblue" d="M1961.5,-190.48C1913.16,-172.81 1826.26,-142.41 1750,-123 1681.05,-105.45 1600.87,-91.39 1545.14,-82.61"/>
<polygon fill="midnightblue" stroke="midnightblue" points="1545.44,-79.12 1535.02,-81.03 1544.36,-86.03 1545.44,-79.12"/>
</g>
<!-- Node36&#45;&gt;Node34 -->
<g id="edge72" class="edge">
<title>Node36&#45;&gt;Node34</title>
<path fill="none" stroke="midnightblue" d="M2005.29,-190.4C2009.59,-180.76 2015.32,-167.91 2019.95,-157.54"/>
<polygon fill="midnightblue" stroke="midnightblue" points="2023.24,-158.75 2024.12,-148.19 2016.85,-155.9 2023.24,-158.75"/>
</g>
<!-- Node37 -->
<g id="node37" class="node">
<title>Node37</title>
<g id="a_node37"><a xlink:title=" ">
<polygon fill="white" stroke="#bfbfbf" points="2089,-129 2089,-148 2119,-148 2119,-129 2089,-129"/>
<text text-anchor="middle" x="2104" y="-136" font-family="Helvetica" font-size="10.00">set</text>
</a>
</g>
</g>
<!-- Node36&#45;&gt;Node37 -->
<g id="edge70" class="edge">
<title>Node36&#45;&gt;Node37</title>
<path fill="none" stroke="midnightblue" d="M2021.78,-190.4C2039.55,-179.39 2064.1,-164.2 2081.74,-153.28"/>
<polygon fill="midnightblue" stroke="midnightblue" points="2083.6,-156.25 2090.26,-148.01 2079.91,-150.29 2083.6,-156.25"/>
</g>
</g>
</svg>
