<?xml version="1.0" encoding="UTF-8" standalone="no"?>
<!DOCTYPE svg PUBLIC "-//W3C//DTD SVG 1.1//EN"
 "http://www.w3.org/Graphics/SVG/1.1/DTD/svg11.dtd">
<!-- Generated by graphviz version 2.44.0 (0)
 -->
<!-- Title: /home/ec2&#45;user/workspace/vsomeip/implementation/routing/include/eventgroupinfo.hpp Pages: 1 -->
<svg width="935pt" height="229pt"
 viewBox="0.00 0.00 935.41 229.00" xmlns="http://www.w3.org/2000/svg" xmlns:xlink="http://www.w3.org/1999/xlink">
<g id="graph0" class="graph" transform="scale(1 1) rotate(0) translate(4 225)">
<title>/home/ec2&#45;user/workspace/vsomeip/implementation/routing/include/eventgroupinfo.hpp</title>
<polygon fill="white" stroke="transparent" points="-4,4 -4,-225 931.41,-225 931.41,4 -4,4"/>
<!-- Node1 -->
<g id="node1" class="node">
<title>Node1</title>
<g id="a_node1"><a xlink:title=" ">
<polygon fill="#bfbfbf" stroke="black" points="161.41,-179.5 161.41,-220.5 328.41,-220.5 328.41,-179.5 161.41,-179.5"/>
<text text-anchor="start" x="169.41" y="-208.5" font-family="Helvetica" font-size="10.00">/home/ec2&#45;user/workspace</text>
<text text-anchor="start" x="169.41" y="-197.5" font-family="Helvetica" font-size="10.00">/vsomeip/implementation</text>
<text text-anchor="middle" x="244.91" y="-186.5" font-family="Helvetica" font-size="10.00">/routing/include/eventgroupinfo.hpp</text>
</a>
</g>
</g>
<!-- Node2 -->
<g id="node2" class="node">
<title>Node2</title>
<g id="a_node2"><a xlink:title=" ">
<polygon fill="white" stroke="#bfbfbf" points="133.91,-0.5 133.91,-19.5 179.91,-19.5 179.91,-0.5 133.91,-0.5"/>
<text text-anchor="middle" x="156.91" y="-7.5" font-family="Helvetica" font-size="10.00">atomic</text>
</a>
</g>
</g>
<!-- Node1&#45;&gt;Node2 -->
<g id="edge1" class="edge">
<title>Node1&#45;&gt;Node2</title>
<path fill="none" stroke="midnightblue" d="M161.31,-190C101.65,-181.66 28.76,-166.86 9.91,-143 -30.31,-92.06 69.24,-44.31 123.91,-22.86"/>
<polygon fill="midnightblue" stroke="midnightblue" points="125.47,-26.01 133.56,-19.17 122.97,-19.48 125.47,-26.01"/>
</g>
<!-- Node3 -->
<g id="node3" class="node">
<title>Node3</title>
<g id="a_node3"><a xlink:title=" ">
<polygon fill="white" stroke="#bfbfbf" points="18.91,-123.5 18.91,-142.5 64.91,-142.5 64.91,-123.5 18.91,-123.5"/>
<text text-anchor="middle" x="41.91" y="-130.5" font-family="Helvetica" font-size="10.00">chrono</text>
</a>
</g>
</g>
<!-- Node1&#45;&gt;Node3 -->
<g id="edge2" class="edge">
<title>Node1&#45;&gt;Node3</title>
<path fill="none" stroke="midnightblue" d="M184.01,-179.5C148.17,-168.02 104.26,-153.96 74.82,-144.54"/>
<polygon fill="midnightblue" stroke="midnightblue" points="75.64,-141.12 65.04,-141.41 73.5,-147.79 75.64,-141.12"/>
</g>
<!-- Node4 -->
<g id="node4" class="node">
<title>Node4</title>
<g id="a_node4"><a xlink:title=" ">
<polygon fill="white" stroke="#bfbfbf" points="83.41,-123.5 83.41,-142.5 112.41,-142.5 112.41,-123.5 83.41,-123.5"/>
<text text-anchor="middle" x="97.91" y="-130.5" font-family="Helvetica" font-size="10.00">list</text>
</a>
</g>
</g>
<!-- Node1&#45;&gt;Node4 -->
<g id="edge3" class="edge">
<title>Node1&#45;&gt;Node4</title>
<path fill="none" stroke="midnightblue" d="M200.81,-179.5C174.96,-168.07 143.31,-154.07 122,-144.65"/>
<polygon fill="midnightblue" stroke="midnightblue" points="123.27,-141.39 112.71,-140.54 120.44,-147.79 123.27,-141.39"/>
</g>
<!-- Node5 -->
<g id="node5" class="node">
<title>Node5</title>
<g id="a_node5"><a xlink:title=" ">
<polygon fill="white" stroke="#bfbfbf" points="874.41,-0.5 874.41,-19.5 927.41,-19.5 927.41,-0.5 874.41,-0.5"/>
<text text-anchor="middle" x="900.91" y="-7.5" font-family="Helvetica" font-size="10.00">memory</text>
</a>
</g>
</g>
<!-- Node1&#45;&gt;Node5 -->
<g id="edge4" class="edge">
<title>Node1&#45;&gt;Node5</title>
<path fill="none" stroke="midnightblue" d="M328.62,-196.74C414.09,-192.36 549.65,-179.66 660.91,-143 748.48,-114.14 841.08,-53.27 880.85,-25.44"/>
<polygon fill="midnightblue" stroke="midnightblue" points="883.02,-28.2 889.16,-19.57 878.97,-22.48 883.02,-28.2"/>
</g>
<!-- Node6 -->
<g id="node6" class="node">
<title>Node6</title>
<g id="a_node6"><a xlink:title=" ">
<polygon fill="white" stroke="#bfbfbf" points="197.91,-0.5 197.91,-19.5 241.91,-19.5 241.91,-0.5 197.91,-0.5"/>
<text text-anchor="middle" x="219.91" y="-7.5" font-family="Helvetica" font-size="10.00">mutex</text>
</a>
</g>
</g>
<!-- Node1&#45;&gt;Node6 -->
<g id="edge5" class="edge">
<title>Node1&#45;&gt;Node6</title>
<path fill="none" stroke="midnightblue" d="M201.99,-179.5C187.5,-170.58 172.98,-158.49 164.91,-143 147.06,-108.7 148.36,-90.94 164.91,-56 171.04,-43.07 182.91,-32.62 194.05,-25.05"/>
<polygon fill="midnightblue" stroke="midnightblue" points="196.11,-27.9 202.72,-19.61 192.39,-21.97 196.11,-27.9"/>
</g>
<!-- Node7 -->
<g id="node7" class="node">
<title>Node7</title>
<g id="a_node7"><a xlink:title=" ">
<polygon fill="white" stroke="#bfbfbf" points="206.91,-62 206.91,-81 236.91,-81 236.91,-62 206.91,-62"/>
<text text-anchor="middle" x="221.91" y="-69" font-family="Helvetica" font-size="10.00">set</text>
</a>
</g>
</g>
<!-- Node1&#45;&gt;Node7 -->
<g id="edge6" class="edge">
<title>Node1&#45;&gt;Node7</title>
<path fill="none" stroke="midnightblue" d="M241.32,-179.23C236.95,-155.23 229.65,-115.02 225.35,-91.41"/>
<polygon fill="midnightblue" stroke="midnightblue" points="228.74,-90.51 223.51,-81.29 221.86,-91.76 228.74,-90.51"/>
</g>
<!-- Node8 -->
<g id="node8" class="node">
<title>Node8</title>
<g id="a_node8"><a xlink:title=" ">
<polygon fill="white" stroke="#bfbfbf" points="248.41,-123.5 248.41,-142.5 291.41,-142.5 291.41,-123.5 248.41,-123.5"/>
<text text-anchor="middle" x="269.91" y="-130.5" font-family="Helvetica" font-size="10.00">vector</text>
</a>
</g>
</g>
<!-- Node1&#45;&gt;Node8 -->
<g id="edge7" class="edge">
<title>Node1&#45;&gt;Node8</title>
<path fill="none" stroke="midnightblue" d="M252.41,-179.5C255.77,-170.78 259.7,-160.56 262.98,-152.02"/>
<polygon fill="midnightblue" stroke="midnightblue" points="266.26,-153.24 266.59,-142.65 259.73,-150.73 266.26,-153.24"/>
</g>
<!-- Node9 -->
<g id="node9" class="node">
<title>Node9</title>
<g id="a_node9"><a xlink:title=" ">
<polygon fill="white" stroke="#bfbfbf" points="727.91,-0.5 727.91,-19.5 855.91,-19.5 855.91,-0.5 727.91,-0.5"/>
<text text-anchor="middle" x="791.91" y="-7.5" font-family="Helvetica" font-size="10.00">boost/asio/ip/address.hpp</text>
</a>
</g>
</g>
<!-- Node1&#45;&gt;Node9 -->
<g id="edge8" class="edge">
<title>Node1&#45;&gt;Node9</title>
<path fill="none" stroke="midnightblue" d="M328.7,-192.07C425.27,-183.16 577.43,-166.07 629.91,-143 693.09,-115.23 751.83,-55.85 777.84,-27.17"/>
<polygon fill="midnightblue" stroke="midnightblue" points="780.51,-29.42 784.56,-19.63 775.29,-24.76 780.51,-29.42"/>
</g>
<!-- Node10 -->
<g id="node10" class="node">
<title>Node10</title>
<g id="a_node10"><a xlink:title=" ">
<polygon fill="white" stroke="#bfbfbf" points="259.91,-0.5 259.91,-19.5 361.91,-19.5 361.91,-0.5 259.91,-0.5"/>
<text text-anchor="middle" x="310.91" y="-7.5" font-family="Helvetica" font-size="10.00">vsomeip/export.hpp</text>
</a>
</g>
</g>
<!-- Node1&#45;&gt;Node10 -->
<g id="edge9" class="edge">
<title>Node1&#45;&gt;Node10</title>
<path fill="none" stroke="midnightblue" d="M228.34,-179.45C205.85,-150.42 171.37,-95.15 197.91,-56 209.88,-38.35 229.99,-27.63 249.95,-21.11"/>
<polygon fill="midnightblue" stroke="midnightblue" points="251.1,-24.42 259.71,-18.23 249.12,-17.7 251.1,-24.42"/>
</g>
<!-- Node11 -->
<g id="node11" class="node">
<title>Node11</title>
<g id="a_node11"><a xlink:title=" ">
<polygon fill="white" stroke="#bfbfbf" points="433.91,-0.5 433.91,-19.5 573.91,-19.5 573.91,-0.5 433.91,-0.5"/>
<text text-anchor="middle" x="503.91" y="-7.5" font-family="Helvetica" font-size="10.00">vsomeip/primitive_types.hpp</text>
</a>
</g>
</g>
<!-- Node1&#45;&gt;Node11 -->
<g id="edge10" class="edge">
<title>Node1&#45;&gt;Node11</title>
<path fill="none" stroke="midnightblue" d="M328.75,-195.51C402.77,-187.3 505.88,-162.09 551.91,-87 559.11,-75.25 557.39,-68.64 551.91,-56 546.65,-43.84 536.29,-33.46 526.55,-25.74"/>
<polygon fill="midnightblue" stroke="midnightblue" points="528.41,-22.77 518.28,-19.67 524.27,-28.41 528.41,-22.77"/>
</g>
<!-- Node12 -->
<g id="node12" class="node">
<title>Node12</title>
<g id="a_node12"><a xlink:href="remote__subscription_8hpp.html" target="_top" xlink:title=" ">
<polygon fill="white" stroke="black" points="309.41,-123.5 309.41,-142.5 432.41,-142.5 432.41,-123.5 309.41,-123.5"/>
<text text-anchor="middle" x="370.91" y="-130.5" font-family="Helvetica" font-size="10.00">remote_subscription.hpp</text>
</a>
</g>
</g>
<!-- Node1&#45;&gt;Node12 -->
<g id="edge11" class="edge">
<title>Node1&#45;&gt;Node12</title>
<path fill="none" stroke="midnightblue" d="M282.72,-179.5C302.78,-169.15 326.92,-156.69 344.87,-147.43"/>
<polygon fill="midnightblue" stroke="midnightblue" points="346.86,-150.35 354.14,-142.65 343.65,-144.13 346.86,-150.35"/>
</g>
<!-- Node15 -->
<g id="node15" class="node">
<title>Node15</title>
<g id="a_node15"><a xlink:href="types_8hpp.html" target="_top" xlink:title=" ">
<polygon fill="white" stroke="black" points="621.41,-62 621.41,-81 680.41,-81 680.41,-62 621.41,-62"/>
<text text-anchor="middle" x="650.91" y="-69" font-family="Helvetica" font-size="10.00">types.hpp</text>
</a>
</g>
</g>
<!-- Node1&#45;&gt;Node15 -->
<g id="edge32" class="edge">
<title>Node1&#45;&gt;Node15</title>
<path fill="none" stroke="midnightblue" d="M328.44,-194.1C420.78,-187.3 562.39,-172.37 606.91,-143 625.68,-130.62 637.91,-107.18 644.6,-90.74"/>
<polygon fill="midnightblue" stroke="midnightblue" points="647.97,-91.72 648.21,-81.13 641.42,-89.26 647.97,-91.72"/>
</g>
<!-- Node12&#45;&gt;Node2 -->
<g id="edge12" class="edge">
<title>Node12&#45;&gt;Node2</title>
<path fill="none" stroke="midnightblue" d="M348.71,-123.36C329.41,-115.35 301.15,-102.36 278.91,-87 262.36,-75.56 262.39,-67.55 245.91,-56 227.61,-43.17 205.13,-31.84 187.35,-23.76"/>
<polygon fill="midnightblue" stroke="midnightblue" points="188.57,-20.47 178.01,-19.61 185.73,-26.87 188.57,-20.47"/>
</g>
<!-- Node12&#45;&gt;Node6 -->
<g id="edge14" class="edge">
<title>Node12&#45;&gt;Node6</title>
<path fill="none" stroke="midnightblue" d="M360.81,-123.43C343.98,-109.22 309.09,-79.96 278.91,-56 266.05,-45.79 251.36,-34.59 239.86,-25.91"/>
<polygon fill="midnightblue" stroke="midnightblue" points="241.87,-23.04 231.77,-19.83 237.66,-28.64 241.87,-23.04"/>
</g>
<!-- Node12&#45;&gt;Node7 -->
<g id="edge15" class="edge">
<title>Node12&#45;&gt;Node7</title>
<path fill="none" stroke="midnightblue" d="M345.79,-123.44C321.3,-114.9 283.14,-101.05 250.91,-87 249.35,-86.32 247.76,-85.6 246.15,-84.85"/>
<polygon fill="midnightblue" stroke="midnightblue" points="247.65,-81.69 237.12,-80.48 244.6,-87.99 247.65,-81.69"/>
</g>
<!-- Node12&#45;&gt;Node10 -->
<g id="edge31" class="edge">
<title>Node12&#45;&gt;Node10</title>
<path fill="none" stroke="midnightblue" d="M366.6,-123.3C356.83,-103.59 332.84,-55.21 319.76,-28.84"/>
<polygon fill="midnightblue" stroke="midnightblue" points="322.77,-27.03 315.19,-19.62 316.5,-30.14 322.77,-27.03"/>
</g>
<!-- Node12&#45;&gt;Node11 -->
<g id="edge16" class="edge">
<title>Node12&#45;&gt;Node11</title>
<path fill="none" stroke="midnightblue" d="M430.57,-123.45C472.35,-116.1 522.94,-103.99 535.91,-87 549.83,-68.79 533.82,-43.63 519.88,-27.34"/>
<polygon fill="midnightblue" stroke="midnightblue" points="522.26,-24.76 512.95,-19.71 517.08,-29.46 522.26,-24.76"/>
</g>
<!-- Node13 -->
<g id="node13" class="node">
<title>Node13</title>
<g id="a_node13"><a xlink:title=" ">
<polygon fill="white" stroke="#bfbfbf" points="380.41,-0.5 380.41,-19.5 415.41,-19.5 415.41,-0.5 380.41,-0.5"/>
<text text-anchor="middle" x="397.91" y="-7.5" font-family="Helvetica" font-size="10.00">map</text>
</a>
</g>
</g>
<!-- Node12&#45;&gt;Node13 -->
<g id="edge13" class="edge">
<title>Node12&#45;&gt;Node13</title>
<path fill="none" stroke="midnightblue" d="M372.86,-123.3C377.21,-103.76 387.86,-56.06 393.77,-29.55"/>
<polygon fill="midnightblue" stroke="midnightblue" points="397.23,-30.15 395.99,-19.62 390.4,-28.62 397.23,-30.15"/>
</g>
<!-- Node14 -->
<g id="node14" class="node">
<title>Node14</title>
<g id="a_node14"><a xlink:href="endpoint__definition_8hpp.html" target="_top" xlink:title=" ">
<polygon fill="white" stroke="black" points="407.41,-56.5 407.41,-86.5 526.41,-86.5 526.41,-56.5 407.41,-56.5"/>
<text text-anchor="start" x="415.41" y="-74.5" font-family="Helvetica" font-size="10.00">../../endpoints/include</text>
<text text-anchor="middle" x="466.91" y="-63.5" font-family="Helvetica" font-size="10.00">/endpoint_definition.hpp</text>
</a>
</g>
</g>
<!-- Node12&#45;&gt;Node14 -->
<g id="edge17" class="edge">
<title>Node12&#45;&gt;Node14</title>
<path fill="none" stroke="midnightblue" d="M384.67,-123.48C397.91,-115.27 418.42,-102.56 435.64,-91.88"/>
<polygon fill="midnightblue" stroke="midnightblue" points="437.63,-94.77 444.29,-86.52 433.94,-88.82 437.63,-94.77"/>
</g>
<!-- Node12&#45;&gt;Node15 -->
<g id="edge25" class="edge">
<title>Node12&#45;&gt;Node15</title>
<path fill="none" stroke="midnightblue" d="M411.03,-123.48C464.33,-112.15 557.95,-92.26 611.1,-80.96"/>
<polygon fill="midnightblue" stroke="midnightblue" points="612.11,-84.32 621.16,-78.82 610.65,-77.48 612.11,-84.32"/>
</g>
<!-- Node14&#45;&gt;Node2 -->
<g id="edge20" class="edge">
<title>Node14&#45;&gt;Node2</title>
<path fill="none" stroke="midnightblue" d="M407.2,-61.33C352.88,-52.61 270.35,-38.41 189.74,-20.01"/>
<polygon fill="midnightblue" stroke="midnightblue" points="190.45,-16.59 179.92,-17.75 188.88,-23.41 190.45,-16.59"/>
</g>
<!-- Node14&#45;&gt;Node5 -->
<g id="edge19" class="edge">
<title>Node14&#45;&gt;Node5</title>
<path fill="none" stroke="midnightblue" d="M526.78,-63.79C617.39,-53.49 786.19,-33.7 864.3,-19.87"/>
<polygon fill="midnightblue" stroke="midnightblue" points="865.05,-23.29 874.25,-18.04 863.79,-16.4 865.05,-23.29"/>
</g>
<!-- Node14&#45;&gt;Node6 -->
<g id="edge21" class="edge">
<title>Node14&#45;&gt;Node6</title>
<path fill="none" stroke="midnightblue" d="M407.11,-57.41C366.01,-48.21 309.98,-35.27 252.26,-20.26"/>
<polygon fill="midnightblue" stroke="midnightblue" points="252.79,-16.78 242.23,-17.63 251.01,-23.55 252.79,-16.78"/>
</g>
<!-- Node14&#45;&gt;Node9 -->
<g id="edge22" class="edge">
<title>Node14&#45;&gt;Node9</title>
<path fill="none" stroke="midnightblue" d="M526.52,-59.59C585.99,-48.7 676.69,-32.09 735.14,-21.39"/>
<polygon fill="midnightblue" stroke="midnightblue" points="736.1,-24.78 745.31,-19.53 734.84,-17.89 736.1,-24.78"/>
</g>
<!-- Node14&#45;&gt;Node10 -->
<g id="edge24" class="edge">
<title>Node14&#45;&gt;Node10</title>
<path fill="none" stroke="midnightblue" d="M429.94,-56.4C403.54,-46.33 368.36,-32.91 343.1,-23.28"/>
<polygon fill="midnightblue" stroke="midnightblue" points="344.2,-19.95 333.61,-19.66 341.71,-26.49 344.2,-19.95"/>
</g>
<!-- Node14&#45;&gt;Node11 -->
<g id="edge23" class="edge">
<title>Node14&#45;&gt;Node11</title>
<path fill="none" stroke="midnightblue" d="M475.68,-56.4C480.89,-48.02 487.54,-37.33 493.08,-28.42"/>
<polygon fill="midnightblue" stroke="midnightblue" points="496.22,-30 498.53,-19.66 490.28,-26.3 496.22,-30"/>
</g>
<!-- Node14&#45;&gt;Node13 -->
<g id="edge18" class="edge">
<title>Node14&#45;&gt;Node13</title>
<path fill="none" stroke="midnightblue" d="M450.56,-56.4C440.02,-47.31 426.31,-35.49 415.53,-26.19"/>
<polygon fill="midnightblue" stroke="midnightblue" points="417.81,-23.54 407.95,-19.66 413.24,-28.84 417.81,-23.54"/>
</g>
<!-- Node15&#45;&gt;Node5 -->
<g id="edge27" class="edge">
<title>Node15&#45;&gt;Node5</title>
<path fill="none" stroke="midnightblue" d="M680.72,-63.6C720.23,-54.42 792.4,-37.56 864.08,-20.18"/>
<polygon fill="midnightblue" stroke="midnightblue" points="865.3,-23.48 874.19,-17.72 863.64,-16.68 865.3,-23.48"/>
</g>
<!-- Node15&#45;&gt;Node9 -->
<g id="edge28" class="edge">
<title>Node15&#45;&gt;Node9</title>
<path fill="none" stroke="midnightblue" d="M671.12,-61.98C694.99,-51.9 734.91,-35.05 762.29,-23.5"/>
<polygon fill="midnightblue" stroke="midnightblue" points="763.9,-26.62 771.75,-19.51 761.17,-20.17 763.9,-26.62"/>
</g>
<!-- Node15&#45;&gt;Node11 -->
<g id="edge29" class="edge">
<title>Node15&#45;&gt;Node11</title>
<path fill="none" stroke="midnightblue" d="M629.85,-61.98C604.85,-51.86 562.97,-34.9 534.43,-23.35"/>
<polygon fill="midnightblue" stroke="midnightblue" points="535.52,-20.02 524.94,-19.51 532.89,-26.51 535.52,-20.02"/>
</g>
<!-- Node15&#45;&gt;Node13 -->
<g id="edge26" class="edge">
<title>Node15&#45;&gt;Node13</title>
<path fill="none" stroke="midnightblue" d="M621.06,-64.84C579.37,-56.71 501.2,-40.69 425.28,-19.86"/>
<polygon fill="midnightblue" stroke="midnightblue" points="426.12,-16.47 415.55,-17.17 424.25,-23.21 426.12,-16.47"/>
</g>
<!-- Node16 -->
<g id="node16" class="node">
<title>Node16</title>
<g id="a_node16"><a xlink:title=" ">
<polygon fill="white" stroke="#bfbfbf" points="591.91,-0.5 591.91,-19.5 709.91,-19.5 709.91,-0.5 591.91,-0.5"/>
<text text-anchor="middle" x="650.91" y="-7.5" font-family="Helvetica" font-size="10.00">vsomeip/constants.hpp</text>
</a>
</g>
</g>
<!-- Node15&#45;&gt;Node16 -->
<g id="edge30" class="edge">
<title>Node15&#45;&gt;Node16</title>
<path fill="none" stroke="midnightblue" d="M650.91,-61.98C650.91,-53.58 650.91,-40.48 650.91,-29.66"/>
<polygon fill="midnightblue" stroke="midnightblue" points="654.41,-29.51 650.91,-19.51 647.41,-29.51 654.41,-29.51"/>
</g>
</g>
</svg>
