<?xml version="1.0" encoding="UTF-8" standalone="no"?>
<!DOCTYPE svg PUBLIC "-//W3C//DTD SVG 1.1//EN"
 "http://www.w3.org/Graphics/SVG/1.1/DTD/svg11.dtd">
<!-- Generated by graphviz version 2.44.0 (0)
 -->
<!-- Title: /home/ec2&#45;user/workspace/vsomeip/implementation/routing/src/eventgroupinfo.cpp Pages: 1 -->
<svg width="1686pt" height="296pt"
 viewBox="0.00 0.00 1686.00 296.00" xmlns="http://www.w3.org/2000/svg" xmlns:xlink="http://www.w3.org/1999/xlink">
<g id="graph0" class="graph" transform="scale(1 1) rotate(0) translate(4 292)">
<title>/home/ec2&#45;user/workspace/vsomeip/implementation/routing/src/eventgroupinfo.cpp</title>
<polygon fill="white" stroke="transparent" points="-4,4 -4,-292 1682,-292 1682,4 -4,4"/>
<!-- Node1 -->
<g id="node1" class="node">
<title>Node1</title>
<g id="a_node1"><a xlink:title=" ">
<polygon fill="#bfbfbf" stroke="black" points="490,-246.5 490,-287.5 640,-287.5 640,-246.5 490,-246.5"/>
<text text-anchor="start" x="498" y="-275.5" font-family="Helvetica" font-size="10.00">/home/ec2&#45;user/workspace</text>
<text text-anchor="start" x="498" y="-264.5" font-family="Helvetica" font-size="10.00">/vsomeip/implementation</text>
<text text-anchor="middle" x="565" y="-253.5" font-family="Helvetica" font-size="10.00">/routing/src/eventgroupinfo.cpp</text>
</a>
</g>
</g>
<!-- Node2 -->
<g id="node2" class="node">
<title>Node2</title>
<g id="a_node2"><a xlink:title=" ">
<polygon fill="white" stroke="#bfbfbf" points="122,-190.5 122,-209.5 178,-209.5 178,-190.5 122,-190.5"/>
<text text-anchor="middle" x="150" y="-197.5" font-family="Helvetica" font-size="10.00">algorithm</text>
</a>
</g>
</g>
<!-- Node1&#45;&gt;Node2 -->
<g id="edge1" class="edge">
<title>Node1&#45;&gt;Node2</title>
<path fill="none" stroke="midnightblue" d="M489.71,-256.91C415.41,-247.47 298.44,-231.35 188.19,-210.09"/>
<polygon fill="midnightblue" stroke="midnightblue" points="188.71,-206.62 178.22,-208.15 187.37,-213.49 188.71,-206.62"/>
</g>
<!-- Node3 -->
<g id="node3" class="node">
<title>Node3</title>
<g id="a_node3"><a xlink:title=" ">
<polygon fill="white" stroke="#bfbfbf" points="196,-190.5 196,-209.5 246,-209.5 246,-190.5 196,-190.5"/>
<text text-anchor="middle" x="221" y="-197.5" font-family="Helvetica" font-size="10.00">iomanip</text>
</a>
</g>
</g>
<!-- Node1&#45;&gt;Node3 -->
<g id="edge2" class="edge">
<title>Node1&#45;&gt;Node3</title>
<path fill="none" stroke="midnightblue" d="M489.92,-253.19C428.07,-242.4 338.15,-226.18 260,-210 258.74,-209.74 257.45,-209.47 256.15,-209.19"/>
<polygon fill="midnightblue" stroke="midnightblue" points="256.66,-205.72 246.14,-206.98 255.15,-212.55 256.66,-205.72"/>
</g>
<!-- Node4 -->
<g id="node4" class="node">
<title>Node4</title>
<g id="a_node4"><a xlink:title=" ">
<polygon fill="white" stroke="#bfbfbf" points="1560,-0.5 1560,-19.5 1678,-19.5 1678,-0.5 1560,-0.5"/>
<text text-anchor="middle" x="1619" y="-7.5" font-family="Helvetica" font-size="10.00">vsomeip/constants.hpp</text>
</a>
</g>
</g>
<!-- Node1&#45;&gt;Node4 -->
<g id="edge3" class="edge">
<title>Node1&#45;&gt;Node4</title>
<path fill="none" stroke="midnightblue" d="M640.02,-265.59C782.35,-262.59 1099.43,-245.23 1347,-154 1444.91,-117.92 1551.98,-53.5 1597.06,-25.1"/>
<polygon fill="midnightblue" stroke="midnightblue" points="1599.15,-27.93 1605.72,-19.61 1595.4,-22.02 1599.15,-27.93"/>
</g>
<!-- Node5 -->
<g id="node5" class="node">
<title>Node5</title>
<g id="a_node5"><a xlink:href="logger_8hpp.html" target="_top" xlink:title=" ">
<polygon fill="white" stroke="black" points="148,-62 148,-81 284,-81 284,-62 148,-62"/>
<text text-anchor="middle" x="216" y="-69" font-family="Helvetica" font-size="10.00">vsomeip/internal/logger.hpp</text>
</a>
</g>
</g>
<!-- Node1&#45;&gt;Node5 -->
<g id="edge4" class="edge">
<title>Node1&#45;&gt;Node5</title>
<path fill="none" stroke="midnightblue" d="M499.49,-246.42C443.18,-227.8 361.29,-196.35 298,-154 270.48,-135.58 244.37,-107.05 229.28,-89.09"/>
<polygon fill="midnightblue" stroke="midnightblue" points="231.86,-86.72 222.81,-81.22 226.46,-91.16 231.86,-86.72"/>
</g>
<!-- Node13 -->
<g id="node13" class="node">
<title>Node13</title>
<g id="a_node13"><a xlink:href="eventgroupinfo_8hpp.html" target="_top" xlink:title=" ">
<polygon fill="white" stroke="black" points="948.5,-190.5 948.5,-209.5 1089.5,-209.5 1089.5,-190.5 948.5,-190.5"/>
<text text-anchor="middle" x="1019" y="-197.5" font-family="Helvetica" font-size="10.00">../include/eventgroupinfo.hpp</text>
</a>
</g>
</g>
<!-- Node1&#45;&gt;Node13 -->
<g id="edge12" class="edge">
<title>Node1&#45;&gt;Node13</title>
<path fill="none" stroke="midnightblue" d="M640.22,-255.23C726.31,-242.91 866.14,-222.89 949.68,-210.93"/>
<polygon fill="midnightblue" stroke="midnightblue" points="950.17,-214.39 959.58,-209.51 949.18,-207.46 950.17,-214.39"/>
</g>
<!-- Node21 -->
<g id="node21" class="node">
<title>Node21</title>
<g id="a_node21"><a xlink:href="remote__subscription_8hpp.html" target="_top" xlink:title=" ">
<polygon fill="white" stroke="black" points="778.5,-129 778.5,-148 901.5,-148 901.5,-129 778.5,-129"/>
<text text-anchor="middle" x="840" y="-136" font-family="Helvetica" font-size="10.00">remote_subscription.hpp</text>
</a>
</g>
</g>
<!-- Node1&#45;&gt;Node21 -->
<g id="edge57" class="edge">
<title>Node1&#45;&gt;Node21</title>
<path fill="none" stroke="midnightblue" d="M607.67,-246.37C664.69,-220.14 764.13,-174.4 812.29,-152.25"/>
<polygon fill="midnightblue" stroke="midnightblue" points="813.86,-155.38 821.48,-148.02 810.94,-149.02 813.86,-155.38"/>
</g>
<!-- Node23 -->
<g id="node23" class="node">
<title>Node23</title>
<g id="a_node23"><a xlink:href="endpoint__definition_8hpp.html" target="_top" xlink:title=" ">
<polygon fill="white" stroke="black" points="782.5,-56.5 782.5,-86.5 901.5,-86.5 901.5,-56.5 782.5,-56.5"/>
<text text-anchor="start" x="790.5" y="-74.5" font-family="Helvetica" font-size="10.00">../../endpoints/include</text>
<text text-anchor="middle" x="842" y="-63.5" font-family="Helvetica" font-size="10.00">/endpoint_definition.hpp</text>
</a>
</g>
</g>
<!-- Node1&#45;&gt;Node23 -->
<g id="edge66" class="edge">
<title>Node1&#45;&gt;Node23</title>
<path fill="none" stroke="midnightblue" d="M561.98,-246.32C558.46,-215.58 556.75,-156.25 589,-123 613.9,-97.32 706.2,-84.03 772.11,-77.66"/>
<polygon fill="midnightblue" stroke="midnightblue" points="772.81,-81.11 782.45,-76.7 772.17,-74.14 772.81,-81.11"/>
</g>
<!-- Node25 -->
<g id="node25" class="node">
<title>Node25</title>
<g id="a_node25"><a xlink:href="routing_2include_2event_8hpp.html" target="_top" xlink:title=" ">
<polygon fill="white" stroke="black" points="958.5,-62 958.5,-81 1059.5,-81 1059.5,-62 958.5,-62"/>
<text text-anchor="middle" x="1009" y="-69" font-family="Helvetica" font-size="10.00">../include/event.hpp</text>
</a>
</g>
</g>
<!-- Node1&#45;&gt;Node25 -->
<g id="edge45" class="edge">
<title>Node1&#45;&gt;Node25</title>
<path fill="none" stroke="midnightblue" d="M586.56,-246.46C622.08,-215.37 696.33,-154.9 770,-123 801.45,-109.38 888.48,-92.82 948.35,-82.47"/>
<polygon fill="midnightblue" stroke="midnightblue" points="949.19,-85.88 958.46,-80.74 948.01,-78.98 949.19,-85.88"/>
</g>
<!-- Node29 -->
<g id="node29" class="node">
<title>Node29</title>
<g id="a_node29"><a xlink:href="internal_8hpp.html" target="_top" xlink:title=" ">
<polygon fill="white" stroke="black" points="433,-123.5 433,-153.5 537,-153.5 537,-123.5 433,-123.5"/>
<text text-anchor="start" x="441" y="-141.5" font-family="Helvetica" font-size="10.00">../../configuration</text>
<text text-anchor="middle" x="485" y="-130.5" font-family="Helvetica" font-size="10.00">/include/internal.hpp</text>
</a>
</g>
</g>
<!-- Node1&#45;&gt;Node29 -->
<g id="edge58" class="edge">
<title>Node1&#45;&gt;Node29</title>
<path fill="none" stroke="midnightblue" d="M552.5,-246.23C538.08,-223.44 514.43,-186.03 499.29,-162.1"/>
<polygon fill="midnightblue" stroke="midnightblue" points="502.25,-160.22 493.94,-153.64 496.33,-163.97 502.25,-160.22"/>
</g>
<!-- Node6 -->
<g id="node6" class="node">
<title>Node6</title>
<g id="a_node6"><a xlink:title=" ">
<polygon fill="white" stroke="#bfbfbf" points="282,-0.5 282,-19.5 328,-19.5 328,-0.5 282,-0.5"/>
<text text-anchor="middle" x="305" y="-7.5" font-family="Helvetica" font-size="10.00">chrono</text>
</a>
</g>
</g>
<!-- Node5&#45;&gt;Node6 -->
<g id="edge5" class="edge">
<title>Node5&#45;&gt;Node6</title>
<path fill="none" stroke="midnightblue" d="M228.75,-61.98C243.03,-52.43 266.4,-36.81 283.51,-25.37"/>
<polygon fill="midnightblue" stroke="midnightblue" points="285.9,-27.98 292.27,-19.51 282.01,-22.16 285.9,-27.98"/>
</g>
<!-- Node7 -->
<g id="node7" class="node">
<title>Node7</title>
<g id="a_node7"><a xlink:title=" ">
<polygon fill="white" stroke="#bfbfbf" points="218,-0.5 218,-19.5 264,-19.5 264,-0.5 218,-0.5"/>
<text text-anchor="middle" x="241" y="-7.5" font-family="Helvetica" font-size="10.00">cstdint</text>
</a>
</g>
</g>
<!-- Node5&#45;&gt;Node7 -->
<g id="edge6" class="edge">
<title>Node5&#45;&gt;Node7</title>
<path fill="none" stroke="midnightblue" d="M219.58,-61.98C223.18,-53.4 228.85,-39.93 233.44,-28.98"/>
<polygon fill="midnightblue" stroke="midnightblue" points="236.78,-30.08 237.42,-19.51 230.32,-27.37 236.78,-30.08"/>
</g>
<!-- Node8 -->
<g id="node8" class="node">
<title>Node8</title>
<g id="a_node8"><a xlink:title=" ">
<polygon fill="white" stroke="#bfbfbf" points="466,-0.5 466,-19.5 510,-19.5 510,-0.5 466,-0.5"/>
<text text-anchor="middle" x="488" y="-7.5" font-family="Helvetica" font-size="10.00">mutex</text>
</a>
</g>
</g>
<!-- Node5&#45;&gt;Node8 -->
<g id="edge7" class="edge">
<title>Node5&#45;&gt;Node8</title>
<path fill="none" stroke="midnightblue" d="M261.99,-61.94C308.57,-53.03 382.87,-38.17 455.88,-20.14"/>
<polygon fill="midnightblue" stroke="midnightblue" points="456.85,-23.51 465.7,-17.69 455.15,-16.71 456.85,-23.51"/>
</g>
<!-- Node9 -->
<g id="node9" class="node">
<title>Node9</title>
<g id="a_node9"><a xlink:title=" ">
<polygon fill="white" stroke="#bfbfbf" points="0,-0.5 0,-19.5 52,-19.5 52,-0.5 0,-0.5"/>
<text text-anchor="middle" x="26" y="-7.5" font-family="Helvetica" font-size="10.00">ostream</text>
</a>
</g>
</g>
<!-- Node5&#45;&gt;Node9 -->
<g id="edge8" class="edge">
<title>Node5&#45;&gt;Node9</title>
<path fill="none" stroke="midnightblue" d="M188.78,-61.98C155.48,-51.55 99.01,-33.86 62.11,-22.31"/>
<polygon fill="midnightblue" stroke="midnightblue" points="62.84,-18.87 52.26,-19.22 60.75,-25.55 62.84,-18.87"/>
</g>
<!-- Node10 -->
<g id="node10" class="node">
<title>Node10</title>
<g id="a_node10"><a xlink:title=" ">
<polygon fill="white" stroke="#bfbfbf" points="70,-0.5 70,-19.5 122,-19.5 122,-0.5 70,-0.5"/>
<text text-anchor="middle" x="96" y="-7.5" font-family="Helvetica" font-size="10.00">sstream</text>
</a>
</g>
</g>
<!-- Node5&#45;&gt;Node10 -->
<g id="edge9" class="edge">
<title>Node5&#45;&gt;Node10</title>
<path fill="none" stroke="midnightblue" d="M198.81,-61.98C178.76,-52.03 145.4,-35.49 122.14,-23.96"/>
<polygon fill="midnightblue" stroke="midnightblue" points="123.68,-20.82 113.16,-19.51 120.57,-27.09 123.68,-20.82"/>
</g>
<!-- Node11 -->
<g id="node11" class="node">
<title>Node11</title>
<g id="a_node11"><a xlink:title=" ">
<polygon fill="white" stroke="#bfbfbf" points="140,-0.5 140,-19.5 200,-19.5 200,-0.5 140,-0.5"/>
<text text-anchor="middle" x="170" y="-7.5" font-family="Helvetica" font-size="10.00">streambuf</text>
</a>
</g>
</g>
<!-- Node5&#45;&gt;Node11 -->
<g id="edge10" class="edge">
<title>Node5&#45;&gt;Node11</title>
<path fill="none" stroke="midnightblue" d="M209.41,-61.98C202.51,-53.05 191.5,-38.81 182.87,-27.64"/>
<polygon fill="midnightblue" stroke="midnightblue" points="185.46,-25.28 176.58,-19.51 179.93,-29.56 185.46,-25.28"/>
</g>
<!-- Node12 -->
<g id="node12" class="node">
<title>Node12</title>
<g id="a_node12"><a xlink:title=" ">
<polygon fill="white" stroke="#bfbfbf" points="346,-0.5 346,-19.5 448,-19.5 448,-0.5 346,-0.5"/>
<text text-anchor="middle" x="397" y="-7.5" font-family="Helvetica" font-size="10.00">vsomeip/export.hpp</text>
</a>
</g>
</g>
<!-- Node5&#45;&gt;Node12 -->
<g id="edge11" class="edge">
<title>Node5&#45;&gt;Node12</title>
<path fill="none" stroke="midnightblue" d="M241.93,-61.98C273.25,-51.68 326.09,-34.31 361.26,-22.75"/>
<polygon fill="midnightblue" stroke="midnightblue" points="362.71,-25.96 371.12,-19.51 360.52,-19.31 362.71,-25.96"/>
</g>
<!-- Node13&#45;&gt;Node6 -->
<g id="edge14" class="edge">
<title>Node13&#45;&gt;Node6</title>
<path fill="none" stroke="midnightblue" d="M948.23,-197.37C795.58,-193.34 445.39,-181.23 399,-154 350.64,-125.61 322.49,-61.35 311.04,-29.54"/>
<polygon fill="midnightblue" stroke="midnightblue" points="314.24,-28.08 307.68,-19.76 307.62,-30.35 314.24,-28.08"/>
</g>
<!-- Node13&#45;&gt;Node8 -->
<g id="edge17" class="edge">
<title>Node13&#45;&gt;Node8</title>
<path fill="none" stroke="midnightblue" d="M948.33,-192.03C897.68,-185.64 828.38,-174.04 770,-154 681.25,-123.53 666.97,-97.87 583,-56 560.61,-44.84 534.95,-32.72 515.95,-23.88"/>
<polygon fill="midnightblue" stroke="midnightblue" points="517.22,-20.61 506.67,-19.57 514.27,-26.96 517.22,-20.61"/>
</g>
<!-- Node13&#45;&gt;Node12 -->
<g id="edge21" class="edge">
<title>Node13&#45;&gt;Node12</title>
<path fill="none" stroke="midnightblue" d="M948.39,-198.21C799.41,-195.91 463.36,-187.07 424,-154 387.65,-123.45 390.12,-60.7 394,-29.48"/>
<polygon fill="midnightblue" stroke="midnightblue" points="397.47,-29.92 395.43,-19.52 390.54,-28.93 397.47,-29.92"/>
</g>
<!-- Node14 -->
<g id="node14" class="node">
<title>Node14</title>
<g id="a_node14"><a xlink:title=" ">
<polygon fill="white" stroke="#bfbfbf" points="1400,-0.5 1400,-19.5 1446,-19.5 1446,-0.5 1400,-0.5"/>
<text text-anchor="middle" x="1423" y="-7.5" font-family="Helvetica" font-size="10.00">atomic</text>
</a>
</g>
</g>
<!-- Node13&#45;&gt;Node14 -->
<g id="edge13" class="edge">
<title>Node13&#45;&gt;Node14</title>
<path fill="none" stroke="midnightblue" d="M1086.83,-190.47C1126.55,-183.85 1177.01,-172.57 1219,-154 1295.58,-120.14 1373,-55.71 1406.19,-26.31"/>
<polygon fill="midnightblue" stroke="midnightblue" points="1408.54,-28.91 1413.65,-19.63 1403.87,-23.7 1408.54,-28.91"/>
</g>
<!-- Node15 -->
<g id="node15" class="node">
<title>Node15</title>
<g id="a_node15"><a xlink:title=" ">
<polygon fill="white" stroke="#bfbfbf" points="1512.5,-0.5 1512.5,-19.5 1541.5,-19.5 1541.5,-0.5 1512.5,-0.5"/>
<text text-anchor="middle" x="1527" y="-7.5" font-family="Helvetica" font-size="10.00">list</text>
</a>
</g>
</g>
<!-- Node13&#45;&gt;Node15 -->
<g id="edge15" class="edge">
<title>Node13&#45;&gt;Node15</title>
<path fill="none" stroke="midnightblue" d="M1089.67,-195.14C1148.26,-190.23 1232.98,-179.1 1303,-154 1358.32,-134.17 1367.46,-118.61 1417,-87 1448.99,-66.59 1484.98,-41.25 1506.82,-25.61"/>
<polygon fill="midnightblue" stroke="midnightblue" points="1508.91,-28.41 1514.99,-19.73 1504.83,-22.73 1508.91,-28.41"/>
</g>
<!-- Node16 -->
<g id="node16" class="node">
<title>Node16</title>
<g id="a_node16"><a xlink:title=" ">
<polygon fill="white" stroke="#bfbfbf" points="581.5,-0.5 581.5,-19.5 634.5,-19.5 634.5,-0.5 581.5,-0.5"/>
<text text-anchor="middle" x="608" y="-7.5" font-family="Helvetica" font-size="10.00">memory</text>
</a>
</g>
</g>
<!-- Node13&#45;&gt;Node16 -->
<g id="edge16" class="edge">
<title>Node13&#45;&gt;Node16</title>
<path fill="none" stroke="midnightblue" d="M1012.98,-190.24C992.42,-160.45 925.5,-64.48 911,-56 810.35,2.83 764.06,-40.15 644.54,-19.81"/>
<polygon fill="midnightblue" stroke="midnightblue" points="645.13,-16.36 634.66,-18.02 643.88,-23.25 645.13,-16.36"/>
</g>
<!-- Node17 -->
<g id="node17" class="node">
<title>Node17</title>
<g id="a_node17"><a xlink:title=" ">
<polygon fill="white" stroke="#bfbfbf" points="1464,-0.5 1464,-19.5 1494,-19.5 1494,-0.5 1464,-0.5"/>
<text text-anchor="middle" x="1479" y="-7.5" font-family="Helvetica" font-size="10.00">set</text>
</a>
</g>
</g>
<!-- Node13&#45;&gt;Node17 -->
<g id="edge18" class="edge">
<title>Node13&#45;&gt;Node17</title>
<path fill="none" stroke="midnightblue" d="M1089.6,-193.2C1138.76,-187.4 1205.09,-176.03 1260,-154 1341.59,-121.27 1425.02,-56.26 1460.85,-26.52"/>
<polygon fill="midnightblue" stroke="midnightblue" points="1463.49,-28.86 1468.9,-19.75 1458.99,-23.5 1463.49,-28.86"/>
</g>
<!-- Node18 -->
<g id="node18" class="node">
<title>Node18</title>
<g id="a_node18"><a xlink:title=" ">
<polygon fill="white" stroke="#bfbfbf" points="997.5,-129 997.5,-148 1040.5,-148 1040.5,-129 997.5,-129"/>
<text text-anchor="middle" x="1019" y="-136" font-family="Helvetica" font-size="10.00">vector</text>
</a>
</g>
</g>
<!-- Node13&#45;&gt;Node18 -->
<g id="edge19" class="edge">
<title>Node13&#45;&gt;Node18</title>
<path fill="none" stroke="midnightblue" d="M1019,-190.48C1019,-182.08 1019,-168.98 1019,-158.16"/>
<polygon fill="midnightblue" stroke="midnightblue" points="1022.5,-158.01 1019,-148.01 1015.5,-158.01 1022.5,-158.01"/>
</g>
<!-- Node19 -->
<g id="node19" class="node">
<title>Node19</title>
<g id="a_node19"><a xlink:title=" ">
<polygon fill="white" stroke="#bfbfbf" points="1254,-0.5 1254,-19.5 1382,-19.5 1382,-0.5 1254,-0.5"/>
<text text-anchor="middle" x="1318" y="-7.5" font-family="Helvetica" font-size="10.00">boost/asio/ip/address.hpp</text>
</a>
</g>
</g>
<!-- Node13&#45;&gt;Node19 -->
<g id="edge20" class="edge">
<title>Node13&#45;&gt;Node19</title>
<path fill="none" stroke="midnightblue" d="M1083.01,-190.43C1115.59,-183.99 1154.79,-172.89 1186,-154 1240.77,-120.85 1286.78,-58.42 1306.99,-28.23"/>
<polygon fill="midnightblue" stroke="midnightblue" points="1310.07,-29.92 1312.63,-19.63 1304.22,-26.08 1310.07,-29.92"/>
</g>
<!-- Node20 -->
<g id="node20" class="node">
<title>Node20</title>
<g id="a_node20"><a xlink:title=" ">
<polygon fill="white" stroke="#bfbfbf" points="1096,-0.5 1096,-19.5 1236,-19.5 1236,-0.5 1096,-0.5"/>
<text text-anchor="middle" x="1166" y="-7.5" font-family="Helvetica" font-size="10.00">vsomeip/primitive_types.hpp</text>
</a>
</g>
</g>
<!-- Node13&#45;&gt;Node20 -->
<g id="edge22" class="edge">
<title>Node13&#45;&gt;Node20</title>
<path fill="none" stroke="midnightblue" d="M1059.06,-190.42C1108.11,-177.49 1188.86,-147.76 1223,-87 1229.75,-74.99 1229.01,-68.4 1223,-56 1216.6,-42.8 1204.25,-32.3 1192.67,-24.78"/>
<polygon fill="midnightblue" stroke="midnightblue" points="1194.45,-21.77 1184.08,-19.61 1190.84,-27.77 1194.45,-21.77"/>
</g>
<!-- Node13&#45;&gt;Node21 -->
<g id="edge23" class="edge">
<title>Node13&#45;&gt;Node21</title>
<path fill="none" stroke="midnightblue" d="M993.35,-190.48C962.38,-180.18 910.13,-162.81 875.35,-151.25"/>
<polygon fill="midnightblue" stroke="midnightblue" points="876.19,-147.84 865.6,-148.01 873.98,-154.48 876.19,-147.84"/>
</g>
<!-- Node24 -->
<g id="node24" class="node">
<title>Node24</title>
<g id="a_node24"><a xlink:href="types_8hpp.html" target="_top" xlink:title=" ">
<polygon fill="white" stroke="black" points="1154.5,-62 1154.5,-81 1213.5,-81 1213.5,-62 1154.5,-62"/>
<text text-anchor="middle" x="1184" y="-69" font-family="Helvetica" font-size="10.00">types.hpp</text>
</a>
</g>
</g>
<!-- Node13&#45;&gt;Node24 -->
<g id="edge44" class="edge">
<title>Node13&#45;&gt;Node24</title>
<path fill="none" stroke="midnightblue" d="M1030.34,-190.31C1058.13,-169 1129.87,-114 1164.6,-87.38"/>
<polygon fill="midnightblue" stroke="midnightblue" points="1166.77,-90.12 1172.58,-81.26 1162.51,-84.56 1166.77,-90.12"/>
</g>
<!-- Node21&#45;&gt;Node8 -->
<g id="edge26" class="edge">
<title>Node21&#45;&gt;Node8</title>
<path fill="none" stroke="midnightblue" d="M816.8,-128.86C793.92,-119.87 758.36,-104.67 730,-87 711.5,-75.47 711.68,-65.38 692,-56 624.01,-23.6 597.41,-37.67 520.45,-20.13"/>
<polygon fill="midnightblue" stroke="midnightblue" points="520.84,-16.62 510.3,-17.7 519.21,-23.43 520.84,-16.62"/>
</g>
<!-- Node21&#45;&gt;Node12 -->
<g id="edge43" class="edge">
<title>Node21&#45;&gt;Node12</title>
<path fill="none" stroke="midnightblue" d="M815,-128.93C769.26,-113.4 668.89,-79.98 583,-56 536.79,-43.1 483.52,-30.43 445.86,-21.84"/>
<polygon fill="midnightblue" stroke="midnightblue" points="446.2,-18.33 435.68,-19.53 444.65,-25.16 446.2,-18.33"/>
</g>
<!-- Node21&#45;&gt;Node14 -->
<g id="edge24" class="edge">
<title>Node21&#45;&gt;Node14</title>
<path fill="none" stroke="midnightblue" d="M901.53,-131.14C993.82,-121.31 1163.58,-101.99 1223,-87 1286.48,-70.99 1357.35,-41 1395.35,-23.87"/>
<polygon fill="midnightblue" stroke="midnightblue" points="1397.06,-26.93 1404.72,-19.6 1394.16,-20.56 1397.06,-26.93"/>
</g>
<!-- Node21&#45;&gt;Node17 -->
<g id="edge27" class="edge">
<title>Node21&#45;&gt;Node17</title>
<path fill="none" stroke="midnightblue" d="M901.71,-131.37C1014.97,-120 1247.76,-95.96 1284,-87 1347.51,-71.29 1418.16,-40.08 1454.47,-22.95"/>
<polygon fill="midnightblue" stroke="midnightblue" points="1456.25,-25.98 1463.77,-18.51 1453.24,-19.66 1456.25,-25.98"/>
</g>
<!-- Node21&#45;&gt;Node20 -->
<g id="edge28" class="edge">
<title>Node21&#45;&gt;Node20</title>
<path fill="none" stroke="midnightblue" d="M901.78,-130.42C968.22,-121.96 1068.79,-106.49 1102,-87 1126.1,-72.86 1145.33,-46.18 1156.2,-28.5"/>
<polygon fill="midnightblue" stroke="midnightblue" points="1159.3,-30.13 1161.36,-19.73 1153.27,-26.58 1159.3,-30.13"/>
</g>
<!-- Node22 -->
<g id="node22" class="node">
<title>Node22</title>
<g id="a_node22"><a xlink:title=" ">
<polygon fill="white" stroke="#bfbfbf" points="528.5,-0.5 528.5,-19.5 563.5,-19.5 563.5,-0.5 528.5,-0.5"/>
<text text-anchor="middle" x="546" y="-7.5" font-family="Helvetica" font-size="10.00">map</text>
</a>
</g>
</g>
<!-- Node21&#45;&gt;Node22 -->
<g id="edge25" class="edge">
<title>Node21&#45;&gt;Node22</title>
<path fill="none" stroke="midnightblue" d="M828.51,-128.79C801.44,-108.29 735.48,-58.52 730,-56 667.77,-27.34 643.98,-38.28 573.44,-19.82"/>
<polygon fill="midnightblue" stroke="midnightblue" points="574.21,-16.41 563.64,-17.15 572.37,-23.16 574.21,-16.41"/>
</g>
<!-- Node21&#45;&gt;Node23 -->
<g id="edge29" class="edge">
<title>Node21&#45;&gt;Node23</title>
<path fill="none" stroke="midnightblue" d="M840.27,-128.73C840.52,-120.54 840.91,-107.92 841.25,-96.71"/>
<polygon fill="midnightblue" stroke="midnightblue" points="844.76,-96.69 841.57,-86.59 837.76,-96.48 844.76,-96.69"/>
</g>
<!-- Node21&#45;&gt;Node24 -->
<g id="edge37" class="edge">
<title>Node21&#45;&gt;Node24</title>
<path fill="none" stroke="midnightblue" d="M901.75,-129.89C962.8,-121.72 1058.61,-107.14 1140,-87 1143.38,-86.16 1146.88,-85.19 1150.35,-84.16"/>
<polygon fill="midnightblue" stroke="midnightblue" points="1151.49,-87.47 1159.98,-81.14 1149.4,-80.8 1151.49,-87.47"/>
</g>
<!-- Node23&#45;&gt;Node8 -->
<g id="edge33" class="edge">
<title>Node23&#45;&gt;Node8</title>
<path fill="none" stroke="midnightblue" d="M782.38,-62.11C707.61,-51.43 582.6,-33.04 520.4,-20.03"/>
<polygon fill="midnightblue" stroke="midnightblue" points="520.78,-16.53 510.26,-17.83 519.29,-23.37 520.78,-16.53"/>
</g>
<!-- Node23&#45;&gt;Node12 -->
<g id="edge36" class="edge">
<title>Node23&#45;&gt;Node12</title>
<path fill="none" stroke="midnightblue" d="M782.27,-63.01C708.61,-53.7 579.3,-37.1 458.24,-20.15"/>
<polygon fill="midnightblue" stroke="midnightblue" points="458.44,-16.65 448.05,-18.72 457.47,-23.58 458.44,-16.65"/>
</g>
<!-- Node23&#45;&gt;Node14 -->
<g id="edge32" class="edge">
<title>Node23&#45;&gt;Node14</title>
<path fill="none" stroke="midnightblue" d="M901.63,-61.93C917.34,-59.83 934.29,-57.69 950,-56 1142.27,-35.26 1195.68,-54.13 1389.75,-19.89"/>
<polygon fill="midnightblue" stroke="midnightblue" points="1390.47,-23.32 1399.7,-18.11 1389.24,-16.43 1390.47,-23.32"/>
</g>
<!-- Node23&#45;&gt;Node16 -->
<g id="edge31" class="edge">
<title>Node23&#45;&gt;Node16</title>
<path fill="none" stroke="midnightblue" d="M786.84,-56.47C743,-45.33 682.89,-30.04 644.75,-20.34"/>
<polygon fill="midnightblue" stroke="midnightblue" points="645.16,-16.84 634.6,-17.76 643.43,-23.62 645.16,-16.84"/>
</g>
<!-- Node23&#45;&gt;Node19 -->
<g id="edge34" class="edge">
<title>Node23&#45;&gt;Node19</title>
<path fill="none" stroke="midnightblue" d="M901.68,-62.36C917.39,-60.25 934.33,-58.01 950,-56 1077.81,-39.62 1112.23,-36.24 1243.84,-20.14"/>
<polygon fill="midnightblue" stroke="midnightblue" points="1244.41,-23.6 1253.91,-18.91 1243.56,-16.65 1244.41,-23.6"/>
</g>
<!-- Node23&#45;&gt;Node20 -->
<g id="edge35" class="edge">
<title>Node23&#45;&gt;Node20</title>
<path fill="none" stroke="midnightblue" d="M901.8,-59.52C961.14,-48.62 1051.39,-32.05 1109.54,-21.37"/>
<polygon fill="midnightblue" stroke="midnightblue" points="1110.45,-24.76 1119.65,-19.51 1109.18,-17.88 1110.45,-24.76"/>
</g>
<!-- Node23&#45;&gt;Node22 -->
<g id="edge30" class="edge">
<title>Node23&#45;&gt;Node22</title>
<path fill="none" stroke="midnightblue" d="M782.24,-58.73C777.42,-57.8 772.63,-56.88 768,-56 684.47,-40.11 660.05,-41.84 573.34,-19.77"/>
<polygon fill="midnightblue" stroke="midnightblue" points="574.17,-16.37 563.61,-17.26 572.42,-23.15 574.17,-16.37"/>
</g>
<!-- Node24&#45;&gt;Node4 -->
<g id="edge42" class="edge">
<title>Node24&#45;&gt;Node4</title>
<path fill="none" stroke="midnightblue" d="M1213.56,-66.46C1282.08,-57.08 1453.27,-33.67 1549.86,-20.46"/>
<polygon fill="midnightblue" stroke="midnightblue" points="1550.4,-23.92 1559.83,-19.09 1549.45,-16.98 1550.4,-23.92"/>
</g>
<!-- Node24&#45;&gt;Node16 -->
<g id="edge39" class="edge">
<title>Node24&#45;&gt;Node16</title>
<path fill="none" stroke="midnightblue" d="M1154.25,-66.41C1131.06,-63.3 1098.02,-59.06 1069,-56 883.7,-36.48 832.73,-50.59 644.58,-19.81"/>
<polygon fill="midnightblue" stroke="midnightblue" points="645.07,-16.35 634.64,-18.17 643.93,-23.25 645.07,-16.35"/>
</g>
<!-- Node24&#45;&gt;Node19 -->
<g id="edge40" class="edge">
<title>Node24&#45;&gt;Node19</title>
<path fill="none" stroke="midnightblue" d="M1203.2,-61.98C1225.79,-51.95 1263.5,-35.2 1289.5,-23.65"/>
<polygon fill="midnightblue" stroke="midnightblue" points="1291.12,-26.77 1298.84,-19.51 1288.28,-20.37 1291.12,-26.77"/>
</g>
<!-- Node24&#45;&gt;Node20 -->
<g id="edge41" class="edge">
<title>Node24&#45;&gt;Node20</title>
<path fill="none" stroke="midnightblue" d="M1181.42,-61.98C1178.85,-53.49 1174.83,-40.2 1171.54,-29.32"/>
<polygon fill="midnightblue" stroke="midnightblue" points="1174.82,-28.07 1168.57,-19.51 1168.12,-30.09 1174.82,-28.07"/>
</g>
<!-- Node24&#45;&gt;Node22 -->
<g id="edge38" class="edge">
<title>Node24&#45;&gt;Node22</title>
<path fill="none" stroke="midnightblue" d="M1154.26,-66.31C1131.07,-63.15 1098.04,-58.88 1069,-56 852.28,-34.49 791.52,-62.44 573.38,-19.51"/>
<polygon fill="midnightblue" stroke="midnightblue" points="574.04,-16.07 563.55,-17.55 572.67,-22.94 574.04,-16.07"/>
</g>
<!-- Node25&#45;&gt;Node8 -->
<g id="edge49" class="edge">
<title>Node25&#45;&gt;Node8</title>
<path fill="none" stroke="midnightblue" d="M958.46,-62.48C943.23,-60.21 926.45,-57.85 911,-56 740.51,-35.57 692.67,-51.91 520.15,-19.87"/>
<polygon fill="midnightblue" stroke="midnightblue" points="520.7,-16.42 510.23,-18 519.41,-23.3 520.7,-16.42"/>
</g>
<!-- Node25&#45;&gt;Node14 -->
<g id="edge51" class="edge">
<title>Node25&#45;&gt;Node14</title>
<path fill="none" stroke="midnightblue" d="M1059.67,-64.71C1144.49,-54.88 1312.74,-34.72 1389.47,-20.01"/>
<polygon fill="midnightblue" stroke="midnightblue" points="1390.55,-23.37 1399.68,-17.98 1389.18,-16.5 1390.55,-23.37"/>
</g>
<!-- Node25&#45;&gt;Node15 -->
<g id="edge46" class="edge">
<title>Node25&#45;&gt;Node15</title>
<path fill="none" stroke="midnightblue" d="M1059.74,-65.07C1085.56,-62.32 1117.45,-58.95 1146,-56 1301.37,-39.94 1345.9,-55.63 1502.48,-19.47"/>
<polygon fill="midnightblue" stroke="midnightblue" points="1503.53,-22.82 1512.46,-17.13 1501.93,-16.01 1503.53,-22.82"/>
</g>
<!-- Node25&#45;&gt;Node16 -->
<g id="edge48" class="edge">
<title>Node25&#45;&gt;Node16</title>
<path fill="none" stroke="midnightblue" d="M973.71,-61.95C964.11,-59.81 953.69,-57.66 944,-56 814.87,-33.91 777.86,-43.82 644.83,-19.92"/>
<polygon fill="midnightblue" stroke="midnightblue" points="645.12,-16.41 634.65,-18.06 643.86,-23.3 645.12,-16.41"/>
</g>
<!-- Node25&#45;&gt;Node17 -->
<g id="edge50" class="edge">
<title>Node25&#45;&gt;Node17</title>
<path fill="none" stroke="midnightblue" d="M1059.7,-65.1C1164.16,-53.92 1397.71,-28.7 1453.98,-19.24"/>
<polygon fill="midnightblue" stroke="midnightblue" points="1454.8,-22.65 1463.94,-17.29 1453.45,-15.78 1454.8,-22.65"/>
</g>
<!-- Node25&#45;&gt;Node19 -->
<g id="edge52" class="edge">
<title>Node25&#45;&gt;Node19</title>
<path fill="none" stroke="midnightblue" d="M1053.27,-61.98C1108.8,-51.28 1203.97,-32.96 1263.8,-21.44"/>
<polygon fill="midnightblue" stroke="midnightblue" points="1264.65,-24.84 1273.81,-19.51 1263.33,-17.96 1264.65,-24.84"/>
</g>
<!-- Node25&#45;&gt;Node20 -->
<g id="edge54" class="edge">
<title>Node25&#45;&gt;Node20</title>
<path fill="none" stroke="midnightblue" d="M1031.49,-61.98C1058.31,-51.81 1103.32,-34.76 1133.81,-23.2"/>
<polygon fill="midnightblue" stroke="midnightblue" points="1135.44,-26.33 1143.55,-19.51 1132.96,-19.78 1135.44,-26.33"/>
</g>
<!-- Node25&#45;&gt;Node22 -->
<g id="edge47" class="edge">
<title>Node25&#45;&gt;Node22</title>
<path fill="none" stroke="midnightblue" d="M958.44,-62.62C943.21,-60.35 926.44,-57.96 911,-56 764.36,-37.35 722.42,-51.44 573.53,-19.62"/>
<polygon fill="midnightblue" stroke="midnightblue" points="574.08,-16.16 563.57,-17.46 572.6,-23 574.08,-16.16"/>
</g>
<!-- Node26 -->
<g id="node26" class="node">
<title>Node26</title>
<g id="a_node26"><a xlink:title=" ">
<polygon fill="white" stroke="#bfbfbf" points="653,-0.5 653,-19.5 793,-19.5 793,-0.5 653,-0.5"/>
<text text-anchor="middle" x="723" y="-7.5" font-family="Helvetica" font-size="10.00">boost/asio/steady_timer.hpp</text>
</a>
</g>
</g>
<!-- Node25&#45;&gt;Node26 -->
<g id="edge53" class="edge">
<title>Node25&#45;&gt;Node26</title>
<path fill="none" stroke="midnightblue" d="M971.22,-61.95C962.3,-59.96 952.82,-57.88 944,-56 886.8,-43.8 821.12,-30.52 776.32,-21.57"/>
<polygon fill="midnightblue" stroke="midnightblue" points="776.74,-18.08 766.24,-19.56 775.37,-24.95 776.74,-18.08"/>
</g>
<!-- Node27 -->
<g id="node27" class="node">
<title>Node27</title>
<g id="a_node27"><a xlink:title=" ">
<polygon fill="white" stroke="#bfbfbf" points="811.5,-0.5 811.5,-19.5 950.5,-19.5 950.5,-0.5 811.5,-0.5"/>
<text text-anchor="middle" x="881" y="-7.5" font-family="Helvetica" font-size="10.00">vsomeip/function_types.hpp</text>
</a>
</g>
</g>
<!-- Node25&#45;&gt;Node27 -->
<g id="edge55" class="edge">
<title>Node25&#45;&gt;Node27</title>
<path fill="none" stroke="midnightblue" d="M990.66,-61.98C969.18,-51.99 933.38,-35.35 908.55,-23.81"/>
<polygon fill="midnightblue" stroke="midnightblue" points="909.85,-20.55 899.31,-19.51 906.9,-26.9 909.85,-20.55"/>
</g>
<!-- Node28 -->
<g id="node28" class="node">
<title>Node28</title>
<g id="a_node28"><a xlink:title=" ">
<polygon fill="white" stroke="#bfbfbf" points="968.5,-0.5 968.5,-19.5 1077.5,-19.5 1077.5,-0.5 968.5,-0.5"/>
<text text-anchor="middle" x="1023" y="-7.5" font-family="Helvetica" font-size="10.00">vsomeip/payload.hpp</text>
</a>
</g>
</g>
<!-- Node25&#45;&gt;Node28 -->
<g id="edge56" class="edge">
<title>Node25&#45;&gt;Node28</title>
<path fill="none" stroke="midnightblue" d="M1011.01,-61.98C1013,-53.49 1016.13,-40.2 1018.69,-29.32"/>
<polygon fill="midnightblue" stroke="midnightblue" points="1022.11,-30.04 1021,-19.51 1015.3,-28.44 1022.11,-30.04"/>
</g>
<!-- Node29&#45;&gt;Node7 -->
<g id="edge59" class="edge">
<title>Node29&#45;&gt;Node7</title>
<path fill="none" stroke="midnightblue" d="M457.96,-123.48C410.58,-98.92 313.2,-48.43 266.75,-24.35"/>
<polygon fill="midnightblue" stroke="midnightblue" points="268.14,-21.13 257.65,-19.63 264.91,-27.34 268.14,-21.13"/>
</g>
<!-- Node29&#45;&gt;Node16 -->
<g id="edge61" class="edge">
<title>Node29&#45;&gt;Node16</title>
<path fill="none" stroke="midnightblue" d="M528.93,-123.44C547.85,-115.43 568.84,-103.6 583,-87 596.92,-70.69 603.14,-46.41 605.89,-29.71"/>
<polygon fill="midnightblue" stroke="midnightblue" points="609.39,-29.93 607.29,-19.55 602.46,-28.98 609.39,-29.93"/>
</g>
<!-- Node29&#45;&gt;Node20 -->
<g id="edge62" class="edge">
<title>Node29&#45;&gt;Node20</title>
<path fill="none" stroke="midnightblue" d="M537.17,-134.95C671.31,-128.1 1021.09,-108.41 1069,-87 1087.37,-78.79 1086.4,-68.71 1102,-56 1115.47,-45.03 1131.47,-33.78 1144.09,-25.28"/>
<polygon fill="midnightblue" stroke="midnightblue" points="1146.22,-28.06 1152.61,-19.61 1142.35,-22.24 1146.22,-28.06"/>
</g>
<!-- Node30 -->
<g id="node30" class="node">
<title>Node30</title>
<g id="a_node30"><a xlink:title=" ">
<polygon fill="white" stroke="#bfbfbf" points="416,-62 416,-81 456,-81 456,-62 416,-62"/>
<text text-anchor="middle" x="436" y="-69" font-family="Helvetica" font-size="10.00">limits</text>
</a>
</g>
</g>
<!-- Node29&#45;&gt;Node30 -->
<g id="edge60" class="edge">
<title>Node29&#45;&gt;Node30</title>
<path fill="none" stroke="midnightblue" d="M474.37,-123.4C466.8,-113.36 456.61,-99.84 448.63,-89.25"/>
<polygon fill="midnightblue" stroke="midnightblue" points="451.37,-87.07 442.55,-81.19 445.78,-91.29 451.37,-87.07"/>
</g>
<!-- Node31 -->
<g id="node31" class="node">
<title>Node31</title>
<g id="a_node31"><a xlink:href="structured__types_8hpp.html" target="_top" xlink:title=" ">
<polygon fill="white" stroke="black" points="474,-56.5 474,-86.5 574,-86.5 574,-56.5 474,-56.5"/>
<text text-anchor="start" x="482" y="-74.5" font-family="Helvetica" font-size="10.00">vsomeip/structured</text>
<text text-anchor="middle" x="524" y="-63.5" font-family="Helvetica" font-size="10.00">_types.hpp</text>
</a>
</g>
</g>
<!-- Node29&#45;&gt;Node31 -->
<g id="edge63" class="edge">
<title>Node29&#45;&gt;Node31</title>
<path fill="none" stroke="midnightblue" d="M493.46,-123.4C498.37,-115.22 504.66,-104.73 510.26,-95.39"/>
<polygon fill="midnightblue" stroke="midnightblue" points="513.41,-96.95 515.55,-86.58 507.41,-93.35 513.41,-96.95"/>
</g>
<!-- Node31&#45;&gt;Node6 -->
<g id="edge64" class="edge">
<title>Node31&#45;&gt;Node6</title>
<path fill="none" stroke="midnightblue" d="M473.96,-57.14C438.48,-47.63 389.51,-34.44 337.76,-20.19"/>
<polygon fill="midnightblue" stroke="midnightblue" points="338.63,-16.8 328.06,-17.52 336.77,-23.55 338.63,-16.8"/>
</g>
<!-- Node31&#45;&gt;Node22 -->
<g id="edge65" class="edge">
<title>Node31&#45;&gt;Node22</title>
<path fill="none" stroke="midnightblue" d="M529.21,-56.4C532.21,-48.29 536.01,-38.01 539.24,-29.28"/>
<polygon fill="midnightblue" stroke="midnightblue" points="542.61,-30.25 542.8,-19.66 536.05,-27.82 542.61,-30.25"/>
</g>
</g>
</svg>
