<?xml version="1.0" encoding="UTF-8" standalone="no"?>
<!DOCTYPE svg PUBLIC "-//W3C//DTD SVG 1.1//EN"
 "http://www.w3.org/Graphics/SVG/1.1/DTD/svg11.dtd">
<!-- Generated by graphviz version 2.44.0 (0)
 -->
<!-- Title: /home/ec2&#45;user/workspace/vsomeip/implementation/service_discovery/include/eventgroupentry_impl.hpp Pages: 1 -->
<svg width="1231pt" height="307pt"
 viewBox="0.00 0.00 1230.88 307.00" xmlns="http://www.w3.org/2000/svg" xmlns:xlink="http://www.w3.org/1999/xlink">
<g id="graph0" class="graph" transform="scale(1 1) rotate(0) translate(4 303)">
<title>/home/ec2&#45;user/workspace/vsomeip/implementation/service_discovery/include/eventgroupentry_impl.hpp</title>
<polygon fill="white" stroke="transparent" points="-4,4 -4,-303 1226.88,-303 1226.88,4 -4,4"/>
<!-- Node1 -->
<g id="node1" class="node">
<title>Node1</title>
<g id="a_node1"><a xlink:title=" ">
<polygon fill="#bfbfbf" stroke="black" points="550.38,-246.5 550.38,-298.5 684.38,-298.5 684.38,-246.5 550.38,-246.5"/>
<text text-anchor="start" x="558.38" y="-286.5" font-family="Helvetica" font-size="10.00">/home/ec2&#45;user/workspace</text>
<text text-anchor="start" x="558.38" y="-275.5" font-family="Helvetica" font-size="10.00">/vsomeip/implementation</text>
<text text-anchor="start" x="558.38" y="-264.5" font-family="Helvetica" font-size="10.00">/service_discovery/include</text>
<text text-anchor="middle" x="617.38" y="-253.5" font-family="Helvetica" font-size="10.00">/eventgroupentry_impl.hpp</text>
</a>
</g>
</g>
<!-- Node2 -->
<g id="node2" class="node">
<title>Node2</title>
<g id="a_node2"><a xlink:href="entry__impl_8hpp.html" target="_top" xlink:title=" ">
<polygon fill="white" stroke="black" points="227.88,-190.5 227.88,-209.5 308.88,-209.5 308.88,-190.5 227.88,-190.5"/>
<text text-anchor="middle" x="268.38" y="-197.5" font-family="Helvetica" font-size="10.00">entry_impl.hpp</text>
</a>
</g>
</g>
<!-- Node1&#45;&gt;Node2 -->
<g id="edge1" class="edge">
<title>Node1&#45;&gt;Node2</title>
<path fill="none" stroke="midnightblue" d="M550.09,-257.91C482.68,-244.29 380.43,-223.63 319.43,-211.31"/>
<polygon fill="midnightblue" stroke="midnightblue" points="319.76,-207.81 309.27,-209.26 318.38,-214.67 319.76,-207.81"/>
</g>
<!-- Node10 -->
<g id="node10" class="node">
<title>Node10</title>
<g id="a_node10"><a xlink:href="endpoint__definition_8hpp.html" target="_top" xlink:title=" ">
<polygon fill="white" stroke="black" points="596.88,-123.5 596.88,-153.5 715.88,-153.5 715.88,-123.5 596.88,-123.5"/>
<text text-anchor="start" x="604.88" y="-141.5" font-family="Helvetica" font-size="10.00">../../endpoints/include</text>
<text text-anchor="middle" x="656.38" y="-130.5" font-family="Helvetica" font-size="10.00">/endpoint_definition.hpp</text>
</a>
</g>
</g>
<!-- Node1&#45;&gt;Node10 -->
<g id="edge9" class="edge">
<title>Node1&#45;&gt;Node10</title>
<path fill="none" stroke="midnightblue" d="M622.25,-246.27C625.64,-230.04 630.57,-208.58 636.38,-190 639.14,-181.17 642.72,-171.69 646.09,-163.36"/>
<polygon fill="midnightblue" stroke="midnightblue" points="649.42,-164.46 650.02,-153.88 642.96,-161.77 649.42,-164.46"/>
</g>
<!-- Node16 -->
<g id="node16" class="node">
<title>Node16</title>
<g id="a_node16"><a xlink:href="service__discovery_2include_2message__impl_8hpp.html" target="_top" xlink:title=" ">
<polygon fill="white" stroke="black" points="645.38,-190.5 645.38,-209.5 743.38,-209.5 743.38,-190.5 645.38,-190.5"/>
<text text-anchor="middle" x="694.38" y="-197.5" font-family="Helvetica" font-size="10.00">message_impl.hpp</text>
</a>
</g>
</g>
<!-- Node1&#45;&gt;Node16 -->
<g id="edge17" class="edge">
<title>Node1&#45;&gt;Node16</title>
<path fill="none" stroke="midnightblue" d="M644.74,-246.45C655.58,-236.53 667.7,-225.43 677.25,-216.69"/>
<polygon fill="midnightblue" stroke="midnightblue" points="679.87,-219.03 684.88,-209.7 675.14,-213.87 679.87,-219.03"/>
</g>
<!-- Node3 -->
<g id="node3" class="node">
<title>Node3</title>
<g id="a_node3"><a xlink:title=" ">
<polygon fill="white" stroke="#bfbfbf" points="336.88,-67.5 336.88,-86.5 389.88,-86.5 389.88,-67.5 336.88,-67.5"/>
<text text-anchor="middle" x="363.38" y="-74.5" font-family="Helvetica" font-size="10.00">memory</text>
</a>
</g>
</g>
<!-- Node2&#45;&gt;Node3 -->
<g id="edge2" class="edge">
<title>Node2&#45;&gt;Node3</title>
<path fill="none" stroke="midnightblue" d="M287.89,-190.39C303.04,-182.8 323.56,-170.39 336.38,-154 349.56,-137.15 356.62,-113.35 360.18,-96.89"/>
<polygon fill="midnightblue" stroke="midnightblue" points="363.66,-97.33 362.11,-86.85 356.78,-96.01 363.66,-97.33"/>
</g>
<!-- Node4 -->
<g id="node4" class="node">
<title>Node4</title>
<g id="a_node4"><a xlink:title=" ">
<polygon fill="white" stroke="#bfbfbf" points="383.88,-129 383.88,-148 426.88,-148 426.88,-129 383.88,-129"/>
<text text-anchor="middle" x="405.38" y="-136" font-family="Helvetica" font-size="10.00">vector</text>
</a>
</g>
</g>
<!-- Node2&#45;&gt;Node4 -->
<g id="edge3" class="edge">
<title>Node2&#45;&gt;Node4</title>
<path fill="none" stroke="midnightblue" d="M288.01,-190.48C311.2,-180.4 350,-163.55 376.59,-152"/>
<polygon fill="midnightblue" stroke="midnightblue" points="378.01,-155.2 385.79,-148.01 375.22,-148.78 378.01,-155.2"/>
</g>
<!-- Node5 -->
<g id="node5" class="node">
<title>Node5</title>
<g id="a_node5"><a xlink:title=" ">
<polygon fill="white" stroke="#bfbfbf" points="348.38,-6 348.38,-25 488.38,-25 488.38,-6 348.38,-6"/>
<text text-anchor="middle" x="418.38" y="-13" font-family="Helvetica" font-size="10.00">vsomeip/primitive_types.hpp</text>
</a>
</g>
</g>
<!-- Node2&#45;&gt;Node5 -->
<g id="edge4" class="edge">
<title>Node2&#45;&gt;Node5</title>
<path fill="none" stroke="midnightblue" d="M227.87,-198.16C161.51,-195.82 34.23,-187.04 6.38,-154 -2.5,-143.47 -1.6,-134.23 6.38,-123 44.57,-69.28 229.67,-38.71 338.34,-25.11"/>
<polygon fill="midnightblue" stroke="midnightblue" points="338.79,-28.58 348.29,-23.89 337.94,-21.64 338.79,-28.58"/>
</g>
<!-- Node6 -->
<g id="node6" class="node">
<title>Node6</title>
<g id="a_node6"><a xlink:title=" ">
<polygon fill="white" stroke="#bfbfbf" points="628.38,-6 628.38,-25 786.38,-25 786.38,-6 628.38,-6"/>
<text text-anchor="middle" x="707.38" y="-13" font-family="Helvetica" font-size="10.00">vsomeip/internal/serializable.hpp</text>
</a>
</g>
</g>
<!-- Node2&#45;&gt;Node6 -->
<g id="edge5" class="edge">
<title>Node2&#45;&gt;Node6</title>
<path fill="none" stroke="midnightblue" d="M244.93,-190.41C229.22,-183.28 209.76,-171.46 200.38,-154 179.37,-114.91 210.04,-87.53 249.38,-67 281.24,-50.38 494.04,-32.21 618.06,-22.85"/>
<polygon fill="midnightblue" stroke="midnightblue" points="618.6,-26.32 628.31,-22.09 618.07,-19.34 618.6,-26.32"/>
</g>
<!-- Node7 -->
<g id="node7" class="node">
<title>Node7</title>
<g id="a_node7"><a xlink:href="implementation_2service__discovery_2include_2enumeration__types_8hpp.html" target="_top" xlink:title=" ">
<polygon fill="white" stroke="black" points="209.38,-129 209.38,-148 327.38,-148 327.38,-129 209.38,-129"/>
<text text-anchor="middle" x="268.38" y="-136" font-family="Helvetica" font-size="10.00">enumeration_types.hpp</text>
</a>
</g>
</g>
<!-- Node2&#45;&gt;Node7 -->
<g id="edge6" class="edge">
<title>Node2&#45;&gt;Node7</title>
<path fill="none" stroke="midnightblue" d="M268.38,-190.48C268.38,-182.08 268.38,-168.98 268.38,-158.16"/>
<polygon fill="midnightblue" stroke="midnightblue" points="271.88,-158.01 268.38,-148.01 264.88,-158.01 271.88,-158.01"/>
</g>
<!-- Node9 -->
<g id="node9" class="node">
<title>Node9</title>
<g id="a_node9"><a xlink:href="message__element__impl_8hpp.html" target="_top" xlink:title=" ">
<polygon fill="white" stroke="black" points="15.38,-129 15.38,-148 153.38,-148 153.38,-129 15.38,-129"/>
<text text-anchor="middle" x="84.38" y="-136" font-family="Helvetica" font-size="10.00">message_element_impl.hpp</text>
</a>
</g>
</g>
<!-- Node2&#45;&gt;Node9 -->
<g id="edge8" class="edge">
<title>Node2&#45;&gt;Node9</title>
<path fill="none" stroke="midnightblue" d="M242.02,-190.48C210.04,-180.14 156,-162.66 120.26,-151.1"/>
<polygon fill="midnightblue" stroke="midnightblue" points="121.29,-147.76 110.69,-148.01 119.13,-154.42 121.29,-147.76"/>
</g>
<!-- Node8 -->
<g id="node8" class="node">
<title>Node8</title>
<g id="a_node8"><a xlink:title=" ">
<polygon fill="white" stroke="#bfbfbf" points="258.38,-67.5 258.38,-86.5 304.38,-86.5 304.38,-67.5 258.38,-67.5"/>
<text text-anchor="middle" x="281.38" y="-74.5" font-family="Helvetica" font-size="10.00">cstdint</text>
</a>
</g>
</g>
<!-- Node7&#45;&gt;Node8 -->
<g id="edge7" class="edge">
<title>Node7&#45;&gt;Node8</title>
<path fill="none" stroke="midnightblue" d="M270.24,-128.98C272.1,-120.49 275,-107.2 277.38,-96.32"/>
<polygon fill="midnightblue" stroke="midnightblue" points="280.81,-97.03 279.52,-86.51 273.97,-95.53 280.81,-97.03"/>
</g>
<!-- Node10&#45;&gt;Node3 -->
<g id="edge11" class="edge">
<title>Node10&#45;&gt;Node3</title>
<path fill="none" stroke="midnightblue" d="M596.86,-125.7C534.39,-113.3 440.35,-94.55 404.38,-87 403.1,-86.73 401.79,-86.45 400.47,-86.17"/>
<polygon fill="midnightblue" stroke="midnightblue" points="400.78,-82.66 390.27,-83.98 399.31,-89.5 400.78,-82.66"/>
</g>
<!-- Node10&#45;&gt;Node5 -->
<g id="edge15" class="edge">
<title>Node10&#45;&gt;Node5</title>
<path fill="none" stroke="midnightblue" d="M596.65,-125.31C533.83,-112.24 443.22,-92.63 437.38,-87 423.57,-73.69 419.45,-51.49 418.39,-35.56"/>
<polygon fill="midnightblue" stroke="midnightblue" points="421.88,-35.16 418.06,-25.28 414.88,-35.39 421.88,-35.16"/>
</g>
<!-- Node11 -->
<g id="node11" class="node">
<title>Node11</title>
<g id="a_node11"><a xlink:title=" ">
<polygon fill="white" stroke="#bfbfbf" points="446.88,-67.5 446.88,-86.5 481.88,-86.5 481.88,-67.5 446.88,-67.5"/>
<text text-anchor="middle" x="464.38" y="-74.5" font-family="Helvetica" font-size="10.00">map</text>
</a>
</g>
</g>
<!-- Node10&#45;&gt;Node11 -->
<g id="edge10" class="edge">
<title>Node10&#45;&gt;Node11</title>
<path fill="none" stroke="midnightblue" d="M609.34,-123.44C578.47,-114.14 537,-101.49 491.78,-87.07"/>
<polygon fill="midnightblue" stroke="midnightblue" points="492.67,-83.68 482.08,-83.97 490.54,-90.35 492.67,-83.68"/>
</g>
<!-- Node12 -->
<g id="node12" class="node">
<title>Node12</title>
<g id="a_node12"><a xlink:title=" ">
<polygon fill="white" stroke="#bfbfbf" points="684.38,-67.5 684.38,-86.5 730.38,-86.5 730.38,-67.5 684.38,-67.5"/>
<text text-anchor="middle" x="707.38" y="-74.5" font-family="Helvetica" font-size="10.00">atomic</text>
</a>
</g>
</g>
<!-- Node10&#45;&gt;Node12 -->
<g id="edge12" class="edge">
<title>Node10&#45;&gt;Node12</title>
<path fill="none" stroke="midnightblue" d="M668.47,-123.4C675.95,-114.66 685.6,-103.41 693.41,-94.3"/>
<polygon fill="midnightblue" stroke="midnightblue" points="696.11,-96.53 699.96,-86.66 690.79,-91.97 696.11,-96.53"/>
</g>
<!-- Node13 -->
<g id="node13" class="node">
<title>Node13</title>
<g id="a_node13"><a xlink:title=" ">
<polygon fill="white" stroke="#bfbfbf" points="748.38,-67.5 748.38,-86.5 792.38,-86.5 792.38,-67.5 748.38,-67.5"/>
<text text-anchor="middle" x="770.38" y="-74.5" font-family="Helvetica" font-size="10.00">mutex</text>
</a>
</g>
</g>
<!-- Node10&#45;&gt;Node13 -->
<g id="edge13" class="edge">
<title>Node10&#45;&gt;Node13</title>
<path fill="none" stroke="midnightblue" d="M683.4,-123.4C702.01,-113.68 726.59,-100.86 744.87,-91.31"/>
<polygon fill="midnightblue" stroke="midnightblue" points="746.55,-94.39 753.79,-86.66 743.31,-88.18 746.55,-94.39"/>
</g>
<!-- Node14 -->
<g id="node14" class="node">
<title>Node14</title>
<g id="a_node14"><a xlink:title=" ">
<polygon fill="white" stroke="#bfbfbf" points="500.38,-67.5 500.38,-86.5 628.38,-86.5 628.38,-67.5 500.38,-67.5"/>
<text text-anchor="middle" x="564.38" y="-74.5" font-family="Helvetica" font-size="10.00">boost/asio/ip/address.hpp</text>
</a>
</g>
</g>
<!-- Node10&#45;&gt;Node14 -->
<g id="edge14" class="edge">
<title>Node10&#45;&gt;Node14</title>
<path fill="none" stroke="midnightblue" d="M634.58,-123.4C619.97,-113.95 600.81,-101.56 586.19,-92.11"/>
<polygon fill="midnightblue" stroke="midnightblue" points="588.06,-89.15 577.77,-86.66 584.26,-95.03 588.06,-89.15"/>
</g>
<!-- Node15 -->
<g id="node15" class="node">
<title>Node15</title>
<g id="a_node15"><a xlink:title=" ">
<polygon fill="white" stroke="#bfbfbf" points="1006.38,-6 1006.38,-25 1108.38,-25 1108.38,-6 1006.38,-6"/>
<text text-anchor="middle" x="1057.38" y="-13" font-family="Helvetica" font-size="10.00">vsomeip/export.hpp</text>
</a>
</g>
</g>
<!-- Node10&#45;&gt;Node15 -->
<g id="edge16" class="edge">
<title>Node10&#45;&gt;Node15</title>
<path fill="none" stroke="midnightblue" d="M655.84,-123.44C656.05,-107.21 659.13,-80.96 675.38,-67 730.01,-20.1 926.47,-43.48 997.38,-31 1003.26,-29.96 1009.43,-28.69 1015.47,-27.34"/>
<polygon fill="midnightblue" stroke="midnightblue" points="1016.52,-30.69 1025.46,-25 1014.93,-23.87 1016.52,-30.69"/>
</g>
<!-- Node16&#45;&gt;Node3 -->
<g id="edge19" class="edge">
<title>Node16&#45;&gt;Node3</title>
<path fill="none" stroke="midnightblue" d="M668.8,-190.48C646.51,-182.55 613.73,-169.61 587.38,-154 568.33,-142.71 568.27,-132.73 548.38,-123 522.5,-110.34 446.09,-94.05 399.96,-84.95"/>
<polygon fill="midnightblue" stroke="midnightblue" points="400.54,-81.5 390.05,-83.02 399.19,-88.37 400.54,-81.5"/>
</g>
<!-- Node16&#45;&gt;Node4 -->
<g id="edge21" class="edge">
<title>Node16&#45;&gt;Node4</title>
<path fill="none" stroke="midnightblue" d="M645.2,-194.57C592.36,-188.86 506.42,-176.84 435.38,-154 433.71,-153.46 432.02,-152.85 430.34,-152.19"/>
<polygon fill="midnightblue" stroke="midnightblue" points="431.48,-148.87 420.92,-148.02 428.65,-155.27 431.48,-148.87"/>
</g>
<!-- Node16&#45;&gt;Node10 -->
<g id="edge34" class="edge">
<title>Node16&#45;&gt;Node10</title>
<path fill="none" stroke="midnightblue" d="M688.94,-190.48C684.22,-183.09 677.19,-172.08 670.86,-162.17"/>
<polygon fill="midnightblue" stroke="midnightblue" points="673.67,-160.07 665.34,-153.52 667.77,-163.83 673.67,-160.07"/>
</g>
<!-- Node16&#45;&gt;Node12 -->
<g id="edge18" class="edge">
<title>Node16&#45;&gt;Node12</title>
<path fill="none" stroke="midnightblue" d="M702.86,-190.23C710.43,-181.75 720.98,-168.13 725.38,-154 731.53,-134.25 723.95,-111.04 716.83,-95.52"/>
<polygon fill="midnightblue" stroke="midnightblue" points="719.95,-93.93 712.36,-86.54 713.68,-97.05 719.95,-93.93"/>
</g>
<!-- Node16&#45;&gt;Node13 -->
<g id="edge20" class="edge">
<title>Node16&#45;&gt;Node13</title>
<path fill="none" stroke="midnightblue" d="M705.54,-190.41C715.77,-182.05 730.74,-168.52 740.38,-154 752.37,-135.95 760.73,-112.38 765.53,-96.31"/>
<polygon fill="midnightblue" stroke="midnightblue" points="768.94,-97.11 768.28,-86.54 762.2,-95.21 768.94,-97.11"/>
</g>
<!-- Node17 -->
<g id="node17" class="node">
<title>Node17</title>
<g id="a_node17"><a xlink:title=" ">
<polygon fill="white" stroke="#bfbfbf" points="810.88,-67.5 810.88,-86.5 925.88,-86.5 925.88,-67.5 810.88,-67.5"/>
<text text-anchor="middle" x="868.38" y="-74.5" font-family="Helvetica" font-size="10.00">vsomeip/message.hpp</text>
</a>
</g>
</g>
<!-- Node16&#45;&gt;Node17 -->
<g id="edge22" class="edge">
<title>Node16&#45;&gt;Node17</title>
<path fill="none" stroke="midnightblue" d="M707.29,-190.47C720.83,-181.49 742.7,-166.9 761.38,-154 791.89,-132.92 826.85,-107.93 848.28,-92.52"/>
<polygon fill="midnightblue" stroke="midnightblue" points="850.51,-95.22 856.58,-86.54 846.42,-89.54 850.51,-95.22"/>
</g>
<!-- Node18 -->
<g id="node18" class="node">
<title>Node18</title>
<g id="a_node18"><a xlink:href="implementation_2service__discovery_2include_2primitive__types_8hpp.html" target="_top" xlink:title=" ">
<polygon fill="white" stroke="black" points="444.88,-123.5 444.88,-153.5 539.88,-153.5 539.88,-123.5 444.88,-123.5"/>
<text text-anchor="start" x="452.88" y="-141.5" font-family="Helvetica" font-size="10.00">../include/primitive</text>
<text text-anchor="middle" x="492.38" y="-130.5" font-family="Helvetica" font-size="10.00">_types.hpp</text>
</a>
</g>
</g>
<!-- Node16&#45;&gt;Node18 -->
<g id="edge23" class="edge">
<title>Node16&#45;&gt;Node18</title>
<path fill="none" stroke="midnightblue" d="M665.44,-190.48C635.4,-181.63 587.6,-167.55 549.85,-156.43"/>
<polygon fill="midnightblue" stroke="midnightblue" points="550.57,-152.99 539.99,-153.52 548.59,-159.71 550.57,-152.99"/>
</g>
<!-- Node19 -->
<g id="node19" class="node">
<title>Node19</title>
<g id="a_node19"><a xlink:href="message_2include_2message__base__impl_8hpp.html" target="_top" xlink:title=" ">
<polygon fill="white" stroke="black" points="946.38,-123.5 946.38,-153.5 1074.38,-153.5 1074.38,-123.5 946.38,-123.5"/>
<text text-anchor="start" x="954.38" y="-141.5" font-family="Helvetica" font-size="10.00">../../message/include</text>
<text text-anchor="middle" x="1010.38" y="-130.5" font-family="Helvetica" font-size="10.00">/message_base_impl.hpp</text>
</a>
</g>
</g>
<!-- Node16&#45;&gt;Node19 -->
<g id="edge25" class="edge">
<title>Node16&#45;&gt;Node19</title>
<path fill="none" stroke="midnightblue" d="M739.65,-190.48C790.98,-180.81 875.42,-164.91 936.37,-153.44"/>
<polygon fill="midnightblue" stroke="midnightblue" points="937.14,-156.85 946.31,-151.56 935.84,-149.97 937.14,-156.85"/>
</g>
<!-- Node18&#45;&gt;Node8 -->
<g id="edge24" class="edge">
<title>Node18&#45;&gt;Node8</title>
<path fill="none" stroke="midnightblue" d="M444.76,-124.07C404.94,-112.84 349.17,-97.12 314.18,-87.25"/>
<polygon fill="midnightblue" stroke="midnightblue" points="315.03,-83.85 304.46,-84.51 313.13,-90.59 315.03,-83.85"/>
</g>
<!-- Node19&#45;&gt;Node15 -->
<g id="edge27" class="edge">
<title>Node19&#45;&gt;Node15</title>
<path fill="none" stroke="midnightblue" d="M1045.52,-123.45C1060.99,-115.29 1077.62,-103.34 1086.38,-87 1096,-69.06 1083.59,-47.23 1072.15,-32.66"/>
<polygon fill="midnightblue" stroke="midnightblue" points="1074.82,-30.39 1065.7,-25 1069.47,-34.9 1074.82,-30.39"/>
</g>
<!-- Node19&#45;&gt;Node17 -->
<g id="edge28" class="edge">
<title>Node19&#45;&gt;Node17</title>
<path fill="none" stroke="midnightblue" d="M976.73,-123.4C952.9,-113.42 921.23,-100.15 898.29,-90.53"/>
<polygon fill="midnightblue" stroke="midnightblue" points="899.62,-87.29 889.04,-86.66 896.91,-93.75 899.62,-87.29"/>
</g>
<!-- Node20 -->
<g id="node20" class="node">
<title>Node20</title>
<g id="a_node20"><a xlink:title=" ">
<polygon fill="white" stroke="#bfbfbf" points="1133.88,-67.5 1133.88,-86.5 1222.88,-86.5 1222.88,-67.5 1133.88,-67.5"/>
<text text-anchor="middle" x="1178.38" y="-74.5" font-family="Helvetica" font-size="10.00">boost/thread.hpp</text>
</a>
</g>
</g>
<!-- Node19&#45;&gt;Node20 -->
<g id="edge26" class="edge">
<title>Node19&#45;&gt;Node20</title>
<path fill="none" stroke="midnightblue" d="M1050.19,-123.4C1078.88,-113.24 1117.19,-99.67 1144.43,-90.02"/>
<polygon fill="midnightblue" stroke="midnightblue" points="1145.68,-93.3 1153.93,-86.66 1143.34,-86.7 1145.68,-93.3"/>
</g>
<!-- Node21 -->
<g id="node21" class="node">
<title>Node21</title>
<g id="a_node21"><a xlink:href="message__header__impl_8hpp.html" target="_top" xlink:title=" ">
<polygon fill="white" stroke="black" points="943.88,-67.5 943.88,-86.5 1076.88,-86.5 1076.88,-67.5 943.88,-67.5"/>
<text text-anchor="middle" x="1010.38" y="-74.5" font-family="Helvetica" font-size="10.00">message_header_impl.hpp</text>
</a>
</g>
</g>
<!-- Node19&#45;&gt;Node21 -->
<g id="edge29" class="edge">
<title>Node19&#45;&gt;Node21</title>
<path fill="none" stroke="midnightblue" d="M1010.38,-123.4C1010.38,-115.47 1010.38,-105.46 1010.38,-96.86"/>
<polygon fill="midnightblue" stroke="midnightblue" points="1013.88,-96.66 1010.38,-86.66 1006.88,-96.66 1013.88,-96.66"/>
</g>
<!-- Node21&#45;&gt;Node5 -->
<g id="edge31" class="edge">
<title>Node21&#45;&gt;Node5</title>
<path fill="none" stroke="midnightblue" d="M943.73,-67.92C940.91,-67.61 938.12,-67.3 935.38,-67 781.09,-50.21 600.61,-33.17 498.87,-23.81"/>
<polygon fill="midnightblue" stroke="midnightblue" points="498.95,-20.3 488.67,-22.87 498.31,-27.27 498.95,-20.3"/>
</g>
<!-- Node21&#45;&gt;Node6 -->
<g id="edge33" class="edge">
<title>Node21&#45;&gt;Node6</title>
<path fill="none" stroke="midnightblue" d="M966.97,-67.48C912.52,-56.78 819.2,-38.46 760.53,-26.94"/>
<polygon fill="midnightblue" stroke="midnightblue" points="761.2,-23.5 750.71,-25.01 759.85,-30.37 761.2,-23.5"/>
</g>
<!-- Node21&#45;&gt;Node15 -->
<g id="edge30" class="edge">
<title>Node21&#45;&gt;Node15</title>
<path fill="none" stroke="midnightblue" d="M1017.11,-67.48C1024.16,-58.55 1035.41,-44.31 1044.23,-33.14"/>
<polygon fill="midnightblue" stroke="midnightblue" points="1047.21,-35.03 1050.66,-25.01 1041.71,-30.69 1047.21,-35.03"/>
</g>
<!-- Node22 -->
<g id="node22" class="node">
<title>Node22</title>
<g id="a_node22"><a xlink:title=" ">
<polygon fill="white" stroke="#bfbfbf" points="878.38,-0.5 878.38,-30.5 988.38,-30.5 988.38,-0.5 878.38,-0.5"/>
<text text-anchor="start" x="886.38" y="-18.5" font-family="Helvetica" font-size="10.00">vsomeip/enumeration</text>
<text text-anchor="middle" x="933.38" y="-7.5" font-family="Helvetica" font-size="10.00">_types.hpp</text>
</a>
</g>
</g>
<!-- Node21&#45;&gt;Node22 -->
<g id="edge32" class="edge">
<title>Node21&#45;&gt;Node22</title>
<path fill="none" stroke="midnightblue" d="M999.35,-67.48C989.02,-59.49 973.18,-47.25 959.61,-36.77"/>
<polygon fill="midnightblue" stroke="midnightblue" points="961.58,-33.87 951.53,-30.52 957.3,-39.41 961.58,-33.87"/>
</g>
</g>
</svg>
