<?xml version="1.0" encoding="UTF-8" standalone="no"?>
<!DOCTYPE svg PUBLIC "-//W3C//DTD SVG 1.1//EN"
 "http://www.w3.org/Graphics/SVG/1.1/DTD/svg11.dtd">
<!-- Generated by graphviz version 2.44.0 (0)
 -->
<!-- Title: /home/ec2&#45;user/workspace/vsomeip/implementation/protocol/include/expire_command.hpp Pages: 1 -->
<svg width="420pt" height="296pt"
 viewBox="0.00 0.00 419.50 296.00" xmlns="http://www.w3.org/2000/svg" xmlns:xlink="http://www.w3.org/1999/xlink">
<g id="graph0" class="graph" transform="scale(1 1) rotate(0) translate(4 292)">
<title>/home/ec2&#45;user/workspace/vsomeip/implementation/protocol/include/expire_command.hpp</title>
<polygon fill="white" stroke="transparent" points="-4,4 -4,-292 415.5,-292 415.5,4 -4,4"/>
<!-- Node1 -->
<g id="node1" class="node">
<title>Node1</title>
<g id="a_node1"><a xlink:title=" ">
<polygon fill="#bfbfbf" stroke="black" points="162,-235.5 162,-287.5 296,-287.5 296,-235.5 162,-235.5"/>
<text text-anchor="start" x="170" y="-275.5" font-family="Helvetica" font-size="10.00">/home/ec2&#45;user/workspace</text>
<text text-anchor="start" x="170" y="-264.5" font-family="Helvetica" font-size="10.00">/vsomeip/implementation</text>
<text text-anchor="start" x="170" y="-253.5" font-family="Helvetica" font-size="10.00">/protocol/include/expire</text>
<text text-anchor="middle" x="229" y="-242.5" font-family="Helvetica" font-size="10.00">_command.hpp</text>
</a>
</g>
</g>
<!-- Node2 -->
<g id="node2" class="node">
<title>Node2</title>
<g id="a_node2"><a xlink:title=" ">
<polygon fill="white" stroke="#bfbfbf" points="98.5,-118 98.5,-137 151.5,-137 151.5,-118 98.5,-118"/>
<text text-anchor="middle" x="125" y="-125" font-family="Helvetica" font-size="10.00">memory</text>
</a>
</g>
</g>
<!-- Node1&#45;&gt;Node2 -->
<g id="edge1" class="edge">
<title>Node1&#45;&gt;Node2</title>
<path fill="none" stroke="midnightblue" d="M182.53,-235.33C168.36,-225.64 153.93,-213.39 144,-199 133.33,-183.53 128.65,-162.34 126.59,-147.24"/>
<polygon fill="midnightblue" stroke="midnightblue" points="130.05,-146.64 125.48,-137.08 123.09,-147.4 130.05,-146.64"/>
</g>
<!-- Node3 -->
<g id="node3" class="node">
<title>Node3</title>
<g id="a_node3"><a xlink:href="structured__types_8hpp.html" target="_top" xlink:title=" ">
<polygon fill="white" stroke="black" points="284,-112.5 284,-142.5 384,-142.5 384,-112.5 284,-112.5"/>
<text text-anchor="start" x="292" y="-130.5" font-family="Helvetica" font-size="10.00">vsomeip/structured</text>
<text text-anchor="middle" x="334" y="-119.5" font-family="Helvetica" font-size="10.00">_types.hpp</text>
</a>
</g>
</g>
<!-- Node1&#45;&gt;Node3 -->
<g id="edge2" class="edge">
<title>Node1&#45;&gt;Node3</title>
<path fill="none" stroke="midnightblue" d="M275.36,-235.25C289.52,-225.56 303.98,-213.33 314,-199 323.53,-185.38 328.54,-167.29 331.17,-152.85"/>
<polygon fill="midnightblue" stroke="midnightblue" points="334.67,-153.06 332.74,-142.65 327.76,-152 334.67,-153.06"/>
</g>
<!-- Node6 -->
<g id="node6" class="node">
<title>Node6</title>
<g id="a_node6"><a xlink:href="subscribe__command__base_8hpp.html" target="_top" xlink:title=" ">
<polygon fill="white" stroke="black" points="153,-179.5 153,-198.5 305,-198.5 305,-179.5 153,-179.5"/>
<text text-anchor="middle" x="229" y="-186.5" font-family="Helvetica" font-size="10.00">subscribe_command_base.hpp</text>
</a>
</g>
</g>
<!-- Node1&#45;&gt;Node6 -->
<g id="edge5" class="edge">
<title>Node1&#45;&gt;Node6</title>
<path fill="none" stroke="midnightblue" d="M229,-235.45C229,-226.73 229,-217.1 229,-208.96"/>
<polygon fill="midnightblue" stroke="midnightblue" points="232.5,-208.7 229,-198.7 225.5,-208.7 232.5,-208.7"/>
</g>
<!-- Node4 -->
<g id="node4" class="node">
<title>Node4</title>
<g id="a_node4"><a xlink:title=" ">
<polygon fill="white" stroke="#bfbfbf" points="312,-56.5 312,-75.5 358,-75.5 358,-56.5 312,-56.5"/>
<text text-anchor="middle" x="335" y="-63.5" font-family="Helvetica" font-size="10.00">chrono</text>
</a>
</g>
</g>
<!-- Node3&#45;&gt;Node4 -->
<g id="edge3" class="edge">
<title>Node3&#45;&gt;Node4</title>
<path fill="none" stroke="midnightblue" d="M334.24,-112.4C334.37,-104.47 334.54,-94.46 334.68,-85.86"/>
<polygon fill="midnightblue" stroke="midnightblue" points="338.19,-85.72 334.85,-75.66 331.19,-85.6 338.19,-85.72"/>
</g>
<!-- Node5 -->
<g id="node5" class="node">
<title>Node5</title>
<g id="a_node5"><a xlink:title=" ">
<polygon fill="white" stroke="#bfbfbf" points="376.5,-56.5 376.5,-75.5 411.5,-75.5 411.5,-56.5 376.5,-56.5"/>
<text text-anchor="middle" x="394" y="-63.5" font-family="Helvetica" font-size="10.00">map</text>
</a>
</g>
</g>
<!-- Node3&#45;&gt;Node5 -->
<g id="edge4" class="edge">
<title>Node3&#45;&gt;Node5</title>
<path fill="none" stroke="midnightblue" d="M348.22,-112.4C357.21,-103.49 368.84,-91.95 378.13,-82.74"/>
<polygon fill="midnightblue" stroke="midnightblue" points="380.63,-85.18 385.27,-75.66 375.7,-80.21 380.63,-85.18"/>
</g>
<!-- Node6&#45;&gt;Node2 -->
<g id="edge6" class="edge">
<title>Node6&#45;&gt;Node2</title>
<path fill="none" stroke="midnightblue" d="M214.1,-179.48C197.03,-169.71 168.84,-153.58 148.74,-142.08"/>
<polygon fill="midnightblue" stroke="midnightblue" points="150.29,-138.94 139.87,-137.01 146.81,-145.01 150.29,-138.94"/>
</g>
<!-- Node6&#45;&gt;Node3 -->
<g id="edge7" class="edge">
<title>Node6&#45;&gt;Node3</title>
<path fill="none" stroke="midnightblue" d="M244.04,-179.48C258.66,-171.19 281.37,-158.32 300.31,-147.59"/>
<polygon fill="midnightblue" stroke="midnightblue" points="302.28,-150.5 309.25,-142.52 298.83,-144.41 302.28,-150.5"/>
</g>
<!-- Node7 -->
<g id="node7" class="node">
<title>Node7</title>
<g id="a_node7"><a xlink:href="command_8hpp.html" target="_top" xlink:title=" ">
<polygon fill="white" stroke="black" points="170,-118 170,-137 248,-137 248,-118 170,-118"/>
<text text-anchor="middle" x="209" y="-125" font-family="Helvetica" font-size="10.00">command.hpp</text>
</a>
</g>
</g>
<!-- Node6&#45;&gt;Node7 -->
<g id="edge8" class="edge">
<title>Node6&#45;&gt;Node7</title>
<path fill="none" stroke="midnightblue" d="M226.13,-179.48C223.28,-170.99 218.82,-157.7 215.16,-146.82"/>
<polygon fill="midnightblue" stroke="midnightblue" points="218.36,-145.37 211.86,-137.01 211.73,-147.6 218.36,-145.37"/>
</g>
<!-- Node8 -->
<g id="node8" class="node">
<title>Node8</title>
<g id="a_node8"><a xlink:title=" ">
<polygon fill="white" stroke="#bfbfbf" points="186,-56.5 186,-75.5 232,-75.5 232,-56.5 186,-56.5"/>
<text text-anchor="middle" x="209" y="-63.5" font-family="Helvetica" font-size="10.00">cstring</text>
</a>
</g>
</g>
<!-- Node7&#45;&gt;Node8 -->
<g id="edge9" class="edge">
<title>Node7&#45;&gt;Node8</title>
<path fill="none" stroke="midnightblue" d="M209,-117.98C209,-109.58 209,-96.48 209,-85.66"/>
<polygon fill="midnightblue" stroke="midnightblue" points="212.5,-85.51 209,-75.51 205.5,-85.51 212.5,-85.51"/>
</g>
<!-- Node9 -->
<g id="node9" class="node">
<title>Node9</title>
<g id="a_node9"><a xlink:title=" ">
<polygon fill="white" stroke="#bfbfbf" points="250.5,-56.5 250.5,-75.5 293.5,-75.5 293.5,-56.5 250.5,-56.5"/>
<text text-anchor="middle" x="272" y="-63.5" font-family="Helvetica" font-size="10.00">vector</text>
</a>
</g>
</g>
<!-- Node7&#45;&gt;Node9 -->
<g id="edge10" class="edge">
<title>Node7&#45;&gt;Node9</title>
<path fill="none" stroke="midnightblue" d="M218.03,-117.98C227.76,-108.78 243.46,-93.96 255.42,-82.66"/>
<polygon fill="midnightblue" stroke="midnightblue" points="258.12,-84.92 262.99,-75.51 253.32,-79.83 258.12,-84.92"/>
</g>
<!-- Node10 -->
<g id="node10" class="node">
<title>Node10</title>
<g id="a_node10"><a xlink:title=" ">
<polygon fill="white" stroke="#bfbfbf" points="0,-0.5 0,-19.5 140,-19.5 140,-0.5 0,-0.5"/>
<text text-anchor="middle" x="70" y="-7.5" font-family="Helvetica" font-size="10.00">vsomeip/primitive_types.hpp</text>
</a>
</g>
</g>
<!-- Node7&#45;&gt;Node10 -->
<g id="edge11" class="edge">
<title>Node7&#45;&gt;Node10</title>
<path fill="none" stroke="midnightblue" d="M181.52,-118C150.22,-107.8 101.75,-90.29 89,-76 77.64,-63.26 73.05,-44.07 71.21,-29.83"/>
<polygon fill="midnightblue" stroke="midnightblue" points="74.68,-29.33 70.25,-19.7 67.71,-29.99 74.68,-29.33"/>
</g>
<!-- Node11 -->
<g id="node11" class="node">
<title>Node11</title>
<g id="a_node11"><a xlink:href="protocol_8hpp.html" target="_top" xlink:title=" ">
<polygon fill="white" stroke="black" points="98,-56.5 98,-75.5 168,-75.5 168,-56.5 98,-56.5"/>
<text text-anchor="middle" x="133" y="-63.5" font-family="Helvetica" font-size="10.00">protocol.hpp</text>
</a>
</g>
</g>
<!-- Node7&#45;&gt;Node11 -->
<g id="edge12" class="edge">
<title>Node7&#45;&gt;Node11</title>
<path fill="none" stroke="midnightblue" d="M198.11,-117.98C186.03,-108.52 166.33,-93.1 151.76,-81.69"/>
<polygon fill="midnightblue" stroke="midnightblue" points="153.9,-78.92 143.87,-75.51 149.59,-84.43 153.9,-78.92"/>
</g>
<!-- Node11&#45;&gt;Node10 -->
<g id="edge14" class="edge">
<title>Node11&#45;&gt;Node10</title>
<path fill="none" stroke="midnightblue" d="M122.88,-56.32C113.47,-48.26 99.26,-36.08 87.93,-26.37"/>
<polygon fill="midnightblue" stroke="midnightblue" points="90.18,-23.68 80.31,-19.83 85.62,-29 90.18,-23.68"/>
</g>
<!-- Node12 -->
<g id="node12" class="node">
<title>Node12</title>
<g id="a_node12"><a xlink:title=" ">
<polygon fill="white" stroke="#bfbfbf" points="158,-0.5 158,-19.5 276,-19.5 276,-0.5 158,-0.5"/>
<text text-anchor="middle" x="217" y="-7.5" font-family="Helvetica" font-size="10.00">vsomeip/constants.hpp</text>
</a>
</g>
</g>
<!-- Node11&#45;&gt;Node12 -->
<g id="edge13" class="edge">
<title>Node11&#45;&gt;Node12</title>
<path fill="none" stroke="midnightblue" d="M146.5,-56.32C159.6,-47.9 179.71,-34.97 195.11,-25.07"/>
<polygon fill="midnightblue" stroke="midnightblue" points="197.02,-28.01 203.54,-19.65 193.23,-22.12 197.02,-28.01"/>
</g>
</g>
</svg>
