<?xml version="1.0" encoding="UTF-8" standalone="no"?>
<!DOCTYPE svg PUBLIC "-//W3C//DTD SVG 1.1//EN"
 "http://www.w3.org/Graphics/SVG/1.1/DTD/svg11.dtd">
<!-- Generated by graphviz version 2.44.0 (0)
 -->
<!-- Title: /home/ec2&#45;user/workspace/vsomeip/implementation/protocol/src/expire_command.cpp Pages: 1 -->
<svg width="447pt" height="341pt"
 viewBox="0.00 0.00 446.81 341.00" xmlns="http://www.w3.org/2000/svg" xmlns:xlink="http://www.w3.org/1999/xlink">
<g id="graph0" class="graph" transform="scale(1 1) rotate(0) translate(4 337)">
<title>/home/ec2&#45;user/workspace/vsomeip/implementation/protocol/src/expire_command.cpp</title>
<polygon fill="white" stroke="transparent" points="-4,4 -4,-337 442.81,-337 442.81,4 -4,4"/>
<!-- Node1 -->
<g id="node1" class="node">
<title>Node1</title>
<g id="a_node1"><a xlink:title=" ">
<polygon fill="#bfbfbf" stroke="black" points="0,-291.5 0,-332.5 167,-332.5 167,-291.5 0,-291.5"/>
<text text-anchor="start" x="8" y="-320.5" font-family="Helvetica" font-size="10.00">/home/ec2&#45;user/workspace</text>
<text text-anchor="start" x="8" y="-309.5" font-family="Helvetica" font-size="10.00">/vsomeip/implementation</text>
<text text-anchor="middle" x="83.5" y="-298.5" font-family="Helvetica" font-size="10.00">/protocol/src/expire_command.cpp</text>
</a>
</g>
</g>
<!-- Node2 -->
<g id="node2" class="node">
<title>Node2</title>
<g id="a_node2"><a xlink:title=" ">
<polygon fill="white" stroke="#bfbfbf" points="15.5,-235.5 15.5,-254.5 55.5,-254.5 55.5,-235.5 15.5,-235.5"/>
<text text-anchor="middle" x="35.5" y="-242.5" font-family="Helvetica" font-size="10.00">limits</text>
</a>
</g>
</g>
<!-- Node1&#45;&gt;Node2 -->
<g id="edge1" class="edge">
<title>Node1&#45;&gt;Node2</title>
<path fill="none" stroke="midnightblue" d="M69.1,-291.5C62.38,-282.39 54.45,-271.66 47.99,-262.91"/>
<polygon fill="midnightblue" stroke="midnightblue" points="50.65,-260.62 41.89,-254.65 45.01,-264.78 50.65,-260.62"/>
</g>
<!-- Node3 -->
<g id="node3" class="node">
<title>Node3</title>
<g id="a_node3"><a xlink:title=" ">
<polygon fill="white" stroke="#bfbfbf" points="123.5,-0.5 123.5,-19.5 241.5,-19.5 241.5,-0.5 123.5,-0.5"/>
<text text-anchor="middle" x="182.5" y="-7.5" font-family="Helvetica" font-size="10.00">vsomeip/constants.hpp</text>
</a>
</g>
</g>
<!-- Node1&#45;&gt;Node3 -->
<g id="edge2" class="edge">
<title>Node1&#45;&gt;Node3</title>
<path fill="none" stroke="midnightblue" d="M83.5,-291.3C83.5,-267.35 83.5,-225.71 83.5,-190 83.5,-190 83.5,-190 83.5,-126.5 83.5,-94.05 82.58,-81.62 102.5,-56 113.76,-41.52 131.07,-30.96 146.71,-23.73"/>
<polygon fill="midnightblue" stroke="midnightblue" points="148.37,-26.82 156.16,-19.65 145.59,-20.4 148.37,-26.82"/>
</g>
<!-- Node4 -->
<g id="node4" class="node">
<title>Node4</title>
<g id="a_node4"><a xlink:href="expire__command_8hpp.html" target="_top" xlink:title=" ">
<polygon fill="white" stroke="black" points="164.5,-235.5 164.5,-254.5 316.5,-254.5 316.5,-235.5 164.5,-235.5"/>
<text text-anchor="middle" x="240.5" y="-242.5" font-family="Helvetica" font-size="10.00">../include/expire_command.hpp</text>
</a>
</g>
</g>
<!-- Node1&#45;&gt;Node4 -->
<g id="edge3" class="edge">
<title>Node1&#45;&gt;Node4</title>
<path fill="none" stroke="midnightblue" d="M130.61,-291.5C156.41,-280.81 187.64,-267.89 210.2,-258.54"/>
<polygon fill="midnightblue" stroke="midnightblue" points="211.7,-261.71 219.6,-254.65 209.02,-255.24 211.7,-261.71"/>
</g>
<!-- Node5 -->
<g id="node5" class="node">
<title>Node5</title>
<g id="a_node5"><a xlink:title=" ">
<polygon fill="white" stroke="#bfbfbf" points="370,-118 370,-137 423,-137 423,-118 370,-118"/>
<text text-anchor="middle" x="396.5" y="-125" font-family="Helvetica" font-size="10.00">memory</text>
</a>
</g>
</g>
<!-- Node4&#45;&gt;Node5 -->
<g id="edge4" class="edge">
<title>Node4&#45;&gt;Node5</title>
<path fill="none" stroke="midnightblue" d="M308.4,-235.42C333.13,-229.08 359.42,-218.08 377.5,-199 390.69,-185.08 394.92,-162.99 396.18,-147.25"/>
<polygon fill="midnightblue" stroke="midnightblue" points="399.69,-147.27 396.66,-137.12 392.69,-146.94 399.69,-147.27"/>
</g>
<!-- Node6 -->
<g id="node6" class="node">
<title>Node6</title>
<g id="a_node6"><a xlink:href="structured__types_8hpp.html" target="_top" xlink:title=" ">
<polygon fill="white" stroke="black" points="138.5,-112.5 138.5,-142.5 238.5,-142.5 238.5,-112.5 138.5,-112.5"/>
<text text-anchor="start" x="146.5" y="-130.5" font-family="Helvetica" font-size="10.00">vsomeip/structured</text>
<text text-anchor="middle" x="188.5" y="-119.5" font-family="Helvetica" font-size="10.00">_types.hpp</text>
</a>
</g>
</g>
<!-- Node4&#45;&gt;Node6 -->
<g id="edge5" class="edge">
<title>Node4&#45;&gt;Node6</title>
<path fill="none" stroke="midnightblue" d="M232.61,-235.33C225.15,-226.7 214.13,-212.8 207.5,-199 200.41,-184.25 195.64,-166.45 192.65,-152.42"/>
<polygon fill="midnightblue" stroke="midnightblue" points="196.07,-151.68 190.71,-142.55 189.21,-153.04 196.07,-151.68"/>
</g>
<!-- Node9 -->
<g id="node9" class="node">
<title>Node9</title>
<g id="a_node9"><a xlink:href="subscribe__command__base_8hpp.html" target="_top" xlink:title=" ">
<polygon fill="white" stroke="black" points="216.5,-179.5 216.5,-198.5 368.5,-198.5 368.5,-179.5 216.5,-179.5"/>
<text text-anchor="middle" x="292.5" y="-186.5" font-family="Helvetica" font-size="10.00">subscribe_command_base.hpp</text>
</a>
</g>
</g>
<!-- Node4&#45;&gt;Node9 -->
<g id="edge8" class="edge">
<title>Node4&#45;&gt;Node9</title>
<path fill="none" stroke="midnightblue" d="M249.09,-235.08C256.66,-227.22 267.88,-215.57 277.01,-206.08"/>
<polygon fill="midnightblue" stroke="midnightblue" points="279.66,-208.38 284.07,-198.75 274.62,-203.53 279.66,-208.38"/>
</g>
<!-- Node7 -->
<g id="node7" class="node">
<title>Node7</title>
<g id="a_node7"><a xlink:title=" ">
<polygon fill="white" stroke="#bfbfbf" points="165.5,-56.5 165.5,-75.5 211.5,-75.5 211.5,-56.5 165.5,-56.5"/>
<text text-anchor="middle" x="188.5" y="-63.5" font-family="Helvetica" font-size="10.00">chrono</text>
</a>
</g>
</g>
<!-- Node6&#45;&gt;Node7 -->
<g id="edge6" class="edge">
<title>Node6&#45;&gt;Node7</title>
<path fill="none" stroke="midnightblue" d="M188.5,-112.4C188.5,-104.47 188.5,-94.46 188.5,-85.86"/>
<polygon fill="midnightblue" stroke="midnightblue" points="192,-85.66 188.5,-75.66 185,-85.66 192,-85.66"/>
</g>
<!-- Node8 -->
<g id="node8" class="node">
<title>Node8</title>
<g id="a_node8"><a xlink:title=" ">
<polygon fill="white" stroke="#bfbfbf" points="112,-56.5 112,-75.5 147,-75.5 147,-56.5 112,-56.5"/>
<text text-anchor="middle" x="129.5" y="-63.5" font-family="Helvetica" font-size="10.00">map</text>
</a>
</g>
</g>
<!-- Node6&#45;&gt;Node8 -->
<g id="edge7" class="edge">
<title>Node6&#45;&gt;Node8</title>
<path fill="none" stroke="midnightblue" d="M174.52,-112.4C165.77,-103.58 154.47,-92.18 145.38,-83.02"/>
<polygon fill="midnightblue" stroke="midnightblue" points="147.61,-80.29 138.09,-75.66 142.64,-85.22 147.61,-80.29"/>
</g>
<!-- Node9&#45;&gt;Node5 -->
<g id="edge9" class="edge">
<title>Node9&#45;&gt;Node5</title>
<path fill="none" stroke="midnightblue" d="M307.4,-179.48C324.47,-169.71 352.66,-153.58 372.76,-142.08"/>
<polygon fill="midnightblue" stroke="midnightblue" points="374.69,-145.01 381.63,-137.01 371.21,-138.94 374.69,-145.01"/>
</g>
<!-- Node9&#45;&gt;Node6 -->
<g id="edge10" class="edge">
<title>Node9&#45;&gt;Node6</title>
<path fill="none" stroke="midnightblue" d="M277.6,-179.48C263.12,-171.19 240.63,-158.32 221.87,-147.59"/>
<polygon fill="midnightblue" stroke="midnightblue" points="223.43,-144.45 213.01,-142.52 219.95,-150.53 223.43,-144.45"/>
</g>
<!-- Node10 -->
<g id="node10" class="node">
<title>Node10</title>
<g id="a_node10"><a xlink:href="command_8hpp.html" target="_top" xlink:title=" ">
<polygon fill="white" stroke="black" points="273.5,-118 273.5,-137 351.5,-137 351.5,-118 273.5,-118"/>
<text text-anchor="middle" x="312.5" y="-125" font-family="Helvetica" font-size="10.00">command.hpp</text>
</a>
</g>
</g>
<!-- Node9&#45;&gt;Node10 -->
<g id="edge11" class="edge">
<title>Node9&#45;&gt;Node10</title>
<path fill="none" stroke="midnightblue" d="M295.37,-179.48C298.22,-170.99 302.68,-157.7 306.34,-146.82"/>
<polygon fill="midnightblue" stroke="midnightblue" points="309.77,-147.6 309.64,-137.01 303.14,-145.37 309.77,-147.6"/>
</g>
<!-- Node11 -->
<g id="node11" class="node">
<title>Node11</title>
<g id="a_node11"><a xlink:title=" ">
<polygon fill="white" stroke="#bfbfbf" points="317.5,-56.5 317.5,-75.5 363.5,-75.5 363.5,-56.5 317.5,-56.5"/>
<text text-anchor="middle" x="340.5" y="-63.5" font-family="Helvetica" font-size="10.00">cstring</text>
</a>
</g>
</g>
<!-- Node10&#45;&gt;Node11 -->
<g id="edge12" class="edge">
<title>Node10&#45;&gt;Node11</title>
<path fill="none" stroke="midnightblue" d="M316.51,-117.98C320.59,-109.32 327.02,-95.65 332.2,-84.65"/>
<polygon fill="midnightblue" stroke="midnightblue" points="335.4,-86.05 336.5,-75.51 329.07,-83.07 335.4,-86.05"/>
</g>
<!-- Node12 -->
<g id="node12" class="node">
<title>Node12</title>
<g id="a_node12"><a xlink:title=" ">
<polygon fill="white" stroke="#bfbfbf" points="382,-56.5 382,-75.5 425,-75.5 425,-56.5 382,-56.5"/>
<text text-anchor="middle" x="403.5" y="-63.5" font-family="Helvetica" font-size="10.00">vector</text>
</a>
</g>
</g>
<!-- Node10&#45;&gt;Node12 -->
<g id="edge13" class="edge">
<title>Node10&#45;&gt;Node12</title>
<path fill="none" stroke="midnightblue" d="M325.54,-117.98C340.27,-108.34 364.47,-92.52 382.01,-81.05"/>
<polygon fill="midnightblue" stroke="midnightblue" points="384.03,-83.91 390.49,-75.51 380.2,-78.05 384.03,-83.91"/>
</g>
<!-- Node13 -->
<g id="node13" class="node">
<title>Node13</title>
<g id="a_node13"><a xlink:title=" ">
<polygon fill="white" stroke="#bfbfbf" points="276.5,-0.5 276.5,-19.5 416.5,-19.5 416.5,-0.5 276.5,-0.5"/>
<text text-anchor="middle" x="346.5" y="-7.5" font-family="Helvetica" font-size="10.00">vsomeip/primitive_types.hpp</text>
</a>
</g>
</g>
<!-- Node10&#45;&gt;Node13 -->
<g id="edge14" class="edge">
<title>Node10&#45;&gt;Node13</title>
<path fill="none" stroke="midnightblue" d="M337.14,-117.96C371.1,-105.94 428.78,-84.55 434.5,-76 450.4,-52.2 417.09,-33.9 387,-22.87"/>
<polygon fill="midnightblue" stroke="midnightblue" points="388,-19.51 377.4,-19.54 385.71,-26.13 388,-19.51"/>
</g>
<!-- Node14 -->
<g id="node14" class="node">
<title>Node14</title>
<g id="a_node14"><a xlink:href="protocol_8hpp.html" target="_top" xlink:title=" ">
<polygon fill="white" stroke="black" points="229.5,-56.5 229.5,-75.5 299.5,-75.5 299.5,-56.5 229.5,-56.5"/>
<text text-anchor="middle" x="264.5" y="-63.5" font-family="Helvetica" font-size="10.00">protocol.hpp</text>
</a>
</g>
</g>
<!-- Node10&#45;&gt;Node14 -->
<g id="edge15" class="edge">
<title>Node10&#45;&gt;Node14</title>
<path fill="none" stroke="midnightblue" d="M305.62,-117.98C298.35,-108.96 286.7,-94.52 277.66,-83.31"/>
<polygon fill="midnightblue" stroke="midnightblue" points="280.37,-81.09 271.36,-75.51 274.92,-85.49 280.37,-81.09"/>
</g>
<!-- Node14&#45;&gt;Node3 -->
<g id="edge16" class="edge">
<title>Node14&#45;&gt;Node3</title>
<path fill="none" stroke="midnightblue" d="M251.33,-56.32C238.65,-47.98 219.27,-35.21 204.29,-25.35"/>
<polygon fill="midnightblue" stroke="midnightblue" points="205.92,-22.23 195.64,-19.65 202.07,-28.08 205.92,-22.23"/>
</g>
<!-- Node14&#45;&gt;Node13 -->
<g id="edge17" class="edge">
<title>Node14&#45;&gt;Node13</title>
<path fill="none" stroke="midnightblue" d="M277.67,-56.32C290.35,-47.98 309.73,-35.21 324.71,-25.35"/>
<polygon fill="midnightblue" stroke="midnightblue" points="326.93,-28.08 333.36,-19.65 323.08,-22.23 326.93,-28.08"/>
</g>
</g>
</svg>
