<?xml version="1.0" encoding="UTF-8" standalone="no"?>
<!DOCTYPE svg PUBLIC "-//W3C//DTD SVG 1.1//EN"
 "http://www.w3.org/Graphics/SVG/1.1/DTD/svg11.dtd">
<!-- Generated by graphviz version 2.44.0 (0)
 -->
<!-- Title: /home/ec2&#45;user/workspace/vsomeip/implementation/protocol/include/expire_command.hpp Pages: 1 -->
<svg width="492pt" height="150pt"
 viewBox="0.00 0.00 491.50 150.00" xmlns="http://www.w3.org/2000/svg" xmlns:xlink="http://www.w3.org/1999/xlink">
<g id="graph0" class="graph" transform="scale(1 1) rotate(0) translate(4 146)">
<title>/home/ec2&#45;user/workspace/vsomeip/implementation/protocol/include/expire_command.hpp</title>
<polygon fill="white" stroke="transparent" points="-4,4 -4,-146 487.5,-146 487.5,4 -4,4"/>
<!-- Node1 -->
<g id="node1" class="node">
<title>Node1</title>
<g id="a_node1"><a xlink:title=" ">
<polygon fill="#bfbfbf" stroke="black" points="188.5,-89.5 188.5,-141.5 322.5,-141.5 322.5,-89.5 188.5,-89.5"/>
<text text-anchor="start" x="196.5" y="-129.5" font-family="Helvetica" font-size="10.00">/home/ec2&#45;user/workspace</text>
<text text-anchor="start" x="196.5" y="-118.5" font-family="Helvetica" font-size="10.00">/vsomeip/implementation</text>
<text text-anchor="start" x="196.5" y="-107.5" font-family="Helvetica" font-size="10.00">/protocol/include/expire</text>
<text text-anchor="middle" x="255.5" y="-96.5" font-family="Helvetica" font-size="10.00">_command.hpp</text>
</a>
</g>
</g>
<!-- Node2 -->
<g id="node2" class="node">
<title>Node2</title>
<g id="a_node2"><a xlink:href="expire__command_8cpp.html" target="_top" xlink:title=" ">
<polygon fill="white" stroke="black" points="0,-6 0,-47 167,-47 167,-6 0,-6"/>
<text text-anchor="start" x="8" y="-35" font-family="Helvetica" font-size="10.00">/home/ec2&#45;user/workspace</text>
<text text-anchor="start" x="8" y="-24" font-family="Helvetica" font-size="10.00">/vsomeip/implementation</text>
<text text-anchor="middle" x="83.5" y="-13" font-family="Helvetica" font-size="10.00">/protocol/src/expire_command.cpp</text>
</a>
</g>
</g>
<!-- Node1&#45;&gt;Node2 -->
<g id="edge1" class="edge">
<title>Node1&#45;&gt;Node2</title>
<path fill="none" stroke="midnightblue" d="M196.52,-84.66C171.95,-72.24 144.11,-58.16 122.21,-47.08"/>
<polygon fill="midnightblue" stroke="midnightblue" points="195.25,-87.95 205.75,-89.34 198.41,-81.7 195.25,-87.95"/>
</g>
<!-- Node3 -->
<g id="node3" class="node">
<title>Node3</title>
<g id="a_node3"><a xlink:href="routing__manager__client_8cpp.html" target="_top" xlink:title=" ">
<polygon fill="white" stroke="black" points="185.5,-0.5 185.5,-52.5 325.5,-52.5 325.5,-0.5 185.5,-0.5"/>
<text text-anchor="start" x="193.5" y="-40.5" font-family="Helvetica" font-size="10.00">/home/ec2&#45;user/workspace</text>
<text text-anchor="start" x="193.5" y="-29.5" font-family="Helvetica" font-size="10.00">/vsomeip/implementation</text>
<text text-anchor="start" x="193.5" y="-18.5" font-family="Helvetica" font-size="10.00">/routing/src/routing_manager</text>
<text text-anchor="middle" x="255.5" y="-7.5" font-family="Helvetica" font-size="10.00">_client.cpp</text>
</a>
</g>
</g>
<!-- Node1&#45;&gt;Node3 -->
<g id="edge2" class="edge">
<title>Node1&#45;&gt;Node3</title>
<path fill="none" stroke="midnightblue" d="M255.5,-79.19C255.5,-70.28 255.5,-60.9 255.5,-52.61"/>
<polygon fill="midnightblue" stroke="midnightblue" points="252,-79.34 255.5,-89.34 259,-79.34 252,-79.34"/>
</g>
<!-- Node4 -->
<g id="node4" class="node">
<title>Node4</title>
<g id="a_node4"><a xlink:href="routing__manager__stub_8cpp.html" target="_top" xlink:title=" ">
<polygon fill="white" stroke="black" points="343.5,-0.5 343.5,-52.5 483.5,-52.5 483.5,-0.5 343.5,-0.5"/>
<text text-anchor="start" x="351.5" y="-40.5" font-family="Helvetica" font-size="10.00">/home/ec2&#45;user/workspace</text>
<text text-anchor="start" x="351.5" y="-29.5" font-family="Helvetica" font-size="10.00">/vsomeip/implementation</text>
<text text-anchor="start" x="351.5" y="-18.5" font-family="Helvetica" font-size="10.00">/routing/src/routing_manager</text>
<text text-anchor="middle" x="413.5" y="-7.5" font-family="Helvetica" font-size="10.00">_stub.cpp</text>
</a>
</g>
</g>
<!-- Node1&#45;&gt;Node4 -->
<g id="edge3" class="edge">
<title>Node1&#45;&gt;Node4</title>
<path fill="none" stroke="midnightblue" d="M309.99,-84.49C328.87,-74.1 349.82,-62.57 367.9,-52.61"/>
<polygon fill="midnightblue" stroke="midnightblue" points="308.27,-81.45 301.2,-89.34 311.65,-87.58 308.27,-81.45"/>
</g>
</g>
</svg>
