<?xml version="1.0" encoding="UTF-8" standalone="no"?>
<!DOCTYPE svg PUBLIC "-//W3C//DTD SVG 1.1//EN"
 "http://www.w3.org/Graphics/SVG/1.1/DTD/svg11.dtd">
<!-- Generated by graphviz version 2.44.0 (0)
 -->
<!-- Title: /home/ec2&#45;user/workspace/vsomeip/implementation/helper/boost/asio/detail/handler_type_requirements_ext.hpp Pages: 1 -->
<svg width="258pt" height="128pt"
 viewBox="0.00 0.00 258.00 128.00" xmlns="http://www.w3.org/2000/svg" xmlns:xlink="http://www.w3.org/1999/xlink">
<g id="graph0" class="graph" transform="scale(1 1) rotate(0) translate(4 124)">
<title>/home/ec2&#45;user/workspace/vsomeip/implementation/helper/boost/asio/detail/handler_type_requirements_ext.hpp</title>
<polygon fill="white" stroke="transparent" points="-4,4 -4,-124 254,-124 254,4 -4,4"/>
<!-- Node1 -->
<g id="node1" class="node">
<title>Node1</title>
<g id="a_node1"><a xlink:title=" ">
<polygon fill="#bfbfbf" stroke="black" points="48.5,-67.5 48.5,-119.5 221.5,-119.5 221.5,-67.5 48.5,-67.5"/>
<text text-anchor="start" x="56.5" y="-107.5" font-family="Helvetica" font-size="10.00">/home/ec2&#45;user/workspace</text>
<text text-anchor="start" x="56.5" y="-96.5" font-family="Helvetica" font-size="10.00">/vsomeip/implementation</text>
<text text-anchor="start" x="56.5" y="-85.5" font-family="Helvetica" font-size="10.00">/helper/boost/asio/detail</text>
<text text-anchor="middle" x="135" y="-74.5" font-family="Helvetica" font-size="10.00">/handler_type_requirements_ext.hpp</text>
</a>
</g>
</g>
<!-- Node2 -->
<g id="node2" class="node">
<title>Node2</title>
<g id="a_node2"><a xlink:title=" ">
<polygon fill="white" stroke="#bfbfbf" points="0,-6 0,-25 136,-25 136,-6 0,-6"/>
<text text-anchor="middle" x="68" y="-13" font-family="Helvetica" font-size="10.00">boost/asio/detail/config.hpp</text>
</a>
</g>
</g>
<!-- Node1&#45;&gt;Node2 -->
<g id="edge1" class="edge">
<title>Node1&#45;&gt;Node2</title>
<path fill="none" stroke="midnightblue" d="M112.69,-67.19C102.7,-55.86 91.2,-42.82 82.38,-32.81"/>
<polygon fill="midnightblue" stroke="midnightblue" points="84.92,-30.4 75.68,-25.21 79.67,-35.02 84.92,-30.4"/>
</g>
<!-- Node3 -->
<g id="node3" class="node">
<title>Node3</title>
<g id="a_node3"><a xlink:title=" ">
<polygon fill="white" stroke="#bfbfbf" points="154,-0.5 154,-30.5 250,-30.5 250,-0.5 154,-0.5"/>
<text text-anchor="start" x="162" y="-18.5" font-family="Helvetica" font-size="10.00">boost/asio/handler</text>
<text text-anchor="middle" x="202" y="-7.5" font-family="Helvetica" font-size="10.00">_type.hpp</text>
</a>
</g>
</g>
<!-- Node1&#45;&gt;Node3 -->
<g id="edge2" class="edge">
<title>Node1&#45;&gt;Node3</title>
<path fill="none" stroke="midnightblue" d="M157.31,-67.19C165.47,-57.94 174.63,-47.54 182.53,-38.59"/>
<polygon fill="midnightblue" stroke="midnightblue" points="185.37,-40.66 189.35,-30.85 180.12,-36.03 185.37,-40.66"/>
</g>
</g>
</svg>
