<?xml version="1.0" encoding="UTF-8" standalone="no"?>
<!DOCTYPE svg PUBLIC "-//W3C//DTD SVG 1.1//EN"
 "http://www.w3.org/Graphics/SVG/1.1/DTD/svg11.dtd">
<!-- Generated by graphviz version 2.44.0 (0)
 -->
<!-- Title: /home/ec2&#45;user/workspace/vsomeip/implementation/helper/boost/asio/detail/handler_type_requirements_ext_local.hpp Pages: 1 -->
<svg width="145pt" height="161pt"
 viewBox="0.00 0.00 145.00 161.00" xmlns="http://www.w3.org/2000/svg" xmlns:xlink="http://www.w3.org/1999/xlink">
<g id="graph0" class="graph" transform="scale(1 1) rotate(0) translate(4 157)">
<title>/home/ec2&#45;user/workspace/vsomeip/implementation/helper/boost/asio/detail/handler_type_requirements_ext_local.hpp</title>
<polygon fill="white" stroke="transparent" points="-4,4 -4,-157 141,-157 141,4 -4,4"/>
<!-- Node1 -->
<g id="node1" class="node">
<title>Node1</title>
<g id="a_node1"><a xlink:title=" ">
<polygon fill="#bfbfbf" stroke="black" points="0,-89.5 0,-152.5 137,-152.5 137,-89.5 0,-89.5"/>
<text text-anchor="start" x="8" y="-140.5" font-family="Helvetica" font-size="10.00">/home/ec2&#45;user/workspace</text>
<text text-anchor="start" x="8" y="-129.5" font-family="Helvetica" font-size="10.00">/vsomeip/implementation</text>
<text text-anchor="start" x="8" y="-118.5" font-family="Helvetica" font-size="10.00">/helper/boost/asio/detail</text>
<text text-anchor="start" x="8" y="-107.5" font-family="Helvetica" font-size="10.00">/handler_type_requirements</text>
<text text-anchor="middle" x="68.5" y="-96.5" font-family="Helvetica" font-size="10.00">_ext_local.hpp</text>
</a>
</g>
</g>
<!-- Node2 -->
<g id="node2" class="node">
<title>Node2</title>
<g id="a_node2"><a xlink:href="basic__stream__socket__ext_8hpp.html" target="_top" xlink:title=" ">
<polygon fill="white" stroke="black" points="1.5,-0.5 1.5,-52.5 135.5,-52.5 135.5,-0.5 1.5,-0.5"/>
<text text-anchor="start" x="9.5" y="-40.5" font-family="Helvetica" font-size="10.00">/home/ec2&#45;user/workspace</text>
<text text-anchor="start" x="9.5" y="-29.5" font-family="Helvetica" font-size="10.00">/vsomeip/implementation</text>
<text text-anchor="start" x="9.5" y="-18.5" font-family="Helvetica" font-size="10.00">/helper/boost/asio/basic</text>
<text text-anchor="middle" x="68.5" y="-7.5" font-family="Helvetica" font-size="10.00">_stream_socket_ext.hpp</text>
</a>
</g>
</g>
<!-- Node1&#45;&gt;Node2 -->
<g id="edge1" class="edge">
<title>Node1&#45;&gt;Node2</title>
<path fill="none" stroke="midnightblue" d="M68.5,-79.42C68.5,-70.36 68.5,-61 68.5,-52.77"/>
<polygon fill="midnightblue" stroke="midnightblue" points="65,-79.46 68.5,-89.46 72,-79.46 65,-79.46"/>
</g>
</g>
</svg>
