<?xml version="1.0" encoding="UTF-8" standalone="no"?>
<!DOCTYPE svg PUBLIC "-//W3C//DTD SVG 1.1//EN"
 "http://www.w3.org/Graphics/SVG/1.1/DTD/svg11.dtd">
<!-- Generated by graphviz version 2.44.0 (0)
 -->
<!-- Title: /home/ec2&#45;user/workspace/vsomeip/implementation/helper/boost/asio/detail/handler_type_requirements_ext_local.hpp Pages: 1 -->
<svg width="258pt" height="139pt"
 viewBox="0.00 0.00 258.00 139.00" xmlns="http://www.w3.org/2000/svg" xmlns:xlink="http://www.w3.org/1999/xlink">
<g id="graph0" class="graph" transform="scale(1 1) rotate(0) translate(4 135)">
<title>/home/ec2&#45;user/workspace/vsomeip/implementation/helper/boost/asio/detail/handler_type_requirements_ext_local.hpp</title>
<polygon fill="white" stroke="transparent" points="-4,4 -4,-135 254,-135 254,4 -4,4"/>
<!-- Node1 -->
<g id="node1" class="node">
<title>Node1</title>
<g id="a_node1"><a xlink:title=" ">
<polygon fill="#bfbfbf" stroke="black" points="66.5,-67.5 66.5,-130.5 203.5,-130.5 203.5,-67.5 66.5,-67.5"/>
<text text-anchor="start" x="74.5" y="-118.5" font-family="Helvetica" font-size="10.00">/home/ec2&#45;user/workspace</text>
<text text-anchor="start" x="74.5" y="-107.5" font-family="Helvetica" font-size="10.00">/vsomeip/implementation</text>
<text text-anchor="start" x="74.5" y="-96.5" font-family="Helvetica" font-size="10.00">/helper/boost/asio/detail</text>
<text text-anchor="start" x="74.5" y="-85.5" font-family="Helvetica" font-size="10.00">/handler_type_requirements</text>
<text text-anchor="middle" x="135" y="-74.5" font-family="Helvetica" font-size="10.00">_ext_local.hpp</text>
</a>
</g>
</g>
<!-- Node2 -->
<g id="node2" class="node">
<title>Node2</title>
<g id="a_node2"><a xlink:title=" ">
<polygon fill="white" stroke="#bfbfbf" points="0,-6 0,-25 136,-25 136,-6 0,-6"/>
<text text-anchor="middle" x="68" y="-13" font-family="Helvetica" font-size="10.00">boost/asio/detail/config.hpp</text>
</a>
</g>
</g>
<!-- Node1&#45;&gt;Node2 -->
<g id="edge1" class="edge">
<title>Node1&#45;&gt;Node2</title>
<path fill="none" stroke="midnightblue" d="M109.67,-67.19C100.15,-55.61 89.7,-42.9 81.65,-33.1"/>
<polygon fill="midnightblue" stroke="midnightblue" points="84.32,-30.84 75.27,-25.34 78.91,-35.29 84.32,-30.84"/>
</g>
<!-- Node3 -->
<g id="node3" class="node">
<title>Node3</title>
<g id="a_node3"><a xlink:title=" ">
<polygon fill="white" stroke="#bfbfbf" points="154,-0.5 154,-30.5 250,-30.5 250,-0.5 154,-0.5"/>
<text text-anchor="start" x="162" y="-18.5" font-family="Helvetica" font-size="10.00">boost/asio/handler</text>
<text text-anchor="middle" x="202" y="-7.5" font-family="Helvetica" font-size="10.00">_type.hpp</text>
</a>
</g>
</g>
<!-- Node1&#45;&gt;Node3 -->
<g id="edge2" class="edge">
<title>Node1&#45;&gt;Node3</title>
<path fill="none" stroke="midnightblue" d="M160.33,-67.19C168.19,-57.62 176.7,-47.28 183.96,-38.45"/>
<polygon fill="midnightblue" stroke="midnightblue" points="186.83,-40.46 190.48,-30.52 181.42,-36.02 186.83,-40.46"/>
</g>
</g>
</svg>
