<?xml version="1.0" encoding="UTF-8" standalone="no"?>
<!DOCTYPE svg PUBLIC "-//W3C//DTD SVG 1.1//EN"
 "http://www.w3.org/Graphics/SVG/1.1/DTD/svg11.dtd">
<!-- Generated by graphviz version 2.44.0 (0)
 -->
<!-- Title: /home/ec2&#45;user/workspace/vsomeip/implementation/tracing/include/header.hpp Pages: 1 -->
<svg width="375pt" height="228pt"
 viewBox="0.00 0.00 375.00 228.00" xmlns="http://www.w3.org/2000/svg" xmlns:xlink="http://www.w3.org/1999/xlink">
<g id="graph0" class="graph" transform="scale(1 1) rotate(0) translate(4 224)">
<title>/home/ec2&#45;user/workspace/vsomeip/implementation/tracing/include/header.hpp</title>
<polygon fill="white" stroke="transparent" points="-4,4 -4,-224 371,-224 371,4 -4,4"/>
<!-- Node1 -->
<g id="node1" class="node">
<title>Node1</title>
<g id="a_node1"><a xlink:title=" ">
<polygon fill="#bfbfbf" stroke="black" points="157,-178.5 157,-219.5 291,-219.5 291,-178.5 157,-178.5"/>
<text text-anchor="start" x="165" y="-207.5" font-family="Helvetica" font-size="10.00">/home/ec2&#45;user/workspace</text>
<text text-anchor="start" x="165" y="-196.5" font-family="Helvetica" font-size="10.00">/vsomeip/implementation</text>
<text text-anchor="middle" x="224" y="-185.5" font-family="Helvetica" font-size="10.00">/tracing/include/header.hpp</text>
</a>
</g>
</g>
<!-- Node2 -->
<g id="node2" class="node">
<title>Node2</title>
<g id="a_node2"><a xlink:href="connector__impl_8hpp.html" target="_top" xlink:title=" ">
<polygon fill="white" stroke="black" points="81,-89.5 81,-141.5 215,-141.5 215,-89.5 81,-89.5"/>
<text text-anchor="start" x="89" y="-129.5" font-family="Helvetica" font-size="10.00">/home/ec2&#45;user/workspace</text>
<text text-anchor="start" x="89" y="-118.5" font-family="Helvetica" font-size="10.00">/vsomeip/implementation</text>
<text text-anchor="start" x="89" y="-107.5" font-family="Helvetica" font-size="10.00">/tracing/include/connector</text>
<text text-anchor="middle" x="148" y="-96.5" font-family="Helvetica" font-size="10.00">_impl.hpp</text>
</a>
</g>
</g>
<!-- Node1&#45;&gt;Node2 -->
<g id="edge1" class="edge">
<title>Node1&#45;&gt;Node2</title>
<path fill="none" stroke="midnightblue" d="M198.53,-170.68C189.76,-161.29 180,-150.82 171.41,-141.61"/>
<polygon fill="midnightblue" stroke="midnightblue" points="196.22,-173.34 205.6,-178.27 201.34,-168.57 196.22,-173.34"/>
</g>
<!-- Node5 -->
<g id="node5" class="node">
<title>Node5</title>
<g id="a_node5"><a xlink:href="header_8cpp.html" target="_top" xlink:title=" ">
<polygon fill="white" stroke="black" points="233,-95 233,-136 367,-136 367,-95 233,-95"/>
<text text-anchor="start" x="241" y="-124" font-family="Helvetica" font-size="10.00">/home/ec2&#45;user/workspace</text>
<text text-anchor="start" x="241" y="-113" font-family="Helvetica" font-size="10.00">/vsomeip/implementation</text>
<text text-anchor="middle" x="300" y="-102" font-family="Helvetica" font-size="10.00">/tracing/src/header.cpp</text>
</a>
</g>
</g>
<!-- Node1&#45;&gt;Node5 -->
<g id="edge4" class="edge">
<title>Node1&#45;&gt;Node5</title>
<path fill="none" stroke="midnightblue" d="M249.45,-170.71C260.04,-159.36 272.09,-146.43 281.77,-136.05"/>
<polygon fill="midnightblue" stroke="midnightblue" points="246.66,-168.57 242.4,-178.27 251.78,-173.34 246.66,-168.57"/>
</g>
<!-- Node3 -->
<g id="node3" class="node">
<title>Node3</title>
<g id="a_node3"><a xlink:href="runtime_2src_2application__impl_8cpp.html" target="_top" xlink:title=" ">
<polygon fill="white" stroke="black" points="0,-0.5 0,-52.5 134,-52.5 134,-0.5 0,-0.5"/>
<text text-anchor="start" x="8" y="-40.5" font-family="Helvetica" font-size="10.00">/home/ec2&#45;user/workspace</text>
<text text-anchor="start" x="8" y="-29.5" font-family="Helvetica" font-size="10.00">/vsomeip/implementation</text>
<text text-anchor="start" x="8" y="-18.5" font-family="Helvetica" font-size="10.00">/runtime/src/application</text>
<text text-anchor="middle" x="67" y="-7.5" font-family="Helvetica" font-size="10.00">_impl.cpp</text>
</a>
</g>
</g>
<!-- Node2&#45;&gt;Node3 -->
<g id="edge2" class="edge">
<title>Node2&#45;&gt;Node3</title>
<path fill="none" stroke="midnightblue" d="M117.55,-81.79C108.55,-72.13 98.85,-61.71 90.38,-52.61"/>
<polygon fill="midnightblue" stroke="midnightblue" points="115.2,-84.4 124.57,-89.34 120.32,-79.63 115.2,-84.4"/>
</g>
<!-- Node4 -->
<g id="node4" class="node">
<title>Node4</title>
<g id="a_node4"><a xlink:href="connector__impl_8cpp.html" target="_top" xlink:title=" ">
<polygon fill="white" stroke="black" points="152.5,-6 152.5,-47 305.5,-47 305.5,-6 152.5,-6"/>
<text text-anchor="start" x="160.5" y="-35" font-family="Helvetica" font-size="10.00">/home/ec2&#45;user/workspace</text>
<text text-anchor="start" x="160.5" y="-24" font-family="Helvetica" font-size="10.00">/vsomeip/implementation</text>
<text text-anchor="middle" x="229" y="-13" font-family="Helvetica" font-size="10.00">/tracing/src/connector_impl.cpp</text>
</a>
</g>
</g>
<!-- Node2&#45;&gt;Node4 -->
<g id="edge3" class="edge">
<title>Node2&#45;&gt;Node4</title>
<path fill="none" stroke="midnightblue" d="M178.4,-81.85C189.29,-70.15 201.23,-57.33 210.77,-47.08"/>
<polygon fill="midnightblue" stroke="midnightblue" points="175.68,-79.63 171.43,-89.34 180.8,-84.4 175.68,-79.63"/>
</g>
</g>
</svg>
