<?xml version="1.0" encoding="UTF-8" standalone="no"?>
<!DOCTYPE svg PUBLIC "-//W3C//DTD SVG 1.1//EN"
 "http://www.w3.org/Graphics/SVG/1.1/DTD/svg11.dtd">
<!-- Generated by graphviz version 2.44.0 (0)
 -->
<!-- Title: /home/ec2&#45;user/workspace/vsomeip/implementation/tracing/src/header.cpp Pages: 1 -->
<svg width="503pt" height="240pt"
 viewBox="0.00 0.00 503.00 240.00" xmlns="http://www.w3.org/2000/svg" xmlns:xlink="http://www.w3.org/1999/xlink">
<g id="graph0" class="graph" transform="scale(1 1) rotate(0) translate(4 236)">
<title>/home/ec2&#45;user/workspace/vsomeip/implementation/tracing/src/header.cpp</title>
<polygon fill="white" stroke="transparent" points="-4,4 -4,-236 499,-236 499,4 -4,4"/>
<!-- Node1 -->
<g id="node1" class="node">
<title>Node1</title>
<g id="a_node1"><a xlink:title=" ">
<polygon fill="#bfbfbf" stroke="black" points="142.5,-190.5 142.5,-231.5 276.5,-231.5 276.5,-190.5 142.5,-190.5"/>
<text text-anchor="start" x="150.5" y="-219.5" font-family="Helvetica" font-size="10.00">/home/ec2&#45;user/workspace</text>
<text text-anchor="start" x="150.5" y="-208.5" font-family="Helvetica" font-size="10.00">/vsomeip/implementation</text>
<text text-anchor="middle" x="209.5" y="-197.5" font-family="Helvetica" font-size="10.00">/tracing/src/header.cpp</text>
</a>
</g>
</g>
<!-- Node2 -->
<g id="node2" class="node">
<title>Node2</title>
<g id="a_node2"><a xlink:title=" ">
<polygon fill="white" stroke="#bfbfbf" points="9.5,-129 9.5,-148 55.5,-148 55.5,-129 9.5,-129"/>
<text text-anchor="middle" x="32.5" y="-136" font-family="Helvetica" font-size="10.00">cstring</text>
</a>
</g>
</g>
<!-- Node1&#45;&gt;Node2 -->
<g id="edge1" class="edge">
<title>Node1&#45;&gt;Node2</title>
<path fill="none" stroke="midnightblue" d="M156.86,-190.5C129.22,-180.04 94.86,-166.73 64.5,-154 63.13,-153.43 61.73,-152.83 60.32,-152.22"/>
<polygon fill="midnightblue" stroke="midnightblue" points="61.6,-148.96 51.03,-148.11 58.76,-155.36 61.6,-148.96"/>
</g>
<!-- Node3 -->
<g id="node3" class="node">
<title>Node3</title>
<g id="a_node3"><a xlink:href="header_8hpp.html" target="_top" xlink:title=" ">
<polygon fill="white" stroke="black" points="74,-129 74,-148 181,-148 181,-129 74,-129"/>
<text text-anchor="middle" x="127.5" y="-136" font-family="Helvetica" font-size="10.00">../include/header.hpp</text>
</a>
</g>
</g>
<!-- Node1&#45;&gt;Node3 -->
<g id="edge2" class="edge">
<title>Node1&#45;&gt;Node3</title>
<path fill="none" stroke="midnightblue" d="M186.66,-190.36C173.57,-179.11 157.38,-165.19 145.25,-154.76"/>
<polygon fill="midnightblue" stroke="midnightblue" points="147.45,-152.04 137.59,-148.17 142.89,-157.35 147.45,-152.04"/>
</g>
<!-- Node7 -->
<g id="node7" class="node">
<title>Node7</title>
<g id="a_node7"><a xlink:href="endpoint_8hpp.html" target="_top" xlink:title=" ">
<polygon fill="white" stroke="black" points="237.5,-56.5 237.5,-86.5 347.5,-86.5 347.5,-56.5 237.5,-56.5"/>
<text text-anchor="start" x="245.5" y="-74.5" font-family="Helvetica" font-size="10.00">../../endpoints/include</text>
<text text-anchor="middle" x="292.5" y="-63.5" font-family="Helvetica" font-size="10.00">/endpoint.hpp</text>
</a>
</g>
</g>
<!-- Node1&#45;&gt;Node7 -->
<g id="edge6" class="edge">
<title>Node1&#45;&gt;Node7</title>
<path fill="none" stroke="midnightblue" d="M210.05,-190.26C211.4,-171.64 215.63,-143.58 228.5,-123 236.04,-110.95 247.5,-100.59 258.66,-92.44"/>
<polygon fill="midnightblue" stroke="midnightblue" points="260.82,-95.2 267.07,-86.64 256.85,-89.44 260.82,-95.2"/>
</g>
<!-- Node11 -->
<g id="node11" class="node">
<title>Node11</title>
<g id="a_node11"><a xlink:href="client__endpoint_8hpp.html" target="_top" xlink:title=" ">
<polygon fill="white" stroke="black" points="237.5,-123.5 237.5,-153.5 347.5,-153.5 347.5,-123.5 237.5,-123.5"/>
<text text-anchor="start" x="245.5" y="-141.5" font-family="Helvetica" font-size="10.00">../../endpoints/include</text>
<text text-anchor="middle" x="292.5" y="-130.5" font-family="Helvetica" font-size="10.00">/client_endpoint.hpp</text>
</a>
</g>
</g>
<!-- Node1&#45;&gt;Node11 -->
<g id="edge11" class="edge">
<title>Node1&#45;&gt;Node11</title>
<path fill="none" stroke="midnightblue" d="M232.62,-190.36C243.66,-180.99 256.87,-169.76 268.08,-160.25"/>
<polygon fill="midnightblue" stroke="midnightblue" points="270.46,-162.81 275.82,-153.67 265.93,-157.48 270.46,-162.81"/>
</g>
<!-- Node12 -->
<g id="node12" class="node">
<title>Node12</title>
<g id="a_node12"><a xlink:href="byteorder_8hpp.html" target="_top" xlink:title=" ">
<polygon fill="white" stroke="black" points="365.5,-123.5 365.5,-153.5 457.5,-153.5 457.5,-123.5 365.5,-123.5"/>
<text text-anchor="start" x="373.5" y="-141.5" font-family="Helvetica" font-size="10.00">../../utility/include</text>
<text text-anchor="middle" x="411.5" y="-130.5" font-family="Helvetica" font-size="10.00">/byteorder.hpp</text>
</a>
</g>
</g>
<!-- Node1&#45;&gt;Node12 -->
<g id="edge13" class="edge">
<title>Node1&#45;&gt;Node12</title>
<path fill="none" stroke="midnightblue" d="M265.5,-190.46C295.61,-179.95 332.42,-167.1 361.55,-156.93"/>
<polygon fill="midnightblue" stroke="midnightblue" points="362.82,-160.2 371.11,-153.6 360.51,-153.59 362.82,-160.2"/>
</g>
<!-- Node4 -->
<g id="node4" class="node">
<title>Node4</title>
<g id="a_node4"><a xlink:title=" ">
<polygon fill="white" stroke="#bfbfbf" points="0,-62 0,-81 53,-81 53,-62 0,-62"/>
<text text-anchor="middle" x="26.5" y="-69" font-family="Helvetica" font-size="10.00">memory</text>
</a>
</g>
</g>
<!-- Node3&#45;&gt;Node4 -->
<g id="edge3" class="edge">
<title>Node3&#45;&gt;Node4</title>
<path fill="none" stroke="midnightblue" d="M113.88,-128.73C97.07,-117.92 68.27,-99.38 48.36,-86.57"/>
<polygon fill="midnightblue" stroke="midnightblue" points="50.21,-83.6 39.91,-81.13 46.42,-89.48 50.21,-83.6"/>
</g>
<!-- Node5 -->
<g id="node5" class="node">
<title>Node5</title>
<g id="a_node5"><a xlink:title=" ">
<polygon fill="white" stroke="#bfbfbf" points="11.5,-0.5 11.5,-19.5 151.5,-19.5 151.5,-0.5 11.5,-0.5"/>
<text text-anchor="middle" x="81.5" y="-7.5" font-family="Helvetica" font-size="10.00">vsomeip/primitive_types.hpp</text>
</a>
</g>
</g>
<!-- Node3&#45;&gt;Node5 -->
<g id="edge4" class="edge">
<title>Node3&#45;&gt;Node5</title>
<path fill="none" stroke="midnightblue" d="M122.04,-128.87C116.03,-119.06 106.44,-102.4 100.5,-87 93.18,-68.01 87.92,-45.24 84.82,-29.61"/>
<polygon fill="midnightblue" stroke="midnightblue" points="88.23,-28.82 82.94,-19.65 81.35,-30.12 88.23,-28.82"/>
</g>
<!-- Node6 -->
<g id="node6" class="node">
<title>Node6</title>
<g id="a_node6"><a xlink:title=" ">
<polygon fill="white" stroke="#bfbfbf" points="109.5,-56.5 109.5,-86.5 219.5,-86.5 219.5,-56.5 109.5,-56.5"/>
<text text-anchor="start" x="117.5" y="-74.5" font-family="Helvetica" font-size="10.00">boost/asio/ip/address</text>
<text text-anchor="middle" x="164.5" y="-63.5" font-family="Helvetica" font-size="10.00">_v4.hpp</text>
</a>
</g>
</g>
<!-- Node3&#45;&gt;Node6 -->
<g id="edge5" class="edge">
<title>Node3&#45;&gt;Node6</title>
<path fill="none" stroke="midnightblue" d="M132.49,-128.73C137.35,-120.2 144.93,-106.87 151.5,-95.33"/>
<polygon fill="midnightblue" stroke="midnightblue" points="154.57,-97.01 156.48,-86.59 148.49,-93.55 154.57,-97.01"/>
</g>
<!-- Node7&#45;&gt;Node5 -->
<g id="edge8" class="edge">
<title>Node7&#45;&gt;Node5</title>
<path fill="none" stroke="midnightblue" d="M242.76,-56.47C205.73,-46.03 155.82,-31.96 121.38,-22.25"/>
<polygon fill="midnightblue" stroke="midnightblue" points="122.24,-18.85 111.67,-19.51 120.34,-25.59 122.24,-18.85"/>
</g>
<!-- Node8 -->
<g id="node8" class="node">
<title>Node8</title>
<g id="a_node8"><a xlink:title=" ">
<polygon fill="white" stroke="#bfbfbf" points="169.5,-0.5 169.5,-19.5 297.5,-19.5 297.5,-0.5 169.5,-0.5"/>
<text text-anchor="middle" x="233.5" y="-7.5" font-family="Helvetica" font-size="10.00">boost/asio/ip/address.hpp</text>
</a>
</g>
</g>
<!-- Node7&#45;&gt;Node8 -->
<g id="edge7" class="edge">
<title>Node7&#45;&gt;Node8</title>
<path fill="none" stroke="midnightblue" d="M278.52,-56.4C269.77,-47.58 258.47,-36.18 249.38,-27.02"/>
<polygon fill="midnightblue" stroke="midnightblue" points="251.61,-24.29 242.09,-19.66 246.64,-29.22 251.61,-24.29"/>
</g>
<!-- Node9 -->
<g id="node9" class="node">
<title>Node9</title>
<g id="a_node9"><a xlink:title=" ">
<polygon fill="white" stroke="#bfbfbf" points="315.5,-0.5 315.5,-19.5 433.5,-19.5 433.5,-0.5 315.5,-0.5"/>
<text text-anchor="middle" x="374.5" y="-7.5" font-family="Helvetica" font-size="10.00">vsomeip/constants.hpp</text>
</a>
</g>
</g>
<!-- Node7&#45;&gt;Node9 -->
<g id="edge9" class="edge">
<title>Node7&#45;&gt;Node9</title>
<path fill="none" stroke="midnightblue" d="M311.93,-56.4C324.71,-47.13 341.39,-35.03 354.31,-25.65"/>
<polygon fill="midnightblue" stroke="midnightblue" points="356.53,-28.36 362.57,-19.66 352.42,-22.7 356.53,-28.36"/>
</g>
<!-- Node10 -->
<g id="node10" class="node">
<title>Node10</title>
<g id="a_node10"><a xlink:title=" ">
<polygon fill="white" stroke="#bfbfbf" points="452,-0.5 452,-19.5 495,-19.5 495,-0.5 452,-0.5"/>
<text text-anchor="middle" x="473.5" y="-7.5" font-family="Helvetica" font-size="10.00">vector</text>
</a>
</g>
</g>
<!-- Node7&#45;&gt;Node10 -->
<g id="edge10" class="edge">
<title>Node7&#45;&gt;Node10</title>
<path fill="none" stroke="midnightblue" d="M335.39,-56.4C368.12,-45.64 412.47,-31.06 441.98,-21.36"/>
<polygon fill="midnightblue" stroke="midnightblue" points="443.35,-24.59 451.76,-18.15 441.17,-17.94 443.35,-24.59"/>
</g>
<!-- Node11&#45;&gt;Node7 -->
<g id="edge12" class="edge">
<title>Node11&#45;&gt;Node7</title>
<path fill="none" stroke="midnightblue" d="M292.5,-123.4C292.5,-115.64 292.5,-105.81 292.5,-96.86"/>
<polygon fill="midnightblue" stroke="midnightblue" points="296,-96.58 292.5,-86.58 289,-96.58 296,-96.58"/>
</g>
</g>
</svg>
