<?xml version="1.0" encoding="UTF-8" standalone="no"?>
<!DOCTYPE svg PUBLIC "-//W3C//DTD SVG 1.1//EN"
 "http://www.w3.org/Graphics/SVG/1.1/DTD/svg11.dtd">
<!-- Generated by graphviz version 2.44.0 (0)
 -->
<!-- Title: /home/ec2&#45;user/workspace/vsomeip/implementation/tracing/include/header.hpp Pages: 1 -->
<svg width="348pt" height="117pt"
 viewBox="0.00 0.00 347.50 117.00" xmlns="http://www.w3.org/2000/svg" xmlns:xlink="http://www.w3.org/1999/xlink">
<g id="graph0" class="graph" transform="scale(1 1) rotate(0) translate(4 113)">
<title>/home/ec2&#45;user/workspace/vsomeip/implementation/tracing/include/header.hpp</title>
<polygon fill="white" stroke="transparent" points="-4,4 -4,-113 343.5,-113 343.5,4 -4,4"/>
<!-- Node1 -->
<g id="node1" class="node">
<title>Node1</title>
<g id="a_node1"><a xlink:title=" ">
<polygon fill="#bfbfbf" stroke="black" points="74.5,-67.5 74.5,-108.5 208.5,-108.5 208.5,-67.5 74.5,-67.5"/>
<text text-anchor="start" x="82.5" y="-96.5" font-family="Helvetica" font-size="10.00">/home/ec2&#45;user/workspace</text>
<text text-anchor="start" x="82.5" y="-85.5" font-family="Helvetica" font-size="10.00">/vsomeip/implementation</text>
<text text-anchor="middle" x="141.5" y="-74.5" font-family="Helvetica" font-size="10.00">/tracing/include/header.hpp</text>
</a>
</g>
</g>
<!-- Node2 -->
<g id="node2" class="node">
<title>Node2</title>
<g id="a_node2"><a xlink:title=" ">
<polygon fill="white" stroke="#bfbfbf" points="0,-6 0,-25 53,-25 53,-6 0,-6"/>
<text text-anchor="middle" x="26.5" y="-13" font-family="Helvetica" font-size="10.00">memory</text>
</a>
</g>
</g>
<!-- Node1&#45;&gt;Node2 -->
<g id="edge1" class="edge">
<title>Node1&#45;&gt;Node2</title>
<path fill="none" stroke="midnightblue" d="M109.47,-67.36C90.4,-55.67 66.65,-41.12 49.46,-30.57"/>
<polygon fill="midnightblue" stroke="midnightblue" points="51,-27.42 40.65,-25.17 47.34,-33.38 51,-27.42"/>
</g>
<!-- Node3 -->
<g id="node3" class="node">
<title>Node3</title>
<g id="a_node3"><a xlink:title=" ">
<polygon fill="white" stroke="#bfbfbf" points="71.5,-6 71.5,-25 211.5,-25 211.5,-6 71.5,-6"/>
<text text-anchor="middle" x="141.5" y="-13" font-family="Helvetica" font-size="10.00">vsomeip/primitive_types.hpp</text>
</a>
</g>
</g>
<!-- Node1&#45;&gt;Node3 -->
<g id="edge2" class="edge">
<title>Node1&#45;&gt;Node3</title>
<path fill="none" stroke="midnightblue" d="M141.5,-67.36C141.5,-57.3 141.5,-45.1 141.5,-35.18"/>
<polygon fill="midnightblue" stroke="midnightblue" points="145,-35.17 141.5,-25.17 138,-35.17 145,-35.17"/>
</g>
<!-- Node4 -->
<g id="node4" class="node">
<title>Node4</title>
<g id="a_node4"><a xlink:title=" ">
<polygon fill="white" stroke="#bfbfbf" points="229.5,-0.5 229.5,-30.5 339.5,-30.5 339.5,-0.5 229.5,-0.5"/>
<text text-anchor="start" x="237.5" y="-18.5" font-family="Helvetica" font-size="10.00">boost/asio/ip/address</text>
<text text-anchor="middle" x="284.5" y="-7.5" font-family="Helvetica" font-size="10.00">_v4.hpp</text>
</a>
</g>
</g>
<!-- Node1&#45;&gt;Node4 -->
<g id="edge3" class="edge">
<title>Node1&#45;&gt;Node4</title>
<path fill="none" stroke="midnightblue" d="M181.33,-67.36C201.74,-57.3 226.45,-45.12 246.58,-35.2"/>
<polygon fill="midnightblue" stroke="midnightblue" points="248.34,-38.23 255.76,-30.67 245.24,-31.95 248.34,-38.23"/>
</g>
</g>
</svg>
