<?xml version="1.0" encoding="UTF-8" standalone="no"?>
<!DOCTYPE svg PUBLIC "-//W3C//DTD SVG 1.1//EN"
 "http://www.w3.org/Graphics/SVG/1.1/DTD/svg11.dtd">
<!-- Generated by graphviz version 2.44.0 (0)
 -->
<!-- Title: /home/ec2&#45;user/workspace/vsomeip/implementation/service_discovery/include/defines.hpp Pages: 1 -->
<svg width="1462pt" height="150pt"
 viewBox="0.00 0.00 1461.50 150.00" xmlns="http://www.w3.org/2000/svg" xmlns:xlink="http://www.w3.org/1999/xlink">
<g id="graph0" class="graph" transform="scale(1 1) rotate(0) translate(4 146)">
<title>/home/ec2&#45;user/workspace/vsomeip/implementation/service_discovery/include/defines.hpp</title>
<polygon fill="white" stroke="transparent" points="-4,4 -4,-146 1457.5,-146 1457.5,4 -4,4"/>
<!-- Node1 -->
<g id="node1" class="node">
<title>Node1</title>
<g id="a_node1"><a xlink:title=" ">
<polygon fill="#bfbfbf" stroke="black" points="648,-89.5 648,-141.5 782,-141.5 782,-89.5 648,-89.5"/>
<text text-anchor="start" x="656" y="-129.5" font-family="Helvetica" font-size="10.00">/home/ec2&#45;user/workspace</text>
<text text-anchor="start" x="656" y="-118.5" font-family="Helvetica" font-size="10.00">/vsomeip/implementation</text>
<text text-anchor="start" x="656" y="-107.5" font-family="Helvetica" font-size="10.00">/service_discovery/include</text>
<text text-anchor="middle" x="715" y="-96.5" font-family="Helvetica" font-size="10.00">/defines.hpp</text>
</a>
</g>
</g>
<!-- Node2 -->
<g id="node2" class="node">
<title>Node2</title>
<g id="a_node2"><a xlink:href="configuration__impl_8cpp.html" target="_top" xlink:title=" ">
<polygon fill="white" stroke="black" points="0,-0.5 0,-52.5 150,-52.5 150,-0.5 0,-0.5"/>
<text text-anchor="start" x="8" y="-40.5" font-family="Helvetica" font-size="10.00">/home/ec2&#45;user/workspace</text>
<text text-anchor="start" x="8" y="-29.5" font-family="Helvetica" font-size="10.00">/vsomeip/implementation</text>
<text text-anchor="start" x="8" y="-18.5" font-family="Helvetica" font-size="10.00">/configuration/src/configuration</text>
<text text-anchor="middle" x="75" y="-7.5" font-family="Helvetica" font-size="10.00">_impl.cpp</text>
</a>
</g>
</g>
<!-- Node1&#45;&gt;Node2 -->
<g id="edge1" class="edge">
<title>Node1&#45;&gt;Node2</title>
<path fill="none" stroke="midnightblue" d="M637.46,-110.45C529.36,-103.78 327.65,-87.62 159,-53 156.16,-52.42 153.29,-51.78 150.39,-51.1"/>
<polygon fill="midnightblue" stroke="midnightblue" points="637.43,-113.96 647.62,-111.07 637.85,-106.97 637.43,-113.96"/>
</g>
<!-- Node3 -->
<g id="node3" class="node">
<title>Node3</title>
<g id="a_node3"><a xlink:href="server__endpoint__impl_8cpp.html" target="_top" xlink:title=" ">
<polygon fill="white" stroke="black" points="168,-0.5 168,-52.5 318,-52.5 318,-0.5 168,-0.5"/>
<text text-anchor="start" x="176" y="-40.5" font-family="Helvetica" font-size="10.00">/home/ec2&#45;user/workspace</text>
<text text-anchor="start" x="176" y="-29.5" font-family="Helvetica" font-size="10.00">/vsomeip/implementation</text>
<text text-anchor="start" x="176" y="-18.5" font-family="Helvetica" font-size="10.00">/endpoints/src/server_endpoint</text>
<text text-anchor="middle" x="243" y="-7.5" font-family="Helvetica" font-size="10.00">_impl.cpp</text>
</a>
</g>
</g>
<!-- Node1&#45;&gt;Node3 -->
<g id="edge2" class="edge">
<title>Node1&#45;&gt;Node3</title>
<path fill="none" stroke="midnightblue" d="M637.55,-105.41C558.8,-95.43 433.55,-77.49 327,-53 324.18,-52.35 321.31,-51.66 318.42,-50.93"/>
<polygon fill="midnightblue" stroke="midnightblue" points="637.51,-108.93 647.87,-106.71 638.38,-101.99 637.51,-108.93"/>
</g>
<!-- Node4 -->
<g id="node4" class="node">
<title>Node4</title>
<g id="a_node4"><a xlink:href="udp__server__endpoint__impl_8cpp.html" target="_top" xlink:title=" ">
<polygon fill="white" stroke="black" points="336,-0.5 336,-52.5 470,-52.5 470,-0.5 336,-0.5"/>
<text text-anchor="start" x="344" y="-40.5" font-family="Helvetica" font-size="10.00">/home/ec2&#45;user/workspace</text>
<text text-anchor="start" x="344" y="-29.5" font-family="Helvetica" font-size="10.00">/vsomeip/implementation</text>
<text text-anchor="start" x="344" y="-18.5" font-family="Helvetica" font-size="10.00">/endpoints/src/udp_server</text>
<text text-anchor="middle" x="403" y="-7.5" font-family="Helvetica" font-size="10.00">_endpoint_impl.cpp</text>
</a>
</g>
</g>
<!-- Node1&#45;&gt;Node4 -->
<g id="edge3" class="edge">
<title>Node1&#45;&gt;Node4</title>
<path fill="none" stroke="midnightblue" d="M637.82,-95.81C591.54,-84.25 531.65,-68.67 479,-53 476.07,-52.13 473.07,-51.21 470.06,-50.28"/>
<polygon fill="midnightblue" stroke="midnightblue" points="637.23,-99.27 647.78,-98.29 638.92,-92.48 637.23,-99.27"/>
</g>
<!-- Node5 -->
<g id="node5" class="node">
<title>Node5</title>
<g id="a_node5"><a xlink:href="routing__manager__impl_8cpp.html" target="_top" xlink:title=" ">
<polygon fill="white" stroke="black" points="488,-0.5 488,-52.5 628,-52.5 628,-0.5 488,-0.5"/>
<text text-anchor="start" x="496" y="-40.5" font-family="Helvetica" font-size="10.00">/home/ec2&#45;user/workspace</text>
<text text-anchor="start" x="496" y="-29.5" font-family="Helvetica" font-size="10.00">/vsomeip/implementation</text>
<text text-anchor="start" x="496" y="-18.5" font-family="Helvetica" font-size="10.00">/routing/src/routing_manager</text>
<text text-anchor="middle" x="558" y="-7.5" font-family="Helvetica" font-size="10.00">_impl.cpp</text>
</a>
</g>
</g>
<!-- Node1&#45;&gt;Node5 -->
<g id="edge4" class="edge">
<title>Node1&#45;&gt;Node5</title>
<path fill="none" stroke="midnightblue" d="M660.6,-84.35C641.91,-74 621.2,-62.52 603.31,-52.61"/>
<polygon fill="midnightblue" stroke="midnightblue" points="659.15,-87.55 669.59,-89.34 662.54,-81.43 659.15,-87.55"/>
</g>
<!-- Node6 -->
<g id="node6" class="node">
<title>Node6</title>
<g id="a_node6"><a xlink:href="ipv4__option__impl_8cpp.html" target="_top" xlink:title=" ">
<polygon fill="white" stroke="black" points="646.5,-0.5 646.5,-52.5 783.5,-52.5 783.5,-0.5 646.5,-0.5"/>
<text text-anchor="start" x="654.5" y="-40.5" font-family="Helvetica" font-size="10.00">/home/ec2&#45;user/workspace</text>
<text text-anchor="start" x="654.5" y="-29.5" font-family="Helvetica" font-size="10.00">/vsomeip/implementation</text>
<text text-anchor="start" x="654.5" y="-18.5" font-family="Helvetica" font-size="10.00">/service_discovery/src/ipv4</text>
<text text-anchor="middle" x="715" y="-7.5" font-family="Helvetica" font-size="10.00">_option_impl.cpp</text>
</a>
</g>
</g>
<!-- Node1&#45;&gt;Node6 -->
<g id="edge5" class="edge">
<title>Node1&#45;&gt;Node6</title>
<path fill="none" stroke="midnightblue" d="M715,-79.19C715,-70.28 715,-60.9 715,-52.61"/>
<polygon fill="midnightblue" stroke="midnightblue" points="711.5,-79.34 715,-89.34 718.5,-79.34 711.5,-79.34"/>
</g>
<!-- Node7 -->
<g id="node7" class="node">
<title>Node7</title>
<g id="a_node7"><a xlink:href="ipv6__option__impl_8cpp.html" target="_top" xlink:title=" ">
<polygon fill="white" stroke="black" points="801.5,-0.5 801.5,-52.5 938.5,-52.5 938.5,-0.5 801.5,-0.5"/>
<text text-anchor="start" x="809.5" y="-40.5" font-family="Helvetica" font-size="10.00">/home/ec2&#45;user/workspace</text>
<text text-anchor="start" x="809.5" y="-29.5" font-family="Helvetica" font-size="10.00">/vsomeip/implementation</text>
<text text-anchor="start" x="809.5" y="-18.5" font-family="Helvetica" font-size="10.00">/service_discovery/src/ipv6</text>
<text text-anchor="middle" x="870" y="-7.5" font-family="Helvetica" font-size="10.00">_option_impl.cpp</text>
</a>
</g>
</g>
<!-- Node1&#45;&gt;Node7 -->
<g id="edge6" class="edge">
<title>Node1&#45;&gt;Node7</title>
<path fill="none" stroke="midnightblue" d="M768.71,-84.35C787.16,-74 807.61,-62.52 825.27,-52.61"/>
<polygon fill="midnightblue" stroke="midnightblue" points="766.84,-81.39 759.83,-89.34 770.27,-87.49 766.84,-81.39"/>
</g>
<!-- Node8 -->
<g id="node8" class="node">
<title>Node8</title>
<g id="a_node8"><a xlink:href="service__discovery_2src_2message__impl_8cpp.html" target="_top" xlink:title=" ">
<polygon fill="white" stroke="black" points="957,-0.5 957,-52.5 1115,-52.5 1115,-0.5 957,-0.5"/>
<text text-anchor="start" x="965" y="-40.5" font-family="Helvetica" font-size="10.00">/home/ec2&#45;user/workspace</text>
<text text-anchor="start" x="965" y="-29.5" font-family="Helvetica" font-size="10.00">/vsomeip/implementation</text>
<text text-anchor="start" x="965" y="-18.5" font-family="Helvetica" font-size="10.00">/service_discovery/src/message</text>
<text text-anchor="middle" x="1036" y="-7.5" font-family="Helvetica" font-size="10.00">_impl.cpp</text>
</a>
</g>
</g>
<!-- Node1&#45;&gt;Node8 -->
<g id="edge7" class="edge">
<title>Node1&#45;&gt;Node8</title>
<path fill="none" stroke="midnightblue" d="M791.94,-94.69C837.41,-82.85 896.07,-67.38 948,-53 950.91,-52.19 953.88,-51.37 956.87,-50.53"/>
<polygon fill="midnightblue" stroke="midnightblue" points="790.95,-91.33 782.16,-97.23 792.72,-98.1 790.95,-91.33"/>
</g>
<!-- Node9 -->
<g id="node9" class="node">
<title>Node9</title>
<g id="a_node9"><a xlink:href="service__discovery_2src_2runtime__impl_8cpp.html" target="_top" xlink:title=" ">
<polygon fill="white" stroke="black" points="1133.5,-0.5 1133.5,-52.5 1284.5,-52.5 1284.5,-0.5 1133.5,-0.5"/>
<text text-anchor="start" x="1141.5" y="-40.5" font-family="Helvetica" font-size="10.00">/home/ec2&#45;user/workspace</text>
<text text-anchor="start" x="1141.5" y="-29.5" font-family="Helvetica" font-size="10.00">/vsomeip/implementation</text>
<text text-anchor="start" x="1141.5" y="-18.5" font-family="Helvetica" font-size="10.00">/service_discovery/src/runtime</text>
<text text-anchor="middle" x="1209" y="-7.5" font-family="Helvetica" font-size="10.00">_impl.cpp</text>
</a>
</g>
</g>
<!-- Node1&#45;&gt;Node9 -->
<g id="edge8" class="edge">
<title>Node1&#45;&gt;Node9</title>
<path fill="none" stroke="midnightblue" d="M792.2,-106.21C874.89,-96.56 1009.65,-78.61 1124,-53 1127.01,-52.33 1130.06,-51.6 1133.14,-50.84"/>
<polygon fill="midnightblue" stroke="midnightblue" points="791.66,-102.75 782.13,-107.37 792.47,-109.7 791.66,-102.75"/>
</g>
<!-- Node10 -->
<g id="node10" class="node">
<title>Node10</title>
<g id="a_node10"><a xlink:href="service__discovery__impl_8cpp.html" target="_top" xlink:title=" ">
<polygon fill="white" stroke="black" points="1302.5,-0.5 1302.5,-52.5 1453.5,-52.5 1453.5,-0.5 1302.5,-0.5"/>
<text text-anchor="start" x="1310.5" y="-40.5" font-family="Helvetica" font-size="10.00">/home/ec2&#45;user/workspace</text>
<text text-anchor="start" x="1310.5" y="-29.5" font-family="Helvetica" font-size="10.00">/vsomeip/implementation</text>
<text text-anchor="start" x="1310.5" y="-18.5" font-family="Helvetica" font-size="10.00">/service_discovery/src/service</text>
<text text-anchor="middle" x="1378" y="-7.5" font-family="Helvetica" font-size="10.00">_discovery_impl.cpp</text>
</a>
</g>
</g>
<!-- Node1&#45;&gt;Node10 -->
<g id="edge9" class="edge">
<title>Node1&#45;&gt;Node10</title>
<path fill="none" stroke="midnightblue" d="M792.21,-110.94C903.88,-104.75 1116.52,-89.03 1294,-53 1296.69,-52.45 1299.41,-51.86 1302.16,-51.22"/>
<polygon fill="midnightblue" stroke="midnightblue" points="791.85,-107.46 782.05,-111.49 792.23,-114.45 791.85,-107.46"/>
</g>
</g>
</svg>
