<?xml version="1.0" encoding="UTF-8" standalone="no"?>
<!DOCTYPE svg PUBLIC "-//W3C//DTD SVG 1.1//EN"
 "http://www.w3.org/Graphics/SVG/1.1/DTD/svg11.dtd">
<!-- Generated by graphviz version 2.44.0 (0)
 -->
<!-- Title: /home/ec2&#45;user/workspace/vsomeip/implementation/service_discovery/include/runtime.hpp Pages: 1 -->
<svg width="628pt" height="239pt"
 viewBox="0.00 0.00 627.50 239.00" xmlns="http://www.w3.org/2000/svg" xmlns:xlink="http://www.w3.org/1999/xlink">
<g id="graph0" class="graph" transform="scale(1 1) rotate(0) translate(4 235)">
<title>/home/ec2&#45;user/workspace/vsomeip/implementation/service_discovery/include/runtime.hpp</title>
<polygon fill="white" stroke="transparent" points="-4,4 -4,-235 623.5,-235 623.5,4 -4,4"/>
<!-- Node1 -->
<g id="node1" class="node">
<title>Node1</title>
<g id="a_node1"><a xlink:title=" ">
<polygon fill="#bfbfbf" stroke="black" points="238,-178.5 238,-230.5 372,-230.5 372,-178.5 238,-178.5"/>
<text text-anchor="start" x="246" y="-218.5" font-family="Helvetica" font-size="10.00">/home/ec2&#45;user/workspace</text>
<text text-anchor="start" x="246" y="-207.5" font-family="Helvetica" font-size="10.00">/vsomeip/implementation</text>
<text text-anchor="start" x="246" y="-196.5" font-family="Helvetica" font-size="10.00">/service_discovery/include</text>
<text text-anchor="middle" x="305" y="-185.5" font-family="Helvetica" font-size="10.00">/runtime.hpp</text>
</a>
</g>
</g>
<!-- Node2 -->
<g id="node2" class="node">
<title>Node2</title>
<g id="a_node2"><a xlink:href="routing__manager__client_8cpp.html" target="_top" xlink:title=" ">
<polygon fill="white" stroke="black" points="0,-89.5 0,-141.5 140,-141.5 140,-89.5 0,-89.5"/>
<text text-anchor="start" x="8" y="-129.5" font-family="Helvetica" font-size="10.00">/home/ec2&#45;user/workspace</text>
<text text-anchor="start" x="8" y="-118.5" font-family="Helvetica" font-size="10.00">/vsomeip/implementation</text>
<text text-anchor="start" x="8" y="-107.5" font-family="Helvetica" font-size="10.00">/routing/src/routing_manager</text>
<text text-anchor="middle" x="70" y="-96.5" font-family="Helvetica" font-size="10.00">_client.cpp</text>
</a>
</g>
</g>
<!-- Node1&#45;&gt;Node2 -->
<g id="edge1" class="edge">
<title>Node1&#45;&gt;Node2</title>
<path fill="none" stroke="midnightblue" d="M228.25,-175.09C199.13,-164.3 166.19,-152.11 137.93,-141.65"/>
<polygon fill="midnightblue" stroke="midnightblue" points="227.38,-178.5 237.97,-178.69 229.81,-171.93 227.38,-178.5"/>
</g>
<!-- Node3 -->
<g id="node3" class="node">
<title>Node3</title>
<g id="a_node3"><a xlink:href="routing__manager__impl_8cpp.html" target="_top" xlink:title=" ">
<polygon fill="white" stroke="black" points="158,-89.5 158,-141.5 298,-141.5 298,-89.5 158,-89.5"/>
<text text-anchor="start" x="166" y="-129.5" font-family="Helvetica" font-size="10.00">/home/ec2&#45;user/workspace</text>
<text text-anchor="start" x="166" y="-118.5" font-family="Helvetica" font-size="10.00">/vsomeip/implementation</text>
<text text-anchor="start" x="166" y="-107.5" font-family="Helvetica" font-size="10.00">/routing/src/routing_manager</text>
<text text-anchor="middle" x="228" y="-96.5" font-family="Helvetica" font-size="10.00">_impl.cpp</text>
</a>
</g>
</g>
<!-- Node1&#45;&gt;Node3 -->
<g id="edge2" class="edge">
<title>Node1&#45;&gt;Node3</title>
<path fill="none" stroke="midnightblue" d="M276.05,-170.79C267.5,-161.13 258.28,-150.71 250.22,-141.61"/>
<polygon fill="midnightblue" stroke="midnightblue" points="273.48,-173.17 282.73,-178.34 278.72,-168.53 273.48,-173.17"/>
</g>
<!-- Node4 -->
<g id="node4" class="node">
<title>Node4</title>
<g id="a_node4"><a xlink:href="service__discovery_2include_2runtime__impl_8hpp.html" target="_top" xlink:title=" ">
<polygon fill="white" stroke="black" points="316,-89.5 316,-141.5 450,-141.5 450,-89.5 316,-89.5"/>
<text text-anchor="start" x="324" y="-129.5" font-family="Helvetica" font-size="10.00">/home/ec2&#45;user/workspace</text>
<text text-anchor="start" x="324" y="-118.5" font-family="Helvetica" font-size="10.00">/vsomeip/implementation</text>
<text text-anchor="start" x="324" y="-107.5" font-family="Helvetica" font-size="10.00">/service_discovery/include</text>
<text text-anchor="middle" x="383" y="-96.5" font-family="Helvetica" font-size="10.00">/runtime_impl.hpp</text>
</a>
</g>
</g>
<!-- Node1&#45;&gt;Node4 -->
<g id="edge3" class="edge">
<title>Node1&#45;&gt;Node4</title>
<path fill="none" stroke="midnightblue" d="M334.33,-170.79C342.99,-161.13 352.33,-150.71 360.49,-141.61"/>
<polygon fill="midnightblue" stroke="midnightblue" points="331.63,-168.55 327.56,-178.34 336.84,-173.23 331.63,-168.55"/>
</g>
<!-- Node6 -->
<g id="node6" class="node">
<title>Node6</title>
<g id="a_node6"><a xlink:href="service__discovery__impl_8cpp.html" target="_top" xlink:title=" ">
<polygon fill="white" stroke="black" points="468.5,-89.5 468.5,-141.5 619.5,-141.5 619.5,-89.5 468.5,-89.5"/>
<text text-anchor="start" x="476.5" y="-129.5" font-family="Helvetica" font-size="10.00">/home/ec2&#45;user/workspace</text>
<text text-anchor="start" x="476.5" y="-118.5" font-family="Helvetica" font-size="10.00">/vsomeip/implementation</text>
<text text-anchor="start" x="476.5" y="-107.5" font-family="Helvetica" font-size="10.00">/service_discovery/src/service</text>
<text text-anchor="middle" x="544" y="-96.5" font-family="Helvetica" font-size="10.00">_discovery_impl.cpp</text>
</a>
</g>
</g>
<!-- Node1&#45;&gt;Node6 -->
<g id="edge5" class="edge">
<title>Node1&#45;&gt;Node6</title>
<path fill="none" stroke="midnightblue" d="M381.8,-175.54C411.84,-164.61 446.01,-152.17 475.22,-141.54"/>
<polygon fill="midnightblue" stroke="midnightblue" points="380.41,-172.32 372.21,-179.03 382.8,-178.9 380.41,-172.32"/>
</g>
<!-- Node5 -->
<g id="node5" class="node">
<title>Node5</title>
<g id="a_node5"><a xlink:href="service__discovery_2src_2runtime__impl_8cpp.html" target="_top" xlink:title=" ">
<polygon fill="white" stroke="black" points="307.5,-0.5 307.5,-52.5 458.5,-52.5 458.5,-0.5 307.5,-0.5"/>
<text text-anchor="start" x="315.5" y="-40.5" font-family="Helvetica" font-size="10.00">/home/ec2&#45;user/workspace</text>
<text text-anchor="start" x="315.5" y="-29.5" font-family="Helvetica" font-size="10.00">/vsomeip/implementation</text>
<text text-anchor="start" x="315.5" y="-18.5" font-family="Helvetica" font-size="10.00">/service_discovery/src/runtime</text>
<text text-anchor="middle" x="383" y="-7.5" font-family="Helvetica" font-size="10.00">_impl.cpp</text>
</a>
</g>
</g>
<!-- Node4&#45;&gt;Node5 -->
<g id="edge4" class="edge">
<title>Node4&#45;&gt;Node5</title>
<path fill="none" stroke="midnightblue" d="M383,-79.19C383,-70.28 383,-60.9 383,-52.61"/>
<polygon fill="midnightblue" stroke="midnightblue" points="379.5,-79.34 383,-89.34 386.5,-79.34 379.5,-79.34"/>
</g>
</g>
</svg>
