<?xml version="1.0" encoding="UTF-8" standalone="no"?>
<!DOCTYPE svg PUBLIC "-//W3C//DTD SVG 1.1//EN"
 "http://www.w3.org/Graphics/SVG/1.1/DTD/svg11.dtd">
<!-- Generated by graphviz version 2.44.0 (0)
 -->
<!-- Title: /home/ec2&#45;user/workspace/vsomeip/implementation/service_discovery/include/constants.hpp Pages: 1 -->
<svg width="276pt" height="128pt"
 viewBox="0.00 0.00 276.00 128.00" xmlns="http://www.w3.org/2000/svg" xmlns:xlink="http://www.w3.org/1999/xlink">
<g id="graph0" class="graph" transform="scale(1 1) rotate(0) translate(4 124)">
<title>/home/ec2&#45;user/workspace/vsomeip/implementation/service_discovery/include/constants.hpp</title>
<polygon fill="white" stroke="transparent" points="-4,4 -4,-124 272,-124 272,4 -4,4"/>
<!-- Node1 -->
<g id="node1" class="node">
<title>Node1</title>
<g id="a_node1"><a xlink:title=" ">
<polygon fill="#bfbfbf" stroke="black" points="59,-67.5 59,-119.5 193,-119.5 193,-67.5 59,-67.5"/>
<text text-anchor="start" x="67" y="-107.5" font-family="Helvetica" font-size="10.00">/home/ec2&#45;user/workspace</text>
<text text-anchor="start" x="67" y="-96.5" font-family="Helvetica" font-size="10.00">/vsomeip/implementation</text>
<text text-anchor="start" x="67" y="-85.5" font-family="Helvetica" font-size="10.00">/service_discovery/include</text>
<text text-anchor="middle" x="126" y="-74.5" font-family="Helvetica" font-size="10.00">/constants.hpp</text>
</a>
</g>
</g>
<!-- Node2 -->
<g id="node2" class="node">
<title>Node2</title>
<g id="a_node2"><a xlink:title=" ">
<polygon fill="white" stroke="#bfbfbf" points="0,-0.5 0,-30.5 110,-30.5 110,-0.5 0,-0.5"/>
<text text-anchor="start" x="8" y="-18.5" font-family="Helvetica" font-size="10.00">vsomeip/enumeration</text>
<text text-anchor="middle" x="55" y="-7.5" font-family="Helvetica" font-size="10.00">_types.hpp</text>
</a>
</g>
</g>
<!-- Node1&#45;&gt;Node2 -->
<g id="edge1" class="edge">
<title>Node1&#45;&gt;Node2</title>
<path fill="none" stroke="midnightblue" d="M102.36,-67.19C93.62,-57.84 83.8,-47.33 75.38,-38.32"/>
<polygon fill="midnightblue" stroke="midnightblue" points="77.79,-35.76 68.4,-30.85 72.67,-40.54 77.79,-35.76"/>
</g>
<!-- Node3 -->
<g id="node3" class="node">
<title>Node3</title>
<g id="a_node3"><a xlink:title=" ">
<polygon fill="white" stroke="#bfbfbf" points="128,-6 128,-25 268,-25 268,-6 128,-6"/>
<text text-anchor="middle" x="198" y="-13" font-family="Helvetica" font-size="10.00">vsomeip/primitive_types.hpp</text>
</a>
</g>
</g>
<!-- Node1&#45;&gt;Node3 -->
<g id="edge2" class="edge">
<title>Node1&#45;&gt;Node3</title>
<path fill="none" stroke="midnightblue" d="M149.97,-67.19C160.82,-55.74 173.31,-42.56 182.84,-32.51"/>
<polygon fill="midnightblue" stroke="midnightblue" points="185.41,-34.88 189.75,-25.21 180.33,-30.06 185.41,-34.88"/>
</g>
</g>
</svg>
