<?xml version="1.0" encoding="UTF-8" standalone="no"?>
<!DOCTYPE svg PUBLIC "-//W3C//DTD SVG 1.1//EN"
 "http://www.w3.org/Graphics/SVG/1.1/DTD/svg11.dtd">
<!-- Generated by graphviz version 2.44.0 (0)
 -->
<!-- Title: /home/ec2&#45;user/workspace/vsomeip/implementation/configuration/include/trace.hpp Pages: 1 -->
<svg width="523pt" height="117pt"
 viewBox="0.00 0.00 523.00 117.00" xmlns="http://www.w3.org/2000/svg" xmlns:xlink="http://www.w3.org/1999/xlink">
<g id="graph0" class="graph" transform="scale(1 1) rotate(0) translate(4 113)">
<title>/home/ec2&#45;user/workspace/vsomeip/implementation/configuration/include/trace.hpp</title>
<polygon fill="white" stroke="transparent" points="-4,4 -4,-113 519,-113 519,4 -4,4"/>
<!-- Node1 -->
<g id="node1" class="node">
<title>Node1</title>
<g id="a_node1"><a xlink:title=" ">
<polygon fill="#bfbfbf" stroke="black" points="114.5,-67.5 114.5,-108.5 266.5,-108.5 266.5,-67.5 114.5,-67.5"/>
<text text-anchor="start" x="122.5" y="-96.5" font-family="Helvetica" font-size="10.00">/home/ec2&#45;user/workspace</text>
<text text-anchor="start" x="122.5" y="-85.5" font-family="Helvetica" font-size="10.00">/vsomeip/implementation</text>
<text text-anchor="middle" x="190.5" y="-74.5" font-family="Helvetica" font-size="10.00">/configuration/include/trace.hpp</text>
</a>
</g>
</g>
<!-- Node2 -->
<g id="node2" class="node">
<title>Node2</title>
<g id="a_node2"><a xlink:title=" ">
<polygon fill="white" stroke="#bfbfbf" points="0,-6 0,-25 41,-25 41,-6 0,-6"/>
<text text-anchor="middle" x="20.5" y="-13" font-family="Helvetica" font-size="10.00">string</text>
</a>
</g>
</g>
<!-- Node1&#45;&gt;Node2 -->
<g id="edge1" class="edge">
<title>Node1&#45;&gt;Node2</title>
<path fill="none" stroke="midnightblue" d="M138.16,-67.44C111.41,-57.13 78.47,-43.97 49.5,-31 48.34,-30.48 47.17,-29.94 45.98,-29.39"/>
<polygon fill="midnightblue" stroke="midnightblue" points="47.47,-26.23 36.95,-25.03 44.43,-32.53 47.47,-26.23"/>
</g>
<!-- Node3 -->
<g id="node3" class="node">
<title>Node3</title>
<g id="a_node3"><a xlink:title=" ">
<polygon fill="white" stroke="#bfbfbf" points="59,-6 59,-25 102,-25 102,-6 59,-6"/>
<text text-anchor="middle" x="80.5" y="-13" font-family="Helvetica" font-size="10.00">vector</text>
</a>
</g>
</g>
<!-- Node1&#45;&gt;Node3 -->
<g id="edge2" class="edge">
<title>Node1&#45;&gt;Node3</title>
<path fill="none" stroke="midnightblue" d="M159.86,-67.36C141.62,-55.67 118.91,-41.12 102.46,-30.57"/>
<polygon fill="midnightblue" stroke="midnightblue" points="104.34,-27.62 94.03,-25.17 100.56,-33.52 104.34,-27.62"/>
</g>
<!-- Node4 -->
<g id="node4" class="node">
<title>Node4</title>
<g id="a_node4"><a xlink:title=" ">
<polygon fill="white" stroke="#bfbfbf" points="120.5,-6 120.5,-25 260.5,-25 260.5,-6 120.5,-6"/>
<text text-anchor="middle" x="190.5" y="-13" font-family="Helvetica" font-size="10.00">vsomeip/primitive_types.hpp</text>
</a>
</g>
</g>
<!-- Node1&#45;&gt;Node4 -->
<g id="edge3" class="edge">
<title>Node1&#45;&gt;Node4</title>
<path fill="none" stroke="midnightblue" d="M190.5,-67.36C190.5,-57.3 190.5,-45.1 190.5,-35.18"/>
<polygon fill="midnightblue" stroke="midnightblue" points="194,-35.17 190.5,-25.17 187,-35.17 194,-35.17"/>
</g>
<!-- Node5 -->
<g id="node5" class="node">
<title>Node5</title>
<g id="a_node5"><a xlink:title=" ">
<polygon fill="white" stroke="#bfbfbf" points="279,-6 279,-25 376,-25 376,-6 279,-6"/>
<text text-anchor="middle" x="327.5" y="-13" font-family="Helvetica" font-size="10.00">vsomeip/trace.hpp</text>
</a>
</g>
</g>
<!-- Node1&#45;&gt;Node5 -->
<g id="edge4" class="edge">
<title>Node1&#45;&gt;Node5</title>
<path fill="none" stroke="midnightblue" d="M228.66,-67.36C251.9,-55.4 280.98,-40.44 301.56,-29.85"/>
<polygon fill="midnightblue" stroke="midnightblue" points="303.36,-32.86 310.65,-25.17 300.15,-26.64 303.36,-32.86"/>
</g>
<!-- Node6 -->
<g id="node6" class="node">
<title>Node6</title>
<g id="a_node6"><a xlink:href="implementation_2tracing_2include_2enumeration__types_8hpp.html" target="_top" xlink:title=" ">
<polygon fill="white" stroke="black" points="394,-0.5 394,-30.5 515,-30.5 515,-0.5 394,-0.5"/>
<text text-anchor="start" x="402" y="-18.5" font-family="Helvetica" font-size="10.00">../../tracing/include</text>
<text text-anchor="middle" x="454.5" y="-7.5" font-family="Helvetica" font-size="10.00">/enumeration_types.hpp</text>
</a>
</g>
</g>
<!-- Node1&#45;&gt;Node6 -->
<g id="edge5" class="edge">
<title>Node1&#45;&gt;Node6</title>
<path fill="none" stroke="midnightblue" d="M263.69,-67.46C303.89,-56.72 353.24,-43.54 391.68,-33.28"/>
<polygon fill="midnightblue" stroke="midnightblue" points="392.95,-36.56 401.71,-30.6 391.15,-29.8 392.95,-36.56"/>
</g>
</g>
</svg>
