<?xml version="1.0" encoding="UTF-8" standalone="no"?>
<!DOCTYPE svg PUBLIC "-//W3C//DTD SVG 1.1//EN"
 "http://www.w3.org/Graphics/SVG/1.1/DTD/svg11.dtd">
<!-- Generated by graphviz version 2.44.0 (0)
 -->
<!-- Title: /home/ec2&#45;user/workspace/vsomeip/implementation/service_discovery/include/enumeration_types.hpp Pages: 1 -->
<svg width="1966pt" height="506pt"
 viewBox="0.00 0.00 1966.43 506.00" xmlns="http://www.w3.org/2000/svg" xmlns:xlink="http://www.w3.org/1999/xlink">
<g id="graph0" class="graph" transform="scale(1 1) rotate(0) translate(4 502)">
<title>/home/ec2&#45;user/workspace/vsomeip/implementation/service_discovery/include/enumeration_types.hpp</title>
<polygon fill="white" stroke="transparent" points="-4,4 -4,-502 1962.43,-502 1962.43,4 -4,4"/>
<!-- Node1 -->
<g id="node1" class="node">
<title>Node1</title>
<g id="a_node1"><a xlink:title=" ">
<polygon fill="#bfbfbf" stroke="black" points="188.27,-445.5 188.27,-497.5 322.27,-497.5 322.27,-445.5 188.27,-445.5"/>
<text text-anchor="start" x="196.27" y="-485.5" font-family="Helvetica" font-size="10.00">/home/ec2&#45;user/workspace</text>
<text text-anchor="start" x="196.27" y="-474.5" font-family="Helvetica" font-size="10.00">/vsomeip/implementation</text>
<text text-anchor="start" x="196.27" y="-463.5" font-family="Helvetica" font-size="10.00">/service_discovery/include</text>
<text text-anchor="middle" x="255.27" y="-452.5" font-family="Helvetica" font-size="10.00">/enumeration_types.hpp</text>
</a>
</g>
</g>
<!-- Node2 -->
<g id="node2" class="node">
<title>Node2</title>
<g id="a_node2"><a xlink:href="entry__impl_8hpp.html" target="_top" xlink:title=" ">
<polygon fill="white" stroke="black" points="188.27,-267.5 188.27,-319.5 322.27,-319.5 322.27,-267.5 188.27,-267.5"/>
<text text-anchor="start" x="196.27" y="-307.5" font-family="Helvetica" font-size="10.00">/home/ec2&#45;user/workspace</text>
<text text-anchor="start" x="196.27" y="-296.5" font-family="Helvetica" font-size="10.00">/vsomeip/implementation</text>
<text text-anchor="start" x="196.27" y="-285.5" font-family="Helvetica" font-size="10.00">/service_discovery/include</text>
<text text-anchor="middle" x="255.27" y="-274.5" font-family="Helvetica" font-size="10.00">/entry_impl.hpp</text>
</a>
</g>
</g>
<!-- Node1&#45;&gt;Node2 -->
<g id="edge1" class="edge">
<title>Node1&#45;&gt;Node2</title>
<path fill="none" stroke="midnightblue" d="M255.27,-435.25C255.27,-401.04 255.27,-349.97 255.27,-319.67"/>
<polygon fill="midnightblue" stroke="midnightblue" points="251.77,-435.28 255.27,-445.28 258.77,-435.28 251.77,-435.28"/>
</g>
<!-- Node6 -->
<g id="node6" class="node">
<title>Node6</title>
<g id="a_node6"><a xlink:href="service__discovery__impl_8cpp.html" target="_top" xlink:title=" ">
<polygon fill="white" stroke="black" points="429.77,-0.5 429.77,-52.5 580.77,-52.5 580.77,-0.5 429.77,-0.5"/>
<text text-anchor="start" x="437.77" y="-40.5" font-family="Helvetica" font-size="10.00">/home/ec2&#45;user/workspace</text>
<text text-anchor="start" x="437.77" y="-29.5" font-family="Helvetica" font-size="10.00">/vsomeip/implementation</text>
<text text-anchor="start" x="437.77" y="-18.5" font-family="Helvetica" font-size="10.00">/service_discovery/src/service</text>
<text text-anchor="middle" x="505.27" y="-7.5" font-family="Helvetica" font-size="10.00">_discovery_impl.cpp</text>
</a>
</g>
</g>
<!-- Node1&#45;&gt;Node6 -->
<g id="edge47" class="edge">
<title>Node1&#45;&gt;Node6</title>
<path fill="none" stroke="midnightblue" d="M178.01,-452.18C102.96,-429.24 0.27,-381.89 0.27,-294.5 0.27,-294.5 0.27,-294.5 0.27,-203.5 0.27,-146.76 -4.11,-152.57 159.27,-89 248.4,-54.32 358.1,-39.05 429.77,-32.43"/>
<polygon fill="midnightblue" stroke="midnightblue" points="177.36,-455.64 187.94,-455.12 179.35,-448.92 177.36,-455.64"/>
</g>
<!-- Node10 -->
<g id="node10" class="node">
<title>Node10</title>
<g id="a_node10"><a xlink:href="option__impl_8hpp.html" target="_top" xlink:title=" ">
<polygon fill="white" stroke="black" points="976.27,-356.5 976.27,-408.5 1110.27,-408.5 1110.27,-356.5 976.27,-356.5"/>
<text text-anchor="start" x="984.27" y="-396.5" font-family="Helvetica" font-size="10.00">/home/ec2&#45;user/workspace</text>
<text text-anchor="start" x="984.27" y="-385.5" font-family="Helvetica" font-size="10.00">/vsomeip/implementation</text>
<text text-anchor="start" x="984.27" y="-374.5" font-family="Helvetica" font-size="10.00">/service_discovery/include</text>
<text text-anchor="middle" x="1043.27" y="-363.5" font-family="Helvetica" font-size="10.00">/option_impl.hpp</text>
</a>
</g>
</g>
<!-- Node1&#45;&gt;Node10 -->
<g id="edge11" class="edge">
<title>Node1&#45;&gt;Node10</title>
<path fill="none" stroke="midnightblue" d="M332.8,-461.94C487.23,-444.89 830.88,-406.95 976.26,-390.9"/>
<polygon fill="midnightblue" stroke="midnightblue" points="332.01,-458.51 322.46,-463.08 332.78,-465.46 332.01,-458.51"/>
</g>
<!-- Node3 -->
<g id="node3" class="node">
<title>Node3</title>
<g id="a_node3"><a xlink:href="eventgroupentry__impl_8hpp.html" target="_top" xlink:title=" ">
<polygon fill="white" stroke="black" points="340.27,-178.5 340.27,-230.5 474.27,-230.5 474.27,-178.5 340.27,-178.5"/>
<text text-anchor="start" x="348.27" y="-218.5" font-family="Helvetica" font-size="10.00">/home/ec2&#45;user/workspace</text>
<text text-anchor="start" x="348.27" y="-207.5" font-family="Helvetica" font-size="10.00">/vsomeip/implementation</text>
<text text-anchor="start" x="348.27" y="-196.5" font-family="Helvetica" font-size="10.00">/service_discovery/include</text>
<text text-anchor="middle" x="407.27" y="-185.5" font-family="Helvetica" font-size="10.00">/eventgroupentry_impl.hpp</text>
</a>
</g>
</g>
<!-- Node2&#45;&gt;Node3 -->
<g id="edge2" class="edge">
<title>Node2&#45;&gt;Node3</title>
<path fill="none" stroke="midnightblue" d="M307.94,-262.35C326.04,-252 346.09,-240.52 363.41,-230.61"/>
<polygon fill="midnightblue" stroke="midnightblue" points="306.18,-259.33 299.24,-267.34 309.66,-265.41 306.18,-259.33"/>
</g>
<!-- Node7 -->
<g id="node7" class="node">
<title>Node7</title>
<g id="a_node7"><a xlink:href="serviceentry__impl_8hpp.html" target="_top" xlink:title=" ">
<polygon fill="white" stroke="black" points="188.27,-178.5 188.27,-230.5 322.27,-230.5 322.27,-178.5 188.27,-178.5"/>
<text text-anchor="start" x="196.27" y="-218.5" font-family="Helvetica" font-size="10.00">/home/ec2&#45;user/workspace</text>
<text text-anchor="start" x="196.27" y="-207.5" font-family="Helvetica" font-size="10.00">/vsomeip/implementation</text>
<text text-anchor="start" x="196.27" y="-196.5" font-family="Helvetica" font-size="10.00">/service_discovery/include</text>
<text text-anchor="middle" x="255.27" y="-185.5" font-family="Helvetica" font-size="10.00">/serviceentry_impl.hpp</text>
</a>
</g>
</g>
<!-- Node2&#45;&gt;Node7 -->
<g id="edge6" class="edge">
<title>Node2&#45;&gt;Node7</title>
<path fill="none" stroke="midnightblue" d="M255.27,-257.19C255.27,-248.28 255.27,-238.9 255.27,-230.61"/>
<polygon fill="midnightblue" stroke="midnightblue" points="251.77,-257.34 255.27,-267.34 258.77,-257.34 251.77,-257.34"/>
</g>
<!-- Node9 -->
<g id="node9" class="node">
<title>Node9</title>
<g id="a_node9"><a xlink:href="entry__impl_8cpp.html" target="_top" xlink:title=" ">
<polygon fill="white" stroke="black" points="28.77,-178.5 28.77,-230.5 169.77,-230.5 169.77,-178.5 28.77,-178.5"/>
<text text-anchor="start" x="36.77" y="-218.5" font-family="Helvetica" font-size="10.00">/home/ec2&#45;user/workspace</text>
<text text-anchor="start" x="36.77" y="-207.5" font-family="Helvetica" font-size="10.00">/vsomeip/implementation</text>
<text text-anchor="start" x="36.77" y="-196.5" font-family="Helvetica" font-size="10.00">/service_discovery/src/entry</text>
<text text-anchor="middle" x="99.27" y="-185.5" font-family="Helvetica" font-size="10.00">_impl.cpp</text>
</a>
</g>
</g>
<!-- Node2&#45;&gt;Node9 -->
<g id="edge10" class="edge">
<title>Node2&#45;&gt;Node9</title>
<path fill="none" stroke="midnightblue" d="M201.22,-262.35C182.65,-252 162.07,-240.52 144.29,-230.61"/>
<polygon fill="midnightblue" stroke="midnightblue" points="199.71,-265.52 210.15,-267.34 203.12,-259.41 199.71,-265.52"/>
</g>
<!-- Node4 -->
<g id="node4" class="node">
<title>Node4</title>
<g id="a_node4"><a xlink:href="eventgroupentry__impl_8cpp.html" target="_top" xlink:title=" ">
<polygon fill="white" stroke="black" points="1050.27,-89.5 1050.27,-141.5 1238.27,-141.5 1238.27,-89.5 1050.27,-89.5"/>
<text text-anchor="start" x="1058.27" y="-129.5" font-family="Helvetica" font-size="10.00">/home/ec2&#45;user/workspace</text>
<text text-anchor="start" x="1058.27" y="-118.5" font-family="Helvetica" font-size="10.00">/vsomeip/implementation</text>
<text text-anchor="start" x="1058.27" y="-107.5" font-family="Helvetica" font-size="10.00">/service_discovery/src/eventgroupentry</text>
<text text-anchor="middle" x="1144.27" y="-96.5" font-family="Helvetica" font-size="10.00">_impl.cpp</text>
</a>
</g>
</g>
<!-- Node3&#45;&gt;Node4 -->
<g id="edge3" class="edge">
<title>Node3&#45;&gt;Node4</title>
<path fill="none" stroke="midnightblue" d="M484.45,-177.97C682.94,-138.36 738.57,-161.97 936.27,-142 973.56,-138.23 1014.51,-133.37 1050.14,-128.9"/>
<polygon fill="midnightblue" stroke="midnightblue" points="483.69,-174.55 474.58,-179.97 485.08,-181.41 483.69,-174.55"/>
</g>
<!-- Node5 -->
<g id="node5" class="node">
<title>Node5</title>
<g id="a_node5"><a xlink:href="service__discovery_2src_2message__impl_8cpp.html" target="_top" xlink:title=" ">
<polygon fill="white" stroke="black" points="769.27,-89.5 769.27,-141.5 927.27,-141.5 927.27,-89.5 769.27,-89.5"/>
<text text-anchor="start" x="777.27" y="-129.5" font-family="Helvetica" font-size="10.00">/home/ec2&#45;user/workspace</text>
<text text-anchor="start" x="777.27" y="-118.5" font-family="Helvetica" font-size="10.00">/vsomeip/implementation</text>
<text text-anchor="start" x="777.27" y="-107.5" font-family="Helvetica" font-size="10.00">/service_discovery/src/message</text>
<text text-anchor="middle" x="848.27" y="-96.5" font-family="Helvetica" font-size="10.00">_impl.cpp</text>
</a>
</g>
</g>
<!-- Node3&#45;&gt;Node5 -->
<g id="edge4" class="edge">
<title>Node3&#45;&gt;Node5</title>
<path fill="none" stroke="midnightblue" d="M484.38,-177.87C579.43,-154.67 606.4,-157.69 699.27,-142 721.92,-138.18 746.49,-133.99 769.02,-130.13"/>
<polygon fill="midnightblue" stroke="midnightblue" points="483.52,-174.48 474.65,-180.27 485.2,-181.27 483.52,-174.48"/>
</g>
<!-- Node3&#45;&gt;Node6 -->
<g id="edge5" class="edge">
<title>Node3&#45;&gt;Node6</title>
<path fill="none" stroke="midnightblue" d="M426.41,-169.13C445.46,-134.92 474.24,-83.23 491.26,-52.67"/>
<polygon fill="midnightblue" stroke="midnightblue" points="423.12,-167.84 421.31,-178.28 429.24,-171.25 423.12,-167.84"/>
</g>
<!-- Node7&#45;&gt;Node5 -->
<g id="edge7" class="edge">
<title>Node7&#45;&gt;Node5</title>
<path fill="none" stroke="midnightblue" d="M332.86,-177.86C493.85,-144.46 539.74,-163.43 699.27,-142 722.03,-138.94 746.64,-135 769.18,-131.13"/>
<polygon fill="midnightblue" stroke="midnightblue" points="331.66,-174.54 322.6,-180.03 333.11,-181.39 331.66,-174.54"/>
</g>
<!-- Node7&#45;&gt;Node6 -->
<g id="edge8" class="edge">
<title>Node7&#45;&gt;Node6</title>
<path fill="none" stroke="midnightblue" d="M304.01,-172.77C318.98,-163.11 335.42,-152.28 350.27,-142 393.19,-112.3 441.36,-76.28 472.44,-52.67"/>
<polygon fill="midnightblue" stroke="midnightblue" points="301.91,-169.96 295.39,-178.31 305.69,-175.85 301.91,-169.96"/>
</g>
<!-- Node8 -->
<g id="node8" class="node">
<title>Node8</title>
<g id="a_node8"><a xlink:href="serviceentry__impl_8cpp.html" target="_top" xlink:title=" ">
<polygon fill="white" stroke="black" points="168.77,-89.5 168.77,-141.5 341.77,-141.5 341.77,-89.5 168.77,-89.5"/>
<text text-anchor="start" x="176.77" y="-129.5" font-family="Helvetica" font-size="10.00">/home/ec2&#45;user/workspace</text>
<text text-anchor="start" x="176.77" y="-118.5" font-family="Helvetica" font-size="10.00">/vsomeip/implementation</text>
<text text-anchor="start" x="176.77" y="-107.5" font-family="Helvetica" font-size="10.00">/service_discovery/src/serviceentry</text>
<text text-anchor="middle" x="255.27" y="-96.5" font-family="Helvetica" font-size="10.00">_impl.cpp</text>
</a>
</g>
</g>
<!-- Node7&#45;&gt;Node8 -->
<g id="edge9" class="edge">
<title>Node7&#45;&gt;Node8</title>
<path fill="none" stroke="midnightblue" d="M255.27,-168.19C255.27,-159.28 255.27,-149.9 255.27,-141.61"/>
<polygon fill="midnightblue" stroke="midnightblue" points="251.77,-168.34 255.27,-178.34 258.77,-168.34 251.77,-168.34"/>
</g>
<!-- Node11 -->
<g id="node11" class="node">
<title>Node11</title>
<g id="a_node11"><a xlink:href="configuration__option__impl_8hpp.html" target="_top" xlink:title=" ">
<polygon fill="white" stroke="black" points="888.77,-267.5 888.77,-319.5 1037.77,-319.5 1037.77,-267.5 888.77,-267.5"/>
<text text-anchor="start" x="896.77" y="-307.5" font-family="Helvetica" font-size="10.00">/home/ec2&#45;user/workspace</text>
<text text-anchor="start" x="896.77" y="-296.5" font-family="Helvetica" font-size="10.00">/vsomeip/implementation</text>
<text text-anchor="start" x="896.77" y="-285.5" font-family="Helvetica" font-size="10.00">/service_discovery/include</text>
<text text-anchor="middle" x="963.27" y="-274.5" font-family="Helvetica" font-size="10.00">/configuration_option_impl.hpp</text>
</a>
</g>
</g>
<!-- Node10&#45;&gt;Node11 -->
<g id="edge12" class="edge">
<title>Node10&#45;&gt;Node11</title>
<path fill="none" stroke="midnightblue" d="M1013.2,-348.79C1004.31,-339.13 994.73,-328.71 986.36,-319.61"/>
<polygon fill="midnightblue" stroke="midnightblue" points="1010.79,-351.34 1020.13,-356.34 1015.94,-346.61 1010.79,-351.34"/>
</g>
<!-- Node13 -->
<g id="node13" class="node">
<title>Node13</title>
<g id="a_node13"><a xlink:href="ip__option__impl_8hpp.html" target="_top" xlink:title=" ">
<polygon fill="white" stroke="black" points="1652.27,-267.5 1652.27,-319.5 1786.27,-319.5 1786.27,-267.5 1652.27,-267.5"/>
<text text-anchor="start" x="1660.27" y="-307.5" font-family="Helvetica" font-size="10.00">/home/ec2&#45;user/workspace</text>
<text text-anchor="start" x="1660.27" y="-296.5" font-family="Helvetica" font-size="10.00">/vsomeip/implementation</text>
<text text-anchor="start" x="1660.27" y="-285.5" font-family="Helvetica" font-size="10.00">/service_discovery/include</text>
<text text-anchor="middle" x="1719.27" y="-274.5" font-family="Helvetica" font-size="10.00">/ip_option_impl.hpp</text>
</a>
</g>
</g>
<!-- Node10&#45;&gt;Node13 -->
<g id="edge15" class="edge">
<title>Node10&#45;&gt;Node13</title>
<path fill="none" stroke="midnightblue" d="M1120.72,-371.53C1254.4,-354.33 1526.18,-319.35 1652.26,-303.12"/>
<polygon fill="midnightblue" stroke="midnightblue" points="1120.03,-368.09 1110.56,-372.84 1120.93,-375.03 1120.03,-368.09"/>
</g>
<!-- Node21 -->
<g id="node21" class="node">
<title>Node21</title>
<g id="a_node21"><a xlink:href="load__balancing__option__impl_8hpp.html" target="_top" xlink:title=" ">
<polygon fill="white" stroke="black" points="712.27,-267.5 712.27,-319.5 870.27,-319.5 870.27,-267.5 712.27,-267.5"/>
<text text-anchor="start" x="720.27" y="-307.5" font-family="Helvetica" font-size="10.00">/home/ec2&#45;user/workspace</text>
<text text-anchor="start" x="720.27" y="-296.5" font-family="Helvetica" font-size="10.00">/vsomeip/implementation</text>
<text text-anchor="start" x="720.27" y="-285.5" font-family="Helvetica" font-size="10.00">/service_discovery/include</text>
<text text-anchor="middle" x="791.27" y="-274.5" font-family="Helvetica" font-size="10.00">/load_balancing_option_impl.hpp</text>
</a>
</g>
</g>
<!-- Node10&#45;&gt;Node21 -->
<g id="edge32" class="edge">
<title>Node10&#45;&gt;Node21</title>
<path fill="none" stroke="midnightblue" d="M966.59,-355.02C934,-343.77 896.18,-330.72 864.04,-319.62"/>
<polygon fill="midnightblue" stroke="midnightblue" points="965.48,-358.34 976.07,-358.3 967.76,-351.73 965.48,-358.34"/>
</g>
<!-- Node23 -->
<g id="node23" class="node">
<title>Node23</title>
<g id="a_node23"><a xlink:href="protection__option__impl_8hpp.html" target="_top" xlink:title=" ">
<polygon fill="white" stroke="black" points="1056.27,-267.5 1056.27,-319.5 1192.27,-319.5 1192.27,-267.5 1056.27,-267.5"/>
<text text-anchor="start" x="1064.27" y="-307.5" font-family="Helvetica" font-size="10.00">/home/ec2&#45;user/workspace</text>
<text text-anchor="start" x="1064.27" y="-296.5" font-family="Helvetica" font-size="10.00">/vsomeip/implementation</text>
<text text-anchor="start" x="1064.27" y="-285.5" font-family="Helvetica" font-size="10.00">/service_discovery/include</text>
<text text-anchor="middle" x="1124.27" y="-274.5" font-family="Helvetica" font-size="10.00">/protection_option_impl.hpp</text>
</a>
</g>
</g>
<!-- Node10&#45;&gt;Node23 -->
<g id="edge35" class="edge">
<title>Node10&#45;&gt;Node23</title>
<path fill="none" stroke="midnightblue" d="M1073.73,-348.79C1082.72,-339.13 1092.42,-328.71 1100.9,-319.61"/>
<polygon fill="midnightblue" stroke="midnightblue" points="1070.95,-346.63 1066.7,-356.34 1076.08,-351.4 1070.95,-346.63"/>
</g>
<!-- Node25 -->
<g id="node25" class="node">
<title>Node25</title>
<g id="a_node25"><a xlink:href="selective__option__impl_8hpp.html" target="_top" xlink:title=" ">
<polygon fill="white" stroke="black" points="492.27,-178.5 492.27,-230.5 626.27,-230.5 626.27,-178.5 492.27,-178.5"/>
<text text-anchor="start" x="500.27" y="-218.5" font-family="Helvetica" font-size="10.00">/home/ec2&#45;user/workspace</text>
<text text-anchor="start" x="500.27" y="-207.5" font-family="Helvetica" font-size="10.00">/vsomeip/implementation</text>
<text text-anchor="start" x="500.27" y="-196.5" font-family="Helvetica" font-size="10.00">/service_discovery/include</text>
<text text-anchor="middle" x="559.27" y="-185.5" font-family="Helvetica" font-size="10.00">/selective_option_impl.hpp</text>
</a>
</g>
</g>
<!-- Node10&#45;&gt;Node25 -->
<g id="edge38" class="edge">
<title>Node10&#45;&gt;Node25</title>
<path fill="none" stroke="midnightblue" d="M965.98,-378.26C894.91,-372.84 788.03,-358.4 703.27,-320 655.56,-298.38 609.88,-257.47 583.21,-230.86"/>
<polygon fill="midnightblue" stroke="midnightblue" points="965.97,-381.77 976.2,-379 966.48,-374.79 965.97,-381.77"/>
</g>
<!-- Node27 -->
<g id="node27" class="node">
<title>Node27</title>
<g id="a_node27"><a xlink:href="unknown__option__impl_8hpp.html" target="_top" xlink:title=" ">
<polygon fill="white" stroke="black" points="1374.27,-267.5 1374.27,-319.5 1508.27,-319.5 1508.27,-267.5 1374.27,-267.5"/>
<text text-anchor="start" x="1382.27" y="-307.5" font-family="Helvetica" font-size="10.00">/home/ec2&#45;user/workspace</text>
<text text-anchor="start" x="1382.27" y="-296.5" font-family="Helvetica" font-size="10.00">/vsomeip/implementation</text>
<text text-anchor="start" x="1382.27" y="-285.5" font-family="Helvetica" font-size="10.00">/service_discovery/include</text>
<text text-anchor="middle" x="1441.27" y="-274.5" font-family="Helvetica" font-size="10.00">/unknown_option_impl.hpp</text>
</a>
</g>
</g>
<!-- Node10&#45;&gt;Node27 -->
<g id="edge43" class="edge">
<title>Node10&#45;&gt;Node27</title>
<path fill="none" stroke="midnightblue" d="M1120.73,-369.72C1186.36,-359.03 1282.7,-341.63 1365.27,-320 1368.1,-319.26 1370.98,-318.47 1373.87,-317.64"/>
<polygon fill="midnightblue" stroke="midnightblue" points="1119.78,-366.33 1110.47,-371.38 1120.9,-373.24 1119.78,-366.33"/>
</g>
<!-- Node29 -->
<g id="node29" class="node">
<title>Node29</title>
<g id="a_node29"><a xlink:href="option__impl_8cpp.html" target="_top" xlink:title=" ">
<polygon fill="white" stroke="black" points="1210.77,-267.5 1210.77,-319.5 1355.77,-319.5 1355.77,-267.5 1210.77,-267.5"/>
<text text-anchor="start" x="1218.77" y="-307.5" font-family="Helvetica" font-size="10.00">/home/ec2&#45;user/workspace</text>
<text text-anchor="start" x="1218.77" y="-296.5" font-family="Helvetica" font-size="10.00">/vsomeip/implementation</text>
<text text-anchor="start" x="1218.77" y="-285.5" font-family="Helvetica" font-size="10.00">/service_discovery/src/option</text>
<text text-anchor="middle" x="1283.27" y="-274.5" font-family="Helvetica" font-size="10.00">_impl.cpp</text>
</a>
</g>
</g>
<!-- Node10&#45;&gt;Node29 -->
<g id="edge46" class="edge">
<title>Node10&#45;&gt;Node29</title>
<path fill="none" stroke="midnightblue" d="M1120.08,-353.66C1150.26,-342.72 1184.63,-330.26 1214.03,-319.6"/>
<polygon fill="midnightblue" stroke="midnightblue" points="1118.65,-350.45 1110.45,-357.15 1121.04,-357.03 1118.65,-350.45"/>
</g>
<!-- Node11&#45;&gt;Node5 -->
<g id="edge14" class="edge">
<title>Node11&#45;&gt;Node5</title>
<path fill="none" stroke="midnightblue" d="M898.69,-261.83C886.61,-253.4 875.28,-243.15 867.27,-231 849.64,-204.25 846.58,-166.56 846.8,-141.84"/>
<polygon fill="midnightblue" stroke="midnightblue" points="896.86,-264.81 907.14,-267.38 900.7,-258.96 896.86,-264.81"/>
</g>
<!-- Node12 -->
<g id="node12" class="node">
<title>Node12</title>
<g id="a_node12"><a xlink:href="configuration__option__impl_8cpp.html" target="_top" xlink:title=" ">
<polygon fill="white" stroke="black" points="876.27,-178.5 876.27,-230.5 1050.27,-230.5 1050.27,-178.5 876.27,-178.5"/>
<text text-anchor="start" x="884.27" y="-218.5" font-family="Helvetica" font-size="10.00">/home/ec2&#45;user/workspace</text>
<text text-anchor="start" x="884.27" y="-207.5" font-family="Helvetica" font-size="10.00">/vsomeip/implementation</text>
<text text-anchor="start" x="884.27" y="-196.5" font-family="Helvetica" font-size="10.00">/service_discovery/src/configuration</text>
<text text-anchor="middle" x="963.27" y="-185.5" font-family="Helvetica" font-size="10.00">_option_impl.cpp</text>
</a>
</g>
</g>
<!-- Node11&#45;&gt;Node12 -->
<g id="edge13" class="edge">
<title>Node11&#45;&gt;Node12</title>
<path fill="none" stroke="midnightblue" d="M963.27,-257.19C963.27,-248.28 963.27,-238.9 963.27,-230.61"/>
<polygon fill="midnightblue" stroke="midnightblue" points="959.77,-257.34 963.27,-267.34 966.77,-257.34 959.77,-257.34"/>
</g>
<!-- Node14 -->
<g id="node14" class="node">
<title>Node14</title>
<g id="a_node14"><a xlink:href="ipv4__option__impl_8hpp.html" target="_top" xlink:title=" ">
<polygon fill="white" stroke="black" points="1652.27,-178.5 1652.27,-230.5 1786.27,-230.5 1786.27,-178.5 1652.27,-178.5"/>
<text text-anchor="start" x="1660.27" y="-218.5" font-family="Helvetica" font-size="10.00">/home/ec2&#45;user/workspace</text>
<text text-anchor="start" x="1660.27" y="-207.5" font-family="Helvetica" font-size="10.00">/vsomeip/implementation</text>
<text text-anchor="start" x="1660.27" y="-196.5" font-family="Helvetica" font-size="10.00">/service_discovery/include</text>
<text text-anchor="middle" x="1719.27" y="-185.5" font-family="Helvetica" font-size="10.00">/ipv4_option_impl.hpp</text>
</a>
</g>
</g>
<!-- Node13&#45;&gt;Node14 -->
<g id="edge16" class="edge">
<title>Node13&#45;&gt;Node14</title>
<path fill="none" stroke="midnightblue" d="M1719.27,-257.19C1719.27,-248.28 1719.27,-238.9 1719.27,-230.61"/>
<polygon fill="midnightblue" stroke="midnightblue" points="1715.77,-257.34 1719.27,-267.34 1722.77,-257.34 1715.77,-257.34"/>
</g>
<!-- Node15 -->
<g id="node15" class="node">
<title>Node15</title>
<g id="a_node15"><a xlink:href="service__discovery__impl_8hpp.html" target="_top" xlink:title=" ">
<polygon fill="white" stroke="black" points="1572.77,-89.5 1572.77,-141.5 1713.77,-141.5 1713.77,-89.5 1572.77,-89.5"/>
<text text-anchor="start" x="1580.77" y="-129.5" font-family="Helvetica" font-size="10.00">/home/ec2&#45;user/workspace</text>
<text text-anchor="start" x="1580.77" y="-118.5" font-family="Helvetica" font-size="10.00">/vsomeip/implementation</text>
<text text-anchor="start" x="1580.77" y="-107.5" font-family="Helvetica" font-size="10.00">/service_discovery/include</text>
<text text-anchor="middle" x="1643.27" y="-96.5" font-family="Helvetica" font-size="10.00">/service_discovery_impl.hpp</text>
</a>
</g>
</g>
<!-- Node13&#45;&gt;Node15 -->
<g id="edge30" class="edge">
<title>Node13&#45;&gt;Node15</title>
<path fill="none" stroke="midnightblue" d="M1796.43,-281.84C1855.09,-271.97 1928.77,-255.15 1947.27,-231 1961.6,-212.3 1962.55,-195.93 1947.27,-178 1914.57,-139.63 1772.32,-153.69 1723.27,-142 1720.15,-141.26 1716.98,-140.45 1713.78,-139.6"/>
<polygon fill="midnightblue" stroke="midnightblue" points="1795.72,-278.41 1786.41,-283.48 1796.85,-285.32 1795.72,-278.41"/>
</g>
<!-- Node18 -->
<g id="node18" class="node">
<title>Node18</title>
<g id="a_node18"><a xlink:href="ipv6__option__impl_8hpp.html" target="_top" xlink:title=" ">
<polygon fill="white" stroke="black" points="1500.27,-178.5 1500.27,-230.5 1634.27,-230.5 1634.27,-178.5 1500.27,-178.5"/>
<text text-anchor="start" x="1508.27" y="-218.5" font-family="Helvetica" font-size="10.00">/home/ec2&#45;user/workspace</text>
<text text-anchor="start" x="1508.27" y="-207.5" font-family="Helvetica" font-size="10.00">/vsomeip/implementation</text>
<text text-anchor="start" x="1508.27" y="-196.5" font-family="Helvetica" font-size="10.00">/service_discovery/include</text>
<text text-anchor="middle" x="1567.27" y="-185.5" font-family="Helvetica" font-size="10.00">/ipv6_option_impl.hpp</text>
</a>
</g>
</g>
<!-- Node13&#45;&gt;Node18 -->
<g id="edge24" class="edge">
<title>Node13&#45;&gt;Node18</title>
<path fill="none" stroke="midnightblue" d="M1666.6,-262.35C1648.51,-252 1628.46,-240.52 1611.14,-230.61"/>
<polygon fill="midnightblue" stroke="midnightblue" points="1664.89,-265.41 1675.31,-267.34 1668.37,-259.33 1664.89,-265.41"/>
</g>
<!-- Node20 -->
<g id="node20" class="node">
<title>Node20</title>
<g id="a_node20"><a xlink:href="ip__option__impl_8cpp.html" target="_top" xlink:title=" ">
<polygon fill="white" stroke="black" points="1804.27,-178.5 1804.27,-230.5 1938.27,-230.5 1938.27,-178.5 1804.27,-178.5"/>
<text text-anchor="start" x="1812.27" y="-218.5" font-family="Helvetica" font-size="10.00">/home/ec2&#45;user/workspace</text>
<text text-anchor="start" x="1812.27" y="-207.5" font-family="Helvetica" font-size="10.00">/vsomeip/implementation</text>
<text text-anchor="start" x="1812.27" y="-196.5" font-family="Helvetica" font-size="10.00">/service_discovery/src/ip</text>
<text text-anchor="middle" x="1871.27" y="-185.5" font-family="Helvetica" font-size="10.00">_option_impl.cpp</text>
</a>
</g>
</g>
<!-- Node13&#45;&gt;Node20 -->
<g id="edge31" class="edge">
<title>Node13&#45;&gt;Node20</title>
<path fill="none" stroke="midnightblue" d="M1771.94,-262.35C1790.04,-252 1810.09,-240.52 1827.41,-230.61"/>
<polygon fill="midnightblue" stroke="midnightblue" points="1770.18,-259.33 1763.24,-267.34 1773.66,-265.41 1770.18,-259.33"/>
</g>
<!-- Node14&#45;&gt;Node4 -->
<g id="edge20" class="edge">
<title>Node14&#45;&gt;Node4</title>
<path fill="none" stroke="midnightblue" d="M1641.79,-178.05C1577.86,-166.14 1364.07,-141.32 1238.3,-127.05"/>
<polygon fill="midnightblue" stroke="midnightblue" points="1641.43,-181.55 1651.93,-180.12 1642.83,-174.69 1641.43,-181.55"/>
</g>
<!-- Node14&#45;&gt;Node5 -->
<g id="edge22" class="edge">
<title>Node14&#45;&gt;Node5</title>
<path fill="none" stroke="midnightblue" d="M1642.11,-178C1378.36,-127.91 1304.83,-167.26 1041.27,-142 1003.76,-138.4 962.31,-133.1 927.47,-128.27"/>
<polygon fill="midnightblue" stroke="midnightblue" points="1641.5,-181.44 1651.98,-179.89 1642.82,-174.57 1641.5,-181.44"/>
</g>
<!-- Node14&#45;&gt;Node6 -->
<g id="edge23" class="edge">
<title>Node14&#45;&gt;Node6</title>
<path fill="none" stroke="midnightblue" d="M1642.49,-177.52C1610.41,-165.75 1577.52,-152.22 1564.27,-142 1541.12,-124.14 1550.96,-102.98 1525.27,-89 1443.07,-44.27 803.45,-31.5 581.12,-28.39"/>
<polygon fill="midnightblue" stroke="midnightblue" points="1641.36,-180.83 1651.95,-180.94 1643.74,-174.25 1641.36,-180.83"/>
</g>
<!-- Node14&#45;&gt;Node15 -->
<g id="edge17" class="edge">
<title>Node14&#45;&gt;Node15</title>
<path fill="none" stroke="midnightblue" d="M1690.7,-170.79C1682.26,-161.13 1673.16,-150.71 1665.21,-141.61"/>
<polygon fill="midnightblue" stroke="midnightblue" points="1688.08,-173.11 1697.29,-178.34 1693.35,-168.5 1688.08,-173.11"/>
</g>
<!-- Node17 -->
<g id="node17" class="node">
<title>Node17</title>
<g id="a_node17"><a xlink:href="ipv4__option__impl_8cpp.html" target="_top" xlink:title=" ">
<polygon fill="white" stroke="black" points="1731.77,-89.5 1731.77,-141.5 1868.77,-141.5 1868.77,-89.5 1731.77,-89.5"/>
<text text-anchor="start" x="1739.77" y="-129.5" font-family="Helvetica" font-size="10.00">/home/ec2&#45;user/workspace</text>
<text text-anchor="start" x="1739.77" y="-118.5" font-family="Helvetica" font-size="10.00">/vsomeip/implementation</text>
<text text-anchor="start" x="1739.77" y="-107.5" font-family="Helvetica" font-size="10.00">/service_discovery/src/ipv4</text>
<text text-anchor="middle" x="1800.27" y="-96.5" font-family="Helvetica" font-size="10.00">_option_impl.cpp</text>
</a>
</g>
</g>
<!-- Node14&#45;&gt;Node17 -->
<g id="edge21" class="edge">
<title>Node14&#45;&gt;Node17</title>
<path fill="none" stroke="midnightblue" d="M1749.73,-170.79C1758.72,-161.13 1768.42,-150.71 1776.9,-141.61"/>
<polygon fill="midnightblue" stroke="midnightblue" points="1746.95,-168.63 1742.7,-178.34 1752.08,-173.4 1746.95,-168.63"/>
</g>
<!-- Node15&#45;&gt;Node6 -->
<g id="edge19" class="edge">
<title>Node15&#45;&gt;Node6</title>
<path fill="none" stroke="midnightblue" d="M1562.71,-89.83C1561.22,-89.54 1559.74,-89.26 1558.27,-89 1370.17,-55.76 789.32,-35.85 580.79,-29.62"/>
<polygon fill="midnightblue" stroke="midnightblue" points="1562.1,-93.28 1572.61,-91.96 1563.57,-86.43 1562.1,-93.28"/>
</g>
<!-- Node16 -->
<g id="node16" class="node">
<title>Node16</title>
<g id="a_node16"><a xlink:href="service__discovery_2src_2runtime__impl_8cpp.html" target="_top" xlink:title=" ">
<polygon fill="white" stroke="black" points="1567.77,-0.5 1567.77,-52.5 1718.77,-52.5 1718.77,-0.5 1567.77,-0.5"/>
<text text-anchor="start" x="1575.77" y="-40.5" font-family="Helvetica" font-size="10.00">/home/ec2&#45;user/workspace</text>
<text text-anchor="start" x="1575.77" y="-29.5" font-family="Helvetica" font-size="10.00">/vsomeip/implementation</text>
<text text-anchor="start" x="1575.77" y="-18.5" font-family="Helvetica" font-size="10.00">/service_discovery/src/runtime</text>
<text text-anchor="middle" x="1643.27" y="-7.5" font-family="Helvetica" font-size="10.00">_impl.cpp</text>
</a>
</g>
</g>
<!-- Node15&#45;&gt;Node16 -->
<g id="edge18" class="edge">
<title>Node15&#45;&gt;Node16</title>
<path fill="none" stroke="midnightblue" d="M1643.27,-79.19C1643.27,-70.28 1643.27,-60.9 1643.27,-52.61"/>
<polygon fill="midnightblue" stroke="midnightblue" points="1639.77,-79.34 1643.27,-89.34 1646.77,-79.34 1639.77,-79.34"/>
</g>
<!-- Node18&#45;&gt;Node4 -->
<g id="edge26" class="edge">
<title>Node18&#45;&gt;Node4</title>
<path fill="none" stroke="midnightblue" d="M1490.04,-178.95C1488.78,-178.62 1487.52,-178.31 1486.27,-178 1440.44,-166.71 1322.83,-146.24 1238.33,-132.03"/>
<polygon fill="midnightblue" stroke="midnightblue" points="1489.27,-182.36 1499.83,-181.56 1491.08,-175.6 1489.27,-182.36"/>
</g>
<!-- Node18&#45;&gt;Node5 -->
<g id="edge28" class="edge">
<title>Node18&#45;&gt;Node5</title>
<path fill="none" stroke="midnightblue" d="M1490.08,-178.78C1488.8,-178.51 1487.54,-178.25 1486.27,-178 1291.53,-139.97 1238.58,-163 1041.27,-142 1003.8,-138.01 962.36,-132.66 927.51,-127.89"/>
<polygon fill="midnightblue" stroke="midnightblue" points="1489.41,-182.21 1499.94,-181.06 1490.99,-175.39 1489.41,-182.21"/>
</g>
<!-- Node18&#45;&gt;Node6 -->
<g id="edge29" class="edge">
<title>Node18&#45;&gt;Node6</title>
<path fill="none" stroke="midnightblue" d="M1490.48,-181.56C1453.79,-170.56 1409.44,-156.51 1370.27,-142 1314.45,-121.32 1305.03,-103.43 1247.27,-89 1122.57,-57.85 743.82,-37.98 581,-30.67"/>
<polygon fill="midnightblue" stroke="midnightblue" points="1489.54,-184.93 1500.12,-184.43 1491.54,-178.22 1489.54,-184.93"/>
</g>
<!-- Node18&#45;&gt;Node15 -->
<g id="edge25" class="edge">
<title>Node18&#45;&gt;Node15</title>
<path fill="none" stroke="midnightblue" d="M1595.85,-170.79C1604.29,-161.13 1613.39,-150.71 1621.34,-141.61"/>
<polygon fill="midnightblue" stroke="midnightblue" points="1593.2,-168.5 1589.26,-178.34 1598.47,-173.11 1593.2,-168.5"/>
</g>
<!-- Node19 -->
<g id="node19" class="node">
<title>Node19</title>
<g id="a_node19"><a xlink:href="ipv6__option__impl_8cpp.html" target="_top" xlink:title=" ">
<polygon fill="white" stroke="black" points="1378.77,-89.5 1378.77,-141.5 1515.77,-141.5 1515.77,-89.5 1378.77,-89.5"/>
<text text-anchor="start" x="1386.77" y="-129.5" font-family="Helvetica" font-size="10.00">/home/ec2&#45;user/workspace</text>
<text text-anchor="start" x="1386.77" y="-118.5" font-family="Helvetica" font-size="10.00">/vsomeip/implementation</text>
<text text-anchor="start" x="1386.77" y="-107.5" font-family="Helvetica" font-size="10.00">/service_discovery/src/ipv6</text>
<text text-anchor="middle" x="1447.27" y="-96.5" font-family="Helvetica" font-size="10.00">_option_impl.cpp</text>
</a>
</g>
</g>
<!-- Node18&#45;&gt;Node19 -->
<g id="edge27" class="edge">
<title>Node18&#45;&gt;Node19</title>
<path fill="none" stroke="midnightblue" d="M1524.13,-172.22C1510.26,-162.16 1495.08,-151.16 1481.9,-141.61"/>
<polygon fill="midnightblue" stroke="midnightblue" points="1522.41,-175.3 1532.56,-178.34 1526.52,-169.63 1522.41,-175.3"/>
</g>
<!-- Node21&#45;&gt;Node5 -->
<g id="edge34" class="edge">
<title>Node21&#45;&gt;Node5</title>
<path fill="none" stroke="midnightblue" d="M802.55,-257.69C813.63,-223.48 830.27,-172.1 840.12,-141.67"/>
<polygon fill="midnightblue" stroke="midnightblue" points="799.19,-256.69 799.44,-267.28 805.85,-258.85 799.19,-256.69"/>
</g>
<!-- Node22 -->
<g id="node22" class="node">
<title>Node22</title>
<g id="a_node22"><a xlink:href="load__balancing__option__impl_8cpp.html" target="_top" xlink:title=" ">
<polygon fill="white" stroke="black" points="644.77,-178.5 644.77,-230.5 781.77,-230.5 781.77,-178.5 644.77,-178.5"/>
<text text-anchor="start" x="652.77" y="-218.5" font-family="Helvetica" font-size="10.00">/home/ec2&#45;user/workspace</text>
<text text-anchor="start" x="652.77" y="-207.5" font-family="Helvetica" font-size="10.00">/vsomeip/implementation</text>
<text text-anchor="start" x="652.77" y="-196.5" font-family="Helvetica" font-size="10.00">/service_discovery/src/load</text>
<text text-anchor="middle" x="713.27" y="-185.5" font-family="Helvetica" font-size="10.00">_balancing_option_impl.cpp</text>
</a>
</g>
</g>
<!-- Node21&#45;&gt;Node22 -->
<g id="edge33" class="edge">
<title>Node21&#45;&gt;Node22</title>
<path fill="none" stroke="midnightblue" d="M761.95,-259.79C753.29,-250.13 743.94,-239.71 735.78,-230.61"/>
<polygon fill="midnightblue" stroke="midnightblue" points="759.43,-262.23 768.71,-267.34 764.64,-257.55 759.43,-262.23"/>
</g>
<!-- Node23&#45;&gt;Node5 -->
<g id="edge36" class="edge">
<title>Node23&#45;&gt;Node5</title>
<path fill="none" stroke="midnightblue" d="M1201.48,-266.1C1216.52,-257.32 1230.37,-245.85 1239.27,-231 1251.38,-210.79 1254.58,-195.9 1239.27,-178 1234.22,-172.08 1040.32,-143.72 927.52,-127.65"/>
<polygon fill="midnightblue" stroke="midnightblue" points="1199.63,-263.12 1192.51,-270.97 1202.97,-269.28 1199.63,-263.12"/>
</g>
<!-- Node24 -->
<g id="node24" class="node">
<title>Node24</title>
<g id="a_node24"><a xlink:href="protection__option__impl_8cpp.html" target="_top" xlink:title=" ">
<polygon fill="white" stroke="black" points="1068.77,-178.5 1068.77,-230.5 1229.77,-230.5 1229.77,-178.5 1068.77,-178.5"/>
<text text-anchor="start" x="1076.77" y="-218.5" font-family="Helvetica" font-size="10.00">/home/ec2&#45;user/workspace</text>
<text text-anchor="start" x="1076.77" y="-207.5" font-family="Helvetica" font-size="10.00">/vsomeip/implementation</text>
<text text-anchor="start" x="1076.77" y="-196.5" font-family="Helvetica" font-size="10.00">/service_discovery/src/protection</text>
<text text-anchor="middle" x="1149.27" y="-185.5" font-family="Helvetica" font-size="10.00">_option_impl.cpp</text>
</a>
</g>
</g>
<!-- Node23&#45;&gt;Node24 -->
<g id="edge37" class="edge">
<title>Node23&#45;&gt;Node24</title>
<path fill="none" stroke="midnightblue" d="M1134.34,-257.48C1136.92,-248.49 1139.65,-238.99 1142.06,-230.61"/>
<polygon fill="midnightblue" stroke="midnightblue" points="1130.9,-256.76 1131.5,-267.34 1137.63,-258.69 1130.9,-256.76"/>
</g>
<!-- Node25&#45;&gt;Node4 -->
<g id="edge39" class="edge">
<title>Node25&#45;&gt;Node4</title>
<path fill="none" stroke="midnightblue" d="M636.69,-177.86C768.52,-148.88 805.79,-157.8 936.27,-142 973.47,-137.49 1014.41,-132.49 1050.06,-128.11"/>
<polygon fill="midnightblue" stroke="midnightblue" points="635.61,-174.52 626.62,-180.11 637.14,-181.35 635.61,-174.52"/>
</g>
<!-- Node25&#45;&gt;Node5 -->
<g id="edge40" class="edge">
<title>Node25&#45;&gt;Node5</title>
<path fill="none" stroke="midnightblue" d="M635.95,-177.83C685.33,-162.51 731.36,-149.18 769.13,-138.48"/>
<polygon fill="midnightblue" stroke="midnightblue" points="634.87,-174.5 626.36,-180.82 636.95,-181.19 634.87,-174.5"/>
</g>
<!-- Node25&#45;&gt;Node6 -->
<g id="edge42" class="edge">
<title>Node25&#45;&gt;Node6</title>
<path fill="none" stroke="midnightblue" d="M537.21,-169.69C532.31,-160.95 527.6,-151.37 524.27,-142 513.76,-112.37 509.01,-76.34 506.9,-52.7"/>
<polygon fill="midnightblue" stroke="midnightblue" points="534.26,-171.57 542.33,-178.44 540.3,-168.04 534.26,-171.57"/>
</g>
<!-- Node26 -->
<g id="node26" class="node">
<title>Node26</title>
<g id="a_node26"><a xlink:href="selective__option__impl_8cpp.html" target="_top" xlink:title=" ">
<polygon fill="white" stroke="black" points="533.77,-89.5 533.77,-141.5 690.77,-141.5 690.77,-89.5 533.77,-89.5"/>
<text text-anchor="start" x="541.77" y="-129.5" font-family="Helvetica" font-size="10.00">/home/ec2&#45;user/workspace</text>
<text text-anchor="start" x="541.77" y="-118.5" font-family="Helvetica" font-size="10.00">/vsomeip/implementation</text>
<text text-anchor="start" x="541.77" y="-107.5" font-family="Helvetica" font-size="10.00">/service_discovery/src/selective</text>
<text text-anchor="middle" x="612.27" y="-96.5" font-family="Helvetica" font-size="10.00">_option_impl.cpp</text>
</a>
</g>
</g>
<!-- Node25&#45;&gt;Node26 -->
<g id="edge41" class="edge">
<title>Node25&#45;&gt;Node26</title>
<path fill="none" stroke="midnightblue" d="M579.9,-169.64C585.59,-160.31 591.65,-150.35 596.98,-141.61"/>
<polygon fill="midnightblue" stroke="midnightblue" points="576.82,-167.97 574.6,-178.34 582.8,-171.62 576.82,-167.97"/>
</g>
<!-- Node27&#45;&gt;Node5 -->
<g id="edge44" class="edge">
<title>Node27&#45;&gt;Node5</title>
<path fill="none" stroke="midnightblue" d="M1457.51,-257.59C1466.58,-232.34 1472.59,-199.07 1453.27,-178 1422.23,-144.12 1086.95,-147.01 1041.27,-142 1003.81,-137.89 962.37,-132.52 927.52,-127.77"/>
<polygon fill="midnightblue" stroke="midnightblue" points="1454.14,-256.59 1453.79,-267.18 1460.67,-259.12 1454.14,-256.59"/>
</g>
<!-- Node28 -->
<g id="node28" class="node">
<title>Node28</title>
<g id="a_node28"><a xlink:href="unknown__option__impl_8cpp.html" target="_top" xlink:title=" ">
<polygon fill="white" stroke="black" points="1286.27,-178.5 1286.27,-230.5 1444.27,-230.5 1444.27,-178.5 1286.27,-178.5"/>
<text text-anchor="start" x="1294.27" y="-218.5" font-family="Helvetica" font-size="10.00">/home/ec2&#45;user/workspace</text>
<text text-anchor="start" x="1294.27" y="-207.5" font-family="Helvetica" font-size="10.00">/vsomeip/implementation</text>
<text text-anchor="start" x="1294.27" y="-196.5" font-family="Helvetica" font-size="10.00">/service_discovery/src/unknown</text>
<text text-anchor="middle" x="1365.27" y="-185.5" font-family="Helvetica" font-size="10.00">_option_impl.cpp</text>
</a>
</g>
</g>
<!-- Node27&#45;&gt;Node28 -->
<g id="edge45" class="edge">
<title>Node27&#45;&gt;Node28</title>
<path fill="none" stroke="midnightblue" d="M1412.7,-259.79C1404.26,-250.13 1395.16,-239.71 1387.21,-230.61"/>
<polygon fill="midnightblue" stroke="midnightblue" points="1410.08,-262.11 1419.29,-267.34 1415.35,-257.5 1410.08,-262.11"/>
</g>
</g>
</svg>
