<?xml version="1.0" encoding="UTF-8" standalone="no"?>
<!DOCTYPE svg PUBLIC "-//W3C//DTD SVG 1.1//EN"
 "http://www.w3.org/Graphics/SVG/1.1/DTD/svg11.dtd">
<!-- Generated by graphviz version 2.44.0 (0)
 -->
<!-- Title: /home/ec2&#45;user/workspace/vsomeip/implementation/service_discovery/include/primitive_types.hpp Pages: 1 -->
<svg width="1358pt" height="328pt"
 viewBox="0.00 0.00 1358.00 328.00" xmlns="http://www.w3.org/2000/svg" xmlns:xlink="http://www.w3.org/1999/xlink">
<g id="graph0" class="graph" transform="scale(1 1) rotate(0) translate(4 324)">
<title>/home/ec2&#45;user/workspace/vsomeip/implementation/service_discovery/include/primitive_types.hpp</title>
<polygon fill="white" stroke="transparent" points="-4,4 -4,-324 1354,-324 1354,4 -4,4"/>
<!-- Node1 -->
<g id="node1" class="node">
<title>Node1</title>
<g id="a_node1"><a xlink:title=" ">
<polygon fill="#bfbfbf" stroke="black" points="558.5,-267.5 558.5,-319.5 692.5,-319.5 692.5,-267.5 558.5,-267.5"/>
<text text-anchor="start" x="566.5" y="-307.5" font-family="Helvetica" font-size="10.00">/home/ec2&#45;user/workspace</text>
<text text-anchor="start" x="566.5" y="-296.5" font-family="Helvetica" font-size="10.00">/vsomeip/implementation</text>
<text text-anchor="start" x="566.5" y="-285.5" font-family="Helvetica" font-size="10.00">/service_discovery/include</text>
<text text-anchor="middle" x="625.5" y="-274.5" font-family="Helvetica" font-size="10.00">/primitive_types.hpp</text>
</a>
</g>
</g>
<!-- Node2 -->
<g id="node2" class="node">
<title>Node2</title>
<g id="a_node2"><a xlink:href="load__balancing__option__impl_8hpp.html" target="_top" xlink:title=" ">
<polygon fill="white" stroke="black" points="382.5,-178.5 382.5,-230.5 540.5,-230.5 540.5,-178.5 382.5,-178.5"/>
<text text-anchor="start" x="390.5" y="-218.5" font-family="Helvetica" font-size="10.00">/home/ec2&#45;user/workspace</text>
<text text-anchor="start" x="390.5" y="-207.5" font-family="Helvetica" font-size="10.00">/vsomeip/implementation</text>
<text text-anchor="start" x="390.5" y="-196.5" font-family="Helvetica" font-size="10.00">/service_discovery/include</text>
<text text-anchor="middle" x="461.5" y="-185.5" font-family="Helvetica" font-size="10.00">/load_balancing_option_impl.hpp</text>
</a>
</g>
</g>
<!-- Node1&#45;&gt;Node2 -->
<g id="edge1" class="edge">
<title>Node1&#45;&gt;Node2</title>
<path fill="none" stroke="midnightblue" d="M569.2,-262.64C549.54,-252.2 527.69,-240.61 508.83,-230.61"/>
<polygon fill="midnightblue" stroke="midnightblue" points="567.59,-265.74 578.06,-267.34 570.87,-259.56 567.59,-265.74"/>
</g>
<!-- Node5 -->
<g id="node5" class="node">
<title>Node5</title>
<g id="a_node5"><a xlink:href="service__discovery_2include_2message__impl_8hpp.html" target="_top" xlink:title=" ">
<polygon fill="white" stroke="black" points="558.5,-178.5 558.5,-230.5 692.5,-230.5 692.5,-178.5 558.5,-178.5"/>
<text text-anchor="start" x="566.5" y="-218.5" font-family="Helvetica" font-size="10.00">/home/ec2&#45;user/workspace</text>
<text text-anchor="start" x="566.5" y="-207.5" font-family="Helvetica" font-size="10.00">/vsomeip/implementation</text>
<text text-anchor="start" x="566.5" y="-196.5" font-family="Helvetica" font-size="10.00">/service_discovery/include</text>
<text text-anchor="middle" x="625.5" y="-185.5" font-family="Helvetica" font-size="10.00">/message_impl.hpp</text>
</a>
</g>
</g>
<!-- Node1&#45;&gt;Node5 -->
<g id="edge4" class="edge">
<title>Node1&#45;&gt;Node5</title>
<path fill="none" stroke="midnightblue" d="M625.5,-257.19C625.5,-248.28 625.5,-238.9 625.5,-230.61"/>
<polygon fill="midnightblue" stroke="midnightblue" points="622,-257.34 625.5,-267.34 629,-257.34 622,-257.34"/>
</g>
<!-- Node14 -->
<g id="node14" class="node">
<title>Node14</title>
<g id="a_node14"><a xlink:href="protection__option__impl_8hpp.html" target="_top" xlink:title=" ">
<polygon fill="white" stroke="black" points="1092.5,-178.5 1092.5,-230.5 1228.5,-230.5 1228.5,-178.5 1092.5,-178.5"/>
<text text-anchor="start" x="1100.5" y="-218.5" font-family="Helvetica" font-size="10.00">/home/ec2&#45;user/workspace</text>
<text text-anchor="start" x="1100.5" y="-207.5" font-family="Helvetica" font-size="10.00">/vsomeip/implementation</text>
<text text-anchor="start" x="1100.5" y="-196.5" font-family="Helvetica" font-size="10.00">/service_discovery/include</text>
<text text-anchor="middle" x="1160.5" y="-185.5" font-family="Helvetica" font-size="10.00">/protection_option_impl.hpp</text>
</a>
</g>
</g>
<!-- Node1&#45;&gt;Node14 -->
<g id="edge18" class="edge">
<title>Node1&#45;&gt;Node14</title>
<path fill="none" stroke="midnightblue" d="M702.9,-279.91C807.57,-262.89 992.59,-232.8 1092.29,-216.59"/>
<polygon fill="midnightblue" stroke="midnightblue" points="702.02,-276.51 692.72,-281.57 703.15,-283.42 702.02,-276.51"/>
</g>
<!-- Node3 -->
<g id="node3" class="node">
<title>Node3</title>
<g id="a_node3"><a xlink:href="load__balancing__option__impl_8cpp.html" target="_top" xlink:title=" ">
<polygon fill="white" stroke="black" points="0,-89.5 0,-141.5 137,-141.5 137,-89.5 0,-89.5"/>
<text text-anchor="start" x="8" y="-129.5" font-family="Helvetica" font-size="10.00">/home/ec2&#45;user/workspace</text>
<text text-anchor="start" x="8" y="-118.5" font-family="Helvetica" font-size="10.00">/vsomeip/implementation</text>
<text text-anchor="start" x="8" y="-107.5" font-family="Helvetica" font-size="10.00">/service_discovery/src/load</text>
<text text-anchor="middle" x="68.5" y="-96.5" font-family="Helvetica" font-size="10.00">_balancing_option_impl.cpp</text>
</a>
</g>
</g>
<!-- Node2&#45;&gt;Node3 -->
<g id="edge2" class="edge">
<title>Node2&#45;&gt;Node3</title>
<path fill="none" stroke="midnightblue" d="M372.15,-188.27C309.92,-177.06 225.21,-160.58 151.5,-142 146.82,-140.82 142.02,-139.54 137.19,-138.2"/>
<polygon fill="midnightblue" stroke="midnightblue" points="371.87,-191.78 382.33,-190.1 373.1,-184.89 371.87,-191.78"/>
</g>
<!-- Node4 -->
<g id="node4" class="node">
<title>Node4</title>
<g id="a_node4"><a xlink:href="service__discovery_2src_2message__impl_8cpp.html" target="_top" xlink:title=" ">
<polygon fill="white" stroke="black" points="936.5,-0.5 936.5,-52.5 1094.5,-52.5 1094.5,-0.5 936.5,-0.5"/>
<text text-anchor="start" x="944.5" y="-40.5" font-family="Helvetica" font-size="10.00">/home/ec2&#45;user/workspace</text>
<text text-anchor="start" x="944.5" y="-29.5" font-family="Helvetica" font-size="10.00">/vsomeip/implementation</text>
<text text-anchor="start" x="944.5" y="-18.5" font-family="Helvetica" font-size="10.00">/service_discovery/src/message</text>
<text text-anchor="middle" x="1015.5" y="-7.5" font-family="Helvetica" font-size="10.00">_impl.cpp</text>
</a>
</g>
</g>
<!-- Node2&#45;&gt;Node4 -->
<g id="edge3" class="edge">
<title>Node2&#45;&gt;Node4</title>
<path fill="none" stroke="midnightblue" d="M550.56,-177.91C619.14,-162.04 646.43,-178.93 701.5,-142 725.57,-125.86 715.32,-104.98 739.5,-89 798.27,-50.16 877.88,-35.54 936.49,-30.19"/>
<polygon fill="midnightblue" stroke="midnightblue" points="549.47,-174.58 540.6,-180.38 551.15,-181.37 549.47,-174.58"/>
</g>
<!-- Node5&#45;&gt;Node4 -->
<g id="edge14" class="edge">
<title>Node5&#45;&gt;Node4</title>
<path fill="none" stroke="midnightblue" d="M702.79,-199.05C831.08,-190.86 1076.56,-171.49 1102.5,-142 1118.05,-124.31 1113.33,-109.92 1102.5,-89 1094.76,-74.05 1081.53,-61.96 1067.69,-52.58"/>
<polygon fill="midnightblue" stroke="midnightblue" points="702.39,-195.56 692.63,-199.69 702.83,-202.55 702.39,-195.56"/>
</g>
<!-- Node6 -->
<g id="node6" class="node">
<title>Node6</title>
<g id="a_node6"><a xlink:href="eventgroupentry__impl_8hpp.html" target="_top" xlink:title=" ">
<polygon fill="white" stroke="black" points="558.5,-89.5 558.5,-141.5 692.5,-141.5 692.5,-89.5 558.5,-89.5"/>
<text text-anchor="start" x="566.5" y="-129.5" font-family="Helvetica" font-size="10.00">/home/ec2&#45;user/workspace</text>
<text text-anchor="start" x="566.5" y="-118.5" font-family="Helvetica" font-size="10.00">/vsomeip/implementation</text>
<text text-anchor="start" x="566.5" y="-107.5" font-family="Helvetica" font-size="10.00">/service_discovery/include</text>
<text text-anchor="middle" x="625.5" y="-96.5" font-family="Helvetica" font-size="10.00">/eventgroupentry_impl.hpp</text>
</a>
</g>
</g>
<!-- Node5&#45;&gt;Node6 -->
<g id="edge5" class="edge">
<title>Node5&#45;&gt;Node6</title>
<path fill="none" stroke="midnightblue" d="M625.5,-168.19C625.5,-159.28 625.5,-149.9 625.5,-141.61"/>
<polygon fill="midnightblue" stroke="midnightblue" points="622,-168.34 625.5,-178.34 629,-168.34 622,-168.34"/>
</g>
<!-- Node8 -->
<g id="node8" class="node">
<title>Node8</title>
<g id="a_node8"><a xlink:href="service__discovery__impl_8cpp.html" target="_top" xlink:title=" ">
<polygon fill="white" stroke="black" points="408,-0.5 408,-52.5 559,-52.5 559,-0.5 408,-0.5"/>
<text text-anchor="start" x="416" y="-40.5" font-family="Helvetica" font-size="10.00">/home/ec2&#45;user/workspace</text>
<text text-anchor="start" x="416" y="-29.5" font-family="Helvetica" font-size="10.00">/vsomeip/implementation</text>
<text text-anchor="start" x="416" y="-18.5" font-family="Helvetica" font-size="10.00">/service_discovery/src/service</text>
<text text-anchor="middle" x="483.5" y="-7.5" font-family="Helvetica" font-size="10.00">_discovery_impl.cpp</text>
</a>
</g>
</g>
<!-- Node5&#45;&gt;Node8 -->
<g id="edge17" class="edge">
<title>Node5&#45;&gt;Node8</title>
<path fill="none" stroke="midnightblue" d="M581.09,-172.1C570.04,-163.11 558.72,-152.8 549.5,-142 525.96,-114.43 506.34,-77.28 494.76,-52.87"/>
<polygon fill="midnightblue" stroke="midnightblue" points="579.04,-174.95 589.06,-178.4 583.39,-169.45 579.04,-174.95"/>
</g>
<!-- Node9 -->
<g id="node9" class="node">
<title>Node9</title>
<g id="a_node9"><a xlink:href="service__discovery__impl_8hpp.html" target="_top" xlink:title=" ">
<polygon fill="white" stroke="black" points="194,-89.5 194,-141.5 335,-141.5 335,-89.5 194,-89.5"/>
<text text-anchor="start" x="202" y="-129.5" font-family="Helvetica" font-size="10.00">/home/ec2&#45;user/workspace</text>
<text text-anchor="start" x="202" y="-118.5" font-family="Helvetica" font-size="10.00">/vsomeip/implementation</text>
<text text-anchor="start" x="202" y="-107.5" font-family="Helvetica" font-size="10.00">/service_discovery/include</text>
<text text-anchor="middle" x="264.5" y="-96.5" font-family="Helvetica" font-size="10.00">/service_discovery_impl.hpp</text>
</a>
</g>
</g>
<!-- Node5&#45;&gt;Node9 -->
<g id="edge9" class="edge">
<title>Node5&#45;&gt;Node9</title>
<path fill="none" stroke="midnightblue" d="M548.24,-177.84C457.58,-155.74 430.64,-163.57 343.5,-142 340.84,-141.34 338.14,-140.64 335.42,-139.91"/>
<polygon fill="midnightblue" stroke="midnightblue" points="547.56,-181.28 558.11,-180.3 549.26,-174.49 547.56,-181.28"/>
</g>
<!-- Node10 -->
<g id="node10" class="node">
<title>Node10</title>
<g id="a_node10"><a xlink:href="service__discovery_2src_2runtime__impl_8cpp.html" target="_top" xlink:title=" ">
<polygon fill="white" stroke="black" points="140,-0.5 140,-52.5 291,-52.5 291,-0.5 140,-0.5"/>
<text text-anchor="start" x="148" y="-40.5" font-family="Helvetica" font-size="10.00">/home/ec2&#45;user/workspace</text>
<text text-anchor="start" x="148" y="-29.5" font-family="Helvetica" font-size="10.00">/vsomeip/implementation</text>
<text text-anchor="start" x="148" y="-18.5" font-family="Helvetica" font-size="10.00">/service_discovery/src/runtime</text>
<text text-anchor="middle" x="215.5" y="-7.5" font-family="Helvetica" font-size="10.00">_impl.cpp</text>
</a>
</g>
</g>
<!-- Node5&#45;&gt;Node10 -->
<g id="edge16" class="edge">
<title>Node5&#45;&gt;Node10</title>
<path fill="none" stroke="midnightblue" d="M548.05,-178.19C453.37,-163.79 237.25,-200.21 184.5,-142 162.24,-117.43 180.24,-78.48 196.66,-52.95"/>
<polygon fill="midnightblue" stroke="midnightblue" points="547.71,-181.69 558.17,-180.03 548.96,-174.8 547.71,-181.69"/>
</g>
<!-- Node11 -->
<g id="node11" class="node">
<title>Node11</title>
<g id="a_node11"><a xlink:href="service__discovery_2src_2deserializer_8cpp.html" target="_top" xlink:title=" ">
<polygon fill="white" stroke="black" points="748.5,-95 748.5,-136 934.5,-136 934.5,-95 748.5,-95"/>
<text text-anchor="start" x="756.5" y="-124" font-family="Helvetica" font-size="10.00">/home/ec2&#45;user/workspace</text>
<text text-anchor="start" x="756.5" y="-113" font-family="Helvetica" font-size="10.00">/vsomeip/implementation</text>
<text text-anchor="middle" x="841.5" y="-102" font-family="Helvetica" font-size="10.00">/service_discovery/src/deserializer.cpp</text>
</a>
</g>
</g>
<!-- Node5&#45;&gt;Node11 -->
<g id="edge12" class="edge">
<title>Node5&#45;&gt;Node11</title>
<path fill="none" stroke="midnightblue" d="M697.26,-174.6C728.61,-161.97 764.58,-147.48 792.75,-136.13"/>
<polygon fill="midnightblue" stroke="midnightblue" points="695.65,-171.47 687.69,-178.45 698.27,-177.96 695.65,-171.47"/>
</g>
<!-- Node12 -->
<g id="node12" class="node">
<title>Node12</title>
<g id="a_node12"><a xlink:href="entry__impl_8cpp.html" target="_top" xlink:title=" ">
<polygon fill="white" stroke="black" points="953,-89.5 953,-141.5 1094,-141.5 1094,-89.5 953,-89.5"/>
<text text-anchor="start" x="961" y="-129.5" font-family="Helvetica" font-size="10.00">/home/ec2&#45;user/workspace</text>
<text text-anchor="start" x="961" y="-118.5" font-family="Helvetica" font-size="10.00">/vsomeip/implementation</text>
<text text-anchor="start" x="961" y="-107.5" font-family="Helvetica" font-size="10.00">/service_discovery/src/entry</text>
<text text-anchor="middle" x="1023.5" y="-96.5" font-family="Helvetica" font-size="10.00">_impl.cpp</text>
</a>
</g>
</g>
<!-- Node5&#45;&gt;Node12 -->
<g id="edge13" class="edge">
<title>Node5&#45;&gt;Node12</title>
<path fill="none" stroke="midnightblue" d="M702.83,-191.16C767.57,-180.21 862.17,-162.75 943.5,-142 946.61,-141.21 949.77,-140.36 952.96,-139.48"/>
<polygon fill="midnightblue" stroke="midnightblue" points="701.98,-187.76 692.7,-192.86 703.14,-194.66 701.98,-187.76"/>
</g>
<!-- Node13 -->
<g id="node13" class="node">
<title>Node13</title>
<g id="a_node13"><a xlink:href="remote__subscription__ack_8cpp.html" target="_top" xlink:title=" ">
<polygon fill="white" stroke="black" points="353,-89.5 353,-141.5 502,-141.5 502,-89.5 353,-89.5"/>
<text text-anchor="start" x="361" y="-129.5" font-family="Helvetica" font-size="10.00">/home/ec2&#45;user/workspace</text>
<text text-anchor="start" x="361" y="-118.5" font-family="Helvetica" font-size="10.00">/vsomeip/implementation</text>
<text text-anchor="start" x="361" y="-107.5" font-family="Helvetica" font-size="10.00">/service_discovery/src/remote</text>
<text text-anchor="middle" x="427.5" y="-96.5" font-family="Helvetica" font-size="10.00">_subscription_ack.cpp</text>
</a>
</g>
</g>
<!-- Node5&#45;&gt;Node13 -->
<g id="edge15" class="edge">
<title>Node5&#45;&gt;Node13</title>
<path fill="none" stroke="midnightblue" d="M559.03,-174.29C534.84,-163.67 507.74,-151.76 484.44,-141.52"/>
<polygon fill="midnightblue" stroke="midnightblue" points="557.93,-177.63 568.5,-178.45 560.75,-171.23 557.93,-177.63"/>
</g>
<!-- Node6&#45;&gt;Node4 -->
<g id="edge7" class="edge">
<title>Node6&#45;&gt;Node4</title>
<path fill="none" stroke="midnightblue" d="M702.18,-90.13C703.63,-89.74 705.07,-89.37 706.5,-89 783.86,-69.19 873.49,-51.97 936.23,-40.83"/>
<polygon fill="midnightblue" stroke="midnightblue" points="701.24,-86.76 692.52,-92.78 703.09,-93.51 701.24,-86.76"/>
</g>
<!-- Node7 -->
<g id="node7" class="node">
<title>Node7</title>
<g id="a_node7"><a xlink:href="eventgroupentry__impl_8cpp.html" target="_top" xlink:title=" ">
<polygon fill="white" stroke="black" points="577.5,-0.5 577.5,-52.5 765.5,-52.5 765.5,-0.5 577.5,-0.5"/>
<text text-anchor="start" x="585.5" y="-40.5" font-family="Helvetica" font-size="10.00">/home/ec2&#45;user/workspace</text>
<text text-anchor="start" x="585.5" y="-29.5" font-family="Helvetica" font-size="10.00">/vsomeip/implementation</text>
<text text-anchor="start" x="585.5" y="-18.5" font-family="Helvetica" font-size="10.00">/service_discovery/src/eventgroupentry</text>
<text text-anchor="middle" x="671.5" y="-7.5" font-family="Helvetica" font-size="10.00">_impl.cpp</text>
</a>
</g>
</g>
<!-- Node6&#45;&gt;Node7 -->
<g id="edge6" class="edge">
<title>Node6&#45;&gt;Node7</title>
<path fill="none" stroke="midnightblue" d="M643.56,-80.35C648.45,-71.1 653.65,-61.26 658.22,-52.61"/>
<polygon fill="midnightblue" stroke="midnightblue" points="640.39,-78.86 638.81,-89.34 646.57,-82.13 640.39,-78.86"/>
</g>
<!-- Node6&#45;&gt;Node8 -->
<g id="edge8" class="edge">
<title>Node6&#45;&gt;Node8</title>
<path fill="none" stroke="midnightblue" d="M575.83,-84.07C559.05,-73.79 540.51,-62.43 524.48,-52.61"/>
<polygon fill="midnightblue" stroke="midnightblue" points="574.07,-87.1 584.43,-89.34 577.73,-81.13 574.07,-87.1"/>
</g>
<!-- Node9&#45;&gt;Node8 -->
<g id="edge11" class="edge">
<title>Node9&#45;&gt;Node8</title>
<path fill="none" stroke="midnightblue" d="M336.95,-85.72C363.98,-74.98 394.41,-62.89 420.52,-52.52"/>
<polygon fill="midnightblue" stroke="midnightblue" points="335.55,-82.51 327.55,-89.45 338.14,-89.01 335.55,-82.51"/>
</g>
<!-- Node9&#45;&gt;Node10 -->
<g id="edge10" class="edge">
<title>Node9&#45;&gt;Node10</title>
<path fill="none" stroke="midnightblue" d="M245.27,-80.35C240.06,-71.1 234.51,-61.26 229.64,-52.61"/>
<polygon fill="midnightblue" stroke="midnightblue" points="242.37,-82.34 250.33,-89.34 248.47,-78.91 242.37,-82.34"/>
</g>
<!-- Node14&#45;&gt;Node4 -->
<g id="edge19" class="edge">
<title>Node14&#45;&gt;Node4</title>
<path fill="none" stroke="midnightblue" d="M1160.81,-167.85C1159.3,-143.42 1153.71,-111.47 1136.5,-89 1124.61,-73.47 1107.71,-61.55 1090.3,-52.52"/>
<polygon fill="midnightblue" stroke="midnightblue" points="1157.33,-168.31 1161.24,-178.16 1164.32,-168.02 1157.33,-168.31"/>
</g>
<!-- Node15 -->
<g id="node15" class="node">
<title>Node15</title>
<g id="a_node15"><a xlink:href="protection__option__impl_8cpp.html" target="_top" xlink:title=" ">
<polygon fill="white" stroke="black" points="1189,-89.5 1189,-141.5 1350,-141.5 1350,-89.5 1189,-89.5"/>
<text text-anchor="start" x="1197" y="-129.5" font-family="Helvetica" font-size="10.00">/home/ec2&#45;user/workspace</text>
<text text-anchor="start" x="1197" y="-118.5" font-family="Helvetica" font-size="10.00">/vsomeip/implementation</text>
<text text-anchor="start" x="1197" y="-107.5" font-family="Helvetica" font-size="10.00">/service_discovery/src/protection</text>
<text text-anchor="middle" x="1269.5" y="-96.5" font-family="Helvetica" font-size="10.00">_option_impl.cpp</text>
</a>
</g>
</g>
<!-- Node14&#45;&gt;Node15 -->
<g id="edge20" class="edge">
<title>Node14&#45;&gt;Node15</title>
<path fill="none" stroke="midnightblue" d="M1200.05,-171.93C1212.55,-161.96 1226.19,-151.07 1238.04,-141.61"/>
<polygon fill="midnightblue" stroke="midnightblue" points="1197.66,-169.36 1192.03,-178.34 1202.03,-174.83 1197.66,-169.36"/>
</g>
</g>
</svg>
