<?xml version="1.0" encoding="UTF-8" standalone="no"?>
<!DOCTYPE svg PUBLIC "-//W3C//DTD SVG 1.1//EN"
 "http://www.w3.org/Graphics/SVG/1.1/DTD/svg11.dtd">
<!-- Generated by graphviz version 2.44.0 (0)
 -->
<!-- Title: Graphical Class Hierarchy Pages: 1 -->
<svg width="307pt" height="66pt"
 viewBox="0.00 0.00 307.00 66.00" xmlns="http://www.w3.org/2000/svg" xmlns:xlink="http://www.w3.org/1999/xlink">
<g id="graph0" class="graph" transform="scale(1 1) rotate(0) translate(4 62)">
<title>Graphical Class Hierarchy</title>
<polygon fill="white" stroke="transparent" points="-4,4 -4,-62 303,-62 303,4 -4,4"/>
<!-- Node0 -->
<g id="node1" class="node">
<title>Node0</title>
<g id="a_node1"><a xlink:title=" ">
<polygon fill="white" stroke="#bfbfbf" points="0,-38.5 0,-57.5 84,-57.5 84,-38.5 0,-38.5"/>
<text text-anchor="middle" x="42" y="-45.5" font-family="Helvetica" font-size="10.00">basic_io_object</text>
</a>
</g>
</g>
<!-- Node1 -->
<g id="node2" class="node">
<title>Node1</title>
<g id="a_node2"><a xlink:href="classboost_1_1asio_1_1basic__socket__acceptor__ext.html" target="_top" xlink:title="Provides the ability to accept new connections.">
<polygon fill="white" stroke="black" points="120,-8.5 120,-49.5 299,-49.5 299,-8.5 120,-8.5"/>
<text text-anchor="start" x="128" y="-37.5" font-family="Helvetica" font-size="10.00">boost::asio::basic</text>
<text text-anchor="start" x="128" y="-26.5" font-family="Helvetica" font-size="10.00">_socket_acceptor_ext</text>
<text text-anchor="middle" x="209.5" y="-15.5" font-family="Helvetica" font-size="10.00">&lt; Protocol, SocketAcceptorService &gt;</text>
</a>
</g>
</g>
<!-- Node0&#45;&gt;Node1 -->
<g id="edge1" class="edge">
<title>Node0&#45;&gt;Node1</title>
<path fill="none" stroke="midnightblue" d="M94.37,-42.1C102.52,-41.17 111.14,-40.18 119.85,-39.18"/>
<polygon fill="midnightblue" stroke="midnightblue" points="93.87,-38.64 84.34,-43.25 94.67,-45.59 93.87,-38.64"/>
</g>
<!-- Node2 -->
<g id="node3" class="node">
<title>Node2</title>
<g id="a_node3"><a xlink:title=" ">
<polygon fill="white" stroke="#bfbfbf" points="6.5,-0.5 6.5,-19.5 77.5,-19.5 77.5,-0.5 6.5,-0.5"/>
<text text-anchor="middle" x="42" y="-7.5" font-family="Helvetica" font-size="10.00">socket_base</text>
</a>
</g>
</g>
<!-- Node2&#45;&gt;Node1 -->
<g id="edge2" class="edge">
<title>Node2&#45;&gt;Node1</title>
<path fill="none" stroke="midnightblue" d="M87.78,-15.14C97.83,-16.29 108.83,-17.56 119.97,-18.84"/>
<polygon fill="midnightblue" stroke="midnightblue" points="88.03,-11.65 77.69,-13.98 87.23,-18.6 88.03,-11.65"/>
</g>
</g>
</svg>
