<?xml version="1.0" encoding="UTF-8" standalone="no"?>
<!DOCTYPE svg PUBLIC "-//W3C//DTD SVG 1.1//EN"
 "http://www.w3.org/Graphics/SVG/1.1/DTD/svg11.dtd">
<!-- Generated by graphviz version 2.44.0 (0)
 -->
<!-- Title: Graphical Class Hierarchy Pages: 1 -->
<svg width="300pt" height="110pt"
 viewBox="0.00 0.00 300.00 110.00" xmlns="http://www.w3.org/2000/svg" xmlns:xlink="http://www.w3.org/1999/xlink">
<g id="graph0" class="graph" transform="scale(1 1) rotate(0) translate(4 106)">
<title>Graphical Class Hierarchy</title>
<polygon fill="white" stroke="transparent" points="-4,4 -4,-106 296,-106 296,4 -4,4"/>
<!-- Node0 -->
<g id="node1" class="node">
<title>Node0</title>
<g id="a_node1"><a xlink:title=" ">
<polygon fill="white" stroke="#bfbfbf" points="0,-41.5 0,-60.5 74,-60.5 74,-41.5 0,-41.5"/>
<text text-anchor="middle" x="37" y="-48.5" font-family="Helvetica" font-size="10.00">basic_socket</text>
</a>
</g>
</g>
<!-- Node1 -->
<g id="node2" class="node">
<title>Node1</title>
<g id="a_node2"><a xlink:href="classboost_1_1asio_1_1basic__datagram__socket__ext.html" target="_top" xlink:title="Provides datagram&#45;oriented socket functionality.">
<polygon fill="white" stroke="black" points="110,-60.5 110,-101.5 292,-101.5 292,-60.5 110,-60.5"/>
<text text-anchor="start" x="118" y="-89.5" font-family="Helvetica" font-size="10.00">boost::asio::basic</text>
<text text-anchor="start" x="118" y="-78.5" font-family="Helvetica" font-size="10.00">_datagram_socket_ext</text>
<text text-anchor="middle" x="201" y="-67.5" font-family="Helvetica" font-size="10.00">&lt; Protocol, DatagramSocketService &gt;</text>
</a>
</g>
</g>
<!-- Node0&#45;&gt;Node1 -->
<g id="edge1" class="edge">
<title>Node0&#45;&gt;Node1</title>
<path fill="none" stroke="midnightblue" d="M84.28,-59.57C92.38,-61.07 101.06,-62.68 109.87,-64.31"/>
<polygon fill="midnightblue" stroke="midnightblue" points="84.83,-56.11 74.36,-57.73 83.55,-63 84.83,-56.11"/>
</g>
<!-- Node2 -->
<g id="node3" class="node">
<title>Node2</title>
<g id="a_node3"><a xlink:href="classboost_1_1asio_1_1basic__stream__socket__ext.html" target="_top" xlink:title="Provides stream&#45;oriented socket functionality.">
<polygon fill="white" stroke="black" points="118,-0.5 118,-41.5 284,-41.5 284,-0.5 118,-0.5"/>
<text text-anchor="start" x="126" y="-29.5" font-family="Helvetica" font-size="10.00">boost::asio::basic</text>
<text text-anchor="start" x="126" y="-18.5" font-family="Helvetica" font-size="10.00">_stream_socket_ext&lt;</text>
<text text-anchor="middle" x="201" y="-7.5" font-family="Helvetica" font-size="10.00"> Protocol, StreamSocketService &gt;</text>
</a>
</g>
</g>
<!-- Node0&#45;&gt;Node2 -->
<g id="edge2" class="edge">
<title>Node0&#45;&gt;Node2</title>
<path fill="none" stroke="midnightblue" d="M84.46,-42.4C94.92,-40.46 106.32,-38.35 117.76,-36.23"/>
<polygon fill="midnightblue" stroke="midnightblue" points="83.55,-39 74.36,-44.27 84.83,-45.89 83.55,-39"/>
</g>
</g>
</svg>
