<?xml version="1.0" encoding="UTF-8" standalone="no"?>
<!DOCTYPE svg PUBLIC "-//W3C//DTD SVG 1.1//EN"
 "http://www.w3.org/Graphics/SVG/1.1/DTD/svg11.dtd">
<!-- Generated by graphviz version 2.44.0 (0)
 -->
<!-- Title: /home/ec2&#45;user/workspace/vsomeip/interface/vsomeip/runtime.hpp Pages: 1 -->
<svg width="460pt" height="106pt"
 viewBox="0.00 0.00 459.50 106.00" xmlns="http://www.w3.org/2000/svg" xmlns:xlink="http://www.w3.org/1999/xlink">
<g id="graph0" class="graph" transform="scale(1 1) rotate(0) translate(4 102)">
<title>/home/ec2&#45;user/workspace/vsomeip/interface/vsomeip/runtime.hpp</title>
<polygon fill="white" stroke="transparent" points="-4,4 -4,-102 455.5,-102 455.5,4 -4,4"/>
<!-- Node1 -->
<g id="node1" class="node">
<title>Node1</title>
<g id="a_node1"><a xlink:title=" ">
<polygon fill="#bfbfbf" stroke="black" points="83,-56.5 83,-97.5 220,-97.5 220,-56.5 83,-56.5"/>
<text text-anchor="start" x="91" y="-85.5" font-family="Helvetica" font-size="10.00">/home/ec2&#45;user/workspace</text>
<text text-anchor="start" x="91" y="-74.5" font-family="Helvetica" font-size="10.00">/vsomeip/interface/vsomeip</text>
<text text-anchor="middle" x="151.5" y="-63.5" font-family="Helvetica" font-size="10.00">/runtime.hpp</text>
</a>
</g>
</g>
<!-- Node2 -->
<g id="node2" class="node">
<title>Node2</title>
<g id="a_node2"><a xlink:title=" ">
<polygon fill="white" stroke="#bfbfbf" points="0,-0.5 0,-19.5 53,-19.5 53,-0.5 0,-0.5"/>
<text text-anchor="middle" x="26.5" y="-7.5" font-family="Helvetica" font-size="10.00">memory</text>
</a>
</g>
</g>
<!-- Node1&#45;&gt;Node2 -->
<g id="edge1" class="edge">
<title>Node1&#45;&gt;Node2</title>
<path fill="none" stroke="midnightblue" d="M114,-56.5C94.09,-46.15 70.14,-33.69 52.34,-24.43"/>
<polygon fill="midnightblue" stroke="midnightblue" points="53.63,-21.16 43.14,-19.65 50.4,-27.37 53.63,-21.16"/>
</g>
<!-- Node3 -->
<g id="node3" class="node">
<title>Node3</title>
<g id="a_node3"><a xlink:title=" ">
<polygon fill="white" stroke="#bfbfbf" points="71,-0.5 71,-19.5 112,-19.5 112,-0.5 71,-0.5"/>
<text text-anchor="middle" x="91.5" y="-7.5" font-family="Helvetica" font-size="10.00">string</text>
</a>
</g>
</g>
<!-- Node1&#45;&gt;Node3 -->
<g id="edge2" class="edge">
<title>Node1&#45;&gt;Node3</title>
<path fill="none" stroke="midnightblue" d="M133.5,-56.5C124.83,-47.11 114.56,-35.98 106.35,-27.08"/>
<polygon fill="midnightblue" stroke="midnightblue" points="108.84,-24.63 99.49,-19.65 103.7,-29.37 108.84,-24.63"/>
</g>
<!-- Node4 -->
<g id="node4" class="node">
<title>Node4</title>
<g id="a_node4"><a xlink:title=" ">
<polygon fill="white" stroke="#bfbfbf" points="130,-0.5 130,-19.5 173,-19.5 173,-0.5 130,-0.5"/>
<text text-anchor="middle" x="151.5" y="-7.5" font-family="Helvetica" font-size="10.00">vector</text>
</a>
</g>
</g>
<!-- Node1&#45;&gt;Node4 -->
<g id="edge3" class="edge">
<title>Node1&#45;&gt;Node4</title>
<path fill="none" stroke="midnightblue" d="M151.5,-56.5C151.5,-48.07 151.5,-38.24 151.5,-29.87"/>
<polygon fill="midnightblue" stroke="midnightblue" points="155,-29.65 151.5,-19.65 148,-29.65 155,-29.65"/>
</g>
<!-- Node5 -->
<g id="node5" class="node">
<title>Node5</title>
<g id="a_node5"><a xlink:title=" ">
<polygon fill="white" stroke="#bfbfbf" points="191.5,-0.5 191.5,-19.5 293.5,-19.5 293.5,-0.5 191.5,-0.5"/>
<text text-anchor="middle" x="242.5" y="-7.5" font-family="Helvetica" font-size="10.00">vsomeip/export.hpp</text>
</a>
</g>
</g>
<!-- Node1&#45;&gt;Node5 -->
<g id="edge4" class="edge">
<title>Node1&#45;&gt;Node5</title>
<path fill="none" stroke="midnightblue" d="M178.8,-56.5C192.76,-46.53 209.44,-34.61 222.23,-25.48"/>
<polygon fill="midnightblue" stroke="midnightblue" points="224.28,-28.31 230.39,-19.65 220.21,-22.62 224.28,-28.31"/>
</g>
<!-- Node6 -->
<g id="node6" class="node">
<title>Node6</title>
<g id="a_node6"><a xlink:title=" ">
<polygon fill="white" stroke="#bfbfbf" points="311.5,-0.5 311.5,-19.5 451.5,-19.5 451.5,-0.5 311.5,-0.5"/>
<text text-anchor="middle" x="381.5" y="-7.5" font-family="Helvetica" font-size="10.00">vsomeip/primitive_types.hpp</text>
</a>
</g>
</g>
<!-- Node1&#45;&gt;Node6 -->
<g id="edge5" class="edge">
<title>Node1&#45;&gt;Node6</title>
<path fill="none" stroke="midnightblue" d="M220.2,-56.59C259.78,-45.4 308.16,-31.73 341.55,-22.29"/>
<polygon fill="midnightblue" stroke="midnightblue" points="342.73,-25.59 351.4,-19.51 340.83,-18.86 342.73,-25.59"/>
</g>
</g>
</svg>
