<?xml version="1.0" encoding="UTF-8" standalone="no"?>
<!DOCTYPE svg PUBLIC "-//W3C//DTD SVG 1.1//EN"
 "http://www.w3.org/Graphics/SVG/1.1/DTD/svg11.dtd">
<!-- Generated by graphviz version 2.44.0 (0)
 -->
<!-- Title: /home/ec2&#45;user/workspace/vsomeip/interface/vsomeip/defines.hpp Pages: 1 -->
<svg width="145pt" height="106pt"
 viewBox="0.00 0.00 145.00 106.00" xmlns="http://www.w3.org/2000/svg" xmlns:xlink="http://www.w3.org/1999/xlink">
<g id="graph0" class="graph" transform="scale(1 1) rotate(0) translate(4 102)">
<title>/home/ec2&#45;user/workspace/vsomeip/interface/vsomeip/defines.hpp</title>
<polygon fill="white" stroke="transparent" points="-4,4 -4,-102 141,-102 141,4 -4,4"/>
<!-- Node1 -->
<g id="node1" class="node">
<title>Node1</title>
<g id="a_node1"><a xlink:title=" ">
<polygon fill="#bfbfbf" stroke="black" points="0,-56.5 0,-97.5 137,-97.5 137,-56.5 0,-56.5"/>
<text text-anchor="start" x="8" y="-85.5" font-family="Helvetica" font-size="10.00">/home/ec2&#45;user/workspace</text>
<text text-anchor="start" x="8" y="-74.5" font-family="Helvetica" font-size="10.00">/vsomeip/interface/vsomeip</text>
<text text-anchor="middle" x="68.5" y="-63.5" font-family="Helvetica" font-size="10.00">/defines.hpp</text>
</a>
</g>
</g>
<!-- Node2 -->
<g id="node2" class="node">
<title>Node2</title>
<g id="a_node2"><a xlink:title=" ">
<polygon fill="white" stroke="#bfbfbf" points="11,-0.5 11,-19.5 60,-19.5 60,-0.5 11,-0.5"/>
<text text-anchor="middle" x="35.5" y="-7.5" font-family="Helvetica" font-size="10.00">cstddef</text>
</a>
</g>
</g>
<!-- Node1&#45;&gt;Node2 -->
<g id="edge1" class="edge">
<title>Node1&#45;&gt;Node2</title>
<path fill="none" stroke="midnightblue" d="M58.6,-56.5C54.12,-47.68 48.87,-37.34 44.51,-28.74"/>
<polygon fill="midnightblue" stroke="midnightblue" points="47.54,-26.98 39.89,-19.65 41.3,-30.15 47.54,-26.98"/>
</g>
<!-- Node3 -->
<g id="node3" class="node">
<title>Node3</title>
<g id="a_node3"><a xlink:title=" ">
<polygon fill="white" stroke="#bfbfbf" points="78.5,-0.5 78.5,-19.5 124.5,-19.5 124.5,-0.5 78.5,-0.5"/>
<text text-anchor="middle" x="101.5" y="-7.5" font-family="Helvetica" font-size="10.00">cstdint</text>
</a>
</g>
</g>
<!-- Node1&#45;&gt;Node3 -->
<g id="edge2" class="edge">
<title>Node1&#45;&gt;Node3</title>
<path fill="none" stroke="midnightblue" d="M78.4,-56.5C82.88,-47.68 88.13,-37.34 92.49,-28.74"/>
<polygon fill="midnightblue" stroke="midnightblue" points="95.7,-30.15 97.11,-19.65 89.46,-26.98 95.7,-30.15"/>
</g>
</g>
</svg>
