<?xml version="1.0" encoding="UTF-8" standalone="no"?>
<!DOCTYPE svg PUBLIC "-//W3C//DTD SVG 1.1//EN"
 "http://www.w3.org/Graphics/SVG/1.1/DTD/svg11.dtd">
<!-- Generated by graphviz version 2.44.0 (0)
 -->
<!-- Title: /home/ec2&#45;user/workspace/vsomeip/interface/vsomeip/constants.hpp Pages: 1 -->
<svg width="336pt" height="117pt"
 viewBox="0.00 0.00 335.50 117.00" xmlns="http://www.w3.org/2000/svg" xmlns:xlink="http://www.w3.org/1999/xlink">
<g id="graph0" class="graph" transform="scale(1 1) rotate(0) translate(4 113)">
<title>/home/ec2&#45;user/workspace/vsomeip/interface/vsomeip/constants.hpp</title>
<polygon fill="white" stroke="transparent" points="-4,4 -4,-113 331.5,-113 331.5,4 -4,4"/>
<!-- Node1 -->
<g id="node1" class="node">
<title>Node1</title>
<g id="a_node1"><a xlink:title=" ">
<polygon fill="#bfbfbf" stroke="black" points="61,-67.5 61,-108.5 198,-108.5 198,-67.5 61,-67.5"/>
<text text-anchor="start" x="69" y="-96.5" font-family="Helvetica" font-size="10.00">/home/ec2&#45;user/workspace</text>
<text text-anchor="start" x="69" y="-85.5" font-family="Helvetica" font-size="10.00">/vsomeip/interface/vsomeip</text>
<text text-anchor="middle" x="129.5" y="-74.5" font-family="Helvetica" font-size="10.00">/constants.hpp</text>
</a>
</g>
</g>
<!-- Node2 -->
<g id="node2" class="node">
<title>Node2</title>
<g id="a_node2"><a xlink:title=" ">
<polygon fill="white" stroke="#bfbfbf" points="0,-6 0,-25 41,-25 41,-6 0,-6"/>
<text text-anchor="middle" x="20.5" y="-13" font-family="Helvetica" font-size="10.00">string</text>
</a>
</g>
</g>
<!-- Node1&#45;&gt;Node2 -->
<g id="edge1" class="edge">
<title>Node1&#45;&gt;Node2</title>
<path fill="none" stroke="midnightblue" d="M99.14,-67.36C81.23,-55.78 58.97,-41.39 42.71,-30.87"/>
<polygon fill="midnightblue" stroke="midnightblue" points="44.21,-27.67 33.91,-25.17 40.41,-33.54 44.21,-27.67"/>
</g>
<!-- Node3 -->
<g id="node3" class="node">
<title>Node3</title>
<g id="a_node3"><a xlink:title=" ">
<polygon fill="white" stroke="#bfbfbf" points="59.5,-6 59.5,-25 199.5,-25 199.5,-6 59.5,-6"/>
<text text-anchor="middle" x="129.5" y="-13" font-family="Helvetica" font-size="10.00">vsomeip/primitive_types.hpp</text>
</a>
</g>
</g>
<!-- Node1&#45;&gt;Node3 -->
<g id="edge2" class="edge">
<title>Node1&#45;&gt;Node3</title>
<path fill="none" stroke="midnightblue" d="M129.5,-67.36C129.5,-57.3 129.5,-45.1 129.5,-35.18"/>
<polygon fill="midnightblue" stroke="midnightblue" points="133,-35.17 129.5,-25.17 126,-35.17 133,-35.17"/>
</g>
<!-- Node4 -->
<g id="node4" class="node">
<title>Node4</title>
<g id="a_node4"><a xlink:title=" ">
<polygon fill="white" stroke="#bfbfbf" points="217.5,-0.5 217.5,-30.5 327.5,-30.5 327.5,-0.5 217.5,-0.5"/>
<text text-anchor="start" x="225.5" y="-18.5" font-family="Helvetica" font-size="10.00">vsomeip/enumeration</text>
<text text-anchor="middle" x="272.5" y="-7.5" font-family="Helvetica" font-size="10.00">_types.hpp</text>
</a>
</g>
</g>
<!-- Node1&#45;&gt;Node4 -->
<g id="edge3" class="edge">
<title>Node1&#45;&gt;Node4</title>
<path fill="none" stroke="midnightblue" d="M169.33,-67.36C189.74,-57.3 214.45,-45.12 234.58,-35.2"/>
<polygon fill="midnightblue" stroke="midnightblue" points="236.34,-38.23 243.76,-30.67 233.24,-31.95 236.34,-38.23"/>
</g>
</g>
</svg>
