<?xml version="1.0" encoding="UTF-8" standalone="no"?>
<!DOCTYPE svg PUBLIC "-//W3C//DTD SVG 1.1//EN"
 "http://www.w3.org/Graphics/SVG/1.1/DTD/svg11.dtd">
<!-- Generated by graphviz version 2.44.0 (0)
 -->
<!-- Title: /home/ec2&#45;user/workspace/vsomeip/interface/vsomeip/trace.hpp Pages: 1 -->
<svg width="417pt" height="106pt"
 viewBox="0.00 0.00 416.50 106.00" xmlns="http://www.w3.org/2000/svg" xmlns:xlink="http://www.w3.org/1999/xlink">
<g id="graph0" class="graph" transform="scale(1 1) rotate(0) translate(4 102)">
<title>/home/ec2&#45;user/workspace/vsomeip/interface/vsomeip/trace.hpp</title>
<polygon fill="white" stroke="transparent" points="-4,4 -4,-102 412.5,-102 412.5,4 -4,4"/>
<!-- Node1 -->
<g id="node1" class="node">
<title>Node1</title>
<g id="a_node1"><a xlink:title=" ">
<polygon fill="#bfbfbf" stroke="black" points="73,-56.5 73,-97.5 210,-97.5 210,-56.5 73,-56.5"/>
<text text-anchor="start" x="81" y="-85.5" font-family="Helvetica" font-size="10.00">/home/ec2&#45;user/workspace</text>
<text text-anchor="start" x="81" y="-74.5" font-family="Helvetica" font-size="10.00">/vsomeip/interface/vsomeip</text>
<text text-anchor="middle" x="141.5" y="-63.5" font-family="Helvetica" font-size="10.00">/trace.hpp</text>
</a>
</g>
</g>
<!-- Node2 -->
<g id="node2" class="node">
<title>Node2</title>
<g id="a_node2"><a xlink:title=" ">
<polygon fill="white" stroke="#bfbfbf" points="0,-0.5 0,-19.5 53,-19.5 53,-0.5 0,-0.5"/>
<text text-anchor="middle" x="26.5" y="-7.5" font-family="Helvetica" font-size="10.00">memory</text>
</a>
</g>
</g>
<!-- Node1&#45;&gt;Node2 -->
<g id="edge1" class="edge">
<title>Node1&#45;&gt;Node2</title>
<path fill="none" stroke="midnightblue" d="M107,-56.5C88.86,-46.24 67.06,-33.93 50.73,-24.69"/>
<polygon fill="midnightblue" stroke="midnightblue" points="52.24,-21.53 41.81,-19.65 48.79,-27.62 52.24,-21.53"/>
</g>
<!-- Node3 -->
<g id="node3" class="node">
<title>Node3</title>
<g id="a_node3"><a xlink:title=" ">
<polygon fill="white" stroke="#bfbfbf" points="71,-0.5 71,-19.5 114,-19.5 114,-0.5 71,-0.5"/>
<text text-anchor="middle" x="92.5" y="-7.5" font-family="Helvetica" font-size="10.00">vector</text>
</a>
</g>
</g>
<!-- Node1&#45;&gt;Node3 -->
<g id="edge2" class="edge">
<title>Node1&#45;&gt;Node3</title>
<path fill="none" stroke="midnightblue" d="M126.8,-56.5C119.94,-47.39 111.85,-36.66 105.25,-27.91"/>
<polygon fill="midnightblue" stroke="midnightblue" points="107.84,-25.53 99.02,-19.65 102.25,-29.74 107.84,-25.53"/>
</g>
<!-- Node4 -->
<g id="node4" class="node">
<title>Node4</title>
<g id="a_node4"><a xlink:title=" ">
<polygon fill="white" stroke="#bfbfbf" points="132.5,-0.5 132.5,-19.5 250.5,-19.5 250.5,-0.5 132.5,-0.5"/>
<text text-anchor="middle" x="191.5" y="-7.5" font-family="Helvetica" font-size="10.00">vsomeip/constants.hpp</text>
</a>
</g>
</g>
<!-- Node1&#45;&gt;Node4 -->
<g id="edge3" class="edge">
<title>Node1&#45;&gt;Node4</title>
<path fill="none" stroke="midnightblue" d="M156.5,-56.5C163.58,-47.3 171.93,-36.44 178.71,-27.63"/>
<polygon fill="midnightblue" stroke="midnightblue" points="181.52,-29.71 184.84,-19.65 175.97,-25.44 181.52,-29.71"/>
</g>
<!-- Node5 -->
<g id="node5" class="node">
<title>Node5</title>
<g id="a_node5"><a xlink:title=" ">
<polygon fill="white" stroke="#bfbfbf" points="268.5,-0.5 268.5,-19.5 408.5,-19.5 408.5,-0.5 268.5,-0.5"/>
<text text-anchor="middle" x="338.5" y="-7.5" font-family="Helvetica" font-size="10.00">vsomeip/primitive_types.hpp</text>
</a>
</g>
</g>
<!-- Node1&#45;&gt;Node5 -->
<g id="edge4" class="edge">
<title>Node1&#45;&gt;Node5</title>
<path fill="none" stroke="midnightblue" d="M200.61,-56.5C233.96,-45.49 274.53,-32.11 303,-22.71"/>
<polygon fill="midnightblue" stroke="midnightblue" points="304.14,-26.02 312.54,-19.57 301.94,-19.38 304.14,-26.02"/>
</g>
</g>
</svg>
