<?xml version="1.0" encoding="UTF-8" standalone="no"?>
<!DOCTYPE svg PUBLIC "-//W3C//DTD SVG 1.1//EN"
 "http://www.w3.org/Graphics/SVG/1.1/DTD/svg11.dtd">
<!-- Generated by graphviz version 2.44.0 (0)
 -->
<!-- Title: /home/ec2&#45;user/workspace/vsomeip/interface/compat/vsomeip/runtime.hpp Pages: 1 -->
<svg width="431pt" height="173pt"
 viewBox="0.00 0.00 431.00 173.00" xmlns="http://www.w3.org/2000/svg" xmlns:xlink="http://www.w3.org/1999/xlink">
<g id="graph0" class="graph" transform="scale(1 1) rotate(0) translate(4 169)">
<title>/home/ec2&#45;user/workspace/vsomeip/interface/compat/vsomeip/runtime.hpp</title>
<polygon fill="white" stroke="transparent" points="-4,4 -4,-169 427,-169 427,4 -4,4"/>
<!-- Node1 -->
<g id="node1" class="node">
<title>Node1</title>
<g id="a_node1"><a xlink:title=" ">
<polygon fill="#bfbfbf" stroke="black" points="84.5,-123.5 84.5,-164.5 218.5,-164.5 218.5,-123.5 84.5,-123.5"/>
<text text-anchor="start" x="92.5" y="-152.5" font-family="Helvetica" font-size="10.00">/home/ec2&#45;user/workspace</text>
<text text-anchor="start" x="92.5" y="-141.5" font-family="Helvetica" font-size="10.00">/vsomeip/interface/compat</text>
<text text-anchor="middle" x="151.5" y="-130.5" font-family="Helvetica" font-size="10.00">/vsomeip/runtime.hpp</text>
</a>
</g>
</g>
<!-- Node2 -->
<g id="node2" class="node">
<title>Node2</title>
<g id="a_node2"><a xlink:title=" ">
<polygon fill="white" stroke="#bfbfbf" points="0,-62 0,-81 53,-81 53,-62 0,-62"/>
<text text-anchor="middle" x="26.5" y="-69" font-family="Helvetica" font-size="10.00">memory</text>
</a>
</g>
</g>
<!-- Node1&#45;&gt;Node2 -->
<g id="edge1" class="edge">
<title>Node1&#45;&gt;Node2</title>
<path fill="none" stroke="midnightblue" d="M116.68,-123.36C95.67,-111.51 69.43,-96.71 50.68,-86.14"/>
<polygon fill="midnightblue" stroke="midnightblue" points="52.31,-83.04 41.88,-81.17 48.87,-89.13 52.31,-83.04"/>
</g>
<!-- Node3 -->
<g id="node3" class="node">
<title>Node3</title>
<g id="a_node3"><a xlink:title=" ">
<polygon fill="white" stroke="#bfbfbf" points="71,-62 71,-81 112,-81 112,-62 71,-62"/>
<text text-anchor="middle" x="91.5" y="-69" font-family="Helvetica" font-size="10.00">string</text>
</a>
</g>
</g>
<!-- Node1&#45;&gt;Node3 -->
<g id="edge2" class="edge">
<title>Node1&#45;&gt;Node3</title>
<path fill="none" stroke="midnightblue" d="M134.79,-123.36C125.58,-112.54 114.27,-99.26 105.53,-88.98"/>
<polygon fill="midnightblue" stroke="midnightblue" points="108.03,-86.52 98.88,-81.17 102.7,-91.06 108.03,-86.52"/>
</g>
<!-- Node4 -->
<g id="node4" class="node">
<title>Node4</title>
<g id="a_node4"><a xlink:title=" ">
<polygon fill="white" stroke="#bfbfbf" points="130,-62 130,-81 173,-81 173,-62 130,-62"/>
<text text-anchor="middle" x="151.5" y="-69" font-family="Helvetica" font-size="10.00">vector</text>
</a>
</g>
</g>
<!-- Node1&#45;&gt;Node4 -->
<g id="edge3" class="edge">
<title>Node1&#45;&gt;Node4</title>
<path fill="none" stroke="midnightblue" d="M151.5,-123.36C151.5,-113.3 151.5,-101.1 151.5,-91.18"/>
<polygon fill="midnightblue" stroke="midnightblue" points="155,-91.17 151.5,-81.17 148,-91.17 155,-91.17"/>
</g>
<!-- Node5 -->
<g id="node5" class="node">
<title>Node5</title>
<g id="a_node5"><a xlink:href="compat_2vsomeip_2export_8hpp.html" target="_top" xlink:title=" ">
<polygon fill="white" stroke="black" points="191,-56.5 191,-86.5 298,-86.5 298,-56.5 191,-56.5"/>
<text text-anchor="start" x="199" y="-74.5" font-family="Helvetica" font-size="10.00">../../compat/vsomeip</text>
<text text-anchor="middle" x="244.5" y="-63.5" font-family="Helvetica" font-size="10.00">/export.hpp</text>
</a>
</g>
</g>
<!-- Node1&#45;&gt;Node5 -->
<g id="edge4" class="edge">
<title>Node1&#45;&gt;Node5</title>
<path fill="none" stroke="midnightblue" d="M177.41,-123.36C189.89,-113.89 204.87,-102.54 217.5,-92.97"/>
<polygon fill="midnightblue" stroke="midnightblue" points="219.95,-95.5 225.81,-86.67 215.72,-89.92 219.95,-95.5"/>
</g>
<!-- Node6 -->
<g id="node6" class="node">
<title>Node6</title>
<g id="a_node6"><a xlink:href="interface_2compat_2vsomeip_2primitive__types_8hpp.html" target="_top" xlink:title=" ">
<polygon fill="white" stroke="black" points="316,-56.5 316,-86.5 423,-86.5 423,-56.5 316,-56.5"/>
<text text-anchor="start" x="324" y="-74.5" font-family="Helvetica" font-size="10.00">../../compat/vsomeip</text>
<text text-anchor="middle" x="369.5" y="-63.5" font-family="Helvetica" font-size="10.00">/primitive_types.hpp</text>
</a>
</g>
</g>
<!-- Node1&#45;&gt;Node6 -->
<g id="edge5" class="edge">
<title>Node1&#45;&gt;Node6</title>
<path fill="none" stroke="midnightblue" d="M211.94,-123.46C244.57,-112.9 284.5,-99.99 316,-89.8"/>
<polygon fill="midnightblue" stroke="midnightblue" points="317.47,-93 325.91,-86.6 315.32,-86.34 317.47,-93"/>
</g>
<!-- Node7 -->
<g id="node7" class="node">
<title>Node7</title>
<g id="a_node7"><a xlink:title=" ">
<polygon fill="white" stroke="#bfbfbf" points="320.5,-0.5 320.5,-19.5 358.5,-19.5 358.5,-0.5 320.5,-0.5"/>
<text text-anchor="middle" x="339.5" y="-7.5" font-family="Helvetica" font-size="10.00">array</text>
</a>
</g>
</g>
<!-- Node6&#45;&gt;Node7 -->
<g id="edge6" class="edge">
<title>Node6&#45;&gt;Node7</title>
<path fill="none" stroke="midnightblue" d="M362.39,-56.4C358.21,-48.11 352.89,-37.55 348.43,-28.71"/>
<polygon fill="midnightblue" stroke="midnightblue" points="351.49,-27.01 343.87,-19.66 345.24,-30.16 351.49,-27.01"/>
</g>
<!-- Node8 -->
<g id="node8" class="node">
<title>Node8</title>
<g id="a_node8"><a xlink:title=" ">
<polygon fill="white" stroke="#bfbfbf" points="376.5,-0.5 376.5,-19.5 422.5,-19.5 422.5,-0.5 376.5,-0.5"/>
<text text-anchor="middle" x="399.5" y="-7.5" font-family="Helvetica" font-size="10.00">cstdint</text>
</a>
</g>
</g>
<!-- Node6&#45;&gt;Node8 -->
<g id="edge7" class="edge">
<title>Node6&#45;&gt;Node8</title>
<path fill="none" stroke="midnightblue" d="M376.61,-56.4C380.79,-48.11 386.11,-37.55 390.57,-28.71"/>
<polygon fill="midnightblue" stroke="midnightblue" points="393.76,-30.16 395.13,-19.66 387.51,-27.01 393.76,-30.16"/>
</g>
</g>
</svg>
