<?xml version="1.0" encoding="UTF-8" standalone="no"?>
<!DOCTYPE svg PUBLIC "-//W3C//DTD SVG 1.1//EN"
 "http://www.w3.org/Graphics/SVG/1.1/DTD/svg11.dtd">
<!-- Generated by graphviz version 2.44.0 (0)
 -->
<!-- Title: /home/ec2&#45;user/workspace/vsomeip/implementation/configuration/include/internal.hpp Pages: 1 -->
<svg width="460pt" height="173pt"
 viewBox="0.00 0.00 460.00 173.00" xmlns="http://www.w3.org/2000/svg" xmlns:xlink="http://www.w3.org/1999/xlink">
<g id="graph0" class="graph" transform="scale(1 1) rotate(0) translate(4 169)">
<title>/home/ec2&#45;user/workspace/vsomeip/implementation/configuration/include/internal.hpp</title>
<polygon fill="white" stroke="transparent" points="-4,4 -4,-169 456,-169 456,4 -4,4"/>
<!-- Node1 -->
<g id="node1" class="node">
<title>Node1</title>
<g id="a_node1"><a xlink:title=" ">
<polygon fill="#bfbfbf" stroke="black" points="68,-123.5 68,-164.5 230,-164.5 230,-123.5 68,-123.5"/>
<text text-anchor="start" x="76" y="-152.5" font-family="Helvetica" font-size="10.00">/home/ec2&#45;user/workspace</text>
<text text-anchor="start" x="76" y="-141.5" font-family="Helvetica" font-size="10.00">/vsomeip/implementation</text>
<text text-anchor="middle" x="149" y="-130.5" font-family="Helvetica" font-size="10.00">/configuration/include/internal.hpp</text>
</a>
</g>
</g>
<!-- Node2 -->
<g id="node2" class="node">
<title>Node2</title>
<g id="a_node2"><a xlink:title=" ">
<polygon fill="white" stroke="#bfbfbf" points="0,-62 0,-81 46,-81 46,-62 0,-62"/>
<text text-anchor="middle" x="23" y="-69" font-family="Helvetica" font-size="10.00">cstdint</text>
</a>
</g>
</g>
<!-- Node1&#45;&gt;Node2 -->
<g id="edge1" class="edge">
<title>Node1&#45;&gt;Node2</title>
<path fill="none" stroke="midnightblue" d="M113.9,-123.36C92.72,-111.51 66.27,-96.71 47.37,-86.14"/>
<polygon fill="midnightblue" stroke="midnightblue" points="48.94,-83 38.5,-81.17 45.52,-89.11 48.94,-83"/>
</g>
<!-- Node3 -->
<g id="node3" class="node">
<title>Node3</title>
<g id="a_node3"><a xlink:title=" ">
<polygon fill="white" stroke="#bfbfbf" points="64,-62 64,-81 104,-81 104,-62 64,-62"/>
<text text-anchor="middle" x="84" y="-69" font-family="Helvetica" font-size="10.00">limits</text>
</a>
</g>
</g>
<!-- Node1&#45;&gt;Node3 -->
<g id="edge2" class="edge">
<title>Node1&#45;&gt;Node3</title>
<path fill="none" stroke="midnightblue" d="M130.89,-123.36C120.82,-112.43 108.42,-98.99 98.91,-88.67"/>
<polygon fill="midnightblue" stroke="midnightblue" points="101.35,-86.15 92,-81.17 96.2,-90.9 101.35,-86.15"/>
</g>
<!-- Node4 -->
<g id="node4" class="node">
<title>Node4</title>
<g id="a_node4"><a xlink:title=" ">
<polygon fill="white" stroke="#bfbfbf" points="122.5,-62 122.5,-81 175.5,-81 175.5,-62 122.5,-62"/>
<text text-anchor="middle" x="149" y="-69" font-family="Helvetica" font-size="10.00">memory</text>
</a>
</g>
</g>
<!-- Node1&#45;&gt;Node4 -->
<g id="edge3" class="edge">
<title>Node1&#45;&gt;Node4</title>
<path fill="none" stroke="midnightblue" d="M149,-123.36C149,-113.3 149,-101.1 149,-91.18"/>
<polygon fill="midnightblue" stroke="midnightblue" points="152.5,-91.17 149,-81.17 145.5,-91.17 152.5,-91.17"/>
</g>
<!-- Node5 -->
<g id="node5" class="node">
<title>Node5</title>
<g id="a_node5"><a xlink:title=" ">
<polygon fill="white" stroke="#bfbfbf" points="194,-62 194,-81 334,-81 334,-62 194,-62"/>
<text text-anchor="middle" x="264" y="-69" font-family="Helvetica" font-size="10.00">vsomeip/primitive_types.hpp</text>
</a>
</g>
</g>
<!-- Node1&#45;&gt;Node5 -->
<g id="edge4" class="edge">
<title>Node1&#45;&gt;Node5</title>
<path fill="none" stroke="midnightblue" d="M181.03,-123.36C200.1,-111.67 223.85,-97.12 241.04,-86.57"/>
<polygon fill="midnightblue" stroke="midnightblue" points="243.16,-89.38 249.85,-81.17 239.5,-83.42 243.16,-89.38"/>
</g>
<!-- Node6 -->
<g id="node6" class="node">
<title>Node6</title>
<g id="a_node6"><a xlink:href="structured__types_8hpp.html" target="_top" xlink:title=" ">
<polygon fill="white" stroke="black" points="352,-56.5 352,-86.5 452,-86.5 452,-56.5 352,-56.5"/>
<text text-anchor="start" x="360" y="-74.5" font-family="Helvetica" font-size="10.00">vsomeip/structured</text>
<text text-anchor="middle" x="402" y="-63.5" font-family="Helvetica" font-size="10.00">_types.hpp</text>
</a>
</g>
</g>
<!-- Node1&#45;&gt;Node6 -->
<g id="edge5" class="edge">
<title>Node1&#45;&gt;Node6</title>
<path fill="none" stroke="midnightblue" d="M219.14,-123.46C257.64,-112.73 304.89,-99.56 341.71,-89.3"/>
<polygon fill="midnightblue" stroke="midnightblue" points="343.11,-92.54 351.81,-86.49 341.23,-85.8 343.11,-92.54"/>
</g>
<!-- Node7 -->
<g id="node7" class="node">
<title>Node7</title>
<g id="a_node7"><a xlink:title=" ">
<polygon fill="white" stroke="#bfbfbf" points="349,-0.5 349,-19.5 395,-19.5 395,-0.5 349,-0.5"/>
<text text-anchor="middle" x="372" y="-7.5" font-family="Helvetica" font-size="10.00">chrono</text>
</a>
</g>
</g>
<!-- Node6&#45;&gt;Node7 -->
<g id="edge6" class="edge">
<title>Node6&#45;&gt;Node7</title>
<path fill="none" stroke="midnightblue" d="M394.89,-56.4C390.71,-48.11 385.39,-37.55 380.93,-28.71"/>
<polygon fill="midnightblue" stroke="midnightblue" points="383.99,-27.01 376.37,-19.66 377.74,-30.16 383.99,-27.01"/>
</g>
<!-- Node8 -->
<g id="node8" class="node">
<title>Node8</title>
<g id="a_node8"><a xlink:title=" ">
<polygon fill="white" stroke="#bfbfbf" points="413.5,-0.5 413.5,-19.5 448.5,-19.5 448.5,-0.5 413.5,-0.5"/>
<text text-anchor="middle" x="431" y="-7.5" font-family="Helvetica" font-size="10.00">map</text>
</a>
</g>
</g>
<!-- Node6&#45;&gt;Node8 -->
<g id="edge7" class="edge">
<title>Node6&#45;&gt;Node8</title>
<path fill="none" stroke="midnightblue" d="M408.87,-56.4C412.91,-48.11 418.06,-37.55 422.37,-28.71"/>
<polygon fill="midnightblue" stroke="midnightblue" points="425.55,-30.18 426.78,-19.66 419.25,-27.11 425.55,-30.18"/>
</g>
</g>
</svg>
