<?xml version="1.0" encoding="UTF-8" standalone="no"?>
<!DOCTYPE svg PUBLIC "-//W3C//DTD SVG 1.1//EN"
 "http://www.w3.org/Graphics/SVG/1.1/DTD/svg11.dtd">
<!-- Generated by graphviz version 2.44.0 (0)
 -->
<!-- Title: /home/ec2&#45;user/workspace/vsomeip/implementation/configuration/include/internal_android.hpp Pages: 1 -->
<svg width="536pt" height="184pt"
 viewBox="0.00 0.00 535.50 184.00" xmlns="http://www.w3.org/2000/svg" xmlns:xlink="http://www.w3.org/1999/xlink">
<g id="graph0" class="graph" transform="scale(1 1) rotate(0) translate(4 180)">
<title>/home/ec2&#45;user/workspace/vsomeip/implementation/configuration/include/internal_android.hpp</title>
<polygon fill="white" stroke="transparent" points="-4,4 -4,-180 531.5,-180 531.5,4 -4,4"/>
<!-- Node1 -->
<g id="node1" class="node">
<title>Node1</title>
<g id="a_node1"><a xlink:title=" ">
<polygon fill="#bfbfbf" stroke="black" points="134.5,-123.5 134.5,-175.5 277.5,-175.5 277.5,-123.5 134.5,-123.5"/>
<text text-anchor="start" x="142.5" y="-163.5" font-family="Helvetica" font-size="10.00">/home/ec2&#45;user/workspace</text>
<text text-anchor="start" x="142.5" y="-152.5" font-family="Helvetica" font-size="10.00">/vsomeip/implementation</text>
<text text-anchor="start" x="142.5" y="-141.5" font-family="Helvetica" font-size="10.00">/configuration/include/internal</text>
<text text-anchor="middle" x="206" y="-130.5" font-family="Helvetica" font-size="10.00">_android.hpp</text>
</a>
</g>
</g>
<!-- Node2 -->
<g id="node2" class="node">
<title>Node2</title>
<g id="a_node2"><a xlink:title=" ">
<polygon fill="white" stroke="#bfbfbf" points="0,-62 0,-81 46,-81 46,-62 0,-62"/>
<text text-anchor="middle" x="23" y="-69" font-family="Helvetica" font-size="10.00">cstdint</text>
</a>
</g>
</g>
<!-- Node1&#45;&gt;Node2 -->
<g id="edge1" class="edge">
<title>Node1&#45;&gt;Node2</title>
<path fill="none" stroke="midnightblue" d="M142.96,-123.46C115.8,-112.5 83.73,-99.36 55,-87 53.63,-86.41 52.24,-85.81 50.83,-85.19"/>
<polygon fill="midnightblue" stroke="midnightblue" points="52.12,-81.93 41.56,-81.06 49.27,-88.32 52.12,-81.93"/>
</g>
<!-- Node3 -->
<g id="node3" class="node">
<title>Node3</title>
<g id="a_node3"><a xlink:title=" ">
<polygon fill="white" stroke="#bfbfbf" points="64,-62 64,-81 104,-81 104,-62 64,-62"/>
<text text-anchor="middle" x="84" y="-69" font-family="Helvetica" font-size="10.00">limits</text>
</a>
</g>
</g>
<!-- Node1&#45;&gt;Node3 -->
<g id="edge2" class="edge">
<title>Node1&#45;&gt;Node3</title>
<path fill="none" stroke="midnightblue" d="M165.71,-123.4C146.1,-111.19 123.25,-96.95 106.71,-86.65"/>
<polygon fill="midnightblue" stroke="midnightblue" points="108.11,-83.39 97.77,-81.08 104.41,-89.34 108.11,-83.39"/>
</g>
<!-- Node4 -->
<g id="node4" class="node">
<title>Node4</title>
<g id="a_node4"><a xlink:title=" ">
<polygon fill="white" stroke="#bfbfbf" points="122.5,-62 122.5,-81 175.5,-81 175.5,-62 122.5,-62"/>
<text text-anchor="middle" x="149" y="-69" font-family="Helvetica" font-size="10.00">memory</text>
</a>
</g>
</g>
<!-- Node1&#45;&gt;Node4 -->
<g id="edge3" class="edge">
<title>Node1&#45;&gt;Node4</title>
<path fill="none" stroke="midnightblue" d="M187.02,-123.19C178.69,-112.08 169.13,-99.34 161.68,-89.41"/>
<polygon fill="midnightblue" stroke="midnightblue" points="164.33,-87.11 155.53,-81.21 158.73,-91.31 164.33,-87.11"/>
</g>
<!-- Node5 -->
<g id="node5" class="node">
<title>Node5</title>
<g id="a_node5"><a xlink:title=" ">
<polygon fill="white" stroke="#bfbfbf" points="194,-62 194,-81 334,-81 334,-62 194,-62"/>
<text text-anchor="middle" x="264" y="-69" font-family="Helvetica" font-size="10.00">vsomeip/primitive_types.hpp</text>
</a>
</g>
</g>
<!-- Node1&#45;&gt;Node5 -->
<g id="edge4" class="edge">
<title>Node1&#45;&gt;Node5</title>
<path fill="none" stroke="midnightblue" d="M225.31,-123.19C233.79,-112.08 243.52,-99.34 251.09,-89.41"/>
<polygon fill="midnightblue" stroke="midnightblue" points="254.07,-91.28 257.35,-81.21 248.5,-87.04 254.07,-91.28"/>
</g>
<!-- Node6 -->
<g id="node6" class="node">
<title>Node6</title>
<g id="a_node6"><a xlink:href="structured__types_8hpp.html" target="_top" xlink:title=" ">
<polygon fill="white" stroke="black" points="352,-56.5 352,-86.5 452,-86.5 452,-56.5 352,-56.5"/>
<text text-anchor="start" x="360" y="-74.5" font-family="Helvetica" font-size="10.00">vsomeip/structured</text>
<text text-anchor="middle" x="402" y="-63.5" font-family="Helvetica" font-size="10.00">_types.hpp</text>
</a>
</g>
</g>
<!-- Node1&#45;&gt;Node6 -->
<g id="edge5" class="edge">
<title>Node1&#45;&gt;Node6</title>
<path fill="none" stroke="midnightblue" d="M270.72,-123.4C298.7,-112.55 330.79,-100.11 356.24,-90.24"/>
<polygon fill="midnightblue" stroke="midnightblue" points="357.59,-93.48 365.64,-86.6 355.06,-86.95 357.59,-93.48"/>
</g>
<!-- Node9 -->
<g id="node9" class="node">
<title>Node9</title>
<g id="a_node9"><a xlink:title=" ">
<polygon fill="white" stroke="#bfbfbf" points="470.5,-62 470.5,-81 527.5,-81 527.5,-62 470.5,-62"/>
<text text-anchor="middle" x="499" y="-69" font-family="Helvetica" font-size="10.00">pthread.h</text>
</a>
</g>
</g>
<!-- Node1&#45;&gt;Node9 -->
<g id="edge8" class="edge">
<title>Node1&#45;&gt;Node9</title>
<path fill="none" stroke="midnightblue" d="M277.56,-133.81C329.04,-122.62 399.89,-105.94 461,-87 463.42,-86.25 465.91,-85.43 468.4,-84.56"/>
<polygon fill="midnightblue" stroke="midnightblue" points="469.67,-87.82 477.86,-81.11 467.27,-81.25 469.67,-87.82"/>
</g>
<!-- Node7 -->
<g id="node7" class="node">
<title>Node7</title>
<g id="a_node7"><a xlink:title=" ">
<polygon fill="white" stroke="#bfbfbf" points="349,-0.5 349,-19.5 395,-19.5 395,-0.5 349,-0.5"/>
<text text-anchor="middle" x="372" y="-7.5" font-family="Helvetica" font-size="10.00">chrono</text>
</a>
</g>
</g>
<!-- Node6&#45;&gt;Node7 -->
<g id="edge6" class="edge">
<title>Node6&#45;&gt;Node7</title>
<path fill="none" stroke="midnightblue" d="M394.89,-56.4C390.71,-48.11 385.39,-37.55 380.93,-28.71"/>
<polygon fill="midnightblue" stroke="midnightblue" points="383.99,-27.01 376.37,-19.66 377.74,-30.16 383.99,-27.01"/>
</g>
<!-- Node8 -->
<g id="node8" class="node">
<title>Node8</title>
<g id="a_node8"><a xlink:title=" ">
<polygon fill="white" stroke="#bfbfbf" points="413.5,-0.5 413.5,-19.5 448.5,-19.5 448.5,-0.5 413.5,-0.5"/>
<text text-anchor="middle" x="431" y="-7.5" font-family="Helvetica" font-size="10.00">map</text>
</a>
</g>
</g>
<!-- Node6&#45;&gt;Node8 -->
<g id="edge7" class="edge">
<title>Node6&#45;&gt;Node8</title>
<path fill="none" stroke="midnightblue" d="M408.87,-56.4C412.91,-48.11 418.06,-37.55 422.37,-28.71"/>
<polygon fill="midnightblue" stroke="midnightblue" points="425.55,-30.18 426.78,-19.66 419.25,-27.11 425.55,-30.18"/>
</g>
</g>
</svg>
