<?xml version="1.0" encoding="UTF-8" standalone="no"?>
<!DOCTYPE svg PUBLIC "-//W3C//DTD SVG 1.1//EN"
 "http://www.w3.org/Graphics/SVG/1.1/DTD/svg11.dtd">
<!-- Generated by graphviz version 2.44.0 (0)
 -->
<!-- Title: /home/ec2&#45;user/workspace/vsomeip/implementation/service_discovery/src/ip_option_impl.cpp Pages: 1 -->
<svg width="1064pt" height="307pt"
 viewBox="0.00 0.00 1064.00 307.00" xmlns="http://www.w3.org/2000/svg" xmlns:xlink="http://www.w3.org/1999/xlink">
<g id="graph0" class="graph" transform="scale(1 1) rotate(0) translate(4 303)">
<title>/home/ec2&#45;user/workspace/vsomeip/implementation/service_discovery/src/ip_option_impl.cpp</title>
<polygon fill="white" stroke="transparent" points="-4,4 -4,-303 1060,-303 1060,4 -4,4"/>
<!-- Node1 -->
<g id="node1" class="node">
<title>Node1</title>
<g id="a_node1"><a xlink:title=" ">
<polygon fill="#bfbfbf" stroke="black" points="363,-246.5 363,-298.5 497,-298.5 497,-246.5 363,-246.5"/>
<text text-anchor="start" x="371" y="-286.5" font-family="Helvetica" font-size="10.00">/home/ec2&#45;user/workspace</text>
<text text-anchor="start" x="371" y="-275.5" font-family="Helvetica" font-size="10.00">/vsomeip/implementation</text>
<text text-anchor="start" x="371" y="-264.5" font-family="Helvetica" font-size="10.00">/service_discovery/src/ip</text>
<text text-anchor="middle" x="430" y="-253.5" font-family="Helvetica" font-size="10.00">_option_impl.cpp</text>
</a>
</g>
</g>
<!-- Node2 -->
<g id="node2" class="node">
<title>Node2</title>
<g id="a_node2"><a xlink:title=" ">
<polygon fill="white" stroke="#bfbfbf" points="51,-185 51,-204 169,-204 169,-185 51,-185"/>
<text text-anchor="middle" x="110" y="-192" font-family="Helvetica" font-size="10.00">vsomeip/constants.hpp</text>
</a>
</g>
</g>
<!-- Node1&#45;&gt;Node2 -->
<g id="edge1" class="edge">
<title>Node1&#45;&gt;Node2</title>
<path fill="none" stroke="midnightblue" d="M362.92,-255.57C300.94,-240.85 210.48,-219.36 156.22,-206.48"/>
<polygon fill="midnightblue" stroke="midnightblue" points="156.73,-203 146.19,-204.1 155.11,-209.81 156.73,-203"/>
</g>
<!-- Node3 -->
<g id="node3" class="node">
<title>Node3</title>
<g id="a_node3"><a xlink:href="logger_8hpp.html" target="_top" xlink:title=" ">
<polygon fill="white" stroke="black" points="759,-185 759,-204 895,-204 895,-185 759,-185"/>
<text text-anchor="middle" x="827" y="-192" font-family="Helvetica" font-size="10.00">vsomeip/internal/logger.hpp</text>
</a>
</g>
</g>
<!-- Node1&#45;&gt;Node3 -->
<g id="edge2" class="edge">
<title>Node1&#45;&gt;Node3</title>
<path fill="none" stroke="midnightblue" d="M497.35,-258.61C574.83,-243.77 700.59,-219.7 772.3,-205.97"/>
<polygon fill="midnightblue" stroke="midnightblue" points="773.31,-209.34 782.48,-204.02 772,-202.47 773.31,-209.34"/>
</g>
<!-- Node11 -->
<g id="node11" class="node">
<title>Node11</title>
<g id="a_node11"><a xlink:href="implementation_2service__discovery_2include_2constants_8hpp.html" target="_top" xlink:title=" ">
<polygon fill="white" stroke="black" points="303.5,-185 303.5,-204 424.5,-204 424.5,-185 303.5,-185"/>
<text text-anchor="middle" x="364" y="-192" font-family="Helvetica" font-size="10.00">../include/constants.hpp</text>
</a>
</g>
</g>
<!-- Node1&#45;&gt;Node11 -->
<g id="edge10" class="edge">
<title>Node1&#45;&gt;Node11</title>
<path fill="none" stroke="midnightblue" d="M408.02,-246.19C398.18,-234.86 386.86,-221.82 378.16,-211.81"/>
<polygon fill="midnightblue" stroke="midnightblue" points="380.76,-209.46 371.56,-204.21 375.48,-214.05 380.76,-209.46"/>
</g>
<!-- Node14 -->
<g id="node14" class="node">
<title>Node14</title>
<g id="a_node14"><a xlink:href="ip__option__impl_8hpp.html" target="_top" xlink:title=" ">
<polygon fill="white" stroke="black" points="187,-179.5 187,-209.5 285,-209.5 285,-179.5 187,-179.5"/>
<text text-anchor="start" x="195" y="-197.5" font-family="Helvetica" font-size="10.00">../include/ip_option</text>
<text text-anchor="middle" x="236" y="-186.5" font-family="Helvetica" font-size="10.00">_impl.hpp</text>
</a>
</g>
</g>
<!-- Node1&#45;&gt;Node14 -->
<g id="edge13" class="edge">
<title>Node1&#45;&gt;Node14</title>
<path fill="none" stroke="midnightblue" d="M365.94,-246.4C338.37,-235.6 306.76,-223.22 281.63,-213.37"/>
<polygon fill="midnightblue" stroke="midnightblue" points="282.57,-209.99 271.98,-209.6 280.02,-216.5 282.57,-209.99"/>
</g>
<!-- Node19 -->
<g id="node19" class="node">
<title>Node19</title>
<g id="a_node19"><a xlink:href="message_2include_2deserializer_8hpp.html" target="_top" xlink:title=" ">
<polygon fill="white" stroke="black" points="443,-179.5 443,-209.5 551,-209.5 551,-179.5 443,-179.5"/>
<text text-anchor="start" x="451" y="-197.5" font-family="Helvetica" font-size="10.00">../../message/include</text>
<text text-anchor="middle" x="497" y="-186.5" font-family="Helvetica" font-size="10.00">/deserializer.hpp</text>
</a>
</g>
</g>
<!-- Node1&#45;&gt;Node19 -->
<g id="edge21" class="edge">
<title>Node1&#45;&gt;Node19</title>
<path fill="none" stroke="midnightblue" d="M452.31,-246.19C460.47,-236.94 469.63,-226.54 477.53,-217.59"/>
<polygon fill="midnightblue" stroke="midnightblue" points="480.37,-219.66 484.35,-209.85 475.12,-215.03 480.37,-219.66"/>
</g>
<!-- Node21 -->
<g id="node21" class="node">
<title>Node21</title>
<g id="a_node21"><a xlink:href="serializer_8hpp.html" target="_top" xlink:title=" ">
<polygon fill="white" stroke="black" points="569,-179.5 569,-209.5 677,-209.5 677,-179.5 569,-179.5"/>
<text text-anchor="start" x="577" y="-197.5" font-family="Helvetica" font-size="10.00">../../message/include</text>
<text text-anchor="middle" x="623" y="-186.5" font-family="Helvetica" font-size="10.00">/serializer.hpp</text>
</a>
</g>
</g>
<!-- Node1&#45;&gt;Node21 -->
<g id="edge25" class="edge">
<title>Node1&#45;&gt;Node21</title>
<path fill="none" stroke="midnightblue" d="M493.73,-246.4C521.16,-235.6 552.6,-223.22 577.61,-213.37"/>
<polygon fill="midnightblue" stroke="midnightblue" points="579.18,-216.52 587.2,-209.6 576.61,-210 579.18,-216.52"/>
</g>
<!-- Node4 -->
<g id="node4" class="node">
<title>Node4</title>
<g id="a_node4"><a xlink:title=" ">
<polygon fill="white" stroke="#bfbfbf" points="840,-118 840,-137 886,-137 886,-118 840,-118"/>
<text text-anchor="middle" x="863" y="-125" font-family="Helvetica" font-size="10.00">chrono</text>
</a>
</g>
</g>
<!-- Node3&#45;&gt;Node4 -->
<g id="edge3" class="edge">
<title>Node3&#45;&gt;Node4</title>
<path fill="none" stroke="midnightblue" d="M831.86,-184.73C837.31,-174.89 846.3,-158.66 853.22,-146.16"/>
<polygon fill="midnightblue" stroke="midnightblue" points="856.44,-147.57 858.22,-137.13 850.31,-144.18 856.44,-147.57"/>
</g>
<!-- Node5 -->
<g id="node5" class="node">
<title>Node5</title>
<g id="a_node5"><a xlink:title=" ">
<polygon fill="white" stroke="#bfbfbf" points="351,-0.5 351,-19.5 397,-19.5 397,-0.5 351,-0.5"/>
<text text-anchor="middle" x="374" y="-7.5" font-family="Helvetica" font-size="10.00">cstdint</text>
</a>
</g>
</g>
<!-- Node3&#45;&gt;Node5 -->
<g id="edge4" class="edge">
<title>Node3&#45;&gt;Node5</title>
<path fill="none" stroke="midnightblue" d="M843.51,-184.96C870.04,-170.15 917.04,-138.73 895,-112 832.44,-36.15 512.09,-16.57 407.25,-12.16"/>
<polygon fill="midnightblue" stroke="midnightblue" points="407.37,-8.66 397.23,-11.76 407.08,-15.65 407.37,-8.66"/>
</g>
<!-- Node6 -->
<g id="node6" class="node">
<title>Node6</title>
<g id="a_node6"><a xlink:title=" ">
<polygon fill="white" stroke="#bfbfbf" points="942,-118 942,-137 986,-137 986,-118 942,-118"/>
<text text-anchor="middle" x="964" y="-125" font-family="Helvetica" font-size="10.00">mutex</text>
</a>
</g>
</g>
<!-- Node3&#45;&gt;Node6 -->
<g id="edge5" class="edge">
<title>Node3&#45;&gt;Node6</title>
<path fill="none" stroke="midnightblue" d="M845.19,-184.87C868.53,-173.8 909.23,-154.49 936.39,-141.6"/>
<polygon fill="midnightblue" stroke="midnightblue" points="938.2,-144.62 945.73,-137.17 935.2,-138.29 938.2,-144.62"/>
</g>
<!-- Node7 -->
<g id="node7" class="node">
<title>Node7</title>
<g id="a_node7"><a xlink:title=" ">
<polygon fill="white" stroke="#bfbfbf" points="1004,-118 1004,-137 1056,-137 1056,-118 1004,-118"/>
<text text-anchor="middle" x="1030" y="-125" font-family="Helvetica" font-size="10.00">ostream</text>
</a>
</g>
</g>
<!-- Node3&#45;&gt;Node7 -->
<g id="edge6" class="edge">
<title>Node3&#45;&gt;Node7</title>
<path fill="none" stroke="midnightblue" d="M858.89,-184.95C892.92,-175.58 948.24,-159.67 995,-143 996.86,-142.34 998.76,-141.63 1000.67,-140.9"/>
<polygon fill="midnightblue" stroke="midnightblue" points="1002.15,-144.08 1010.15,-137.13 999.56,-137.58 1002.15,-144.08"/>
</g>
<!-- Node8 -->
<g id="node8" class="node">
<title>Node8</title>
<g id="a_node8"><a xlink:title=" ">
<polygon fill="white" stroke="#bfbfbf" points="692,-118 692,-137 744,-137 744,-118 692,-118"/>
<text text-anchor="middle" x="718" y="-125" font-family="Helvetica" font-size="10.00">sstream</text>
</a>
</g>
</g>
<!-- Node3&#45;&gt;Node8 -->
<g id="edge7" class="edge">
<title>Node3&#45;&gt;Node8</title>
<path fill="none" stroke="midnightblue" d="M812.3,-184.73C794.08,-173.87 762.8,-155.22 741.3,-142.39"/>
<polygon fill="midnightblue" stroke="midnightblue" points="742.85,-139.24 732.47,-137.13 739.26,-145.26 742.85,-139.24"/>
</g>
<!-- Node9 -->
<g id="node9" class="node">
<title>Node9</title>
<g id="a_node9"><a xlink:title=" ">
<polygon fill="white" stroke="#bfbfbf" points="762,-118 762,-137 822,-137 822,-118 762,-118"/>
<text text-anchor="middle" x="792" y="-125" font-family="Helvetica" font-size="10.00">streambuf</text>
</a>
</g>
</g>
<!-- Node3&#45;&gt;Node9 -->
<g id="edge8" class="edge">
<title>Node3&#45;&gt;Node9</title>
<path fill="none" stroke="midnightblue" d="M822.28,-184.73C816.98,-174.89 808.24,-158.66 801.51,-146.16"/>
<polygon fill="midnightblue" stroke="midnightblue" points="804.47,-144.27 796.65,-137.13 798.3,-147.59 804.47,-144.27"/>
</g>
<!-- Node10 -->
<g id="node10" class="node">
<title>Node10</title>
<g id="a_node10"><a xlink:title=" ">
<polygon fill="white" stroke="#bfbfbf" points="572,-118 572,-137 674,-137 674,-118 572,-118"/>
<text text-anchor="middle" x="623" y="-125" font-family="Helvetica" font-size="10.00">vsomeip/export.hpp</text>
</a>
</g>
</g>
<!-- Node3&#45;&gt;Node10 -->
<g id="edge9" class="edge">
<title>Node3&#45;&gt;Node10</title>
<path fill="none" stroke="midnightblue" d="M799.91,-184.87C763.84,-173.38 699.92,-153.01 659.59,-140.16"/>
<polygon fill="midnightblue" stroke="midnightblue" points="660.47,-136.76 649.88,-137.06 658.34,-143.43 660.47,-136.76"/>
</g>
<!-- Node12 -->
<g id="node12" class="node">
<title>Node12</title>
<g id="a_node12"><a xlink:title=" ">
<polygon fill="white" stroke="#bfbfbf" points="224,-112.5 224,-142.5 334,-142.5 334,-112.5 224,-112.5"/>
<text text-anchor="start" x="232" y="-130.5" font-family="Helvetica" font-size="10.00">vsomeip/enumeration</text>
<text text-anchor="middle" x="279" y="-119.5" font-family="Helvetica" font-size="10.00">_types.hpp</text>
</a>
</g>
</g>
<!-- Node11&#45;&gt;Node12 -->
<g id="edge11" class="edge">
<title>Node11&#45;&gt;Node12</title>
<path fill="none" stroke="midnightblue" d="M352.54,-184.73C340.61,-175.61 321.5,-161 305.76,-148.96"/>
<polygon fill="midnightblue" stroke="midnightblue" points="307.49,-145.88 297.42,-142.59 303.24,-151.44 307.49,-145.88"/>
</g>
<!-- Node13 -->
<g id="node13" class="node">
<title>Node13</title>
<g id="a_node13"><a xlink:title=" ">
<polygon fill="white" stroke="#bfbfbf" points="352,-118 352,-137 492,-137 492,-118 352,-118"/>
<text text-anchor="middle" x="422" y="-125" font-family="Helvetica" font-size="10.00">vsomeip/primitive_types.hpp</text>
</a>
</g>
</g>
<!-- Node11&#45;&gt;Node13 -->
<g id="edge12" class="edge">
<title>Node11&#45;&gt;Node13</title>
<path fill="none" stroke="midnightblue" d="M371.82,-184.73C380.95,-174.5 396.24,-157.36 407.55,-144.69"/>
<polygon fill="midnightblue" stroke="midnightblue" points="410.26,-146.92 414.3,-137.13 405.03,-142.26 410.26,-146.92"/>
</g>
<!-- Node14&#45;&gt;Node13 -->
<g id="edge14" class="edge">
<title>Node14&#45;&gt;Node13</title>
<path fill="none" stroke="midnightblue" d="M276.36,-179.4C309.72,-167.74 356.55,-151.37 388.02,-140.38"/>
<polygon fill="midnightblue" stroke="midnightblue" points="389.37,-143.61 397.66,-137.01 387.06,-137 389.37,-143.61"/>
</g>
<!-- Node15 -->
<g id="node15" class="node">
<title>Node15</title>
<g id="a_node15"><a xlink:href="option__impl_8hpp.html" target="_top" xlink:title=" ">
<polygon fill="white" stroke="black" points="120.5,-118 120.5,-137 205.5,-137 205.5,-118 120.5,-118"/>
<text text-anchor="middle" x="163" y="-125" font-family="Helvetica" font-size="10.00">option_impl.hpp</text>
</a>
</g>
</g>
<!-- Node14&#45;&gt;Node15 -->
<g id="edge15" class="edge">
<title>Node14&#45;&gt;Node15</title>
<path fill="none" stroke="midnightblue" d="M220.16,-179.4C208.44,-168.96 192.48,-154.75 180.41,-144"/>
<polygon fill="midnightblue" stroke="midnightblue" points="182.56,-141.23 172.76,-137.19 177.91,-146.46 182.56,-141.23"/>
</g>
<!-- Node15&#45;&gt;Node5 -->
<g id="edge16" class="edge">
<title>Node15&#45;&gt;Node5</title>
<path fill="none" stroke="midnightblue" d="M193.22,-117.96C200.35,-115.98 207.94,-113.89 215,-112 277.06,-95.37 308.83,-120.68 355,-76 367.4,-64 371.83,-44.4 373.35,-29.85"/>
<polygon fill="midnightblue" stroke="midnightblue" points="376.86,-29.72 374.04,-19.51 369.88,-29.25 376.86,-29.72"/>
</g>
<!-- Node16 -->
<g id="node16" class="node">
<title>Node16</title>
<g id="a_node16"><a xlink:title=" ">
<polygon fill="white" stroke="#bfbfbf" points="136.5,-56.5 136.5,-75.5 189.5,-75.5 189.5,-56.5 136.5,-56.5"/>
<text text-anchor="middle" x="163" y="-63.5" font-family="Helvetica" font-size="10.00">memory</text>
</a>
</g>
</g>
<!-- Node15&#45;&gt;Node16 -->
<g id="edge17" class="edge">
<title>Node15&#45;&gt;Node16</title>
<path fill="none" stroke="midnightblue" d="M163,-117.98C163,-109.58 163,-96.48 163,-85.66"/>
<polygon fill="midnightblue" stroke="midnightblue" points="166.5,-85.51 163,-75.51 159.5,-85.51 166.5,-85.51"/>
</g>
<!-- Node17 -->
<g id="node17" class="node">
<title>Node17</title>
<g id="a_node17"><a xlink:href="implementation_2service__discovery_2include_2enumeration__types_8hpp.html" target="_top" xlink:title=" ">
<polygon fill="white" stroke="black" points="0,-56.5 0,-75.5 118,-75.5 118,-56.5 0,-56.5"/>
<text text-anchor="middle" x="59" y="-63.5" font-family="Helvetica" font-size="10.00">enumeration_types.hpp</text>
</a>
</g>
</g>
<!-- Node15&#45;&gt;Node17 -->
<g id="edge18" class="edge">
<title>Node15&#45;&gt;Node17</title>
<path fill="none" stroke="midnightblue" d="M148.1,-117.98C131.03,-108.21 102.84,-92.08 82.74,-80.58"/>
<polygon fill="midnightblue" stroke="midnightblue" points="84.29,-77.44 73.87,-75.51 80.81,-83.51 84.29,-77.44"/>
</g>
<!-- Node18 -->
<g id="node18" class="node">
<title>Node18</title>
<g id="a_node18"><a xlink:href="message__element__impl_8hpp.html" target="_top" xlink:title=" ">
<polygon fill="white" stroke="black" points="208,-56.5 208,-75.5 346,-75.5 346,-56.5 208,-56.5"/>
<text text-anchor="middle" x="277" y="-63.5" font-family="Helvetica" font-size="10.00">message_element_impl.hpp</text>
</a>
</g>
</g>
<!-- Node15&#45;&gt;Node18 -->
<g id="edge20" class="edge">
<title>Node15&#45;&gt;Node18</title>
<path fill="none" stroke="midnightblue" d="M179.33,-117.98C198.21,-108.12 229.51,-91.79 251.58,-80.27"/>
<polygon fill="midnightblue" stroke="midnightblue" points="253.45,-83.24 260.7,-75.51 250.21,-77.03 253.45,-83.24"/>
</g>
<!-- Node17&#45;&gt;Node5 -->
<g id="edge19" class="edge">
<title>Node17&#45;&gt;Node5</title>
<path fill="none" stroke="midnightblue" d="M108.91,-56.44C173.78,-45.32 285.28,-26.21 340.7,-16.71"/>
<polygon fill="midnightblue" stroke="midnightblue" points="341.43,-20.13 350.7,-15 340.25,-13.24 341.43,-20.13"/>
</g>
<!-- Node19&#45;&gt;Node10 -->
<g id="edge23" class="edge">
<title>Node19&#45;&gt;Node10</title>
<path fill="none" stroke="midnightblue" d="M524.34,-179.4C546.06,-168.19 576.2,-152.64 597.44,-141.69"/>
<polygon fill="midnightblue" stroke="midnightblue" points="599.23,-144.7 606.51,-137.01 596.02,-138.48 599.23,-144.7"/>
</g>
<!-- Node19&#45;&gt;Node13 -->
<g id="edge24" class="edge">
<title>Node19&#45;&gt;Node13</title>
<path fill="none" stroke="midnightblue" d="M480.73,-179.4C468.68,-168.96 452.29,-154.75 439.88,-144"/>
<polygon fill="midnightblue" stroke="midnightblue" points="441.88,-141.1 432.03,-137.19 437.3,-146.39 441.88,-141.1"/>
</g>
<!-- Node20 -->
<g id="node20" class="node">
<title>Node20</title>
<g id="a_node20"><a xlink:title=" ">
<polygon fill="white" stroke="#bfbfbf" points="510.5,-118 510.5,-137 553.5,-137 553.5,-118 510.5,-118"/>
<text text-anchor="middle" x="532" y="-125" font-family="Helvetica" font-size="10.00">vector</text>
</a>
</g>
</g>
<!-- Node19&#45;&gt;Node20 -->
<g id="edge22" class="edge">
<title>Node19&#45;&gt;Node20</title>
<path fill="none" stroke="midnightblue" d="M504.59,-179.4C509.84,-169.66 516.84,-156.65 522.46,-146.21"/>
<polygon fill="midnightblue" stroke="midnightblue" points="525.66,-147.66 527.32,-137.19 519.5,-144.34 525.66,-147.66"/>
</g>
<!-- Node21&#45;&gt;Node10 -->
<g id="edge27" class="edge">
<title>Node21&#45;&gt;Node10</title>
<path fill="none" stroke="midnightblue" d="M623,-179.4C623,-170.06 623,-157.71 623,-147.52"/>
<polygon fill="midnightblue" stroke="midnightblue" points="626.5,-147.19 623,-137.19 619.5,-147.19 626.5,-147.19"/>
</g>
<!-- Node21&#45;&gt;Node13 -->
<g id="edge28" class="edge">
<title>Node21&#45;&gt;Node13</title>
<path fill="none" stroke="midnightblue" d="M579.39,-179.4C543.03,-167.64 491.85,-151.09 457.84,-140.09"/>
<polygon fill="midnightblue" stroke="midnightblue" points="458.9,-136.75 448.31,-137.01 456.74,-143.41 458.9,-136.75"/>
</g>
<!-- Node21&#45;&gt;Node20 -->
<g id="edge26" class="edge">
<title>Node21&#45;&gt;Node20</title>
<path fill="none" stroke="midnightblue" d="M603.25,-179.4C588.14,-168.6 567.36,-153.76 552.14,-142.89"/>
<polygon fill="midnightblue" stroke="midnightblue" points="554.08,-139.97 543.91,-137.01 550.01,-145.67 554.08,-139.97"/>
</g>
</g>
</svg>
