<?xml version="1.0" encoding="UTF-8" standalone="no"?>
<!DOCTYPE svg PUBLIC "-//W3C//DTD SVG 1.1//EN"
 "http://www.w3.org/Graphics/SVG/1.1/DTD/svg11.dtd">
<!-- Generated by graphviz version 2.44.0 (0)
 -->
<!-- Title: /home/ec2&#45;user/workspace/vsomeip/implementation/service_discovery/include/ip_option_impl.hpp Pages: 1 -->
<svg width="476pt" height="229pt"
 viewBox="0.00 0.00 476.00 229.00" xmlns="http://www.w3.org/2000/svg" xmlns:xlink="http://www.w3.org/1999/xlink">
<g id="graph0" class="graph" transform="scale(1 1) rotate(0) translate(4 225)">
<title>/home/ec2&#45;user/workspace/vsomeip/implementation/service_discovery/include/ip_option_impl.hpp</title>
<polygon fill="white" stroke="transparent" points="-4,4 -4,-225 472,-225 472,4 -4,4"/>
<!-- Node1 -->
<g id="node1" class="node">
<title>Node1</title>
<g id="a_node1"><a xlink:title=" ">
<polygon fill="#bfbfbf" stroke="black" points="68,-168.5 68,-220.5 202,-220.5 202,-168.5 68,-168.5"/>
<text text-anchor="start" x="76" y="-208.5" font-family="Helvetica" font-size="10.00">/home/ec2&#45;user/workspace</text>
<text text-anchor="start" x="76" y="-197.5" font-family="Helvetica" font-size="10.00">/vsomeip/implementation</text>
<text text-anchor="start" x="76" y="-186.5" font-family="Helvetica" font-size="10.00">/service_discovery/include</text>
<text text-anchor="middle" x="135" y="-175.5" font-family="Helvetica" font-size="10.00">/ip_option_impl.hpp</text>
</a>
</g>
</g>
<!-- Node2 -->
<g id="node2" class="node">
<title>Node2</title>
<g id="a_node2"><a xlink:title=" ">
<polygon fill="white" stroke="#bfbfbf" points="0,-112.5 0,-131.5 140,-131.5 140,-112.5 0,-112.5"/>
<text text-anchor="middle" x="70" y="-119.5" font-family="Helvetica" font-size="10.00">vsomeip/primitive_types.hpp</text>
</a>
</g>
</g>
<!-- Node1&#45;&gt;Node2 -->
<g id="edge1" class="edge">
<title>Node1&#45;&gt;Node2</title>
<path fill="none" stroke="midnightblue" d="M111.9,-168.45C102.94,-158.73 92.94,-147.88 84.95,-139.22"/>
<polygon fill="midnightblue" stroke="midnightblue" points="87.37,-136.68 78.02,-131.7 82.22,-141.42 87.37,-136.68"/>
</g>
<!-- Node3 -->
<g id="node3" class="node">
<title>Node3</title>
<g id="a_node3"><a xlink:href="option__impl_8hpp.html" target="_top" xlink:title=" ">
<polygon fill="white" stroke="black" points="158.5,-112.5 158.5,-131.5 243.5,-131.5 243.5,-112.5 158.5,-112.5"/>
<text text-anchor="middle" x="201" y="-119.5" font-family="Helvetica" font-size="10.00">option_impl.hpp</text>
</a>
</g>
</g>
<!-- Node1&#45;&gt;Node3 -->
<g id="edge2" class="edge">
<title>Node1&#45;&gt;Node3</title>
<path fill="none" stroke="midnightblue" d="M158.45,-168.45C167.55,-158.73 177.71,-147.88 185.82,-139.22"/>
<polygon fill="midnightblue" stroke="midnightblue" points="188.58,-141.39 192.86,-131.7 183.47,-136.6 188.58,-141.39"/>
</g>
<!-- Node4 -->
<g id="node4" class="node">
<title>Node4</title>
<g id="a_node4"><a xlink:title=" ">
<polygon fill="white" stroke="#bfbfbf" points="150,-0.5 150,-19.5 196,-19.5 196,-0.5 150,-0.5"/>
<text text-anchor="middle" x="173" y="-7.5" font-family="Helvetica" font-size="10.00">cstdint</text>
</a>
</g>
</g>
<!-- Node3&#45;&gt;Node4 -->
<g id="edge3" class="edge">
<title>Node3&#45;&gt;Node4</title>
<path fill="none" stroke="midnightblue" d="M165.15,-112.4C146.12,-105.81 124.37,-94.59 113,-76 100.73,-55.94 124.6,-36.62 145.77,-24.34"/>
<polygon fill="midnightblue" stroke="midnightblue" points="147.48,-27.39 154.57,-19.52 144.12,-21.25 147.48,-27.39"/>
</g>
<!-- Node5 -->
<g id="node5" class="node">
<title>Node5</title>
<g id="a_node5"><a xlink:title=" ">
<polygon fill="white" stroke="#bfbfbf" points="122.5,-56.5 122.5,-75.5 175.5,-75.5 175.5,-56.5 122.5,-56.5"/>
<text text-anchor="middle" x="149" y="-63.5" font-family="Helvetica" font-size="10.00">memory</text>
</a>
</g>
</g>
<!-- Node3&#45;&gt;Node5 -->
<g id="edge4" class="edge">
<title>Node3&#45;&gt;Node5</title>
<path fill="none" stroke="midnightblue" d="M192.41,-112.08C184.84,-104.22 173.62,-92.57 164.49,-83.08"/>
<polygon fill="midnightblue" stroke="midnightblue" points="166.88,-80.53 157.43,-75.75 161.84,-85.38 166.88,-80.53"/>
</g>
<!-- Node6 -->
<g id="node6" class="node">
<title>Node6</title>
<g id="a_node6"><a xlink:href="implementation_2service__discovery_2include_2enumeration__types_8hpp.html" target="_top" xlink:title=" ">
<polygon fill="white" stroke="black" points="194,-56.5 194,-75.5 312,-75.5 312,-56.5 194,-56.5"/>
<text text-anchor="middle" x="253" y="-63.5" font-family="Helvetica" font-size="10.00">enumeration_types.hpp</text>
</a>
</g>
</g>
<!-- Node3&#45;&gt;Node6 -->
<g id="edge5" class="edge">
<title>Node3&#45;&gt;Node6</title>
<path fill="none" stroke="midnightblue" d="M209.59,-112.08C217.16,-104.22 228.38,-92.57 237.51,-83.08"/>
<polygon fill="midnightblue" stroke="midnightblue" points="240.16,-85.38 244.57,-75.75 235.12,-80.53 240.16,-85.38"/>
</g>
<!-- Node7 -->
<g id="node7" class="node">
<title>Node7</title>
<g id="a_node7"><a xlink:href="message__element__impl_8hpp.html" target="_top" xlink:title=" ">
<polygon fill="white" stroke="black" points="330,-56.5 330,-75.5 468,-75.5 468,-56.5 330,-56.5"/>
<text text-anchor="middle" x="399" y="-63.5" font-family="Helvetica" font-size="10.00">message_element_impl.hpp</text>
</a>
</g>
</g>
<!-- Node3&#45;&gt;Node7 -->
<g id="edge7" class="edge">
<title>Node3&#45;&gt;Node7</title>
<path fill="none" stroke="midnightblue" d="M232.37,-112.44C266.26,-103.2 320.4,-88.44 357.72,-78.26"/>
<polygon fill="midnightblue" stroke="midnightblue" points="359.05,-81.52 367.77,-75.52 357.2,-74.77 359.05,-81.52"/>
</g>
<!-- Node6&#45;&gt;Node4 -->
<g id="edge6" class="edge">
<title>Node6&#45;&gt;Node4</title>
<path fill="none" stroke="midnightblue" d="M240.15,-56.32C227.78,-47.98 208.87,-35.21 194.26,-25.35"/>
<polygon fill="midnightblue" stroke="midnightblue" points="196.07,-22.35 185.82,-19.65 192.15,-28.15 196.07,-22.35"/>
</g>
</g>
</svg>
