<?xml version="1.0" encoding="UTF-8" standalone="no"?>
<!DOCTYPE svg PUBLIC "-//W3C//DTD SVG 1.1//EN"
 "http://www.w3.org/Graphics/SVG/1.1/DTD/svg11.dtd">
<!-- Generated by graphviz version 2.44.0 (0)
 -->
<!-- Title: /home/ec2&#45;user/workspace/vsomeip/implementation/service_discovery/include/ip_option_impl.hpp Pages: 1 -->
<svg width="955pt" height="328pt"
 viewBox="0.00 0.00 955.27 328.00" xmlns="http://www.w3.org/2000/svg" xmlns:xlink="http://www.w3.org/1999/xlink">
<g id="graph0" class="graph" transform="scale(1 1) rotate(0) translate(4 324)">
<title>/home/ec2&#45;user/workspace/vsomeip/implementation/service_discovery/include/ip_option_impl.hpp</title>
<polygon fill="white" stroke="transparent" points="-4,4 -4,-324 951.27,-324 951.27,4 -4,4"/>
<!-- Node1 -->
<g id="node1" class="node">
<title>Node1</title>
<g id="a_node1"><a xlink:title=" ">
<polygon fill="#bfbfbf" stroke="black" points="329.5,-267.5 329.5,-319.5 463.5,-319.5 463.5,-267.5 329.5,-267.5"/>
<text text-anchor="start" x="337.5" y="-307.5" font-family="Helvetica" font-size="10.00">/home/ec2&#45;user/workspace</text>
<text text-anchor="start" x="337.5" y="-296.5" font-family="Helvetica" font-size="10.00">/vsomeip/implementation</text>
<text text-anchor="start" x="337.5" y="-285.5" font-family="Helvetica" font-size="10.00">/service_discovery/include</text>
<text text-anchor="middle" x="396.5" y="-274.5" font-family="Helvetica" font-size="10.00">/ip_option_impl.hpp</text>
</a>
</g>
</g>
<!-- Node2 -->
<g id="node2" class="node">
<title>Node2</title>
<g id="a_node2"><a xlink:href="ipv4__option__impl_8hpp.html" target="_top" xlink:title=" ">
<polygon fill="white" stroke="black" points="405.5,-178.5 405.5,-230.5 539.5,-230.5 539.5,-178.5 405.5,-178.5"/>
<text text-anchor="start" x="413.5" y="-218.5" font-family="Helvetica" font-size="10.00">/home/ec2&#45;user/workspace</text>
<text text-anchor="start" x="413.5" y="-207.5" font-family="Helvetica" font-size="10.00">/vsomeip/implementation</text>
<text text-anchor="start" x="413.5" y="-196.5" font-family="Helvetica" font-size="10.00">/service_discovery/include</text>
<text text-anchor="middle" x="472.5" y="-185.5" font-family="Helvetica" font-size="10.00">/ipv4_option_impl.hpp</text>
</a>
</g>
</g>
<!-- Node1&#45;&gt;Node2 -->
<g id="edge1" class="edge">
<title>Node1&#45;&gt;Node2</title>
<path fill="none" stroke="midnightblue" d="M425.07,-259.79C433.51,-250.13 442.62,-239.71 450.57,-230.61"/>
<polygon fill="midnightblue" stroke="midnightblue" points="422.43,-257.5 418.48,-267.34 427.7,-262.11 422.43,-257.5"/>
</g>
<!-- Node3 -->
<g id="node3" class="node">
<title>Node3</title>
<g id="a_node3"><a xlink:href="service__discovery__impl_8hpp.html" target="_top" xlink:title=" ">
<polygon fill="white" stroke="black" points="40,-89.5 40,-141.5 181,-141.5 181,-89.5 40,-89.5"/>
<text text-anchor="start" x="48" y="-129.5" font-family="Helvetica" font-size="10.00">/home/ec2&#45;user/workspace</text>
<text text-anchor="start" x="48" y="-118.5" font-family="Helvetica" font-size="10.00">/vsomeip/implementation</text>
<text text-anchor="start" x="48" y="-107.5" font-family="Helvetica" font-size="10.00">/service_discovery/include</text>
<text text-anchor="middle" x="110.5" y="-96.5" font-family="Helvetica" font-size="10.00">/service_discovery_impl.hpp</text>
</a>
</g>
</g>
<!-- Node1&#45;&gt;Node3 -->
<g id="edge15" class="edge">
<title>Node1&#45;&gt;Node3</title>
<path fill="none" stroke="midnightblue" d="M319.93,-269.28C292.87,-259.44 262.87,-246.6 237.5,-231 196.79,-205.96 157.05,-167.13 133.17,-141.76"/>
<polygon fill="midnightblue" stroke="midnightblue" points="318.77,-272.58 329.37,-272.63 321.11,-265.99 318.77,-272.58"/>
</g>
<!-- Node9 -->
<g id="node9" class="node">
<title>Node9</title>
<g id="a_node9"><a xlink:href="ipv6__option__impl_8hpp.html" target="_top" xlink:title=" ">
<polygon fill="white" stroke="black" points="246.5,-178.5 246.5,-230.5 380.5,-230.5 380.5,-178.5 246.5,-178.5"/>
<text text-anchor="start" x="254.5" y="-218.5" font-family="Helvetica" font-size="10.00">/home/ec2&#45;user/workspace</text>
<text text-anchor="start" x="254.5" y="-207.5" font-family="Helvetica" font-size="10.00">/vsomeip/implementation</text>
<text text-anchor="start" x="254.5" y="-196.5" font-family="Helvetica" font-size="10.00">/service_discovery/include</text>
<text text-anchor="middle" x="313.5" y="-185.5" font-family="Helvetica" font-size="10.00">/ipv6_option_impl.hpp</text>
</a>
</g>
</g>
<!-- Node1&#45;&gt;Node9 -->
<g id="edge9" class="edge">
<title>Node1&#45;&gt;Node9</title>
<path fill="none" stroke="midnightblue" d="M365.57,-260.08C356.27,-250.34 346.22,-239.8 337.45,-230.61"/>
<polygon fill="midnightblue" stroke="midnightblue" points="363.06,-262.52 372.49,-267.34 368.12,-257.68 363.06,-262.52"/>
</g>
<!-- Node11 -->
<g id="node11" class="node">
<title>Node11</title>
<g id="a_node11"><a xlink:href="ip__option__impl_8cpp.html" target="_top" xlink:title=" ">
<polygon fill="white" stroke="black" points="557.5,-178.5 557.5,-230.5 691.5,-230.5 691.5,-178.5 557.5,-178.5"/>
<text text-anchor="start" x="565.5" y="-218.5" font-family="Helvetica" font-size="10.00">/home/ec2&#45;user/workspace</text>
<text text-anchor="start" x="565.5" y="-207.5" font-family="Helvetica" font-size="10.00">/vsomeip/implementation</text>
<text text-anchor="start" x="565.5" y="-196.5" font-family="Helvetica" font-size="10.00">/service_discovery/src/ip</text>
<text text-anchor="middle" x="624.5" y="-185.5" font-family="Helvetica" font-size="10.00">_option_impl.cpp</text>
</a>
</g>
</g>
<!-- Node1&#45;&gt;Node11 -->
<g id="edge16" class="edge">
<title>Node1&#45;&gt;Node11</title>
<path fill="none" stroke="midnightblue" d="M471.56,-263.86C499.79,-253.09 531.63,-240.94 558.93,-230.52"/>
<polygon fill="midnightblue" stroke="midnightblue" points="470.24,-260.62 462.14,-267.45 472.73,-267.16 470.24,-260.62"/>
</g>
<!-- Node2&#45;&gt;Node3 -->
<g id="edge2" class="edge">
<title>Node2&#45;&gt;Node3</title>
<path fill="none" stroke="midnightblue" d="M395.3,-179.55C393.35,-179.02 391.41,-178.5 389.5,-178 369.5,-172.73 257.18,-148.23 181.3,-131.79"/>
<polygon fill="midnightblue" stroke="midnightblue" points="394.56,-182.98 405.14,-182.3 396.45,-176.24 394.56,-182.98"/>
</g>
<!-- Node5 -->
<g id="node5" class="node">
<title>Node5</title>
<g id="a_node5"><a xlink:href="service__discovery__impl_8cpp.html" target="_top" xlink:title=" ">
<polygon fill="white" stroke="black" points="169,-0.5 169,-52.5 320,-52.5 320,-0.5 169,-0.5"/>
<text text-anchor="start" x="177" y="-40.5" font-family="Helvetica" font-size="10.00">/home/ec2&#45;user/workspace</text>
<text text-anchor="start" x="177" y="-29.5" font-family="Helvetica" font-size="10.00">/vsomeip/implementation</text>
<text text-anchor="start" x="177" y="-18.5" font-family="Helvetica" font-size="10.00">/service_discovery/src/service</text>
<text text-anchor="middle" x="244.5" y="-7.5" font-family="Helvetica" font-size="10.00">_discovery_impl.cpp</text>
</a>
</g>
</g>
<!-- Node2&#45;&gt;Node5 -->
<g id="edge8" class="edge">
<title>Node2&#45;&gt;Node5</title>
<path fill="none" stroke="midnightblue" d="M549.76,-178.04C727.42,-145.04 1035.59,-212.82 922.5,-89 882.5,-45.2 488.3,-32.28 320.02,-28.74"/>
<polygon fill="midnightblue" stroke="midnightblue" points="548.95,-174.64 539.82,-180.03 550.31,-181.5 548.95,-174.64"/>
</g>
<!-- Node6 -->
<g id="node6" class="node">
<title>Node6</title>
<g id="a_node6"><a xlink:href="eventgroupentry__impl_8cpp.html" target="_top" xlink:title=" ">
<polygon fill="white" stroke="black" points="569.5,-89.5 569.5,-141.5 757.5,-141.5 757.5,-89.5 569.5,-89.5"/>
<text text-anchor="start" x="577.5" y="-129.5" font-family="Helvetica" font-size="10.00">/home/ec2&#45;user/workspace</text>
<text text-anchor="start" x="577.5" y="-118.5" font-family="Helvetica" font-size="10.00">/vsomeip/implementation</text>
<text text-anchor="start" x="577.5" y="-107.5" font-family="Helvetica" font-size="10.00">/service_discovery/src/eventgroupentry</text>
<text text-anchor="middle" x="663.5" y="-96.5" font-family="Helvetica" font-size="10.00">_impl.cpp</text>
</a>
</g>
</g>
<!-- Node2&#45;&gt;Node6 -->
<g id="edge5" class="edge">
<title>Node2&#45;&gt;Node6</title>
<path fill="none" stroke="midnightblue" d="M536.62,-174.29C559.95,-163.67 586.1,-151.76 608.57,-141.52"/>
<polygon fill="midnightblue" stroke="midnightblue" points="535.14,-171.12 527.49,-178.45 538.04,-177.49 535.14,-171.12"/>
</g>
<!-- Node7 -->
<g id="node7" class="node">
<title>Node7</title>
<g id="a_node7"><a xlink:href="ipv4__option__impl_8cpp.html" target="_top" xlink:title=" ">
<polygon fill="white" stroke="black" points="776,-89.5 776,-141.5 913,-141.5 913,-89.5 776,-89.5"/>
<text text-anchor="start" x="784" y="-129.5" font-family="Helvetica" font-size="10.00">/home/ec2&#45;user/workspace</text>
<text text-anchor="start" x="784" y="-118.5" font-family="Helvetica" font-size="10.00">/vsomeip/implementation</text>
<text text-anchor="start" x="784" y="-107.5" font-family="Helvetica" font-size="10.00">/service_discovery/src/ipv4</text>
<text text-anchor="middle" x="844.5" y="-96.5" font-family="Helvetica" font-size="10.00">_option_impl.cpp</text>
</a>
</g>
</g>
<!-- Node2&#45;&gt;Node7 -->
<g id="edge6" class="edge">
<title>Node2&#45;&gt;Node7</title>
<path fill="none" stroke="midnightblue" d="M549.69,-177.87C645.63,-154.98 674.18,-164.57 766.5,-142 769.54,-141.26 772.64,-140.45 775.76,-139.6"/>
<polygon fill="midnightblue" stroke="midnightblue" points="548.76,-174.5 539.88,-180.27 550.42,-181.3 548.76,-174.5"/>
</g>
<!-- Node8 -->
<g id="node8" class="node">
<title>Node8</title>
<g id="a_node8"><a xlink:href="service__discovery_2src_2message__impl_8cpp.html" target="_top" xlink:title=" ">
<polygon fill="white" stroke="black" points="393.5,-89.5 393.5,-141.5 551.5,-141.5 551.5,-89.5 393.5,-89.5"/>
<text text-anchor="start" x="401.5" y="-129.5" font-family="Helvetica" font-size="10.00">/home/ec2&#45;user/workspace</text>
<text text-anchor="start" x="401.5" y="-118.5" font-family="Helvetica" font-size="10.00">/vsomeip/implementation</text>
<text text-anchor="start" x="401.5" y="-107.5" font-family="Helvetica" font-size="10.00">/service_discovery/src/message</text>
<text text-anchor="middle" x="472.5" y="-96.5" font-family="Helvetica" font-size="10.00">_impl.cpp</text>
</a>
</g>
</g>
<!-- Node2&#45;&gt;Node8 -->
<g id="edge7" class="edge">
<title>Node2&#45;&gt;Node8</title>
<path fill="none" stroke="midnightblue" d="M472.5,-168.19C472.5,-159.28 472.5,-149.9 472.5,-141.61"/>
<polygon fill="midnightblue" stroke="midnightblue" points="469,-168.34 472.5,-178.34 476,-168.34 469,-168.34"/>
</g>
<!-- Node4 -->
<g id="node4" class="node">
<title>Node4</title>
<g id="a_node4"><a xlink:href="service__discovery_2src_2runtime__impl_8cpp.html" target="_top" xlink:title=" ">
<polygon fill="white" stroke="black" points="0,-0.5 0,-52.5 151,-52.5 151,-0.5 0,-0.5"/>
<text text-anchor="start" x="8" y="-40.5" font-family="Helvetica" font-size="10.00">/home/ec2&#45;user/workspace</text>
<text text-anchor="start" x="8" y="-29.5" font-family="Helvetica" font-size="10.00">/vsomeip/implementation</text>
<text text-anchor="start" x="8" y="-18.5" font-family="Helvetica" font-size="10.00">/service_discovery/src/runtime</text>
<text text-anchor="middle" x="75.5" y="-7.5" font-family="Helvetica" font-size="10.00">_impl.cpp</text>
</a>
</g>
</g>
<!-- Node3&#45;&gt;Node4 -->
<g id="edge3" class="edge">
<title>Node3&#45;&gt;Node4</title>
<path fill="none" stroke="midnightblue" d="M96.53,-79.77C92.88,-70.69 89.01,-61.08 85.6,-52.61"/>
<polygon fill="midnightblue" stroke="midnightblue" points="93.4,-81.36 100.38,-89.34 99.89,-78.75 93.4,-81.36"/>
</g>
<!-- Node3&#45;&gt;Node5 -->
<g id="edge4" class="edge">
<title>Node3&#45;&gt;Node5</title>
<path fill="none" stroke="midnightblue" d="M157.8,-83.79C173.53,-73.58 190.84,-62.34 205.83,-52.61"/>
<polygon fill="midnightblue" stroke="midnightblue" points="155.74,-80.95 149.26,-89.34 159.55,-86.83 155.74,-80.95"/>
</g>
<!-- Node9&#45;&gt;Node3 -->
<g id="edge10" class="edge">
<title>Node9&#45;&gt;Node3</title>
<path fill="none" stroke="midnightblue" d="M245.68,-174.44C220.8,-163.77 192.87,-151.8 168.88,-141.52"/>
<polygon fill="midnightblue" stroke="midnightblue" points="244.49,-177.73 255.06,-178.45 247.24,-171.3 244.49,-177.73"/>
</g>
<!-- Node9&#45;&gt;Node5 -->
<g id="edge14" class="edge">
<title>Node9&#45;&gt;Node5</title>
<path fill="none" stroke="midnightblue" d="M255.38,-172.3C244.94,-163.91 235.49,-153.82 229.5,-142 215.17,-113.75 224.24,-76.76 233.29,-52.57"/>
<polygon fill="midnightblue" stroke="midnightblue" points="253.41,-175.19 263.51,-178.38 257.6,-169.59 253.41,-175.19"/>
</g>
<!-- Node9&#45;&gt;Node6 -->
<g id="edge11" class="edge">
<title>Node9&#45;&gt;Node6</title>
<path fill="none" stroke="midnightblue" d="M390.7,-179.55C392.65,-179.02 394.59,-178.5 396.5,-178 468.67,-159.03 487.83,-158.97 560.5,-142 563.37,-141.33 566.28,-140.64 569.22,-139.95"/>
<polygon fill="midnightblue" stroke="midnightblue" points="389.55,-176.24 380.86,-182.3 391.43,-182.98 389.55,-176.24"/>
</g>
<!-- Node9&#45;&gt;Node8 -->
<g id="edge13" class="edge">
<title>Node9&#45;&gt;Node8</title>
<path fill="none" stroke="midnightblue" d="M368.34,-173.49C387.33,-163.1 408.41,-151.57 426.61,-141.61"/>
<polygon fill="midnightblue" stroke="midnightblue" points="366.58,-170.47 359.49,-178.34 369.94,-176.61 366.58,-170.47"/>
</g>
<!-- Node10 -->
<g id="node10" class="node">
<title>Node10</title>
<g id="a_node10"><a xlink:href="ipv6__option__impl_8cpp.html" target="_top" xlink:title=" ">
<polygon fill="white" stroke="black" points="238,-89.5 238,-141.5 375,-141.5 375,-89.5 238,-89.5"/>
<text text-anchor="start" x="246" y="-129.5" font-family="Helvetica" font-size="10.00">/home/ec2&#45;user/workspace</text>
<text text-anchor="start" x="246" y="-118.5" font-family="Helvetica" font-size="10.00">/vsomeip/implementation</text>
<text text-anchor="start" x="246" y="-107.5" font-family="Helvetica" font-size="10.00">/service_discovery/src/ipv6</text>
<text text-anchor="middle" x="306.5" y="-96.5" font-family="Helvetica" font-size="10.00">_option_impl.cpp</text>
</a>
</g>
</g>
<!-- Node9&#45;&gt;Node10 -->
<g id="edge12" class="edge">
<title>Node9&#45;&gt;Node10</title>
<path fill="none" stroke="midnightblue" d="M310.66,-168.19C309.94,-159.28 309.19,-149.9 308.52,-141.61"/>
<polygon fill="midnightblue" stroke="midnightblue" points="307.18,-168.65 311.48,-178.34 314.16,-168.09 307.18,-168.65"/>
</g>
</g>
</svg>
