<?xml version="1.0" encoding="UTF-8" standalone="no"?>
<!DOCTYPE svg PUBLIC "-//W3C//DTD SVG 1.1//EN"
 "http://www.w3.org/Graphics/SVG/1.1/DTD/svg11.dtd">
<!-- Generated by graphviz version 2.44.0 (0)
 -->
<!-- Title: /home/ec2&#45;user/workspace/vsomeip/implementation/service_discovery/include/ipv6_option_impl.hpp Pages: 1 -->
<svg width="562pt" height="285pt"
 viewBox="0.00 0.00 562.00 285.00" xmlns="http://www.w3.org/2000/svg" xmlns:xlink="http://www.w3.org/1999/xlink">
<g id="graph0" class="graph" transform="scale(1 1) rotate(0) translate(4 281)">
<title>/home/ec2&#45;user/workspace/vsomeip/implementation/service_discovery/include/ipv6_option_impl.hpp</title>
<polygon fill="white" stroke="transparent" points="-4,4 -4,-281 558,-281 558,4 -4,4"/>
<!-- Node1 -->
<g id="node1" class="node">
<title>Node1</title>
<g id="a_node1"><a xlink:title=" ">
<polygon fill="#bfbfbf" stroke="black" points="89,-224.5 89,-276.5 223,-276.5 223,-224.5 89,-224.5"/>
<text text-anchor="start" x="97" y="-264.5" font-family="Helvetica" font-size="10.00">/home/ec2&#45;user/workspace</text>
<text text-anchor="start" x="97" y="-253.5" font-family="Helvetica" font-size="10.00">/vsomeip/implementation</text>
<text text-anchor="start" x="97" y="-242.5" font-family="Helvetica" font-size="10.00">/service_discovery/include</text>
<text text-anchor="middle" x="156" y="-231.5" font-family="Helvetica" font-size="10.00">/ipv6_option_impl.hpp</text>
</a>
</g>
</g>
<!-- Node2 -->
<g id="node2" class="node">
<title>Node2</title>
<g id="a_node2"><a xlink:title=" ">
<polygon fill="white" stroke="#bfbfbf" points="0,-168.5 0,-187.5 128,-187.5 128,-168.5 0,-168.5"/>
<text text-anchor="middle" x="64" y="-175.5" font-family="Helvetica" font-size="10.00">boost/asio/ip/address.hpp</text>
</a>
</g>
</g>
<!-- Node1&#45;&gt;Node2 -->
<g id="edge1" class="edge">
<title>Node1&#45;&gt;Node2</title>
<path fill="none" stroke="midnightblue" d="M123.31,-224.45C109.97,-214.23 95,-202.76 83.44,-193.9"/>
<polygon fill="midnightblue" stroke="midnightblue" points="85.41,-191 75.35,-187.7 81.16,-196.56 85.41,-191"/>
</g>
<!-- Node3 -->
<g id="node3" class="node">
<title>Node3</title>
<g id="a_node3"><a xlink:title=" ">
<polygon fill="white" stroke="#bfbfbf" points="86,-112.5 86,-131.5 226,-131.5 226,-112.5 86,-112.5"/>
<text text-anchor="middle" x="156" y="-119.5" font-family="Helvetica" font-size="10.00">vsomeip/primitive_types.hpp</text>
</a>
</g>
</g>
<!-- Node1&#45;&gt;Node3 -->
<g id="edge2" class="edge">
<title>Node1&#45;&gt;Node3</title>
<path fill="none" stroke="midnightblue" d="M156,-224.2C156,-199.88 156,-163.67 156,-141.8"/>
<polygon fill="midnightblue" stroke="midnightblue" points="159.5,-141.55 156,-131.55 152.5,-141.55 159.5,-141.55"/>
</g>
<!-- Node4 -->
<g id="node4" class="node">
<title>Node4</title>
<g id="a_node4"><a xlink:href="ip__option__impl_8hpp.html" target="_top" xlink:title=" ">
<polygon fill="white" stroke="black" points="184,-168.5 184,-187.5 282,-187.5 282,-168.5 184,-168.5"/>
<text text-anchor="middle" x="233" y="-175.5" font-family="Helvetica" font-size="10.00">ip_option_impl.hpp</text>
</a>
</g>
</g>
<!-- Node1&#45;&gt;Node4 -->
<g id="edge3" class="edge">
<title>Node1&#45;&gt;Node4</title>
<path fill="none" stroke="midnightblue" d="M183.36,-224.45C194.2,-214.53 206.32,-203.43 215.87,-194.69"/>
<polygon fill="midnightblue" stroke="midnightblue" points="218.49,-197.03 223.5,-187.7 213.76,-191.87 218.49,-197.03"/>
</g>
<!-- Node4&#45;&gt;Node3 -->
<g id="edge4" class="edge">
<title>Node4&#45;&gt;Node3</title>
<path fill="none" stroke="midnightblue" d="M220.63,-168.32C208.84,-160.06 190.87,-147.45 176.86,-137.63"/>
<polygon fill="midnightblue" stroke="midnightblue" points="178.54,-134.53 168.34,-131.65 174.52,-140.26 178.54,-134.53"/>
</g>
<!-- Node5 -->
<g id="node5" class="node">
<title>Node5</title>
<g id="a_node5"><a xlink:href="option__impl_8hpp.html" target="_top" xlink:title=" ">
<polygon fill="white" stroke="black" points="244.5,-112.5 244.5,-131.5 329.5,-131.5 329.5,-112.5 244.5,-112.5"/>
<text text-anchor="middle" x="287" y="-119.5" font-family="Helvetica" font-size="10.00">option_impl.hpp</text>
</a>
</g>
</g>
<!-- Node4&#45;&gt;Node5 -->
<g id="edge5" class="edge">
<title>Node4&#45;&gt;Node5</title>
<path fill="none" stroke="midnightblue" d="M241.92,-168.08C249.78,-160.22 261.43,-148.57 270.92,-139.08"/>
<polygon fill="midnightblue" stroke="midnightblue" points="273.65,-141.3 278.25,-131.75 268.7,-136.35 273.65,-141.3"/>
</g>
<!-- Node6 -->
<g id="node6" class="node">
<title>Node6</title>
<g id="a_node6"><a xlink:title=" ">
<polygon fill="white" stroke="#bfbfbf" points="236,-0.5 236,-19.5 282,-19.5 282,-0.5 236,-0.5"/>
<text text-anchor="middle" x="259" y="-7.5" font-family="Helvetica" font-size="10.00">cstdint</text>
</a>
</g>
</g>
<!-- Node5&#45;&gt;Node6 -->
<g id="edge6" class="edge">
<title>Node5&#45;&gt;Node6</title>
<path fill="none" stroke="midnightblue" d="M251.15,-112.4C232.12,-105.81 210.37,-94.59 199,-76 186.73,-55.94 210.6,-36.62 231.77,-24.34"/>
<polygon fill="midnightblue" stroke="midnightblue" points="233.48,-27.39 240.57,-19.52 230.12,-21.25 233.48,-27.39"/>
</g>
<!-- Node7 -->
<g id="node7" class="node">
<title>Node7</title>
<g id="a_node7"><a xlink:title=" ">
<polygon fill="white" stroke="#bfbfbf" points="208.5,-56.5 208.5,-75.5 261.5,-75.5 261.5,-56.5 208.5,-56.5"/>
<text text-anchor="middle" x="235" y="-63.5" font-family="Helvetica" font-size="10.00">memory</text>
</a>
</g>
</g>
<!-- Node5&#45;&gt;Node7 -->
<g id="edge7" class="edge">
<title>Node5&#45;&gt;Node7</title>
<path fill="none" stroke="midnightblue" d="M278.41,-112.08C270.84,-104.22 259.62,-92.57 250.49,-83.08"/>
<polygon fill="midnightblue" stroke="midnightblue" points="252.88,-80.53 243.43,-75.75 247.84,-85.38 252.88,-80.53"/>
</g>
<!-- Node8 -->
<g id="node8" class="node">
<title>Node8</title>
<g id="a_node8"><a xlink:href="implementation_2service__discovery_2include_2enumeration__types_8hpp.html" target="_top" xlink:title=" ">
<polygon fill="white" stroke="black" points="280,-56.5 280,-75.5 398,-75.5 398,-56.5 280,-56.5"/>
<text text-anchor="middle" x="339" y="-63.5" font-family="Helvetica" font-size="10.00">enumeration_types.hpp</text>
</a>
</g>
</g>
<!-- Node5&#45;&gt;Node8 -->
<g id="edge8" class="edge">
<title>Node5&#45;&gt;Node8</title>
<path fill="none" stroke="midnightblue" d="M295.59,-112.08C303.16,-104.22 314.38,-92.57 323.51,-83.08"/>
<polygon fill="midnightblue" stroke="midnightblue" points="326.16,-85.38 330.57,-75.75 321.12,-80.53 326.16,-85.38"/>
</g>
<!-- Node9 -->
<g id="node9" class="node">
<title>Node9</title>
<g id="a_node9"><a xlink:href="message__element__impl_8hpp.html" target="_top" xlink:title=" ">
<polygon fill="white" stroke="black" points="416,-56.5 416,-75.5 554,-75.5 554,-56.5 416,-56.5"/>
<text text-anchor="middle" x="485" y="-63.5" font-family="Helvetica" font-size="10.00">message_element_impl.hpp</text>
</a>
</g>
</g>
<!-- Node5&#45;&gt;Node9 -->
<g id="edge10" class="edge">
<title>Node5&#45;&gt;Node9</title>
<path fill="none" stroke="midnightblue" d="M318.37,-112.44C352.26,-103.2 406.4,-88.44 443.72,-78.26"/>
<polygon fill="midnightblue" stroke="midnightblue" points="445.05,-81.52 453.77,-75.52 443.2,-74.77 445.05,-81.52"/>
</g>
<!-- Node8&#45;&gt;Node6 -->
<g id="edge9" class="edge">
<title>Node8&#45;&gt;Node6</title>
<path fill="none" stroke="midnightblue" d="M326.15,-56.32C313.78,-47.98 294.87,-35.21 280.26,-25.35"/>
<polygon fill="midnightblue" stroke="midnightblue" points="282.07,-22.35 271.82,-19.65 278.15,-28.15 282.07,-22.35"/>
</g>
</g>
</svg>
