<?xml version="1.0" encoding="UTF-8" standalone="no"?>
<!DOCTYPE svg PUBLIC "-//W3C//DTD SVG 1.1//EN"
 "http://www.w3.org/Graphics/SVG/1.1/DTD/svg11.dtd">
<!-- Generated by graphviz version 2.44.0 (0)
 -->
<!-- Title: /home/ec2&#45;user/workspace/vsomeip/implementation/service_discovery/include/ipv6_option_impl.hpp Pages: 1 -->
<svg width="801pt" height="239pt"
 viewBox="0.00 0.00 800.50 239.00" xmlns="http://www.w3.org/2000/svg" xmlns:xlink="http://www.w3.org/1999/xlink">
<g id="graph0" class="graph" transform="scale(1 1) rotate(0) translate(4 235)">
<title>/home/ec2&#45;user/workspace/vsomeip/implementation/service_discovery/include/ipv6_option_impl.hpp</title>
<polygon fill="white" stroke="transparent" points="-4,4 -4,-235 796.5,-235 796.5,4 -4,4"/>
<!-- Node1 -->
<g id="node1" class="node">
<title>Node1</title>
<g id="a_node1"><a xlink:title=" ">
<polygon fill="#bfbfbf" stroke="black" points="299.5,-178.5 299.5,-230.5 433.5,-230.5 433.5,-178.5 299.5,-178.5"/>
<text text-anchor="start" x="307.5" y="-218.5" font-family="Helvetica" font-size="10.00">/home/ec2&#45;user/workspace</text>
<text text-anchor="start" x="307.5" y="-207.5" font-family="Helvetica" font-size="10.00">/vsomeip/implementation</text>
<text text-anchor="start" x="307.5" y="-196.5" font-family="Helvetica" font-size="10.00">/service_discovery/include</text>
<text text-anchor="middle" x="366.5" y="-185.5" font-family="Helvetica" font-size="10.00">/ipv6_option_impl.hpp</text>
</a>
</g>
</g>
<!-- Node2 -->
<g id="node2" class="node">
<title>Node2</title>
<g id="a_node2"><a xlink:href="service__discovery__impl_8hpp.html" target="_top" xlink:title=" ">
<polygon fill="white" stroke="black" points="75,-89.5 75,-141.5 216,-141.5 216,-89.5 75,-89.5"/>
<text text-anchor="start" x="83" y="-129.5" font-family="Helvetica" font-size="10.00">/home/ec2&#45;user/workspace</text>
<text text-anchor="start" x="83" y="-118.5" font-family="Helvetica" font-size="10.00">/vsomeip/implementation</text>
<text text-anchor="start" x="83" y="-107.5" font-family="Helvetica" font-size="10.00">/service_discovery/include</text>
<text text-anchor="middle" x="145.5" y="-96.5" font-family="Helvetica" font-size="10.00">/service_discovery_impl.hpp</text>
</a>
</g>
</g>
<!-- Node1&#45;&gt;Node2 -->
<g id="edge1" class="edge">
<title>Node1&#45;&gt;Node2</title>
<path fill="none" stroke="midnightblue" d="M293.38,-174.72C266.11,-163.98 235.4,-151.89 209.06,-141.52"/>
<polygon fill="midnightblue" stroke="midnightblue" points="292.29,-178.05 302.87,-178.45 294.85,-171.53 292.29,-178.05"/>
</g>
<!-- Node4 -->
<g id="node4" class="node">
<title>Node4</title>
<g id="a_node4"><a xlink:href="service__discovery__impl_8cpp.html" target="_top" xlink:title=" ">
<polygon fill="white" stroke="black" points="169,-0.5 169,-52.5 320,-52.5 320,-0.5 169,-0.5"/>
<text text-anchor="start" x="177" y="-40.5" font-family="Helvetica" font-size="10.00">/home/ec2&#45;user/workspace</text>
<text text-anchor="start" x="177" y="-29.5" font-family="Helvetica" font-size="10.00">/vsomeip/implementation</text>
<text text-anchor="start" x="177" y="-18.5" font-family="Helvetica" font-size="10.00">/service_discovery/src/service</text>
<text text-anchor="middle" x="244.5" y="-7.5" font-family="Helvetica" font-size="10.00">_discovery_impl.cpp</text>
</a>
</g>
</g>
<!-- Node1&#45;&gt;Node4 -->
<g id="edge7" class="edge">
<title>Node1&#45;&gt;Node4</title>
<path fill="none" stroke="midnightblue" d="M296.19,-172.88C283.63,-164.53 271.89,-154.3 263.5,-142 245.45,-115.53 242.49,-77.77 242.84,-52.96"/>
<polygon fill="midnightblue" stroke="midnightblue" points="294.65,-176.05 304.99,-178.37 298.35,-170.11 294.65,-176.05"/>
</g>
<!-- Node5 -->
<g id="node5" class="node">
<title>Node5</title>
<g id="a_node5"><a xlink:href="eventgroupentry__impl_8cpp.html" target="_top" xlink:title=" ">
<polygon fill="white" stroke="black" points="272.5,-89.5 272.5,-141.5 460.5,-141.5 460.5,-89.5 272.5,-89.5"/>
<text text-anchor="start" x="280.5" y="-129.5" font-family="Helvetica" font-size="10.00">/home/ec2&#45;user/workspace</text>
<text text-anchor="start" x="280.5" y="-118.5" font-family="Helvetica" font-size="10.00">/vsomeip/implementation</text>
<text text-anchor="start" x="280.5" y="-107.5" font-family="Helvetica" font-size="10.00">/service_discovery/src/eventgroupentry</text>
<text text-anchor="middle" x="366.5" y="-96.5" font-family="Helvetica" font-size="10.00">_impl.cpp</text>
</a>
</g>
</g>
<!-- Node1&#45;&gt;Node5 -->
<g id="edge4" class="edge">
<title>Node1&#45;&gt;Node5</title>
<path fill="none" stroke="midnightblue" d="M366.5,-168.19C366.5,-159.28 366.5,-149.9 366.5,-141.61"/>
<polygon fill="midnightblue" stroke="midnightblue" points="363,-168.34 366.5,-178.34 370,-168.34 363,-168.34"/>
</g>
<!-- Node6 -->
<g id="node6" class="node">
<title>Node6</title>
<g id="a_node6"><a xlink:href="ipv6__option__impl_8cpp.html" target="_top" xlink:title=" ">
<polygon fill="white" stroke="black" points="479,-89.5 479,-141.5 616,-141.5 616,-89.5 479,-89.5"/>
<text text-anchor="start" x="487" y="-129.5" font-family="Helvetica" font-size="10.00">/home/ec2&#45;user/workspace</text>
<text text-anchor="start" x="487" y="-118.5" font-family="Helvetica" font-size="10.00">/vsomeip/implementation</text>
<text text-anchor="start" x="487" y="-107.5" font-family="Helvetica" font-size="10.00">/service_discovery/src/ipv6</text>
<text text-anchor="middle" x="547.5" y="-96.5" font-family="Helvetica" font-size="10.00">_option_impl.cpp</text>
</a>
</g>
</g>
<!-- Node1&#45;&gt;Node6 -->
<g id="edge5" class="edge">
<title>Node1&#45;&gt;Node6</title>
<path fill="none" stroke="midnightblue" d="M428.05,-173.92C449.9,-163.41 474.27,-151.7 495.26,-141.61"/>
<polygon fill="midnightblue" stroke="midnightblue" points="426.35,-170.85 418.85,-178.34 429.38,-177.16 426.35,-170.85"/>
</g>
<!-- Node7 -->
<g id="node7" class="node">
<title>Node7</title>
<g id="a_node7"><a xlink:href="service__discovery_2src_2message__impl_8cpp.html" target="_top" xlink:title=" ">
<polygon fill="white" stroke="black" points="634.5,-89.5 634.5,-141.5 792.5,-141.5 792.5,-89.5 634.5,-89.5"/>
<text text-anchor="start" x="642.5" y="-129.5" font-family="Helvetica" font-size="10.00">/home/ec2&#45;user/workspace</text>
<text text-anchor="start" x="642.5" y="-118.5" font-family="Helvetica" font-size="10.00">/vsomeip/implementation</text>
<text text-anchor="start" x="642.5" y="-107.5" font-family="Helvetica" font-size="10.00">/service_discovery/src/message</text>
<text text-anchor="middle" x="713.5" y="-96.5" font-family="Helvetica" font-size="10.00">_impl.cpp</text>
</a>
</g>
</g>
<!-- Node1&#45;&gt;Node7 -->
<g id="edge6" class="edge">
<title>Node1&#45;&gt;Node7</title>
<path fill="none" stroke="midnightblue" d="M443.29,-186.3C494.96,-174.48 564.52,-158.07 625.5,-142 628.42,-141.23 631.4,-140.43 634.4,-139.62"/>
<polygon fill="midnightblue" stroke="midnightblue" points="442.5,-182.89 433.53,-188.53 444.06,-189.72 442.5,-182.89"/>
</g>
<!-- Node3 -->
<g id="node3" class="node">
<title>Node3</title>
<g id="a_node3"><a xlink:href="service__discovery_2src_2runtime__impl_8cpp.html" target="_top" xlink:title=" ">
<polygon fill="white" stroke="black" points="0,-0.5 0,-52.5 151,-52.5 151,-0.5 0,-0.5"/>
<text text-anchor="start" x="8" y="-40.5" font-family="Helvetica" font-size="10.00">/home/ec2&#45;user/workspace</text>
<text text-anchor="start" x="8" y="-29.5" font-family="Helvetica" font-size="10.00">/vsomeip/implementation</text>
<text text-anchor="start" x="8" y="-18.5" font-family="Helvetica" font-size="10.00">/service_discovery/src/runtime</text>
<text text-anchor="middle" x="75.5" y="-7.5" font-family="Helvetica" font-size="10.00">_impl.cpp</text>
</a>
</g>
</g>
<!-- Node2&#45;&gt;Node3 -->
<g id="edge2" class="edge">
<title>Node2&#45;&gt;Node3</title>
<path fill="none" stroke="midnightblue" d="M118.95,-81.5C111.24,-71.92 102.95,-61.62 95.7,-52.61"/>
<polygon fill="midnightblue" stroke="midnightblue" points="116.26,-83.74 125.25,-89.34 121.71,-79.35 116.26,-83.74"/>
</g>
<!-- Node2&#45;&gt;Node4 -->
<g id="edge3" class="edge">
<title>Node2&#45;&gt;Node4</title>
<path fill="none" stroke="midnightblue" d="M181.74,-82.65C193.01,-72.75 205.26,-61.98 215.93,-52.61"/>
<polygon fill="midnightblue" stroke="midnightblue" points="179.34,-80.11 174.13,-89.34 183.96,-85.36 179.34,-80.11"/>
</g>
</g>
</svg>
