<?xml version="1.0" encoding="UTF-8" standalone="no"?>
<!DOCTYPE svg PUBLIC "-//W3C//DTD SVG 1.1//EN"
 "http://www.w3.org/Graphics/SVG/1.1/DTD/svg11.dtd">
<!-- Generated by graphviz version 2.44.0 (0)
 -->
<!-- Title: /home/ec2&#45;user/workspace/vsomeip/implementation/service_discovery/src/ipv6_option_impl.cpp Pages: 1 -->
<svg width="883pt" height="363pt"
 viewBox="0.00 0.00 882.57 363.00" xmlns="http://www.w3.org/2000/svg" xmlns:xlink="http://www.w3.org/1999/xlink">
<g id="graph0" class="graph" transform="scale(1 1) rotate(0) translate(4 359)">
<title>/home/ec2&#45;user/workspace/vsomeip/implementation/service_discovery/src/ipv6_option_impl.cpp</title>
<polygon fill="white" stroke="transparent" points="-4,4 -4,-359 878.57,-359 878.57,4 -4,4"/>
<!-- Node1 -->
<g id="node1" class="node">
<title>Node1</title>
<g id="a_node1"><a xlink:title=" ">
<polygon fill="#bfbfbf" stroke="black" points="431.07,-302.5 431.07,-354.5 568.07,-354.5 568.07,-302.5 431.07,-302.5"/>
<text text-anchor="start" x="439.07" y="-342.5" font-family="Helvetica" font-size="10.00">/home/ec2&#45;user/workspace</text>
<text text-anchor="start" x="439.07" y="-331.5" font-family="Helvetica" font-size="10.00">/vsomeip/implementation</text>
<text text-anchor="start" x="439.07" y="-320.5" font-family="Helvetica" font-size="10.00">/service_discovery/src/ipv6</text>
<text text-anchor="middle" x="499.57" y="-309.5" font-family="Helvetica" font-size="10.00">_option_impl.cpp</text>
</a>
</g>
</g>
<!-- Node2 -->
<g id="node2" class="node">
<title>Node2</title>
<g id="a_node2"><a xlink:title=" ">
<polygon fill="white" stroke="#bfbfbf" points="181.57,-241 181.57,-260 227.57,-260 227.57,-241 181.57,-241"/>
<text text-anchor="middle" x="204.57" y="-248" font-family="Helvetica" font-size="10.00">cstring</text>
</a>
</g>
</g>
<!-- Node1&#45;&gt;Node2 -->
<g id="edge1" class="edge">
<title>Node1&#45;&gt;Node2</title>
<path fill="none" stroke="midnightblue" d="M430.98,-315.29C377.3,-304.82 301.17,-287.95 236.57,-266 234.91,-265.43 233.21,-264.81 231.51,-264.15"/>
<polygon fill="midnightblue" stroke="midnightblue" points="232.5,-260.77 221.93,-260.11 229.78,-267.22 232.5,-260.77"/>
</g>
<!-- Node3 -->
<g id="node3" class="node">
<title>Node3</title>
<g id="a_node3"><a xlink:href="implementation_2service__discovery_2include_2constants_8hpp.html" target="_top" xlink:title=" ">
<polygon fill="white" stroke="black" points="373.07,-241 373.07,-260 494.07,-260 494.07,-241 373.07,-241"/>
<text text-anchor="middle" x="433.57" y="-248" font-family="Helvetica" font-size="10.00">../include/constants.hpp</text>
</a>
</g>
</g>
<!-- Node1&#45;&gt;Node3 -->
<g id="edge2" class="edge">
<title>Node1&#45;&gt;Node3</title>
<path fill="none" stroke="midnightblue" d="M477.6,-302.19C467.75,-290.86 456.43,-277.82 447.73,-267.81"/>
<polygon fill="midnightblue" stroke="midnightblue" points="450.34,-265.46 441.14,-260.21 445.05,-270.05 450.34,-265.46"/>
</g>
<!-- Node6 -->
<g id="node6" class="node">
<title>Node6</title>
<g id="a_node6"><a xlink:href="implementation_2service__discovery_2include_2defines_8hpp.html" target="_top" xlink:title=" ">
<polygon fill="white" stroke="black" points="764.57,-241 764.57,-260 874.57,-260 874.57,-241 764.57,-241"/>
<text text-anchor="middle" x="819.57" y="-248" font-family="Helvetica" font-size="10.00">../include/defines.hpp</text>
</a>
</g>
</g>
<!-- Node1&#45;&gt;Node6 -->
<g id="edge5" class="edge">
<title>Node1&#45;&gt;Node6</title>
<path fill="none" stroke="midnightblue" d="M568.22,-311.2C630.33,-296.45 720.06,-275.13 773.82,-262.37"/>
<polygon fill="midnightblue" stroke="midnightblue" points="774.83,-265.72 783.75,-260.01 773.21,-258.91 774.83,-265.72"/>
</g>
<!-- Node7 -->
<g id="node7" class="node">
<title>Node7</title>
<g id="a_node7"><a xlink:href="ipv6__option__impl_8hpp.html" target="_top" xlink:title=" ">
<polygon fill="white" stroke="black" points="246.07,-235.5 246.07,-265.5 355.07,-265.5 355.07,-235.5 246.07,-235.5"/>
<text text-anchor="start" x="254.07" y="-253.5" font-family="Helvetica" font-size="10.00">../include/ipv6_option</text>
<text text-anchor="middle" x="300.57" y="-242.5" font-family="Helvetica" font-size="10.00">_impl.hpp</text>
</a>
</g>
</g>
<!-- Node1&#45;&gt;Node7 -->
<g id="edge6" class="edge">
<title>Node1&#45;&gt;Node7</title>
<path fill="none" stroke="midnightblue" d="M433.86,-302.4C405.45,-291.55 372.87,-279.11 347.04,-269.24"/>
<polygon fill="midnightblue" stroke="midnightblue" points="348.08,-265.9 337.49,-265.6 345.58,-272.43 348.08,-265.9"/>
</g>
<!-- Node15 -->
<g id="node15" class="node">
<title>Node15</title>
<g id="a_node15"><a xlink:href="message_2include_2deserializer_8hpp.html" target="_top" xlink:title=" ">
<polygon fill="white" stroke="black" points="512.57,-235.5 512.57,-265.5 620.57,-265.5 620.57,-235.5 512.57,-235.5"/>
<text text-anchor="start" x="520.57" y="-253.5" font-family="Helvetica" font-size="10.00">../../message/include</text>
<text text-anchor="middle" x="566.57" y="-242.5" font-family="Helvetica" font-size="10.00">/deserializer.hpp</text>
</a>
</g>
</g>
<!-- Node1&#45;&gt;Node15 -->
<g id="edge17" class="edge">
<title>Node1&#45;&gt;Node15</title>
<path fill="none" stroke="midnightblue" d="M521.88,-302.19C530.04,-292.94 539.21,-282.54 547.1,-273.59"/>
<polygon fill="midnightblue" stroke="midnightblue" points="549.94,-275.66 553.93,-265.85 544.69,-271.03 549.94,-275.66"/>
</g>
<!-- Node18 -->
<g id="node18" class="node">
<title>Node18</title>
<g id="a_node18"><a xlink:href="serializer_8hpp.html" target="_top" xlink:title=" ">
<polygon fill="white" stroke="black" points="638.57,-235.5 638.57,-265.5 746.57,-265.5 746.57,-235.5 638.57,-235.5"/>
<text text-anchor="start" x="646.57" y="-253.5" font-family="Helvetica" font-size="10.00">../../message/include</text>
<text text-anchor="middle" x="692.57" y="-242.5" font-family="Helvetica" font-size="10.00">/serializer.hpp</text>
</a>
</g>
</g>
<!-- Node1&#45;&gt;Node18 -->
<g id="edge21" class="edge">
<title>Node1&#45;&gt;Node18</title>
<path fill="none" stroke="midnightblue" d="M563.3,-302.4C590.74,-291.6 622.18,-279.22 647.18,-269.37"/>
<polygon fill="midnightblue" stroke="midnightblue" points="648.75,-272.52 656.77,-265.6 646.19,-266 648.75,-272.52"/>
</g>
<!-- Node4 -->
<g id="node4" class="node">
<title>Node4</title>
<g id="a_node4"><a xlink:title=" ">
<polygon fill="white" stroke="#bfbfbf" points="413.57,-168.5 413.57,-198.5 523.57,-198.5 523.57,-168.5 413.57,-168.5"/>
<text text-anchor="start" x="421.57" y="-186.5" font-family="Helvetica" font-size="10.00">vsomeip/enumeration</text>
<text text-anchor="middle" x="468.57" y="-175.5" font-family="Helvetica" font-size="10.00">_types.hpp</text>
</a>
</g>
</g>
<!-- Node3&#45;&gt;Node4 -->
<g id="edge3" class="edge">
<title>Node3&#45;&gt;Node4</title>
<path fill="none" stroke="midnightblue" d="M438.29,-240.73C442.84,-232.29 449.92,-219.14 456.09,-207.68"/>
<polygon fill="midnightblue" stroke="midnightblue" points="459.33,-209.05 460.99,-198.59 453.16,-205.73 459.33,-209.05"/>
</g>
<!-- Node5 -->
<g id="node5" class="node">
<title>Node5</title>
<g id="a_node5"><a xlink:title=" ">
<polygon fill="white" stroke="#bfbfbf" points="315.57,-112.5 315.57,-131.5 455.57,-131.5 455.57,-112.5 315.57,-112.5"/>
<text text-anchor="middle" x="385.57" y="-119.5" font-family="Helvetica" font-size="10.00">vsomeip/primitive_types.hpp</text>
</a>
</g>
</g>
<!-- Node3&#45;&gt;Node5 -->
<g id="edge4" class="edge">
<title>Node3&#45;&gt;Node5</title>
<path fill="none" stroke="midnightblue" d="M427.67,-240.94C421.18,-231.18 410.85,-214.57 404.57,-199 396.96,-180.12 391.76,-157.34 388.75,-141.67"/>
<polygon fill="midnightblue" stroke="midnightblue" points="392.16,-140.89 386.94,-131.68 385.27,-142.14 392.16,-140.89"/>
</g>
<!-- Node7&#45;&gt;Node5 -->
<g id="edge8" class="edge">
<title>Node7&#45;&gt;Node5</title>
<path fill="none" stroke="midnightblue" d="M310,-235.48C325.63,-212.21 356.91,-165.66 373.91,-140.36"/>
<polygon fill="midnightblue" stroke="midnightblue" points="377,-142.04 379.67,-131.79 371.19,-138.14 377,-142.04"/>
</g>
<!-- Node8 -->
<g id="node8" class="node">
<title>Node8</title>
<g id="a_node8"><a xlink:title=" ">
<polygon fill="white" stroke="#bfbfbf" points="191.57,-174 191.57,-193 319.57,-193 319.57,-174 191.57,-174"/>
<text text-anchor="middle" x="255.57" y="-181" font-family="Helvetica" font-size="10.00">boost/asio/ip/address.hpp</text>
</a>
</g>
</g>
<!-- Node7&#45;&gt;Node8 -->
<g id="edge7" class="edge">
<title>Node7&#45;&gt;Node8</title>
<path fill="none" stroke="midnightblue" d="M290.81,-235.4C283.93,-225.46 274.69,-212.11 267.39,-201.57"/>
<polygon fill="midnightblue" stroke="midnightblue" points="270.16,-199.42 261.59,-193.19 264.41,-203.41 270.16,-199.42"/>
</g>
<!-- Node9 -->
<g id="node9" class="node">
<title>Node9</title>
<g id="a_node9"><a xlink:href="ip__option__impl_8hpp.html" target="_top" xlink:title=" ">
<polygon fill="white" stroke="black" points="75.57,-174 75.57,-193 173.57,-193 173.57,-174 75.57,-174"/>
<text text-anchor="middle" x="124.57" y="-181" font-family="Helvetica" font-size="10.00">ip_option_impl.hpp</text>
</a>
</g>
</g>
<!-- Node7&#45;&gt;Node9 -->
<g id="edge9" class="edge">
<title>Node7&#45;&gt;Node9</title>
<path fill="none" stroke="midnightblue" d="M262.38,-235.4C230.96,-223.79 186.89,-207.51 157.12,-196.52"/>
<polygon fill="midnightblue" stroke="midnightblue" points="158.2,-193.19 147.61,-193.01 155.78,-199.75 158.2,-193.19"/>
</g>
<!-- Node9&#45;&gt;Node5 -->
<g id="edge10" class="edge">
<title>Node9&#45;&gt;Node5</title>
<path fill="none" stroke="midnightblue" d="M157.97,-173.99C166.01,-171.98 174.59,-169.88 182.57,-168 234.67,-155.72 294.52,-142.57 335.66,-133.67"/>
<polygon fill="midnightblue" stroke="midnightblue" points="336.41,-137.09 345.44,-131.56 334.93,-130.25 336.41,-137.09"/>
</g>
<!-- Node10 -->
<g id="node10" class="node">
<title>Node10</title>
<g id="a_node10"><a xlink:href="option__impl_8hpp.html" target="_top" xlink:title=" ">
<polygon fill="white" stroke="black" points="82.07,-112.5 82.07,-131.5 167.07,-131.5 167.07,-112.5 82.07,-112.5"/>
<text text-anchor="middle" x="124.57" y="-119.5" font-family="Helvetica" font-size="10.00">option_impl.hpp</text>
</a>
</g>
</g>
<!-- Node9&#45;&gt;Node10 -->
<g id="edge11" class="edge">
<title>Node9&#45;&gt;Node10</title>
<path fill="none" stroke="midnightblue" d="M124.57,-173.98C124.57,-165.58 124.57,-152.48 124.57,-141.66"/>
<polygon fill="midnightblue" stroke="midnightblue" points="128.07,-141.51 124.57,-131.51 121.07,-141.51 128.07,-141.51"/>
</g>
<!-- Node11 -->
<g id="node11" class="node">
<title>Node11</title>
<g id="a_node11"><a xlink:title=" ">
<polygon fill="white" stroke="#bfbfbf" points="5.57,-0.5 5.57,-19.5 51.57,-19.5 51.57,-0.5 5.57,-0.5"/>
<text text-anchor="middle" x="28.57" y="-7.5" font-family="Helvetica" font-size="10.00">cstdint</text>
</a>
</g>
</g>
<!-- Node10&#45;&gt;Node11 -->
<g id="edge12" class="edge">
<title>Node10&#45;&gt;Node11</title>
<path fill="none" stroke="midnightblue" d="M81.85,-117.06C54.84,-112.1 21.87,-100.96 4.57,-76 -5.66,-61.24 4.21,-41.59 14.21,-27.77"/>
<polygon fill="midnightblue" stroke="midnightblue" points="17.17,-29.67 20.59,-19.64 11.66,-25.35 17.17,-29.67"/>
</g>
<!-- Node12 -->
<g id="node12" class="node">
<title>Node12</title>
<g id="a_node12"><a xlink:title=" ">
<polygon fill="white" stroke="#bfbfbf" points="150.07,-56.5 150.07,-75.5 203.07,-75.5 203.07,-56.5 150.07,-56.5"/>
<text text-anchor="middle" x="176.57" y="-63.5" font-family="Helvetica" font-size="10.00">memory</text>
</a>
</g>
</g>
<!-- Node10&#45;&gt;Node12 -->
<g id="edge13" class="edge">
<title>Node10&#45;&gt;Node12</title>
<path fill="none" stroke="midnightblue" d="M133.16,-112.08C140.73,-104.22 151.95,-92.57 161.09,-83.08"/>
<polygon fill="midnightblue" stroke="midnightblue" points="163.73,-85.38 168.15,-75.75 158.69,-80.53 163.73,-85.38"/>
</g>
<!-- Node13 -->
<g id="node13" class="node">
<title>Node13</title>
<g id="a_node13"><a xlink:href="implementation_2service__discovery_2include_2enumeration__types_8hpp.html" target="_top" xlink:title=" ">
<polygon fill="white" stroke="black" points="13.57,-56.5 13.57,-75.5 131.57,-75.5 131.57,-56.5 13.57,-56.5"/>
<text text-anchor="middle" x="72.57" y="-63.5" font-family="Helvetica" font-size="10.00">enumeration_types.hpp</text>
</a>
</g>
</g>
<!-- Node10&#45;&gt;Node13 -->
<g id="edge14" class="edge">
<title>Node10&#45;&gt;Node13</title>
<path fill="none" stroke="midnightblue" d="M115.99,-112.08C108.41,-104.22 97.2,-92.57 88.06,-83.08"/>
<polygon fill="midnightblue" stroke="midnightblue" points="90.46,-80.53 81,-75.75 85.42,-85.38 90.46,-80.53"/>
</g>
<!-- Node14 -->
<g id="node14" class="node">
<title>Node14</title>
<g id="a_node14"><a xlink:href="message__element__impl_8hpp.html" target="_top" xlink:title=" ">
<polygon fill="white" stroke="black" points="221.57,-56.5 221.57,-75.5 359.57,-75.5 359.57,-56.5 221.57,-56.5"/>
<text text-anchor="middle" x="290.57" y="-63.5" font-family="Helvetica" font-size="10.00">message_element_impl.hpp</text>
</a>
</g>
</g>
<!-- Node10&#45;&gt;Node14 -->
<g id="edge16" class="edge">
<title>Node10&#45;&gt;Node14</title>
<path fill="none" stroke="midnightblue" d="M150.88,-112.44C178.92,-103.32 223.52,-88.81 254.76,-78.65"/>
<polygon fill="midnightblue" stroke="midnightblue" points="255.97,-81.94 264.39,-75.52 253.8,-75.28 255.97,-81.94"/>
</g>
<!-- Node13&#45;&gt;Node11 -->
<g id="edge15" class="edge">
<title>Node13&#45;&gt;Node11</title>
<path fill="none" stroke="midnightblue" d="M65.31,-56.08C59.03,-48.38 49.79,-37.03 42.14,-27.65"/>
<polygon fill="midnightblue" stroke="midnightblue" points="44.73,-25.29 35.7,-19.75 39.31,-29.71 44.73,-25.29"/>
</g>
<!-- Node15&#45;&gt;Node5 -->
<g id="edge20" class="edge">
<title>Node15&#45;&gt;Node5</title>
<path fill="none" stroke="midnightblue" d="M564.43,-235.29C560.94,-217.13 552.34,-185.91 532.57,-168 514.06,-151.22 489.44,-140.7 465.64,-134.1"/>
<polygon fill="midnightblue" stroke="midnightblue" points="466.43,-130.69 455.87,-131.59 464.68,-137.46 466.43,-130.69"/>
</g>
<!-- Node16 -->
<g id="node16" class="node">
<title>Node16</title>
<g id="a_node16"><a xlink:title=" ">
<polygon fill="white" stroke="#bfbfbf" points="580.07,-174 580.07,-193 623.07,-193 623.07,-174 580.07,-174"/>
<text text-anchor="middle" x="601.57" y="-181" font-family="Helvetica" font-size="10.00">vector</text>
</a>
</g>
</g>
<!-- Node15&#45;&gt;Node16 -->
<g id="edge18" class="edge">
<title>Node15&#45;&gt;Node16</title>
<path fill="none" stroke="midnightblue" d="M574.17,-235.4C579.41,-225.66 586.42,-212.65 592.04,-202.21"/>
<polygon fill="midnightblue" stroke="midnightblue" points="595.23,-203.66 596.89,-193.19 589.07,-200.34 595.23,-203.66"/>
</g>
<!-- Node17 -->
<g id="node17" class="node">
<title>Node17</title>
<g id="a_node17"><a xlink:title=" ">
<polygon fill="white" stroke="#bfbfbf" points="641.57,-174 641.57,-193 743.57,-193 743.57,-174 641.57,-174"/>
<text text-anchor="middle" x="692.57" y="-181" font-family="Helvetica" font-size="10.00">vsomeip/export.hpp</text>
</a>
</g>
</g>
<!-- Node15&#45;&gt;Node17 -->
<g id="edge19" class="edge">
<title>Node15&#45;&gt;Node17</title>
<path fill="none" stroke="midnightblue" d="M593.91,-235.4C615.63,-224.19 645.78,-208.64 667.01,-197.69"/>
<polygon fill="midnightblue" stroke="midnightblue" points="668.8,-200.7 676.08,-193.01 665.59,-194.48 668.8,-200.7"/>
</g>
<!-- Node18&#45;&gt;Node5 -->
<g id="edge24" class="edge">
<title>Node18&#45;&gt;Node5</title>
<path fill="none" stroke="midnightblue" d="M715.47,-235.36C739.8,-218.63 772.25,-190.24 752.57,-168 733.89,-146.89 568.07,-133.56 465.82,-127.28"/>
<polygon fill="midnightblue" stroke="midnightblue" points="466.02,-123.78 455.82,-126.67 465.59,-130.77 466.02,-123.78"/>
</g>
<!-- Node18&#45;&gt;Node16 -->
<g id="edge22" class="edge">
<title>Node18&#45;&gt;Node16</title>
<path fill="none" stroke="midnightblue" d="M672.83,-235.4C657.71,-224.6 636.93,-209.76 621.72,-198.89"/>
<polygon fill="midnightblue" stroke="midnightblue" points="623.66,-195.97 613.48,-193.01 619.59,-201.67 623.66,-195.97"/>
</g>
<!-- Node18&#45;&gt;Node17 -->
<g id="edge23" class="edge">
<title>Node18&#45;&gt;Node17</title>
<path fill="none" stroke="midnightblue" d="M692.57,-235.4C692.57,-226.06 692.57,-213.71 692.57,-203.52"/>
<polygon fill="midnightblue" stroke="midnightblue" points="696.07,-203.19 692.57,-193.19 689.07,-203.19 696.07,-203.19"/>
</g>
</g>
</svg>
