<?xml version="1.0" encoding="UTF-8" standalone="no"?>
<!DOCTYPE svg PUBLIC "-//W3C//DTD SVG 1.1//EN"
 "http://www.w3.org/Graphics/SVG/1.1/DTD/svg11.dtd">
<!-- Generated by graphviz version 2.44.0 (0)
 -->
<!-- Title: /home/ec2&#45;user/workspace/vsomeip/implementation/service_discovery/src/load_balancing_option_impl.cpp Pages: 1 -->
<svg width="676pt" height="296pt"
 viewBox="0.00 0.00 675.50 296.00" xmlns="http://www.w3.org/2000/svg" xmlns:xlink="http://www.w3.org/1999/xlink">
<g id="graph0" class="graph" transform="scale(1 1) rotate(0) translate(4 292)">
<title>/home/ec2&#45;user/workspace/vsomeip/implementation/service_discovery/src/load_balancing_option_impl.cpp</title>
<polygon fill="white" stroke="transparent" points="-4,4 -4,-292 671.5,-292 671.5,4 -4,4"/>
<!-- Node1 -->
<g id="node1" class="node">
<title>Node1</title>
<g id="a_node1"><a xlink:title=" ">
<polygon fill="#bfbfbf" stroke="black" points="312,-235.5 312,-287.5 449,-287.5 449,-235.5 312,-235.5"/>
<text text-anchor="start" x="320" y="-275.5" font-family="Helvetica" font-size="10.00">/home/ec2&#45;user/workspace</text>
<text text-anchor="start" x="320" y="-264.5" font-family="Helvetica" font-size="10.00">/vsomeip/implementation</text>
<text text-anchor="start" x="320" y="-253.5" font-family="Helvetica" font-size="10.00">/service_discovery/src/load</text>
<text text-anchor="middle" x="380.5" y="-242.5" font-family="Helvetica" font-size="10.00">_balancing_option_impl.cpp</text>
</a>
</g>
</g>
<!-- Node2 -->
<g id="node2" class="node">
<title>Node2</title>
<g id="a_node2"><a xlink:href="load__balancing__option__impl_8hpp.html" target="_top" xlink:title=" ">
<polygon fill="white" stroke="black" points="184.5,-168.5 184.5,-198.5 308.5,-198.5 308.5,-168.5 184.5,-168.5"/>
<text text-anchor="start" x="192.5" y="-186.5" font-family="Helvetica" font-size="10.00">../include/load_balancing</text>
<text text-anchor="middle" x="246.5" y="-175.5" font-family="Helvetica" font-size="10.00">_option_impl.hpp</text>
</a>
</g>
</g>
<!-- Node1&#45;&gt;Node2 -->
<g id="edge1" class="edge">
<title>Node1&#45;&gt;Node2</title>
<path fill="none" stroke="midnightblue" d="M336.25,-235.4C318.11,-225.12 297.45,-213.4 280.53,-203.8"/>
<polygon fill="midnightblue" stroke="midnightblue" points="281.97,-200.6 271.55,-198.71 278.52,-206.68 281.97,-200.6"/>
</g>
<!-- Node9 -->
<g id="node9" class="node">
<title>Node9</title>
<g id="a_node9"><a xlink:href="message_2include_2deserializer_8hpp.html" target="_top" xlink:title=" ">
<polygon fill="white" stroke="black" points="452.5,-168.5 452.5,-198.5 560.5,-198.5 560.5,-168.5 452.5,-168.5"/>
<text text-anchor="start" x="460.5" y="-186.5" font-family="Helvetica" font-size="10.00">../../message/include</text>
<text text-anchor="middle" x="506.5" y="-175.5" font-family="Helvetica" font-size="10.00">/deserializer.hpp</text>
</a>
</g>
</g>
<!-- Node1&#45;&gt;Node9 -->
<g id="edge10" class="edge">
<title>Node1&#45;&gt;Node9</title>
<path fill="none" stroke="midnightblue" d="M422.11,-235.4C439,-225.21 458.23,-213.61 474.06,-204.07"/>
<polygon fill="midnightblue" stroke="midnightblue" points="476.19,-206.87 482.95,-198.71 472.58,-200.87 476.19,-206.87"/>
</g>
<!-- Node13 -->
<g id="node13" class="node">
<title>Node13</title>
<g id="a_node13"><a xlink:href="serializer_8hpp.html" target="_top" xlink:title=" ">
<polygon fill="white" stroke="black" points="326.5,-168.5 326.5,-198.5 434.5,-198.5 434.5,-168.5 326.5,-168.5"/>
<text text-anchor="start" x="334.5" y="-186.5" font-family="Helvetica" font-size="10.00">../../message/include</text>
<text text-anchor="middle" x="380.5" y="-175.5" font-family="Helvetica" font-size="10.00">/serializer.hpp</text>
</a>
</g>
</g>
<!-- Node1&#45;&gt;Node13 -->
<g id="edge14" class="edge">
<title>Node1&#45;&gt;Node13</title>
<path fill="none" stroke="midnightblue" d="M380.5,-235.19C380.5,-226.79 380.5,-217.44 380.5,-209.09"/>
<polygon fill="midnightblue" stroke="midnightblue" points="384,-208.85 380.5,-198.85 377,-208.85 384,-208.85"/>
</g>
<!-- Node3 -->
<g id="node3" class="node">
<title>Node3</title>
<g id="a_node3"><a xlink:href="implementation_2service__discovery_2include_2primitive__types_8hpp.html" target="_top" xlink:title=" ">
<polygon fill="white" stroke="black" points="0,-56.5 0,-75.5 101,-75.5 101,-56.5 0,-56.5"/>
<text text-anchor="middle" x="50.5" y="-63.5" font-family="Helvetica" font-size="10.00">primitive_types.hpp</text>
</a>
</g>
</g>
<!-- Node2&#45;&gt;Node3 -->
<g id="edge2" class="edge">
<title>Node2&#45;&gt;Node3</title>
<path fill="none" stroke="midnightblue" d="M222.47,-168.34C184.58,-146.01 111.45,-102.91 73.94,-80.81"/>
<polygon fill="midnightblue" stroke="midnightblue" points="75.6,-77.73 65.21,-75.67 72.05,-83.76 75.6,-77.73"/>
</g>
<!-- Node5 -->
<g id="node5" class="node">
<title>Node5</title>
<g id="a_node5"><a xlink:href="option__impl_8hpp.html" target="_top" xlink:title=" ">
<polygon fill="white" stroke="black" points="217,-112.5 217,-131.5 302,-131.5 302,-112.5 217,-112.5"/>
<text text-anchor="middle" x="259.5" y="-119.5" font-family="Helvetica" font-size="10.00">option_impl.hpp</text>
</a>
</g>
</g>
<!-- Node2&#45;&gt;Node5 -->
<g id="edge4" class="edge">
<title>Node2&#45;&gt;Node5</title>
<path fill="none" stroke="midnightblue" d="M249.58,-168.4C251.33,-160.38 253.55,-150.23 255.44,-141.57"/>
<polygon fill="midnightblue" stroke="midnightblue" points="258.89,-142.17 257.61,-131.66 252.05,-140.68 258.89,-142.17"/>
</g>
<!-- Node4 -->
<g id="node4" class="node">
<title>Node4</title>
<g id="a_node4"><a xlink:title=" ">
<polygon fill="white" stroke="#bfbfbf" points="333.5,-0.5 333.5,-19.5 379.5,-19.5 379.5,-0.5 333.5,-0.5"/>
<text text-anchor="middle" x="356.5" y="-7.5" font-family="Helvetica" font-size="10.00">cstdint</text>
</a>
</g>
</g>
<!-- Node3&#45;&gt;Node4 -->
<g id="edge3" class="edge">
<title>Node3&#45;&gt;Node4</title>
<path fill="none" stroke="midnightblue" d="M98.99,-56.44C161.71,-45.37 269.32,-26.38 323.41,-16.84"/>
<polygon fill="midnightblue" stroke="midnightblue" points="324.25,-20.25 333.49,-15.06 323.03,-13.35 324.25,-20.25"/>
</g>
<!-- Node5&#45;&gt;Node4 -->
<g id="edge5" class="edge">
<title>Node5&#45;&gt;Node4</title>
<path fill="none" stroke="midnightblue" d="M284.33,-112.41C301.6,-105.22 323.88,-93.33 337.5,-76 347.93,-62.72 352.64,-43.89 354.76,-29.91"/>
<polygon fill="midnightblue" stroke="midnightblue" points="358.24,-30.28 355.97,-19.94 351.29,-29.44 358.24,-30.28"/>
</g>
<!-- Node6 -->
<g id="node6" class="node">
<title>Node6</title>
<g id="a_node6"><a xlink:title=" ">
<polygon fill="white" stroke="#bfbfbf" points="119,-56.5 119,-75.5 172,-75.5 172,-56.5 119,-56.5"/>
<text text-anchor="middle" x="145.5" y="-63.5" font-family="Helvetica" font-size="10.00">memory</text>
</a>
</g>
</g>
<!-- Node5&#45;&gt;Node6 -->
<g id="edge6" class="edge">
<title>Node5&#45;&gt;Node6</title>
<path fill="none" stroke="midnightblue" d="M241.44,-112.44C222.93,-103.68 193.92,-89.94 172.64,-79.86"/>
<polygon fill="midnightblue" stroke="midnightblue" points="174.01,-76.63 163.48,-75.52 171.02,-82.96 174.01,-76.63"/>
</g>
<!-- Node7 -->
<g id="node7" class="node">
<title>Node7</title>
<g id="a_node7"><a xlink:href="implementation_2service__discovery_2include_2enumeration__types_8hpp.html" target="_top" xlink:title=" ">
<polygon fill="white" stroke="black" points="384.5,-56.5 384.5,-75.5 502.5,-75.5 502.5,-56.5 384.5,-56.5"/>
<text text-anchor="middle" x="443.5" y="-63.5" font-family="Helvetica" font-size="10.00">enumeration_types.hpp</text>
</a>
</g>
</g>
<!-- Node5&#45;&gt;Node7 -->
<g id="edge7" class="edge">
<title>Node5&#45;&gt;Node7</title>
<path fill="none" stroke="midnightblue" d="M288.66,-112.44C320.01,-103.24 370.03,-88.56 404.7,-78.39"/>
<polygon fill="midnightblue" stroke="midnightblue" points="405.87,-81.69 414.48,-75.52 403.9,-74.97 405.87,-81.69"/>
</g>
<!-- Node8 -->
<g id="node8" class="node">
<title>Node8</title>
<g id="a_node8"><a xlink:href="message__element__impl_8hpp.html" target="_top" xlink:title=" ">
<polygon fill="white" stroke="black" points="190.5,-56.5 190.5,-75.5 328.5,-75.5 328.5,-56.5 190.5,-56.5"/>
<text text-anchor="middle" x="259.5" y="-63.5" font-family="Helvetica" font-size="10.00">message_element_impl.hpp</text>
</a>
</g>
</g>
<!-- Node5&#45;&gt;Node8 -->
<g id="edge9" class="edge">
<title>Node5&#45;&gt;Node8</title>
<path fill="none" stroke="midnightblue" d="M259.5,-112.08C259.5,-105.01 259.5,-94.86 259.5,-85.99"/>
<polygon fill="midnightblue" stroke="midnightblue" points="263,-85.75 259.5,-75.75 256,-85.75 263,-85.75"/>
</g>
<!-- Node7&#45;&gt;Node4 -->
<g id="edge8" class="edge">
<title>Node7&#45;&gt;Node4</title>
<path fill="none" stroke="midnightblue" d="M429.52,-56.32C415.95,-47.9 395.12,-34.97 379.18,-25.07"/>
<polygon fill="midnightblue" stroke="midnightblue" points="380.79,-21.95 370.44,-19.65 377.09,-27.9 380.79,-21.95"/>
</g>
<!-- Node10 -->
<g id="node10" class="node">
<title>Node10</title>
<g id="a_node10"><a xlink:title=" ">
<polygon fill="white" stroke="#bfbfbf" points="346,-112.5 346,-131.5 389,-131.5 389,-112.5 346,-112.5"/>
<text text-anchor="middle" x="367.5" y="-119.5" font-family="Helvetica" font-size="10.00">vector</text>
</a>
</g>
</g>
<!-- Node9&#45;&gt;Node10 -->
<g id="edge11" class="edge">
<title>Node9&#45;&gt;Node10</title>
<path fill="none" stroke="midnightblue" d="M473.56,-168.4C450.34,-158.46 419.51,-145.26 397.08,-135.66"/>
<polygon fill="midnightblue" stroke="midnightblue" points="398.3,-132.38 387.73,-131.66 395.54,-138.81 398.3,-132.38"/>
</g>
<!-- Node11 -->
<g id="node11" class="node">
<title>Node11</title>
<g id="a_node11"><a xlink:title=" ">
<polygon fill="white" stroke="#bfbfbf" points="407.5,-112.5 407.5,-131.5 509.5,-131.5 509.5,-112.5 407.5,-112.5"/>
<text text-anchor="middle" x="458.5" y="-119.5" font-family="Helvetica" font-size="10.00">vsomeip/export.hpp</text>
</a>
</g>
</g>
<!-- Node9&#45;&gt;Node11 -->
<g id="edge12" class="edge">
<title>Node9&#45;&gt;Node11</title>
<path fill="none" stroke="midnightblue" d="M495.12,-168.4C488.15,-159.75 479.19,-148.64 471.87,-139.58"/>
<polygon fill="midnightblue" stroke="midnightblue" points="474.49,-137.24 465.48,-131.66 469.04,-141.64 474.49,-137.24"/>
</g>
<!-- Node12 -->
<g id="node12" class="node">
<title>Node12</title>
<g id="a_node12"><a xlink:title=" ">
<polygon fill="white" stroke="#bfbfbf" points="527.5,-112.5 527.5,-131.5 667.5,-131.5 667.5,-112.5 527.5,-112.5"/>
<text text-anchor="middle" x="597.5" y="-119.5" font-family="Helvetica" font-size="10.00">vsomeip/primitive_types.hpp</text>
</a>
</g>
</g>
<!-- Node9&#45;&gt;Node12 -->
<g id="edge13" class="edge">
<title>Node9&#45;&gt;Node12</title>
<path fill="none" stroke="midnightblue" d="M528.07,-168.4C542.38,-159.04 561.11,-146.79 575.51,-137.38"/>
<polygon fill="midnightblue" stroke="midnightblue" points="577.8,-140.06 584.26,-131.66 573.97,-134.2 577.8,-140.06"/>
</g>
<!-- Node13&#45;&gt;Node10 -->
<g id="edge15" class="edge">
<title>Node13&#45;&gt;Node10</title>
<path fill="none" stroke="midnightblue" d="M377.42,-168.4C375.67,-160.38 373.45,-150.23 371.56,-141.57"/>
<polygon fill="midnightblue" stroke="midnightblue" points="374.95,-140.68 369.39,-131.66 368.11,-142.17 374.95,-140.68"/>
</g>
<!-- Node13&#45;&gt;Node11 -->
<g id="edge16" class="edge">
<title>Node13&#45;&gt;Node11</title>
<path fill="none" stroke="midnightblue" d="M398.98,-168.4C411.02,-159.22 426.7,-147.26 438.94,-137.92"/>
<polygon fill="midnightblue" stroke="midnightblue" points="441.32,-140.51 447.15,-131.66 437.08,-134.94 441.32,-140.51"/>
</g>
<!-- Node13&#45;&gt;Node12 -->
<g id="edge17" class="edge">
<title>Node13&#45;&gt;Node12</title>
<path fill="none" stroke="midnightblue" d="M431.65,-168.47C469.74,-158.03 521.07,-143.96 556.48,-134.25"/>
<polygon fill="midnightblue" stroke="midnightblue" points="557.76,-137.53 566.48,-131.51 555.91,-130.78 557.76,-137.53"/>
</g>
</g>
</svg>
