<?xml version="1.0" encoding="UTF-8" standalone="no"?>
<!DOCTYPE svg PUBLIC "-//W3C//DTD SVG 1.1//EN"
 "http://www.w3.org/Graphics/SVG/1.1/DTD/svg11.dtd">
<!-- Generated by graphviz version 2.44.0 (0)
 -->
<!-- Title: /home/ec2&#45;user/workspace/vsomeip/implementation/service_discovery/include/load_balancing_option_impl.hpp Pages: 1 -->
<svg width="471pt" height="229pt"
 viewBox="0.00 0.00 470.50 229.00" xmlns="http://www.w3.org/2000/svg" xmlns:xlink="http://www.w3.org/1999/xlink">
<g id="graph0" class="graph" transform="scale(1 1) rotate(0) translate(4 225)">
<title>/home/ec2&#45;user/workspace/vsomeip/implementation/service_discovery/include/load_balancing_option_impl.hpp</title>
<polygon fill="white" stroke="transparent" points="-4,4 -4,-225 466.5,-225 466.5,4 -4,4"/>
<!-- Node1 -->
<g id="node1" class="node">
<title>Node1</title>
<g id="a_node1"><a xlink:title=" ">
<polygon fill="#bfbfbf" stroke="black" points="26.5,-168.5 26.5,-220.5 184.5,-220.5 184.5,-168.5 26.5,-168.5"/>
<text text-anchor="start" x="34.5" y="-208.5" font-family="Helvetica" font-size="10.00">/home/ec2&#45;user/workspace</text>
<text text-anchor="start" x="34.5" y="-197.5" font-family="Helvetica" font-size="10.00">/vsomeip/implementation</text>
<text text-anchor="start" x="34.5" y="-186.5" font-family="Helvetica" font-size="10.00">/service_discovery/include</text>
<text text-anchor="middle" x="105.5" y="-175.5" font-family="Helvetica" font-size="10.00">/load_balancing_option_impl.hpp</text>
</a>
</g>
</g>
<!-- Node2 -->
<g id="node2" class="node">
<title>Node2</title>
<g id="a_node2"><a xlink:href="implementation_2service__discovery_2include_2primitive__types_8hpp.html" target="_top" xlink:title=" ">
<polygon fill="white" stroke="black" points="0,-112.5 0,-131.5 101,-131.5 101,-112.5 0,-112.5"/>
<text text-anchor="middle" x="50.5" y="-119.5" font-family="Helvetica" font-size="10.00">primitive_types.hpp</text>
</a>
</g>
</g>
<!-- Node1&#45;&gt;Node2 -->
<g id="edge1" class="edge">
<title>Node1&#45;&gt;Node2</title>
<path fill="none" stroke="midnightblue" d="M85.95,-168.45C78.53,-158.93 70.26,-148.33 63.57,-139.76"/>
<polygon fill="midnightblue" stroke="midnightblue" points="66.19,-137.43 57.28,-131.7 60.68,-141.73 66.19,-137.43"/>
</g>
<!-- Node4 -->
<g id="node4" class="node">
<title>Node4</title>
<g id="a_node4"><a xlink:href="option__impl_8hpp.html" target="_top" xlink:title=" ">
<polygon fill="white" stroke="black" points="119,-112.5 119,-131.5 204,-131.5 204,-112.5 119,-112.5"/>
<text text-anchor="middle" x="161.5" y="-119.5" font-family="Helvetica" font-size="10.00">option_impl.hpp</text>
</a>
</g>
</g>
<!-- Node1&#45;&gt;Node4 -->
<g id="edge3" class="edge">
<title>Node1&#45;&gt;Node4</title>
<path fill="none" stroke="midnightblue" d="M125.4,-168.45C132.96,-158.93 141.38,-148.33 148.19,-139.76"/>
<polygon fill="midnightblue" stroke="midnightblue" points="151.11,-141.7 154.59,-131.7 145.63,-137.35 151.11,-141.7"/>
</g>
<!-- Node3 -->
<g id="node3" class="node">
<title>Node3</title>
<g id="a_node3"><a xlink:title=" ">
<polygon fill="white" stroke="#bfbfbf" points="65.5,-0.5 65.5,-19.5 111.5,-19.5 111.5,-0.5 65.5,-0.5"/>
<text text-anchor="middle" x="88.5" y="-7.5" font-family="Helvetica" font-size="10.00">cstdint</text>
</a>
</g>
</g>
<!-- Node2&#45;&gt;Node3 -->
<g id="edge2" class="edge">
<title>Node2&#45;&gt;Node3</title>
<path fill="none" stroke="midnightblue" d="M53.48,-112.37C59.64,-94.54 73.89,-53.3 82.19,-29.27"/>
<polygon fill="midnightblue" stroke="midnightblue" points="85.57,-30.19 85.53,-19.59 78.96,-27.9 85.57,-30.19"/>
</g>
<!-- Node4&#45;&gt;Node3 -->
<g id="edge4" class="edge">
<title>Node4&#45;&gt;Node3</title>
<path fill="none" stroke="midnightblue" d="M147.04,-112.44C134.8,-104.47 117.67,-91.51 107.5,-76 98.34,-62.02 93.49,-43.52 90.99,-29.83"/>
<polygon fill="midnightblue" stroke="midnightblue" points="94.41,-29.01 89.4,-19.67 87.49,-30.09 94.41,-29.01"/>
</g>
<!-- Node5 -->
<g id="node5" class="node">
<title>Node5</title>
<g id="a_node5"><a xlink:title=" ">
<polygon fill="white" stroke="#bfbfbf" points="117,-56.5 117,-75.5 170,-75.5 170,-56.5 117,-56.5"/>
<text text-anchor="middle" x="143.5" y="-63.5" font-family="Helvetica" font-size="10.00">memory</text>
</a>
</g>
</g>
<!-- Node4&#45;&gt;Node5 -->
<g id="edge5" class="edge">
<title>Node4&#45;&gt;Node5</title>
<path fill="none" stroke="midnightblue" d="M158.53,-112.08C156.12,-104.85 152.64,-94.41 149.63,-85.4"/>
<polygon fill="midnightblue" stroke="midnightblue" points="152.9,-84.13 146.42,-75.75 146.26,-86.34 152.9,-84.13"/>
</g>
<!-- Node6 -->
<g id="node6" class="node">
<title>Node6</title>
<g id="a_node6"><a xlink:href="implementation_2service__discovery_2include_2enumeration__types_8hpp.html" target="_top" xlink:title=" ">
<polygon fill="white" stroke="black" points="188.5,-56.5 188.5,-75.5 306.5,-75.5 306.5,-56.5 188.5,-56.5"/>
<text text-anchor="middle" x="247.5" y="-63.5" font-family="Helvetica" font-size="10.00">enumeration_types.hpp</text>
</a>
</g>
</g>
<!-- Node4&#45;&gt;Node6 -->
<g id="edge6" class="edge">
<title>Node4&#45;&gt;Node6</title>
<path fill="none" stroke="midnightblue" d="M175.32,-112.32C188.73,-103.9 209.32,-90.97 225.09,-81.07"/>
<polygon fill="midnightblue" stroke="midnightblue" points="227.11,-83.94 233.72,-75.65 223.39,-78.01 227.11,-83.94"/>
</g>
<!-- Node7 -->
<g id="node7" class="node">
<title>Node7</title>
<g id="a_node7"><a xlink:href="message__element__impl_8hpp.html" target="_top" xlink:title=" ">
<polygon fill="white" stroke="black" points="324.5,-56.5 324.5,-75.5 462.5,-75.5 462.5,-56.5 324.5,-56.5"/>
<text text-anchor="middle" x="393.5" y="-63.5" font-family="Helvetica" font-size="10.00">message_element_impl.hpp</text>
</a>
</g>
</g>
<!-- Node4&#45;&gt;Node7 -->
<g id="edge8" class="edge">
<title>Node4&#45;&gt;Node7</title>
<path fill="none" stroke="midnightblue" d="M198.26,-112.44C238.56,-103.06 303.31,-87.99 347.08,-77.8"/>
<polygon fill="midnightblue" stroke="midnightblue" points="347.96,-81.19 356.91,-75.52 346.38,-74.37 347.96,-81.19"/>
</g>
<!-- Node6&#45;&gt;Node3 -->
<g id="edge7" class="edge">
<title>Node6&#45;&gt;Node3</title>
<path fill="none" stroke="midnightblue" d="M222.31,-56.44C194.93,-47.15 151.09,-32.26 121.11,-22.07"/>
<polygon fill="midnightblue" stroke="midnightblue" points="122.11,-18.72 111.51,-18.82 119.85,-25.35 122.11,-18.72"/>
</g>
</g>
</svg>
