<?xml version="1.0" encoding="UTF-8" standalone="no"?>
<!DOCTYPE svg PUBLIC "-//W3C//DTD SVG 1.1//EN"
 "http://www.w3.org/Graphics/SVG/1.1/DTD/svg11.dtd">
<!-- Generated by graphviz version 2.44.0 (0)
 -->
<!-- Title: /home/ec2&#45;user/workspace/vsomeip/implementation/endpoints/include/local_tcp_server_endpoint_impl.hpp Pages: 1 -->
<svg width="598pt" height="150pt"
 viewBox="0.00 0.00 598.00 150.00" xmlns="http://www.w3.org/2000/svg" xmlns:xlink="http://www.w3.org/1999/xlink">
<g id="graph0" class="graph" transform="scale(1 1) rotate(0) translate(4 146)">
<title>/home/ec2&#45;user/workspace/vsomeip/implementation/endpoints/include/local_tcp_server_endpoint_impl.hpp</title>
<polygon fill="white" stroke="transparent" points="-4,4 -4,-146 594,-146 594,4 -4,4"/>
<!-- Node1 -->
<g id="node1" class="node">
<title>Node1</title>
<g id="a_node1"><a xlink:title=" ">
<polygon fill="#bfbfbf" stroke="black" points="219,-89.5 219,-141.5 371,-141.5 371,-89.5 219,-89.5"/>
<text text-anchor="start" x="227" y="-129.5" font-family="Helvetica" font-size="10.00">/home/ec2&#45;user/workspace</text>
<text text-anchor="start" x="227" y="-118.5" font-family="Helvetica" font-size="10.00">/vsomeip/implementation</text>
<text text-anchor="start" x="227" y="-107.5" font-family="Helvetica" font-size="10.00">/endpoints/include/local</text>
<text text-anchor="middle" x="295" y="-96.5" font-family="Helvetica" font-size="10.00">_tcp_server_endpoint_impl.hpp</text>
</a>
</g>
</g>
<!-- Node2 -->
<g id="node2" class="node">
<title>Node2</title>
<g id="a_node2"><a xlink:href="endpoint__manager__base_8cpp.html" target="_top" xlink:title=" ">
<polygon fill="white" stroke="black" points="0,-0.5 0,-52.5 134,-52.5 134,-0.5 0,-0.5"/>
<text text-anchor="start" x="8" y="-40.5" font-family="Helvetica" font-size="10.00">/home/ec2&#45;user/workspace</text>
<text text-anchor="start" x="8" y="-29.5" font-family="Helvetica" font-size="10.00">/vsomeip/implementation</text>
<text text-anchor="start" x="8" y="-18.5" font-family="Helvetica" font-size="10.00">/endpoints/src/endpoint</text>
<text text-anchor="middle" x="67" y="-7.5" font-family="Helvetica" font-size="10.00">_manager_base.cpp</text>
</a>
</g>
</g>
<!-- Node1&#45;&gt;Node2 -->
<g id="edge1" class="edge">
<title>Node1&#45;&gt;Node2</title>
<path fill="none" stroke="midnightblue" d="M219.94,-85.86C191.71,-75.09 159.87,-62.94 132.57,-52.52"/>
<polygon fill="midnightblue" stroke="midnightblue" points="218.77,-89.16 229.36,-89.45 221.26,-82.62 218.77,-89.16"/>
</g>
<!-- Node3 -->
<g id="node3" class="node">
<title>Node3</title>
<g id="a_node3"><a xlink:href="endpoint__manager__impl_8cpp.html" target="_top" xlink:title=" ">
<polygon fill="white" stroke="black" points="152,-0.5 152,-52.5 286,-52.5 286,-0.5 152,-0.5"/>
<text text-anchor="start" x="160" y="-40.5" font-family="Helvetica" font-size="10.00">/home/ec2&#45;user/workspace</text>
<text text-anchor="start" x="160" y="-29.5" font-family="Helvetica" font-size="10.00">/vsomeip/implementation</text>
<text text-anchor="start" x="160" y="-18.5" font-family="Helvetica" font-size="10.00">/endpoints/src/endpoint</text>
<text text-anchor="middle" x="219" y="-7.5" font-family="Helvetica" font-size="10.00">_manager_impl.cpp</text>
</a>
</g>
</g>
<!-- Node1&#45;&gt;Node3 -->
<g id="edge2" class="edge">
<title>Node1&#45;&gt;Node3</title>
<path fill="none" stroke="midnightblue" d="M266.43,-81.79C257.99,-72.13 248.88,-61.71 240.93,-52.61"/>
<polygon fill="midnightblue" stroke="midnightblue" points="263.8,-84.11 273.02,-89.34 269.07,-79.5 263.8,-84.11"/>
</g>
<!-- Node4 -->
<g id="node4" class="node">
<title>Node4</title>
<g id="a_node4"><a xlink:href="local__tcp__client__endpoint__impl_8cpp.html" target="_top" xlink:title=" ">
<polygon fill="white" stroke="black" points="304,-0.5 304,-52.5 438,-52.5 438,-0.5 304,-0.5"/>
<text text-anchor="start" x="312" y="-40.5" font-family="Helvetica" font-size="10.00">/home/ec2&#45;user/workspace</text>
<text text-anchor="start" x="312" y="-29.5" font-family="Helvetica" font-size="10.00">/vsomeip/implementation</text>
<text text-anchor="start" x="312" y="-18.5" font-family="Helvetica" font-size="10.00">/endpoints/src/local_tcp</text>
<text text-anchor="middle" x="371" y="-7.5" font-family="Helvetica" font-size="10.00">_client_endpoint_impl.cpp</text>
</a>
</g>
</g>
<!-- Node1&#45;&gt;Node4 -->
<g id="edge3" class="edge">
<title>Node1&#45;&gt;Node4</title>
<path fill="none" stroke="midnightblue" d="M323.57,-81.79C332.01,-72.13 341.12,-61.71 349.07,-52.61"/>
<polygon fill="midnightblue" stroke="midnightblue" points="320.93,-79.5 316.98,-89.34 326.2,-84.11 320.93,-79.5"/>
</g>
<!-- Node5 -->
<g id="node5" class="node">
<title>Node5</title>
<g id="a_node5"><a xlink:href="local__tcp__server__endpoint__impl_8cpp.html" target="_top" xlink:title=" ">
<polygon fill="white" stroke="black" points="456,-0.5 456,-52.5 590,-52.5 590,-0.5 456,-0.5"/>
<text text-anchor="start" x="464" y="-40.5" font-family="Helvetica" font-size="10.00">/home/ec2&#45;user/workspace</text>
<text text-anchor="start" x="464" y="-29.5" font-family="Helvetica" font-size="10.00">/vsomeip/implementation</text>
<text text-anchor="start" x="464" y="-18.5" font-family="Helvetica" font-size="10.00">/endpoints/src/local_tcp</text>
<text text-anchor="middle" x="523" y="-7.5" font-family="Helvetica" font-size="10.00">_server_endpoint_impl.cpp</text>
</a>
</g>
</g>
<!-- Node1&#45;&gt;Node5 -->
<g id="edge4" class="edge">
<title>Node1&#45;&gt;Node5</title>
<path fill="none" stroke="midnightblue" d="M370.06,-85.86C398.29,-75.09 430.13,-62.94 457.43,-52.52"/>
<polygon fill="midnightblue" stroke="midnightblue" points="368.74,-82.62 360.64,-89.45 371.23,-89.16 368.74,-82.62"/>
</g>
</g>
</svg>
