<?xml version="1.0" encoding="UTF-8" standalone="no"?>
<!DOCTYPE svg PUBLIC "-//W3C//DTD SVG 1.1//EN"
 "http://www.w3.org/Graphics/SVG/1.1/DTD/svg11.dtd">
<!-- Generated by graphviz version 2.44.0 (0)
 -->
<!-- Title: /home/ec2&#45;user/workspace/vsomeip/implementation/logger/include/logger_impl.hpp Pages: 1 -->
<svg width="462pt" height="139pt"
 viewBox="0.00 0.00 462.00 139.00" xmlns="http://www.w3.org/2000/svg" xmlns:xlink="http://www.w3.org/1999/xlink">
<g id="graph0" class="graph" transform="scale(1 1) rotate(0) translate(4 135)">
<title>/home/ec2&#45;user/workspace/vsomeip/implementation/logger/include/logger_impl.hpp</title>
<polygon fill="white" stroke="transparent" points="-4,4 -4,-135 458,-135 458,4 -4,4"/>
<!-- Node1 -->
<g id="node1" class="node">
<title>Node1</title>
<g id="a_node1"><a xlink:title=" ">
<polygon fill="#bfbfbf" stroke="black" points="159.5,-89.5 159.5,-130.5 310.5,-130.5 310.5,-89.5 159.5,-89.5"/>
<text text-anchor="start" x="167.5" y="-118.5" font-family="Helvetica" font-size="10.00">/home/ec2&#45;user/workspace</text>
<text text-anchor="start" x="167.5" y="-107.5" font-family="Helvetica" font-size="10.00">/vsomeip/implementation</text>
<text text-anchor="middle" x="235" y="-96.5" font-family="Helvetica" font-size="10.00">/logger/include/logger_impl.hpp</text>
</a>
</g>
</g>
<!-- Node2 -->
<g id="node2" class="node">
<title>Node2</title>
<g id="a_node2"><a xlink:href="configuration__impl_8cpp.html" target="_top" xlink:title=" ">
<polygon fill="white" stroke="black" points="0,-0.5 0,-52.5 150,-52.5 150,-0.5 0,-0.5"/>
<text text-anchor="start" x="8" y="-40.5" font-family="Helvetica" font-size="10.00">/home/ec2&#45;user/workspace</text>
<text text-anchor="start" x="8" y="-29.5" font-family="Helvetica" font-size="10.00">/vsomeip/implementation</text>
<text text-anchor="start" x="8" y="-18.5" font-family="Helvetica" font-size="10.00">/configuration/src/configuration</text>
<text text-anchor="middle" x="75" y="-7.5" font-family="Helvetica" font-size="10.00">_impl.cpp</text>
</a>
</g>
</g>
<!-- Node1&#45;&gt;Node2 -->
<g id="edge1" class="edge">
<title>Node1&#45;&gt;Node2</title>
<path fill="none" stroke="midnightblue" d="M187.74,-84.93C167.74,-74.74 144.44,-62.87 124.23,-52.58"/>
<polygon fill="midnightblue" stroke="midnightblue" points="186.18,-88.06 196.68,-89.48 189.35,-81.82 186.18,-88.06"/>
</g>
<!-- Node3 -->
<g id="node3" class="node">
<title>Node3</title>
<g id="a_node3"><a xlink:href="logger__impl_8cpp.html" target="_top" xlink:title=" ">
<polygon fill="white" stroke="black" points="168,-6 168,-47 302,-47 302,-6 168,-6"/>
<text text-anchor="start" x="176" y="-35" font-family="Helvetica" font-size="10.00">/home/ec2&#45;user/workspace</text>
<text text-anchor="start" x="176" y="-24" font-family="Helvetica" font-size="10.00">/vsomeip/implementation</text>
<text text-anchor="middle" x="235" y="-13" font-family="Helvetica" font-size="10.00">/logger/src/logger_impl.cpp</text>
</a>
</g>
</g>
<!-- Node1&#45;&gt;Node3 -->
<g id="edge2" class="edge">
<title>Node1&#45;&gt;Node3</title>
<path fill="none" stroke="midnightblue" d="M235,-79.06C235,-68.38 235,-56.63 235,-47.05"/>
<polygon fill="midnightblue" stroke="midnightblue" points="231.5,-79.27 235,-89.27 238.5,-79.27 231.5,-79.27"/>
</g>
<!-- Node4 -->
<g id="node4" class="node">
<title>Node4</title>
<g id="a_node4"><a xlink:href="message_8cpp.html" target="_top" xlink:title=" ">
<polygon fill="white" stroke="black" points="320,-6 320,-47 454,-47 454,-6 320,-6"/>
<text text-anchor="start" x="328" y="-35" font-family="Helvetica" font-size="10.00">/home/ec2&#45;user/workspace</text>
<text text-anchor="start" x="328" y="-24" font-family="Helvetica" font-size="10.00">/vsomeip/implementation</text>
<text text-anchor="middle" x="387" y="-13" font-family="Helvetica" font-size="10.00">/logger/src/message.cpp</text>
</a>
</g>
</g>
<!-- Node1&#45;&gt;Node4 -->
<g id="edge3" class="edge">
<title>Node1&#45;&gt;Node4</title>
<path fill="none" stroke="midnightblue" d="M280.41,-84.65C302.85,-72.62 329.56,-58.3 350.63,-47"/>
<polygon fill="midnightblue" stroke="midnightblue" points="278.57,-81.67 271.41,-89.48 281.87,-87.84 278.57,-81.67"/>
</g>
</g>
</svg>
