<?xml version="1.0" encoding="UTF-8" standalone="no"?>
<!DOCTYPE svg PUBLIC "-//W3C//DTD SVG 1.1//EN"
 "http://www.w3.org/Graphics/SVG/1.1/DTD/svg11.dtd">
<!-- Generated by graphviz version 2.44.0 (0)
 -->
<!-- Title: /home/ec2&#45;user/workspace/vsomeip/implementation/logger/include/logger_impl.hpp Pages: 1 -->
<svg width="563pt" height="162pt"
 viewBox="0.00 0.00 562.50 162.00" xmlns="http://www.w3.org/2000/svg" xmlns:xlink="http://www.w3.org/1999/xlink">
<g id="graph0" class="graph" transform="scale(1 1) rotate(0) translate(4 158)">
<title>/home/ec2&#45;user/workspace/vsomeip/implementation/logger/include/logger_impl.hpp</title>
<polygon fill="white" stroke="transparent" points="-4,4 -4,-158 558.5,-158 558.5,4 -4,4"/>
<!-- Node1 -->
<g id="node1" class="node">
<title>Node1</title>
<g id="a_node1"><a xlink:title=" ">
<polygon fill="#bfbfbf" stroke="black" points="6,-112.5 6,-153.5 157,-153.5 157,-112.5 6,-112.5"/>
<text text-anchor="start" x="14" y="-141.5" font-family="Helvetica" font-size="10.00">/home/ec2&#45;user/workspace</text>
<text text-anchor="start" x="14" y="-130.5" font-family="Helvetica" font-size="10.00">/vsomeip/implementation</text>
<text text-anchor="middle" x="81.5" y="-119.5" font-family="Helvetica" font-size="10.00">/logger/include/logger_impl.hpp</text>
</a>
</g>
</g>
<!-- Node2 -->
<g id="node2" class="node">
<title>Node2</title>
<g id="a_node2"><a xlink:title=" ">
<polygon fill="white" stroke="#bfbfbf" points="0,-56.5 0,-75.5 53,-75.5 53,-56.5 0,-56.5"/>
<text text-anchor="middle" x="26.5" y="-63.5" font-family="Helvetica" font-size="10.00">memory</text>
</a>
</g>
</g>
<!-- Node1&#45;&gt;Node2 -->
<g id="edge1" class="edge">
<title>Node1&#45;&gt;Node2</title>
<path fill="none" stroke="midnightblue" d="M65,-112.5C57.13,-103.2 47.83,-92.21 40.34,-83.36"/>
<polygon fill="midnightblue" stroke="midnightblue" points="42.95,-81.03 33.82,-75.65 37.61,-85.55 42.95,-81.03"/>
</g>
<!-- Node3 -->
<g id="node3" class="node">
<title>Node3</title>
<g id="a_node3"><a xlink:title=" ">
<polygon fill="white" stroke="#bfbfbf" points="44.5,-0.5 44.5,-19.5 88.5,-19.5 88.5,-0.5 44.5,-0.5"/>
<text text-anchor="middle" x="66.5" y="-7.5" font-family="Helvetica" font-size="10.00">mutex</text>
</a>
</g>
</g>
<!-- Node1&#45;&gt;Node3 -->
<g id="edge2" class="edge">
<title>Node1&#45;&gt;Node3</title>
<path fill="none" stroke="midnightblue" d="M79.06,-112.29C76.23,-89.48 71.61,-52.19 68.83,-29.78"/>
<polygon fill="midnightblue" stroke="midnightblue" points="72.27,-29.07 67.56,-19.57 65.32,-29.93 72.27,-29.07"/>
</g>
<!-- Node4 -->
<g id="node4" class="node">
<title>Node4</title>
<g id="a_node4"><a xlink:href="logger_8hpp.html" target="_top" xlink:title=" ">
<polygon fill="white" stroke="black" points="158.5,-56.5 158.5,-75.5 294.5,-75.5 294.5,-56.5 158.5,-56.5"/>
<text text-anchor="middle" x="226.5" y="-63.5" font-family="Helvetica" font-size="10.00">vsomeip/internal/logger.hpp</text>
</a>
</g>
</g>
<!-- Node1&#45;&gt;Node4 -->
<g id="edge3" class="edge">
<title>Node1&#45;&gt;Node4</title>
<path fill="none" stroke="midnightblue" d="M125,-112.5C148.63,-101.91 177.16,-89.12 197.95,-79.8"/>
<polygon fill="midnightblue" stroke="midnightblue" points="199.5,-82.94 207.2,-75.65 196.64,-76.55 199.5,-82.94"/>
</g>
<!-- Node4&#45;&gt;Node3 -->
<g id="edge6" class="edge">
<title>Node4&#45;&gt;Node3</title>
<path fill="none" stroke="midnightblue" d="M201.15,-56.44C173.28,-47.04 128.47,-31.91 98.28,-21.72"/>
<polygon fill="midnightblue" stroke="midnightblue" points="99.24,-18.35 88.64,-18.47 97,-24.99 99.24,-18.35"/>
</g>
<!-- Node5 -->
<g id="node5" class="node">
<title>Node5</title>
<g id="a_node5"><a xlink:title=" ">
<polygon fill="white" stroke="#bfbfbf" points="106.5,-0.5 106.5,-19.5 152.5,-19.5 152.5,-0.5 106.5,-0.5"/>
<text text-anchor="middle" x="129.5" y="-7.5" font-family="Helvetica" font-size="10.00">chrono</text>
</a>
</g>
</g>
<!-- Node4&#45;&gt;Node5 -->
<g id="edge4" class="edge">
<title>Node4&#45;&gt;Node5</title>
<path fill="none" stroke="midnightblue" d="M210.92,-56.32C195.5,-47.74 171.69,-34.49 153.79,-24.52"/>
<polygon fill="midnightblue" stroke="midnightblue" points="155.49,-21.46 145.05,-19.65 152.08,-27.58 155.49,-21.46"/>
</g>
<!-- Node6 -->
<g id="node6" class="node">
<title>Node6</title>
<g id="a_node6"><a xlink:title=" ">
<polygon fill="white" stroke="#bfbfbf" points="170.5,-0.5 170.5,-19.5 216.5,-19.5 216.5,-0.5 170.5,-0.5"/>
<text text-anchor="middle" x="193.5" y="-7.5" font-family="Helvetica" font-size="10.00">cstdint</text>
</a>
</g>
</g>
<!-- Node4&#45;&gt;Node6 -->
<g id="edge5" class="edge">
<title>Node4&#45;&gt;Node6</title>
<path fill="none" stroke="midnightblue" d="M221.05,-56.08C216.49,-48.61 209.83,-37.72 204.21,-28.52"/>
<polygon fill="midnightblue" stroke="midnightblue" points="207.05,-26.46 198.85,-19.75 201.08,-30.11 207.05,-26.46"/>
</g>
<!-- Node7 -->
<g id="node7" class="node">
<title>Node7</title>
<g id="a_node7"><a xlink:title=" ">
<polygon fill="white" stroke="#bfbfbf" points="234.5,-0.5 234.5,-19.5 286.5,-19.5 286.5,-0.5 234.5,-0.5"/>
<text text-anchor="middle" x="260.5" y="-7.5" font-family="Helvetica" font-size="10.00">ostream</text>
</a>
</g>
</g>
<!-- Node4&#45;&gt;Node7 -->
<g id="edge7" class="edge">
<title>Node4&#45;&gt;Node7</title>
<path fill="none" stroke="midnightblue" d="M232.11,-56.08C236.87,-48.53 243.82,-37.49 249.65,-28.23"/>
<polygon fill="midnightblue" stroke="midnightblue" points="252.62,-30.08 254.99,-19.75 246.7,-26.35 252.62,-30.08"/>
</g>
<!-- Node8 -->
<g id="node8" class="node">
<title>Node8</title>
<g id="a_node8"><a xlink:title=" ">
<polygon fill="white" stroke="#bfbfbf" points="304.5,-0.5 304.5,-19.5 356.5,-19.5 356.5,-0.5 304.5,-0.5"/>
<text text-anchor="middle" x="330.5" y="-7.5" font-family="Helvetica" font-size="10.00">sstream</text>
</a>
</g>
</g>
<!-- Node4&#45;&gt;Node8 -->
<g id="edge8" class="edge">
<title>Node4&#45;&gt;Node8</title>
<path fill="none" stroke="midnightblue" d="M243.21,-56.32C259.81,-47.7 285.5,-34.36 304.72,-24.39"/>
<polygon fill="midnightblue" stroke="midnightblue" points="306.57,-27.37 313.83,-19.65 303.34,-21.16 306.57,-27.37"/>
</g>
<!-- Node9 -->
<g id="node9" class="node">
<title>Node9</title>
<g id="a_node9"><a xlink:title=" ">
<polygon fill="white" stroke="#bfbfbf" points="374.5,-0.5 374.5,-19.5 434.5,-19.5 434.5,-0.5 374.5,-0.5"/>
<text text-anchor="middle" x="404.5" y="-7.5" font-family="Helvetica" font-size="10.00">streambuf</text>
</a>
</g>
</g>
<!-- Node4&#45;&gt;Node9 -->
<g id="edge9" class="edge">
<title>Node4&#45;&gt;Node9</title>
<path fill="none" stroke="midnightblue" d="M254.7,-56.44C284.91,-47.28 333.01,-32.69 366.53,-22.52"/>
<polygon fill="midnightblue" stroke="midnightblue" points="367.87,-25.77 376.43,-19.52 365.84,-19.07 367.87,-25.77"/>
</g>
<!-- Node10 -->
<g id="node10" class="node">
<title>Node10</title>
<g id="a_node10"><a xlink:title=" ">
<polygon fill="white" stroke="#bfbfbf" points="452.5,-0.5 452.5,-19.5 554.5,-19.5 554.5,-0.5 452.5,-0.5"/>
<text text-anchor="middle" x="503.5" y="-7.5" font-family="Helvetica" font-size="10.00">vsomeip/export.hpp</text>
</a>
</g>
</g>
<!-- Node4&#45;&gt;Node10 -->
<g id="edge10" class="edge">
<title>Node4&#45;&gt;Node10</title>
<path fill="none" stroke="midnightblue" d="M270.39,-56.44C319.02,-46.96 397.45,-31.67 449.72,-21.48"/>
<polygon fill="midnightblue" stroke="midnightblue" points="450.67,-24.87 459.81,-19.52 449.33,-17.99 450.67,-24.87"/>
</g>
</g>
</svg>
