<?xml version="1.0" encoding="UTF-8" standalone="no"?>
<!DOCTYPE svg PUBLIC "-//W3C//DTD SVG 1.1//EN"
 "http://www.w3.org/Graphics/SVG/1.1/DTD/svg11.dtd">
<!-- Generated by graphviz version 2.44.0 (0)
 -->
<!-- Title: /home/ec2&#45;user/workspace/vsomeip/implementation/logger/src/logger_impl.cpp Pages: 1 -->
<svg width="2110pt" height="374pt"
 viewBox="0.00 0.00 2109.98 374.00" xmlns="http://www.w3.org/2000/svg" xmlns:xlink="http://www.w3.org/1999/xlink">
<g id="graph0" class="graph" transform="scale(1 1) rotate(0) translate(4 370)">
<title>/home/ec2&#45;user/workspace/vsomeip/implementation/logger/src/logger_impl.cpp</title>
<polygon fill="white" stroke="transparent" points="-4,4 -4,-370 2105.98,-370 2105.98,4 -4,4"/>
<!-- Node1 -->
<g id="node1" class="node">
<title>Node1</title>
<g id="a_node1"><a xlink:title=" ">
<polygon fill="#bfbfbf" stroke="black" points="682.48,-324.5 682.48,-365.5 816.48,-365.5 816.48,-324.5 682.48,-324.5"/>
<text text-anchor="start" x="690.48" y="-353.5" font-family="Helvetica" font-size="10.00">/home/ec2&#45;user/workspace</text>
<text text-anchor="start" x="690.48" y="-342.5" font-family="Helvetica" font-size="10.00">/vsomeip/implementation</text>
<text text-anchor="middle" x="749.48" y="-331.5" font-family="Helvetica" font-size="10.00">/logger/src/logger_impl.cpp</text>
</a>
</g>
</g>
<!-- Node2 -->
<g id="node2" class="node">
<title>Node2</title>
<g id="a_node2"><a xlink:title=" ">
<polygon fill="white" stroke="#bfbfbf" points="582.48,-263 582.48,-282 636.48,-282 636.48,-263 582.48,-263"/>
<text text-anchor="middle" x="609.48" y="-270" font-family="Helvetica" font-size="10.00">iostream</text>
</a>
</g>
</g>
<!-- Node1&#45;&gt;Node2 -->
<g id="edge1" class="edge">
<title>Node1&#45;&gt;Node2</title>
<path fill="none" stroke="midnightblue" d="M710.48,-324.36C686.62,-312.35 656.75,-297.3 635.7,-286.7"/>
<polygon fill="midnightblue" stroke="midnightblue" points="637.21,-283.55 626.7,-282.17 634.06,-289.8 637.21,-283.55"/>
</g>
<!-- Node3 -->
<g id="node3" class="node">
<title>Node3</title>
<g id="a_node3"><a xlink:title=" ">
<polygon fill="white" stroke="#bfbfbf" points="654.98,-263 654.98,-282 761.98,-282 761.98,-263 654.98,-263"/>
<text text-anchor="middle" x="708.48" y="-270" font-family="Helvetica" font-size="10.00">vsomeip/runtime.hpp</text>
</a>
</g>
</g>
<!-- Node1&#45;&gt;Node3 -->
<g id="edge2" class="edge">
<title>Node1&#45;&gt;Node3</title>
<path fill="none" stroke="midnightblue" d="M738.06,-324.36C731.95,-313.86 724.5,-301.05 718.6,-290.91"/>
<polygon fill="midnightblue" stroke="midnightblue" points="721.57,-289.06 713.52,-282.17 715.52,-292.58 721.57,-289.06"/>
</g>
<!-- Node4 -->
<g id="node4" class="node">
<title>Node4</title>
<g id="a_node4"><a xlink:href="logger__impl_8hpp.html" target="_top" xlink:title=" ">
<polygon fill="white" stroke="black" points="458.48,-196 458.48,-215 586.48,-215 586.48,-196 458.48,-196"/>
<text text-anchor="middle" x="522.48" y="-203" font-family="Helvetica" font-size="10.00">../include/logger_impl.hpp</text>
</a>
</g>
</g>
<!-- Node1&#45;&gt;Node4 -->
<g id="edge3" class="edge">
<title>Node1&#45;&gt;Node4</title>
<path fill="none" stroke="midnightblue" d="M762.97,-324.23C774.22,-305.06 786.11,-276.13 770.48,-257 759.27,-243.28 663.71,-226.8 594.56,-216.48"/>
<polygon fill="midnightblue" stroke="midnightblue" points="594.96,-213 584.56,-215.01 593.94,-219.93 594.96,-213"/>
</g>
<!-- Node14 -->
<g id="node14" class="node">
<title>Node14</title>
<g id="a_node14"><a xlink:href="configuration_8hpp.html" target="_top" xlink:title=" ">
<polygon fill="white" stroke="black" points="1119.48,-257.5 1119.48,-287.5 1247.48,-287.5 1247.48,-257.5 1119.48,-257.5"/>
<text text-anchor="start" x="1127.48" y="-275.5" font-family="Helvetica" font-size="10.00">../../configuration</text>
<text text-anchor="middle" x="1183.48" y="-264.5" font-family="Helvetica" font-size="10.00">/include/configuration.hpp</text>
</a>
</g>
</g>
<!-- Node1&#45;&gt;Node14 -->
<g id="edge14" class="edge">
<title>Node1&#45;&gt;Node14</title>
<path fill="none" stroke="midnightblue" d="M816.81,-333.06C896.01,-320.2 1027.06,-298.91 1109.16,-285.57"/>
<polygon fill="midnightblue" stroke="midnightblue" points="1109.86,-289 1119.17,-283.95 1108.74,-282.09 1109.86,-289"/>
</g>
<!-- Node5 -->
<g id="node5" class="node">
<title>Node5</title>
<g id="a_node5"><a xlink:title=" ">
<polygon fill="white" stroke="#bfbfbf" points="509.98,-129 509.98,-148 562.98,-148 562.98,-129 509.98,-129"/>
<text text-anchor="middle" x="536.48" y="-136" font-family="Helvetica" font-size="10.00">memory</text>
</a>
</g>
</g>
<!-- Node4&#45;&gt;Node5 -->
<g id="edge4" class="edge">
<title>Node4&#45;&gt;Node5</title>
<path fill="none" stroke="midnightblue" d="M524.36,-195.73C526.44,-186.09 529.84,-170.3 532.51,-157.91"/>
<polygon fill="midnightblue" stroke="midnightblue" points="535.93,-158.64 534.62,-148.13 529.09,-157.17 535.93,-158.64"/>
</g>
<!-- Node6 -->
<g id="node6" class="node">
<title>Node6</title>
<g id="a_node6"><a xlink:title=" ">
<polygon fill="white" stroke="#bfbfbf" points="529.48,-62 529.48,-81 573.48,-81 573.48,-62 529.48,-62"/>
<text text-anchor="middle" x="551.48" y="-69" font-family="Helvetica" font-size="10.00">mutex</text>
</a>
</g>
</g>
<!-- Node4&#45;&gt;Node6 -->
<g id="edge5" class="edge">
<title>Node4&#45;&gt;Node6</title>
<path fill="none" stroke="midnightblue" d="M516.4,-195.69C506.71,-180.46 489.87,-148.43 500.48,-123 506.52,-108.52 518.95,-96.07 530.03,-87.15"/>
<polygon fill="midnightblue" stroke="midnightblue" points="532.24,-89.87 538.11,-81.05 528.02,-84.28 532.24,-89.87"/>
</g>
<!-- Node7 -->
<g id="node7" class="node">
<title>Node7</title>
<g id="a_node7"><a xlink:href="logger_8hpp.html" target="_top" xlink:title=" ">
<polygon fill="white" stroke="black" points="161.48,-129 161.48,-148 297.48,-148 297.48,-129 161.48,-129"/>
<text text-anchor="middle" x="229.48" y="-136" font-family="Helvetica" font-size="10.00">vsomeip/internal/logger.hpp</text>
</a>
</g>
</g>
<!-- Node4&#45;&gt;Node7 -->
<g id="edge6" class="edge">
<title>Node4&#45;&gt;Node7</title>
<path fill="none" stroke="midnightblue" d="M483.87,-195.94C430.95,-184.2 335.88,-163.11 278.15,-150.3"/>
<polygon fill="midnightblue" stroke="midnightblue" points="278.69,-146.83 268.17,-148.08 277.17,-153.67 278.69,-146.83"/>
</g>
<!-- Node7&#45;&gt;Node6 -->
<g id="edge9" class="edge">
<title>Node7&#45;&gt;Node6</title>
<path fill="none" stroke="midnightblue" d="M273.75,-128.98C324.65,-119.12 410.68,-102.29 484.48,-87 495.87,-84.64 508.33,-81.97 519.38,-79.57"/>
<polygon fill="midnightblue" stroke="midnightblue" points="520.44,-82.92 529.47,-77.37 518.95,-76.08 520.44,-82.92"/>
</g>
<!-- Node8 -->
<g id="node8" class="node">
<title>Node8</title>
<g id="a_node8"><a xlink:title=" ">
<polygon fill="white" stroke="#bfbfbf" points="225.48,-62 225.48,-81 271.48,-81 271.48,-62 225.48,-62"/>
<text text-anchor="middle" x="248.48" y="-69" font-family="Helvetica" font-size="10.00">chrono</text>
</a>
</g>
</g>
<!-- Node7&#45;&gt;Node8 -->
<g id="edge7" class="edge">
<title>Node7&#45;&gt;Node8</title>
<path fill="none" stroke="midnightblue" d="M232.04,-128.73C234.86,-119.09 239.47,-103.3 243.1,-90.91"/>
<polygon fill="midnightblue" stroke="midnightblue" points="246.51,-91.71 245.96,-81.13 239.79,-89.74 246.51,-91.71"/>
</g>
<!-- Node9 -->
<g id="node9" class="node">
<title>Node9</title>
<g id="a_node9"><a xlink:title=" ">
<polygon fill="white" stroke="#bfbfbf" points="446.48,-0.5 446.48,-19.5 492.48,-19.5 492.48,-0.5 446.48,-0.5"/>
<text text-anchor="middle" x="469.48" y="-7.5" font-family="Helvetica" font-size="10.00">cstdint</text>
</a>
</g>
</g>
<!-- Node7&#45;&gt;Node9 -->
<g id="edge8" class="edge">
<title>Node7&#45;&gt;Node9</title>
<path fill="none" stroke="midnightblue" d="M237.77,-128.99C256.18,-110.26 300.25,-66.33 318.48,-56 356,-34.74 404.59,-22.59 436.37,-16.41"/>
<polygon fill="midnightblue" stroke="midnightblue" points="437.27,-19.8 446.46,-14.53 435.99,-12.92 437.27,-19.8"/>
</g>
<!-- Node10 -->
<g id="node10" class="node">
<title>Node10</title>
<g id="a_node10"><a xlink:title=" ">
<polygon fill="white" stroke="#bfbfbf" points="630.48,-0.5 630.48,-19.5 682.48,-19.5 682.48,-0.5 630.48,-0.5"/>
<text text-anchor="middle" x="656.48" y="-7.5" font-family="Helvetica" font-size="10.00">ostream</text>
</a>
</g>
</g>
<!-- Node7&#45;&gt;Node10 -->
<g id="edge10" class="edge">
<title>Node7&#45;&gt;Node10</title>
<path fill="none" stroke="midnightblue" d="M258.49,-128.9C334.26,-106.46 537.94,-46.12 620.74,-21.59"/>
<polygon fill="midnightblue" stroke="midnightblue" points="621.86,-24.91 630.45,-18.71 619.87,-18.2 621.86,-24.91"/>
</g>
<!-- Node11 -->
<g id="node11" class="node">
<title>Node11</title>
<g id="a_node11"><a xlink:title=" ">
<polygon fill="white" stroke="#bfbfbf" points="327.48,-62 327.48,-81 379.48,-81 379.48,-62 327.48,-62"/>
<text text-anchor="middle" x="353.48" y="-69" font-family="Helvetica" font-size="10.00">sstream</text>
</a>
</g>
</g>
<!-- Node7&#45;&gt;Node11 -->
<g id="edge11" class="edge">
<title>Node7&#45;&gt;Node11</title>
<path fill="none" stroke="midnightblue" d="M245.94,-128.87C266.88,-117.89 303.26,-98.82 327.84,-85.94"/>
<polygon fill="midnightblue" stroke="midnightblue" points="329.71,-88.91 336.94,-81.17 326.46,-82.71 329.71,-88.91"/>
</g>
<!-- Node12 -->
<g id="node12" class="node">
<title>Node12</title>
<g id="a_node12"><a xlink:title=" ">
<polygon fill="white" stroke="#bfbfbf" points="147.48,-62 147.48,-81 207.48,-81 207.48,-62 147.48,-62"/>
<text text-anchor="middle" x="177.48" y="-69" font-family="Helvetica" font-size="10.00">streambuf</text>
</a>
</g>
</g>
<!-- Node7&#45;&gt;Node12 -->
<g id="edge12" class="edge">
<title>Node7&#45;&gt;Node12</title>
<path fill="none" stroke="midnightblue" d="M222.46,-128.73C214.36,-118.6 200.83,-101.69 190.72,-89.06"/>
<polygon fill="midnightblue" stroke="midnightblue" points="193.36,-86.75 184.38,-81.13 187.89,-91.12 193.36,-86.75"/>
</g>
<!-- Node13 -->
<g id="node13" class="node">
<title>Node13</title>
<g id="a_node13"><a xlink:title=" ">
<polygon fill="white" stroke="#bfbfbf" points="27.48,-62 27.48,-81 129.48,-81 129.48,-62 27.48,-62"/>
<text text-anchor="middle" x="78.48" y="-69" font-family="Helvetica" font-size="10.00">vsomeip/export.hpp</text>
</a>
</g>
</g>
<!-- Node7&#45;&gt;Node13 -->
<g id="edge13" class="edge">
<title>Node7&#45;&gt;Node13</title>
<path fill="none" stroke="midnightblue" d="M209.43,-128.87C183.48,-117.7 138.06,-98.15 108.12,-85.26"/>
<polygon fill="midnightblue" stroke="midnightblue" points="109.18,-81.91 98.61,-81.17 106.41,-88.34 109.18,-81.91"/>
</g>
<!-- Node14&#45;&gt;Node5 -->
<g id="edge16" class="edge">
<title>Node14&#45;&gt;Node5</title>
<path fill="none" stroke="midnightblue" d="M1119.33,-267.38C1038.91,-261.32 897.2,-247.73 778.48,-221 700.27,-203.39 611.81,-170 566.59,-151.9"/>
<polygon fill="midnightblue" stroke="midnightblue" points="567.68,-148.57 557.1,-148.07 565.07,-155.06 567.68,-148.57"/>
</g>
<!-- Node14&#45;&gt;Node8 -->
<g id="edge19" class="edge">
<title>Node14&#45;&gt;Node8</title>
<path fill="none" stroke="midnightblue" d="M1119.41,-269.43C948.95,-263.64 487.06,-246.05 336.48,-221 226.39,-202.69 162.05,-242.82 94.48,-154 86.13,-143.03 86.23,-134.04 94.48,-123 128.33,-77.72 163.49,-106.71 216.48,-87 218.09,-86.4 219.73,-85.76 221.38,-85.09"/>
<polygon fill="midnightblue" stroke="midnightblue" points="222.92,-88.24 230.72,-81.07 220.15,-81.81 222.92,-88.24"/>
</g>
<!-- Node14&#45;&gt;Node13 -->
<g id="edge22" class="edge">
<title>Node14&#45;&gt;Node13</title>
<path fill="none" stroke="midnightblue" d="M1119.38,-269.21C893.95,-261.07 150.09,-233.34 128.48,-221 97.54,-203.34 95.93,-187.73 84.48,-154 77.51,-133.48 76.72,-108.43 77.22,-91.56"/>
<polygon fill="midnightblue" stroke="midnightblue" points="80.72,-91.51 77.71,-81.35 73.73,-91.17 80.72,-91.51"/>
</g>
<!-- Node15 -->
<g id="node15" class="node">
<title>Node15</title>
<g id="a_node15"><a xlink:title=" ">
<polygon fill="white" stroke="#bfbfbf" points="959.98,-62 959.98,-81 994.98,-81 994.98,-62 959.98,-62"/>
<text text-anchor="middle" x="977.48" y="-69" font-family="Helvetica" font-size="10.00">map</text>
</a>
</g>
</g>
<!-- Node14&#45;&gt;Node15 -->
<g id="edge15" class="edge">
<title>Node14&#45;&gt;Node15</title>
<path fill="none" stroke="midnightblue" d="M1119.29,-264.32C1087.12,-257.74 1049.56,-245.14 1023.48,-221 986.25,-186.55 978.89,-122.66 977.61,-91.11"/>
<polygon fill="midnightblue" stroke="midnightblue" points="981.11,-90.98 977.37,-81.07 974.11,-91.15 981.11,-90.98"/>
</g>
<!-- Node16 -->
<g id="node16" class="node">
<title>Node16</title>
<g id="a_node16"><a xlink:title=" ">
<polygon fill="white" stroke="#bfbfbf" points="1230.48,-196 1230.48,-215 1260.48,-215 1260.48,-196 1230.48,-196"/>
<text text-anchor="middle" x="1245.48" y="-203" font-family="Helvetica" font-size="10.00">set</text>
</a>
</g>
</g>
<!-- Node14&#45;&gt;Node16 -->
<g id="edge17" class="edge">
<title>Node14&#45;&gt;Node16</title>
<path fill="none" stroke="midnightblue" d="M1196.93,-257.4C1206.69,-247.16 1219.92,-233.3 1230.1,-222.62"/>
<polygon fill="midnightblue" stroke="midnightblue" points="1232.81,-224.85 1237.18,-215.19 1227.75,-220.01 1232.81,-224.85"/>
</g>
<!-- Node17 -->
<g id="node17" class="node">
<title>Node17</title>
<g id="a_node17"><a xlink:title=" ">
<polygon fill="white" stroke="#bfbfbf" points="1767.98,-62 1767.98,-81 1808.98,-81 1808.98,-62 1767.98,-62"/>
<text text-anchor="middle" x="1788.48" y="-69" font-family="Helvetica" font-size="10.00">string</text>
</a>
</g>
</g>
<!-- Node14&#45;&gt;Node17 -->
<g id="edge18" class="edge">
<title>Node14&#45;&gt;Node17</title>
<path fill="none" stroke="midnightblue" d="M1247.53,-271.39C1404.57,-270.44 1798.86,-263.79 1838.48,-221 1868.07,-189.04 1855.04,-163.28 1838.48,-123 1832.57,-108.63 1820.38,-96.18 1809.51,-87.24"/>
<polygon fill="midnightblue" stroke="midnightblue" points="1811.64,-84.46 1801.59,-81.11 1807.36,-90 1811.64,-84.46"/>
</g>
<!-- Node18 -->
<g id="node18" class="node">
<title>Node18</title>
<g id="a_node18"><a xlink:title=" ">
<polygon fill="white" stroke="#bfbfbf" points="1278.48,-196 1278.48,-215 1406.48,-215 1406.48,-196 1278.48,-196"/>
<text text-anchor="middle" x="1342.48" y="-203" font-family="Helvetica" font-size="10.00">boost/asio/ip/address.hpp</text>
</a>
</g>
</g>
<!-- Node14&#45;&gt;Node18 -->
<g id="edge20" class="edge">
<title>Node14&#45;&gt;Node18</title>
<path fill="none" stroke="midnightblue" d="M1217.98,-257.4C1246.12,-245.89 1285.49,-229.8 1312.37,-218.81"/>
<polygon fill="midnightblue" stroke="midnightblue" points="1313.74,-222.03 1321.67,-215.01 1311.09,-215.55 1313.74,-222.03"/>
</g>
<!-- Node19 -->
<g id="node19" class="node">
<title>Node19</title>
<g id="a_node19"><a xlink:title=" ">
<polygon fill="white" stroke="#bfbfbf" points="1483.48,-123.5 1483.48,-153.5 1571.48,-153.5 1571.48,-123.5 1483.48,-123.5"/>
<text text-anchor="start" x="1491.48" y="-141.5" font-family="Helvetica" font-size="10.00">boost/icl/interval</text>
<text text-anchor="middle" x="1527.48" y="-130.5" font-family="Helvetica" font-size="10.00">_set.hpp</text>
</a>
</g>
</g>
<!-- Node14&#45;&gt;Node19 -->
<g id="edge21" class="edge">
<title>Node14&#45;&gt;Node19</title>
<path fill="none" stroke="midnightblue" d="M1179.5,-257.31C1175.37,-239.19 1171.62,-208.01 1188.48,-190 1231.5,-144.04 1407.61,-165.65 1469.48,-154 1470.74,-153.76 1472.01,-153.51 1473.3,-153.26"/>
<polygon fill="midnightblue" stroke="midnightblue" points="1474.22,-156.64 1483.26,-151.12 1472.75,-149.79 1474.22,-156.64"/>
</g>
<!-- Node20 -->
<g id="node20" class="node">
<title>Node20</title>
<g id="a_node20"><a xlink:title=" ">
<polygon fill="white" stroke="#bfbfbf" points="1424.98,-196 1424.98,-215 1531.98,-215 1531.98,-196 1424.98,-196"/>
<text text-anchor="middle" x="1478.48" y="-203" font-family="Helvetica" font-size="10.00">vsomeip/defines.hpp</text>
</a>
</g>
</g>
<!-- Node14&#45;&gt;Node20 -->
<g id="edge23" class="edge">
<title>Node14&#45;&gt;Node20</title>
<path fill="none" stroke="midnightblue" d="M1247.53,-257.77C1294.14,-247.73 1358.76,-233.7 1415.48,-221 1420.82,-219.8 1426.41,-218.54 1431.96,-217.27"/>
<polygon fill="midnightblue" stroke="midnightblue" points="1432.88,-220.65 1441.85,-215.01 1431.32,-213.83 1432.88,-220.65"/>
</g>
<!-- Node21 -->
<g id="node21" class="node">
<title>Node21</title>
<g id="a_node21"><a xlink:title=" ">
<polygon fill="white" stroke="#bfbfbf" points="1549.98,-196 1549.98,-215 1650.98,-215 1650.98,-196 1549.98,-196"/>
<text text-anchor="middle" x="1600.48" y="-203" font-family="Helvetica" font-size="10.00">vsomeip/plugin.hpp</text>
</a>
</g>
</g>
<!-- Node14&#45;&gt;Node21 -->
<g id="edge24" class="edge">
<title>Node14&#45;&gt;Node21</title>
<path fill="none" stroke="midnightblue" d="M1247.63,-264.32C1319.33,-255.85 1438.72,-240.45 1540.48,-221 1546,-219.94 1551.79,-218.71 1557.49,-217.42"/>
<polygon fill="midnightblue" stroke="midnightblue" points="1558.65,-220.74 1567.59,-215.05 1557.06,-213.93 1558.65,-220.74"/>
</g>
<!-- Node22 -->
<g id="node22" class="node">
<title>Node22</title>
<g id="a_node22"><a xlink:title=" ">
<polygon fill="white" stroke="#bfbfbf" points="1059.48,-62 1059.48,-81 1199.48,-81 1199.48,-62 1059.48,-62"/>
<text text-anchor="middle" x="1129.48" y="-69" font-family="Helvetica" font-size="10.00">vsomeip/primitive_types.hpp</text>
</a>
</g>
</g>
<!-- Node14&#45;&gt;Node22 -->
<g id="edge25" class="edge">
<title>Node14&#45;&gt;Node22</title>
<path fill="none" stroke="midnightblue" d="M1185.73,-257.26C1189.51,-238.46 1199.07,-205.9 1221.48,-190 1353.84,-96.06 1688.67,-243.99 1580.48,-123 1556.28,-95.94 1333.13,-81.67 1210.06,-75.8"/>
<polygon fill="midnightblue" stroke="midnightblue" points="1210.08,-72.29 1199.93,-75.32 1209.75,-79.28 1210.08,-72.29"/>
</g>
<!-- Node23 -->
<g id="node23" class="node">
<title>Node23</title>
<g id="a_node23"><a xlink:href="vsomeip__sec_8h.html" target="_top" xlink:title=" ">
<polygon fill="white" stroke="black" points="1707.48,-196 1707.48,-215 1829.48,-215 1829.48,-196 1707.48,-196"/>
<text text-anchor="middle" x="1768.48" y="-203" font-family="Helvetica" font-size="10.00">vsomeip/vsomeip_sec.h</text>
</a>
</g>
</g>
<!-- Node14&#45;&gt;Node23 -->
<g id="edge26" class="edge">
<title>Node14&#45;&gt;Node23</title>
<path fill="none" stroke="midnightblue" d="M1247.71,-267.05C1344.64,-259.91 1533.9,-244.28 1693.48,-221 1701.5,-219.83 1709.97,-218.39 1718.21,-216.88"/>
<polygon fill="midnightblue" stroke="midnightblue" points="1718.93,-220.31 1728.11,-215.01 1717.64,-213.43 1718.93,-220.31"/>
</g>
<!-- Node26 -->
<g id="node26" class="node">
<title>Node26</title>
<g id="a_node26"><a xlink:href="implementation_2configuration_2include_2trace_8hpp.html" target="_top" xlink:title=" ">
<polygon fill="white" stroke="black" points="1885.98,-129 1885.98,-148 1942.98,-148 1942.98,-129 1885.98,-129"/>
<text text-anchor="middle" x="1914.48" y="-136" font-family="Helvetica" font-size="10.00">trace.hpp</text>
</a>
</g>
</g>
<!-- Node14&#45;&gt;Node26 -->
<g id="edge29" class="edge">
<title>Node14&#45;&gt;Node26</title>
<path fill="none" stroke="midnightblue" d="M1247.51,-270.31C1408.33,-266.82 1820.02,-254.66 1871.48,-221 1893.51,-206.58 1904.99,-177.01 1910.37,-157.73"/>
<polygon fill="midnightblue" stroke="midnightblue" points="1913.78,-158.56 1912.82,-148 1906.99,-156.85 1913.78,-158.56"/>
</g>
<!-- Node30 -->
<g id="node30" class="node">
<title>Node30</title>
<g id="a_node30"><a xlink:href="config_8hpp.html" target="_top" xlink:title=" ">
<polygon fill="white" stroke="black" points="787.98,-190.5 787.98,-220.5 912.98,-220.5 912.98,-190.5 787.98,-190.5"/>
<text text-anchor="start" x="795.98" y="-208.5" font-family="Helvetica" font-size="10.00">../../e2e_protection</text>
<text text-anchor="middle" x="850.48" y="-197.5" font-family="Helvetica" font-size="10.00">/include/e2exf/config.hpp</text>
</a>
</g>
</g>
<!-- Node14&#45;&gt;Node30 -->
<g id="edge35" class="edge">
<title>Node14&#45;&gt;Node30</title>
<path fill="none" stroke="midnightblue" d="M1119.27,-258.97C1063.08,-248 981.52,-232.08 922.99,-220.65"/>
<polygon fill="midnightblue" stroke="midnightblue" points="923.56,-217.2 913.07,-218.72 922.22,-224.07 923.56,-217.2"/>
</g>
<!-- Node36 -->
<g id="node36" class="node">
<title>Node36</title>
<g id="a_node36"><a xlink:href="e2e_8hpp.html" target="_top" xlink:title=" ">
<polygon fill="white" stroke="black" points="1627.98,-129 1627.98,-148 1678.98,-148 1678.98,-129 1627.98,-129"/>
<text text-anchor="middle" x="1653.48" y="-136" font-family="Helvetica" font-size="10.00">e2e.hpp</text>
</a>
</g>
</g>
<!-- Node14&#45;&gt;Node36 -->
<g id="edge53" class="edge">
<title>Node14&#45;&gt;Node36</title>
<path fill="none" stroke="midnightblue" d="M1247.54,-269.38C1371.05,-264.62 1632.42,-251.08 1659.48,-221 1674.78,-203.99 1668.42,-176.07 1661.62,-157.74"/>
<polygon fill="midnightblue" stroke="midnightblue" points="1664.85,-156.38 1657.83,-148.44 1658.36,-159.02 1664.85,-156.38"/>
</g>
<!-- Node37 -->
<g id="node37" class="node">
<title>Node37</title>
<g id="a_node37"><a xlink:href="internal_8hpp.html" target="_top" xlink:title=" ">
<polygon fill="white" stroke="black" points="345.98,-196 345.98,-215 412.98,-215 412.98,-196 345.98,-196"/>
<text text-anchor="middle" x="379.48" y="-203" font-family="Helvetica" font-size="10.00">internal.hpp</text>
</a>
</g>
</g>
<!-- Node14&#45;&gt;Node37 -->
<g id="edge58" class="edge">
<title>Node14&#45;&gt;Node37</title>
<path fill="none" stroke="midnightblue" d="M1119.36,-270.01C991.43,-266.39 695.61,-254.8 449.48,-221 440.9,-219.82 431.81,-218.21 423.11,-216.49"/>
<polygon fill="midnightblue" stroke="midnightblue" points="423.64,-213.02 413.14,-214.44 422.23,-219.88 423.64,-213.02"/>
</g>
<!-- Node40 -->
<g id="node40" class="node">
<title>Node40</title>
<g id="a_node40"><a xlink:href="policy_8hpp.html" target="_top" xlink:title=" ">
<polygon fill="white" stroke="black" points="1032.98,-190.5 1032.98,-220.5 1135.98,-220.5 1135.98,-190.5 1032.98,-190.5"/>
<text text-anchor="start" x="1040.98" y="-208.5" font-family="Helvetica" font-size="10.00">../../security/include</text>
<text text-anchor="middle" x="1084.48" y="-197.5" font-family="Helvetica" font-size="10.00">/policy.hpp</text>
</a>
</g>
</g>
<!-- Node14&#45;&gt;Node40 -->
<g id="edge66" class="edge">
<title>Node14&#45;&gt;Node40</title>
<path fill="none" stroke="midnightblue" d="M1162,-257.4C1148.11,-248.28 1129.85,-236.29 1114.54,-226.24"/>
<polygon fill="midnightblue" stroke="midnightblue" points="1116.2,-223.14 1105.92,-220.58 1112.35,-228.99 1116.2,-223.14"/>
</g>
<!-- Node24 -->
<g id="node24" class="node">
<title>Node24</title>
<g id="a_node24"><a xlink:title=" ">
<polygon fill="white" stroke="#bfbfbf" points="1781.48,-129 1781.48,-148 1829.48,-148 1829.48,-129 1781.48,-129"/>
<text text-anchor="middle" x="1805.48" y="-136" font-family="Helvetica" font-size="10.00">stdint.h</text>
</a>
</g>
</g>
<!-- Node23&#45;&gt;Node24 -->
<g id="edge27" class="edge">
<title>Node23&#45;&gt;Node24</title>
<path fill="none" stroke="midnightblue" d="M1773.47,-195.73C1779.07,-185.89 1788.31,-169.66 1795.42,-157.16"/>
<polygon fill="midnightblue" stroke="midnightblue" points="1798.66,-158.55 1800.57,-148.13 1792.58,-155.09 1798.66,-158.55"/>
</g>
<!-- Node25 -->
<g id="node25" class="node">
<title>Node25</title>
<g id="a_node25"><a xlink:title=" ">
<polygon fill="white" stroke="#bfbfbf" points="1697.48,-129 1697.48,-148 1763.48,-148 1763.48,-129 1697.48,-129"/>
<text text-anchor="middle" x="1730.48" y="-136" font-family="Helvetica" font-size="10.00">sys/types.h</text>
</a>
</g>
</g>
<!-- Node23&#45;&gt;Node25 -->
<g id="edge28" class="edge">
<title>Node23&#45;&gt;Node25</title>
<path fill="none" stroke="midnightblue" d="M1763.35,-195.73C1757.54,-185.79 1747.92,-169.34 1740.58,-156.79"/>
<polygon fill="midnightblue" stroke="midnightblue" points="1743.59,-154.99 1735.52,-148.13 1737.55,-158.53 1743.59,-154.99"/>
</g>
<!-- Node26&#45;&gt;Node17 -->
<g id="edge30" class="edge">
<title>Node26&#45;&gt;Node17</title>
<path fill="none" stroke="midnightblue" d="M1897.75,-128.87C1876.38,-117.84 1839.18,-98.66 1814.2,-85.77"/>
<polygon fill="midnightblue" stroke="midnightblue" points="1815.77,-82.64 1805.28,-81.17 1812.56,-88.86 1815.77,-82.64"/>
</g>
<!-- Node26&#45;&gt;Node22 -->
<g id="edge32" class="edge">
<title>Node26&#45;&gt;Node22</title>
<path fill="none" stroke="midnightblue" d="M1885.73,-131.19C1871.57,-128.29 1854.19,-125.05 1838.48,-123 1611.59,-93.38 1341.43,-80.17 1209.7,-75.14"/>
<polygon fill="midnightblue" stroke="midnightblue" points="1209.82,-71.65 1199.69,-74.77 1209.55,-78.64 1209.82,-71.65"/>
</g>
<!-- Node27 -->
<g id="node27" class="node">
<title>Node27</title>
<g id="a_node27"><a xlink:title=" ">
<polygon fill="white" stroke="#bfbfbf" points="1492.98,-0.5 1492.98,-19.5 1535.98,-19.5 1535.98,-0.5 1492.98,-0.5"/>
<text text-anchor="middle" x="1514.48" y="-7.5" font-family="Helvetica" font-size="10.00">vector</text>
</a>
</g>
</g>
<!-- Node26&#45;&gt;Node27 -->
<g id="edge31" class="edge">
<title>Node26&#45;&gt;Node27</title>
<path fill="none" stroke="midnightblue" d="M1904.49,-128.76C1880.93,-108.2 1823.53,-58.29 1818.48,-56 1726.25,-14.21 1603.71,-9.65 1546.47,-10.09"/>
<polygon fill="midnightblue" stroke="midnightblue" points="1546.2,-6.59 1536.25,-10.22 1546.29,-13.59 1546.2,-6.59"/>
</g>
<!-- Node28 -->
<g id="node28" class="node">
<title>Node28</title>
<g id="a_node28"><a xlink:title=" ">
<polygon fill="white" stroke="#bfbfbf" points="1865.98,-62 1865.98,-81 1962.98,-81 1962.98,-62 1865.98,-62"/>
<text text-anchor="middle" x="1914.48" y="-69" font-family="Helvetica" font-size="10.00">vsomeip/trace.hpp</text>
</a>
</g>
</g>
<!-- Node26&#45;&gt;Node28 -->
<g id="edge33" class="edge">
<title>Node26&#45;&gt;Node28</title>
<path fill="none" stroke="midnightblue" d="M1914.48,-128.73C1914.48,-119.18 1914.48,-103.62 1914.48,-91.28"/>
<polygon fill="midnightblue" stroke="midnightblue" points="1917.98,-91.13 1914.48,-81.13 1910.98,-91.13 1917.98,-91.13"/>
</g>
<!-- Node29 -->
<g id="node29" class="node">
<title>Node29</title>
<g id="a_node29"><a xlink:href="implementation_2tracing_2include_2enumeration__types_8hpp.html" target="_top" xlink:title=" ">
<polygon fill="white" stroke="black" points="1980.98,-56.5 1980.98,-86.5 2101.98,-86.5 2101.98,-56.5 1980.98,-56.5"/>
<text text-anchor="start" x="1988.98" y="-74.5" font-family="Helvetica" font-size="10.00">../../tracing/include</text>
<text text-anchor="middle" x="2041.48" y="-63.5" font-family="Helvetica" font-size="10.00">/enumeration_types.hpp</text>
</a>
</g>
</g>
<!-- Node26&#45;&gt;Node29 -->
<g id="edge34" class="edge">
<title>Node26&#45;&gt;Node29</title>
<path fill="none" stroke="midnightblue" d="M1931.34,-128.87C1950.01,-119.31 1980.66,-103.63 2004.89,-91.22"/>
<polygon fill="midnightblue" stroke="midnightblue" points="2006.52,-94.32 2013.83,-86.65 2003.33,-88.09 2006.52,-94.32"/>
</g>
<!-- Node30&#45;&gt;Node5 -->
<g id="edge51" class="edge">
<title>Node30&#45;&gt;Node5</title>
<path fill="none" stroke="midnightblue" d="M787.78,-195.77C732.04,-187.33 648.6,-173.03 577.48,-154 574.51,-153.21 571.45,-152.3 568.4,-151.33"/>
<polygon fill="midnightblue" stroke="midnightblue" points="569.43,-147.99 558.83,-148.12 567.2,-154.62 569.43,-147.99"/>
</g>
<!-- Node30&#45;&gt;Node15 -->
<g id="edge52" class="edge">
<title>Node30&#45;&gt;Node15</title>
<path fill="none" stroke="midnightblue" d="M862.98,-190.44C877.69,-174.01 902.94,-146.15 925.48,-123 936.97,-111.19 950.32,-98.24 960.61,-88.42"/>
<polygon fill="midnightblue" stroke="midnightblue" points="963.28,-90.71 968.12,-81.29 958.46,-85.64 963.28,-90.71"/>
</g>
<!-- Node30&#45;&gt;Node22 -->
<g id="edge36" class="edge">
<title>Node30&#45;&gt;Node22</title>
<path fill="none" stroke="midnightblue" d="M873.19,-190.45C901.45,-173.29 951.48,-143.96 996.48,-123 1028.88,-107.9 1067.15,-93.74 1094.3,-84.27"/>
<polygon fill="midnightblue" stroke="midnightblue" points="1095.46,-87.58 1103.77,-81.01 1093.18,-80.96 1095.46,-87.58"/>
</g>
<!-- Node31 -->
<g id="node31" class="node">
<title>Node31</title>
<g id="a_node31"><a xlink:href="profile__interface_2checker_8hpp.html" target="_top" xlink:title=" ">
<polygon fill="white" stroke="black" points="619.48,-123.5 619.48,-153.5 735.48,-153.5 735.48,-123.5 619.48,-123.5"/>
<text text-anchor="start" x="627.48" y="-141.5" font-family="Helvetica" font-size="10.00">../e2e/profile/profile</text>
<text text-anchor="middle" x="677.48" y="-130.5" font-family="Helvetica" font-size="10.00">_interface/checker.hpp</text>
</a>
</g>
</g>
<!-- Node30&#45;&gt;Node31 -->
<g id="edge37" class="edge">
<title>Node30&#45;&gt;Node31</title>
<path fill="none" stroke="midnightblue" d="M812.94,-190.4C786.98,-180.64 752.25,-167.59 724.46,-157.15"/>
<polygon fill="midnightblue" stroke="midnightblue" points="725.53,-153.82 714.94,-153.58 723.07,-160.37 725.53,-153.82"/>
</g>
<!-- Node35 -->
<g id="node35" class="node">
<title>Node35</title>
<g id="a_node35"><a xlink:href="profile__interface_2protector_8hpp.html" target="_top" xlink:title=" ">
<polygon fill="white" stroke="black" points="753.48,-123.5 753.48,-153.5 873.48,-153.5 873.48,-123.5 753.48,-123.5"/>
<text text-anchor="start" x="761.48" y="-141.5" font-family="Helvetica" font-size="10.00">../e2e/profile/profile</text>
<text text-anchor="middle" x="813.48" y="-130.5" font-family="Helvetica" font-size="10.00">_interface/protector.hpp</text>
</a>
</g>
</g>
<!-- Node30&#45;&gt;Node35 -->
<g id="edge47" class="edge">
<title>Node30&#45;&gt;Node35</title>
<path fill="none" stroke="midnightblue" d="M842.45,-190.4C837.79,-182.22 831.82,-171.73 826.51,-162.39"/>
<polygon fill="midnightblue" stroke="midnightblue" points="829.48,-160.54 821.49,-153.58 823.39,-164 829.48,-160.54"/>
</g>
<!-- Node31&#45;&gt;Node6 -->
<g id="edge38" class="edge">
<title>Node31&#45;&gt;Node6</title>
<path fill="none" stroke="midnightblue" d="M650.14,-123.4C628.42,-112.19 598.27,-96.64 577.04,-85.69"/>
<polygon fill="midnightblue" stroke="midnightblue" points="578.46,-82.48 567.97,-81.01 575.25,-88.7 578.46,-82.48"/>
</g>
<!-- Node31&#45;&gt;Node22 -->
<g id="edge39" class="edge">
<title>Node31&#45;&gt;Node22</title>
<path fill="none" stroke="midnightblue" d="M735.52,-124.63C738.55,-124.06 741.55,-123.51 744.48,-123 801.27,-113.15 954,-93.92 1049.14,-82.24"/>
<polygon fill="midnightblue" stroke="midnightblue" points="1049.81,-85.69 1059.31,-81 1048.95,-78.74 1049.81,-85.69"/>
</g>
<!-- Node32 -->
<g id="node32" class="node">
<title>Node32</title>
<g id="a_node32"><a xlink:href="profile__interface_8hpp.html" target="_top" xlink:title=" ">
<polygon fill="white" stroke="black" points="607.48,-56.5 607.48,-86.5 715.48,-86.5 715.48,-56.5 607.48,-56.5"/>
<text text-anchor="start" x="615.48" y="-74.5" font-family="Helvetica" font-size="10.00">../profile_interface</text>
<text text-anchor="middle" x="661.48" y="-63.5" font-family="Helvetica" font-size="10.00">/profile_interface.hpp</text>
</a>
</g>
</g>
<!-- Node31&#45;&gt;Node32 -->
<g id="edge40" class="edge">
<title>Node31&#45;&gt;Node32</title>
<path fill="none" stroke="midnightblue" d="M674.01,-123.4C672.08,-115.56 669.62,-105.6 667.4,-96.57"/>
<polygon fill="midnightblue" stroke="midnightblue" points="670.73,-95.45 664.94,-86.58 663.93,-97.12 670.73,-95.45"/>
</g>
<!-- Node33 -->
<g id="node33" class="node">
<title>Node33</title>
<g id="a_node33"><a xlink:href="e2e__protection_2include_2buffer_2buffer_8hpp.html" target="_top" xlink:title=" ">
<polygon fill="white" stroke="black" points="733.98,-62 733.98,-81 846.98,-81 846.98,-62 733.98,-62"/>
<text text-anchor="middle" x="790.48" y="-69" font-family="Helvetica" font-size="10.00">../../../buffer/buffer.hpp</text>
</a>
</g>
</g>
<!-- Node31&#45;&gt;Node33 -->
<g id="edge42" class="edge">
<title>Node31&#45;&gt;Node33</title>
<path fill="none" stroke="midnightblue" d="M702,-123.4C721.21,-112.34 747.78,-97.06 766.78,-86.13"/>
<polygon fill="midnightblue" stroke="midnightblue" points="768.76,-89.03 775.69,-81.01 765.27,-82.96 768.76,-89.03"/>
</g>
<!-- Node32&#45;&gt;Node9 -->
<g id="edge41" class="edge">
<title>Node32&#45;&gt;Node9</title>
<path fill="none" stroke="midnightblue" d="M615.98,-56.4C580.95,-45.55 533.4,-30.81 502.09,-21.11"/>
<polygon fill="midnightblue" stroke="midnightblue" points="503.13,-17.76 492.54,-18.15 501.05,-24.45 503.13,-17.76"/>
</g>
<!-- Node33&#45;&gt;Node9 -->
<g id="edge44" class="edge">
<title>Node33&#45;&gt;Node9</title>
<path fill="none" stroke="midnightblue" d="M752.84,-61.95C743.58,-59.92 733.68,-57.82 724.48,-56 645.18,-40.3 551.48,-24.46 502.73,-16.41"/>
<polygon fill="midnightblue" stroke="midnightblue" points="503.18,-12.94 492.74,-14.77 502.04,-19.85 503.18,-12.94"/>
</g>
<!-- Node33&#45;&gt;Node10 -->
<g id="edge45" class="edge">
<title>Node33&#45;&gt;Node10</title>
<path fill="none" stroke="midnightblue" d="M771.28,-61.98C748.69,-51.95 710.98,-35.2 684.98,-23.65"/>
<polygon fill="midnightblue" stroke="midnightblue" points="686.2,-20.37 675.64,-19.51 683.36,-26.77 686.2,-20.37"/>
</g>
<!-- Node33&#45;&gt;Node27 -->
<g id="edge46" class="edge">
<title>Node33&#45;&gt;Node27</title>
<path fill="none" stroke="midnightblue" d="M847.11,-65.22C877.71,-62.4 916.16,-58.92 950.48,-56 1153.21,-38.73 1397.12,-19.94 1482.84,-13.4"/>
<polygon fill="midnightblue" stroke="midnightblue" points="1483.25,-16.88 1492.96,-12.63 1482.72,-9.9 1483.25,-16.88"/>
</g>
<!-- Node34 -->
<g id="node34" class="node">
<title>Node34</title>
<g id="a_node34"><a xlink:title=" ">
<polygon fill="white" stroke="#bfbfbf" points="760.98,-0.5 760.98,-19.5 819.98,-19.5 819.98,-0.5 760.98,-0.5"/>
<text text-anchor="middle" x="790.48" y="-7.5" font-family="Helvetica" font-size="10.00">stdexcept</text>
</a>
</g>
</g>
<!-- Node33&#45;&gt;Node34 -->
<g id="edge43" class="edge">
<title>Node33&#45;&gt;Node34</title>
<path fill="none" stroke="midnightblue" d="M790.48,-61.98C790.48,-53.58 790.48,-40.48 790.48,-29.66"/>
<polygon fill="midnightblue" stroke="midnightblue" points="793.98,-29.51 790.48,-19.51 786.98,-29.51 793.98,-29.51"/>
</g>
<!-- Node35&#45;&gt;Node22 -->
<g id="edge48" class="edge">
<title>Node35&#45;&gt;Node22</title>
<path fill="none" stroke="midnightblue" d="M873.66,-125.12C932.83,-112.95 1022.18,-94.57 1078.1,-83.07"/>
<polygon fill="midnightblue" stroke="midnightblue" points="1079.05,-86.45 1088.14,-81 1077.64,-79.59 1079.05,-86.45"/>
</g>
<!-- Node35&#45;&gt;Node32 -->
<g id="edge50" class="edge">
<title>Node35&#45;&gt;Node32</title>
<path fill="none" stroke="midnightblue" d="M780.5,-123.4C757.99,-113.77 727.97,-100.94 703.72,-90.56"/>
<polygon fill="midnightblue" stroke="midnightblue" points="704.96,-87.29 694.39,-86.58 702.21,-93.73 704.96,-87.29"/>
</g>
<!-- Node35&#45;&gt;Node33 -->
<g id="edge49" class="edge">
<title>Node35&#45;&gt;Node33</title>
<path fill="none" stroke="midnightblue" d="M808.49,-123.4C805.11,-113.86 800.63,-101.18 796.97,-90.86"/>
<polygon fill="midnightblue" stroke="midnightblue" points="800.19,-89.45 793.55,-81.19 793.59,-91.79 800.19,-89.45"/>
</g>
<!-- Node36&#45;&gt;Node15 -->
<g id="edge54" class="edge">
<title>Node36&#45;&gt;Node15</title>
<path fill="none" stroke="midnightblue" d="M1627.93,-131.59C1613.98,-128.58 1596.36,-125.11 1580.48,-123 1346.43,-91.94 1284.52,-118.06 1050.48,-87 1035.42,-85 1018.79,-81.78 1005.22,-78.88"/>
<polygon fill="midnightblue" stroke="midnightblue" points="1005.59,-75.38 995.07,-76.65 1004.09,-82.22 1005.59,-75.38"/>
</g>
<!-- Node36&#45;&gt;Node17 -->
<g id="edge55" class="edge">
<title>Node36&#45;&gt;Node17</title>
<path fill="none" stroke="midnightblue" d="M1671.4,-128.87C1694.4,-117.8 1734.51,-98.49 1761.27,-85.6"/>
<polygon fill="midnightblue" stroke="midnightblue" points="1762.98,-88.66 1770.48,-81.17 1759.95,-82.35 1762.98,-88.66"/>
</g>
<!-- Node36&#45;&gt;Node22 -->
<g id="edge57" class="edge">
<title>Node36&#45;&gt;Node22</title>
<path fill="none" stroke="midnightblue" d="M1633.01,-128.99C1626.82,-126.72 1619.96,-124.49 1613.48,-123 1473.71,-90.88 1306.5,-79.16 1209.69,-74.9"/>
<polygon fill="midnightblue" stroke="midnightblue" points="1209.82,-71.4 1199.68,-74.47 1209.52,-78.39 1209.82,-71.4"/>
</g>
<!-- Node36&#45;&gt;Node27 -->
<g id="edge56" class="edge">
<title>Node36&#45;&gt;Node27</title>
<path fill="none" stroke="midnightblue" d="M1643.92,-128.81C1620.71,-107.68 1561.1,-53.43 1531.57,-26.56"/>
<polygon fill="midnightblue" stroke="midnightblue" points="1533.85,-23.9 1524.1,-19.76 1529.14,-29.07 1533.85,-23.9"/>
</g>
<!-- Node37&#45;&gt;Node5 -->
<g id="edge61" class="edge">
<title>Node37&#45;&gt;Node5</title>
<path fill="none" stroke="midnightblue" d="M400.33,-195.87C427.42,-184.65 474.94,-164.98 506.06,-152.09"/>
<polygon fill="midnightblue" stroke="midnightblue" points="507.64,-155.23 515.54,-148.17 504.96,-148.76 507.64,-155.23"/>
</g>
<!-- Node37&#45;&gt;Node9 -->
<g id="edge59" class="edge">
<title>Node37&#45;&gt;Node9</title>
<path fill="none" stroke="midnightblue" d="M345.66,-202.5C238.81,-195.05 -78.85,-163.52 18.48,-56 46.44,-25.11 336.79,-14.53 436.26,-11.8"/>
<polygon fill="midnightblue" stroke="midnightblue" points="436.45,-15.3 446.35,-11.53 436.26,-8.3 436.45,-15.3"/>
</g>
<!-- Node37&#45;&gt;Node22 -->
<g id="edge62" class="edge">
<title>Node37&#45;&gt;Node22</title>
<path fill="none" stroke="midnightblue" d="M388.57,-195.83C407.55,-178.36 453.55,-139.18 500.48,-123 606.42,-86.46 891.9,-97.41 1003.48,-87 1018.58,-85.59 1034.69,-83.89 1050.16,-82.16"/>
<polygon fill="midnightblue" stroke="midnightblue" points="1050.67,-85.62 1060.21,-81.01 1049.88,-78.66 1050.67,-85.62"/>
</g>
<!-- Node38 -->
<g id="node38" class="node">
<title>Node38</title>
<g id="a_node38"><a xlink:title=" ">
<polygon fill="white" stroke="#bfbfbf" points="103.48,-129 103.48,-148 143.48,-148 143.48,-129 103.48,-129"/>
<text text-anchor="middle" x="123.48" y="-136" font-family="Helvetica" font-size="10.00">limits</text>
</a>
</g>
</g>
<!-- Node37&#45;&gt;Node38 -->
<g id="edge60" class="edge">
<title>Node37&#45;&gt;Node38</title>
<path fill="none" stroke="midnightblue" d="M345.68,-199.63C300.69,-192.56 219.06,-177.65 152.48,-154 151.05,-153.49 149.61,-152.93 148.16,-152.34"/>
<polygon fill="midnightblue" stroke="midnightblue" points="149.37,-149.04 138.82,-148.05 146.45,-155.4 149.37,-149.04"/>
</g>
<!-- Node39 -->
<g id="node39" class="node">
<title>Node39</title>
<g id="a_node39"><a xlink:href="structured__types_8hpp.html" target="_top" xlink:title=" ">
<polygon fill="white" stroke="black" points="315.48,-123.5 315.48,-153.5 415.48,-153.5 415.48,-123.5 315.48,-123.5"/>
<text text-anchor="start" x="323.48" y="-141.5" font-family="Helvetica" font-size="10.00">vsomeip/structured</text>
<text text-anchor="middle" x="365.48" y="-130.5" font-family="Helvetica" font-size="10.00">_types.hpp</text>
</a>
</g>
</g>
<!-- Node37&#45;&gt;Node39 -->
<g id="edge63" class="edge">
<title>Node37&#45;&gt;Node39</title>
<path fill="none" stroke="midnightblue" d="M377.59,-195.73C375.81,-187.46 373.05,-174.66 370.62,-163.37"/>
<polygon fill="midnightblue" stroke="midnightblue" points="374.04,-162.63 368.51,-153.59 367.2,-164.1 374.04,-162.63"/>
</g>
<!-- Node39&#45;&gt;Node8 -->
<g id="edge64" class="edge">
<title>Node39&#45;&gt;Node8</title>
<path fill="none" stroke="midnightblue" d="M340.09,-123.4C320.11,-112.29 292.43,-96.92 272.75,-85.98"/>
<polygon fill="midnightblue" stroke="midnightblue" points="274.23,-82.8 263.79,-81.01 270.83,-88.92 274.23,-82.8"/>
</g>
<!-- Node39&#45;&gt;Node15 -->
<g id="edge65" class="edge">
<title>Node39&#45;&gt;Node15</title>
<path fill="none" stroke="midnightblue" d="M415.48,-129.9C432.01,-127.52 450.51,-124.99 467.48,-123 639.48,-102.81 683.25,-105.22 855.48,-87 887.81,-83.58 924.9,-79.09 949.61,-76.02"/>
<polygon fill="midnightblue" stroke="midnightblue" points="950.22,-79.47 959.71,-74.76 949.36,-72.52 950.22,-79.47"/>
</g>
<!-- Node40&#45;&gt;Node6 -->
<g id="edge69" class="edge">
<title>Node40&#45;&gt;Node6</title>
<path fill="none" stroke="midnightblue" d="M1032.66,-199.54C911.57,-187.86 619.55,-159.26 610.48,-154 585.37,-139.45 568,-109.46 558.9,-90.2"/>
<polygon fill="midnightblue" stroke="midnightblue" points="562.07,-88.71 554.8,-81 555.68,-91.56 562.07,-88.71"/>
</g>
<!-- Node40&#45;&gt;Node7 -->
<g id="edge76" class="edge">
<title>Node40&#45;&gt;Node7</title>
<path fill="none" stroke="midnightblue" d="M1032.76,-199.5C1000.73,-196.5 958.74,-192.75 921.48,-190 648.42,-169.87 578.23,-187.4 306.48,-154 297.75,-152.93 288.51,-151.47 279.59,-149.89"/>
<polygon fill="midnightblue" stroke="midnightblue" points="280.16,-146.44 269.69,-148.08 278.89,-153.32 280.16,-146.44"/>
</g>
<!-- Node40&#45;&gt;Node15 -->
<g id="edge68" class="edge">
<title>Node40&#45;&gt;Node15</title>
<path fill="none" stroke="midnightblue" d="M1098.49,-190.3C1113.56,-173.26 1133.48,-144.31 1118.48,-123 1105.19,-104.13 1042.56,-87.15 1005.38,-78.51"/>
<polygon fill="midnightblue" stroke="midnightblue" points="1005.72,-75 995.19,-76.2 1004.17,-81.83 1005.72,-75"/>
</g>
<!-- Node40&#45;&gt;Node19 -->
<g id="edge73" class="edge">
<title>Node40&#45;&gt;Node19</title>
<path fill="none" stroke="midnightblue" d="M1136.26,-192.59C1141.05,-191.65 1145.85,-190.77 1150.48,-190 1291.23,-166.66 1329.07,-179.36 1469.48,-154 1470.74,-153.77 1472.02,-153.53 1473.3,-153.28"/>
<polygon fill="midnightblue" stroke="midnightblue" points="1474.2,-156.67 1483.27,-151.19 1472.77,-149.82 1474.2,-156.67"/>
</g>
<!-- Node40&#45;&gt;Node22 -->
<g id="edge75" class="edge">
<title>Node40&#45;&gt;Node22</title>
<path fill="none" stroke="midnightblue" d="M1114.16,-190.34C1128.22,-181.92 1143.61,-169.77 1151.48,-154 1161.75,-133.39 1151.12,-107.37 1141.38,-90.35"/>
<polygon fill="midnightblue" stroke="midnightblue" points="1144.14,-88.15 1135.91,-81.48 1138.18,-91.83 1144.14,-88.15"/>
</g>
<!-- Node40&#45;&gt;Node27 -->
<g id="edge71" class="edge">
<title>Node40&#45;&gt;Node27</title>
<path fill="none" stroke="midnightblue" d="M1136.09,-195.75C1148.03,-193.79 1160.69,-191.77 1172.48,-190 1231.03,-181.19 1387.73,-187.6 1436.48,-154 1480.23,-123.84 1501.78,-60.9 1510.15,-29.56"/>
<polygon fill="midnightblue" stroke="midnightblue" points="1513.62,-30.11 1512.65,-19.56 1506.82,-28.41 1513.62,-30.11"/>
</g>
<!-- Node41 -->
<g id="node41" class="node">
<title>Node41</title>
<g id="a_node41"><a xlink:title=" ">
<polygon fill="white" stroke="#bfbfbf" points="1005.48,-129 1005.48,-148 1051.48,-148 1051.48,-129 1005.48,-129"/>
<text text-anchor="middle" x="1028.48" y="-136" font-family="Helvetica" font-size="10.00">cstring</text>
</a>
</g>
</g>
<!-- Node40&#45;&gt;Node41 -->
<g id="edge67" class="edge">
<title>Node40&#45;&gt;Node41</title>
<path fill="none" stroke="midnightblue" d="M1072.33,-190.4C1063.59,-180.26 1051.8,-166.57 1042.64,-155.94"/>
<polygon fill="midnightblue" stroke="midnightblue" points="1045.15,-153.49 1035.97,-148.19 1039.84,-158.06 1045.15,-153.49"/>
</g>
<!-- Node42 -->
<g id="node42" class="node">
<title>Node42</title>
<g id="a_node42"><a xlink:title=" ">
<polygon fill="white" stroke="#bfbfbf" points="1069.48,-129 1069.48,-148 1109.48,-148 1109.48,-129 1069.48,-129"/>
<text text-anchor="middle" x="1089.48" y="-136" font-family="Helvetica" font-size="10.00">utility</text>
</a>
</g>
</g>
<!-- Node40&#45;&gt;Node42 -->
<g id="edge70" class="edge">
<title>Node40&#45;&gt;Node42</title>
<path fill="none" stroke="midnightblue" d="M1085.56,-190.4C1086.29,-180.96 1087.25,-168.45 1088.04,-158.19"/>
<polygon fill="midnightblue" stroke="midnightblue" points="1091.53,-158.43 1088.81,-148.19 1084.55,-157.9 1091.53,-158.43"/>
</g>
<!-- Node43 -->
<g id="node43" class="node">
<title>Node43</title>
<g id="a_node43"><a xlink:title=" ">
<polygon fill="white" stroke="#bfbfbf" points="1203.48,-123.5 1203.48,-153.5 1291.48,-153.5 1291.48,-123.5 1203.48,-123.5"/>
<text text-anchor="start" x="1211.48" y="-141.5" font-family="Helvetica" font-size="10.00">boost/icl/interval</text>
<text text-anchor="middle" x="1247.48" y="-130.5" font-family="Helvetica" font-size="10.00">_map.hpp</text>
</a>
</g>
</g>
<!-- Node40&#45;&gt;Node43 -->
<g id="edge72" class="edge">
<title>Node40&#45;&gt;Node43</title>
<path fill="none" stroke="midnightblue" d="M1119.85,-190.4C1144.2,-180.69 1176.74,-167.71 1202.87,-157.29"/>
<polygon fill="midnightblue" stroke="midnightblue" points="1204.19,-160.53 1212.18,-153.58 1201.59,-154.03 1204.19,-160.53"/>
</g>
<!-- Node44 -->
<g id="node44" class="node">
<title>Node44</title>
<g id="a_node44"><a xlink:title=" ">
<polygon fill="white" stroke="#bfbfbf" points="1309.48,-129 1309.48,-148 1427.48,-148 1427.48,-129 1309.48,-129"/>
<text text-anchor="middle" x="1368.48" y="-136" font-family="Helvetica" font-size="10.00">vsomeip/constants.hpp</text>
</a>
</g>
</g>
<!-- Node40&#45;&gt;Node44 -->
<g id="edge74" class="edge">
<title>Node40&#45;&gt;Node44</title>
<path fill="none" stroke="midnightblue" d="M1136.24,-192.65C1189.03,-180.57 1270.25,-161.98 1321.32,-150.29"/>
<polygon fill="midnightblue" stroke="midnightblue" points="1322.14,-153.69 1331.11,-148.05 1320.58,-146.87 1322.14,-153.69"/>
</g>
</g>
</svg>
