<?xml version="1.0" encoding="UTF-8" standalone="no"?>
<!DOCTYPE svg PUBLIC "-//W3C//DTD SVG 1.1//EN"
 "http://www.w3.org/Graphics/SVG/1.1/DTD/svg11.dtd">
<!-- Generated by graphviz version 2.44.0 (0)
 -->
<!-- Title: /home/ec2&#45;user/workspace/vsomeip/implementation/e2e_protection/include/e2e/profile/profile_interface/profile_interface.hpp Pages: 1 -->
<svg width="145pt" height="128pt"
 viewBox="0.00 0.00 145.00 128.00" xmlns="http://www.w3.org/2000/svg" xmlns:xlink="http://www.w3.org/1999/xlink">
<g id="graph0" class="graph" transform="scale(1 1) rotate(0) translate(4 124)">
<title>/home/ec2&#45;user/workspace/vsomeip/implementation/e2e_protection/include/e2e/profile/profile_interface/profile_interface.hpp</title>
<polygon fill="white" stroke="transparent" points="-4,4 -4,-124 141,-124 141,4 -4,4"/>
<!-- Node1 -->
<g id="node1" class="node">
<title>Node1</title>
<g id="a_node1"><a xlink:title=" ">
<polygon fill="#bfbfbf" stroke="black" points="0,-56.5 0,-119.5 137,-119.5 137,-56.5 0,-56.5"/>
<text text-anchor="start" x="8" y="-107.5" font-family="Helvetica" font-size="10.00">/home/ec2&#45;user/workspace</text>
<text text-anchor="start" x="8" y="-96.5" font-family="Helvetica" font-size="10.00">/vsomeip/implementation</text>
<text text-anchor="start" x="8" y="-85.5" font-family="Helvetica" font-size="10.00">/e2e_protection/include</text>
<text text-anchor="start" x="8" y="-74.5" font-family="Helvetica" font-size="10.00">/e2e/profile/profile_interface</text>
<text text-anchor="middle" x="68.5" y="-63.5" font-family="Helvetica" font-size="10.00">/profile_interface.hpp</text>
</a>
</g>
</g>
<!-- Node2 -->
<g id="node2" class="node">
<title>Node2</title>
<g id="a_node2"><a xlink:title=" ">
<polygon fill="white" stroke="#bfbfbf" points="45.5,-0.5 45.5,-19.5 91.5,-19.5 91.5,-0.5 45.5,-0.5"/>
<text text-anchor="middle" x="68.5" y="-7.5" font-family="Helvetica" font-size="10.00">cstdint</text>
</a>
</g>
</g>
<!-- Node1&#45;&gt;Node2 -->
<g id="edge1" class="edge">
<title>Node1&#45;&gt;Node2</title>
<path fill="none" stroke="midnightblue" d="M68.5,-56.09C68.5,-47.15 68.5,-37.67 68.5,-29.72"/>
<polygon fill="midnightblue" stroke="midnightblue" points="72,-29.72 68.5,-19.72 65,-29.72 72,-29.72"/>
</g>
</g>
</svg>
