<?xml version="1.0" encoding="UTF-8" standalone="no"?>
<!DOCTYPE svg PUBLIC "-//W3C//DTD SVG 1.1//EN"
 "http://www.w3.org/Graphics/SVG/1.1/DTD/svg11.dtd">
<!-- Generated by graphviz version 2.44.0 (0)
 -->
<!-- Title: /home/ec2&#45;user/workspace/vsomeip/implementation/e2e_protection/include/e2e/profile/profile_interface/protector.hpp Pages: 1 -->
<svg width="453pt" height="195pt"
 viewBox="0.00 0.00 452.50 195.00" xmlns="http://www.w3.org/2000/svg" xmlns:xlink="http://www.w3.org/1999/xlink">
<g id="graph0" class="graph" transform="scale(1 1) rotate(0) translate(4 191)">
<title>/home/ec2&#45;user/workspace/vsomeip/implementation/e2e_protection/include/e2e/profile/profile_interface/protector.hpp</title>
<polygon fill="white" stroke="transparent" points="-4,4 -4,-191 448.5,-191 448.5,4 -4,4"/>
<!-- Node1 -->
<g id="node1" class="node">
<title>Node1</title>
<g id="a_node1"><a xlink:title=" ">
<polygon fill="#bfbfbf" stroke="black" points="143.5,-123.5 143.5,-186.5 280.5,-186.5 280.5,-123.5 143.5,-123.5"/>
<text text-anchor="start" x="151.5" y="-174.5" font-family="Helvetica" font-size="10.00">/home/ec2&#45;user/workspace</text>
<text text-anchor="start" x="151.5" y="-163.5" font-family="Helvetica" font-size="10.00">/vsomeip/implementation</text>
<text text-anchor="start" x="151.5" y="-152.5" font-family="Helvetica" font-size="10.00">/e2e_protection/include</text>
<text text-anchor="start" x="151.5" y="-141.5" font-family="Helvetica" font-size="10.00">/e2e/profile/profile_interface</text>
<text text-anchor="middle" x="212" y="-130.5" font-family="Helvetica" font-size="10.00">/protector.hpp</text>
</a>
</g>
</g>
<!-- Node2 -->
<g id="node2" class="node">
<title>Node2</title>
<g id="a_node2"><a xlink:title=" ">
<polygon fill="white" stroke="#bfbfbf" points="0,-62 0,-81 140,-81 140,-62 0,-62"/>
<text text-anchor="middle" x="70" y="-69" font-family="Helvetica" font-size="10.00">vsomeip/primitive_types.hpp</text>
</a>
</g>
</g>
<!-- Node1&#45;&gt;Node2 -->
<g id="edge1" class="edge">
<title>Node1&#45;&gt;Node2</title>
<path fill="none" stroke="midnightblue" d="M158.72,-123.42C136.41,-110.62 111.61,-96.38 93.91,-86.22"/>
<polygon fill="midnightblue" stroke="midnightblue" points="95.28,-82.98 84.87,-81.03 91.8,-89.05 95.28,-82.98"/>
</g>
<!-- Node3 -->
<g id="node3" class="node">
<title>Node3</title>
<g id="a_node3"><a xlink:href="e2e__protection_2include_2buffer_2buffer_8hpp.html" target="_top" xlink:title=" ">
<polygon fill="white" stroke="black" points="284.5,-62 284.5,-81 397.5,-81 397.5,-62 284.5,-62"/>
<text text-anchor="middle" x="341" y="-69" font-family="Helvetica" font-size="10.00">../../../buffer/buffer.hpp</text>
</a>
</g>
</g>
<!-- Node1&#45;&gt;Node3 -->
<g id="edge2" class="edge">
<title>Node1&#45;&gt;Node3</title>
<path fill="none" stroke="midnightblue" d="M260.4,-123.42C280.48,-110.73 302.79,-96.64 318.83,-86.51"/>
<polygon fill="midnightblue" stroke="midnightblue" points="320.91,-89.33 327.49,-81.03 317.17,-83.42 320.91,-89.33"/>
</g>
<!-- Node8 -->
<g id="node8" class="node">
<title>Node8</title>
<g id="a_node8"><a xlink:href="profile__interface_8hpp.html" target="_top" xlink:title=" ">
<polygon fill="white" stroke="black" points="158,-56.5 158,-86.5 266,-86.5 266,-56.5 158,-56.5"/>
<text text-anchor="start" x="166" y="-74.5" font-family="Helvetica" font-size="10.00">../profile_interface</text>
<text text-anchor="middle" x="212" y="-63.5" font-family="Helvetica" font-size="10.00">/profile_interface.hpp</text>
</a>
</g>
</g>
<!-- Node1&#45;&gt;Node8 -->
<g id="edge7" class="edge">
<title>Node1&#45;&gt;Node8</title>
<path fill="none" stroke="midnightblue" d="M212,-123.19C212,-114.41 212,-104.98 212,-96.66"/>
<polygon fill="midnightblue" stroke="midnightblue" points="215.5,-96.52 212,-86.52 208.5,-96.52 215.5,-96.52"/>
</g>
<!-- Node4 -->
<g id="node4" class="node">
<title>Node4</title>
<g id="a_node4"><a xlink:title=" ">
<polygon fill="white" stroke="#bfbfbf" points="253.5,-0.5 253.5,-19.5 312.5,-19.5 312.5,-0.5 253.5,-0.5"/>
<text text-anchor="middle" x="283" y="-7.5" font-family="Helvetica" font-size="10.00">stdexcept</text>
</a>
</g>
</g>
<!-- Node3&#45;&gt;Node4 -->
<g id="edge3" class="edge">
<title>Node3&#45;&gt;Node4</title>
<path fill="none" stroke="midnightblue" d="M332.69,-61.98C323.82,-52.87 309.55,-38.24 298.58,-26.98"/>
<polygon fill="midnightblue" stroke="midnightblue" points="300.78,-24.23 291.29,-19.51 295.77,-29.11 300.78,-24.23"/>
</g>
<!-- Node5 -->
<g id="node5" class="node">
<title>Node5</title>
<g id="a_node5"><a xlink:title=" ">
<polygon fill="white" stroke="#bfbfbf" points="189,-0.5 189,-19.5 235,-19.5 235,-0.5 189,-0.5"/>
<text text-anchor="middle" x="212" y="-7.5" font-family="Helvetica" font-size="10.00">cstdint</text>
</a>
</g>
</g>
<!-- Node3&#45;&gt;Node5 -->
<g id="edge4" class="edge">
<title>Node3&#45;&gt;Node5</title>
<path fill="none" stroke="midnightblue" d="M322.52,-61.98C300.87,-51.99 264.79,-35.35 239.77,-23.81"/>
<polygon fill="midnightblue" stroke="midnightblue" points="240.99,-20.52 230.45,-19.51 238.06,-26.88 240.99,-20.52"/>
</g>
<!-- Node6 -->
<g id="node6" class="node">
<title>Node6</title>
<g id="a_node6"><a xlink:title=" ">
<polygon fill="white" stroke="#bfbfbf" points="331,-0.5 331,-19.5 383,-19.5 383,-0.5 331,-0.5"/>
<text text-anchor="middle" x="357" y="-7.5" font-family="Helvetica" font-size="10.00">ostream</text>
</a>
</g>
</g>
<!-- Node3&#45;&gt;Node6 -->
<g id="edge5" class="edge">
<title>Node3&#45;&gt;Node6</title>
<path fill="none" stroke="midnightblue" d="M343.29,-61.98C345.57,-53.49 349.15,-40.2 352.07,-29.32"/>
<polygon fill="midnightblue" stroke="midnightblue" points="355.49,-30.07 354.71,-19.51 348.74,-28.26 355.49,-30.07"/>
</g>
<!-- Node7 -->
<g id="node7" class="node">
<title>Node7</title>
<g id="a_node7"><a xlink:title=" ">
<polygon fill="white" stroke="#bfbfbf" points="401.5,-0.5 401.5,-19.5 444.5,-19.5 444.5,-0.5 401.5,-0.5"/>
<text text-anchor="middle" x="423" y="-7.5" font-family="Helvetica" font-size="10.00">vector</text>
</a>
</g>
</g>
<!-- Node3&#45;&gt;Node7 -->
<g id="edge6" class="edge">
<title>Node3&#45;&gt;Node7</title>
<path fill="none" stroke="midnightblue" d="M352.75,-61.98C365.78,-52.52 387.04,-37.1 402.76,-25.69"/>
<polygon fill="midnightblue" stroke="midnightblue" points="405.23,-28.21 411.27,-19.51 401.12,-22.55 405.23,-28.21"/>
</g>
<!-- Node8&#45;&gt;Node5 -->
<g id="edge8" class="edge">
<title>Node8&#45;&gt;Node5</title>
<path fill="none" stroke="midnightblue" d="M212,-56.4C212,-48.47 212,-38.46 212,-29.86"/>
<polygon fill="midnightblue" stroke="midnightblue" points="215.5,-29.66 212,-19.66 208.5,-29.66 215.5,-29.66"/>
</g>
</g>
</svg>
