<?xml version="1.0" encoding="UTF-8" standalone="no"?>
<!DOCTYPE svg PUBLIC "-//W3C//DTD SVG 1.1//EN"
 "http://www.w3.org/Graphics/SVG/1.1/DTD/svg11.dtd">
<!-- Generated by graphviz version 2.44.0 (0)
 -->
<!-- Title: /home/ec2&#45;user/workspace/vsomeip/implementation/e2e_protection/include/e2e/profile/profile_interface/checker.hpp Pages: 1 -->
<svg width="515pt" height="195pt"
 viewBox="0.00 0.00 514.50 195.00" xmlns="http://www.w3.org/2000/svg" xmlns:xlink="http://www.w3.org/1999/xlink">
<g id="graph0" class="graph" transform="scale(1 1) rotate(0) translate(4 191)">
<title>/home/ec2&#45;user/workspace/vsomeip/implementation/e2e_protection/include/e2e/profile/profile_interface/checker.hpp</title>
<polygon fill="white" stroke="transparent" points="-4,4 -4,-191 510.5,-191 510.5,4 -4,4"/>
<!-- Node1 -->
<g id="node1" class="node">
<title>Node1</title>
<g id="a_node1"><a xlink:title=" ">
<polygon fill="#bfbfbf" stroke="black" points="134.5,-123.5 134.5,-186.5 271.5,-186.5 271.5,-123.5 134.5,-123.5"/>
<text text-anchor="start" x="142.5" y="-174.5" font-family="Helvetica" font-size="10.00">/home/ec2&#45;user/workspace</text>
<text text-anchor="start" x="142.5" y="-163.5" font-family="Helvetica" font-size="10.00">/vsomeip/implementation</text>
<text text-anchor="start" x="142.5" y="-152.5" font-family="Helvetica" font-size="10.00">/e2e_protection/include</text>
<text text-anchor="start" x="142.5" y="-141.5" font-family="Helvetica" font-size="10.00">/e2e/profile/profile_interface</text>
<text text-anchor="middle" x="203" y="-130.5" font-family="Helvetica" font-size="10.00">/checker.hpp</text>
</a>
</g>
</g>
<!-- Node2 -->
<g id="node2" class="node">
<title>Node2</title>
<g id="a_node2"><a xlink:title=" ">
<polygon fill="white" stroke="#bfbfbf" points="0,-62 0,-81 44,-81 44,-62 0,-62"/>
<text text-anchor="middle" x="22" y="-69" font-family="Helvetica" font-size="10.00">mutex</text>
</a>
</g>
</g>
<!-- Node1&#45;&gt;Node2 -->
<g id="edge1" class="edge">
<title>Node1&#45;&gt;Node2</title>
<path fill="none" stroke="midnightblue" d="M134.19,-123.56C108.65,-112.19 79.46,-99.1 53,-87 51.84,-86.47 50.67,-85.93 49.48,-85.38"/>
<polygon fill="midnightblue" stroke="midnightblue" points="50.88,-82.18 40.33,-81.14 47.93,-88.52 50.88,-82.18"/>
</g>
<!-- Node3 -->
<g id="node3" class="node">
<title>Node3</title>
<g id="a_node3"><a xlink:title=" ">
<polygon fill="white" stroke="#bfbfbf" points="62,-62 62,-81 202,-81 202,-62 62,-62"/>
<text text-anchor="middle" x="132" y="-69" font-family="Helvetica" font-size="10.00">vsomeip/primitive_types.hpp</text>
</a>
</g>
</g>
<!-- Node1&#45;&gt;Node3 -->
<g id="edge2" class="edge">
<title>Node1&#45;&gt;Node3</title>
<path fill="none" stroke="midnightblue" d="M176.16,-123.19C166.07,-111.61 155,-98.9 146.46,-89.1"/>
<polygon fill="midnightblue" stroke="midnightblue" points="148.91,-86.58 139.7,-81.34 143.63,-91.18 148.91,-86.58"/>
</g>
<!-- Node4 -->
<g id="node4" class="node">
<title>Node4</title>
<g id="a_node4"><a xlink:href="profile__interface_8hpp.html" target="_top" xlink:title=" ">
<polygon fill="white" stroke="black" points="220,-56.5 220,-86.5 328,-86.5 328,-56.5 220,-56.5"/>
<text text-anchor="start" x="228" y="-74.5" font-family="Helvetica" font-size="10.00">../profile_interface</text>
<text text-anchor="middle" x="274" y="-63.5" font-family="Helvetica" font-size="10.00">/profile_interface.hpp</text>
</a>
</g>
</g>
<!-- Node1&#45;&gt;Node4 -->
<g id="edge3" class="edge">
<title>Node1&#45;&gt;Node4</title>
<path fill="none" stroke="midnightblue" d="M229.84,-123.19C238.26,-113.52 247.37,-103.07 255.12,-94.18"/>
<polygon fill="midnightblue" stroke="midnightblue" points="257.86,-96.36 261.79,-86.52 252.58,-91.76 257.86,-96.36"/>
</g>
<!-- Node6 -->
<g id="node6" class="node">
<title>Node6</title>
<g id="a_node6"><a xlink:href="e2e__protection_2include_2buffer_2buffer_8hpp.html" target="_top" xlink:title=" ">
<polygon fill="white" stroke="black" points="346.5,-62 346.5,-81 459.5,-81 459.5,-62 346.5,-62"/>
<text text-anchor="middle" x="403" y="-69" font-family="Helvetica" font-size="10.00">../../../buffer/buffer.hpp</text>
</a>
</g>
</g>
<!-- Node1&#45;&gt;Node6 -->
<g id="edge5" class="edge">
<title>Node1&#45;&gt;Node6</title>
<path fill="none" stroke="midnightblue" d="M271.55,-126.07C305.84,-112.09 345.63,-95.88 372.37,-84.98"/>
<polygon fill="midnightblue" stroke="midnightblue" points="374,-88.1 381.94,-81.08 371.36,-81.62 374,-88.1"/>
</g>
<!-- Node5 -->
<g id="node5" class="node">
<title>Node5</title>
<g id="a_node5"><a xlink:title=" ">
<polygon fill="white" stroke="#bfbfbf" points="251,-0.5 251,-19.5 297,-19.5 297,-0.5 251,-0.5"/>
<text text-anchor="middle" x="274" y="-7.5" font-family="Helvetica" font-size="10.00">cstdint</text>
</a>
</g>
</g>
<!-- Node4&#45;&gt;Node5 -->
<g id="edge4" class="edge">
<title>Node4&#45;&gt;Node5</title>
<path fill="none" stroke="midnightblue" d="M274,-56.4C274,-48.47 274,-38.46 274,-29.86"/>
<polygon fill="midnightblue" stroke="midnightblue" points="277.5,-29.66 274,-19.66 270.5,-29.66 277.5,-29.66"/>
</g>
<!-- Node6&#45;&gt;Node5 -->
<g id="edge7" class="edge">
<title>Node6&#45;&gt;Node5</title>
<path fill="none" stroke="midnightblue" d="M384.52,-61.98C362.87,-51.99 326.79,-35.35 301.77,-23.81"/>
<polygon fill="midnightblue" stroke="midnightblue" points="302.99,-20.52 292.45,-19.51 300.06,-26.88 302.99,-20.52"/>
</g>
<!-- Node7 -->
<g id="node7" class="node">
<title>Node7</title>
<g id="a_node7"><a xlink:title=" ">
<polygon fill="white" stroke="#bfbfbf" points="315.5,-0.5 315.5,-19.5 374.5,-19.5 374.5,-0.5 315.5,-0.5"/>
<text text-anchor="middle" x="345" y="-7.5" font-family="Helvetica" font-size="10.00">stdexcept</text>
</a>
</g>
</g>
<!-- Node6&#45;&gt;Node7 -->
<g id="edge6" class="edge">
<title>Node6&#45;&gt;Node7</title>
<path fill="none" stroke="midnightblue" d="M394.69,-61.98C385.82,-52.87 371.55,-38.24 360.58,-26.98"/>
<polygon fill="midnightblue" stroke="midnightblue" points="362.78,-24.23 353.29,-19.51 357.77,-29.11 362.78,-24.23"/>
</g>
<!-- Node8 -->
<g id="node8" class="node">
<title>Node8</title>
<g id="a_node8"><a xlink:title=" ">
<polygon fill="white" stroke="#bfbfbf" points="393,-0.5 393,-19.5 445,-19.5 445,-0.5 393,-0.5"/>
<text text-anchor="middle" x="419" y="-7.5" font-family="Helvetica" font-size="10.00">ostream</text>
</a>
</g>
</g>
<!-- Node6&#45;&gt;Node8 -->
<g id="edge8" class="edge">
<title>Node6&#45;&gt;Node8</title>
<path fill="none" stroke="midnightblue" d="M405.29,-61.98C407.57,-53.49 411.15,-40.2 414.07,-29.32"/>
<polygon fill="midnightblue" stroke="midnightblue" points="417.49,-30.07 416.71,-19.51 410.74,-28.26 417.49,-30.07"/>
</g>
<!-- Node9 -->
<g id="node9" class="node">
<title>Node9</title>
<g id="a_node9"><a xlink:title=" ">
<polygon fill="white" stroke="#bfbfbf" points="463.5,-0.5 463.5,-19.5 506.5,-19.5 506.5,-0.5 463.5,-0.5"/>
<text text-anchor="middle" x="485" y="-7.5" font-family="Helvetica" font-size="10.00">vector</text>
</a>
</g>
</g>
<!-- Node6&#45;&gt;Node9 -->
<g id="edge9" class="edge">
<title>Node6&#45;&gt;Node9</title>
<path fill="none" stroke="midnightblue" d="M414.75,-61.98C427.78,-52.52 449.04,-37.1 464.76,-25.69"/>
<polygon fill="midnightblue" stroke="midnightblue" points="467.23,-28.21 473.27,-19.51 463.12,-22.55 467.23,-28.21"/>
</g>
</g>
</svg>
