<?xml version="1.0" encoding="UTF-8" standalone="no"?>
<!DOCTYPE svg PUBLIC "-//W3C//DTD SVG 1.1//EN"
 "http://www.w3.org/Graphics/SVG/1.1/DTD/svg11.dtd">
<!-- Generated by graphviz version 2.44.0 (0)
 -->
<!-- Title: /home/ec2&#45;user/workspace/vsomeip/implementation/service_discovery/include/protection_option_impl.hpp Pages: 1 -->
<svg width="468pt" height="240pt"
 viewBox="0.00 0.00 467.50 240.00" xmlns="http://www.w3.org/2000/svg" xmlns:xlink="http://www.w3.org/1999/xlink">
<g id="graph0" class="graph" transform="scale(1 1) rotate(0) translate(4 236)">
<title>/home/ec2&#45;user/workspace/vsomeip/implementation/service_discovery/include/protection_option_impl.hpp</title>
<polygon fill="white" stroke="transparent" points="-4,4 -4,-236 463.5,-236 463.5,4 -4,4"/>
<!-- Node1 -->
<g id="node1" class="node">
<title>Node1</title>
<g id="a_node1"><a xlink:title=" ">
<polygon fill="#bfbfbf" stroke="black" points="44.5,-179.5 44.5,-231.5 180.5,-231.5 180.5,-179.5 44.5,-179.5"/>
<text text-anchor="start" x="52.5" y="-219.5" font-family="Helvetica" font-size="10.00">/home/ec2&#45;user/workspace</text>
<text text-anchor="start" x="52.5" y="-208.5" font-family="Helvetica" font-size="10.00">/vsomeip/implementation</text>
<text text-anchor="start" x="52.5" y="-197.5" font-family="Helvetica" font-size="10.00">/service_discovery/include</text>
<text text-anchor="middle" x="112.5" y="-186.5" font-family="Helvetica" font-size="10.00">/protection_option_impl.hpp</text>
</a>
</g>
</g>
<!-- Node2 -->
<g id="node2" class="node">
<title>Node2</title>
<g id="a_node2"><a xlink:href="implementation_2service__discovery_2include_2primitive__types_8hpp.html" target="_top" xlink:title=" ">
<polygon fill="white" stroke="black" points="0,-112.5 0,-142.5 95,-142.5 95,-112.5 0,-112.5"/>
<text text-anchor="start" x="8" y="-130.5" font-family="Helvetica" font-size="10.00">../include/primitive</text>
<text text-anchor="middle" x="47.5" y="-119.5" font-family="Helvetica" font-size="10.00">_types.hpp</text>
</a>
</g>
</g>
<!-- Node1&#45;&gt;Node2 -->
<g id="edge1" class="edge">
<title>Node1&#45;&gt;Node2</title>
<path fill="none" stroke="midnightblue" d="M90.86,-179.19C82.94,-169.94 74.05,-159.54 66.39,-150.59"/>
<polygon fill="midnightblue" stroke="midnightblue" points="68.93,-148.17 59.77,-142.85 63.61,-152.72 68.93,-148.17"/>
</g>
<!-- Node4 -->
<g id="node4" class="node">
<title>Node4</title>
<g id="a_node4"><a xlink:href="option__impl_8hpp.html" target="_top" xlink:title=" ">
<polygon fill="white" stroke="black" points="113.5,-118 113.5,-137 241.5,-137 241.5,-118 113.5,-118"/>
<text text-anchor="middle" x="177.5" y="-125" font-family="Helvetica" font-size="10.00">../include/option_impl.hpp</text>
</a>
</g>
</g>
<!-- Node1&#45;&gt;Node4 -->
<g id="edge3" class="edge">
<title>Node1&#45;&gt;Node4</title>
<path fill="none" stroke="midnightblue" d="M134.14,-179.19C143.74,-167.97 154.77,-155.08 163.3,-145.11"/>
<polygon fill="midnightblue" stroke="midnightblue" points="166.21,-147.08 170.05,-137.21 160.89,-142.53 166.21,-147.08"/>
</g>
<!-- Node3 -->
<g id="node3" class="node">
<title>Node3</title>
<g id="a_node3"><a xlink:title=" ">
<polygon fill="white" stroke="#bfbfbf" points="62.5,-0.5 62.5,-19.5 108.5,-19.5 108.5,-0.5 62.5,-0.5"/>
<text text-anchor="middle" x="85.5" y="-7.5" font-family="Helvetica" font-size="10.00">cstdint</text>
</a>
</g>
</g>
<!-- Node2&#45;&gt;Node3 -->
<g id="edge2" class="edge">
<title>Node2&#45;&gt;Node3</title>
<path fill="none" stroke="midnightblue" d="M52.16,-112.34C59.04,-91.43 71.91,-52.31 79.49,-29.27"/>
<polygon fill="midnightblue" stroke="midnightblue" points="82.85,-30.26 82.65,-19.67 76.2,-28.07 82.85,-30.26"/>
</g>
<!-- Node4&#45;&gt;Node3 -->
<g id="edge4" class="edge">
<title>Node4&#45;&gt;Node3</title>
<path fill="none" stroke="midnightblue" d="M158.26,-117.84C141.68,-109.42 118.3,-95.12 104.5,-76 94.72,-62.44 89.94,-43.89 87.63,-30.08"/>
<polygon fill="midnightblue" stroke="midnightblue" points="91.04,-29.23 86.21,-19.8 84.11,-30.19 91.04,-29.23"/>
</g>
<!-- Node5 -->
<g id="node5" class="node">
<title>Node5</title>
<g id="a_node5"><a xlink:title=" ">
<polygon fill="white" stroke="#bfbfbf" points="114,-56.5 114,-75.5 167,-75.5 167,-56.5 114,-56.5"/>
<text text-anchor="middle" x="140.5" y="-63.5" font-family="Helvetica" font-size="10.00">memory</text>
</a>
</g>
</g>
<!-- Node4&#45;&gt;Node5 -->
<g id="edge5" class="edge">
<title>Node4&#45;&gt;Node5</title>
<path fill="none" stroke="midnightblue" d="M172.2,-117.98C166.76,-109.23 158.14,-95.37 151.26,-84.31"/>
<polygon fill="midnightblue" stroke="midnightblue" points="154.04,-82.15 145.79,-75.51 148.1,-85.85 154.04,-82.15"/>
</g>
<!-- Node6 -->
<g id="node6" class="node">
<title>Node6</title>
<g id="a_node6"><a xlink:href="implementation_2service__discovery_2include_2enumeration__types_8hpp.html" target="_top" xlink:title=" ">
<polygon fill="white" stroke="black" points="185.5,-56.5 185.5,-75.5 303.5,-75.5 303.5,-56.5 185.5,-56.5"/>
<text text-anchor="middle" x="244.5" y="-63.5" font-family="Helvetica" font-size="10.00">enumeration_types.hpp</text>
</a>
</g>
</g>
<!-- Node4&#45;&gt;Node6 -->
<g id="edge6" class="edge">
<title>Node4&#45;&gt;Node6</title>
<path fill="none" stroke="midnightblue" d="M187.1,-117.98C197.55,-108.7 214.47,-93.67 227.24,-82.33"/>
<polygon fill="midnightblue" stroke="midnightblue" points="229.77,-84.77 234.92,-75.51 225.12,-79.53 229.77,-84.77"/>
</g>
<!-- Node7 -->
<g id="node7" class="node">
<title>Node7</title>
<g id="a_node7"><a xlink:href="message__element__impl_8hpp.html" target="_top" xlink:title=" ">
<polygon fill="white" stroke="black" points="321.5,-56.5 321.5,-75.5 459.5,-75.5 459.5,-56.5 321.5,-56.5"/>
<text text-anchor="middle" x="390.5" y="-63.5" font-family="Helvetica" font-size="10.00">message_element_impl.hpp</text>
</a>
</g>
</g>
<!-- Node4&#45;&gt;Node7 -->
<g id="edge8" class="edge">
<title>Node4&#45;&gt;Node7</title>
<path fill="none" stroke="midnightblue" d="M208.02,-117.98C245.42,-107.53 308.93,-89.79 350.29,-78.23"/>
<polygon fill="midnightblue" stroke="midnightblue" points="351.35,-81.57 360.04,-75.51 349.47,-74.83 351.35,-81.57"/>
</g>
<!-- Node6&#45;&gt;Node3 -->
<g id="edge7" class="edge">
<title>Node6&#45;&gt;Node3</title>
<path fill="none" stroke="midnightblue" d="M219.31,-56.44C191.93,-47.15 148.09,-32.26 118.11,-22.07"/>
<polygon fill="midnightblue" stroke="midnightblue" points="119.11,-18.72 108.51,-18.82 116.85,-25.35 119.11,-18.72"/>
</g>
</g>
</svg>
