<?xml version="1.0" encoding="UTF-8" standalone="no"?>
<!DOCTYPE svg PUBLIC "-//W3C//DTD SVG 1.1//EN"
 "http://www.w3.org/Graphics/SVG/1.1/DTD/svg11.dtd">
<!-- Generated by graphviz version 2.44.0 (0)
 -->
<!-- Title: /home/ec2&#45;user/workspace/vsomeip/implementation/service_discovery/include/protection_option_impl.hpp Pages: 1 -->
<svg width="346pt" height="150pt"
 viewBox="0.00 0.00 345.50 150.00" xmlns="http://www.w3.org/2000/svg" xmlns:xlink="http://www.w3.org/1999/xlink">
<g id="graph0" class="graph" transform="scale(1 1) rotate(0) translate(4 146)">
<title>/home/ec2&#45;user/workspace/vsomeip/implementation/service_discovery/include/protection_option_impl.hpp</title>
<polygon fill="white" stroke="transparent" points="-4,4 -4,-146 341.5,-146 341.5,4 -4,4"/>
<!-- Node1 -->
<g id="node1" class="node">
<title>Node1</title>
<g id="a_node1"><a xlink:title=" ">
<polygon fill="#bfbfbf" stroke="black" points="100,-89.5 100,-141.5 236,-141.5 236,-89.5 100,-89.5"/>
<text text-anchor="start" x="108" y="-129.5" font-family="Helvetica" font-size="10.00">/home/ec2&#45;user/workspace</text>
<text text-anchor="start" x="108" y="-118.5" font-family="Helvetica" font-size="10.00">/vsomeip/implementation</text>
<text text-anchor="start" x="108" y="-107.5" font-family="Helvetica" font-size="10.00">/service_discovery/include</text>
<text text-anchor="middle" x="168" y="-96.5" font-family="Helvetica" font-size="10.00">/protection_option_impl.hpp</text>
</a>
</g>
</g>
<!-- Node2 -->
<g id="node2" class="node">
<title>Node2</title>
<g id="a_node2"><a xlink:href="service__discovery_2src_2message__impl_8cpp.html" target="_top" xlink:title=" ">
<polygon fill="white" stroke="black" points="0,-0.5 0,-52.5 158,-52.5 158,-0.5 0,-0.5"/>
<text text-anchor="start" x="8" y="-40.5" font-family="Helvetica" font-size="10.00">/home/ec2&#45;user/workspace</text>
<text text-anchor="start" x="8" y="-29.5" font-family="Helvetica" font-size="10.00">/vsomeip/implementation</text>
<text text-anchor="start" x="8" y="-18.5" font-family="Helvetica" font-size="10.00">/service_discovery/src/message</text>
<text text-anchor="middle" x="79" y="-7.5" font-family="Helvetica" font-size="10.00">_impl.cpp</text>
</a>
</g>
</g>
<!-- Node1&#45;&gt;Node2 -->
<g id="edge1" class="edge">
<title>Node1&#45;&gt;Node2</title>
<path fill="none" stroke="midnightblue" d="M134.83,-82.08C124.87,-72.34 114.09,-61.8 104.68,-52.61"/>
<polygon fill="midnightblue" stroke="midnightblue" points="132.66,-84.85 142.26,-89.34 137.55,-79.84 132.66,-84.85"/>
</g>
<!-- Node3 -->
<g id="node3" class="node">
<title>Node3</title>
<g id="a_node3"><a xlink:href="protection__option__impl_8cpp.html" target="_top" xlink:title=" ">
<polygon fill="white" stroke="black" points="176.5,-0.5 176.5,-52.5 337.5,-52.5 337.5,-0.5 176.5,-0.5"/>
<text text-anchor="start" x="184.5" y="-40.5" font-family="Helvetica" font-size="10.00">/home/ec2&#45;user/workspace</text>
<text text-anchor="start" x="184.5" y="-29.5" font-family="Helvetica" font-size="10.00">/vsomeip/implementation</text>
<text text-anchor="start" x="184.5" y="-18.5" font-family="Helvetica" font-size="10.00">/service_discovery/src/protection</text>
<text text-anchor="middle" x="257" y="-7.5" font-family="Helvetica" font-size="10.00">_option_impl.cpp</text>
</a>
</g>
</g>
<!-- Node1&#45;&gt;Node3 -->
<g id="edge2" class="edge">
<title>Node1&#45;&gt;Node3</title>
<path fill="none" stroke="midnightblue" d="M201.17,-82.08C211.13,-72.34 221.91,-61.8 231.32,-52.61"/>
<polygon fill="midnightblue" stroke="midnightblue" points="198.45,-79.84 193.74,-89.34 203.34,-84.85 198.45,-79.84"/>
</g>
</g>
</svg>
