<?xml version="1.0" encoding="UTF-8" standalone="no"?>
<!DOCTYPE svg PUBLIC "-//W3C//DTD SVG 1.1//EN"
 "http://www.w3.org/Graphics/SVG/1.1/DTD/svg11.dtd">
<!-- Generated by graphviz version 2.44.0 (0)
 -->
<!-- Title: /home/ec2&#45;user/workspace/vsomeip/implementation/service_discovery/src/protection_option_impl.cpp Pages: 1 -->
<svg width="675pt" height="307pt"
 viewBox="0.00 0.00 674.50 307.00" xmlns="http://www.w3.org/2000/svg" xmlns:xlink="http://www.w3.org/1999/xlink">
<g id="graph0" class="graph" transform="scale(1 1) rotate(0) translate(4 303)">
<title>/home/ec2&#45;user/workspace/vsomeip/implementation/service_discovery/src/protection_option_impl.cpp</title>
<polygon fill="white" stroke="transparent" points="-4,4 -4,-303 670.5,-303 670.5,4 -4,4"/>
<!-- Node1 -->
<g id="node1" class="node">
<title>Node1</title>
<g id="a_node1"><a xlink:title=" ">
<polygon fill="#bfbfbf" stroke="black" points="291,-246.5 291,-298.5 452,-298.5 452,-246.5 291,-246.5"/>
<text text-anchor="start" x="299" y="-286.5" font-family="Helvetica" font-size="10.00">/home/ec2&#45;user/workspace</text>
<text text-anchor="start" x="299" y="-275.5" font-family="Helvetica" font-size="10.00">/vsomeip/implementation</text>
<text text-anchor="start" x="299" y="-264.5" font-family="Helvetica" font-size="10.00">/service_discovery/src/protection</text>
<text text-anchor="middle" x="371.5" y="-253.5" font-family="Helvetica" font-size="10.00">_option_impl.cpp</text>
</a>
</g>
</g>
<!-- Node2 -->
<g id="node2" class="node">
<title>Node2</title>
<g id="a_node2"><a xlink:href="protection__option__impl_8hpp.html" target="_top" xlink:title=" ">
<polygon fill="white" stroke="black" points="197.5,-179.5 197.5,-209.5 299.5,-209.5 299.5,-179.5 197.5,-179.5"/>
<text text-anchor="start" x="205.5" y="-197.5" font-family="Helvetica" font-size="10.00">../include/protection</text>
<text text-anchor="middle" x="248.5" y="-186.5" font-family="Helvetica" font-size="10.00">_option_impl.hpp</text>
</a>
</g>
</g>
<!-- Node1&#45;&gt;Node2 -->
<g id="edge1" class="edge">
<title>Node1&#45;&gt;Node2</title>
<path fill="none" stroke="midnightblue" d="M330.88,-246.4C314.39,-236.21 295.62,-224.61 280.17,-215.07"/>
<polygon fill="midnightblue" stroke="midnightblue" points="281.84,-211.99 271.49,-209.71 278.16,-217.94 281.84,-211.99"/>
</g>
<!-- Node9 -->
<g id="node9" class="node">
<title>Node9</title>
<g id="a_node9"><a xlink:href="message_2include_2deserializer_8hpp.html" target="_top" xlink:title=" ">
<polygon fill="white" stroke="black" points="443.5,-179.5 443.5,-209.5 551.5,-209.5 551.5,-179.5 443.5,-179.5"/>
<text text-anchor="start" x="451.5" y="-197.5" font-family="Helvetica" font-size="10.00">../../message/include</text>
<text text-anchor="middle" x="497.5" y="-186.5" font-family="Helvetica" font-size="10.00">/deserializer.hpp</text>
</a>
</g>
</g>
<!-- Node1&#45;&gt;Node9 -->
<g id="edge10" class="edge">
<title>Node1&#45;&gt;Node9</title>
<path fill="none" stroke="midnightblue" d="M413.11,-246.4C430,-236.21 449.23,-224.61 465.06,-215.07"/>
<polygon fill="midnightblue" stroke="midnightblue" points="467.19,-217.87 473.95,-209.71 463.58,-211.87 467.19,-217.87"/>
</g>
<!-- Node13 -->
<g id="node13" class="node">
<title>Node13</title>
<g id="a_node13"><a xlink:href="serializer_8hpp.html" target="_top" xlink:title=" ">
<polygon fill="white" stroke="black" points="317.5,-179.5 317.5,-209.5 425.5,-209.5 425.5,-179.5 317.5,-179.5"/>
<text text-anchor="start" x="325.5" y="-197.5" font-family="Helvetica" font-size="10.00">../../message/include</text>
<text text-anchor="middle" x="371.5" y="-186.5" font-family="Helvetica" font-size="10.00">/serializer.hpp</text>
</a>
</g>
</g>
<!-- Node1&#45;&gt;Node13 -->
<g id="edge14" class="edge">
<title>Node1&#45;&gt;Node13</title>
<path fill="none" stroke="midnightblue" d="M371.5,-246.19C371.5,-237.79 371.5,-228.44 371.5,-220.09"/>
<polygon fill="midnightblue" stroke="midnightblue" points="375,-219.85 371.5,-209.85 368,-219.85 375,-219.85"/>
</g>
<!-- Node3 -->
<g id="node3" class="node">
<title>Node3</title>
<g id="a_node3"><a xlink:href="implementation_2service__discovery_2include_2primitive__types_8hpp.html" target="_top" xlink:title=" ">
<polygon fill="white" stroke="black" points="0,-56.5 0,-86.5 95,-86.5 95,-56.5 0,-56.5"/>
<text text-anchor="start" x="8" y="-74.5" font-family="Helvetica" font-size="10.00">../include/primitive</text>
<text text-anchor="middle" x="47.5" y="-63.5" font-family="Helvetica" font-size="10.00">_types.hpp</text>
</a>
</g>
</g>
<!-- Node2&#45;&gt;Node3 -->
<g id="edge2" class="edge">
<title>Node2&#45;&gt;Node3</title>
<path fill="none" stroke="midnightblue" d="M225.05,-179.38C189.04,-157.71 120.06,-116.18 79.49,-91.76"/>
<polygon fill="midnightblue" stroke="midnightblue" points="81.17,-88.69 70.8,-86.53 77.56,-94.68 81.17,-88.69"/>
</g>
<!-- Node5 -->
<g id="node5" class="node">
<title>Node5</title>
<g id="a_node5"><a xlink:href="option__impl_8hpp.html" target="_top" xlink:title=" ">
<polygon fill="white" stroke="black" points="189.5,-123.5 189.5,-142.5 317.5,-142.5 317.5,-123.5 189.5,-123.5"/>
<text text-anchor="middle" x="253.5" y="-130.5" font-family="Helvetica" font-size="10.00">../include/option_impl.hpp</text>
</a>
</g>
</g>
<!-- Node2&#45;&gt;Node5 -->
<g id="edge4" class="edge">
<title>Node2&#45;&gt;Node5</title>
<path fill="none" stroke="midnightblue" d="M249.68,-179.4C250.35,-171.47 251.19,-161.46 251.92,-152.86"/>
<polygon fill="midnightblue" stroke="midnightblue" points="255.42,-152.92 252.77,-142.66 248.45,-152.33 255.42,-152.92"/>
</g>
<!-- Node4 -->
<g id="node4" class="node">
<title>Node4</title>
<g id="a_node4"><a xlink:title=" ">
<polygon fill="white" stroke="#bfbfbf" points="327.5,-0.5 327.5,-19.5 373.5,-19.5 373.5,-0.5 327.5,-0.5"/>
<text text-anchor="middle" x="350.5" y="-7.5" font-family="Helvetica" font-size="10.00">cstdint</text>
</a>
</g>
</g>
<!-- Node3&#45;&gt;Node4 -->
<g id="edge3" class="edge">
<title>Node3&#45;&gt;Node4</title>
<path fill="none" stroke="midnightblue" d="M95.1,-57.92C97.94,-57.25 100.75,-56.6 103.5,-56 179.48,-39.26 269.59,-23.99 317.19,-16.27"/>
<polygon fill="midnightblue" stroke="midnightblue" points="317.91,-19.7 327.23,-14.66 316.8,-12.79 317.91,-19.7"/>
</g>
<!-- Node5&#45;&gt;Node4 -->
<g id="edge5" class="edge">
<title>Node5&#45;&gt;Node4</title>
<path fill="none" stroke="midnightblue" d="M278.91,-123.42C296.23,-116.29 318.32,-104.47 331.5,-87 344.01,-70.41 348.36,-46.56 349.83,-30.02"/>
<polygon fill="midnightblue" stroke="midnightblue" points="353.33,-30.11 350.45,-19.92 346.34,-29.68 353.33,-30.11"/>
</g>
<!-- Node6 -->
<g id="node6" class="node">
<title>Node6</title>
<g id="a_node6"><a xlink:title=" ">
<polygon fill="white" stroke="#bfbfbf" points="113,-62 113,-81 166,-81 166,-62 113,-62"/>
<text text-anchor="middle" x="139.5" y="-69" font-family="Helvetica" font-size="10.00">memory</text>
</a>
</g>
</g>
<!-- Node5&#45;&gt;Node6 -->
<g id="edge6" class="edge">
<title>Node5&#45;&gt;Node6</title>
<path fill="none" stroke="midnightblue" d="M237.17,-123.48C218.29,-113.62 186.99,-97.29 164.92,-85.77"/>
<polygon fill="midnightblue" stroke="midnightblue" points="166.29,-82.53 155.8,-81.01 163.05,-88.74 166.29,-82.53"/>
</g>
<!-- Node7 -->
<g id="node7" class="node">
<title>Node7</title>
<g id="a_node7"><a xlink:href="implementation_2service__discovery_2include_2enumeration__types_8hpp.html" target="_top" xlink:title=" ">
<polygon fill="white" stroke="black" points="378.5,-62 378.5,-81 496.5,-81 496.5,-62 378.5,-62"/>
<text text-anchor="middle" x="437.5" y="-69" font-family="Helvetica" font-size="10.00">enumeration_types.hpp</text>
</a>
</g>
</g>
<!-- Node5&#45;&gt;Node7 -->
<g id="edge7" class="edge">
<title>Node5&#45;&gt;Node7</title>
<path fill="none" stroke="midnightblue" d="M279.86,-123.48C311.84,-113.14 365.88,-95.66 401.62,-84.1"/>
<polygon fill="midnightblue" stroke="midnightblue" points="402.75,-87.42 411.19,-81.01 400.59,-80.76 402.75,-87.42"/>
</g>
<!-- Node8 -->
<g id="node8" class="node">
<title>Node8</title>
<g id="a_node8"><a xlink:href="message__element__impl_8hpp.html" target="_top" xlink:title=" ">
<polygon fill="white" stroke="black" points="184.5,-62 184.5,-81 322.5,-81 322.5,-62 184.5,-62"/>
<text text-anchor="middle" x="253.5" y="-69" font-family="Helvetica" font-size="10.00">message_element_impl.hpp</text>
</a>
</g>
</g>
<!-- Node5&#45;&gt;Node8 -->
<g id="edge9" class="edge">
<title>Node5&#45;&gt;Node8</title>
<path fill="none" stroke="midnightblue" d="M253.5,-123.48C253.5,-115.08 253.5,-101.98 253.5,-91.16"/>
<polygon fill="midnightblue" stroke="midnightblue" points="257,-91.01 253.5,-81.01 250,-91.01 257,-91.01"/>
</g>
<!-- Node7&#45;&gt;Node4 -->
<g id="edge8" class="edge">
<title>Node7&#45;&gt;Node4</title>
<path fill="none" stroke="midnightblue" d="M425.04,-61.98C411.08,-52.43 388.24,-36.81 371.51,-25.37"/>
<polygon fill="midnightblue" stroke="midnightblue" points="373.17,-22.27 362.94,-19.51 369.22,-28.04 373.17,-22.27"/>
</g>
<!-- Node10 -->
<g id="node10" class="node">
<title>Node10</title>
<g id="a_node10"><a xlink:title=" ">
<polygon fill="white" stroke="#bfbfbf" points="345,-123.5 345,-142.5 388,-142.5 388,-123.5 345,-123.5"/>
<text text-anchor="middle" x="366.5" y="-130.5" font-family="Helvetica" font-size="10.00">vector</text>
</a>
</g>
</g>
<!-- Node9&#45;&gt;Node10 -->
<g id="edge11" class="edge">
<title>Node9&#45;&gt;Node10</title>
<path fill="none" stroke="midnightblue" d="M466.45,-179.4C444.77,-169.55 416.04,-156.5 394.95,-146.92"/>
<polygon fill="midnightblue" stroke="midnightblue" points="396.11,-143.61 385.56,-142.66 393.22,-149.98 396.11,-143.61"/>
</g>
<!-- Node11 -->
<g id="node11" class="node">
<title>Node11</title>
<g id="a_node11"><a xlink:title=" ">
<polygon fill="white" stroke="#bfbfbf" points="406.5,-123.5 406.5,-142.5 508.5,-142.5 508.5,-123.5 406.5,-123.5"/>
<text text-anchor="middle" x="457.5" y="-130.5" font-family="Helvetica" font-size="10.00">vsomeip/export.hpp</text>
</a>
</g>
</g>
<!-- Node9&#45;&gt;Node11 -->
<g id="edge12" class="edge">
<title>Node9&#45;&gt;Node11</title>
<path fill="none" stroke="midnightblue" d="M488.02,-179.4C482.33,-170.93 475.05,-160.1 469.02,-151.14"/>
<polygon fill="midnightblue" stroke="midnightblue" points="471.8,-149 463.32,-142.66 465.99,-152.91 471.8,-149"/>
</g>
<!-- Node12 -->
<g id="node12" class="node">
<title>Node12</title>
<g id="a_node12"><a xlink:title=" ">
<polygon fill="white" stroke="#bfbfbf" points="526.5,-123.5 526.5,-142.5 666.5,-142.5 666.5,-123.5 526.5,-123.5"/>
<text text-anchor="middle" x="596.5" y="-130.5" font-family="Helvetica" font-size="10.00">vsomeip/primitive_types.hpp</text>
</a>
</g>
</g>
<!-- Node9&#45;&gt;Node12 -->
<g id="edge13" class="edge">
<title>Node9&#45;&gt;Node12</title>
<path fill="none" stroke="midnightblue" d="M520.96,-179.4C536.83,-169.86 557.69,-157.32 573.47,-147.84"/>
<polygon fill="midnightblue" stroke="midnightblue" points="575.33,-150.81 582.09,-142.66 571.72,-144.81 575.33,-150.81"/>
</g>
<!-- Node13&#45;&gt;Node10 -->
<g id="edge15" class="edge">
<title>Node13&#45;&gt;Node10</title>
<path fill="none" stroke="midnightblue" d="M370.32,-179.4C369.65,-171.47 368.81,-161.46 368.08,-152.86"/>
<polygon fill="midnightblue" stroke="midnightblue" points="371.55,-152.33 367.23,-142.66 364.58,-152.92 371.55,-152.33"/>
</g>
<!-- Node13&#45;&gt;Node11 -->
<g id="edge16" class="edge">
<title>Node13&#45;&gt;Node11</title>
<path fill="none" stroke="midnightblue" d="M391.88,-179.4C405.41,-170.04 423.11,-157.79 436.72,-148.38"/>
<polygon fill="midnightblue" stroke="midnightblue" points="438.75,-151.23 444.99,-142.66 434.77,-145.47 438.75,-151.23"/>
</g>
<!-- Node13&#45;&gt;Node12 -->
<g id="edge17" class="edge">
<title>Node13&#45;&gt;Node12</title>
<path fill="none" stroke="midnightblue" d="M424.54,-179.47C464.2,-168.99 517.71,-154.84 554.44,-145.12"/>
<polygon fill="midnightblue" stroke="midnightblue" points="555.56,-148.45 564.33,-142.51 553.77,-141.68 555.56,-148.45"/>
</g>
</g>
</svg>
