<?xml version="1.0" encoding="UTF-8" standalone="no"?>
<!DOCTYPE svg PUBLIC "-//W3C//DTD SVG 1.1//EN"
 "http://www.w3.org/Graphics/SVG/1.1/DTD/svg11.dtd">
<!-- Generated by graphviz version 2.44.0 (0)
 -->
<!-- Title: /home/ec2&#45;user/workspace/vsomeip/implementation/helper/boost/asio/detail/reactive_socket_recvmsg_op_ext_local.hpp Pages: 1 -->
<svg width="316pt" height="450pt"
 viewBox="0.00 0.00 315.50 450.00" xmlns="http://www.w3.org/2000/svg" xmlns:xlink="http://www.w3.org/1999/xlink">
<g id="graph0" class="graph" transform="scale(1 1) rotate(0) translate(4 446)">
<title>/home/ec2&#45;user/workspace/vsomeip/implementation/helper/boost/asio/detail/reactive_socket_recvmsg_op_ext_local.hpp</title>
<polygon fill="white" stroke="transparent" points="-4,4 -4,-446 311.5,-446 311.5,4 -4,4"/>
<!-- Node1 -->
<g id="node1" class="node">
<title>Node1</title>
<g id="a_node1"><a xlink:title=" ">
<polygon fill="#bfbfbf" stroke="black" points="81,-378.5 81,-441.5 227,-441.5 227,-378.5 81,-378.5"/>
<text text-anchor="start" x="89" y="-429.5" font-family="Helvetica" font-size="10.00">/home/ec2&#45;user/workspace</text>
<text text-anchor="start" x="89" y="-418.5" font-family="Helvetica" font-size="10.00">/vsomeip/implementation</text>
<text text-anchor="start" x="89" y="-407.5" font-family="Helvetica" font-size="10.00">/helper/boost/asio/detail</text>
<text text-anchor="start" x="89" y="-396.5" font-family="Helvetica" font-size="10.00">/reactive_socket_recvmsg_op</text>
<text text-anchor="middle" x="154" y="-385.5" font-family="Helvetica" font-size="10.00">_ext_local.hpp</text>
</a>
</g>
</g>
<!-- Node2 -->
<g id="node2" class="node">
<title>Node2</title>
<g id="a_node2"><a xlink:href="reactive__socket__service__base__ext__local_8hpp.html" target="_top" xlink:title=" ">
<polygon fill="white" stroke="black" points="78.5,-278.5 78.5,-341.5 229.5,-341.5 229.5,-278.5 78.5,-278.5"/>
<text text-anchor="start" x="86.5" y="-329.5" font-family="Helvetica" font-size="10.00">/home/ec2&#45;user/workspace</text>
<text text-anchor="start" x="86.5" y="-318.5" font-family="Helvetica" font-size="10.00">/vsomeip/implementation</text>
<text text-anchor="start" x="86.5" y="-307.5" font-family="Helvetica" font-size="10.00">/helper/boost/asio/detail</text>
<text text-anchor="start" x="86.5" y="-296.5" font-family="Helvetica" font-size="10.00">/reactive_socket_service_base</text>
<text text-anchor="middle" x="154" y="-285.5" font-family="Helvetica" font-size="10.00">_ext_local.hpp</text>
</a>
</g>
</g>
<!-- Node1&#45;&gt;Node2 -->
<g id="edge1" class="edge">
<title>Node1&#45;&gt;Node2</title>
<path fill="none" stroke="midnightblue" d="M154,-368.1C154,-359.24 154,-350.01 154,-341.63"/>
<polygon fill="midnightblue" stroke="midnightblue" points="150.5,-368.26 154,-378.26 157.5,-368.26 150.5,-368.26"/>
</g>
<!-- Node3 -->
<g id="node3" class="node">
<title>Node3</title>
<g id="a_node3"><a xlink:href="reactive__socket__service__base__ext__local_8ipp.html" target="_top" xlink:title=" ">
<polygon fill="white" stroke="black" points="0,-178.5 0,-241.5 146,-241.5 146,-178.5 0,-178.5"/>
<text text-anchor="start" x="8" y="-229.5" font-family="Helvetica" font-size="10.00">/home/ec2&#45;user/workspace</text>
<text text-anchor="start" x="8" y="-218.5" font-family="Helvetica" font-size="10.00">/vsomeip/implementation</text>
<text text-anchor="start" x="8" y="-207.5" font-family="Helvetica" font-size="10.00">/helper/boost/asio/detail</text>
<text text-anchor="start" x="8" y="-196.5" font-family="Helvetica" font-size="10.00">/impl/reactive_socket_service</text>
<text text-anchor="middle" x="73" y="-185.5" font-family="Helvetica" font-size="10.00">_base_ext_local.ipp</text>
</a>
</g>
</g>
<!-- Node2&#45;&gt;Node3 -->
<g id="edge2" class="edge">
<title>Node2&#45;&gt;Node3</title>
<path fill="none" stroke="midnightblue" d="M122.1,-270.4C114.2,-260.85 105.85,-250.74 98.32,-241.63"/>
<polygon fill="midnightblue" stroke="midnightblue" points="119.52,-272.78 128.59,-278.26 124.92,-268.32 119.52,-272.78"/>
</g>
<!-- Node4 -->
<g id="node4" class="node">
<title>Node4</title>
<g id="a_node4"><a xlink:href="reactive__socket__service__ext__local_8hpp.html" target="_top" xlink:title=" ">
<polygon fill="white" stroke="black" points="164.5,-178.5 164.5,-241.5 307.5,-241.5 307.5,-178.5 164.5,-178.5"/>
<text text-anchor="start" x="172.5" y="-229.5" font-family="Helvetica" font-size="10.00">/home/ec2&#45;user/workspace</text>
<text text-anchor="start" x="172.5" y="-218.5" font-family="Helvetica" font-size="10.00">/vsomeip/implementation</text>
<text text-anchor="start" x="172.5" y="-207.5" font-family="Helvetica" font-size="10.00">/helper/boost/asio/detail</text>
<text text-anchor="start" x="172.5" y="-196.5" font-family="Helvetica" font-size="10.00">/reactive_socket_service_ext</text>
<text text-anchor="middle" x="236" y="-185.5" font-family="Helvetica" font-size="10.00">_local.hpp</text>
</a>
</g>
</g>
<!-- Node2&#45;&gt;Node4 -->
<g id="edge3" class="edge">
<title>Node2&#45;&gt;Node4</title>
<path fill="none" stroke="midnightblue" d="M186.3,-270.4C194.29,-260.85 202.75,-250.74 210.37,-241.63"/>
<polygon fill="midnightblue" stroke="midnightblue" points="183.45,-268.35 179.72,-278.26 188.82,-272.84 183.45,-268.35"/>
</g>
<!-- Node5 -->
<g id="node5" class="node">
<title>Node5</title>
<g id="a_node5"><a xlink:href="stream__socket__service__ext_8hpp.html" target="_top" xlink:title=" ">
<polygon fill="white" stroke="black" points="169,-89.5 169,-141.5 303,-141.5 303,-89.5 169,-89.5"/>
<text text-anchor="start" x="177" y="-129.5" font-family="Helvetica" font-size="10.00">/home/ec2&#45;user/workspace</text>
<text text-anchor="start" x="177" y="-118.5" font-family="Helvetica" font-size="10.00">/vsomeip/implementation</text>
<text text-anchor="start" x="177" y="-107.5" font-family="Helvetica" font-size="10.00">/helper/boost/asio/stream</text>
<text text-anchor="middle" x="236" y="-96.5" font-family="Helvetica" font-size="10.00">_socket_service_ext.hpp</text>
</a>
</g>
</g>
<!-- Node4&#45;&gt;Node5 -->
<g id="edge4" class="edge">
<title>Node4&#45;&gt;Node5</title>
<path fill="none" stroke="midnightblue" d="M236,-168.42C236,-159.36 236,-150 236,-141.77"/>
<polygon fill="midnightblue" stroke="midnightblue" points="232.5,-168.46 236,-178.46 239.5,-168.46 232.5,-168.46"/>
</g>
<!-- Node6 -->
<g id="node6" class="node">
<title>Node6</title>
<g id="a_node6"><a xlink:href="basic__stream__socket__ext_8hpp.html" target="_top" xlink:title=" ">
<polygon fill="white" stroke="black" points="169,-0.5 169,-52.5 303,-52.5 303,-0.5 169,-0.5"/>
<text text-anchor="start" x="177" y="-40.5" font-family="Helvetica" font-size="10.00">/home/ec2&#45;user/workspace</text>
<text text-anchor="start" x="177" y="-29.5" font-family="Helvetica" font-size="10.00">/vsomeip/implementation</text>
<text text-anchor="start" x="177" y="-18.5" font-family="Helvetica" font-size="10.00">/helper/boost/asio/basic</text>
<text text-anchor="middle" x="236" y="-7.5" font-family="Helvetica" font-size="10.00">_stream_socket_ext.hpp</text>
</a>
</g>
</g>
<!-- Node5&#45;&gt;Node6 -->
<g id="edge5" class="edge">
<title>Node5&#45;&gt;Node6</title>
<path fill="none" stroke="midnightblue" d="M236,-79.19C236,-70.28 236,-60.9 236,-52.61"/>
<polygon fill="midnightblue" stroke="midnightblue" points="232.5,-79.34 236,-89.34 239.5,-79.34 232.5,-79.34"/>
</g>
</g>
</svg>
