<?xml version="1.0" encoding="UTF-8" standalone="no"?>
<!DOCTYPE svg PUBLIC "-//W3C//DTD SVG 1.1//EN"
 "http://www.w3.org/Graphics/SVG/1.1/DTD/svg11.dtd">
<!-- Generated by graphviz version 2.44.0 (0)
 -->
<!-- Title: /home/ec2&#45;user/workspace/vsomeip/implementation/helper/boost/asio/detail/reactive_socket_recvmsg_op_ext.hpp Pages: 1 -->
<svg width="1407pt" height="195pt"
 viewBox="0.00 0.00 1406.50 195.00" xmlns="http://www.w3.org/2000/svg" xmlns:xlink="http://www.w3.org/1999/xlink">
<g id="graph0" class="graph" transform="scale(1 1) rotate(0) translate(4 191)">
<title>/home/ec2&#45;user/workspace/vsomeip/implementation/helper/boost/asio/detail/reactive_socket_recvmsg_op_ext.hpp</title>
<polygon fill="white" stroke="transparent" points="-4,4 -4,-191 1402.5,-191 1402.5,4 -4,4"/>
<!-- Node1 -->
<g id="node1" class="node">
<title>Node1</title>
<g id="a_node1"><a xlink:title=" ">
<polygon fill="#bfbfbf" stroke="black" points="628,-134.5 628,-186.5 810,-186.5 810,-134.5 628,-134.5"/>
<text text-anchor="start" x="636" y="-174.5" font-family="Helvetica" font-size="10.00">/home/ec2&#45;user/workspace</text>
<text text-anchor="start" x="636" y="-163.5" font-family="Helvetica" font-size="10.00">/vsomeip/implementation</text>
<text text-anchor="start" x="636" y="-152.5" font-family="Helvetica" font-size="10.00">/helper/boost/asio/detail</text>
<text text-anchor="middle" x="719" y="-141.5" font-family="Helvetica" font-size="10.00">/reactive_socket_recvmsg_op_ext.hpp</text>
</a>
</g>
</g>
<!-- Node2 -->
<g id="node2" class="node">
<title>Node2</title>
<g id="a_node2"><a xlink:title=" ">
<polygon fill="white" stroke="#bfbfbf" points="0,-73 0,-92 136,-92 136,-73 0,-73"/>
<text text-anchor="middle" x="68" y="-80" font-family="Helvetica" font-size="10.00">boost/asio/detail/config.hpp</text>
</a>
</g>
</g>
<!-- Node1&#45;&gt;Node2 -->
<g id="edge1" class="edge">
<title>Node1&#45;&gt;Node2</title>
<path fill="none" stroke="midnightblue" d="M627.75,-151.98C514.28,-142.1 314.8,-123.04 145,-98 136.87,-96.8 128.28,-95.36 119.92,-93.86"/>
<polygon fill="midnightblue" stroke="midnightblue" points="120.33,-90.37 109.86,-92.01 119.06,-97.26 120.33,-90.37"/>
</g>
<!-- Node3 -->
<g id="node3" class="node">
<title>Node3</title>
<g id="a_node3"><a xlink:title=" ">
<polygon fill="white" stroke="#bfbfbf" points="154,-73 154,-92 306,-92 306,-73 154,-73"/>
<text text-anchor="middle" x="230" y="-80" font-family="Helvetica" font-size="10.00">boost/asio/detail/addressof.hpp</text>
</a>
</g>
</g>
<!-- Node1&#45;&gt;Node3 -->
<g id="edge2" class="edge">
<title>Node1&#45;&gt;Node3</title>
<path fill="none" stroke="midnightblue" d="M627.87,-146.1C545.94,-133.95 422.34,-115.32 315,-98 306.61,-96.65 297.76,-95.18 289.06,-93.72"/>
<polygon fill="midnightblue" stroke="midnightblue" points="289.41,-90.23 278.97,-92.01 288.24,-97.13 289.41,-90.23"/>
</g>
<!-- Node4 -->
<g id="node4" class="node">
<title>Node4</title>
<g id="a_node4"><a xlink:title=" ">
<polygon fill="white" stroke="#bfbfbf" points="324.5,-67.5 324.5,-97.5 433.5,-97.5 433.5,-67.5 324.5,-67.5"/>
<text text-anchor="start" x="332.5" y="-85.5" font-family="Helvetica" font-size="10.00">boost/asio/detail/bind</text>
<text text-anchor="middle" x="379" y="-74.5" font-family="Helvetica" font-size="10.00">_handler.hpp</text>
</a>
</g>
</g>
<!-- Node1&#45;&gt;Node4 -->
<g id="edge3" class="edge">
<title>Node1&#45;&gt;Node4</title>
<path fill="none" stroke="midnightblue" d="M627.92,-139.29C576.64,-127.89 511.14,-113.3 443.76,-98.17"/>
<polygon fill="midnightblue" stroke="midnightblue" points="444.33,-94.71 433.81,-95.93 442.8,-101.54 444.33,-94.71"/>
</g>
<!-- Node5 -->
<g id="node5" class="node">
<title>Node5</title>
<g id="a_node5"><a xlink:title=" ">
<polygon fill="white" stroke="#bfbfbf" points="452,-67.5 452,-97.5 572,-97.5 572,-67.5 452,-67.5"/>
<text text-anchor="start" x="460" y="-85.5" font-family="Helvetica" font-size="10.00">boost/asio/detail/buffer</text>
<text text-anchor="middle" x="512" y="-74.5" font-family="Helvetica" font-size="10.00">_sequence_adapter.hpp</text>
</a>
</g>
</g>
<!-- Node1&#45;&gt;Node5 -->
<g id="edge4" class="edge">
<title>Node1&#45;&gt;Node5</title>
<path fill="none" stroke="midnightblue" d="M650.65,-134.4C620.97,-123.51 586.91,-111 559.97,-101.11"/>
<polygon fill="midnightblue" stroke="midnightblue" points="560.99,-97.76 550.4,-97.6 558.58,-104.33 560.99,-97.76"/>
</g>
<!-- Node6 -->
<g id="node6" class="node">
<title>Node6</title>
<g id="a_node6"><a xlink:title=" ">
<polygon fill="white" stroke="#bfbfbf" points="590,-67.5 590,-97.5 710,-97.5 710,-67.5 590,-67.5"/>
<text text-anchor="start" x="598" y="-85.5" font-family="Helvetica" font-size="10.00">boost/asio/detail/fenced</text>
<text text-anchor="middle" x="650" y="-74.5" font-family="Helvetica" font-size="10.00">_block.hpp</text>
</a>
</g>
</g>
<!-- Node1&#45;&gt;Node6 -->
<g id="edge5" class="edge">
<title>Node1&#45;&gt;Node6</title>
<path fill="none" stroke="midnightblue" d="M696.02,-134.19C687.53,-124.84 677.99,-114.33 669.81,-105.32"/>
<polygon fill="midnightblue" stroke="midnightblue" points="672.34,-102.9 663.02,-97.85 667.15,-107.6 672.34,-102.9"/>
</g>
<!-- Node7 -->
<g id="node7" class="node">
<title>Node7</title>
<g id="a_node7"><a xlink:href="reactor__op__ext_8hpp.html" target="_top" xlink:title=" ">
<polygon fill="white" stroke="black" points="728.5,-67.5 728.5,-97.5 849.5,-97.5 849.5,-67.5 728.5,-67.5"/>
<text text-anchor="start" x="736.5" y="-85.5" font-family="Helvetica" font-size="10.00">boost/asio/detail/reactor</text>
<text text-anchor="middle" x="789" y="-74.5" font-family="Helvetica" font-size="10.00">_op_ext.hpp</text>
</a>
</g>
</g>
<!-- Node1&#45;&gt;Node7 -->
<g id="edge6" class="edge">
<title>Node1&#45;&gt;Node7</title>
<path fill="none" stroke="midnightblue" d="M742.31,-134.19C750.92,-124.84 760.6,-114.33 768.91,-105.32"/>
<polygon fill="midnightblue" stroke="midnightblue" points="771.59,-107.57 775.79,-97.85 766.44,-102.83 771.59,-107.57"/>
</g>
<!-- Node9 -->
<g id="node9" class="node">
<title>Node9</title>
<g id="a_node9"><a xlink:href="socket__ops__ext_8hpp.html" target="_top" xlink:title=" ">
<polygon fill="white" stroke="black" points="867.5,-67.5 867.5,-97.5 986.5,-97.5 986.5,-67.5 867.5,-67.5"/>
<text text-anchor="start" x="875.5" y="-85.5" font-family="Helvetica" font-size="10.00">boost/asio/detail/socket</text>
<text text-anchor="middle" x="927" y="-74.5" font-family="Helvetica" font-size="10.00">_ops_ext.hpp</text>
</a>
</g>
</g>
<!-- Node1&#45;&gt;Node9 -->
<g id="edge8" class="edge">
<title>Node1&#45;&gt;Node9</title>
<path fill="none" stroke="midnightblue" d="M787.68,-134.4C817.51,-123.51 851.73,-111 878.79,-101.11"/>
<polygon fill="midnightblue" stroke="midnightblue" points="880.23,-104.32 888.42,-97.6 877.82,-97.74 880.23,-104.32"/>
</g>
<!-- Node11 -->
<g id="node11" class="node">
<title>Node11</title>
<g id="a_node11"><a xlink:title=" ">
<polygon fill="white" stroke="#bfbfbf" points="1005,-73 1005,-92 1143,-92 1143,-73 1005,-73"/>
<text text-anchor="middle" x="1074" y="-80" font-family="Helvetica" font-size="10.00">boost/asio/socket_base.hpp</text>
</a>
</g>
</g>
<!-- Node1&#45;&gt;Node11 -->
<g id="edge10" class="edge">
<title>Node1&#45;&gt;Node11</title>
<path fill="none" stroke="midnightblue" d="M810.42,-139.93C878.5,-125.35 968.86,-106.01 1024.15,-94.17"/>
<polygon fill="midnightblue" stroke="midnightblue" points="1025.01,-97.57 1034.05,-92.05 1023.54,-90.72 1025.01,-97.57"/>
</g>
<!-- Node12 -->
<g id="node12" class="node">
<title>Node12</title>
<g id="a_node12"><a xlink:title=" ">
<polygon fill="white" stroke="#bfbfbf" points="1161,-67.5 1161,-97.5 1273,-97.5 1273,-67.5 1161,-67.5"/>
<text text-anchor="start" x="1169" y="-85.5" font-family="Helvetica" font-size="10.00">boost/asio/detail/push</text>
<text text-anchor="middle" x="1217" y="-74.5" font-family="Helvetica" font-size="10.00">_options.hpp</text>
</a>
</g>
</g>
<!-- Node1&#45;&gt;Node12 -->
<g id="edge11" class="edge">
<title>Node1&#45;&gt;Node12</title>
<path fill="none" stroke="midnightblue" d="M810.15,-148.66C895.69,-138.01 1027.37,-120.37 1150.69,-98.16"/>
<polygon fill="midnightblue" stroke="midnightblue" points="1151.47,-101.58 1160.68,-96.35 1150.22,-94.69 1151.47,-101.58"/>
</g>
<!-- Node13 -->
<g id="node13" class="node">
<title>Node13</title>
<g id="a_node13"><a xlink:title=" ">
<polygon fill="white" stroke="#bfbfbf" points="1291.5,-67.5 1291.5,-97.5 1398.5,-97.5 1398.5,-67.5 1291.5,-67.5"/>
<text text-anchor="start" x="1299.5" y="-85.5" font-family="Helvetica" font-size="10.00">boost/asio/detail/pop</text>
<text text-anchor="middle" x="1345" y="-74.5" font-family="Helvetica" font-size="10.00">_options.hpp</text>
</a>
</g>
</g>
<!-- Node1&#45;&gt;Node13 -->
<g id="edge12" class="edge">
<title>Node1&#45;&gt;Node13</title>
<path fill="none" stroke="midnightblue" d="M810.14,-152.86C919.73,-144.12 1109.31,-126.63 1281.46,-97.95"/>
<polygon fill="midnightblue" stroke="midnightblue" points="1282.19,-101.38 1291.47,-96.27 1281.03,-94.48 1282.19,-101.38"/>
</g>
<!-- Node8 -->
<g id="node8" class="node">
<title>Node8</title>
<g id="a_node8"><a xlink:title=" ">
<polygon fill="white" stroke="#bfbfbf" points="728.5,-0.5 728.5,-30.5 849.5,-30.5 849.5,-0.5 728.5,-0.5"/>
<text text-anchor="start" x="736.5" y="-18.5" font-family="Helvetica" font-size="10.00">boost/asio/detail/reactor</text>
<text text-anchor="middle" x="789" y="-7.5" font-family="Helvetica" font-size="10.00">_op.hpp</text>
</a>
</g>
</g>
<!-- Node7&#45;&gt;Node8 -->
<g id="edge7" class="edge">
<title>Node7&#45;&gt;Node8</title>
<path fill="none" stroke="midnightblue" d="M789,-67.4C789,-59.64 789,-49.81 789,-40.86"/>
<polygon fill="midnightblue" stroke="midnightblue" points="792.5,-40.58 789,-30.58 785.5,-40.58 792.5,-40.58"/>
</g>
<!-- Node10 -->
<g id="node10" class="node">
<title>Node10</title>
<g id="a_node10"><a xlink:title=" ">
<polygon fill="white" stroke="#bfbfbf" points="867.5,-0.5 867.5,-30.5 986.5,-30.5 986.5,-0.5 867.5,-0.5"/>
<text text-anchor="start" x="875.5" y="-18.5" font-family="Helvetica" font-size="10.00">boost/asio/detail/socket</text>
<text text-anchor="middle" x="927" y="-7.5" font-family="Helvetica" font-size="10.00">_ops.hpp</text>
</a>
</g>
</g>
<!-- Node9&#45;&gt;Node10 -->
<g id="edge9" class="edge">
<title>Node9&#45;&gt;Node10</title>
<path fill="none" stroke="midnightblue" d="M927,-67.4C927,-59.64 927,-49.81 927,-40.86"/>
<polygon fill="midnightblue" stroke="midnightblue" points="930.5,-40.58 927,-30.58 923.5,-40.58 930.5,-40.58"/>
</g>
</g>
</svg>
