<?xml version="1.0" encoding="UTF-8" standalone="no"?>
<!DOCTYPE svg PUBLIC "-//W3C//DTD SVG 1.1//EN"
 "http://www.w3.org/Graphics/SVG/1.1/DTD/svg11.dtd">
<!-- Generated by graphviz version 2.44.0 (0)
 -->
<!-- Title: /home/ec2&#45;user/workspace/vsomeip/implementation/helper/boost/asio/detail/reactive_socket_recvmsg_op_ext_local.hpp Pages: 1 -->
<svg width="1407pt" height="206pt"
 viewBox="0.00 0.00 1406.50 206.00" xmlns="http://www.w3.org/2000/svg" xmlns:xlink="http://www.w3.org/1999/xlink">
<g id="graph0" class="graph" transform="scale(1 1) rotate(0) translate(4 202)">
<title>/home/ec2&#45;user/workspace/vsomeip/implementation/helper/boost/asio/detail/reactive_socket_recvmsg_op_ext_local.hpp</title>
<polygon fill="white" stroke="transparent" points="-4,4 -4,-202 1402.5,-202 1402.5,4 -4,4"/>
<!-- Node1 -->
<g id="node1" class="node">
<title>Node1</title>
<g id="a_node1"><a xlink:title=" ">
<polygon fill="#bfbfbf" stroke="black" points="646,-134.5 646,-197.5 792,-197.5 792,-134.5 646,-134.5"/>
<text text-anchor="start" x="654" y="-185.5" font-family="Helvetica" font-size="10.00">/home/ec2&#45;user/workspace</text>
<text text-anchor="start" x="654" y="-174.5" font-family="Helvetica" font-size="10.00">/vsomeip/implementation</text>
<text text-anchor="start" x="654" y="-163.5" font-family="Helvetica" font-size="10.00">/helper/boost/asio/detail</text>
<text text-anchor="start" x="654" y="-152.5" font-family="Helvetica" font-size="10.00">/reactive_socket_recvmsg_op</text>
<text text-anchor="middle" x="719" y="-141.5" font-family="Helvetica" font-size="10.00">_ext_local.hpp</text>
</a>
</g>
</g>
<!-- Node2 -->
<g id="node2" class="node">
<title>Node2</title>
<g id="a_node2"><a xlink:title=" ">
<polygon fill="white" stroke="#bfbfbf" points="0,-73 0,-92 136,-92 136,-73 0,-73"/>
<text text-anchor="middle" x="68" y="-80" font-family="Helvetica" font-size="10.00">boost/asio/detail/config.hpp</text>
</a>
</g>
</g>
<!-- Node1&#45;&gt;Node2 -->
<g id="edge1" class="edge">
<title>Node1&#45;&gt;Node2</title>
<path fill="none" stroke="midnightblue" d="M645.84,-158.11C536.54,-147.46 324.28,-125.31 145,-98 136.97,-96.78 128.49,-95.34 120.22,-93.84"/>
<polygon fill="midnightblue" stroke="midnightblue" points="120.74,-90.38 110.27,-92.01 119.47,-97.26 120.74,-90.38"/>
</g>
<!-- Node3 -->
<g id="node3" class="node">
<title>Node3</title>
<g id="a_node3"><a xlink:title=" ">
<polygon fill="white" stroke="#bfbfbf" points="154,-73 154,-92 306,-92 306,-73 154,-73"/>
<text text-anchor="middle" x="230" y="-80" font-family="Helvetica" font-size="10.00">boost/asio/detail/addressof.hpp</text>
</a>
</g>
</g>
<!-- Node1&#45;&gt;Node3 -->
<g id="edge2" class="edge">
<title>Node1&#45;&gt;Node3</title>
<path fill="none" stroke="midnightblue" d="M646,-153C565.07,-139.67 430.68,-117.46 315,-98 306.92,-96.64 298.41,-95.2 290.02,-93.77"/>
<polygon fill="midnightblue" stroke="midnightblue" points="290.33,-90.28 279.88,-92.05 289.15,-97.18 290.33,-90.28"/>
</g>
<!-- Node4 -->
<g id="node4" class="node">
<title>Node4</title>
<g id="a_node4"><a xlink:title=" ">
<polygon fill="white" stroke="#bfbfbf" points="324.5,-67.5 324.5,-97.5 433.5,-97.5 433.5,-67.5 324.5,-67.5"/>
<text text-anchor="start" x="332.5" y="-85.5" font-family="Helvetica" font-size="10.00">boost/asio/detail/bind</text>
<text text-anchor="middle" x="379" y="-74.5" font-family="Helvetica" font-size="10.00">_handler.hpp</text>
</a>
</g>
</g>
<!-- Node1&#45;&gt;Node4 -->
<g id="edge3" class="edge">
<title>Node1&#45;&gt;Node4</title>
<path fill="none" stroke="midnightblue" d="M645.64,-147.42C585.52,-133 501.23,-112.8 443.62,-98.99"/>
<polygon fill="midnightblue" stroke="midnightblue" points="444.08,-95.5 433.54,-96.57 442.45,-102.31 444.08,-95.5"/>
</g>
<!-- Node5 -->
<g id="node5" class="node">
<title>Node5</title>
<g id="a_node5"><a xlink:title=" ">
<polygon fill="white" stroke="#bfbfbf" points="452,-67.5 452,-97.5 572,-97.5 572,-67.5 452,-67.5"/>
<text text-anchor="start" x="460" y="-85.5" font-family="Helvetica" font-size="10.00">boost/asio/detail/buffer</text>
<text text-anchor="middle" x="512" y="-74.5" font-family="Helvetica" font-size="10.00">_sequence_adapter.hpp</text>
</a>
</g>
</g>
<!-- Node1&#45;&gt;Node5 -->
<g id="edge4" class="edge">
<title>Node1&#45;&gt;Node5</title>
<path fill="none" stroke="midnightblue" d="M645.73,-136.15C616.23,-124.54 583.15,-111.51 557.27,-101.32"/>
<polygon fill="midnightblue" stroke="midnightblue" points="558.31,-97.97 547.72,-97.56 555.74,-104.48 558.31,-97.97"/>
</g>
<!-- Node6 -->
<g id="node6" class="node">
<title>Node6</title>
<g id="a_node6"><a xlink:title=" ">
<polygon fill="white" stroke="#bfbfbf" points="590,-67.5 590,-97.5 710,-97.5 710,-67.5 590,-67.5"/>
<text text-anchor="start" x="598" y="-85.5" font-family="Helvetica" font-size="10.00">boost/asio/detail/fenced</text>
<text text-anchor="middle" x="650" y="-74.5" font-family="Helvetica" font-size="10.00">_block.hpp</text>
</a>
</g>
</g>
<!-- Node1&#45;&gt;Node6 -->
<g id="edge5" class="edge">
<title>Node1&#45;&gt;Node6</title>
<path fill="none" stroke="midnightblue" d="M692.91,-134.19C684.73,-124.52 675.88,-114.07 668.35,-105.18"/>
<polygon fill="midnightblue" stroke="midnightblue" points="671,-102.89 661.87,-97.52 665.66,-107.41 671,-102.89"/>
</g>
<!-- Node7 -->
<g id="node7" class="node">
<title>Node7</title>
<g id="a_node7"><a xlink:href="reactor__op__ext__local_8hpp.html" target="_top" xlink:title=" ">
<polygon fill="white" stroke="black" points="728.5,-67.5 728.5,-97.5 849.5,-97.5 849.5,-67.5 728.5,-67.5"/>
<text text-anchor="start" x="736.5" y="-85.5" font-family="Helvetica" font-size="10.00">boost/asio/detail/reactor</text>
<text text-anchor="middle" x="789" y="-74.5" font-family="Helvetica" font-size="10.00">_op_ext_local.hpp</text>
</a>
</g>
</g>
<!-- Node1&#45;&gt;Node7 -->
<g id="edge6" class="edge">
<title>Node1&#45;&gt;Node7</title>
<path fill="none" stroke="midnightblue" d="M745.46,-134.19C753.76,-124.52 762.75,-114.07 770.38,-105.18"/>
<polygon fill="midnightblue" stroke="midnightblue" points="773.1,-107.38 776.96,-97.52 767.79,-102.82 773.1,-107.38"/>
</g>
<!-- Node9 -->
<g id="node9" class="node">
<title>Node9</title>
<g id="a_node9"><a xlink:href="socket__ops__ext__local_8hpp.html" target="_top" xlink:title=" ">
<polygon fill="white" stroke="black" points="867.5,-67.5 867.5,-97.5 986.5,-97.5 986.5,-67.5 867.5,-67.5"/>
<text text-anchor="start" x="875.5" y="-85.5" font-family="Helvetica" font-size="10.00">boost/asio/detail/socket</text>
<text text-anchor="middle" x="927" y="-74.5" font-family="Helvetica" font-size="10.00">_ops_ext_local.hpp</text>
</a>
</g>
</g>
<!-- Node1&#45;&gt;Node9 -->
<g id="edge8" class="edge">
<title>Node1&#45;&gt;Node9</title>
<path fill="none" stroke="midnightblue" d="M792.04,-136.38C821.83,-124.71 855.35,-111.57 881.53,-101.32"/>
<polygon fill="midnightblue" stroke="midnightblue" points="883.15,-104.44 891.18,-97.53 880.59,-97.92 883.15,-104.44"/>
</g>
<!-- Node11 -->
<g id="node11" class="node">
<title>Node11</title>
<g id="a_node11"><a xlink:title=" ">
<polygon fill="white" stroke="#bfbfbf" points="1005,-73 1005,-92 1143,-92 1143,-73 1005,-73"/>
<text text-anchor="middle" x="1074" y="-80" font-family="Helvetica" font-size="10.00">boost/asio/socket_base.hpp</text>
</a>
</g>
</g>
<!-- Node1&#45;&gt;Node11 -->
<g id="edge10" class="edge">
<title>Node1&#45;&gt;Node11</title>
<path fill="none" stroke="midnightblue" d="M792.13,-148.21C862.54,-132.05 966.95,-108.08 1026.95,-94.3"/>
<polygon fill="midnightblue" stroke="midnightblue" points="1027.94,-97.66 1036.91,-92.02 1026.38,-90.84 1027.94,-97.66"/>
</g>
<!-- Node12 -->
<g id="node12" class="node">
<title>Node12</title>
<g id="a_node12"><a xlink:title=" ">
<polygon fill="white" stroke="#bfbfbf" points="1161,-67.5 1161,-97.5 1273,-97.5 1273,-67.5 1161,-67.5"/>
<text text-anchor="start" x="1169" y="-85.5" font-family="Helvetica" font-size="10.00">boost/asio/detail/push</text>
<text text-anchor="middle" x="1217" y="-74.5" font-family="Helvetica" font-size="10.00">_options.hpp</text>
</a>
</g>
</g>
<!-- Node1&#45;&gt;Node12 -->
<g id="edge11" class="edge">
<title>Node1&#45;&gt;Node12</title>
<path fill="none" stroke="midnightblue" d="M792.03,-155.2C876.2,-143.56 1018.87,-122.81 1150.79,-98.16"/>
<polygon fill="midnightblue" stroke="midnightblue" points="1151.5,-101.59 1160.68,-96.3 1150.2,-94.71 1151.5,-101.59"/>
</g>
<!-- Node13 -->
<g id="node13" class="node">
<title>Node13</title>
<g id="a_node13"><a xlink:title=" ">
<polygon fill="white" stroke="#bfbfbf" points="1291.5,-67.5 1291.5,-97.5 1398.5,-97.5 1398.5,-67.5 1291.5,-67.5"/>
<text text-anchor="start" x="1299.5" y="-85.5" font-family="Helvetica" font-size="10.00">boost/asio/detail/pop</text>
<text text-anchor="middle" x="1345" y="-74.5" font-family="Helvetica" font-size="10.00">_options.hpp</text>
</a>
</g>
</g>
<!-- Node1&#45;&gt;Node13 -->
<g id="edge12" class="edge">
<title>Node1&#45;&gt;Node13</title>
<path fill="none" stroke="midnightblue" d="M792.24,-158.82C898.07,-149.34 1099.98,-129.13 1281.47,-97.97"/>
<polygon fill="midnightblue" stroke="midnightblue" points="1282.21,-101.39 1291.46,-96.24 1281.01,-94.49 1282.21,-101.39"/>
</g>
<!-- Node8 -->
<g id="node8" class="node">
<title>Node8</title>
<g id="a_node8"><a xlink:title=" ">
<polygon fill="white" stroke="#bfbfbf" points="728.5,-0.5 728.5,-30.5 849.5,-30.5 849.5,-0.5 728.5,-0.5"/>
<text text-anchor="start" x="736.5" y="-18.5" font-family="Helvetica" font-size="10.00">boost/asio/detail/reactor</text>
<text text-anchor="middle" x="789" y="-7.5" font-family="Helvetica" font-size="10.00">_op.hpp</text>
</a>
</g>
</g>
<!-- Node7&#45;&gt;Node8 -->
<g id="edge7" class="edge">
<title>Node7&#45;&gt;Node8</title>
<path fill="none" stroke="midnightblue" d="M789,-67.4C789,-59.64 789,-49.81 789,-40.86"/>
<polygon fill="midnightblue" stroke="midnightblue" points="792.5,-40.58 789,-30.58 785.5,-40.58 792.5,-40.58"/>
</g>
<!-- Node10 -->
<g id="node10" class="node">
<title>Node10</title>
<g id="a_node10"><a xlink:title=" ">
<polygon fill="white" stroke="#bfbfbf" points="867.5,-0.5 867.5,-30.5 986.5,-30.5 986.5,-0.5 867.5,-0.5"/>
<text text-anchor="start" x="875.5" y="-18.5" font-family="Helvetica" font-size="10.00">boost/asio/detail/socket</text>
<text text-anchor="middle" x="927" y="-7.5" font-family="Helvetica" font-size="10.00">_ops.hpp</text>
</a>
</g>
</g>
<!-- Node9&#45;&gt;Node10 -->
<g id="edge9" class="edge">
<title>Node9&#45;&gt;Node10</title>
<path fill="none" stroke="midnightblue" d="M927,-67.4C927,-59.64 927,-49.81 927,-40.86"/>
<polygon fill="midnightblue" stroke="midnightblue" points="930.5,-40.58 927,-30.58 923.5,-40.58 930.5,-40.58"/>
</g>
</g>
</svg>
