<?xml version="1.0" encoding="UTF-8" standalone="no"?>
<!DOCTYPE svg PUBLIC "-//W3C//DTD SVG 1.1//EN"
 "http://www.w3.org/Graphics/SVG/1.1/DTD/svg11.dtd">
<!-- Generated by graphviz version 2.44.0 (0)
 -->
<!-- Title: /home/ec2&#45;user/workspace/vsomeip/implementation/helper/boost/asio/detail/reactive_socket_service_base_ext.hpp Pages: 1 -->
<svg width="2314pt" height="262pt"
 viewBox="0.00 0.00 2313.50 262.00" xmlns="http://www.w3.org/2000/svg" xmlns:xlink="http://www.w3.org/1999/xlink">
<g id="graph0" class="graph" transform="scale(1 1) rotate(0) translate(4 258)">
<title>/home/ec2&#45;user/workspace/vsomeip/implementation/helper/boost/asio/detail/reactive_socket_service_base_ext.hpp</title>
<polygon fill="white" stroke="transparent" points="-4,4 -4,-258 2309.5,-258 2309.5,4 -4,4"/>
<!-- Node1 -->
<g id="node1" class="node">
<title>Node1</title>
<g id="a_node1"><a xlink:title=" ">
<polygon fill="#bfbfbf" stroke="black" points="1051,-201.5 1051,-253.5 1239,-253.5 1239,-201.5 1051,-201.5"/>
<text text-anchor="start" x="1059" y="-241.5" font-family="Helvetica" font-size="10.00">/home/ec2&#45;user/workspace</text>
<text text-anchor="start" x="1059" y="-230.5" font-family="Helvetica" font-size="10.00">/vsomeip/implementation</text>
<text text-anchor="start" x="1059" y="-219.5" font-family="Helvetica" font-size="10.00">/helper/boost/asio/detail</text>
<text text-anchor="middle" x="1145" y="-208.5" font-family="Helvetica" font-size="10.00">/reactive_socket_service_base_ext.hpp</text>
</a>
</g>
</g>
<!-- Node2 -->
<g id="node2" class="node">
<title>Node2</title>
<g id="a_node2"><a xlink:title=" ">
<polygon fill="white" stroke="#bfbfbf" points="507,-140 507,-159 561,-159 561,-140 507,-140"/>
<text text-anchor="middle" x="534" y="-147" font-family="Helvetica" font-size="10.00">iostream</text>
</a>
</g>
</g>
<!-- Node1&#45;&gt;Node2 -->
<g id="edge1" class="edge">
<title>Node1&#45;&gt;Node2</title>
<path fill="none" stroke="midnightblue" d="M1050.85,-223.04C936.92,-217.32 739.87,-202.51 575,-165 571.76,-164.26 568.42,-163.35 565.12,-162.35"/>
<polygon fill="midnightblue" stroke="midnightblue" points="566.02,-158.96 555.43,-159.13 563.82,-165.6 566.02,-158.96"/>
</g>
<!-- Node3 -->
<g id="node3" class="node">
<title>Node3</title>
<g id="a_node3"><a xlink:title=" ">
<polygon fill="white" stroke="#bfbfbf" points="156,-73 156,-92 292,-92 292,-73 156,-73"/>
<text text-anchor="middle" x="224" y="-80" font-family="Helvetica" font-size="10.00">boost/asio/detail/config.hpp</text>
</a>
</g>
</g>
<!-- Node1&#45;&gt;Node3 -->
<g id="edge2" class="edge">
<title>Node1&#45;&gt;Node3</title>
<path fill="none" stroke="midnightblue" d="M1050.87,-221.27C925.93,-213.25 712.72,-195.56 641,-165 620.95,-156.45 623.06,-142.52 603,-134 478.58,-81.18 434.61,-118.52 301,-98 293.07,-96.78 284.7,-95.35 276.52,-93.88"/>
<polygon fill="midnightblue" stroke="midnightblue" points="277.15,-90.44 266.68,-92.07 275.88,-97.32 277.15,-90.44"/>
</g>
<!-- Node4 -->
<g id="node4" class="node">
<title>Node4</title>
<g id="a_node4"><a xlink:title=" ">
<polygon fill="white" stroke="#bfbfbf" points="1211.5,-140 1211.5,-159 1318.5,-159 1318.5,-140 1211.5,-140"/>
<text text-anchor="middle" x="1265" y="-147" font-family="Helvetica" font-size="10.00">boost/asio/buffer.hpp</text>
</a>
</g>
</g>
<!-- Node1&#45;&gt;Node4 -->
<g id="edge3" class="edge">
<title>Node1&#45;&gt;Node4</title>
<path fill="none" stroke="midnightblue" d="M1184.63,-201.4C1203.91,-189.19 1226.39,-174.95 1242.66,-164.65"/>
<polygon fill="midnightblue" stroke="midnightblue" points="1244.88,-167.39 1251.46,-159.08 1241.14,-161.47 1244.88,-167.39"/>
</g>
<!-- Node5 -->
<g id="node5" class="node">
<title>Node5</title>
<g id="a_node5"><a xlink:title=" ">
<polygon fill="white" stroke="#bfbfbf" points="1336.5,-140 1336.5,-159 1439.5,-159 1439.5,-140 1336.5,-140"/>
<text text-anchor="middle" x="1388" y="-147" font-family="Helvetica" font-size="10.00">boost/asio/error.hpp</text>
</a>
</g>
</g>
<!-- Node1&#45;&gt;Node5 -->
<g id="edge4" class="edge">
<title>Node1&#45;&gt;Node5</title>
<path fill="none" stroke="midnightblue" d="M1225.24,-201.4C1267.59,-188.16 1317.52,-172.54 1350.8,-162.13"/>
<polygon fill="midnightblue" stroke="midnightblue" points="1352.07,-165.4 1360.57,-159.08 1349.98,-158.72 1352.07,-165.4"/>
</g>
<!-- Node6 -->
<g id="node6" class="node">
<title>Node6</title>
<g id="a_node6"><a xlink:title=" ">
<polygon fill="white" stroke="#bfbfbf" points="1458,-140 1458,-159 1586,-159 1586,-140 1458,-140"/>
<text text-anchor="middle" x="1522" y="-147" font-family="Helvetica" font-size="10.00">boost/asio/io_service.hpp</text>
</a>
</g>
</g>
<!-- Node1&#45;&gt;Node6 -->
<g id="edge5" class="edge">
<title>Node1&#45;&gt;Node6</title>
<path fill="none" stroke="midnightblue" d="M1239.16,-207.52C1311.94,-192.85 1409.99,-173.08 1469.46,-161.09"/>
<polygon fill="midnightblue" stroke="midnightblue" points="1470.27,-164.5 1479.38,-159.09 1468.89,-157.64 1470.27,-164.5"/>
</g>
<!-- Node7 -->
<g id="node7" class="node">
<title>Node7</title>
<g id="a_node7"><a xlink:title=" ">
<polygon fill="white" stroke="#bfbfbf" points="0,-73 0,-92 138,-92 138,-73 0,-73"/>
<text text-anchor="middle" x="69" y="-80" font-family="Helvetica" font-size="10.00">boost/asio/socket_base.hpp</text>
</a>
</g>
</g>
<!-- Node1&#45;&gt;Node7 -->
<g id="edge6" class="edge">
<title>Node1&#45;&gt;Node7</title>
<path fill="none" stroke="midnightblue" d="M1050.78,-222.94C917.21,-216.69 680.4,-200.83 603,-165 584.74,-156.55 588.38,-142.2 570,-134 483.84,-95.57 240.49,-110.64 147,-98 138.46,-96.85 129.45,-95.39 120.69,-93.85"/>
<polygon fill="midnightblue" stroke="midnightblue" points="121.04,-90.36 110.57,-92.02 119.79,-97.24 121.04,-90.36"/>
</g>
<!-- Node8 -->
<g id="node8" class="node">
<title>Node8</title>
<g id="a_node8"><a xlink:title=" ">
<polygon fill="white" stroke="#bfbfbf" points="448,-73 448,-92 600,-92 600,-73 448,-73"/>
<text text-anchor="middle" x="524" y="-80" font-family="Helvetica" font-size="10.00">boost/asio/detail/addressof.hpp</text>
</a>
</g>
</g>
<!-- Node1&#45;&gt;Node8 -->
<g id="edge7" class="edge">
<title>Node1&#45;&gt;Node8</title>
<path fill="none" stroke="midnightblue" d="M1050.92,-225.56C962.92,-221.76 829.31,-208.42 722,-165 700.16,-156.16 700.01,-144.67 679,-134 644.27,-116.37 602.09,-103.1 570.51,-94.6"/>
<polygon fill="midnightblue" stroke="midnightblue" points="571.21,-91.17 560.65,-92.01 569.43,-97.94 571.21,-91.17"/>
</g>
<!-- Node9 -->
<g id="node9" class="node">
<title>Node9</title>
<g id="a_node9"><a xlink:title=" ">
<polygon fill="white" stroke="#bfbfbf" points="310,-67.5 310,-97.5 430,-97.5 430,-67.5 310,-67.5"/>
<text text-anchor="start" x="318" y="-85.5" font-family="Helvetica" font-size="10.00">boost/asio/detail/buffer</text>
<text text-anchor="middle" x="370" y="-74.5" font-family="Helvetica" font-size="10.00">_sequence_adapter.hpp</text>
</a>
</g>
</g>
<!-- Node1&#45;&gt;Node9 -->
<g id="edge8" class="edge">
<title>Node1&#45;&gt;Node9</title>
<path fill="none" stroke="midnightblue" d="M1051,-220.18C934.66,-211.32 743.94,-193.05 679,-165 658.99,-156.36 660.81,-143.09 641,-134 560.95,-97.26 530.61,-114.12 440.04,-98.09"/>
<polygon fill="midnightblue" stroke="midnightblue" points="440.66,-94.65 430.19,-96.26 439.38,-101.53 440.66,-94.65"/>
</g>
<!-- Node10 -->
<g id="node10" class="node">
<title>Node10</title>
<g id="a_node10"><a xlink:title=" ">
<polygon fill="white" stroke="#bfbfbf" points="1604.5,-134.5 1604.5,-164.5 1729.5,-164.5 1729.5,-134.5 1604.5,-134.5"/>
<text text-anchor="start" x="1612.5" y="-152.5" font-family="Helvetica" font-size="10.00">boost/asio/detail/reactive</text>
<text text-anchor="middle" x="1667" y="-141.5" font-family="Helvetica" font-size="10.00">_null_buffers_op.hpp</text>
</a>
</g>
</g>
<!-- Node1&#45;&gt;Node10 -->
<g id="edge9" class="edge">
<title>Node1&#45;&gt;Node10</title>
<path fill="none" stroke="midnightblue" d="M1239.21,-215.38C1328.12,-204.47 1465.36,-186.61 1594.17,-165.08"/>
<polygon fill="midnightblue" stroke="midnightblue" points="1594.93,-168.5 1604.21,-163.39 1593.77,-161.59 1594.93,-168.5"/>
</g>
<!-- Node11 -->
<g id="node11" class="node">
<title>Node11</title>
<g id="a_node11"><a xlink:href="reactive__socket__recv__op__ext_8hpp.html" target="_top" xlink:title=" ">
<polygon fill="white" stroke="black" points="895.5,-134.5 895.5,-164.5 1022.5,-164.5 1022.5,-134.5 895.5,-134.5"/>
<text text-anchor="start" x="903.5" y="-152.5" font-family="Helvetica" font-size="10.00">boost/asio/detail/reactive</text>
<text text-anchor="middle" x="959" y="-141.5" font-family="Helvetica" font-size="10.00">_socket_recv_op_ext.hpp</text>
</a>
</g>
</g>
<!-- Node1&#45;&gt;Node11 -->
<g id="edge10" class="edge">
<title>Node1&#45;&gt;Node11</title>
<path fill="none" stroke="midnightblue" d="M1083.58,-201.4C1057.26,-190.65 1027.11,-178.33 1003.07,-168.51"/>
<polygon fill="midnightblue" stroke="midnightblue" points="1004.08,-165.14 993.5,-164.6 1001.43,-171.62 1004.08,-165.14"/>
</g>
<!-- Node15 -->
<g id="node15" class="node">
<title>Node15</title>
<g id="a_node15"><a xlink:title=" ">
<polygon fill="white" stroke="#bfbfbf" points="1365.5,-0.5 1365.5,-30.5 1486.5,-30.5 1486.5,-0.5 1365.5,-0.5"/>
<text text-anchor="start" x="1373.5" y="-18.5" font-family="Helvetica" font-size="10.00">boost/asio/detail/reactor</text>
<text text-anchor="middle" x="1426" y="-7.5" font-family="Helvetica" font-size="10.00">_op.hpp</text>
</a>
</g>
</g>
<!-- Node1&#45;&gt;Node15 -->
<g id="edge35" class="edge">
<title>Node1&#45;&gt;Node15</title>
<path fill="none" stroke="midnightblue" d="M1153.93,-201.49C1162.93,-180.08 1178.95,-150.2 1203,-134 1279.36,-82.57 1340.15,-161.31 1407,-98 1422.36,-83.45 1426.39,-59.09 1427.02,-40.78"/>
<polygon fill="midnightblue" stroke="midnightblue" points="1430.52,-40.57 1427.04,-30.56 1423.52,-40.55 1430.52,-40.57"/>
</g>
<!-- Node16 -->
<g id="node16" class="node">
<title>Node16</title>
<g id="a_node16"><a xlink:href="socket__ops__ext_8hpp.html" target="_top" xlink:title=" ">
<polygon fill="white" stroke="black" points="1278.5,-67.5 1278.5,-97.5 1397.5,-97.5 1397.5,-67.5 1278.5,-67.5"/>
<text text-anchor="start" x="1286.5" y="-85.5" font-family="Helvetica" font-size="10.00">boost/asio/detail/socket</text>
<text text-anchor="middle" x="1338" y="-74.5" font-family="Helvetica" font-size="10.00">_ops_ext.hpp</text>
</a>
</g>
</g>
<!-- Node1&#45;&gt;Node16 -->
<g id="edge37" class="edge">
<title>Node1&#45;&gt;Node16</title>
<path fill="none" stroke="midnightblue" d="M1145.05,-201.27C1146.46,-180.59 1151.73,-151.92 1169,-134 1176.51,-126.21 1227.22,-111.63 1271.16,-100.14"/>
<polygon fill="midnightblue" stroke="midnightblue" points="1272.19,-103.48 1280.99,-97.58 1270.43,-96.71 1272.19,-103.48"/>
</g>
<!-- Node18 -->
<g id="node18" class="node">
<title>Node18</title>
<g id="a_node18"><a xlink:title=" ">
<polygon fill="white" stroke="#bfbfbf" points="1023,-67.5 1023,-97.5 1135,-97.5 1135,-67.5 1023,-67.5"/>
<text text-anchor="start" x="1031" y="-85.5" font-family="Helvetica" font-size="10.00">boost/asio/detail/push</text>
<text text-anchor="middle" x="1079" y="-74.5" font-family="Helvetica" font-size="10.00">_options.hpp</text>
</a>
</g>
</g>
<!-- Node1&#45;&gt;Node18 -->
<g id="edge39" class="edge">
<title>Node1&#45;&gt;Node18</title>
<path fill="none" stroke="midnightblue" d="M1133.35,-201.26C1121.01,-174.53 1101.7,-132.68 1089.72,-106.73"/>
<polygon fill="midnightblue" stroke="midnightblue" points="1092.89,-105.24 1085.52,-97.63 1086.53,-108.18 1092.89,-105.24"/>
</g>
<!-- Node19 -->
<g id="node19" class="node">
<title>Node19</title>
<g id="a_node19"><a xlink:title=" ">
<polygon fill="white" stroke="#bfbfbf" points="1153.5,-67.5 1153.5,-97.5 1260.5,-97.5 1260.5,-67.5 1153.5,-67.5"/>
<text text-anchor="start" x="1161.5" y="-85.5" font-family="Helvetica" font-size="10.00">boost/asio/detail/pop</text>
<text text-anchor="middle" x="1207" y="-74.5" font-family="Helvetica" font-size="10.00">_options.hpp</text>
</a>
</g>
</g>
<!-- Node1&#45;&gt;Node19 -->
<g id="edge40" class="edge">
<title>Node1&#45;&gt;Node19</title>
<path fill="none" stroke="midnightblue" d="M1133.11,-201.12C1125.84,-181.67 1119.87,-154.76 1131,-134 1138.12,-120.73 1150.43,-110.35 1163.09,-102.54"/>
<polygon fill="midnightblue" stroke="midnightblue" points="1164.9,-105.54 1171.86,-97.55 1161.44,-99.46 1164.9,-105.54"/>
</g>
<!-- Node20 -->
<g id="node20" class="node">
<title>Node20</title>
<g id="a_node20"><a xlink:href="reactive__socket__recvmsg__op__ext_8hpp.html" target="_top" xlink:title=" ">
<polygon fill="white" stroke="black" points="731,-134.5 731,-164.5 877,-164.5 877,-134.5 731,-134.5"/>
<text text-anchor="start" x="739" y="-152.5" font-family="Helvetica" font-size="10.00">boost/asio/detail/reactive</text>
<text text-anchor="middle" x="804" y="-141.5" font-family="Helvetica" font-size="10.00">_socket_recvmsg_op_ext.hpp</text>
</a>
</g>
</g>
<!-- Node1&#45;&gt;Node20 -->
<g id="edge22" class="edge">
<title>Node1&#45;&gt;Node20</title>
<path fill="none" stroke="midnightblue" d="M1050.92,-205.53C995.93,-193.28 927.58,-178.04 876.75,-166.71"/>
<polygon fill="midnightblue" stroke="midnightblue" points="877.34,-163.26 866.82,-164.5 875.82,-170.09 877.34,-163.26"/>
</g>
<!-- Node21 -->
<g id="node21" class="node">
<title>Node21</title>
<g id="a_node21"><a xlink:title=" ">
<polygon fill="white" stroke="#bfbfbf" points="1747.5,-134.5 1747.5,-164.5 1872.5,-164.5 1872.5,-134.5 1747.5,-134.5"/>
<text text-anchor="start" x="1755.5" y="-152.5" font-family="Helvetica" font-size="10.00">boost/asio/detail/reactive</text>
<text text-anchor="middle" x="1810" y="-141.5" font-family="Helvetica" font-size="10.00">_socket_send_op.hpp</text>
</a>
</g>
</g>
<!-- Node1&#45;&gt;Node21 -->
<g id="edge33" class="edge">
<title>Node1&#45;&gt;Node21</title>
<path fill="none" stroke="midnightblue" d="M1239.24,-219.62C1354.58,-210.55 1555.94,-192.62 1737.35,-165.17"/>
<polygon fill="midnightblue" stroke="midnightblue" points="1737.98,-168.61 1747.34,-163.64 1736.93,-161.69 1737.98,-168.61"/>
</g>
<!-- Node22 -->
<g id="node22" class="node">
<title>Node22</title>
<g id="a_node22"><a xlink:title=" ">
<polygon fill="white" stroke="#bfbfbf" points="1891,-140 1891,-159 2031,-159 2031,-140 1891,-140"/>
<text text-anchor="middle" x="1961" y="-147" font-family="Helvetica" font-size="10.00">boost/asio/detail/reactor.hpp</text>
</a>
</g>
</g>
<!-- Node1&#45;&gt;Node22 -->
<g id="edge34" class="edge">
<title>Node1&#45;&gt;Node22</title>
<path fill="none" stroke="midnightblue" d="M1239.26,-221.61C1379.73,-213.64 1652.11,-195.61 1882,-165 1890.74,-163.84 1899.98,-162.36 1908.94,-160.8"/>
<polygon fill="midnightblue" stroke="midnightblue" points="1909.67,-164.23 1918.89,-159.02 1908.43,-157.34 1909.67,-164.23"/>
</g>
<!-- Node23 -->
<g id="node23" class="node">
<title>Node23</title>
<g id="a_node23"><a xlink:title=" ">
<polygon fill="white" stroke="#bfbfbf" points="2049.5,-134.5 2049.5,-164.5 2168.5,-164.5 2168.5,-134.5 2049.5,-134.5"/>
<text text-anchor="start" x="2057.5" y="-152.5" font-family="Helvetica" font-size="10.00">boost/asio/detail/socket</text>
<text text-anchor="middle" x="2109" y="-141.5" font-family="Helvetica" font-size="10.00">_holder.hpp</text>
</a>
</g>
</g>
<!-- Node1&#45;&gt;Node23 -->
<g id="edge36" class="edge">
<title>Node1&#45;&gt;Node23</title>
<path fill="none" stroke="midnightblue" d="M1239.18,-224.31C1400.94,-219.62 1742.01,-205.59 2039.14,-164.98"/>
<polygon fill="midnightblue" stroke="midnightblue" points="2039.82,-168.42 2049.25,-163.58 2038.87,-161.48 2039.82,-168.42"/>
</g>
<!-- Node24 -->
<g id="node24" class="node">
<title>Node24</title>
<g id="a_node24"><a xlink:title=" ">
<polygon fill="white" stroke="#bfbfbf" points="2186.5,-134.5 2186.5,-164.5 2305.5,-164.5 2305.5,-134.5 2186.5,-134.5"/>
<text text-anchor="start" x="2194.5" y="-152.5" font-family="Helvetica" font-size="10.00">boost/asio/detail/socket</text>
<text text-anchor="middle" x="2246" y="-141.5" font-family="Helvetica" font-size="10.00">_types.hpp</text>
</a>
</g>
</g>
<!-- Node1&#45;&gt;Node24 -->
<g id="edge38" class="edge">
<title>Node1&#45;&gt;Node24</title>
<path fill="none" stroke="midnightblue" d="M1239.11,-225.63C1419.49,-222.93 1826.34,-211.84 2176.31,-165.1"/>
<polygon fill="midnightblue" stroke="midnightblue" points="2176.94,-168.55 2186.39,-163.74 2176.01,-161.61 2176.94,-168.55"/>
</g>
<!-- Node11&#45;&gt;Node3 -->
<g id="edge11" class="edge">
<title>Node11&#45;&gt;Node3</title>
<path fill="none" stroke="midnightblue" d="M895.38,-135.34C892.22,-134.85 889.08,-134.4 886,-134 627.66,-100.55 559.5,-130.17 301,-98 292.27,-96.91 283.04,-95.45 274.11,-93.87"/>
<polygon fill="midnightblue" stroke="midnightblue" points="274.68,-90.42 264.21,-92.05 273.42,-97.3 274.68,-90.42"/>
</g>
<!-- Node11&#45;&gt;Node8 -->
<g id="edge12" class="edge">
<title>Node11&#45;&gt;Node8</title>
<path fill="none" stroke="midnightblue" d="M895.34,-135.6C892.19,-135.04 889.06,-134.5 886,-134 763.49,-113.9 731.77,-116.44 609,-98 600.29,-96.69 591.09,-95.22 582.09,-93.72"/>
<polygon fill="midnightblue" stroke="midnightblue" points="582.49,-90.24 572.05,-92.04 581.33,-97.15 582.49,-90.24"/>
</g>
<!-- Node11&#45;&gt;Node9 -->
<g id="edge14" class="edge">
<title>Node11&#45;&gt;Node9</title>
<path fill="none" stroke="midnightblue" d="M895.37,-135.41C892.21,-134.9 889.07,-134.43 886,-134 691.87,-106.99 638.03,-125.9 440.27,-98.06"/>
<polygon fill="midnightblue" stroke="midnightblue" points="440.53,-94.56 430.13,-96.6 439.53,-101.49 440.53,-94.56"/>
</g>
<!-- Node12 -->
<g id="node12" class="node">
<title>Node12</title>
<g id="a_node12"><a xlink:title=" ">
<polygon fill="white" stroke="#bfbfbf" points="895.5,-67.5 895.5,-97.5 1004.5,-97.5 1004.5,-67.5 895.5,-67.5"/>
<text text-anchor="start" x="903.5" y="-85.5" font-family="Helvetica" font-size="10.00">boost/asio/detail/bind</text>
<text text-anchor="middle" x="950" y="-74.5" font-family="Helvetica" font-size="10.00">_handler.hpp</text>
</a>
</g>
</g>
<!-- Node11&#45;&gt;Node12 -->
<g id="edge13" class="edge">
<title>Node11&#45;&gt;Node12</title>
<path fill="none" stroke="midnightblue" d="M957.05,-134.4C955.96,-126.56 954.58,-116.6 953.33,-107.57"/>
<polygon fill="midnightblue" stroke="midnightblue" points="956.79,-107 951.95,-97.58 949.85,-107.96 956.79,-107"/>
</g>
<!-- Node13 -->
<g id="node13" class="node">
<title>Node13</title>
<g id="a_node13"><a xlink:title=" ">
<polygon fill="white" stroke="#bfbfbf" points="618,-67.5 618,-97.5 738,-97.5 738,-67.5 618,-67.5"/>
<text text-anchor="start" x="626" y="-85.5" font-family="Helvetica" font-size="10.00">boost/asio/detail/fenced</text>
<text text-anchor="middle" x="678" y="-74.5" font-family="Helvetica" font-size="10.00">_block.hpp</text>
</a>
</g>
</g>
<!-- Node11&#45;&gt;Node13 -->
<g id="edge15" class="edge">
<title>Node11&#45;&gt;Node13</title>
<path fill="none" stroke="midnightblue" d="M898.37,-134.48C854.18,-124.25 794.2,-110.38 747.98,-99.69"/>
<polygon fill="midnightblue" stroke="midnightblue" points="748.57,-96.23 738.04,-97.39 746.99,-103.05 748.57,-96.23"/>
</g>
<!-- Node14 -->
<g id="node14" class="node">
<title>Node14</title>
<g id="a_node14"><a xlink:href="reactor__op__ext_8hpp.html" target="_top" xlink:title=" ">
<polygon fill="white" stroke="black" points="756.5,-67.5 756.5,-97.5 877.5,-97.5 877.5,-67.5 756.5,-67.5"/>
<text text-anchor="start" x="764.5" y="-85.5" font-family="Helvetica" font-size="10.00">boost/asio/detail/reactor</text>
<text text-anchor="middle" x="817" y="-74.5" font-family="Helvetica" font-size="10.00">_op_ext.hpp</text>
</a>
</g>
</g>
<!-- Node11&#45;&gt;Node14 -->
<g id="edge16" class="edge">
<title>Node11&#45;&gt;Node14</title>
<path fill="none" stroke="midnightblue" d="M928.19,-134.4C907.35,-124.86 879.62,-112.16 857.07,-101.84"/>
<polygon fill="midnightblue" stroke="midnightblue" points="858.3,-98.56 847.75,-97.58 855.39,-104.92 858.3,-98.56"/>
</g>
<!-- Node11&#45;&gt;Node16 -->
<g id="edge18" class="edge">
<title>Node11&#45;&gt;Node16</title>
<path fill="none" stroke="midnightblue" d="M1022.59,-139.11C1083.35,-129.92 1177.73,-115.11 1268.43,-98.25"/>
<polygon fill="midnightblue" stroke="midnightblue" points="1269.14,-101.68 1278.33,-96.4 1267.86,-94.79 1269.14,-101.68"/>
</g>
<!-- Node11&#45;&gt;Node18 -->
<g id="edge20" class="edge">
<title>Node11&#45;&gt;Node18</title>
<path fill="none" stroke="midnightblue" d="M985.04,-134.4C1002.34,-125.03 1025.25,-112.62 1044.12,-102.39"/>
<polygon fill="midnightblue" stroke="midnightblue" points="1045.89,-105.42 1053.01,-97.58 1042.55,-99.26 1045.89,-105.42"/>
</g>
<!-- Node11&#45;&gt;Node19 -->
<g id="edge21" class="edge">
<title>Node11&#45;&gt;Node19</title>
<path fill="none" stroke="midnightblue" d="M1012.51,-134.48C1050.92,-124.41 1102.84,-110.8 1143.38,-100.17"/>
<polygon fill="midnightblue" stroke="midnightblue" points="1144.38,-103.53 1153.16,-97.61 1142.6,-96.76 1144.38,-103.53"/>
</g>
<!-- Node14&#45;&gt;Node15 -->
<g id="edge17" class="edge">
<title>Node14&#45;&gt;Node15</title>
<path fill="none" stroke="midnightblue" d="M877.5,-68.32C880.37,-67.84 883.21,-67.4 886,-67 1090.59,-37.81 1147.39,-59.94 1355.47,-31.09"/>
<polygon fill="midnightblue" stroke="midnightblue" points="1356.08,-34.54 1365.5,-29.68 1355.11,-27.61 1356.08,-34.54"/>
</g>
<!-- Node17 -->
<g id="node17" class="node">
<title>Node17</title>
<g id="a_node17"><a xlink:title=" ">
<polygon fill="white" stroke="#bfbfbf" points="1228.5,-0.5 1228.5,-30.5 1347.5,-30.5 1347.5,-0.5 1228.5,-0.5"/>
<text text-anchor="start" x="1236.5" y="-18.5" font-family="Helvetica" font-size="10.00">boost/asio/detail/socket</text>
<text text-anchor="middle" x="1288" y="-7.5" font-family="Helvetica" font-size="10.00">_ops.hpp</text>
</a>
</g>
</g>
<!-- Node16&#45;&gt;Node17 -->
<g id="edge19" class="edge">
<title>Node16&#45;&gt;Node17</title>
<path fill="none" stroke="midnightblue" d="M1327.15,-67.4C1320.66,-58.96 1312.28,-48.07 1304.94,-38.52"/>
<polygon fill="midnightblue" stroke="midnightblue" points="1307.7,-36.37 1298.83,-30.58 1302.15,-40.64 1307.7,-36.37"/>
</g>
<!-- Node20&#45;&gt;Node3 -->
<g id="edge23" class="edge">
<title>Node20&#45;&gt;Node3</title>
<path fill="none" stroke="midnightblue" d="M730.82,-141.94C611.94,-131.14 382,-109.67 301,-98 292.86,-96.83 284.28,-95.4 275.91,-93.91"/>
<polygon fill="midnightblue" stroke="midnightblue" points="276.32,-90.42 265.85,-92.06 275.06,-97.31 276.32,-90.42"/>
</g>
<!-- Node20&#45;&gt;Node7 -->
<g id="edge30" class="edge">
<title>Node20&#45;&gt;Node7</title>
<path fill="none" stroke="midnightblue" d="M730.93,-143.09C565.72,-130.84 175.55,-101.74 147,-98 138.27,-96.86 129.03,-95.38 120.09,-93.81"/>
<polygon fill="midnightblue" stroke="midnightblue" points="120.62,-90.35 110.16,-92 119.37,-97.23 120.62,-90.35"/>
</g>
<!-- Node20&#45;&gt;Node8 -->
<g id="edge24" class="edge">
<title>Node20&#45;&gt;Node8</title>
<path fill="none" stroke="midnightblue" d="M743.59,-134.48C691.77,-122.45 618.16,-105.36 570.74,-94.35"/>
<polygon fill="midnightblue" stroke="midnightblue" points="571.27,-90.88 560.74,-92.03 569.69,-97.7 571.27,-90.88"/>
</g>
<!-- Node20&#45;&gt;Node9 -->
<g id="edge26" class="edge">
<title>Node20&#45;&gt;Node9</title>
<path fill="none" stroke="midnightblue" d="M730.71,-139.88C659.08,-131.11 546.74,-116.44 440.13,-98.13"/>
<polygon fill="midnightblue" stroke="midnightblue" points="440.61,-94.66 430.16,-96.4 439.42,-101.56 440.61,-94.66"/>
</g>
<!-- Node20&#45;&gt;Node12 -->
<g id="edge25" class="edge">
<title>Node20&#45;&gt;Node12</title>
<path fill="none" stroke="midnightblue" d="M835.68,-134.4C857.2,-124.81 885.87,-112.05 909.12,-101.7"/>
<polygon fill="midnightblue" stroke="midnightblue" points="910.67,-104.84 918.38,-97.58 907.82,-98.45 910.67,-104.84"/>
</g>
<!-- Node20&#45;&gt;Node13 -->
<g id="edge27" class="edge">
<title>Node20&#45;&gt;Node13</title>
<path fill="none" stroke="midnightblue" d="M776.66,-134.4C758.41,-124.98 734.22,-112.5 714.36,-102.26"/>
<polygon fill="midnightblue" stroke="midnightblue" points="715.78,-99.05 705.29,-97.58 712.57,-105.27 715.78,-99.05"/>
</g>
<!-- Node20&#45;&gt;Node14 -->
<g id="edge28" class="edge">
<title>Node20&#45;&gt;Node14</title>
<path fill="none" stroke="midnightblue" d="M806.82,-134.4C808.39,-126.56 810.38,-116.6 812.19,-107.57"/>
<polygon fill="midnightblue" stroke="midnightblue" points="815.66,-108.07 814.18,-97.58 808.79,-106.7 815.66,-108.07"/>
</g>
<!-- Node20&#45;&gt;Node16 -->
<g id="edge29" class="edge">
<title>Node20&#45;&gt;Node16</title>
<path fill="none" stroke="midnightblue" d="M877.27,-135.24C880.22,-134.8 883.13,-134.39 886,-134 1052.64,-111.49 1098.81,-123.44 1268.35,-98.14"/>
<polygon fill="midnightblue" stroke="midnightblue" points="1269,-101.58 1278.37,-96.63 1267.96,-94.66 1269,-101.58"/>
</g>
<!-- Node20&#45;&gt;Node18 -->
<g id="edge31" class="edge">
<title>Node20&#45;&gt;Node18</title>
<path fill="none" stroke="midnightblue" d="M863.33,-134.48C907.32,-124.08 967.28,-109.91 1012.81,-99.14"/>
<polygon fill="midnightblue" stroke="midnightblue" points="1013.67,-102.54 1022.59,-96.83 1012.05,-95.73 1013.67,-102.54"/>
</g>
<!-- Node20&#45;&gt;Node19 -->
<g id="edge32" class="edge">
<title>Node20&#45;&gt;Node19</title>
<path fill="none" stroke="midnightblue" d="M877.3,-135.4C880.23,-134.92 883.14,-134.45 886,-134 997.23,-116.41 1028.45,-118.85 1143.54,-97.98"/>
<polygon fill="midnightblue" stroke="midnightblue" points="1144.25,-101.41 1153.45,-96.16 1142.98,-94.52 1144.25,-101.41"/>
</g>
</g>
</svg>
