<?xml version="1.0" encoding="UTF-8" standalone="no"?>
<!DOCTYPE svg PUBLIC "-//W3C//DTD SVG 1.1//EN"
 "http://www.w3.org/Graphics/SVG/1.1/DTD/svg11.dtd">
<!-- Generated by graphviz version 2.44.0 (0)
 -->
<!-- Title: /home/ec2&#45;user/workspace/vsomeip/implementation/helper/boost/asio/detail/impl/reactive_socket_service_base_ext.ipp Pages: 1 -->
<svg width="1743pt" height="340pt"
 viewBox="0.00 0.00 1742.75 340.00" xmlns="http://www.w3.org/2000/svg" xmlns:xlink="http://www.w3.org/1999/xlink">
<g id="graph0" class="graph" transform="scale(1 1) rotate(0) translate(4 336)">
<title>/home/ec2&#45;user/workspace/vsomeip/implementation/helper/boost/asio/detail/impl/reactive_socket_service_base_ext.ipp</title>
<polygon fill="white" stroke="transparent" points="-4,4 -4,-336 1738.75,-336 1738.75,4 -4,4"/>
<!-- Node1 -->
<g id="node1" class="node">
<title>Node1</title>
<g id="a_node1"><a xlink:title=" ">
<polygon fill="#bfbfbf" stroke="black" points="1252.25,-268.5 1252.25,-331.5 1398.25,-331.5 1398.25,-268.5 1252.25,-268.5"/>
<text text-anchor="start" x="1260.25" y="-319.5" font-family="Helvetica" font-size="10.00">/home/ec2&#45;user/workspace</text>
<text text-anchor="start" x="1260.25" y="-308.5" font-family="Helvetica" font-size="10.00">/vsomeip/implementation</text>
<text text-anchor="start" x="1260.25" y="-297.5" font-family="Helvetica" font-size="10.00">/helper/boost/asio/detail</text>
<text text-anchor="start" x="1260.25" y="-286.5" font-family="Helvetica" font-size="10.00">/impl/reactive_socket_service</text>
<text text-anchor="middle" x="1325.25" y="-275.5" font-family="Helvetica" font-size="10.00">_base_ext.ipp</text>
</a>
</g>
</g>
<!-- Node2 -->
<g id="node2" class="node">
<title>Node2</title>
<g id="a_node2"><a xlink:title=" ">
<polygon fill="white" stroke="#bfbfbf" points="215.25,-73 215.25,-92 351.25,-92 351.25,-73 215.25,-73"/>
<text text-anchor="middle" x="283.25" y="-80" font-family="Helvetica" font-size="10.00">boost/asio/detail/config.hpp</text>
</a>
</g>
</g>
<!-- Node1&#45;&gt;Node2 -->
<g id="edge1" class="edge">
<title>Node1&#45;&gt;Node2</title>
<path fill="none" stroke="midnightblue" d="M1251.85,-296.91C992.19,-288.76 128.34,-255.03 47.25,-165 38.03,-154.76 38.59,-144.71 47.25,-134 57.92,-120.81 149.53,-104.1 215.4,-93.6"/>
<polygon fill="midnightblue" stroke="midnightblue" points="216,-97.05 225.33,-92.03 214.91,-90.14 216,-97.05"/>
</g>
<!-- Node3 -->
<g id="node3" class="node">
<title>Node3</title>
<g id="a_node3"><a xlink:href="reactive__socket__service__base__ext_8hpp.html" target="_top" xlink:title=" ">
<polygon fill="white" stroke="black" points="709.75,-201.5 709.75,-231.5 860.75,-231.5 860.75,-201.5 709.75,-201.5"/>
<text text-anchor="start" x="717.75" y="-219.5" font-family="Helvetica" font-size="10.00">boost/asio/detail/reactive</text>
<text text-anchor="middle" x="785.25" y="-208.5" font-family="Helvetica" font-size="10.00">_socket_service_base_ext.hpp</text>
</a>
</g>
</g>
<!-- Node1&#45;&gt;Node3 -->
<g id="edge2" class="edge">
<title>Node1&#45;&gt;Node3</title>
<path fill="none" stroke="midnightblue" d="M1252.15,-287.97C1153.06,-273.01 976.43,-246.35 871.14,-230.46"/>
<polygon fill="midnightblue" stroke="midnightblue" points="871.59,-226.99 861.18,-228.96 870.55,-233.91 871.59,-226.99"/>
</g>
<!-- Node19 -->
<g id="node19" class="node">
<title>Node19</title>
<g id="a_node19"><a xlink:title=" ">
<polygon fill="white" stroke="#bfbfbf" points="1613.25,-67.5 1613.25,-97.5 1725.25,-97.5 1725.25,-67.5 1613.25,-67.5"/>
<text text-anchor="start" x="1621.25" y="-85.5" font-family="Helvetica" font-size="10.00">boost/asio/detail/push</text>
<text text-anchor="middle" x="1669.25" y="-74.5" font-family="Helvetica" font-size="10.00">_options.hpp</text>
</a>
</g>
</g>
<!-- Node1&#45;&gt;Node19 -->
<g id="edge43" class="edge">
<title>Node1&#45;&gt;Node19</title>
<path fill="none" stroke="midnightblue" d="M1398.47,-298.23C1471.54,-294.49 1584.8,-280.42 1669.25,-232 1713.36,-206.71 1749.51,-180.18 1728.25,-134 1722.69,-121.92 1712.66,-111.65 1702.42,-103.59"/>
<polygon fill="midnightblue" stroke="midnightblue" points="1704.39,-100.7 1694.25,-97.61 1700.25,-106.34 1704.39,-100.7"/>
</g>
<!-- Node20 -->
<g id="node20" class="node">
<title>Node20</title>
<g id="a_node20"><a xlink:title=" ">
<polygon fill="white" stroke="#bfbfbf" points="1398.75,-67.5 1398.75,-97.5 1505.75,-97.5 1505.75,-67.5 1398.75,-67.5"/>
<text text-anchor="start" x="1406.75" y="-85.5" font-family="Helvetica" font-size="10.00">boost/asio/detail/pop</text>
<text text-anchor="middle" x="1452.25" y="-74.5" font-family="Helvetica" font-size="10.00">_options.hpp</text>
</a>
</g>
</g>
<!-- Node1&#45;&gt;Node20 -->
<g id="edge44" class="edge">
<title>Node1&#45;&gt;Node20</title>
<path fill="none" stroke="midnightblue" d="M1398.63,-297.38C1489.28,-290.96 1640.22,-264.85 1711.25,-165 1719.24,-153.77 1720.01,-144.63 1711.25,-134 1698.86,-118.95 1588.41,-101.58 1515.8,-91.64"/>
<polygon fill="midnightblue" stroke="midnightblue" points="1516.2,-88.16 1505.82,-90.28 1515.26,-95.1 1516.2,-88.16"/>
</g>
<!-- Node3&#45;&gt;Node2 -->
<g id="edge4" class="edge">
<title>Node3&#45;&gt;Node2</title>
<path fill="none" stroke="midnightblue" d="M709.52,-210.17C660.41,-204.22 596.31,-191.63 545.25,-165 527.41,-155.69 530.05,-143.39 512.25,-134 496.95,-125.92 400.95,-106.3 338.2,-94.03"/>
<polygon fill="midnightblue" stroke="midnightblue" points="338.54,-90.53 328.05,-92.05 337.2,-97.4 338.54,-90.53"/>
</g>
<!-- Node4 -->
<g id="node4" class="node">
<title>Node4</title>
<g id="a_node4"><a xlink:title=" ">
<polygon fill="white" stroke="#bfbfbf" points="56.25,-140 56.25,-159 110.25,-159 110.25,-140 56.25,-140"/>
<text text-anchor="middle" x="83.25" y="-147" font-family="Helvetica" font-size="10.00">iostream</text>
</a>
</g>
</g>
<!-- Node3&#45;&gt;Node4 -->
<g id="edge3" class="edge">
<title>Node3&#45;&gt;Node4</title>
<path fill="none" stroke="midnightblue" d="M709.74,-212.69C559.83,-206.63 229.64,-190.76 119.25,-165 116.58,-164.38 113.84,-163.58 111.13,-162.69"/>
<polygon fill="midnightblue" stroke="midnightblue" points="112.18,-159.34 101.58,-159.15 109.74,-165.91 112.18,-159.34"/>
</g>
<!-- Node5 -->
<g id="node5" class="node">
<title>Node5</title>
<g id="a_node5"><a xlink:title=" ">
<polygon fill="white" stroke="#bfbfbf" points="128.75,-140 128.75,-159 235.75,-159 235.75,-140 128.75,-140"/>
<text text-anchor="middle" x="182.25" y="-147" font-family="Helvetica" font-size="10.00">boost/asio/buffer.hpp</text>
</a>
</g>
</g>
<!-- Node3&#45;&gt;Node5 -->
<g id="edge5" class="edge">
<title>Node3&#45;&gt;Node5</title>
<path fill="none" stroke="midnightblue" d="M709.57,-211.71C604.59,-205.7 409.05,-191.83 244.25,-165 237.95,-163.97 231.34,-162.67 224.88,-161.27"/>
<polygon fill="midnightblue" stroke="midnightblue" points="225.43,-157.81 214.91,-159.02 223.89,-164.64 225.43,-157.81"/>
</g>
<!-- Node6 -->
<g id="node6" class="node">
<title>Node6</title>
<g id="a_node6"><a xlink:title=" ">
<polygon fill="white" stroke="#bfbfbf" points="253.75,-140 253.75,-159 356.75,-159 356.75,-140 253.75,-140"/>
<text text-anchor="middle" x="305.25" y="-147" font-family="Helvetica" font-size="10.00">boost/asio/error.hpp</text>
</a>
</g>
</g>
<!-- Node3&#45;&gt;Node6 -->
<g id="edge6" class="edge">
<title>Node3&#45;&gt;Node6</title>
<path fill="none" stroke="midnightblue" d="M709.56,-208.98C625.35,-201.13 485.45,-186.28 366.25,-165 360.35,-163.95 354.16,-162.67 348.09,-161.33"/>
<polygon fill="midnightblue" stroke="midnightblue" points="348.57,-157.85 338.04,-159.01 347,-164.67 348.57,-157.85"/>
</g>
<!-- Node7 -->
<g id="node7" class="node">
<title>Node7</title>
<g id="a_node7"><a xlink:title=" ">
<polygon fill="white" stroke="#bfbfbf" points="375.25,-140 375.25,-159 503.25,-159 503.25,-140 375.25,-140"/>
<text text-anchor="middle" x="439.25" y="-147" font-family="Helvetica" font-size="10.00">boost/asio/io_service.hpp</text>
</a>
</g>
</g>
<!-- Node3&#45;&gt;Node7 -->
<g id="edge7" class="edge">
<title>Node3&#45;&gt;Node7</title>
<path fill="none" stroke="midnightblue" d="M710.6,-201.48C645.76,-189.29 553.31,-171.93 494.81,-160.94"/>
<polygon fill="midnightblue" stroke="midnightblue" points="495.13,-157.44 484.65,-159.03 493.83,-164.31 495.13,-157.44"/>
</g>
<!-- Node8 -->
<g id="node8" class="node">
<title>Node8</title>
<g id="a_node8"><a xlink:title=" ">
<polygon fill="white" stroke="#bfbfbf" points="24.25,-73 24.25,-92 162.25,-92 162.25,-73 24.25,-73"/>
<text text-anchor="middle" x="93.25" y="-80" font-family="Helvetica" font-size="10.00">boost/asio/socket_base.hpp</text>
</a>
</g>
</g>
<!-- Node3&#45;&gt;Node8 -->
<g id="edge8" class="edge">
<title>Node3&#45;&gt;Node8</title>
<path fill="none" stroke="midnightblue" d="M709.51,-216.03C530.27,-216.48 91.77,-212.66 47.25,-165 28.64,-145.07 54.22,-116.23 74.03,-98.74"/>
<polygon fill="midnightblue" stroke="midnightblue" points="76.39,-101.33 81.77,-92.21 71.87,-95.99 76.39,-101.33"/>
</g>
<!-- Node9 -->
<g id="node9" class="node">
<title>Node9</title>
<g id="a_node9"><a xlink:title=" ">
<polygon fill="white" stroke="#bfbfbf" points="369.25,-73 369.25,-92 521.25,-92 521.25,-73 369.25,-73"/>
<text text-anchor="middle" x="445.25" y="-80" font-family="Helvetica" font-size="10.00">boost/asio/detail/addressof.hpp</text>
</a>
</g>
</g>
<!-- Node3&#45;&gt;Node9 -->
<g id="edge9" class="edge">
<title>Node3&#45;&gt;Node9</title>
<path fill="none" stroke="midnightblue" d="M722.61,-201.5C687.26,-192.74 642.61,-180.23 604.25,-165 576.72,-154.07 571.59,-147.57 545.25,-134 520.44,-121.22 492.02,-106.9 471.84,-96.78"/>
<polygon fill="midnightblue" stroke="midnightblue" points="473.15,-93.52 462.64,-92.17 470.01,-99.78 473.15,-93.52"/>
</g>
<!-- Node10 -->
<g id="node10" class="node">
<title>Node10</title>
<g id="a_node10"><a xlink:title=" ">
<polygon fill="white" stroke="#bfbfbf" points="539.25,-67.5 539.25,-97.5 659.25,-97.5 659.25,-67.5 539.25,-67.5"/>
<text text-anchor="start" x="547.25" y="-85.5" font-family="Helvetica" font-size="10.00">boost/asio/detail/buffer</text>
<text text-anchor="middle" x="599.25" y="-74.5" font-family="Helvetica" font-size="10.00">_sequence_adapter.hpp</text>
</a>
</g>
</g>
<!-- Node3&#45;&gt;Node10 -->
<g id="edge10" class="edge">
<title>Node3&#45;&gt;Node10</title>
<path fill="none" stroke="midnightblue" d="M709.59,-206.42C680.28,-199.4 648.51,-186.98 626.25,-165 610.9,-149.84 604.28,-125.76 601.42,-107.7"/>
<polygon fill="midnightblue" stroke="midnightblue" points="604.87,-107.08 600.11,-97.62 597.93,-107.99 604.87,-107.08"/>
</g>
<!-- Node11 -->
<g id="node11" class="node">
<title>Node11</title>
<g id="a_node11"><a xlink:title=" ">
<polygon fill="white" stroke="#bfbfbf" points="983.75,-134.5 983.75,-164.5 1108.75,-164.5 1108.75,-134.5 983.75,-134.5"/>
<text text-anchor="start" x="991.75" y="-152.5" font-family="Helvetica" font-size="10.00">boost/asio/detail/reactive</text>
<text text-anchor="middle" x="1046.25" y="-141.5" font-family="Helvetica" font-size="10.00">_null_buffers_op.hpp</text>
</a>
</g>
</g>
<!-- Node3&#45;&gt;Node11 -->
<g id="edge11" class="edge">
<title>Node3&#45;&gt;Node11</title>
<path fill="none" stroke="midnightblue" d="M841.57,-201.48C882.16,-191.37 937.1,-177.68 979.84,-167.04"/>
<polygon fill="midnightblue" stroke="midnightblue" points="980.74,-170.42 989.59,-164.61 979.04,-163.63 980.74,-170.42"/>
</g>
<!-- Node12 -->
<g id="node12" class="node">
<title>Node12</title>
<g id="a_node12"><a xlink:href="reactive__socket__recv__op__ext_8hpp.html" target="_top" xlink:title=" ">
<polygon fill="white" stroke="black" points="799.75,-134.5 799.75,-164.5 926.75,-164.5 926.75,-134.5 799.75,-134.5"/>
<text text-anchor="start" x="807.75" y="-152.5" font-family="Helvetica" font-size="10.00">boost/asio/detail/reactive</text>
<text text-anchor="middle" x="863.25" y="-141.5" font-family="Helvetica" font-size="10.00">_socket_recv_op_ext.hpp</text>
</a>
</g>
</g>
<!-- Node3&#45;&gt;Node12 -->
<g id="edge12" class="edge">
<title>Node3&#45;&gt;Node12</title>
<path fill="none" stroke="midnightblue" d="M802.18,-201.4C812.81,-192.54 826.7,-180.96 838.55,-171.09"/>
<polygon fill="midnightblue" stroke="midnightblue" points="840.92,-173.67 846.36,-164.58 836.44,-168.29 840.92,-173.67"/>
</g>
<!-- Node16 -->
<g id="node16" class="node">
<title>Node16</title>
<g id="a_node16"><a xlink:title=" ">
<polygon fill="white" stroke="#bfbfbf" points="288.75,-0.5 288.75,-30.5 409.75,-30.5 409.75,-0.5 288.75,-0.5"/>
<text text-anchor="start" x="296.75" y="-18.5" font-family="Helvetica" font-size="10.00">boost/asio/detail/reactor</text>
<text text-anchor="middle" x="349.25" y="-7.5" font-family="Helvetica" font-size="10.00">_op.hpp</text>
</a>
</g>
</g>
<!-- Node3&#45;&gt;Node16 -->
<g id="edge37" class="edge">
<title>Node3&#45;&gt;Node16</title>
<path fill="none" stroke="midnightblue" d="M709.72,-215.12C530.28,-213.55 89.48,-205.57 37.25,-165 2,-137.61 -13.86,-100.84 15.25,-67 48.5,-28.35 190.65,-18.91 278.44,-16.82"/>
<polygon fill="midnightblue" stroke="midnightblue" points="278.68,-20.32 288.6,-16.61 278.53,-13.32 278.68,-20.32"/>
</g>
<!-- Node17 -->
<g id="node17" class="node">
<title>Node17</title>
<g id="a_node17"><a xlink:href="socket__ops__ext_8hpp.html" target="_top" xlink:title=" ">
<polygon fill="white" stroke="black" points="1082.75,-67.5 1082.75,-97.5 1201.75,-97.5 1201.75,-67.5 1082.75,-67.5"/>
<text text-anchor="start" x="1090.75" y="-85.5" font-family="Helvetica" font-size="10.00">boost/asio/detail/socket</text>
<text text-anchor="middle" x="1142.25" y="-74.5" font-family="Helvetica" font-size="10.00">_ops_ext.hpp</text>
</a>
</g>
</g>
<!-- Node3&#45;&gt;Node17 -->
<g id="edge39" class="edge">
<title>Node3&#45;&gt;Node17</title>
<path fill="none" stroke="midnightblue" d="M842.42,-201.49C871.51,-193.11 906.86,-180.95 936.25,-165 955.72,-154.44 955.64,-144.28 975.25,-134 1005.64,-118.08 1041.82,-106.36 1072.72,-98.25"/>
<polygon fill="midnightblue" stroke="midnightblue" points="1073.73,-101.6 1082.56,-95.74 1072,-94.82 1073.73,-101.6"/>
</g>
<!-- Node3&#45;&gt;Node19 -->
<g id="edge41" class="edge">
<title>Node3&#45;&gt;Node19</title>
<path fill="none" stroke="midnightblue" d="M861,-214.17C1076.97,-210.03 1682.18,-195.71 1711.25,-165 1727.73,-147.61 1710.31,-122.5 1693.17,-104.75"/>
<polygon fill="midnightblue" stroke="midnightblue" points="1695.52,-102.16 1685.93,-97.64 1690.61,-107.15 1695.52,-102.16"/>
</g>
<!-- Node3&#45;&gt;Node20 -->
<g id="edge42" class="edge">
<title>Node3&#45;&gt;Node20</title>
<path fill="none" stroke="midnightblue" d="M861.13,-214.09C1074.45,-209.76 1665.79,-195.09 1694.25,-165 1703.72,-154.99 1702.94,-144.69 1694.25,-134 1672.15,-106.81 1579.81,-93.76 1515.81,-87.88"/>
<polygon fill="midnightblue" stroke="midnightblue" points="1516.07,-84.39 1505.8,-86.99 1515.45,-91.36 1516.07,-84.39"/>
</g>
<!-- Node21 -->
<g id="node21" class="node">
<title>Node21</title>
<g id="a_node21"><a xlink:href="reactive__socket__recvmsg__op__ext_8hpp.html" target="_top" xlink:title=" ">
<polygon fill="white" stroke="black" points="635.25,-134.5 635.25,-164.5 781.25,-164.5 781.25,-134.5 635.25,-134.5"/>
<text text-anchor="start" x="643.25" y="-152.5" font-family="Helvetica" font-size="10.00">boost/asio/detail/reactive</text>
<text text-anchor="middle" x="708.25" y="-141.5" font-family="Helvetica" font-size="10.00">_socket_recvmsg_op_ext.hpp</text>
</a>
</g>
</g>
<!-- Node3&#45;&gt;Node21 -->
<g id="edge24" class="edge">
<title>Node3&#45;&gt;Node21</title>
<path fill="none" stroke="midnightblue" d="M768.55,-201.4C758.05,-192.54 744.34,-180.96 732.64,-171.09"/>
<polygon fill="midnightblue" stroke="midnightblue" points="734.83,-168.35 724.93,-164.58 730.31,-173.7 734.83,-168.35"/>
</g>
<!-- Node22 -->
<g id="node22" class="node">
<title>Node22</title>
<g id="a_node22"><a xlink:title=" ">
<polygon fill="white" stroke="#bfbfbf" points="1126.75,-134.5 1126.75,-164.5 1251.75,-164.5 1251.75,-134.5 1126.75,-134.5"/>
<text text-anchor="start" x="1134.75" y="-152.5" font-family="Helvetica" font-size="10.00">boost/asio/detail/reactive</text>
<text text-anchor="middle" x="1189.25" y="-141.5" font-family="Helvetica" font-size="10.00">_socket_send_op.hpp</text>
</a>
</g>
</g>
<!-- Node3&#45;&gt;Node22 -->
<g id="edge35" class="edge">
<title>Node3&#45;&gt;Node22</title>
<path fill="none" stroke="midnightblue" d="M860.82,-205.16C926.12,-195.97 1023.26,-181.68 1116.67,-165.24"/>
<polygon fill="midnightblue" stroke="midnightblue" points="1117.33,-168.67 1126.57,-163.48 1116.11,-161.78 1117.33,-168.67"/>
</g>
<!-- Node23 -->
<g id="node23" class="node">
<title>Node23</title>
<g id="a_node23"><a xlink:title=" ">
<polygon fill="white" stroke="#bfbfbf" points="1270.25,-140 1270.25,-159 1410.25,-159 1410.25,-140 1270.25,-140"/>
<text text-anchor="middle" x="1340.25" y="-147" font-family="Helvetica" font-size="10.00">boost/asio/detail/reactor.hpp</text>
</a>
</g>
</g>
<!-- Node3&#45;&gt;Node23 -->
<g id="edge36" class="edge">
<title>Node3&#45;&gt;Node23</title>
<path fill="none" stroke="midnightblue" d="M860.91,-209.26C954.99,-201.08 1120.41,-185.37 1261.25,-165 1269.59,-163.8 1278.38,-162.35 1286.96,-160.85"/>
<polygon fill="midnightblue" stroke="midnightblue" points="1287.66,-164.28 1296.89,-159.07 1286.43,-157.39 1287.66,-164.28"/>
</g>
<!-- Node24 -->
<g id="node24" class="node">
<title>Node24</title>
<g id="a_node24"><a xlink:title=" ">
<polygon fill="white" stroke="#bfbfbf" points="1428.75,-134.5 1428.75,-164.5 1547.75,-164.5 1547.75,-134.5 1428.75,-134.5"/>
<text text-anchor="start" x="1436.75" y="-152.5" font-family="Helvetica" font-size="10.00">boost/asio/detail/socket</text>
<text text-anchor="middle" x="1488.25" y="-141.5" font-family="Helvetica" font-size="10.00">_holder.hpp</text>
</a>
</g>
</g>
<!-- Node3&#45;&gt;Node24 -->
<g id="edge38" class="edge">
<title>Node3&#45;&gt;Node24</title>
<path fill="none" stroke="midnightblue" d="M861.24,-212.58C978.65,-207.39 1211.33,-194.33 1418.35,-165"/>
<polygon fill="midnightblue" stroke="midnightblue" points="1419.1,-168.43 1428.5,-163.54 1418.1,-161.5 1419.1,-168.43"/>
</g>
<!-- Node25 -->
<g id="node25" class="node">
<title>Node25</title>
<g id="a_node25"><a xlink:title=" ">
<polygon fill="white" stroke="#bfbfbf" points="1565.75,-134.5 1565.75,-164.5 1684.75,-164.5 1684.75,-134.5 1565.75,-134.5"/>
<text text-anchor="start" x="1573.75" y="-152.5" font-family="Helvetica" font-size="10.00">boost/asio/detail/socket</text>
<text text-anchor="middle" x="1625.25" y="-141.5" font-family="Helvetica" font-size="10.00">_types.hpp</text>
</a>
</g>
</g>
<!-- Node3&#45;&gt;Node25 -->
<g id="edge40" class="edge">
<title>Node3&#45;&gt;Node25</title>
<path fill="none" stroke="midnightblue" d="M860.96,-214.18C997.91,-210.99 1295.95,-200.42 1555.64,-165.1"/>
<polygon fill="midnightblue" stroke="midnightblue" points="1556.21,-168.55 1565.64,-163.72 1555.25,-161.62 1556.21,-168.55"/>
</g>
<!-- Node12&#45;&gt;Node2 -->
<g id="edge13" class="edge">
<title>Node12&#45;&gt;Node2</title>
<path fill="none" stroke="midnightblue" d="M799.62,-135.42C796.46,-134.91 793.32,-134.43 790.25,-134 600.35,-107.28 550.29,-123.78 360.25,-98 351.83,-96.86 342.92,-95.41 334.27,-93.87"/>
<polygon fill="midnightblue" stroke="midnightblue" points="334.75,-90.4 324.29,-92.03 333.49,-97.28 334.75,-90.4"/>
</g>
<!-- Node12&#45;&gt;Node9 -->
<g id="edge14" class="edge">
<title>Node12&#45;&gt;Node9</title>
<path fill="none" stroke="midnightblue" d="M799.59,-135.63C796.44,-135.06 793.31,-134.51 790.25,-134 675.22,-114.63 645.54,-115.81 530.25,-98 521.65,-96.67 512.58,-95.2 503.68,-93.72"/>
<polygon fill="midnightblue" stroke="midnightblue" points="504.2,-90.25 493.76,-92.04 503.04,-97.16 504.2,-90.25"/>
</g>
<!-- Node12&#45;&gt;Node10 -->
<g id="edge16" class="edge">
<title>Node12&#45;&gt;Node10</title>
<path fill="none" stroke="midnightblue" d="M806.29,-134.48C765.23,-124.37 709.66,-110.68 666.43,-100.04"/>
<polygon fill="midnightblue" stroke="midnightblue" points="667.11,-96.6 656.57,-97.61 665.44,-103.4 667.11,-96.6"/>
</g>
<!-- Node13 -->
<g id="node13" class="node">
<title>Node13</title>
<g id="a_node13"><a xlink:title=" ">
<polygon fill="white" stroke="#bfbfbf" points="816.75,-67.5 816.75,-97.5 925.75,-97.5 925.75,-67.5 816.75,-67.5"/>
<text text-anchor="start" x="824.75" y="-85.5" font-family="Helvetica" font-size="10.00">boost/asio/detail/bind</text>
<text text-anchor="middle" x="871.25" y="-74.5" font-family="Helvetica" font-size="10.00">_handler.hpp</text>
</a>
</g>
</g>
<!-- Node12&#45;&gt;Node13 -->
<g id="edge15" class="edge">
<title>Node12&#45;&gt;Node13</title>
<path fill="none" stroke="midnightblue" d="M864.99,-134.4C865.95,-126.56 867.18,-116.6 868.29,-107.57"/>
<polygon fill="midnightblue" stroke="midnightblue" points="871.77,-107.93 869.52,-97.58 864.83,-107.07 871.77,-107.93"/>
</g>
<!-- Node14 -->
<g id="node14" class="node">
<title>Node14</title>
<g id="a_node14"><a xlink:title=" ">
<polygon fill="white" stroke="#bfbfbf" points="944.25,-67.5 944.25,-97.5 1064.25,-97.5 1064.25,-67.5 944.25,-67.5"/>
<text text-anchor="start" x="952.25" y="-85.5" font-family="Helvetica" font-size="10.00">boost/asio/detail/fenced</text>
<text text-anchor="middle" x="1004.25" y="-74.5" font-family="Helvetica" font-size="10.00">_block.hpp</text>
</a>
</g>
</g>
<!-- Node12&#45;&gt;Node14 -->
<g id="edge17" class="edge">
<title>Node12&#45;&gt;Node14</title>
<path fill="none" stroke="midnightblue" d="M893.85,-134.4C914.54,-124.86 942.08,-112.16 964.47,-101.84"/>
<polygon fill="midnightblue" stroke="midnightblue" points="966.1,-104.94 973.72,-97.58 963.17,-98.58 966.1,-104.94"/>
</g>
<!-- Node15 -->
<g id="node15" class="node">
<title>Node15</title>
<g id="a_node15"><a xlink:href="reactor__op__ext_8hpp.html" target="_top" xlink:title=" ">
<polygon fill="white" stroke="black" points="677.75,-67.5 677.75,-97.5 798.75,-97.5 798.75,-67.5 677.75,-67.5"/>
<text text-anchor="start" x="685.75" y="-85.5" font-family="Helvetica" font-size="10.00">boost/asio/detail/reactor</text>
<text text-anchor="middle" x="738.25" y="-74.5" font-family="Helvetica" font-size="10.00">_op_ext.hpp</text>
</a>
</g>
</g>
<!-- Node12&#45;&gt;Node15 -->
<g id="edge18" class="edge">
<title>Node12&#45;&gt;Node15</title>
<path fill="none" stroke="midnightblue" d="M836.13,-134.4C818.03,-124.98 794.03,-112.5 774.32,-102.26"/>
<polygon fill="midnightblue" stroke="midnightblue" points="775.81,-99.08 765.32,-97.58 772.58,-105.3 775.81,-99.08"/>
</g>
<!-- Node12&#45;&gt;Node17 -->
<g id="edge20" class="edge">
<title>Node12&#45;&gt;Node17</title>
<path fill="none" stroke="midnightblue" d="M923.45,-134.48C967.33,-124.25 1026.88,-110.38 1072.78,-99.69"/>
<polygon fill="midnightblue" stroke="midnightblue" points="1073.7,-103.06 1082.65,-97.39 1072.11,-96.25 1073.7,-103.06"/>
</g>
<!-- Node12&#45;&gt;Node19 -->
<g id="edge22" class="edge">
<title>Node12&#45;&gt;Node19</title>
<path fill="none" stroke="midnightblue" d="M926.85,-139.57C942.64,-137.54 959.55,-135.54 975.25,-134 1214.64,-110.55 1275.49,-117.28 1515.25,-98 1543.97,-95.69 1575.67,-92.77 1602.81,-90.16"/>
<polygon fill="midnightblue" stroke="midnightblue" points="1603.35,-93.62 1612.97,-89.17 1602.67,-86.65 1603.35,-93.62"/>
</g>
<!-- Node12&#45;&gt;Node20 -->
<g id="edge23" class="edge">
<title>Node12&#45;&gt;Node20</title>
<path fill="none" stroke="midnightblue" d="M926.89,-140C942.69,-137.96 959.58,-135.84 975.25,-134 1122.98,-116.62 1296.77,-98.91 1388.34,-89.79"/>
<polygon fill="midnightblue" stroke="midnightblue" points="1388.95,-93.25 1398.56,-88.77 1388.26,-86.28 1388.95,-93.25"/>
</g>
<!-- Node15&#45;&gt;Node16 -->
<g id="edge19" class="edge">
<title>Node15&#45;&gt;Node16</title>
<path fill="none" stroke="midnightblue" d="M677.58,-68.75C674.43,-68.14 671.31,-67.56 668.25,-67 583.17,-51.46 484.81,-36.31 420.06,-26.73"/>
<polygon fill="midnightblue" stroke="midnightblue" points="420.36,-23.24 409.96,-25.24 419.34,-30.16 420.36,-23.24"/>
</g>
<!-- Node18 -->
<g id="node18" class="node">
<title>Node18</title>
<g id="a_node18"><a xlink:title=" ">
<polygon fill="white" stroke="#bfbfbf" points="1082.75,-0.5 1082.75,-30.5 1201.75,-30.5 1201.75,-0.5 1082.75,-0.5"/>
<text text-anchor="start" x="1090.75" y="-18.5" font-family="Helvetica" font-size="10.00">boost/asio/detail/socket</text>
<text text-anchor="middle" x="1142.25" y="-7.5" font-family="Helvetica" font-size="10.00">_ops.hpp</text>
</a>
</g>
</g>
<!-- Node17&#45;&gt;Node18 -->
<g id="edge21" class="edge">
<title>Node17&#45;&gt;Node18</title>
<path fill="none" stroke="midnightblue" d="M1142.25,-67.4C1142.25,-59.64 1142.25,-49.81 1142.25,-40.86"/>
<polygon fill="midnightblue" stroke="midnightblue" points="1145.75,-40.58 1142.25,-30.58 1138.75,-40.58 1145.75,-40.58"/>
</g>
<!-- Node21&#45;&gt;Node2 -->
<g id="edge25" class="edge">
<title>Node21&#45;&gt;Node2</title>
<path fill="none" stroke="midnightblue" d="M635.13,-138.8C564.61,-129.23 454.95,-113.78 360.25,-98 352.61,-96.73 344.56,-95.3 336.66,-93.86"/>
<polygon fill="midnightblue" stroke="midnightblue" points="337.24,-90.41 326.77,-92.02 335.96,-97.29 337.24,-90.41"/>
</g>
<!-- Node21&#45;&gt;Node8 -->
<g id="edge32" class="edge">
<title>Node21&#45;&gt;Node8</title>
<path fill="none" stroke="midnightblue" d="M635.03,-141.77C537.21,-132.63 358.55,-115.43 206.25,-98 193.69,-96.56 180.36,-94.94 167.43,-93.31"/>
<polygon fill="midnightblue" stroke="midnightblue" points="167.52,-89.8 157.16,-92.01 166.64,-96.74 167.52,-89.8"/>
</g>
<!-- Node21&#45;&gt;Node9 -->
<g id="edge26" class="edge">
<title>Node21&#45;&gt;Node9</title>
<path fill="none" stroke="midnightblue" d="M651.51,-134.48C603.04,-122.5 534.27,-105.5 489.71,-94.49"/>
<polygon fill="midnightblue" stroke="midnightblue" points="490.31,-91.03 479.76,-92.03 488.63,-97.83 490.31,-91.03"/>
</g>
<!-- Node21&#45;&gt;Node10 -->
<g id="edge28" class="edge">
<title>Node21&#45;&gt;Node10</title>
<path fill="none" stroke="midnightblue" d="M684.6,-134.4C669.18,-125.2 648.83,-113.07 631.88,-102.95"/>
<polygon fill="midnightblue" stroke="midnightblue" points="633.24,-99.69 622.86,-97.58 629.66,-105.7 633.24,-99.69"/>
</g>
<!-- Node21&#45;&gt;Node13 -->
<g id="edge27" class="edge">
<title>Node21&#45;&gt;Node13</title>
<path fill="none" stroke="midnightblue" d="M743.62,-134.4C767.97,-124.69 800.51,-111.71 826.64,-101.29"/>
<polygon fill="midnightblue" stroke="midnightblue" points="827.96,-104.53 835.95,-97.58 825.37,-98.03 827.96,-104.53"/>
</g>
<!-- Node21&#45;&gt;Node14 -->
<g id="edge29" class="edge">
<title>Node21&#45;&gt;Node14</title>
<path fill="none" stroke="midnightblue" d="M772.12,-134.48C819.82,-124 884.98,-109.69 934.12,-98.9"/>
<polygon fill="midnightblue" stroke="midnightblue" points="935.02,-102.29 944.04,-96.72 933.52,-95.45 935.02,-102.29"/>
</g>
<!-- Node21&#45;&gt;Node15 -->
<g id="edge30" class="edge">
<title>Node21&#45;&gt;Node15</title>
<path fill="none" stroke="midnightblue" d="M714.76,-134.4C718.5,-126.3 723.28,-115.94 727.55,-106.69"/>
<polygon fill="midnightblue" stroke="midnightblue" points="730.74,-108.12 731.76,-97.58 724.39,-105.19 730.74,-108.12"/>
</g>
<!-- Node21&#45;&gt;Node17 -->
<g id="edge31" class="edge">
<title>Node21&#45;&gt;Node17</title>
<path fill="none" stroke="midnightblue" d="M781.54,-135.51C784.82,-134.99 788.07,-134.48 791.25,-134 913.01,-115.6 946.95,-118.83 1072.47,-98.04"/>
<polygon fill="midnightblue" stroke="midnightblue" points="1073.19,-101.47 1082.47,-96.37 1072.03,-94.57 1073.19,-101.47"/>
</g>
<!-- Node21&#45;&gt;Node19 -->
<g id="edge33" class="edge">
<title>Node21&#45;&gt;Node19</title>
<path fill="none" stroke="midnightblue" d="M781.5,-135.2C784.79,-134.76 788.06,-134.36 791.25,-134 1111.44,-98.21 1193.91,-121.11 1515.25,-98 1543.99,-95.93 1575.69,-93.05 1602.82,-90.4"/>
<polygon fill="midnightblue" stroke="midnightblue" points="1603.37,-93.86 1612.98,-89.4 1602.69,-86.9 1603.37,-93.86"/>
</g>
<!-- Node21&#45;&gt;Node20 -->
<g id="edge34" class="edge">
<title>Node21&#45;&gt;Node20</title>
<path fill="none" stroke="midnightblue" d="M781.52,-135.31C784.8,-134.84 788.06,-134.4 791.25,-134 905.59,-119.68 1245.47,-96.86 1388.11,-87.61"/>
<polygon fill="midnightblue" stroke="midnightblue" points="1388.69,-91.08 1398.44,-86.94 1388.23,-84.09 1388.69,-91.08"/>
</g>
</g>
</svg>
