<?xml version="1.0" encoding="UTF-8" standalone="no"?>
<!DOCTYPE svg PUBLIC "-//W3C//DTD SVG 1.1//EN"
 "http://www.w3.org/Graphics/SVG/1.1/DTD/svg11.dtd">
<!-- Generated by graphviz version 2.44.0 (0)
 -->
<!-- Title: /home/ec2&#45;user/workspace/vsomeip/implementation/helper/boost/asio/detail/reactive_socket_recvfrom_op_ext_local.hpp Pages: 1 -->
<svg width="151pt" height="350pt"
 viewBox="0.00 0.00 151.00 350.00" xmlns="http://www.w3.org/2000/svg" xmlns:xlink="http://www.w3.org/1999/xlink">
<g id="graph0" class="graph" transform="scale(1 1) rotate(0) translate(4 346)">
<title>/home/ec2&#45;user/workspace/vsomeip/implementation/helper/boost/asio/detail/reactive_socket_recvfrom_op_ext_local.hpp</title>
<polygon fill="white" stroke="transparent" points="-4,4 -4,-346 147,-346 147,4 -4,4"/>
<!-- Node1 -->
<g id="node1" class="node">
<title>Node1</title>
<g id="a_node1"><a xlink:title=" ">
<polygon fill="#bfbfbf" stroke="black" points="4.5,-278.5 4.5,-341.5 138.5,-341.5 138.5,-278.5 4.5,-278.5"/>
<text text-anchor="start" x="12.5" y="-329.5" font-family="Helvetica" font-size="10.00">/home/ec2&#45;user/workspace</text>
<text text-anchor="start" x="12.5" y="-318.5" font-family="Helvetica" font-size="10.00">/vsomeip/implementation</text>
<text text-anchor="start" x="12.5" y="-307.5" font-family="Helvetica" font-size="10.00">/helper/boost/asio/detail</text>
<text text-anchor="start" x="12.5" y="-296.5" font-family="Helvetica" font-size="10.00">/reactive_socket_recvfrom</text>
<text text-anchor="middle" x="71.5" y="-285.5" font-family="Helvetica" font-size="10.00">_op_ext_local.hpp</text>
</a>
</g>
</g>
<!-- Node2 -->
<g id="node2" class="node">
<title>Node2</title>
<g id="a_node2"><a xlink:href="reactive__socket__service__ext__local_8hpp.html" target="_top" xlink:title=" ">
<polygon fill="white" stroke="black" points="0,-178.5 0,-241.5 143,-241.5 143,-178.5 0,-178.5"/>
<text text-anchor="start" x="8" y="-229.5" font-family="Helvetica" font-size="10.00">/home/ec2&#45;user/workspace</text>
<text text-anchor="start" x="8" y="-218.5" font-family="Helvetica" font-size="10.00">/vsomeip/implementation</text>
<text text-anchor="start" x="8" y="-207.5" font-family="Helvetica" font-size="10.00">/helper/boost/asio/detail</text>
<text text-anchor="start" x="8" y="-196.5" font-family="Helvetica" font-size="10.00">/reactive_socket_service_ext</text>
<text text-anchor="middle" x="71.5" y="-185.5" font-family="Helvetica" font-size="10.00">_local.hpp</text>
</a>
</g>
</g>
<!-- Node1&#45;&gt;Node2 -->
<g id="edge1" class="edge">
<title>Node1&#45;&gt;Node2</title>
<path fill="none" stroke="midnightblue" d="M71.5,-268.1C71.5,-259.24 71.5,-250.01 71.5,-241.63"/>
<polygon fill="midnightblue" stroke="midnightblue" points="68,-268.26 71.5,-278.26 75,-268.26 68,-268.26"/>
</g>
<!-- Node3 -->
<g id="node3" class="node">
<title>Node3</title>
<g id="a_node3"><a xlink:href="stream__socket__service__ext_8hpp.html" target="_top" xlink:title=" ">
<polygon fill="white" stroke="black" points="4.5,-89.5 4.5,-141.5 138.5,-141.5 138.5,-89.5 4.5,-89.5"/>
<text text-anchor="start" x="12.5" y="-129.5" font-family="Helvetica" font-size="10.00">/home/ec2&#45;user/workspace</text>
<text text-anchor="start" x="12.5" y="-118.5" font-family="Helvetica" font-size="10.00">/vsomeip/implementation</text>
<text text-anchor="start" x="12.5" y="-107.5" font-family="Helvetica" font-size="10.00">/helper/boost/asio/stream</text>
<text text-anchor="middle" x="71.5" y="-96.5" font-family="Helvetica" font-size="10.00">_socket_service_ext.hpp</text>
</a>
</g>
</g>
<!-- Node2&#45;&gt;Node3 -->
<g id="edge2" class="edge">
<title>Node2&#45;&gt;Node3</title>
<path fill="none" stroke="midnightblue" d="M71.5,-168.42C71.5,-159.36 71.5,-150 71.5,-141.77"/>
<polygon fill="midnightblue" stroke="midnightblue" points="68,-168.46 71.5,-178.46 75,-168.46 68,-168.46"/>
</g>
<!-- Node4 -->
<g id="node4" class="node">
<title>Node4</title>
<g id="a_node4"><a xlink:href="basic__stream__socket__ext_8hpp.html" target="_top" xlink:title=" ">
<polygon fill="white" stroke="black" points="4.5,-0.5 4.5,-52.5 138.5,-52.5 138.5,-0.5 4.5,-0.5"/>
<text text-anchor="start" x="12.5" y="-40.5" font-family="Helvetica" font-size="10.00">/home/ec2&#45;user/workspace</text>
<text text-anchor="start" x="12.5" y="-29.5" font-family="Helvetica" font-size="10.00">/vsomeip/implementation</text>
<text text-anchor="start" x="12.5" y="-18.5" font-family="Helvetica" font-size="10.00">/helper/boost/asio/basic</text>
<text text-anchor="middle" x="71.5" y="-7.5" font-family="Helvetica" font-size="10.00">_stream_socket_ext.hpp</text>
</a>
</g>
</g>
<!-- Node3&#45;&gt;Node4 -->
<g id="edge3" class="edge">
<title>Node3&#45;&gt;Node4</title>
<path fill="none" stroke="midnightblue" d="M71.5,-79.19C71.5,-70.28 71.5,-60.9 71.5,-52.61"/>
<polygon fill="midnightblue" stroke="midnightblue" points="68,-79.34 71.5,-89.34 75,-79.34 68,-79.34"/>
</g>
</g>
</svg>
