<?xml version="1.0" encoding="UTF-8" standalone="no"?>
<!DOCTYPE svg PUBLIC "-//W3C//DTD SVG 1.1//EN"
 "http://www.w3.org/Graphics/SVG/1.1/DTD/svg11.dtd">
<!-- Generated by graphviz version 2.44.0 (0)
 -->
<!-- Title: /home/ec2&#45;user/workspace/vsomeip/implementation/helper/boost/asio/detail/reactive_socket_recv_op_ext_local.hpp Pages: 1 -->
<svg width="1251pt" height="206pt"
 viewBox="0.00 0.00 1250.50 206.00" xmlns="http://www.w3.org/2000/svg" xmlns:xlink="http://www.w3.org/1999/xlink">
<g id="graph0" class="graph" transform="scale(1 1) rotate(0) translate(4 202)">
<title>/home/ec2&#45;user/workspace/vsomeip/implementation/helper/boost/asio/detail/reactive_socket_recv_op_ext_local.hpp</title>
<polygon fill="white" stroke="transparent" points="-4,4 -4,-202 1246.5,-202 1246.5,4 -4,4"/>
<!-- Node1 -->
<g id="node1" class="node">
<title>Node1</title>
<g id="a_node1"><a xlink:title=" ">
<polygon fill="#bfbfbf" stroke="black" points="577,-134.5 577,-197.5 723,-197.5 723,-134.5 577,-134.5"/>
<text text-anchor="start" x="585" y="-185.5" font-family="Helvetica" font-size="10.00">/home/ec2&#45;user/workspace</text>
<text text-anchor="start" x="585" y="-174.5" font-family="Helvetica" font-size="10.00">/vsomeip/implementation</text>
<text text-anchor="start" x="585" y="-163.5" font-family="Helvetica" font-size="10.00">/helper/boost/asio/detail</text>
<text text-anchor="start" x="585" y="-152.5" font-family="Helvetica" font-size="10.00">/reactive_socket_recv_op_ext</text>
<text text-anchor="middle" x="650" y="-141.5" font-family="Helvetica" font-size="10.00">_local.hpp</text>
</a>
</g>
</g>
<!-- Node2 -->
<g id="node2" class="node">
<title>Node2</title>
<g id="a_node2"><a xlink:title=" ">
<polygon fill="white" stroke="#bfbfbf" points="0,-73 0,-92 136,-92 136,-73 0,-73"/>
<text text-anchor="middle" x="68" y="-80" font-family="Helvetica" font-size="10.00">boost/asio/detail/config.hpp</text>
</a>
</g>
</g>
<!-- Node1&#45;&gt;Node2 -->
<g id="edge1" class="edge">
<title>Node1&#45;&gt;Node2</title>
<path fill="none" stroke="midnightblue" d="M576.64,-156.53C478.21,-144.88 298.04,-122.54 145,-98 137.26,-96.76 129.09,-95.34 121.1,-93.89"/>
<polygon fill="midnightblue" stroke="midnightblue" points="121.57,-90.42 111.1,-92.04 120.29,-97.3 121.57,-90.42"/>
</g>
<!-- Node3 -->
<g id="node3" class="node">
<title>Node3</title>
<g id="a_node3"><a xlink:title=" ">
<polygon fill="white" stroke="#bfbfbf" points="154,-73 154,-92 306,-92 306,-73 154,-73"/>
<text text-anchor="middle" x="230" y="-80" font-family="Helvetica" font-size="10.00">boost/asio/detail/addressof.hpp</text>
</a>
</g>
</g>
<!-- Node1&#45;&gt;Node3 -->
<g id="edge2" class="edge">
<title>Node1&#45;&gt;Node3</title>
<path fill="none" stroke="midnightblue" d="M576.84,-150.8C493.34,-134.6 358.71,-108.48 284.12,-94"/>
<polygon fill="midnightblue" stroke="midnightblue" points="284.49,-90.51 274.01,-92.04 283.16,-97.38 284.49,-90.51"/>
</g>
<!-- Node4 -->
<g id="node4" class="node">
<title>Node4</title>
<g id="a_node4"><a xlink:title=" ">
<polygon fill="white" stroke="#bfbfbf" points="324.5,-67.5 324.5,-97.5 433.5,-97.5 433.5,-67.5 324.5,-67.5"/>
<text text-anchor="start" x="332.5" y="-85.5" font-family="Helvetica" font-size="10.00">boost/asio/detail/bind</text>
<text text-anchor="middle" x="379" y="-74.5" font-family="Helvetica" font-size="10.00">_handler.hpp</text>
</a>
</g>
</g>
<!-- Node1&#45;&gt;Node4 -->
<g id="edge3" class="edge">
<title>Node1&#45;&gt;Node4</title>
<path fill="none" stroke="midnightblue" d="M576.66,-142.94C532.35,-129.62 476.71,-112.89 435.77,-100.57"/>
<polygon fill="midnightblue" stroke="midnightblue" points="436.54,-97.15 425.95,-97.62 434.52,-103.85 436.54,-97.15"/>
</g>
<!-- Node5 -->
<g id="node5" class="node">
<title>Node5</title>
<g id="a_node5"><a xlink:title=" ">
<polygon fill="white" stroke="#bfbfbf" points="452,-67.5 452,-97.5 572,-97.5 572,-67.5 452,-67.5"/>
<text text-anchor="start" x="460" y="-85.5" font-family="Helvetica" font-size="10.00">boost/asio/detail/buffer</text>
<text text-anchor="middle" x="512" y="-74.5" font-family="Helvetica" font-size="10.00">_sequence_adapter.hpp</text>
</a>
</g>
</g>
<!-- Node1&#45;&gt;Node5 -->
<g id="edge4" class="edge">
<title>Node1&#45;&gt;Node5</title>
<path fill="none" stroke="midnightblue" d="M598.22,-134.42C580.32,-123.85 560.77,-112.3 544.81,-102.88"/>
<polygon fill="midnightblue" stroke="midnightblue" points="546.27,-99.67 535.88,-97.6 542.71,-105.7 546.27,-99.67"/>
</g>
<!-- Node6 -->
<g id="node6" class="node">
<title>Node6</title>
<g id="a_node6"><a xlink:title=" ">
<polygon fill="white" stroke="#bfbfbf" points="590,-67.5 590,-97.5 710,-97.5 710,-67.5 590,-67.5"/>
<text text-anchor="start" x="598" y="-85.5" font-family="Helvetica" font-size="10.00">boost/asio/detail/fenced</text>
<text text-anchor="middle" x="650" y="-74.5" font-family="Helvetica" font-size="10.00">_block.hpp</text>
</a>
</g>
</g>
<!-- Node1&#45;&gt;Node6 -->
<g id="edge5" class="edge">
<title>Node1&#45;&gt;Node6</title>
<path fill="none" stroke="midnightblue" d="M650,-134.19C650,-125.41 650,-115.98 650,-107.66"/>
<polygon fill="midnightblue" stroke="midnightblue" points="653.5,-107.52 650,-97.52 646.5,-107.52 653.5,-107.52"/>
</g>
<!-- Node7 -->
<g id="node7" class="node">
<title>Node7</title>
<g id="a_node7"><a xlink:href="reactor__op__ext__local_8hpp.html" target="_top" xlink:title=" ">
<polygon fill="white" stroke="black" points="728.5,-67.5 728.5,-97.5 849.5,-97.5 849.5,-67.5 728.5,-67.5"/>
<text text-anchor="start" x="736.5" y="-85.5" font-family="Helvetica" font-size="10.00">boost/asio/detail/reactor</text>
<text text-anchor="middle" x="789" y="-74.5" font-family="Helvetica" font-size="10.00">_op_ext_local.hpp</text>
</a>
</g>
</g>
<!-- Node1&#45;&gt;Node7 -->
<g id="edge6" class="edge">
<title>Node1&#45;&gt;Node7</title>
<path fill="none" stroke="midnightblue" d="M702.15,-134.42C720.18,-123.85 739.88,-112.3 755.95,-102.88"/>
<polygon fill="midnightblue" stroke="midnightblue" points="758.1,-105.68 764.95,-97.6 754.55,-99.64 758.1,-105.68"/>
</g>
<!-- Node9 -->
<g id="node9" class="node">
<title>Node9</title>
<g id="a_node9"><a xlink:href="socket__ops__ext__local_8hpp.html" target="_top" xlink:title=" ">
<polygon fill="white" stroke="black" points="867.5,-67.5 867.5,-97.5 986.5,-97.5 986.5,-67.5 867.5,-67.5"/>
<text text-anchor="start" x="875.5" y="-85.5" font-family="Helvetica" font-size="10.00">boost/asio/detail/socket</text>
<text text-anchor="middle" x="927" y="-74.5" font-family="Helvetica" font-size="10.00">_ops_ext_local.hpp</text>
</a>
</g>
</g>
<!-- Node1&#45;&gt;Node9 -->
<g id="edge8" class="edge">
<title>Node1&#45;&gt;Node9</title>
<path fill="none" stroke="midnightblue" d="M723.14,-143.48C768.94,-130 827.12,-112.89 869.59,-100.39"/>
<polygon fill="midnightblue" stroke="midnightblue" points="870.61,-103.74 879.21,-97.56 868.63,-97.03 870.61,-103.74"/>
</g>
<!-- Node11 -->
<g id="node11" class="node">
<title>Node11</title>
<g id="a_node11"><a xlink:title=" ">
<polygon fill="white" stroke="#bfbfbf" points="1005,-67.5 1005,-97.5 1117,-97.5 1117,-67.5 1005,-67.5"/>
<text text-anchor="start" x="1013" y="-85.5" font-family="Helvetica" font-size="10.00">boost/asio/detail/push</text>
<text text-anchor="middle" x="1061" y="-74.5" font-family="Helvetica" font-size="10.00">_options.hpp</text>
</a>
</g>
</g>
<!-- Node1&#45;&gt;Node11 -->
<g id="edge10" class="edge">
<title>Node1&#45;&gt;Node11</title>
<path fill="none" stroke="midnightblue" d="M723.02,-151.48C790.87,-138.77 894.98,-118.92 994.7,-98.24"/>
<polygon fill="midnightblue" stroke="midnightblue" points="995.57,-101.64 1004.65,-96.17 994.15,-94.78 995.57,-101.64"/>
</g>
<!-- Node12 -->
<g id="node12" class="node">
<title>Node12</title>
<g id="a_node12"><a xlink:title=" ">
<polygon fill="white" stroke="#bfbfbf" points="1135.5,-67.5 1135.5,-97.5 1242.5,-97.5 1242.5,-67.5 1135.5,-67.5"/>
<text text-anchor="start" x="1143.5" y="-85.5" font-family="Helvetica" font-size="10.00">boost/asio/detail/pop</text>
<text text-anchor="middle" x="1189" y="-74.5" font-family="Helvetica" font-size="10.00">_options.hpp</text>
</a>
</g>
</g>
<!-- Node1&#45;&gt;Node12 -->
<g id="edge11" class="edge">
<title>Node1&#45;&gt;Node12</title>
<path fill="none" stroke="midnightblue" d="M723.3,-156.68C814.94,-145.82 976.77,-125.19 1125.24,-98.04"/>
<polygon fill="midnightblue" stroke="midnightblue" points="1126.25,-101.41 1135.45,-96.16 1124.98,-94.53 1126.25,-101.41"/>
</g>
<!-- Node8 -->
<g id="node8" class="node">
<title>Node8</title>
<g id="a_node8"><a xlink:title=" ">
<polygon fill="white" stroke="#bfbfbf" points="728.5,-0.5 728.5,-30.5 849.5,-30.5 849.5,-0.5 728.5,-0.5"/>
<text text-anchor="start" x="736.5" y="-18.5" font-family="Helvetica" font-size="10.00">boost/asio/detail/reactor</text>
<text text-anchor="middle" x="789" y="-7.5" font-family="Helvetica" font-size="10.00">_op.hpp</text>
</a>
</g>
</g>
<!-- Node7&#45;&gt;Node8 -->
<g id="edge7" class="edge">
<title>Node7&#45;&gt;Node8</title>
<path fill="none" stroke="midnightblue" d="M789,-67.4C789,-59.64 789,-49.81 789,-40.86"/>
<polygon fill="midnightblue" stroke="midnightblue" points="792.5,-40.58 789,-30.58 785.5,-40.58 792.5,-40.58"/>
</g>
<!-- Node10 -->
<g id="node10" class="node">
<title>Node10</title>
<g id="a_node10"><a xlink:title=" ">
<polygon fill="white" stroke="#bfbfbf" points="867.5,-0.5 867.5,-30.5 986.5,-30.5 986.5,-0.5 867.5,-0.5"/>
<text text-anchor="start" x="875.5" y="-18.5" font-family="Helvetica" font-size="10.00">boost/asio/detail/socket</text>
<text text-anchor="middle" x="927" y="-7.5" font-family="Helvetica" font-size="10.00">_ops.hpp</text>
</a>
</g>
</g>
<!-- Node9&#45;&gt;Node10 -->
<g id="edge9" class="edge">
<title>Node9&#45;&gt;Node10</title>
<path fill="none" stroke="midnightblue" d="M927,-67.4C927,-59.64 927,-49.81 927,-40.86"/>
<polygon fill="midnightblue" stroke="midnightblue" points="930.5,-40.58 927,-30.58 923.5,-40.58 930.5,-40.58"/>
</g>
</g>
</svg>
