<?xml version="1.0" encoding="UTF-8" standalone="no"?>
<!DOCTYPE svg PUBLIC "-//W3C//DTD SVG 1.1//EN"
 "http://www.w3.org/Graphics/SVG/1.1/DTD/svg11.dtd">
<!-- Generated by graphviz version 2.44.0 (0)
 -->
<!-- Title: /home/ec2&#45;user/workspace/vsomeip/implementation/helper/boost/asio/detail/reactive_socket_service_base_ext_local.hpp Pages: 1 -->
<svg width="2318pt" height="273pt"
 viewBox="0.00 0.00 2317.50 273.00" xmlns="http://www.w3.org/2000/svg" xmlns:xlink="http://www.w3.org/1999/xlink">
<g id="graph0" class="graph" transform="scale(1 1) rotate(0) translate(4 269)">
<title>/home/ec2&#45;user/workspace/vsomeip/implementation/helper/boost/asio/detail/reactive_socket_service_base_ext_local.hpp</title>
<polygon fill="white" stroke="transparent" points="-4,4 -4,-269 2313.5,-269 2313.5,4 -4,4"/>
<!-- Node1 -->
<g id="node1" class="node">
<title>Node1</title>
<g id="a_node1"><a xlink:title=" ">
<polygon fill="#bfbfbf" stroke="black" points="1073.5,-201.5 1073.5,-264.5 1224.5,-264.5 1224.5,-201.5 1073.5,-201.5"/>
<text text-anchor="start" x="1081.5" y="-252.5" font-family="Helvetica" font-size="10.00">/home/ec2&#45;user/workspace</text>
<text text-anchor="start" x="1081.5" y="-241.5" font-family="Helvetica" font-size="10.00">/vsomeip/implementation</text>
<text text-anchor="start" x="1081.5" y="-230.5" font-family="Helvetica" font-size="10.00">/helper/boost/asio/detail</text>
<text text-anchor="start" x="1081.5" y="-219.5" font-family="Helvetica" font-size="10.00">/reactive_socket_service_base</text>
<text text-anchor="middle" x="1149" y="-208.5" font-family="Helvetica" font-size="10.00">_ext_local.hpp</text>
</a>
</g>
</g>
<!-- Node2 -->
<g id="node2" class="node">
<title>Node2</title>
<g id="a_node2"><a xlink:title=" ">
<polygon fill="white" stroke="#bfbfbf" points="465,-140 465,-159 519,-159 519,-140 465,-140"/>
<text text-anchor="middle" x="492" y="-147" font-family="Helvetica" font-size="10.00">iostream</text>
</a>
</g>
</g>
<!-- Node1&#45;&gt;Node2 -->
<g id="edge1" class="edge">
<title>Node1&#45;&gt;Node2</title>
<path fill="none" stroke="midnightblue" d="M1073.16,-229.39C955.97,-224.11 724.41,-208.64 533,-165 529.76,-164.26 526.42,-163.35 523.12,-162.34"/>
<polygon fill="midnightblue" stroke="midnightblue" points="524.02,-158.95 513.43,-159.13 521.82,-165.6 524.02,-158.95"/>
</g>
<!-- Node3 -->
<g id="node3" class="node">
<title>Node3</title>
<g id="a_node3"><a xlink:title=" ">
<polygon fill="white" stroke="#bfbfbf" points="156,-73 156,-92 292,-92 292,-73 156,-73"/>
<text text-anchor="middle" x="224" y="-80" font-family="Helvetica" font-size="10.00">boost/asio/detail/config.hpp</text>
</a>
</g>
</g>
<!-- Node1&#45;&gt;Node3 -->
<g id="edge2" class="edge">
<title>Node1&#45;&gt;Node3</title>
<path fill="none" stroke="midnightblue" d="M1073.4,-227.99C943.24,-220.22 682.74,-200.68 599,-165 578.95,-156.46 580.98,-142.71 561,-134 454.05,-87.4 416.13,-116.8 301,-98 293.35,-96.75 285.3,-95.34 277.4,-93.9"/>
<polygon fill="midnightblue" stroke="midnightblue" points="277.98,-90.45 267.51,-92.07 276.7,-97.33 277.98,-90.45"/>
</g>
<!-- Node4 -->
<g id="node4" class="node">
<title>Node4</title>
<g id="a_node4"><a xlink:title=" ">
<polygon fill="white" stroke="#bfbfbf" points="1215.5,-140 1215.5,-159 1322.5,-159 1322.5,-140 1215.5,-140"/>
<text text-anchor="middle" x="1269" y="-147" font-family="Helvetica" font-size="10.00">boost/asio/buffer.hpp</text>
</a>
</g>
</g>
<!-- Node1&#45;&gt;Node4 -->
<g id="edge3" class="edge">
<title>Node1&#45;&gt;Node4</title>
<path fill="none" stroke="midnightblue" d="M1194.02,-201.42C1212.53,-188.85 1233.07,-174.91 1247.96,-164.79"/>
<polygon fill="midnightblue" stroke="midnightblue" points="1250.13,-167.55 1256.43,-159.03 1246.2,-161.76 1250.13,-167.55"/>
</g>
<!-- Node5 -->
<g id="node5" class="node">
<title>Node5</title>
<g id="a_node5"><a xlink:title=" ">
<polygon fill="white" stroke="#bfbfbf" points="1340.5,-140 1340.5,-159 1443.5,-159 1443.5,-140 1340.5,-140"/>
<text text-anchor="middle" x="1392" y="-147" font-family="Helvetica" font-size="10.00">boost/asio/error.hpp</text>
</a>
</g>
</g>
<!-- Node1&#45;&gt;Node5 -->
<g id="edge4" class="edge">
<title>Node1&#45;&gt;Node5</title>
<path fill="none" stroke="midnightblue" d="M1224.55,-206.66C1268.68,-191.86 1322.29,-173.88 1356.77,-162.32"/>
<polygon fill="midnightblue" stroke="midnightblue" points="1358.02,-165.59 1366.39,-159.09 1355.8,-158.95 1358.02,-165.59"/>
</g>
<!-- Node6 -->
<g id="node6" class="node">
<title>Node6</title>
<g id="a_node6"><a xlink:title=" ">
<polygon fill="white" stroke="#bfbfbf" points="1462,-140 1462,-159 1590,-159 1590,-140 1462,-140"/>
<text text-anchor="middle" x="1526" y="-147" font-family="Helvetica" font-size="10.00">boost/asio/io_service.hpp</text>
</a>
</g>
</g>
<!-- Node1&#45;&gt;Node6 -->
<g id="edge5" class="edge">
<title>Node1&#45;&gt;Node6</title>
<path fill="none" stroke="midnightblue" d="M1224.84,-215.61C1299.85,-199.39 1412.44,-175.05 1476.59,-161.18"/>
<polygon fill="midnightblue" stroke="midnightblue" points="1477.42,-164.58 1486.46,-159.05 1475.94,-157.74 1477.42,-164.58"/>
</g>
<!-- Node7 -->
<g id="node7" class="node">
<title>Node7</title>
<g id="a_node7"><a xlink:title=" ">
<polygon fill="white" stroke="#bfbfbf" points="0,-73 0,-92 138,-92 138,-73 0,-73"/>
<text text-anchor="middle" x="69" y="-80" font-family="Helvetica" font-size="10.00">boost/asio/socket_base.hpp</text>
</a>
</g>
</g>
<!-- Node1&#45;&gt;Node7 -->
<g id="edge6" class="edge">
<title>Node1&#45;&gt;Node7</title>
<path fill="none" stroke="midnightblue" d="M1073.37,-229.28C935.75,-223.37 650.38,-206.4 561,-165 542.74,-156.54 546.34,-142.28 528,-134 450.49,-99 231.22,-109.78 147,-98 138.57,-96.82 129.66,-95.37 121,-93.84"/>
<polygon fill="midnightblue" stroke="midnightblue" points="121.45,-90.36 110.99,-92.02 120.2,-97.25 121.45,-90.36"/>
</g>
<!-- Node8 -->
<g id="node8" class="node">
<title>Node8</title>
<g id="a_node8"><a xlink:title=" ">
<polygon fill="white" stroke="#bfbfbf" points="448,-73 448,-92 600,-92 600,-73 448,-73"/>
<text text-anchor="middle" x="524" y="-80" font-family="Helvetica" font-size="10.00">boost/asio/detail/addressof.hpp</text>
</a>
</g>
</g>
<!-- Node1&#45;&gt;Node8 -->
<g id="edge7" class="edge">
<title>Node1&#45;&gt;Node8</title>
<path fill="none" stroke="midnightblue" d="M1073.45,-232.19C978.3,-230 811.4,-217.98 680,-165 658.15,-156.19 657.42,-145.76 637,-134 610.77,-118.89 579.19,-105.12 556.09,-95.79"/>
<polygon fill="midnightblue" stroke="midnightblue" points="557.33,-92.52 546.75,-92.07 554.74,-99.02 557.33,-92.52"/>
</g>
<!-- Node9 -->
<g id="node9" class="node">
<title>Node9</title>
<g id="a_node9"><a xlink:title=" ">
<polygon fill="white" stroke="#bfbfbf" points="310,-67.5 310,-97.5 430,-97.5 430,-67.5 310,-67.5"/>
<text text-anchor="start" x="318" y="-85.5" font-family="Helvetica" font-size="10.00">boost/asio/detail/buffer</text>
<text text-anchor="middle" x="370" y="-74.5" font-family="Helvetica" font-size="10.00">_sequence_adapter.hpp</text>
</a>
</g>
</g>
<!-- Node1&#45;&gt;Node9 -->
<g id="edge8" class="edge">
<title>Node1&#45;&gt;Node9</title>
<path fill="none" stroke="midnightblue" d="M1073.25,-227.19C950.41,-218.54 713.76,-198.11 637,-165 616.99,-156.37 618.62,-143.49 599,-134 595.32,-132.22 505.97,-112.76 439.99,-98.53"/>
<polygon fill="midnightblue" stroke="midnightblue" points="440.54,-95.07 430.03,-96.38 439.06,-101.91 440.54,-95.07"/>
</g>
<!-- Node10 -->
<g id="node10" class="node">
<title>Node10</title>
<g id="a_node10"><a xlink:title=" ">
<polygon fill="white" stroke="#bfbfbf" points="1608.5,-134.5 1608.5,-164.5 1733.5,-164.5 1733.5,-134.5 1608.5,-134.5"/>
<text text-anchor="start" x="1616.5" y="-152.5" font-family="Helvetica" font-size="10.00">boost/asio/detail/reactive</text>
<text text-anchor="middle" x="1671" y="-141.5" font-family="Helvetica" font-size="10.00">_null_buffers_op.hpp</text>
</a>
</g>
</g>
<!-- Node1&#45;&gt;Node10 -->
<g id="edge9" class="edge">
<title>Node1&#45;&gt;Node10</title>
<path fill="none" stroke="midnightblue" d="M1224.83,-221.91C1312.33,-210 1460.74,-188.96 1598.32,-165.07"/>
<polygon fill="midnightblue" stroke="midnightblue" points="1598.96,-168.51 1608.21,-163.34 1597.75,-161.61 1598.96,-168.51"/>
</g>
<!-- Node11 -->
<g id="node11" class="node">
<title>Node11</title>
<g id="a_node11"><a xlink:href="reactive__socket__recv__op__ext__local_8hpp.html" target="_top" xlink:title=" ">
<polygon fill="white" stroke="black" points="879.5,-134.5 879.5,-164.5 1032.5,-164.5 1032.5,-134.5 879.5,-134.5"/>
<text text-anchor="start" x="887.5" y="-152.5" font-family="Helvetica" font-size="10.00">boost/asio/detail/reactive</text>
<text text-anchor="middle" x="956" y="-141.5" font-family="Helvetica" font-size="10.00">_socket_recv_op_ext_local.hpp</text>
</a>
</g>
</g>
<!-- Node1&#45;&gt;Node11 -->
<g id="edge10" class="edge">
<title>Node1&#45;&gt;Node11</title>
<path fill="none" stroke="midnightblue" d="M1076.58,-201.42C1050.38,-190.35 1021.64,-178.22 998.8,-168.57"/>
<polygon fill="midnightblue" stroke="midnightblue" points="999.96,-165.27 989.39,-164.6 997.24,-171.71 999.96,-165.27"/>
</g>
<!-- Node15 -->
<g id="node15" class="node">
<title>Node15</title>
<g id="a_node15"><a xlink:title=" ">
<polygon fill="white" stroke="#bfbfbf" points="1365.5,-0.5 1365.5,-30.5 1486.5,-30.5 1486.5,-0.5 1365.5,-0.5"/>
<text text-anchor="start" x="1373.5" y="-18.5" font-family="Helvetica" font-size="10.00">boost/asio/detail/reactor</text>
<text text-anchor="middle" x="1426" y="-7.5" font-family="Helvetica" font-size="10.00">_op.hpp</text>
</a>
</g>
</g>
<!-- Node1&#45;&gt;Node15 -->
<g id="edge35" class="edge">
<title>Node1&#45;&gt;Node15</title>
<path fill="none" stroke="midnightblue" d="M1159.17,-201.47C1168.19,-179.22 1183.62,-150.24 1207,-134 1281.17,-82.46 1341.53,-160.22 1407,-98 1422.33,-83.43 1426.37,-59.07 1427,-40.77"/>
<polygon fill="midnightblue" stroke="midnightblue" points="1430.5,-40.56 1427.03,-30.55 1423.5,-40.54 1430.5,-40.56"/>
</g>
<!-- Node16 -->
<g id="node16" class="node">
<title>Node16</title>
<g id="a_node16"><a xlink:href="socket__ops__ext__local_8hpp.html" target="_top" xlink:title=" ">
<polygon fill="white" stroke="black" points="1278.5,-67.5 1278.5,-97.5 1397.5,-97.5 1397.5,-67.5 1278.5,-67.5"/>
<text text-anchor="start" x="1286.5" y="-85.5" font-family="Helvetica" font-size="10.00">boost/asio/detail/socket</text>
<text text-anchor="middle" x="1338" y="-74.5" font-family="Helvetica" font-size="10.00">_ops_ext_local.hpp</text>
</a>
</g>
</g>
<!-- Node1&#45;&gt;Node16 -->
<g id="edge37" class="edge">
<title>Node1&#45;&gt;Node16</title>
<path fill="none" stroke="midnightblue" d="M1148.91,-201.31C1150.48,-179.86 1156.04,-151.95 1173,-134 1180.28,-126.3 1229.91,-111.68 1272.85,-100.15"/>
<polygon fill="midnightblue" stroke="midnightblue" points="1273.98,-103.47 1282.74,-97.52 1272.18,-96.71 1273.98,-103.47"/>
</g>
<!-- Node18 -->
<g id="node18" class="node">
<title>Node18</title>
<g id="a_node18"><a xlink:title=" ">
<polygon fill="white" stroke="#bfbfbf" points="1023,-67.5 1023,-97.5 1135,-97.5 1135,-67.5 1023,-67.5"/>
<text text-anchor="start" x="1031" y="-85.5" font-family="Helvetica" font-size="10.00">boost/asio/detail/push</text>
<text text-anchor="middle" x="1079" y="-74.5" font-family="Helvetica" font-size="10.00">_options.hpp</text>
</a>
</g>
</g>
<!-- Node1&#45;&gt;Node18 -->
<g id="edge39" class="edge">
<title>Node1&#45;&gt;Node18</title>
<path fill="none" stroke="midnightblue" d="M1134.5,-201.23C1121.27,-173.18 1102.03,-132.35 1090.02,-106.89"/>
<polygon fill="midnightblue" stroke="midnightblue" points="1093.09,-105.18 1085.66,-97.62 1086.76,-108.16 1093.09,-105.18"/>
</g>
<!-- Node19 -->
<g id="node19" class="node">
<title>Node19</title>
<g id="a_node19"><a xlink:title=" ">
<polygon fill="white" stroke="#bfbfbf" points="1153.5,-67.5 1153.5,-97.5 1260.5,-97.5 1260.5,-67.5 1153.5,-67.5"/>
<text text-anchor="start" x="1161.5" y="-85.5" font-family="Helvetica" font-size="10.00">boost/asio/detail/pop</text>
<text text-anchor="middle" x="1207" y="-74.5" font-family="Helvetica" font-size="10.00">_options.hpp</text>
</a>
</g>
</g>
<!-- Node1&#45;&gt;Node19 -->
<g id="edge40" class="edge">
<title>Node1&#45;&gt;Node19</title>
<path fill="none" stroke="midnightblue" d="M1135.55,-201.26C1128.84,-181.1 1124.22,-154.74 1135,-134 1141.75,-121.03 1153.52,-110.7 1165.61,-102.84"/>
<polygon fill="midnightblue" stroke="midnightblue" points="1167.64,-105.71 1174.41,-97.56 1164.04,-99.71 1167.64,-105.71"/>
</g>
<!-- Node20 -->
<g id="node20" class="node">
<title>Node20</title>
<g id="a_node20"><a xlink:href="reactive__socket__recvmsg__op__ext__local_8hpp.html" target="_top" xlink:title=" ">
<polygon fill="white" stroke="black" points="689,-134.5 689,-164.5 861,-164.5 861,-134.5 689,-134.5"/>
<text text-anchor="start" x="697" y="-152.5" font-family="Helvetica" font-size="10.00">boost/asio/detail/reactive</text>
<text text-anchor="middle" x="775" y="-141.5" font-family="Helvetica" font-size="10.00">_socket_recvmsg_op_ext_local.hpp</text>
</a>
</g>
</g>
<!-- Node1&#45;&gt;Node20 -->
<g id="edge22" class="edge">
<title>Node1&#45;&gt;Node20</title>
<path fill="none" stroke="midnightblue" d="M1073.32,-215.51C1008.08,-201.29 914.42,-180.88 849.52,-166.74"/>
<polygon fill="midnightblue" stroke="midnightblue" points="849.88,-163.23 839.36,-164.52 848.38,-170.07 849.88,-163.23"/>
</g>
<!-- Node21 -->
<g id="node21" class="node">
<title>Node21</title>
<g id="a_node21"><a xlink:title=" ">
<polygon fill="white" stroke="#bfbfbf" points="1751.5,-134.5 1751.5,-164.5 1876.5,-164.5 1876.5,-134.5 1751.5,-134.5"/>
<text text-anchor="start" x="1759.5" y="-152.5" font-family="Helvetica" font-size="10.00">boost/asio/detail/reactive</text>
<text text-anchor="middle" x="1814" y="-141.5" font-family="Helvetica" font-size="10.00">_socket_send_op.hpp</text>
</a>
</g>
</g>
<!-- Node1&#45;&gt;Node21 -->
<g id="edge33" class="edge">
<title>Node1&#45;&gt;Node21</title>
<path fill="none" stroke="midnightblue" d="M1224.77,-225.63C1336.03,-215.8 1550.24,-195.03 1741.39,-165.18"/>
<polygon fill="midnightblue" stroke="midnightblue" points="1742,-168.63 1751.34,-163.61 1740.91,-161.71 1742,-168.63"/>
</g>
<!-- Node22 -->
<g id="node22" class="node">
<title>Node22</title>
<g id="a_node22"><a xlink:title=" ">
<polygon fill="white" stroke="#bfbfbf" points="1895,-140 1895,-159 2035,-159 2035,-140 1895,-140"/>
<text text-anchor="middle" x="1965" y="-147" font-family="Helvetica" font-size="10.00">boost/asio/detail/reactor.hpp</text>
</a>
</g>
</g>
<!-- Node1&#45;&gt;Node22 -->
<g id="edge34" class="edge">
<title>Node1&#45;&gt;Node22</title>
<path fill="none" stroke="midnightblue" d="M1224.59,-227.4C1358.36,-218.76 1645.42,-197.94 1886,-165 1894.63,-163.82 1903.76,-162.35 1912.62,-160.8"/>
<polygon fill="midnightblue" stroke="midnightblue" points="1913.25,-164.25 1922.47,-159.04 1912.01,-157.36 1913.25,-164.25"/>
</g>
<!-- Node23 -->
<g id="node23" class="node">
<title>Node23</title>
<g id="a_node23"><a xlink:title=" ">
<polygon fill="white" stroke="#bfbfbf" points="2053.5,-134.5 2053.5,-164.5 2172.5,-164.5 2172.5,-134.5 2053.5,-134.5"/>
<text text-anchor="start" x="2061.5" y="-152.5" font-family="Helvetica" font-size="10.00">boost/asio/detail/socket</text>
<text text-anchor="middle" x="2113" y="-141.5" font-family="Helvetica" font-size="10.00">_holder.hpp</text>
</a>
</g>
</g>
<!-- Node1&#45;&gt;Node23 -->
<g id="edge36" class="edge">
<title>Node1&#45;&gt;Node23</title>
<path fill="none" stroke="midnightblue" d="M1224.5,-229.72C1377.36,-224.38 1734.43,-208.17 2043.21,-164.98"/>
<polygon fill="midnightblue" stroke="midnightblue" points="2043.83,-168.42 2053.25,-163.56 2042.86,-161.49 2043.83,-168.42"/>
</g>
<!-- Node24 -->
<g id="node24" class="node">
<title>Node24</title>
<g id="a_node24"><a xlink:title=" ">
<polygon fill="white" stroke="#bfbfbf" points="2190.5,-134.5 2190.5,-164.5 2309.5,-164.5 2309.5,-134.5 2190.5,-134.5"/>
<text text-anchor="start" x="2198.5" y="-152.5" font-family="Helvetica" font-size="10.00">boost/asio/detail/socket</text>
<text text-anchor="middle" x="2250" y="-141.5" font-family="Helvetica" font-size="10.00">_types.hpp</text>
</a>
</g>
</g>
<!-- Node1&#45;&gt;Node24 -->
<g id="edge38" class="edge">
<title>Node1&#45;&gt;Node24</title>
<path fill="none" stroke="midnightblue" d="M1224.55,-230.85C1394.15,-227.47 1817.99,-214.49 2180.22,-165.12"/>
<polygon fill="midnightblue" stroke="midnightblue" points="2180.95,-168.55 2190.38,-163.72 2180,-161.62 2180.95,-168.55"/>
</g>
<!-- Node11&#45;&gt;Node3 -->
<g id="edge11" class="edge">
<title>Node11&#45;&gt;Node3</title>
<path fill="none" stroke="midnightblue" d="M879.16,-135.14C876.07,-134.73 873.01,-134.35 870,-134 618.28,-104.9 552.43,-129.51 301,-98 292.27,-96.91 283.04,-95.44 274.12,-93.86"/>
<polygon fill="midnightblue" stroke="midnightblue" points="274.68,-90.4 264.22,-92.04 273.42,-97.29 274.68,-90.4"/>
</g>
<!-- Node11&#45;&gt;Node8 -->
<g id="edge12" class="edge">
<title>Node11&#45;&gt;Node8</title>
<path fill="none" stroke="midnightblue" d="M879.12,-135.42C876.04,-134.93 872.99,-134.46 870,-134 754.25,-116.26 724.73,-115.85 609,-98 600.4,-96.67 591.32,-95.2 582.43,-93.72"/>
<polygon fill="midnightblue" stroke="midnightblue" points="582.94,-90.26 572.5,-92.05 581.78,-97.16 582.94,-90.26"/>
</g>
<!-- Node11&#45;&gt;Node9 -->
<g id="edge14" class="edge">
<title>Node11&#45;&gt;Node9</title>
<path fill="none" stroke="midnightblue" d="M879.15,-135.22C876.06,-134.79 873,-134.38 870,-134 682.54,-110.41 630.95,-125.29 440.21,-98.05"/>
<polygon fill="midnightblue" stroke="midnightblue" points="440.53,-94.56 430.13,-96.59 439.53,-101.49 440.53,-94.56"/>
</g>
<!-- Node12 -->
<g id="node12" class="node">
<title>Node12</title>
<g id="a_node12"><a xlink:title=" ">
<polygon fill="white" stroke="#bfbfbf" points="895.5,-67.5 895.5,-97.5 1004.5,-97.5 1004.5,-67.5 895.5,-67.5"/>
<text text-anchor="start" x="903.5" y="-85.5" font-family="Helvetica" font-size="10.00">boost/asio/detail/bind</text>
<text text-anchor="middle" x="950" y="-74.5" font-family="Helvetica" font-size="10.00">_handler.hpp</text>
</a>
</g>
</g>
<!-- Node11&#45;&gt;Node12 -->
<g id="edge13" class="edge">
<title>Node11&#45;&gt;Node12</title>
<path fill="none" stroke="midnightblue" d="M954.7,-134.4C953.97,-126.56 953.05,-116.6 952.22,-107.57"/>
<polygon fill="midnightblue" stroke="midnightblue" points="955.7,-107.21 951.3,-97.58 948.73,-107.86 955.7,-107.21"/>
</g>
<!-- Node13 -->
<g id="node13" class="node">
<title>Node13</title>
<g id="a_node13"><a xlink:title=" ">
<polygon fill="white" stroke="#bfbfbf" points="618,-67.5 618,-97.5 738,-97.5 738,-67.5 618,-67.5"/>
<text text-anchor="start" x="626" y="-85.5" font-family="Helvetica" font-size="10.00">boost/asio/detail/fenced</text>
<text text-anchor="middle" x="678" y="-74.5" font-family="Helvetica" font-size="10.00">_block.hpp</text>
</a>
</g>
</g>
<!-- Node11&#45;&gt;Node13 -->
<g id="edge15" class="edge">
<title>Node11&#45;&gt;Node13</title>
<path fill="none" stroke="midnightblue" d="M896.02,-134.48C852.6,-124.32 793.77,-110.57 748.17,-99.91"/>
<polygon fill="midnightblue" stroke="midnightblue" points="748.89,-96.48 738.35,-97.61 747.29,-103.3 748.89,-96.48"/>
</g>
<!-- Node14 -->
<g id="node14" class="node">
<title>Node14</title>
<g id="a_node14"><a xlink:href="reactor__op__ext__local_8hpp.html" target="_top" xlink:title=" ">
<polygon fill="white" stroke="black" points="756.5,-67.5 756.5,-97.5 877.5,-97.5 877.5,-67.5 756.5,-67.5"/>
<text text-anchor="start" x="764.5" y="-85.5" font-family="Helvetica" font-size="10.00">boost/asio/detail/reactor</text>
<text text-anchor="middle" x="817" y="-74.5" font-family="Helvetica" font-size="10.00">_op_ext_local.hpp</text>
</a>
</g>
</g>
<!-- Node11&#45;&gt;Node14 -->
<g id="edge16" class="edge">
<title>Node11&#45;&gt;Node14</title>
<path fill="none" stroke="midnightblue" d="M925.84,-134.4C905.44,-124.86 878.3,-112.16 856.22,-101.84"/>
<polygon fill="midnightblue" stroke="midnightblue" points="857.64,-98.64 847.1,-97.58 854.68,-104.98 857.64,-98.64"/>
</g>
<!-- Node11&#45;&gt;Node16 -->
<g id="edge18" class="edge">
<title>Node11&#45;&gt;Node16</title>
<path fill="none" stroke="midnightblue" d="M1032.65,-137.28C1093.98,-128.05 1182.41,-114.17 1268.4,-98.25"/>
<polygon fill="midnightblue" stroke="midnightblue" points="1269.14,-101.67 1278.33,-96.4 1267.86,-94.79 1269.14,-101.67"/>
</g>
<!-- Node11&#45;&gt;Node18 -->
<g id="edge20" class="edge">
<title>Node11&#45;&gt;Node18</title>
<path fill="none" stroke="midnightblue" d="M982.69,-134.4C1000.5,-124.98 1024.12,-112.5 1043.51,-102.26"/>
<polygon fill="midnightblue" stroke="midnightblue" points="1045.16,-105.34 1052.36,-97.58 1041.89,-99.15 1045.16,-105.34"/>
</g>
<!-- Node11&#45;&gt;Node19 -->
<g id="edge21" class="edge">
<title>Node11&#45;&gt;Node19</title>
<path fill="none" stroke="midnightblue" d="M1010.15,-134.48C1049.3,-124.34 1102.3,-110.61 1143.45,-99.96"/>
<polygon fill="midnightblue" stroke="midnightblue" points="1144.57,-103.28 1153.37,-97.39 1142.82,-96.51 1144.57,-103.28"/>
</g>
<!-- Node14&#45;&gt;Node15 -->
<g id="edge17" class="edge">
<title>Node14&#45;&gt;Node15</title>
<path fill="none" stroke="midnightblue" d="M877.5,-68.32C880.37,-67.84 883.21,-67.4 886,-67 1090.59,-37.81 1147.39,-59.94 1355.47,-31.09"/>
<polygon fill="midnightblue" stroke="midnightblue" points="1356.08,-34.54 1365.5,-29.68 1355.11,-27.61 1356.08,-34.54"/>
</g>
<!-- Node17 -->
<g id="node17" class="node">
<title>Node17</title>
<g id="a_node17"><a xlink:title=" ">
<polygon fill="white" stroke="#bfbfbf" points="1228.5,-0.5 1228.5,-30.5 1347.5,-30.5 1347.5,-0.5 1228.5,-0.5"/>
<text text-anchor="start" x="1236.5" y="-18.5" font-family="Helvetica" font-size="10.00">boost/asio/detail/socket</text>
<text text-anchor="middle" x="1288" y="-7.5" font-family="Helvetica" font-size="10.00">_ops.hpp</text>
</a>
</g>
</g>
<!-- Node16&#45;&gt;Node17 -->
<g id="edge19" class="edge">
<title>Node16&#45;&gt;Node17</title>
<path fill="none" stroke="midnightblue" d="M1327.15,-67.4C1320.66,-58.96 1312.28,-48.07 1304.94,-38.52"/>
<polygon fill="midnightblue" stroke="midnightblue" points="1307.7,-36.37 1298.83,-30.58 1302.15,-40.64 1307.7,-36.37"/>
</g>
<!-- Node20&#45;&gt;Node3 -->
<g id="edge23" class="edge">
<title>Node20&#45;&gt;Node3</title>
<path fill="none" stroke="midnightblue" d="M688.68,-141.39C593.47,-133.07 435.89,-117.85 301,-98 292.87,-96.8 284.28,-95.36 275.92,-93.86"/>
<polygon fill="midnightblue" stroke="midnightblue" points="276.33,-90.38 265.86,-92.01 275.06,-97.26 276.33,-90.38"/>
</g>
<!-- Node20&#45;&gt;Node7 -->
<g id="edge30" class="edge">
<title>Node20&#45;&gt;Node7</title>
<path fill="none" stroke="midnightblue" d="M688.94,-142.69C542.15,-132.59 249.33,-111.59 147,-98 138.46,-96.87 129.44,-95.42 120.68,-93.88"/>
<polygon fill="midnightblue" stroke="midnightblue" points="121.03,-90.39 110.57,-92.05 119.78,-97.28 121.03,-90.39"/>
</g>
<!-- Node20&#45;&gt;Node8 -->
<g id="edge24" class="edge">
<title>Node20&#45;&gt;Node8</title>
<path fill="none" stroke="midnightblue" d="M720.85,-134.48C674.68,-122.52 609.23,-105.57 566.7,-94.56"/>
<polygon fill="midnightblue" stroke="midnightblue" points="567.49,-91.15 556.93,-92.03 565.74,-97.92 567.49,-91.15"/>
</g>
<!-- Node20&#45;&gt;Node9 -->
<g id="edge26" class="edge">
<title>Node20&#45;&gt;Node9</title>
<path fill="none" stroke="midnightblue" d="M688.8,-136.95C623.18,-127.82 530.41,-114.23 440.04,-98.13"/>
<polygon fill="midnightblue" stroke="midnightblue" points="440.63,-94.68 430.17,-96.36 439.4,-101.57 440.63,-94.68"/>
</g>
<!-- Node20&#45;&gt;Node12 -->
<g id="edge25" class="edge">
<title>Node20&#45;&gt;Node12</title>
<path fill="none" stroke="midnightblue" d="M812.97,-134.4C839.23,-124.64 874.36,-111.59 902.48,-101.15"/>
<polygon fill="midnightblue" stroke="midnightblue" points="903.95,-104.34 912.1,-97.58 901.51,-97.78 903.95,-104.34"/>
</g>
<!-- Node20&#45;&gt;Node13 -->
<g id="edge27" class="edge">
<title>Node20&#45;&gt;Node13</title>
<path fill="none" stroke="midnightblue" d="M753.95,-134.4C740.35,-125.28 722.46,-113.29 707.45,-103.24"/>
<polygon fill="midnightblue" stroke="midnightblue" points="709.26,-100.24 699.01,-97.58 705.37,-106.05 709.26,-100.24"/>
</g>
<!-- Node20&#45;&gt;Node14 -->
<g id="edge28" class="edge">
<title>Node20&#45;&gt;Node14</title>
<path fill="none" stroke="midnightblue" d="M784.11,-134.4C789.45,-126.13 796.32,-115.51 802.4,-106.1"/>
<polygon fill="midnightblue" stroke="midnightblue" points="805.42,-107.88 807.9,-97.58 799.54,-104.08 805.42,-107.88"/>
</g>
<!-- Node20&#45;&gt;Node16 -->
<g id="edge29" class="edge">
<title>Node20&#45;&gt;Node16</title>
<path fill="none" stroke="midnightblue" d="M861.18,-135.11C864.16,-134.72 867.1,-134.35 870,-134 1043.91,-112.92 1091.74,-124.22 1268.22,-98.16"/>
<polygon fill="midnightblue" stroke="midnightblue" points="1269,-101.58 1278.37,-96.64 1267.96,-94.66 1269,-101.58"/>
</g>
<!-- Node20&#45;&gt;Node18 -->
<g id="edge31" class="edge">
<title>Node20&#45;&gt;Node18</title>
<path fill="none" stroke="midnightblue" d="M841.71,-134.48C889.44,-124.41 955.2,-110.48 1013,-98 1013.1,-97.98 1013.2,-97.96 1013.3,-97.93"/>
<polygon fill="midnightblue" stroke="midnightblue" points="1013.81,-101.41 1022.84,-95.87 1012.32,-94.57 1013.81,-101.41"/>
</g>
<!-- Node20&#45;&gt;Node19 -->
<g id="edge32" class="edge">
<title>Node20&#45;&gt;Node19</title>
<path fill="none" stroke="midnightblue" d="M861.2,-135.26C864.17,-134.83 867.11,-134.41 870,-134 988.4,-117.19 1021.4,-119.65 1143.35,-98"/>
<polygon fill="midnightblue" stroke="midnightblue" points="1144.23,-101.4 1153.46,-96.19 1142.99,-94.51 1144.23,-101.4"/>
</g>
</g>
</svg>
