<?xml version="1.0" encoding="UTF-8" standalone="no"?>
<!DOCTYPE svg PUBLIC "-//W3C//DTD SVG 1.1//EN"
 "http://www.w3.org/Graphics/SVG/1.1/DTD/svg11.dtd">
<!-- Generated by graphviz version 2.44.0 (0)
 -->
<!-- Title: /home/ec2&#45;user/workspace/vsomeip/implementation/helper/boost/asio/detail/reactive_socket_recv_op_ext.hpp Pages: 1 -->
<svg width="1251pt" height="195pt"
 viewBox="0.00 0.00 1250.50 195.00" xmlns="http://www.w3.org/2000/svg" xmlns:xlink="http://www.w3.org/1999/xlink">
<g id="graph0" class="graph" transform="scale(1 1) rotate(0) translate(4 191)">
<title>/home/ec2&#45;user/workspace/vsomeip/implementation/helper/boost/asio/detail/reactive_socket_recv_op_ext.hpp</title>
<polygon fill="white" stroke="transparent" points="-4,4 -4,-191 1246.5,-191 1246.5,4 -4,4"/>
<!-- Node1 -->
<g id="node1" class="node">
<title>Node1</title>
<g id="a_node1"><a xlink:title=" ">
<polygon fill="#bfbfbf" stroke="black" points="568,-134.5 568,-186.5 732,-186.5 732,-134.5 568,-134.5"/>
<text text-anchor="start" x="576" y="-174.5" font-family="Helvetica" font-size="10.00">/home/ec2&#45;user/workspace</text>
<text text-anchor="start" x="576" y="-163.5" font-family="Helvetica" font-size="10.00">/vsomeip/implementation</text>
<text text-anchor="start" x="576" y="-152.5" font-family="Helvetica" font-size="10.00">/helper/boost/asio/detail</text>
<text text-anchor="middle" x="650" y="-141.5" font-family="Helvetica" font-size="10.00">/reactive_socket_recv_op_ext.hpp</text>
</a>
</g>
</g>
<!-- Node2 -->
<g id="node2" class="node">
<title>Node2</title>
<g id="a_node2"><a xlink:title=" ">
<polygon fill="white" stroke="#bfbfbf" points="0,-73 0,-92 136,-92 136,-73 0,-73"/>
<text text-anchor="middle" x="68" y="-80" font-family="Helvetica" font-size="10.00">boost/asio/detail/config.hpp</text>
</a>
</g>
</g>
<!-- Node1&#45;&gt;Node2 -->
<g id="edge1" class="edge">
<title>Node1&#45;&gt;Node2</title>
<path fill="none" stroke="midnightblue" d="M567.99,-151.17C467.9,-140.62 293.6,-121.01 145,-98 137.07,-96.77 128.7,-95.34 120.52,-93.86"/>
<polygon fill="midnightblue" stroke="midnightblue" points="121.15,-90.42 110.68,-92.05 119.88,-97.3 121.15,-90.42"/>
</g>
<!-- Node3 -->
<g id="node3" class="node">
<title>Node3</title>
<g id="a_node3"><a xlink:title=" ">
<polygon fill="white" stroke="#bfbfbf" points="154,-73 154,-92 306,-92 306,-73 154,-73"/>
<text text-anchor="middle" x="230" y="-80" font-family="Helvetica" font-size="10.00">boost/asio/detail/addressof.hpp</text>
</a>
</g>
</g>
<!-- Node1&#45;&gt;Node3 -->
<g id="edge2" class="edge">
<title>Node1&#45;&gt;Node3</title>
<path fill="none" stroke="midnightblue" d="M567.77,-144.62C484.98,-129.64 359.44,-106.92 287,-93.81"/>
<polygon fill="midnightblue" stroke="midnightblue" points="287.61,-90.37 277.14,-92.03 286.36,-97.26 287.61,-90.37"/>
</g>
<!-- Node4 -->
<g id="node4" class="node">
<title>Node4</title>
<g id="a_node4"><a xlink:title=" ">
<polygon fill="white" stroke="#bfbfbf" points="324.5,-67.5 324.5,-97.5 433.5,-97.5 433.5,-67.5 324.5,-67.5"/>
<text text-anchor="start" x="332.5" y="-85.5" font-family="Helvetica" font-size="10.00">boost/asio/detail/bind</text>
<text text-anchor="middle" x="379" y="-74.5" font-family="Helvetica" font-size="10.00">_handler.hpp</text>
</a>
</g>
</g>
<!-- Node1&#45;&gt;Node4 -->
<g id="edge3" class="edge">
<title>Node1&#45;&gt;Node4</title>
<path fill="none" stroke="midnightblue" d="M567.96,-136.49C526.48,-124.86 477.06,-111 439.16,-100.37"/>
<polygon fill="midnightblue" stroke="midnightblue" points="439.86,-96.93 429.29,-97.6 437.97,-103.67 439.86,-96.93"/>
</g>
<!-- Node5 -->
<g id="node5" class="node">
<title>Node5</title>
<g id="a_node5"><a xlink:title=" ">
<polygon fill="white" stroke="#bfbfbf" points="452,-67.5 452,-97.5 572,-97.5 572,-67.5 452,-67.5"/>
<text text-anchor="start" x="460" y="-85.5" font-family="Helvetica" font-size="10.00">boost/asio/detail/buffer</text>
<text text-anchor="middle" x="512" y="-74.5" font-family="Helvetica" font-size="10.00">_sequence_adapter.hpp</text>
</a>
</g>
</g>
<!-- Node1&#45;&gt;Node5 -->
<g id="edge4" class="edge">
<title>Node1&#45;&gt;Node5</title>
<path fill="none" stroke="midnightblue" d="M604.43,-134.4C585.58,-124.02 564.08,-112.18 546.56,-102.53"/>
<polygon fill="midnightblue" stroke="midnightblue" points="548.24,-99.46 537.8,-97.71 544.87,-105.6 548.24,-99.46"/>
</g>
<!-- Node6 -->
<g id="node6" class="node">
<title>Node6</title>
<g id="a_node6"><a xlink:title=" ">
<polygon fill="white" stroke="#bfbfbf" points="590,-67.5 590,-97.5 710,-97.5 710,-67.5 590,-67.5"/>
<text text-anchor="start" x="598" y="-85.5" font-family="Helvetica" font-size="10.00">boost/asio/detail/fenced</text>
<text text-anchor="middle" x="650" y="-74.5" font-family="Helvetica" font-size="10.00">_block.hpp</text>
</a>
</g>
</g>
<!-- Node1&#45;&gt;Node6 -->
<g id="edge5" class="edge">
<title>Node1&#45;&gt;Node6</title>
<path fill="none" stroke="midnightblue" d="M650,-134.19C650,-125.79 650,-116.44 650,-108.09"/>
<polygon fill="midnightblue" stroke="midnightblue" points="653.5,-107.85 650,-97.85 646.5,-107.85 653.5,-107.85"/>
</g>
<!-- Node7 -->
<g id="node7" class="node">
<title>Node7</title>
<g id="a_node7"><a xlink:href="reactor__op__ext_8hpp.html" target="_top" xlink:title=" ">
<polygon fill="white" stroke="black" points="728.5,-67.5 728.5,-97.5 849.5,-97.5 849.5,-67.5 728.5,-67.5"/>
<text text-anchor="start" x="736.5" y="-85.5" font-family="Helvetica" font-size="10.00">boost/asio/detail/reactor</text>
<text text-anchor="middle" x="789" y="-74.5" font-family="Helvetica" font-size="10.00">_op_ext.hpp</text>
</a>
</g>
</g>
<!-- Node1&#45;&gt;Node7 -->
<g id="edge6" class="edge">
<title>Node1&#45;&gt;Node7</title>
<path fill="none" stroke="midnightblue" d="M695.9,-134.4C714.89,-124.02 736.55,-112.18 754.19,-102.53"/>
<polygon fill="midnightblue" stroke="midnightblue" points="755.92,-105.57 763.02,-97.71 752.56,-99.43 755.92,-105.57"/>
</g>
<!-- Node9 -->
<g id="node9" class="node">
<title>Node9</title>
<g id="a_node9"><a xlink:href="socket__ops__ext_8hpp.html" target="_top" xlink:title=" ">
<polygon fill="white" stroke="black" points="867.5,-67.5 867.5,-97.5 986.5,-97.5 986.5,-67.5 867.5,-67.5"/>
<text text-anchor="start" x="875.5" y="-85.5" font-family="Helvetica" font-size="10.00">boost/asio/detail/socket</text>
<text text-anchor="middle" x="927" y="-74.5" font-family="Helvetica" font-size="10.00">_ops_ext.hpp</text>
</a>
</g>
</g>
<!-- Node1&#45;&gt;Node9 -->
<g id="edge8" class="edge">
<title>Node1&#45;&gt;Node9</title>
<path fill="none" stroke="midnightblue" d="M732.36,-136.9C775.29,-125.12 826.88,-110.97 866.16,-100.19"/>
<polygon fill="midnightblue" stroke="midnightblue" points="867.15,-103.55 875.87,-97.53 865.3,-96.8 867.15,-103.55"/>
</g>
<!-- Node11 -->
<g id="node11" class="node">
<title>Node11</title>
<g id="a_node11"><a xlink:title=" ">
<polygon fill="white" stroke="#bfbfbf" points="1005,-67.5 1005,-97.5 1117,-97.5 1117,-67.5 1005,-67.5"/>
<text text-anchor="start" x="1013" y="-85.5" font-family="Helvetica" font-size="10.00">boost/asio/detail/push</text>
<text text-anchor="middle" x="1061" y="-74.5" font-family="Helvetica" font-size="10.00">_options.hpp</text>
</a>
</g>
</g>
<!-- Node1&#45;&gt;Node11 -->
<g id="edge10" class="edge">
<title>Node1&#45;&gt;Node11</title>
<path fill="none" stroke="midnightblue" d="M732.33,-145.9C800.22,-134.45 899.28,-117.2 994.83,-98.19"/>
<polygon fill="midnightblue" stroke="midnightblue" points="995.54,-101.62 1004.66,-96.23 994.17,-94.75 995.54,-101.62"/>
</g>
<!-- Node12 -->
<g id="node12" class="node">
<title>Node12</title>
<g id="a_node12"><a xlink:title=" ">
<polygon fill="white" stroke="#bfbfbf" points="1135.5,-67.5 1135.5,-97.5 1242.5,-97.5 1242.5,-67.5 1135.5,-67.5"/>
<text text-anchor="start" x="1143.5" y="-85.5" font-family="Helvetica" font-size="10.00">boost/asio/detail/pop</text>
<text text-anchor="middle" x="1189" y="-74.5" font-family="Helvetica" font-size="10.00">_options.hpp</text>
</a>
</g>
</g>
<!-- Node1&#45;&gt;Node12 -->
<g id="edge11" class="edge">
<title>Node1&#45;&gt;Node12</title>
<path fill="none" stroke="midnightblue" d="M732.07,-151.36C825.1,-141.58 981.4,-123.46 1125.54,-97.97"/>
<polygon fill="midnightblue" stroke="midnightblue" points="1126.23,-101.4 1135.46,-96.2 1125,-94.51 1126.23,-101.4"/>
</g>
<!-- Node8 -->
<g id="node8" class="node">
<title>Node8</title>
<g id="a_node8"><a xlink:title=" ">
<polygon fill="white" stroke="#bfbfbf" points="728.5,-0.5 728.5,-30.5 849.5,-30.5 849.5,-0.5 728.5,-0.5"/>
<text text-anchor="start" x="736.5" y="-18.5" font-family="Helvetica" font-size="10.00">boost/asio/detail/reactor</text>
<text text-anchor="middle" x="789" y="-7.5" font-family="Helvetica" font-size="10.00">_op.hpp</text>
</a>
</g>
</g>
<!-- Node7&#45;&gt;Node8 -->
<g id="edge7" class="edge">
<title>Node7&#45;&gt;Node8</title>
<path fill="none" stroke="midnightblue" d="M789,-67.4C789,-59.64 789,-49.81 789,-40.86"/>
<polygon fill="midnightblue" stroke="midnightblue" points="792.5,-40.58 789,-30.58 785.5,-40.58 792.5,-40.58"/>
</g>
<!-- Node10 -->
<g id="node10" class="node">
<title>Node10</title>
<g id="a_node10"><a xlink:title=" ">
<polygon fill="white" stroke="#bfbfbf" points="867.5,-0.5 867.5,-30.5 986.5,-30.5 986.5,-0.5 867.5,-0.5"/>
<text text-anchor="start" x="875.5" y="-18.5" font-family="Helvetica" font-size="10.00">boost/asio/detail/socket</text>
<text text-anchor="middle" x="927" y="-7.5" font-family="Helvetica" font-size="10.00">_ops.hpp</text>
</a>
</g>
</g>
<!-- Node9&#45;&gt;Node10 -->
<g id="edge9" class="edge">
<title>Node9&#45;&gt;Node10</title>
<path fill="none" stroke="midnightblue" d="M927,-67.4C927,-59.64 927,-49.81 927,-40.86"/>
<polygon fill="midnightblue" stroke="midnightblue" points="930.5,-40.58 927,-30.58 923.5,-40.58 930.5,-40.58"/>
</g>
</g>
</svg>
