<?xml version="1.0" encoding="UTF-8" standalone="no"?>
<!DOCTYPE svg PUBLIC "-//W3C//DTD SVG 1.1//EN"
 "http://www.w3.org/Graphics/SVG/1.1/DTD/svg11.dtd">
<!-- Generated by graphviz version 2.44.0 (0)
 -->
<!-- Title: /home/ec2&#45;user/workspace/vsomeip/implementation/protocol/include/send_command.hpp Pages: 1 -->
<svg width="350pt" height="218pt"
 viewBox="0.00 0.00 350.00 218.00" xmlns="http://www.w3.org/2000/svg" xmlns:xlink="http://www.w3.org/1999/xlink">
<g id="graph0" class="graph" transform="scale(1 1) rotate(0) translate(4 214)">
<title>/home/ec2&#45;user/workspace/vsomeip/implementation/protocol/include/send_command.hpp</title>
<polygon fill="white" stroke="transparent" points="-4,4 -4,-214 346,-214 346,4 -4,4"/>
<!-- Node1 -->
<g id="node1" class="node">
<title>Node1</title>
<g id="a_node1"><a xlink:title=" ">
<polygon fill="#bfbfbf" stroke="black" points="21.5,-168.5 21.5,-209.5 200.5,-209.5 200.5,-168.5 21.5,-168.5"/>
<text text-anchor="start" x="29.5" y="-197.5" font-family="Helvetica" font-size="10.00">/home/ec2&#45;user/workspace</text>
<text text-anchor="start" x="29.5" y="-186.5" font-family="Helvetica" font-size="10.00">/vsomeip/implementation</text>
<text text-anchor="middle" x="111" y="-175.5" font-family="Helvetica" font-size="10.00">/protocol/include/send_command.hpp</text>
</a>
</g>
</g>
<!-- Node2 -->
<g id="node2" class="node">
<title>Node2</title>
<g id="a_node2"><a xlink:href="command_8hpp.html" target="_top" xlink:title=" ">
<polygon fill="white" stroke="black" points="72,-112.5 72,-131.5 150,-131.5 150,-112.5 72,-112.5"/>
<text text-anchor="middle" x="111" y="-119.5" font-family="Helvetica" font-size="10.00">command.hpp</text>
</a>
</g>
</g>
<!-- Node1&#45;&gt;Node2 -->
<g id="edge1" class="edge">
<title>Node1&#45;&gt;Node2</title>
<path fill="none" stroke="midnightblue" d="M111,-168.5C111,-160.07 111,-150.24 111,-141.87"/>
<polygon fill="midnightblue" stroke="midnightblue" points="114.5,-141.65 111,-131.65 107.5,-141.65 114.5,-141.65"/>
</g>
<!-- Node3 -->
<g id="node3" class="node">
<title>Node3</title>
<g id="a_node3"><a xlink:title=" ">
<polygon fill="white" stroke="#bfbfbf" points="0,-56.5 0,-75.5 46,-75.5 46,-56.5 0,-56.5"/>
<text text-anchor="middle" x="23" y="-63.5" font-family="Helvetica" font-size="10.00">cstring</text>
</a>
</g>
</g>
<!-- Node2&#45;&gt;Node3 -->
<g id="edge2" class="edge">
<title>Node2&#45;&gt;Node3</title>
<path fill="none" stroke="midnightblue" d="M96.86,-112.32C83.13,-103.9 62.06,-90.97 45.94,-81.07"/>
<polygon fill="midnightblue" stroke="midnightblue" points="47.46,-77.9 37.1,-75.65 43.8,-83.87 47.46,-77.9"/>
</g>
<!-- Node4 -->
<g id="node4" class="node">
<title>Node4</title>
<g id="a_node4"><a xlink:title=" ">
<polygon fill="white" stroke="#bfbfbf" points="64.5,-56.5 64.5,-75.5 107.5,-75.5 107.5,-56.5 64.5,-56.5"/>
<text text-anchor="middle" x="86" y="-63.5" font-family="Helvetica" font-size="10.00">vector</text>
</a>
</g>
</g>
<!-- Node2&#45;&gt;Node4 -->
<g id="edge3" class="edge">
<title>Node2&#45;&gt;Node4</title>
<path fill="none" stroke="midnightblue" d="M106.87,-112.08C103.49,-104.77 98.58,-94.18 94.38,-85.1"/>
<polygon fill="midnightblue" stroke="midnightblue" points="97.43,-83.36 90.05,-75.75 91.08,-86.3 97.43,-83.36"/>
</g>
<!-- Node5 -->
<g id="node5" class="node">
<title>Node5</title>
<g id="a_node5"><a xlink:title=" ">
<polygon fill="white" stroke="#bfbfbf" points="66,-0.5 66,-19.5 206,-19.5 206,-0.5 66,-0.5"/>
<text text-anchor="middle" x="136" y="-7.5" font-family="Helvetica" font-size="10.00">vsomeip/primitive_types.hpp</text>
</a>
</g>
</g>
<!-- Node2&#45;&gt;Node5 -->
<g id="edge4" class="edge">
<title>Node2&#45;&gt;Node5</title>
<path fill="none" stroke="midnightblue" d="M112.96,-112.37C117,-94.62 126.3,-53.67 131.77,-29.6"/>
<polygon fill="midnightblue" stroke="midnightblue" points="135.24,-30.12 134.05,-19.59 128.42,-28.57 135.24,-30.12"/>
</g>
<!-- Node6 -->
<g id="node6" class="node">
<title>Node6</title>
<g id="a_node6"><a xlink:href="protocol_8hpp.html" target="_top" xlink:title=" ">
<polygon fill="white" stroke="black" points="164,-56.5 164,-75.5 234,-75.5 234,-56.5 164,-56.5"/>
<text text-anchor="middle" x="199" y="-63.5" font-family="Helvetica" font-size="10.00">protocol.hpp</text>
</a>
</g>
</g>
<!-- Node2&#45;&gt;Node6 -->
<g id="edge5" class="edge">
<title>Node2&#45;&gt;Node6</title>
<path fill="none" stroke="midnightblue" d="M125.14,-112.32C138.87,-103.9 159.94,-90.97 176.06,-81.07"/>
<polygon fill="midnightblue" stroke="midnightblue" points="178.2,-83.87 184.9,-75.65 174.54,-77.9 178.2,-83.87"/>
</g>
<!-- Node6&#45;&gt;Node5 -->
<g id="edge7" class="edge">
<title>Node6&#45;&gt;Node5</title>
<path fill="none" stroke="midnightblue" d="M188.88,-56.32C179.47,-48.26 165.26,-36.08 153.93,-26.37"/>
<polygon fill="midnightblue" stroke="midnightblue" points="156.18,-23.68 146.31,-19.83 151.62,-29 156.18,-23.68"/>
</g>
<!-- Node7 -->
<g id="node7" class="node">
<title>Node7</title>
<g id="a_node7"><a xlink:title=" ">
<polygon fill="white" stroke="#bfbfbf" points="224,-0.5 224,-19.5 342,-19.5 342,-0.5 224,-0.5"/>
<text text-anchor="middle" x="283" y="-7.5" font-family="Helvetica" font-size="10.00">vsomeip/constants.hpp</text>
</a>
</g>
</g>
<!-- Node6&#45;&gt;Node7 -->
<g id="edge6" class="edge">
<title>Node6&#45;&gt;Node7</title>
<path fill="none" stroke="midnightblue" d="M212.5,-56.32C225.6,-47.9 245.71,-34.97 261.11,-25.07"/>
<polygon fill="midnightblue" stroke="midnightblue" points="263.02,-28.01 269.54,-19.65 259.23,-22.12 263.02,-28.01"/>
</g>
</g>
</svg>
