<?xml version="1.0" encoding="UTF-8" standalone="no"?>
<!DOCTYPE svg PUBLIC "-//W3C//DTD SVG 1.1//EN"
 "http://www.w3.org/Graphics/SVG/1.1/DTD/svg11.dtd">
<!-- Generated by graphviz version 2.44.0 (0)
 -->
<!-- Title: /home/ec2&#45;user/workspace/vsomeip/implementation/message/include/serializer.hpp Pages: 1 -->
<svg width="3386pt" height="317pt"
 viewBox="0.00 0.00 3386.00 317.00" xmlns="http://www.w3.org/2000/svg" xmlns:xlink="http://www.w3.org/1999/xlink">
<g id="graph0" class="graph" transform="scale(1 1) rotate(0) translate(4 313)">
<title>/home/ec2&#45;user/workspace/vsomeip/implementation/message/include/serializer.hpp</title>
<polygon fill="white" stroke="transparent" points="-4,4 -4,-313 3382,-313 3382,4 -4,4"/>
<!-- Node1 -->
<g id="node1" class="node">
<title>Node1</title>
<g id="a_node1"><a xlink:title=" ">
<polygon fill="#bfbfbf" stroke="black" points="1625,-267.5 1625,-308.5 1778,-308.5 1778,-267.5 1625,-267.5"/>
<text text-anchor="start" x="1633" y="-296.5" font-family="Helvetica" font-size="10.00">/home/ec2&#45;user/workspace</text>
<text text-anchor="start" x="1633" y="-285.5" font-family="Helvetica" font-size="10.00">/vsomeip/implementation</text>
<text text-anchor="middle" x="1701.5" y="-274.5" font-family="Helvetica" font-size="10.00">/message/include/serializer.hpp</text>
</a>
</g>
</g>
<!-- Node2 -->
<g id="node2" class="node">
<title>Node2</title>
<g id="a_node2"><a xlink:href="message__header__impl_8cpp.html" target="_top" xlink:title=" ">
<polygon fill="white" stroke="black" points="0,-178.5 0,-230.5 153,-230.5 153,-178.5 0,-178.5"/>
<text text-anchor="start" x="8" y="-218.5" font-family="Helvetica" font-size="10.00">/home/ec2&#45;user/workspace</text>
<text text-anchor="start" x="8" y="-207.5" font-family="Helvetica" font-size="10.00">/vsomeip/implementation</text>
<text text-anchor="start" x="8" y="-196.5" font-family="Helvetica" font-size="10.00">/message/src/message_header</text>
<text text-anchor="middle" x="76.5" y="-185.5" font-family="Helvetica" font-size="10.00">_impl.cpp</text>
</a>
</g>
</g>
<!-- Node1&#45;&gt;Node2 -->
<g id="edge1" class="edge">
<title>Node1&#45;&gt;Node2</title>
<path fill="none" stroke="midnightblue" d="M1614.45,-286.75C1332.2,-285.48 444.23,-277.76 161.5,-231 158.76,-230.55 155.99,-230.03 153.2,-229.47"/>
<polygon fill="midnightblue" stroke="midnightblue" points="1614.62,-290.25 1624.64,-286.79 1614.65,-283.25 1614.62,-290.25"/>
</g>
<!-- Node3 -->
<g id="node3" class="node">
<title>Node3</title>
<g id="a_node3"><a xlink:href="message_2src_2payload__impl_8cpp.html" target="_top" xlink:title=" ">
<polygon fill="white" stroke="black" points="171,-184 171,-225 326,-225 326,-184 171,-184"/>
<text text-anchor="start" x="179" y="-213" font-family="Helvetica" font-size="10.00">/home/ec2&#45;user/workspace</text>
<text text-anchor="start" x="179" y="-202" font-family="Helvetica" font-size="10.00">/vsomeip/implementation</text>
<text text-anchor="middle" x="248.5" y="-191" font-family="Helvetica" font-size="10.00">/message/src/payload_impl.cpp</text>
</a>
</g>
</g>
<!-- Node1&#45;&gt;Node3 -->
<g id="edge2" class="edge">
<title>Node1&#45;&gt;Node3</title>
<path fill="none" stroke="midnightblue" d="M1614.65,-286.21C1354.34,-283.39 583.23,-271.75 335.5,-231 326.49,-229.52 317.1,-227.4 307.96,-225.01"/>
<polygon fill="midnightblue" stroke="midnightblue" points="1614.78,-289.71 1624.81,-286.32 1614.85,-282.71 1614.78,-289.71"/>
</g>
<!-- Node4 -->
<g id="node4" class="node">
<title>Node4</title>
<g id="a_node4"><a xlink:href="serializer_8cpp.html" target="_top" xlink:title=" ">
<polygon fill="white" stroke="black" points="344.5,-184 344.5,-225 480.5,-225 480.5,-184 344.5,-184"/>
<text text-anchor="start" x="352.5" y="-213" font-family="Helvetica" font-size="10.00">/home/ec2&#45;user/workspace</text>
<text text-anchor="start" x="352.5" y="-202" font-family="Helvetica" font-size="10.00">/vsomeip/implementation</text>
<text text-anchor="middle" x="412.5" y="-191" font-family="Helvetica" font-size="10.00">/message/src/serializer.cpp</text>
</a>
</g>
</g>
<!-- Node1&#45;&gt;Node4 -->
<g id="edge3" class="edge">
<title>Node1&#45;&gt;Node4</title>
<path fill="none" stroke="midnightblue" d="M1614.95,-285.85C1375.89,-282.21 710.02,-268.87 494.5,-231 486.13,-229.53 477.42,-227.45 468.94,-225.1"/>
<polygon fill="midnightblue" stroke="midnightblue" points="1614.93,-289.35 1624.98,-286 1615.03,-282.35 1614.93,-289.35"/>
</g>
<!-- Node5 -->
<g id="node5" class="node">
<title>Node5</title>
<g id="a_node5"><a xlink:href="routing__manager__base_8hpp.html" target="_top" xlink:title=" ">
<polygon fill="white" stroke="black" points="710.5,-178.5 710.5,-230.5 844.5,-230.5 844.5,-178.5 710.5,-178.5"/>
<text text-anchor="start" x="718.5" y="-218.5" font-family="Helvetica" font-size="10.00">/home/ec2&#45;user/workspace</text>
<text text-anchor="start" x="718.5" y="-207.5" font-family="Helvetica" font-size="10.00">/vsomeip/implementation</text>
<text text-anchor="start" x="718.5" y="-196.5" font-family="Helvetica" font-size="10.00">/routing/include/routing</text>
<text text-anchor="middle" x="777.5" y="-185.5" font-family="Helvetica" font-size="10.00">_manager_base.hpp</text>
</a>
</g>
</g>
<!-- Node1&#45;&gt;Node5 -->
<g id="edge4" class="edge">
<title>Node1&#45;&gt;Node5</title>
<path fill="none" stroke="midnightblue" d="M1614.58,-279.33C1431.42,-263.18 1009.18,-225.93 844.75,-211.43"/>
<polygon fill="midnightblue" stroke="midnightblue" points="1614.44,-282.83 1624.7,-280.23 1615.05,-275.86 1614.44,-282.83"/>
</g>
<!-- Node9 -->
<g id="node9" class="node">
<title>Node9</title>
<g id="a_node9"><a xlink:href="routing__manager__client_8cpp.html" target="_top" xlink:title=" ">
<polygon fill="white" stroke="black" points="408.5,-0.5 408.5,-52.5 548.5,-52.5 548.5,-0.5 408.5,-0.5"/>
<text text-anchor="start" x="416.5" y="-40.5" font-family="Helvetica" font-size="10.00">/home/ec2&#45;user/workspace</text>
<text text-anchor="start" x="416.5" y="-29.5" font-family="Helvetica" font-size="10.00">/vsomeip/implementation</text>
<text text-anchor="start" x="416.5" y="-18.5" font-family="Helvetica" font-size="10.00">/routing/src/routing_manager</text>
<text text-anchor="middle" x="478.5" y="-7.5" font-family="Helvetica" font-size="10.00">_client.cpp</text>
</a>
</g>
</g>
<!-- Node1&#45;&gt;Node9 -->
<g id="edge15" class="edge">
<title>Node1&#45;&gt;Node9</title>
<path fill="none" stroke="midnightblue" d="M1614.64,-285.03C1404.93,-279.82 875.41,-263.74 701.5,-231 670.25,-225.12 448.16,-167.75 429.5,-142 409.45,-114.34 432.81,-77.21 453.64,-52.83"/>
<polygon fill="midnightblue" stroke="midnightblue" points="1614.6,-288.53 1624.69,-285.28 1614.78,-281.54 1614.6,-288.53"/>
</g>
<!-- Node10 -->
<g id="node10" class="node">
<title>Node10</title>
<g id="a_node10"><a xlink:href="runtime_2src_2application__impl_8cpp.html" target="_top" xlink:title=" ">
<polygon fill="white" stroke="black" points="786.5,-0.5 786.5,-52.5 920.5,-52.5 920.5,-0.5 786.5,-0.5"/>
<text text-anchor="start" x="794.5" y="-40.5" font-family="Helvetica" font-size="10.00">/home/ec2&#45;user/workspace</text>
<text text-anchor="start" x="794.5" y="-29.5" font-family="Helvetica" font-size="10.00">/vsomeip/implementation</text>
<text text-anchor="start" x="794.5" y="-18.5" font-family="Helvetica" font-size="10.00">/runtime/src/application</text>
<text text-anchor="middle" x="853.5" y="-7.5" font-family="Helvetica" font-size="10.00">_impl.cpp</text>
</a>
</g>
</g>
<!-- Node1&#45;&gt;Node10 -->
<g id="edge17" class="edge">
<title>Node1&#45;&gt;Node10</title>
<path fill="none" stroke="midnightblue" d="M1614.62,-283.88C1462.51,-277.65 1160.53,-261.56 1123.5,-231 1072.74,-189.11 1128.59,-134.97 1081.5,-89 1058.69,-66.73 979.47,-48.83 920.78,-38.2"/>
<polygon fill="midnightblue" stroke="midnightblue" points="1614.73,-287.39 1624.86,-284.29 1615.01,-280.39 1614.73,-287.39"/>
</g>
<!-- Node12 -->
<g id="node12" class="node">
<title>Node12</title>
<g id="a_node12"><a xlink:href="routing__manager__impl_8cpp.html" target="_top" xlink:title=" ">
<polygon fill="white" stroke="black" points="1003.5,-0.5 1003.5,-52.5 1143.5,-52.5 1143.5,-0.5 1003.5,-0.5"/>
<text text-anchor="start" x="1011.5" y="-40.5" font-family="Helvetica" font-size="10.00">/home/ec2&#45;user/workspace</text>
<text text-anchor="start" x="1011.5" y="-29.5" font-family="Helvetica" font-size="10.00">/vsomeip/implementation</text>
<text text-anchor="start" x="1011.5" y="-18.5" font-family="Helvetica" font-size="10.00">/routing/src/routing_manager</text>
<text text-anchor="middle" x="1073.5" y="-7.5" font-family="Helvetica" font-size="10.00">_impl.cpp</text>
</a>
</g>
</g>
<!-- Node1&#45;&gt;Node12 -->
<g id="edge16" class="edge">
<title>Node1&#45;&gt;Node12</title>
<path fill="none" stroke="midnightblue" d="M1614.57,-283.28C1469.86,-276.33 1191.97,-259.43 1157.5,-231 1106.63,-189.04 1142.65,-148.63 1114.5,-89 1108.53,-76.35 1100.21,-63.32 1092.62,-52.53"/>
<polygon fill="midnightblue" stroke="midnightblue" points="1614.59,-286.79 1624.75,-283.76 1614.93,-279.79 1614.59,-286.79"/>
</g>
<!-- Node14 -->
<g id="node14" class="node">
<title>Node14</title>
<g id="a_node14"><a xlink:href="configuration__option__impl_8cpp.html" target="_top" xlink:title=" ">
<polygon fill="white" stroke="black" points="1166.5,-178.5 1166.5,-230.5 1340.5,-230.5 1340.5,-178.5 1166.5,-178.5"/>
<text text-anchor="start" x="1174.5" y="-218.5" font-family="Helvetica" font-size="10.00">/home/ec2&#45;user/workspace</text>
<text text-anchor="start" x="1174.5" y="-207.5" font-family="Helvetica" font-size="10.00">/vsomeip/implementation</text>
<text text-anchor="start" x="1174.5" y="-196.5" font-family="Helvetica" font-size="10.00">/service_discovery/src/configuration</text>
<text text-anchor="middle" x="1253.5" y="-185.5" font-family="Helvetica" font-size="10.00">_option_impl.cpp</text>
</a>
</g>
</g>
<!-- Node1&#45;&gt;Node14 -->
<g id="edge18" class="edge">
<title>Node1&#45;&gt;Node14</title>
<path fill="none" stroke="midnightblue" d="M1614.47,-275.56C1543.18,-265.6 1439.85,-249.82 1350.5,-231 1347.26,-230.32 1343.97,-229.6 1340.65,-228.85"/>
<polygon fill="midnightblue" stroke="midnightblue" points="1614.37,-279.08 1624.76,-276.98 1615.33,-272.14 1614.37,-279.08"/>
</g>
<!-- Node15 -->
<g id="node15" class="node">
<title>Node15</title>
<g id="a_node15"><a xlink:href="entry__impl_8cpp.html" target="_top" xlink:title=" ">
<polygon fill="white" stroke="black" points="1359,-178.5 1359,-230.5 1500,-230.5 1500,-178.5 1359,-178.5"/>
<text text-anchor="start" x="1367" y="-218.5" font-family="Helvetica" font-size="10.00">/home/ec2&#45;user/workspace</text>
<text text-anchor="start" x="1367" y="-207.5" font-family="Helvetica" font-size="10.00">/vsomeip/implementation</text>
<text text-anchor="start" x="1367" y="-196.5" font-family="Helvetica" font-size="10.00">/service_discovery/src/entry</text>
<text text-anchor="middle" x="1429.5" y="-185.5" font-family="Helvetica" font-size="10.00">_impl.cpp</text>
</a>
</g>
</g>
<!-- Node1&#45;&gt;Node15 -->
<g id="edge19" class="edge">
<title>Node1&#45;&gt;Node15</title>
<path fill="none" stroke="midnightblue" d="M1623.3,-264.67C1588.41,-254.58 1546.84,-242.39 1509.5,-231 1506.43,-230.06 1503.3,-229.1 1500.14,-228.12"/>
<polygon fill="midnightblue" stroke="midnightblue" points="1622.38,-268.04 1632.95,-267.45 1624.32,-261.32 1622.38,-268.04"/>
</g>
<!-- Node16 -->
<g id="node16" class="node">
<title>Node16</title>
<g id="a_node16"><a xlink:href="eventgroupentry__impl_8cpp.html" target="_top" xlink:title=" ">
<polygon fill="white" stroke="black" points="1518.5,-178.5 1518.5,-230.5 1706.5,-230.5 1706.5,-178.5 1518.5,-178.5"/>
<text text-anchor="start" x="1526.5" y="-218.5" font-family="Helvetica" font-size="10.00">/home/ec2&#45;user/workspace</text>
<text text-anchor="start" x="1526.5" y="-207.5" font-family="Helvetica" font-size="10.00">/vsomeip/implementation</text>
<text text-anchor="start" x="1526.5" y="-196.5" font-family="Helvetica" font-size="10.00">/service_discovery/src/eventgroupentry</text>
<text text-anchor="middle" x="1612.5" y="-185.5" font-family="Helvetica" font-size="10.00">_impl.cpp</text>
</a>
</g>
</g>
<!-- Node1&#45;&gt;Node16 -->
<g id="edge20" class="edge">
<title>Node1&#45;&gt;Node16</title>
<path fill="none" stroke="midnightblue" d="M1672.28,-260.24C1661.87,-250.71 1650.18,-240 1639.92,-230.61"/>
<polygon fill="midnightblue" stroke="midnightblue" points="1670.22,-263.1 1679.96,-267.27 1674.94,-257.94 1670.22,-263.1"/>
</g>
<!-- Node17 -->
<g id="node17" class="node">
<title>Node17</title>
<g id="a_node17"><a xlink:href="ip__option__impl_8cpp.html" target="_top" xlink:title=" ">
<polygon fill="white" stroke="black" points="1724.5,-178.5 1724.5,-230.5 1858.5,-230.5 1858.5,-178.5 1724.5,-178.5"/>
<text text-anchor="start" x="1732.5" y="-218.5" font-family="Helvetica" font-size="10.00">/home/ec2&#45;user/workspace</text>
<text text-anchor="start" x="1732.5" y="-207.5" font-family="Helvetica" font-size="10.00">/vsomeip/implementation</text>
<text text-anchor="start" x="1732.5" y="-196.5" font-family="Helvetica" font-size="10.00">/service_discovery/src/ip</text>
<text text-anchor="middle" x="1791.5" y="-185.5" font-family="Helvetica" font-size="10.00">_option_impl.cpp</text>
</a>
</g>
</g>
<!-- Node1&#45;&gt;Node17 -->
<g id="edge21" class="edge">
<title>Node1&#45;&gt;Node17</title>
<path fill="none" stroke="midnightblue" d="M1730.74,-260.52C1741.35,-250.92 1753.3,-240.09 1763.77,-230.61"/>
<polygon fill="midnightblue" stroke="midnightblue" points="1728.35,-257.96 1723.29,-267.27 1733.05,-263.15 1728.35,-257.96"/>
</g>
<!-- Node18 -->
<g id="node18" class="node">
<title>Node18</title>
<g id="a_node18"><a xlink:href="ipv4__option__impl_8cpp.html" target="_top" xlink:title=" ">
<polygon fill="white" stroke="black" points="1877,-178.5 1877,-230.5 2014,-230.5 2014,-178.5 1877,-178.5"/>
<text text-anchor="start" x="1885" y="-218.5" font-family="Helvetica" font-size="10.00">/home/ec2&#45;user/workspace</text>
<text text-anchor="start" x="1885" y="-207.5" font-family="Helvetica" font-size="10.00">/vsomeip/implementation</text>
<text text-anchor="start" x="1885" y="-196.5" font-family="Helvetica" font-size="10.00">/service_discovery/src/ipv4</text>
<text text-anchor="middle" x="1945.5" y="-185.5" font-family="Helvetica" font-size="10.00">_option_impl.cpp</text>
</a>
</g>
</g>
<!-- Node1&#45;&gt;Node18 -->
<g id="edge22" class="edge">
<title>Node1&#45;&gt;Node18</title>
<path fill="none" stroke="midnightblue" d="M1769.63,-264.24C1803.04,-253.08 1843.2,-239.67 1876.71,-228.48"/>
<polygon fill="midnightblue" stroke="midnightblue" points="1768.32,-260.99 1759.94,-267.48 1770.54,-267.63 1768.32,-260.99"/>
</g>
<!-- Node19 -->
<g id="node19" class="node">
<title>Node19</title>
<g id="a_node19"><a xlink:href="ipv6__option__impl_8cpp.html" target="_top" xlink:title=" ">
<polygon fill="white" stroke="black" points="2032,-178.5 2032,-230.5 2169,-230.5 2169,-178.5 2032,-178.5"/>
<text text-anchor="start" x="2040" y="-218.5" font-family="Helvetica" font-size="10.00">/home/ec2&#45;user/workspace</text>
<text text-anchor="start" x="2040" y="-207.5" font-family="Helvetica" font-size="10.00">/vsomeip/implementation</text>
<text text-anchor="start" x="2040" y="-196.5" font-family="Helvetica" font-size="10.00">/service_discovery/src/ipv6</text>
<text text-anchor="middle" x="2100.5" y="-185.5" font-family="Helvetica" font-size="10.00">_option_impl.cpp</text>
</a>
</g>
</g>
<!-- Node1&#45;&gt;Node19 -->
<g id="edge23" class="edge">
<title>Node1&#45;&gt;Node19</title>
<path fill="none" stroke="midnightblue" d="M1788.52,-275.42C1853.73,-265.89 1944.88,-250.74 2023.5,-231 2026.23,-230.31 2029.01,-229.58 2031.8,-228.81"/>
<polygon fill="midnightblue" stroke="midnightblue" points="1787.68,-272.01 1778.29,-276.9 1788.68,-278.93 1787.68,-272.01"/>
</g>
<!-- Node20 -->
<g id="node20" class="node">
<title>Node20</title>
<g id="a_node20"><a xlink:href="load__balancing__option__impl_8cpp.html" target="_top" xlink:title=" ">
<polygon fill="white" stroke="black" points="2187,-178.5 2187,-230.5 2324,-230.5 2324,-178.5 2187,-178.5"/>
<text text-anchor="start" x="2195" y="-218.5" font-family="Helvetica" font-size="10.00">/home/ec2&#45;user/workspace</text>
<text text-anchor="start" x="2195" y="-207.5" font-family="Helvetica" font-size="10.00">/vsomeip/implementation</text>
<text text-anchor="start" x="2195" y="-196.5" font-family="Helvetica" font-size="10.00">/service_discovery/src/load</text>
<text text-anchor="middle" x="2255.5" y="-185.5" font-family="Helvetica" font-size="10.00">_balancing_option_impl.cpp</text>
</a>
</g>
</g>
<!-- Node1&#45;&gt;Node20 -->
<g id="edge24" class="edge">
<title>Node1&#45;&gt;Node20</title>
<path fill="none" stroke="midnightblue" d="M1788.28,-282.12C1884.56,-275.48 2044.06,-260.83 2178.5,-231 2181.25,-230.39 2184.04,-229.72 2186.85,-229"/>
<polygon fill="midnightblue" stroke="midnightblue" points="1788.04,-278.63 1778.3,-282.79 1788.52,-285.61 1788.04,-278.63"/>
</g>
<!-- Node21 -->
<g id="node21" class="node">
<title>Node21</title>
<g id="a_node21"><a xlink:href="service__discovery_2src_2message__impl_8cpp.html" target="_top" xlink:title=" ">
<polygon fill="white" stroke="black" points="2342.5,-178.5 2342.5,-230.5 2500.5,-230.5 2500.5,-178.5 2342.5,-178.5"/>
<text text-anchor="start" x="2350.5" y="-218.5" font-family="Helvetica" font-size="10.00">/home/ec2&#45;user/workspace</text>
<text text-anchor="start" x="2350.5" y="-207.5" font-family="Helvetica" font-size="10.00">/vsomeip/implementation</text>
<text text-anchor="start" x="2350.5" y="-196.5" font-family="Helvetica" font-size="10.00">/service_discovery/src/message</text>
<text text-anchor="middle" x="2421.5" y="-185.5" font-family="Helvetica" font-size="10.00">_impl.cpp</text>
</a>
</g>
</g>
<!-- Node1&#45;&gt;Node21 -->
<g id="edge25" class="edge">
<title>Node1&#45;&gt;Node21</title>
<path fill="none" stroke="midnightblue" d="M1788.1,-284.63C1910.53,-280.08 2140.79,-267.11 2333.5,-231 2336.31,-230.47 2339.17,-229.89 2342.04,-229.27"/>
<polygon fill="midnightblue" stroke="midnightblue" points="1787.9,-281.13 1778.03,-284.99 1788.15,-288.13 1787.9,-281.13"/>
</g>
<!-- Node22 -->
<g id="node22" class="node">
<title>Node22</title>
<g id="a_node22"><a xlink:href="option__impl_8cpp.html" target="_top" xlink:title=" ">
<polygon fill="white" stroke="black" points="2519,-178.5 2519,-230.5 2664,-230.5 2664,-178.5 2519,-178.5"/>
<text text-anchor="start" x="2527" y="-218.5" font-family="Helvetica" font-size="10.00">/home/ec2&#45;user/workspace</text>
<text text-anchor="start" x="2527" y="-207.5" font-family="Helvetica" font-size="10.00">/vsomeip/implementation</text>
<text text-anchor="start" x="2527" y="-196.5" font-family="Helvetica" font-size="10.00">/service_discovery/src/option</text>
<text text-anchor="middle" x="2591.5" y="-185.5" font-family="Helvetica" font-size="10.00">_impl.cpp</text>
</a>
</g>
</g>
<!-- Node1&#45;&gt;Node22 -->
<g id="edge26" class="edge">
<title>Node1&#45;&gt;Node22</title>
<path fill="none" stroke="midnightblue" d="M1788.72,-287.55C1937.78,-287.03 2250.53,-279.56 2509.5,-231 2512.58,-230.42 2515.7,-229.77 2518.84,-229.05"/>
<polygon fill="midnightblue" stroke="midnightblue" points="1788.27,-284.05 1778.28,-287.58 1788.29,-291.05 1788.27,-284.05"/>
</g>
<!-- Node23 -->
<g id="node23" class="node">
<title>Node23</title>
<g id="a_node23"><a xlink:href="protection__option__impl_8cpp.html" target="_top" xlink:title=" ">
<polygon fill="white" stroke="black" points="2682,-178.5 2682,-230.5 2843,-230.5 2843,-178.5 2682,-178.5"/>
<text text-anchor="start" x="2690" y="-218.5" font-family="Helvetica" font-size="10.00">/home/ec2&#45;user/workspace</text>
<text text-anchor="start" x="2690" y="-207.5" font-family="Helvetica" font-size="10.00">/vsomeip/implementation</text>
<text text-anchor="start" x="2690" y="-196.5" font-family="Helvetica" font-size="10.00">/service_discovery/src/protection</text>
<text text-anchor="middle" x="2762.5" y="-185.5" font-family="Helvetica" font-size="10.00">_option_impl.cpp</text>
</a>
</g>
</g>
<!-- Node1&#45;&gt;Node23 -->
<g id="edge27" class="edge">
<title>Node1&#45;&gt;Node23</title>
<path fill="none" stroke="midnightblue" d="M1788.39,-284.46C1993.77,-278.06 2504.61,-259.7 2673.5,-231 2676.19,-230.54 2678.92,-230.03 2681.67,-229.48"/>
<polygon fill="midnightblue" stroke="midnightblue" points="1788.14,-280.97 1778.25,-284.77 1788.35,-287.96 1788.14,-280.97"/>
</g>
<!-- Node24 -->
<g id="node24" class="node">
<title>Node24</title>
<g id="a_node24"><a xlink:href="selective__option__impl_8cpp.html" target="_top" xlink:title=" ">
<polygon fill="white" stroke="black" points="2861,-178.5 2861,-230.5 3018,-230.5 3018,-178.5 2861,-178.5"/>
<text text-anchor="start" x="2869" y="-218.5" font-family="Helvetica" font-size="10.00">/home/ec2&#45;user/workspace</text>
<text text-anchor="start" x="2869" y="-207.5" font-family="Helvetica" font-size="10.00">/vsomeip/implementation</text>
<text text-anchor="start" x="2869" y="-196.5" font-family="Helvetica" font-size="10.00">/service_discovery/src/selective</text>
<text text-anchor="middle" x="2939.5" y="-185.5" font-family="Helvetica" font-size="10.00">_option_impl.cpp</text>
</a>
</g>
</g>
<!-- Node1&#45;&gt;Node24 -->
<g id="edge28" class="edge">
<title>Node1&#45;&gt;Node24</title>
<path fill="none" stroke="midnightblue" d="M1788.44,-285.43C2020.01,-280.82 2648.02,-265.44 2852.5,-231 2855.29,-230.53 2858.12,-230 2860.97,-229.42"/>
<polygon fill="midnightblue" stroke="midnightblue" points="1788.3,-281.93 1778.37,-285.63 1788.44,-288.93 1788.3,-281.93"/>
</g>
<!-- Node25 -->
<g id="node25" class="node">
<title>Node25</title>
<g id="a_node25"><a xlink:href="service__discovery__impl_8cpp.html" target="_top" xlink:title=" ">
<polygon fill="white" stroke="black" points="3036,-178.5 3036,-230.5 3187,-230.5 3187,-178.5 3036,-178.5"/>
<text text-anchor="start" x="3044" y="-218.5" font-family="Helvetica" font-size="10.00">/home/ec2&#45;user/workspace</text>
<text text-anchor="start" x="3044" y="-207.5" font-family="Helvetica" font-size="10.00">/vsomeip/implementation</text>
<text text-anchor="start" x="3044" y="-196.5" font-family="Helvetica" font-size="10.00">/service_discovery/src/service</text>
<text text-anchor="middle" x="3111.5" y="-185.5" font-family="Helvetica" font-size="10.00">_discovery_impl.cpp</text>
</a>
</g>
</g>
<!-- Node1&#45;&gt;Node25 -->
<g id="edge29" class="edge">
<title>Node1&#45;&gt;Node25</title>
<path fill="none" stroke="midnightblue" d="M1788.42,-286.19C2043.67,-283.35 2788.05,-271.73 3027.5,-231 3030.2,-230.54 3032.94,-230.02 3035.7,-229.45"/>
<polygon fill="midnightblue" stroke="midnightblue" points="1788.05,-282.69 1778.09,-286.3 1788.13,-289.69 1788.05,-282.69"/>
</g>
<!-- Node26 -->
<g id="node26" class="node">
<title>Node26</title>
<g id="a_node26"><a xlink:href="serviceentry__impl_8cpp.html" target="_top" xlink:title=" ">
<polygon fill="white" stroke="black" points="3205,-178.5 3205,-230.5 3378,-230.5 3378,-178.5 3205,-178.5"/>
<text text-anchor="start" x="3213" y="-218.5" font-family="Helvetica" font-size="10.00">/home/ec2&#45;user/workspace</text>
<text text-anchor="start" x="3213" y="-207.5" font-family="Helvetica" font-size="10.00">/vsomeip/implementation</text>
<text text-anchor="start" x="3213" y="-196.5" font-family="Helvetica" font-size="10.00">/service_discovery/src/serviceentry</text>
<text text-anchor="middle" x="3291.5" y="-185.5" font-family="Helvetica" font-size="10.00">_impl.cpp</text>
</a>
</g>
</g>
<!-- Node1&#45;&gt;Node26 -->
<g id="edge30" class="edge">
<title>Node1&#45;&gt;Node26</title>
<path fill="none" stroke="midnightblue" d="M1788.74,-286.3C2065.62,-283.69 2922.34,-272.39 3196.5,-231 3199.29,-230.58 3202.11,-230.11 3204.95,-229.59"/>
<polygon fill="midnightblue" stroke="midnightblue" points="1788.32,-282.81 1778.35,-286.4 1788.39,-289.81 1788.32,-282.81"/>
</g>
<!-- Node6 -->
<g id="node6" class="node">
<title>Node6</title>
<g id="a_node6"><a xlink:href="endpoint__manager__base_8cpp.html" target="_top" xlink:title=" ">
<polygon fill="white" stroke="black" points="938.5,-89.5 938.5,-141.5 1072.5,-141.5 1072.5,-89.5 938.5,-89.5"/>
<text text-anchor="start" x="946.5" y="-129.5" font-family="Helvetica" font-size="10.00">/home/ec2&#45;user/workspace</text>
<text text-anchor="start" x="946.5" y="-118.5" font-family="Helvetica" font-size="10.00">/vsomeip/implementation</text>
<text text-anchor="start" x="946.5" y="-107.5" font-family="Helvetica" font-size="10.00">/endpoints/src/endpoint</text>
<text text-anchor="middle" x="1005.5" y="-96.5" font-family="Helvetica" font-size="10.00">_manager_base.cpp</text>
</a>
</g>
</g>
<!-- Node5&#45;&gt;Node6 -->
<g id="edge5" class="edge">
<title>Node5&#45;&gt;Node6</title>
<path fill="none" stroke="midnightblue" d="M852.56,-174.86C880.79,-164.09 912.63,-151.94 939.93,-141.52"/>
<polygon fill="midnightblue" stroke="midnightblue" points="851.24,-171.62 843.14,-178.45 853.73,-178.16 851.24,-171.62"/>
</g>
<!-- Node7 -->
<g id="node7" class="node">
<title>Node7</title>
<g id="a_node7"><a xlink:href="endpoint__manager__impl_8cpp.html" target="_top" xlink:title=" ">
<polygon fill="white" stroke="black" points="586.5,-0.5 586.5,-52.5 720.5,-52.5 720.5,-0.5 586.5,-0.5"/>
<text text-anchor="start" x="594.5" y="-40.5" font-family="Helvetica" font-size="10.00">/home/ec2&#45;user/workspace</text>
<text text-anchor="start" x="594.5" y="-29.5" font-family="Helvetica" font-size="10.00">/vsomeip/implementation</text>
<text text-anchor="start" x="594.5" y="-18.5" font-family="Helvetica" font-size="10.00">/endpoints/src/endpoint</text>
<text text-anchor="middle" x="653.5" y="-7.5" font-family="Helvetica" font-size="10.00">_manager_impl.cpp</text>
</a>
</g>
</g>
<!-- Node5&#45;&gt;Node7 -->
<g id="edge6" class="edge">
<title>Node5&#45;&gt;Node7</title>
<path fill="none" stroke="midnightblue" d="M700.19,-190.89C671.82,-182.12 642.51,-167.23 625.5,-142 607.31,-115.02 622.52,-77.39 636.65,-52.74"/>
<polygon fill="midnightblue" stroke="midnightblue" points="699.58,-194.36 710.16,-193.75 701.51,-187.63 699.58,-194.36"/>
</g>
<!-- Node8 -->
<g id="node8" class="node">
<title>Node8</title>
<g id="a_node8"><a xlink:href="routing__manager__client_8hpp.html" target="_top" xlink:title=" ">
<polygon fill="white" stroke="black" points="634.5,-89.5 634.5,-141.5 768.5,-141.5 768.5,-89.5 634.5,-89.5"/>
<text text-anchor="start" x="642.5" y="-129.5" font-family="Helvetica" font-size="10.00">/home/ec2&#45;user/workspace</text>
<text text-anchor="start" x="642.5" y="-118.5" font-family="Helvetica" font-size="10.00">/vsomeip/implementation</text>
<text text-anchor="start" x="642.5" y="-107.5" font-family="Helvetica" font-size="10.00">/routing/include/routing</text>
<text text-anchor="middle" x="701.5" y="-96.5" font-family="Helvetica" font-size="10.00">_manager_client.hpp</text>
</a>
</g>
</g>
<!-- Node5&#45;&gt;Node8 -->
<g id="edge7" class="edge">
<title>Node5&#45;&gt;Node8</title>
<path fill="none" stroke="midnightblue" d="M748.93,-170.79C740.49,-161.13 731.38,-150.71 723.43,-141.61"/>
<polygon fill="midnightblue" stroke="midnightblue" points="746.3,-173.11 755.52,-178.34 751.57,-168.5 746.3,-173.11"/>
</g>
<!-- Node11 -->
<g id="node11" class="node">
<title>Node11</title>
<g id="a_node11"><a xlink:href="routing__manager__impl_8hpp.html" target="_top" xlink:title=" ">
<polygon fill="white" stroke="black" points="786.5,-89.5 786.5,-141.5 920.5,-141.5 920.5,-89.5 786.5,-89.5"/>
<text text-anchor="start" x="794.5" y="-129.5" font-family="Helvetica" font-size="10.00">/home/ec2&#45;user/workspace</text>
<text text-anchor="start" x="794.5" y="-118.5" font-family="Helvetica" font-size="10.00">/vsomeip/implementation</text>
<text text-anchor="start" x="794.5" y="-107.5" font-family="Helvetica" font-size="10.00">/routing/include/routing</text>
<text text-anchor="middle" x="853.5" y="-96.5" font-family="Helvetica" font-size="10.00">_manager_impl.hpp</text>
</a>
</g>
</g>
<!-- Node5&#45;&gt;Node11 -->
<g id="edge10" class="edge">
<title>Node5&#45;&gt;Node11</title>
<path fill="none" stroke="midnightblue" d="M806.07,-170.79C814.51,-161.13 823.62,-150.71 831.57,-141.61"/>
<polygon fill="midnightblue" stroke="midnightblue" points="803.43,-168.5 799.48,-178.34 808.7,-173.11 803.43,-168.5"/>
</g>
<!-- Node13 -->
<g id="node13" class="node">
<title>Node13</title>
<g id="a_node13"><a xlink:href="routing__manager__base_8cpp.html" target="_top" xlink:title=" ">
<polygon fill="white" stroke="black" points="438.5,-89.5 438.5,-141.5 578.5,-141.5 578.5,-89.5 438.5,-89.5"/>
<text text-anchor="start" x="446.5" y="-129.5" font-family="Helvetica" font-size="10.00">/home/ec2&#45;user/workspace</text>
<text text-anchor="start" x="446.5" y="-118.5" font-family="Helvetica" font-size="10.00">/vsomeip/implementation</text>
<text text-anchor="start" x="446.5" y="-107.5" font-family="Helvetica" font-size="10.00">/routing/src/routing_manager</text>
<text text-anchor="middle" x="508.5" y="-96.5" font-family="Helvetica" font-size="10.00">_base.cpp</text>
</a>
</g>
</g>
<!-- Node5&#45;&gt;Node13 -->
<g id="edge14" class="edge">
<title>Node5&#45;&gt;Node13</title>
<path fill="none" stroke="midnightblue" d="M700.72,-178.67C662.27,-166.23 616.06,-151.29 578.58,-139.17"/>
<polygon fill="midnightblue" stroke="midnightblue" points="699.72,-182.02 710.31,-181.77 701.88,-175.36 699.72,-182.02"/>
</g>
<!-- Node8&#45;&gt;Node9 -->
<g id="edge8" class="edge">
<title>Node8&#45;&gt;Node9</title>
<path fill="none" stroke="midnightblue" d="M627.72,-85.72C600.21,-74.98 569.21,-62.89 542.63,-52.52"/>
<polygon fill="midnightblue" stroke="midnightblue" points="626.71,-89.08 637.3,-89.45 629.25,-82.56 626.71,-89.08"/>
</g>
<!-- Node8&#45;&gt;Node10 -->
<g id="edge9" class="edge">
<title>Node8&#45;&gt;Node10</title>
<path fill="none" stroke="midnightblue" d="M754.17,-84.35C772.27,-74 792.31,-62.52 809.63,-52.61"/>
<polygon fill="midnightblue" stroke="midnightblue" points="752.4,-81.33 745.46,-89.34 755.88,-87.41 752.4,-81.33"/>
</g>
<!-- Node11&#45;&gt;Node7 -->
<g id="edge11" class="edge">
<title>Node11&#45;&gt;Node7</title>
<path fill="none" stroke="midnightblue" d="M786.69,-85.44C762.17,-74.77 734.65,-62.8 711.02,-52.52"/>
<polygon fill="midnightblue" stroke="midnightblue" points="785.35,-88.67 795.92,-89.45 788.15,-82.25 785.35,-88.67"/>
</g>
<!-- Node11&#45;&gt;Node10 -->
<g id="edge13" class="edge">
<title>Node11&#45;&gt;Node10</title>
<path fill="none" stroke="midnightblue" d="M853.5,-79.19C853.5,-70.28 853.5,-60.9 853.5,-52.61"/>
<polygon fill="midnightblue" stroke="midnightblue" points="850,-79.34 853.5,-89.34 857,-79.34 850,-79.34"/>
</g>
<!-- Node11&#45;&gt;Node12 -->
<g id="edge12" class="edge">
<title>Node11&#45;&gt;Node12</title>
<path fill="none" stroke="midnightblue" d="M926.28,-85.72C953.43,-74.98 984.01,-62.89 1010.23,-52.52"/>
<polygon fill="midnightblue" stroke="midnightblue" points="924.85,-82.52 916.84,-89.45 927.42,-89.03 924.85,-82.52"/>
</g>
</g>
</svg>
