<?xml version="1.0" encoding="UTF-8" standalone="no"?>
<!DOCTYPE svg PUBLIC "-//W3C//DTD SVG 1.1//EN"
 "http://www.w3.org/Graphics/SVG/1.1/DTD/svg11.dtd">
<!-- Generated by graphviz version 2.44.0 (0)
 -->
<!-- Title: /home/ec2&#45;user/workspace/vsomeip/implementation/service_discovery/src/deserializer.cpp Pages: 1 -->
<svg width="1166pt" height="307pt"
 viewBox="0.00 0.00 1166.00 307.00" xmlns="http://www.w3.org/2000/svg" xmlns:xlink="http://www.w3.org/1999/xlink">
<g id="graph0" class="graph" transform="scale(1 1) rotate(0) translate(4 303)">
<title>/home/ec2&#45;user/workspace/vsomeip/implementation/service_discovery/src/deserializer.cpp</title>
<polygon fill="white" stroke="transparent" points="-4,4 -4,-303 1162,-303 1162,4 -4,4"/>
<!-- Node1 -->
<g id="node1" class="node">
<title>Node1</title>
<g id="a_node1"><a xlink:title=" ">
<polygon fill="#bfbfbf" stroke="black" points="125,-257.5 125,-298.5 311,-298.5 311,-257.5 125,-257.5"/>
<text text-anchor="start" x="133" y="-286.5" font-family="Helvetica" font-size="10.00">/home/ec2&#45;user/workspace</text>
<text text-anchor="start" x="133" y="-275.5" font-family="Helvetica" font-size="10.00">/vsomeip/implementation</text>
<text text-anchor="middle" x="218" y="-264.5" font-family="Helvetica" font-size="10.00">/service_discovery/src/deserializer.cpp</text>
</a>
</g>
</g>
<!-- Node2 -->
<g id="node2" class="node">
<title>Node2</title>
<g id="a_node2"><a xlink:href="service__discovery_2include_2deserializer_8hpp.html" target="_top" xlink:title=" ">
<polygon fill="white" stroke="black" points="89.5,-196 89.5,-215 216.5,-215 216.5,-196 89.5,-196"/>
<text text-anchor="middle" x="153" y="-203" font-family="Helvetica" font-size="10.00">../include/deserializer.hpp</text>
</a>
</g>
</g>
<!-- Node1&#45;&gt;Node2 -->
<g id="edge1" class="edge">
<title>Node1&#45;&gt;Node2</title>
<path fill="none" stroke="midnightblue" d="M199.89,-257.36C189.82,-246.43 177.42,-232.99 167.91,-222.67"/>
<polygon fill="midnightblue" stroke="midnightblue" points="170.35,-220.15 161,-215.17 165.2,-224.9 170.35,-220.15"/>
</g>
<!-- Node7 -->
<g id="node7" class="node">
<title>Node7</title>
<g id="a_node7"><a xlink:href="service__discovery_2include_2message__impl_8hpp.html" target="_top" xlink:title=" ">
<polygon fill="white" stroke="black" points="307.5,-190.5 307.5,-220.5 406.5,-220.5 406.5,-190.5 307.5,-190.5"/>
<text text-anchor="start" x="315.5" y="-208.5" font-family="Helvetica" font-size="10.00">../include/message</text>
<text text-anchor="middle" x="357" y="-197.5" font-family="Helvetica" font-size="10.00">_impl.hpp</text>
</a>
</g>
</g>
<!-- Node1&#45;&gt;Node7 -->
<g id="edge6" class="edge">
<title>Node1&#45;&gt;Node7</title>
<path fill="none" stroke="midnightblue" d="M256.72,-257.36C276.55,-247.3 300.58,-235.12 320.14,-225.2"/>
<polygon fill="midnightblue" stroke="midnightblue" points="321.73,-228.31 329.06,-220.67 318.56,-222.07 321.73,-228.31"/>
</g>
<!-- Node3 -->
<g id="node3" class="node">
<title>Node3</title>
<g id="a_node3"><a xlink:href="message_2include_2deserializer_8hpp.html" target="_top" xlink:title=" ">
<polygon fill="white" stroke="black" points="0,-123.5 0,-153.5 108,-153.5 108,-123.5 0,-123.5"/>
<text text-anchor="start" x="8" y="-141.5" font-family="Helvetica" font-size="10.00">../../message/include</text>
<text text-anchor="middle" x="54" y="-130.5" font-family="Helvetica" font-size="10.00">/deserializer.hpp</text>
</a>
</g>
</g>
<!-- Node2&#45;&gt;Node3 -->
<g id="edge2" class="edge">
<title>Node2&#45;&gt;Node3</title>
<path fill="none" stroke="midnightblue" d="M139.65,-195.73C125.43,-186.4 102.47,-171.32 83.9,-159.13"/>
<polygon fill="midnightblue" stroke="midnightblue" points="85.74,-156.15 75.46,-153.59 81.9,-162 85.74,-156.15"/>
</g>
<!-- Node4 -->
<g id="node4" class="node">
<title>Node4</title>
<g id="a_node4"><a xlink:title=" ">
<polygon fill="white" stroke="#bfbfbf" points="57.5,-67.5 57.5,-86.5 100.5,-86.5 100.5,-67.5 57.5,-67.5"/>
<text text-anchor="middle" x="79" y="-74.5" font-family="Helvetica" font-size="10.00">vector</text>
</a>
</g>
</g>
<!-- Node3&#45;&gt;Node4 -->
<g id="edge3" class="edge">
<title>Node3&#45;&gt;Node4</title>
<path fill="none" stroke="midnightblue" d="M59.92,-123.4C63.37,-115.2 67.75,-104.78 71.44,-95.99"/>
<polygon fill="midnightblue" stroke="midnightblue" points="74.72,-97.23 75.36,-86.66 68.26,-94.52 74.72,-97.23"/>
</g>
<!-- Node5 -->
<g id="node5" class="node">
<title>Node5</title>
<g id="a_node5"><a xlink:title=" ">
<polygon fill="white" stroke="#bfbfbf" points="537,-6 537,-25 639,-25 639,-6 537,-6"/>
<text text-anchor="middle" x="588" y="-13" font-family="Helvetica" font-size="10.00">vsomeip/export.hpp</text>
</a>
</g>
</g>
<!-- Node3&#45;&gt;Node5 -->
<g id="edge4" class="edge">
<title>Node3&#45;&gt;Node5</title>
<path fill="none" stroke="midnightblue" d="M47.32,-123.36C40.95,-107.55 34.19,-82.17 48,-67 63.95,-49.49 388.43,-28.31 526.58,-20.04"/>
<polygon fill="midnightblue" stroke="midnightblue" points="526.82,-23.53 536.6,-19.45 526.41,-16.55 526.82,-23.53"/>
</g>
<!-- Node6 -->
<g id="node6" class="node">
<title>Node6</title>
<g id="a_node6"><a xlink:title=" ">
<polygon fill="white" stroke="#bfbfbf" points="195,-6 195,-25 335,-25 335,-6 195,-6"/>
<text text-anchor="middle" x="265" y="-13" font-family="Helvetica" font-size="10.00">vsomeip/primitive_types.hpp</text>
</a>
</g>
</g>
<!-- Node3&#45;&gt;Node6 -->
<g id="edge5" class="edge">
<title>Node3&#45;&gt;Node6</title>
<path fill="none" stroke="midnightblue" d="M36.58,-123.33C20.32,-108.4 0.56,-84.65 15,-67 36.23,-41.06 119.79,-28.14 184.53,-21.91"/>
<polygon fill="midnightblue" stroke="midnightblue" points="185.11,-25.37 194.74,-20.97 184.46,-18.4 185.11,-25.37"/>
</g>
<!-- Node7&#45;&gt;Node4 -->
<g id="edge10" class="edge">
<title>Node7&#45;&gt;Node4</title>
<path fill="none" stroke="midnightblue" d="M307.35,-191.78C276.1,-182.97 235.33,-169.96 201,-154 163.04,-136.36 122.45,-109.21 98.97,-92.58"/>
<polygon fill="midnightblue" stroke="midnightblue" points="100.74,-89.54 90.57,-86.56 96.66,-95.23 100.74,-89.54"/>
</g>
<!-- Node8 -->
<g id="node8" class="node">
<title>Node8</title>
<g id="a_node8"><a xlink:title=" ">
<polygon fill="white" stroke="#bfbfbf" points="119,-67.5 119,-86.5 165,-86.5 165,-67.5 119,-67.5"/>
<text text-anchor="middle" x="142" y="-74.5" font-family="Helvetica" font-size="10.00">atomic</text>
</a>
</g>
</g>
<!-- Node7&#45;&gt;Node8 -->
<g id="edge7" class="edge">
<title>Node7&#45;&gt;Node8</title>
<path fill="none" stroke="midnightblue" d="M323.81,-190.38C302.55,-180.92 274.61,-167.73 251,-154 218.19,-134.92 182.54,-108.98 161.25,-92.88"/>
<polygon fill="midnightblue" stroke="midnightblue" points="163.12,-89.9 153.05,-86.62 158.88,-95.47 163.12,-89.9"/>
</g>
<!-- Node9 -->
<g id="node9" class="node">
<title>Node9</title>
<g id="a_node9"><a xlink:title=" ">
<polygon fill="white" stroke="#bfbfbf" points="183.5,-67.5 183.5,-86.5 236.5,-86.5 236.5,-67.5 183.5,-67.5"/>
<text text-anchor="middle" x="210" y="-74.5" font-family="Helvetica" font-size="10.00">memory</text>
</a>
</g>
</g>
<!-- Node7&#45;&gt;Node9 -->
<g id="edge8" class="edge">
<title>Node7&#45;&gt;Node9</title>
<path fill="none" stroke="midnightblue" d="M336.2,-190.42C322.2,-180.67 303.53,-167.13 288,-154 265.14,-134.66 240.71,-110.16 225.4,-94.29"/>
<polygon fill="midnightblue" stroke="midnightblue" points="227.73,-91.65 218.28,-86.85 222.67,-96.49 227.73,-91.65"/>
</g>
<!-- Node10 -->
<g id="node10" class="node">
<title>Node10</title>
<g id="a_node10"><a xlink:title=" ">
<polygon fill="white" stroke="#bfbfbf" points="531,-67.5 531,-86.5 575,-86.5 575,-67.5 531,-67.5"/>
<text text-anchor="middle" x="553" y="-74.5" font-family="Helvetica" font-size="10.00">mutex</text>
</a>
</g>
</g>
<!-- Node7&#45;&gt;Node10 -->
<g id="edge9" class="edge">
<title>Node7&#45;&gt;Node10</title>
<path fill="none" stroke="midnightblue" d="M378.72,-190.48C416.21,-166.28 492.67,-116.94 530.61,-92.45"/>
<polygon fill="midnightblue" stroke="midnightblue" points="532.88,-95.15 539.38,-86.79 529.08,-89.27 532.88,-95.15"/>
</g>
<!-- Node11 -->
<g id="node11" class="node">
<title>Node11</title>
<g id="a_node11"><a xlink:title=" ">
<polygon fill="white" stroke="#bfbfbf" points="657.5,-67.5 657.5,-86.5 772.5,-86.5 772.5,-67.5 657.5,-67.5"/>
<text text-anchor="middle" x="715" y="-74.5" font-family="Helvetica" font-size="10.00">vsomeip/message.hpp</text>
</a>
</g>
</g>
<!-- Node7&#45;&gt;Node11 -->
<g id="edge11" class="edge">
<title>Node7&#45;&gt;Node11</title>
<path fill="none" stroke="midnightblue" d="M406.76,-199.96C478.91,-192.69 608.39,-176.9 649,-154 673.66,-140.09 693.54,-113.35 704.81,-95.59"/>
<polygon fill="midnightblue" stroke="midnightblue" points="707.96,-97.15 710.17,-86.78 701.98,-93.51 707.96,-97.15"/>
</g>
<!-- Node12 -->
<g id="node12" class="node">
<title>Node12</title>
<g id="a_node12"><a xlink:href="implementation_2service__discovery_2include_2primitive__types_8hpp.html" target="_top" xlink:title=" ">
<polygon fill="white" stroke="black" points="544.5,-123.5 544.5,-153.5 639.5,-153.5 639.5,-123.5 544.5,-123.5"/>
<text text-anchor="start" x="552.5" y="-141.5" font-family="Helvetica" font-size="10.00">../include/primitive</text>
<text text-anchor="middle" x="592" y="-130.5" font-family="Helvetica" font-size="10.00">_types.hpp</text>
</a>
</g>
</g>
<!-- Node7&#45;&gt;Node12 -->
<g id="edge12" class="edge">
<title>Node7&#45;&gt;Node12</title>
<path fill="none" stroke="midnightblue" d="M406.55,-190.79C443.92,-180.46 495.25,-166.26 534.44,-155.42"/>
<polygon fill="midnightblue" stroke="midnightblue" points="535.42,-158.78 544.12,-152.74 533.55,-152.03 535.42,-158.78"/>
</g>
<!-- Node14 -->
<g id="node14" class="node">
<title>Node14</title>
<g id="a_node14"><a xlink:href="message_2include_2message__base__impl_8hpp.html" target="_top" xlink:title=" ">
<polygon fill="white" stroke="black" points="737,-123.5 737,-153.5 865,-153.5 865,-123.5 737,-123.5"/>
<text text-anchor="start" x="745" y="-141.5" font-family="Helvetica" font-size="10.00">../../message/include</text>
<text text-anchor="middle" x="801" y="-130.5" font-family="Helvetica" font-size="10.00">/message_base_impl.hpp</text>
</a>
</g>
</g>
<!-- Node7&#45;&gt;Node14 -->
<g id="edge14" class="edge">
<title>Node7&#45;&gt;Node14</title>
<path fill="none" stroke="midnightblue" d="M406.58,-197.94C475.73,-188.68 605.05,-171.02 715,-154 718.85,-153.4 722.79,-152.78 726.76,-152.15"/>
<polygon fill="midnightblue" stroke="midnightblue" points="727.38,-155.59 736.69,-150.54 726.26,-148.68 727.38,-155.59"/>
</g>
<!-- Node19 -->
<g id="node19" class="node">
<title>Node19</title>
<g id="a_node19"><a xlink:href="endpoint__definition_8hpp.html" target="_top" xlink:title=" ">
<polygon fill="white" stroke="black" points="297.5,-123.5 297.5,-153.5 416.5,-153.5 416.5,-123.5 297.5,-123.5"/>
<text text-anchor="start" x="305.5" y="-141.5" font-family="Helvetica" font-size="10.00">../../endpoints/include</text>
<text text-anchor="middle" x="357" y="-130.5" font-family="Helvetica" font-size="10.00">/endpoint_definition.hpp</text>
</a>
</g>
</g>
<!-- Node7&#45;&gt;Node19 -->
<g id="edge23" class="edge">
<title>Node7&#45;&gt;Node19</title>
<path fill="none" stroke="midnightblue" d="M357,-190.4C357,-182.64 357,-172.81 357,-163.86"/>
<polygon fill="midnightblue" stroke="midnightblue" points="360.5,-163.58 357,-153.58 353.5,-163.58 360.5,-163.58"/>
</g>
<!-- Node13 -->
<g id="node13" class="node">
<title>Node13</title>
<g id="a_node13"><a xlink:title=" ">
<polygon fill="white" stroke="#bfbfbf" points="593,-67.5 593,-86.5 639,-86.5 639,-67.5 593,-67.5"/>
<text text-anchor="middle" x="616" y="-74.5" font-family="Helvetica" font-size="10.00">cstdint</text>
</a>
</g>
</g>
<!-- Node12&#45;&gt;Node13 -->
<g id="edge13" class="edge">
<title>Node12&#45;&gt;Node13</title>
<path fill="none" stroke="midnightblue" d="M597.69,-123.4C601,-115.2 605.2,-104.78 608.74,-95.99"/>
<polygon fill="midnightblue" stroke="midnightblue" points="612.01,-97.24 612.51,-86.66 605.52,-94.62 612.01,-97.24"/>
</g>
<!-- Node14&#45;&gt;Node5 -->
<g id="edge16" class="edge">
<title>Node14&#45;&gt;Node5</title>
<path fill="none" stroke="midnightblue" d="M801.16,-123.27C800.54,-107.36 797.03,-81.9 782,-67 747.11,-32.41 691.7,-20.61 649.01,-16.99"/>
<polygon fill="midnightblue" stroke="midnightblue" points="649.23,-13.49 639.01,-16.27 648.73,-20.48 649.23,-13.49"/>
</g>
<!-- Node14&#45;&gt;Node11 -->
<g id="edge17" class="edge">
<title>Node14&#45;&gt;Node11</title>
<path fill="none" stroke="midnightblue" d="M780.62,-123.4C767.09,-114.04 749.39,-101.79 735.78,-92.38"/>
<polygon fill="midnightblue" stroke="midnightblue" points="737.73,-89.47 727.51,-86.66 733.75,-95.23 737.73,-89.47"/>
</g>
<!-- Node15 -->
<g id="node15" class="node">
<title>Node15</title>
<g id="a_node15"><a xlink:title=" ">
<polygon fill="white" stroke="#bfbfbf" points="829.5,-67.5 829.5,-86.5 918.5,-86.5 918.5,-67.5 829.5,-67.5"/>
<text text-anchor="middle" x="874" y="-74.5" font-family="Helvetica" font-size="10.00">boost/thread.hpp</text>
</a>
</g>
</g>
<!-- Node14&#45;&gt;Node15 -->
<g id="edge15" class="edge">
<title>Node14&#45;&gt;Node15</title>
<path fill="none" stroke="midnightblue" d="M818.3,-123.4C829.45,-114.31 843.95,-102.49 855.36,-93.19"/>
<polygon fill="midnightblue" stroke="midnightblue" points="857.84,-95.69 863.38,-86.66 853.42,-90.26 857.84,-95.69"/>
</g>
<!-- Node16 -->
<g id="node16" class="node">
<title>Node16</title>
<g id="a_node16"><a xlink:href="message__header__impl_8hpp.html" target="_top" xlink:title=" ">
<polygon fill="white" stroke="black" points="936.5,-67.5 936.5,-86.5 1069.5,-86.5 1069.5,-67.5 936.5,-67.5"/>
<text text-anchor="middle" x="1003" y="-74.5" font-family="Helvetica" font-size="10.00">message_header_impl.hpp</text>
</a>
</g>
</g>
<!-- Node14&#45;&gt;Node16 -->
<g id="edge18" class="edge">
<title>Node14&#45;&gt;Node16</title>
<path fill="none" stroke="midnightblue" d="M848.62,-123.47C883.92,-113.08 931.44,-99.08 964.39,-89.37"/>
<polygon fill="midnightblue" stroke="midnightblue" points="965.52,-92.69 974.12,-86.51 963.54,-85.97 965.52,-92.69"/>
</g>
<!-- Node16&#45;&gt;Node5 -->
<g id="edge19" class="edge">
<title>Node16&#45;&gt;Node5</title>
<path fill="none" stroke="midnightblue" d="M943.54,-67.48C865.36,-56.27 728.67,-36.67 649.49,-25.32"/>
<polygon fill="midnightblue" stroke="midnightblue" points="649.58,-21.79 639.18,-23.84 648.58,-28.72 649.58,-21.79"/>
</g>
<!-- Node16&#45;&gt;Node6 -->
<g id="edge20" class="edge">
<title>Node16&#45;&gt;Node6</title>
<path fill="none" stroke="midnightblue" d="M936.36,-67.85C933.54,-67.55 930.74,-67.27 928,-67 718.2,-46.43 470.34,-29.51 345.49,-21.5"/>
<polygon fill="midnightblue" stroke="midnightblue" points="345.45,-17.99 335.25,-20.85 345.01,-24.98 345.45,-17.99"/>
</g>
<!-- Node17 -->
<g id="node17" class="node">
<title>Node17</title>
<g id="a_node17"><a xlink:title=" ">
<polygon fill="white" stroke="#bfbfbf" points="872,-0.5 872,-30.5 982,-30.5 982,-0.5 872,-0.5"/>
<text text-anchor="start" x="880" y="-18.5" font-family="Helvetica" font-size="10.00">vsomeip/enumeration</text>
<text text-anchor="middle" x="927" y="-7.5" font-family="Helvetica" font-size="10.00">_types.hpp</text>
</a>
</g>
</g>
<!-- Node16&#45;&gt;Node17 -->
<g id="edge21" class="edge">
<title>Node16&#45;&gt;Node17</title>
<path fill="none" stroke="midnightblue" d="M992.11,-67.48C981.91,-59.49 966.28,-47.25 952.89,-36.77"/>
<polygon fill="midnightblue" stroke="midnightblue" points="954.94,-33.93 944.91,-30.52 950.63,-39.44 954.94,-33.93"/>
</g>
<!-- Node18 -->
<g id="node18" class="node">
<title>Node18</title>
<g id="a_node18"><a xlink:title=" ">
<polygon fill="white" stroke="#bfbfbf" points="1000,-6 1000,-25 1158,-25 1158,-6 1000,-6"/>
<text text-anchor="middle" x="1079" y="-13" font-family="Helvetica" font-size="10.00">vsomeip/internal/serializable.hpp</text>
</a>
</g>
</g>
<!-- Node16&#45;&gt;Node18 -->
<g id="edge22" class="edge">
<title>Node16&#45;&gt;Node18</title>
<path fill="none" stroke="midnightblue" d="M1013.89,-67.48C1025.97,-58.02 1045.67,-42.6 1060.24,-31.19"/>
<polygon fill="midnightblue" stroke="midnightblue" points="1062.41,-33.93 1068.13,-25.01 1058.1,-28.42 1062.41,-33.93"/>
</g>
<!-- Node19&#45;&gt;Node5 -->
<g id="edge30" class="edge">
<title>Node19&#45;&gt;Node5</title>
<path fill="none" stroke="midnightblue" d="M376.85,-123.45C398.6,-108.41 434.83,-84.36 468,-67 496.51,-52.08 530.43,-38.13 554.92,-28.69"/>
<polygon fill="midnightblue" stroke="midnightblue" points="556.37,-31.89 564.47,-25.06 553.88,-25.35 556.37,-31.89"/>
</g>
<!-- Node19&#45;&gt;Node6 -->
<g id="edge29" class="edge">
<title>Node19&#45;&gt;Node6</title>
<path fill="none" stroke="midnightblue" d="M327.21,-123.31C312.21,-114.75 294.93,-102.49 284,-87 273.17,-71.65 268.51,-50.44 266.51,-35.3"/>
<polygon fill="midnightblue" stroke="midnightblue" points="269.96,-34.69 265.44,-25.11 263,-35.42 269.96,-34.69"/>
</g>
<!-- Node19&#45;&gt;Node8 -->
<g id="edge26" class="edge">
<title>Node19&#45;&gt;Node8</title>
<path fill="none" stroke="midnightblue" d="M305.71,-123.42C271.23,-113.94 224.52,-101.06 174.73,-87.19"/>
<polygon fill="midnightblue" stroke="midnightblue" points="175.64,-83.81 165.07,-84.5 173.76,-90.56 175.64,-83.81"/>
</g>
<!-- Node19&#45;&gt;Node9 -->
<g id="edge25" class="edge">
<title>Node19&#45;&gt;Node9</title>
<path fill="none" stroke="midnightblue" d="M322.16,-123.4C297.5,-113.42 264.71,-100.15 240.97,-90.53"/>
<polygon fill="midnightblue" stroke="midnightblue" points="241.97,-87.17 231.39,-86.66 239.35,-93.65 241.97,-87.17"/>
</g>
<!-- Node19&#45;&gt;Node10 -->
<g id="edge27" class="edge">
<title>Node19&#45;&gt;Node10</title>
<path fill="none" stroke="midnightblue" d="M403.45,-123.4C439.71,-112.39 489.14,-97.39 521.06,-87.7"/>
<polygon fill="midnightblue" stroke="midnightblue" points="522.22,-91 530.77,-84.75 520.19,-84.3 522.22,-91"/>
</g>
<!-- Node20 -->
<g id="node20" class="node">
<title>Node20</title>
<g id="a_node20"><a xlink:title=" ">
<polygon fill="white" stroke="#bfbfbf" points="477.5,-67.5 477.5,-86.5 512.5,-86.5 512.5,-67.5 477.5,-67.5"/>
<text text-anchor="middle" x="495" y="-74.5" font-family="Helvetica" font-size="10.00">map</text>
</a>
</g>
</g>
<!-- Node19&#45;&gt;Node20 -->
<g id="edge24" class="edge">
<title>Node19&#45;&gt;Node20</title>
<path fill="none" stroke="midnightblue" d="M389.7,-123.4C413.59,-113.1 445.58,-99.31 468.01,-89.64"/>
<polygon fill="midnightblue" stroke="midnightblue" points="469.49,-92.81 477.29,-85.64 466.72,-86.38 469.49,-92.81"/>
</g>
<!-- Node21 -->
<g id="node21" class="node">
<title>Node21</title>
<g id="a_node21"><a xlink:title=" ">
<polygon fill="white" stroke="#bfbfbf" points="293,-67.5 293,-86.5 421,-86.5 421,-67.5 293,-67.5"/>
<text text-anchor="middle" x="357" y="-74.5" font-family="Helvetica" font-size="10.00">boost/asio/ip/address.hpp</text>
</a>
</g>
</g>
<!-- Node19&#45;&gt;Node21 -->
<g id="edge28" class="edge">
<title>Node19&#45;&gt;Node21</title>
<path fill="none" stroke="midnightblue" d="M357,-123.4C357,-115.47 357,-105.46 357,-96.86"/>
<polygon fill="midnightblue" stroke="midnightblue" points="360.5,-96.66 357,-86.66 353.5,-96.66 360.5,-96.66"/>
</g>
</g>
</svg>
