<?xml version="1.0" encoding="UTF-8" standalone="no"?>
<!DOCTYPE svg PUBLIC "-//W3C//DTD SVG 1.1//EN"
 "http://www.w3.org/Graphics/SVG/1.1/DTD/svg11.dtd">
<!-- Generated by graphviz version 2.44.0 (0)
 -->
<!-- Title: /home/ec2&#45;user/workspace/vsomeip/implementation/service_discovery/include/message_impl.hpp Pages: 1 -->
<svg width="958pt" height="251pt"
 viewBox="0.00 0.00 958.00 251.00" xmlns="http://www.w3.org/2000/svg" xmlns:xlink="http://www.w3.org/1999/xlink">
<g id="graph0" class="graph" transform="scale(1 1) rotate(0) translate(4 247)">
<title>/home/ec2&#45;user/workspace/vsomeip/implementation/service_discovery/include/message_impl.hpp</title>
<polygon fill="white" stroke="transparent" points="-4,4 -4,-247 954,-247 954,4 -4,4"/>
<!-- Node1 -->
<g id="node1" class="node">
<title>Node1</title>
<g id="a_node1"><a xlink:title=" ">
<polygon fill="#bfbfbf" stroke="black" points="298,-190.5 298,-242.5 432,-242.5 432,-190.5 298,-190.5"/>
<text text-anchor="start" x="306" y="-230.5" font-family="Helvetica" font-size="10.00">/home/ec2&#45;user/workspace</text>
<text text-anchor="start" x="306" y="-219.5" font-family="Helvetica" font-size="10.00">/vsomeip/implementation</text>
<text text-anchor="start" x="306" y="-208.5" font-family="Helvetica" font-size="10.00">/service_discovery/include</text>
<text text-anchor="middle" x="365" y="-197.5" font-family="Helvetica" font-size="10.00">/message_impl.hpp</text>
</a>
</g>
</g>
<!-- Node2 -->
<g id="node2" class="node">
<title>Node2</title>
<g id="a_node2"><a xlink:title=" ">
<polygon fill="white" stroke="#bfbfbf" points="0,-67.5 0,-86.5 46,-86.5 46,-67.5 0,-67.5"/>
<text text-anchor="middle" x="23" y="-74.5" font-family="Helvetica" font-size="10.00">atomic</text>
</a>
</g>
</g>
<!-- Node1&#45;&gt;Node2 -->
<g id="edge1" class="edge">
<title>Node1&#45;&gt;Node2</title>
<path fill="none" stroke="midnightblue" d="M297.78,-203.72C250.8,-194.02 187.35,-177.93 135,-154 99.12,-137.6 62.14,-110.03 40.93,-92.99"/>
<polygon fill="midnightblue" stroke="midnightblue" points="43.06,-90.21 33.1,-86.6 38.63,-95.64 43.06,-90.21"/>
</g>
<!-- Node3 -->
<g id="node3" class="node">
<title>Node3</title>
<g id="a_node3"><a xlink:title=" ">
<polygon fill="white" stroke="#bfbfbf" points="64.5,-67.5 64.5,-86.5 117.5,-86.5 117.5,-67.5 64.5,-67.5"/>
<text text-anchor="middle" x="91" y="-74.5" font-family="Helvetica" font-size="10.00">memory</text>
</a>
</g>
</g>
<!-- Node1&#45;&gt;Node3 -->
<g id="edge2" class="edge">
<title>Node1&#45;&gt;Node3</title>
<path fill="none" stroke="midnightblue" d="M297.73,-199.63C261.72,-189.53 217.41,-174.46 181,-154 151.89,-137.64 123.3,-111.23 106.41,-94.25"/>
<polygon fill="midnightblue" stroke="midnightblue" points="108.59,-91.47 99.11,-86.75 103.58,-96.36 108.59,-91.47"/>
</g>
<!-- Node4 -->
<g id="node4" class="node">
<title>Node4</title>
<g id="a_node4"><a xlink:title=" ">
<polygon fill="white" stroke="#bfbfbf" points="136,-67.5 136,-86.5 180,-86.5 180,-67.5 136,-67.5"/>
<text text-anchor="middle" x="158" y="-74.5" font-family="Helvetica" font-size="10.00">mutex</text>
</a>
</g>
</g>
<!-- Node1&#45;&gt;Node4 -->
<g id="edge3" class="edge">
<title>Node1&#45;&gt;Node4</title>
<path fill="none" stroke="midnightblue" d="M297.75,-197.73C269.32,-187.98 237.07,-173.76 212,-154 191.81,-138.08 175.89,-112.66 166.71,-95.66"/>
<polygon fill="midnightblue" stroke="midnightblue" points="169.81,-94.03 162.1,-86.75 163.59,-97.24 169.81,-94.03"/>
</g>
<!-- Node5 -->
<g id="node5" class="node">
<title>Node5</title>
<g id="a_node5"><a xlink:title=" ">
<polygon fill="white" stroke="#bfbfbf" points="651.5,-129 651.5,-148 694.5,-148 694.5,-129 651.5,-129"/>
<text text-anchor="middle" x="673" y="-136" font-family="Helvetica" font-size="10.00">vector</text>
</a>
</g>
</g>
<!-- Node1&#45;&gt;Node5 -->
<g id="edge4" class="edge">
<title>Node1&#45;&gt;Node5</title>
<path fill="none" stroke="midnightblue" d="M432.02,-203.46C487.57,-192.75 568.26,-175.46 637,-154 639.28,-153.29 641.62,-152.5 643.95,-151.66"/>
<polygon fill="midnightblue" stroke="midnightblue" points="645.3,-154.89 653.4,-148.06 642.81,-148.35 645.3,-154.89"/>
</g>
<!-- Node6 -->
<g id="node6" class="node">
<title>Node6</title>
<g id="a_node6"><a xlink:title=" ">
<polygon fill="white" stroke="#bfbfbf" points="770.5,-67.5 770.5,-86.5 885.5,-86.5 885.5,-67.5 770.5,-67.5"/>
<text text-anchor="middle" x="828" y="-74.5" font-family="Helvetica" font-size="10.00">vsomeip/message.hpp</text>
</a>
</g>
</g>
<!-- Node1&#45;&gt;Node6 -->
<g id="edge5" class="edge">
<title>Node1&#45;&gt;Node6</title>
<path fill="none" stroke="midnightblue" d="M432.15,-206.2C481.63,-197.48 549.51,-181.55 604,-154 623.45,-144.17 622.48,-132.69 642,-123 664.73,-111.71 726.59,-97.87 772.76,-88.54"/>
<polygon fill="midnightblue" stroke="midnightblue" points="773.53,-91.96 782.65,-86.56 772.16,-85.09 773.53,-91.96"/>
</g>
<!-- Node7 -->
<g id="node7" class="node">
<title>Node7</title>
<g id="a_node7"><a xlink:href="implementation_2service__discovery_2include_2primitive__types_8hpp.html" target="_top" xlink:title=" ">
<polygon fill="white" stroke="black" points="819.5,-123.5 819.5,-153.5 914.5,-153.5 914.5,-123.5 819.5,-123.5"/>
<text text-anchor="start" x="827.5" y="-141.5" font-family="Helvetica" font-size="10.00">../include/primitive</text>
<text text-anchor="middle" x="867" y="-130.5" font-family="Helvetica" font-size="10.00">_types.hpp</text>
</a>
</g>
</g>
<!-- Node1&#45;&gt;Node7 -->
<g id="edge6" class="edge">
<title>Node1&#45;&gt;Node7</title>
<path fill="none" stroke="midnightblue" d="M432.18,-205.33C531.45,-190.3 715.65,-162.41 809.22,-148.25"/>
<polygon fill="midnightblue" stroke="midnightblue" points="809.98,-151.67 819.35,-146.71 808.94,-144.75 809.98,-151.67"/>
</g>
<!-- Node9 -->
<g id="node9" class="node">
<title>Node9</title>
<g id="a_node9"><a xlink:href="message_2include_2message__base__impl_8hpp.html" target="_top" xlink:title=" ">
<polygon fill="white" stroke="black" points="467,-123.5 467,-153.5 595,-153.5 595,-123.5 467,-123.5"/>
<text text-anchor="start" x="475" y="-141.5" font-family="Helvetica" font-size="10.00">../../message/include</text>
<text text-anchor="middle" x="531" y="-130.5" font-family="Helvetica" font-size="10.00">/message_base_impl.hpp</text>
</a>
</g>
</g>
<!-- Node1&#45;&gt;Node9 -->
<g id="edge8" class="edge">
<title>Node1&#45;&gt;Node9</title>
<path fill="none" stroke="midnightblue" d="M419.81,-190.4C443.01,-179.78 469.55,-167.64 490.87,-157.87"/>
<polygon fill="midnightblue" stroke="midnightblue" points="492.33,-161.05 499.97,-153.71 489.42,-154.69 492.33,-161.05"/>
</g>
<!-- Node16 -->
<g id="node16" class="node">
<title>Node16</title>
<g id="a_node16"><a xlink:href="endpoint__definition_8hpp.html" target="_top" xlink:title=" ">
<polygon fill="white" stroke="black" points="221.5,-123.5 221.5,-153.5 340.5,-153.5 340.5,-123.5 221.5,-123.5"/>
<text text-anchor="start" x="229.5" y="-141.5" font-family="Helvetica" font-size="10.00">../../endpoints/include</text>
<text text-anchor="middle" x="281" y="-130.5" font-family="Helvetica" font-size="10.00">/endpoint_definition.hpp</text>
</a>
</g>
</g>
<!-- Node1&#45;&gt;Node16 -->
<g id="edge17" class="edge">
<title>Node1&#45;&gt;Node16</title>
<path fill="none" stroke="midnightblue" d="M337.03,-190.19C326.48,-180.65 314.61,-169.91 304.51,-160.77"/>
<polygon fill="midnightblue" stroke="midnightblue" points="306.62,-157.96 296.86,-153.85 301.92,-163.15 306.62,-157.96"/>
</g>
<!-- Node8 -->
<g id="node8" class="node">
<title>Node8</title>
<g id="a_node8"><a xlink:title=" ">
<polygon fill="white" stroke="#bfbfbf" points="904,-67.5 904,-86.5 950,-86.5 950,-67.5 904,-67.5"/>
<text text-anchor="middle" x="927" y="-74.5" font-family="Helvetica" font-size="10.00">cstdint</text>
</a>
</g>
</g>
<!-- Node7&#45;&gt;Node8 -->
<g id="edge7" class="edge">
<title>Node7&#45;&gt;Node8</title>
<path fill="none" stroke="midnightblue" d="M881.22,-123.4C890.21,-114.49 901.84,-102.95 911.13,-93.74"/>
<polygon fill="midnightblue" stroke="midnightblue" points="913.63,-96.18 918.27,-86.66 908.7,-91.21 913.63,-96.18"/>
</g>
<!-- Node9&#45;&gt;Node6 -->
<g id="edge11" class="edge">
<title>Node9&#45;&gt;Node6</title>
<path fill="none" stroke="midnightblue" d="M595.08,-124.66C649,-113.86 725.16,-98.6 775.53,-88.51"/>
<polygon fill="midnightblue" stroke="midnightblue" points="776.43,-91.9 785.55,-86.5 775.06,-85.04 776.43,-91.9"/>
</g>
<!-- Node10 -->
<g id="node10" class="node">
<title>Node10</title>
<g id="a_node10"><a xlink:title=" ">
<polygon fill="white" stroke="#bfbfbf" points="663.5,-67.5 663.5,-86.5 752.5,-86.5 752.5,-67.5 663.5,-67.5"/>
<text text-anchor="middle" x="708" y="-74.5" font-family="Helvetica" font-size="10.00">boost/thread.hpp</text>
</a>
</g>
</g>
<!-- Node9&#45;&gt;Node10 -->
<g id="edge9" class="edge">
<title>Node9&#45;&gt;Node10</title>
<path fill="none" stroke="midnightblue" d="M572.95,-123.4C603.4,-113.16 644.13,-99.47 672.87,-89.81"/>
<polygon fill="midnightblue" stroke="midnightblue" points="674.14,-93.07 682.5,-86.57 671.91,-86.44 674.14,-93.07"/>
</g>
<!-- Node11 -->
<g id="node11" class="node">
<title>Node11</title>
<g id="a_node11"><a xlink:title=" ">
<polygon fill="white" stroke="#bfbfbf" points="357,-6 357,-25 459,-25 459,-6 357,-6"/>
<text text-anchor="middle" x="408" y="-13" font-family="Helvetica" font-size="10.00">vsomeip/export.hpp</text>
</a>
</g>
</g>
<!-- Node9&#45;&gt;Node11 -->
<g id="edge10" class="edge">
<title>Node9&#45;&gt;Node11</title>
<path fill="none" stroke="midnightblue" d="M516.41,-123.14C493.2,-100.31 448.03,-55.88 423.98,-32.22"/>
<polygon fill="midnightblue" stroke="midnightblue" points="426.28,-29.57 416.69,-25.05 421.37,-34.56 426.28,-29.57"/>
</g>
<!-- Node12 -->
<g id="node12" class="node">
<title>Node12</title>
<g id="a_node12"><a xlink:href="message__header__impl_8hpp.html" target="_top" xlink:title=" ">
<polygon fill="white" stroke="black" points="512.5,-67.5 512.5,-86.5 645.5,-86.5 645.5,-67.5 512.5,-67.5"/>
<text text-anchor="middle" x="579" y="-74.5" font-family="Helvetica" font-size="10.00">message_header_impl.hpp</text>
</a>
</g>
</g>
<!-- Node9&#45;&gt;Node12 -->
<g id="edge12" class="edge">
<title>Node9&#45;&gt;Node12</title>
<path fill="none" stroke="midnightblue" d="M542.38,-123.4C549.35,-114.75 558.31,-103.64 565.63,-94.58"/>
<polygon fill="midnightblue" stroke="midnightblue" points="568.46,-96.64 572.02,-86.66 563.01,-92.24 568.46,-96.64"/>
</g>
<!-- Node12&#45;&gt;Node11 -->
<g id="edge13" class="edge">
<title>Node12&#45;&gt;Node11</title>
<path fill="none" stroke="midnightblue" d="M554.5,-67.48C525.04,-57.22 475.42,-39.96 442.2,-28.4"/>
<polygon fill="midnightblue" stroke="midnightblue" points="443.05,-24.99 432.45,-25.01 440.75,-31.6 443.05,-24.99"/>
</g>
<!-- Node13 -->
<g id="node13" class="node">
<title>Node13</title>
<g id="a_node13"><a xlink:title=" ">
<polygon fill="white" stroke="#bfbfbf" points="477,-6 477,-25 617,-25 617,-6 477,-6"/>
<text text-anchor="middle" x="547" y="-13" font-family="Helvetica" font-size="10.00">vsomeip/primitive_types.hpp</text>
</a>
</g>
</g>
<!-- Node12&#45;&gt;Node13 -->
<g id="edge14" class="edge">
<title>Node12&#45;&gt;Node13</title>
<path fill="none" stroke="midnightblue" d="M574.42,-67.48C569.76,-58.82 562.41,-45.15 556.49,-34.15"/>
<polygon fill="midnightblue" stroke="midnightblue" points="559.4,-32.16 551.58,-25.01 553.23,-35.47 559.4,-32.16"/>
</g>
<!-- Node14 -->
<g id="node14" class="node">
<title>Node14</title>
<g id="a_node14"><a xlink:title=" ">
<polygon fill="white" stroke="#bfbfbf" points="635,-0.5 635,-30.5 745,-30.5 745,-0.5 635,-0.5"/>
<text text-anchor="start" x="643" y="-18.5" font-family="Helvetica" font-size="10.00">vsomeip/enumeration</text>
<text text-anchor="middle" x="690" y="-7.5" font-family="Helvetica" font-size="10.00">_types.hpp</text>
</a>
</g>
</g>
<!-- Node12&#45;&gt;Node14 -->
<g id="edge15" class="edge">
<title>Node12&#45;&gt;Node14</title>
<path fill="none" stroke="midnightblue" d="M594.9,-67.48C610.5,-59.12 634.8,-46.09 654.93,-35.3"/>
<polygon fill="midnightblue" stroke="midnightblue" points="656.68,-38.33 663.84,-30.52 653.37,-32.16 656.68,-38.33"/>
</g>
<!-- Node15 -->
<g id="node15" class="node">
<title>Node15</title>
<g id="a_node15"><a xlink:title=" ">
<polygon fill="white" stroke="#bfbfbf" points="763,-6 763,-25 921,-25 921,-6 763,-6"/>
<text text-anchor="middle" x="842" y="-13" font-family="Helvetica" font-size="10.00">vsomeip/internal/serializable.hpp</text>
</a>
</g>
</g>
<!-- Node12&#45;&gt;Node15 -->
<g id="edge16" class="edge">
<title>Node12&#45;&gt;Node15</title>
<path fill="none" stroke="midnightblue" d="M616.68,-67.48C663.55,-56.87 743.61,-38.76 794.6,-27.22"/>
<polygon fill="midnightblue" stroke="midnightblue" points="795.41,-30.63 804.39,-25.01 793.86,-23.8 795.41,-30.63"/>
</g>
<!-- Node16&#45;&gt;Node2 -->
<g id="edge20" class="edge">
<title>Node16&#45;&gt;Node2</title>
<path fill="none" stroke="midnightblue" d="M221.31,-125.09C177.95,-115.86 117.64,-102.59 55.94,-87.14"/>
<polygon fill="midnightblue" stroke="midnightblue" points="56.58,-83.69 46.03,-84.64 54.87,-90.48 56.58,-83.69"/>
</g>
<!-- Node16&#45;&gt;Node3 -->
<g id="edge19" class="edge">
<title>Node16&#45;&gt;Node3</title>
<path fill="none" stroke="midnightblue" d="M235.97,-123.4C202.85,-113.03 158.39,-99.1 127.47,-89.42"/>
<polygon fill="midnightblue" stroke="midnightblue" points="128.13,-85.96 117.54,-86.31 126.04,-92.64 128.13,-85.96"/>
</g>
<!-- Node16&#45;&gt;Node4 -->
<g id="edge21" class="edge">
<title>Node16&#45;&gt;Node4</title>
<path fill="none" stroke="midnightblue" d="M251.85,-123.4C231.58,-113.59 204.76,-100.62 184.98,-91.05"/>
<polygon fill="midnightblue" stroke="midnightblue" points="186.42,-87.86 175.9,-86.66 183.38,-94.16 186.42,-87.86"/>
</g>
<!-- Node16&#45;&gt;Node11 -->
<g id="edge24" class="edge">
<title>Node16&#45;&gt;Node11</title>
<path fill="none" stroke="midnightblue" d="M333.42,-123.44C353.36,-115.68 374.69,-104.04 389,-87 401.2,-72.47 405.63,-50.83 407.2,-35.36"/>
<polygon fill="midnightblue" stroke="midnightblue" points="410.69,-35.6 407.92,-25.38 403.71,-35.11 410.69,-35.6"/>
</g>
<!-- Node16&#45;&gt;Node13 -->
<g id="edge23" class="edge">
<title>Node16&#45;&gt;Node13</title>
<path fill="none" stroke="midnightblue" d="M319.49,-123.43C345.11,-113.78 379.39,-100.37 409,-87 449.58,-68.68 495.36,-44.59 522.66,-29.84"/>
<polygon fill="midnightblue" stroke="midnightblue" points="524.39,-32.88 531.51,-25.03 521.05,-26.73 524.39,-32.88"/>
</g>
<!-- Node17 -->
<g id="node17" class="node">
<title>Node17</title>
<g id="a_node17"><a xlink:title=" ">
<polygon fill="white" stroke="#bfbfbf" points="198.5,-67.5 198.5,-86.5 233.5,-86.5 233.5,-67.5 198.5,-67.5"/>
<text text-anchor="middle" x="216" y="-74.5" font-family="Helvetica" font-size="10.00">map</text>
</a>
</g>
</g>
<!-- Node16&#45;&gt;Node17 -->
<g id="edge18" class="edge">
<title>Node16&#45;&gt;Node17</title>
<path fill="none" stroke="midnightblue" d="M265.6,-123.4C255.76,-114.4 243.01,-102.72 232.89,-93.47"/>
<polygon fill="midnightblue" stroke="midnightblue" points="235.2,-90.83 225.46,-86.66 230.47,-95.99 235.2,-90.83"/>
</g>
<!-- Node18 -->
<g id="node18" class="node">
<title>Node18</title>
<g id="a_node18"><a xlink:title=" ">
<polygon fill="white" stroke="#bfbfbf" points="252,-67.5 252,-86.5 380,-86.5 380,-67.5 252,-67.5"/>
<text text-anchor="middle" x="316" y="-74.5" font-family="Helvetica" font-size="10.00">boost/asio/ip/address.hpp</text>
</a>
</g>
</g>
<!-- Node16&#45;&gt;Node18 -->
<g id="edge22" class="edge">
<title>Node16&#45;&gt;Node18</title>
<path fill="none" stroke="midnightblue" d="M289.29,-123.4C294.22,-115.02 300.51,-104.33 305.75,-95.42"/>
<polygon fill="midnightblue" stroke="midnightblue" points="308.85,-97.05 310.91,-86.66 302.82,-93.5 308.85,-97.05"/>
</g>
</g>
</svg>
