<?xml version="1.0" encoding="UTF-8" standalone="no"?>
<!DOCTYPE svg PUBLIC "-//W3C//DTD SVG 1.1//EN"
 "http://www.w3.org/Graphics/SVG/1.1/DTD/svg11.dtd">
<!-- Generated by graphviz version 2.44.0 (0)
 -->
<!-- Title: /home/ec2&#45;user/workspace/vsomeip/implementation/protocol/src/service_command_base.cpp Pages: 1 -->
<svg width="363pt" height="296pt"
 viewBox="0.00 0.00 363.00 296.00" xmlns="http://www.w3.org/2000/svg" xmlns:xlink="http://www.w3.org/1999/xlink">
<g id="graph0" class="graph" transform="scale(1 1) rotate(0) translate(4 292)">
<title>/home/ec2&#45;user/workspace/vsomeip/implementation/protocol/src/service_command_base.cpp</title>
<polygon fill="white" stroke="transparent" points="-4,4 -4,-292 359,-292 359,4 -4,4"/>
<!-- Node1 -->
<g id="node1" class="node">
<title>Node1</title>
<g id="a_node1"><a xlink:title=" ">
<polygon fill="#bfbfbf" stroke="black" points="0,-235.5 0,-287.5 154,-287.5 154,-235.5 0,-235.5"/>
<text text-anchor="start" x="8" y="-275.5" font-family="Helvetica" font-size="10.00">/home/ec2&#45;user/workspace</text>
<text text-anchor="start" x="8" y="-264.5" font-family="Helvetica" font-size="10.00">/vsomeip/implementation</text>
<text text-anchor="start" x="8" y="-253.5" font-family="Helvetica" font-size="10.00">/protocol/src/service_command</text>
<text text-anchor="middle" x="77" y="-242.5" font-family="Helvetica" font-size="10.00">_base.cpp</text>
</a>
</g>
</g>
<!-- Node2 -->
<g id="node2" class="node">
<title>Node2</title>
<g id="a_node2"><a xlink:title=" ">
<polygon fill="white" stroke="#bfbfbf" points="11,-174 11,-193 51,-193 51,-174 11,-174"/>
<text text-anchor="middle" x="31" y="-181" font-family="Helvetica" font-size="10.00">limits</text>
</a>
</g>
</g>
<!-- Node1&#45;&gt;Node2 -->
<g id="edge1" class="edge">
<title>Node1&#45;&gt;Node2</title>
<path fill="none" stroke="midnightblue" d="M61.68,-235.19C55.1,-224.31 47.56,-211.86 41.61,-202.02"/>
<polygon fill="midnightblue" stroke="midnightblue" points="44.44,-199.95 36.27,-193.21 38.45,-203.58 44.44,-199.95"/>
</g>
<!-- Node3 -->
<g id="node3" class="node">
<title>Node3</title>
<g id="a_node3"><a xlink:href="service__command__base_8hpp.html" target="_top" xlink:title=" ">
<polygon fill="white" stroke="black" points="69,-168.5 69,-198.5 179,-198.5 179,-168.5 69,-168.5"/>
<text text-anchor="start" x="77" y="-186.5" font-family="Helvetica" font-size="10.00">../include/service</text>
<text text-anchor="middle" x="124" y="-175.5" font-family="Helvetica" font-size="10.00">_command_base.hpp</text>
</a>
</g>
</g>
<!-- Node1&#45;&gt;Node3 -->
<g id="edge2" class="edge">
<title>Node1&#45;&gt;Node3</title>
<path fill="none" stroke="midnightblue" d="M92.65,-235.19C98.2,-226.22 104.41,-216.18 109.83,-207.42"/>
<polygon fill="midnightblue" stroke="midnightblue" points="112.85,-209.19 115.13,-198.85 106.89,-205.51 112.85,-209.19"/>
</g>
<!-- Node4 -->
<g id="node4" class="node">
<title>Node4</title>
<g id="a_node4"><a xlink:href="command_8hpp.html" target="_top" xlink:title=" ">
<polygon fill="white" stroke="black" points="85,-112.5 85,-131.5 163,-131.5 163,-112.5 85,-112.5"/>
<text text-anchor="middle" x="124" y="-119.5" font-family="Helvetica" font-size="10.00">command.hpp</text>
</a>
</g>
</g>
<!-- Node3&#45;&gt;Node4 -->
<g id="edge3" class="edge">
<title>Node3&#45;&gt;Node4</title>
<path fill="none" stroke="midnightblue" d="M124,-168.4C124,-160.47 124,-150.46 124,-141.86"/>
<polygon fill="midnightblue" stroke="midnightblue" points="127.5,-141.66 124,-131.66 120.5,-141.66 127.5,-141.66"/>
</g>
<!-- Node5 -->
<g id="node5" class="node">
<title>Node5</title>
<g id="a_node5"><a xlink:title=" ">
<polygon fill="white" stroke="#bfbfbf" points="13,-56.5 13,-75.5 59,-75.5 59,-56.5 13,-56.5"/>
<text text-anchor="middle" x="36" y="-63.5" font-family="Helvetica" font-size="10.00">cstring</text>
</a>
</g>
</g>
<!-- Node4&#45;&gt;Node5 -->
<g id="edge4" class="edge">
<title>Node4&#45;&gt;Node5</title>
<path fill="none" stroke="midnightblue" d="M109.86,-112.32C96.13,-103.9 75.06,-90.97 58.94,-81.07"/>
<polygon fill="midnightblue" stroke="midnightblue" points="60.46,-77.9 50.1,-75.65 56.8,-83.87 60.46,-77.9"/>
</g>
<!-- Node6 -->
<g id="node6" class="node">
<title>Node6</title>
<g id="a_node6"><a xlink:title=" ">
<polygon fill="white" stroke="#bfbfbf" points="77.5,-56.5 77.5,-75.5 120.5,-75.5 120.5,-56.5 77.5,-56.5"/>
<text text-anchor="middle" x="99" y="-63.5" font-family="Helvetica" font-size="10.00">vector</text>
</a>
</g>
</g>
<!-- Node4&#45;&gt;Node6 -->
<g id="edge5" class="edge">
<title>Node4&#45;&gt;Node6</title>
<path fill="none" stroke="midnightblue" d="M119.87,-112.08C116.49,-104.77 111.58,-94.18 107.38,-85.1"/>
<polygon fill="midnightblue" stroke="midnightblue" points="110.43,-83.36 103.05,-75.75 104.08,-86.3 110.43,-83.36"/>
</g>
<!-- Node7 -->
<g id="node7" class="node">
<title>Node7</title>
<g id="a_node7"><a xlink:title=" ">
<polygon fill="white" stroke="#bfbfbf" points="79,-0.5 79,-19.5 219,-19.5 219,-0.5 79,-0.5"/>
<text text-anchor="middle" x="149" y="-7.5" font-family="Helvetica" font-size="10.00">vsomeip/primitive_types.hpp</text>
</a>
</g>
</g>
<!-- Node4&#45;&gt;Node7 -->
<g id="edge6" class="edge">
<title>Node4&#45;&gt;Node7</title>
<path fill="none" stroke="midnightblue" d="M125.96,-112.37C130,-94.62 139.3,-53.67 144.77,-29.6"/>
<polygon fill="midnightblue" stroke="midnightblue" points="148.24,-30.12 147.05,-19.59 141.42,-28.57 148.24,-30.12"/>
</g>
<!-- Node8 -->
<g id="node8" class="node">
<title>Node8</title>
<g id="a_node8"><a xlink:href="protocol_8hpp.html" target="_top" xlink:title=" ">
<polygon fill="white" stroke="black" points="177,-56.5 177,-75.5 247,-75.5 247,-56.5 177,-56.5"/>
<text text-anchor="middle" x="212" y="-63.5" font-family="Helvetica" font-size="10.00">protocol.hpp</text>
</a>
</g>
</g>
<!-- Node4&#45;&gt;Node8 -->
<g id="edge7" class="edge">
<title>Node4&#45;&gt;Node8</title>
<path fill="none" stroke="midnightblue" d="M138.14,-112.32C151.87,-103.9 172.94,-90.97 189.06,-81.07"/>
<polygon fill="midnightblue" stroke="midnightblue" points="191.2,-83.87 197.9,-75.65 187.54,-77.9 191.2,-83.87"/>
</g>
<!-- Node8&#45;&gt;Node7 -->
<g id="edge9" class="edge">
<title>Node8&#45;&gt;Node7</title>
<path fill="none" stroke="midnightblue" d="M201.88,-56.32C192.47,-48.26 178.26,-36.08 166.93,-26.37"/>
<polygon fill="midnightblue" stroke="midnightblue" points="169.18,-23.68 159.31,-19.83 164.62,-29 169.18,-23.68"/>
</g>
<!-- Node9 -->
<g id="node9" class="node">
<title>Node9</title>
<g id="a_node9"><a xlink:title=" ">
<polygon fill="white" stroke="#bfbfbf" points="237,-0.5 237,-19.5 355,-19.5 355,-0.5 237,-0.5"/>
<text text-anchor="middle" x="296" y="-7.5" font-family="Helvetica" font-size="10.00">vsomeip/constants.hpp</text>
</a>
</g>
</g>
<!-- Node8&#45;&gt;Node9 -->
<g id="edge8" class="edge">
<title>Node8&#45;&gt;Node9</title>
<path fill="none" stroke="midnightblue" d="M225.5,-56.32C238.6,-47.9 258.71,-34.97 274.11,-25.07"/>
<polygon fill="midnightblue" stroke="midnightblue" points="276.02,-28.01 282.54,-19.65 272.23,-22.12 276.02,-28.01"/>
</g>
</g>
</svg>
