<?xml version="1.0" encoding="UTF-8" standalone="no"?>
<!DOCTYPE svg PUBLIC "-//W3C//DTD SVG 1.1//EN"
 "http://www.w3.org/Graphics/SVG/1.1/DTD/svg11.dtd">
<!-- Generated by graphviz version 2.44.0 (0)
 -->
<!-- Title: /home/ec2&#45;user/workspace/vsomeip/implementation/protocol/include/service_command_base.hpp Pages: 1 -->
<svg width="625pt" height="239pt"
 viewBox="0.00 0.00 625.00 239.00" xmlns="http://www.w3.org/2000/svg" xmlns:xlink="http://www.w3.org/1999/xlink">
<g id="graph0" class="graph" transform="scale(1 1) rotate(0) translate(4 235)">
<title>/home/ec2&#45;user/workspace/vsomeip/implementation/protocol/include/service_command_base.hpp</title>
<polygon fill="white" stroke="transparent" points="-4,4 -4,-235 621,-235 621,4 -4,4"/>
<!-- Node1 -->
<g id="node1" class="node">
<title>Node1</title>
<g id="a_node1"><a xlink:title=" ">
<polygon fill="#bfbfbf" stroke="black" points="311,-178.5 311,-230.5 445,-230.5 445,-178.5 311,-178.5"/>
<text text-anchor="start" x="319" y="-218.5" font-family="Helvetica" font-size="10.00">/home/ec2&#45;user/workspace</text>
<text text-anchor="start" x="319" y="-207.5" font-family="Helvetica" font-size="10.00">/vsomeip/implementation</text>
<text text-anchor="start" x="319" y="-196.5" font-family="Helvetica" font-size="10.00">/protocol/include/service</text>
<text text-anchor="middle" x="378" y="-185.5" font-family="Helvetica" font-size="10.00">_command_base.hpp</text>
</a>
</g>
</g>
<!-- Node2 -->
<g id="node2" class="node">
<title>Node2</title>
<g id="a_node2"><a xlink:href="offer__service__command_8hpp.html" target="_top" xlink:title=" ">
<polygon fill="white" stroke="black" points="156,-89.5 156,-141.5 290,-141.5 290,-89.5 156,-89.5"/>
<text text-anchor="start" x="164" y="-129.5" font-family="Helvetica" font-size="10.00">/home/ec2&#45;user/workspace</text>
<text text-anchor="start" x="164" y="-118.5" font-family="Helvetica" font-size="10.00">/vsomeip/implementation</text>
<text text-anchor="start" x="164" y="-107.5" font-family="Helvetica" font-size="10.00">/protocol/include/offer</text>
<text text-anchor="middle" x="223" y="-96.5" font-family="Helvetica" font-size="10.00">_service_command.hpp</text>
</a>
</g>
</g>
<!-- Node1&#45;&gt;Node2 -->
<g id="edge1" class="edge">
<title>Node1&#45;&gt;Node2</title>
<path fill="none" stroke="midnightblue" d="M324.29,-173.35C305.84,-163 285.39,-151.52 267.73,-141.61"/>
<polygon fill="midnightblue" stroke="midnightblue" points="322.73,-176.49 333.17,-178.34 326.16,-170.39 322.73,-176.49"/>
</g>
<!-- Node6 -->
<g id="node6" class="node">
<title>Node6</title>
<g id="a_node6"><a xlink:href="stop__offer__service__command_8hpp.html" target="_top" xlink:title=" ">
<polygon fill="white" stroke="black" points="311,-89.5 311,-141.5 445,-141.5 445,-89.5 311,-89.5"/>
<text text-anchor="start" x="319" y="-129.5" font-family="Helvetica" font-size="10.00">/home/ec2&#45;user/workspace</text>
<text text-anchor="start" x="319" y="-118.5" font-family="Helvetica" font-size="10.00">/vsomeip/implementation</text>
<text text-anchor="start" x="319" y="-107.5" font-family="Helvetica" font-size="10.00">/protocol/include/stop_offer</text>
<text text-anchor="middle" x="378" y="-96.5" font-family="Helvetica" font-size="10.00">_service_command.hpp</text>
</a>
</g>
</g>
<!-- Node1&#45;&gt;Node6 -->
<g id="edge5" class="edge">
<title>Node1&#45;&gt;Node6</title>
<path fill="none" stroke="midnightblue" d="M378,-168.19C378,-159.28 378,-149.9 378,-141.61"/>
<polygon fill="midnightblue" stroke="midnightblue" points="374.5,-168.34 378,-178.34 381.5,-168.34 374.5,-168.34"/>
</g>
<!-- Node8 -->
<g id="node8" class="node">
<title>Node8</title>
<g id="a_node8"><a xlink:href="service__command__base_8cpp.html" target="_top" xlink:title=" ">
<polygon fill="white" stroke="black" points="463,-89.5 463,-141.5 617,-141.5 617,-89.5 463,-89.5"/>
<text text-anchor="start" x="471" y="-129.5" font-family="Helvetica" font-size="10.00">/home/ec2&#45;user/workspace</text>
<text text-anchor="start" x="471" y="-118.5" font-family="Helvetica" font-size="10.00">/vsomeip/implementation</text>
<text text-anchor="start" x="471" y="-107.5" font-family="Helvetica" font-size="10.00">/protocol/src/service_command</text>
<text text-anchor="middle" x="540" y="-96.5" font-family="Helvetica" font-size="10.00">_base.cpp</text>
</a>
</g>
</g>
<!-- Node1&#45;&gt;Node8 -->
<g id="edge9" class="edge">
<title>Node1&#45;&gt;Node8</title>
<path fill="none" stroke="midnightblue" d="M433.87,-173.49C453.23,-163.1 474.7,-151.57 493.25,-141.61"/>
<polygon fill="midnightblue" stroke="midnightblue" points="432.01,-170.52 424.86,-178.34 435.32,-176.69 432.01,-170.52"/>
</g>
<!-- Node3 -->
<g id="node3" class="node">
<title>Node3</title>
<g id="a_node3"><a xlink:href="offer__service__command_8cpp.html" target="_top" xlink:title=" ">
<polygon fill="white" stroke="black" points="0,-0.5 0,-52.5 134,-52.5 134,-0.5 0,-0.5"/>
<text text-anchor="start" x="8" y="-40.5" font-family="Helvetica" font-size="10.00">/home/ec2&#45;user/workspace</text>
<text text-anchor="start" x="8" y="-29.5" font-family="Helvetica" font-size="10.00">/vsomeip/implementation</text>
<text text-anchor="start" x="8" y="-18.5" font-family="Helvetica" font-size="10.00">/protocol/src/offer_service</text>
<text text-anchor="middle" x="67" y="-7.5" font-family="Helvetica" font-size="10.00">_command.cpp</text>
</a>
</g>
</g>
<!-- Node2&#45;&gt;Node3 -->
<g id="edge2" class="edge">
<title>Node2&#45;&gt;Node3</title>
<path fill="none" stroke="midnightblue" d="M168.94,-84.35C150.37,-74 129.8,-62.52 112.02,-52.61"/>
<polygon fill="midnightblue" stroke="midnightblue" points="167.44,-87.52 177.88,-89.34 170.85,-81.41 167.44,-87.52"/>
</g>
<!-- Node4 -->
<g id="node4" class="node">
<title>Node4</title>
<g id="a_node4"><a xlink:href="routing__manager__client_8cpp.html" target="_top" xlink:title=" ">
<polygon fill="white" stroke="black" points="152,-0.5 152,-52.5 292,-52.5 292,-0.5 152,-0.5"/>
<text text-anchor="start" x="160" y="-40.5" font-family="Helvetica" font-size="10.00">/home/ec2&#45;user/workspace</text>
<text text-anchor="start" x="160" y="-29.5" font-family="Helvetica" font-size="10.00">/vsomeip/implementation</text>
<text text-anchor="start" x="160" y="-18.5" font-family="Helvetica" font-size="10.00">/routing/src/routing_manager</text>
<text text-anchor="middle" x="222" y="-7.5" font-family="Helvetica" font-size="10.00">_client.cpp</text>
</a>
</g>
</g>
<!-- Node2&#45;&gt;Node4 -->
<g id="edge3" class="edge">
<title>Node2&#45;&gt;Node4</title>
<path fill="none" stroke="midnightblue" d="M222.59,-79.19C222.49,-70.28 222.38,-60.9 222.29,-52.61"/>
<polygon fill="midnightblue" stroke="midnightblue" points="219.1,-79.38 222.71,-89.34 226.1,-79.3 219.1,-79.38"/>
</g>
<!-- Node5 -->
<g id="node5" class="node">
<title>Node5</title>
<g id="a_node5"><a xlink:href="routing__manager__stub_8cpp.html" target="_top" xlink:title=" ">
<polygon fill="white" stroke="black" points="310,-0.5 310,-52.5 450,-52.5 450,-0.5 310,-0.5"/>
<text text-anchor="start" x="318" y="-40.5" font-family="Helvetica" font-size="10.00">/home/ec2&#45;user/workspace</text>
<text text-anchor="start" x="318" y="-29.5" font-family="Helvetica" font-size="10.00">/vsomeip/implementation</text>
<text text-anchor="start" x="318" y="-18.5" font-family="Helvetica" font-size="10.00">/routing/src/routing_manager</text>
<text text-anchor="middle" x="380" y="-7.5" font-family="Helvetica" font-size="10.00">_stub.cpp</text>
</a>
</g>
</g>
<!-- Node2&#45;&gt;Node5 -->
<g id="edge4" class="edge">
<title>Node2&#45;&gt;Node5</title>
<path fill="none" stroke="midnightblue" d="M277.4,-84.35C296.09,-74 316.8,-62.52 334.69,-52.61"/>
<polygon fill="midnightblue" stroke="midnightblue" points="275.46,-81.43 268.41,-89.34 278.85,-87.55 275.46,-81.43"/>
</g>
<!-- Node6&#45;&gt;Node4 -->
<g id="edge7" class="edge">
<title>Node6&#45;&gt;Node4</title>
<path fill="none" stroke="midnightblue" d="M323.94,-84.35C305.37,-74 284.8,-62.52 267.02,-52.61"/>
<polygon fill="midnightblue" stroke="midnightblue" points="322.44,-87.52 332.88,-89.34 325.85,-81.41 322.44,-87.52"/>
</g>
<!-- Node6&#45;&gt;Node5 -->
<g id="edge8" class="edge">
<title>Node6&#45;&gt;Node5</title>
<path fill="none" stroke="midnightblue" d="M378.81,-79.19C379.02,-70.28 379.23,-60.9 379.42,-52.61"/>
<polygon fill="midnightblue" stroke="midnightblue" points="375.31,-79.26 378.58,-89.34 382.31,-79.42 375.31,-79.26"/>
</g>
<!-- Node7 -->
<g id="node7" class="node">
<title>Node7</title>
<g id="a_node7"><a xlink:href="stop__offer__service__command_8cpp.html" target="_top" xlink:title=" ">
<polygon fill="white" stroke="black" points="468,-0.5 468,-52.5 602,-52.5 602,-0.5 468,-0.5"/>
<text text-anchor="start" x="476" y="-40.5" font-family="Helvetica" font-size="10.00">/home/ec2&#45;user/workspace</text>
<text text-anchor="start" x="476" y="-29.5" font-family="Helvetica" font-size="10.00">/vsomeip/implementation</text>
<text text-anchor="start" x="476" y="-18.5" font-family="Helvetica" font-size="10.00">/protocol/src/stop_offer</text>
<text text-anchor="middle" x="535" y="-7.5" font-family="Helvetica" font-size="10.00">_service_command.cpp</text>
</a>
</g>
</g>
<!-- Node6&#45;&gt;Node7 -->
<g id="edge6" class="edge">
<title>Node6&#45;&gt;Node7</title>
<path fill="none" stroke="midnightblue" d="M432.4,-84.35C451.09,-74 471.8,-62.52 489.69,-52.61"/>
<polygon fill="midnightblue" stroke="midnightblue" points="430.46,-81.43 423.41,-89.34 433.85,-87.55 430.46,-81.43"/>
</g>
</g>
</svg>
