<?xml version="1.0" encoding="UTF-8" standalone="no"?>
<!DOCTYPE svg PUBLIC "-//W3C//DTD SVG 1.1//EN"
 "http://www.w3.org/Graphics/SVG/1.1/DTD/svg11.dtd">
<!-- Generated by graphviz version 2.44.0 (0)
 -->
<!-- Title: /home/ec2&#45;user/workspace/vsomeip/implementation/service_discovery/src/serviceentry_impl.cpp Pages: 1 -->
<svg width="870pt" height="307pt"
 viewBox="0.00 0.00 869.50 307.00" xmlns="http://www.w3.org/2000/svg" xmlns:xlink="http://www.w3.org/1999/xlink">
<g id="graph0" class="graph" transform="scale(1 1) rotate(0) translate(4 303)">
<title>/home/ec2&#45;user/workspace/vsomeip/implementation/service_discovery/src/serviceentry_impl.cpp</title>
<polygon fill="white" stroke="transparent" points="-4,4 -4,-303 865.5,-303 865.5,4 -4,4"/>
<!-- Node1 -->
<g id="node1" class="node">
<title>Node1</title>
<g id="a_node1"><a xlink:title=" ">
<polygon fill="#bfbfbf" stroke="black" points="213.5,-246.5 213.5,-298.5 386.5,-298.5 386.5,-246.5 213.5,-246.5"/>
<text text-anchor="start" x="221.5" y="-286.5" font-family="Helvetica" font-size="10.00">/home/ec2&#45;user/workspace</text>
<text text-anchor="start" x="221.5" y="-275.5" font-family="Helvetica" font-size="10.00">/vsomeip/implementation</text>
<text text-anchor="start" x="221.5" y="-264.5" font-family="Helvetica" font-size="10.00">/service_discovery/src/serviceentry</text>
<text text-anchor="middle" x="300" y="-253.5" font-family="Helvetica" font-size="10.00">_impl.cpp</text>
</a>
</g>
</g>
<!-- Node2 -->
<g id="node2" class="node">
<title>Node2</title>
<g id="a_node2"><a xlink:href="serviceentry__impl_8hpp.html" target="_top" xlink:title=" ">
<polygon fill="white" stroke="black" points="345,-179.5 345,-209.5 459,-209.5 459,-179.5 345,-179.5"/>
<text text-anchor="start" x="353" y="-197.5" font-family="Helvetica" font-size="10.00">../include/serviceentry</text>
<text text-anchor="middle" x="402" y="-186.5" font-family="Helvetica" font-size="10.00">_impl.hpp</text>
</a>
</g>
</g>
<!-- Node1&#45;&gt;Node2 -->
<g id="edge1" class="edge">
<title>Node1&#45;&gt;Node2</title>
<path fill="none" stroke="midnightblue" d="M333.68,-246.4C346.98,-236.5 362.05,-225.26 374.66,-215.87"/>
<polygon fill="midnightblue" stroke="midnightblue" points="377.01,-218.49 382.93,-209.71 372.82,-212.87 377.01,-218.49"/>
</g>
<!-- Node11 -->
<g id="node11" class="node">
<title>Node11</title>
<g id="a_node11"><a xlink:href="message_2include_2deserializer_8hpp.html" target="_top" xlink:title=" ">
<polygon fill="white" stroke="black" points="246,-112.5 246,-142.5 354,-142.5 354,-112.5 246,-112.5"/>
<text text-anchor="start" x="254" y="-130.5" font-family="Helvetica" font-size="10.00">../../message/include</text>
<text text-anchor="middle" x="300" y="-119.5" font-family="Helvetica" font-size="10.00">/deserializer.hpp</text>
</a>
</g>
</g>
<!-- Node1&#45;&gt;Node11 -->
<g id="edge10" class="edge">
<title>Node1&#45;&gt;Node11</title>
<path fill="none" stroke="midnightblue" d="M300,-246.26C300,-219.88 300,-178.78 300,-152.77"/>
<polygon fill="midnightblue" stroke="midnightblue" points="303.5,-152.63 300,-142.63 296.5,-152.63 303.5,-152.63"/>
</g>
<!-- Node13 -->
<g id="node13" class="node">
<title>Node13</title>
<g id="a_node13"><a xlink:href="serializer_8hpp.html" target="_top" xlink:title=" ">
<polygon fill="white" stroke="black" points="120,-112.5 120,-142.5 228,-142.5 228,-112.5 120,-112.5"/>
<text text-anchor="start" x="128" y="-130.5" font-family="Helvetica" font-size="10.00">../../message/include</text>
<text text-anchor="middle" x="174" y="-119.5" font-family="Helvetica" font-size="10.00">/serializer.hpp</text>
</a>
</g>
</g>
<!-- Node1&#45;&gt;Node13 -->
<g id="edge14" class="edge">
<title>Node1&#45;&gt;Node13</title>
<path fill="none" stroke="midnightblue" d="M277.76,-246.26C253.79,-219.06 216.03,-176.2 193.27,-150.38"/>
<polygon fill="midnightblue" stroke="midnightblue" points="195.69,-147.82 186.45,-142.63 190.44,-152.45 195.69,-147.82"/>
</g>
<!-- Node3 -->
<g id="node3" class="node">
<title>Node3</title>
<g id="a_node3"><a xlink:href="entry__impl_8hpp.html" target="_top" xlink:title=" ">
<polygon fill="white" stroke="black" points="378.5,-118 378.5,-137 459.5,-137 459.5,-118 378.5,-118"/>
<text text-anchor="middle" x="419" y="-125" font-family="Helvetica" font-size="10.00">entry_impl.hpp</text>
</a>
</g>
</g>
<!-- Node2&#45;&gt;Node3 -->
<g id="edge2" class="edge">
<title>Node2&#45;&gt;Node3</title>
<path fill="none" stroke="midnightblue" d="M405.69,-179.4C408.16,-169.96 411.43,-157.45 414.11,-147.19"/>
<polygon fill="midnightblue" stroke="midnightblue" points="417.58,-147.75 416.73,-137.19 410.81,-145.98 417.58,-147.75"/>
</g>
<!-- Node4 -->
<g id="node4" class="node">
<title>Node4</title>
<g id="a_node4"><a xlink:title=" ">
<polygon fill="white" stroke="#bfbfbf" points="808.5,-56.5 808.5,-75.5 861.5,-75.5 861.5,-56.5 808.5,-56.5"/>
<text text-anchor="middle" x="835" y="-63.5" font-family="Helvetica" font-size="10.00">memory</text>
</a>
</g>
</g>
<!-- Node3&#45;&gt;Node4 -->
<g id="edge3" class="edge">
<title>Node3&#45;&gt;Node4</title>
<path fill="none" stroke="midnightblue" d="M459.73,-122.61C527.78,-115.78 669.02,-100.21 798.26,-75.94"/>
<polygon fill="midnightblue" stroke="midnightblue" points="799.17,-79.33 808.34,-74.02 797.86,-72.45 799.17,-79.33"/>
</g>
<!-- Node5 -->
<g id="node5" class="node">
<title>Node5</title>
<g id="a_node5"><a xlink:title=" ">
<polygon fill="white" stroke="#bfbfbf" points="278.5,-56.5 278.5,-75.5 321.5,-75.5 321.5,-56.5 278.5,-56.5"/>
<text text-anchor="middle" x="300" y="-63.5" font-family="Helvetica" font-size="10.00">vector</text>
</a>
</g>
</g>
<!-- Node3&#45;&gt;Node5 -->
<g id="edge4" class="edge">
<title>Node3&#45;&gt;Node5</title>
<path fill="none" stroke="midnightblue" d="M401.95,-117.98C382.16,-108.08 349.28,-91.64 326.23,-80.12"/>
<polygon fill="midnightblue" stroke="midnightblue" points="327.53,-76.85 317.02,-75.51 324.4,-83.11 327.53,-76.85"/>
</g>
<!-- Node6 -->
<g id="node6" class="node">
<title>Node6</title>
<g id="a_node6"><a xlink:title=" ">
<polygon fill="white" stroke="#bfbfbf" points="120,-56.5 120,-75.5 260,-75.5 260,-56.5 120,-56.5"/>
<text text-anchor="middle" x="190" y="-63.5" font-family="Helvetica" font-size="10.00">vsomeip/primitive_types.hpp</text>
</a>
</g>
</g>
<!-- Node3&#45;&gt;Node6 -->
<g id="edge5" class="edge">
<title>Node3&#45;&gt;Node6</title>
<path fill="none" stroke="midnightblue" d="M386.19,-117.98C345.8,-107.48 277.12,-89.64 232.67,-78.09"/>
<polygon fill="midnightblue" stroke="midnightblue" points="233.31,-74.64 222.75,-75.51 231.55,-81.41 233.31,-74.64"/>
</g>
<!-- Node7 -->
<g id="node7" class="node">
<title>Node7</title>
<g id="a_node7"><a xlink:title=" ">
<polygon fill="white" stroke="#bfbfbf" points="340,-56.5 340,-75.5 498,-75.5 498,-56.5 340,-56.5"/>
<text text-anchor="middle" x="419" y="-63.5" font-family="Helvetica" font-size="10.00">vsomeip/internal/serializable.hpp</text>
</a>
</g>
</g>
<!-- Node3&#45;&gt;Node7 -->
<g id="edge6" class="edge">
<title>Node3&#45;&gt;Node7</title>
<path fill="none" stroke="midnightblue" d="M419,-117.98C419,-109.58 419,-96.48 419,-85.66"/>
<polygon fill="midnightblue" stroke="midnightblue" points="422.5,-85.51 419,-75.51 415.5,-85.51 422.5,-85.51"/>
</g>
<!-- Node8 -->
<g id="node8" class="node">
<title>Node8</title>
<g id="a_node8"><a xlink:href="implementation_2service__discovery_2include_2enumeration__types_8hpp.html" target="_top" xlink:title=" ">
<polygon fill="white" stroke="black" points="516,-56.5 516,-75.5 634,-75.5 634,-56.5 516,-56.5"/>
<text text-anchor="middle" x="575" y="-63.5" font-family="Helvetica" font-size="10.00">enumeration_types.hpp</text>
</a>
</g>
</g>
<!-- Node3&#45;&gt;Node8 -->
<g id="edge7" class="edge">
<title>Node3&#45;&gt;Node8</title>
<path fill="none" stroke="midnightblue" d="M441.35,-117.98C467.99,-107.81 512.71,-90.76 543.01,-79.2"/>
<polygon fill="midnightblue" stroke="midnightblue" points="544.59,-82.34 552.69,-75.51 542.1,-75.8 544.59,-82.34"/>
</g>
<!-- Node10 -->
<g id="node10" class="node">
<title>Node10</title>
<g id="a_node10"><a xlink:href="message__element__impl_8hpp.html" target="_top" xlink:title=" ">
<polygon fill="white" stroke="black" points="652,-56.5 652,-75.5 790,-75.5 790,-56.5 652,-56.5"/>
<text text-anchor="middle" x="721" y="-63.5" font-family="Helvetica" font-size="10.00">message_element_impl.hpp</text>
</a>
</g>
</g>
<!-- Node3&#45;&gt;Node10 -->
<g id="edge9" class="edge">
<title>Node3&#45;&gt;Node10</title>
<path fill="none" stroke="midnightblue" d="M459.73,-118.48C513.45,-107.89 608.13,-89.24 667.56,-77.53"/>
<polygon fill="midnightblue" stroke="midnightblue" points="668.37,-80.94 677.5,-75.57 667.01,-74.07 668.37,-80.94"/>
</g>
<!-- Node9 -->
<g id="node9" class="node">
<title>Node9</title>
<g id="a_node9"><a xlink:title=" ">
<polygon fill="white" stroke="#bfbfbf" points="552,-0.5 552,-19.5 598,-19.5 598,-0.5 552,-0.5"/>
<text text-anchor="middle" x="575" y="-7.5" font-family="Helvetica" font-size="10.00">cstdint</text>
</a>
</g>
</g>
<!-- Node8&#45;&gt;Node9 -->
<g id="edge8" class="edge">
<title>Node8&#45;&gt;Node9</title>
<path fill="none" stroke="midnightblue" d="M575,-56.08C575,-49.01 575,-38.86 575,-29.99"/>
<polygon fill="midnightblue" stroke="midnightblue" points="578.5,-29.75 575,-19.75 571.5,-29.75 578.5,-29.75"/>
</g>
<!-- Node11&#45;&gt;Node5 -->
<g id="edge11" class="edge">
<title>Node11&#45;&gt;Node5</title>
<path fill="none" stroke="midnightblue" d="M300,-112.4C300,-104.47 300,-94.46 300,-85.86"/>
<polygon fill="midnightblue" stroke="midnightblue" points="303.5,-85.66 300,-75.66 296.5,-85.66 303.5,-85.66"/>
</g>
<!-- Node11&#45;&gt;Node6 -->
<g id="edge13" class="edge">
<title>Node11&#45;&gt;Node6</title>
<path fill="none" stroke="midnightblue" d="M273.93,-112.4C256.13,-102.77 232.69,-90.09 215.1,-80.58"/>
<polygon fill="midnightblue" stroke="midnightblue" points="216.47,-77.34 206.01,-75.66 213.14,-83.49 216.47,-77.34"/>
</g>
<!-- Node12 -->
<g id="node12" class="node">
<title>Node12</title>
<g id="a_node12"><a xlink:title=" ">
<polygon fill="white" stroke="#bfbfbf" points="0,-56.5 0,-75.5 102,-75.5 102,-56.5 0,-56.5"/>
<text text-anchor="middle" x="51" y="-63.5" font-family="Helvetica" font-size="10.00">vsomeip/export.hpp</text>
</a>
</g>
</g>
<!-- Node11&#45;&gt;Node12 -->
<g id="edge12" class="edge">
<title>Node11&#45;&gt;Node12</title>
<path fill="none" stroke="midnightblue" d="M245.97,-113.59C201.44,-102.95 138.98,-88.02 96.85,-77.96"/>
<polygon fill="midnightblue" stroke="midnightblue" points="97.41,-74.49 86.87,-75.57 95.78,-81.3 97.41,-74.49"/>
</g>
<!-- Node13&#45;&gt;Node5 -->
<g id="edge15" class="edge">
<title>Node13&#45;&gt;Node5</title>
<path fill="none" stroke="midnightblue" d="M203.86,-112.4C224.62,-102.59 252.1,-89.62 272.36,-80.05"/>
<polygon fill="midnightblue" stroke="midnightblue" points="274.12,-83.09 281.67,-75.66 271.13,-76.76 274.12,-83.09"/>
</g>
<!-- Node13&#45;&gt;Node6 -->
<g id="edge17" class="edge">
<title>Node13&#45;&gt;Node6</title>
<path fill="none" stroke="midnightblue" d="M177.79,-112.4C179.95,-104.38 182.68,-94.23 185.01,-85.57"/>
<polygon fill="midnightblue" stroke="midnightblue" points="188.45,-86.22 187.67,-75.66 181.7,-84.41 188.45,-86.22"/>
</g>
<!-- Node13&#45;&gt;Node12 -->
<g id="edge16" class="edge">
<title>Node13&#45;&gt;Node12</title>
<path fill="none" stroke="midnightblue" d="M144.85,-112.4C124.58,-102.59 97.76,-89.62 77.98,-80.05"/>
<polygon fill="midnightblue" stroke="midnightblue" points="79.42,-76.86 68.9,-75.66 76.38,-83.16 79.42,-76.86"/>
</g>
</g>
</svg>
