<?xml version="1.0" encoding="UTF-8" standalone="no"?>
<!DOCTYPE svg PUBLIC "-//W3C//DTD SVG 1.1//EN"
 "http://www.w3.org/Graphics/SVG/1.1/DTD/svg11.dtd">
<!-- Generated by graphviz version 2.44.0 (0)
 -->
<!-- Title: /home/ec2&#45;user/workspace/vsomeip/implementation/service_discovery/include/serviceentry_impl.hpp Pages: 1 -->
<svg width="749pt" height="229pt"
 viewBox="0.00 0.00 748.50 229.00" xmlns="http://www.w3.org/2000/svg" xmlns:xlink="http://www.w3.org/1999/xlink">
<g id="graph0" class="graph" transform="scale(1 1) rotate(0) translate(4 225)">
<title>/home/ec2&#45;user/workspace/vsomeip/implementation/service_discovery/include/serviceentry_impl.hpp</title>
<polygon fill="white" stroke="transparent" points="-4,4 -4,-225 744.5,-225 744.5,4 -4,4"/>
<!-- Node1 -->
<g id="node1" class="node">
<title>Node1</title>
<g id="a_node1"><a xlink:title=" ">
<polygon fill="#bfbfbf" stroke="black" points="218.5,-168.5 218.5,-220.5 352.5,-220.5 352.5,-168.5 218.5,-168.5"/>
<text text-anchor="start" x="226.5" y="-208.5" font-family="Helvetica" font-size="10.00">/home/ec2&#45;user/workspace</text>
<text text-anchor="start" x="226.5" y="-197.5" font-family="Helvetica" font-size="10.00">/vsomeip/implementation</text>
<text text-anchor="start" x="226.5" y="-186.5" font-family="Helvetica" font-size="10.00">/service_discovery/include</text>
<text text-anchor="middle" x="285.5" y="-175.5" font-family="Helvetica" font-size="10.00">/serviceentry_impl.hpp</text>
</a>
</g>
</g>
<!-- Node2 -->
<g id="node2" class="node">
<title>Node2</title>
<g id="a_node2"><a xlink:href="entry__impl_8hpp.html" target="_top" xlink:title=" ">
<polygon fill="white" stroke="black" points="245,-112.5 245,-131.5 326,-131.5 326,-112.5 245,-112.5"/>
<text text-anchor="middle" x="285.5" y="-119.5" font-family="Helvetica" font-size="10.00">entry_impl.hpp</text>
</a>
</g>
</g>
<!-- Node1&#45;&gt;Node2 -->
<g id="edge1" class="edge">
<title>Node1&#45;&gt;Node2</title>
<path fill="none" stroke="midnightblue" d="M285.5,-168.45C285.5,-159.73 285.5,-150.1 285.5,-141.96"/>
<polygon fill="midnightblue" stroke="midnightblue" points="289,-141.7 285.5,-131.7 282,-141.7 289,-141.7"/>
</g>
<!-- Node3 -->
<g id="node3" class="node">
<title>Node3</title>
<g id="a_node3"><a xlink:title=" ">
<polygon fill="white" stroke="#bfbfbf" points="0,-56.5 0,-75.5 53,-75.5 53,-56.5 0,-56.5"/>
<text text-anchor="middle" x="26.5" y="-63.5" font-family="Helvetica" font-size="10.00">memory</text>
</a>
</g>
</g>
<!-- Node2&#45;&gt;Node3 -->
<g id="edge2" class="edge">
<title>Node2&#45;&gt;Node3</title>
<path fill="none" stroke="midnightblue" d="M244.69,-113.35C201.89,-105.19 132.47,-91.6 63,-76.03"/>
<polygon fill="midnightblue" stroke="midnightblue" points="63.73,-72.61 53.2,-73.82 62.19,-79.43 63.73,-72.61"/>
</g>
<!-- Node4 -->
<g id="node4" class="node">
<title>Node4</title>
<g id="a_node4"><a xlink:title=" ">
<polygon fill="white" stroke="#bfbfbf" points="71,-56.5 71,-75.5 114,-75.5 114,-56.5 71,-56.5"/>
<text text-anchor="middle" x="92.5" y="-63.5" font-family="Helvetica" font-size="10.00">vector</text>
</a>
</g>
</g>
<!-- Node2&#45;&gt;Node4 -->
<g id="edge3" class="edge">
<title>Node2&#45;&gt;Node4</title>
<path fill="none" stroke="midnightblue" d="M254.41,-112.48C223.75,-104.05 175.31,-90.67 124.1,-76.15"/>
<polygon fill="midnightblue" stroke="midnightblue" points="124.75,-72.69 114.17,-73.33 122.83,-79.43 124.75,-72.69"/>
</g>
<!-- Node5 -->
<g id="node5" class="node">
<title>Node5</title>
<g id="a_node5"><a xlink:title=" ">
<polygon fill="white" stroke="#bfbfbf" points="132.5,-56.5 132.5,-75.5 272.5,-75.5 272.5,-56.5 132.5,-56.5"/>
<text text-anchor="middle" x="202.5" y="-63.5" font-family="Helvetica" font-size="10.00">vsomeip/primitive_types.hpp</text>
</a>
</g>
</g>
<!-- Node2&#45;&gt;Node5 -->
<g id="edge4" class="edge">
<title>Node2&#45;&gt;Node5</title>
<path fill="none" stroke="midnightblue" d="M272.16,-112.32C259.34,-103.98 239.72,-91.21 224.56,-81.35"/>
<polygon fill="midnightblue" stroke="midnightblue" points="226.09,-78.17 215.8,-75.65 222.28,-84.04 226.09,-78.17"/>
</g>
<!-- Node6 -->
<g id="node6" class="node">
<title>Node6</title>
<g id="a_node6"><a xlink:title=" ">
<polygon fill="white" stroke="#bfbfbf" points="290.5,-56.5 290.5,-75.5 448.5,-75.5 448.5,-56.5 290.5,-56.5"/>
<text text-anchor="middle" x="369.5" y="-63.5" font-family="Helvetica" font-size="10.00">vsomeip/internal/serializable.hpp</text>
</a>
</g>
</g>
<!-- Node2&#45;&gt;Node6 -->
<g id="edge5" class="edge">
<title>Node2&#45;&gt;Node6</title>
<path fill="none" stroke="midnightblue" d="M299,-112.32C312.1,-103.9 332.21,-90.97 347.61,-81.07"/>
<polygon fill="midnightblue" stroke="midnightblue" points="349.52,-84.01 356.04,-75.65 345.73,-78.12 349.52,-84.01"/>
</g>
<!-- Node7 -->
<g id="node7" class="node">
<title>Node7</title>
<g id="a_node7"><a xlink:href="implementation_2service__discovery_2include_2enumeration__types_8hpp.html" target="_top" xlink:title=" ">
<polygon fill="white" stroke="black" points="466.5,-56.5 466.5,-75.5 584.5,-75.5 584.5,-56.5 466.5,-56.5"/>
<text text-anchor="middle" x="525.5" y="-63.5" font-family="Helvetica" font-size="10.00">enumeration_types.hpp</text>
</a>
</g>
</g>
<!-- Node2&#45;&gt;Node7 -->
<g id="edge6" class="edge">
<title>Node2&#45;&gt;Node7</title>
<path fill="none" stroke="midnightblue" d="M323.53,-112.44C365.31,-103.04 432.48,-87.93 477.77,-77.74"/>
<polygon fill="midnightblue" stroke="midnightblue" points="478.66,-81.13 487.65,-75.52 477.12,-74.3 478.66,-81.13"/>
</g>
<!-- Node9 -->
<g id="node9" class="node">
<title>Node9</title>
<g id="a_node9"><a xlink:href="message__element__impl_8hpp.html" target="_top" xlink:title=" ">
<polygon fill="white" stroke="black" points="602.5,-56.5 602.5,-75.5 740.5,-75.5 740.5,-56.5 602.5,-56.5"/>
<text text-anchor="middle" x="671.5" y="-63.5" font-family="Helvetica" font-size="10.00">message_element_impl.hpp</text>
</a>
</g>
</g>
<!-- Node2&#45;&gt;Node9 -->
<g id="edge8" class="edge">
<title>Node2&#45;&gt;Node9</title>
<path fill="none" stroke="midnightblue" d="M326.08,-115.32C391.23,-106.21 520.01,-88.19 600.6,-76.92"/>
<polygon fill="midnightblue" stroke="midnightblue" points="601.25,-80.36 610.67,-75.51 600.28,-73.43 601.25,-80.36"/>
</g>
<!-- Node8 -->
<g id="node8" class="node">
<title>Node8</title>
<g id="a_node8"><a xlink:title=" ">
<polygon fill="white" stroke="#bfbfbf" points="502.5,-0.5 502.5,-19.5 548.5,-19.5 548.5,-0.5 502.5,-0.5"/>
<text text-anchor="middle" x="525.5" y="-7.5" font-family="Helvetica" font-size="10.00">cstdint</text>
</a>
</g>
</g>
<!-- Node7&#45;&gt;Node8 -->
<g id="edge7" class="edge">
<title>Node7&#45;&gt;Node8</title>
<path fill="none" stroke="midnightblue" d="M525.5,-56.08C525.5,-49.01 525.5,-38.86 525.5,-29.99"/>
<polygon fill="midnightblue" stroke="midnightblue" points="529,-29.75 525.5,-19.75 522,-29.75 529,-29.75"/>
</g>
</g>
</svg>
