<?xml version="1.0" encoding="UTF-8" standalone="no"?>
<!DOCTYPE svg PUBLIC "-//W3C//DTD SVG 1.1//EN"
 "http://www.w3.org/Graphics/SVG/1.1/DTD/svg11.dtd">
<!-- Generated by graphviz version 2.44.0 (0)
 -->
<!-- Title: /home/ec2&#45;user/workspace/vsomeip/implementation/service_discovery/include/service_discovery.hpp Pages: 1 -->
<svg width="1323pt" height="251pt"
 viewBox="0.00 0.00 1322.72 251.00" xmlns="http://www.w3.org/2000/svg" xmlns:xlink="http://www.w3.org/1999/xlink">
<g id="graph0" class="graph" transform="scale(1 1) rotate(0) translate(4 247)">
<title>/home/ec2&#45;user/workspace/vsomeip/implementation/service_discovery/include/service_discovery.hpp</title>
<polygon fill="white" stroke="transparent" points="-4,4 -4,-247 1318.72,-247 1318.72,4 -4,4"/>
<!-- Node1 -->
<g id="node1" class="node">
<title>Node1</title>
<g id="a_node1"><a xlink:title=" ">
<polygon fill="#bfbfbf" stroke="black" points="555,-190.5 555,-242.5 689,-242.5 689,-190.5 555,-190.5"/>
<text text-anchor="start" x="563" y="-230.5" font-family="Helvetica" font-size="10.00">/home/ec2&#45;user/workspace</text>
<text text-anchor="start" x="563" y="-219.5" font-family="Helvetica" font-size="10.00">/vsomeip/implementation</text>
<text text-anchor="start" x="563" y="-208.5" font-family="Helvetica" font-size="10.00">/service_discovery/include</text>
<text text-anchor="middle" x="622" y="-197.5" font-family="Helvetica" font-size="10.00">/service_discovery.hpp</text>
</a>
</g>
</g>
<!-- Node2 -->
<g id="node2" class="node">
<title>Node2</title>
<g id="a_node2"><a xlink:title=" ">
<polygon fill="white" stroke="#bfbfbf" points="0,-0.5 0,-19.5 128,-19.5 128,-0.5 0,-0.5"/>
<text text-anchor="middle" x="64" y="-7.5" font-family="Helvetica" font-size="10.00">boost/asio/ip/address.hpp</text>
</a>
</g>
</g>
<!-- Node1&#45;&gt;Node2 -->
<g id="edge1" class="edge">
<title>Node1&#45;&gt;Node2</title>
<path fill="none" stroke="midnightblue" d="M554.88,-214.36C466.08,-211.05 305.74,-198.72 177,-154 121.48,-134.72 92.19,-138.01 63,-87 52.99,-69.51 55.28,-45.83 58.76,-29.58"/>
<polygon fill="midnightblue" stroke="midnightblue" points="62.2,-30.23 61.22,-19.68 55.41,-28.54 62.2,-30.23"/>
</g>
<!-- Node3 -->
<g id="node3" class="node">
<title>Node3</title>
<g id="a_node3"><a xlink:title=" ">
<polygon fill="white" stroke="#bfbfbf" points="351,-0.5 351,-19.5 491,-19.5 491,-0.5 351,-0.5"/>
<text text-anchor="middle" x="421" y="-7.5" font-family="Helvetica" font-size="10.00">vsomeip/primitive_types.hpp</text>
</a>
</g>
</g>
<!-- Node1&#45;&gt;Node3 -->
<g id="edge2" class="edge">
<title>Node1&#45;&gt;Node3</title>
<path fill="none" stroke="midnightblue" d="M554.88,-214.38C467.77,-208.87 318.7,-184.73 249,-87 241,-75.78 240.58,-66.91 249,-56 261.37,-39.97 306.23,-28.56 347.03,-21.23"/>
<polygon fill="midnightblue" stroke="midnightblue" points="347.76,-24.66 357.02,-19.5 346.57,-17.76 347.76,-24.66"/>
</g>
<!-- Node4 -->
<g id="node4" class="node">
<title>Node4</title>
<g id="a_node4"><a xlink:title=" ">
<polygon fill="white" stroke="#bfbfbf" points="1040,-123.5 1040,-153.5 1150,-153.5 1150,-123.5 1040,-123.5"/>
<text text-anchor="start" x="1048" y="-141.5" font-family="Helvetica" font-size="10.00">vsomeip/enumeration</text>
<text text-anchor="middle" x="1095" y="-130.5" font-family="Helvetica" font-size="10.00">_types.hpp</text>
</a>
</g>
</g>
<!-- Node1&#45;&gt;Node4 -->
<g id="edge3" class="edge">
<title>Node1&#45;&gt;Node4</title>
<path fill="none" stroke="midnightblue" d="M689.2,-206.94C768.31,-196.51 903.83,-177.58 1029.69,-154.17"/>
<polygon fill="midnightblue" stroke="midnightblue" points="1030.71,-157.54 1039.9,-152.26 1029.42,-150.66 1030.71,-157.54"/>
</g>
<!-- Node5 -->
<g id="node5" class="node">
<title>Node5</title>
<g id="a_node5"><a xlink:title=" ">
<polygon fill="white" stroke="#bfbfbf" points="1168.5,-129 1168.5,-148 1275.5,-148 1275.5,-129 1168.5,-129"/>
<text text-anchor="middle" x="1222" y="-136" font-family="Helvetica" font-size="10.00">vsomeip/handler.hpp</text>
</a>
</g>
</g>
<!-- Node1&#45;&gt;Node5 -->
<g id="edge4" class="edge">
<title>Node1&#45;&gt;Node5</title>
<path fill="none" stroke="midnightblue" d="M689.32,-210.23C791.37,-201.7 991.14,-182.84 1159,-154 1165.24,-152.93 1171.79,-151.62 1178.22,-150.24"/>
<polygon fill="midnightblue" stroke="midnightblue" points="1179.14,-153.62 1188.14,-148.03 1177.62,-146.79 1179.14,-153.62"/>
</g>
<!-- Node6 -->
<g id="node6" class="node">
<title>Node6</title>
<g id="a_node6"><a xlink:href="serviceinfo_8hpp.html" target="_top" xlink:title=" ">
<polygon fill="white" stroke="black" points="924,-123.5 924,-153.5 1022,-153.5 1022,-123.5 924,-123.5"/>
<text text-anchor="start" x="932" y="-141.5" font-family="Helvetica" font-size="10.00">../../routing/include</text>
<text text-anchor="middle" x="973" y="-130.5" font-family="Helvetica" font-size="10.00">/serviceinfo.hpp</text>
</a>
</g>
</g>
<!-- Node1&#45;&gt;Node6 -->
<g id="edge5" class="edge">
<title>Node1&#45;&gt;Node6</title>
<path fill="none" stroke="midnightblue" d="M689.26,-200.94C754.22,-186.87 851.64,-165.78 913.75,-152.33"/>
<polygon fill="midnightblue" stroke="midnightblue" points="914.75,-155.69 923.79,-150.16 913.27,-148.85 914.75,-155.69"/>
</g>
<!-- Node14 -->
<g id="node14" class="node">
<title>Node14</title>
<g id="a_node14"><a xlink:href="endpoint_8hpp.html" target="_top" xlink:title=" ">
<polygon fill="white" stroke="black" points="92,-56.5 92,-86.5 202,-86.5 202,-56.5 92,-56.5"/>
<text text-anchor="start" x="100" y="-74.5" font-family="Helvetica" font-size="10.00">../../endpoints/include</text>
<text text-anchor="middle" x="147" y="-63.5" font-family="Helvetica" font-size="10.00">/endpoint.hpp</text>
</a>
</g>
</g>
<!-- Node1&#45;&gt;Node14 -->
<g id="edge14" class="edge">
<title>Node1&#45;&gt;Node14</title>
<path fill="none" stroke="midnightblue" d="M554.86,-211.05C454.95,-203.47 272.8,-185.72 216,-154 191.52,-140.33 171.88,-114.36 159.91,-95.4"/>
<polygon fill="midnightblue" stroke="midnightblue" points="162.83,-93.48 154.66,-86.74 156.85,-97.11 162.83,-93.48"/>
</g>
<!-- Node17 -->
<g id="node17" class="node">
<title>Node17</title>
<g id="a_node17"><a xlink:href="service__discovery__host_8hpp.html" target="_top" xlink:title=" ">
<polygon fill="white" stroke="black" points="569,-123.5 569,-153.5 675,-153.5 675,-123.5 569,-123.5"/>
<text text-anchor="start" x="577" y="-141.5" font-family="Helvetica" font-size="10.00">../include/service</text>
<text text-anchor="middle" x="622" y="-130.5" font-family="Helvetica" font-size="10.00">_discovery_host.hpp</text>
</a>
</g>
</g>
<!-- Node1&#45;&gt;Node17 -->
<g id="edge19" class="edge">
<title>Node1&#45;&gt;Node17</title>
<path fill="none" stroke="midnightblue" d="M622,-190.19C622,-181.79 622,-172.44 622,-164.09"/>
<polygon fill="midnightblue" stroke="midnightblue" points="625.5,-163.85 622,-153.85 618.5,-163.85 625.5,-163.85"/>
</g>
<!-- Node6&#45;&gt;Node3 -->
<g id="edge13" class="edge">
<title>Node6&#45;&gt;Node3</title>
<path fill="none" stroke="midnightblue" d="M965.82,-123.34C955.32,-104.33 933.87,-71.18 905,-56 870.23,-37.72 629.97,-22.22 501.55,-15.13"/>
<polygon fill="midnightblue" stroke="midnightblue" points="501.55,-11.63 491.37,-14.58 501.17,-18.62 501.55,-11.63"/>
</g>
<!-- Node7 -->
<g id="node7" class="node">
<title>Node7</title>
<g id="a_node7"><a xlink:title=" ">
<polygon fill="white" stroke="#bfbfbf" points="1194,-62 1194,-81 1240,-81 1240,-62 1194,-62"/>
<text text-anchor="middle" x="1217" y="-69" font-family="Helvetica" font-size="10.00">atomic</text>
</a>
</g>
</g>
<!-- Node6&#45;&gt;Node7 -->
<g id="edge6" class="edge">
<title>Node6&#45;&gt;Node7</title>
<path fill="none" stroke="midnightblue" d="M1022.03,-125.19C1025.07,-124.44 1028.07,-123.71 1031,-123 1099.32,-106.48 1118.45,-109.61 1185,-87 1186.67,-86.43 1188.37,-85.81 1190.07,-85.15"/>
<polygon fill="midnightblue" stroke="midnightblue" points="1191.79,-88.22 1199.64,-81.11 1189.07,-81.77 1191.79,-88.22"/>
</g>
<!-- Node8 -->
<g id="node8" class="node">
<title>Node8</title>
<g id="a_node8"><a xlink:title=" ">
<polygon fill="white" stroke="#bfbfbf" points="795.5,-0.5 795.5,-19.5 848.5,-19.5 848.5,-0.5 795.5,-0.5"/>
<text text-anchor="middle" x="822" y="-7.5" font-family="Helvetica" font-size="10.00">memory</text>
</a>
</g>
</g>
<!-- Node6&#45;&gt;Node8 -->
<g id="edge7" class="edge">
<title>Node6&#45;&gt;Node8</title>
<path fill="none" stroke="midnightblue" d="M1022.28,-124.79C1025.22,-124.15 1028.15,-123.55 1031,-123 1150.73,-100.01 1379.04,-146.18 1297,-56 1267.66,-23.75 965.36,-14.11 858.87,-11.7"/>
<polygon fill="midnightblue" stroke="midnightblue" points="858.69,-8.2 848.61,-11.48 858.53,-15.2 858.69,-8.2"/>
</g>
<!-- Node9 -->
<g id="node9" class="node">
<title>Node9</title>
<g id="a_node9"><a xlink:title=" ">
<polygon fill="white" stroke="#bfbfbf" points="1258,-62 1258,-81 1288,-81 1288,-62 1258,-62"/>
<text text-anchor="middle" x="1273" y="-69" font-family="Helvetica" font-size="10.00">set</text>
</a>
</g>
</g>
<!-- Node6&#45;&gt;Node9 -->
<g id="edge8" class="edge">
<title>Node6&#45;&gt;Node9</title>
<path fill="none" stroke="midnightblue" d="M1022.3,-124.89C1025.24,-124.22 1028.15,-123.59 1031,-123 1127.16,-103.07 1156.87,-121 1249,-87 1249.88,-86.68 1250.76,-86.32 1251.64,-85.93"/>
<polygon fill="midnightblue" stroke="midnightblue" points="1253.54,-88.89 1260.75,-81.12 1250.27,-82.7 1253.54,-88.89"/>
</g>
<!-- Node10 -->
<g id="node10" class="node">
<title>Node10</title>
<g id="a_node10"><a xlink:title=" ">
<polygon fill="white" stroke="#bfbfbf" points="952.5,-62 952.5,-81 993.5,-81 993.5,-62 952.5,-62"/>
<text text-anchor="middle" x="973" y="-69" font-family="Helvetica" font-size="10.00">string</text>
</a>
</g>
</g>
<!-- Node6&#45;&gt;Node10 -->
<g id="edge9" class="edge">
<title>Node6&#45;&gt;Node10</title>
<path fill="none" stroke="midnightblue" d="M973,-123.4C973,-114.06 973,-101.71 973,-91.52"/>
<polygon fill="midnightblue" stroke="midnightblue" points="976.5,-91.19 973,-81.19 969.5,-91.19 976.5,-91.19"/>
</g>
<!-- Node11 -->
<g id="node11" class="node">
<title>Node11</title>
<g id="a_node11"><a xlink:title=" ">
<polygon fill="white" stroke="#bfbfbf" points="850,-62 850,-81 896,-81 896,-62 850,-62"/>
<text text-anchor="middle" x="873" y="-69" font-family="Helvetica" font-size="10.00">chrono</text>
</a>
</g>
</g>
<!-- Node6&#45;&gt;Node11 -->
<g id="edge10" class="edge">
<title>Node6&#45;&gt;Node11</title>
<path fill="none" stroke="midnightblue" d="M951.3,-123.4C934.53,-112.5 911.43,-97.48 894.67,-86.58"/>
<polygon fill="midnightblue" stroke="midnightblue" points="896.38,-83.52 886.09,-81.01 892.56,-89.39 896.38,-83.52"/>
</g>
<!-- Node12 -->
<g id="node12" class="node">
<title>Node12</title>
<g id="a_node12"><a xlink:title=" ">
<polygon fill="white" stroke="#bfbfbf" points="1012,-62 1012,-81 1056,-81 1056,-62 1012,-62"/>
<text text-anchor="middle" x="1034" y="-69" font-family="Helvetica" font-size="10.00">mutex</text>
</a>
</g>
</g>
<!-- Node6&#45;&gt;Node12 -->
<g id="edge11" class="edge">
<title>Node6&#45;&gt;Node12</title>
<path fill="none" stroke="midnightblue" d="M986.24,-123.4C995.84,-113.16 1008.85,-99.3 1018.87,-88.62"/>
<polygon fill="midnightblue" stroke="midnightblue" points="1021.55,-90.88 1025.84,-81.19 1016.45,-86.09 1021.55,-90.88"/>
</g>
<!-- Node13 -->
<g id="node13" class="node">
<title>Node13</title>
<g id="a_node13"><a xlink:title=" ">
<polygon fill="white" stroke="#bfbfbf" points="1074,-62 1074,-81 1176,-81 1176,-62 1074,-62"/>
<text text-anchor="middle" x="1125" y="-69" font-family="Helvetica" font-size="10.00">vsomeip/export.hpp</text>
</a>
</g>
</g>
<!-- Node6&#45;&gt;Node13 -->
<g id="edge12" class="edge">
<title>Node6&#45;&gt;Node13</title>
<path fill="none" stroke="midnightblue" d="M1005.98,-123.4C1032.77,-111.94 1070.19,-95.94 1095.88,-84.95"/>
<polygon fill="midnightblue" stroke="midnightblue" points="1097.29,-88.16 1105.11,-81.01 1094.54,-81.72 1097.29,-88.16"/>
</g>
<!-- Node14&#45;&gt;Node2 -->
<g id="edge15" class="edge">
<title>Node14&#45;&gt;Node2</title>
<path fill="none" stroke="midnightblue" d="M127.33,-56.4C114.4,-47.13 97.51,-35.03 84.43,-25.65"/>
<polygon fill="midnightblue" stroke="midnightblue" points="86.24,-22.64 76.08,-19.66 82.17,-28.33 86.24,-22.64"/>
</g>
<!-- Node14&#45;&gt;Node3 -->
<g id="edge16" class="edge">
<title>Node14&#45;&gt;Node3</title>
<path fill="none" stroke="midnightblue" d="M202.12,-58.53C251.72,-47.76 323.95,-32.07 371.68,-21.71"/>
<polygon fill="midnightblue" stroke="midnightblue" points="372.45,-25.12 381.48,-19.58 370.97,-18.28 372.45,-25.12"/>
</g>
<!-- Node15 -->
<g id="node15" class="node">
<title>Node15</title>
<g id="a_node15"><a xlink:title=" ">
<polygon fill="white" stroke="#bfbfbf" points="212,-0.5 212,-19.5 330,-19.5 330,-0.5 212,-0.5"/>
<text text-anchor="middle" x="271" y="-7.5" font-family="Helvetica" font-size="10.00">vsomeip/constants.hpp</text>
</a>
</g>
</g>
<!-- Node14&#45;&gt;Node15 -->
<g id="edge17" class="edge">
<title>Node14&#45;&gt;Node15</title>
<path fill="none" stroke="midnightblue" d="M176.39,-56.4C196.82,-46.59 223.86,-33.62 243.8,-24.05"/>
<polygon fill="midnightblue" stroke="midnightblue" points="245.46,-27.14 252.96,-19.66 242.43,-20.83 245.46,-27.14"/>
</g>
<!-- Node16 -->
<g id="node16" class="node">
<title>Node16</title>
<g id="a_node16"><a xlink:title=" ">
<polygon fill="white" stroke="#bfbfbf" points="146.5,-0.5 146.5,-19.5 189.5,-19.5 189.5,-0.5 146.5,-0.5"/>
<text text-anchor="middle" x="168" y="-7.5" font-family="Helvetica" font-size="10.00">vector</text>
</a>
</g>
</g>
<!-- Node14&#45;&gt;Node16 -->
<g id="edge18" class="edge">
<title>Node14&#45;&gt;Node16</title>
<path fill="none" stroke="midnightblue" d="M151.98,-56.4C154.84,-48.29 158.47,-38.01 161.55,-29.28"/>
<polygon fill="midnightblue" stroke="midnightblue" points="164.92,-30.25 164.94,-19.66 158.32,-27.92 164.92,-30.25"/>
</g>
<!-- Node17&#45;&gt;Node2 -->
<g id="edge23" class="edge">
<title>Node17&#45;&gt;Node2</title>
<path fill="none" stroke="midnightblue" d="M568.82,-135.96C440.04,-131.76 119.36,-118.23 83,-87 66.75,-73.04 63.3,-47.49 63.06,-29.9"/>
<polygon fill="midnightblue" stroke="midnightblue" points="66.56,-29.75 63.25,-19.68 59.56,-29.62 66.56,-29.75"/>
</g>
<!-- Node17&#45;&gt;Node8 -->
<g id="edge21" class="edge">
<title>Node17&#45;&gt;Node8</title>
<path fill="none" stroke="midnightblue" d="M675.18,-130.96C708.63,-124.53 751,-111.85 781,-87 799.09,-72.02 810.39,-46.9 816.44,-29.68"/>
<polygon fill="midnightblue" stroke="midnightblue" points="819.93,-30.27 819.68,-19.68 813.27,-28.11 819.93,-30.27"/>
</g>
<!-- Node17&#45;&gt;Node11 -->
<g id="edge22" class="edge">
<title>Node17&#45;&gt;Node11</title>
<path fill="none" stroke="midnightblue" d="M675.33,-127.11C718.97,-118.08 782.07,-103.84 836,-87 838.42,-86.24 840.91,-85.41 843.39,-84.53"/>
<polygon fill="midnightblue" stroke="midnightblue" points="844.69,-87.78 852.83,-81 842.24,-81.22 844.69,-87.78"/>
</g>
<!-- Node18 -->
<g id="node18" class="node">
<title>Node18</title>
<g id="a_node18"><a xlink:title=" ">
<polygon fill="white" stroke="#bfbfbf" points="626.5,-0.5 626.5,-19.5 661.5,-19.5 661.5,-0.5 626.5,-0.5"/>
<text text-anchor="middle" x="644" y="-7.5" font-family="Helvetica" font-size="10.00">map</text>
</a>
</g>
</g>
<!-- Node17&#45;&gt;Node18 -->
<g id="edge20" class="edge">
<title>Node17&#45;&gt;Node18</title>
<path fill="none" stroke="midnightblue" d="M675.31,-133.53C706.97,-128.1 744.78,-115.59 765,-87 772.96,-75.75 772.86,-67.31 765,-56 744.13,-25.97 700.71,-15.94 671.97,-12.61"/>
<polygon fill="midnightblue" stroke="midnightblue" points="672.03,-9.11 661.74,-11.64 671.37,-16.07 672.03,-9.11"/>
</g>
<!-- Node19 -->
<g id="node19" class="node">
<title>Node19</title>
<g id="a_node19"><a xlink:title=" ">
<polygon fill="white" stroke="#bfbfbf" points="628,-62 628,-81 756,-81 756,-62 628,-62"/>
<text text-anchor="middle" x="692" y="-69" font-family="Helvetica" font-size="10.00">boost/asio/io_service.hpp</text>
</a>
</g>
</g>
<!-- Node17&#45;&gt;Node19 -->
<g id="edge24" class="edge">
<title>Node17&#45;&gt;Node19</title>
<path fill="none" stroke="midnightblue" d="M637.19,-123.4C648.32,-113.06 663.44,-99.02 674.97,-88.31"/>
<polygon fill="midnightblue" stroke="midnightblue" points="677.69,-90.56 682.64,-81.19 672.93,-85.43 677.69,-90.56"/>
</g>
<!-- Node20 -->
<g id="node20" class="node">
<title>Node20</title>
<g id="a_node20"><a xlink:href="implementation_2routing_2include_2function__types_8hpp.html" target="_top" xlink:title=" ">
<polygon fill="white" stroke="black" points="258,-56.5 258,-86.5 360,-86.5 360,-56.5 258,-56.5"/>
<text text-anchor="start" x="266" y="-74.5" font-family="Helvetica" font-size="10.00">../../routing/include</text>
<text text-anchor="middle" x="309" y="-63.5" font-family="Helvetica" font-size="10.00">/function_types.hpp</text>
</a>
</g>
</g>
<!-- Node17&#45;&gt;Node20 -->
<g id="edge25" class="edge">
<title>Node17&#45;&gt;Node20</title>
<path fill="none" stroke="midnightblue" d="M568.56,-127.48C519.47,-118.13 444.46,-103.47 370.05,-87.18"/>
<polygon fill="midnightblue" stroke="midnightblue" points="370.55,-83.71 360.03,-84.98 369.05,-90.55 370.55,-83.71"/>
</g>
<!-- Node21 -->
<g id="node21" class="node">
<title>Node21</title>
<g id="a_node21"><a xlink:href="types_8hpp.html" target="_top" xlink:title=" ">
<polygon fill="white" stroke="black" points="378,-56.5 378,-86.5 476,-86.5 476,-56.5 378,-56.5"/>
<text text-anchor="start" x="386" y="-74.5" font-family="Helvetica" font-size="10.00">../../routing/include</text>
<text text-anchor="middle" x="427" y="-63.5" font-family="Helvetica" font-size="10.00">/types.hpp</text>
</a>
</g>
</g>
<!-- Node17&#45;&gt;Node21 -->
<g id="edge26" class="edge">
<title>Node17&#45;&gt;Node21</title>
<path fill="none" stroke="midnightblue" d="M579.69,-123.4C550.05,-113.52 510.26,-100.25 478.73,-89.74"/>
<polygon fill="midnightblue" stroke="midnightblue" points="479.82,-86.42 469.23,-86.58 477.61,-93.06 479.82,-86.42"/>
</g>
<!-- Node22 -->
<g id="node22" class="node">
<title>Node22</title>
<g id="a_node22"><a xlink:title=" ">
<polygon fill="white" stroke="#bfbfbf" points="494.5,-62 494.5,-81 609.5,-81 609.5,-62 494.5,-62"/>
<text text-anchor="middle" x="552" y="-69" font-family="Helvetica" font-size="10.00">vsomeip/message.hpp</text>
</a>
</g>
</g>
<!-- Node17&#45;&gt;Node22 -->
<g id="edge32" class="edge">
<title>Node17&#45;&gt;Node22</title>
<path fill="none" stroke="midnightblue" d="M606.81,-123.4C595.68,-113.06 580.56,-99.02 569.03,-88.31"/>
<polygon fill="midnightblue" stroke="midnightblue" points="571.07,-85.43 561.36,-81.19 566.31,-90.56 571.07,-85.43"/>
</g>
<!-- Node21&#45;&gt;Node2 -->
<g id="edge29" class="edge">
<title>Node21&#45;&gt;Node2</title>
<path fill="none" stroke="midnightblue" d="M377.71,-57.83C374.77,-57.18 371.85,-56.57 369,-56 325.85,-47.44 212.37,-31.32 136.67,-20.88"/>
<polygon fill="midnightblue" stroke="midnightblue" points="137.09,-17.41 126.71,-19.51 136.14,-24.34 137.09,-17.41"/>
</g>
<!-- Node21&#45;&gt;Node3 -->
<g id="edge30" class="edge">
<title>Node21&#45;&gt;Node3</title>
<path fill="none" stroke="midnightblue" d="M425.58,-56.4C424.78,-48.47 423.77,-38.46 422.9,-29.86"/>
<polygon fill="midnightblue" stroke="midnightblue" points="426.36,-29.26 421.87,-19.66 419.39,-29.96 426.36,-29.26"/>
</g>
<!-- Node21&#45;&gt;Node8 -->
<g id="edge28" class="edge">
<title>Node21&#45;&gt;Node8</title>
<path fill="none" stroke="midnightblue" d="M476.28,-57.78C479.22,-57.15 482.15,-56.55 485,-56 593.24,-35.31 722.84,-20.86 785.08,-14.56"/>
<polygon fill="midnightblue" stroke="midnightblue" points="785.59,-18.03 795.19,-13.55 784.89,-11.06 785.59,-18.03"/>
</g>
<!-- Node21&#45;&gt;Node15 -->
<g id="edge31" class="edge">
<title>Node21&#45;&gt;Node15</title>
<path fill="none" stroke="midnightblue" d="M390.03,-56.4C363.62,-46.33 328.44,-32.91 303.19,-23.28"/>
<polygon fill="midnightblue" stroke="midnightblue" points="304.29,-19.95 293.7,-19.66 301.8,-26.49 304.29,-19.95"/>
</g>
<!-- Node21&#45;&gt;Node18 -->
<g id="edge27" class="edge">
<title>Node21&#45;&gt;Node18</title>
<path fill="none" stroke="midnightblue" d="M476.24,-57C519.53,-45.13 580.98,-28.28 616.23,-18.61"/>
<polygon fill="midnightblue" stroke="midnightblue" points="617.57,-21.88 626.29,-15.86 615.72,-15.13 617.57,-21.88"/>
</g>
</g>
</svg>
