<?xml version="1.0" encoding="UTF-8" standalone="no"?>
<!DOCTYPE svg PUBLIC "-//W3C//DTD SVG 1.1//EN"
 "http://www.w3.org/Graphics/SVG/1.1/DTD/svg11.dtd">
<!-- Generated by graphviz version 2.44.0 (0)
 -->
<!-- Title: /home/ec2&#45;user/workspace/vsomeip/implementation/endpoints/include/server_endpoint_impl.hpp Pages: 1 -->
<svg width="1534pt" height="239pt"
 viewBox="0.00 0.00 1534.00 239.00" xmlns="http://www.w3.org/2000/svg" xmlns:xlink="http://www.w3.org/1999/xlink">
<g id="graph0" class="graph" transform="scale(1 1) rotate(0) translate(4 235)">
<title>/home/ec2&#45;user/workspace/vsomeip/implementation/endpoints/include/server_endpoint_impl.hpp</title>
<polygon fill="white" stroke="transparent" points="-4,4 -4,-235 1530,-235 1530,4 -4,4"/>
<!-- Node1 -->
<g id="node1" class="node">
<title>Node1</title>
<g id="a_node1"><a xlink:title=" ">
<polygon fill="#bfbfbf" stroke="black" points="855,-178.5 855,-230.5 989,-230.5 989,-178.5 855,-178.5"/>
<text text-anchor="start" x="863" y="-218.5" font-family="Helvetica" font-size="10.00">/home/ec2&#45;user/workspace</text>
<text text-anchor="start" x="863" y="-207.5" font-family="Helvetica" font-size="10.00">/vsomeip/implementation</text>
<text text-anchor="start" x="863" y="-196.5" font-family="Helvetica" font-size="10.00">/endpoints/include/server</text>
<text text-anchor="middle" x="922" y="-185.5" font-family="Helvetica" font-size="10.00">_endpoint_impl.hpp</text>
</a>
</g>
</g>
<!-- Node2 -->
<g id="node2" class="node">
<title>Node2</title>
<g id="a_node2"><a xlink:href="local__tcp__server__endpoint__impl_8hpp.html" target="_top" xlink:title=" ">
<polygon fill="white" stroke="black" points="846,-89.5 846,-141.5 998,-141.5 998,-89.5 846,-89.5"/>
<text text-anchor="start" x="854" y="-129.5" font-family="Helvetica" font-size="10.00">/home/ec2&#45;user/workspace</text>
<text text-anchor="start" x="854" y="-118.5" font-family="Helvetica" font-size="10.00">/vsomeip/implementation</text>
<text text-anchor="start" x="854" y="-107.5" font-family="Helvetica" font-size="10.00">/endpoints/include/local</text>
<text text-anchor="middle" x="922" y="-96.5" font-family="Helvetica" font-size="10.00">_tcp_server_endpoint_impl.hpp</text>
</a>
</g>
</g>
<!-- Node1&#45;&gt;Node2 -->
<g id="edge1" class="edge">
<title>Node1&#45;&gt;Node2</title>
<path fill="none" stroke="midnightblue" d="M922,-168.19C922,-159.28 922,-149.9 922,-141.61"/>
<polygon fill="midnightblue" stroke="midnightblue" points="918.5,-168.34 922,-178.34 925.5,-168.34 918.5,-168.34"/>
</g>
<!-- Node7 -->
<g id="node7" class="node">
<title>Node7</title>
<g id="a_node7"><a xlink:href="local__uds__server__endpoint__impl_8hpp.html" target="_top" xlink:title=" ">
<polygon fill="white" stroke="black" points="1158,-89.5 1158,-141.5 1312,-141.5 1312,-89.5 1158,-89.5"/>
<text text-anchor="start" x="1166" y="-129.5" font-family="Helvetica" font-size="10.00">/home/ec2&#45;user/workspace</text>
<text text-anchor="start" x="1166" y="-118.5" font-family="Helvetica" font-size="10.00">/vsomeip/implementation</text>
<text text-anchor="start" x="1166" y="-107.5" font-family="Helvetica" font-size="10.00">/endpoints/include/local</text>
<text text-anchor="middle" x="1235" y="-96.5" font-family="Helvetica" font-size="10.00">_uds_server_endpoint_impl.hpp</text>
</a>
</g>
</g>
<!-- Node1&#45;&gt;Node7 -->
<g id="edge6" class="edge">
<title>Node1&#45;&gt;Node7</title>
<path fill="none" stroke="midnightblue" d="M998.93,-182.12C1047.26,-168.68 1109.38,-151.42 1157.77,-137.97"/>
<polygon fill="midnightblue" stroke="midnightblue" points="997.84,-178.79 989.15,-184.84 999.72,-185.53 997.84,-178.79"/>
</g>
<!-- Node10 -->
<g id="node10" class="node">
<title>Node10</title>
<g id="a_node10"><a xlink:href="tcp__server__endpoint__impl_8hpp.html" target="_top" xlink:title=" ">
<polygon fill="white" stroke="black" points="313,-89.5 313,-141.5 457,-141.5 457,-89.5 313,-89.5"/>
<text text-anchor="start" x="321" y="-129.5" font-family="Helvetica" font-size="10.00">/home/ec2&#45;user/workspace</text>
<text text-anchor="start" x="321" y="-118.5" font-family="Helvetica" font-size="10.00">/vsomeip/implementation</text>
<text text-anchor="start" x="321" y="-107.5" font-family="Helvetica" font-size="10.00">/endpoints/include/tcp_server</text>
<text text-anchor="middle" x="385" y="-96.5" font-family="Helvetica" font-size="10.00">_endpoint_impl.hpp</text>
</a>
</g>
</g>
<!-- Node1&#45;&gt;Node10 -->
<g id="edge9" class="edge">
<title>Node1&#45;&gt;Node10</title>
<path fill="none" stroke="midnightblue" d="M844.93,-197.16C753.69,-188.72 597.51,-171.34 466,-142 463.12,-141.36 460.2,-140.66 457.26,-139.92"/>
<polygon fill="midnightblue" stroke="midnightblue" points="844.64,-200.64 854.91,-198.07 845.27,-193.67 844.64,-200.64"/>
</g>
<!-- Node14 -->
<g id="node14" class="node">
<title>Node14</title>
<g id="a_node14"><a xlink:href="udp__server__endpoint__impl_8hpp.html" target="_top" xlink:title=" ">
<polygon fill="white" stroke="black" points="475,-89.5 475,-141.5 621,-141.5 621,-89.5 475,-89.5"/>
<text text-anchor="start" x="483" y="-129.5" font-family="Helvetica" font-size="10.00">/home/ec2&#45;user/workspace</text>
<text text-anchor="start" x="483" y="-118.5" font-family="Helvetica" font-size="10.00">/vsomeip/implementation</text>
<text text-anchor="start" x="483" y="-107.5" font-family="Helvetica" font-size="10.00">/endpoints/include/udp_server</text>
<text text-anchor="middle" x="548" y="-96.5" font-family="Helvetica" font-size="10.00">_endpoint_impl.hpp</text>
</a>
</g>
</g>
<!-- Node1&#45;&gt;Node14 -->
<g id="edge14" class="edge">
<title>Node1&#45;&gt;Node14</title>
<path fill="none" stroke="midnightblue" d="M844.83,-185.55C779.19,-170.28 685.6,-148.51 621.15,-133.52"/>
<polygon fill="midnightblue" stroke="midnightblue" points="844.17,-188.99 854.7,-187.85 845.76,-182.17 844.17,-188.99"/>
</g>
<!-- Node16 -->
<g id="node16" class="node">
<title>Node16</title>
<g id="a_node16"><a xlink:href="server__endpoint__impl_8cpp.html" target="_top" xlink:title=" ">
<polygon fill="white" stroke="black" points="1330,-89.5 1330,-141.5 1480,-141.5 1480,-89.5 1330,-89.5"/>
<text text-anchor="start" x="1338" y="-129.5" font-family="Helvetica" font-size="10.00">/home/ec2&#45;user/workspace</text>
<text text-anchor="start" x="1338" y="-118.5" font-family="Helvetica" font-size="10.00">/vsomeip/implementation</text>
<text text-anchor="start" x="1338" y="-107.5" font-family="Helvetica" font-size="10.00">/endpoints/src/server_endpoint</text>
<text text-anchor="middle" x="1405" y="-96.5" font-family="Helvetica" font-size="10.00">_impl.cpp</text>
</a>
</g>
</g>
<!-- Node1&#45;&gt;Node16 -->
<g id="edge19" class="edge">
<title>Node1&#45;&gt;Node16</title>
<path fill="none" stroke="midnightblue" d="M999.36,-194.88C1080.19,-185.1 1210.41,-167.18 1321,-142 1323.82,-141.36 1326.69,-140.67 1329.58,-139.95"/>
<polygon fill="midnightblue" stroke="midnightblue" points="998.77,-191.42 989.26,-196.09 999.61,-198.37 998.77,-191.42"/>
</g>
<!-- Node3 -->
<g id="node3" class="node">
<title>Node3</title>
<g id="a_node3"><a xlink:href="endpoint__manager__base_8cpp.html" target="_top" xlink:title=" ">
<polygon fill="white" stroke="black" points="784,-0.5 784,-52.5 918,-52.5 918,-0.5 784,-0.5"/>
<text text-anchor="start" x="792" y="-40.5" font-family="Helvetica" font-size="10.00">/home/ec2&#45;user/workspace</text>
<text text-anchor="start" x="792" y="-29.5" font-family="Helvetica" font-size="10.00">/vsomeip/implementation</text>
<text text-anchor="start" x="792" y="-18.5" font-family="Helvetica" font-size="10.00">/endpoints/src/endpoint</text>
<text text-anchor="middle" x="851" y="-7.5" font-family="Helvetica" font-size="10.00">_manager_base.cpp</text>
</a>
</g>
</g>
<!-- Node2&#45;&gt;Node3 -->
<g id="edge2" class="edge">
<title>Node2&#45;&gt;Node3</title>
<path fill="none" stroke="midnightblue" d="M895.07,-81.5C887.25,-71.92 878.84,-61.62 871.49,-52.61"/>
<polygon fill="midnightblue" stroke="midnightblue" points="892.43,-83.8 901.46,-89.34 897.85,-79.38 892.43,-83.8"/>
</g>
<!-- Node4 -->
<g id="node4" class="node">
<title>Node4</title>
<g id="a_node4"><a xlink:href="endpoint__manager__impl_8cpp.html" target="_top" xlink:title=" ">
<polygon fill="white" stroke="black" points="480,-0.5 480,-52.5 614,-52.5 614,-0.5 480,-0.5"/>
<text text-anchor="start" x="488" y="-40.5" font-family="Helvetica" font-size="10.00">/home/ec2&#45;user/workspace</text>
<text text-anchor="start" x="488" y="-29.5" font-family="Helvetica" font-size="10.00">/vsomeip/implementation</text>
<text text-anchor="start" x="488" y="-18.5" font-family="Helvetica" font-size="10.00">/endpoints/src/endpoint</text>
<text text-anchor="middle" x="547" y="-7.5" font-family="Helvetica" font-size="10.00">_manager_impl.cpp</text>
</a>
</g>
</g>
<!-- Node2&#45;&gt;Node4 -->
<g id="edge3" class="edge">
<title>Node2&#45;&gt;Node4</title>
<path fill="none" stroke="midnightblue" d="M835.63,-99.6C775.56,-88.53 693.86,-72.1 623,-53 620.04,-52.2 617.03,-51.35 614,-50.47"/>
<polygon fill="midnightblue" stroke="midnightblue" points="835.36,-103.11 845.83,-101.46 836.62,-96.22 835.36,-103.11"/>
</g>
<!-- Node5 -->
<g id="node5" class="node">
<title>Node5</title>
<g id="a_node5"><a xlink:href="local__tcp__client__endpoint__impl_8cpp.html" target="_top" xlink:title=" ">
<polygon fill="white" stroke="black" points="936,-0.5 936,-52.5 1070,-52.5 1070,-0.5 936,-0.5"/>
<text text-anchor="start" x="944" y="-40.5" font-family="Helvetica" font-size="10.00">/home/ec2&#45;user/workspace</text>
<text text-anchor="start" x="944" y="-29.5" font-family="Helvetica" font-size="10.00">/vsomeip/implementation</text>
<text text-anchor="start" x="944" y="-18.5" font-family="Helvetica" font-size="10.00">/endpoints/src/local_tcp</text>
<text text-anchor="middle" x="1003" y="-7.5" font-family="Helvetica" font-size="10.00">_client_endpoint_impl.cpp</text>
</a>
</g>
</g>
<!-- Node2&#45;&gt;Node5 -->
<g id="edge4" class="edge">
<title>Node2&#45;&gt;Node5</title>
<path fill="none" stroke="midnightblue" d="M952.45,-81.79C961.45,-72.13 971.15,-61.71 979.62,-52.61"/>
<polygon fill="midnightblue" stroke="midnightblue" points="949.68,-79.63 945.43,-89.34 954.8,-84.4 949.68,-79.63"/>
</g>
<!-- Node6 -->
<g id="node6" class="node">
<title>Node6</title>
<g id="a_node6"><a xlink:href="local__tcp__server__endpoint__impl_8cpp.html" target="_top" xlink:title=" ">
<polygon fill="white" stroke="black" points="1088,-0.5 1088,-52.5 1222,-52.5 1222,-0.5 1088,-0.5"/>
<text text-anchor="start" x="1096" y="-40.5" font-family="Helvetica" font-size="10.00">/home/ec2&#45;user/workspace</text>
<text text-anchor="start" x="1096" y="-29.5" font-family="Helvetica" font-size="10.00">/vsomeip/implementation</text>
<text text-anchor="start" x="1096" y="-18.5" font-family="Helvetica" font-size="10.00">/endpoints/src/local_tcp</text>
<text text-anchor="middle" x="1155" y="-7.5" font-family="Helvetica" font-size="10.00">_server_endpoint_impl.cpp</text>
</a>
</g>
</g>
<!-- Node2&#45;&gt;Node6 -->
<g id="edge5" class="edge">
<title>Node2&#45;&gt;Node6</title>
<path fill="none" stroke="midnightblue" d="M998.71,-85.86C1027.55,-75.09 1060.1,-62.94 1087.99,-52.52"/>
<polygon fill="midnightblue" stroke="midnightblue" points="997.22,-82.68 989.08,-89.45 999.67,-89.23 997.22,-82.68"/>
</g>
<!-- Node8 -->
<g id="node8" class="node">
<title>Node8</title>
<g id="a_node8"><a xlink:href="local__uds__client__endpoint__impl_8cpp.html" target="_top" xlink:title=" ">
<polygon fill="white" stroke="black" points="1240,-0.5 1240,-52.5 1374,-52.5 1374,-0.5 1240,-0.5"/>
<text text-anchor="start" x="1248" y="-40.5" font-family="Helvetica" font-size="10.00">/home/ec2&#45;user/workspace</text>
<text text-anchor="start" x="1248" y="-29.5" font-family="Helvetica" font-size="10.00">/vsomeip/implementation</text>
<text text-anchor="start" x="1248" y="-18.5" font-family="Helvetica" font-size="10.00">/endpoints/src/local_uds</text>
<text text-anchor="middle" x="1307" y="-7.5" font-family="Helvetica" font-size="10.00">_client_endpoint_impl.cpp</text>
</a>
</g>
</g>
<!-- Node7&#45;&gt;Node8 -->
<g id="edge7" class="edge">
<title>Node7&#45;&gt;Node8</title>
<path fill="none" stroke="midnightblue" d="M1262.31,-81.5C1270.24,-71.92 1278.76,-61.62 1286.22,-52.61"/>
<polygon fill="midnightblue" stroke="midnightblue" points="1259.5,-79.4 1255.83,-89.34 1264.9,-83.86 1259.5,-79.4"/>
</g>
<!-- Node9 -->
<g id="node9" class="node">
<title>Node9</title>
<g id="a_node9"><a xlink:href="local__uds__server__endpoint__impl_8cpp.html" target="_top" xlink:title=" ">
<polygon fill="white" stroke="black" points="1392,-0.5 1392,-52.5 1526,-52.5 1526,-0.5 1392,-0.5"/>
<text text-anchor="start" x="1400" y="-40.5" font-family="Helvetica" font-size="10.00">/home/ec2&#45;user/workspace</text>
<text text-anchor="start" x="1400" y="-29.5" font-family="Helvetica" font-size="10.00">/vsomeip/implementation</text>
<text text-anchor="start" x="1400" y="-18.5" font-family="Helvetica" font-size="10.00">/endpoints/src/local_uds</text>
<text text-anchor="middle" x="1459" y="-7.5" font-family="Helvetica" font-size="10.00">_server_endpoint_impl.cpp</text>
</a>
</g>
</g>
<!-- Node7&#45;&gt;Node9 -->
<g id="edge8" class="edge">
<title>Node7&#45;&gt;Node9</title>
<path fill="none" stroke="midnightblue" d="M1309.11,-85.72C1336.75,-74.98 1367.88,-62.89 1394.58,-52.52"/>
<polygon fill="midnightblue" stroke="midnightblue" points="1307.54,-82.57 1299.49,-89.45 1310.08,-89.09 1307.54,-82.57"/>
</g>
<!-- Node10&#45;&gt;Node4 -->
<g id="edge10" class="edge">
<title>Node10&#45;&gt;Node4</title>
<path fill="none" stroke="midnightblue" d="M440.87,-84.49C460.23,-74.1 481.7,-62.57 500.25,-52.61"/>
<polygon fill="midnightblue" stroke="midnightblue" points="439.01,-81.52 431.86,-89.34 442.32,-87.69 439.01,-81.52"/>
</g>
<!-- Node11 -->
<g id="node11" class="node">
<title>Node11</title>
<g id="a_node11"><a xlink:href="tcp__server__endpoint__impl_8cpp.html" target="_top" xlink:title=" ">
<polygon fill="white" stroke="black" points="0,-0.5 0,-52.5 134,-52.5 134,-0.5 0,-0.5"/>
<text text-anchor="start" x="8" y="-40.5" font-family="Helvetica" font-size="10.00">/home/ec2&#45;user/workspace</text>
<text text-anchor="start" x="8" y="-29.5" font-family="Helvetica" font-size="10.00">/vsomeip/implementation</text>
<text text-anchor="start" x="8" y="-18.5" font-family="Helvetica" font-size="10.00">/endpoints/src/tcp_server</text>
<text text-anchor="middle" x="67" y="-7.5" font-family="Helvetica" font-size="10.00">_endpoint_impl.cpp</text>
</a>
</g>
</g>
<!-- Node10&#45;&gt;Node11 -->
<g id="edge11" class="edge">
<title>Node10&#45;&gt;Node11</title>
<path fill="none" stroke="midnightblue" d="M303.04,-95.29C255.97,-83.85 195.9,-68.57 143,-53 140.06,-52.14 137.07,-51.23 134.05,-50.3"/>
<polygon fill="midnightblue" stroke="midnightblue" points="302.33,-98.72 312.88,-97.67 303.98,-91.91 302.33,-98.72"/>
</g>
<!-- Node12 -->
<g id="node12" class="node">
<title>Node12</title>
<g id="a_node12"><a xlink:href="routing__manager__impl_8cpp.html" target="_top" xlink:title=" ">
<polygon fill="white" stroke="black" points="152,-0.5 152,-52.5 292,-52.5 292,-0.5 152,-0.5"/>
<text text-anchor="start" x="160" y="-40.5" font-family="Helvetica" font-size="10.00">/home/ec2&#45;user/workspace</text>
<text text-anchor="start" x="160" y="-29.5" font-family="Helvetica" font-size="10.00">/vsomeip/implementation</text>
<text text-anchor="start" x="160" y="-18.5" font-family="Helvetica" font-size="10.00">/routing/src/routing_manager</text>
<text text-anchor="middle" x="222" y="-7.5" font-family="Helvetica" font-size="10.00">_impl.cpp</text>
</a>
</g>
</g>
<!-- Node10&#45;&gt;Node12 -->
<g id="edge12" class="edge">
<title>Node10&#45;&gt;Node12</title>
<path fill="none" stroke="midnightblue" d="M328.78,-84.49C309.31,-74.1 287.7,-62.57 269.04,-52.61"/>
<polygon fill="midnightblue" stroke="midnightblue" points="327.38,-87.71 337.85,-89.34 330.68,-81.54 327.38,-87.71"/>
</g>
<!-- Node13 -->
<g id="node13" class="node">
<title>Node13</title>
<g id="a_node13"><a xlink:href="service__discovery__impl_8cpp.html" target="_top" xlink:title=" ">
<polygon fill="white" stroke="black" points="310.5,-0.5 310.5,-52.5 461.5,-52.5 461.5,-0.5 310.5,-0.5"/>
<text text-anchor="start" x="318.5" y="-40.5" font-family="Helvetica" font-size="10.00">/home/ec2&#45;user/workspace</text>
<text text-anchor="start" x="318.5" y="-29.5" font-family="Helvetica" font-size="10.00">/vsomeip/implementation</text>
<text text-anchor="start" x="318.5" y="-18.5" font-family="Helvetica" font-size="10.00">/service_discovery/src/service</text>
<text text-anchor="middle" x="386" y="-7.5" font-family="Helvetica" font-size="10.00">_discovery_impl.cpp</text>
</a>
</g>
</g>
<!-- Node10&#45;&gt;Node13 -->
<g id="edge13" class="edge">
<title>Node10&#45;&gt;Node13</title>
<path fill="none" stroke="midnightblue" d="M385.41,-79.19C385.51,-70.28 385.62,-60.9 385.71,-52.61"/>
<polygon fill="midnightblue" stroke="midnightblue" points="381.9,-79.3 385.29,-89.34 388.9,-79.38 381.9,-79.3"/>
</g>
<!-- Node14&#45;&gt;Node4 -->
<g id="edge15" class="edge">
<title>Node14&#45;&gt;Node4</title>
<path fill="none" stroke="midnightblue" d="M547.59,-79.19C547.49,-70.28 547.38,-60.9 547.29,-52.61"/>
<polygon fill="midnightblue" stroke="midnightblue" points="544.1,-79.38 547.71,-89.34 551.1,-79.3 544.1,-79.38"/>
</g>
<!-- Node14&#45;&gt;Node12 -->
<g id="edge17" class="edge">
<title>Node14&#45;&gt;Node12</title>
<path fill="none" stroke="midnightblue" d="M465.07,-88.85C391.7,-70.02 370.5,-71.75 301,-53 298.08,-52.21 295.1,-51.38 292.11,-50.52"/>
<polygon fill="midnightblue" stroke="midnightblue" points="464.21,-92.25 474.77,-91.38 465.98,-85.47 464.21,-92.25"/>
</g>
<!-- Node14&#45;&gt;Node13 -->
<g id="edge18" class="edge">
<title>Node14&#45;&gt;Node13</title>
<path fill="none" stroke="midnightblue" d="M492.13,-84.49C472.77,-74.1 451.3,-62.57 432.75,-52.61"/>
<polygon fill="midnightblue" stroke="midnightblue" points="490.68,-87.69 501.14,-89.34 493.99,-81.52 490.68,-87.69"/>
</g>
<!-- Node15 -->
<g id="node15" class="node">
<title>Node15</title>
<g id="a_node15"><a xlink:href="udp__server__endpoint__impl_8cpp.html" target="_top" xlink:title=" ">
<polygon fill="white" stroke="black" points="632,-0.5 632,-52.5 766,-52.5 766,-0.5 632,-0.5"/>
<text text-anchor="start" x="640" y="-40.5" font-family="Helvetica" font-size="10.00">/home/ec2&#45;user/workspace</text>
<text text-anchor="start" x="640" y="-29.5" font-family="Helvetica" font-size="10.00">/vsomeip/implementation</text>
<text text-anchor="start" x="640" y="-18.5" font-family="Helvetica" font-size="10.00">/endpoints/src/udp_server</text>
<text text-anchor="middle" x="699" y="-7.5" font-family="Helvetica" font-size="10.00">_endpoint_impl.cpp</text>
</a>
</g>
</g>
<!-- Node14&#45;&gt;Node15 -->
<g id="edge16" class="edge">
<title>Node14&#45;&gt;Node15</title>
<path fill="none" stroke="midnightblue" d="M600.81,-84.07C618.66,-73.79 638.37,-62.43 655.42,-52.61"/>
<polygon fill="midnightblue" stroke="midnightblue" points="598.59,-81.31 591.68,-89.34 602.09,-87.38 598.59,-81.31"/>
</g>
</g>
</svg>
