<?xml version="1.0" encoding="UTF-8" standalone="no"?>
<!DOCTYPE svg PUBLIC "-//W3C//DTD SVG 1.1//EN"
 "http://www.w3.org/Graphics/SVG/1.1/DTD/svg11.dtd">
<!-- Generated by graphviz version 2.44.0 (0)
 -->
<!-- Title: /home/ec2&#45;user/workspace/vsomeip/implementation/routing/src/serviceinfo.cpp Pages: 1 -->
<svg width="638pt" height="162pt"
 viewBox="0.00 0.00 638.00 162.00" xmlns="http://www.w3.org/2000/svg" xmlns:xlink="http://www.w3.org/1999/xlink">
<g id="graph0" class="graph" transform="scale(1 1) rotate(0) translate(4 158)">
<title>/home/ec2&#45;user/workspace/vsomeip/implementation/routing/src/serviceinfo.cpp</title>
<polygon fill="white" stroke="transparent" points="-4,4 -4,-158 634,-158 634,4 -4,4"/>
<!-- Node1 -->
<g id="node1" class="node">
<title>Node1</title>
<g id="a_node1"><a xlink:title=" ">
<polygon fill="#bfbfbf" stroke="black" points="168.5,-112.5 168.5,-153.5 303.5,-153.5 303.5,-112.5 168.5,-112.5"/>
<text text-anchor="start" x="176.5" y="-141.5" font-family="Helvetica" font-size="10.00">/home/ec2&#45;user/workspace</text>
<text text-anchor="start" x="176.5" y="-130.5" font-family="Helvetica" font-size="10.00">/vsomeip/implementation</text>
<text text-anchor="middle" x="236" y="-119.5" font-family="Helvetica" font-size="10.00">/routing/src/serviceinfo.cpp</text>
</a>
</g>
</g>
<!-- Node2 -->
<g id="node2" class="node">
<title>Node2</title>
<g id="a_node2"><a xlink:href="serviceinfo_8hpp.html" target="_top" xlink:title=" ">
<polygon fill="white" stroke="black" points="173,-56.5 173,-75.5 299,-75.5 299,-56.5 173,-56.5"/>
<text text-anchor="middle" x="236" y="-63.5" font-family="Helvetica" font-size="10.00">../include/serviceinfo.hpp</text>
</a>
</g>
</g>
<!-- Node1&#45;&gt;Node2 -->
<g id="edge1" class="edge">
<title>Node1&#45;&gt;Node2</title>
<path fill="none" stroke="midnightblue" d="M236,-112.5C236,-104.07 236,-94.24 236,-85.87"/>
<polygon fill="midnightblue" stroke="midnightblue" points="239.5,-85.65 236,-75.65 232.5,-85.65 239.5,-85.65"/>
</g>
<!-- Node3 -->
<g id="node3" class="node">
<title>Node3</title>
<g id="a_node3"><a xlink:title=" ">
<polygon fill="white" stroke="#bfbfbf" points="0,-0.5 0,-19.5 46,-19.5 46,-0.5 0,-0.5"/>
<text text-anchor="middle" x="23" y="-7.5" font-family="Helvetica" font-size="10.00">atomic</text>
</a>
</g>
</g>
<!-- Node2&#45;&gt;Node3 -->
<g id="edge2" class="edge">
<title>Node2&#45;&gt;Node3</title>
<path fill="none" stroke="midnightblue" d="M200.2,-56.44C165.63,-48.1 111.56,-34.86 55.75,-20.14"/>
<polygon fill="midnightblue" stroke="midnightblue" points="56.61,-16.75 46.05,-17.57 54.82,-23.52 56.61,-16.75"/>
</g>
<!-- Node4 -->
<g id="node4" class="node">
<title>Node4</title>
<g id="a_node4"><a xlink:title=" ">
<polygon fill="white" stroke="#bfbfbf" points="64.5,-0.5 64.5,-19.5 117.5,-19.5 117.5,-0.5 64.5,-0.5"/>
<text text-anchor="middle" x="91" y="-7.5" font-family="Helvetica" font-size="10.00">memory</text>
</a>
</g>
</g>
<!-- Node2&#45;&gt;Node4 -->
<g id="edge3" class="edge">
<title>Node2&#45;&gt;Node4</title>
<path fill="none" stroke="midnightblue" d="M213.02,-56.44C188.84,-47.44 150.58,-33.19 123.35,-23.05"/>
<polygon fill="midnightblue" stroke="midnightblue" points="124.46,-19.73 113.87,-19.52 122.02,-26.29 124.46,-19.73"/>
</g>
<!-- Node5 -->
<g id="node5" class="node">
<title>Node5</title>
<g id="a_node5"><a xlink:title=" ">
<polygon fill="white" stroke="#bfbfbf" points="136,-0.5 136,-19.5 166,-19.5 166,-0.5 136,-0.5"/>
<text text-anchor="middle" x="151" y="-7.5" font-family="Helvetica" font-size="10.00">set</text>
</a>
</g>
</g>
<!-- Node2&#45;&gt;Node5 -->
<g id="edge4" class="edge">
<title>Node2&#45;&gt;Node5</title>
<path fill="none" stroke="midnightblue" d="M222.34,-56.32C209.08,-47.9 188.73,-34.97 173.15,-25.07"/>
<polygon fill="midnightblue" stroke="midnightblue" points="174.94,-22.06 164.62,-19.65 171.19,-27.97 174.94,-22.06"/>
</g>
<!-- Node6 -->
<g id="node6" class="node">
<title>Node6</title>
<g id="a_node6"><a xlink:title=" ">
<polygon fill="white" stroke="#bfbfbf" points="184.5,-0.5 184.5,-19.5 225.5,-19.5 225.5,-0.5 184.5,-0.5"/>
<text text-anchor="middle" x="205" y="-7.5" font-family="Helvetica" font-size="10.00">string</text>
</a>
</g>
</g>
<!-- Node2&#45;&gt;Node6 -->
<g id="edge5" class="edge">
<title>Node2&#45;&gt;Node6</title>
<path fill="none" stroke="midnightblue" d="M230.88,-56.08C226.59,-48.61 220.34,-37.72 215.06,-28.52"/>
<polygon fill="midnightblue" stroke="midnightblue" points="218.04,-26.68 210.02,-19.75 211.97,-30.17 218.04,-26.68"/>
</g>
<!-- Node7 -->
<g id="node7" class="node">
<title>Node7</title>
<g id="a_node7"><a xlink:title=" ">
<polygon fill="white" stroke="#bfbfbf" points="244,-0.5 244,-19.5 290,-19.5 290,-0.5 244,-0.5"/>
<text text-anchor="middle" x="267" y="-7.5" font-family="Helvetica" font-size="10.00">chrono</text>
</a>
</g>
</g>
<!-- Node2&#45;&gt;Node7 -->
<g id="edge6" class="edge">
<title>Node2&#45;&gt;Node7</title>
<path fill="none" stroke="midnightblue" d="M241.12,-56.08C245.41,-48.61 251.66,-37.72 256.94,-28.52"/>
<polygon fill="midnightblue" stroke="midnightblue" points="260.03,-30.17 261.98,-19.75 253.96,-26.68 260.03,-30.17"/>
</g>
<!-- Node8 -->
<g id="node8" class="node">
<title>Node8</title>
<g id="a_node8"><a xlink:title=" ">
<polygon fill="white" stroke="#bfbfbf" points="308,-0.5 308,-19.5 352,-19.5 352,-0.5 308,-0.5"/>
<text text-anchor="middle" x="330" y="-7.5" font-family="Helvetica" font-size="10.00">mutex</text>
</a>
</g>
</g>
<!-- Node2&#45;&gt;Node8 -->
<g id="edge7" class="edge">
<title>Node2&#45;&gt;Node8</title>
<path fill="none" stroke="midnightblue" d="M251.1,-56.32C265.9,-47.82 288.69,-34.73 305.98,-24.8"/>
<polygon fill="midnightblue" stroke="midnightblue" points="308.01,-27.67 314.93,-19.65 304.52,-21.6 308.01,-27.67"/>
</g>
<!-- Node9 -->
<g id="node9" class="node">
<title>Node9</title>
<g id="a_node9"><a xlink:title=" ">
<polygon fill="white" stroke="#bfbfbf" points="370,-0.5 370,-19.5 472,-19.5 472,-0.5 370,-0.5"/>
<text text-anchor="middle" x="421" y="-7.5" font-family="Helvetica" font-size="10.00">vsomeip/export.hpp</text>
</a>
</g>
</g>
<!-- Node2&#45;&gt;Node9 -->
<g id="edge8" class="edge">
<title>Node2&#45;&gt;Node9</title>
<path fill="none" stroke="midnightblue" d="M265.31,-56.44C296.84,-47.24 347.13,-32.56 381.99,-22.39"/>
<polygon fill="midnightblue" stroke="midnightblue" points="383.2,-25.68 391.82,-19.52 381.24,-18.96 383.2,-25.68"/>
</g>
<!-- Node10 -->
<g id="node10" class="node">
<title>Node10</title>
<g id="a_node10"><a xlink:title=" ">
<polygon fill="white" stroke="#bfbfbf" points="490,-0.5 490,-19.5 630,-19.5 630,-0.5 490,-0.5"/>
<text text-anchor="middle" x="560" y="-7.5" font-family="Helvetica" font-size="10.00">vsomeip/primitive_types.hpp</text>
</a>
</g>
</g>
<!-- Node2&#45;&gt;Node10 -->
<g id="edge9" class="edge">
<title>Node2&#45;&gt;Node10</title>
<path fill="none" stroke="midnightblue" d="M287.34,-56.44C344.81,-46.87 437.87,-31.36 499,-21.17"/>
<polygon fill="midnightblue" stroke="midnightblue" points="499.61,-24.61 508.9,-19.52 498.46,-17.71 499.61,-24.61"/>
</g>
</g>
</svg>
