<?xml version="1.0" encoding="UTF-8" standalone="no"?>
<!DOCTYPE svg PUBLIC "-//W3C//DTD SVG 1.1//EN"
 "http://www.w3.org/Graphics/SVG/1.1/DTD/svg11.dtd">
<!-- Generated by graphviz version 2.44.0 (0)
 -->
<!-- Title: /home/ec2&#45;user/workspace/vsomeip/implementation/service_discovery/include/message_impl.hpp Pages: 1 -->
<svg width="1160pt" height="239pt"
 viewBox="0.00 0.00 1159.50 239.00" xmlns="http://www.w3.org/2000/svg" xmlns:xlink="http://www.w3.org/1999/xlink">
<g id="graph0" class="graph" transform="scale(1 1) rotate(0) translate(4 235)">
<title>/home/ec2&#45;user/workspace/vsomeip/implementation/service_discovery/include/message_impl.hpp</title>
<polygon fill="white" stroke="transparent" points="-4,4 -4,-235 1155.5,-235 1155.5,4 -4,4"/>
<!-- Node1 -->
<g id="node1" class="node">
<title>Node1</title>
<g id="a_node1"><a xlink:title=" ">
<polygon fill="#bfbfbf" stroke="black" points="494,-178.5 494,-230.5 628,-230.5 628,-178.5 494,-178.5"/>
<text text-anchor="start" x="502" y="-218.5" font-family="Helvetica" font-size="10.00">/home/ec2&#45;user/workspace</text>
<text text-anchor="start" x="502" y="-207.5" font-family="Helvetica" font-size="10.00">/vsomeip/implementation</text>
<text text-anchor="start" x="502" y="-196.5" font-family="Helvetica" font-size="10.00">/service_discovery/include</text>
<text text-anchor="middle" x="561" y="-185.5" font-family="Helvetica" font-size="10.00">/message_impl.hpp</text>
</a>
</g>
</g>
<!-- Node2 -->
<g id="node2" class="node">
<title>Node2</title>
<g id="a_node2"><a xlink:href="eventgroupentry__impl_8hpp.html" target="_top" xlink:title=" ">
<polygon fill="white" stroke="black" points="219,-89.5 219,-141.5 353,-141.5 353,-89.5 219,-89.5"/>
<text text-anchor="start" x="227" y="-129.5" font-family="Helvetica" font-size="10.00">/home/ec2&#45;user/workspace</text>
<text text-anchor="start" x="227" y="-118.5" font-family="Helvetica" font-size="10.00">/vsomeip/implementation</text>
<text text-anchor="start" x="227" y="-107.5" font-family="Helvetica" font-size="10.00">/service_discovery/include</text>
<text text-anchor="middle" x="286" y="-96.5" font-family="Helvetica" font-size="10.00">/eventgroupentry_impl.hpp</text>
</a>
</g>
</g>
<!-- Node1&#45;&gt;Node2 -->
<g id="edge1" class="edge">
<title>Node1&#45;&gt;Node2</title>
<path fill="none" stroke="midnightblue" d="M484.01,-179.14C442.83,-166.12 392.61,-150.23 353.05,-137.71"/>
<polygon fill="midnightblue" stroke="midnightblue" points="483.14,-182.54 493.73,-182.22 485.25,-175.86 483.14,-182.54"/>
</g>
<!-- Node4 -->
<g id="node4" class="node">
<title>Node4</title>
<g id="a_node4"><a xlink:href="service__discovery_2src_2message__impl_8cpp.html" target="_top" xlink:title=" ">
<polygon fill="white" stroke="black" points="0,-0.5 0,-52.5 158,-52.5 158,-0.5 0,-0.5"/>
<text text-anchor="start" x="8" y="-40.5" font-family="Helvetica" font-size="10.00">/home/ec2&#45;user/workspace</text>
<text text-anchor="start" x="8" y="-29.5" font-family="Helvetica" font-size="10.00">/vsomeip/implementation</text>
<text text-anchor="start" x="8" y="-18.5" font-family="Helvetica" font-size="10.00">/service_discovery/src/message</text>
<text text-anchor="middle" x="79" y="-7.5" font-family="Helvetica" font-size="10.00">_impl.cpp</text>
</a>
</g>
</g>
<!-- Node1&#45;&gt;Node4 -->
<g id="edge10" class="edge">
<title>Node1&#45;&gt;Node4</title>
<path fill="none" stroke="midnightblue" d="M483.59,-201.82C409.95,-197.55 297.7,-183.92 210,-142 165.31,-120.64 124.11,-79.65 100.28,-52.96"/>
<polygon fill="midnightblue" stroke="midnightblue" points="483.55,-205.33 493.72,-202.37 483.92,-198.34 483.55,-205.33"/>
</g>
<!-- Node5 -->
<g id="node5" class="node">
<title>Node5</title>
<g id="a_node5"><a xlink:href="service__discovery__impl_8cpp.html" target="_top" xlink:title=" ">
<polygon fill="white" stroke="black" points="382.5,-0.5 382.5,-52.5 533.5,-52.5 533.5,-0.5 382.5,-0.5"/>
<text text-anchor="start" x="390.5" y="-40.5" font-family="Helvetica" font-size="10.00">/home/ec2&#45;user/workspace</text>
<text text-anchor="start" x="390.5" y="-29.5" font-family="Helvetica" font-size="10.00">/vsomeip/implementation</text>
<text text-anchor="start" x="390.5" y="-18.5" font-family="Helvetica" font-size="10.00">/service_discovery/src/service</text>
<text text-anchor="middle" x="458" y="-7.5" font-family="Helvetica" font-size="10.00">_discovery_impl.cpp</text>
</a>
</g>
</g>
<!-- Node1&#45;&gt;Node5 -->
<g id="edge13" class="edge">
<title>Node1&#45;&gt;Node5</title>
<path fill="none" stroke="midnightblue" d="M484.37,-183.6C463.86,-174.4 444.06,-161.11 432,-142 414.7,-114.59 428.92,-77.06 442.18,-52.55"/>
<polygon fill="midnightblue" stroke="midnightblue" points="483.24,-186.92 493.81,-187.55 485.94,-180.46 483.24,-186.92"/>
</g>
<!-- Node6 -->
<g id="node6" class="node">
<title>Node6</title>
<g id="a_node6"><a xlink:href="service__discovery__impl_8hpp.html" target="_top" xlink:title=" ">
<polygon fill="white" stroke="black" points="441.5,-89.5 441.5,-141.5 582.5,-141.5 582.5,-89.5 441.5,-89.5"/>
<text text-anchor="start" x="449.5" y="-129.5" font-family="Helvetica" font-size="10.00">/home/ec2&#45;user/workspace</text>
<text text-anchor="start" x="449.5" y="-118.5" font-family="Helvetica" font-size="10.00">/vsomeip/implementation</text>
<text text-anchor="start" x="449.5" y="-107.5" font-family="Helvetica" font-size="10.00">/service_discovery/include</text>
<text text-anchor="middle" x="512" y="-96.5" font-family="Helvetica" font-size="10.00">/service_discovery_impl.hpp</text>
</a>
</g>
</g>
<!-- Node1&#45;&gt;Node6 -->
<g id="edge5" class="edge">
<title>Node1&#45;&gt;Node6</title>
<path fill="none" stroke="midnightblue" d="M541.77,-169.35C536.56,-160.1 531.01,-150.26 526.14,-141.61"/>
<polygon fill="midnightblue" stroke="midnightblue" points="538.87,-171.34 546.83,-178.34 544.97,-167.91 538.87,-171.34"/>
</g>
<!-- Node7 -->
<g id="node7" class="node">
<title>Node7</title>
<g id="a_node7"><a xlink:href="service__discovery_2src_2runtime__impl_8cpp.html" target="_top" xlink:title=" ">
<polygon fill="white" stroke="black" points="551.5,-0.5 551.5,-52.5 702.5,-52.5 702.5,-0.5 551.5,-0.5"/>
<text text-anchor="start" x="559.5" y="-40.5" font-family="Helvetica" font-size="10.00">/home/ec2&#45;user/workspace</text>
<text text-anchor="start" x="559.5" y="-29.5" font-family="Helvetica" font-size="10.00">/vsomeip/implementation</text>
<text text-anchor="start" x="559.5" y="-18.5" font-family="Helvetica" font-size="10.00">/service_discovery/src/runtime</text>
<text text-anchor="middle" x="627" y="-7.5" font-family="Helvetica" font-size="10.00">_impl.cpp</text>
</a>
</g>
</g>
<!-- Node1&#45;&gt;Node7 -->
<g id="edge12" class="edge">
<title>Node1&#45;&gt;Node7</title>
<path fill="none" stroke="midnightblue" d="M579.63,-169.1C583.99,-160.39 588.4,-150.96 592,-142 604,-112.1 614.3,-76.43 620.56,-52.94"/>
<polygon fill="midnightblue" stroke="midnightblue" points="576.41,-167.72 574.97,-178.22 582.64,-170.91 576.41,-167.72"/>
</g>
<!-- Node8 -->
<g id="node8" class="node">
<title>Node8</title>
<g id="a_node8"><a xlink:href="service__discovery_2src_2deserializer_8cpp.html" target="_top" xlink:title=" ">
<polygon fill="white" stroke="black" points="639,-95 639,-136 825,-136 825,-95 639,-95"/>
<text text-anchor="start" x="647" y="-124" font-family="Helvetica" font-size="10.00">/home/ec2&#45;user/workspace</text>
<text text-anchor="start" x="647" y="-113" font-family="Helvetica" font-size="10.00">/vsomeip/implementation</text>
<text text-anchor="middle" x="732" y="-102" font-family="Helvetica" font-size="10.00">/service_discovery/src/deserializer.cpp</text>
</a>
</g>
</g>
<!-- Node1&#45;&gt;Node8 -->
<g id="edge8" class="edge">
<title>Node1&#45;&gt;Node8</title>
<path fill="none" stroke="midnightblue" d="M619.64,-173.66C644.06,-161.24 671.74,-147.16 693.51,-136.08"/>
<polygon fill="midnightblue" stroke="midnightblue" points="617.79,-170.68 610.46,-178.34 620.96,-176.92 617.79,-170.68"/>
</g>
<!-- Node9 -->
<g id="node9" class="node">
<title>Node9</title>
<g id="a_node9"><a xlink:href="entry__impl_8cpp.html" target="_top" xlink:title=" ">
<polygon fill="white" stroke="black" points="843.5,-89.5 843.5,-141.5 984.5,-141.5 984.5,-89.5 843.5,-89.5"/>
<text text-anchor="start" x="851.5" y="-129.5" font-family="Helvetica" font-size="10.00">/home/ec2&#45;user/workspace</text>
<text text-anchor="start" x="851.5" y="-118.5" font-family="Helvetica" font-size="10.00">/vsomeip/implementation</text>
<text text-anchor="start" x="851.5" y="-107.5" font-family="Helvetica" font-size="10.00">/service_discovery/src/entry</text>
<text text-anchor="middle" x="914" y="-96.5" font-family="Helvetica" font-size="10.00">_impl.cpp</text>
</a>
</g>
</g>
<!-- Node1&#45;&gt;Node9 -->
<g id="edge9" class="edge">
<title>Node1&#45;&gt;Node9</title>
<path fill="none" stroke="midnightblue" d="M638.16,-187.99C693.08,-176.49 768.45,-159.79 834,-142 837.1,-141.16 840.25,-140.28 843.43,-139.36"/>
<polygon fill="midnightblue" stroke="midnightblue" points="637.23,-184.61 628.16,-190.07 638.66,-191.46 637.23,-184.61"/>
</g>
<!-- Node10 -->
<g id="node10" class="node">
<title>Node10</title>
<g id="a_node10"><a xlink:href="remote__subscription__ack_8cpp.html" target="_top" xlink:title=" ">
<polygon fill="white" stroke="black" points="1002.5,-89.5 1002.5,-141.5 1151.5,-141.5 1151.5,-89.5 1002.5,-89.5"/>
<text text-anchor="start" x="1010.5" y="-129.5" font-family="Helvetica" font-size="10.00">/home/ec2&#45;user/workspace</text>
<text text-anchor="start" x="1010.5" y="-118.5" font-family="Helvetica" font-size="10.00">/vsomeip/implementation</text>
<text text-anchor="start" x="1010.5" y="-107.5" font-family="Helvetica" font-size="10.00">/service_discovery/src/remote</text>
<text text-anchor="middle" x="1077" y="-96.5" font-family="Helvetica" font-size="10.00">_subscription_ack.cpp</text>
</a>
</g>
</g>
<!-- Node1&#45;&gt;Node10 -->
<g id="edge11" class="edge">
<title>Node1&#45;&gt;Node10</title>
<path fill="none" stroke="midnightblue" d="M638.42,-196.21C725.56,-187.15 871.04,-169.44 994,-142 996.8,-141.38 999.63,-140.7 1002.49,-140"/>
<polygon fill="midnightblue" stroke="midnightblue" points="637.94,-192.74 628.35,-197.25 638.65,-199.7 637.94,-192.74"/>
</g>
<!-- Node3 -->
<g id="node3" class="node">
<title>Node3</title>
<g id="a_node3"><a xlink:href="eventgroupentry__impl_8cpp.html" target="_top" xlink:title=" ">
<polygon fill="white" stroke="black" points="176,-0.5 176,-52.5 364,-52.5 364,-0.5 176,-0.5"/>
<text text-anchor="start" x="184" y="-40.5" font-family="Helvetica" font-size="10.00">/home/ec2&#45;user/workspace</text>
<text text-anchor="start" x="184" y="-29.5" font-family="Helvetica" font-size="10.00">/vsomeip/implementation</text>
<text text-anchor="start" x="184" y="-18.5" font-family="Helvetica" font-size="10.00">/service_discovery/src/eventgroupentry</text>
<text text-anchor="middle" x="270" y="-7.5" font-family="Helvetica" font-size="10.00">_impl.cpp</text>
</a>
</g>
</g>
<!-- Node2&#45;&gt;Node3 -->
<g id="edge2" class="edge">
<title>Node2&#45;&gt;Node3</title>
<path fill="none" stroke="midnightblue" d="M279.56,-79.48C277.91,-70.49 276.16,-60.99 274.62,-52.61"/>
<polygon fill="midnightblue" stroke="midnightblue" points="276.12,-80.13 281.37,-89.34 283.01,-78.87 276.12,-80.13"/>
</g>
<!-- Node2&#45;&gt;Node4 -->
<g id="edge3" class="edge">
<title>Node2&#45;&gt;Node4</title>
<path fill="none" stroke="midnightblue" d="M217.18,-85.58C191.72,-74.88 163.1,-62.85 138.53,-52.52"/>
<polygon fill="midnightblue" stroke="midnightblue" points="215.83,-88.8 226.4,-89.45 218.54,-82.35 215.83,-88.8"/>
</g>
<!-- Node2&#45;&gt;Node5 -->
<g id="edge4" class="edge">
<title>Node2&#45;&gt;Node5</title>
<path fill="none" stroke="midnightblue" d="M344.76,-84.78C365.46,-74.31 388.5,-62.66 408.36,-52.61"/>
<polygon fill="midnightblue" stroke="midnightblue" points="343.09,-81.7 335.75,-89.34 346.25,-87.95 343.09,-81.7"/>
</g>
<!-- Node6&#45;&gt;Node5 -->
<g id="edge7" class="edge">
<title>Node6&#45;&gt;Node5</title>
<path fill="none" stroke="midnightblue" d="M490.98,-80.64C485.19,-71.31 479.01,-61.35 473.58,-52.61"/>
<polygon fill="midnightblue" stroke="midnightblue" points="488.13,-82.69 496.38,-89.34 494.08,-78.99 488.13,-82.69"/>
</g>
<!-- Node6&#45;&gt;Node7 -->
<g id="edge6" class="edge">
<title>Node6&#45;&gt;Node7</title>
<path fill="none" stroke="midnightblue" d="M553.35,-83.22C566.64,-73.16 581.18,-62.16 593.81,-52.61"/>
<polygon fill="midnightblue" stroke="midnightblue" points="551.13,-80.51 545.26,-89.34 555.35,-86.09 551.13,-80.51"/>
</g>
</g>
</svg>
