<?xml version="1.0" encoding="UTF-8" standalone="no"?>
<!DOCTYPE svg PUBLIC "-//W3C//DTD SVG 1.1//EN"
 "http://www.w3.org/Graphics/SVG/1.1/DTD/svg11.dtd">
<!-- Generated by graphviz version 2.44.0 (0)
 -->
<!-- Title: /home/ec2&#45;user/workspace/vsomeip/implementation/routing/include/serviceinfo.hpp Pages: 1 -->
<svg width="638pt" height="106pt"
 viewBox="0.00 0.00 638.00 106.00" xmlns="http://www.w3.org/2000/svg" xmlns:xlink="http://www.w3.org/1999/xlink">
<g id="graph0" class="graph" transform="scale(1 1) rotate(0) translate(4 102)">
<title>/home/ec2&#45;user/workspace/vsomeip/implementation/routing/include/serviceinfo.hpp</title>
<polygon fill="white" stroke="transparent" points="-4,4 -4,-102 634,-102 634,4 -4,4"/>
<!-- Node1 -->
<g id="node1" class="node">
<title>Node1</title>
<g id="a_node1"><a xlink:title=" ">
<polygon fill="#bfbfbf" stroke="black" points="160,-56.5 160,-97.5 312,-97.5 312,-56.5 160,-56.5"/>
<text text-anchor="start" x="168" y="-85.5" font-family="Helvetica" font-size="10.00">/home/ec2&#45;user/workspace</text>
<text text-anchor="start" x="168" y="-74.5" font-family="Helvetica" font-size="10.00">/vsomeip/implementation</text>
<text text-anchor="middle" x="236" y="-63.5" font-family="Helvetica" font-size="10.00">/routing/include/serviceinfo.hpp</text>
</a>
</g>
</g>
<!-- Node2 -->
<g id="node2" class="node">
<title>Node2</title>
<g id="a_node2"><a xlink:title=" ">
<polygon fill="white" stroke="#bfbfbf" points="0,-0.5 0,-19.5 46,-19.5 46,-0.5 0,-0.5"/>
<text text-anchor="middle" x="23" y="-7.5" font-family="Helvetica" font-size="10.00">atomic</text>
</a>
</g>
</g>
<!-- Node1&#45;&gt;Node2 -->
<g id="edge1" class="edge">
<title>Node1&#45;&gt;Node2</title>
<path fill="none" stroke="midnightblue" d="M172.09,-56.5C133.89,-44.84 86.93,-30.51 56.05,-21.08"/>
<polygon fill="midnightblue" stroke="midnightblue" points="56.81,-17.66 46.22,-18.09 54.77,-24.35 56.81,-17.66"/>
</g>
<!-- Node3 -->
<g id="node3" class="node">
<title>Node3</title>
<g id="a_node3"><a xlink:title=" ">
<polygon fill="white" stroke="#bfbfbf" points="64.5,-0.5 64.5,-19.5 117.5,-19.5 117.5,-0.5 64.5,-0.5"/>
<text text-anchor="middle" x="91" y="-7.5" font-family="Helvetica" font-size="10.00">memory</text>
</a>
</g>
</g>
<!-- Node1&#45;&gt;Node3 -->
<g id="edge2" class="edge">
<title>Node1&#45;&gt;Node3</title>
<path fill="none" stroke="midnightblue" d="M192.5,-56.5C168.87,-45.91 140.34,-33.12 119.55,-23.8"/>
<polygon fill="midnightblue" stroke="midnightblue" points="120.86,-20.55 110.3,-19.65 118,-26.94 120.86,-20.55"/>
</g>
<!-- Node4 -->
<g id="node4" class="node">
<title>Node4</title>
<g id="a_node4"><a xlink:title=" ">
<polygon fill="white" stroke="#bfbfbf" points="136,-0.5 136,-19.5 166,-19.5 166,-0.5 136,-0.5"/>
<text text-anchor="middle" x="151" y="-7.5" font-family="Helvetica" font-size="10.00">set</text>
</a>
</g>
</g>
<!-- Node1&#45;&gt;Node4 -->
<g id="edge3" class="edge">
<title>Node1&#45;&gt;Node4</title>
<path fill="none" stroke="midnightblue" d="M210.5,-56.5C197.59,-46.63 182.18,-34.84 170.28,-25.74"/>
<polygon fill="midnightblue" stroke="midnightblue" points="172.38,-22.95 162.31,-19.65 168.13,-28.51 172.38,-22.95"/>
</g>
<!-- Node5 -->
<g id="node5" class="node">
<title>Node5</title>
<g id="a_node5"><a xlink:title=" ">
<polygon fill="white" stroke="#bfbfbf" points="184.5,-0.5 184.5,-19.5 225.5,-19.5 225.5,-0.5 184.5,-0.5"/>
<text text-anchor="middle" x="205" y="-7.5" font-family="Helvetica" font-size="10.00">string</text>
</a>
</g>
</g>
<!-- Node1&#45;&gt;Node5 -->
<g id="edge4" class="edge">
<title>Node1&#45;&gt;Node5</title>
<path fill="none" stroke="midnightblue" d="M226.7,-56.5C222.49,-47.68 217.56,-37.34 213.46,-28.74"/>
<polygon fill="midnightblue" stroke="midnightblue" points="216.59,-27.17 209.13,-19.65 210.27,-30.19 216.59,-27.17"/>
</g>
<!-- Node6 -->
<g id="node6" class="node">
<title>Node6</title>
<g id="a_node6"><a xlink:title=" ">
<polygon fill="white" stroke="#bfbfbf" points="244,-0.5 244,-19.5 290,-19.5 290,-0.5 244,-0.5"/>
<text text-anchor="middle" x="267" y="-7.5" font-family="Helvetica" font-size="10.00">chrono</text>
</a>
</g>
</g>
<!-- Node1&#45;&gt;Node6 -->
<g id="edge5" class="edge">
<title>Node1&#45;&gt;Node6</title>
<path fill="none" stroke="midnightblue" d="M245.3,-56.5C249.51,-47.68 254.44,-37.34 258.54,-28.74"/>
<polygon fill="midnightblue" stroke="midnightblue" points="261.73,-30.19 262.87,-19.65 255.41,-27.17 261.73,-30.19"/>
</g>
<!-- Node7 -->
<g id="node7" class="node">
<title>Node7</title>
<g id="a_node7"><a xlink:title=" ">
<polygon fill="white" stroke="#bfbfbf" points="308,-0.5 308,-19.5 352,-19.5 352,-0.5 308,-0.5"/>
<text text-anchor="middle" x="330" y="-7.5" font-family="Helvetica" font-size="10.00">mutex</text>
</a>
</g>
</g>
<!-- Node1&#45;&gt;Node7 -->
<g id="edge6" class="edge">
<title>Node1&#45;&gt;Node7</title>
<path fill="none" stroke="midnightblue" d="M264.2,-56.5C278.62,-46.53 295.85,-34.61 309.06,-25.48"/>
<polygon fill="midnightblue" stroke="midnightblue" points="311.25,-28.22 317.49,-19.65 307.27,-22.46 311.25,-28.22"/>
</g>
<!-- Node8 -->
<g id="node8" class="node">
<title>Node8</title>
<g id="a_node8"><a xlink:title=" ">
<polygon fill="white" stroke="#bfbfbf" points="370,-0.5 370,-19.5 472,-19.5 472,-0.5 370,-0.5"/>
<text text-anchor="middle" x="421" y="-7.5" font-family="Helvetica" font-size="10.00">vsomeip/export.hpp</text>
</a>
</g>
</g>
<!-- Node1&#45;&gt;Node8 -->
<g id="edge7" class="edge">
<title>Node1&#45;&gt;Node8</title>
<path fill="none" stroke="midnightblue" d="M291.51,-56.5C322.46,-45.62 360.03,-32.42 386.72,-23.05"/>
<polygon fill="midnightblue" stroke="midnightblue" points="388.1,-26.27 396.37,-19.65 385.78,-19.67 388.1,-26.27"/>
</g>
<!-- Node9 -->
<g id="node9" class="node">
<title>Node9</title>
<g id="a_node9"><a xlink:title=" ">
<polygon fill="white" stroke="#bfbfbf" points="490,-0.5 490,-19.5 630,-19.5 630,-0.5 490,-0.5"/>
<text text-anchor="middle" x="560" y="-7.5" font-family="Helvetica" font-size="10.00">vsomeip/primitive_types.hpp</text>
</a>
</g>
</g>
<!-- Node1&#45;&gt;Node9 -->
<g id="edge8" class="edge">
<title>Node1&#45;&gt;Node9</title>
<path fill="none" stroke="midnightblue" d="M312.37,-60.68C372.48,-48.62 454.66,-32.13 507.55,-21.52"/>
<polygon fill="midnightblue" stroke="midnightblue" points="508.28,-24.95 517.39,-19.55 506.9,-18.08 508.28,-24.95"/>
</g>
</g>
</svg>
