<?xml version="1.0" encoding="UTF-8" standalone="no"?>
<!DOCTYPE svg PUBLIC "-//W3C//DTD SVG 1.1//EN"
 "http://www.w3.org/Graphics/SVG/1.1/DTD/svg11.dtd">
<!-- Generated by graphviz version 2.44.0 (0)
 -->
<!-- Title: /home/ec2&#45;user/workspace/vsomeip/implementation/endpoints/src/server_endpoint_impl.cpp Pages: 1 -->
<svg width="3021pt" height="318pt"
 viewBox="0.00 0.00 3021.00 318.00" xmlns="http://www.w3.org/2000/svg" xmlns:xlink="http://www.w3.org/1999/xlink">
<g id="graph0" class="graph" transform="scale(1 1) rotate(0) translate(4 314)">
<title>/home/ec2&#45;user/workspace/vsomeip/implementation/endpoints/src/server_endpoint_impl.cpp</title>
<polygon fill="white" stroke="transparent" points="-4,4 -4,-314 3017,-314 3017,4 -4,4"/>
<!-- Node1 -->
<g id="node1" class="node">
<title>Node1</title>
<g id="a_node1"><a xlink:title=" ">
<polygon fill="#bfbfbf" stroke="black" points="1191,-257.5 1191,-309.5 1341,-309.5 1341,-257.5 1191,-257.5"/>
<text text-anchor="start" x="1199" y="-297.5" font-family="Helvetica" font-size="10.00">/home/ec2&#45;user/workspace</text>
<text text-anchor="start" x="1199" y="-286.5" font-family="Helvetica" font-size="10.00">/vsomeip/implementation</text>
<text text-anchor="start" x="1199" y="-275.5" font-family="Helvetica" font-size="10.00">/endpoints/src/server_endpoint</text>
<text text-anchor="middle" x="1266" y="-264.5" font-family="Helvetica" font-size="10.00">_impl.cpp</text>
</a>
</g>
</g>
<!-- Node2 -->
<g id="node2" class="node">
<title>Node2</title>
<g id="a_node2"><a xlink:title=" ">
<polygon fill="white" stroke="#bfbfbf" points="0,-196 0,-215 50,-215 50,-196 0,-196"/>
<text text-anchor="middle" x="25" y="-203" font-family="Helvetica" font-size="10.00">iomanip</text>
</a>
</g>
</g>
<!-- Node1&#45;&gt;Node2 -->
<g id="edge1" class="edge">
<title>Node1&#45;&gt;Node2</title>
<path fill="none" stroke="midnightblue" d="M1190.91,-281.64C962.89,-278.57 280.92,-265.77 64,-221 60.75,-220.33 57.4,-219.43 54.11,-218.41"/>
<polygon fill="midnightblue" stroke="midnightblue" points="55.09,-215.05 44.5,-215.07 52.8,-221.66 55.09,-215.05"/>
</g>
<!-- Node3 -->
<g id="node3" class="node">
<title>Node3</title>
<g id="a_node3"><a xlink:title=" ">
<polygon fill="white" stroke="#bfbfbf" points="106,-62 106,-81 158,-81 158,-62 106,-62"/>
<text text-anchor="middle" x="132" y="-69" font-family="Helvetica" font-size="10.00">sstream</text>
</a>
</g>
</g>
<!-- Node1&#45;&gt;Node3 -->
<g id="edge2" class="edge">
<title>Node1&#45;&gt;Node3</title>
<path fill="none" stroke="midnightblue" d="M1190.95,-283.17C1022.35,-282.46 602.79,-268.28 276,-154 228.7,-137.46 179,-105.62 152.14,-87.01"/>
<polygon fill="midnightblue" stroke="midnightblue" points="153.82,-83.92 143.63,-81.03 149.79,-89.64 153.82,-83.92"/>
</g>
<!-- Node4 -->
<g id="node4" class="node">
<title>Node4</title>
<g id="a_node4"><a xlink:title=" ">
<polygon fill="white" stroke="#bfbfbf" points="1216,-196 1216,-215 1256,-215 1256,-196 1216,-196"/>
<text text-anchor="middle" x="1236" y="-203" font-family="Helvetica" font-size="10.00">limits</text>
</a>
</g>
</g>
<!-- Node1&#45;&gt;Node4 -->
<g id="edge3" class="edge">
<title>Node1&#45;&gt;Node4</title>
<path fill="none" stroke="midnightblue" d="M1256.01,-257.19C1251.8,-246.54 1247,-234.38 1243.16,-224.64"/>
<polygon fill="midnightblue" stroke="midnightblue" points="1246.36,-223.23 1239.44,-215.21 1239.85,-225.8 1246.36,-223.23"/>
</g>
<!-- Node5 -->
<g id="node5" class="node">
<title>Node5</title>
<g id="a_node5"><a xlink:title=" ">
<polygon fill="white" stroke="#bfbfbf" points="1274,-196 1274,-215 1318,-215 1318,-196 1274,-196"/>
<text text-anchor="middle" x="1296" y="-203" font-family="Helvetica" font-size="10.00">thread</text>
</a>
</g>
</g>
<!-- Node1&#45;&gt;Node5 -->
<g id="edge4" class="edge">
<title>Node1&#45;&gt;Node5</title>
<path fill="none" stroke="midnightblue" d="M1275.99,-257.19C1280.2,-246.54 1285,-234.38 1288.84,-224.64"/>
<polygon fill="midnightblue" stroke="midnightblue" points="1292.15,-225.8 1292.56,-215.21 1285.64,-223.23 1292.15,-225.8"/>
</g>
<!-- Node6 -->
<g id="node6" class="node">
<title>Node6</title>
<g id="a_node6"><a xlink:title=" ">
<polygon fill="white" stroke="#bfbfbf" points="1336,-196 1336,-215 1392,-215 1392,-196 1336,-196"/>
<text text-anchor="middle" x="1364" y="-203" font-family="Helvetica" font-size="10.00">algorithm</text>
</a>
</g>
</g>
<!-- Node1&#45;&gt;Node6 -->
<g id="edge5" class="edge">
<title>Node1&#45;&gt;Node6</title>
<path fill="none" stroke="midnightblue" d="M1298.36,-257.4C1313.73,-245.49 1331.57,-231.65 1344.77,-221.41"/>
<polygon fill="midnightblue" stroke="midnightblue" points="1346.95,-224.15 1352.7,-215.26 1342.66,-218.62 1346.95,-224.15"/>
</g>
<!-- Node7 -->
<g id="node7" class="node">
<title>Node7</title>
<g id="a_node7"><a xlink:title=" ">
<polygon fill="white" stroke="#bfbfbf" points="1410.5,-196 1410.5,-215 1517.5,-215 1517.5,-196 1410.5,-196"/>
<text text-anchor="middle" x="1464" y="-203" font-family="Helvetica" font-size="10.00">boost/asio/buffer.hpp</text>
</a>
</g>
</g>
<!-- Node1&#45;&gt;Node7 -->
<g id="edge6" class="edge">
<title>Node1&#45;&gt;Node7</title>
<path fill="none" stroke="midnightblue" d="M1331.38,-257.4C1365.29,-244.39 1405.17,-229.08 1432.28,-218.68"/>
<polygon fill="midnightblue" stroke="midnightblue" points="1433.57,-221.93 1441.65,-215.08 1431.06,-215.39 1433.57,-221.93"/>
</g>
<!-- Node8 -->
<g id="node8" class="node">
<title>Node8</title>
<g id="a_node8"><a xlink:title=" ">
<polygon fill="white" stroke="#bfbfbf" points="1535.5,-196 1535.5,-215 1642.5,-215 1642.5,-196 1535.5,-196"/>
<text text-anchor="middle" x="1589" y="-203" font-family="Helvetica" font-size="10.00">boost/asio/ip/tcp.hpp</text>
</a>
</g>
</g>
<!-- Node1&#45;&gt;Node8 -->
<g id="edge7" class="edge">
<title>Node1&#45;&gt;Node8</title>
<path fill="none" stroke="midnightblue" d="M1341.32,-264.78C1403.54,-250.14 1489.88,-229.82 1542.47,-217.45"/>
<polygon fill="midnightblue" stroke="midnightblue" points="1543.58,-220.78 1552.51,-215.08 1541.98,-213.97 1543.58,-220.78"/>
</g>
<!-- Node9 -->
<g id="node9" class="node">
<title>Node9</title>
<g id="a_node9"><a xlink:href="stream__protocol__ext_8hpp.html" target="_top" xlink:title=" ">
<polygon fill="white" stroke="black" points="2329,-190.5 2329,-220.5 2447,-220.5 2447,-190.5 2329,-190.5"/>
<text text-anchor="start" x="2337" y="-208.5" font-family="Helvetica" font-size="10.00">boost/asio/local/stream</text>
<text text-anchor="middle" x="2388" y="-197.5" font-family="Helvetica" font-size="10.00">_protocol_ext.hpp</text>
</a>
</g>
</g>
<!-- Node1&#45;&gt;Node9 -->
<g id="edge8" class="edge">
<title>Node1&#45;&gt;Node9</title>
<path fill="none" stroke="midnightblue" d="M1341.13,-282.02C1512.89,-280.09 1947.4,-270.41 2318.62,-221.05"/>
<polygon fill="midnightblue" stroke="midnightblue" points="2319.31,-224.49 2328.75,-219.69 2318.38,-217.55 2319.31,-224.49"/>
</g>
<!-- Node11 -->
<g id="node11" class="node">
<title>Node11</title>
<g id="a_node11"><a xlink:href="udp__ext_8hpp.html" target="_top" xlink:title=" ">
<polygon fill="white" stroke="black" points="2183,-196 2183,-215 2311,-215 2311,-196 2183,-196"/>
<text text-anchor="middle" x="2247" y="-203" font-family="Helvetica" font-size="10.00">boost/asio/ip/udp_ext.hpp</text>
</a>
</g>
</g>
<!-- Node1&#45;&gt;Node11 -->
<g id="edge10" class="edge">
<title>Node1&#45;&gt;Node11</title>
<path fill="none" stroke="midnightblue" d="M1341.35,-276.66C1524.42,-262.48 1990.89,-226.34 2172.79,-212.25"/>
<polygon fill="midnightblue" stroke="midnightblue" points="2173.09,-215.74 2182.79,-211.47 2172.55,-208.76 2173.09,-215.74"/>
</g>
<!-- Node54 -->
<g id="node22" class="node">
<title>Node54</title>
<g id="a_node22"><a xlink:title=" ">
<polygon fill="white" stroke="#bfbfbf" points="284.5,-0.5 284.5,-19.5 391.5,-19.5 391.5,-0.5 284.5,-0.5"/>
<text text-anchor="middle" x="338" y="-7.5" font-family="Helvetica" font-size="10.00">vsomeip/defines.hpp</text>
</a>
</g>
</g>
<!-- Node1&#45;&gt;Node54 -->
<g id="edge25" class="edge">
<title>Node1&#45;&gt;Node54</title>
<path fill="none" stroke="midnightblue" d="M1190.81,-279.67C1009.45,-272.44 551.91,-251.67 402,-221 256.94,-191.32 169.78,-215.94 97,-87 90.23,-75 88.2,-66.6 97,-56 119.12,-29.36 210.46,-18.41 274.11,-13.96"/>
<polygon fill="midnightblue" stroke="midnightblue" points="274.71,-17.43 284.46,-13.28 274.25,-10.44 274.71,-17.43"/>
</g>
<!-- Node55 -->
<g id="node23" class="node">
<title>Node55</title>
<g id="a_node23"><a xlink:href="logger_8hpp.html" target="_top" xlink:title=" ">
<polygon fill="white" stroke="black" points="285,-129 285,-148 421,-148 421,-129 285,-129"/>
<text text-anchor="middle" x="353" y="-136" font-family="Helvetica" font-size="10.00">vsomeip/internal/logger.hpp</text>
</a>
</g>
</g>
<!-- Node1&#45;&gt;Node55 -->
<g id="edge26" class="edge">
<title>Node1&#45;&gt;Node55</title>
<path fill="none" stroke="midnightblue" d="M1190.9,-270.74C1015.52,-243.27 581.5,-175.29 417.32,-149.57"/>
<polygon fill="midnightblue" stroke="midnightblue" points="417.78,-146.1 407.36,-148.01 416.7,-153.02 417.78,-146.1"/>
</g>
<!-- Node62 -->
<g id="node30" class="node">
<title>Node62</title>
<g id="a_node30"><a xlink:href="server__endpoint__impl_8hpp.html" target="_top" xlink:title=" ">
<polygon fill="white" stroke="black" points="1032,-190.5 1032,-220.5 1160,-220.5 1160,-190.5 1032,-190.5"/>
<text text-anchor="start" x="1040" y="-208.5" font-family="Helvetica" font-size="10.00">../include/server_endpoint</text>
<text text-anchor="middle" x="1096" y="-197.5" font-family="Helvetica" font-size="10.00">_impl.hpp</text>
</a>
</g>
</g>
<!-- Node1&#45;&gt;Node62 -->
<g id="edge34" class="edge">
<title>Node1&#45;&gt;Node62</title>
<path fill="none" stroke="midnightblue" d="M1209.86,-257.4C1186.11,-246.78 1158.94,-234.64 1137.1,-224.87"/>
<polygon fill="midnightblue" stroke="midnightblue" points="1138.34,-221.59 1127.78,-220.71 1135.48,-227.98 1138.34,-221.59"/>
</g>
<!-- Node103 -->
<g id="node43" class="node">
<title>Node103</title>
<g id="a_node43"><a xlink:href="endpoint__definition_8hpp.html" target="_top" xlink:title=" ">
<polygon fill="white" stroke="black" points="692,-123.5 692,-153.5 788,-153.5 788,-123.5 692,-123.5"/>
<text text-anchor="start" x="700" y="-141.5" font-family="Helvetica" font-size="10.00">../include/endpoint</text>
<text text-anchor="middle" x="740" y="-130.5" font-family="Helvetica" font-size="10.00">_definition.hpp</text>
</a>
</g>
</g>
<!-- Node1&#45;&gt;Node103 -->
<g id="edge60" class="edge">
<title>Node1&#45;&gt;Node103</title>
<path fill="none" stroke="midnightblue" d="M1190.85,-264.15C1142.75,-252.24 1079.08,-236.17 1023,-221 944.31,-199.72 853.88,-173.34 796.84,-156.46"/>
<polygon fill="midnightblue" stroke="midnightblue" points="797.52,-153.01 786.94,-153.52 795.53,-159.72 797.52,-153.01"/>
</g>
<!-- Node104 -->
<g id="node45" class="node">
<title>Node104</title>
<g id="a_node45"><a xlink:href="byteorder_8hpp.html" target="_top" xlink:title=" ">
<polygon fill="white" stroke="black" points="2465,-190.5 2465,-220.5 2557,-220.5 2557,-190.5 2465,-190.5"/>
<text text-anchor="start" x="2473" y="-208.5" font-family="Helvetica" font-size="10.00">../../utility/include</text>
<text text-anchor="middle" x="2511" y="-197.5" font-family="Helvetica" font-size="10.00">/byteorder.hpp</text>
</a>
</g>
</g>
<!-- Node1&#45;&gt;Node104 -->
<g id="edge68" class="edge">
<title>Node1&#45;&gt;Node104</title>
<path fill="none" stroke="midnightblue" d="M1341.38,-280.64C1564.5,-274.81 2220.13,-255.31 2454.75,-220.93"/>
<polygon fill="midnightblue" stroke="midnightblue" points="2455.57,-224.34 2464.93,-219.38 2454.52,-217.42 2455.57,-224.34"/>
</g>
<!-- Node105 -->
<g id="node46" class="node">
<title>Node105</title>
<g id="a_node46"><a xlink:href="utility_8hpp.html" target="_top" xlink:title=" ">
<polygon fill="white" stroke="black" points="1362,-123.5 1362,-153.5 1454,-153.5 1454,-123.5 1362,-123.5"/>
<text text-anchor="start" x="1370" y="-141.5" font-family="Helvetica" font-size="10.00">../../utility/include</text>
<text text-anchor="middle" x="1408" y="-130.5" font-family="Helvetica" font-size="10.00">/utility.hpp</text>
</a>
</g>
</g>
<!-- Node1&#45;&gt;Node105 -->
<g id="edge69" class="edge">
<title>Node1&#45;&gt;Node105</title>
<path fill="none" stroke="midnightblue" d="M1232.3,-257.28C1210.88,-238.17 1190.1,-211.61 1207,-190 1247.91,-137.7 1287.64,-170.32 1352,-154 1352.1,-153.97 1352.2,-153.95 1352.3,-153.92"/>
<polygon fill="midnightblue" stroke="midnightblue" points="1353.04,-157.35 1361.86,-151.48 1351.31,-150.56 1353.04,-157.35"/>
</g>
<!-- Node108 -->
<g id="node50" class="node">
<title>Node108</title>
<g id="a_node50"><a xlink:href="implementation_2service__discovery_2include_2defines_8hpp.html" target="_top" xlink:title=" ">
<polygon fill="white" stroke="black" points="2575,-190.5 2575,-220.5 2689,-220.5 2689,-190.5 2575,-190.5"/>
<text text-anchor="start" x="2583" y="-208.5" font-family="Helvetica" font-size="10.00">../../service_discovery</text>
<text text-anchor="middle" x="2632" y="-197.5" font-family="Helvetica" font-size="10.00">/include/defines.hpp</text>
</a>
</g>
</g>
<!-- Node1&#45;&gt;Node108 -->
<g id="edge82" class="edge">
<title>Node1&#45;&gt;Node108</title>
<path fill="none" stroke="midnightblue" d="M1341.4,-280.61C1578.38,-274.41 2307.19,-253.28 2564.8,-220.97"/>
<polygon fill="midnightblue" stroke="midnightblue" points="2565.4,-224.42 2574.87,-219.67 2564.5,-217.48 2565.4,-224.42"/>
</g>
<!-- Node10 -->
<g id="node10" class="node">
<title>Node10</title>
<g id="a_node10"><a xlink:title=" ">
<polygon fill="white" stroke="#bfbfbf" points="2877,-62 2877,-81 3013,-81 3013,-62 2877,-62"/>
<text text-anchor="middle" x="2945" y="-69" font-family="Helvetica" font-size="10.00">boost/asio/detail/config.hpp</text>
</a>
</g>
</g>
<!-- Node9&#45;&gt;Node10 -->
<g id="edge9" class="edge">
<title>Node9&#45;&gt;Node10</title>
<path fill="none" stroke="midnightblue" d="M2447.25,-191.36C2450.2,-190.86 2453.13,-190.41 2456,-190 2511.48,-182.14 2920.82,-195.01 2959,-154 2975,-136.81 2964.84,-108.31 2955.41,-89.97"/>
<polygon fill="midnightblue" stroke="midnightblue" points="2958.46,-88.25 2950.56,-81.19 2952.33,-91.64 2958.46,-88.25"/>
</g>
<!-- Node11&#45;&gt;Node10 -->
<g id="edge11" class="edge">
<title>Node11&#45;&gt;Node10</title>
<path fill="none" stroke="midnightblue" d="M2284.73,-195.98C2296.02,-193.71 2308.47,-191.48 2320,-190 2386.9,-181.41 2874.43,-197.48 2926,-154 2944.02,-138.8 2946.83,-110.13 2946.47,-91.17"/>
<polygon fill="midnightblue" stroke="midnightblue" points="2949.96,-90.88 2945.97,-81.07 2942.97,-91.23 2949.96,-90.88"/>
</g>
<!-- Node12 -->
<g id="node12" class="node">
<title>Node12</title>
<g id="a_node12"><a xlink:href="basic__datagram__socket__ext_8hpp.html" target="_top" xlink:title=" ">
<polygon fill="white" stroke="red" points="2035,-123.5 2035,-153.5 2169,-153.5 2169,-123.5 2035,-123.5"/>
<text text-anchor="start" x="2043" y="-141.5" font-family="Helvetica" font-size="10.00">boost/asio/basic_datagram</text>
<text text-anchor="middle" x="2102" y="-130.5" font-family="Helvetica" font-size="10.00">_socket_ext.hpp</text>
</a>
</g>
</g>
<!-- Node11&#45;&gt;Node12 -->
<g id="edge12" class="edge">
<title>Node11&#45;&gt;Node12</title>
<path fill="none" stroke="midnightblue" d="M2227.75,-195.87C2206.18,-186.2 2170.59,-170.25 2142.77,-157.78"/>
<polygon fill="midnightblue" stroke="midnightblue" points="2143.85,-154.42 2133.29,-153.53 2140.99,-160.81 2143.85,-154.42"/>
</g>
<!-- Node36 -->
<g id="node14" class="node">
<title>Node36</title>
<g id="a_node14"><a xlink:title=" ">
<polygon fill="white" stroke="#bfbfbf" points="1959,-56.5 1959,-86.5 2071,-86.5 2071,-56.5 1959,-56.5"/>
<text text-anchor="start" x="1967" y="-74.5" font-family="Helvetica" font-size="10.00">boost/asio/detail/push</text>
<text text-anchor="middle" x="2015" y="-63.5" font-family="Helvetica" font-size="10.00">_options.hpp</text>
</a>
</g>
</g>
<!-- Node11&#45;&gt;Node36 -->
<g id="edge23" class="edge">
<title>Node11&#45;&gt;Node36</title>
<path fill="none" stroke="midnightblue" d="M2182.9,-199.41C2121.68,-193.07 2035.75,-179.76 2015,-154 2002.22,-138.14 2003.81,-114.35 2007.65,-96.56"/>
<polygon fill="midnightblue" stroke="midnightblue" points="2011.11,-97.19 2010.16,-86.64 2004.32,-95.48 2011.11,-97.19"/>
</g>
<!-- Node37 -->
<g id="node15" class="node">
<title>Node37</title>
<g id="a_node15"><a xlink:title=" ">
<polygon fill="white" stroke="#bfbfbf" points="2089.5,-56.5 2089.5,-86.5 2196.5,-86.5 2196.5,-56.5 2089.5,-56.5"/>
<text text-anchor="start" x="2097.5" y="-74.5" font-family="Helvetica" font-size="10.00">boost/asio/detail/pop</text>
<text text-anchor="middle" x="2143" y="-63.5" font-family="Helvetica" font-size="10.00">_options.hpp</text>
</a>
</g>
</g>
<!-- Node11&#45;&gt;Node37 -->
<g id="edge24" class="edge">
<title>Node11&#45;&gt;Node37</title>
<path fill="none" stroke="midnightblue" d="M2182.88,-198.62C2124.77,-191.81 2045.35,-178.27 2026,-154 2003.95,-126.34 2042.97,-104.17 2081.75,-89.97"/>
<polygon fill="midnightblue" stroke="midnightblue" points="2083.28,-93.14 2091.57,-86.54 2080.97,-86.54 2083.28,-93.14"/>
</g>
<!-- Node45 -->
<g id="node16" class="node">
<title>Node45</title>
<g id="a_node16"><a xlink:title=" ">
<polygon fill="white" stroke="#bfbfbf" points="2187.5,-123.5 2187.5,-153.5 2306.5,-153.5 2306.5,-123.5 2187.5,-123.5"/>
<text text-anchor="start" x="2195.5" y="-141.5" font-family="Helvetica" font-size="10.00">boost/asio/detail/socket</text>
<text text-anchor="middle" x="2247" y="-130.5" font-family="Helvetica" font-size="10.00">_types.hpp</text>
</a>
</g>
</g>
<!-- Node11&#45;&gt;Node45 -->
<g id="edge17" class="edge">
<title>Node11&#45;&gt;Node45</title>
<path fill="none" stroke="midnightblue" d="M2247,-195.73C2247,-187.54 2247,-174.92 2247,-163.71"/>
<polygon fill="midnightblue" stroke="midnightblue" points="2250.5,-163.59 2247,-153.59 2243.5,-163.59 2250.5,-163.59"/>
</g>
<!-- Node49 -->
<g id="node17" class="node">
<title>Node49</title>
<g id="a_node17"><a xlink:title=" ">
<polygon fill="white" stroke="#bfbfbf" points="2325,-123.5 2325,-153.5 2423,-153.5 2423,-123.5 2325,-123.5"/>
<text text-anchor="start" x="2333" y="-141.5" font-family="Helvetica" font-size="10.00">boost/asio/ip/basic</text>
<text text-anchor="middle" x="2374" y="-130.5" font-family="Helvetica" font-size="10.00">_endpoint.hpp</text>
</a>
</g>
</g>
<!-- Node11&#45;&gt;Node49 -->
<g id="edge18" class="edge">
<title>Node11&#45;&gt;Node49</title>
<path fill="none" stroke="midnightblue" d="M2263.86,-195.87C2282.53,-186.31 2313.18,-170.63 2337.41,-158.22"/>
<polygon fill="midnightblue" stroke="midnightblue" points="2339.04,-161.32 2346.35,-153.65 2335.85,-155.09 2339.04,-161.32"/>
</g>
<!-- Node50 -->
<g id="node18" class="node">
<title>Node50</title>
<g id="a_node18"><a xlink:title=" ">
<polygon fill="white" stroke="#bfbfbf" points="2441,-123.5 2441,-153.5 2539,-153.5 2539,-123.5 2441,-123.5"/>
<text text-anchor="start" x="2449" y="-141.5" font-family="Helvetica" font-size="10.00">boost/asio/ip/basic</text>
<text text-anchor="middle" x="2490" y="-130.5" font-family="Helvetica" font-size="10.00">_resolver.hpp</text>
</a>
</g>
</g>
<!-- Node11&#45;&gt;Node50 -->
<g id="edge19" class="edge">
<title>Node11&#45;&gt;Node50</title>
<path fill="none" stroke="midnightblue" d="M2279.02,-195.94C2317.52,-185.64 2382.92,-168.14 2430.73,-155.36"/>
<polygon fill="midnightblue" stroke="midnightblue" points="2431.89,-158.67 2440.64,-152.7 2430.08,-151.91 2431.89,-158.67"/>
</g>
<!-- Node51 -->
<g id="node19" class="node">
<title>Node51</title>
<g id="a_node19"><a xlink:title=" ">
<polygon fill="white" stroke="#bfbfbf" points="2557,-123.5 2557,-153.5 2667,-153.5 2667,-123.5 2557,-123.5"/>
<text text-anchor="start" x="2565" y="-141.5" font-family="Helvetica" font-size="10.00">boost/asio/ip/basic</text>
<text text-anchor="middle" x="2612" y="-130.5" font-family="Helvetica" font-size="10.00">_resolver_iterator.hpp</text>
</a>
</g>
</g>
<!-- Node11&#45;&gt;Node51 -->
<g id="edge20" class="edge">
<title>Node11&#45;&gt;Node51</title>
<path fill="none" stroke="midnightblue" d="M2288.64,-195.93C2298.88,-193.91 2309.82,-191.81 2320,-190 2417.84,-172.57 2445.54,-173.28 2546.85,-154.14"/>
<polygon fill="midnightblue" stroke="midnightblue" points="2547.72,-157.54 2556.89,-152.23 2546.41,-150.66 2547.72,-157.54"/>
</g>
<!-- Node52 -->
<g id="node20" class="node">
<title>Node52</title>
<g id="a_node20"><a xlink:title=" ">
<polygon fill="white" stroke="#bfbfbf" points="2685,-123.5 2685,-153.5 2789,-153.5 2789,-123.5 2685,-123.5"/>
<text text-anchor="start" x="2693" y="-141.5" font-family="Helvetica" font-size="10.00">boost/asio/ip/basic</text>
<text text-anchor="middle" x="2737" y="-130.5" font-family="Helvetica" font-size="10.00">_resolver_query.hpp</text>
</a>
</g>
</g>
<!-- Node11&#45;&gt;Node52 -->
<g id="edge21" class="edge">
<title>Node11&#45;&gt;Node52</title>
<path fill="none" stroke="midnightblue" d="M2286.28,-195.98C2297.17,-193.82 2309.01,-191.64 2320,-190 2474.06,-166.96 2517.42,-179.89 2674.81,-154.05"/>
<polygon fill="midnightblue" stroke="midnightblue" points="2675.56,-157.47 2684.85,-152.38 2674.41,-150.57 2675.56,-157.47"/>
</g>
<!-- Node53 -->
<g id="node21" class="node">
<title>Node53</title>
<g id="a_node21"><a xlink:title=" ">
<polygon fill="white" stroke="#bfbfbf" points="2807,-129 2807,-148 2917,-148 2917,-129 2807,-129"/>
<text text-anchor="middle" x="2862" y="-136" font-family="Helvetica" font-size="10.00">boost/asio/ip/udp.hpp</text>
</a>
</g>
</g>
<!-- Node11&#45;&gt;Node53 -->
<g id="edge22" class="edge">
<title>Node11&#45;&gt;Node53</title>
<path fill="none" stroke="midnightblue" d="M2285.5,-195.95C2296.59,-193.73 2308.73,-191.54 2320,-190 2531.09,-161.19 2587.31,-185.62 2798,-154 2804.74,-152.99 2811.82,-151.66 2818.72,-150.21"/>
<polygon fill="midnightblue" stroke="midnightblue" points="2819.61,-153.6 2828.63,-148.04 2818.11,-146.76 2819.61,-153.6"/>
</g>
<!-- Node12&#45;&gt;Node10 -->
<g id="edge14" class="edge">
<title>Node12&#45;&gt;Node10</title>
<path fill="none" stroke="midnightblue" d="M2169.12,-124.37C2172.45,-123.87 2175.76,-123.41 2179,-123 2429.08,-91.33 2727.77,-78.89 2866.72,-74.55"/>
<polygon fill="midnightblue" stroke="midnightblue" points="2866.96,-78.05 2876.85,-74.24 2866.75,-71.05 2866.96,-78.05"/>
</g>
<!-- Node13 -->
<g id="node13" class="node">
<title>Node13</title>
<g id="a_node13"><a xlink:title=" ">
<polygon fill="white" stroke="#bfbfbf" points="2215,-62 2215,-81 2269,-81 2269,-62 2215,-62"/>
<text text-anchor="middle" x="2242" y="-69" font-family="Helvetica" font-size="10.00">iostream</text>
</a>
</g>
</g>
<!-- Node12&#45;&gt;Node13 -->
<g id="edge13" class="edge">
<title>Node12&#45;&gt;Node13</title>
<path fill="none" stroke="midnightblue" d="M2132.38,-123.4C2156.83,-112.04 2190.91,-96.22 2214.55,-85.24"/>
<polygon fill="midnightblue" stroke="midnightblue" points="2216.08,-88.39 2223.68,-81.01 2213.13,-82.04 2216.08,-88.39"/>
</g>
<!-- Node12&#45;&gt;Node36 -->
<g id="edge15" class="edge">
<title>Node12&#45;&gt;Node36</title>
<path fill="none" stroke="midnightblue" d="M2083.12,-123.4C2071.15,-114.45 2055.47,-102.74 2042.17,-92.8"/>
<polygon fill="midnightblue" stroke="midnightblue" points="2043.95,-89.76 2033.84,-86.58 2039.76,-95.37 2043.95,-89.76"/>
</g>
<!-- Node12&#45;&gt;Node37 -->
<g id="edge16" class="edge">
<title>Node12&#45;&gt;Node37</title>
<path fill="none" stroke="midnightblue" d="M2110.9,-123.4C2116.11,-115.13 2122.81,-104.51 2128.74,-95.1"/>
<polygon fill="midnightblue" stroke="midnightblue" points="2131.75,-96.9 2134.12,-86.58 2125.83,-93.17 2131.75,-96.9"/>
</g>
<!-- Node55&#45;&gt;Node3 -->
<g id="edge31" class="edge">
<title>Node55&#45;&gt;Node3</title>
<path fill="none" stroke="midnightblue" d="M316.23,-128.99C278.41,-119.89 217.98,-104.4 167,-87 165.09,-86.35 163.13,-85.64 161.16,-84.91"/>
<polygon fill="midnightblue" stroke="midnightblue" points="162.04,-81.49 151.45,-81.08 159.47,-88 162.04,-81.49"/>
</g>
<!-- Node56 -->
<g id="node24" class="node">
<title>Node56</title>
<g id="a_node24"><a xlink:title=" ">
<polygon fill="white" stroke="#bfbfbf" points="890,-0.5 890,-19.5 936,-19.5 936,-0.5 890,-0.5"/>
<text text-anchor="middle" x="913" y="-7.5" font-family="Helvetica" font-size="10.00">chrono</text>
</a>
</g>
</g>
<!-- Node55&#45;&gt;Node56 -->
<g id="edge27" class="edge">
<title>Node55&#45;&gt;Node56</title>
<path fill="none" stroke="midnightblue" d="M354.18,-128.77C357.01,-111.53 365.94,-73.29 391,-56 478.41,4.31 757.61,-36.5 879.78,-19.69"/>
<polygon fill="midnightblue" stroke="midnightblue" points="880.37,-23.14 889.71,-18.14 879.28,-16.23 880.37,-23.14"/>
</g>
<!-- Node57 -->
<g id="node25" class="node">
<title>Node57</title>
<g id="a_node25"><a xlink:title=" ">
<polygon fill="white" stroke="#bfbfbf" points="520,-62 520,-81 566,-81 566,-62 520,-62"/>
<text text-anchor="middle" x="543" y="-69" font-family="Helvetica" font-size="10.00">cstdint</text>
</a>
</g>
</g>
<!-- Node55&#45;&gt;Node57 -->
<g id="edge28" class="edge">
<title>Node55&#45;&gt;Node57</title>
<path fill="none" stroke="midnightblue" d="M383.36,-128.94C415.44,-119.63 467.33,-103.81 511,-87 512.6,-86.38 514.24,-85.73 515.89,-85.04"/>
<polygon fill="midnightblue" stroke="midnightblue" points="517.43,-88.19 525.22,-81 514.65,-81.77 517.43,-88.19"/>
</g>
<!-- Node58 -->
<g id="node26" class="node">
<title>Node58</title>
<g id="a_node26"><a xlink:title=" ">
<polygon fill="white" stroke="#bfbfbf" points="828,-0.5 828,-19.5 872,-19.5 872,-0.5 828,-0.5"/>
<text text-anchor="middle" x="850" y="-7.5" font-family="Helvetica" font-size="10.00">mutex</text>
</a>
</g>
</g>
<!-- Node55&#45;&gt;Node58 -->
<g id="edge29" class="edge">
<title>Node55&#45;&gt;Node58</title>
<path fill="none" stroke="midnightblue" d="M350.34,-128.92C345.79,-112.3 338.72,-75.61 358,-56 392.37,-21.05 734.8,-28.41 817.68,-19.45"/>
<polygon fill="midnightblue" stroke="midnightblue" points="818.36,-22.89 827.78,-18.04 817.39,-15.96 818.36,-22.89"/>
</g>
<!-- Node59 -->
<g id="node27" class="node">
<title>Node59</title>
<g id="a_node27"><a xlink:title=" ">
<polygon fill="white" stroke="#bfbfbf" points="254,-62 254,-81 306,-81 306,-62 254,-62"/>
<text text-anchor="middle" x="280" y="-69" font-family="Helvetica" font-size="10.00">ostream</text>
</a>
</g>
</g>
<!-- Node55&#45;&gt;Node59 -->
<g id="edge30" class="edge">
<title>Node55&#45;&gt;Node59</title>
<path fill="none" stroke="midnightblue" d="M343.15,-128.73C331.44,-118.31 311.68,-100.71 297.38,-87.97"/>
<polygon fill="midnightblue" stroke="midnightblue" points="299.49,-85.16 289.69,-81.13 294.83,-90.39 299.49,-85.16"/>
</g>
<!-- Node60 -->
<g id="node28" class="node">
<title>Node60</title>
<g id="a_node28"><a xlink:title=" ">
<polygon fill="white" stroke="#bfbfbf" points="176,-62 176,-81 236,-81 236,-62 176,-62"/>
<text text-anchor="middle" x="206" y="-69" font-family="Helvetica" font-size="10.00">streambuf</text>
</a>
</g>
</g>
<!-- Node55&#45;&gt;Node60 -->
<g id="edge32" class="edge">
<title>Node55&#45;&gt;Node60</title>
<path fill="none" stroke="midnightblue" d="M333.48,-128.87C308.22,-117.7 264,-98.15 234.86,-85.26"/>
<polygon fill="midnightblue" stroke="midnightblue" points="236.16,-82.01 225.6,-81.17 233.33,-88.41 236.16,-82.01"/>
</g>
<!-- Node61 -->
<g id="node29" class="node">
<title>Node61</title>
<g id="a_node29"><a xlink:title=" ">
<polygon fill="white" stroke="#bfbfbf" points="400,-62 400,-81 502,-81 502,-62 400,-62"/>
<text text-anchor="middle" x="451" y="-69" font-family="Helvetica" font-size="10.00">vsomeip/export.hpp</text>
</a>
</g>
</g>
<!-- Node55&#45;&gt;Node61 -->
<g id="edge33" class="edge">
<title>Node55&#45;&gt;Node61</title>
<path fill="none" stroke="midnightblue" d="M366.22,-128.73C382.45,-117.96 410.22,-99.55 429.53,-86.74"/>
<polygon fill="midnightblue" stroke="midnightblue" points="431.59,-89.57 437.99,-81.13 427.72,-83.74 431.59,-89.57"/>
</g>
<!-- Node62&#45;&gt;Node58 -->
<g id="edge38" class="edge">
<title>Node62&#45;&gt;Node58</title>
<path fill="none" stroke="midnightblue" d="M1031.96,-197.37C995.77,-190.78 951.27,-178.15 918,-154 876.19,-123.65 859.12,-60.8 853,-29.52"/>
<polygon fill="midnightblue" stroke="midnightblue" points="856.42,-28.77 851.21,-19.54 849.53,-30 856.42,-28.77"/>
</g>
<!-- Node63 -->
<g id="node31" class="node">
<title>Node63</title>
<g id="a_node31"><a xlink:title=" ">
<polygon fill="white" stroke="#bfbfbf" points="1199.5,-129 1199.5,-148 1242.5,-148 1242.5,-129 1199.5,-129"/>
<text text-anchor="middle" x="1221" y="-136" font-family="Helvetica" font-size="10.00">deque</text>
</a>
</g>
</g>
<!-- Node62&#45;&gt;Node63 -->
<g id="edge35" class="edge">
<title>Node62&#45;&gt;Node63</title>
<path fill="none" stroke="midnightblue" d="M1123.12,-190.4C1144.67,-179.19 1174.57,-163.64 1195.64,-152.69"/>
<polygon fill="midnightblue" stroke="midnightblue" points="1197.38,-155.73 1204.64,-148.01 1194.15,-149.52 1197.38,-155.73"/>
</g>
<!-- Node64 -->
<g id="node32" class="node">
<title>Node64</title>
<g id="a_node32"><a xlink:title=" ">
<polygon fill="white" stroke="#bfbfbf" points="1059.5,-62 1059.5,-81 1094.5,-81 1094.5,-62 1059.5,-62"/>
<text text-anchor="middle" x="1077" y="-69" font-family="Helvetica" font-size="10.00">map</text>
</a>
</g>
</g>
<!-- Node62&#45;&gt;Node64 -->
<g id="edge36" class="edge">
<title>Node62&#45;&gt;Node64</title>
<path fill="none" stroke="midnightblue" d="M1089.09,-190.31C1084.65,-180.4 1079.31,-166.72 1077,-154 1073.13,-132.74 1073.88,-107.83 1075.11,-91.2"/>
<polygon fill="midnightblue" stroke="midnightblue" points="1078.61,-91.42 1075.99,-81.16 1071.63,-90.81 1078.61,-91.42"/>
</g>
<!-- Node65 -->
<g id="node33" class="node">
<title>Node65</title>
<g id="a_node33"><a xlink:title=" ">
<polygon fill="white" stroke="#bfbfbf" points="1364.5,-0.5 1364.5,-19.5 1417.5,-19.5 1417.5,-0.5 1364.5,-0.5"/>
<text text-anchor="middle" x="1391" y="-7.5" font-family="Helvetica" font-size="10.00">memory</text>
</a>
</g>
</g>
<!-- Node62&#45;&gt;Node65 -->
<g id="edge37" class="edge">
<title>Node62&#45;&gt;Node65</title>
<path fill="none" stroke="midnightblue" d="M1160.2,-195.99C1249.37,-184.11 1406.15,-163.01 1463,-154 1629.35,-127.63 1727.94,-216.2 1836,-87 1844.84,-76.43 1845.24,-66.22 1836,-56 1808.78,-25.89 1529.14,-14.94 1427.59,-11.95"/>
<polygon fill="midnightblue" stroke="midnightblue" points="1427.6,-8.44 1417.5,-11.66 1427.4,-15.44 1427.6,-8.44"/>
</g>
<!-- Node66 -->
<g id="node34" class="node">
<title>Node66</title>
<g id="a_node34"><a xlink:title=" ">
<polygon fill="white" stroke="#bfbfbf" points="1840,-0.5 1840,-19.5 1870,-19.5 1870,-0.5 1840,-0.5"/>
<text text-anchor="middle" x="1855" y="-7.5" font-family="Helvetica" font-size="10.00">set</text>
</a>
</g>
</g>
<!-- Node62&#45;&gt;Node66 -->
<g id="edge39" class="edge">
<title>Node62&#45;&gt;Node66</title>
<path fill="none" stroke="midnightblue" d="M1160.21,-195.58C1175.53,-193.6 1191.83,-191.61 1207,-190 1401.67,-169.32 1454.01,-192.26 1646,-154 1741.25,-135.02 1796.3,-165.12 1854,-87 1866.1,-70.61 1863.97,-46.35 1860.37,-29.67"/>
<polygon fill="midnightblue" stroke="midnightblue" points="1863.65,-28.36 1857.81,-19.53 1856.87,-30.08 1863.65,-28.36"/>
</g>
<!-- Node67 -->
<g id="node35" class="node">
<title>Node67</title>
<g id="a_node35"><a xlink:title=" ">
<polygon fill="white" stroke="#bfbfbf" points="998.5,-62 998.5,-81 1041.5,-81 1041.5,-62 998.5,-62"/>
<text text-anchor="middle" x="1020" y="-69" font-family="Helvetica" font-size="10.00">vector</text>
</a>
</g>
</g>
<!-- Node62&#45;&gt;Node67 -->
<g id="edge40" class="edge">
<title>Node62&#45;&gt;Node67</title>
<path fill="none" stroke="midnightblue" d="M1087.87,-190.37C1073.88,-166.08 1045.3,-116.44 1030.07,-90"/>
<polygon fill="midnightblue" stroke="midnightblue" points="1032.97,-88.02 1024.95,-81.1 1026.91,-91.51 1032.97,-88.02"/>
</g>
<!-- Node68 -->
<g id="node36" class="node">
<title>Node68</title>
<g id="a_node36"><a xlink:title=" ">
<polygon fill="white" stroke="#bfbfbf" points="1260.5,-129 1260.5,-148 1343.5,-148 1343.5,-129 1260.5,-129"/>
<text text-anchor="middle" x="1302" y="-136" font-family="Helvetica" font-size="10.00">boost/array.hpp</text>
</a>
</g>
</g>
<!-- Node62&#45;&gt;Node68 -->
<g id="edge41" class="edge">
<title>Node62&#45;&gt;Node68</title>
<path fill="none" stroke="midnightblue" d="M1140.45,-190.48C1177.69,-178.72 1230.24,-162.14 1265.17,-151.12"/>
<polygon fill="midnightblue" stroke="midnightblue" points="1266.49,-154.38 1274.97,-148.03 1264.38,-147.7 1266.49,-154.38"/>
</g>
<!-- Node69 -->
<g id="node37" class="node">
<title>Node69</title>
<g id="a_node37"><a xlink:href="endpoints_2include_2buffer_8hpp.html" target="_top" xlink:title=" ">
<polygon fill="white" stroke="red" points="882.5,-62 882.5,-81 941.5,-81 941.5,-62 882.5,-62"/>
<text text-anchor="middle" x="912" y="-69" font-family="Helvetica" font-size="10.00">buffer.hpp</text>
</a>
</g>
</g>
<!-- Node62&#45;&gt;Node69 -->
<g id="edge42" class="edge">
<title>Node62&#45;&gt;Node69</title>
<path fill="none" stroke="midnightblue" d="M1031.98,-197.61C1000.33,-191.11 963.71,-178.49 939,-154 922.08,-137.23 915.76,-109.63 913.41,-91.26"/>
<polygon fill="midnightblue" stroke="midnightblue" points="916.88,-90.8 912.39,-81.2 909.91,-91.5 916.88,-90.8"/>
</g>
<!-- Node73 -->
<g id="node39" class="node">
<title>Node73</title>
<g id="a_node39"><a xlink:href="endpoint__impl_8hpp.html" target="_top" xlink:title=" ">
<polygon fill="white" stroke="red" points="1086.5,-129 1086.5,-148 1181.5,-148 1181.5,-129 1086.5,-129"/>
<text text-anchor="middle" x="1134" y="-136" font-family="Helvetica" font-size="10.00">endpoint_impl.hpp</text>
</a>
</g>
</g>
<!-- Node62&#45;&gt;Node73 -->
<g id="edge48" class="edge">
<title>Node62&#45;&gt;Node73</title>
<path fill="none" stroke="midnightblue" d="M1104.25,-190.4C1109.99,-180.56 1117.7,-167.38 1123.83,-156.89"/>
<polygon fill="midnightblue" stroke="midnightblue" points="1126.89,-158.59 1128.92,-148.19 1120.85,-155.06 1126.89,-158.59"/>
</g>
<!-- Node101 -->
<g id="node41" class="node">
<title>Node101</title>
<g id="a_node41"><a xlink:href="tp_8hpp.html" target="_top" xlink:title=" ">
<polygon fill="white" stroke="red" points="948,-129 948,-148 992,-148 992,-129 948,-129"/>
<text text-anchor="middle" x="970" y="-136" font-family="Helvetica" font-size="10.00">tp.hpp</text>
</a>
</g>
</g>
<!-- Node62&#45;&gt;Node101 -->
<g id="edge54" class="edge">
<title>Node62&#45;&gt;Node101</title>
<path fill="none" stroke="midnightblue" d="M1068.66,-190.4C1046.94,-179.19 1016.8,-163.64 995.56,-152.69"/>
<polygon fill="midnightblue" stroke="midnightblue" points="996.98,-149.48 986.49,-148.01 993.77,-155.7 996.98,-149.48"/>
</g>
<!-- Node69&#45;&gt;Node54 -->
<g id="edge46" class="edge">
<title>Node69&#45;&gt;Node54</title>
<path fill="none" stroke="midnightblue" d="M882.35,-67.43C793.03,-58.17 525.13,-30.4 401.63,-17.6"/>
<polygon fill="midnightblue" stroke="midnightblue" points="401.87,-14.1 391.57,-16.55 401.15,-21.07 401.87,-14.1"/>
</g>
<!-- Node69&#45;&gt;Node56 -->
<g id="edge43" class="edge">
<title>Node69&#45;&gt;Node56</title>
<path fill="none" stroke="midnightblue" d="M912.14,-61.98C912.28,-53.58 912.5,-40.48 912.69,-29.66"/>
<polygon fill="midnightblue" stroke="midnightblue" points="916.19,-29.57 912.86,-19.51 909.19,-29.45 916.19,-29.57"/>
</g>
<!-- Node69&#45;&gt;Node65 -->
<g id="edge44" class="edge">
<title>Node69&#45;&gt;Node65</title>
<path fill="none" stroke="midnightblue" d="M935.03,-61.87C941.72,-59.66 949.08,-57.48 956,-56 1101.07,-24.97 1278.1,-15.09 1353.79,-12.16"/>
<polygon fill="midnightblue" stroke="midnightblue" points="1354.34,-15.64 1364.21,-11.77 1354.09,-8.64 1354.34,-15.64"/>
</g>
<!-- Node69&#45;&gt;Node66 -->
<g id="edge45" class="edge">
<title>Node69&#45;&gt;Node66</title>
<path fill="none" stroke="midnightblue" d="M941.84,-63.91C956.05,-61.03 973.33,-57.87 989,-56 1319.65,-16.46 1725.42,-11.65 1829.66,-11.08"/>
<polygon fill="midnightblue" stroke="midnightblue" points="1829.85,-14.58 1839.83,-11.03 1829.82,-7.58 1829.85,-14.58"/>
</g>
<!-- Node72 -->
<g id="node38" class="node">
<title>Node72</title>
<g id="a_node38"><a xlink:title=" ">
<polygon fill="white" stroke="#bfbfbf" points="670,-0.5 670,-19.5 810,-19.5 810,-0.5 670,-0.5"/>
<text text-anchor="middle" x="740" y="-7.5" font-family="Helvetica" font-size="10.00">vsomeip/primitive_types.hpp</text>
</a>
</g>
</g>
<!-- Node69&#45;&gt;Node72 -->
<g id="edge47" class="edge">
<title>Node69&#45;&gt;Node72</title>
<path fill="none" stroke="midnightblue" d="M887.36,-61.98C857.72,-51.72 807.82,-34.46 774.4,-22.9"/>
<polygon fill="midnightblue" stroke="midnightblue" points="775.19,-19.47 764.6,-19.51 772.9,-26.09 775.19,-19.47"/>
</g>
<!-- Node73&#45;&gt;Node58 -->
<g id="edge51" class="edge">
<title>Node73&#45;&gt;Node58</title>
<path fill="none" stroke="midnightblue" d="M1133.43,-128.74C1131.83,-111.79 1125.76,-74.56 1103,-56 1027.95,5.19 981.48,-39.01 882.06,-19.87"/>
<polygon fill="midnightblue" stroke="midnightblue" points="882.77,-16.45 872.27,-17.82 881.33,-23.3 882.77,-16.45"/>
</g>
<!-- Node73&#45;&gt;Node64 -->
<g id="edge49" class="edge">
<title>Node73&#45;&gt;Node64</title>
<path fill="none" stroke="midnightblue" d="M1126.31,-128.73C1117.34,-118.5 1102.31,-101.36 1091.2,-88.69"/>
<polygon fill="midnightblue" stroke="midnightblue" points="1093.79,-86.34 1084.57,-81.13 1088.53,-90.95 1093.79,-86.34"/>
</g>
<!-- Node73&#45;&gt;Node65 -->
<g id="edge50" class="edge">
<title>Node73&#45;&gt;Node65</title>
<path fill="none" stroke="midnightblue" d="M1164.37,-128.96C1172.64,-126.82 1181.63,-124.66 1190,-123 1246.56,-111.75 1409.16,-130.51 1447,-87 1456.04,-76.6 1452.95,-68.42 1447,-56 1440.75,-42.95 1428.66,-32.49 1417.32,-24.95"/>
<polygon fill="midnightblue" stroke="midnightblue" points="1418.85,-21.79 1408.5,-19.54 1415.19,-27.75 1418.85,-21.79"/>
</g>
<!-- Node73&#45;&gt;Node69 -->
<g id="edge53" class="edge">
<title>Node73&#45;&gt;Node69</title>
<path fill="none" stroke="midnightblue" d="M1104.52,-128.87C1065.02,-117.3 994.82,-96.75 950.98,-83.91"/>
<polygon fill="midnightblue" stroke="midnightblue" points="951.83,-80.51 941.25,-81.06 949.86,-87.23 951.83,-80.51"/>
</g>
<!-- Node74 -->
<g id="node40" class="node">
<title>Node74</title>
<g id="a_node40"><a xlink:title=" ">
<polygon fill="white" stroke="#bfbfbf" points="1151,-62 1151,-81 1197,-81 1197,-62 1151,-62"/>
<text text-anchor="middle" x="1174" y="-69" font-family="Helvetica" font-size="10.00">atomic</text>
</a>
</g>
</g>
<!-- Node73&#45;&gt;Node74 -->
<g id="edge52" class="edge">
<title>Node73&#45;&gt;Node74</title>
<path fill="none" stroke="midnightblue" d="M1139.39,-128.73C1145.51,-118.79 1155.64,-102.34 1163.36,-89.79"/>
<polygon fill="midnightblue" stroke="midnightblue" points="1166.43,-91.48 1168.69,-81.13 1160.47,-87.81 1166.43,-91.48"/>
</g>
<!-- Node101&#45;&gt;Node57 -->
<g id="edge55" class="edge">
<title>Node101&#45;&gt;Node57</title>
<path fill="none" stroke="midnightblue" d="M947.85,-135.54C875.44,-129.01 646.33,-107.23 575,-87 573.06,-86.45 571.09,-85.8 569.13,-85.09"/>
<polygon fill="midnightblue" stroke="midnightblue" points="570.16,-81.73 559.58,-81.15 567.49,-88.2 570.16,-81.73"/>
</g>
<!-- Node101&#45;&gt;Node65 -->
<g id="edge57" class="edge">
<title>Node101&#45;&gt;Node65</title>
<path fill="none" stroke="midnightblue" d="M969.1,-128.77C967.88,-111.87 967.93,-74.73 989,-56 1016.04,-31.97 1260,-17.47 1354.16,-12.73"/>
<polygon fill="midnightblue" stroke="midnightblue" points="1354.54,-16.21 1364.36,-12.22 1354.2,-9.22 1354.54,-16.21"/>
</g>
<!-- Node101&#45;&gt;Node67 -->
<g id="edge56" class="edge">
<title>Node101&#45;&gt;Node67</title>
<path fill="none" stroke="midnightblue" d="M976.74,-128.73C984.54,-118.6 997.55,-101.69 1007.26,-89.06"/>
<polygon fill="midnightblue" stroke="midnightblue" points="1010.04,-91.19 1013.36,-81.13 1004.49,-86.92 1010.04,-91.19"/>
</g>
<!-- Node101&#45;&gt;Node69 -->
<g id="edge59" class="edge">
<title>Node101&#45;&gt;Node69</title>
<path fill="none" stroke="midnightblue" d="M962.18,-128.73C953.05,-118.5 937.76,-101.36 926.45,-88.69"/>
<polygon fill="midnightblue" stroke="midnightblue" points="928.97,-86.26 919.7,-81.13 923.74,-90.92 928.97,-86.26"/>
</g>
<!-- Node102 -->
<g id="node42" class="node">
<title>Node102</title>
<g id="a_node42"><a xlink:title=" ">
<polygon fill="white" stroke="#bfbfbf" points="1215,-56.5 1215,-86.5 1325,-86.5 1325,-56.5 1215,-56.5"/>
<text text-anchor="start" x="1223" y="-74.5" font-family="Helvetica" font-size="10.00">vsomeip/enumeration</text>
<text text-anchor="middle" x="1270" y="-63.5" font-family="Helvetica" font-size="10.00">_types.hpp</text>
</a>
</g>
</g>
<!-- Node101&#45;&gt;Node102 -->
<g id="edge58" class="edge">
<title>Node101&#45;&gt;Node102</title>
<path fill="none" stroke="midnightblue" d="M992.14,-132.85C1032.37,-124.39 1120.39,-105.79 1204.84,-87.24"/>
<polygon fill="midnightblue" stroke="midnightblue" points="1205.84,-90.61 1214.85,-85.04 1204.33,-83.77 1205.84,-90.61"/>
</g>
<!-- Node103&#45;&gt;Node58 -->
<g id="edge64" class="edge">
<title>Node103&#45;&gt;Node58</title>
<path fill="none" stroke="midnightblue" d="M749.64,-123.39C761.3,-106.68 781.87,-78.31 802,-56 811.47,-45.5 823,-34.64 832.39,-26.22"/>
<polygon fill="midnightblue" stroke="midnightblue" points="834.8,-28.76 839.98,-19.51 830.16,-23.51 834.8,-28.76"/>
</g>
<!-- Node103&#45;&gt;Node61 -->
<g id="edge67" class="edge">
<title>Node103&#45;&gt;Node61</title>
<path fill="none" stroke="midnightblue" d="M691.69,-127.14C645.3,-117.12 573.28,-101.39 511,-87 506.04,-85.85 500.85,-84.63 495.69,-83.4"/>
<polygon fill="midnightblue" stroke="midnightblue" points="496.41,-79.98 485.87,-81.05 494.78,-86.79 496.41,-79.98"/>
</g>
<!-- Node103&#45;&gt;Node64 -->
<g id="edge61" class="edge">
<title>Node103&#45;&gt;Node64</title>
<path fill="none" stroke="midnightblue" d="M788.19,-134.6C850.18,-129.76 960.54,-117.36 1050,-87 1051.25,-86.58 1052.51,-86.1 1053.76,-85.58"/>
<polygon fill="midnightblue" stroke="midnightblue" points="1055.61,-88.58 1063.11,-81.09 1052.58,-82.27 1055.61,-88.58"/>
</g>
<!-- Node103&#45;&gt;Node65 -->
<g id="edge62" class="edge">
<title>Node103&#45;&gt;Node65</title>
<path fill="none" stroke="midnightblue" d="M757.17,-123.29C781.32,-104.22 827.47,-71 873,-56 962.64,-26.47 1251.43,-15.16 1354.24,-12"/>
<polygon fill="midnightblue" stroke="midnightblue" points="1354.55,-15.5 1364.44,-11.7 1354.34,-8.5 1354.55,-15.5"/>
</g>
<!-- Node103&#45;&gt;Node72 -->
<g id="edge66" class="edge">
<title>Node103&#45;&gt;Node72</title>
<path fill="none" stroke="midnightblue" d="M740,-123.48C740,-100.72 740,-55.7 740,-30.06"/>
<polygon fill="midnightblue" stroke="midnightblue" points="743.5,-29.79 740,-19.79 736.5,-29.79 743.5,-29.79"/>
</g>
<!-- Node103&#45;&gt;Node74 -->
<g id="edge63" class="edge">
<title>Node103&#45;&gt;Node74</title>
<path fill="none" stroke="midnightblue" d="M788.01,-131.8C857.63,-123.32 990.59,-106.28 1103,-87 1115.37,-84.88 1128.88,-82.21 1140.77,-79.74"/>
<polygon fill="midnightblue" stroke="midnightblue" points="1141.66,-83.13 1150.73,-77.64 1140.22,-76.28 1141.66,-83.13"/>
</g>
<!-- Node76 -->
<g id="node44" class="node">
<title>Node76</title>
<g id="a_node44"><a xlink:title=" ">
<polygon fill="white" stroke="#bfbfbf" points="584,-62 584,-81 712,-81 712,-62 584,-62"/>
<text text-anchor="middle" x="648" y="-69" font-family="Helvetica" font-size="10.00">boost/asio/ip/address.hpp</text>
</a>
</g>
</g>
<!-- Node103&#45;&gt;Node76 -->
<g id="edge65" class="edge">
<title>Node103&#45;&gt;Node76</title>
<path fill="none" stroke="midnightblue" d="M720.04,-123.4C704.75,-112.6 683.75,-97.76 668.36,-86.89"/>
<polygon fill="midnightblue" stroke="midnightblue" points="670.23,-83.92 660.04,-81.01 666.19,-89.64 670.23,-83.92"/>
</g>
<!-- Node105&#45;&gt;Node56 -->
<g id="edge71" class="edge">
<title>Node105&#45;&gt;Node56</title>
<path fill="none" stroke="midnightblue" d="M1423.74,-123.35C1441.38,-105.83 1465.26,-75.86 1447,-56 1413.07,-19.09 1057.71,-12.43 946.25,-11.25"/>
<polygon fill="midnightblue" stroke="midnightblue" points="946.27,-7.75 936.24,-11.15 946.21,-14.75 946.27,-7.75"/>
</g>
<!-- Node105&#45;&gt;Node64 -->
<g id="edge72" class="edge">
<title>Node105&#45;&gt;Node64</title>
<path fill="none" stroke="midnightblue" d="M1361.93,-125.24C1358.58,-124.45 1355.24,-123.7 1352,-123 1259.42,-103.11 1234.91,-105.31 1142,-87 1129.67,-84.57 1116.09,-81.59 1104.54,-78.96"/>
<polygon fill="midnightblue" stroke="midnightblue" points="1105.14,-75.51 1094.61,-76.68 1103.57,-82.33 1105.14,-75.51"/>
</g>
<!-- Node105&#45;&gt;Node65 -->
<g id="edge73" class="edge">
<title>Node105&#45;&gt;Node65</title>
<path fill="none" stroke="midnightblue" d="M1454.2,-128.84C1477.88,-121.81 1504.68,-109.25 1519,-87 1526.46,-75.41 1526.96,-67.24 1519,-56 1498.48,-27.03 1457.75,-16.57 1427.72,-12.87"/>
<polygon fill="midnightblue" stroke="midnightblue" points="1427.9,-9.37 1417.6,-11.83 1427.18,-16.34 1427.9,-9.37"/>
</g>
<!-- Node105&#45;&gt;Node66 -->
<g id="edge74" class="edge">
<title>Node105&#45;&gt;Node66</title>
<path fill="none" stroke="midnightblue" d="M1454.09,-134.99C1558.79,-128.89 1807.7,-111.9 1836,-87 1852.08,-72.85 1855.57,-47.34 1855.87,-29.81"/>
<polygon fill="midnightblue" stroke="midnightblue" points="1859.37,-29.58 1855.71,-19.64 1852.37,-29.69 1859.37,-29.58"/>
</g>
<!-- Node105&#45;&gt;Node67 -->
<g id="edge75" class="edge">
<title>Node105&#45;&gt;Node67</title>
<path fill="none" stroke="midnightblue" d="M1361.97,-125.06C1358.6,-124.31 1355.26,-123.61 1352,-123 1219.16,-98 1179.74,-124.93 1050,-87 1048.13,-86.45 1046.22,-85.8 1044.34,-85.07"/>
<polygon fill="midnightblue" stroke="midnightblue" points="1045.74,-81.87 1035.18,-81.04 1042.92,-88.27 1045.74,-81.87"/>
</g>
<!-- Node105&#45;&gt;Node74 -->
<g id="edge70" class="edge">
<title>Node105&#45;&gt;Node74</title>
<path fill="none" stroke="midnightblue" d="M1361.87,-125.51C1358.53,-124.66 1355.21,-123.81 1352,-123 1287.21,-106.62 1269.15,-108.88 1206,-87 1204.34,-86.42 1202.64,-85.79 1200.94,-85.13"/>
<polygon fill="midnightblue" stroke="midnightblue" points="1201.94,-81.75 1191.37,-81.07 1199.21,-88.19 1201.94,-81.75"/>
</g>
<!-- Node105&#45;&gt;Node102 -->
<g id="edge76" class="edge">
<title>Node105&#45;&gt;Node102</title>
<path fill="none" stroke="midnightblue" d="M1378.06,-123.4C1357.8,-113.86 1330.85,-101.16 1308.94,-90.84"/>
<polygon fill="midnightblue" stroke="midnightblue" points="1310.42,-87.67 1299.89,-86.58 1307.44,-94 1310.42,-87.67"/>
</g>
<!-- Node106 -->
<g id="node47" class="node">
<title>Node106</title>
<g id="a_node47"><a xlink:title=" ">
<polygon fill="white" stroke="#bfbfbf" points="1571.5,-62 1571.5,-81 1686.5,-81 1686.5,-62 1571.5,-62"/>
<text text-anchor="middle" x="1629" y="-69" font-family="Helvetica" font-size="10.00">vsomeip/message.hpp</text>
</a>
</g>
</g>
<!-- Node105&#45;&gt;Node106 -->
<g id="edge77" class="edge">
<title>Node105&#45;&gt;Node106</title>
<path fill="none" stroke="midnightblue" d="M1454.06,-123.95C1494.35,-112.1 1552.22,-95.08 1590.2,-83.91"/>
<polygon fill="midnightblue" stroke="midnightblue" points="1591.28,-87.24 1599.88,-81.06 1589.3,-80.53 1591.28,-87.24"/>
</g>
<!-- Node82 -->
<g id="node48" class="node">
<title>Node82</title>
<g id="a_node48"><a xlink:href="vsomeip__sec_8h.html" target="_top" xlink:title=" ">
<polygon fill="white" stroke="red" points="1705,-62 1705,-81 1827,-81 1827,-62 1705,-62"/>
<text text-anchor="middle" x="1766" y="-69" font-family="Helvetica" font-size="10.00">vsomeip/vsomeip_sec.h</text>
</a>
</g>
</g>
<!-- Node105&#45;&gt;Node82 -->
<g id="edge78" class="edge">
<title>Node105&#45;&gt;Node82</title>
<path fill="none" stroke="midnightblue" d="M1454.3,-129.75C1511.09,-120.16 1610.26,-103.11 1695,-87 1701.56,-85.75 1708.45,-84.4 1715.26,-83.04"/>
<polygon fill="midnightblue" stroke="midnightblue" points="1716,-86.46 1725.11,-81.05 1714.62,-79.6 1716,-86.46"/>
</g>
<!-- Node107 -->
<g id="node49" class="node">
<title>Node107</title>
<g id="a_node49"><a xlink:href="criticalsection_8hpp.html" target="_top" xlink:title=" ">
<polygon fill="white" stroke="black" points="1343.5,-62 1343.5,-81 1438.5,-81 1438.5,-62 1343.5,-62"/>
<text text-anchor="middle" x="1391" y="-69" font-family="Helvetica" font-size="10.00">criticalsection.hpp</text>
</a>
</g>
</g>
<!-- Node105&#45;&gt;Node107 -->
<g id="edge79" class="edge">
<title>Node105&#45;&gt;Node107</title>
<path fill="none" stroke="midnightblue" d="M1404.31,-123.4C1401.84,-113.96 1398.57,-101.45 1395.89,-91.19"/>
<polygon fill="midnightblue" stroke="midnightblue" points="1399.19,-89.98 1393.27,-81.19 1392.42,-91.75 1399.19,-89.98"/>
</g>
<!-- Node107&#45;&gt;Node58 -->
<g id="edge81" class="edge">
<title>Node107&#45;&gt;Node58</title>
<path fill="none" stroke="midnightblue" d="M1361.32,-61.94C1352.59,-59.69 1342.97,-57.49 1334,-56 1137.96,-23.52 1081.48,-55.29 882.13,-19.83"/>
<polygon fill="midnightblue" stroke="midnightblue" points="882.69,-16.38 872.22,-18.04 881.44,-23.27 882.69,-16.38"/>
</g>
<!-- Node107&#45;&gt;Node65 -->
<g id="edge80" class="edge">
<title>Node107&#45;&gt;Node65</title>
<path fill="none" stroke="midnightblue" d="M1391,-61.98C1391,-53.58 1391,-40.48 1391,-29.66"/>
<polygon fill="midnightblue" stroke="midnightblue" points="1394.5,-29.51 1391,-19.51 1387.5,-29.51 1394.5,-29.51"/>
</g>
</g>
</svg>
