<?xml version="1.0" encoding="UTF-8" standalone="no"?>
<!DOCTYPE svg PUBLIC "-//W3C//DTD SVG 1.1//EN"
 "http://www.w3.org/Graphics/SVG/1.1/DTD/svg11.dtd">
<!-- Generated by graphviz version 2.44.0 (0)
 -->
<!-- Title: /home/ec2&#45;user/workspace/vsomeip/implementation/service_discovery/include/service_discovery_host.hpp Pages: 1 -->
<svg width="735pt" height="184pt"
 viewBox="0.00 0.00 735.00 184.00" xmlns="http://www.w3.org/2000/svg" xmlns:xlink="http://www.w3.org/1999/xlink">
<g id="graph0" class="graph" transform="scale(1 1) rotate(0) translate(4 180)">
<title>/home/ec2&#45;user/workspace/vsomeip/implementation/service_discovery/include/service_discovery_host.hpp</title>
<polygon fill="white" stroke="transparent" points="-4,4 -4,-180 731,-180 731,4 -4,4"/>
<!-- Node1 -->
<g id="node1" class="node">
<title>Node1</title>
<g id="a_node1"><a xlink:title=" ">
<polygon fill="#bfbfbf" stroke="black" points="208,-123.5 208,-175.5 349,-175.5 349,-123.5 208,-123.5"/>
<text text-anchor="start" x="216" y="-163.5" font-family="Helvetica" font-size="10.00">/home/ec2&#45;user/workspace</text>
<text text-anchor="start" x="216" y="-152.5" font-family="Helvetica" font-size="10.00">/vsomeip/implementation</text>
<text text-anchor="start" x="216" y="-141.5" font-family="Helvetica" font-size="10.00">/service_discovery/include</text>
<text text-anchor="middle" x="278.5" y="-130.5" font-family="Helvetica" font-size="10.00">/service_discovery_host.hpp</text>
</a>
</g>
</g>
<!-- Node2 -->
<g id="node2" class="node">
<title>Node2</title>
<g id="a_node2"><a xlink:title=" ">
<polygon fill="white" stroke="#bfbfbf" points="0,-0.5 0,-19.5 35,-19.5 35,-0.5 0,-0.5"/>
<text text-anchor="middle" x="17.5" y="-7.5" font-family="Helvetica" font-size="10.00">map</text>
</a>
</g>
</g>
<!-- Node1&#45;&gt;Node2 -->
<g id="edge1" class="edge">
<title>Node1&#45;&gt;Node2</title>
<path fill="none" stroke="midnightblue" d="M207.94,-133.3C171.94,-123.56 128.49,-108.61 93.5,-87 67.68,-71.05 43.99,-44.69 30.15,-27.59"/>
<polygon fill="midnightblue" stroke="midnightblue" points="32.78,-25.28 23.85,-19.59 27.28,-29.61 32.78,-25.28"/>
</g>
<!-- Node3 -->
<g id="node3" class="node">
<title>Node3</title>
<g id="a_node3"><a xlink:title=" ">
<polygon fill="white" stroke="#bfbfbf" points="53,-0.5 53,-19.5 106,-19.5 106,-0.5 53,-0.5"/>
<text text-anchor="middle" x="79.5" y="-7.5" font-family="Helvetica" font-size="10.00">memory</text>
</a>
</g>
</g>
<!-- Node1&#45;&gt;Node3 -->
<g id="edge2" class="edge">
<title>Node1&#45;&gt;Node3</title>
<path fill="none" stroke="midnightblue" d="M207.92,-133.4C177.62,-124.09 143.52,-109.47 118.5,-87 101.3,-71.55 90.59,-46.75 84.84,-29.7"/>
<polygon fill="midnightblue" stroke="midnightblue" points="88.07,-28.3 81.76,-19.8 81.39,-30.38 88.07,-28.3"/>
</g>
<!-- Node4 -->
<g id="node4" class="node">
<title>Node4</title>
<g id="a_node4"><a xlink:title=" ">
<polygon fill="white" stroke="#bfbfbf" points="281.5,-62 281.5,-81 327.5,-81 327.5,-62 281.5,-62"/>
<text text-anchor="middle" x="304.5" y="-69" font-family="Helvetica" font-size="10.00">chrono</text>
</a>
</g>
</g>
<!-- Node1&#45;&gt;Node4 -->
<g id="edge3" class="edge">
<title>Node1&#45;&gt;Node4</title>
<path fill="none" stroke="midnightblue" d="M287.16,-123.19C290.76,-112.65 294.87,-100.64 298.19,-90.95"/>
<polygon fill="midnightblue" stroke="midnightblue" points="301.6,-91.8 301.52,-81.21 294.97,-89.54 301.6,-91.8"/>
</g>
<!-- Node5 -->
<g id="node5" class="node">
<title>Node5</title>
<g id="a_node5"><a xlink:title=" ">
<polygon fill="white" stroke="#bfbfbf" points="418.5,-0.5 418.5,-19.5 546.5,-19.5 546.5,-0.5 418.5,-0.5"/>
<text text-anchor="middle" x="482.5" y="-7.5" font-family="Helvetica" font-size="10.00">boost/asio/ip/address.hpp</text>
</a>
</g>
</g>
<!-- Node1&#45;&gt;Node5 -->
<g id="edge4" class="edge">
<title>Node1&#45;&gt;Node5</title>
<path fill="none" stroke="midnightblue" d="M268.33,-123.3C261.93,-102.92 257.43,-74.65 272.5,-56 281.61,-44.73 357.06,-30.56 414.94,-21.16"/>
<polygon fill="midnightblue" stroke="midnightblue" points="415.84,-24.56 425.16,-19.52 414.73,-17.65 415.84,-24.56"/>
</g>
<!-- Node6 -->
<g id="node6" class="node">
<title>Node6</title>
<g id="a_node6"><a xlink:title=" ">
<polygon fill="white" stroke="#bfbfbf" points="345.5,-62 345.5,-81 473.5,-81 473.5,-62 345.5,-62"/>
<text text-anchor="middle" x="409.5" y="-69" font-family="Helvetica" font-size="10.00">boost/asio/io_service.hpp</text>
</a>
</g>
</g>
<!-- Node1&#45;&gt;Node6 -->
<g id="edge5" class="edge">
<title>Node1&#45;&gt;Node6</title>
<path fill="none" stroke="midnightblue" d="M321.76,-123.4C343.01,-111.07 367.81,-96.69 385.61,-86.36"/>
<polygon fill="midnightblue" stroke="midnightblue" points="387.82,-89.12 394.71,-81.08 384.31,-83.07 387.82,-89.12"/>
</g>
<!-- Node7 -->
<g id="node7" class="node">
<title>Node7</title>
<g id="a_node7"><a xlink:href="implementation_2routing_2include_2function__types_8hpp.html" target="_top" xlink:title=" ">
<polygon fill="white" stroke="black" points="491.5,-56.5 491.5,-86.5 593.5,-86.5 593.5,-56.5 491.5,-56.5"/>
<text text-anchor="start" x="499.5" y="-74.5" font-family="Helvetica" font-size="10.00">../../routing/include</text>
<text text-anchor="middle" x="542.5" y="-63.5" font-family="Helvetica" font-size="10.00">/function_types.hpp</text>
</a>
</g>
</g>
<!-- Node1&#45;&gt;Node7 -->
<g id="edge6" class="edge">
<title>Node1&#45;&gt;Node7</title>
<path fill="none" stroke="midnightblue" d="M349.25,-128.13C391.35,-116.01 444.13,-100.82 483.89,-89.37"/>
<polygon fill="midnightblue" stroke="midnightblue" points="485.06,-92.68 493.7,-86.55 483.12,-85.95 485.06,-92.68"/>
</g>
<!-- Node8 -->
<g id="node8" class="node">
<title>Node8</title>
<g id="a_node8"><a xlink:href="types_8hpp.html" target="_top" xlink:title=" ">
<polygon fill="white" stroke="black" points="127.5,-56.5 127.5,-86.5 225.5,-86.5 225.5,-56.5 127.5,-56.5"/>
<text text-anchor="start" x="135.5" y="-74.5" font-family="Helvetica" font-size="10.00">../../routing/include</text>
<text text-anchor="middle" x="176.5" y="-63.5" font-family="Helvetica" font-size="10.00">/types.hpp</text>
</a>
</g>
</g>
<!-- Node1&#45;&gt;Node8 -->
<g id="edge7" class="edge">
<title>Node1&#45;&gt;Node8</title>
<path fill="none" stroke="midnightblue" d="M244.82,-123.4C231.52,-113.5 216.45,-102.26 203.84,-92.87"/>
<polygon fill="midnightblue" stroke="midnightblue" points="205.68,-89.87 195.57,-86.71 201.49,-95.49 205.68,-89.87"/>
</g>
<!-- Node11 -->
<g id="node11" class="node">
<title>Node11</title>
<g id="a_node11"><a xlink:title=" ">
<polygon fill="white" stroke="#bfbfbf" points="612,-62 612,-81 727,-81 727,-62 612,-62"/>
<text text-anchor="middle" x="669.5" y="-69" font-family="Helvetica" font-size="10.00">vsomeip/message.hpp</text>
</a>
</g>
</g>
<!-- Node1&#45;&gt;Node11 -->
<g id="edge13" class="edge">
<title>Node1&#45;&gt;Node11</title>
<path fill="none" stroke="midnightblue" d="M349.07,-135.64C414.78,-123.54 515.39,-104.69 602.5,-87 608.4,-85.8 614.59,-84.51 620.72,-83.21"/>
<polygon fill="midnightblue" stroke="midnightblue" points="621.87,-86.54 630.92,-81.03 620.41,-79.7 621.87,-86.54"/>
</g>
<!-- Node8&#45;&gt;Node2 -->
<g id="edge8" class="edge">
<title>Node8&#45;&gt;Node2</title>
<path fill="none" stroke="midnightblue" d="M138.82,-56.4C109.96,-45.6 70.82,-30.95 44.89,-21.25"/>
<polygon fill="midnightblue" stroke="midnightblue" points="45.91,-17.9 35.32,-17.67 43.46,-24.45 45.91,-17.9"/>
</g>
<!-- Node8&#45;&gt;Node3 -->
<g id="edge9" class="edge">
<title>Node8&#45;&gt;Node3</title>
<path fill="none" stroke="midnightblue" d="M153.51,-56.4C138.11,-46.95 117.91,-34.56 102.5,-25.11"/>
<polygon fill="midnightblue" stroke="midnightblue" points="103.97,-21.9 93.61,-19.66 100.31,-27.87 103.97,-21.9"/>
</g>
<!-- Node8&#45;&gt;Node5 -->
<g id="edge10" class="edge">
<title>Node8&#45;&gt;Node5</title>
<path fill="none" stroke="midnightblue" d="M225.64,-58.98C230.32,-57.94 234.99,-56.94 239.5,-56 301.99,-43.03 373.9,-29.94 423.19,-21.25"/>
<polygon fill="midnightblue" stroke="midnightblue" points="423.8,-24.69 433.04,-19.51 422.59,-17.8 423.8,-24.69"/>
</g>
<!-- Node9 -->
<g id="node9" class="node">
<title>Node9</title>
<g id="a_node9"><a xlink:title=" ">
<polygon fill="white" stroke="#bfbfbf" points="260.5,-0.5 260.5,-19.5 400.5,-19.5 400.5,-0.5 260.5,-0.5"/>
<text text-anchor="middle" x="330.5" y="-7.5" font-family="Helvetica" font-size="10.00">vsomeip/primitive_types.hpp</text>
</a>
</g>
</g>
<!-- Node8&#45;&gt;Node9 -->
<g id="edge11" class="edge">
<title>Node8&#45;&gt;Node9</title>
<path fill="none" stroke="midnightblue" d="M213,-56.4C239.07,-46.33 273.79,-32.91 298.72,-23.28"/>
<polygon fill="midnightblue" stroke="midnightblue" points="300.03,-26.53 308.09,-19.66 297.5,-20 300.03,-26.53"/>
</g>
<!-- Node10 -->
<g id="node10" class="node">
<title>Node10</title>
<g id="a_node10"><a xlink:title=" ">
<polygon fill="white" stroke="#bfbfbf" points="124.5,-0.5 124.5,-19.5 242.5,-19.5 242.5,-0.5 124.5,-0.5"/>
<text text-anchor="middle" x="183.5" y="-7.5" font-family="Helvetica" font-size="10.00">vsomeip/constants.hpp</text>
</a>
</g>
</g>
<!-- Node8&#45;&gt;Node10 -->
<g id="edge12" class="edge">
<title>Node8&#45;&gt;Node10</title>
<path fill="none" stroke="midnightblue" d="M178.16,-56.4C179.09,-48.47 180.27,-38.46 181.28,-29.86"/>
<polygon fill="midnightblue" stroke="midnightblue" points="184.79,-30 182.48,-19.66 177.84,-29.18 184.79,-30"/>
</g>
</g>
</svg>
