<?xml version="1.0" encoding="UTF-8" standalone="no"?>
<!DOCTYPE svg PUBLIC "-//W3C//DTD SVG 1.1//EN"
 "http://www.w3.org/Graphics/SVG/1.1/DTD/svg11.dtd">
<!-- Generated by graphviz version 2.44.0 (0)
 -->
<!-- Title: /home/ec2&#45;user/workspace/vsomeip/implementation/service_discovery/include/runtime_impl.hpp Pages: 1 -->
<svg width="196pt" height="173pt"
 viewBox="0.00 0.00 195.50 173.00" xmlns="http://www.w3.org/2000/svg" xmlns:xlink="http://www.w3.org/1999/xlink">
<g id="graph0" class="graph" transform="scale(1 1) rotate(0) translate(4 169)">
<title>/home/ec2&#45;user/workspace/vsomeip/implementation/service_discovery/include/runtime_impl.hpp</title>
<polygon fill="white" stroke="transparent" points="-4,4 -4,-169 191.5,-169 191.5,4 -4,4"/>
<!-- Node1 -->
<g id="node1" class="node">
<title>Node1</title>
<g id="a_node1"><a xlink:title=" ">
<polygon fill="#bfbfbf" stroke="black" points="34.5,-112.5 34.5,-164.5 168.5,-164.5 168.5,-112.5 34.5,-112.5"/>
<text text-anchor="start" x="42.5" y="-152.5" font-family="Helvetica" font-size="10.00">/home/ec2&#45;user/workspace</text>
<text text-anchor="start" x="42.5" y="-141.5" font-family="Helvetica" font-size="10.00">/vsomeip/implementation</text>
<text text-anchor="start" x="42.5" y="-130.5" font-family="Helvetica" font-size="10.00">/service_discovery/include</text>
<text text-anchor="middle" x="101.5" y="-119.5" font-family="Helvetica" font-size="10.00">/runtime_impl.hpp</text>
</a>
</g>
</g>
<!-- Node2 -->
<g id="node2" class="node">
<title>Node2</title>
<g id="a_node2"><a xlink:title=" ">
<polygon fill="white" stroke="#bfbfbf" points="0,-56.5 0,-75.5 101,-75.5 101,-56.5 0,-56.5"/>
<text text-anchor="middle" x="50.5" y="-63.5" font-family="Helvetica" font-size="10.00">vsomeip/plugin.hpp</text>
</a>
</g>
</g>
<!-- Node1&#45;&gt;Node2 -->
<g id="edge1" class="edge">
<title>Node1&#45;&gt;Node2</title>
<path fill="none" stroke="midnightblue" d="M83.38,-112.45C76.56,-103.03 68.98,-92.55 62.82,-84.03"/>
<polygon fill="midnightblue" stroke="midnightblue" points="65.49,-81.75 56.79,-75.7 59.82,-85.85 65.49,-81.75"/>
</g>
<!-- Node3 -->
<g id="node3" class="node">
<title>Node3</title>
<g id="a_node3"><a xlink:href="implementation_2service__discovery_2include_2runtime_8hpp.html" target="_top" xlink:title=" ">
<polygon fill="white" stroke="black" points="119.5,-56.5 119.5,-75.5 187.5,-75.5 187.5,-56.5 119.5,-56.5"/>
<text text-anchor="middle" x="153.5" y="-63.5" font-family="Helvetica" font-size="10.00">runtime.hpp</text>
</a>
</g>
</g>
<!-- Node1&#45;&gt;Node3 -->
<g id="edge2" class="edge">
<title>Node1&#45;&gt;Node3</title>
<path fill="none" stroke="midnightblue" d="M119.98,-112.45C127,-102.93 134.82,-92.33 141.14,-83.76"/>
<polygon fill="midnightblue" stroke="midnightblue" points="143.97,-85.82 147.09,-75.7 138.33,-81.67 143.97,-85.82"/>
</g>
<!-- Node4 -->
<g id="node4" class="node">
<title>Node4</title>
<g id="a_node4"><a xlink:title=" ">
<polygon fill="white" stroke="#bfbfbf" points="127,-0.5 127,-19.5 180,-19.5 180,-0.5 127,-0.5"/>
<text text-anchor="middle" x="153.5" y="-7.5" font-family="Helvetica" font-size="10.00">memory</text>
</a>
</g>
</g>
<!-- Node3&#45;&gt;Node4 -->
<g id="edge3" class="edge">
<title>Node3&#45;&gt;Node4</title>
<path fill="none" stroke="midnightblue" d="M153.5,-56.08C153.5,-49.01 153.5,-38.86 153.5,-29.99"/>
<polygon fill="midnightblue" stroke="midnightblue" points="157,-29.75 153.5,-19.75 150,-29.75 157,-29.75"/>
</g>
</g>
</svg>
