<?xml version="1.0" encoding="UTF-8" standalone="no"?>
<!DOCTYPE svg PUBLIC "-//W3C//DTD SVG 1.1//EN"
 "http://www.w3.org/Graphics/SVG/1.1/DTD/svg11.dtd">
<!-- Generated by graphviz version 2.44.0 (0)
 -->
<!-- Title: /home/ec2&#45;user/workspace/vsomeip/implementation/service_discovery/include/serviceentry_impl.hpp Pages: 1 -->
<svg width="527pt" height="150pt"
 viewBox="0.00 0.00 526.50 150.00" xmlns="http://www.w3.org/2000/svg" xmlns:xlink="http://www.w3.org/1999/xlink">
<g id="graph0" class="graph" transform="scale(1 1) rotate(0) translate(4 146)">
<title>/home/ec2&#45;user/workspace/vsomeip/implementation/service_discovery/include/serviceentry_impl.hpp</title>
<polygon fill="white" stroke="transparent" points="-4,4 -4,-146 522.5,-146 522.5,4 -4,4"/>
<!-- Node1 -->
<g id="node1" class="node">
<title>Node1</title>
<g id="a_node1"><a xlink:title=" ">
<polygon fill="#bfbfbf" stroke="black" points="185,-89.5 185,-141.5 319,-141.5 319,-89.5 185,-89.5"/>
<text text-anchor="start" x="193" y="-129.5" font-family="Helvetica" font-size="10.00">/home/ec2&#45;user/workspace</text>
<text text-anchor="start" x="193" y="-118.5" font-family="Helvetica" font-size="10.00">/vsomeip/implementation</text>
<text text-anchor="start" x="193" y="-107.5" font-family="Helvetica" font-size="10.00">/service_discovery/include</text>
<text text-anchor="middle" x="252" y="-96.5" font-family="Helvetica" font-size="10.00">/serviceentry_impl.hpp</text>
</a>
</g>
</g>
<!-- Node2 -->
<g id="node2" class="node">
<title>Node2</title>
<g id="a_node2"><a xlink:href="service__discovery_2src_2message__impl_8cpp.html" target="_top" xlink:title=" ">
<polygon fill="white" stroke="black" points="0,-0.5 0,-52.5 158,-52.5 158,-0.5 0,-0.5"/>
<text text-anchor="start" x="8" y="-40.5" font-family="Helvetica" font-size="10.00">/home/ec2&#45;user/workspace</text>
<text text-anchor="start" x="8" y="-29.5" font-family="Helvetica" font-size="10.00">/vsomeip/implementation</text>
<text text-anchor="start" x="8" y="-18.5" font-family="Helvetica" font-size="10.00">/service_discovery/src/message</text>
<text text-anchor="middle" x="79" y="-7.5" font-family="Helvetica" font-size="10.00">_impl.cpp</text>
</a>
</g>
</g>
<!-- Node1&#45;&gt;Node2 -->
<g id="edge1" class="edge">
<title>Node1&#45;&gt;Node2</title>
<path fill="none" stroke="midnightblue" d="M192.89,-84.78C172.08,-74.31 148.91,-62.66 128.93,-52.61"/>
<polygon fill="midnightblue" stroke="midnightblue" points="191.45,-87.97 201.96,-89.34 194.6,-81.72 191.45,-87.97"/>
</g>
<!-- Node3 -->
<g id="node3" class="node">
<title>Node3</title>
<g id="a_node3"><a xlink:href="service__discovery__impl_8cpp.html" target="_top" xlink:title=" ">
<polygon fill="white" stroke="black" points="176.5,-0.5 176.5,-52.5 327.5,-52.5 327.5,-0.5 176.5,-0.5"/>
<text text-anchor="start" x="184.5" y="-40.5" font-family="Helvetica" font-size="10.00">/home/ec2&#45;user/workspace</text>
<text text-anchor="start" x="184.5" y="-29.5" font-family="Helvetica" font-size="10.00">/vsomeip/implementation</text>
<text text-anchor="start" x="184.5" y="-18.5" font-family="Helvetica" font-size="10.00">/service_discovery/src/service</text>
<text text-anchor="middle" x="252" y="-7.5" font-family="Helvetica" font-size="10.00">_discovery_impl.cpp</text>
</a>
</g>
</g>
<!-- Node1&#45;&gt;Node3 -->
<g id="edge2" class="edge">
<title>Node1&#45;&gt;Node3</title>
<path fill="none" stroke="midnightblue" d="M252,-79.19C252,-70.28 252,-60.9 252,-52.61"/>
<polygon fill="midnightblue" stroke="midnightblue" points="248.5,-79.34 252,-89.34 255.5,-79.34 248.5,-79.34"/>
</g>
<!-- Node4 -->
<g id="node4" class="node">
<title>Node4</title>
<g id="a_node4"><a xlink:href="serviceentry__impl_8cpp.html" target="_top" xlink:title=" ">
<polygon fill="white" stroke="black" points="345.5,-0.5 345.5,-52.5 518.5,-52.5 518.5,-0.5 345.5,-0.5"/>
<text text-anchor="start" x="353.5" y="-40.5" font-family="Helvetica" font-size="10.00">/home/ec2&#45;user/workspace</text>
<text text-anchor="start" x="353.5" y="-29.5" font-family="Helvetica" font-size="10.00">/vsomeip/implementation</text>
<text text-anchor="start" x="353.5" y="-18.5" font-family="Helvetica" font-size="10.00">/service_discovery/src/serviceentry</text>
<text text-anchor="middle" x="432" y="-7.5" font-family="Helvetica" font-size="10.00">_impl.cpp</text>
</a>
</g>
</g>
<!-- Node1&#45;&gt;Node4 -->
<g id="edge3" class="edge">
<title>Node1&#45;&gt;Node4</title>
<path fill="none" stroke="midnightblue" d="M313.21,-84.92C334.94,-74.41 359.17,-62.7 380.05,-52.61"/>
<polygon fill="midnightblue" stroke="midnightblue" points="311.54,-81.83 304.06,-89.34 314.59,-88.14 311.54,-81.83"/>
</g>
</g>
</svg>
