<?xml version="1.0" encoding="UTF-8" standalone="no"?>
<!DOCTYPE svg PUBLIC "-//W3C//DTD SVG 1.1//EN"
 "http://www.w3.org/Graphics/SVG/1.1/DTD/svg11.dtd">
<!-- Generated by graphviz version 2.44.0 (0)
 -->
<!-- Title: /home/ec2&#45;user/workspace/vsomeip/implementation/service_discovery/include/deserializer.hpp Pages: 1 -->
<svg width="330pt" height="184pt"
 viewBox="0.00 0.00 329.50 184.00" xmlns="http://www.w3.org/2000/svg" xmlns:xlink="http://www.w3.org/1999/xlink">
<g id="graph0" class="graph" transform="scale(1 1) rotate(0) translate(4 180)">
<title>/home/ec2&#45;user/workspace/vsomeip/implementation/service_discovery/include/deserializer.hpp</title>
<polygon fill="white" stroke="transparent" points="-4,4 -4,-180 325.5,-180 325.5,4 -4,4"/>
<!-- Node1 -->
<g id="node1" class="node">
<title>Node1</title>
<g id="a_node1"><a xlink:title=" ">
<polygon fill="#bfbfbf" stroke="black" points="45.5,-123.5 45.5,-175.5 179.5,-175.5 179.5,-123.5 45.5,-123.5"/>
<text text-anchor="start" x="53.5" y="-163.5" font-family="Helvetica" font-size="10.00">/home/ec2&#45;user/workspace</text>
<text text-anchor="start" x="53.5" y="-152.5" font-family="Helvetica" font-size="10.00">/vsomeip/implementation</text>
<text text-anchor="start" x="53.5" y="-141.5" font-family="Helvetica" font-size="10.00">/service_discovery/include</text>
<text text-anchor="middle" x="112.5" y="-130.5" font-family="Helvetica" font-size="10.00">/deserializer.hpp</text>
</a>
</g>
</g>
<!-- Node2 -->
<g id="node2" class="node">
<title>Node2</title>
<g id="a_node2"><a xlink:href="message_2include_2deserializer_8hpp.html" target="_top" xlink:title=" ">
<polygon fill="white" stroke="black" points="58.5,-56.5 58.5,-86.5 166.5,-86.5 166.5,-56.5 58.5,-56.5"/>
<text text-anchor="start" x="66.5" y="-74.5" font-family="Helvetica" font-size="10.00">../../message/include</text>
<text text-anchor="middle" x="112.5" y="-63.5" font-family="Helvetica" font-size="10.00">/deserializer.hpp</text>
</a>
</g>
</g>
<!-- Node1&#45;&gt;Node2 -->
<g id="edge1" class="edge">
<title>Node1&#45;&gt;Node2</title>
<path fill="none" stroke="midnightblue" d="M112.5,-123.19C112.5,-114.79 112.5,-105.44 112.5,-97.09"/>
<polygon fill="midnightblue" stroke="midnightblue" points="116,-96.85 112.5,-86.85 109,-96.85 116,-96.85"/>
</g>
<!-- Node3 -->
<g id="node3" class="node">
<title>Node3</title>
<g id="a_node3"><a xlink:title=" ">
<polygon fill="white" stroke="#bfbfbf" points="0,-0.5 0,-19.5 43,-19.5 43,-0.5 0,-0.5"/>
<text text-anchor="middle" x="21.5" y="-7.5" font-family="Helvetica" font-size="10.00">vector</text>
</a>
</g>
</g>
<!-- Node2&#45;&gt;Node3 -->
<g id="edge2" class="edge">
<title>Node2&#45;&gt;Node3</title>
<path fill="none" stroke="midnightblue" d="M90.93,-56.4C76.62,-47.04 57.89,-34.79 43.49,-25.38"/>
<polygon fill="midnightblue" stroke="midnightblue" points="45.03,-22.2 34.74,-19.66 41.2,-28.06 45.03,-22.2"/>
</g>
<!-- Node4 -->
<g id="node4" class="node">
<title>Node4</title>
<g id="a_node4"><a xlink:title=" ">
<polygon fill="white" stroke="#bfbfbf" points="61.5,-0.5 61.5,-19.5 163.5,-19.5 163.5,-0.5 61.5,-0.5"/>
<text text-anchor="middle" x="112.5" y="-7.5" font-family="Helvetica" font-size="10.00">vsomeip/export.hpp</text>
</a>
</g>
</g>
<!-- Node2&#45;&gt;Node4 -->
<g id="edge3" class="edge">
<title>Node2&#45;&gt;Node4</title>
<path fill="none" stroke="midnightblue" d="M112.5,-56.4C112.5,-48.47 112.5,-38.46 112.5,-29.86"/>
<polygon fill="midnightblue" stroke="midnightblue" points="116,-29.66 112.5,-19.66 109,-29.66 116,-29.66"/>
</g>
<!-- Node5 -->
<g id="node5" class="node">
<title>Node5</title>
<g id="a_node5"><a xlink:title=" ">
<polygon fill="white" stroke="#bfbfbf" points="181.5,-0.5 181.5,-19.5 321.5,-19.5 321.5,-0.5 181.5,-0.5"/>
<text text-anchor="middle" x="251.5" y="-7.5" font-family="Helvetica" font-size="10.00">vsomeip/primitive_types.hpp</text>
</a>
</g>
</g>
<!-- Node2&#45;&gt;Node5 -->
<g id="edge4" class="edge">
<title>Node2&#45;&gt;Node5</title>
<path fill="none" stroke="midnightblue" d="M145.44,-56.4C168.66,-46.46 199.49,-33.26 221.92,-23.66"/>
<polygon fill="midnightblue" stroke="midnightblue" points="223.46,-26.81 231.27,-19.66 220.7,-20.38 223.46,-26.81"/>
</g>
</g>
</svg>
