<?xml version="1.0" encoding="UTF-8" standalone="no"?>
<!DOCTYPE svg PUBLIC "-//W3C//DTD SVG 1.1//EN"
 "http://www.w3.org/Graphics/SVG/1.1/DTD/svg11.dtd">
<!-- Generated by graphviz version 2.44.0 (0)
 -->
<!-- Title: /home/ec2&#45;user/workspace/vsomeip/implementation/protocol/include/simple_command.hpp Pages: 1 -->
<svg width="1176pt" height="239pt"
 viewBox="0.00 0.00 1176.00 239.00" xmlns="http://www.w3.org/2000/svg" xmlns:xlink="http://www.w3.org/1999/xlink">
<g id="graph0" class="graph" transform="scale(1 1) rotate(0) translate(4 235)">
<title>/home/ec2&#45;user/workspace/vsomeip/implementation/protocol/include/simple_command.hpp</title>
<polygon fill="white" stroke="transparent" points="-4,4 -4,-235 1172,-235 1172,4 -4,4"/>
<!-- Node1 -->
<g id="node1" class="node">
<title>Node1</title>
<g id="a_node1"><a xlink:title=" ">
<polygon fill="#bfbfbf" stroke="black" points="586.5,-178.5 586.5,-230.5 720.5,-230.5 720.5,-178.5 586.5,-178.5"/>
<text text-anchor="start" x="594.5" y="-218.5" font-family="Helvetica" font-size="10.00">/home/ec2&#45;user/workspace</text>
<text text-anchor="start" x="594.5" y="-207.5" font-family="Helvetica" font-size="10.00">/vsomeip/implementation</text>
<text text-anchor="start" x="594.5" y="-196.5" font-family="Helvetica" font-size="10.00">/protocol/include/simple</text>
<text text-anchor="middle" x="653.5" y="-185.5" font-family="Helvetica" font-size="10.00">_command.hpp</text>
</a>
</g>
</g>
<!-- Node2 -->
<g id="node2" class="node">
<title>Node2</title>
<g id="a_node2"><a xlink:href="deregister__application__command_8hpp.html" target="_top" xlink:title=" ">
<polygon fill="white" stroke="black" points="150,-89.5 150,-141.5 285,-141.5 285,-89.5 150,-89.5"/>
<text text-anchor="start" x="158" y="-129.5" font-family="Helvetica" font-size="10.00">/home/ec2&#45;user/workspace</text>
<text text-anchor="start" x="158" y="-118.5" font-family="Helvetica" font-size="10.00">/vsomeip/implementation</text>
<text text-anchor="start" x="158" y="-107.5" font-family="Helvetica" font-size="10.00">/protocol/include/deregister</text>
<text text-anchor="middle" x="217.5" y="-96.5" font-family="Helvetica" font-size="10.00">_application_command.hpp</text>
</a>
</g>
</g>
<!-- Node1&#45;&gt;Node2 -->
<g id="edge1" class="edge">
<title>Node1&#45;&gt;Node2</title>
<path fill="none" stroke="midnightblue" d="M576.09,-193.8C502.69,-183.78 389.67,-166.19 293.5,-142 290.8,-141.32 288.06,-140.59 285.3,-139.83"/>
<polygon fill="midnightblue" stroke="midnightblue" points="575.79,-197.29 586.17,-195.17 576.73,-190.36 575.79,-197.29"/>
</g>
<!-- Node6 -->
<g id="node6" class="node">
<title>Node6</title>
<g id="a_node6"><a xlink:href="ping__command_8hpp.html" target="_top" xlink:title=" ">
<polygon fill="white" stroke="black" points="652.5,-95 652.5,-136 828.5,-136 828.5,-95 652.5,-95"/>
<text text-anchor="start" x="660.5" y="-124" font-family="Helvetica" font-size="10.00">/home/ec2&#45;user/workspace</text>
<text text-anchor="start" x="660.5" y="-113" font-family="Helvetica" font-size="10.00">/vsomeip/implementation</text>
<text text-anchor="middle" x="740.5" y="-102" font-family="Helvetica" font-size="10.00">/protocol/include/ping_command.hpp</text>
</a>
</g>
</g>
<!-- Node1&#45;&gt;Node6 -->
<g id="edge5" class="edge">
<title>Node1&#45;&gt;Node6</title>
<path fill="none" stroke="midnightblue" d="M685.82,-171.18C697.61,-159.39 710.57,-146.43 720.92,-136.08"/>
<polygon fill="midnightblue" stroke="midnightblue" points="683.26,-168.79 678.66,-178.34 688.21,-173.74 683.26,-168.79"/>
</g>
<!-- Node8 -->
<g id="node8" class="node">
<title>Node8</title>
<g id="a_node8"><a xlink:href="pong__command_8hpp.html" target="_top" xlink:title=" ">
<polygon fill="white" stroke="black" points="303,-95 303,-136 482,-136 482,-95 303,-95"/>
<text text-anchor="start" x="311" y="-124" font-family="Helvetica" font-size="10.00">/home/ec2&#45;user/workspace</text>
<text text-anchor="start" x="311" y="-113" font-family="Helvetica" font-size="10.00">/vsomeip/implementation</text>
<text text-anchor="middle" x="392.5" y="-102" font-family="Helvetica" font-size="10.00">/protocol/include/pong_command.hpp</text>
</a>
</g>
</g>
<!-- Node1&#45;&gt;Node8 -->
<g id="edge9" class="edge">
<title>Node1&#45;&gt;Node8</title>
<path fill="none" stroke="midnightblue" d="M576.79,-177.93C536.61,-164.54 488.18,-148.39 451.06,-136.02"/>
<polygon fill="midnightblue" stroke="midnightblue" points="575.69,-181.25 586.29,-181.1 577.91,-174.61 575.69,-181.25"/>
</g>
<!-- Node10 -->
<g id="node10" class="node">
<title>Node10</title>
<g id="a_node10"><a xlink:href="registered__ack__command_8hpp.html" target="_top" xlink:title=" ">
<polygon fill="white" stroke="black" points="500.5,-89.5 500.5,-141.5 634.5,-141.5 634.5,-89.5 500.5,-89.5"/>
<text text-anchor="start" x="508.5" y="-129.5" font-family="Helvetica" font-size="10.00">/home/ec2&#45;user/workspace</text>
<text text-anchor="start" x="508.5" y="-118.5" font-family="Helvetica" font-size="10.00">/vsomeip/implementation</text>
<text text-anchor="start" x="508.5" y="-107.5" font-family="Helvetica" font-size="10.00">/protocol/include/registered</text>
<text text-anchor="middle" x="567.5" y="-96.5" font-family="Helvetica" font-size="10.00">_ack_command.hpp</text>
</a>
</g>
</g>
<!-- Node1&#45;&gt;Node10 -->
<g id="edge13" class="edge">
<title>Node1&#45;&gt;Node10</title>
<path fill="none" stroke="midnightblue" d="M621.45,-171.08C611.82,-161.34 601.41,-150.8 592.32,-141.61"/>
<polygon fill="midnightblue" stroke="midnightblue" points="619.11,-173.68 628.63,-178.34 624.08,-168.76 619.11,-173.68"/>
</g>
<!-- Node12 -->
<g id="node12" class="node">
<title>Node12</title>
<g id="a_node12"><a xlink:href="suspend__command_8hpp.html" target="_top" xlink:title=" ">
<polygon fill="white" stroke="black" points="846.5,-89.5 846.5,-141.5 980.5,-141.5 980.5,-89.5 846.5,-89.5"/>
<text text-anchor="start" x="854.5" y="-129.5" font-family="Helvetica" font-size="10.00">/home/ec2&#45;user/workspace</text>
<text text-anchor="start" x="854.5" y="-118.5" font-family="Helvetica" font-size="10.00">/vsomeip/implementation</text>
<text text-anchor="start" x="854.5" y="-107.5" font-family="Helvetica" font-size="10.00">/protocol/include/suspend</text>
<text text-anchor="middle" x="913.5" y="-96.5" font-family="Helvetica" font-size="10.00">_command.hpp</text>
</a>
</g>
</g>
<!-- Node1&#45;&gt;Node12 -->
<g id="edge17" class="edge">
<title>Node1&#45;&gt;Node12</title>
<path fill="none" stroke="midnightblue" d="M730.38,-177.83C763.36,-166.8 802.33,-153.78 837.5,-142 840.4,-141.03 843.37,-140.03 846.36,-139.03"/>
<polygon fill="midnightblue" stroke="midnightblue" points="729.17,-174.54 720.8,-181.03 731.39,-181.18 729.17,-174.54"/>
</g>
<!-- Node14 -->
<g id="node14" class="node">
<title>Node14</title>
<g id="a_node14"><a xlink:href="simple__command_8cpp.html" target="_top" xlink:title=" ">
<polygon fill="white" stroke="black" points="999,-95 999,-136 1168,-136 1168,-95 999,-95"/>
<text text-anchor="start" x="1007" y="-124" font-family="Helvetica" font-size="10.00">/home/ec2&#45;user/workspace</text>
<text text-anchor="start" x="1007" y="-113" font-family="Helvetica" font-size="10.00">/vsomeip/implementation</text>
<text text-anchor="middle" x="1083.5" y="-102" font-family="Helvetica" font-size="10.00">/protocol/src/simple_command.cpp</text>
</a>
</g>
</g>
<!-- Node1&#45;&gt;Node14 -->
<g id="edge20" class="edge">
<title>Node1&#45;&gt;Node14</title>
<path fill="none" stroke="midnightblue" d="M731.03,-191.21C799.37,-179.92 901.48,-161.96 989.5,-142 997.5,-140.19 1005.84,-138.14 1014.11,-136.03"/>
<polygon fill="midnightblue" stroke="midnightblue" points="730.07,-187.82 720.77,-192.89 731.21,-194.72 730.07,-187.82"/>
</g>
<!-- Node3 -->
<g id="node3" class="node">
<title>Node3</title>
<g id="a_node3"><a xlink:href="deregister__application__command_8cpp.html" target="_top" xlink:title=" ">
<polygon fill="white" stroke="black" points="0,-0.5 0,-52.5 135,-52.5 135,-0.5 0,-0.5"/>
<text text-anchor="start" x="8" y="-40.5" font-family="Helvetica" font-size="10.00">/home/ec2&#45;user/workspace</text>
<text text-anchor="start" x="8" y="-29.5" font-family="Helvetica" font-size="10.00">/vsomeip/implementation</text>
<text text-anchor="start" x="8" y="-18.5" font-family="Helvetica" font-size="10.00">/protocol/src/deregister</text>
<text text-anchor="middle" x="67.5" y="-7.5" font-family="Helvetica" font-size="10.00">_application_command.cpp</text>
</a>
</g>
</g>
<!-- Node2&#45;&gt;Node3 -->
<g id="edge2" class="edge">
<title>Node2&#45;&gt;Node3</title>
<path fill="none" stroke="midnightblue" d="M165.04,-84.07C147.31,-73.79 127.73,-62.43 110.79,-52.61"/>
<polygon fill="midnightblue" stroke="midnightblue" points="163.71,-87.35 174.11,-89.34 167.22,-81.29 163.71,-87.35"/>
</g>
<!-- Node4 -->
<g id="node4" class="node">
<title>Node4</title>
<g id="a_node4"><a xlink:href="routing__manager__client_8cpp.html" target="_top" xlink:title=" ">
<polygon fill="white" stroke="black" points="332.5,-0.5 332.5,-52.5 472.5,-52.5 472.5,-0.5 332.5,-0.5"/>
<text text-anchor="start" x="340.5" y="-40.5" font-family="Helvetica" font-size="10.00">/home/ec2&#45;user/workspace</text>
<text text-anchor="start" x="340.5" y="-29.5" font-family="Helvetica" font-size="10.00">/vsomeip/implementation</text>
<text text-anchor="start" x="340.5" y="-18.5" font-family="Helvetica" font-size="10.00">/routing/src/routing_manager</text>
<text text-anchor="middle" x="402.5" y="-7.5" font-family="Helvetica" font-size="10.00">_client.cpp</text>
</a>
</g>
</g>
<!-- Node2&#45;&gt;Node4 -->
<g id="edge3" class="edge">
<title>Node2&#45;&gt;Node4</title>
<path fill="none" stroke="midnightblue" d="M280.11,-85.06C302.52,-74.52 327.55,-62.75 349.11,-52.61"/>
<polygon fill="midnightblue" stroke="midnightblue" points="278.57,-81.91 271.01,-89.34 281.55,-88.25 278.57,-81.91"/>
</g>
<!-- Node5 -->
<g id="node5" class="node">
<title>Node5</title>
<g id="a_node5"><a xlink:href="routing__manager__stub_8cpp.html" target="_top" xlink:title=" ">
<polygon fill="white" stroke="black" points="642.5,-0.5 642.5,-52.5 782.5,-52.5 782.5,-0.5 642.5,-0.5"/>
<text text-anchor="start" x="650.5" y="-40.5" font-family="Helvetica" font-size="10.00">/home/ec2&#45;user/workspace</text>
<text text-anchor="start" x="650.5" y="-29.5" font-family="Helvetica" font-size="10.00">/vsomeip/implementation</text>
<text text-anchor="start" x="650.5" y="-18.5" font-family="Helvetica" font-size="10.00">/routing/src/routing_manager</text>
<text text-anchor="middle" x="712.5" y="-7.5" font-family="Helvetica" font-size="10.00">_stub.cpp</text>
</a>
</g>
</g>
<!-- Node2&#45;&gt;Node5 -->
<g id="edge4" class="edge">
<title>Node2&#45;&gt;Node5</title>
<path fill="none" stroke="midnightblue" d="M295.19,-88.83C443.86,-57.81 488.04,-83.83 633.5,-53 636.46,-52.37 639.47,-51.68 642.49,-50.93"/>
<polygon fill="midnightblue" stroke="midnightblue" points="294.29,-85.44 285.25,-90.95 295.76,-92.29 294.29,-85.44"/>
</g>
<!-- Node6&#45;&gt;Node4 -->
<g id="edge7" class="edge">
<title>Node6&#45;&gt;Node4</title>
<path fill="none" stroke="midnightblue" d="M657.64,-92.49C652.86,-91.29 648.12,-90.12 643.5,-89 571.82,-71.62 552.67,-72.35 481.5,-53 478.58,-52.21 475.61,-51.37 472.61,-50.51"/>
<polygon fill="midnightblue" stroke="midnightblue" points="656.93,-95.92 667.48,-94.98 658.65,-89.14 656.93,-95.92"/>
</g>
<!-- Node6&#45;&gt;Node5 -->
<g id="edge8" class="edge">
<title>Node6&#45;&gt;Node5</title>
<path fill="none" stroke="midnightblue" d="M731.06,-85.16C727.68,-74.66 723.9,-62.92 720.64,-52.79"/>
<polygon fill="midnightblue" stroke="midnightblue" points="727.75,-86.31 734.15,-94.76 734.41,-84.17 727.75,-86.31"/>
</g>
<!-- Node7 -->
<g id="node7" class="node">
<title>Node7</title>
<g id="a_node7"><a xlink:href="ping__command_8cpp.html" target="_top" xlink:title=" ">
<polygon fill="white" stroke="black" points="800.5,-6 800.5,-47 958.5,-47 958.5,-6 800.5,-6"/>
<text text-anchor="start" x="808.5" y="-35" font-family="Helvetica" font-size="10.00">/home/ec2&#45;user/workspace</text>
<text text-anchor="start" x="808.5" y="-24" font-family="Helvetica" font-size="10.00">/vsomeip/implementation</text>
<text text-anchor="middle" x="879.5" y="-13" font-family="Helvetica" font-size="10.00">/protocol/src/ping_command.cpp</text>
</a>
</g>
</g>
<!-- Node6&#45;&gt;Node7 -->
<g id="edge6" class="edge">
<title>Node6&#45;&gt;Node7</title>
<path fill="none" stroke="midnightblue" d="M780.27,-89.61C801.74,-76.17 827.87,-59.81 847.93,-47.26"/>
<polygon fill="midnightblue" stroke="midnightblue" points="778.31,-86.7 771.69,-94.98 782.03,-92.64 778.31,-86.7"/>
</g>
<!-- Node8&#45;&gt;Node4 -->
<g id="edge11" class="edge">
<title>Node8&#45;&gt;Node4</title>
<path fill="none" stroke="midnightblue" d="M395.95,-84.51C397.14,-74.17 398.45,-62.71 399.59,-52.79"/>
<polygon fill="midnightblue" stroke="midnightblue" points="392.43,-84.42 394.77,-94.76 399.39,-85.22 392.43,-84.42"/>
</g>
<!-- Node8&#45;&gt;Node5 -->
<g id="edge12" class="edge">
<title>Node8&#45;&gt;Node5</title>
<path fill="none" stroke="midnightblue" d="M478.12,-92.43C482.64,-91.27 487.13,-90.12 491.5,-89 554.58,-72.88 570.93,-71.01 633.5,-53 636.41,-52.16 639.37,-51.29 642.36,-50.4"/>
<polygon fill="midnightblue" stroke="midnightblue" points="476.98,-89.1 468.17,-94.98 478.72,-95.88 476.98,-89.1"/>
</g>
<!-- Node9 -->
<g id="node9" class="node">
<title>Node9</title>
<g id="a_node9"><a xlink:href="pong__command_8cpp.html" target="_top" xlink:title=" ">
<polygon fill="white" stroke="black" points="153,-6 153,-47 314,-47 314,-6 153,-6"/>
<text text-anchor="start" x="161" y="-35" font-family="Helvetica" font-size="10.00">/home/ec2&#45;user/workspace</text>
<text text-anchor="start" x="161" y="-24" font-family="Helvetica" font-size="10.00">/vsomeip/implementation</text>
<text text-anchor="middle" x="233.5" y="-13" font-family="Helvetica" font-size="10.00">/protocol/src/pong_command.cpp</text>
</a>
</g>
</g>
<!-- Node8&#45;&gt;Node9 -->
<g id="edge10" class="edge">
<title>Node8&#45;&gt;Node9</title>
<path fill="none" stroke="midnightblue" d="M347.95,-90.12C323.12,-76.54 292.61,-59.84 269.34,-47.11"/>
<polygon fill="midnightblue" stroke="midnightblue" points="346.36,-93.25 356.82,-94.98 349.72,-87.1 346.36,-93.25"/>
</g>
<!-- Node10&#45;&gt;Node4 -->
<g id="edge15" class="edge">
<title>Node10&#45;&gt;Node4</title>
<path fill="none" stroke="midnightblue" d="M510.86,-84.64C491.08,-74.2 469.09,-62.61 450.12,-52.61"/>
<polygon fill="midnightblue" stroke="midnightblue" points="509.3,-87.77 519.78,-89.34 512.56,-81.58 509.3,-87.77"/>
</g>
<!-- Node10&#45;&gt;Node5 -->
<g id="edge16" class="edge">
<title>Node10&#45;&gt;Node5</title>
<path fill="none" stroke="midnightblue" d="M618.22,-84.07C635.35,-73.79 654.28,-62.43 670.65,-52.61"/>
<polygon fill="midnightblue" stroke="midnightblue" points="616.21,-81.19 609.44,-89.34 619.82,-87.19 616.21,-81.19"/>
</g>
<!-- Node11 -->
<g id="node11" class="node">
<title>Node11</title>
<g id="a_node11"><a xlink:href="registered__ack__command_8cpp.html" target="_top" xlink:title=" ">
<polygon fill="white" stroke="black" points="490.5,-0.5 490.5,-52.5 624.5,-52.5 624.5,-0.5 490.5,-0.5"/>
<text text-anchor="start" x="498.5" y="-40.5" font-family="Helvetica" font-size="10.00">/home/ec2&#45;user/workspace</text>
<text text-anchor="start" x="498.5" y="-29.5" font-family="Helvetica" font-size="10.00">/vsomeip/implementation</text>
<text text-anchor="start" x="498.5" y="-18.5" font-family="Helvetica" font-size="10.00">/protocol/src/registered</text>
<text text-anchor="middle" x="557.5" y="-7.5" font-family="Helvetica" font-size="10.00">_ack_command.cpp</text>
</a>
</g>
</g>
<!-- Node10&#45;&gt;Node11 -->
<g id="edge14" class="edge">
<title>Node10&#45;&gt;Node11</title>
<path fill="none" stroke="midnightblue" d="M563.44,-79.19C562.42,-70.28 561.34,-60.9 560.39,-52.61"/>
<polygon fill="midnightblue" stroke="midnightblue" points="559.99,-79.8 564.61,-89.34 566.94,-79 559.99,-79.8"/>
</g>
<!-- Node12&#45;&gt;Node5 -->
<g id="edge19" class="edge">
<title>Node12&#45;&gt;Node5</title>
<path fill="none" stroke="midnightblue" d="M846.35,-85.44C821.71,-74.77 794.06,-62.8 770.31,-52.52"/>
<polygon fill="midnightblue" stroke="midnightblue" points="845.06,-88.69 855.63,-89.45 847.85,-82.27 845.06,-88.69"/>
</g>
<!-- Node13 -->
<g id="node13" class="node">
<title>Node13</title>
<g id="a_node13"><a xlink:href="suspend__command_8cpp.html" target="_top" xlink:title=" ">
<polygon fill="white" stroke="black" points="977,-6 977,-47 1154,-47 1154,-6 977,-6"/>
<text text-anchor="start" x="985" y="-35" font-family="Helvetica" font-size="10.00">/home/ec2&#45;user/workspace</text>
<text text-anchor="start" x="985" y="-24" font-family="Helvetica" font-size="10.00">/vsomeip/implementation</text>
<text text-anchor="middle" x="1065.5" y="-13" font-family="Helvetica" font-size="10.00">/protocol/src/suspend_command.cpp</text>
</a>
</g>
</g>
<!-- Node12&#45;&gt;Node13 -->
<g id="edge18" class="edge">
<title>Node12&#45;&gt;Node13</title>
<path fill="none" stroke="midnightblue" d="M966.2,-84.34C987.77,-71.99 1012.1,-58.06 1031.29,-47.08"/>
<polygon fill="midnightblue" stroke="midnightblue" points="964.4,-81.33 957.46,-89.34 967.88,-87.41 964.4,-81.33"/>
</g>
</g>
</svg>
