<?xml version="1.0" encoding="UTF-8" standalone="no"?>
<!DOCTYPE svg PUBLIC "-//W3C//DTD SVG 1.1//EN"
 "http://www.w3.org/Graphics/SVG/1.1/DTD/svg11.dtd">
<!-- Generated by graphviz version 2.44.0 (0)
 -->
<!-- Title: /home/ec2&#45;user/workspace/vsomeip/implementation/protocol/src/simple_command.cpp Pages: 1 -->
<svg width="382pt" height="274pt"
 viewBox="0.00 0.00 381.50 274.00" xmlns="http://www.w3.org/2000/svg" xmlns:xlink="http://www.w3.org/1999/xlink">
<g id="graph0" class="graph" transform="scale(1 1) rotate(0) translate(4 270)">
<title>/home/ec2&#45;user/workspace/vsomeip/implementation/protocol/src/simple_command.cpp</title>
<polygon fill="white" stroke="transparent" points="-4,4 -4,-270 377.5,-270 377.5,4 -4,4"/>
<!-- Node1 -->
<g id="node1" class="node">
<title>Node1</title>
<g id="a_node1"><a xlink:title=" ">
<polygon fill="#bfbfbf" stroke="black" points="0,-224.5 0,-265.5 169,-265.5 169,-224.5 0,-224.5"/>
<text text-anchor="start" x="8" y="-253.5" font-family="Helvetica" font-size="10.00">/home/ec2&#45;user/workspace</text>
<text text-anchor="start" x="8" y="-242.5" font-family="Helvetica" font-size="10.00">/vsomeip/implementation</text>
<text text-anchor="middle" x="84.5" y="-231.5" font-family="Helvetica" font-size="10.00">/protocol/src/simple_command.cpp</text>
</a>
</g>
</g>
<!-- Node2 -->
<g id="node2" class="node">
<title>Node2</title>
<g id="a_node2"><a xlink:title=" ">
<polygon fill="white" stroke="#bfbfbf" points="6.5,-168.5 6.5,-187.5 46.5,-187.5 46.5,-168.5 6.5,-168.5"/>
<text text-anchor="middle" x="26.5" y="-175.5" font-family="Helvetica" font-size="10.00">limits</text>
</a>
</g>
</g>
<!-- Node1&#45;&gt;Node2 -->
<g id="edge1" class="edge">
<title>Node1&#45;&gt;Node2</title>
<path fill="none" stroke="midnightblue" d="M67.1,-224.5C58.8,-215.2 48.99,-204.21 41.1,-195.36"/>
<polygon fill="midnightblue" stroke="midnightblue" points="43.49,-192.78 34.22,-187.65 38.27,-197.44 43.49,-192.78"/>
</g>
<!-- Node3 -->
<g id="node3" class="node">
<title>Node3</title>
<g id="a_node3"><a xlink:href="simple__command_8hpp.html" target="_top" xlink:title=" ">
<polygon fill="white" stroke="black" points="65,-168.5 65,-187.5 220,-187.5 220,-168.5 65,-168.5"/>
<text text-anchor="middle" x="142.5" y="-175.5" font-family="Helvetica" font-size="10.00">../include/simple_command.hpp</text>
</a>
</g>
</g>
<!-- Node1&#45;&gt;Node3 -->
<g id="edge2" class="edge">
<title>Node1&#45;&gt;Node3</title>
<path fill="none" stroke="midnightblue" d="M101.9,-224.5C110.2,-215.2 120.01,-204.21 127.9,-195.36"/>
<polygon fill="midnightblue" stroke="midnightblue" points="130.73,-197.44 134.78,-187.65 125.51,-192.78 130.73,-197.44"/>
</g>
<!-- Node4 -->
<g id="node4" class="node">
<title>Node4</title>
<g id="a_node4"><a xlink:href="command_8hpp.html" target="_top" xlink:title=" ">
<polygon fill="white" stroke="black" points="103.5,-112.5 103.5,-131.5 181.5,-131.5 181.5,-112.5 103.5,-112.5"/>
<text text-anchor="middle" x="142.5" y="-119.5" font-family="Helvetica" font-size="10.00">command.hpp</text>
</a>
</g>
</g>
<!-- Node3&#45;&gt;Node4 -->
<g id="edge3" class="edge">
<title>Node3&#45;&gt;Node4</title>
<path fill="none" stroke="midnightblue" d="M142.5,-168.08C142.5,-161.01 142.5,-150.86 142.5,-141.99"/>
<polygon fill="midnightblue" stroke="midnightblue" points="146,-141.75 142.5,-131.75 139,-141.75 146,-141.75"/>
</g>
<!-- Node5 -->
<g id="node5" class="node">
<title>Node5</title>
<g id="a_node5"><a xlink:title=" ">
<polygon fill="white" stroke="#bfbfbf" points="31.5,-56.5 31.5,-75.5 77.5,-75.5 77.5,-56.5 31.5,-56.5"/>
<text text-anchor="middle" x="54.5" y="-63.5" font-family="Helvetica" font-size="10.00">cstring</text>
</a>
</g>
</g>
<!-- Node4&#45;&gt;Node5 -->
<g id="edge4" class="edge">
<title>Node4&#45;&gt;Node5</title>
<path fill="none" stroke="midnightblue" d="M128.36,-112.32C114.63,-103.9 93.56,-90.97 77.44,-81.07"/>
<polygon fill="midnightblue" stroke="midnightblue" points="78.96,-77.9 68.6,-75.65 75.3,-83.87 78.96,-77.9"/>
</g>
<!-- Node6 -->
<g id="node6" class="node">
<title>Node6</title>
<g id="a_node6"><a xlink:title=" ">
<polygon fill="white" stroke="#bfbfbf" points="96,-56.5 96,-75.5 139,-75.5 139,-56.5 96,-56.5"/>
<text text-anchor="middle" x="117.5" y="-63.5" font-family="Helvetica" font-size="10.00">vector</text>
</a>
</g>
</g>
<!-- Node4&#45;&gt;Node6 -->
<g id="edge5" class="edge">
<title>Node4&#45;&gt;Node6</title>
<path fill="none" stroke="midnightblue" d="M138.37,-112.08C134.99,-104.77 130.08,-94.18 125.88,-85.1"/>
<polygon fill="midnightblue" stroke="midnightblue" points="128.93,-83.36 121.55,-75.75 122.58,-86.3 128.93,-83.36"/>
</g>
<!-- Node7 -->
<g id="node7" class="node">
<title>Node7</title>
<g id="a_node7"><a xlink:title=" ">
<polygon fill="white" stroke="#bfbfbf" points="97.5,-0.5 97.5,-19.5 237.5,-19.5 237.5,-0.5 97.5,-0.5"/>
<text text-anchor="middle" x="167.5" y="-7.5" font-family="Helvetica" font-size="10.00">vsomeip/primitive_types.hpp</text>
</a>
</g>
</g>
<!-- Node4&#45;&gt;Node7 -->
<g id="edge6" class="edge">
<title>Node4&#45;&gt;Node7</title>
<path fill="none" stroke="midnightblue" d="M144.46,-112.37C148.5,-94.62 157.8,-53.67 163.27,-29.6"/>
<polygon fill="midnightblue" stroke="midnightblue" points="166.74,-30.12 165.55,-19.59 159.92,-28.57 166.74,-30.12"/>
</g>
<!-- Node8 -->
<g id="node8" class="node">
<title>Node8</title>
<g id="a_node8"><a xlink:href="protocol_8hpp.html" target="_top" xlink:title=" ">
<polygon fill="white" stroke="black" points="195.5,-56.5 195.5,-75.5 265.5,-75.5 265.5,-56.5 195.5,-56.5"/>
<text text-anchor="middle" x="230.5" y="-63.5" font-family="Helvetica" font-size="10.00">protocol.hpp</text>
</a>
</g>
</g>
<!-- Node4&#45;&gt;Node8 -->
<g id="edge7" class="edge">
<title>Node4&#45;&gt;Node8</title>
<path fill="none" stroke="midnightblue" d="M156.64,-112.32C170.37,-103.9 191.44,-90.97 207.56,-81.07"/>
<polygon fill="midnightblue" stroke="midnightblue" points="209.7,-83.87 216.4,-75.65 206.04,-77.9 209.7,-83.87"/>
</g>
<!-- Node8&#45;&gt;Node7 -->
<g id="edge9" class="edge">
<title>Node8&#45;&gt;Node7</title>
<path fill="none" stroke="midnightblue" d="M220.38,-56.32C210.97,-48.26 196.76,-36.08 185.43,-26.37"/>
<polygon fill="midnightblue" stroke="midnightblue" points="187.68,-23.68 177.81,-19.83 183.12,-29 187.68,-23.68"/>
</g>
<!-- Node9 -->
<g id="node9" class="node">
<title>Node9</title>
<g id="a_node9"><a xlink:title=" ">
<polygon fill="white" stroke="#bfbfbf" points="255.5,-0.5 255.5,-19.5 373.5,-19.5 373.5,-0.5 255.5,-0.5"/>
<text text-anchor="middle" x="314.5" y="-7.5" font-family="Helvetica" font-size="10.00">vsomeip/constants.hpp</text>
</a>
</g>
</g>
<!-- Node8&#45;&gt;Node9 -->
<g id="edge8" class="edge">
<title>Node8&#45;&gt;Node9</title>
<path fill="none" stroke="midnightblue" d="M244,-56.32C257.1,-47.9 277.21,-34.97 292.61,-25.07"/>
<polygon fill="midnightblue" stroke="midnightblue" points="294.52,-28.01 301.04,-19.65 290.73,-22.12 294.52,-28.01"/>
</g>
</g>
</svg>
