<?xml version="1.0" encoding="UTF-8" standalone="no"?>
<!DOCTYPE svg PUBLIC "-//W3C//DTD SVG 1.1//EN"
 "http://www.w3.org/Graphics/SVG/1.1/DTD/svg11.dtd">
<!-- Generated by graphviz version 2.44.0 (0)
 -->
<!-- Title: /home/ec2&#45;user/workspace/vsomeip/implementation/helper/boost/asio/socket_acceptor_service_ext.hpp Pages: 1 -->
<svg width="2300pt" height="396pt"
 viewBox="0.00 0.00 2300.13 396.00" xmlns="http://www.w3.org/2000/svg" xmlns:xlink="http://www.w3.org/1999/xlink">
<g id="graph0" class="graph" transform="scale(1 1) rotate(0) translate(4 392)">
<title>/home/ec2&#45;user/workspace/vsomeip/implementation/helper/boost/asio/socket_acceptor_service_ext.hpp</title>
<polygon fill="white" stroke="transparent" points="-4,4 -4,-392 2296.13,-392 2296.13,4 -4,4"/>
<!-- Node1 -->
<g id="node1" class="node">
<title>Node1</title>
<g id="a_node1"><a xlink:title=" ">
<polygon fill="#bfbfbf" stroke="black" points="590.99,-335.5 590.99,-387.5 724.99,-387.5 724.99,-335.5 590.99,-335.5"/>
<text text-anchor="start" x="598.99" y="-375.5" font-family="Helvetica" font-size="10.00">/home/ec2&#45;user/workspace</text>
<text text-anchor="start" x="598.99" y="-364.5" font-family="Helvetica" font-size="10.00">/vsomeip/implementation</text>
<text text-anchor="start" x="598.99" y="-353.5" font-family="Helvetica" font-size="10.00">/helper/boost/asio/socket</text>
<text text-anchor="middle" x="657.99" y="-342.5" font-family="Helvetica" font-size="10.00">_acceptor_service_ext.hpp</text>
</a>
</g>
</g>
<!-- Node2 -->
<g id="node2" class="node">
<title>Node2</title>
<g id="a_node2"><a xlink:title=" ">
<polygon fill="white" stroke="#bfbfbf" points="63.99,-73 63.99,-92 199.99,-92 199.99,-73 63.99,-73"/>
<text text-anchor="middle" x="131.99" y="-80" font-family="Helvetica" font-size="10.00">boost/asio/detail/config.hpp</text>
</a>
</g>
</g>
<!-- Node1&#45;&gt;Node2 -->
<g id="edge1" class="edge">
<title>Node1&#45;&gt;Node2</title>
<path fill="none" stroke="midnightblue" d="M590.98,-359.06C434.45,-355.01 55.08,-340.91 16.99,-299 -41.28,-234.87 66.73,-135.82 112.71,-98.45"/>
<polygon fill="midnightblue" stroke="midnightblue" points="115.13,-101 120.76,-92.02 110.76,-95.53 115.13,-101"/>
</g>
<!-- Node3 -->
<g id="node3" class="node">
<title>Node3</title>
<g id="a_node3"><a xlink:title=" ">
<polygon fill="white" stroke="#bfbfbf" points="25.99,-274 25.99,-293 165.99,-293 165.99,-274 25.99,-274"/>
<text text-anchor="middle" x="95.99" y="-281" font-family="Helvetica" font-size="10.00">boost/asio/basic_socket.hpp</text>
</a>
</g>
</g>
<!-- Node1&#45;&gt;Node3 -->
<g id="edge2" class="edge">
<title>Node1&#45;&gt;Node3</title>
<path fill="none" stroke="midnightblue" d="M590.63,-353.11C497.14,-342.57 322.84,-321.96 174.99,-299 166.96,-297.75 158.49,-296.32 150.19,-294.85"/>
<polygon fill="midnightblue" stroke="midnightblue" points="150.67,-291.38 140.21,-293.06 149.43,-298.27 150.67,-291.38"/>
</g>
<!-- Node4 -->
<g id="node4" class="node">
<title>Node4</title>
<g id="a_node4"><a xlink:title=" ">
<polygon fill="white" stroke="#bfbfbf" points="183.99,-268.5 183.99,-298.5 293.99,-298.5 293.99,-268.5 183.99,-268.5"/>
<text text-anchor="start" x="191.99" y="-286.5" font-family="Helvetica" font-size="10.00">boost/asio/detail/type</text>
<text text-anchor="middle" x="238.99" y="-275.5" font-family="Helvetica" font-size="10.00">_traits.hpp</text>
</a>
</g>
</g>
<!-- Node1&#45;&gt;Node4 -->
<g id="edge3" class="edge">
<title>Node1&#45;&gt;Node4</title>
<path fill="none" stroke="midnightblue" d="M590.77,-349.37C520.22,-337.53 406.13,-317.93 307.99,-299 306.74,-298.76 305.48,-298.51 304.21,-298.26"/>
<polygon fill="midnightblue" stroke="midnightblue" points="304.81,-294.82 294.32,-296.3 303.44,-301.68 304.81,-294.82"/>
</g>
<!-- Node5 -->
<g id="node5" class="node">
<title>Node5</title>
<g id="a_node5"><a xlink:title=" ">
<polygon fill="white" stroke="#bfbfbf" points="2010.49,-140 2010.49,-159 2113.49,-159 2113.49,-140 2010.49,-140"/>
<text text-anchor="middle" x="2061.99" y="-147" font-family="Helvetica" font-size="10.00">boost/asio/error.hpp</text>
</a>
</g>
</g>
<!-- Node1&#45;&gt;Node5 -->
<g id="edge4" class="edge">
<title>Node1&#45;&gt;Node5</title>
<path fill="none" stroke="midnightblue" d="M725.3,-358.18C986.1,-348.64 1920.85,-309.29 2026.99,-232 2047.28,-217.22 2055.92,-188.22 2059.52,-169.1"/>
<polygon fill="midnightblue" stroke="midnightblue" points="2062.99,-169.59 2061.11,-159.17 2056.08,-168.49 2062.99,-169.59"/>
</g>
<!-- Node6 -->
<g id="node6" class="node">
<title>Node6</title>
<g id="a_node6"><a xlink:title=" ">
<polygon fill="white" stroke="#bfbfbf" points="2131.99,-140 2131.99,-159 2259.99,-159 2259.99,-140 2131.99,-140"/>
<text text-anchor="middle" x="2195.99" y="-147" font-family="Helvetica" font-size="10.00">boost/asio/io_service.hpp</text>
</a>
</g>
</g>
<!-- Node1&#45;&gt;Node6 -->
<g id="edge5" class="edge">
<title>Node1&#45;&gt;Node6</title>
<path fill="none" stroke="midnightblue" d="M725,-358.86C938.4,-353.32 1600.52,-333.72 1811.99,-299 1921.27,-281.06 1949.72,-274.48 2051.99,-232 2097.99,-212.9 2147.74,-182.28 2175.06,-164.51"/>
<polygon fill="midnightblue" stroke="midnightblue" points="2176.99,-167.43 2183.42,-159.01 2173.14,-161.58 2176.99,-167.43"/>
</g>
<!-- Node7 -->
<g id="node7" class="node">
<title>Node7</title>
<g id="a_node7"><a xlink:href="reactive__socket__service__ext_8hpp.html" target="_top" xlink:title=" ">
<polygon fill="white" stroke="black" points="931.49,-268.5 931.49,-298.5 1056.49,-298.5 1056.49,-268.5 931.49,-268.5"/>
<text text-anchor="start" x="939.49" y="-286.5" font-family="Helvetica" font-size="10.00">boost/asio/detail/reactive</text>
<text text-anchor="middle" x="993.99" y="-275.5" font-family="Helvetica" font-size="10.00">_socket_service_ext.hpp</text>
</a>
</g>
</g>
<!-- Node1&#45;&gt;Node7 -->
<g id="edge6" class="edge">
<title>Node1&#45;&gt;Node7</title>
<path fill="none" stroke="midnightblue" d="M725.18,-345.3C782.21,-332.4 863.82,-313.94 922.14,-300.75"/>
<polygon fill="midnightblue" stroke="midnightblue" points="923.04,-304.14 932.02,-298.52 921.49,-297.31 923.04,-304.14"/>
</g>
<!-- Node24 -->
<g id="node24" class="node">
<title>Node24</title>
<g id="a_node24"><a xlink:title=" ">
<polygon fill="white" stroke="#bfbfbf" points="217.99,-67.5 217.99,-97.5 329.99,-97.5 329.99,-67.5 217.99,-67.5"/>
<text text-anchor="start" x="225.99" y="-85.5" font-family="Helvetica" font-size="10.00">boost/asio/detail/push</text>
<text text-anchor="middle" x="273.99" y="-74.5" font-family="Helvetica" font-size="10.00">_options.hpp</text>
</a>
</g>
</g>
<!-- Node1&#45;&gt;Node24 -->
<g id="edge78" class="edge">
<title>Node1&#45;&gt;Node24</title>
<path fill="none" stroke="midnightblue" d="M590.56,-342.7C464,-309.16 202.94,-239.31 195.99,-232 165.64,-200.06 158.46,-171.87 180.99,-134 189.39,-119.88 203.28,-109.46 217.78,-101.88"/>
<polygon fill="midnightblue" stroke="midnightblue" points="219.36,-105.01 226.85,-97.52 216.32,-98.7 219.36,-105.01"/>
</g>
<!-- Node25 -->
<g id="node25" class="node">
<title>Node25</title>
<g id="a_node25"><a xlink:title=" ">
<polygon fill="white" stroke="#bfbfbf" points="1198.49,-67.5 1198.49,-97.5 1305.49,-97.5 1305.49,-67.5 1198.49,-67.5"/>
<text text-anchor="start" x="1206.49" y="-85.5" font-family="Helvetica" font-size="10.00">boost/asio/detail/pop</text>
<text text-anchor="middle" x="1251.99" y="-74.5" font-family="Helvetica" font-size="10.00">_options.hpp</text>
</a>
</g>
</g>
<!-- Node1&#45;&gt;Node25 -->
<g id="edge79" class="edge">
<title>Node1&#45;&gt;Node25</title>
<path fill="none" stroke="midnightblue" d="M725.26,-359.59C949.38,-356.19 1669.38,-342.11 1896.99,-299 2069.65,-266.3 2169.67,-309.97 2268.99,-165 2276.78,-153.63 2278.54,-143.93 2268.99,-134 2233.69,-97.29 1403.71,-102.62 1352.99,-98 1340.93,-96.9 1328.11,-95.35 1315.8,-93.68"/>
<polygon fill="midnightblue" stroke="midnightblue" points="1315.99,-90.17 1305.6,-92.25 1315.01,-97.1 1315.99,-90.17"/>
</g>
<!-- Node7&#45;&gt;Node2 -->
<g id="edge8" class="edge">
<title>Node7&#45;&gt;Node2</title>
<path fill="none" stroke="midnightblue" d="M931.41,-282.26C753.8,-281.05 255.54,-273.94 195.99,-232 152.46,-201.35 138.3,-134.62 133.89,-102.08"/>
<polygon fill="midnightblue" stroke="midnightblue" points="137.36,-101.63 132.7,-92.12 130.41,-102.46 137.36,-101.63"/>
</g>
<!-- Node7&#45;&gt;Node5 -->
<g id="edge10" class="edge">
<title>Node7&#45;&gt;Node5</title>
<path fill="none" stroke="midnightblue" d="M1056.8,-282.29C1263.27,-281.2 1912.58,-274.39 1995.99,-232 2023.08,-218.23 2042.9,-187.77 2053.42,-168.24"/>
<polygon fill="midnightblue" stroke="midnightblue" points="2056.62,-169.66 2058.06,-159.17 2050.39,-166.48 2056.62,-169.66"/>
</g>
<!-- Node7&#45;&gt;Node6 -->
<g id="edge11" class="edge">
<title>Node7&#45;&gt;Node6</title>
<path fill="none" stroke="midnightblue" d="M1056.63,-282.69C1251,-282.79 1841.89,-279.09 2026.99,-232 2083.07,-217.74 2142.69,-184.03 2173.94,-164.73"/>
<polygon fill="midnightblue" stroke="midnightblue" points="2176.08,-167.52 2182.69,-159.24 2172.36,-161.59 2176.08,-167.52"/>
</g>
<!-- Node8 -->
<g id="node8" class="node">
<title>Node8</title>
<g id="a_node8"><a xlink:title=" ">
<polygon fill="white" stroke="#bfbfbf" points="1630.99,-140 1630.99,-159 1684.99,-159 1684.99,-140 1630.99,-140"/>
<text text-anchor="middle" x="1657.99" y="-147" font-family="Helvetica" font-size="10.00">iostream</text>
</a>
</g>
</g>
<!-- Node7&#45;&gt;Node8 -->
<g id="edge7" class="edge">
<title>Node7&#45;&gt;Node8</title>
<path fill="none" stroke="midnightblue" d="M1056.53,-278.74C1139.14,-272.92 1288.8,-259.42 1413.99,-232 1493.08,-214.68 1582.52,-181.02 1627.99,-162.85"/>
<polygon fill="midnightblue" stroke="midnightblue" points="1629.56,-165.99 1637.52,-159 1626.94,-159.49 1629.56,-165.99"/>
</g>
<!-- Node9 -->
<g id="node9" class="node">
<title>Node9</title>
<g id="a_node9"><a xlink:title=" ">
<polygon fill="white" stroke="#bfbfbf" points="1703.49,-140 1703.49,-159 1810.49,-159 1810.49,-140 1703.49,-140"/>
<text text-anchor="middle" x="1756.99" y="-147" font-family="Helvetica" font-size="10.00">boost/asio/buffer.hpp</text>
</a>
</g>
</g>
<!-- Node7&#45;&gt;Node9 -->
<g id="edge9" class="edge">
<title>Node7&#45;&gt;Node9</title>
<path fill="none" stroke="midnightblue" d="M1056.55,-279.73C1149.94,-274.77 1330.97,-261.92 1481.99,-232 1571.06,-214.35 1672.76,-180.5 1723.92,-162.47"/>
<polygon fill="midnightblue" stroke="midnightblue" points="1725.2,-165.73 1733.45,-159.09 1722.86,-159.14 1725.2,-165.73"/>
</g>
<!-- Node10 -->
<g id="node10" class="node">
<title>Node10</title>
<g id="a_node10"><a xlink:title=" ">
<polygon fill="white" stroke="#bfbfbf" points="1361.99,-73 1361.99,-92 1499.99,-92 1499.99,-73 1361.99,-73"/>
<text text-anchor="middle" x="1430.99" y="-80" font-family="Helvetica" font-size="10.00">boost/asio/socket_base.hpp</text>
</a>
</g>
</g>
<!-- Node7&#45;&gt;Node10 -->
<g id="edge12" class="edge">
<title>Node7&#45;&gt;Node10</title>
<path fill="none" stroke="midnightblue" d="M1056.5,-282.02C1257.06,-280.09 1882.77,-271.02 2080.99,-232 2168.02,-214.87 2217.87,-237.49 2268.99,-165 2276.93,-153.74 2278.44,-144.03 2268.99,-134 2243.22,-106.62 1714.32,-90.57 1510.3,-85.37"/>
<polygon fill="midnightblue" stroke="midnightblue" points="1510.33,-81.87 1500.25,-85.12 1510.16,-88.87 1510.33,-81.87"/>
</g>
<!-- Node11 -->
<g id="node11" class="node">
<title>Node11</title>
<g id="a_node11"><a xlink:title=" ">
<polygon fill="white" stroke="#bfbfbf" points="889.99,-73 889.99,-92 1041.99,-92 1041.99,-73 889.99,-73"/>
<text text-anchor="middle" x="965.99" y="-80" font-family="Helvetica" font-size="10.00">boost/asio/detail/addressof.hpp</text>
</a>
</g>
</g>
<!-- Node7&#45;&gt;Node11 -->
<g id="edge13" class="edge">
<title>Node7&#45;&gt;Node11</title>
<path fill="none" stroke="midnightblue" d="M989.26,-268.07C986.16,-258.06 982.27,-244.35 979.99,-232 971.5,-185.89 968.01,-130.72 966.7,-102.37"/>
<polygon fill="midnightblue" stroke="midnightblue" points="970.2,-102.12 966.28,-92.28 963.2,-102.42 970.2,-102.12"/>
</g>
<!-- Node12 -->
<g id="node12" class="node">
<title>Node12</title>
<g id="a_node12"><a xlink:title=" ">
<polygon fill="white" stroke="#bfbfbf" points="1059.99,-67.5 1059.99,-97.5 1179.99,-97.5 1179.99,-67.5 1059.99,-67.5"/>
<text text-anchor="start" x="1067.99" y="-85.5" font-family="Helvetica" font-size="10.00">boost/asio/detail/buffer</text>
<text text-anchor="middle" x="1119.99" y="-74.5" font-family="Helvetica" font-size="10.00">_sequence_adapter.hpp</text>
</a>
</g>
</g>
<!-- Node7&#45;&gt;Node12 -->
<g id="edge14" class="edge">
<title>Node7&#45;&gt;Node12</title>
<path fill="none" stroke="midnightblue" d="M991.64,-268.21C987.77,-239.7 983.19,-175 1012.99,-134 1023.44,-119.62 1039.05,-109.2 1055.14,-101.69"/>
<polygon fill="midnightblue" stroke="midnightblue" points="1056.83,-104.77 1064.63,-97.6 1054.06,-98.35 1056.83,-104.77"/>
</g>
<!-- Node13 -->
<g id="node13" class="node">
<title>Node13</title>
<g id="a_node13"><a xlink:title=" ">
<polygon fill="white" stroke="#bfbfbf" points="204.99,-207 204.99,-226 368.99,-226 368.99,-207 204.99,-207"/>
<text text-anchor="middle" x="286.99" y="-214" font-family="Helvetica" font-size="10.00">boost/asio/detail/noncopyable.hpp</text>
</a>
</g>
</g>
<!-- Node7&#45;&gt;Node13 -->
<g id="edge15" class="edge">
<title>Node7&#45;&gt;Node13</title>
<path fill="none" stroke="midnightblue" d="M931.31,-278.94C819.78,-272.27 579.6,-256.29 377.99,-232 367.64,-230.75 356.66,-229.2 346.05,-227.58"/>
<polygon fill="midnightblue" stroke="midnightblue" points="346.43,-224.1 336.01,-226.01 345.35,-231.01 346.43,-224.1"/>
</g>
<!-- Node14 -->
<g id="node14" class="node">
<title>Node14</title>
<g id="a_node14"><a xlink:title=" ">
<polygon fill="white" stroke="#bfbfbf" points="1828.49,-134.5 1828.49,-164.5 1953.49,-164.5 1953.49,-134.5 1828.49,-134.5"/>
<text text-anchor="start" x="1836.49" y="-152.5" font-family="Helvetica" font-size="10.00">boost/asio/detail/reactive</text>
<text text-anchor="middle" x="1890.99" y="-141.5" font-family="Helvetica" font-size="10.00">_null_buffers_op.hpp</text>
</a>
</g>
</g>
<!-- Node7&#45;&gt;Node14 -->
<g id="edge16" class="edge">
<title>Node7&#45;&gt;Node14</title>
<path fill="none" stroke="midnightblue" d="M1056.75,-279.92C1161.01,-274.94 1376.23,-261.77 1555.99,-232 1654.57,-215.67 1767.03,-185.99 1833.35,-167.3"/>
<polygon fill="midnightblue" stroke="midnightblue" points="1834.52,-170.61 1843.19,-164.52 1832.62,-163.87 1834.52,-170.61"/>
</g>
<!-- Node15 -->
<g id="node15" class="node">
<title>Node15</title>
<g id="a_node15"><a xlink:title=" ">
<polygon fill="white" stroke="#bfbfbf" points="387.49,-201.5 387.49,-231.5 512.49,-231.5 512.49,-201.5 387.49,-201.5"/>
<text text-anchor="start" x="395.49" y="-219.5" font-family="Helvetica" font-size="10.00">boost/asio/detail/reactive</text>
<text text-anchor="middle" x="449.99" y="-208.5" font-family="Helvetica" font-size="10.00">_socket_accept_op.hpp</text>
</a>
</g>
</g>
<!-- Node7&#45;&gt;Node15 -->
<g id="edge17" class="edge">
<title>Node7&#45;&gt;Node15</title>
<path fill="none" stroke="midnightblue" d="M931.39,-277.72C842.55,-270.52 674.68,-255.36 522.64,-232.17"/>
<polygon fill="midnightblue" stroke="midnightblue" points="523.07,-228.7 512.65,-230.63 522,-235.62 523.07,-228.7"/>
</g>
<!-- Node16 -->
<g id="node16" class="node">
<title>Node16</title>
<g id="a_node16"><a xlink:title=" ">
<polygon fill="white" stroke="#bfbfbf" points="530.49,-201.5 530.49,-231.5 655.49,-231.5 655.49,-201.5 530.49,-201.5"/>
<text text-anchor="start" x="538.49" y="-219.5" font-family="Helvetica" font-size="10.00">boost/asio/detail/reactive</text>
<text text-anchor="middle" x="592.99" y="-208.5" font-family="Helvetica" font-size="10.00">_socket_connect_op.hpp</text>
</a>
</g>
</g>
<!-- Node7&#45;&gt;Node16 -->
<g id="edge18" class="edge">
<title>Node7&#45;&gt;Node16</title>
<path fill="none" stroke="midnightblue" d="M931.48,-273.35C866.16,-263.66 760.74,-247.61 669.99,-232 668.53,-231.75 667.04,-231.49 665.55,-231.23"/>
<polygon fill="midnightblue" stroke="midnightblue" points="666.04,-227.76 655.58,-229.46 664.81,-234.65 666.04,-227.76"/>
</g>
<!-- Node17 -->
<g id="node17" class="node">
<title>Node17</title>
<g id="a_node17"><a xlink:href="reactive__socket__recvfrom__op__ext_8hpp.html" target="_top" xlink:title=" ">
<polygon fill="white" stroke="black" points="471.99,-134.5 471.99,-164.5 617.99,-164.5 617.99,-134.5 471.99,-134.5"/>
<text text-anchor="start" x="479.99" y="-152.5" font-family="Helvetica" font-size="10.00">boost/asio/detail/reactive</text>
<text text-anchor="middle" x="544.99" y="-141.5" font-family="Helvetica" font-size="10.00">_socket_recvfrom_op_ext.hpp</text>
</a>
</g>
</g>
<!-- Node7&#45;&gt;Node17 -->
<g id="edge19" class="edge">
<title>Node7&#45;&gt;Node17</title>
<path fill="none" stroke="midnightblue" d="M979.48,-268.38C957.47,-247.28 916.27,-209.12 897.99,-201 789.88,-152.98 749.22,-181.96 628.29,-165.09"/>
<polygon fill="midnightblue" stroke="midnightblue" points="628.69,-161.62 618.28,-163.62 627.67,-168.54 628.69,-161.62"/>
</g>
<!-- Node21 -->
<g id="node21" class="node">
<title>Node21</title>
<g id="a_node21"><a xlink:title=" ">
<polygon fill="white" stroke="#bfbfbf" points="1273.49,-0.5 1273.49,-30.5 1394.49,-30.5 1394.49,-0.5 1273.49,-0.5"/>
<text text-anchor="start" x="1281.49" y="-18.5" font-family="Helvetica" font-size="10.00">boost/asio/detail/reactor</text>
<text text-anchor="middle" x="1333.99" y="-7.5" font-family="Helvetica" font-size="10.00">_op.hpp</text>
</a>
</g>
</g>
<!-- Node7&#45;&gt;Node21 -->
<g id="edge72" class="edge">
<title>Node7&#45;&gt;Node21</title>
<path fill="none" stroke="midnightblue" d="M1056.63,-281.57C1284.83,-277.95 2063.97,-263.38 2170.99,-232 2227.75,-215.36 2256.52,-216.29 2285.99,-165 2292.86,-153.05 2295.12,-144.32 2285.99,-134 2227.62,-67.98 1615,-30.81 1404.53,-19.91"/>
<polygon fill="midnightblue" stroke="midnightblue" points="1404.68,-16.42 1394.51,-19.4 1404.32,-23.41 1404.68,-16.42"/>
</g>
<!-- Node23 -->
<g id="node23" class="node">
<title>Node23</title>
<g id="a_node23"><a xlink:title=" ">
<polygon fill="white" stroke="#bfbfbf" points="162.49,-0.5 162.49,-30.5 281.49,-30.5 281.49,-0.5 162.49,-0.5"/>
<text text-anchor="start" x="170.49" y="-18.5" font-family="Helvetica" font-size="10.00">boost/asio/detail/socket</text>
<text text-anchor="middle" x="221.99" y="-7.5" font-family="Helvetica" font-size="10.00">_ops.hpp</text>
</a>
</g>
</g>
<!-- Node7&#45;&gt;Node23 -->
<g id="edge74" class="edge">
<title>Node7&#45;&gt;Node23</title>
<path fill="none" stroke="midnightblue" d="M931.46,-281.56C750.13,-278.43 232.61,-266.53 164.99,-232 86.5,-191.92 2.46,-137.77 54.99,-67 77.26,-37.01 116.83,-24.19 151.86,-18.96"/>
<polygon fill="midnightblue" stroke="midnightblue" points="152.62,-22.39 162.08,-17.63 151.71,-15.45 152.62,-22.39"/>
</g>
<!-- Node7&#45;&gt;Node24 -->
<g id="edge76" class="edge">
<title>Node7&#45;&gt;Node24</title>
<path fill="none" stroke="midnightblue" d="M931.37,-281.93C869.23,-279.1 772.71,-268.48 697.99,-232 679.62,-223.03 682.77,-209.11 663.99,-201 567.21,-159.21 262.65,-242.32 190.99,-165 170.34,-142.72 202.62,-118.48 232.76,-102.28"/>
<polygon fill="midnightblue" stroke="midnightblue" points="234.7,-105.22 241.98,-97.52 231.49,-98.99 234.7,-105.22"/>
</g>
<!-- Node7&#45;&gt;Node25 -->
<g id="edge77" class="edge">
<title>Node7&#45;&gt;Node25</title>
<path fill="none" stroke="midnightblue" d="M1056.54,-279.85C1261.88,-270.49 1905.62,-235.68 1962.99,-165 1971.68,-154.3 1972.44,-144.03 1962.99,-134 1916.42,-84.6 1420.54,-104.83 1352.99,-98 1340.94,-96.78 1328.13,-95.18 1315.81,-93.49"/>
<polygon fill="midnightblue" stroke="midnightblue" points="1316.01,-89.98 1305.62,-92.05 1315.03,-96.91 1316.01,-89.98"/>
</g>
<!-- Node26 -->
<g id="node26" class="node">
<title>Node26</title>
<g id="a_node26"><a xlink:title=" ">
<polygon fill="white" stroke="#bfbfbf" points="764.49,-201.5 764.49,-231.5 889.49,-231.5 889.49,-201.5 764.49,-201.5"/>
<text text-anchor="start" x="772.49" y="-219.5" font-family="Helvetica" font-size="10.00">boost/asio/detail/reactive</text>
<text text-anchor="middle" x="826.99" y="-208.5" font-family="Helvetica" font-size="10.00">_socket_sendto_op.hpp</text>
</a>
</g>
</g>
<!-- Node7&#45;&gt;Node26 -->
<g id="edge31" class="edge">
<title>Node7&#45;&gt;Node26</title>
<path fill="none" stroke="midnightblue" d="M957.76,-268.4C932.81,-258.69 899.47,-245.71 872.7,-235.29"/>
<polygon fill="midnightblue" stroke="midnightblue" points="873.75,-231.94 863.16,-231.58 871.21,-238.47 873.75,-231.94"/>
</g>
<!-- Node27 -->
<g id="node27" class="node">
<title>Node27</title>
<g id="a_node27"><a xlink:href="reactive__socket__service__base__ext_8hpp.html" target="_top" xlink:title=" ">
<polygon fill="white" stroke="black" points="1157.49,-201.5 1157.49,-231.5 1308.49,-231.5 1308.49,-201.5 1157.49,-201.5"/>
<text text-anchor="start" x="1165.49" y="-219.5" font-family="Helvetica" font-size="10.00">boost/asio/detail/reactive</text>
<text text-anchor="middle" x="1232.99" y="-208.5" font-family="Helvetica" font-size="10.00">_socket_service_base_ext.hpp</text>
</a>
</g>
</g>
<!-- Node7&#45;&gt;Node27 -->
<g id="edge32" class="edge">
<title>Node7&#45;&gt;Node27</title>
<path fill="none" stroke="midnightblue" d="M1045.56,-268.48C1082.5,-258.43 1132.4,-244.86 1171.43,-234.24"/>
<polygon fill="midnightblue" stroke="midnightblue" points="1172.38,-237.61 1181.11,-231.61 1170.54,-230.86 1172.38,-237.61"/>
</g>
<!-- Node31 -->
<g id="node31" class="node">
<title>Node31</title>
<g id="a_node31"><a xlink:title=" ">
<polygon fill="white" stroke="#bfbfbf" points="199.99,-140 199.99,-159 339.99,-159 339.99,-140 199.99,-140"/>
<text text-anchor="middle" x="269.99" y="-147" font-family="Helvetica" font-size="10.00">boost/asio/detail/reactor.hpp</text>
</a>
</g>
</g>
<!-- Node7&#45;&gt;Node31 -->
<g id="edge71" class="edge">
<title>Node7&#45;&gt;Node31</title>
<path fill="none" stroke="midnightblue" d="M931.46,-274.36C882.42,-266.78 812.99,-253.38 754.99,-232 727.93,-222.03 725.53,-209.55 697.99,-201 551.19,-155.4 506.26,-186.09 353.99,-165 344.95,-163.75 335.39,-162.26 326.08,-160.72"/>
<polygon fill="midnightblue" stroke="midnightblue" points="326.56,-157.25 316.12,-159.03 325.4,-164.15 326.56,-157.25"/>
</g>
<!-- Node32 -->
<g id="node32" class="node">
<title>Node32</title>
<g id="a_node32"><a xlink:title=" ">
<polygon fill="white" stroke="#bfbfbf" points="1356.49,-134.5 1356.49,-164.5 1475.49,-164.5 1475.49,-134.5 1356.49,-134.5"/>
<text text-anchor="start" x="1364.49" y="-152.5" font-family="Helvetica" font-size="10.00">boost/asio/detail/socket</text>
<text text-anchor="middle" x="1415.99" y="-141.5" font-family="Helvetica" font-size="10.00">_holder.hpp</text>
</a>
</g>
</g>
<!-- Node7&#45;&gt;Node32 -->
<g id="edge73" class="edge">
<title>Node7&#45;&gt;Node32</title>
<path fill="none" stroke="midnightblue" d="M1056.56,-282.38C1123.73,-280.09 1232.2,-270.06 1316.99,-232 1348.41,-217.9 1378,-191.08 1396.51,-172.06"/>
<polygon fill="midnightblue" stroke="midnightblue" points="1399.15,-174.36 1403.5,-164.7 1394.08,-169.54 1399.15,-174.36"/>
</g>
<!-- Node33 -->
<g id="node33" class="node">
<title>Node33</title>
<g id="a_node33"><a xlink:title=" ">
<polygon fill="white" stroke="#bfbfbf" points="1493.49,-134.5 1493.49,-164.5 1612.49,-164.5 1612.49,-134.5 1493.49,-134.5"/>
<text text-anchor="start" x="1501.49" y="-152.5" font-family="Helvetica" font-size="10.00">boost/asio/detail/socket</text>
<text text-anchor="middle" x="1552.99" y="-141.5" font-family="Helvetica" font-size="10.00">_types.hpp</text>
</a>
</g>
</g>
<!-- Node7&#45;&gt;Node33 -->
<g id="edge75" class="edge">
<title>Node7&#45;&gt;Node33</title>
<path fill="none" stroke="midnightblue" d="M1056.59,-278.54C1129.34,-272.83 1252.53,-259.78 1354.99,-232 1413.04,-216.26 1476.8,-187.87 1515.87,-169.1"/>
<polygon fill="midnightblue" stroke="midnightblue" points="1517.78,-172.06 1525.25,-164.54 1514.72,-165.76 1517.78,-172.06"/>
</g>
<!-- Node17&#45;&gt;Node2 -->
<g id="edge20" class="edge">
<title>Node17&#45;&gt;Node2</title>
<path fill="none" stroke="midnightblue" d="M471.79,-138.29C403.64,-128.6 299.29,-113.28 208.99,-98 201.53,-96.74 193.68,-95.34 185.95,-93.92"/>
<polygon fill="midnightblue" stroke="midnightblue" points="186.39,-90.44 175.92,-92.06 185.11,-97.33 186.39,-90.44"/>
</g>
<!-- Node17&#45;&gt;Node11 -->
<g id="edge21" class="edge">
<title>Node17&#45;&gt;Node11</title>
<path fill="none" stroke="midnightblue" d="M618.29,-135.41C621.23,-134.93 624.14,-134.45 626.99,-134 739.59,-116.07 768.34,-115.59 880.99,-98 889.59,-96.66 898.66,-95.18 907.56,-93.69"/>
<polygon fill="midnightblue" stroke="midnightblue" points="908.21,-97.13 917.48,-92.02 907.04,-90.23 908.21,-97.13"/>
</g>
<!-- Node17&#45;&gt;Node12 -->
<g id="edge23" class="edge">
<title>Node17&#45;&gt;Node12</title>
<path fill="none" stroke="midnightblue" d="M618.26,-135.21C621.21,-134.78 624.12,-134.37 626.99,-134 811.32,-109.93 862.15,-124.96 1049.94,-98.03"/>
<polygon fill="midnightblue" stroke="midnightblue" points="1050.47,-101.49 1059.86,-96.59 1049.46,-94.57 1050.47,-101.49"/>
</g>
<!-- Node18 -->
<g id="node18" class="node">
<title>Node18</title>
<g id="a_node18"><a xlink:title=" ">
<polygon fill="white" stroke="#bfbfbf" points="624.49,-67.5 624.49,-97.5 733.49,-97.5 733.49,-67.5 624.49,-67.5"/>
<text text-anchor="start" x="632.49" y="-85.5" font-family="Helvetica" font-size="10.00">boost/asio/detail/bind</text>
<text text-anchor="middle" x="678.99" y="-74.5" font-family="Helvetica" font-size="10.00">_handler.hpp</text>
</a>
</g>
</g>
<!-- Node17&#45;&gt;Node18 -->
<g id="edge22" class="edge">
<title>Node17&#45;&gt;Node18</title>
<path fill="none" stroke="midnightblue" d="M574.07,-134.4C593.65,-124.9 619.67,-112.28 640.9,-101.98"/>
<polygon fill="midnightblue" stroke="midnightblue" points="642.5,-105.09 649.97,-97.58 639.45,-98.79 642.5,-105.09"/>
</g>
<!-- Node19 -->
<g id="node19" class="node">
<title>Node19</title>
<g id="a_node19"><a xlink:title=" ">
<polygon fill="white" stroke="#bfbfbf" points="751.99,-67.5 751.99,-97.5 871.99,-97.5 871.99,-67.5 751.99,-67.5"/>
<text text-anchor="start" x="759.99" y="-85.5" font-family="Helvetica" font-size="10.00">boost/asio/detail/fenced</text>
<text text-anchor="middle" x="811.99" y="-74.5" font-family="Helvetica" font-size="10.00">_block.hpp</text>
</a>
</g>
</g>
<!-- Node17&#45;&gt;Node19 -->
<g id="edge24" class="edge">
<title>Node17&#45;&gt;Node19</title>
<path fill="none" stroke="midnightblue" d="M602.6,-134.48C644.13,-124.37 700.33,-110.68 744.05,-100.04"/>
<polygon fill="midnightblue" stroke="midnightblue" points="745.14,-103.38 754.03,-97.61 743.48,-96.58 745.14,-103.38"/>
</g>
<!-- Node20 -->
<g id="node20" class="node">
<title>Node20</title>
<g id="a_node20"><a xlink:href="reactor__op__ext_8hpp.html" target="_top" xlink:title=" ">
<polygon fill="white" stroke="black" points="485.49,-67.5 485.49,-97.5 606.49,-97.5 606.49,-67.5 485.49,-67.5"/>
<text text-anchor="start" x="493.49" y="-85.5" font-family="Helvetica" font-size="10.00">boost/asio/detail/reactor</text>
<text text-anchor="middle" x="545.99" y="-74.5" font-family="Helvetica" font-size="10.00">_op_ext.hpp</text>
</a>
</g>
</g>
<!-- Node17&#45;&gt;Node20 -->
<g id="edge25" class="edge">
<title>Node17&#45;&gt;Node20</title>
<path fill="none" stroke="midnightblue" d="M545.21,-134.4C545.33,-126.64 545.48,-116.81 545.62,-107.86"/>
<polygon fill="midnightblue" stroke="midnightblue" points="549.12,-107.63 545.78,-97.58 542.12,-107.52 549.12,-107.63"/>
</g>
<!-- Node22 -->
<g id="node22" class="node">
<title>Node22</title>
<g id="a_node22"><a xlink:href="socket__ops__ext_8hpp.html" target="_top" xlink:title=" ">
<polygon fill="white" stroke="black" points="348.49,-67.5 348.49,-97.5 467.49,-97.5 467.49,-67.5 348.49,-67.5"/>
<text text-anchor="start" x="356.49" y="-85.5" font-family="Helvetica" font-size="10.00">boost/asio/detail/socket</text>
<text text-anchor="middle" x="407.99" y="-74.5" font-family="Helvetica" font-size="10.00">_ops_ext.hpp</text>
</a>
</g>
</g>
<!-- Node17&#45;&gt;Node22 -->
<g id="edge27" class="edge">
<title>Node17&#45;&gt;Node22</title>
<path fill="none" stroke="midnightblue" d="M515.26,-134.4C495.25,-124.9 468.64,-112.28 446.94,-101.98"/>
<polygon fill="midnightblue" stroke="midnightblue" points="448.2,-98.7 437.66,-97.58 445.19,-105.03 448.2,-98.7"/>
</g>
<!-- Node17&#45;&gt;Node24 -->
<g id="edge29" class="edge">
<title>Node17&#45;&gt;Node24</title>
<path fill="none" stroke="midnightblue" d="M486.52,-134.48C443.41,-124.14 384.73,-110.06 339.95,-99.32"/>
<polygon fill="midnightblue" stroke="midnightblue" points="340.58,-95.87 330.04,-96.94 338.95,-102.68 340.58,-95.87"/>
</g>
<!-- Node17&#45;&gt;Node25 -->
<g id="edge30" class="edge">
<title>Node17&#45;&gt;Node25</title>
<path fill="none" stroke="midnightblue" d="M618.25,-135.13C621.2,-134.72 624.12,-134.34 626.99,-134 872.22,-104.56 939.56,-133.41 1188.42,-97.89"/>
<polygon fill="midnightblue" stroke="midnightblue" points="1189.09,-101.33 1198.49,-96.44 1188.09,-94.41 1189.09,-101.33"/>
</g>
<!-- Node20&#45;&gt;Node21 -->
<g id="edge26" class="edge">
<title>Node20&#45;&gt;Node21</title>
<path fill="none" stroke="midnightblue" d="M606.87,-68.24C609.61,-67.79 612.32,-67.37 614.99,-67 850.89,-34.09 1133.49,-22.2 1262.92,-18.27"/>
<polygon fill="midnightblue" stroke="midnightblue" points="1263.21,-21.76 1273.1,-17.96 1263,-14.76 1263.21,-21.76"/>
</g>
<!-- Node22&#45;&gt;Node23 -->
<g id="edge28" class="edge">
<title>Node22&#45;&gt;Node23</title>
<path fill="none" stroke="midnightblue" d="M367.63,-67.4C339.48,-57.56 301.73,-44.37 271.72,-33.88"/>
<polygon fill="midnightblue" stroke="midnightblue" points="272.87,-30.57 262.27,-30.58 270.56,-37.18 272.87,-30.57"/>
</g>
<!-- Node27&#45;&gt;Node2 -->
<g id="edge34" class="edge">
<title>Node27&#45;&gt;Node2</title>
<path fill="none" stroke="midnightblue" d="M1157.46,-212.41C955.74,-203.99 417.29,-180.2 381.99,-165 363.51,-157.04 366.73,-143.5 348.99,-134 334.48,-126.24 243.39,-106.48 183.93,-94.11"/>
<polygon fill="midnightblue" stroke="midnightblue" points="184.46,-90.64 173.95,-92.04 183.03,-97.5 184.46,-90.64"/>
</g>
<!-- Node27&#45;&gt;Node5 -->
<g id="edge36" class="edge">
<title>Node27&#45;&gt;Node5</title>
<path fill="none" stroke="midnightblue" d="M1308.56,-212.18C1441.27,-205.92 1724.74,-190.65 1962.99,-165 1975.07,-163.7 1987.93,-162.03 2000.25,-160.28"/>
<polygon fill="midnightblue" stroke="midnightblue" points="2001.05,-163.71 2010.45,-158.81 2000.05,-156.78 2001.05,-163.71"/>
</g>
<!-- Node27&#45;&gt;Node6 -->
<g id="edge37" class="edge">
<title>Node27&#45;&gt;Node6</title>
<path fill="none" stroke="midnightblue" d="M1308.62,-214.76C1462.54,-212.46 1823.04,-203.11 2122.99,-165 2131.19,-163.96 2139.86,-162.53 2148.24,-160.98"/>
<polygon fill="midnightblue" stroke="midnightblue" points="2149.11,-164.37 2158.27,-159.03 2147.78,-157.5 2149.11,-164.37"/>
</g>
<!-- Node27&#45;&gt;Node8 -->
<g id="edge33" class="edge">
<title>Node27&#45;&gt;Node8</title>
<path fill="none" stroke="midnightblue" d="M1308.65,-211.37C1387.84,-205.74 1515.26,-192.94 1621.99,-165 1624.5,-164.34 1627.07,-163.56 1629.62,-162.69"/>
<polygon fill="midnightblue" stroke="midnightblue" points="1631.1,-165.88 1639.24,-159.1 1628.65,-159.32 1631.1,-165.88"/>
</g>
<!-- Node27&#45;&gt;Node9 -->
<g id="edge35" class="edge">
<title>Node27&#45;&gt;Node9</title>
<path fill="none" stroke="midnightblue" d="M1308.83,-209.93C1400.5,-202.57 1559.24,-187.81 1693.99,-165 1700.24,-163.94 1706.79,-162.65 1713.21,-161.27"/>
<polygon fill="midnightblue" stroke="midnightblue" points="1714.13,-164.65 1723.13,-159.06 1712.61,-157.82 1714.13,-164.65"/>
</g>
<!-- Node27&#45;&gt;Node10 -->
<g id="edge38" class="edge">
<title>Node27&#45;&gt;Node10</title>
<path fill="none" stroke="midnightblue" d="M1252.91,-201.38C1267.15,-191.28 1286.77,-177.33 1303.99,-165 1323.15,-151.28 1327.32,-146.97 1346.99,-134 1366.89,-120.88 1390.16,-107 1407.15,-97.12"/>
<polygon fill="midnightblue" stroke="midnightblue" points="1408.98,-100.1 1415.89,-92.07 1405.48,-94.04 1408.98,-100.1"/>
</g>
<!-- Node27&#45;&gt;Node11 -->
<g id="edge39" class="edge">
<title>Node27&#45;&gt;Node11</title>
<path fill="none" stroke="midnightblue" d="M1221.23,-201.28C1203.71,-180.43 1171.21,-143.06 1155.99,-134 1132.92,-120.27 1066.46,-104.35 1018.65,-94.11"/>
<polygon fill="midnightblue" stroke="midnightblue" points="1019.26,-90.66 1008.75,-92.01 1017.81,-97.51 1019.26,-90.66"/>
</g>
<!-- Node27&#45;&gt;Node12 -->
<g id="edge40" class="edge">
<title>Node27&#45;&gt;Node12</title>
<path fill="none" stroke="midnightblue" d="M1227.85,-201.34C1221.1,-184.07 1207.94,-154.64 1189.99,-134 1179.69,-122.15 1166.09,-111.53 1153.62,-103.13"/>
<polygon fill="midnightblue" stroke="midnightblue" points="1155.51,-100.19 1145.22,-97.68 1151.7,-106.06 1155.51,-100.19"/>
</g>
<!-- Node27&#45;&gt;Node14 -->
<g id="edge41" class="edge">
<title>Node27&#45;&gt;Node14</title>
<path fill="none" stroke="midnightblue" d="M1308.83,-211.78C1419.02,-205.76 1629.94,-191.89 1818.25,-165.15"/>
<polygon fill="midnightblue" stroke="midnightblue" points="1818.94,-168.59 1828.34,-163.7 1817.94,-161.66 1818.94,-168.59"/>
</g>
<!-- Node27&#45;&gt;Node21 -->
<g id="edge65" class="edge">
<title>Node27&#45;&gt;Node21</title>
<path fill="none" stroke="midnightblue" d="M1245.34,-201.34C1263.1,-180.25 1295.72,-138.68 1313.99,-98 1322.27,-79.58 1327.44,-57.21 1330.45,-40.57"/>
<polygon fill="midnightblue" stroke="midnightblue" points="1333.93,-41 1332.13,-30.56 1327.02,-39.84 1333.93,-41"/>
</g>
<!-- Node27&#45;&gt;Node22 -->
<g id="edge67" class="edge">
<title>Node27&#45;&gt;Node22</title>
<path fill="none" stroke="midnightblue" d="M1157.38,-212.34C969.2,-204.22 492.78,-182.11 462.99,-165 440.68,-152.19 425.58,-126.21 416.93,-107.01"/>
<polygon fill="midnightblue" stroke="midnightblue" points="420.11,-105.54 412.99,-97.69 413.66,-108.27 420.11,-105.54"/>
</g>
<!-- Node27&#45;&gt;Node24 -->
<g id="edge69" class="edge">
<title>Node27&#45;&gt;Node24</title>
<path fill="none" stroke="midnightblue" d="M1157.22,-211.8C963.55,-202.2 463.16,-176.43 428.99,-165 405.26,-157.06 403.83,-146.22 381.99,-134 360.94,-122.22 336.67,-110.7 316.48,-101.64"/>
<polygon fill="midnightblue" stroke="midnightblue" points="317.78,-98.39 307.22,-97.53 314.94,-104.79 317.78,-98.39"/>
</g>
<!-- Node27&#45;&gt;Node25 -->
<g id="edge70" class="edge">
<title>Node27&#45;&gt;Node25</title>
<path fill="none" stroke="midnightblue" d="M1235.02,-201.37C1238.25,-178.94 1244.59,-134.92 1248.54,-107.49"/>
<polygon fill="midnightblue" stroke="midnightblue" points="1252.01,-107.92 1249.97,-97.52 1245.08,-106.92 1252.01,-107.92"/>
</g>
<!-- Node28 -->
<g id="node28" class="node">
<title>Node28</title>
<g id="a_node28"><a xlink:href="reactive__socket__recv__op__ext_8hpp.html" target="_top" xlink:title=" ">
<polygon fill="white" stroke="black" points="636.49,-134.5 636.49,-164.5 763.49,-164.5 763.49,-134.5 636.49,-134.5"/>
<text text-anchor="start" x="644.49" y="-152.5" font-family="Helvetica" font-size="10.00">boost/asio/detail/reactive</text>
<text text-anchor="middle" x="699.99" y="-141.5" font-family="Helvetica" font-size="10.00">_socket_recv_op_ext.hpp</text>
</a>
</g>
</g>
<!-- Node27&#45;&gt;Node28 -->
<g id="edge42" class="edge">
<title>Node27&#45;&gt;Node28</title>
<path fill="none" stroke="midnightblue" d="M1157.43,-209.23C1068.21,-201.37 915.17,-186.47 773.79,-165.03"/>
<polygon fill="midnightblue" stroke="midnightblue" points="774.05,-161.53 763.64,-163.48 772.99,-168.45 774.05,-161.53"/>
</g>
<!-- Node29 -->
<g id="node29" class="node">
<title>Node29</title>
<g id="a_node29"><a xlink:href="reactive__socket__recvmsg__op__ext_8hpp.html" target="_top" xlink:title=" ">
<polygon fill="white" stroke="black" points="781.99,-134.5 781.99,-164.5 927.99,-164.5 927.99,-134.5 781.99,-134.5"/>
<text text-anchor="start" x="789.99" y="-152.5" font-family="Helvetica" font-size="10.00">boost/asio/detail/reactive</text>
<text text-anchor="middle" x="854.99" y="-141.5" font-family="Helvetica" font-size="10.00">_socket_recvmsg_op_ext.hpp</text>
</a>
</g>
</g>
<!-- Node27&#45;&gt;Node29 -->
<g id="edge52" class="edge">
<title>Node27&#45;&gt;Node29</title>
<path fill="none" stroke="midnightblue" d="M1157.41,-202.5C1093.98,-191.6 1003.51,-176.04 938.07,-164.79"/>
<polygon fill="midnightblue" stroke="midnightblue" points="938.65,-161.33 928.2,-163.09 937.46,-168.23 938.65,-161.33"/>
</g>
<!-- Node30 -->
<g id="node30" class="node">
<title>Node30</title>
<g id="a_node30"><a xlink:title=" ">
<polygon fill="white" stroke="#bfbfbf" points="1022.49,-134.5 1022.49,-164.5 1147.49,-164.5 1147.49,-134.5 1022.49,-134.5"/>
<text text-anchor="start" x="1030.49" y="-152.5" font-family="Helvetica" font-size="10.00">boost/asio/detail/reactive</text>
<text text-anchor="middle" x="1084.99" y="-141.5" font-family="Helvetica" font-size="10.00">_socket_send_op.hpp</text>
</a>
</g>
</g>
<!-- Node27&#45;&gt;Node30 -->
<g id="edge63" class="edge">
<title>Node27&#45;&gt;Node30</title>
<path fill="none" stroke="midnightblue" d="M1200.88,-201.4C1179.06,-191.81 1150,-179.05 1126.44,-168.7"/>
<polygon fill="midnightblue" stroke="midnightblue" points="1127.61,-165.39 1117.04,-164.58 1124.79,-171.8 1127.61,-165.39"/>
</g>
<!-- Node27&#45;&gt;Node31 -->
<g id="edge64" class="edge">
<title>Node27&#45;&gt;Node31</title>
<path fill="none" stroke="midnightblue" d="M1157.42,-212.26C973.95,-204.23 508.7,-182.74 353.99,-165 344.28,-163.89 333.99,-162.38 324.06,-160.76"/>
<polygon fill="midnightblue" stroke="midnightblue" points="324.33,-157.26 313.89,-159.05 323.17,-164.16 324.33,-157.26"/>
</g>
<!-- Node27&#45;&gt;Node32 -->
<g id="edge66" class="edge">
<title>Node27&#45;&gt;Node32</title>
<path fill="none" stroke="midnightblue" d="M1272.7,-201.4C1300.28,-191.6 1337.21,-178.48 1366.68,-168.02"/>
<polygon fill="midnightblue" stroke="midnightblue" points="1368.11,-171.22 1376.36,-164.58 1365.77,-164.63 1368.11,-171.22"/>
</g>
<!-- Node27&#45;&gt;Node33 -->
<g id="edge68" class="edge">
<title>Node27&#45;&gt;Node33</title>
<path fill="none" stroke="midnightblue" d="M1304.19,-201.48C1352.22,-191.96 1417.31,-178.95 1483.15,-165.37"/>
<polygon fill="midnightblue" stroke="midnightblue" points="1484.21,-168.72 1493.3,-163.27 1482.79,-161.87 1484.21,-168.72"/>
</g>
<!-- Node28&#45;&gt;Node2 -->
<g id="edge43" class="edge">
<title>Node28&#45;&gt;Node2</title>
<path fill="none" stroke="midnightblue" d="M636.36,-135.43C633.2,-134.92 630.06,-134.44 626.99,-134 442.38,-107.8 393.73,-123.29 208.99,-98 200.56,-96.85 191.66,-95.39 183.01,-93.85"/>
<polygon fill="midnightblue" stroke="midnightblue" points="183.49,-90.38 173.03,-92.02 182.23,-97.27 183.49,-90.38"/>
</g>
<!-- Node28&#45;&gt;Node11 -->
<g id="edge44" class="edge">
<title>Node28&#45;&gt;Node11</title>
<path fill="none" stroke="midnightblue" d="M757.38,-134.48C806.51,-122.47 876.25,-105.43 921.31,-94.42"/>
<polygon fill="midnightblue" stroke="midnightblue" points="922.21,-97.8 931.09,-92.03 920.54,-91 922.21,-97.8"/>
</g>
<!-- Node28&#45;&gt;Node12 -->
<g id="edge46" class="edge">
<title>Node28&#45;&gt;Node12</title>
<path fill="none" stroke="midnightblue" d="M763.65,-135.59C766.8,-135.04 769.93,-134.5 772.99,-134 892.7,-114.38 926.4,-118.58 1049.62,-98.15"/>
<polygon fill="midnightblue" stroke="midnightblue" points="1050.55,-101.54 1059.83,-96.43 1049.39,-94.64 1050.55,-101.54"/>
</g>
<!-- Node28&#45;&gt;Node18 -->
<g id="edge45" class="edge">
<title>Node28&#45;&gt;Node18</title>
<path fill="none" stroke="midnightblue" d="M695.43,-134.4C692.88,-126.47 689.61,-116.38 686.67,-107.27"/>
<polygon fill="midnightblue" stroke="midnightblue" points="689.94,-106.02 683.54,-97.58 683.28,-108.17 689.94,-106.02"/>
</g>
<!-- Node28&#45;&gt;Node19 -->
<g id="edge47" class="edge">
<title>Node28&#45;&gt;Node19</title>
<path fill="none" stroke="midnightblue" d="M724.29,-134.4C740.29,-125.11 761.44,-112.84 778.95,-102.67"/>
<polygon fill="midnightblue" stroke="midnightblue" points="780.84,-105.62 787.74,-97.58 777.33,-99.57 780.84,-105.62"/>
</g>
<!-- Node28&#45;&gt;Node20 -->
<g id="edge48" class="edge">
<title>Node28&#45;&gt;Node20</title>
<path fill="none" stroke="midnightblue" d="M666.58,-134.4C643.77,-124.77 613.36,-111.94 588.79,-101.56"/>
<polygon fill="midnightblue" stroke="midnightblue" points="589.92,-98.24 579.34,-97.58 587.19,-104.69 589.92,-98.24"/>
</g>
<!-- Node28&#45;&gt;Node22 -->
<g id="edge49" class="edge">
<title>Node28&#45;&gt;Node22</title>
<path fill="none" stroke="midnightblue" d="M636.99,-134.48C590.09,-124.04 526.09,-109.79 477.66,-99.01"/>
<polygon fill="midnightblue" stroke="midnightblue" points="478.41,-95.59 467.89,-96.83 476.89,-102.42 478.41,-95.59"/>
</g>
<!-- Node28&#45;&gt;Node24 -->
<g id="edge50" class="edge">
<title>Node28&#45;&gt;Node24</title>
<path fill="none" stroke="midnightblue" d="M636.34,-135.58C633.18,-135.02 630.05,-134.49 626.99,-134 502.88,-113.94 467.85,-119.75 340.45,-98.15"/>
<polygon fill="midnightblue" stroke="midnightblue" points="340.74,-94.65 330.3,-96.4 339.56,-101.55 340.74,-94.65"/>
</g>
<!-- Node28&#45;&gt;Node25 -->
<g id="edge51" class="edge">
<title>Node28&#45;&gt;Node25</title>
<path fill="none" stroke="midnightblue" d="M763.62,-135.43C766.79,-134.92 769.92,-134.44 772.99,-134 953.49,-108.34 1003.91,-126.23 1188.44,-97.92"/>
<polygon fill="midnightblue" stroke="midnightblue" points="1189.13,-101.35 1198.47,-96.35 1188.05,-94.44 1189.13,-101.35"/>
</g>
<!-- Node29&#45;&gt;Node2 -->
<g id="edge53" class="edge">
<title>Node29&#45;&gt;Node2</title>
<path fill="none" stroke="midnightblue" d="M781.74,-135.26C778.45,-134.8 775.19,-134.38 771.99,-134 523.01,-104.38 457.77,-129.26 208.99,-98 200.26,-96.9 191.03,-95.44 182.11,-93.85"/>
<polygon fill="midnightblue" stroke="midnightblue" points="182.68,-90.4 172.21,-92.03 181.41,-97.28 182.68,-90.4"/>
</g>
<!-- Node29&#45;&gt;Node10 -->
<g id="edge60" class="edge">
<title>Node29&#45;&gt;Node10</title>
<path fill="none" stroke="midnightblue" d="M928.16,-140.76C1018.78,-131.11 1177.83,-113.93 1313.99,-98 1326.79,-96.5 1340.37,-94.87 1353.57,-93.25"/>
<polygon fill="midnightblue" stroke="midnightblue" points="1354.08,-96.71 1363.57,-92.02 1353.22,-89.76 1354.08,-96.71"/>
</g>
<!-- Node29&#45;&gt;Node11 -->
<g id="edge54" class="edge">
<title>Node29&#45;&gt;Node11</title>
<path fill="none" stroke="midnightblue" d="M879.08,-134.4C897.95,-123.34 924.05,-108.06 942.71,-97.13"/>
<polygon fill="midnightblue" stroke="midnightblue" points="944.6,-100.08 951.46,-92.01 941.07,-94.04 944.6,-100.08"/>
</g>
<!-- Node29&#45;&gt;Node12 -->
<g id="edge56" class="edge">
<title>Node29&#45;&gt;Node12</title>
<path fill="none" stroke="midnightblue" d="M912.17,-134.48C953.38,-124.37 1009.17,-110.68 1052.56,-100.04"/>
<polygon fill="midnightblue" stroke="midnightblue" points="1053.58,-103.39 1062.46,-97.61 1051.92,-96.59 1053.58,-103.39"/>
</g>
<!-- Node29&#45;&gt;Node18 -->
<g id="edge55" class="edge">
<title>Node29&#45;&gt;Node18</title>
<path fill="none" stroke="midnightblue" d="M816.8,-134.4C790.39,-124.64 755.06,-111.59 726.79,-101.15"/>
<polygon fill="midnightblue" stroke="midnightblue" points="727.7,-97.76 717.11,-97.58 725.27,-104.32 727.7,-97.76"/>
</g>
<!-- Node29&#45;&gt;Node19 -->
<g id="edge57" class="edge">
<title>Node29&#45;&gt;Node19</title>
<path fill="none" stroke="midnightblue" d="M845.66,-134.4C840.2,-126.13 833.17,-115.51 826.94,-106.1"/>
<polygon fill="midnightblue" stroke="midnightblue" points="829.74,-103.99 821.3,-97.58 823.9,-107.85 829.74,-103.99"/>
</g>
<!-- Node29&#45;&gt;Node20 -->
<g id="edge58" class="edge">
<title>Node29&#45;&gt;Node20</title>
<path fill="none" stroke="midnightblue" d="M788.32,-134.48C737.68,-123.82 668.17,-109.2 616.59,-98.35"/>
<polygon fill="midnightblue" stroke="midnightblue" points="617.02,-94.87 606.52,-96.23 615.58,-101.72 617.02,-94.87"/>
</g>
<!-- Node29&#45;&gt;Node22 -->
<g id="edge59" class="edge">
<title>Node29&#45;&gt;Node22</title>
<path fill="none" stroke="midnightblue" d="M781.7,-135.48C778.42,-134.97 775.18,-134.47 771.99,-134 644.1,-115.06 608.43,-119.6 477.64,-98.19"/>
<polygon fill="midnightblue" stroke="midnightblue" points="478.08,-94.71 467.64,-96.53 476.93,-101.62 478.08,-94.71"/>
</g>
<!-- Node29&#45;&gt;Node24 -->
<g id="edge61" class="edge">
<title>Node29&#45;&gt;Node24</title>
<path fill="none" stroke="midnightblue" d="M781.73,-135.33C778.44,-134.86 775.18,-134.41 771.99,-134 583.73,-109.78 531.67,-126.5 340.38,-98.07"/>
<polygon fill="midnightblue" stroke="midnightblue" points="340.68,-94.58 330.27,-96.55 339.64,-101.5 340.68,-94.58"/>
</g>
<!-- Node29&#45;&gt;Node25 -->
<g id="edge62" class="edge">
<title>Node29&#45;&gt;Node25</title>
<path fill="none" stroke="midnightblue" d="M928.24,-139.06C993.84,-130.23 1092.85,-115.99 1188.58,-97.99"/>
<polygon fill="midnightblue" stroke="midnightblue" points="1189.26,-101.42 1198.43,-96.12 1187.96,-94.54 1189.26,-101.42"/>
</g>
</g>
</svg>
