<?xml version="1.0" encoding="UTF-8" standalone="no"?>
<!DOCTYPE svg PUBLIC "-//W3C//DTD SVG 1.1//EN"
 "http://www.w3.org/Graphics/SVG/1.1/DTD/svg11.dtd">
<!-- Generated by graphviz version 2.44.0 (0)
 -->
<!-- Title: /home/ec2&#45;user/workspace/vsomeip/implementation/helper/boost/asio/detail/socket_ops_ext.hpp Pages: 1 -->
<svg width="697pt" height="795pt"
 viewBox="0.00 0.00 697.00 795.00" xmlns="http://www.w3.org/2000/svg" xmlns:xlink="http://www.w3.org/1999/xlink">
<g id="graph0" class="graph" transform="scale(1 1) rotate(0) translate(4 791)">
<title>/home/ec2&#45;user/workspace/vsomeip/implementation/helper/boost/asio/detail/socket_ops_ext.hpp</title>
<polygon fill="white" stroke="transparent" points="-4,4 -4,-791 693,-791 693,4 -4,4"/>
<!-- Node1 -->
<g id="node1" class="node">
<title>Node1</title>
<g id="a_node1"><a xlink:title=" ">
<polygon fill="#bfbfbf" stroke="black" points="319,-734.5 319,-786.5 453,-786.5 453,-734.5 319,-734.5"/>
<text text-anchor="start" x="327" y="-774.5" font-family="Helvetica" font-size="10.00">/home/ec2&#45;user/workspace</text>
<text text-anchor="start" x="327" y="-763.5" font-family="Helvetica" font-size="10.00">/vsomeip/implementation</text>
<text text-anchor="start" x="327" y="-752.5" font-family="Helvetica" font-size="10.00">/helper/boost/asio/detail</text>
<text text-anchor="middle" x="386" y="-741.5" font-family="Helvetica" font-size="10.00">/socket_ops_ext.hpp</text>
</a>
</g>
</g>
<!-- Node2 -->
<g id="node2" class="node">
<title>Node2</title>
<g id="a_node2"><a xlink:href="reactive__socket__recv__op__ext_8hpp.html" target="_top" xlink:title=" ">
<polygon fill="white" stroke="black" points="135,-645.5 135,-697.5 299,-697.5 299,-645.5 135,-645.5"/>
<text text-anchor="start" x="143" y="-685.5" font-family="Helvetica" font-size="10.00">/home/ec2&#45;user/workspace</text>
<text text-anchor="start" x="143" y="-674.5" font-family="Helvetica" font-size="10.00">/vsomeip/implementation</text>
<text text-anchor="start" x="143" y="-663.5" font-family="Helvetica" font-size="10.00">/helper/boost/asio/detail</text>
<text text-anchor="middle" x="217" y="-652.5" font-family="Helvetica" font-size="10.00">/reactive_socket_recv_op_ext.hpp</text>
</a>
</g>
</g>
<!-- Node1&#45;&gt;Node2 -->
<g id="edge1" class="edge">
<title>Node1&#45;&gt;Node2</title>
<path fill="none" stroke="midnightblue" d="M327.99,-729.64C307.73,-719.2 285.2,-707.61 265.77,-697.61"/>
<polygon fill="midnightblue" stroke="midnightblue" points="326.63,-732.87 337.12,-734.34 329.83,-726.65 326.63,-732.87"/>
</g>
<!-- Node3 -->
<g id="node3" class="node">
<title>Node3</title>
<g id="a_node3"><a xlink:href="reactive__socket__service__base__ext_8hpp.html" target="_top" xlink:title=" ">
<polygon fill="white" stroke="black" points="262,-551 262,-603 450,-603 450,-551 262,-551"/>
<text text-anchor="start" x="270" y="-591" font-family="Helvetica" font-size="10.00">/home/ec2&#45;user/workspace</text>
<text text-anchor="start" x="270" y="-580" font-family="Helvetica" font-size="10.00">/vsomeip/implementation</text>
<text text-anchor="start" x="270" y="-569" font-family="Helvetica" font-size="10.00">/helper/boost/asio/detail</text>
<text text-anchor="middle" x="356" y="-558" font-family="Helvetica" font-size="10.00">/reactive_socket_service_base_ext.hpp</text>
</a>
</g>
</g>
<!-- Node1&#45;&gt;Node3 -->
<g id="edge21" class="edge">
<title>Node1&#45;&gt;Node3</title>
<path fill="none" stroke="midnightblue" d="M359.11,-725.68C353.72,-717.12 348.85,-707.61 346,-698 336.61,-666.33 342.62,-628.04 348.6,-603.37"/>
<polygon fill="midnightblue" stroke="midnightblue" points="356.37,-727.88 364.85,-734.23 362.18,-723.98 356.37,-727.88"/>
</g>
<!-- Node18 -->
<g id="node18" class="node">
<title>Node18</title>
<g id="a_node18"><a xlink:href="reactive__socket__recvfrom__op__ext_8hpp.html" target="_top" xlink:title=" ">
<polygon fill="white" stroke="black" points="483,-545.5 483,-608.5 617,-608.5 617,-545.5 483,-545.5"/>
<text text-anchor="start" x="491" y="-596.5" font-family="Helvetica" font-size="10.00">/home/ec2&#45;user/workspace</text>
<text text-anchor="start" x="491" y="-585.5" font-family="Helvetica" font-size="10.00">/vsomeip/implementation</text>
<text text-anchor="start" x="491" y="-574.5" font-family="Helvetica" font-size="10.00">/helper/boost/asio/detail</text>
<text text-anchor="start" x="491" y="-563.5" font-family="Helvetica" font-size="10.00">/reactive_socket_recvfrom</text>
<text text-anchor="middle" x="550" y="-552.5" font-family="Helvetica" font-size="10.00">_op_ext.hpp</text>
</a>
</g>
</g>
<!-- Node1&#45;&gt;Node18 -->
<g id="edge17" class="edge">
<title>Node1&#45;&gt;Node18</title>
<path fill="none" stroke="midnightblue" d="M463.04,-748.66C493.96,-740.17 526.77,-725.02 546,-698 564.37,-672.19 562.34,-634.72 557.65,-608.54"/>
<polygon fill="midnightblue" stroke="midnightblue" points="461.92,-745.34 453.09,-751.19 463.64,-752.12 461.92,-745.34"/>
</g>
<!-- Node19 -->
<g id="node19" class="node">
<title>Node19</title>
<g id="a_node19"><a xlink:href="reactive__socket__recvmsg__op__ext_8hpp.html" target="_top" xlink:title=" ">
<polygon fill="white" stroke="black" points="355,-645.5 355,-697.5 537,-697.5 537,-645.5 355,-645.5"/>
<text text-anchor="start" x="363" y="-685.5" font-family="Helvetica" font-size="10.00">/home/ec2&#45;user/workspace</text>
<text text-anchor="start" x="363" y="-674.5" font-family="Helvetica" font-size="10.00">/vsomeip/implementation</text>
<text text-anchor="start" x="363" y="-663.5" font-family="Helvetica" font-size="10.00">/helper/boost/asio/detail</text>
<text text-anchor="middle" x="446" y="-652.5" font-family="Helvetica" font-size="10.00">/reactive_socket_recvmsg_op_ext.hpp</text>
</a>
</g>
</g>
<!-- Node1&#45;&gt;Node19 -->
<g id="edge19" class="edge">
<title>Node1&#45;&gt;Node19</title>
<path fill="none" stroke="midnightblue" d="M409.15,-725.93C415.65,-716.51 422.59,-706.44 428.68,-697.61"/>
<polygon fill="midnightblue" stroke="midnightblue" points="406.15,-724.12 403.35,-734.34 411.91,-728.09 406.15,-724.12"/>
</g>
<!-- Node2&#45;&gt;Node3 -->
<g id="edge2" class="edge">
<title>Node2&#45;&gt;Node3</title>
<path fill="none" stroke="midnightblue" d="M263.2,-639.76C281.11,-627.84 301.35,-614.37 318.35,-603.05"/>
<polygon fill="midnightblue" stroke="midnightblue" points="261,-637.01 254.62,-645.47 264.88,-642.84 261,-637.01"/>
</g>
<!-- Node4 -->
<g id="node4" class="node">
<title>Node4</title>
<g id="a_node4"><a xlink:href="reactive__socket__service__base__ext_8ipp.html" target="_top" xlink:title=" ">
<polygon fill="white" stroke="black" points="283,-445.5 283,-508.5 429,-508.5 429,-445.5 283,-445.5"/>
<text text-anchor="start" x="291" y="-496.5" font-family="Helvetica" font-size="10.00">/home/ec2&#45;user/workspace</text>
<text text-anchor="start" x="291" y="-485.5" font-family="Helvetica" font-size="10.00">/vsomeip/implementation</text>
<text text-anchor="start" x="291" y="-474.5" font-family="Helvetica" font-size="10.00">/helper/boost/asio/detail</text>
<text text-anchor="start" x="291" y="-463.5" font-family="Helvetica" font-size="10.00">/impl/reactive_socket_service</text>
<text text-anchor="middle" x="356" y="-452.5" font-family="Helvetica" font-size="10.00">_base_ext.ipp</text>
</a>
</g>
</g>
<!-- Node3&#45;&gt;Node4 -->
<g id="edge3" class="edge">
<title>Node3&#45;&gt;Node4</title>
<path fill="none" stroke="midnightblue" d="M356,-540.69C356,-530.24 356,-518.89 356,-508.75"/>
<polygon fill="midnightblue" stroke="midnightblue" points="352.5,-540.76 356,-550.76 359.5,-540.76 352.5,-540.76"/>
</g>
<!-- Node5 -->
<g id="node5" class="node">
<title>Node5</title>
<g id="a_node5"><a xlink:href="reactive__socket__service__ext_8hpp.html" target="_top" xlink:title=" ">
<polygon fill="white" stroke="black" points="450.5,-451 450.5,-503 611.5,-503 611.5,-451 450.5,-451"/>
<text text-anchor="start" x="458.5" y="-491" font-family="Helvetica" font-size="10.00">/home/ec2&#45;user/workspace</text>
<text text-anchor="start" x="458.5" y="-480" font-family="Helvetica" font-size="10.00">/vsomeip/implementation</text>
<text text-anchor="start" x="458.5" y="-469" font-family="Helvetica" font-size="10.00">/helper/boost/asio/detail</text>
<text text-anchor="middle" x="531" y="-458" font-family="Helvetica" font-size="10.00">/reactive_socket_service_ext.hpp</text>
</a>
</g>
</g>
<!-- Node3&#45;&gt;Node5 -->
<g id="edge4" class="edge">
<title>Node3&#45;&gt;Node5</title>
<path fill="none" stroke="midnightblue" d="M409.86,-545.84C434.29,-532.16 462.84,-516.17 486.09,-503.15"/>
<polygon fill="midnightblue" stroke="midnightblue" points="408.08,-542.82 401.07,-550.76 411.5,-548.93 408.08,-542.82"/>
</g>
<!-- Node6 -->
<g id="node6" class="node">
<title>Node6</title>
<g id="a_node6"><a xlink:href="datagram__socket__service__ext_8hpp.html" target="_top" xlink:title=" ">
<polygon fill="white" stroke="black" points="385.5,-356.5 385.5,-408.5 522.5,-408.5 522.5,-356.5 385.5,-356.5"/>
<text text-anchor="start" x="393.5" y="-396.5" font-family="Helvetica" font-size="10.00">/home/ec2&#45;user/workspace</text>
<text text-anchor="start" x="393.5" y="-385.5" font-family="Helvetica" font-size="10.00">/vsomeip/implementation</text>
<text text-anchor="start" x="393.5" y="-374.5" font-family="Helvetica" font-size="10.00">/helper/boost/asio/datagram</text>
<text text-anchor="middle" x="454" y="-363.5" font-family="Helvetica" font-size="10.00">_socket_service_ext.hpp</text>
</a>
</g>
</g>
<!-- Node5&#45;&gt;Node6 -->
<g id="edge5" class="edge">
<title>Node5&#45;&gt;Node6</title>
<path fill="none" stroke="midnightblue" d="M503.36,-442.79C494.02,-431.58 483.75,-419.24 475.02,-408.75"/>
<polygon fill="midnightblue" stroke="midnightblue" points="500.87,-445.28 509.96,-450.72 506.25,-440.8 500.87,-445.28"/>
</g>
<!-- Node16 -->
<g id="node16" class="node">
<title>Node16</title>
<g id="a_node16"><a xlink:href="socket__acceptor__service__ext_8hpp.html" target="_top" xlink:title=" ">
<polygon fill="white" stroke="black" points="541,-356.5 541,-408.5 675,-408.5 675,-356.5 541,-356.5"/>
<text text-anchor="start" x="549" y="-396.5" font-family="Helvetica" font-size="10.00">/home/ec2&#45;user/workspace</text>
<text text-anchor="start" x="549" y="-385.5" font-family="Helvetica" font-size="10.00">/vsomeip/implementation</text>
<text text-anchor="start" x="549" y="-374.5" font-family="Helvetica" font-size="10.00">/helper/boost/asio/socket</text>
<text text-anchor="middle" x="608" y="-363.5" font-family="Helvetica" font-size="10.00">_acceptor_service_ext.hpp</text>
</a>
</g>
</g>
<!-- Node5&#45;&gt;Node16 -->
<g id="edge15" class="edge">
<title>Node5&#45;&gt;Node16</title>
<path fill="none" stroke="midnightblue" d="M558.64,-442.79C567.98,-431.58 578.25,-419.24 586.98,-408.75"/>
<polygon fill="midnightblue" stroke="midnightblue" points="555.75,-440.8 552.04,-450.72 561.13,-445.28 555.75,-440.8"/>
</g>
<!-- Node7 -->
<g id="node7" class="node">
<title>Node7</title>
<g id="a_node7"><a xlink:href="basic__datagram__socket__ext_8hpp.html" target="_top" xlink:title=" ">
<polygon fill="white" stroke="black" points="387,-267.5 387,-319.5 521,-319.5 521,-267.5 387,-267.5"/>
<text text-anchor="start" x="395" y="-307.5" font-family="Helvetica" font-size="10.00">/home/ec2&#45;user/workspace</text>
<text text-anchor="start" x="395" y="-296.5" font-family="Helvetica" font-size="10.00">/vsomeip/implementation</text>
<text text-anchor="start" x="395" y="-285.5" font-family="Helvetica" font-size="10.00">/helper/boost/asio/basic</text>
<text text-anchor="middle" x="454" y="-274.5" font-family="Helvetica" font-size="10.00">_datagram_socket_ext.hpp</text>
</a>
</g>
</g>
<!-- Node6&#45;&gt;Node7 -->
<g id="edge6" class="edge">
<title>Node6&#45;&gt;Node7</title>
<path fill="none" stroke="midnightblue" d="M454,-346.19C454,-337.28 454,-327.9 454,-319.61"/>
<polygon fill="midnightblue" stroke="midnightblue" points="450.5,-346.34 454,-356.34 457.5,-346.34 450.5,-346.34"/>
</g>
<!-- Node8 -->
<g id="node8" class="node">
<title>Node8</title>
<g id="a_node8"><a xlink:href="udp__ext_8hpp.html" target="_top" xlink:title=" ">
<polygon fill="white" stroke="black" points="387,-178.5 387,-230.5 521,-230.5 521,-178.5 387,-178.5"/>
<text text-anchor="start" x="395" y="-218.5" font-family="Helvetica" font-size="10.00">/home/ec2&#45;user/workspace</text>
<text text-anchor="start" x="395" y="-207.5" font-family="Helvetica" font-size="10.00">/vsomeip/implementation</text>
<text text-anchor="start" x="395" y="-196.5" font-family="Helvetica" font-size="10.00">/helper/boost/asio/ip/udp</text>
<text text-anchor="middle" x="454" y="-185.5" font-family="Helvetica" font-size="10.00">_ext.hpp</text>
</a>
</g>
</g>
<!-- Node7&#45;&gt;Node8 -->
<g id="edge7" class="edge">
<title>Node7&#45;&gt;Node8</title>
<path fill="none" stroke="midnightblue" d="M454,-257.19C454,-248.28 454,-238.9 454,-230.61"/>
<polygon fill="midnightblue" stroke="midnightblue" points="450.5,-257.34 454,-267.34 457.5,-257.34 450.5,-257.34"/>
</g>
<!-- Node9 -->
<g id="node9" class="node">
<title>Node9</title>
<g id="a_node9"><a xlink:href="udp__server__endpoint__impl_8hpp.html" target="_top" xlink:title=" ">
<polygon fill="white" stroke="black" points="223,-89.5 223,-141.5 369,-141.5 369,-89.5 223,-89.5"/>
<text text-anchor="start" x="231" y="-129.5" font-family="Helvetica" font-size="10.00">/home/ec2&#45;user/workspace</text>
<text text-anchor="start" x="231" y="-118.5" font-family="Helvetica" font-size="10.00">/vsomeip/implementation</text>
<text text-anchor="start" x="231" y="-107.5" font-family="Helvetica" font-size="10.00">/endpoints/include/udp_server</text>
<text text-anchor="middle" x="296" y="-96.5" font-family="Helvetica" font-size="10.00">_endpoint_impl.hpp</text>
</a>
</g>
</g>
<!-- Node8&#45;&gt;Node9 -->
<g id="edge8" class="edge">
<title>Node8&#45;&gt;Node9</title>
<path fill="none" stroke="midnightblue" d="M399.51,-173.49C380.63,-163.1 359.68,-151.57 341.6,-141.61"/>
<polygon fill="midnightblue" stroke="midnightblue" points="397.85,-176.58 408.3,-178.34 401.23,-170.45 397.85,-176.58"/>
</g>
<!-- Node14 -->
<g id="node14" class="node">
<title>Node14</title>
<g id="a_node14"><a xlink:href="endpoint__impl_8cpp.html" target="_top" xlink:title=" ">
<polygon fill="white" stroke="black" points="387,-89.5 387,-141.5 521,-141.5 521,-89.5 387,-89.5"/>
<text text-anchor="start" x="395" y="-129.5" font-family="Helvetica" font-size="10.00">/home/ec2&#45;user/workspace</text>
<text text-anchor="start" x="395" y="-118.5" font-family="Helvetica" font-size="10.00">/vsomeip/implementation</text>
<text text-anchor="start" x="395" y="-107.5" font-family="Helvetica" font-size="10.00">/endpoints/src/endpoint</text>
<text text-anchor="middle" x="454" y="-96.5" font-family="Helvetica" font-size="10.00">_impl.cpp</text>
</a>
</g>
</g>
<!-- Node8&#45;&gt;Node14 -->
<g id="edge13" class="edge">
<title>Node8&#45;&gt;Node14</title>
<path fill="none" stroke="midnightblue" d="M454,-168.19C454,-159.28 454,-149.9 454,-141.61"/>
<polygon fill="midnightblue" stroke="midnightblue" points="450.5,-168.34 454,-178.34 457.5,-168.34 450.5,-168.34"/>
</g>
<!-- Node15 -->
<g id="node15" class="node">
<title>Node15</title>
<g id="a_node15"><a xlink:href="server__endpoint__impl_8cpp.html" target="_top" xlink:title=" ">
<polygon fill="white" stroke="black" points="539,-89.5 539,-141.5 689,-141.5 689,-89.5 539,-89.5"/>
<text text-anchor="start" x="547" y="-129.5" font-family="Helvetica" font-size="10.00">/home/ec2&#45;user/workspace</text>
<text text-anchor="start" x="547" y="-118.5" font-family="Helvetica" font-size="10.00">/vsomeip/implementation</text>
<text text-anchor="start" x="547" y="-107.5" font-family="Helvetica" font-size="10.00">/endpoints/src/server_endpoint</text>
<text text-anchor="middle" x="614" y="-96.5" font-family="Helvetica" font-size="10.00">_impl.cpp</text>
</a>
</g>
</g>
<!-- Node8&#45;&gt;Node15 -->
<g id="edge14" class="edge">
<title>Node8&#45;&gt;Node15</title>
<path fill="none" stroke="midnightblue" d="M509.18,-173.49C528.3,-163.1 549.51,-151.57 567.83,-141.61"/>
<polygon fill="midnightblue" stroke="midnightblue" points="507.39,-170.48 500.28,-178.34 510.74,-176.63 507.39,-170.48"/>
</g>
<!-- Node10 -->
<g id="node10" class="node">
<title>Node10</title>
<g id="a_node10"><a xlink:href="endpoint__manager__impl_8cpp.html" target="_top" xlink:title=" ">
<polygon fill="white" stroke="black" points="0,-0.5 0,-52.5 134,-52.5 134,-0.5 0,-0.5"/>
<text text-anchor="start" x="8" y="-40.5" font-family="Helvetica" font-size="10.00">/home/ec2&#45;user/workspace</text>
<text text-anchor="start" x="8" y="-29.5" font-family="Helvetica" font-size="10.00">/vsomeip/implementation</text>
<text text-anchor="start" x="8" y="-18.5" font-family="Helvetica" font-size="10.00">/endpoints/src/endpoint</text>
<text text-anchor="middle" x="67" y="-7.5" font-family="Helvetica" font-size="10.00">_manager_impl.cpp</text>
</a>
</g>
</g>
<!-- Node9&#45;&gt;Node10 -->
<g id="edge9" class="edge">
<title>Node9&#45;&gt;Node10</title>
<path fill="none" stroke="midnightblue" d="M220.61,-85.86C192.26,-75.09 160.27,-62.94 132.86,-52.52"/>
<polygon fill="midnightblue" stroke="midnightblue" points="219.48,-89.17 230.07,-89.45 221.97,-82.63 219.48,-89.17"/>
</g>
<!-- Node11 -->
<g id="node11" class="node">
<title>Node11</title>
<g id="a_node11"><a xlink:href="udp__server__endpoint__impl_8cpp.html" target="_top" xlink:title=" ">
<polygon fill="white" stroke="black" points="152,-0.5 152,-52.5 286,-52.5 286,-0.5 152,-0.5"/>
<text text-anchor="start" x="160" y="-40.5" font-family="Helvetica" font-size="10.00">/home/ec2&#45;user/workspace</text>
<text text-anchor="start" x="160" y="-29.5" font-family="Helvetica" font-size="10.00">/vsomeip/implementation</text>
<text text-anchor="start" x="160" y="-18.5" font-family="Helvetica" font-size="10.00">/endpoints/src/udp_server</text>
<text text-anchor="middle" x="219" y="-7.5" font-family="Helvetica" font-size="10.00">_endpoint_impl.cpp</text>
</a>
</g>
</g>
<!-- Node9&#45;&gt;Node11 -->
<g id="edge10" class="edge">
<title>Node9&#45;&gt;Node11</title>
<path fill="none" stroke="midnightblue" d="M267.05,-81.79C258.5,-72.13 249.28,-61.71 241.22,-52.61"/>
<polygon fill="midnightblue" stroke="midnightblue" points="264.48,-84.17 273.73,-89.34 269.72,-79.53 264.48,-84.17"/>
</g>
<!-- Node12 -->
<g id="node12" class="node">
<title>Node12</title>
<g id="a_node12"><a xlink:href="routing__manager__impl_8cpp.html" target="_top" xlink:title=" ">
<polygon fill="white" stroke="black" points="304,-0.5 304,-52.5 444,-52.5 444,-0.5 304,-0.5"/>
<text text-anchor="start" x="312" y="-40.5" font-family="Helvetica" font-size="10.00">/home/ec2&#45;user/workspace</text>
<text text-anchor="start" x="312" y="-29.5" font-family="Helvetica" font-size="10.00">/vsomeip/implementation</text>
<text text-anchor="start" x="312" y="-18.5" font-family="Helvetica" font-size="10.00">/routing/src/routing_manager</text>
<text text-anchor="middle" x="374" y="-7.5" font-family="Helvetica" font-size="10.00">_impl.cpp</text>
</a>
</g>
</g>
<!-- Node9&#45;&gt;Node12 -->
<g id="edge11" class="edge">
<title>Node9&#45;&gt;Node12</title>
<path fill="none" stroke="midnightblue" d="M325.33,-81.79C333.99,-72.13 343.33,-61.71 351.49,-52.61"/>
<polygon fill="midnightblue" stroke="midnightblue" points="322.63,-79.55 318.56,-89.34 327.84,-84.23 322.63,-79.55"/>
</g>
<!-- Node13 -->
<g id="node13" class="node">
<title>Node13</title>
<g id="a_node13"><a xlink:href="service__discovery__impl_8cpp.html" target="_top" xlink:title=" ">
<polygon fill="white" stroke="black" points="462.5,-0.5 462.5,-52.5 613.5,-52.5 613.5,-0.5 462.5,-0.5"/>
<text text-anchor="start" x="470.5" y="-40.5" font-family="Helvetica" font-size="10.00">/home/ec2&#45;user/workspace</text>
<text text-anchor="start" x="470.5" y="-29.5" font-family="Helvetica" font-size="10.00">/vsomeip/implementation</text>
<text text-anchor="start" x="470.5" y="-18.5" font-family="Helvetica" font-size="10.00">/service_discovery/src/service</text>
<text text-anchor="middle" x="538" y="-7.5" font-family="Helvetica" font-size="10.00">_discovery_impl.cpp</text>
</a>
</g>
</g>
<!-- Node9&#45;&gt;Node13 -->
<g id="edge12" class="edge">
<title>Node9&#45;&gt;Node13</title>
<path fill="none" stroke="midnightblue" d="M375.28,-86C405.34,-75.19 439.3,-62.98 468.4,-52.52"/>
<polygon fill="midnightblue" stroke="midnightblue" points="373.9,-82.78 365.67,-89.45 376.27,-89.36 373.9,-82.78"/>
</g>
<!-- Node17 -->
<g id="node17" class="node">
<title>Node17</title>
<g id="a_node17"><a xlink:href="basic__socket__acceptor__ext_8hpp.html" target="_top" xlink:title=" ">
<polygon fill="white" stroke="black" points="541,-267.5 541,-319.5 675,-319.5 675,-267.5 541,-267.5"/>
<text text-anchor="start" x="549" y="-307.5" font-family="Helvetica" font-size="10.00">/home/ec2&#45;user/workspace</text>
<text text-anchor="start" x="549" y="-296.5" font-family="Helvetica" font-size="10.00">/vsomeip/implementation</text>
<text text-anchor="start" x="549" y="-285.5" font-family="Helvetica" font-size="10.00">/helper/boost/asio/basic</text>
<text text-anchor="middle" x="608" y="-274.5" font-family="Helvetica" font-size="10.00">_socket_acceptor_ext.hpp</text>
</a>
</g>
</g>
<!-- Node16&#45;&gt;Node17 -->
<g id="edge16" class="edge">
<title>Node16&#45;&gt;Node17</title>
<path fill="none" stroke="midnightblue" d="M608,-346.19C608,-337.28 608,-327.9 608,-319.61"/>
<polygon fill="midnightblue" stroke="midnightblue" points="604.5,-346.34 608,-356.34 611.5,-346.34 604.5,-346.34"/>
</g>
<!-- Node18&#45;&gt;Node5 -->
<g id="edge18" class="edge">
<title>Node18&#45;&gt;Node5</title>
<path fill="none" stroke="midnightblue" d="M542.13,-535.42C540,-524.45 537.77,-512.89 535.86,-503.05"/>
<polygon fill="midnightblue" stroke="midnightblue" points="538.7,-536.11 544.04,-545.26 545.57,-534.78 538.7,-536.11"/>
</g>
<!-- Node19&#45;&gt;Node3 -->
<g id="edge20" class="edge">
<title>Node19&#45;&gt;Node3</title>
<path fill="none" stroke="midnightblue" d="M414.33,-637.95C403.24,-626.56 390.98,-613.95 380.56,-603.25"/>
<polygon fill="midnightblue" stroke="midnightblue" points="411.92,-640.5 421.41,-645.22 416.94,-635.62 411.92,-640.5"/>
</g>
</g>
</svg>
