<?xml version="1.0" encoding="UTF-8" standalone="no"?>
<!DOCTYPE svg PUBLIC "-//W3C//DTD SVG 1.1//EN"
 "http://www.w3.org/Graphics/SVG/1.1/DTD/svg11.dtd">
<!-- Generated by graphviz version 2.44.0 (0)
 -->
<!-- Title: /home/ec2&#45;user/workspace/vsomeip/implementation/helper/boost/asio/detail/socket_ops_ext_local.hpp Pages: 1 -->
<svg width="446pt" height="539pt"
 viewBox="0.00 0.00 446.00 539.00" xmlns="http://www.w3.org/2000/svg" xmlns:xlink="http://www.w3.org/1999/xlink">
<g id="graph0" class="graph" transform="scale(1 1) rotate(0) translate(4 535)">
<title>/home/ec2&#45;user/workspace/vsomeip/implementation/helper/boost/asio/detail/socket_ops_ext_local.hpp</title>
<polygon fill="white" stroke="transparent" points="-4,4 -4,-535 442,-535 442,4 -4,4"/>
<!-- Node1 -->
<g id="node1" class="node">
<title>Node1</title>
<g id="a_node1"><a xlink:title=" ">
<polygon fill="#bfbfbf" stroke="black" points="157,-478.5 157,-530.5 291,-530.5 291,-478.5 157,-478.5"/>
<text text-anchor="start" x="165" y="-518.5" font-family="Helvetica" font-size="10.00">/home/ec2&#45;user/workspace</text>
<text text-anchor="start" x="165" y="-507.5" font-family="Helvetica" font-size="10.00">/vsomeip/implementation</text>
<text text-anchor="start" x="165" y="-496.5" font-family="Helvetica" font-size="10.00">/helper/boost/asio/detail</text>
<text text-anchor="middle" x="224" y="-485.5" font-family="Helvetica" font-size="10.00">/socket_ops_ext_local.hpp</text>
</a>
</g>
</g>
<!-- Node2 -->
<g id="node2" class="node">
<title>Node2</title>
<g id="a_node2"><a xlink:href="reactive__socket__recv__op__ext__local_8hpp.html" target="_top" xlink:title=" ">
<polygon fill="white" stroke="black" points="0,-378.5 0,-441.5 146,-441.5 146,-378.5 0,-378.5"/>
<text text-anchor="start" x="8" y="-429.5" font-family="Helvetica" font-size="10.00">/home/ec2&#45;user/workspace</text>
<text text-anchor="start" x="8" y="-418.5" font-family="Helvetica" font-size="10.00">/vsomeip/implementation</text>
<text text-anchor="start" x="8" y="-407.5" font-family="Helvetica" font-size="10.00">/helper/boost/asio/detail</text>
<text text-anchor="start" x="8" y="-396.5" font-family="Helvetica" font-size="10.00">/reactive_socket_recv_op_ext</text>
<text text-anchor="middle" x="73" y="-385.5" font-family="Helvetica" font-size="10.00">_local.hpp</text>
</a>
</g>
</g>
<!-- Node1&#45;&gt;Node2 -->
<g id="edge1" class="edge">
<title>Node1&#45;&gt;Node2</title>
<path fill="none" stroke="midnightblue" d="M174.22,-473.01C157.79,-462.94 139.51,-451.74 123.05,-441.66"/>
<polygon fill="midnightblue" stroke="midnightblue" points="172.78,-476.23 183.14,-478.47 176.44,-470.26 172.78,-476.23"/>
</g>
<!-- Node3 -->
<g id="node3" class="node">
<title>Node3</title>
<g id="a_node3"><a xlink:href="reactive__socket__service__base__ext__local_8hpp.html" target="_top" xlink:title=" ">
<polygon fill="white" stroke="black" points="108.5,-278.5 108.5,-341.5 259.5,-341.5 259.5,-278.5 108.5,-278.5"/>
<text text-anchor="start" x="116.5" y="-329.5" font-family="Helvetica" font-size="10.00">/home/ec2&#45;user/workspace</text>
<text text-anchor="start" x="116.5" y="-318.5" font-family="Helvetica" font-size="10.00">/vsomeip/implementation</text>
<text text-anchor="start" x="116.5" y="-307.5" font-family="Helvetica" font-size="10.00">/helper/boost/asio/detail</text>
<text text-anchor="start" x="116.5" y="-296.5" font-family="Helvetica" font-size="10.00">/reactive_socket_service_base</text>
<text text-anchor="middle" x="184" y="-285.5" font-family="Helvetica" font-size="10.00">_ext_local.hpp</text>
</a>
</g>
</g>
<!-- Node1&#45;&gt;Node3 -->
<g id="edge11" class="edge">
<title>Node1&#45;&gt;Node3</title>
<path fill="none" stroke="midnightblue" d="M203.79,-469.36C199.51,-460.7 195.53,-451.23 193,-442 183.83,-408.58 182.38,-368.67 182.71,-341.75"/>
<polygon fill="midnightblue" stroke="midnightblue" points="200.76,-471.13 208.48,-478.39 206.97,-467.9 200.76,-471.13"/>
</g>
<!-- Node8 -->
<g id="node8" class="node">
<title>Node8</title>
<g id="a_node8"><a xlink:href="reactive__socket__recvfrom__op__ext__local_8hpp.html" target="_top" xlink:title=" ">
<polygon fill="white" stroke="black" points="304,-278.5 304,-341.5 438,-341.5 438,-278.5 304,-278.5"/>
<text text-anchor="start" x="312" y="-329.5" font-family="Helvetica" font-size="10.00">/home/ec2&#45;user/workspace</text>
<text text-anchor="start" x="312" y="-318.5" font-family="Helvetica" font-size="10.00">/vsomeip/implementation</text>
<text text-anchor="start" x="312" y="-307.5" font-family="Helvetica" font-size="10.00">/helper/boost/asio/detail</text>
<text text-anchor="start" x="312" y="-296.5" font-family="Helvetica" font-size="10.00">/reactive_socket_recvfrom</text>
<text text-anchor="middle" x="371" y="-285.5" font-family="Helvetica" font-size="10.00">_op_ext_local.hpp</text>
</a>
</g>
</g>
<!-- Node1&#45;&gt;Node8 -->
<g id="edge7" class="edge">
<title>Node1&#45;&gt;Node8</title>
<path fill="none" stroke="midnightblue" d="M300.79,-483.64C322.2,-474.41 343.31,-461.09 357,-442 377.93,-412.82 378.45,-370.16 375.73,-341.53"/>
<polygon fill="midnightblue" stroke="midnightblue" points="299.25,-480.48 291.29,-487.47 301.87,-486.97 299.25,-480.48"/>
</g>
<!-- Node9 -->
<g id="node9" class="node">
<title>Node9</title>
<g id="a_node9"><a xlink:href="reactive__socket__recvmsg__op__ext__local_8hpp.html" target="_top" xlink:title=" ">
<polygon fill="white" stroke="black" points="202,-378.5 202,-441.5 348,-441.5 348,-378.5 202,-378.5"/>
<text text-anchor="start" x="210" y="-429.5" font-family="Helvetica" font-size="10.00">/home/ec2&#45;user/workspace</text>
<text text-anchor="start" x="210" y="-418.5" font-family="Helvetica" font-size="10.00">/vsomeip/implementation</text>
<text text-anchor="start" x="210" y="-407.5" font-family="Helvetica" font-size="10.00">/helper/boost/asio/detail</text>
<text text-anchor="start" x="210" y="-396.5" font-family="Helvetica" font-size="10.00">/reactive_socket_recvmsg_op</text>
<text text-anchor="middle" x="275" y="-385.5" font-family="Helvetica" font-size="10.00">_ext_local.hpp</text>
</a>
</g>
</g>
<!-- Node1&#45;&gt;Node9 -->
<g id="edge9" class="edge">
<title>Node1&#45;&gt;Node9</title>
<path fill="none" stroke="midnightblue" d="M242.81,-469.38C247.85,-460.25 253.26,-450.44 258.18,-441.51"/>
<polygon fill="midnightblue" stroke="midnightblue" points="239.7,-467.78 237.94,-478.22 245.83,-471.16 239.7,-467.78"/>
</g>
<!-- Node2&#45;&gt;Node3 -->
<g id="edge2" class="edge">
<title>Node2&#45;&gt;Node3</title>
<path fill="none" stroke="midnightblue" d="M115.42,-371.54C126.62,-361.66 138.57,-351.11 149.31,-341.63"/>
<polygon fill="midnightblue" stroke="midnightblue" points="113,-369.02 107.82,-378.26 117.63,-374.27 113,-369.02"/>
</g>
<!-- Node4 -->
<g id="node4" class="node">
<title>Node4</title>
<g id="a_node4"><a xlink:href="reactive__socket__service__base__ext__local_8ipp.html" target="_top" xlink:title=" ">
<polygon fill="white" stroke="black" points="111,-178.5 111,-241.5 257,-241.5 257,-178.5 111,-178.5"/>
<text text-anchor="start" x="119" y="-229.5" font-family="Helvetica" font-size="10.00">/home/ec2&#45;user/workspace</text>
<text text-anchor="start" x="119" y="-218.5" font-family="Helvetica" font-size="10.00">/vsomeip/implementation</text>
<text text-anchor="start" x="119" y="-207.5" font-family="Helvetica" font-size="10.00">/helper/boost/asio/detail</text>
<text text-anchor="start" x="119" y="-196.5" font-family="Helvetica" font-size="10.00">/impl/reactive_socket_service</text>
<text text-anchor="middle" x="184" y="-185.5" font-family="Helvetica" font-size="10.00">_base_ext_local.ipp</text>
</a>
</g>
</g>
<!-- Node3&#45;&gt;Node4 -->
<g id="edge3" class="edge">
<title>Node3&#45;&gt;Node4</title>
<path fill="none" stroke="midnightblue" d="M184,-268.1C184,-259.24 184,-250.01 184,-241.63"/>
<polygon fill="midnightblue" stroke="midnightblue" points="180.5,-268.26 184,-278.26 187.5,-268.26 180.5,-268.26"/>
</g>
<!-- Node5 -->
<g id="node5" class="node">
<title>Node5</title>
<g id="a_node5"><a xlink:href="reactive__socket__service__ext__local_8hpp.html" target="_top" xlink:title=" ">
<polygon fill="white" stroke="black" points="294.5,-178.5 294.5,-241.5 437.5,-241.5 437.5,-178.5 294.5,-178.5"/>
<text text-anchor="start" x="302.5" y="-229.5" font-family="Helvetica" font-size="10.00">/home/ec2&#45;user/workspace</text>
<text text-anchor="start" x="302.5" y="-218.5" font-family="Helvetica" font-size="10.00">/vsomeip/implementation</text>
<text text-anchor="start" x="302.5" y="-207.5" font-family="Helvetica" font-size="10.00">/helper/boost/asio/detail</text>
<text text-anchor="start" x="302.5" y="-196.5" font-family="Helvetica" font-size="10.00">/reactive_socket_service_ext</text>
<text text-anchor="middle" x="366" y="-185.5" font-family="Helvetica" font-size="10.00">_local.hpp</text>
</a>
</g>
</g>
<!-- Node3&#45;&gt;Node5 -->
<g id="edge4" class="edge">
<title>Node3&#45;&gt;Node5</title>
<path fill="none" stroke="midnightblue" d="M250.13,-273.39C269.46,-262.98 290.41,-251.7 309.12,-241.63"/>
<polygon fill="midnightblue" stroke="midnightblue" points="248.23,-270.44 241.09,-278.26 251.55,-276.6 248.23,-270.44"/>
</g>
<!-- Node6 -->
<g id="node6" class="node">
<title>Node6</title>
<g id="a_node6"><a xlink:href="stream__socket__service__ext_8hpp.html" target="_top" xlink:title=" ">
<polygon fill="white" stroke="black" points="299,-89.5 299,-141.5 433,-141.5 433,-89.5 299,-89.5"/>
<text text-anchor="start" x="307" y="-129.5" font-family="Helvetica" font-size="10.00">/home/ec2&#45;user/workspace</text>
<text text-anchor="start" x="307" y="-118.5" font-family="Helvetica" font-size="10.00">/vsomeip/implementation</text>
<text text-anchor="start" x="307" y="-107.5" font-family="Helvetica" font-size="10.00">/helper/boost/asio/stream</text>
<text text-anchor="middle" x="366" y="-96.5" font-family="Helvetica" font-size="10.00">_socket_service_ext.hpp</text>
</a>
</g>
</g>
<!-- Node5&#45;&gt;Node6 -->
<g id="edge5" class="edge">
<title>Node5&#45;&gt;Node6</title>
<path fill="none" stroke="midnightblue" d="M366,-168.42C366,-159.36 366,-150 366,-141.77"/>
<polygon fill="midnightblue" stroke="midnightblue" points="362.5,-168.46 366,-178.46 369.5,-168.46 362.5,-168.46"/>
</g>
<!-- Node7 -->
<g id="node7" class="node">
<title>Node7</title>
<g id="a_node7"><a xlink:href="basic__stream__socket__ext_8hpp.html" target="_top" xlink:title=" ">
<polygon fill="white" stroke="black" points="299,-0.5 299,-52.5 433,-52.5 433,-0.5 299,-0.5"/>
<text text-anchor="start" x="307" y="-40.5" font-family="Helvetica" font-size="10.00">/home/ec2&#45;user/workspace</text>
<text text-anchor="start" x="307" y="-29.5" font-family="Helvetica" font-size="10.00">/vsomeip/implementation</text>
<text text-anchor="start" x="307" y="-18.5" font-family="Helvetica" font-size="10.00">/helper/boost/asio/basic</text>
<text text-anchor="middle" x="366" y="-7.5" font-family="Helvetica" font-size="10.00">_stream_socket_ext.hpp</text>
</a>
</g>
</g>
<!-- Node6&#45;&gt;Node7 -->
<g id="edge6" class="edge">
<title>Node6&#45;&gt;Node7</title>
<path fill="none" stroke="midnightblue" d="M366,-79.19C366,-70.28 366,-60.9 366,-52.61"/>
<polygon fill="midnightblue" stroke="midnightblue" points="362.5,-79.34 366,-89.34 369.5,-79.34 362.5,-79.34"/>
</g>
<!-- Node8&#45;&gt;Node5 -->
<g id="edge8" class="edge">
<title>Node8&#45;&gt;Node5</title>
<path fill="none" stroke="midnightblue" d="M368.91,-268.1C368.46,-259.24 367.99,-250.01 367.56,-241.63"/>
<polygon fill="midnightblue" stroke="midnightblue" points="365.43,-268.45 369.43,-278.26 372.42,-268.1 365.43,-268.45"/>
</g>
<!-- Node9&#45;&gt;Node3 -->
<g id="edge10" class="edge">
<title>Node9&#45;&gt;Node3</title>
<path fill="none" stroke="midnightblue" d="M239.42,-370.69C230.48,-361.05 220.99,-350.83 212.44,-341.63"/>
<polygon fill="midnightblue" stroke="midnightblue" points="237.09,-373.31 246.46,-378.26 242.22,-368.55 237.09,-373.31"/>
</g>
</g>
</svg>
