<?xml version="1.0" encoding="UTF-8" standalone="no"?>
<!DOCTYPE svg PUBLIC "-//W3C//DTD SVG 1.1//EN"
 "http://www.w3.org/Graphics/SVG/1.1/DTD/svg11.dtd">
<!-- Generated by graphviz version 2.44.0 (0)
 -->
<!-- Title: /home/ec2&#45;user/workspace/vsomeip/implementation/helper/boost/asio/detail/impl/socket_ops_ext.ipp Pages: 1 -->
<svg width="373pt" height="128pt"
 viewBox="0.00 0.00 373.00 128.00" xmlns="http://www.w3.org/2000/svg" xmlns:xlink="http://www.w3.org/1999/xlink">
<g id="graph0" class="graph" transform="scale(1 1) rotate(0) translate(4 124)">
<title>/home/ec2&#45;user/workspace/vsomeip/implementation/helper/boost/asio/detail/impl/socket_ops_ext.ipp</title>
<polygon fill="white" stroke="transparent" points="-4,4 -4,-124 369,-124 369,4 -4,4"/>
<!-- Node1 -->
<g id="node1" class="node">
<title>Node1</title>
<g id="a_node1"><a xlink:title=" ">
<polygon fill="#bfbfbf" stroke="black" points="116.5,-67.5 116.5,-119.5 250.5,-119.5 250.5,-67.5 116.5,-67.5"/>
<text text-anchor="start" x="124.5" y="-107.5" font-family="Helvetica" font-size="10.00">/home/ec2&#45;user/workspace</text>
<text text-anchor="start" x="124.5" y="-96.5" font-family="Helvetica" font-size="10.00">/vsomeip/implementation</text>
<text text-anchor="start" x="124.5" y="-85.5" font-family="Helvetica" font-size="10.00">/helper/boost/asio/detail</text>
<text text-anchor="middle" x="183.5" y="-74.5" font-family="Helvetica" font-size="10.00">/impl/socket_ops_ext.ipp</text>
</a>
</g>
</g>
<!-- Node2 -->
<g id="node2" class="node">
<title>Node2</title>
<g id="a_node2"><a xlink:title=" ">
<polygon fill="white" stroke="#bfbfbf" points="0,-0.5 0,-30.5 109,-30.5 109,-0.5 0,-0.5"/>
<text text-anchor="start" x="8" y="-18.5" font-family="Helvetica" font-size="10.00">boost/asio/detail/impl</text>
<text text-anchor="middle" x="54.5" y="-7.5" font-family="Helvetica" font-size="10.00">/socket_ops.ipp</text>
</a>
</g>
</g>
<!-- Node1&#45;&gt;Node2 -->
<g id="edge1" class="edge">
<title>Node1&#45;&gt;Node2</title>
<path fill="none" stroke="midnightblue" d="M140.9,-67.4C123.44,-57.12 103.55,-45.4 87.26,-35.8"/>
<polygon fill="midnightblue" stroke="midnightblue" points="89.01,-32.77 78.61,-30.71 85.45,-38.8 89.01,-32.77"/>
</g>
<!-- Node3 -->
<g id="node3" class="node">
<title>Node3</title>
<g id="a_node3"><a xlink:title=" ">
<polygon fill="white" stroke="#bfbfbf" points="127.5,-0.5 127.5,-30.5 239.5,-30.5 239.5,-0.5 127.5,-0.5"/>
<text text-anchor="start" x="135.5" y="-18.5" font-family="Helvetica" font-size="10.00">boost/asio/detail/push</text>
<text text-anchor="middle" x="183.5" y="-7.5" font-family="Helvetica" font-size="10.00">_options.hpp</text>
</a>
</g>
</g>
<!-- Node1&#45;&gt;Node3 -->
<g id="edge2" class="edge">
<title>Node1&#45;&gt;Node3</title>
<path fill="none" stroke="midnightblue" d="M183.5,-67.19C183.5,-58.79 183.5,-49.44 183.5,-41.09"/>
<polygon fill="midnightblue" stroke="midnightblue" points="187,-40.85 183.5,-30.85 180,-40.85 187,-40.85"/>
</g>
<!-- Node4 -->
<g id="node4" class="node">
<title>Node4</title>
<g id="a_node4"><a xlink:title=" ">
<polygon fill="white" stroke="#bfbfbf" points="258,-0.5 258,-30.5 365,-30.5 365,-0.5 258,-0.5"/>
<text text-anchor="start" x="266" y="-18.5" font-family="Helvetica" font-size="10.00">boost/asio/detail/pop</text>
<text text-anchor="middle" x="311.5" y="-7.5" font-family="Helvetica" font-size="10.00">_options.hpp</text>
</a>
</g>
</g>
<!-- Node1&#45;&gt;Node4 -->
<g id="edge3" class="edge">
<title>Node1&#45;&gt;Node4</title>
<path fill="none" stroke="midnightblue" d="M225.77,-67.4C242.93,-57.21 262.47,-45.61 278.55,-36.07"/>
<polygon fill="midnightblue" stroke="midnightblue" points="280.76,-38.82 287.57,-30.71 277.19,-32.8 280.76,-38.82"/>
</g>
</g>
</svg>
