<?xml version="1.0" encoding="UTF-8" standalone="no"?>
<!DOCTYPE svg PUBLIC "-//W3C//DTD SVG 1.1//EN"
 "http://www.w3.org/Graphics/SVG/1.1/DTD/svg11.dtd">
<!-- Generated by graphviz version 2.44.0 (0)
 -->
<!-- Title: /home/ec2&#45;user/workspace/vsomeip/implementation/endpoints/include/virtual_server_endpoint_impl.hpp Pages: 1 -->
<svg width="545pt" height="173pt"
 viewBox="0.00 0.00 544.50 173.00" xmlns="http://www.w3.org/2000/svg" xmlns:xlink="http://www.w3.org/1999/xlink">
<g id="graph0" class="graph" transform="scale(1 1) rotate(0) translate(4 169)">
<title>/home/ec2&#45;user/workspace/vsomeip/implementation/endpoints/include/virtual_server_endpoint_impl.hpp</title>
<polygon fill="white" stroke="transparent" points="-4,4 -4,-169 540.5,-169 540.5,4 -4,4"/>
<!-- Node1 -->
<g id="node1" class="node">
<title>Node1</title>
<g id="a_node1"><a xlink:title=" ">
<polygon fill="#bfbfbf" stroke="black" points="89,-112.5 89,-164.5 223,-164.5 223,-112.5 89,-112.5"/>
<text text-anchor="start" x="97" y="-152.5" font-family="Helvetica" font-size="10.00">/home/ec2&#45;user/workspace</text>
<text text-anchor="start" x="97" y="-141.5" font-family="Helvetica" font-size="10.00">/vsomeip/implementation</text>
<text text-anchor="start" x="97" y="-130.5" font-family="Helvetica" font-size="10.00">/endpoints/include/virtual</text>
<text text-anchor="middle" x="156" y="-119.5" font-family="Helvetica" font-size="10.00">_server_endpoint_impl.hpp</text>
</a>
</g>
</g>
<!-- Node2 -->
<g id="node2" class="node">
<title>Node2</title>
<g id="a_node2"><a xlink:title=" ">
<polygon fill="white" stroke="#bfbfbf" points="0,-56.5 0,-75.5 128,-75.5 128,-56.5 0,-56.5"/>
<text text-anchor="middle" x="64" y="-63.5" font-family="Helvetica" font-size="10.00">boost/asio/io_service.hpp</text>
</a>
</g>
</g>
<!-- Node1&#45;&gt;Node2 -->
<g id="edge1" class="edge">
<title>Node1&#45;&gt;Node2</title>
<path fill="none" stroke="midnightblue" d="M123.31,-112.45C109.97,-102.23 95,-90.76 83.44,-81.9"/>
<polygon fill="midnightblue" stroke="midnightblue" points="85.41,-79 75.35,-75.7 81.16,-84.56 85.41,-79"/>
</g>
<!-- Node3 -->
<g id="node3" class="node">
<title>Node3</title>
<g id="a_node3"><a xlink:title=" ">
<polygon fill="white" stroke="#bfbfbf" points="53,-0.5 53,-19.5 193,-19.5 193,-0.5 53,-0.5"/>
<text text-anchor="middle" x="123" y="-7.5" font-family="Helvetica" font-size="10.00">vsomeip/primitive_types.hpp</text>
</a>
</g>
</g>
<!-- Node1&#45;&gt;Node3 -->
<g id="edge2" class="edge">
<title>Node1&#45;&gt;Node3</title>
<path fill="none" stroke="midnightblue" d="M150.65,-112.41C147.07,-96.24 142.11,-74.79 137,-56 134.58,-47.11 131.58,-37.33 128.98,-29.16"/>
<polygon fill="midnightblue" stroke="midnightblue" points="132.28,-28.01 125.87,-19.57 125.63,-30.16 132.28,-28.01"/>
</g>
<!-- Node4 -->
<g id="node4" class="node">
<title>Node4</title>
<g id="a_node4"><a xlink:href="endpoint_8hpp.html" target="_top" xlink:title=" ">
<polygon fill="white" stroke="black" points="218,-56.5 218,-75.5 332,-75.5 332,-56.5 218,-56.5"/>
<text text-anchor="middle" x="275" y="-63.5" font-family="Helvetica" font-size="10.00">../include/endpoint.hpp</text>
</a>
</g>
</g>
<!-- Node1&#45;&gt;Node4 -->
<g id="edge3" class="edge">
<title>Node1&#45;&gt;Node4</title>
<path fill="none" stroke="midnightblue" d="M198.29,-112.45C216.33,-101.76 236.67,-89.71 251.87,-80.7"/>
<polygon fill="midnightblue" stroke="midnightblue" points="253.79,-83.64 260.61,-75.53 250.22,-77.61 253.79,-83.64"/>
</g>
<!-- Node4&#45;&gt;Node3 -->
<g id="edge5" class="edge">
<title>Node4&#45;&gt;Node3</title>
<path fill="none" stroke="midnightblue" d="M250.92,-56.44C225.46,-47.4 185.11,-33.06 156.54,-22.92"/>
<polygon fill="midnightblue" stroke="midnightblue" points="157.57,-19.57 146.97,-19.52 155.22,-26.16 157.57,-19.57"/>
</g>
<!-- Node5 -->
<g id="node5" class="node">
<title>Node5</title>
<g id="a_node5"><a xlink:title=" ">
<polygon fill="white" stroke="#bfbfbf" points="211,-0.5 211,-19.5 339,-19.5 339,-0.5 211,-0.5"/>
<text text-anchor="middle" x="275" y="-7.5" font-family="Helvetica" font-size="10.00">boost/asio/ip/address.hpp</text>
</a>
</g>
</g>
<!-- Node4&#45;&gt;Node5 -->
<g id="edge4" class="edge">
<title>Node4&#45;&gt;Node5</title>
<path fill="none" stroke="midnightblue" d="M275,-56.08C275,-49.01 275,-38.86 275,-29.99"/>
<polygon fill="midnightblue" stroke="midnightblue" points="278.5,-29.75 275,-19.75 271.5,-29.75 278.5,-29.75"/>
</g>
<!-- Node6 -->
<g id="node6" class="node">
<title>Node6</title>
<g id="a_node6"><a xlink:title=" ">
<polygon fill="white" stroke="#bfbfbf" points="357,-0.5 357,-19.5 475,-19.5 475,-0.5 357,-0.5"/>
<text text-anchor="middle" x="416" y="-7.5" font-family="Helvetica" font-size="10.00">vsomeip/constants.hpp</text>
</a>
</g>
</g>
<!-- Node4&#45;&gt;Node6 -->
<g id="edge6" class="edge">
<title>Node4&#45;&gt;Node6</title>
<path fill="none" stroke="midnightblue" d="M297.34,-56.44C320.75,-47.48 357.74,-33.31 384.19,-23.18"/>
<polygon fill="midnightblue" stroke="midnightblue" points="385.68,-26.36 393.76,-19.52 383.17,-19.82 385.68,-26.36"/>
</g>
<!-- Node7 -->
<g id="node7" class="node">
<title>Node7</title>
<g id="a_node7"><a xlink:title=" ">
<polygon fill="white" stroke="#bfbfbf" points="493.5,-0.5 493.5,-19.5 536.5,-19.5 536.5,-0.5 493.5,-0.5"/>
<text text-anchor="middle" x="515" y="-7.5" font-family="Helvetica" font-size="10.00">vector</text>
</a>
</g>
</g>
<!-- Node4&#45;&gt;Node7 -->
<g id="edge7" class="edge">
<title>Node4&#45;&gt;Node7</title>
<path fill="none" stroke="midnightblue" d="M318.84,-56.5C359.12,-48.47 420.67,-35.69 483.31,-20.03"/>
<polygon fill="midnightblue" stroke="midnightblue" points="484.53,-23.33 493.37,-17.49 482.82,-16.54 484.53,-23.33"/>
</g>
</g>
</svg>
