<?xml version="1.0" encoding="UTF-8" standalone="no"?>
<!DOCTYPE svg PUBLIC "-//W3C//DTD SVG 1.1//EN"
 "http://www.w3.org/Graphics/SVG/1.1/DTD/svg11.dtd">
<!-- Generated by graphviz version 2.44.0 (0)
 -->
<!-- Title: /home/ec2&#45;user/workspace/vsomeip/implementation/endpoints/src/virtual_server_endpoint_impl.cpp Pages: 1 -->
<svg width="910pt" height="240pt"
 viewBox="0.00 0.00 910.00 240.00" xmlns="http://www.w3.org/2000/svg" xmlns:xlink="http://www.w3.org/1999/xlink">
<g id="graph0" class="graph" transform="scale(1 1) rotate(0) translate(4 236)">
<title>/home/ec2&#45;user/workspace/vsomeip/implementation/endpoints/src/virtual_server_endpoint_impl.cpp</title>
<polygon fill="white" stroke="transparent" points="-4,4 -4,-236 906,-236 906,4 -4,4"/>
<!-- Node1 -->
<g id="node1" class="node">
<title>Node1</title>
<g id="a_node1"><a xlink:title=" ">
<polygon fill="#bfbfbf" stroke="black" points="294,-179.5 294,-231.5 434,-231.5 434,-179.5 294,-179.5"/>
<text text-anchor="start" x="302" y="-219.5" font-family="Helvetica" font-size="10.00">/home/ec2&#45;user/workspace</text>
<text text-anchor="start" x="302" y="-208.5" font-family="Helvetica" font-size="10.00">/vsomeip/implementation</text>
<text text-anchor="start" x="302" y="-197.5" font-family="Helvetica" font-size="10.00">/endpoints/src/virtual_server</text>
<text text-anchor="middle" x="364" y="-186.5" font-family="Helvetica" font-size="10.00">_endpoint_impl.cpp</text>
</a>
</g>
</g>
<!-- Node2 -->
<g id="node2" class="node">
<title>Node2</title>
<g id="a_node2"><a xlink:href="virtual__server__endpoint__impl_8hpp.html" target="_top" xlink:title=" ">
<polygon fill="white" stroke="black" points="162.5,-112.5 162.5,-142.5 295.5,-142.5 295.5,-112.5 162.5,-112.5"/>
<text text-anchor="start" x="170.5" y="-130.5" font-family="Helvetica" font-size="10.00">../include/virtual</text>
<text text-anchor="middle" x="229" y="-119.5" font-family="Helvetica" font-size="10.00">_server_endpoint_impl.hpp</text>
</a>
</g>
</g>
<!-- Node1&#45;&gt;Node2 -->
<g id="edge1" class="edge">
<title>Node1&#45;&gt;Node2</title>
<path fill="none" stroke="midnightblue" d="M319.42,-179.4C301.15,-169.12 280.33,-157.4 263.28,-147.8"/>
<polygon fill="midnightblue" stroke="midnightblue" points="264.67,-144.56 254.24,-142.71 261.23,-150.66 264.67,-144.56"/>
</g>
<!-- Node7 -->
<g id="node7" class="node">
<title>Node7</title>
<g id="a_node7"><a xlink:title=" ">
<polygon fill="white" stroke="#bfbfbf" points="366,-0.5 366,-19.5 484,-19.5 484,-0.5 366,-0.5"/>
<text text-anchor="middle" x="425" y="-7.5" font-family="Helvetica" font-size="10.00">vsomeip/constants.hpp</text>
</a>
</g>
</g>
<!-- Node1&#45;&gt;Node7 -->
<g id="edge9" class="edge">
<title>Node1&#45;&gt;Node7</title>
<path fill="none" stroke="midnightblue" d="M362.64,-179.29C361.99,-148.66 364.16,-96.11 383,-56 388.3,-44.71 397.5,-34.36 405.94,-26.44"/>
<polygon fill="midnightblue" stroke="midnightblue" points="408.46,-28.89 413.64,-19.64 403.83,-23.64 408.46,-28.89"/>
</g>
<!-- Node9 -->
<g id="node9" class="node">
<title>Node9</title>
<g id="a_node9"><a xlink:href="logger_8hpp.html" target="_top" xlink:title=" ">
<polygon fill="white" stroke="black" points="507,-118 507,-137 643,-137 643,-118 507,-118"/>
<text text-anchor="middle" x="575" y="-125" font-family="Helvetica" font-size="10.00">vsomeip/internal/logger.hpp</text>
</a>
</g>
</g>
<!-- Node1&#45;&gt;Node9 -->
<g id="edge10" class="edge">
<title>Node1&#45;&gt;Node9</title>
<path fill="none" stroke="midnightblue" d="M433.67,-179.4C469.97,-166.33 512.68,-150.95 541.57,-140.54"/>
<polygon fill="midnightblue" stroke="midnightblue" points="542.96,-143.76 551.19,-137.08 540.59,-137.17 542.96,-143.76"/>
</g>
<!-- Node3 -->
<g id="node3" class="node">
<title>Node3</title>
<g id="a_node3"><a xlink:title=" ">
<polygon fill="white" stroke="#bfbfbf" points="33,-56.5 33,-75.5 161,-75.5 161,-56.5 33,-56.5"/>
<text text-anchor="middle" x="97" y="-63.5" font-family="Helvetica" font-size="10.00">boost/asio/io_service.hpp</text>
</a>
</g>
</g>
<!-- Node2&#45;&gt;Node3 -->
<g id="edge2" class="edge">
<title>Node2&#45;&gt;Node3</title>
<path fill="none" stroke="midnightblue" d="M197.72,-112.4C175.77,-102.51 146.66,-89.38 125.38,-79.79"/>
<polygon fill="midnightblue" stroke="midnightblue" points="126.76,-76.58 116.21,-75.66 123.89,-82.96 126.76,-76.58"/>
</g>
<!-- Node4 -->
<g id="node4" class="node">
<title>Node4</title>
<g id="a_node4"><a xlink:title=" ">
<polygon fill="white" stroke="#bfbfbf" points="0,-0.5 0,-19.5 140,-19.5 140,-0.5 0,-0.5"/>
<text text-anchor="middle" x="70" y="-7.5" font-family="Helvetica" font-size="10.00">vsomeip/primitive_types.hpp</text>
</a>
</g>
</g>
<!-- Node2&#45;&gt;Node4 -->
<g id="edge3" class="edge">
<title>Node2&#45;&gt;Node4</title>
<path fill="none" stroke="midnightblue" d="M220.08,-112.42C209.66,-96.89 191.12,-72 170,-56 151.18,-41.74 127.12,-30.73 107.31,-23.18"/>
<polygon fill="midnightblue" stroke="midnightblue" points="108.28,-19.8 97.69,-19.64 105.87,-26.37 108.28,-19.8"/>
</g>
<!-- Node5 -->
<g id="node5" class="node">
<title>Node5</title>
<g id="a_node5"><a xlink:href="endpoint_8hpp.html" target="_top" xlink:title=" ">
<polygon fill="white" stroke="black" points="217,-56.5 217,-75.5 331,-75.5 331,-56.5 217,-56.5"/>
<text text-anchor="middle" x="274" y="-63.5" font-family="Helvetica" font-size="10.00">../include/endpoint.hpp</text>
</a>
</g>
</g>
<!-- Node2&#45;&gt;Node5 -->
<g id="edge4" class="edge">
<title>Node2&#45;&gt;Node5</title>
<path fill="none" stroke="midnightblue" d="M239.66,-112.4C246.14,-103.84 254.43,-92.87 261.25,-83.86"/>
<polygon fill="midnightblue" stroke="midnightblue" points="264.21,-85.74 267.45,-75.66 258.63,-81.52 264.21,-85.74"/>
</g>
<!-- Node5&#45;&gt;Node4 -->
<g id="edge6" class="edge">
<title>Node5&#45;&gt;Node4</title>
<path fill="none" stroke="midnightblue" d="M241.68,-56.44C206.61,-47.16 150.5,-32.31 112.04,-22.13"/>
<polygon fill="midnightblue" stroke="midnightblue" points="112.74,-18.69 102.17,-19.52 110.94,-25.46 112.74,-18.69"/>
</g>
<!-- Node6 -->
<g id="node6" class="node">
<title>Node6</title>
<g id="a_node6"><a xlink:title=" ">
<polygon fill="white" stroke="#bfbfbf" points="158,-0.5 158,-19.5 286,-19.5 286,-0.5 158,-0.5"/>
<text text-anchor="middle" x="222" y="-7.5" font-family="Helvetica" font-size="10.00">boost/asio/ip/address.hpp</text>
</a>
</g>
</g>
<!-- Node5&#45;&gt;Node6 -->
<g id="edge5" class="edge">
<title>Node5&#45;&gt;Node6</title>
<path fill="none" stroke="midnightblue" d="M265.41,-56.08C257.84,-48.22 246.62,-36.57 237.49,-27.08"/>
<polygon fill="midnightblue" stroke="midnightblue" points="239.88,-24.53 230.43,-19.75 234.84,-29.38 239.88,-24.53"/>
</g>
<!-- Node5&#45;&gt;Node7 -->
<g id="edge7" class="edge">
<title>Node5&#45;&gt;Node7</title>
<path fill="none" stroke="midnightblue" d="M297.93,-56.44C323.22,-47.4 363.3,-33.06 391.68,-22.92"/>
<polygon fill="midnightblue" stroke="midnightblue" points="392.95,-26.18 401.19,-19.52 390.59,-19.59 392.95,-26.18"/>
</g>
<!-- Node8 -->
<g id="node8" class="node">
<title>Node8</title>
<g id="a_node8"><a xlink:title=" ">
<polygon fill="white" stroke="#bfbfbf" points="304.5,-0.5 304.5,-19.5 347.5,-19.5 347.5,-0.5 304.5,-0.5"/>
<text text-anchor="middle" x="326" y="-7.5" font-family="Helvetica" font-size="10.00">vector</text>
</a>
</g>
</g>
<!-- Node5&#45;&gt;Node8 -->
<g id="edge8" class="edge">
<title>Node5&#45;&gt;Node8</title>
<path fill="none" stroke="midnightblue" d="M282.59,-56.08C290.16,-48.22 301.38,-36.57 310.51,-27.08"/>
<polygon fill="midnightblue" stroke="midnightblue" points="313.16,-29.38 317.57,-19.75 308.12,-24.53 313.16,-29.38"/>
</g>
<!-- Node10 -->
<g id="node10" class="node">
<title>Node10</title>
<g id="a_node10"><a xlink:title=" ">
<polygon fill="white" stroke="#bfbfbf" points="392,-56.5 392,-75.5 438,-75.5 438,-56.5 392,-56.5"/>
<text text-anchor="middle" x="415" y="-63.5" font-family="Helvetica" font-size="10.00">chrono</text>
</a>
</g>
</g>
<!-- Node9&#45;&gt;Node10 -->
<g id="edge11" class="edge">
<title>Node9&#45;&gt;Node10</title>
<path fill="none" stroke="midnightblue" d="M552.08,-117.98C524.63,-107.77 478.48,-90.61 447.4,-79.05"/>
<polygon fill="midnightblue" stroke="midnightblue" points="448.47,-75.71 437.88,-75.51 446.03,-82.28 448.47,-75.71"/>
</g>
<!-- Node11 -->
<g id="node11" class="node">
<title>Node11</title>
<g id="a_node11"><a xlink:title=" ">
<polygon fill="white" stroke="#bfbfbf" points="456,-56.5 456,-75.5 502,-75.5 502,-56.5 456,-56.5"/>
<text text-anchor="middle" x="479" y="-63.5" font-family="Helvetica" font-size="10.00">cstdint</text>
</a>
</g>
</g>
<!-- Node9&#45;&gt;Node11 -->
<g id="edge12" class="edge">
<title>Node9&#45;&gt;Node11</title>
<path fill="none" stroke="midnightblue" d="M561.25,-117.98C545.63,-108.3 519.94,-92.37 501.42,-80.89"/>
<polygon fill="midnightblue" stroke="midnightblue" points="503.07,-77.8 492.73,-75.51 499.38,-83.75 503.07,-77.8"/>
</g>
<!-- Node12 -->
<g id="node12" class="node">
<title>Node12</title>
<g id="a_node12"><a xlink:title=" ">
<polygon fill="white" stroke="#bfbfbf" points="520,-56.5 520,-75.5 564,-75.5 564,-56.5 520,-56.5"/>
<text text-anchor="middle" x="542" y="-63.5" font-family="Helvetica" font-size="10.00">mutex</text>
</a>
</g>
</g>
<!-- Node9&#45;&gt;Node12 -->
<g id="edge13" class="edge">
<title>Node9&#45;&gt;Node12</title>
<path fill="none" stroke="midnightblue" d="M570.27,-117.98C565.42,-109.23 557.73,-95.37 551.6,-84.31"/>
<polygon fill="midnightblue" stroke="midnightblue" points="554.63,-82.56 546.72,-75.51 548.51,-85.95 554.63,-82.56"/>
</g>
<!-- Node13 -->
<g id="node13" class="node">
<title>Node13</title>
<g id="a_node13"><a xlink:title=" ">
<polygon fill="white" stroke="#bfbfbf" points="582,-56.5 582,-75.5 634,-75.5 634,-56.5 582,-56.5"/>
<text text-anchor="middle" x="608" y="-63.5" font-family="Helvetica" font-size="10.00">ostream</text>
</a>
</g>
</g>
<!-- Node9&#45;&gt;Node13 -->
<g id="edge14" class="edge">
<title>Node9&#45;&gt;Node13</title>
<path fill="none" stroke="midnightblue" d="M579.73,-117.98C584.58,-109.23 592.27,-95.37 598.4,-84.31"/>
<polygon fill="midnightblue" stroke="midnightblue" points="601.49,-85.95 603.28,-75.51 595.37,-82.56 601.49,-85.95"/>
</g>
<!-- Node14 -->
<g id="node14" class="node">
<title>Node14</title>
<g id="a_node14"><a xlink:title=" ">
<polygon fill="white" stroke="#bfbfbf" points="652,-56.5 652,-75.5 704,-75.5 704,-56.5 652,-56.5"/>
<text text-anchor="middle" x="678" y="-63.5" font-family="Helvetica" font-size="10.00">sstream</text>
</a>
</g>
</g>
<!-- Node9&#45;&gt;Node14 -->
<g id="edge15" class="edge">
<title>Node9&#45;&gt;Node14</title>
<path fill="none" stroke="midnightblue" d="M589.76,-117.98C606.66,-108.21 634.58,-92.08 654.49,-80.58"/>
<polygon fill="midnightblue" stroke="midnightblue" points="656.36,-83.54 663.27,-75.51 652.86,-77.48 656.36,-83.54"/>
</g>
<!-- Node15 -->
<g id="node15" class="node">
<title>Node15</title>
<g id="a_node15"><a xlink:title=" ">
<polygon fill="white" stroke="#bfbfbf" points="722,-56.5 722,-75.5 782,-75.5 782,-56.5 722,-56.5"/>
<text text-anchor="middle" x="752" y="-63.5" font-family="Helvetica" font-size="10.00">streambuf</text>
</a>
</g>
</g>
<!-- Node9&#45;&gt;Node15 -->
<g id="edge16" class="edge">
<title>Node9&#45;&gt;Node15</title>
<path fill="none" stroke="midnightblue" d="M600.36,-117.98C630.98,-107.68 682.66,-90.31 717.05,-78.75"/>
<polygon fill="midnightblue" stroke="midnightblue" points="718.32,-82.01 726.69,-75.51 716.09,-75.38 718.32,-82.01"/>
</g>
<!-- Node16 -->
<g id="node16" class="node">
<title>Node16</title>
<g id="a_node16"><a xlink:title=" ">
<polygon fill="white" stroke="#bfbfbf" points="800,-56.5 800,-75.5 902,-75.5 902,-56.5 800,-56.5"/>
<text text-anchor="middle" x="851" y="-63.5" font-family="Helvetica" font-size="10.00">vsomeip/export.hpp</text>
</a>
</g>
</g>
<!-- Node9&#45;&gt;Node16 -->
<g id="edge17" class="edge">
<title>Node9&#45;&gt;Node16</title>
<path fill="none" stroke="midnightblue" d="M614.54,-117.98C663.83,-107.35 748.09,-89.18 801.59,-77.65"/>
<polygon fill="midnightblue" stroke="midnightblue" points="802.49,-81.04 811.53,-75.51 801.02,-74.2 802.49,-81.04"/>
</g>
</g>
</svg>
