<?xml version="1.0" encoding="UTF-8" standalone="no"?>
<!DOCTYPE svg PUBLIC "-//W3C//DTD SVG 1.1//EN"
 "http://www.w3.org/Graphics/SVG/1.1/DTD/svg11.dtd">
<!-- Generated by graphviz version 2.44.0 (0)
 -->
<!-- Title: /home/ec2&#45;user/workspace/vsomeip/interface/vsomeip/vsomeip_sec.h Pages: 1 -->
<svg width="148pt" height="106pt"
 viewBox="0.00 0.00 147.50 106.00" xmlns="http://www.w3.org/2000/svg" xmlns:xlink="http://www.w3.org/1999/xlink">
<g id="graph0" class="graph" transform="scale(1 1) rotate(0) translate(4 102)">
<title>/home/ec2&#45;user/workspace/vsomeip/interface/vsomeip/vsomeip_sec.h</title>
<polygon fill="white" stroke="transparent" points="-4,4 -4,-102 143.5,-102 143.5,4 -4,4"/>
<!-- Node1 -->
<g id="node1" class="node">
<title>Node1</title>
<g id="a_node1"><a xlink:title=" ">
<polygon fill="#bfbfbf" stroke="black" points="0,-56.5 0,-97.5 137,-97.5 137,-56.5 0,-56.5"/>
<text text-anchor="start" x="8" y="-85.5" font-family="Helvetica" font-size="10.00">/home/ec2&#45;user/workspace</text>
<text text-anchor="start" x="8" y="-74.5" font-family="Helvetica" font-size="10.00">/vsomeip/interface/vsomeip</text>
<text text-anchor="middle" x="68.5" y="-63.5" font-family="Helvetica" font-size="10.00">/vsomeip_sec.h</text>
</a>
</g>
</g>
<!-- Node2 -->
<g id="node2" class="node">
<title>Node2</title>
<g id="a_node2"><a xlink:title=" ">
<polygon fill="white" stroke="#bfbfbf" points="7.5,-0.5 7.5,-19.5 55.5,-19.5 55.5,-0.5 7.5,-0.5"/>
<text text-anchor="middle" x="31.5" y="-7.5" font-family="Helvetica" font-size="10.00">stdint.h</text>
</a>
</g>
</g>
<!-- Node1&#45;&gt;Node2 -->
<g id="edge1" class="edge">
<title>Node1&#45;&gt;Node2</title>
<path fill="none" stroke="midnightblue" d="M57.4,-56.5C52.33,-47.59 46.36,-37.11 41.44,-28.46"/>
<polygon fill="midnightblue" stroke="midnightblue" points="44.41,-26.61 36.43,-19.65 38.33,-30.07 44.41,-26.61"/>
</g>
<!-- Node3 -->
<g id="node3" class="node">
<title>Node3</title>
<g id="a_node3"><a xlink:title=" ">
<polygon fill="white" stroke="#bfbfbf" points="73.5,-0.5 73.5,-19.5 139.5,-19.5 139.5,-0.5 73.5,-0.5"/>
<text text-anchor="middle" x="106.5" y="-7.5" font-family="Helvetica" font-size="10.00">sys/types.h</text>
</a>
</g>
</g>
<!-- Node1&#45;&gt;Node3 -->
<g id="edge2" class="edge">
<title>Node1&#45;&gt;Node3</title>
<path fill="none" stroke="midnightblue" d="M79.9,-56.5C85.11,-47.59 91.23,-37.11 96.29,-28.46"/>
<polygon fill="midnightblue" stroke="midnightblue" points="99.42,-30.05 101.44,-19.65 93.37,-26.52 99.42,-30.05"/>
</g>
</g>
</svg>
