<?xml version="1.0" encoding="UTF-8" standalone="no"?>
<!DOCTYPE svg PUBLIC "-//W3C//DTD SVG 1.1//EN"
 "http://www.w3.org/Graphics/SVG/1.1/DTD/svg11.dtd">
<!-- Generated by graphviz version 2.44.0 (0)
 -->
<!-- Title: /home/ec2&#45;user/workspace/vsomeip/interface/vsomeip/application.hpp Pages: 1 -->
<svg width="1190pt" height="173pt"
 viewBox="0.00 0.00 1189.91 173.00" xmlns="http://www.w3.org/2000/svg" xmlns:xlink="http://www.w3.org/1999/xlink">
<g id="graph0" class="graph" transform="scale(1 1) rotate(0) translate(4 169)">
<title>/home/ec2&#45;user/workspace/vsomeip/interface/vsomeip/application.hpp</title>
<polygon fill="white" stroke="transparent" points="-4,4 -4,-169 1185.91,-169 1185.91,4 -4,4"/>
<!-- Node1 -->
<g id="node1" class="node">
<title>Node1</title>
<g id="a_node1"><a xlink:title=" ">
<polygon fill="#bfbfbf" stroke="black" points="382.91,-123.5 382.91,-164.5 519.91,-164.5 519.91,-123.5 382.91,-123.5"/>
<text text-anchor="start" x="390.91" y="-152.5" font-family="Helvetica" font-size="10.00">/home/ec2&#45;user/workspace</text>
<text text-anchor="start" x="390.91" y="-141.5" font-family="Helvetica" font-size="10.00">/vsomeip/interface/vsomeip</text>
<text text-anchor="middle" x="451.41" y="-130.5" font-family="Helvetica" font-size="10.00">/application.hpp</text>
</a>
</g>
</g>
<!-- Node2 -->
<g id="node2" class="node">
<title>Node2</title>
<g id="a_node2"><a xlink:title=" ">
<polygon fill="white" stroke="#bfbfbf" points="98.41,-0.5 98.41,-19.5 144.41,-19.5 144.41,-0.5 98.41,-0.5"/>
<text text-anchor="middle" x="121.41" y="-7.5" font-family="Helvetica" font-size="10.00">chrono</text>
</a>
</g>
</g>
<!-- Node1&#45;&gt;Node2 -->
<g id="edge1" class="edge">
<title>Node1&#45;&gt;Node2</title>
<path fill="none" stroke="midnightblue" d="M382.81,-139.28C264.15,-132.15 30.88,-114.74 6.41,-87 -2.7,-76.67 -1.35,-67.38 6.41,-56 24.55,-29.42 60.95,-18.54 87.96,-14.09"/>
<polygon fill="midnightblue" stroke="midnightblue" points="88.75,-17.51 98.16,-12.63 87.76,-10.58 88.75,-17.51"/>
</g>
<!-- Node3 -->
<g id="node3" class="node">
<title>Node3</title>
<g id="a_node3"><a xlink:title=" ">
<polygon fill="white" stroke="#bfbfbf" points="15.91,-62 15.91,-81 68.91,-81 68.91,-62 15.91,-62"/>
<text text-anchor="middle" x="42.41" y="-69" font-family="Helvetica" font-size="10.00">memory</text>
</a>
</g>
</g>
<!-- Node1&#45;&gt;Node3 -->
<g id="edge2" class="edge">
<title>Node1&#45;&gt;Node3</title>
<path fill="none" stroke="midnightblue" d="M382.7,-137.54C307.1,-130.41 182.5,-115.36 78.41,-87 75.91,-86.32 73.35,-85.51 70.8,-84.64"/>
<polygon fill="midnightblue" stroke="midnightblue" points="71.78,-81.27 61.19,-81.02 69.31,-87.82 71.78,-81.27"/>
</g>
<!-- Node4 -->
<g id="node4" class="node">
<title>Node4</title>
<g id="a_node4"><a xlink:title=" ">
<polygon fill="white" stroke="#bfbfbf" points="87.41,-62 87.41,-81 117.41,-81 117.41,-62 87.41,-62"/>
<text text-anchor="middle" x="102.41" y="-69" font-family="Helvetica" font-size="10.00">set</text>
</a>
</g>
</g>
<!-- Node1&#45;&gt;Node4 -->
<g id="edge3" class="edge">
<title>Node1&#45;&gt;Node4</title>
<path fill="none" stroke="midnightblue" d="M382.9,-138.62C315.76,-132.63 211.44,-118.72 126.41,-87 125.54,-86.67 124.65,-86.31 123.78,-85.93"/>
<polygon fill="midnightblue" stroke="midnightblue" points="125.15,-82.69 114.67,-81.1 121.87,-88.88 125.15,-82.69"/>
</g>
<!-- Node5 -->
<g id="node5" class="node">
<title>Node5</title>
<g id="a_node5"><a xlink:title=" ">
<polygon fill="white" stroke="#bfbfbf" points="231.91,-0.5 231.91,-19.5 266.91,-19.5 266.91,-0.5 231.91,-0.5"/>
<text text-anchor="middle" x="249.41" y="-7.5" font-family="Helvetica" font-size="10.00">map</text>
</a>
</g>
</g>
<!-- Node1&#45;&gt;Node5 -->
<g id="edge4" class="edge">
<title>Node1&#45;&gt;Node5</title>
<path fill="none" stroke="midnightblue" d="M520.02,-142.78C622.51,-140.22 797.09,-125.87 733.41,-56 702.53,-22.11 375.19,-13.33 277.07,-11.45"/>
<polygon fill="midnightblue" stroke="midnightblue" points="277.09,-7.95 267.02,-11.27 276.96,-14.95 277.09,-7.95"/>
</g>
<!-- Node6 -->
<g id="node6" class="node">
<title>Node6</title>
<g id="a_node6"><a xlink:title=" ">
<polygon fill="white" stroke="#bfbfbf" points="253.91,-62 253.91,-81 296.91,-81 296.91,-62 253.91,-62"/>
<text text-anchor="middle" x="275.41" y="-69" font-family="Helvetica" font-size="10.00">vector</text>
</a>
</g>
</g>
<!-- Node1&#45;&gt;Node6 -->
<g id="edge5" class="edge">
<title>Node1&#45;&gt;Node6</title>
<path fill="none" stroke="midnightblue" d="M398.03,-123.39C370.49,-113.02 336.45,-99.81 306.41,-87 305.22,-86.49 303.99,-85.96 302.76,-85.42"/>
<polygon fill="midnightblue" stroke="midnightblue" points="303.9,-82.09 293.35,-81.15 301.01,-88.47 303.9,-82.09"/>
</g>
<!-- Node7 -->
<g id="node7" class="node">
<title>Node7</title>
<g id="a_node7"><a xlink:href="deprecated_8hpp.html" target="_top" xlink:title=" ">
<polygon fill="white" stroke="black" points="314.91,-62 314.91,-81 437.91,-81 437.91,-62 314.91,-62"/>
<text text-anchor="middle" x="376.41" y="-69" font-family="Helvetica" font-size="10.00">vsomeip/deprecated.hpp</text>
</a>
</g>
</g>
<!-- Node1&#45;&gt;Node7 -->
<g id="edge6" class="edge">
<title>Node1&#45;&gt;Node7</title>
<path fill="none" stroke="midnightblue" d="M430.52,-123.36C418.66,-112.21 404.03,-98.46 392.97,-88.06"/>
<polygon fill="midnightblue" stroke="midnightblue" points="395.33,-85.47 385.64,-81.17 390.53,-90.57 395.33,-85.47"/>
</g>
<!-- Node8 -->
<g id="node8" class="node">
<title>Node8</title>
<g id="a_node8"><a xlink:title=" ">
<polygon fill="white" stroke="#bfbfbf" points="456.41,-62 456.41,-81 596.41,-81 596.41,-62 456.41,-62"/>
<text text-anchor="middle" x="526.41" y="-69" font-family="Helvetica" font-size="10.00">vsomeip/primitive_types.hpp</text>
</a>
</g>
</g>
<!-- Node1&#45;&gt;Node8 -->
<g id="edge7" class="edge">
<title>Node1&#45;&gt;Node8</title>
<path fill="none" stroke="midnightblue" d="M472.31,-123.36C484.16,-112.21 498.8,-98.46 509.86,-88.06"/>
<polygon fill="midnightblue" stroke="midnightblue" points="512.3,-90.57 517.19,-81.17 507.5,-85.47 512.3,-90.57"/>
</g>
<!-- Node9 -->
<g id="node9" class="node">
<title>Node9</title>
<g id="a_node9"><a xlink:title=" ">
<polygon fill="white" stroke="#bfbfbf" points="614.41,-56.5 614.41,-86.5 724.41,-86.5 724.41,-56.5 614.41,-56.5"/>
<text text-anchor="start" x="622.41" y="-74.5" font-family="Helvetica" font-size="10.00">vsomeip/enumeration</text>
<text text-anchor="middle" x="669.41" y="-63.5" font-family="Helvetica" font-size="10.00">_types.hpp</text>
</a>
</g>
</g>
<!-- Node1&#45;&gt;Node9 -->
<g id="edge8" class="edge">
<title>Node1&#45;&gt;Node9</title>
<path fill="none" stroke="midnightblue" d="M511.85,-123.46C544.48,-112.9 584.42,-99.99 615.91,-89.8"/>
<polygon fill="midnightblue" stroke="midnightblue" points="617.39,-93 625.82,-86.6 615.23,-86.34 617.39,-93"/>
</g>
<!-- Node10 -->
<g id="node10" class="node">
<title>Node10</title>
<g id="a_node10"><a xlink:href="structured__types_8hpp.html" target="_top" xlink:title=" ">
<polygon fill="white" stroke="black" points="135.41,-56.5 135.41,-86.5 235.41,-86.5 235.41,-56.5 135.41,-56.5"/>
<text text-anchor="start" x="143.41" y="-74.5" font-family="Helvetica" font-size="10.00">vsomeip/structured</text>
<text text-anchor="middle" x="185.41" y="-63.5" font-family="Helvetica" font-size="10.00">_types.hpp</text>
</a>
</g>
</g>
<!-- Node1&#45;&gt;Node10 -->
<g id="edge9" class="edge">
<title>Node1&#45;&gt;Node10</title>
<path fill="none" stroke="midnightblue" d="M382.91,-124.84C340.39,-113.58 286.27,-99.23 245.44,-88.41"/>
<polygon fill="midnightblue" stroke="midnightblue" points="246.18,-84.99 235.62,-85.81 244.39,-91.75 246.18,-84.99"/>
</g>
<!-- Node11 -->
<g id="node11" class="node">
<title>Node11</title>
<g id="a_node11"><a xlink:title=" ">
<polygon fill="white" stroke="#bfbfbf" points="780.91,-62 780.91,-81 919.91,-81 919.91,-62 780.91,-62"/>
<text text-anchor="middle" x="850.41" y="-69" font-family="Helvetica" font-size="10.00">vsomeip/function_types.hpp</text>
</a>
</g>
</g>
<!-- Node1&#45;&gt;Node11 -->
<g id="edge12" class="edge">
<title>Node1&#45;&gt;Node11</title>
<path fill="none" stroke="midnightblue" d="M520.01,-130.88C596.83,-117.31 720.02,-95.54 792.29,-82.77"/>
<polygon fill="midnightblue" stroke="midnightblue" points="792.9,-86.22 802.14,-81.03 791.68,-79.32 792.9,-86.22"/>
</g>
<!-- Node12 -->
<g id="node12" class="node">
<title>Node12</title>
<g id="a_node12"><a xlink:title=" ">
<polygon fill="white" stroke="#bfbfbf" points="938.41,-62 938.41,-81 1056.41,-81 1056.41,-62 938.41,-62"/>
<text text-anchor="middle" x="997.41" y="-69" font-family="Helvetica" font-size="10.00">vsomeip/constants.hpp</text>
</a>
</g>
</g>
<!-- Node1&#45;&gt;Node12 -->
<g id="edge13" class="edge">
<title>Node1&#45;&gt;Node12</title>
<path fill="none" stroke="midnightblue" d="M520.17,-136.98C613.29,-128.37 784.52,-110.88 929.41,-87 936.22,-85.88 943.37,-84.54 950.37,-83.13"/>
<polygon fill="midnightblue" stroke="midnightblue" points="951.4,-86.49 960.48,-81.03 949.97,-79.64 951.4,-86.49"/>
</g>
<!-- Node13 -->
<g id="node13" class="node">
<title>Node13</title>
<g id="a_node13"><a xlink:title=" ">
<polygon fill="white" stroke="#bfbfbf" points="1074.91,-62 1074.91,-81 1181.91,-81 1181.91,-62 1074.91,-62"/>
<text text-anchor="middle" x="1128.41" y="-69" font-family="Helvetica" font-size="10.00">vsomeip/handler.hpp</text>
</a>
</g>
</g>
<!-- Node1&#45;&gt;Node13 -->
<g id="edge14" class="edge">
<title>Node1&#45;&gt;Node13</title>
<path fill="none" stroke="midnightblue" d="M519.93,-139.78C633.78,-133.76 868.82,-118.44 1065.41,-87 1071.81,-85.98 1078.53,-84.68 1085.1,-83.28"/>
<polygon fill="midnightblue" stroke="midnightblue" points="1086.23,-86.61 1095.23,-81.02 1084.71,-79.78 1086.23,-86.61"/>
</g>
<!-- Node10&#45;&gt;Node2 -->
<g id="edge10" class="edge">
<title>Node10&#45;&gt;Node2</title>
<path fill="none" stroke="midnightblue" d="M170.25,-56.4C160.66,-47.49 148.25,-35.95 138.35,-26.74"/>
<polygon fill="midnightblue" stroke="midnightblue" points="140.43,-23.9 130.73,-19.66 135.67,-29.03 140.43,-23.9"/>
</g>
<!-- Node10&#45;&gt;Node5 -->
<g id="edge11" class="edge">
<title>Node10&#45;&gt;Node5</title>
<path fill="none" stroke="midnightblue" d="M200.58,-56.4C210.17,-47.49 222.58,-35.95 232.48,-26.74"/>
<polygon fill="midnightblue" stroke="midnightblue" points="235.16,-29.03 240.1,-19.66 230.39,-23.9 235.16,-29.03"/>
</g>
</g>
</svg>
