<?xml version="1.0" encoding="UTF-8" standalone="no"?>
<!DOCTYPE svg PUBLIC "-//W3C//DTD SVG 1.1//EN"
 "http://www.w3.org/Graphics/SVG/1.1/DTD/svg11.dtd">
<!-- Generated by graphviz version 2.44.0 (0)
 -->
<!-- Title: /home/ec2&#45;user/workspace/vsomeip/interface/vsomeip/payload.hpp Pages: 1 -->
<svg width="694pt" height="106pt"
 viewBox="0.00 0.00 693.50 106.00" xmlns="http://www.w3.org/2000/svg" xmlns:xlink="http://www.w3.org/1999/xlink">
<g id="graph0" class="graph" transform="scale(1 1) rotate(0) translate(4 102)">
<title>/home/ec2&#45;user/workspace/vsomeip/interface/vsomeip/payload.hpp</title>
<polygon fill="white" stroke="transparent" points="-4,4 -4,-102 689.5,-102 689.5,4 -4,4"/>
<!-- Node1 -->
<g id="node1" class="node">
<title>Node1</title>
<g id="a_node1"><a xlink:title=" ">
<polygon fill="#bfbfbf" stroke="black" points="183,-56.5 183,-97.5 320,-97.5 320,-56.5 183,-56.5"/>
<text text-anchor="start" x="191" y="-85.5" font-family="Helvetica" font-size="10.00">/home/ec2&#45;user/workspace</text>
<text text-anchor="start" x="191" y="-74.5" font-family="Helvetica" font-size="10.00">/vsomeip/interface/vsomeip</text>
<text text-anchor="middle" x="251.5" y="-63.5" font-family="Helvetica" font-size="10.00">/payload.hpp</text>
</a>
</g>
</g>
<!-- Node2 -->
<g id="node2" class="node">
<title>Node2</title>
<g id="a_node2"><a xlink:title=" ">
<polygon fill="white" stroke="#bfbfbf" points="0,-0.5 0,-19.5 43,-19.5 43,-0.5 0,-0.5"/>
<text text-anchor="middle" x="21.5" y="-7.5" font-family="Helvetica" font-size="10.00">vector</text>
</a>
</g>
</g>
<!-- Node1&#45;&gt;Node2 -->
<g id="edge1" class="edge">
<title>Node1&#45;&gt;Node2</title>
<path fill="none" stroke="midnightblue" d="M182.85,-56.83C146.88,-46.75 101.85,-34.08 52.99,-20.12"/>
<polygon fill="midnightblue" stroke="midnightblue" points="53.75,-16.7 43.17,-17.32 51.83,-23.43 53.75,-16.7"/>
</g>
<!-- Node3 -->
<g id="node3" class="node">
<title>Node3</title>
<g id="a_node3"><a xlink:title=" ">
<polygon fill="white" stroke="#bfbfbf" points="61.5,-0.5 61.5,-19.5 163.5,-19.5 163.5,-0.5 61.5,-0.5"/>
<text text-anchor="middle" x="112.5" y="-7.5" font-family="Helvetica" font-size="10.00">vsomeip/export.hpp</text>
</a>
</g>
</g>
<!-- Node1&#45;&gt;Node3 -->
<g id="edge2" class="edge">
<title>Node1&#45;&gt;Node3</title>
<path fill="none" stroke="midnightblue" d="M209.8,-56.5C187.25,-45.96 160.04,-33.23 140.14,-23.92"/>
<polygon fill="midnightblue" stroke="midnightblue" points="141.54,-20.72 131,-19.65 138.58,-27.06 141.54,-20.72"/>
</g>
<!-- Node4 -->
<g id="node4" class="node">
<title>Node4</title>
<g id="a_node4"><a xlink:title=" ">
<polygon fill="white" stroke="#bfbfbf" points="181.5,-0.5 181.5,-19.5 321.5,-19.5 321.5,-0.5 181.5,-0.5"/>
<text text-anchor="middle" x="251.5" y="-7.5" font-family="Helvetica" font-size="10.00">vsomeip/primitive_types.hpp</text>
</a>
</g>
</g>
<!-- Node1&#45;&gt;Node4 -->
<g id="edge3" class="edge">
<title>Node1&#45;&gt;Node4</title>
<path fill="none" stroke="midnightblue" d="M251.5,-56.5C251.5,-48.07 251.5,-38.24 251.5,-29.87"/>
<polygon fill="midnightblue" stroke="midnightblue" points="255,-29.65 251.5,-19.65 248,-29.65 255,-29.65"/>
</g>
<!-- Node5 -->
<g id="node5" class="node">
<title>Node5</title>
<g id="a_node5"><a xlink:title=" ">
<polygon fill="white" stroke="#bfbfbf" points="340,-0.5 340,-19.5 509,-19.5 509,-0.5 340,-0.5"/>
<text text-anchor="middle" x="424.5" y="-7.5" font-family="Helvetica" font-size="10.00">vsomeip/internal/deserializable.hpp</text>
</a>
</g>
</g>
<!-- Node1&#45;&gt;Node5 -->
<g id="edge4" class="edge">
<title>Node1&#45;&gt;Node5</title>
<path fill="none" stroke="midnightblue" d="M303.41,-56.5C332.1,-45.72 366.87,-32.65 391.78,-23.29"/>
<polygon fill="midnightblue" stroke="midnightblue" points="393.34,-26.45 401.47,-19.65 390.88,-19.89 393.34,-26.45"/>
</g>
<!-- Node6 -->
<g id="node6" class="node">
<title>Node6</title>
<g id="a_node6"><a xlink:title=" ">
<polygon fill="white" stroke="#bfbfbf" points="527.5,-0.5 527.5,-19.5 685.5,-19.5 685.5,-0.5 527.5,-0.5"/>
<text text-anchor="middle" x="606.5" y="-7.5" font-family="Helvetica" font-size="10.00">vsomeip/internal/serializable.hpp</text>
</a>
</g>
</g>
<!-- Node1&#45;&gt;Node6 -->
<g id="edge5" class="edge">
<title>Node1&#45;&gt;Node6</title>
<path fill="none" stroke="midnightblue" d="M320.37,-63.39C387.22,-51.15 487.47,-32.79 549.84,-21.38"/>
<polygon fill="midnightblue" stroke="midnightblue" points="550.68,-24.78 559.89,-19.53 549.42,-17.89 550.68,-24.78"/>
</g>
</g>
</svg>
