<?xml version="1.0" encoding="UTF-8" standalone="no"?>
<!DOCTYPE svg PUBLIC "-//W3C//DTD SVG 1.1//EN"
 "http://www.w3.org/Graphics/SVG/1.1/DTD/svg11.dtd">
<!-- Generated by graphviz version 2.44.0 (0)
 -->
<!-- Title: /home/ec2&#45;user/workspace/vsomeip/interface/vsomeip/message.hpp Pages: 1 -->
<svg width="511pt" height="162pt"
 viewBox="0.00 0.00 510.50 162.00" xmlns="http://www.w3.org/2000/svg" xmlns:xlink="http://www.w3.org/1999/xlink">
<g id="graph0" class="graph" transform="scale(1 1) rotate(0) translate(4 158)">
<title>/home/ec2&#45;user/workspace/vsomeip/interface/vsomeip/message.hpp</title>
<polygon fill="white" stroke="transparent" points="-4,4 -4,-158 506.5,-158 506.5,4 -4,4"/>
<!-- Node1 -->
<g id="node1" class="node">
<title>Node1</title>
<g id="a_node1"><a xlink:title=" ">
<polygon fill="#bfbfbf" stroke="black" points="139,-112.5 139,-153.5 276,-153.5 276,-112.5 139,-112.5"/>
<text text-anchor="start" x="147" y="-141.5" font-family="Helvetica" font-size="10.00">/home/ec2&#45;user/workspace</text>
<text text-anchor="start" x="147" y="-130.5" font-family="Helvetica" font-size="10.00">/vsomeip/interface/vsomeip</text>
<text text-anchor="middle" x="207.5" y="-119.5" font-family="Helvetica" font-size="10.00">/message.hpp</text>
</a>
</g>
</g>
<!-- Node2 -->
<g id="node2" class="node">
<title>Node2</title>
<g id="a_node2"><a xlink:title=" ">
<polygon fill="white" stroke="#bfbfbf" points="0,-56.5 0,-75.5 53,-75.5 53,-56.5 0,-56.5"/>
<text text-anchor="middle" x="26.5" y="-63.5" font-family="Helvetica" font-size="10.00">memory</text>
</a>
</g>
</g>
<!-- Node1&#45;&gt;Node2 -->
<g id="edge1" class="edge">
<title>Node1&#45;&gt;Node2</title>
<path fill="none" stroke="midnightblue" d="M153.19,-112.5C122.91,-101.62 86.15,-88.42 60.04,-79.05"/>
<polygon fill="midnightblue" stroke="midnightblue" points="61.19,-75.74 50.59,-75.65 58.82,-82.33 61.19,-75.74"/>
</g>
<!-- Node3 -->
<g id="node3" class="node">
<title>Node3</title>
<g id="a_node3"><a xlink:href="deprecated_8hpp.html" target="_top" xlink:title=" ">
<polygon fill="white" stroke="black" points="71,-56.5 71,-75.5 194,-75.5 194,-56.5 71,-56.5"/>
<text text-anchor="middle" x="132.5" y="-63.5" font-family="Helvetica" font-size="10.00">vsomeip/deprecated.hpp</text>
</a>
</g>
</g>
<!-- Node1&#45;&gt;Node3 -->
<g id="edge2" class="edge">
<title>Node1&#45;&gt;Node3</title>
<path fill="none" stroke="midnightblue" d="M185,-112.5C173.83,-102.82 160.54,-91.3 150.12,-82.27"/>
<polygon fill="midnightblue" stroke="midnightblue" points="152.33,-79.56 142.48,-75.65 147.75,-84.85 152.33,-79.56"/>
</g>
<!-- Node4 -->
<g id="node4" class="node">
<title>Node4</title>
<g id="a_node4"><a xlink:title=" ">
<polygon fill="white" stroke="#bfbfbf" points="212,-56.5 212,-75.5 353,-75.5 353,-56.5 212,-56.5"/>
<text text-anchor="middle" x="282.5" y="-63.5" font-family="Helvetica" font-size="10.00">vsomeip/message_base.hpp</text>
</a>
</g>
</g>
<!-- Node1&#45;&gt;Node4 -->
<g id="edge3" class="edge">
<title>Node1&#45;&gt;Node4</title>
<path fill="none" stroke="midnightblue" d="M230,-112.5C241.17,-102.82 254.46,-91.3 264.88,-82.27"/>
<polygon fill="midnightblue" stroke="midnightblue" points="267.25,-84.85 272.52,-75.65 262.67,-79.56 267.25,-84.85"/>
</g>
<!-- Node5 -->
<g id="node5" class="node">
<title>Node5</title>
<g id="a_node5"><a xlink:href="vsomeip__sec_8h.html" target="_top" xlink:title=" ">
<polygon fill="white" stroke="black" points="371.5,-56.5 371.5,-75.5 493.5,-75.5 493.5,-56.5 371.5,-56.5"/>
<text text-anchor="middle" x="432.5" y="-63.5" font-family="Helvetica" font-size="10.00">vsomeip/vsomeip_sec.h</text>
</a>
</g>
</g>
<!-- Node1&#45;&gt;Node5 -->
<g id="edge4" class="edge">
<title>Node1&#45;&gt;Node5</title>
<path fill="none" stroke="midnightblue" d="M275.01,-112.5C313.6,-101.35 360.65,-87.76 393.23,-78.35"/>
<polygon fill="midnightblue" stroke="midnightblue" points="394.21,-81.71 402.84,-75.57 392.27,-74.98 394.21,-81.71"/>
</g>
<!-- Node6 -->
<g id="node6" class="node">
<title>Node6</title>
<g id="a_node6"><a xlink:title=" ">
<polygon fill="white" stroke="#bfbfbf" points="370.5,-0.5 370.5,-19.5 418.5,-19.5 418.5,-0.5 370.5,-0.5"/>
<text text-anchor="middle" x="394.5" y="-7.5" font-family="Helvetica" font-size="10.00">stdint.h</text>
</a>
</g>
</g>
<!-- Node5&#45;&gt;Node6 -->
<g id="edge5" class="edge">
<title>Node5&#45;&gt;Node6</title>
<path fill="none" stroke="midnightblue" d="M426.23,-56.08C420.86,-48.46 412.98,-37.26 406.42,-27.94"/>
<polygon fill="midnightblue" stroke="midnightblue" points="409.28,-25.91 400.66,-19.75 403.55,-29.94 409.28,-25.91"/>
</g>
<!-- Node7 -->
<g id="node7" class="node">
<title>Node7</title>
<g id="a_node7"><a xlink:title=" ">
<polygon fill="white" stroke="#bfbfbf" points="436.5,-0.5 436.5,-19.5 502.5,-19.5 502.5,-0.5 436.5,-0.5"/>
<text text-anchor="middle" x="469.5" y="-7.5" font-family="Helvetica" font-size="10.00">sys/types.h</text>
</a>
</g>
</g>
<!-- Node5&#45;&gt;Node7 -->
<g id="edge6" class="edge">
<title>Node5&#45;&gt;Node7</title>
<path fill="none" stroke="midnightblue" d="M438.61,-56.08C443.78,-48.53 451.35,-37.49 457.69,-28.23"/>
<polygon fill="midnightblue" stroke="midnightblue" points="460.74,-29.98 463.5,-19.75 454.96,-26.02 460.74,-29.98"/>
</g>
</g>
</svg>
