<?xml version="1.0" encoding="UTF-8" standalone="no"?>
<!DOCTYPE svg PUBLIC "-//W3C//DTD SVG 1.1//EN"
 "http://www.w3.org/Graphics/SVG/1.1/DTD/svg11.dtd">
<!-- Generated by graphviz version 2.44.0 (0)
 -->
<!-- Title: /home/ec2&#45;user/workspace/vsomeip/interface/vsomeip/vsomeip.hpp Pages: 1 -->
<svg width="893pt" height="106pt"
 viewBox="0.00 0.00 892.50 106.00" xmlns="http://www.w3.org/2000/svg" xmlns:xlink="http://www.w3.org/1999/xlink">
<g id="graph0" class="graph" transform="scale(1 1) rotate(0) translate(4 102)">
<title>/home/ec2&#45;user/workspace/vsomeip/interface/vsomeip/vsomeip.hpp</title>
<polygon fill="white" stroke="transparent" points="-4,4 -4,-102 888.5,-102 888.5,4 -4,4"/>
<!-- Node1 -->
<g id="node1" class="node">
<title>Node1</title>
<g id="a_node1"><a xlink:title=" ">
<polygon fill="#bfbfbf" stroke="black" points="391.5,-56.5 391.5,-97.5 528.5,-97.5 528.5,-56.5 391.5,-56.5"/>
<text text-anchor="start" x="399.5" y="-85.5" font-family="Helvetica" font-size="10.00">/home/ec2&#45;user/workspace</text>
<text text-anchor="start" x="399.5" y="-74.5" font-family="Helvetica" font-size="10.00">/vsomeip/interface/vsomeip</text>
<text text-anchor="middle" x="460" y="-63.5" font-family="Helvetica" font-size="10.00">/vsomeip.hpp</text>
</a>
</g>
</g>
<!-- Node2 -->
<g id="node2" class="node">
<title>Node2</title>
<g id="a_node2"><a xlink:title=" ">
<polygon fill="white" stroke="#bfbfbf" points="0,-0.5 0,-19.5 118,-19.5 118,-0.5 0,-0.5"/>
<text text-anchor="middle" x="59" y="-7.5" font-family="Helvetica" font-size="10.00">vsomeip/constants.hpp</text>
</a>
</g>
</g>
<!-- Node1&#45;&gt;Node2 -->
<g id="edge1" class="edge">
<title>Node1&#45;&gt;Node2</title>
<path fill="none" stroke="midnightblue" d="M391.07,-64.83C315.36,-52.55 194.84,-33.02 121.7,-21.16"/>
<polygon fill="midnightblue" stroke="midnightblue" points="122.14,-17.69 111.7,-19.54 121.01,-24.6 122.14,-17.69"/>
</g>
<!-- Node3 -->
<g id="node3" class="node">
<title>Node3</title>
<g id="a_node3"><a xlink:title=" ">
<polygon fill="white" stroke="#bfbfbf" points="136.5,-0.5 136.5,-19.5 243.5,-19.5 243.5,-0.5 136.5,-0.5"/>
<text text-anchor="middle" x="190" y="-7.5" font-family="Helvetica" font-size="10.00">vsomeip/defines.hpp</text>
</a>
</g>
</g>
<!-- Node1&#45;&gt;Node3 -->
<g id="edge2" class="edge">
<title>Node1&#45;&gt;Node3</title>
<path fill="none" stroke="midnightblue" d="M391.17,-59.43C342.28,-47.66 278.01,-32.19 235.42,-21.93"/>
<polygon fill="midnightblue" stroke="midnightblue" points="236.15,-18.51 225.61,-19.57 234.52,-25.32 236.15,-18.51"/>
</g>
<!-- Node4 -->
<g id="node4" class="node">
<title>Node4</title>
<g id="a_node4"><a xlink:title=" ">
<polygon fill="white" stroke="#bfbfbf" points="262,-0.5 262,-19.5 384,-19.5 384,-0.5 262,-0.5"/>
<text text-anchor="middle" x="323" y="-7.5" font-family="Helvetica" font-size="10.00">vsomeip/application.hpp</text>
</a>
</g>
</g>
<!-- Node1&#45;&gt;Node4 -->
<g id="edge3" class="edge">
<title>Node1&#45;&gt;Node4</title>
<path fill="none" stroke="midnightblue" d="M418.9,-56.5C396.78,-46.01 370.1,-33.35 350.51,-24.05"/>
<polygon fill="midnightblue" stroke="midnightblue" points="351.77,-20.78 341.24,-19.65 348.77,-27.1 351.77,-20.78"/>
</g>
<!-- Node5 -->
<g id="node5" class="node">
<title>Node5</title>
<g id="a_node5"><a xlink:title=" ">
<polygon fill="white" stroke="#bfbfbf" points="402.5,-0.5 402.5,-19.5 517.5,-19.5 517.5,-0.5 402.5,-0.5"/>
<text text-anchor="middle" x="460" y="-7.5" font-family="Helvetica" font-size="10.00">vsomeip/message.hpp</text>
</a>
</g>
</g>
<!-- Node1&#45;&gt;Node5 -->
<g id="edge4" class="edge">
<title>Node1&#45;&gt;Node5</title>
<path fill="none" stroke="midnightblue" d="M460,-56.5C460,-48.07 460,-38.24 460,-29.87"/>
<polygon fill="midnightblue" stroke="midnightblue" points="463.5,-29.65 460,-19.65 456.5,-29.65 463.5,-29.65"/>
</g>
<!-- Node6 -->
<g id="node6" class="node">
<title>Node6</title>
<g id="a_node6"><a xlink:title=" ">
<polygon fill="white" stroke="#bfbfbf" points="535.5,-0.5 535.5,-19.5 644.5,-19.5 644.5,-0.5 535.5,-0.5"/>
<text text-anchor="middle" x="590" y="-7.5" font-family="Helvetica" font-size="10.00">vsomeip/payload.hpp</text>
</a>
</g>
</g>
<!-- Node1&#45;&gt;Node6 -->
<g id="edge5" class="edge">
<title>Node1&#45;&gt;Node6</title>
<path fill="none" stroke="midnightblue" d="M499,-56.5C519.89,-46.05 545.07,-33.46 563.64,-24.18"/>
<polygon fill="midnightblue" stroke="midnightblue" points="565.32,-27.26 572.7,-19.65 562.19,-20.99 565.32,-27.26"/>
</g>
<!-- Node7 -->
<g id="node7" class="node">
<title>Node7</title>
<g id="a_node7"><a xlink:title=" ">
<polygon fill="white" stroke="#bfbfbf" points="662.5,-0.5 662.5,-19.5 769.5,-19.5 769.5,-0.5 662.5,-0.5"/>
<text text-anchor="middle" x="716" y="-7.5" font-family="Helvetica" font-size="10.00">vsomeip/runtime.hpp</text>
</a>
</g>
</g>
<!-- Node1&#45;&gt;Node7 -->
<g id="edge6" class="edge">
<title>Node1&#45;&gt;Node7</title>
<path fill="none" stroke="midnightblue" d="M528.6,-58.58C574.38,-46.96 633.18,-32.03 672.6,-22.02"/>
<polygon fill="midnightblue" stroke="midnightblue" points="673.6,-25.38 682.43,-19.52 671.88,-18.59 673.6,-25.38"/>
</g>
<!-- Node8 -->
<g id="node8" class="node">
<title>Node8</title>
<g id="a_node8"><a xlink:title=" ">
<polygon fill="white" stroke="#bfbfbf" points="787.5,-0.5 787.5,-19.5 884.5,-19.5 884.5,-0.5 787.5,-0.5"/>
<text text-anchor="middle" x="836" y="-7.5" font-family="Helvetica" font-size="10.00">vsomeip/trace.hpp</text>
</a>
</g>
</g>
<!-- Node1&#45;&gt;Node8 -->
<g id="edge7" class="edge">
<title>Node1&#45;&gt;Node8</title>
<path fill="none" stroke="midnightblue" d="M528.53,-64.15C599.75,-51.84 710.03,-32.78 777.36,-21.14"/>
<polygon fill="midnightblue" stroke="midnightblue" points="778.11,-24.56 787.37,-19.41 776.92,-17.66 778.11,-24.56"/>
</g>
</g>
</svg>
