<?xml version="1.0" encoding="UTF-8" standalone="no"?>
<!DOCTYPE svg PUBLIC "-//W3C//DTD SVG 1.1//EN"
 "http://www.w3.org/Graphics/SVG/1.1/DTD/svg11.dtd">
<!-- Generated by graphviz version 2.44.0 (0)
 -->
<!-- Title: /home/ec2&#45;user/workspace/vsomeip/interface/vsomeip/handler.hpp Pages: 1 -->
<svg width="644pt" height="162pt"
 viewBox="0.00 0.00 643.50 162.00" xmlns="http://www.w3.org/2000/svg" xmlns:xlink="http://www.w3.org/1999/xlink">
<g id="graph0" class="graph" transform="scale(1 1) rotate(0) translate(4 158)">
<title>/home/ec2&#45;user/workspace/vsomeip/interface/vsomeip/handler.hpp</title>
<polygon fill="white" stroke="transparent" points="-4,4 -4,-158 639.5,-158 639.5,4 -4,4"/>
<!-- Node1 -->
<g id="node1" class="node">
<title>Node1</title>
<g id="a_node1"><a xlink:title=" ">
<polygon fill="#bfbfbf" stroke="black" points="148,-112.5 148,-153.5 285,-153.5 285,-112.5 148,-112.5"/>
<text text-anchor="start" x="156" y="-141.5" font-family="Helvetica" font-size="10.00">/home/ec2&#45;user/workspace</text>
<text text-anchor="start" x="156" y="-130.5" font-family="Helvetica" font-size="10.00">/vsomeip/interface/vsomeip</text>
<text text-anchor="middle" x="216.5" y="-119.5" font-family="Helvetica" font-size="10.00">/handler.hpp</text>
</a>
</g>
</g>
<!-- Node2 -->
<g id="node2" class="node">
<title>Node2</title>
<g id="a_node2"><a xlink:title=" ">
<polygon fill="white" stroke="#bfbfbf" points="0,-56.5 0,-75.5 59,-75.5 59,-56.5 0,-56.5"/>
<text text-anchor="middle" x="29.5" y="-63.5" font-family="Helvetica" font-size="10.00">functional</text>
</a>
</g>
</g>
<!-- Node1&#45;&gt;Node2 -->
<g id="edge1" class="edge">
<title>Node1&#45;&gt;Node2</title>
<path fill="none" stroke="midnightblue" d="M160.39,-112.5C129.1,-101.62 91.13,-88.42 64.15,-79.05"/>
<polygon fill="midnightblue" stroke="midnightblue" points="64.99,-75.63 54.39,-75.65 62.69,-82.24 64.99,-75.63"/>
</g>
<!-- Node3 -->
<g id="node3" class="node">
<title>Node3</title>
<g id="a_node3"><a xlink:title=" ">
<polygon fill="white" stroke="#bfbfbf" points="77,-56.5 77,-75.5 130,-75.5 130,-56.5 77,-56.5"/>
<text text-anchor="middle" x="103.5" y="-63.5" font-family="Helvetica" font-size="10.00">memory</text>
</a>
</g>
</g>
<!-- Node1&#45;&gt;Node3 -->
<g id="edge2" class="edge">
<title>Node1&#45;&gt;Node3</title>
<path fill="none" stroke="midnightblue" d="M182.6,-112.5C164.77,-102.24 143.35,-89.93 127.3,-80.69"/>
<polygon fill="midnightblue" stroke="midnightblue" points="128.96,-77.6 118.54,-75.65 125.47,-83.67 128.96,-77.6"/>
</g>
<!-- Node4 -->
<g id="node4" class="node">
<title>Node4</title>
<g id="a_node4"><a xlink:title=" ">
<polygon fill="white" stroke="#bfbfbf" points="148.5,-56.5 148.5,-75.5 186.5,-75.5 186.5,-56.5 148.5,-56.5"/>
<text text-anchor="middle" x="167.5" y="-63.5" font-family="Helvetica" font-size="10.00">tuple</text>
</a>
</g>
</g>
<!-- Node1&#45;&gt;Node4 -->
<g id="edge3" class="edge">
<title>Node1&#45;&gt;Node4</title>
<path fill="none" stroke="midnightblue" d="M201.8,-112.5C194.94,-103.39 186.85,-92.66 180.25,-83.91"/>
<polygon fill="midnightblue" stroke="midnightblue" points="182.84,-81.53 174.02,-75.65 177.25,-85.74 182.84,-81.53"/>
</g>
<!-- Node5 -->
<g id="node5" class="node">
<title>Node5</title>
<g id="a_node5"><a xlink:href="deprecated_8hpp.html" target="_top" xlink:title=" ">
<polygon fill="white" stroke="black" points="205,-56.5 205,-75.5 328,-75.5 328,-56.5 205,-56.5"/>
<text text-anchor="middle" x="266.5" y="-63.5" font-family="Helvetica" font-size="10.00">vsomeip/deprecated.hpp</text>
</a>
</g>
</g>
<!-- Node1&#45;&gt;Node5 -->
<g id="edge4" class="edge">
<title>Node1&#45;&gt;Node5</title>
<path fill="none" stroke="midnightblue" d="M231.5,-112.5C238.58,-103.3 246.93,-92.44 253.71,-83.63"/>
<polygon fill="midnightblue" stroke="midnightblue" points="256.52,-85.71 259.84,-75.65 250.97,-81.44 256.52,-85.71"/>
</g>
<!-- Node6 -->
<g id="node6" class="node">
<title>Node6</title>
<g id="a_node6"><a xlink:title=" ">
<polygon fill="white" stroke="#bfbfbf" points="346.5,-56.5 346.5,-75.5 486.5,-75.5 486.5,-56.5 346.5,-56.5"/>
<text text-anchor="middle" x="416.5" y="-63.5" font-family="Helvetica" font-size="10.00">vsomeip/primitive_types.hpp</text>
</a>
</g>
</g>
<!-- Node1&#45;&gt;Node6 -->
<g id="edge5" class="edge">
<title>Node1&#45;&gt;Node6</title>
<path fill="none" stroke="midnightblue" d="M276.51,-112.5C310.37,-101.49 351.56,-88.11 380.46,-78.71"/>
<polygon fill="midnightblue" stroke="midnightblue" points="381.71,-81.99 390.14,-75.57 379.55,-75.33 381.71,-81.99"/>
</g>
<!-- Node7 -->
<g id="node7" class="node">
<title>Node7</title>
<g id="a_node7"><a xlink:href="vsomeip__sec_8h.html" target="_top" xlink:title=" ">
<polygon fill="white" stroke="black" points="504.5,-56.5 504.5,-75.5 626.5,-75.5 626.5,-56.5 504.5,-56.5"/>
<text text-anchor="middle" x="565.5" y="-63.5" font-family="Helvetica" font-size="10.00">vsomeip/vsomeip_sec.h</text>
</a>
</g>
</g>
<!-- Node1&#45;&gt;Node7 -->
<g id="edge6" class="edge">
<title>Node1&#45;&gt;Node7</title>
<path fill="none" stroke="midnightblue" d="M285.03,-119.24C350.76,-107 448.75,-88.74 509.8,-77.37"/>
<polygon fill="midnightblue" stroke="midnightblue" points="510.45,-80.81 519.64,-75.54 509.17,-73.93 510.45,-80.81"/>
</g>
<!-- Node8 -->
<g id="node8" class="node">
<title>Node8</title>
<g id="a_node8"><a xlink:title=" ">
<polygon fill="white" stroke="#bfbfbf" points="503.5,-0.5 503.5,-19.5 551.5,-19.5 551.5,-0.5 503.5,-0.5"/>
<text text-anchor="middle" x="527.5" y="-7.5" font-family="Helvetica" font-size="10.00">stdint.h</text>
</a>
</g>
</g>
<!-- Node7&#45;&gt;Node8 -->
<g id="edge7" class="edge">
<title>Node7&#45;&gt;Node8</title>
<path fill="none" stroke="midnightblue" d="M559.23,-56.08C553.86,-48.46 545.98,-37.26 539.42,-27.94"/>
<polygon fill="midnightblue" stroke="midnightblue" points="542.28,-25.91 533.66,-19.75 536.55,-29.94 542.28,-25.91"/>
</g>
<!-- Node9 -->
<g id="node9" class="node">
<title>Node9</title>
<g id="a_node9"><a xlink:title=" ">
<polygon fill="white" stroke="#bfbfbf" points="569.5,-0.5 569.5,-19.5 635.5,-19.5 635.5,-0.5 569.5,-0.5"/>
<text text-anchor="middle" x="602.5" y="-7.5" font-family="Helvetica" font-size="10.00">sys/types.h</text>
</a>
</g>
</g>
<!-- Node7&#45;&gt;Node9 -->
<g id="edge8" class="edge">
<title>Node7&#45;&gt;Node9</title>
<path fill="none" stroke="midnightblue" d="M571.61,-56.08C576.78,-48.53 584.35,-37.49 590.69,-28.23"/>
<polygon fill="midnightblue" stroke="midnightblue" points="593.74,-29.98 596.5,-19.75 587.96,-26.02 593.74,-29.98"/>
</g>
</g>
</svg>
