<?xml version="1.0" encoding="UTF-8" standalone="no"?>
<!DOCTYPE svg PUBLIC "-//W3C//DTD SVG 1.1//EN"
 "http://www.w3.org/Graphics/SVG/1.1/DTD/svg11.dtd">
<!-- Generated by graphviz version 2.44.0 (0)
 -->
<!-- Title: /home/ec2&#45;user/workspace/vsomeip/interface/vsomeip/message_base.hpp Pages: 1 -->
<svg width="760pt" height="117pt"
 viewBox="0.00 0.00 760.00 117.00" xmlns="http://www.w3.org/2000/svg" xmlns:xlink="http://www.w3.org/1999/xlink">
<g id="graph0" class="graph" transform="scale(1 1) rotate(0) translate(4 113)">
<title>/home/ec2&#45;user/workspace/vsomeip/interface/vsomeip/message_base.hpp</title>
<polygon fill="white" stroke="transparent" points="-4,4 -4,-113 756,-113 756,4 -4,4"/>
<!-- Node1 -->
<g id="node1" class="node">
<title>Node1</title>
<g id="a_node1"><a xlink:title=" ">
<polygon fill="#bfbfbf" stroke="black" points="264.5,-67.5 264.5,-108.5 401.5,-108.5 401.5,-67.5 264.5,-67.5"/>
<text text-anchor="start" x="272.5" y="-96.5" font-family="Helvetica" font-size="10.00">/home/ec2&#45;user/workspace</text>
<text text-anchor="start" x="272.5" y="-85.5" font-family="Helvetica" font-size="10.00">/vsomeip/interface/vsomeip</text>
<text text-anchor="middle" x="333" y="-74.5" font-family="Helvetica" font-size="10.00">/message_base.hpp</text>
</a>
</g>
</g>
<!-- Node2 -->
<g id="node2" class="node">
<title>Node2</title>
<g id="a_node2"><a xlink:title=" ">
<polygon fill="white" stroke="#bfbfbf" points="0,-6 0,-25 102,-25 102,-6 0,-6"/>
<text text-anchor="middle" x="51" y="-13" font-family="Helvetica" font-size="10.00">vsomeip/export.hpp</text>
</a>
</g>
</g>
<!-- Node1&#45;&gt;Node2 -->
<g id="edge1" class="edge">
<title>Node1&#45;&gt;Node2</title>
<path fill="none" stroke="midnightblue" d="M264.38,-69.84C211.63,-56.66 140.34,-38.84 95.01,-27.5"/>
<polygon fill="midnightblue" stroke="midnightblue" points="95.74,-24.08 85.19,-25.05 94.04,-30.87 95.74,-24.08"/>
</g>
<!-- Node3 -->
<g id="node3" class="node">
<title>Node3</title>
<g id="a_node3"><a xlink:title=" ">
<polygon fill="white" stroke="#bfbfbf" points="120,-6 120,-25 260,-25 260,-6 120,-6"/>
<text text-anchor="middle" x="190" y="-13" font-family="Helvetica" font-size="10.00">vsomeip/primitive_types.hpp</text>
</a>
</g>
</g>
<!-- Node1&#45;&gt;Node3 -->
<g id="edge2" class="edge">
<title>Node1&#45;&gt;Node3</title>
<path fill="none" stroke="midnightblue" d="M293.17,-67.36C268.8,-55.35 238.29,-40.3 216.78,-29.7"/>
<polygon fill="midnightblue" stroke="midnightblue" points="218.11,-26.46 207.59,-25.17 215.01,-32.73 218.11,-26.46"/>
</g>
<!-- Node4 -->
<g id="node4" class="node">
<title>Node4</title>
<g id="a_node4"><a xlink:title=" ">
<polygon fill="white" stroke="#bfbfbf" points="278,-0.5 278,-30.5 388,-30.5 388,-0.5 278,-0.5"/>
<text text-anchor="start" x="286" y="-18.5" font-family="Helvetica" font-size="10.00">vsomeip/enumeration</text>
<text text-anchor="middle" x="333" y="-7.5" font-family="Helvetica" font-size="10.00">_types.hpp</text>
</a>
</g>
</g>
<!-- Node1&#45;&gt;Node4 -->
<g id="edge3" class="edge">
<title>Node1&#45;&gt;Node4</title>
<path fill="none" stroke="midnightblue" d="M333,-67.36C333,-59.23 333,-49.7 333,-41.11"/>
<polygon fill="midnightblue" stroke="midnightblue" points="336.5,-40.89 333,-30.89 329.5,-40.89 336.5,-40.89"/>
</g>
<!-- Node5 -->
<g id="node5" class="node">
<title>Node5</title>
<g id="a_node5"><a xlink:title=" ">
<polygon fill="white" stroke="#bfbfbf" points="406.5,-6 406.5,-25 575.5,-25 575.5,-6 406.5,-6"/>
<text text-anchor="middle" x="491" y="-13" font-family="Helvetica" font-size="10.00">vsomeip/internal/deserializable.hpp</text>
</a>
</g>
</g>
<!-- Node1&#45;&gt;Node5 -->
<g id="edge4" class="edge">
<title>Node1&#45;&gt;Node5</title>
<path fill="none" stroke="midnightblue" d="M377.01,-67.36C404.3,-55.19 438.56,-39.9 462.36,-29.28"/>
<polygon fill="midnightblue" stroke="midnightblue" points="463.86,-32.44 471.56,-25.17 461,-26.05 463.86,-32.44"/>
</g>
<!-- Node6 -->
<g id="node6" class="node">
<title>Node6</title>
<g id="a_node6"><a xlink:title=" ">
<polygon fill="white" stroke="#bfbfbf" points="594,-6 594,-25 752,-25 752,-6 594,-6"/>
<text text-anchor="middle" x="673" y="-13" font-family="Helvetica" font-size="10.00">vsomeip/internal/serializable.hpp</text>
</a>
</g>
</g>
<!-- Node1&#45;&gt;Node6 -->
<g id="edge5" class="edge">
<title>Node1&#45;&gt;Node6</title>
<path fill="none" stroke="midnightblue" d="M401.8,-72.73C466.79,-59.26 562.79,-39.35 621.43,-27.19"/>
<polygon fill="midnightblue" stroke="midnightblue" points="622.49,-30.55 631.57,-25.09 621.07,-23.69 622.49,-30.55"/>
</g>
</g>
</svg>
