<?xml version="1.0" encoding="UTF-8" standalone="no"?>
<!DOCTYPE svg PUBLIC "-//W3C//DTD SVG 1.1//EN"
 "http://www.w3.org/Graphics/SVG/1.1/DTD/svg11.dtd">
<!-- Generated by graphviz version 2.44.0 (0)
 -->
<!-- Title: /home/ec2&#45;user/workspace/vsomeip/interface/vsomeip/plugins/application_plugin.hpp Pages: 1 -->
<svg width="241pt" height="106pt"
 viewBox="0.00 0.00 240.50 106.00" xmlns="http://www.w3.org/2000/svg" xmlns:xlink="http://www.w3.org/1999/xlink">
<g id="graph0" class="graph" transform="scale(1 1) rotate(0) translate(4 102)">
<title>/home/ec2&#45;user/workspace/vsomeip/interface/vsomeip/plugins/application_plugin.hpp</title>
<polygon fill="white" stroke="transparent" points="-4,4 -4,-102 236.5,-102 236.5,4 -4,4"/>
<!-- Node1 -->
<g id="node1" class="node">
<title>Node1</title>
<g id="a_node1"><a xlink:title=" ">
<polygon fill="#bfbfbf" stroke="black" points="11,-56.5 11,-97.5 160,-97.5 160,-56.5 11,-56.5"/>
<text text-anchor="start" x="19" y="-85.5" font-family="Helvetica" font-size="10.00">/home/ec2&#45;user/workspace</text>
<text text-anchor="start" x="19" y="-74.5" font-family="Helvetica" font-size="10.00">/vsomeip/interface/vsomeip</text>
<text text-anchor="middle" x="85.5" y="-63.5" font-family="Helvetica" font-size="10.00">/plugins/application_plugin.hpp</text>
</a>
</g>
</g>
<!-- Node2 -->
<g id="node2" class="node">
<title>Node2</title>
<g id="a_node2"><a xlink:title=" ">
<polygon fill="white" stroke="#bfbfbf" points="0,-0.5 0,-19.5 41,-19.5 41,-0.5 0,-0.5"/>
<text text-anchor="middle" x="20.5" y="-7.5" font-family="Helvetica" font-size="10.00">string</text>
</a>
</g>
</g>
<!-- Node1&#45;&gt;Node2 -->
<g id="edge1" class="edge">
<title>Node1&#45;&gt;Node2</title>
<path fill="none" stroke="midnightblue" d="M66,-56.5C56.51,-47.01 45.26,-35.76 36.31,-26.81"/>
<polygon fill="midnightblue" stroke="midnightblue" points="38.7,-24.25 29.15,-19.65 33.75,-29.2 38.7,-24.25"/>
</g>
<!-- Node3 -->
<g id="node3" class="node">
<title>Node3</title>
<g id="a_node3"><a xlink:title=" ">
<polygon fill="white" stroke="#bfbfbf" points="59,-0.5 59,-19.5 112,-19.5 112,-0.5 59,-0.5"/>
<text text-anchor="middle" x="85.5" y="-7.5" font-family="Helvetica" font-size="10.00">memory</text>
</a>
</g>
</g>
<!-- Node1&#45;&gt;Node3 -->
<g id="edge2" class="edge">
<title>Node1&#45;&gt;Node3</title>
<path fill="none" stroke="midnightblue" d="M85.5,-56.5C85.5,-48.07 85.5,-38.24 85.5,-29.87"/>
<polygon fill="midnightblue" stroke="midnightblue" points="89,-29.65 85.5,-19.65 82,-29.65 89,-29.65"/>
</g>
<!-- Node4 -->
<g id="node4" class="node">
<title>Node4</title>
<g id="a_node4"><a xlink:title=" ">
<polygon fill="white" stroke="#bfbfbf" points="130.5,-0.5 130.5,-19.5 232.5,-19.5 232.5,-0.5 130.5,-0.5"/>
<text text-anchor="middle" x="181.5" y="-7.5" font-family="Helvetica" font-size="10.00">vsomeip/export.hpp</text>
</a>
</g>
</g>
<!-- Node1&#45;&gt;Node4 -->
<g id="edge3" class="edge">
<title>Node1&#45;&gt;Node4</title>
<path fill="none" stroke="midnightblue" d="M114.3,-56.5C129.02,-46.53 146.62,-34.61 160.12,-25.48"/>
<polygon fill="midnightblue" stroke="midnightblue" points="162.4,-28.16 168.72,-19.65 158.48,-22.36 162.4,-28.16"/>
</g>
</g>
</svg>
